<?xml version="1.0" encoding="UTF-8"?> <svg xmlns="http://www.w3.org/2000/svg" width="53" height="43" viewBox="0 0 53 43" fill="none"><g clip-path="url(#clip0_602_9816)"><path d="M51 -5V41H28.6408H4" stroke="white" stroke-linecap="round" stroke-linejoin="round"></path><path d="M20 25H13V41H20V25Z" stroke="white" stroke-linecap="round" stroke-linejoin="round"></path><path d="M32 18H25V41H32V18Z" stroke="white" stroke-linecap="round" stroke-linejoin="round"></path><path d="M44 10H37V41H44V25.5V10Z" stroke="white" stroke-linecap="round" stroke-linejoin="round"></path><path d="M32.4372 9.36944L22.6863 10.7691C22.2891 10.8535 22.0062 11.1906 21.9985 11.5888L20.8922 20.2813L13 21.0215" stroke="black" stroke-linecap="round" stroke-linejoin="round"></path><path d="M32.4372 9.36944L22.6863 10.7691C22.2891 10.8535 22.0062 11.1906 21.9985 11.5888L20.8922 20.2813L13 21.0215" stroke="url(#paint0_linear_602_9816)" stroke-linecap="round" stroke-linejoin="round"></path><path d="M28.5685 5.79704L28.0011 6.61328L32.0517 9.42464L28.9593 13.2655L29.7382 13.893L33.503 9.21959L28.5685 5.79704Z" fill="black"></path><path d="M28.5685 5.79704L28.0011 6.61328L32.0517 9.42464L28.9593 13.2655L29.7382 13.893L33.503 9.21959L28.5685 5.79704Z" fill="url(#paint1_linear_602_9816)"></path></g><defs><linearGradient id="paint0_linear_602_9816" x1="19.5477" y1="17.1567" x2="33.2711" y2="21.705" gradientUnits="userSpaceOnUse"><stop offset="0.236106" stop-color="#DA291C"></stop><stop offset="1" stop-color="#FFCD00"></stop></linearGradient><linearGradient id="paint1_linear_602_9816" x1="27.9463" y1="9.78519" x2="36.1872" y2="8.42694" gradientUnits="userSpaceOnUse"><stop offset="0.236106" stop-color="#DA291C"></stop><stop offset="1" stop-color="#FFCD00"></stop></linearGradient><clipPath id="clip0_602_9816"><rect width="52.13" height="42.81" fill="white"></rect></clipPath></defs></svg> 