<?xml version="1.0" encoding="UTF-8"?> <svg xmlns="http://www.w3.org/2000/svg" width="54" height="48" viewBox="0 0 54 48" fill="none"><path d="M28.7886 28.7653V32.6899" stroke="black" stroke-miterlimit="10"></path><path d="M28.7886 36.6143V42.5013" stroke="black" stroke-miterlimit="10"></path><g clip-path="url(#clip0_1477_13703)"><path d="M14.2182 29.4989H1.12012V40.8811H14.2182V29.4989Z" stroke="black" stroke-miterlimit="10"></path><path d="M1.12012 38.3454L3.02669 36.4388C3.63679 35.8287 4.6282 35.8287 5.25737 36.4388C5.86747 37.0489 6.87795 37.0489 7.48805 36.4388L8.84172 35.0851C9.45182 34.475 10.4623 34.475 11.0724 35.0851L14.4089 38.4216" stroke="black" stroke-miterlimit="10"></path><path d="M7.27815 32.7973C7.27815 33.3121 6.85871 33.7506 6.32487 33.7506C5.79103 33.7506 5.37158 33.3311 5.37158 32.7973C5.37158 32.2634 5.79103 31.844 6.32487 31.844C6.85871 31.844 7.27815 32.2634 7.27815 32.7973Z" fill="black"></path><path d="M38.3553 19.5085V44.4845C38.3553 45.6475 37.402 46.6008 36.239 46.6008H14.7901C13.6271 46.6008 12.6738 45.6475 12.6738 44.4845V43.6075" stroke="black" stroke-linejoin="round"></path><path d="M38.3553 6.04814V3.5696C38.3553 2.40659 37.402 1.45331 36.239 1.45331H14.7901C13.6271 1.45331 12.6738 2.40659 12.6738 3.5696V26.315" stroke="black" stroke-linejoin="round"></path><path d="M38.3553 6.04814V3.5696C38.3553 2.40659 37.402 1.45331 36.239 1.45331H14.7901C13.6271 1.45331 12.6738 2.40659 12.6738 3.5696V26.315" stroke="url(#paint0_linear_1477_13703)" stroke-linejoin="round"></path><path d="M12.6738 9.38464H32.4259" stroke="black" stroke-linejoin="round"></path><path d="M17.0588 38.6695H38.3552" stroke="black" stroke-linejoin="round"></path><path d="M23.5222 42.6352H27.4879" stroke="black" stroke-linejoin="round"></path><path d="M23.5222 5.41895H27.4879" stroke="black" stroke-linejoin="round"></path><path d="M33.951 24.027C33.951 28.6981 30.176 32.4731 25.5049 32.4731C20.8338 32.4731 17.0588 28.6981 17.0588 24.027C17.0588 19.3559 20.8338 15.5809 25.5049 15.5809C30.176 15.5809 33.951 19.3559 33.951 24.027Z" stroke="black" stroke-linejoin="round"></path><path d="M28.0598 22.4445C28.0598 23.8554 26.9158 24.9803 25.524 24.9803C24.1322 24.9803 22.9883 23.8363 22.9883 22.4445C22.9883 21.0528 24.1322 19.9088 25.524 19.9088C26.9158 19.9088 28.0598 21.0528 28.0598 22.4445Z" stroke="black" stroke-linejoin="round"></path><path d="M19.9187 30.5856C19.9187 27.497 22.4163 24.9994 25.5049 24.9994C28.5936 24.9994 31.0912 27.497 31.0912 30.5856" stroke="black" stroke-linejoin="round"></path><path d="M49.9472 9.38458H35.2856V16.6105H49.9472V9.38458Z" stroke="black" stroke-miterlimit="10"></path><path d="M38.1074 13.1024H46.973" stroke="black" stroke-miterlimit="10"></path><path d="M43.8843 35.333H50.5382" stroke="black" stroke-miterlimit="10"></path><path d="M47.2017 35.4474V40.4426" stroke="black" stroke-miterlimit="10"></path><path d="M41.6345 31.7868H52.7689V42.9212H41.6345" stroke="black" stroke-miterlimit="10"></path><path d="M2.62622 5.41895H4.53279" stroke="black" stroke-miterlimit="10"></path><path d="M6.43945 5.41895H8.34602" stroke="black" stroke-miterlimit="10"></path><path d="M6.43945 13.0452H8.34602" stroke="black" stroke-miterlimit="10"></path><path d="M2.62622 9.23206H10.4241" stroke="black" stroke-miterlimit="10"></path><path d="M6.43945 9.23206H8.34602" stroke="black" stroke-miterlimit="10"></path></g><defs><linearGradient id="paint0_linear_1477_13703" x1="21.2695" y1="9.95861" x2="47.2524" y2="33.3022" gradientUnits="userSpaceOnUse"><stop offset="0.236106" stop-color="#DA291C"></stop><stop offset="1" stop-color="#FFCD00"></stop></linearGradient><clipPath id="clip0_1477_13703"><rect width="53.5555" height="47.0541" fill="white" transform="translate(0.166748 0.5)"></rect></clipPath></defs></svg> 