<?xml version="1.0" encoding="UTF-8"?> <svg xmlns="http://www.w3.org/2000/svg" width="72" height="64" viewBox="0 0 72 64" fill="none"><path d="M47.6703 51.8602C38.9674 60.563 24.8508 60.563 16.1479 51.8602C7.43692 43.1492 7.43692 29.0406 16.1398 20.3296C24.8426 11.6268 38.9593 11.6268 47.6622 20.3296C56.365 29.0325 56.365 43.1492 47.6622 51.852L47.6703 51.8602Z" stroke="black" stroke-linecap="round" stroke-linejoin="round"></path><path d="M42.175 25.8249C47.8494 31.4992 47.8494 40.6987 42.175 46.373C36.5007 52.0474 27.3012 52.0474 21.6269 46.373C15.9525 40.6987 15.9525 31.4992 21.6269 25.8249C27.3012 20.1505 36.5007 20.1505 42.175 25.8249V25.8249Z" stroke="black" stroke-linecap="round" stroke-linejoin="round"></path><path d="M36.6879 40.8778C34.0502 43.5156 29.7598 43.5156 27.1221 40.8778C24.4844 38.2401 24.4844 33.9498 27.1221 31.312C29.7598 28.6743 34.0502 28.6743 36.6879 31.312C39.3256 33.9498 39.3256 38.2401 36.6879 40.8778Z" stroke="black" stroke-linecap="round" stroke-linejoin="round"></path><path d="M36.6879 40.8778C34.0502 43.5156 29.7598 43.5156 27.1221 40.8778C24.4844 38.2401 24.4844 33.9498 27.1221 31.312C29.7598 28.6743 34.0502 28.6743 36.6879 31.312C39.3256 33.9498 39.3256 38.2401 36.6879 40.8778Z" stroke="url(#paint0_linear_731_28165)" stroke-linecap="round" stroke-linejoin="round"></path><path d="M46.9783 21.0217L31.901 36.0991" stroke="white" stroke-width="4" stroke-linecap="round" stroke-linejoin="round"></path><path d="M45.1709 24.1398C44.4464 24.1398 43.8602 23.5537 43.8602 22.8291V15.8685C43.8602 15.5184 43.9986 15.1846 44.2429 14.9404L52.4898 6.69342C52.7422 6.44105 53.076 6.31079 53.4179 6.31079C53.5889 6.31079 53.7598 6.34336 53.9226 6.40848C54.4111 6.61201 54.7286 7.09234 54.7286 7.62151V13.2714H60.3785C60.9077 13.2714 61.388 13.5889 61.5916 14.0774C61.7951 14.5659 61.6811 15.1276 61.3066 15.5021L53.0597 23.7491C52.8155 23.9933 52.4817 24.1317 52.1316 24.1317H45.1709V24.1398Z" fill="white"></path><path d="M53.3173 8.43449V14.6861H59.5665L52.1625 22.093H45.9134V15.8414L53.3173 8.43449ZM53.3173 6.08008C52.7034 6.08008 52.1041 6.32137 51.6509 6.76739L44.247 14.1743C43.8084 14.613 43.5599 15.2126 43.5599 15.8341V22.0857C43.5599 23.3872 44.6124 24.4401 45.9134 24.4401H52.1625C52.7838 24.4401 53.3831 24.1915 53.8217 23.7528L61.189 16.3824C61.6349 15.951 61.9199 15.3515 61.9199 14.6788C61.9199 13.3773 60.8675 12.3244 59.5738 12.3244H55.6708V8.43449C55.6708 7.48395 55.1007 6.62847 54.2163 6.26287C53.924 6.14588 53.617 6.08739 53.3173 6.08739V6.08008Z" fill="white"></path><path d="M53.4178 7.62134V14.582H60.3785L52.1315 22.8289H45.1709V15.8683L53.4178 7.62134Z" stroke="black" stroke-linecap="round" stroke-linejoin="round"></path><path d="M45.171 22.8291L31.901 36.0991" stroke="black" stroke-linecap="round" stroke-linejoin="round"></path><defs><linearGradient id="paint0_linear_731_28165" x1="29.6698" y1="33.9598" x2="43.7459" y2="46.2024" gradientUnits="userSpaceOnUse"><stop offset="0.236106" stop-color="#DA291C"></stop><stop offset="1" stop-color="#FFCD00"></stop></linearGradient></defs></svg> 