<?xml version="1.0" encoding="UTF-8"?> <svg xmlns="http://www.w3.org/2000/svg" width="72" height="64" viewBox="0 0 72 64" fill="none"><path d="M23.9999 47.6138C18.9076 44.5419 15.2154 39.4609 14.0768 33.5M24.9878 11C28.0595 9.3597 31.5827 8.42749 35.3283 8.42749C39.4164 8.42749 43.2396 9.53799 46.4999 11.4676M56.5798 33.5C55.4412 39.4609 51.749 44.5419 46.6567 47.6138" stroke="black" stroke-linecap="round" stroke-linejoin="round"></path><path d="M23.9999 47.6138C18.9076 44.5419 15.2154 39.4609 14.0768 33.5M24.9878 11C28.0595 9.3597 31.5827 8.42749 35.3283 8.42749C39.4164 8.42749 43.2396 9.53799 46.4999 11.4676M56.5798 33.5C55.4412 39.4609 51.749 44.5419 46.6567 47.6138" stroke="url(#paint0_linear_731_28228)" stroke-linecap="round" stroke-linejoin="round"></path><path d="M22.0797 13.103C22.0797 15.3736 20.1947 17.2185 17.8747 17.2185C15.5547 17.2185 13.6697 15.3736 13.6697 13.103C13.6697 10.8324 15.5547 8.98755 17.8747 8.98755C20.1947 8.98755 22.0797 10.8324 22.0797 13.103Z" stroke="black" stroke-linecap="round" stroke-linejoin="round"></path><path d="M26.6893 30.4911V24.2694C26.6893 22.4245 25.1629 20.9307 23.2779 20.9307H12.4639C10.5789 20.9307 9.05261 22.4245 9.05261 24.2694V30.4911" stroke="black" stroke-linecap="square" stroke-linejoin="bevel"></path><path d="M13.7614 26.271V30.491" stroke="black" stroke-linecap="round" stroke-linejoin="bevel"></path><path d="M21.9882 30.491V26.271" stroke="black" stroke-linecap="round" stroke-linejoin="bevel"></path><path d="M57.3303 13.103C57.3303 15.3736 55.4453 17.2185 53.1253 17.2185C50.8053 17.2185 48.9203 15.3736 48.9203 13.103C48.9203 10.8324 50.8053 8.98755 53.1253 8.98755C55.4453 8.98755 57.3303 10.8324 57.3303 13.103Z" stroke="black" stroke-linecap="round" stroke-linejoin="round"></path><path d="M61.9474 30.4911V24.2694C61.9474 22.4245 60.4211 20.9307 58.5361 20.9307H47.7144C45.8294 20.9307 44.3031 22.4245 44.3031 24.2694V30.4911" stroke="black" stroke-linecap="square" stroke-linejoin="bevel"></path><path d="M49.0194 26.271V30.491" stroke="black" stroke-linecap="round" stroke-linejoin="bevel"></path><path d="M57.2463 30.491V26.271" stroke="black" stroke-linecap="round" stroke-linejoin="bevel"></path><path d="M39.7775 37.6243C39.7775 39.8949 37.8925 41.7398 35.5724 41.7398C33.2524 41.7398 31.3674 39.8949 31.3674 37.6243C31.3674 35.3537 33.2524 33.5088 35.5724 33.5088C37.8925 33.5088 39.7775 35.3537 39.7775 37.6243Z" stroke="black" stroke-linecap="round" stroke-linejoin="round"></path><path d="M44.3947 55.0124V48.7906C44.3947 46.9457 42.8683 45.4519 40.9833 45.4519H30.1617C28.2767 45.4519 26.7504 46.9457 26.7504 48.7906V55.0124" stroke="black" stroke-linecap="square" stroke-linejoin="bevel"></path><path d="M31.4591 50.7925V55.0125" stroke="black" stroke-linecap="round" stroke-linejoin="round"></path><path d="M39.6859 55.0125V50.7925" stroke="black" stroke-linecap="round" stroke-linejoin="round"></path><path d="M13.7614 27.4663V30.4913" stroke="black" stroke-linecap="square" stroke-linejoin="bevel"></path><path d="M21.9883 30.4913V27.4663" stroke="black" stroke-linecap="square" stroke-linejoin="bevel"></path><path d="M49.0194 27.4663V30.4913" stroke="black" stroke-linecap="square" stroke-linejoin="bevel"></path><path d="M57.2463 30.4913V27.4663" stroke="black" stroke-linecap="square" stroke-linejoin="bevel"></path><path d="M31.4591 51.9873V55.0123" stroke="black" stroke-linecap="square" stroke-linejoin="bevel"></path><path d="M39.6859 55.0123V51.9873" stroke="black" stroke-linecap="square" stroke-linejoin="bevel"></path><defs><linearGradient id="paint0_linear_731_28228" x1="28.3026" y1="21.8333" x2="69.4214" y2="60.6231" gradientUnits="userSpaceOnUse"><stop offset="0.236106" stop-color="#DA291C"></stop><stop offset="1" stop-color="#FFCD00"></stop></linearGradient></defs></svg> 