<?xml version="1.0" encoding="UTF-8"?> <svg xmlns="http://www.w3.org/2000/svg" width="72" height="64" viewBox="0 0 72 64" fill="none"><path d="M37.6218 36.2654V40.19" stroke="black" stroke-miterlimit="10"></path><path d="M37.6218 44.1143V50.0012" stroke="black" stroke-miterlimit="10"></path><g clip-path="url(#clip0_723_30908)"><path d="M23.0514 36.9988H9.95325V48.381H23.0514V36.9988Z" stroke="black" stroke-miterlimit="10"></path><path d="M9.95325 45.8453L11.8598 43.9387C12.4699 43.3286 13.4613 43.3286 14.0905 43.9387C14.7006 44.5488 15.7111 44.5488 16.3212 43.9387L17.6748 42.585C18.2849 41.9749 19.2954 41.9749 19.9055 42.585L23.242 45.9215" stroke="black" stroke-miterlimit="10"></path><path d="M16.1115 40.2973C16.1115 40.8121 15.6921 41.2506 15.1582 41.2506C14.6244 41.2506 14.205 40.8311 14.205 40.2973C14.205 39.7634 14.6244 39.344 15.1582 39.344C15.6921 39.344 16.1115 39.7634 16.1115 40.2973Z" fill="black"></path><path d="M47.1886 27.0085V51.9846C47.1886 53.1476 46.2353 54.1009 45.0723 54.1009H23.6234C22.4604 54.1009 21.5071 53.1476 21.5071 51.9846V51.1076" stroke="black" stroke-linejoin="round"></path><path d="M47.1886 13.5482V11.0697C47.1886 9.90665 46.2353 8.95337 45.0723 8.95337H23.6234C22.4604 8.95337 21.5071 9.90665 21.5071 11.0697V33.815" stroke="black" stroke-linejoin="round"></path><path d="M47.1886 13.5482V11.0697C47.1886 9.90665 46.2353 8.95337 45.0723 8.95337H23.6234C22.4604 8.95337 21.5071 9.90665 21.5071 11.0697V33.815" stroke="url(#paint0_linear_723_30908)" stroke-linejoin="round"></path><path d="M21.5071 16.8848H41.2591" stroke="black" stroke-linejoin="round"></path><path d="M25.8922 46.1697H47.1886" stroke="black" stroke-linejoin="round"></path><path d="M32.3555 50.1353H36.3211" stroke="black" stroke-linejoin="round"></path><path d="M32.3555 12.9189H36.3211" stroke="black" stroke-linejoin="round"></path><path d="M42.7844 31.5272C42.7844 36.1982 39.0094 39.9732 34.3383 39.9732C29.6672 39.9732 25.8922 36.1982 25.8922 31.5272C25.8922 26.8561 29.6672 23.0811 34.3383 23.0811C39.0094 23.0811 42.7844 26.8561 42.7844 31.5272Z" stroke="black" stroke-linejoin="round"></path><path d="M36.8931 29.9447C36.8931 31.3555 35.7492 32.4804 34.3574 32.4804C32.9656 32.4804 31.8217 31.3365 31.8217 29.9447C31.8217 28.5529 32.9656 27.4089 34.3574 27.4089C35.7492 27.4089 36.8931 28.5529 36.8931 29.9447Z" stroke="black" stroke-linejoin="round"></path><path d="M28.7521 38.0858C28.7521 34.9971 31.2497 32.4995 34.3383 32.4995C37.427 32.4995 39.9246 34.9971 39.9246 38.0858" stroke="black" stroke-linejoin="round"></path><path d="M58.7805 16.8845H44.119V24.1104H58.7805V16.8845Z" stroke="black" stroke-miterlimit="10"></path><path d="M46.9408 20.6023H55.8063" stroke="black" stroke-miterlimit="10"></path><path d="M52.7177 42.833H59.3716" stroke="black" stroke-miterlimit="10"></path><path d="M56.035 42.9475V47.9427" stroke="black" stroke-miterlimit="10"></path><path d="M50.4679 39.2869H61.6023V50.4212H50.4679" stroke="black" stroke-miterlimit="10"></path><path d="M11.4595 12.9189H13.366" stroke="black" stroke-miterlimit="10"></path><path d="M15.2726 12.9189H17.1792" stroke="black" stroke-miterlimit="10"></path><path d="M15.2726 20.5452H17.1792" stroke="black" stroke-miterlimit="10"></path><path d="M11.4595 16.7322H19.2573" stroke="black" stroke-miterlimit="10"></path><path d="M15.2726 16.7322H17.1792" stroke="black" stroke-miterlimit="10"></path></g><defs><linearGradient id="paint0_linear_723_30908" x1="30.1027" y1="17.4587" x2="56.0856" y2="40.8023" gradientUnits="userSpaceOnUse"><stop offset="0.236106" stop-color="#DA291C"></stop><stop offset="1" stop-color="#FFCD00"></stop></linearGradient><clipPath id="clip0_723_30908"><rect width="53.5555" height="47.0541" fill="white" transform="translate(9 8)"></rect></clipPath></defs></svg> 