<?xml version="1.0" encoding="UTF-8"?> <svg xmlns="http://www.w3.org/2000/svg" width="70" height="64" viewBox="0 0 70 64" fill="none"><g clip-path="url(#clip0_423_18975)"><path d="M46.4236 38.7162C53.1266 32.0132 55.5339 22.6523 53.6635 14.0251C53.4935 13.2555 52.9029 12.6649 52.1422 12.5038C43.5151 10.6334 34.1541 13.0497 27.4511 19.7437C24.8379 22.3569 22.887 25.3728 21.5804 28.5946C21.2851 29.3284 21.4372 30.1607 21.9921 30.7245L35.4428 44.1753C35.9977 44.7301 36.8389 44.8912 37.5727 44.5869C40.7945 43.2803 43.8104 41.3294 46.4236 38.7162V38.7162Z" stroke="black" stroke-linecap="round" stroke-linejoin="round"></path><path d="M45.1438 48.3992C48.2403 45.3028 49.2158 40.846 48.0613 36.8994C47.5422 37.5259 47.0053 38.1344 46.4146 38.7251C43.4703 41.6694 40.0069 43.7725 36.3288 45.0612L42.4054 51.1377L45.1438 48.3992V48.3992Z" stroke="black" stroke-linecap="round" stroke-linejoin="round"></path><path d="M27.4511 19.7438C28.0328 19.1621 28.6503 18.6162 29.2767 18.0972C25.3301 16.9427 20.8734 17.9182 17.7769 21.0146L15.0385 23.7531L21.115 29.8297C22.4037 26.1426 24.5068 22.6881 27.4511 19.7438V19.7438Z" stroke="black" stroke-linecap="round" stroke-linejoin="round"></path><path d="M21.8757 30.5991C21.1866 32.5769 20.766 34.6352 20.6049 36.7025L29.4647 45.5623C31.532 45.4012 33.5903 44.9806 35.5681 44.2915L21.8757 30.5991V30.5991Z" stroke="black" stroke-linecap="round" stroke-linejoin="round"></path><path d="M20.5748 36.6843L18.0516 39.2109L18.115 39.2742L20.6381 36.7475L20.5748 36.6843Z" stroke="black" stroke-linecap="round" stroke-linejoin="round"></path><path d="M29.4272 45.5264L26.9005 48.0496L26.9638 48.1129L29.4904 45.5897L29.4272 45.5264Z" stroke="black" stroke-linecap="round" stroke-linejoin="round"></path><path d="M22.4805 43.635L18.6963 47.4192L18.7596 47.4825L22.5438 43.6983L22.4805 43.635Z" stroke="black" stroke-linecap="round" stroke-linejoin="round"></path><path d="M24.3779 50.578L23.7442 51.21L23.8074 51.2733L24.4411 50.6414L24.3779 50.578Z" stroke="black" stroke-linecap="round" stroke-linejoin="round"></path><path d="M15.5323 41.7224L14.8995 42.3552L14.9628 42.4185L15.5956 41.7857L15.5323 41.7224Z" stroke="black" stroke-linecap="round" stroke-linejoin="round"></path><path d="M16.1742 49.9354L14.9158 51.1956L14.9791 51.2588L16.2375 49.9986L16.1742 49.9354Z" stroke="black" stroke-linecap="round" stroke-linejoin="round"></path><path d="M35.6576 34.2952L31.872 30.5097L38.1813 24.2004L36.284 22.3121L44.4547 21.6499L43.8551 29.8832L41.9668 27.986L35.6576 34.2952Z" stroke="black" stroke-linecap="round" stroke-linejoin="round"></path><path d="M35.6576 34.2952L31.872 30.5097L38.1813 24.2004L36.284 22.3121L44.4547 21.6499L43.8551 29.8832L41.9668 27.986L35.6576 34.2952Z" stroke="url(#paint0_linear_423_18975)" stroke-linecap="round" stroke-linejoin="round"></path></g><defs><linearGradient id="paint0_linear_423_18975" x1="36.0835" y1="25.9759" x2="49.2374" y2="37.3598" gradientUnits="userSpaceOnUse"><stop offset="0.236106" stop-color="#DA291C"></stop><stop offset="1" stop-color="#FFCD00"></stop></linearGradient><clipPath id="clip0_423_18975"><rect width="41.1667" height="41.1667" fill="white" transform="translate(14.0003 11.0002)"></rect></clipPath></defs></svg> 