<?xml version="1.0" encoding="UTF-8"?> <svg xmlns="http://www.w3.org/2000/svg" width="72" height="64" viewBox="0 0 72 64" fill="none"><path d="M34.5655 41.9439V45.5588H29.5536L38.3245 56.4035L47.0954 45.5588H42.0834V36M43.5 39.534H55.8663C60.7154 39.534 64.6372 35.7625 64.6372 31.0993C64.6372 26.4361 60.7154 22.6645 55.8663 22.6645C54.9391 22.6645 54.0369 22.8091 53.1974 23.0622C53.2977 22.544 53.3603 22.0018 53.3603 21.4596C53.3603 16.7964 49.4385 13.0248 44.5894 13.0248C42.3967 13.0248 40.4044 13.808 38.8633 15.0853C37.1592 10.3859 32.5106 7 27.0476 7C20.1186 7 14.5052 12.3982 14.5052 19.0496C14.5052 20.3148 14.7182 21.5439 15.0941 22.6886C10.5708 23.026 6.99979 26.653 6.99979 31.0872C6.99979 35.7504 10.9216 39.522 15.7707 39.522H25" stroke="black" stroke-miterlimit="10"></path><path d="M38.9062 15.2339C39.4309 16.2139 39.774 17.2476 39.9355 18.3216" stroke="black" stroke-miterlimit="10"></path><path d="M53.3156 23.4678C53.1263 24.2114 52.7714 24.9096 52.2863 25.5263" stroke="black" stroke-miterlimit="10"></path><path d="M15.2337 22.5101C16.2669 22.279 17.312 22.6092 18.3214 23.4677" stroke="black" stroke-miterlimit="10"></path><path d="M34.7892 32.731V34.7894" stroke="black" stroke-miterlimit="10"></path><path d="M34.7892 36.8479V39.9356" stroke="black" stroke-miterlimit="10"></path><path d="M27.0476 41.5V27.4724H22.0356L30.8066 16.6277L39.5775 27.4724H34.5655V29.8823" stroke="black" stroke-miterlimit="10"></path><path d="M27.0476 41.5V27.4724H22.0356L30.8066 16.6277L39.5775 27.4724H34.5655V29.8823" stroke="url(#paint0_linear_398_21260)" stroke-miterlimit="10"></path><defs><linearGradient id="paint0_linear_398_21260" x1="27.9069" y1="25.1366" x2="51.2113" y2="39.4317" gradientUnits="userSpaceOnUse"><stop offset="0.236106" stop-color="#DA291C"></stop><stop offset="1" stop-color="#FFCD00"></stop></linearGradient></defs></svg> 