<?xml version="1.0" encoding="UTF-8"?> <svg xmlns="http://www.w3.org/2000/svg" width="72" height="64" viewBox="0 0 72 64" fill="none"><g clip-path="url(#clip0_742_24317)"><path d="M45.673 18.6472C43.7653 18.6472 42.228 17.1596 42.228 15.3335C42.228 13.5074 43.7746 12.0198 45.673 12.0198C47.5715 12.0198 49.118 13.5074 49.118 15.3335C49.118 17.1596 47.5715 18.6472 45.673 18.6472Z" stroke="black" stroke-miterlimit="10"></path><path d="M45.673 18.6472C43.7653 18.6472 42.228 17.1596 42.228 15.3335C42.228 13.5074 43.7746 12.0198 45.673 12.0198C47.5715 12.0198 49.118 13.5074 49.118 15.3335C49.118 17.1596 47.5715 18.6472 45.673 18.6472Z" stroke="url(#paint0_linear_742_24317)" stroke-miterlimit="10"></path><path d="M46.2842 25.8446C45.9323 26.1119 45.423 26.1119 45.0711 25.8446C44.9785 25.7734 44.8859 25.7021 44.7932 25.6219C43.7746 24.7935 42.83 23.8938 41.9687 22.9139C39.9869 20.6514 38.7737 18.3531 38.7737 16.0816C38.7737 12.4116 41.8668 9.44531 45.673 9.44531C49.4792 9.44531 52.5723 12.4205 52.5723 16.0816C52.5723 18.3531 51.3684 20.6514 49.3773 22.9139C48.5161 23.8938 47.5715 24.7935 46.5528 25.6219C46.4231 25.7288 46.3305 25.8001 46.275 25.8446H46.2842Z" stroke="black" stroke-miterlimit="10"></path><path d="M46.2842 25.8446C45.9323 26.1119 45.423 26.1119 45.0711 25.8446C44.9785 25.7734 44.8859 25.7021 44.7932 25.6219C43.7746 24.7935 42.83 23.8938 41.9687 22.9139C39.9869 20.6514 38.7737 18.3531 38.7737 16.0816C38.7737 12.4116 41.8668 9.44531 45.673 9.44531C49.4792 9.44531 52.5723 12.4205 52.5723 16.0816C52.5723 18.3531 51.3684 20.6514 49.3773 22.9139C48.5161 23.8938 47.5715 24.7935 46.5528 25.6219C46.4231 25.7288 46.3305 25.8001 46.275 25.8446H46.2842Z" stroke="url(#paint1_linear_742_24317)" stroke-miterlimit="10"></path><path d="M18.4925 43.5892C15.7235 43.5892 13.4824 41.4335 13.4824 38.7701C13.4824 36.1066 15.7235 33.9509 18.4925 33.9509C21.2615 33.9509 23.5026 36.1066 23.5026 38.7701C23.5026 41.4335 21.2615 43.5892 18.4925 43.5892" stroke="black" stroke-miterlimit="10"></path><path d="M19.3815 54.0469C18.8629 54.4389 18.1406 54.4389 17.622 54.0469C17.4831 53.9489 17.3442 53.8331 17.2145 53.7263C15.7328 52.5326 14.3622 51.2142 13.112 49.789C10.2226 46.5109 8.47229 43.1616 8.47229 39.8657C8.47229 34.5388 12.9638 30.2185 18.5018 30.2185C24.0397 30.2185 28.5312 34.5388 28.5312 39.8657C28.5312 43.1616 26.7809 46.5109 23.8916 49.789C22.6413 51.2053 21.2615 52.5237 19.789 53.7263C19.5945 53.8777 19.4649 53.9846 19.3815 54.0469V54.0469Z" stroke="black" stroke-miterlimit="10"></path><path d="M40.3017 26.0496H38.4496C35.3842 26.0496 32.8931 28.4458 32.8931 31.3943C32.8931 34.3427 35.375 36.7389 38.4496 36.7389H53.2854C58.3974 36.7389 62.5462 40.7297 62.5462 45.6468C62.5462 50.5639 58.3974 54.5546 53.2854 54.5546H23.6323" stroke="black" stroke-miterlimit="10" stroke-linecap="round"></path></g><defs><linearGradient id="paint0_linear_742_24317" x1="44.5341" y1="14.2871" x2="51.465" y2="20.554" gradientUnits="userSpaceOnUse"><stop offset="0.236106" stop-color="#DA291C"></stop><stop offset="1" stop-color="#FFCD00"></stop></linearGradient><linearGradient id="paint1_linear_742_24317" x1="43.3921" y1="15.1242" x2="59.9608" y2="27.1029" gradientUnits="userSpaceOnUse"><stop offset="0.236106" stop-color="#DA291C"></stop><stop offset="1" stop-color="#FFCD00"></stop></linearGradient><clipPath id="clip0_742_24317"><rect width="55" height="46" fill="white" transform="translate(8 9)"></rect></clipPath></defs></svg> 