<?xml version="1.0" encoding="UTF-8"?> <svg xmlns="http://www.w3.org/2000/svg" xmlns:xlink="http://www.w3.org/1999/xlink" version="1.1" id="Layer_1" x="0px" y="0px" viewBox="0 0 72 64" style="enable-background:new 0 0 72 64;" xml:space="preserve"> <style type="text/css"> .st0{display:none;fill:none;} .st1{fill:none;stroke:#FFFFFF;stroke-miterlimit:10;} .st2{fill:none;stroke:#000000;stroke-miterlimit:10;} .st3{fill:none;stroke:url(#SVGID_1_);stroke-miterlimit:10;} .st4{fill:none;stroke:url(#SVGID_00000179630755411962058430000007101490905888422836_);stroke-miterlimit:10;} .st5{fill:none;stroke:url(#SVGID_00000047741313994103355120000013803154372823008393_);stroke-miterlimit:10;} .st6{fill:none;stroke:url(#SVGID_00000105418170224779551430000004466476309244965770_);stroke-miterlimit:10;} </style> <rect x="9" y="5" class="st0" width="54" height="54"></rect> <path class="st1" d="M50.6,36.5H54c4.4,0,7.9-3.5,7.9-7.9s-3.5-7.9-7.9-7.9c-0.8,0-1.6,0.1-2.4,0.4c0.1-0.5,0.1-1,0.1-1.5 c0-4.4-3.5-7.9-7.9-7.9c-2,0-3.8,0.7-5.1,1.9C37.2,9.3,33,6.1,28.1,6.1c-6.2,0-11.3,5-11.3,11.2c0,1.2,0.2,2.3,0.5,3.4 c-4.1,0.3-7.3,3.7-7.3,7.8c0,4.4,3.5,7.9,7.9,7.9h3.4"></path> <path class="st1" d="M38.8,13.7c0.3,0.8,0.5,1.7,0.6,2.6"></path> <path class="st1" d="M51.6,21.1c-0.2,0.9-0.5,1.8-1,2.6"></path> <path class="st1" d="M17.4,20.8c1-0.1,2,0,2.9,0.3"></path> <path class="st1" d="M24.8,45.5H11.2v9h13.5V45.5z"></path> <path class="st1" d="M42.8,45.5H29.2v9h13.5V45.5z"></path> <path class="st1" d="M60.8,45.5H47.2v9h13.5V45.5z"></path> <path class="st1" d="M13.5,57.9h9"></path> <path class="st1" d="M18,54.5v3.4"></path> <path class="st1" d="M31.5,57.9h9"></path> <path class="st1" d="M36,54.5v3.4"></path> <path class="st1" d="M49.5,57.9h9"></path> <path class="st1" d="M54,54.5v3.4"></path> <path class="st1" d="M23.6,43.2v-9"></path> <path class="st2" d="M36,43.2V32"></path> <linearGradient id="SVGID_1_" gradientUnits="userSpaceOnUse" x1="36.1962" y1="28.3598" x2="38.0137" y2="28.2193" gradientTransform="matrix(1 0 0 -1 0 66)"> <stop offset="0.2361" style="stop-color:#DA291C"></stop> <stop offset="1" style="stop-color:#FFCD00"></stop> </linearGradient> <path class="st3" d="M36,43.2V32"></path> <path class="st1" d="M48.4,43.2v-7.9"></path> <path class="st1" d="M25.9,36.5h7.9"></path> <path class="st1" d="M38.2,36.5h7.9"></path> <path class="st2" d="M23.6,32v-2.2"></path> <linearGradient id="SVGID_00000036229673213019949760000007019628275786720152_" gradientUnits="userSpaceOnUse" x1="23.7967" y1="35.0586" x2="25.3874" y2="34.4437" gradientTransform="matrix(1 0 0 -1 0 66)"> <stop offset="0.2361" style="stop-color:#DA291C"></stop> <stop offset="1" style="stop-color:#FFCD00"></stop> </linearGradient> <path style="fill:none;stroke:url(#SVGID_00000036229673213019949760000007019628275786720152_);stroke-miterlimit:10;" d="M23.6,32 v-2.2"></path> <path class="st2" d="M23.6,27.5v-2.2"></path> <linearGradient id="SVGID_00000137116094173316178990000006295793753672151463_" gradientUnits="userSpaceOnUse" x1="23.7967" y1="39.5586" x2="25.3874" y2="38.9437" gradientTransform="matrix(1 0 0 -1 0 66)"> <stop offset="0.2361" style="stop-color:#DA291C"></stop> <stop offset="1" style="stop-color:#FFCD00"></stop> </linearGradient> <path style="fill:none;stroke:url(#SVGID_00000137116094173316178990000006295793753672151463_);stroke-miterlimit:10;" d=" M23.6,27.5v-2.2"></path> <path class="st1" d="M36,29.8v-2.2"></path> <path class="st1" d="M36,25.2V23"></path> <path class="st2" d="M48.4,33.1v-2.2"></path> <linearGradient id="SVGID_00000096031277365694132370000006226127373437189556_" gradientUnits="userSpaceOnUse" x1="48.5467" y1="33.9336" x2="50.1374" y2="33.3187" gradientTransform="matrix(1 0 0 -1 0 66)"> <stop offset="0.2361" style="stop-color:#DA291C"></stop> <stop offset="1" style="stop-color:#FFCD00"></stop> </linearGradient> <path style="fill:none;stroke:url(#SVGID_00000096031277365694132370000006226127373437189556_);stroke-miterlimit:10;" d=" M48.4,33.1v-2.2"></path> <path class="st1" d="M36,20.8v-2.2"></path> </svg> 