<?xml version="1.0" encoding="UTF-8"?> <svg xmlns="http://www.w3.org/2000/svg" width="72" height="64" viewBox="0 0 72 64" fill="none"><g clip-path="url(#clip0_750_26010)"><path d="M50.625 36.5H54C58.3537 36.5 61.875 32.9787 61.875 28.625C61.875 24.2713 58.3537 20.75 54 20.75C53.1675 20.75 52.3575 20.885 51.6037 21.1212C51.6937 20.6375 51.75 20.1312 51.75 19.625C51.75 15.2713 48.2287 11.75 43.875 11.75C41.9062 11.75 40.1175 12.4813 38.7338 13.6738C37.2038 9.28625 33.03 6.125 28.125 6.125C21.9037 6.125 16.8637 11.165 16.8637 17.375C16.8637 18.5562 17.055 19.7038 17.3925 20.7725C13.3313 21.0875 10.125 24.4737 10.125 28.6137C10.125 32.9675 13.6463 36.4887 18 36.4887H21.375" stroke="black" stroke-miterlimit="10"></path><path d="M38.7563 13.6626C39.0488 14.4838 39.24 15.3501 39.33 16.2501" stroke="black" stroke-miterlimit="10"></path><path d="M51.6037 21.1213C51.4237 22.0438 51.0862 22.9101 50.625 23.6751" stroke="black" stroke-miterlimit="10"></path><path d="M17.3925 20.7725C18.3712 20.6937 19.3612 20.8062 20.3175 21.0987" stroke="black" stroke-miterlimit="10"></path><path d="M24.75 45.5H11.25V54.5H24.75V45.5Z" stroke="black" stroke-miterlimit="10"></path><path d="M42.75 45.5H29.25V54.5H42.75V45.5Z" stroke="black" stroke-miterlimit="10"></path><path d="M60.75 45.5H47.25V54.5H60.75V45.5Z" stroke="black" stroke-miterlimit="10"></path><path d="M13.5 57.875H22.5" stroke="black" stroke-miterlimit="10"></path><path d="M18 54.5V57.875" stroke="black" stroke-miterlimit="10"></path><path d="M31.5 57.875H40.5" stroke="black" stroke-miterlimit="10"></path><path d="M36 54.5V57.875" stroke="black" stroke-miterlimit="10"></path><path d="M49.5 57.875H58.5" stroke="black" stroke-miterlimit="10"></path><path d="M54 54.5V57.875" stroke="black" stroke-miterlimit="10"></path><path d="M23.625 43.25V34.25" stroke="black" stroke-miterlimit="10"></path><path d="M36 43.25V32" stroke="black" stroke-miterlimit="10"></path><path d="M36 43.25V32" stroke="url(#paint0_linear_750_26010)" stroke-miterlimit="10"></path><path d="M48.375 43.25V35.375" stroke="black" stroke-miterlimit="10"></path><path d="M25.875 36.5H33.75" stroke="black" stroke-miterlimit="10"></path><path d="M38.25 36.5H46.125" stroke="black" stroke-miterlimit="10"></path><path d="M23.625 32V29.75" stroke="black" stroke-miterlimit="10"></path><path d="M23.625 32V29.75" stroke="url(#paint1_linear_750_26010)" stroke-miterlimit="10"></path><path d="M23.625 27.5V25.25" stroke="black" stroke-miterlimit="10"></path><path d="M23.625 27.5V25.25" stroke="url(#paint2_linear_750_26010)" stroke-miterlimit="10"></path><path d="M36 29.75V27.5" stroke="black" stroke-miterlimit="10"></path><path d="M36 25.25V23" stroke="black" stroke-miterlimit="10"></path><path d="M48.375 33.125V30.875" stroke="black" stroke-miterlimit="10"></path><path d="M48.375 33.125V30.875" stroke="url(#paint3_linear_750_26010)" stroke-miterlimit="10"></path><path d="M36 20.75V18.5" stroke="black" stroke-miterlimit="10"></path></g><defs><linearGradient id="paint0_linear_750_26010" x1="36.3347" y1="35.8487" x2="38.1522" y2="35.9892" gradientUnits="userSpaceOnUse"><stop offset="0.236106" stop-color="#DA291C"></stop><stop offset="1" stop-color="#FFCD00"></stop></linearGradient><linearGradient id="paint1_linear_750_26010" x1="23.9597" y1="30.5197" x2="25.5504" y2="31.1346" gradientUnits="userSpaceOnUse"><stop offset="0.236106" stop-color="#DA291C"></stop><stop offset="1" stop-color="#FFCD00"></stop></linearGradient><linearGradient id="paint2_linear_750_26010" x1="23.9597" y1="26.0197" x2="25.5504" y2="26.6346" gradientUnits="userSpaceOnUse"><stop offset="0.236106" stop-color="#DA291C"></stop><stop offset="1" stop-color="#FFCD00"></stop></linearGradient><linearGradient id="paint3_linear_750_26010" x1="48.7097" y1="31.6447" x2="50.3004" y2="32.2596" gradientUnits="userSpaceOnUse"><stop offset="0.236106" stop-color="#DA291C"></stop><stop offset="1" stop-color="#FFCD00"></stop></linearGradient><clipPath id="clip0_750_26010"><rect width="54" height="54" fill="white" transform="translate(9 5)"></rect></clipPath></defs></svg> 