<?xml version="1.0" encoding="UTF-8"?> <svg xmlns="http://www.w3.org/2000/svg" width="70" height="64" viewBox="0 0 70 64" fill="none"><path d="M28.4997 55.3572L29.4282 48.8572" stroke="black" stroke-linecap="round" stroke-linejoin="round"></path><path d="M44.2854 55.3572H25.714" stroke="black" stroke-linecap="round" stroke-linejoin="round"></path><path d="M40.5711 48.8572L41.4997 55.3572" stroke="black" stroke-linecap="round" stroke-linejoin="round"></path><path d="M19.3997 11.7144H12.1197C10.3933 11.7144 8.99966 13.0969 8.99966 14.8096V45.762C8.99966 47.4747 10.3933 48.8572 12.1197 48.8572H57.8797C59.6061 48.8572 60.9997 47.4747 60.9997 45.762V14.8096C60.9997 13.0969 59.6061 11.7144 57.8797 11.7144H48.5197" stroke="black" stroke-linecap="round" stroke-linejoin="round"></path><path d="M8.99966 43.2856H60.9997" stroke="black" stroke-linejoin="round"></path><path d="M46.1425 38.6428V32.1428" stroke="black" stroke-linecap="round" stroke-linejoin="round"></path><path d="M50.7854 38.6428V25.6428" stroke="black" stroke-linecap="round" stroke-linejoin="round"></path><path d="M54.4997 38.6428V19.1428" stroke="black" stroke-linecap="round" stroke-linejoin="round"></path><path d="M46.1425 20.0714C46.1425 13.402 40.7406 8 34.0711 8V20.0714H46.1425Z" stroke="black" stroke-linejoin="round"></path><path d="M46.1425 20.0714C46.1425 13.402 40.7406 8 34.0711 8V20.0714H46.1425Z" stroke="url(#paint0_linear_411_18489)" stroke-linejoin="round"></path><path d="M42.4282 24.2501C42.4282 31.1761 36.8185 36.7858 29.8925 36.7858C22.9665 36.7858 17.3568 31.1761 17.3568 24.2501C17.3568 17.3241 22.9665 11.7144 29.8925 11.7144V24.2501H42.4282Z" stroke="black" stroke-linejoin="round"></path><path d="M29.4282 24.7144L21.0711 33.0715" stroke="black" stroke-linejoin="round"></path><defs><linearGradient id="paint0_linear_411_18489" x1="38.1114" y1="12.1297" x2="50.6772" y2="23.0586" gradientUnits="userSpaceOnUse"><stop offset="0.236106" stop-color="#DA291C"></stop><stop offset="1" stop-color="#FFCD00"></stop></linearGradient></defs></svg> 