<?xml version="1.0" encoding="UTF-8"?> <svg xmlns="http://www.w3.org/2000/svg" width="70" height="64" viewBox="0 0 70 64" fill="none"><g clip-path="url(#clip0_422_18555)"><path d="M44.0417 6.4585H25.2917C24.1411 6.4585 23.2084 7.39124 23.2084 8.54183V16.8752C23.2084 18.0258 24.1411 18.9585 25.2917 18.9585H44.0417C45.1923 18.9585 46.125 18.0258 46.125 16.8752V8.54183C46.125 7.39124 45.1923 6.4585 44.0417 6.4585Z" stroke="black" stroke-linejoin="round"></path><path d="M54.4584 52.2917C57.9102 52.2917 60.7084 49.4935 60.7084 46.0417C60.7084 42.59 57.9102 39.7917 54.4584 39.7917C51.0066 39.7917 48.2084 42.59 48.2084 46.0417C48.2084 49.4935 51.0066 52.2917 54.4584 52.2917Z" stroke="black" stroke-linejoin="round"></path><path d="M34.6667 52.2917C38.1185 52.2917 40.9167 49.4935 40.9167 46.0417C40.9167 42.59 38.1185 39.7917 34.6667 39.7917C31.2149 39.7917 28.4167 42.59 28.4167 46.0417C28.4167 49.4935 31.2149 52.2917 34.6667 52.2917Z" stroke="black" stroke-linejoin="round"></path><path d="M28.4167 29.375H19.0417C16.7396 29.375 14.875 31.2396 14.875 33.5417V39.7917" stroke="black" stroke-linecap="round" stroke-linejoin="round"></path><path d="M28.4167 29.375H19.0417C16.7396 29.375 14.875 31.2396 14.875 33.5417V39.7917" stroke="url(#paint0_linear_422_18555)" stroke-linecap="round" stroke-linejoin="round"></path><path d="M40.9167 29.375H50.2917C52.5938 29.375 54.4584 31.2396 54.4584 33.5417V39.7917" stroke="black" stroke-linecap="round" stroke-linejoin="round"></path><path d="M34.6667 18.9585V23.1252" stroke="black" stroke-linejoin="round"></path><path d="M34.6667 35.625V39.7917" stroke="black" stroke-linejoin="round"></path><path d="M19.0417 39.7917H10.7083C9.55774 39.7917 8.625 40.7245 8.625 41.8751V50.2084C8.625 51.359 9.55774 52.2917 10.7083 52.2917H19.0417C20.1923 52.2917 21.125 51.359 21.125 50.2084V41.8751C21.125 40.7245 20.1923 39.7917 19.0417 39.7917Z" stroke="black" stroke-linejoin="round"></path><path d="M19.0417 39.7917H10.7083C9.55774 39.7917 8.625 40.7245 8.625 41.8751V50.2084C8.625 51.359 9.55774 52.2917 10.7083 52.2917H19.0417C20.1923 52.2917 21.125 51.359 21.125 50.2084V41.8751C21.125 40.7245 20.1923 39.7917 19.0417 39.7917Z" stroke="url(#paint1_linear_422_18555)" stroke-linejoin="round"></path><path d="M34.6667 52.2917V54.3751C34.6667 56.6772 32.8021 58.5417 30.5 58.5417H19.0417C16.7396 58.5417 14.875 56.6772 14.875 54.3751V52.2917" stroke="black" stroke-linejoin="round"></path><path d="M34.6719 23.1203L28.4185 29.3738L34.6719 35.6273L40.9254 29.3738L34.6719 23.1203Z" stroke="black" stroke-linejoin="round"></path></g><defs><linearGradient id="paint0_linear_422_18555" x1="19.4074" y1="32.9386" x2="30.2743" y2="45.2254" gradientUnits="userSpaceOnUse"><stop offset="0.236106" stop-color="#DA291C"></stop><stop offset="1" stop-color="#FFCD00"></stop></linearGradient><linearGradient id="paint1_linear_422_18555" x1="12.8088" y1="44.0681" x2="25.8206" y2="55.385" gradientUnits="userSpaceOnUse"><stop offset="0.236106" stop-color="#DA291C"></stop><stop offset="1" stop-color="#FFCD00"></stop></linearGradient><clipPath id="clip0_422_18555"><rect width="54.1667" height="54.1667" fill="white" transform="translate(7.58334 5.41675)"></rect></clipPath></defs></svg> 