<?xml version="1.0" encoding="UTF-8"?> <svg xmlns="http://www.w3.org/2000/svg" width="72" height="64" viewBox="0 0 72 64" fill="none"><g clip-path="url(#clip0_750_29069)"><path d="M45.7892 23.9138C46.0725 24.732 46.2709 25.5932 46.3559 26.4832" stroke="black" stroke-miterlimit="10"></path><path d="M58.4683 31.3206C58.2983 32.2392 57.9583 33.0861 57.505 33.8612" stroke="black" stroke-miterlimit="10"></path><path d="M28.9167 39.3875H2" stroke="black" stroke-miterlimit="10"></path><path d="M28.9167 39.3875H2" stroke="url(#paint0_linear_750_29069)" stroke-miterlimit="10"></path><path d="M14.75 46.5645H60.82C65.1125 46.5645 68.5833 43.0621 68.5833 38.7559C68.5833 34.4497 65.1125 30.9473 60.82 30.9473C59.9983 30.9473 59.205 31.0765 58.4542 31.3205C58.5533 30.8325 58.5958 30.3444 58.5958 29.8277C58.5958 25.5071 55.125 22.0191 50.8325 22.0191C48.8917 22.0191 47.1208 22.7368 45.7608 23.9282C44.245 19.5789 40.1367 16.4497 35.3058 16.4497C29.1858 16.4497 24.2133 21.4449 24.2133 27.6172C24.2133 28.7942 24.3975 29.9282 24.7375 30.9904C20.7283 31.2918 17.5692 34.665 17.5692 38.7703" stroke="black" stroke-miterlimit="10"></path><path d="M19 27.9043H6.25" stroke="black" stroke-miterlimit="10"></path><path d="M19 27.9043H6.25" stroke="url(#paint1_linear_750_29069)" stroke-miterlimit="10"></path></g><defs><linearGradient id="paint0_linear_750_29069" x1="11.0091" y1="39.7296" x2="11.0987" y2="41.8279" gradientUnits="userSpaceOnUse"><stop offset="0.236106" stop-color="#DA291C"></stop><stop offset="1" stop-color="#FFCD00"></stop></linearGradient><linearGradient id="paint1_linear_750_29069" x1="10.5175" y1="28.2464" x2="10.7055" y2="30.3316" gradientUnits="userSpaceOnUse"><stop offset="0.236106" stop-color="#DA291C"></stop><stop offset="1" stop-color="#FFCD00"></stop></linearGradient><clipPath id="clip0_750_29069"><rect width="68" height="33" fill="white" transform="translate(2 15)"></rect></clipPath></defs></svg> 