<?xml version="1.0" encoding="UTF-8"?> <svg xmlns="http://www.w3.org/2000/svg" width="72" height="64" viewBox="0 0 72 64" fill="none"><g clip-path="url(#clip0_752_26447)"><path d="M16.3641 31.5686V9.9812H56.6359V19.3619V26.0737" stroke="black" stroke-miterlimit="10"></path><path d="M16.3641 40.1448V53.0188H56.6359V41.8914V30.8818" stroke="black" stroke-miterlimit="10"></path><path d="M45.0874 36.4945V26.6231L36.5 21.6973L27.8929 26.6231V36.4945L36.5 41.4203L45.0874 36.4945Z" stroke="black" stroke-miterlimit="10"></path><path d="M45.0874 36.4945V26.6231L36.5 21.6973L27.8929 26.6231V36.4945L36.5 41.4203L45.0874 36.4945Z" stroke="url(#paint0_linear_752_26447)" stroke-miterlimit="10"></path><path d="M27.8929 26.6233L36.5 31.5688L45.0874 26.6233" stroke="black" stroke-miterlimit="10"></path><path d="M27.8929 26.6233L36.5 31.5688L45.0874 26.6233" stroke="url(#paint1_linear_752_26447)" stroke-miterlimit="10"></path><path d="M20.2925 24.4841L36.5 15.1819L65.0259 31.5687L56.4977 36.4553" stroke="black" stroke-miterlimit="10"></path><path d="M52.7667 38.5944L36.5 47.9359L7.97412 31.5687L16.3641 26.741" stroke="black" stroke-miterlimit="10"></path><path d="M36.5 30.7249V41.4204" stroke="black" stroke-miterlimit="10"></path><path d="M36.5 30.7249V41.4204" stroke="url(#paint2_linear_752_26447)" stroke-miterlimit="10"></path></g><defs><linearGradient id="paint0_linear_752_26447" x1="33.6479" y1="28.4446" x2="53.6095" y2="43.5803" gradientUnits="userSpaceOnUse"><stop offset="0.236106" stop-color="#DA291C"></stop><stop offset="1" stop-color="#FFCD00"></stop></linearGradient><linearGradient id="paint1_linear_752_26447" x1="33.6479" y1="28.3152" x2="36.747" y2="37.6867" gradientUnits="userSpaceOnUse"><stop offset="0.236106" stop-color="#DA291C"></stop><stop offset="1" stop-color="#FFCD00"></stop></linearGradient><linearGradient id="paint2_linear_752_26447" x1="36.8347" y1="34.3839" x2="38.6511" y2="34.5316" gradientUnits="userSpaceOnUse"><stop offset="0.236106" stop-color="#DA291C"></stop><stop offset="1" stop-color="#FFCD00"></stop></linearGradient><clipPath id="clip0_752_26447"><rect width="61" height="45" fill="white" transform="translate(6 9)"></rect></clipPath></defs></svg> 