<?xml version="1.0" encoding="UTF-8"?> <svg xmlns="http://www.w3.org/2000/svg" width="64" height="64" viewBox="0 0 64 64" fill="none"><path d="M19.7715 30.8643C21.7045 30.8643 23.2715 29.2973 23.2715 27.3643C23.2715 25.4313 21.7045 23.8643 19.7715 23.8643C17.8385 23.8643 16.2715 25.4313 16.2715 27.3643C16.2715 29.2973 17.8385 30.8643 19.7715 30.8643Z" stroke="black" stroke-miterlimit="10"></path><path d="M43 34C45.2091 34 47 32.2091 47 30C47 27.7909 45.2091 26 43 26C40.7909 26 39 27.7909 39 30C39 32.2091 40.7909 34 43 34Z" stroke="black" stroke-miterlimit="10"></path><path d="M43 34C45.2091 34 47 32.2091 47 30C47 27.7909 45.2091 26 43 26C40.7909 26 39 27.7909 39 30C39 32.2091 40.7909 34 43 34Z" stroke="url(#paint0_linear_439_26736)" stroke-miterlimit="10"></path><path d="M42.2542 45.5085C44.0515 45.5085 45.5085 44.0515 45.5085 42.2542C45.5085 40.457 44.0515 39 42.2542 39C40.457 39 39 40.457 39 42.2542C39 44.0515 40.457 45.5085 42.2542 45.5085Z" stroke="black" stroke-miterlimit="10"></path><path d="M30.6182 26.5254C32.5512 26.5254 34.1182 24.9584 34.1182 23.0254C34.1182 21.0924 32.5512 19.5254 30.6182 19.5254C28.6852 19.5254 27.1182 21.0924 27.1182 23.0254C27.1182 24.9584 28.6852 26.5254 30.6182 26.5254Z" stroke="black" stroke-miterlimit="10"></path><path d="M30.373 26.0337V59.6608" stroke="black" stroke-miterlimit="10"></path><path d="M40.1359 32.5425L35.7969 36.8815V43.3899" stroke="black" stroke-miterlimit="10"></path><path d="M40.1359 32.5425L35.7969 36.8815V43.3899" stroke="url(#paint1_linear_439_26736)" stroke-miterlimit="10"></path><path d="M22.2373 29.8306L26.034 34.061V41.2203" stroke="black" stroke-miterlimit="10"></path><path d="M40.1359 44.4746L35.7969 49.4334V53.1526" stroke="black" stroke-miterlimit="10"></path><path d="M49.3324 36.8815H50.4879C54.9597 36.8815 58.5764 33.2347 58.5764 28.7258C58.5764 24.2168 54.9597 20.5701 50.4879 20.5701C49.6329 20.5701 48.8009 20.7099 48.0267 20.9546C48.1192 20.4536 48.177 19.9293 48.177 19.405C48.177 14.8961 44.5603 11.2493 40.0885 11.2493C38.0664 11.2493 36.2292 12.0066 34.8079 13.2416C33.2365 8.69775 28.9496 5.42383 23.9117 5.42383C17.5218 5.42383 12.3452 10.6435 12.3452 17.0748C12.3452 18.2982 12.5416 19.4866 12.8883 20.5934C8.71697 20.9196 5.42383 24.4266 5.42383 28.7141C5.42383 33.223 9.04051 36.8698 13.5123 36.8698H22.7562" stroke="black" stroke-miterlimit="10"></path><path d="M34.7119 13.0171C35.2649 14.05 35.6265 15.1394 35.7967 16.2713" stroke="black" stroke-miterlimit="10"></path><path d="M13.0166 20.6104C14.1055 20.6104 15.207 20.6104 16.2708 20.6104" stroke="black" stroke-miterlimit="10"></path><path d="M26.0342 43.3899V45.5594" stroke="black" stroke-miterlimit="10"></path><path d="M26.0342 47.7288V50.983" stroke="black" stroke-miterlimit="10"></path><path d="M35.7969 55.322V57.4915" stroke="black" stroke-miterlimit="10"></path><path d="M26.0342 53.1526V55.3221" stroke="black" stroke-miterlimit="10"></path><defs><linearGradient id="paint0_linear_439_26736" x1="41.6776" y1="28.7368" x2="50.0052" y2="35.9797" gradientUnits="userSpaceOnUse"><stop offset="0.236106" stop-color="#DA291C"></stop><stop offset="1" stop-color="#FFCD00"></stop></linearGradient><linearGradient id="paint1_linear_439_26736" x1="37.2491" y1="36.2535" x2="44.3259" y2="38.7154" gradientUnits="userSpaceOnUse"><stop offset="0.236106" stop-color="#DA291C"></stop><stop offset="1" stop-color="#FFCD00"></stop></linearGradient></defs></svg> 