<?xml version="1.0" encoding="UTF-8"?> <svg xmlns="http://www.w3.org/2000/svg" width="72" height="64" viewBox="0 0 72 64" fill="none"><g clip-path="url(#clip0_1243_27340)"><path d="M33.75 28.625H29.25C28.0125 28.625 27 29.6375 27 30.875V55.625C27 56.8625 28.0125 57.875 29.25 57.875H42.75C43.9875 57.875 45 56.8625 45 55.625V30.875C45 29.6375 43.9875 28.625 42.75 28.625H38.25" stroke="black" stroke-miterlimit="10"></path><path d="M34.875 54.5H37.125" stroke="black" stroke-miterlimit="10"></path><path d="M48.375 36.5H54C58.3537 36.5 61.875 32.9787 61.875 28.625C61.875 24.2713 58.3537 20.75 54 20.75C53.1675 20.75 52.3575 20.885 51.6037 21.1212C51.6937 20.6375 51.75 20.1312 51.75 19.625C51.75 15.2713 48.2287 11.75 43.875 11.75C41.9062 11.75 40.1175 12.4813 38.7338 13.6738C37.2038 9.28625 33.03 6.125 28.125 6.125C21.9037 6.125 16.8637 11.165 16.8637 17.375C16.8637 18.5562 17.055 19.7038 17.3925 20.7725C13.3313 21.0875 10.125 24.4737 10.125 28.6137C10.125 32.9675 13.6463 36.4887 18 36.4887H23.625" stroke="black" stroke-miterlimit="10"></path><path d="M38.7562 13.6626C39.0487 14.4838 39.24 15.3501 39.33 16.2501" stroke="black" stroke-miterlimit="10"></path><path d="M51.6037 21.1213C51.4237 22.0438 51.0862 22.9101 50.625 23.6751" stroke="black" stroke-miterlimit="10"></path><path d="M17.3925 20.7725C18.3712 20.6937 19.3612 20.8062 20.3175 21.0987" stroke="black" stroke-miterlimit="10"></path><path d="M36 20.75V42.125" stroke="black" stroke-miterlimit="10"></path><path d="M36 20.75V42.125" stroke="url(#paint0_linear_1243_27340)" stroke-miterlimit="10"></path><path d="M39.375 24.125L36 20.75L32.625 24.125" stroke="black" stroke-miterlimit="10"></path><path d="M39.375 24.125L36 20.75L32.625 24.125" stroke="url(#paint1_linear_1243_27340)" stroke-miterlimit="10"></path><path d="M39.375 38.75L36 42.125L32.625 38.75" stroke="black" stroke-miterlimit="10"></path><path d="M39.375 38.75L36 42.125L32.625 38.75" stroke="url(#paint2_linear_1243_27340)" stroke-miterlimit="10"></path></g><defs><linearGradient id="paint0_linear_1243_27340" x1="36.3347" y1="28.0625" x2="38.1601" y2="28.1368" gradientUnits="userSpaceOnUse"><stop offset="0.236106" stop-color="#DA291C"></stop><stop offset="1" stop-color="#FFCD00"></stop></linearGradient><linearGradient id="paint1_linear_1243_27340" x1="34.8842" y1="21.9046" x2="37.9498" y2="27.2372" gradientUnits="userSpaceOnUse"><stop offset="0.236106" stop-color="#DA291C"></stop><stop offset="1" stop-color="#FFCD00"></stop></linearGradient><linearGradient id="paint2_linear_1243_27340" x1="34.8842" y1="39.9046" x2="37.9498" y2="45.2372" gradientUnits="userSpaceOnUse"><stop offset="0.236106" stop-color="#DA291C"></stop><stop offset="1" stop-color="#FFCD00"></stop></linearGradient><clipPath id="clip0_1243_27340"><rect width="54" height="54" fill="white" transform="translate(9 5)"></rect></clipPath></defs></svg> 