<?xml version="1.0" encoding="UTF-8"?> <svg xmlns="http://www.w3.org/2000/svg" width="250" height="60" viewBox="0 0 250 60" fill="none"><path d="M30.1479 36.3809C30.4084 40.7869 38.0865 42.0033 40.0162 38.3359H47.3421C42.4153 51.2133 23.0164 47.7161 22.998 33.9988C23.7097 15.8358 50.5741 18.0912 47.9438 36.3809H30.1479ZM40.9186 31.0229C39.9941 26.0993 31.1494 26.1138 30.2323 31.0229H40.9186Z" fill="black"></path><path d="M74.5805 36.7611C71.3559 50.9164 49.2056 48.9615 49.2496 33.8685C48.9708 18.9094 71.7118 16.9037 74.5402 31.2329H67.3022C65.1011 25.7916 56.106 27.3193 56.4435 33.9119C56.1574 40.4574 65.0241 41.9164 67.3022 36.7574H74.5842L74.5805 36.7611Z" fill="black"></path><path d="M77.0088 14.2718H84.1587V24.3036C86.7303 19.8217 95.6264 20.7485 97.5156 24.6874C100.307 28.905 98.7849 40.7144 99.1554 45.7322H92.0019V32.891C92.0202 30.2554 91.2755 27.9782 88.1683 27.9601C84.9327 27.8552 84.067 30.574 84.1623 32.6376V45.7322H77.0125V14.2718H77.0088Z" fill="black"></path><path d="M103.389 14.2718H110.539V24.0104C117.736 17.8016 129.13 22.5478 129.237 33.7888C129.813 45.1928 116.074 50.5617 110.238 43.2306V45.7394H103.389V14.2718ZM122.087 33.8721C122.028 25.9581 110.208 26.1645 110.282 33.8721C110.205 42.0431 122.16 41.71 122.087 33.8721Z" fill="#74777B"></path><path d="M139.553 14.2718H132.403V45.7358H139.553V14.2718Z" fill="#74777B"></path><path d="M195.794 36.7611C192.57 50.9201 170.419 48.9615 170.463 33.8685C170.185 18.9094 192.926 16.9037 195.754 31.2329H188.516C186.315 25.7952 177.32 27.3193 177.661 33.9119C177.375 40.4574 186.238 41.9128 188.516 36.7574H195.798L195.794 36.7611Z" fill="#74777B"></path><path d="M198.479 14.2718H205.633V30.6826L212.354 22.1351H220.839L211.833 32.5109L220.582 45.7322H212.482L205.633 34.3825V45.7322H198.479V14.2718Z" fill="#74777B"></path><path d="M233.004 28.7711C233.352 26.7437 228.832 26.1536 228.741 28.5575C230.857 32.634 240.865 30.2518 240.762 38.2961C240.803 48.3605 222.853 50.2865 221.29 38.7197H228.4C229.053 42.0105 233.484 41.2177 233.612 39.06C233.612 37.4417 231.844 37.2317 227.281 35.4868C217.343 32.7245 221.752 20.944 230.854 21.3278C233.998 21.3278 239.427 22.5587 240.032 28.7711H233.007H233.004Z" fill="#74777B"></path><path d="M149.457 22.1568H143.496V28.0398H149.457V22.1568Z" fill="#DF271C"></path><path d="M158.398 22.1568H152.437V28.0398H158.398V22.1568Z" fill="#DF271C"></path><path d="M167.341 22.1568H161.38V28.0398H167.341V22.1568Z" fill="#DF271C"></path><path d="M149.457 30.9831H143.496V36.8661H149.457V30.9831Z" fill="#74777B"></path><path d="M158.398 30.9831H152.437V36.8661H158.398V30.9831Z" fill="#74777B"></path><path d="M167.341 30.9831H161.38V36.8661H167.341V30.9831Z" fill="#DF271C"></path><path d="M149.457 39.8058H143.496V45.6888H149.457V39.8058Z" fill="#74777B"></path><path d="M158.398 39.8058H152.437V45.6888H158.398V39.8058Z" fill="#74777B"></path><path d="M167.341 39.8058H161.38V45.6888H167.341V39.8058Z" fill="#DF271C"></path><path d="M12.3003 27.4931H8.76758V22.1351H12.3003V14.2718H19.4539V22.1351H22.9023V27.4931H19.4539V45.7358H12.3003V27.4931Z" fill="black"></path></svg> 