<?xml version="1.0" encoding="UTF-8"?> <svg xmlns="http://www.w3.org/2000/svg" xmlns:xlink="http://www.w3.org/1999/xlink" version="1.1" id="Layer_1" x="0px" y="0px" viewBox="0 0 160.2 64" style="enable-background:new 0 0 160.2 64;" xml:space="preserve"> <style type="text/css"> .st0{fill:#2BAAE3;} .st1{fill:none;stroke:#2BAAE3;stroke-width:3;stroke-miterlimit:10;} </style> <g> <g> <path class="st0" d="M11.2,51v-4.8l9.1-14.3h4.3v6.4h-2.5l-4.9,7.8v0.2h13.4V51H11.2z M22.2,54.6v-5l0.1-2.1V31.9h5.7v22.6H22.2z"></path> <path class="st0" d="M47.9,39.4c-0.1-0.4-0.2-0.7-0.5-1c-0.2-0.3-0.5-0.6-0.8-0.8c-0.3-0.2-0.7-0.4-1.1-0.5 C45.2,37,44.8,37,44.3,37c-1,0-1.9,0.2-2.6,0.7c-0.7,0.5-1.3,1.2-1.7,2.1c-0.4,0.9-0.6,2-0.6,3.4c0,1.3,0.2,2.5,0.5,3.4 c0.4,0.9,0.9,1.7,1.6,2.2c0.7,0.5,1.6,0.8,2.7,0.8c0.9,0,1.7-0.1,2.3-0.4c0.6-0.3,1.1-0.7,1.4-1.2c0.3-0.5,0.5-1.1,0.5-1.8 l1.1,0.1h-5.2v-4.4h10v3.1c0,2.1-0.4,3.8-1.3,5.3c-0.9,1.5-2.1,2.6-3.6,3.4c-1.5,0.8-3.3,1.2-5.3,1.2c-2.2,0-4.1-0.5-5.8-1.4 c-1.7-0.9-3-2.3-3.9-4c-0.9-1.7-1.4-3.8-1.4-6.2c0-1.9,0.3-3.5,0.9-5c0.6-1.4,1.4-2.7,2.4-3.7c1-1,2.2-1.8,3.5-2.3 c1.3-0.5,2.8-0.8,4.3-0.8c1.3,0,2.6,0.2,3.7,0.6c1.2,0.4,2.2,0.9,3.1,1.6c0.9,0.7,1.6,1.5,2.2,2.5c0.5,1,0.9,2,1,3.1H47.9z"></path> </g> <g> <path class="st1" d="M46.2,16.6c12.5,0,22.7,10.2,22.7,22.7"></path> <path class="st1" d="M46.2,9.1c16.7,0,30.2,13.5,30.2,30.2"></path> <path class="st1" d="M46.2,24.7c8.1,0,14.6,6.5,14.6,14.6"></path> </g> <g> <path class="st0" d="M94.1,54.9c-1.7,0-3.3-0.3-4.6-0.9c-1.3-0.6-2.4-1.5-3.2-2.5c-0.8-1.1-1.2-2.3-1.2-3.7h6 c0,0.8,0.3,1.4,0.9,1.9c0.6,0.5,1.3,0.7,2.1,0.7c0.6,0,1.2-0.1,1.7-0.4c0.5-0.3,0.9-0.7,1.1-1.1c0.3-0.5,0.4-1.1,0.4-1.7 c0-0.7-0.1-1.2-0.4-1.7c-0.3-0.5-0.6-0.9-1.1-1.1c-0.5-0.3-1-0.4-1.7-0.4c-0.6,0-1.2,0.2-1.8,0.5c-0.5,0.3-1,0.7-1.2,1.3l-5.4-1.1 l0.9-12.5h15.2v4.9H91.7l-0.4,5h0.1c0.4-0.7,1-1.3,1.8-1.7c0.9-0.5,1.9-0.7,3-0.7c1.3,0,2.6,0.3,3.6,0.9c1.1,0.6,1.9,1.5,2.5,2.6 c0.6,1.1,0.9,2.4,0.9,3.8c0,1.6-0.4,3-1.1,4.2s-1.8,2.2-3.2,2.9C97.6,54.5,96,54.9,94.1,54.9z"></path> <path class="st0" d="M120.6,39.4c-0.1-0.4-0.2-0.7-0.5-1c-0.2-0.3-0.5-0.6-0.8-0.8c-0.3-0.2-0.7-0.4-1.1-0.5 c-0.4-0.1-0.8-0.2-1.3-0.2c-1,0-1.9,0.2-2.6,0.7c-0.7,0.5-1.3,1.2-1.7,2.1c-0.4,0.9-0.6,2-0.6,3.4c0,1.3,0.2,2.5,0.5,3.4 c0.4,0.9,0.9,1.7,1.6,2.2s1.6,0.8,2.7,0.8c0.9,0,1.7-0.1,2.3-0.4c0.6-0.3,1.1-0.7,1.4-1.2c0.3-0.5,0.5-1.1,0.5-1.8l1.1,0.1H117 v-4.4h10v3.1c0,2.1-0.4,3.8-1.3,5.3c-0.9,1.5-2.1,2.6-3.6,3.4c-1.5,0.8-3.3,1.2-5.3,1.2c-2.2,0-4.1-0.5-5.8-1.4 c-1.7-0.9-3-2.3-3.9-4c-0.9-1.7-1.4-3.8-1.4-6.2c0-1.9,0.3-3.5,0.9-5c0.6-1.4,1.4-2.7,2.4-3.7c1-1,2.2-1.8,3.5-2.3 c1.3-0.5,2.8-0.8,4.3-0.8c1.3,0,2.6,0.2,3.7,0.6c1.2,0.4,2.2,0.9,3.1,1.6c0.9,0.7,1.6,1.5,2.2,2.5c0.5,1,0.9,2,1,3.1H120.6z"></path> </g> <g> <path class="st1" d="M118.8,16.6c12.5,0,22.7,10.2,22.7,22.7"></path> <path class="st1" d="M118.8,9.1c16.7,0,30.2,13.5,30.2,30.2"></path> <path class="st1" d="M118.8,24.7c8.1,0,14.6,6.5,14.6,14.6"></path> </g> </g> </svg> 