<?xml version="1.0" encoding="UTF-8"?> <svg xmlns="http://www.w3.org/2000/svg" width="595.23" height="83.527" viewBox="0 0 595.23 83.527"><g id="Algonomy" transform="translate(-21.37 -19.78)"><path id="Path_1" data-name="Path 1" d="M533.8,66.5c-4.7,10.6-9.4,21.1-14.2,31.7-.9,2.1-1.6,4-4.8,3.9-3.1,0-4.3-1.3-5.4-3.8-4.7-10.8-9.5-21.4-14.9-33.5-1.5,7.7-2.8,14.1-4,20.6-.8,4.2-1.5,8.5-2.3,12.7-.4,2.4-1.1,4.3-4.4,3.9s-6.6-.3-9.9-.4c.5-3,.8-6.1,1.4-9.1q5.55-29.55,11.3-59.1c.3-1.7.2-3.8,3-3.6,2.4.2,4.5-.4,5.9,2.9,5.4,13.2,11.2,26.1,16.9,39.2.5,1.2,1.1,2.4,2.1,4.4,4.2-9.5,8-18.2,11.8-27,2.4-5.6,5-11.2,7.2-16.9,1.2-3,3.4-2.5,5.7-2.6,2.6-.1,2.8,1.6,3.2,3.5,4.1,21.6,8.2,43.3,12.6,64.9.7,3.6-.5,3.7-3.4,3.7-9.6,0-9.7.1-11.6-9.3-1.8-8.7-3.4-17.4-5.1-26.1Z" fill="#fff"></path><path id="Path_2" data-name="Path 2" d="M360.8,74.6c0-13.1.2-26.2-.1-39.3-.1-4.4,1-5.8,5.5-5.5,8.2.4,8.2.1,8.2,8.4,0,19.3,0,38.6-.1,57.9,0,1.9,1.6,4.9-1.2,5.6-2.7.6-5.7,1-8.3-1.8C355.7,90,346.4,80.3,337,70.6c-4.3-4.5-9.1-8.5-13.8-12.9,0,11.6-.1,23.4,0,35.3.1,8.9.1,8.8-8.6,9-3.8.1-5.3-.4-5.2-5,.3-20.8,0-41.7,0-62.5,0-1.5-1-3.9,1.1-4.3,2.4-.5,5.2-1.2,7.4,1.2,12.3,13.1,24.7,26,37.1,39,1.5,1.6,2.9,3.1,4.4,4.7A10.861,10.861,0,0,0,360.8,74.6Z" fill="#fff"></path><path id="Path_3" data-name="Path 3" d="M195.9,55.9c-2.9-3.1-5-6.7-8.4-9.2a23.319,23.319,0,0,0-33.8,6.7c-7.2,11.7-3.2,27.2,8.7,33.6,10.6,5.7,22.8,3.1,28.7-6,.8-1.3,2.3-2.9,1.4-4.5-.8-1.4-2.7-.5-4.1-.6-2.5-.1-5,0-7.5,0-7,0-6.6,0-7.1-7.1-.3-4.8.9-6.3,5.9-6a204.705,204.705,0,0,0,23.5,0c4-.2,4.5,1.2,4.5,4.7-.1,20.4-11.3,33.3-31.2,35.6-13.9,1.6-28.7-6.3-35.6-19-7.1-13-5.4-30.2,3.9-41.1,16.3-19.1,43.8-18.5,59.1,1.1,1.5,1.9,1.9,3.1-.2,4.8A100.508,100.508,0,0,0,195.9,55.9Z" fill="#fff"></path><path id="Path_4" data-name="Path 4" d="M464.6,66a37.279,37.279,0,0,1-36.9,37.3c-20.2.4-37.7-16.6-37.9-36.9S406.5,29,427.1,28.8A37.451,37.451,0,0,1,464.6,66ZM426.8,90.1c12.9.5,24.2-10.1,24.4-23.7.1-11.9-8.2-23.7-23.7-24.4-12.1-.5-23.5,10.6-24,23.2A24.058,24.058,0,0,0,426.8,90.1Z" fill="#fff"></path><path id="Path_5" data-name="Path 5" d="M244.7,39.6a9.022,9.022,0,0,1-3.7,8.8c-7.9,6.5-10,18.3-5.9,27.3,4.1,9.1,13.4,14.9,23,14.3a23.313,23.313,0,0,0,21.6-17.6c2.6-9.9-.2-18.3-8-25-2.2-1.9-4.2-12.7-2.8-15.1.9-1.4,2-.6,3-.2,12.7,4.7,23.2,20.8,22.5,34.7-1.1,20.3-15.9,35.6-36.4,36.4-18.5.6-34.5-11.7-38.1-31-2.8-15.1,5.6-31.9,19.7-39.1,4.8-2.5,5-2.3,5,3A30.382,30.382,0,0,1,244.7,39.6Z" fill="#fff"></path><path id="Path_6" data-name="Path 6" d="M81.4,101.9c-5.2,1.8-7.1-1.9-9-6.6-4.6-11.7-4.8-11-17.3-11.8-8.7-.6-14,1.5-15.9,10.5-.6,2.7-2,6.8-3.9,7.5-3.8,1.2-8.2.6-12.4.4-2.5-.1-1.3-1.8-.8-2.9Q36.95,65.4,51.7,31.8c1-2.4,2.8-1.7,4.5-1.9,2.5-.4,3.5.9,4.3,2.9Q70.85,57.25,81.4,81.6c2.2,5.2,4.1,10.5,6.7,15.5,1.9,3.8,1.7,5.4-3,4.8C84.3,101.8,83.2,101.9,81.4,101.9ZM49.3,70.6c3.7,0,6.8-.1,10,0,2.7.1,2.6-1,1.7-3-1.7-3.8-3.2-7.6-5.2-12.2C53.5,60.8,51.5,65.4,49.3,70.6Z" fill="#fff"></path><path id="Path_7" data-name="Path 7" d="M555.2,29.9h14.2c1.9,0,2.4,1.5,3.1,2.8,4.4,7.6,8.7,15.2,13.4,23.4,4.3-7.4,8.6-14.3,12.3-21.5,1.9-3.7,4.1-5.1,8.1-4.7,3.1.3,6.3.1,10.3.1-4.8,8.5-9.3,16.3-13.8,24.1a14.8,14.8,0,0,1-1.3,2.1c-10.2,12-9.6,26.3-8.8,40.6.3,4.5-1.2,5.5-5.4,5.3-8-.4-8.7-.2-7.9-8.1a58.105,58.105,0,0,0-10.9-41.1C563.5,45.9,559.8,38.1,555.2,29.9Z" fill="#fff"></path><path id="Path_8" data-name="Path 8" d="M100.5,65.6c0-10.6.1-21.3-.1-31.9-.1-3.1.8-3.9,3.9-3.9,9.8.1,9.8-.1,9.8,9.5,0,15.1.1,30.3-.1,45.4,0,3.1.5,4.5,4,4.2s7,.2,10.5-.1c3.3-.3,3.9,1.2,3.9,4,.1,9.1.1,9.1-8.9,9.1-6.3,0-12.6-.2-19,.1-3.1.1-4.2-.6-4.2-4C100.7,87.2,100.5,76.4,100.5,65.6Z" fill="#fff"></path><path id="Path_9" data-name="Path 9" d="M263.7,38.7c0,5.1-.1,10.2,0,15.3.1,2.6-.8,3.4-3.4,3.5-10.5.5-10.5.6-10.5-9.7,0-8,.1-15.9,0-23.9,0-2.8.4-4.1,3.7-4.1,10.3-.1,10.3-.2,10.2,10.1Z" fill="#f53c36"></path><path id="Path_10" data-name="Path 10" d="M426.8,90.1a24.19,24.19,0,0,1-23.3-24.9c.4-12.6,11.8-23.8,24-23.2,15.5.7,23.8,12.5,23.7,24.4C451,80,439.7,90.6,426.8,90.1Z" fill="none"></path><path id="Path_11" data-name="Path 11" d="M49.3,70.6c2.2-5.1,4.1-9.8,6.5-15.2,1.9,4.6,3.4,8.5,5.2,12.2.9,2,1,3.1-1.7,3C56.2,70.5,53,70.6,49.3,70.6Z" fill="none"></path></g></svg> 