<?xml version="1.0" encoding="UTF-8"?> <svg xmlns="http://www.w3.org/2000/svg" xmlns:xlink="http://www.w3.org/1999/xlink" version="1.1" id="Layer_1" x="0px" y="0px" viewBox="0 0 64 64" style="enable-background:new 0 0 64 64;" xml:space="preserve"> <style type="text/css"> .st0{fill-rule:evenodd;clip-rule:evenodd;fill:#FBBF93;} .st1{fill-rule:evenodd;clip-rule:evenodd;fill:#6B3A19;} .st2{fill-rule:evenodd;clip-rule:evenodd;fill:#9D5025;} .st3{fill-rule:evenodd;clip-rule:evenodd;fill:#F58536;} </style> <symbol id="A" viewBox="-35 -40 70 80"> <path class="st0" d="M-10.5,6.8l-16.1,20.5L-35,6.8L-19.7,6L-10.5,6.8z M10.4,6.8l16.2,20.6l8.2-20.5L19.7,6L10.4,6.8L10.4,6.8z"></path> <path class="st1" d="M-10.5-6.9l-16.1-20.5L-35-6.8L-19.5-6L-10.5-6.9z M10.4-6.9l16.2-20.5L35-6.8L19.7-6L10.4-6.9L10.4-6.9z"></path> <path class="st2" d="M10.4-6.9L26.6-8v-19.4l-16.2,4L10.4-6.9L10.4-6.9z"></path> <path class="st3" d="M35-6.8L26.6-8v-19.4l8.4,4V-6.8L35-6.8z"></path> <path class="st2" d="M10.4,6.8L26.6,8v19.4l-16.2-4L10.4,6.8L10.4,6.8z"></path> <path class="st3" d="M34.8,6.9L26.6,8v19.4l8.2-3.9V6.9z M-10.5-6.9L-26.6-8v-19.4l16.1,4V-6.9z"></path> <path class="st2" d="M-35-6.8l8.4-1.2v-19.4l-8.4,4V-6.8L-35-6.8z"></path> <path class="st3" d="M-10.5,6.8L-26.6,8v19.4l16.1-4V6.8z"></path> <path class="st2" d="M-35,6.8l8.4,1.2v19.4l-8.4-4V6.8z"></path> <path class="st0" d="M16.7,9.4L0,7.8l-16.9,1.6L0,40C0,40,16.7,9.4,16.7,9.4z"></path> <path class="st1" d="M16.7-9.4L0-7.8l-16.9-1.6L0-40L16.7-9.4z"></path> <path class="st3" d="M16.7-9.4L0-11.7V-40l16.7,7.9C16.7-32.1,16.7-9.4,16.7-9.4z"></path> <path class="st2" d="M-16.9-9.3L0-11.7V-40l-16.9,8V-9.3L-16.9-9.3z"></path> <path class="st3" d="M16.7,9.4L0,11.7V40l16.7-7.9V9.4z"></path> <path class="st2" d="M-16.9,9.3L0,11.7V40l-16.9-8V9.3z"></path> </symbol> <use xlink:href="#A" width="70" height="80" x="-35" y="-40" transform="matrix(0.7757 0 0 0.7757 32.0005 32)" style="overflow:visible;"></use> </svg> 