<?xml version="1.0" encoding="UTF-8"?> <svg xmlns="http://www.w3.org/2000/svg" xmlns:xlink="http://www.w3.org/1999/xlink" version="1.1" id="Layer_1" x="0px" y="0px" viewBox="0 0 64 64" style="enable-background:new 0 0 64 64;" xml:space="preserve"> <style type="text/css"> .st0{fill-rule:evenodd;clip-rule:evenodd;fill:#8C3123;} .st1{fill-rule:evenodd;clip-rule:evenodd;fill:#E05243;} .st2{fill-rule:evenodd;clip-rule:evenodd;fill:#5E1F18;} .st3{fill-rule:evenodd;clip-rule:evenodd;fill:#F2B0A9;} </style> <symbol id="A" viewBox="-35 -40 70 80"> <g> <path class="st0" d="M-29.4-26.1l-5.6,2.7v46.8l5.6,2.7l13.8-26.1L-29.4-26.1z"></path> <path class="st1" d="M0,19.3L-29.4,26v-52.1L0-19.4L13.9,0L0,19.3z"></path> <path class="st0" d="M0,19.3L29.4,26l5.1-25.4l-5.1-26.7L0-19.4V19.3z"></path> <path class="st1" d="M29.4-26.1l5.6,2.7v46.8L29.4,26V-26.1z"></path> <path class="st0" d="M-12.8,8.6L0,10.1L10.2,0L0-10.1l-12.8,1.5C-12.8-8.5-12.8,8.6-12.8,8.6z"></path> <path class="st2" d="M12.8-16.8L0-14.6l-12.8-2.2L0-40L12.8-16.8z"></path> <path class="st3" d="M12.8,16.8L0,14.6l-12.8,2.2L0,40C0,40,12.8,16.8,12.8,16.8z"></path> <path class="st1" d="M12.8-16.8L0-19.8V-40l12.8,6V-16.8z"></path> <path class="st0" d="M-12.8-16.8l12.8-3V-40l-12.8,6V-16.8z"></path> <path class="st1" d="M0,40l12.8-6V16.8L0,19.8V40z"></path> <path class="st0" d="M0,40l-12.8-6V16.8l12.8,3V40z"></path> <path class="st1" d="M12.8,8.6L0,10.1v-20.2l12.8,1.5C12.8-8.5,12.8,8.6,12.8,8.6z"></path> </g> </symbol> <use xlink:href="#A" width="70" height="80" x="-35" y="-40" transform="matrix(0.7625 0 0 0.7625 32.0005 32)" style="overflow:visible;"></use> </svg> 