<?xml version="1.0" encoding="UTF-8"?> <svg xmlns="http://www.w3.org/2000/svg" xmlns:xlink="http://www.w3.org/1999/xlink" version="1.1" id="Layer_1" x="0px" y="0px" viewBox="0 0 64 64" style="enable-background:new 0 0 64 64;" xml:space="preserve"> <style type="text/css"> .st0{fill-rule:evenodd;clip-rule:evenodd;fill:#F58536;} .st1{fill-rule:evenodd;clip-rule:evenodd;fill:#9D5025;} .st2{fill-rule:evenodd;clip-rule:evenodd;fill:#6B3A19;} </style> <symbol id="A" viewBox="-35 -40 70 80"> <g> <path class="st0" d="M14.7,33l-14.8,7v-80l14.8,7V33z"></path> <path class="st1" d="M-14.8,33l14.8,7v-80l-14.8,7V33z"></path> <path class="st0" d="M-5.6-10.9l-24.9-3v-11.7L-5.6-20V-10.9z"></path> <path class="st1" d="M-35-23.4l4.5-2.1v11.7l-4.5,1.2V-23.4z"></path> <path class="st2" d="M-5.6-10.9l-5.2,0.7L-35-12.7l4.5-1.2L-5.6-10.9z"></path> <path class="st0" d="M31.3,10.1L35,9.3V0h-3.7V10.1z"></path> <path class="st1" d="M5.5,7.9l25.8,2.3V0H5.5V7.9L5.5,7.9z"></path> </g> </symbol> <use xlink:href="#A" width="70" height="80" x="-35" y="-40" transform="matrix(0.7455 0 0 0.7455 32.0005 32)" style="overflow:visible;"></use> </svg> 