<?xml version="1.0" encoding="UTF-8"?> <svg xmlns="http://www.w3.org/2000/svg" xmlns:xlink="http://www.w3.org/1999/xlink" version="1.1" id="Layer_1" x="0px" y="0px" viewBox="0 0 180 60" style="enable-background:new 0 0 180 60;" xml:space="preserve"> <style type="text/css"> .st0{fill:#FFFFFF;} </style> <path class="st0" d="M116.5,19.7c0.1,0.1,0.3,0.1,0.4,0.3c-0.3,0.4-0.9,0.4-1.4,0.5c-1.4,0.3-2.9,0.1-4.1-0.5h-0.1 c0.2,0.4,0.9,0.7,0.6,1.3c-0.3,0.5-1.1,0.3-1.5,0.2c-1.1-0.3-2.1-1-3.2-1.5l-0.1,0.1c0.6,0.5,1.3,0.8,1.9,1.3 c0.1,0.4-0.4,0.4-0.6,0.6c-0.9,0.1-1.8-0.3-2.6-0.7c-0.2,0.2,0.3,0.3,0.1,0.6c-0.4,0.5-0.9,0.5-1.5,0.4c-0.3-0.1-0.7-0.2-0.8-0.5 c-0.1,0-0.2,0-0.2,0.1c0,0.5,0.8,0.4,0.6,0.9c-0.4,0.3-0.8,0.8-1.4,0.6c-0.2,0.1-0.7,0-0.9-0.1c0-0.1,0.1-0.2,0.2-0.2 c0.4,0.1,0.1-0.4,0.4-0.4c0-0.1,0-0.2,0-0.2c0.1,0.1,0.2,0.2,0.3,0.2c0.1-0.1-0.1-0.3-0.2-0.4l0.1-0.1c0,0.1,0.1,0.1,0.1,0.1 c-0.1-0.2,0.1-0.6,0.3-0.7l0.2,0.1c0.2-0.2-0.2-0.3,0.1-0.5c0.2,0.1,0.2,0.3,0.4,0.3c0.1-0.1-0.1-0.3-0.2-0.4 c0.2-0.2,0.2,0.2,0.4,0.1c0.1-0.2-0.1-0.4-0.2-0.6c0.2,0.1,0.3,0.3,0.5,0.3c0.1-0.2-0.2-0.4-0.3-0.6c-0.4,0.1-0.6,0.4-0.9,0.6 c-3.2,3.9-4.3,8.8-5.4,13.6c-0.3,0.2-0.7,0-0.9,0.2c-0.8-0.2-1.5-0.5-2.2-0.9c-0.1-0.2,0.3-0.3,0.1-0.4c-0.2,0-0.5,0.2-0.6,0 c0.4,0,1.3-0.3,1.3,0.4c0.1,0,0.2,0,0.2-0.1c-0.1-0.3-0.4-0.6,0-0.8s1.1-0.1,1.5-0.1c0.1-0.1,0.1-0.1,0.1-0.2 c-0.2-0.2-0.6-0.1-0.9-0.1c-0.3,0.1-0.8,0.1-1.1,0.4c-0.4,0-0.6-0.3-0.8-0.6c0-0.4,0.2-0.6,0.3-1c-1-0.1-2-0.1-2.9,0.2l-0.6-1 l0.5-0.3c1.1-0.2,2.3-0.2,3.4,0c-0.4,0.1-0.9-0.1-1.3,0.1c0.6,0,1.1,0.2,1.6,0.2c-0.5,0.1-1.2-0.1-1.8,0v0.1l2.3,0.3 c0.1,0.1,0.2,0.2,0.4,0.2c0.1-0.2-0.3-0.5,0.1-0.7c0-0.1,0-0.2-0.1-0.2c-0.3-0.1-0.3,0.4-0.6,0.2c-0.3-0.2-0.5-0.5-0.4-0.9L95,29.4 l-0.3,0.2c-1.4-0.1-2.9,0-4.2,0.2c-0.2-0.2-0.7-0.5-0.4-0.9c1.3-1.1,3.5-1.2,5.1-0.6c-0.8-0.1-1.9-0.3-2.8-0.1v0.1 c1,0.1,2.1,0,3,0.3c-1.1,0-2.3-0.4-3.4-0.1V29c1.1-0.1,2.2,0,3.3,0.3v0.1c-1-0.2-2.3-0.1-3.4,0.1l0,0c1.1,0.1,2.2-0.1,3.3,0.2 l0.8-0.4c0.3,0.7,1.2,0.5,1.8,0.5c0-0.1,0.1-0.1,0.1-0.1c-0.5-0.5-1.4,0.4-1.6-0.4c0-0.2,0.3-0.2,0.2-0.4c-0.1-0.1-0.3,0.1-0.4,0.2 c-0.3-0.2-0.8-0.3-0.9-0.7c-0.1-0.5,0.5-0.7,0.8-0.9l0.5-0.1c0.1,0.2,0.3,0.3,0.5,0.4c0.1-0.3-0.2-0.4-0.2-0.7l0.4-0.2 c-0.5-0.3-0.6,0.7-1.1,0.2l0.1-0.1c-1,0-2.1,0-3.1,0.3c0.8,0,1.7-0.2,2.6-0.1c-0.3,0.1-0.8,0-1.1,0.2c0.3,0.2,0.6-0.2,0.9,0.1 c-0.2,0.2-0.5,0-0.6,0.2c0.1,0.1,0.3,0,0.3,0.2L95,28c-1.4-0.1-2.8,0-4.1,0.4c0.2-1.1,1.5-1.5,2.4-1.8c0.7-0.1,1.4-0.2,2.2-0.1 c-0.2,0.1-0.5,0.1-0.8,0.2c0.4,0.2,0.9,0.1,1.3,0.1c-0.2-0.2-0.3-0.6-0.1-0.9c0.5-0.6,1.3-0.8,2-1c0.2,0.2,0.2,0.4,0.5,0.4 c0.2-0.3-0.2-0.4-0.2-0.7l-0.1-0.1c-0.3,0.4-1,0.1-1.4,0.5c-0.3,0.1-0.4-0.2-0.4-0.4c0.1-1.2,1.5-1.4,2.4-1.7l0.2,0.3 c-0.3,0.2-0.7,0.1-0.9,0.3c0.5,0,1,0.1,1.5,0c0-0.3-0.9-0.4-0.3-0.8c0-0.1,0-0.2-0.1-0.2c-0.2-0.1-0.2,0.1-0.3,0.2 c-0.7,0.1-1.4,0.3-2.1,0.6c-0.1-0.3-0.2-0.8-0.6-0.5l-1.5,0.7c0.7-0.8,1.5-1.7,2.5-1.9c-0.4,0.1-0.2,0.4-0.5,0.5 c0.6,0.3,0.9-0.5,1.4-0.6c0.5-0.2,1-0.4,1.5-0.5c0.1,0.1,0,0.2,0.1,0.3c-0.2,0.1-0.5,0.1-0.6,0.3c0.4,0,1,0.1,1.4-0.1 c0-0.4-0.5,0-0.5-0.4c0-0.2,0.3-0.3,0.1-0.5c-0.2-0.1-0.3,0.2-0.4,0.3c-0.6,0-1.1,0.2-1.6,0.3c0-0.9,1.1-1.4,1.8-1.7 c0.7-0.2,1.5-0.3,2.3-0.5v-0.1h-1.5c2.8-2.3,6.9-1.8,10.2-1.2C112.8,18.1,114.6,19,116.5,19.7L116.5,19.7z"></path> <path class="st0" d="M131.4,32.7c-0.6-0.9-1.5-1.7-2.3-2.4c-1-0.4-2.1-0.5-3.1-0.9c0.7-0.1,1.2,0.2,1.9,0.2 c-0.7-0.3-1.4-0.3-2.1-0.5c0.5-0.2,1.1,0.1,1.7,0.1c-0.8-0.3-1.6-0.4-2.5-0.6l-0.1-0.1c0.6-0.1,1.1,0.3,1.7,0.2 c-0.8-0.3-1.8-0.4-2.6-0.7c0.6-0.1,1.2,0.1,1.7,0.2c-0.6-0.3-1.3-0.3-1.9-0.6c0.4-0.1,0.9,0.2,1.2,0.2c-0.7-0.4-1.6-0.4-2.3-0.7 c0.4,0,0.9,0.1,1.3,0.1c-0.8-0.9-2.1-0.6-3.1-1.1c0.5-0.1,1,0,1.5,0.1c-0.6-0.2-1.3-0.2-1.8-0.4v-0.1c0.4-0.1,0.7,0,1.1,0.1 c-0.5-0.2-1.2-0.1-1.7-0.4c0.4-0.2,0.9,0,1.3,0l-1.8-0.4c0.2-0.2,0.5,0,0.8,0c-0.3-0.1-0.8-0.2-1.1-0.3l0.3-0.1 c-0.4-0.2-0.9-0.1-1.3-0.3c0.4-0.2,0.8,0.1,1.2,0.1l-1.8-0.3l-0.2-0.1c0.4,0,0.9,0.1,1.4,0.1c-0.4-0.1-0.9-0.2-1.4-0.3 c0.1-0.1,0.4,0,0.5-0.1c-0.2,0-0.4-0.1-0.6-0.1c-0.3,0-0.5-0.1-0.7-0.2l0.9-0.1c-0.4-0.2-0.9-0.1-1.3-0.3l0.6-0.1l-1.1-0.2 c0.1-0.2,0.5,0,0.6-0.2c-0.3-0.1-0.6-0.1-0.8-0.2c0.1-0.1,0.2,0,0.3-0.1l-0.9-0.2l0.4-0.1c-0.4,0-0.7-0.1-1-0.2 c0-0.2,0.3-0.1,0.3-0.2c-0.4,0-0.7-0.1-1.1-0.1c-0.1-0.3,0.2-0.1,0.3-0.2l-0.6-0.1c0-0.4-0.4-0.2-0.7-0.3c0.2,0.2,0.1,0.4,0,0.6 c-0.1,0-0.1-0.1-0.1-0.1c-0.3,0.6,0.6,0.5,0.8,1.1c0,0.1-0.2,0-0.2,0.1c-0.4-0.2-0.6-0.4-1.1-0.4c0.9,1,2.2,1.8,3.2,2.9l6,5l4,2.9 c-0.3,0-0.6-0.2-0.9-0.4c-0.4,0.2-0.5-0.3-0.8-0.5c-0.4,0-0.7-0.8-1-0.4c-0.2-0.3-0.5-0.8-0.9-0.9c0,0.1,0.2,0.3,0,0.4 c-0.5-0.3-0.4-1-1.1-1.2c-0.1,0.2,0.3,0.4,0.1,0.6c-0.4-0.4-0.5-1.1-1.1-1.4c-0.1,0.2,0.1,0.4,0.1,0.5c-0.4-0.4-0.4-1-1-1.3 l-0.1,0.1c-0.2-0.3-0.4-0.7-0.8-0.9c0.1,0.1,0.2,0.2,0.1,0.3c-0.4-0.3-0.4-0.9-0.9-1.2l-0.2,0.2c-0.1-0.3-0.3-0.7-0.7-0.9 c-0.1,0.1,0.2,0.3,0,0.4c-0.4-0.3-0.3-0.8-0.8-1.1l-0.1,0.3c-0.3-0.3-0.3-0.8-0.8-1.1c-0.1,0.2,0.3,0.4,0.1,0.7 c-0.4-0.4-0.3-1.2-1-1.5V24c-0.3-0.3-0.2-0.8-0.6-1.1c-0.2,0.1-0.2-0.3-0.4-0.4c-0.1,0.1-0.1,0.1-0.2,0.2l-0.2-0.5 c-0.2,0.1,0,0.3-0.1,0.5c0.4,0.5,0.8,1,1.4,1.4c3.7,3.7,7.8,7.3,12.4,9.5c0.6,0.1,1.1,0.6,1.7,0.3c0.1-0.1,0.4-0.2,0.3-0.4 c-0.5-1.7-2.3-1.9-3.8-2.2c0.2-0.2,0.7-0.1,1-0.1c-0.5-0.2-1-0.2-1.4-0.4c0.4-0.1,0.9-0.1,1.2,0l-1.7-0.4c0.2-0.2,0.7-0.1,1-0.1 l-0.1-0.1c-0.6,0-1.2-0.2-1.7-0.2c0.4-0.1,0.8,0,1.3-0.1c-0.6-0.1-1.2-0.2-1.7-0.3l-0.1-0.1c0.5-0.2,0.9,0.1,1.4,0.1 c-0.3-0.6-1.2-0.6-1.7-0.8h0.6c-0.6-0.3-1.4-0.3-2.1-0.6c0.4-0.2,0.9,0,1.3,0c-0.5-0.1-1-0.3-1.6-0.4l-0.1-0.1 c0.3-0.1,0.6-0.1,0.9,0l-1.5-0.4c0.2-0.2,0.7-0.1,1,0l-1.5-0.4c0.4-0.1,0.7-0.1,1.1,0c-0.5-0.2-1-0.2-1.4-0.3l-0.1-0.1 c0.2-0.2,0.7,0.1,0.9-0.1c-0.4-0.3-0.9-0.2-1.4-0.4l0.8-0.1c-0.4-0.2-1-0.1-1.3-0.4h0.7c-0.5-0.2-1-0.2-1.5-0.5h0.8l-1.3-0.4 c0.3-0.3,0.7,0.1,1,0c-0.4-0.1-1-0.1-1.3-0.4c0.4-0.1,0.8,0.1,1.2,0.1c3.5,2.6,6.9,5.3,10.5,7.6c1.5,0.7,2.9,1.7,4.6,1.7 C131.4,33.4,131.5,33,131.4,32.7z M125.8,30.2c-0.3-0.4-0.6-1-1.1-1.2c-0.1,0.2,0.2,0.5,0.2,0.8c-0.4-0.4-0.6-1-1.1-1.4 c-0.2,0.2,0.1,0.4,0.2,0.6c-0.4-0.3-0.5-1-1.1-1.3c-0.2,0.3,0.2,0.5,0.2,0.8c-0.3-0.5-0.5-1-1.1-1.3c-0.2,0.2,0.2,0.3,0.1,0.5 c-0.3-0.4-0.4-0.9-1-1.1c-0.2,0.1,0,0.2,0,0.4c-0.3-0.3-0.4-0.8-0.9-1c-0.2,0.2,0.1,0.4,0.1,0.6c-0.4-0.4-0.5-1-1.1-1.2 c-0.2,0.2,0.1,0.3,0.1,0.6c-0.3-0.3-0.3-0.9-0.9-1.1c-0.2,0.1,0,0.3,0,0.5c-0.3-0.2-0.5-1-1-0.8c0.1,0.1,0.1,0.3,0.1,0.4 c-0.3-0.3-0.3-0.9-0.8-1.1l-0.1,0.1l-0.6-0.6l-0.1,0.2c-0.2-0.2-0.2-0.5-0.5-0.7c-0.1,0.1-0.1,0.2-0.1,0.3c-0.2-0.2-0.3-0.6-0.6-0.7 c-0.1,0.1,0,0.2-0.1,0.2c-0.2-0.2-0.4-0.4-0.4-0.7c3.9,2.4,7.8,4.9,11.6,7.5C125.5,29.7,125.8,29.9,125.8,30.2z M133.7,29.7 c-5.2-3.9-10.8-6.7-16.4-9.4l0.2,0.1c0,0,0,0.1-0.1,0.1l0.4,0.2c0,0.2,0.4,0.1,0.4,0.3c-0.4,0-0.7,0.1-1.1-0.1l0.1-0.2 c-0.3,0-0.7-0.1-0.9-0.1l0.5,0.4c0,0.2,0.2,0.4,0.1,0.7l-0.3-0.4c0,0.2,0.3,0.4,0.1,0.6c-0.2-0.2-0.2-0.4-0.3-0.6l-0.1,0.1 c-0.2-0.1-0.1-0.3-0.2-0.4v0.5c-0.2-0.1-0.2-0.3-0.3-0.5l-0.1,0.5c-0.2-0.1-0.1-0.4-0.3-0.5l0,0c-0.1,0.1-0.1,0-0.2,0 c0,0.2,0,0.4,0.1,0.5c1.3,0.7,2.6,1.5,3.9,2.3l9.6,6.1c1.6,0.8,3.1,2,5.1,2c0.4,0,1-0.1,1.2-0.5C134.9,30.7,134.3,30.2,133.7,29.7z M127.1,27.6c-0.4-0.2-0.5-1-1.1-1.2c-0.1,0.4,0.4,0.7,0.4,1.1c-0.3-0.5-0.6-1-1.1-1.4c-0.2,0.1,0.1,0.3,0.1,0.4 c-0.3-0.3-0.5-0.9-1-1.1l-0.1,0.1l0.5,0.9c-0.4-0.3-0.6-1.1-1.1-1.4l-0.1,0.1c0.2,0.3,0.2,0.6,0.3,0.9c-0.4-0.4-0.5-1.1-1.1-1.3 c-0.2,0.1,0.1,0.3,0,0.5c-0.2-0.3-0.3-0.8-0.7-1c-0.2,0.2,0,0.4,0,0.6c-0.4-0.2-0.3-0.9-0.8-0.8v0.2l-0.5-0.7 c-0.2,0.2,0.1,0.4,0.1,0.5c-0.2-0.2-0.4-0.6-0.7-0.8c0,0.3,0.3,0.7,0.5,1c-0.4-0.3-0.6-1-1.1-1.4c-0.3,0.2,0.2,0.3,0.1,0.5 c-0.3-0.2-0.4-0.6-0.7-0.8v0.3c-0.2-0.2-0.4-0.4-0.4-0.7c2.9,1.6,5.8,3.4,8.7,5c-0.1,0.3,0.2,0.5,0.3,0.8c-0.3-0.4-0.5-0.9-1-1.1 l-0.1,0.1L127.1,27.6z M96.7,34.9c-5.9-1.8-9.1-8.2-12.2-12.9c-2.1-3.3-5.8-5.2-9.7-4.3c-1.1,0.4-2.6,0.4-3.2,1.5 c-2,0.7-4,1.6-5.9,2.5c-0.4,0.3-0.9,0.5-1.1,1c-0.9,0.4-1.7,0.9-2.6,1.3c-5.6,3.1-11.2,6.1-16.4,9.9c-0.4,0.3-0.8,0.6-0.8,1.1 c1,0.7,2.3,0.1,3.4-0.1c2.2-0.8,4.5-1.7,5.9-3.6c0.2,0.3-0.2,0.5-0.1,0.7c2.3-1,4.5-2.5,6.7-3.7l0.3,0.3c-0.2,0.1-0.5,0-0.7,0.1 l0.2,0.1c-0.2,0.2-0.6,0-0.7,0.2c0.1,0.2,0.3-0.2,0.3,0.1c-0.2,0.2-0.5,0-0.7,0.2l0.2,0.1c-0.2,0.2-0.5,0-0.6,0.2 c0.1,0,0.1,0.1,0.1,0.1c-0.2,0.1-0.4,0.1-0.6,0.1l0.1,0.2l-0.5,0.2l0.2,0.1l-0.1,0.1c-0.2,0.1-0.9-0.2-0.7,0.3 c-0.5-0.2-0.5,0.4-1,0.3l0.1,0.1c-0.2,0.1-0.4-0.1-0.6,0.2l0.1,0.1c-0.1,0.2-0.4,0.1-0.6,0.1c0.2,0.5-0.5,0.1-0.6,0.4 c0.1,0.1,0.3,0,0.3,0.2L54.8,32l0.2,0.1c-0.3,0.2-0.8,0.1-1.1,0.1c0.2,0.1,0.4,0,0.5,0.2c-0.4,0.2-0.7-0.1-1.1,0.1 c0.2,0.2,0.4,0.1,0.6,0.2l-0.8,0.1l0.5,0.2c-0.3,0.3-0.7-0.1-1,0.2c0.1,0.1,0.3,0,0.2,0.2c-0.3,0.2-0.6-0.2-0.8,0.1 c0.2,0,0.3,0,0.4,0.1c-0.1,0.3-0.6,0-0.9,0.1c-1,0.7-2.6,0.9-2.8,2.3c0.2,0.5,0.9,0.3,1.3,0.3c4.5-1,8.3-4,12.4-6.2 c2.4-1.8,5-3.3,7.2-5.3c-0.1-0.1-0.2,0.2-0.4,0.2c0-0.5-0.5,0-0.7-0.3L68.4,25c-0.1-0.1,0-0.2-0.1-0.2c-0.3-0.3-0.2,0.3-0.4,0.4 l-0.1-0.4c-0.3,0-0.2,0.4-0.3,0.5l-0.1-0.1c-0.4,0.1-0.3,0.6-0.6,0.9v-0.4c-0.4,0.1-0.4,0.5-0.5,0.7L66.1,26c-0.6,0-0.4,0.8-0.8,1 c-0.1-0.2,0.3-0.4,0.1-0.5c-0.3,0.1-0.5,0.4-0.5,0.7c-0.1-0.1,0-0.3-0.1-0.4c0.9-0.8,1.9-1.3,2.8-1.9h-0.1c-0.3,0.3-0.8,0-1.1,0.2 l0.2,0.1c-0.2,0.2-0.4,0.1-0.6,0.2l0.1,0.2l-0.6,0.1l0.1,0.1c-0.1,0.2-0.3,0-0.5,0.1c0.2,0.4-0.3,0.1-0.5,0.3c0.5,0.6-0.7,0-0.4,0.5 c-0.6-0.1-0.8,0.5-1.3,0.5c0,0.1,0.1,0.1,0.1,0.1c0,0.1-0.1,0-0.2,0.1c-0.2,0-0.3,0.1-0.3,0.3c-0.5-0.3-0.4,0.5-0.9,0.3 c0.1,0.4-0.4,0.3-0.6,0.2v-0.1c1.3-0.8,2.6-1.7,3.9-2.5c1.2-0.8,2.4-1.5,3.5-2.5c0.1-0.2-0.1-0.4,0.2-0.5c1.3-0.4,2.5-0.9,3.7-1.4 c0.2-0.3,1-0.2,0.7-0.7c-0.1,0-0.2,0.1-0.3,0.2l-0.1-0.1c0-0.1,0-0.2,0.1-0.2c-0.1-0.1-0.1-0.2-0.2-0.1s-0.1,0.1-0.2,0.2l-0.1-0.1 c0-0.1,0.1-0.1,0.1-0.2c-0.1-0.1-0.1-0.1-0.2-0.1c-0.3-0.2-0.4,0.2-0.6,0.3l-0.1-0.2L71,20.6c-0.1-0.1,0-0.3-0.1-0.2 c-0.1,0.2-0.2,0.3-0.5,0.2c-0.2,0.1-0.2,0.3-0.3,0.4l-0.2-0.1c-0.1,0.1-0.2,0.2-0.3,0.3l-0.1-0.3c-0.3,0-0.2,0.4-0.4,0.5L69,21.1 c-0.4,0.1-0.3,0.5-0.6,0.7l-0.1-0.4c-0.3,0-0.3,0.3-0.5,0.5c-0.1-0.1,0.1-0.2,0-0.3c-0.3,0-0.3,0.3-0.6,0.4 c-0.3-0.2-0.5,0.1-0.6,0.3c-0.2,0-0.3-0.2-0.5-0.2c1.8-0.9,3.6-1.6,5.6-2.2l0.1-0.1c-0.1-0.1-0.2-0.3-0.1-0.4c0.8,0.8,2.1,1,3.3,0.8 l0.1-0.1c-0.1,0,0-0.2-0.1-0.2c0.1,0,0.1-0.1,0.1-0.1c0,0.3,0.4,0.4,0.5,0.6c-0.1,0.2-0.3,0-0.5,0c-0.3,0.2-0.2,0.4-0.2,0.7 c0.4,0.6,1.3,0.8,2,0.6l0.2-0.2c0.5,0.6,1-0.3,1.5-0.1c-0.2,0.2-0.5,0.3-0.8,0.5S77.2,21.7,77,22c-0.2,0.2-0.3,0.4-0.2,0.6 c0.1,0.2,0.3,0.4,0.5,0.4c0.3,0,1.1,0.3,1.1-0.3c0.2,0.5,0.8,0.5,1.2,0.7c-0.2,0.2-0.5,0-0.7,0s-0.3-0.4-0.5-0.1 c-0.1,0.2,0,0.5,0.1,0.7c0.6,0.1,0,0.5,0.1,0.8c0.2,0.1,0.3-0.2,0.3-0.3c0.6,0,1.2,0.3,1.9,0.1c0.1-0.1-0.1-0.4,0.2-0.3 c0,0.4,0.5,0.4,0.6,0.7c-0.2,0.2-0.3-0.1-0.5-0.1c-0.2-0.2-0.4,0.1-0.4,0.2c-0.1,0.4,0,0.8,0.2,1.2c0.5,0.4,1.1,0.5,1.7,0.3 c0.1-0.1-0.1-0.4,0.1-0.4c0.1,0,0.1,0.1,0.1,0.2c0.1,0.3,0.5,0.4,0.8,0.4c-0.1,0.3-0.5,0-0.7,0.1c-0.3,0.2-0.5,0.5-0.5,1 c0.3,0.6,1,0.7,1.6,0.7c0.3-0.2,0.8,0,0.8-0.4c0.3,0,0.1,0.3,0.3,0.4c0.1,0,0.2,0,0.3,0.1c-0.1,0.3-0.4,0-0.6,0.1 c-0.1,0.3-0.4,0.5-0.2,0.9c0.3,0.6,0.9,0.7,1.5,0.7c0.4,0.1,0.3-0.3,0.5-0.5c0,0.4,0.4,0.5,0.7,0.6c-0.1,0.4-0.5-0.1-0.7,0 c-0.3,0.2-0.3,0.5-0.2,0.8c0.3,0.7,1.1,0.7,1.8,0.6c0.2-0.1,0.1-0.2,0.1-0.3c0.1,0,0.1-0.1,0.1-0.1c-0.1,0.4,0.4,0.3,0.5,0.5 c-0.1,0.1-0.3,0-0.4,0.1c-0.1,0.2-0.3,0.3-0.2,0.6c0.4,0.6,1.2,0.4,1.8,0.4l0.1-0.3l0.3,0.3c0.4,0.3,0.4-0.5,0.7-0.2 c-0.2,0.2-0.3,0.5-0.6,0.5c-0.3-0.3-0.6,0.1-0.8,0.3c-0.1,0.3-0.6,0.8,0,1.1c0.4,0.2,0.8,0.1,1.3,0.1c0.4,0,0.1-0.3,0.2-0.5 c0.2-0.2,0.5-0.3,0.7-0.2c0,0.2-0.3,0.2-0.4,0.4c0.2,0.5,0.6-0.1,0.9,0.1l0,0c-0.2,0.3-0.5,0.4-0.8,0.2c-0.1,0.2-0.2,0.3-0.2,0.5 c0.1,0.3,0.4,0.4,0.7,0.4c0.3,0,0.8-0.1,0.6-0.5h0.1c0.2,0.4,0.6,0.2,1,0.3v0.1c-0.3,0.1-0.6,0-0.8,0.2c-0.1,0.2,0.1,0.4,0.2,0.6 c0.3,0.2,0.5,0.4,0.9,0.3c0.2,0,0.3-0.5,0.5-0.1c0.2,0.1,0.6,0.2,0.8,0l-0.1-0.1c0-0.1,0-0.1,0.1-0.2c0.2-0.8,1.1-0.6,1.7-0.7 L96.7,34.9z M64.4,26.9c0.1,0.2-0.1,0.4-0.2,0.7c0-0.2,0.2-0.3,0-0.5c-0.2,0.1-0.4,0.1-0.5,0.4c0.1,0.4-0.1,0.7-0.2,1 c0-0.1,0.2-0.7-0.1-0.9C63.6,27.3,64,27.2,64.4,26.9z M61.8,28.4c0.3-0.3,0.7-0.7,1.2-0.7l-0.3,0.8c0-0.2,0.2-0.4,0-0.5 c-0.2,0.1-0.4,0.1-0.5,0.3l-0.1,0.4c0-0.2,0.1-0.3-0.1-0.4c-0.4,0.2-0.4,0.6-0.5,1c-0.1-0.2,0.2-0.4-0.1-0.6 c-0.3,0.1-0.3,0.5-0.4,0.8c0-0.1,0.1-0.3-0.1-0.4c-0.2,0-0.3,0.2-0.5,0.3L60.3,30c-0.1-0.2,0.2-0.4-0.1-0.5c-0.4,0-0.4,0.5-0.5,0.8 c0-0.1,0-0.3,0-0.3c-0.1-0.3-0.3,0-0.4,0.1c-0.2,0.2-0.1,0.6-0.3,0.9c-0.1-0.3,0.3-0.4,0.1-0.7c-0.2,0.1-0.5,0.2-0.6,0.4 c-0.1,0.2-0.1,0.5-0.2,0.7c0-0.2,0.2-0.5-0.1-0.6c-0.5,0.2-0.4,0.7-0.5,1.1c-0.3-0.2,0.4-0.7-0.2-0.6c-0.3,0.1-0.1,0.4-0.2,0.6 c0-0.1,0.1-0.3-0.1-0.4c-0.3,0-0.1,0.4-0.3,0.5c0-0.2,0-0.3-0.2-0.3c-0.4,0.2-0.3,0.7-0.5,1.1c0.1-0.2,0.1-0.5-0.1-0.7 c-0.3,0.2-0.3,0.4-0.3,0.7c0,0.1,0.1-0.4-0.1-0.4C57.8,30.9,59.8,29.7,61.8,28.4z M65.3,24.1L65.3,24.1c0-0.1,0.2-0.4,0-0.5 c-0.2,0.2-0.2,0.4-0.3,0.7c-0.1-0.2,0.2-0.4-0.1-0.5l-0.5,0.8c0-0.2,0.2-0.4,0-0.5c-0.4,0.2-0.4,0.8-0.7,1.1c0-0.3,0.3-0.5,0.1-0.8 c-0.4,0.3-0.5,0.8-0.8,1.3c-0.2-0.1,0.8-1.2-0.1-0.8c-0.3,0.2-0.2,0.6-0.4,0.9c-0.2-0.2,0.2-0.5-0.1-0.7L62,25.6 c0-0.1-0.1-0.1-0.1-0.1c-0.3,0-0.4,0.4-0.5,0.6c0-0.1,0.1-0.3-0.1-0.3c-0.3,0.1-0.4,0.4-0.5,0.7c0-0.1,0.1-0.3-0.1-0.3 c-0.4,0.1-0.4,0.5-0.5,0.8c-0.1,0,0.2-0.3-0.1-0.5c-0.3,0.1-0.3,0.5-0.4,0.7c0,0,0.1-0.4-0.2-0.4c-0.3,0.1-0.2,0.4-0.4,0.6 c0-0.1,0-0.2-0.1-0.3c-0.4,0.2-0.4,0.7-0.6,1c0-0.2,0.2-0.4,0-0.6c-0.4,0.2-0.4,0.7-0.6,1.1c0-0.3,0.3-0.6,0.1-0.8 c-0.2,0.1-0.3,0.3-0.3,0.5c0-0.1,0-0.2-0.1-0.2c-0.4,0.2-0.3,0.7-0.5,1c-0.2-0.2,0.4-0.6-0.1-0.8c-0.2,0.3-0.3,0.7-0.5,1 c0-0.3,0.3-0.5,0.1-0.7c-0.4,0.2-0.3,0.8-0.7,1.1c0-0.3,0.3-0.6,0.1-0.8c-0.3,0.2-0.3,0.5-0.4,0.8c-0.1-0.1,0.2-0.3-0.1-0.4 c-0.4,0.2-0.4,0.7-0.6,1c-0.1-0.2,0.2-0.5,0-0.7c-0.3,0-0.3,0.3-0.5,0.5c0,0,0-0.2-0.1-0.2c-0.6,0-0.3,0.7-0.6,0.9 c-0.1-0.1,0.3-0.5-0.1-0.5L53.1,31c-0.1-0.2,0.2-0.3-0.1-0.4c-0.3,0.1-0.3,0.4-0.4,0.6c0-0.1,0-0.2-0.1-0.3 c-0.3,0.2-0.3,0.6-0.5,0.9c0-0.2,0.2-0.4,0-0.6l-0.4,0.7c0-0.2,0.1-0.3,0-0.4L51.3,32c0-0.1,0.2-0.4,0-0.6L51,31.8 c0-0.1-0.1-0.1-0.1-0.2c-0.3,0.1-0.3,0.6-0.6,0.4L50,32.3l-0.1-0.1c-0.2,0.3-0.4,0.7-0.5,1.1c-0.1-0.3,0.3-0.5,0.1-0.8 c-0.4,0.2-0.3,0.6-0.5,0.9c-0.1-0.1,0.2-0.4,0-0.5c-0.2,0.1-0.3,0.3-0.4,0.5l-0.2-0.2c-0.2,0.1-0.3,0.3-0.4,0.5l-0.1-0.1 c-0.1,0.1-0.2,0.1-0.4,0.1c3.7-2.5,7.7-4.5,11.6-6.8c0.9-0.5,1.9-0.9,2.7-1.5c1.3-0.6,2.5-1.3,3.8-2C65.7,23.6,65.4,23.9,65.3,24.1z "></path> <path class="st0" d="M118.5,29.9c-0.4-0.2-1-0.1-1.4-0.4c0.4,0,1,0,1.4,0.2c-0.4-0.3-1-0.4-1.4-0.6c0.2-0.1,0.5,0.1,0.7,0 c-0.4-0.3-1.1-0.3-1.5-0.6c0.3-0.1,0.7,0.1,0.9,0c-0.3-0.1-0.7-0.3-1-0.4c0.1-0.2,0.5,0,0.4-0.1c-0.3-0.2-0.8-0.3-1.1-0.5h0.6 c-0.5-0.1-0.9-0.3-1.4-0.5l0.6-0.1c-0.3-0.2-0.6-0.2-0.9-0.4l0.4-0.1c-0.4-0.3-1-0.3-1.4-0.5h0.7c-0.3-0.1-0.6-0.2-0.8-0.4h0.3 c-0.4-0.2-1-0.3-1.4-0.6c0.3-0.1,0.6,0.1,0.9,0.1c-0.2-0.2-0.5-0.1-0.7-0.2c-0.1-0.2,0.2-0.1,0.2-0.2c-0.3-0.2-0.8-0.2-1.1-0.5h0.5 c-0.3-0.1-0.6-0.2-0.8-0.3l0.3-0.1c-0.3-0.1-0.5-0.2-0.8-0.3c0.1-0.3,0.4,0.1,0.5-0.1c-0.1-0.1-0.2-0.1-0.3-0.1 c-0.1-0.5-0.7-0.2-0.9-0.6l0.4-0.1l-1-0.3c0.2-0.2,0.4,0.2,0.5-0.1c-0.3-0.2-0.7,0-1,0.1c3,3.6,6.7,6.9,10.2,9.8l-0.1,0.1 c-0.6-0.3-1.3-1-1.7-1.2c0,0.2,0.3,0.2,0.1,0.4c-0.5-0.4-0.7-1.1-1.2-1.4c0,0.2,0.2,0.3,0.1,0.5c-0.4-0.5-0.6-1.1-1.2-1.4l-0.1,0.2 c-0.4-0.4-0.5-1.1-1.1-1.3c-0.1,0.3,0.3,0.4,0.1,0.7c-0.3-0.4-0.5-1-0.9-1.4c0,0.2,0.2,0.4,0.1,0.6c-0.4-0.3-0.4-0.9-0.8-1.2 c0.1,0.3,0.3,0.5,0.2,0.8c-0.3-0.5-0.5-1.1-0.9-1.6c-0.1,0.2,0.2,0.4,0,0.6c-0.3-0.4-0.4-0.9-0.7-1.3c0,0.3,0.3,0.5,0.1,0.7 c-0.2-0.5-0.3-1-0.6-1.4l-0.1,0.4l-0.3-0.8c-0.1,0.2,0.1,0.4,0,0.6c-0.3-0.3-0.2-0.8-0.4-1.1L110,24c-0.3-0.3-0.2-0.8-0.3-1.1 c-0.3,0-0.1,0.4-0.2,0.6c-0.1-0.3-0.1-0.6-0.2-0.9c-0.2,0.2,0,0.5-0.1,0.8c-0.2-0.2-0.1-0.6-0.2-0.9c-0.1,0.2-0.2,0.5-0.1,0.7 c2.3,2.7,4.8,5.3,7.5,7.5c1.3,0.9,2.5,2.1,4.1,2.3c0.3-0.1,0.4-0.3,0.5-0.5C120.6,31.4,119.7,30.1,118.5,29.9z M76,22 c-0.1,0.1-0.3,0-0.3-0.2L75.4,22l-0.1-0.3c-0.1,0-0.2,0.1-0.2,0.2L75,21.5l-0.4,0.4l-0.1-0.1c0-0.1,0.2-0.2,0.1-0.3 c-0.2,0-0.2,0.2-0.3,0.3c-0.2-0.4-0.6,0.1-0.7,0.2h-0.1L73,22.6c-0.1-0.2,0.1-0.3,0.2-0.4c-0.3-0.1-0.4,0.3-0.7,0.5 c-0.1,0,0-0.1-0.1-0.2c-0.3,0.2-0.4,0.7-0.8,0.9c-0.2-0.3,0.4-0.5,0.3-0.7c-0.5,0.1-0.5,0.8-1,1c0-0.2,0.4-0.5,0.4-0.7l-0.8,0.6 v-0.3c-0.3,0.1-0.6,0.3-0.9,0.3v-0.1c1.6-0.9,3.2-1.5,4.8-2.3c-0.3-0.3-0.8-0.2-1.2-0.3L73.1,21c0.3,0.1,0.7,0,0.9,0.2 c-0.4,0.2-1-0.2-1.4,0c0.3,0.2,0.8-0.2,0.9,0.3c0,0.1-0.1,0-0.2,0.1c-1-0.7-1.9,0.3-2.9,0.5c-0.8,0.6-2.1,0.7-2.4,1.8 c0.3,0.5,0.9,0.6,1.5,0.5C71.9,24,74,23.2,76,22L76,22z"></path> <path class="st0" d="M107.2,22.1c0.1,0.2,0.4,0.1,0.6,0.3l-0.4,0.1c0.2,0.1,0.4,0.1,0.6,0.2l-0.2,0.1c0.2,0.1,0.4,0.2,0.6,0.3 l-0.2,0.1c0.1,0.2,0.8,0.2,0.5,0.5l0.4,0.2C109,24,109,24,109,24.1l0.3,0.1c-0.2,0.3,0.3,0.3,0.4,0.4c-0.1-0.1-0.2,0-0.3,0h-0.1 c0.2,0.2,0.5,0.2,0.7,0.3l-0.3,0.1c0.2,0.2,0.5,0.2,0.7,0.4l-0.2,0.1c0.2,0.2,0.6,0.2,0.7,0.4l0.2,0.2h-0.4l0.7,0.3 c-0.1,0.1-0.4-0.1-0.6,0c0.3,0.2,0.6,0.3,1,0.4l-0.4,0.1c0.2,0.3,0.7,0.2,1,0.4l-0.5,0.1l0.8,0.4c-0.2,0-0.4-0.2-0.6-0.1 c0.3,0.3,0.8,0.3,1.2,0.5c-0.2-0.1-0.4-0.1-0.5-0.1c0.2,0.2,0.5,0.2,0.8,0.4c-0.1,0-0.2,0-0.2,0.1c0.1,0.2,0.4,0.2,0.6,0.3l-0.2,0.1 c0.2,0.2,0.6,0.2,0.8,0.4c-0.1,0-0.1,0-0.1,0.1c0.6,0.3,1.2,0.6,1.6,1.3c0.1,0.2,0.2,0.4,0.1,0.7c-0.9,0.5-1.7-0.3-2.5-0.7 c-2.5-1.8-4.4-4.3-6.1-6.6c0-0.3-0.2-0.6-0.1-1c0.2,0.2,0.2,0.5,0.4,0.8l0.1-0.2c0.4,0.3,0.4,1,0.8,1.3v-0.2c0.5,0.3,0.4,1,0.9,1.1 c0.3,0.4,0.5,0.8,0.8,1.2V27c0.4,0.3,0.5,0.8,0.9,1.2l0.1-0.1c0.4,0.7,1.1,0.8,1.5,1.5c0.2,0,0.4,0.3,0.6,0.2 C111.2,27.5,108.7,24.9,107.2,22.1l0.7,0.2L107.2,22.1L107.2,22.1z"></path> <path class="st0" d="M78.9,28.9L78.8,29c-0.2,0-0.1-0.1-0.2-0.2l-0.4,0.3l-0.1-0.3l-0.3,0.4l-0.1-0.4l-0.3,0.5 c-0.2-0.2,0.1-0.4,0-0.6c-0.2,0.1-0.1,0.2-0.2,0.3L77,29c-0.4,0.3-0.4,0.7-0.6,1.1c-0.2-0.2,0.1-0.3,0-0.6c-0.6,0-0.5,0.7-0.9,1 c-0.1-0.1,0.1-0.3,0.1-0.4c-0.4-0.2-0.6,0.5-0.8,0.7l-0.1-0.1c0.1-0.5-0.4,0.1-0.6-0.1c1.1-0.7,2.2-1.4,3.1-2.2 c-0.2-0.2-0.6,0-0.7,0.2c0.1,0,0.1,0.1,0.1,0.2l-0.9,0.1L76,29c-0.2,0.1-0.4,0.1-0.5,0.2c0.1,0,0.1,0,0.1,0.1 c-0.1,0.1-0.3,0.1-0.5,0.2l0.1,0.1c-0.1,0.1-0.3,0.1-0.4,0.2c0.1,0.4-0.6,0.2-0.7,0.4h0.1c0.1,0,0.2,0,0.2,0.1 c-0.3,0.1-0.7,0.1-1,0.4c0.1,0,0.2,0,0.2,0.1c-0.2,0.1-0.5,0.2-0.8,0.2c-0.8,0.6-1.8,0.8-2.4,1.6c0,0.3,0.3,0.5,0.5,0.6 c1.8,0.1,3.2-1.1,4.7-1.9c1-0.8,2.2-1.3,3.2-2.1C79,29.1,79,28.9,78.9,28.9z M84.4,28.8L84.2,29c-0.5,0.1,0.1-0.3,0.1-0.4L83.7,29 l0,0c0-0.1,0.1-0.2,0.2-0.2v-0.1L83.4,29c-0.2-0.2,0.1-0.3,0.1-0.4c-0.1,0.1-0.3,0.3-0.4,0.2l0.1-0.3c-0.3,0.1-0.6,0.6-0.9,0.5 l0.6-0.6c-0.3,0.1-0.5,0.4-0.8,0.4l0.6-0.5c-0.2,0.1-0.5,0.3-0.7,0.3l0.4-0.4c-0.3,0.1-0.6,0.4-0.9,0.4c0.1-0.3,0.5-0.5,0.7-0.7 c-0.2,0.1-0.4,0.4-0.6,0.3c0.2-0.2,0.3-0.3,0.5-0.4c-0.3,0.1-0.5,0.3-0.8,0.3c0-0.1,0.1-0.1,0.1-0.1c-0.7,0.3-1.7,0.8-1.8,1.7 c1.1,1.2,2.8,0.3,3.9-0.1c0.2,0,0.2-0.4,0.5-0.3C84.1,29.1,84.5,29,84.4,28.8z M76.2,27.5C76,27.7,76,28,75.8,28.1 c-0.2-0.2,0.2-0.4,0.1-0.5L75.6,28l-0.1-0.3l-0.4,0.5c-0.1-0.3,0.5-0.5,0.2-0.9c-0.2,0.4-0.3,1-0.6,1.4c-0.1-0.3,0.2-0.7,0.2-1 c-0.1,0.1-0.2,0.5-0.4,0.3c-0.1,0.4-0.3,0.8-0.5,1.1c-0.1-0.3,0.2-0.6,0.1-0.9c-0.6,0.3-0.5,1-0.9,1.4c-0.1-0.3,0.3-0.6,0.2-0.9 c-0.7,0.1-0.6,0.9-1,1.3c-0.2-0.3,0.3-0.5,0.2-0.8c-0.3,0.1-0.5,0.5-0.6,0.8l-0.1-0.3c-0.5,0.2-0.4,0.8-0.8,1.2 c-0.2-0.2,0.2-0.4,0.1-0.7c-0.3,0.2-0.6,0.4-0.7,0.8l-0.1-0.2c-0.3,0.2-0.4,0.6-0.7,0.7c-0.1-0.1,0.1-0.1,0-0.2 c-0.3,0.1-0.4,0.2-0.6,0.4c-0.3,0-0.6,0.4-0.9,0.3c2.2-1.5,4.5-3,6.7-4.6c-0.7,0.5-1.5,0.9-2.4,0.9l0.1,0.1l-0.5,0.2 c0.1,0,0.2,0,0.2,0.1c-0.2,0.2-0.5,0.2-0.7,0.3c0.1,0,0.2,0,0.3,0.1c-0.2,0.3-0.7,0.1-0.8,0.3c0.2,0.1,0.3-0.2,0.4,0 c-0.2,0.2-0.5,0.2-0.8,0.2c-0.1,0,0.1,0.3-0.1,0.2c-0.2,0.1-0.8,0.1-0.6,0.5c-0.1,0-0.2,0-0.3,0.1c0,0.5-0.7,0.1-0.6,0.6 c-0.4-0.2-0.4,0.5-0.8,0.3c-0.6,0.5-1.5,0.7-1.9,1.4c0.3,0.3,0.7,0.2,1.1,0.2c3.3-1.1,6.1-3.1,8.9-5.2l0.1-0.5 C76.5,27.8,76.2,27.7,76.2,27.5z M73,26.8l-0.3,0.4c-0.1-0.2,0.1-0.3,0.1-0.5c-0.5-0.2-0.1,0.7-0.6,0.8c-0.2-0.2,0.1-0.4,0-0.5 c-0.3,0.3-0.3,0.7-0.6,1c-0.2-0.2,0.1-0.3,0.1-0.5c-0.4,0.2-0.4,0.7-0.7,1c-0.1-0.2,0.1-0.4,0.1-0.7c-0.7,0.2-0.3,1-0.8,1.3 c-0.2-0.3,0.2-0.5,0.1-0.8c-0.5,0.2-0.5,0.9-0.9,1.3c-0.1-0.2,0.2-0.5,0.1-0.7c-0.3,0.1-0.4,0.4-0.6,0.7l-0.1-0.2 c-0.6,0.2-0.4,0.9-0.9,1.3c-0.2-0.3,0.3-0.5,0.1-0.7c-0.5,0.3-0.5,0.9-0.9,1.3c-0.1-0.3,0.2-0.5,0.2-0.8l-0.2-0.1 c1.5-1.2,3.2-2.2,4.7-3.6l-0.1-0.1c-0.1-0.1-0.2,0.1-0.2,0.1c-0.5,0-0.6,0.6-1.1,0.6l0.1,0.2L70,27.9c0,0.3-0.4,0.2-0.6,0.4h0.3 c-0.2,0.2-0.6,0.2-0.9,0.3l0.1,0.2L68.4,29c0,0.3-0.5,0.3-0.7,0.4l0.1,0.1c-0.6,0-1.1,0.5-1.4,0.9c-0.2,0.1-0.3,0.1-0.4,0.2 c0.1,0,0.2,0,0.3,0.1c-0.3,0.2-0.8,0.1-1,0.4c0.1,0,0.2,0,0.3,0.1c-0.2,0.3-0.8,0.1-1,0.4c0.1,0,0.2,0,0.2,0 c-0.2,0.2-0.6,0.2-0.9,0.4l0.2,0.1c-0.2,0.2-0.6,0.1-0.8,0.3l0.4,0.1c-0.1,0.2-0.4,0.2-0.7,0.2c-0.9,0.5-2.3,0.9-2.5,2.1 c0.1,0.2,0.2,0.3,0.4,0.3c2.3-0.4,4.1-1.8,6-3.2l0.3-0.1c2-1.4,4-3,5.9-4.5C72.7,27.3,73.1,27,73,26.8z M66.7,31.4l0.1-0.4 c-0.2,0-0.5,0.2-0.6,0.5v0.1c-0.4-0.2-0.7,0.4-1,0.5c-0.2-0.1-0.4,0.2-0.6,0.3s0,0.4-0.2,0.5c0-0.1,0.1-0.2,0.1-0.2 c-0.1-0.2-0.3,0-0.4,0.1c-0.2,0.2-0.4,0.4-0.6,0.5c-0.1-0.2-0.2,0-0.3,0c1.2-0.8,2.6-1.8,3.9-2.7C67,30.6,67,31.1,66.7,31.4z M82,27.1c-0.2-0.2,0.2-0.3,0.2-0.4h-0.1l-0.7,0.5c-0.1-0.2,0.2-0.3,0.2-0.5l-0.2,0.1c-0.1,0-0.1-0.1-0.1-0.1 c-0.3,0-0.4,0.5-0.7,0.4c0.1-0.3,0.4-0.4,0.4-0.6c-0.2,0.2-0.4,0.4-0.7,0.5v-0.1l0.5-0.6c-0.2,0.1-0.4,0.3-0.6,0.3 c0.1-0.2,0.3-0.3,0.3-0.5l-0.7,0.7c-0.1-0.1,0.2-0.4,0.1-0.4l-0.6,0.5l-0.1-0.2c-0.2,0.2-0.5,0.4-0.8,0.3c-0.4,0.2-1.2,0.3-1.2,1 c0.9,0.9,2.3,0.3,3.2,0.1c0.6-0.4,1.6-0.4,1.7-1.2C82.2,26.9,82.1,27.1,82,27.1z M71.5,25.6l-0.3,0.3v-0.4c-0.2,0-0.1,0.3-0.3,0.4 l-0.1-0.3c-0.4,0.1-0.1,0.7-0.5,0.8l-0.1-0.1c0-0.1,0.2-0.2,0.1-0.3c-0.7,0.2-0.5,1-1.1,1.4c0-0.3,0.4-0.5,0.3-0.8 c-0.5,0.1-0.4,0.7-0.8,1c-0.1-0.1,0.1-0.3,0.1-0.5c-0.3,0.2-0.3,0.6-0.6,0.8l0.1-0.4c-0.3,0.2-0.3,0.6-0.6,0.9 c-0.1-0.2,0.1-0.3,0.1-0.5c-0.2,0-0.3,0.3-0.4,0.4l-0.1-0.2c-0.4,0.1-0.4,0.5-0.7,0.8l-0.1-0.3c-0.6,0.1-0.4,0.8-0.8,1 c-0.1-0.2,0.2-0.4,0.1-0.6c-0.6,0.1-0.4,0.7-0.7,1c-0.1-0.2,0.1-0.3,0.1-0.5l-0.3-0.1c1.9-1.6,4.1-2.5,5.9-4.1 c-0.3,0.1-0.5,0.3-0.8,0.3c0,0,0,0,0.1,0.1c-0.1,0.3-0.4,0.1-0.5,0.2l0,0c0.1,0,0,0.1,0.1,0.2c-0.3,0.1-0.4,0.4-0.7,0.3 c-0.2,0.3-0.7,0.2-1.1,0.3c0.1,0,0.2,0,0.2,0.1c-0.1,0.1-0.4,0.1-0.6,0.2l0.1,0.1L67,27.3l0.1,0.1c-0.1,0.2-0.3,0.1-0.4,0.2l0.1,0.2 c-0.1,0.1-0.3,0-0.5,0.1c0,0.4-0.7,0-0.5,0.5c-0.1,0.1-0.3,0-0.4,0.1c0.1,0.3-0.4,0.1-0.4,0.4c-0.4-0.1-0.4,0.4-0.8,0.3l0.1,0.1 c-0.1,0.2-0.4,0.1-0.5,0.2c0.2,0.4-0.5,0.1-0.4,0.6c-0.5-0.1-0.4,0.4-0.8,0.3c-0.1,0.5-0.8,0.1-0.8,0.6c-0.5-0.1-0.2,0.4-0.7,0.3 c0,0.4-0.4,0.2-0.6,0.3c0.1,0.4-0.4,0.2-0.6,0.3c0.1,0,0.2,0,0.3,0.1c-0.2,0.2-0.6,0.1-0.8,0.2l0.3,0.1c-0.3,0.2-0.7,0.1-0.9,0.2 c0.1,0,0.2,0,0.3,0.1c0,0,0,0.1-0.1,0.1c-0.7-0.1-0.8,0.6-1.5,0.5c0.1,0.1,0.1,0.2,0,0.2c-1.1,0.2-2,0.7-2.9,1.3 c-0.2,0.3-0.4,0.7-0.3,1.1c0.4,0.2,0.8,0.2,1.3,0.1c3.6-1.1,6.7-3.4,9.9-5.4c2.2-1.6,4.5-3,6.5-4.8C71.9,25.6,71.5,25.9,71.5,25.6z M61.8,32c0-0.2,0-0.5-0.3-0.3c-0.2,0.2-0.2,0.5-0.3,0.7c0-0.2,0.1-0.4-0.1-0.4c-0.5,0.2-0.4,0.8-0.7,1.1c0.1-0.2,0.1-0.4,0.2-0.5 c-0.1-0.3-0.2,0.1-0.4,0.1c-0.3,0.1-0.2,0.4-0.4,0.6L59.7,33c-0.3,0.1-0.4,0.4-0.5,0.6c-0.2-0.4-0.4,0.1-0.6,0.1l-0.4,0.6 c0-0.1,0-0.1,0.1-0.1c-0.1-0.1-0.1-0.1-0.2-0.1c1.3-0.9,2.6-1.8,4-2.7C62.1,31.6,61.9,31.8,61.8,32z M64.6,30 C64.6,29.9,64.6,29.9,64.6,30c-0.1-0.3-0.3-0.1-0.4,0c-0.3,0.2-0.2,0.6-0.4,0.9c0.1-0.1,0.1-0.3,0.2-0.4c-0.2-0.2-0.3,0-0.5,0.1 c-0.3,0.3-0.3,0.7-0.5,1.1c-0.1,0,0.5-0.9-0.1-0.6c-0.3,0.1-0.2,0.4-0.3,0.6c0.1-0.2-0.1-0.3-0.2-0.3c0.8-0.7,1.7-1.1,2.5-1.7 C64.7,29.6,64.7,29.8,64.6,30z M69.7,25.7c0.1,0,0.2,0,0.2,0C69.8,25.7,69.7,25.7,69.7,25.7z M80.5,25.1L80,25.5 c0-0.2,0.3-0.4,0.5-0.6l-1.2,1l-0.1-0.1l0.9-0.9c-0.4,0.2-0.7,0.7-1.1,0.7c0-0.2,0.4-0.4,0.4-0.5c-0.3,0.2-0.7,0.7-1,0.7 c0.2-0.4,0.8-0.5,0.7-1c-1,0.9-2.1,1.5-3.3,1.9c-0.1,0.1-0.4,0.2-0.2,0.4c1.6,0.3,3-0.4,4.2-1.1C80,25.8,80.6,25.5,80.5,25.1z M78.5,24.2l-0.3,0.5c-0.2-0.2,0.2-0.4,0-0.6C78,24.3,78.1,24,78.1,24c-0.4-0.1-0.7,0.5-1.1,0.3c0,0.4-0.4,0.2-0.7,0.2l0.2,0.2 l-0.7,0.1v0.1c0.1,0,0.2,0,0.3,0.1c-0.2,0.3-0.8,0-1.1,0.2c-0.7,0.4-1.5,0.4-2.2,0.8l-0.1,0.1c-0.1,0.2,0,0.5,0.2,0.6 c1.7,0.7,3.2-0.3,4.6-1C77.9,25.1,78.8,24.9,78.5,24.2z M77.5,23.1c0,0.1-0.1,0.1-0.2,0.1L77.2,23c-0.2,0-0.2,0.2-0.4,0.3 c-0.1-0.1,0.1-0.3,0.1-0.4c-0.4-0.2-0.2,0.4-0.5,0.4l-0.1-0.2c-0.3,0-0.4,0.2-0.6,0.4l-0.2-0.1c-0.6,0-0.4,0.7-0.9,0.9v-0.4V24 c-0.3,0.4-0.8,0.5-1.3,0.6c0.4-0.5,1.1-0.6,1.6-1c0.5-0.2,1.1-0.5,1.5-0.8c-0.5,0.3-1,0.1-1.5,0.1c0,0.2-0.2,0.3-0.4,0.2 c-1.1,0.4-2.1,0.8-3.1,1.3c-0.1,0.3-0.3,0.8,0.1,0.9c1.8,0.3,3.2-0.6,4.7-1.2C76.6,23.8,77.6,23.7,77.5,23.1z M109.6,28.3 c0.1-0.3,0.5,0.1,0.6,0c-0.3-0.3-0.7-0.3-0.9-0.5c0-0.1,0.1,0,0.2-0.1l-0.9-0.4c0.1-0.1,0.4,0,0.6,0c-0.3-0.2-0.6-0.3-0.8-0.5 l0.3-0.1c-0.3-0.2-0.8-0.2-1-0.5c0.2-0.1,0.3,0.1,0.5,0c-0.2-0.3-0.6-0.2-0.8-0.5h0.4c-0.2-0.2-0.5-0.2-0.6-0.4h0.4 c-0.2-0.3-0.6-0.3-0.7-0.5l0.2-0.1c-0.2-0.1-0.6-0.3-0.8-0.4h0.4c-0.2-0.1-0.4-0.2-0.6-0.3l0.3-0.1c-0.2-0.1-0.5-0.1-0.6-0.3 l0.3-0.1c-0.2-0.2-0.4-0.1-0.5-0.3c0.1-0.1,0.2,0,0.3-0.1l-0.4-0.2l0.1-0.1c-0.3,0-0.7-0.5-0.9-0.1c0.7,0.9,1.2,1.9,1.9,2.8 l-0.1,0.4c-0.3-0.2-0.1-0.8-0.5-1l-0.1,0.2c-0.2-0.3-0.2-0.8-0.4-1.1c-0.2,0.1,0,0.3-0.2,0.4c-0.1-0.3-0.1-0.6-0.2-0.9 c-0.2,0,0,0.4-0.2,0.4l-0.1-1c-0.1,0-0.1,0.1-0.2,0.1c-0.2-0.1,0-0.3-0.1-0.4l-0.2,0.8c1.3,2.4,3.2,4.9,5.7,6.1 c0.3,0.1,0.8,0.4,1.1,0C111.6,28.7,110.2,28.8,109.6,28.3z M109.2,28.4c0,0.1-0.1,0.1-0.1,0.2c-0.2-0.3-0.3-0.7-0.6-0.9 c-0.3,0.1-0.4-0.7-0.7-0.5c-0.2-0.2-0.1-0.6-0.5-0.8c-0.2,0.1,0,0.3-0.1,0.4l-0.3-1.1c0.9,0.8,1.6,1.9,2.4,2.8L109.2,28.4z"></path> <path class="st0" d="M108.1,33.2c-3.2,0.5-6.3,1.5-9.8,1.6c-0.3,0.1-1-0.3-1.2,0.2c0.1,0.2,0.2,0.2,0.4,0.3c1.8,0.2,3.7-0.1,5.3-0.4 V35c-2,0.6-4.2,0.8-6.4,0.9c-0.2,0.1-0.5,0.2-0.6,0.4l0.1,0.1c1.6,0.3,3.4-0.2,4.9-0.3V36c-1.7,0.5-3.5,0.7-5.4,0.8 c-0.2,0.1-0.6,0.3-0.6,0.5c0.3,0.5,1.2,0.3,1.7,0.4c3.9-0.2,7.4-1.4,10.8-2.9c0.6-0.4,1.6-0.5,1.7-1.4 C108.9,33,108.4,33.2,108.1,33.2z M98.8,35c0.7,0,1.5-0.2,2.2-0.2C100.3,35,99.5,35.1,98.8,35z M101.3,34.7c0.1-0.1,0.3,0,0.4-0.1 C101.6,34.7,101.5,34.7,101.3,34.7z M99.6,35.8C98.8,36,97.7,36.1,97,36C97.9,36,98.8,35.8,99.6,35.8L99.6,35.8z M97.2,37.4 L97.2,37.4c1.6-0.3,3.1-0.6,4.6-1C100.4,37.1,98.7,37.2,97.2,37.4z M98,36.8c2.2-0.4,4.3-0.9,6.4-1.6C102.4,36.1,100.2,36.7,98,36.8 z M89.5,33.1l-0.4,0.4c-0.1-0.1,0-0.3,0.1-0.4c-0.3,0.1-0.5,0.5-0.8,0.6c-0.1-0.3,0.5-0.5,0.3-0.7l-1.3,1.1L87.3,34 c0.2-0.3,0.5-0.5,0.8-0.9l-1,0.6c-0.1-0.2,0.4-0.4,0.4-0.6c-0.3,0.2-0.6,0.4-0.8,0.4c0.2-0.3,0.6-0.4,0.7-0.6 c-0.1,0.1-0.3,0.2-0.5,0.1c0.1,0,0.1-0.1,0.2-0.2c-0.6,0.3-1.3,0.5-1.9,0.8C85,33.8,84.8,34,85,34.3c0.1,0.2,0.3,0.3,0.4,0.4 c1.5,0.2,2.8-0.4,3.9-1.3L89,33.6C89,33.6,89.4,33.4,89.5,33.1z M87.2,33L87.2,33L87.2,33z M82.2,32.3c-0.3,0.2-0.3-0.4-0.5,0 L81.6,32c-0.1,0.1-0.3,0.3-0.4,0.1c-0.2,0-0.3,0.3-0.4,0.4c-0.3-0.2-0.6,0.2-1,0.2c-0.2,0.4-0.8,0.3-1.2,0.4 c0.8-0.4,1.5-0.8,2.3-1.2l0.3-0.3c-0.3-0.4-0.8-0.1-1.1-0.1c0.2,0,0.5,0,0.7,0.1L80.7,32c-0.4-0.1-0.8,0-1.2,0.1 c0.3,0,0.7,0,0.8,0.2c-0.4,0.1-0.8,0-1.3-0.1l-1,0.4c-0.8,0.4-1.7,0.6-2.5,1c0.1,0.4,0.5,0.7,0.9,0.9c2.1,0.3,3.7-0.6,5.4-1.4 C82.2,32.8,82.3,32.6,82.2,32.3z M87.7,32.1c-0.1,0.1-0.1-0.1-0.2-0.2l-0.2,0.2l-0.1-0.2l-0.5,0.4c-0.1-0.2,0.2-0.3,0.2-0.5L86.6,32 l-0.1-0.2c-0.4,0.3-0.7,0.7-1.1,0.8c0.2-0.4,0.7-0.6,0.9-1c-0.4,0.3-0.8,0.7-1.3,0.7l0.7-0.6C85.6,31.9,85.3,32,85,32 c0.3-0.3,0.7-0.4,1-0.7c-0.6,0.4-1.3,0.6-1.9,1h-0.2l0.2-0.2c-0.3,0.2-0.8,0-1.1,0.4c-0.2,0.3-0.1,0.7,0.1,0.9 c1.1,0.5,2.3-0.1,3.3-0.4C86.9,32.7,87.6,32.5,87.7,32.1L87.7,32.1z M85.8,31.7c0.1-0.1,0.2-0.2,0.3-0.2L85.8,31.7z M85.8,30.4 c-0.2,0.1-0.4,0.1-0.6,0.3c-0.1-0.1,0.1-0.3,0-0.3l-0.5,0.4c-0.3-0.2,0.3-0.3,0.1-0.5c-0.1,0-0.2,0.3-0.3,0.1c0-0.1,0.2-0.2,0.1-0.2 c-0.3,0-0.5,0.4-0.8,0.3l0.3-0.3l-0.9,0.5l-0.1-0.1c0.2-0.2,0.5-0.4,0.7-0.6c0-0.1-0.1-0.1-0.1-0.2v0.1c-0.1,0.1-0.2-0.1-0.2-0.2 c-0.6,0.4-1.5,0.3-2,1c-0.3,0.4-0.3,0.9,0.2,1.2c0.9,0.3,1.8,0,2.6-0.3c0.6-0.3,1.5-0.4,1.7-1.2C86.1,30.4,85.9,30.6,85.8,30.4z M80.6,30.7l-0.1-0.2l-0.2,0.2c-0.1,0-0.1-0.2-0.2-0.2S80,30.6,80,30.7c-0.2,0.1-0.1-0.3-0.2-0.2l-0.4,0.7c-0.1-0.3,0.2-0.5,0.2-0.9 c-0.2,0.3-0.4,0.7-0.6,1c-0.1-0.3,0.3-0.5,0.2-0.8L78.9,31l-0.1-0.4c-0.2,0-0.2,0.3-0.2,0.4c-0.1,0-0.1,0-0.2-0.1L78,31.3l-0.1-0.1 c-0.4,0.2-0.8,0.5-1.2,0.4l1.5-0.9c0.4-0.4,1.3-0.6,1.2-1.2c-0.2,0-0.3,0.1-0.5,0.1l0.1,0.1l-0.5,0.1l0.4,0.2 c-0.6-0.2-0.8,0.3-1.3,0.4c0,0.1,0.4-0.1,0.3,0.1l-0.6,0.1c-1.4,0.6-2.8,1.5-4.2,2.3L73,33.2c0.2,0.5,0.8,0.4,1.3,0.4 c2.3-0.7,4.5-1.6,6.5-2.9v-0.2L80.6,30.7z"></path> <path class="st0" d="M85.5,35.9c-0.1-0.2,0.2-0.5,0.1-0.7c-0.2,0.1-0.2,0.3-0.4,0.4l-0.1-0.3l-0.6,0.6l-0.1-0.1 c0.1-0.1,0.3-0.3,0.2-0.4c-0.2,0.1-0.2,0.4-0.4,0.5v-0.3c-0.6,0.1-0.6,0.8-1,1c0-0.3,0.3-0.5,0.3-0.8c-0.4,0.2-0.5,0.6-0.8,0.9 c-0.1-0.2,0.3-0.4,0.2-0.6l-0.7,0.6c-0.1,0.1-0.2,0.3-0.3,0.1c0.2-0.1,0.2-0.3,0.4-0.5c-0.2-0.1-0.4,0.2-0.7,0.1 c1.1-0.5,2.3-0.9,3.4-1.4v-0.1c-0.1-0.2-0.3-0.1-0.5-0.1c0.1,0.4-0.5,0-0.6,0.2l0.1,0.1c-0.1,0.1-0.3,0-0.4,0.1l0.1,0.2l-0.9,0.1 c0.1,0.1,0.3,0,0.4,0.1l-1.1,0.1v0.1h0.1c-0.8,0.3-1.8,0.1-2.3,1c-0.1,0.3-0.3,0.7,0.2,0.8c1.7,0.3,3.2-0.3,4.6-1 c0.3-0.1,0.4-0.7,0.8-0.4c0.3-0.1,0.3-0.5,0.4-0.7L85.5,35.9z M90.6,34.9C90.6,34.9,90.7,34.9,90.6,34.9l-0.7,0.5 c-0.1-0.2,0.2-0.4,0.3-0.5l-0.7,0.6l-0.1-0.1c0.1-0.2,0.4-0.4,0.5-0.6l-1,0.8h-0.2c0.2-0.3,0.6-0.4,0.7-0.8 c-0.2,0.1-0.4,0.4-0.7,0.3c0.1-0.1,0.2-0.2,0.3-0.3c-0.2,0.1-0.3,0.2-0.5,0.2l0.4-0.5c-0.2,0.1-0.4,0.3-0.6,0.1 c0.1-0.1,0.3-0.2,0.4-0.3c-0.7,0.3-1.6,0.5-1.8,1.4c0.2,0.5,0.7,0.6,1.1,0.6c1.2-0.2,2.7-0.2,3.1-1.5C91,34.9,90.8,34.9,90.6,34.9z M84.5,33.9c-0.2,0.1-0.3,0.4-0.5,0.3c-0.1-0.2,0.2-0.2,0.1-0.4c-0.1,0.1-0.2,0.2-0.3,0.3V34c0-0.1,0.1-0.1,0-0.2 c-0.2,0-0.2,0.3-0.4,0.4c-0.1-0.1,0.1-0.3,0-0.4L83,34.4c-0.1-0.1,0-0.3,0-0.4l-0.3,0.3L82.6,34L82,34.6v-0.3 c-0.3,0.1-0.5,0.5-0.7,0.7c0-0.1,0-0.3,0.1-0.4c-0.4,0-0.9,0.4-1.3,0.4c0.9-0.5,2-0.9,2.9-1.5c-0.2-0.2-0.4-0.1-0.6-0.1l0.2,0.2 c-0.1,0.1-0.3,0-0.4,0.1l0.1,0.2c-0.3,0.1-0.6,0-0.9-0.1l-0.6,0.4c0.2,0,0.5-0.1,0.6,0.1c-0.2,0.3-0.8-0.1-1,0 c0.1,0.1,0.4,0,0.5,0.2c-0.3,0.4-0.8-0.2-1.2,0v0.1c0.3,0,0.6,0,0.7,0.2c-0.3,0.1-0.7,0-1-0.1l-1.1,0.2C78,35,78,35.3,78.1,35.6 c0.2,0.4,0.5,0.6,0.9,0.7c1.9,0.1,3.5-1,5.2-1.7C84.3,34.4,84.5,34.2,84.5,33.9z M111.2,33.5c-0.5-0.6-1.4-0.2-1.9,0.1 c0,1-1.3,0.8-1.4,1.7c-0.3,0.3-0.7,0.1-0.9,0c-3.8,1.6-7.8,2.8-12.1,2.8l-0.2,0.2l0.2,0.2c3.5,0.3,6.5-0.9,9.5-1.9 c0.5-0.3,1.1-0.6,1.7-0.7c-2.9,1.5-5.9,2.6-9.2,3c-1,0.2-1.7-0.4-2.5,0.2c-0.1,0.1-0.1,0.4,0.1,0.5c3.8,0.3,7.1-1,10.2-2.5 c0.3-0.2,0.7-0.5,1-0.4v0.1c-3,1.5-5.9,3-9.4,3.2c-0.8,0.2-2.4-0.5-2.6,0.8c1,0.8,2.4,0.1,3.5,0c3.2-1,6.3-2.1,9.1-4h0.3 c-0.6,0.4-1.3,0.9-1.9,1.3c-2.8,1.4-5.6,2.6-8.6,3.3c-0.8,0.3-2-0.1-2.5,0.8c0.1,0.5,0.6,0.4,1,0.5c4.5-0.5,8.3-2.6,11.8-5.3h0.2 c-0.9,1-2.1,1.6-3.2,2.3c-2.9,1.6-5.7,3.1-9.2,3.1c-0.6,0.4-1.5,0.3-2,0.9c-0.3,0.4,0.1,0.8,0.2,1.2c0.3,0,0.6,0.2,0.8,0l-0.1-0.1 c-0.2-0.2,0.2-0.3,0.2-0.5c-0.2-0.2-0.4,0.2-0.6-0.1c0-0.2,0.2-0.1,0.3-0.2l-0.1-0.2l0.3-0.2c-0.1,0-0.1-0.1-0.1-0.1 c0.4-0.3,0.4,0.3,0.6,0.4c1.1,0,2.2-0.4,3.3-0.7c3.6-1.1,6.7-3.5,9.9-5.7c0.1,0,0.1,0.1,0.1,0.2c-3.8,2.9-7.7,5.5-12.3,6.5 c-0.3,0.1-0.7,0.1-1,0.3c-0.2,0.2-0.2,0.4-0.2,0.6c0.3,0.1,0.7,0,1-0.1c5.1-1.5,9.5-4.8,13.8-8.1c0.2-0.1,0.4-0.4,0.7-0.3 c-2,1.6-4.1,3.1-6.1,4.7c-2.6,1.7-5.4,3-8.3,4l-0.3,0.3c-0.1,0.3,0,0.6,0.1,0.8c0.9,0.1,1.6-0.5,2.4-0.7c4.6-2.2,8.6-5.8,12.7-9.1 c0.4-0.2,0.8-0.4,1.2-0.3c0.2,0,0.3,0.4,0.5,0.1C111.4,35.4,112.1,34.3,111.2,33.5z M96.9,39.4c-0.2-0.1-0.6,0-0.8-0.1 c1-0.3,2.3-0.2,3.3-0.5C98.7,39.1,97.8,39.3,96.9,39.4z M94.5,40.6L94.5,40.6c1.2-0.2,2.4-0.5,3.6-0.6C97,40.4,95.8,40.6,94.5,40.6z M100,40.7c-1.8,0.7-3.6,1.5-5.6,1.5v-0.1C96.3,41.8,98.2,41.2,100,40.7L100,40.7z M103.7,38.8c-0.9,0.6-1.9,1-3,1.4v-0.1 C101.7,39.7,102.7,39.2,103.7,38.8L103.7,38.8z M100.5,41.5c-1.9,0.9-3.8,1.7-6,1.9v-0.1C96.6,43.1,98.5,42.2,100.5,41.5L100.5,41.5 z M100.7,43.1c-1.1,0.7-2.2,1.5-3.5,1.9C98.3,44.3,99.5,43.7,100.7,43.1L100.7,43.1z"></path> <path class="st0" d="M91.9,39.5l0.5-0.1c-0.2-0.1-0.4-0.1-0.6-0.1c0-0.3,0.2,0,0.4-0.1c-0.1-0.4,0.4-0.5,0.1-0.8 c0.6-0.3,1.3-0.4,1.7-0.9c-0.4,0.1-0.8,0.5-1.3,0.5c0.3-0.3,0.7-0.4,1-0.7C93.1,37.5,92.6,38,92,38v-0.1c0.6-0.3,1.2-0.6,1.7-1 c-0.7,0.2-1.3,0.7-1.9,0.8c0.4-0.3,1-0.6,1.3-0.8c-0.5,0.3-1,0.6-1.5,0.7c0.1-0.2,0.4-0.3,0.6-0.4c-0.7,0.1-1.2,0.6-1.9,0.5 c-0.1,0-0.2,0.1-0.2,0.2c0.3,0.4,0.7,0.6,1.1,0.5c0.3,0,0.6-0.2,0.8,0L91,39c-0.2,0.2-0.3,0.5-0.3,0.8c-0.5,0.1-0.9,0.2-1.2,0.7 c-0.2,0.3,0.1,0.5,0.2,0.7c0.3,0.1,0.5,0.3,0.8,0c0.1,0,0.1-0.1,0-0.2l0.3-0.3c-0.1,0-0.2,0-0.2-0.1l0.1-0.1c-0.1,0-0.3,0-0.3-0.2 c0.2-0.2,0.4-0.1,0.6-0.1l0,0c0.2-0.3,0.5,0.2,0.9,0.2c0.1-0.1,0.3-0.1,0.3-0.2c-0.1,0-0.2,0-0.2-0.1c0.2-0.2,0.5-0.2,0.7-0.3 C92.4,39.7,92.1,39.7,91.9,39.5z M94.3,36.9c-0.1,0.2,0,0.3,0.1,0.4c0.4,0.2,0.3-0.4,0.5-0.6C94.6,36.5,94.5,36.7,94.3,36.9z M87.6,37.2c-0.1-0.1,0-0.3,0-0.4l-0.5,0.5H87c0-0.1,0-0.2,0.1-0.2l-0.4,0.5C86.6,37.3,87,37,87,36.7c-0.3,0.2-0.3,0.6-0.6,0.9 c-0.1,0,0-0.2-0.1-0.2c0-0.2,0.4-0.4,0.2-0.5l0.4-0.4c-0.1-0.1-0.3-0.1-0.5-0.2l0.2,0.2l-0.5,0.1l0.1,0.1c-0.2,0.2-0.5,0.1-0.8,0.1 c0.1,0.3-0.5,0.2-0.7,0.3c0.1,0,0.2,0,0.2,0.1c-0.2,0.3-0.9-0.1-0.8,0.4c-1.1,0-1.9,0.6-2.9,0.6c-0.3,0.1-0.4,0.4-0.4,0.7 c0.2,0.3,0.4,0.3,0.7,0.4c2.4,0.2,4.6-0.9,6.5-2V37L87.6,37.2z M85.6,37.7c0-0.2,0.2-0.3,0.2-0.5c-0.1-0.2-0.3,0-0.4,0.1l-0.6,0.8 c-0.1-0.2,0.3-0.4,0.2-0.7c-0.4,0.1-0.6,0.5-1,0.8c-0.1-0.1,0.1-0.2,0.1-0.3c-0.4-0.2-0.6,0.5-1.1,0.3l-0.4,0.1 c0.6-0.4,1.6-0.6,2.4-1c0.4-0.1,0.7-0.4,1.2-0.5C86.1,37.1,85.8,37.4,85.6,37.7z M92.5,36.3c0.1-0.1,0.1-0.2,0.2-0.3 c-0.3,0.2-0.6,0.6-0.9,0.6c0.2-0.3,0.6-0.6,0.6-0.9l-0.8,0.6h-0.1l0.4-0.5c-0.5,0.3-1,0.8-1.6,0.9c0.4-0.3,0.8-0.6,1.2-0.9 c-0.6,0.4-1.2,0.8-1.8,0.9c0-0.1,0.2-0.2,0.3-0.2l-1.3,0.2l-0.1,0.1c0,0.4,0.3,0.5,0.5,0.7c1.4,0.1,2.6-0.5,3.7-1.1L92.5,36.3z M107.3,35.1c0.1,0,0.3-0.1,0.3-0.2C107.5,34.9,107.4,35,107.3,35.1z"></path> <path class="st0" d="M94.2,37.6l-1.6,1c-0.1,0.2,0,0.5,0.2,0.6c0.3,0.2,0.8,0,1.1-0.1c0.1-0.2,0.2-0.4,0-0.4l0.1-0.1 c-0.1,0-0.1-0.1-0.1-0.2c0.1-0.1,0.2-0.1,0.2-0.1c-0.2-0.4,0.4-0.3,0.5-0.5C94.5,37.7,94.4,37.7,94.2,37.6z M88.5,38 c0-0.1,0-0.2,0.1-0.2c-0.2,0-0.2,0.2-0.3,0.2l-0.1-0.1l-0.6,0.6c-0.2-0.1,0.1-0.2,0-0.3c-0.2,0.5-0.8,0.2-1.1,0.7 c-0.3-0.1-0.3,0.1-0.5,0.2c-0.1,0.2-0.3,0.2-0.4,0c-0.3,0.6-1.1,0.1-1.5,0.6L84,39.6c1.6-0.6,3-1.5,4.5-2.2v-0.1 c-0.1,0.1-0.3,0.1-0.4,0.1c-0.2,0.4-0.7,0.1-0.7,0.5c-0.5-0.1-0.7,0.4-1.2,0.4c-0.1,0.3-0.5,0.3-0.8,0.3c-0.1,0.3-0.6,0.1-0.6,0.4 c-0.8,0.1-1.5,0.4-2.4,0.4c-0.2,0.1-0.4,0.3-0.3,0.5c0.1,0.3,0.4,0.3,0.6,0.4c1-0.2,2.1-0.2,3-0.7c1.1-0.5,2.4-0.9,3.2-1.9 C88.8,37.8,88.7,38.2,88.5,38z"></path> <path class="st0" d="M88.8,40.3c-0.3-0.2-0.7,0.3-1,0.4c0,0.1,0.1,0.2,0.2,0.3c0.2,0,0.4,0.3,0.6,0.1C88.4,40.8,88.8,40.5,88.8,40.3 z M93.9,39.4c-0.7,0.1-1.3,0.5-1.7,1.1c-0.1,0.2,0.2,0.4,0.1,0.6c0.4,0.1,0.7,0.1,1,0c0-0.2-0.1,0-0.2-0.2c0.2-0.2,0-0.3,0.2-0.5 c-0.1-0.2,0.2-0.3,0.3-0.4l-0.1-0.1c0-0.2,0.3-0.1,0.4-0.2C94.1,39.6,94,39.5,93.9,39.4z M90.7,38.7c-0.5,0.5-1.1,0.9-1.7,1.3 c-0.2,0.1-0.1,0.4-0.1,0.5c0.3,0.2,0.4-0.3,0.7-0.4c0.1-0.2,0.6-0.2,0.4-0.4c0.1-0.1,0.2-0.2,0.3-0.2c0.2-0.3,0.4-0.6,0.7-0.8 C91,38.7,90.7,38.7,90.7,38.7z M90.1,38.8c0-0.1,0-0.1,0-0.2l-0.3,0.3l-0.1-0.2c-0.4,0.6-1.2,0.4-1.5,1.1L88,39.6 c-0.4,0-0.6,0.7-0.9,0.4c-0.4,0.4-1,0.2-1.4,0.7c-0.2-0.4-0.5,0.1-0.8,0.1c-0.2-0.1-0.4,0.2-0.6,0.1c1.8-0.7,3.6-1.3,5.1-2.4 c-0.2,0-0.7-0.1-0.4,0.2c-0.2,0.2-0.6,0-0.8,0.1v0.1c0.1,0,0.2,0,0.3,0c-0.1,0.5-0.7,0.2-1,0.3c0,0.2-0.3,0.2-0.4,0.2 c-0.1,0.3-0.4,0.2-0.7,0.3c0,0.4-0.5,0.2-0.7,0.3c-0.1,0.4-0.8,0.1-0.7,0.4c-0.7,0.1-1.4,0.3-2.1,0.3c-0.1,0.1-0.3,0.2-0.2,0.3 c0.2,0.4,0.7,0.4,1.1,0.4c2.5-0.2,4.6-1.2,6.6-2.8C90.2,38.7,90.2,39,90.1,38.8z M90.1,38.6L90.1,38.6L90.1,38.6z"></path> <path class="st0" d="M84.9,42.3c-0.1,0-0.2-0.1-0.2-0.1l0.2-0.5c-0.2-0.2-0.3,0.1-0.4,0c-0.2,0-0.3,0.3-0.3,0.5 c0.1,0.2,0.3,0.4,0.6,0.3C84.8,42.4,84.9,42.4,84.9,42.3z M82.5,41.6L82.5,41.6c-0.5-0.1-0.4,0.6-0.7,0.4c-0.1,0.1-0.2,0.2-0.1,0.3 c-0.1,0-0.1,0.1-0.2,0.1c-0.3,0-0.2,0.3-0.4,0.5H81c-0.3,0.1-0.3,0.4-0.3,0.6c-0.1,0-0.1-0.1-0.1-0.1c-0.4,0.1-0.1,0.6-0.4,0.7 L80,43.9c-0.3,0.1-0.1,0.5-0.3,0.6l-0.2-0.1c-0.3,0.2-0.2,0.6-0.3,0.8c-0.2,0,0-0.2-0.2-0.2c-0.3,0.2-0.1,0.6-0.3,0.8l-0.1-0.3 c-0.3,0.2-0.2,0.6-0.4,0.8L78.1,46c-0.2,0.2-0.2,0.5-0.3,0.8l-0.1-0.3c-0.5,0.1-0.2,0.7-0.5,0.9L77.1,47c-0.2,0.3-0.2,0.8-0.5,1.1 c0-0.2,0.1-0.4,0.1-0.6c-0.3,0-0.3,0.3-0.4,0.5c-0.4,0.1-0.4,0.5-0.7,0.6c0.2,0.4,0.5,0.7,0.8,1C78.8,47.1,80.7,44.4,82.5,41.6 L82.5,41.6z M119.5,42.3c-1.8,1.5-2.2,3.6-3.6,5.2c1.3-1.2,2-2.7,2.9-4.1h0.1c-0.5,1.3-1.2,2.6-2.3,3.8c2.5-1.3,2.4-4.1,4.2-5.8 C120.3,41.7,119.9,42,119.5,42.3z M86.3,41.6c-0.3-0.4-0.8-0.1-1.1,0.1c0,0.2,0.2,0.4,0.3,0.5c0.3,0,0.3-0.5,0.7-0.4l-0.1-0.2 L86.3,41.6z M82.2,41.2l-1.3,1c-0.3,0.4-0.9,0.5-1.1,1c-0.4-0.2-0.3,0.6-0.8,0.5c-0.1,0.1-0.2,0.2-0.2,0.3c-0.4,0.1-0.6,0.5-0.9,0.7 c-0.1,0.1,0,0.5-0.3,0.3l-0.3,0.4l-0.1-0.1c-0.2,0.1-0.2,0.3-0.3,0.4c-0.3-0.2-0.3,0.4-0.6,0.3c-0.3,0.2-0.3,0.5-0.4,0.7l-0.1-0.2 c-0.2,0.4-0.7,0.3-0.7,0.8L75,47.2c-0.2,0.1-0.2,0.4-0.4,0.4l0.6,0.7C77.7,46,79.7,43.5,82.2,41.2L82.2,41.2z M89.6,41.6L89.6,41.6 c-0.2,0-0.3,0-0.3-0.1c0,0,0-0.1,0.1,0l-0.1-0.2l0.2-0.1c-0.1-0.7-0.7-0.1-1,0.2s0,0.7,0.3,0.9c0.3,0.1,0.5,0,0.6-0.3 C89.2,41.7,89.6,41.7,89.6,41.6z M87.9,41.3c-0.3-0.1-0.2-0.4-0.5-0.5c-0.3,0.2-0.9,0.2-0.8,0.7c0.1,0.2,0.3,0.3,0.5,0.5 c0.4,0.2,0.2-0.5,0.6-0.4l-0.1-0.1C87.7,41.4,87.8,41.3,87.9,41.3z M73.6,46.6c0,0.1,0.1,0.2,0.2,0.3c0.4-0.1,0.2,0.6,0.6,0.4 c2.7-1.9,5-4.2,7.6-6.1l0.3-0.4C79.3,42.5,76.5,44.7,73.6,46.6z M125.7,40.8L125.7,40.8l-3.3,1.8c-1.9,0.9-3.1,3.1-4.8,4.3 C120.7,45.9,123.4,43.5,125.7,40.8L125.7,40.8z M120.2,45c0.9-0.9,1.9-1.7,3-2.3C122.3,43.5,121.2,44.3,120.2,45z M95.4,46.7 c-0.3-0.1-0.7,0-1.1,0.1c-0.1-0.2-0.5-0.3-0.5-0.5c0.3-1-0.6,0.1-0.8-0.4c0-0.2,0.1-0.2,0.2-0.3v-0.1c-0.1-0.2,0.1-0.1,0.1-0.3 c-0.4-0.1-0.7,0.2-0.9,0.5c-0.1,0.3,0.2,0.6,0.2,0.8c-0.2,0-0.4,0.1-0.5-0.1l0.1-0.1c-0.3-0.3,0.1-0.5,0.1-0.8L92,45.4 c0.1-0.1,0.2-0.2,0.3-0.2L92,45.1l0.1-0.2c-0.1,0-0.4,0.1-0.4-0.1c0-0.1,0.1-0.1,0.2-0.1c0.1-1.3-0.8,0.4-1.3,0 c-0.1-0.1,0.1-0.2,0.1-0.2l-0.2-0.1c0.1-0.1,0.2-0.2,0.3-0.2l-0.5-0.1c0-0.2,0.3-0.1,0.3-0.2c-0.1,0-0.2,0-0.3-0.1v-0.1 c0.4-0.1,0.7,0.1,0.8,0.3l0.5-0.1c0.4-0.2-0.2-0.7,0.3-0.7c-0.1-0.1-0.2,0-0.2-0.1s0-0.1,0.1-0.1l-0.2-0.2l0.3-0.3l0.3,0.4 c0.3,0.1,0.7,0,1-0.2h-0.1c-0.1,0-0.1-0.1-0.1-0.2h-0.1h-0.1c-0.1,0-0.1-0.1-0.1-0.2c0-0.2,0.2-0.2,0.3-0.3c0-0.1-0.2-0.1-0.1-0.2 c0.6,0.1,0.2-0.7,0.7-0.4l-0.1-0.1c-0.3-0.1-0.4,0.1-0.6,0.2c-0.3,0.2-0.6,0.7-1.1,0.5c0-0.1,0.2-0.2,0.2-0.3c-0.1,0-0.2,0-0.3-0.1 c0.1-0.2,0.4-0.1,0.6-0.2c-0.2,0-0.4-0.1-0.6-0.2c0.2-0.1,0.4,0,0.6-0.1L92,40.9l0.2-0.2L92,40.5c-0.5,0.1-0.9,0.3-1.3,0.7 c-0.3,0.2,0,0.6-0.1,0.8c-0.5,0.1-0.1-0.3-0.3-0.5c-0.1,0-0.2,0-0.2,0.1c-0.3,0.2-0.8,0.5-0.8,1c0.2,0.3,0.4,0.4,0.7,0.6 c0.2,0.2,0.6,0,0.7,0.2c0,0.2-0.4,0.1-0.6,0.2c-0.3,0.3-0.8,0.5-0.7,1c-0.2,0-0.1-0.3-0.3-0.2c-0.2,0.1-0.4,0.4-0.4,0.7 c0.2,0.4,0.6,0.6,1,0.6c0.1-0.1,0.2-0.2,0.2-0.4l-0.3-0.1c0-0.1,0-0.1,0.1-0.2c0.4-0.1,0.9,0,1.4-0.1c0,0.3,0.4,0.4,0.4,0.8 c0.2-0.1,0.4,0.1,0.5,0.1c-0.1,0.3-0.4,0.3-0.6,0.5s0.1,0.4,0.2,0.6c-0.2,0.2-0.3-0.2-0.5-0.2c-0.4,0.2-0.7-0.3-1-0.1 c0.1-0.1-0.1-0.2,0.1-0.3c0.3,0,0.6,0.2,1,0.2c0.2-0.1,0.1-0.4,0.3-0.4L90.8,46l0.2-0.2h-0.2c-0.2-0.1,0.1-0.2,0.1-0.3 c-0.3-0.1,0.2-0.3-0.1-0.4c-0.3,0.3-0.9,0.4-1,0.9c-0.3,0.1-0.8,0.4-0.9,0.8c0,0.3,0.4,0.1,0.5,0.4c-0.2,0.2-0.4-0.2-0.6,0.1 l0.1,0.1c-0.1,0.2-0.6,0.4-0.4,0.7l0.9-0.1c1-0.4,2.1-0.4,3.2-0.6c0.4,0.2,0.3,0.8,0.7,1.1l0.2-0.1c0.1,0.5,0.1,1,0.6,1.4l0.1-2.1 l0.1-0.1c0.2,0.2,0.2,0.5,0.4,0.7l0.2-0.3c0.2,0.5,0,1.2,0.3,1.6C95.7,48.7,95.5,47.6,95.4,46.7z M90.5,43.2 c-0.1-0.2,0.2-0.2,0.1-0.3h-0.2l0.3-0.2c-0.1-0.1-0.3,0-0.4-0.1c0.1-0.2,0.4-0.1,0.4-0.2c-0.1-0.1-0.2,0-0.3,0c0-0.2,0.3,0,0.4-0.2 l0.9,0.1c0,0.2-0.3,0.2-0.4,0.2C90.9,42.7,90.9,43.2,90.5,43.2z M92.6,46.7c0.1-0.1,0.2-0.3,0.4-0.2c0.1,0.2,0,0.3,0.1,0.5 C92.7,47.1,92.8,46.7,92.6,46.7z"></path> <path class="st0" d="M83.8,42c-0.1,0-0.1-0.1-0.2-0.1c-0.1,0.1-0.3,0.2-0.2,0.4h0.2C83.8,42.2,83.9,42.1,83.8,42z M83.1,41.8 c-0.5,0.1-0.5,0.7-0.9,0.9c-0.1,0.1,0,0.6-0.3,0.4c-0.2,0.3-0.4,0.5-0.5,0.9c-0.5,0-0.2,0.6-0.4,0.8l-0.1-0.2 c-0.3,0.2-0.2,0.6-0.3,1l-0.1-0.3c-0.2,0.1-0.2,0.4-0.2,0.6L80,45.8l-0.3,0.3c0,0.1,0.1,0.3-0.1,0.3c-0.5-0.1-0.1,0.5-0.4,0.8 L79,46.9c-0.3,0.2-0.1,0.7-0.4,0.9l-0.1-0.3c-0.4,0.2-0.3,0.7-0.5,1l-0.1-0.2c-0.3,0.1,0,0.5-0.2,0.6l-0.2-0.2 c-0.2,0.2-0.3,0.4-0.4,0.6L77,49.2c-0.1,0.3-0.9,0.5-0.4,0.9c0.5,0.2,1,0.1,1.4-0.3C80.3,47.4,81.5,44.5,83.1,41.8L83.1,41.8z M88.3,42.5v-0.3c-0.3-0.1,0.1-0.4-0.3-0.5c-0.3,0.2-0.6,0.4-0.7,0.7c-0.1,0.2,0.1,0.5,0.2,0.7c-0.4-0.3-0.8,0.1-1.3,0 c0.3,0,0.2-0.6,0.6-0.4l-0.2-0.2c0.3,0,0.2-0.3,0.5-0.4H87c-0.4-0.1-1-0.1-1.3,0.3c-0.1,0.3,0.1,0.6,0.3,0.7 c0.1,0.2-0.2,0.3-0.3,0.4c0,0.2,0,0.4,0.2,0.6c0.2,0,0.5,0.2,0.7,0c0.1-0.1-0.1-0.1-0.1-0.2l0.2-0.2c-0.1,0-0.2,0-0.2-0.1 c0.1,0,0.2-0.1,0.4-0.1l-0.2-0.1c0.1-0.3,0.4,0,0.7-0.1c0.1-0.4,0.6,0,0.8-0.4c0.2-0.2,0-0.3-0.1-0.4C88.1,42.5,88.2,42.5,88.3,42.5 z"></path> <path class="st0" d="M88.3,44.4l0.1-0.2c-0.1,0-0.2,0-0.2-0.1c-0.1-0.1,0.1-0.1,0.1-0.2H88l0.2-0.2c0-0.1-0.1-0.2-0.2-0.2 c-0.3,0.2-0.8,0.4-0.8,0.9c0.3,0.4,0.9,0.4,1.3,0.4C88.4,44.6,88.6,44.5,88.3,44.4z M62.2,45.9v-0.2c0.5,0.5,0.9,1.1,1.3,1.7 c0.7,0.7,1.3,1.7,2.3,2l-0.4-0.5c-1.1-2.1-2.9-4.4-5.1-5.5h-0.1c1.6,1.9,2.2,4.6,4.7,5.7C63.8,48.2,62.9,47.1,62.2,45.9z M62.6,48.2 c-1.8-2.2-4.1-3.9-6.6-4.8c-0.3-0.1-0.5-0.3-0.8-0.2c2.3,2.7,5.1,4.9,8.4,5.8L62.6,48.2z M61.3,47.7C60,46.8,58.8,46,57.7,45 c1.3,0.7,2.5,1.8,3.8,2.7H61.3z M114.1,45.1c-1.2,2.1-2.8,4.6-5.2,5.4c1.8-0.6,3.5-1.4,5-2.8c1.5-1.4,1.5-3.3,3-4.7 C115.8,43.4,114.9,44.1,114.1,45.1z M112.6,48.1c0.8-1,1.3-2.1,2.1-3.1h0.1C114.2,46.1,113.5,47.3,112.6,48.1z M108.1,50.7 c0.3-0.1,0.5-0.1,0.7-0.2C108.6,50.6,108.4,50.6,108.1,50.7z M89.5,43.4c-0.1-0.2-0.3-0.2-0.4-0.4c0,0,0.1-0.1,0.1,0 c0-0.2,0-0.4-0.1-0.4c-0.4,0.2-0.8,0.6-0.6,1.1c0.2,0.2,0.6,0.6,1,0.5C88.7,43.7,90,43.9,89.5,43.4z M85.4,49 c-0.3,0.3-0.5,0.6-0.8,0.8c-0.1-0.3,0.3-0.5,0.3-0.7c-0.3-0.1-0.4,0.3-0.6,0.2c0-0.1,0-0.1,0.1-0.2L84.3,49 c-0.2-0.4-0.4,0.2-0.6,0.2c0-0.2,0.3-0.5,0.5-0.7c0.1-0.2,0-0.4,0.1-0.6c-0.3-0.1-0.5,0.2-0.6-0.1s0.1-0.5,0.2-0.7l0.1,0.1 c0,0.1-0.3,0.2-0.2,0.4c0.5,0.2,1,0,1.4-0.2c0.2-0.3-0.3-0.5,0.2-0.7l-0.1-0.1c-0.5,0.1-0.6-0.2-1-0.1c0-0.1,0-0.1,0.1-0.1L84,46.3 l0.1-0.2c0-0.6-0.8-0.3-1.2-0.4c0-0.2,0.2-0.1,0.3-0.1l-0.3-0.3c-0.4,0.1-0.7,0.3-1,0.3c0.3-0.1,0.6-0.7,1.1-0.4 c0.1,0,0.2-0.1,0.2-0.3c-0.2-0.2,0.2-0.2,0.2-0.3h-0.2c-0.1,0-0.2,0-0.2-0.1c0.4-0.2,0.8,0,1.3,0c-0.2,0.3-0.7,0.3-0.9,0.7 c-0.1,0.2,0.1,0.4,0.3,0.5c0.2,0.1,0.5,0,0.6-0.1l-0.1-0.2c0.1-0.2,0.3,0,0.3-0.1c-0.2,0-0.3,0-0.4-0.1l0.2-0.2 c-0.4-0.2,0.2-0.3,0.1-0.5c0.1,0.2,0.2,0.5,0.4,0.6c0.3,0.1,0.8,0.1,0.9-0.3c-0.1-0.1,0-0.2,0.1-0.2l-0.3-0.2c0.1-0.1,0.2-0.4,0-0.4 c0-0.2-0.1-0.3,0.1-0.5L85.3,43l0.1-0.2c-0.2-0.2,0.2-0.2,0.1-0.4c-0.2-0.1-0.4,0-0.7,0.1c-0.2,0.2-0.6,0.3-0.5,0.6 c-0.1,0.1-0.4,0.1-0.6,0.1c0,0,0-0.1,0.1-0.1c-0.2-0.1-0.4-0.1-0.4-0.2c0.1-0.1,0.2,0,0.3-0.1l-0.1-0.1l0.5-0.1 c-0.2-0.1-0.3-0.4-0.6-0.3c-0.4,0-0.6,0.5-0.8,0.8c0.1,0.1,0.3,0.2,0.4,0.1c0.2,0.2-0.1,0.4-0.1,0.6l-0.1-0.1 c-0.4-0.1-0.8,0.1-1,0.4c-0.3,0.3-0.1,0.6,0.1,0.8c-0.1,0.1-0.3,0-0.4-0.1c-0.4,0.6-0.7,1.2-1.1,1.8c-0.1,0.2,0.1,0.2,0.1,0.3 c-0.1,0.1-0.2,0-0.3,0.1c-0.6,0.7-0.9,1.4-1.4,2.1c0.2,0,0.4-0.1,0.6-0.1c-0.3,0.3-0.8,0.3-1.2,0.6l0.2,0.2c1.2,0,2.2-0.9,3.2-1.6 h0.2c-0.5,0.6-1.2,1.1-1.9,1.5c0.7,0.3,1.2-0.3,1.7-0.6l0.1,0.1c0,0.2-0.2,0.3-0.3,0.4c0.1,0.2,0.4,0.1,0.6,0.1 c0.4-0.2,0.3-0.6,0.6-0.8c0,0.5-0.4,0.9-0.3,1.5l0.1-0.2c0.1,0.5-0.4,0.7-0.7,1c-0.1,0.2-0.3,0.6-0.1,0.8c0.3,0,0.2-0.4,0.4-0.5 l0.2,0.3c0.3-0.4,0.9-0.7,1-1.3c0.1,0,0.1,0.1,0.1,0.1c0.9-0.4,1.6-1.2,2.1-2C85.7,48.7,85.5,48.9,85.4,49z M84.7,43.7 c0-0.2-0.4-0.1-0.3-0.4l0.9,0.4c-0.2,0.3-0.6,0-0.9,0.1L84.7,43.7z M82.6,46.7l0.1-0.2l-0.5-0.1c0.3-0.1,0.6,0,0.9-0.3 c-0.1,0.1-0.2,0.4,0,0.5c0.2,0.3,0.5,0.2,0.7,0.3C83.5,47.1,83.1,46.7,82.6,46.7z M82.6,51.1c0.3-0.6,0.9-1,1.4-1.4 C83.9,50.2,83,50.5,82.6,51.1z"></path> <path class="st0" d="M86.9,44.5c-0.4-0.1-0.9,0.1-1.2,0.5c-0.1,0.2,0,0.5,0.2,0.6c0.4,0.1,0.7,0.7,1.1,0.4l-0.3-0.4l0.2-0.1 c-0.2,0,0-0.3,0.1-0.3h-0.1c-0.1-0.4,0.7,0,0.6-0.4C87.3,44.8,87,44.7,86.9,44.5z M69.3,49.9c-1.2-2.3-3.2-4.6-5.7-5.5h-0.1 c2.5,2.7,4.3,7.2,8.6,7.2C71.1,51.5,70,51,69.3,49.9z M69.4,50.6c-1.7-1.1-2.6-3-3.8-4.5c1.5,1.3,2.2,3,3.8,4.3V50.6z M106.6,50.9 c0.7-0.1,1.2-0.6,1.8-0.8c2.6-1.5,2.9-4.5,4.8-6.5C110,45,108.8,48.5,106.6,50.9z M108.7,49.4c-0.3,0.2-0.5,0.6-0.8,0.6 c0.5-0.7,1.1-1.3,1.6-2l1.8-2.6C110.7,46.9,109.7,48.1,108.7,49.4z"></path> <path class="st0" d="M107.1,46.4c-2.6,1.6-3.4,5.1-6.4,5.8c0,0.1,0,0.2,0,0.3c0.9-0.2,1.8-0.6,2.6-1c2.7-1.1,3.9-4.1,5.6-6.1l0,0 v-0.1C108.3,45.6,107.7,45.9,107.1,46.4z M106.6,47.6c-1.4,1.5-2.6,3.4-4.5,4.2C103.7,50.8,105.2,48.8,106.6,47.6L106.6,47.6z M85.6,46.2c0-0.1,0.1,0,0.2-0.1L85.4,46c0-0.1,0.1-0.1,0.1-0.2c-0.1,0-0.2,0-0.2,0c0-0.1,0-0.2,0.1-0.2l-0.2-0.2l0.2-0.3 c-0.4,0-0.7,0.2-1,0.5c-0.1,0.2,0,0.5,0.2,0.6c0.4,0.1,0.9,0.4,1.2,0.1C85.7,46.3,85.5,46.3,85.6,46.2z M88.3,45.1 c-0.4,0-0.8,0.1-1.1,0.5c-0.2,0.2-0.1,0.4,0.1,0.6c0.2,0.1,0.5,0.3,0.6,0l-0.1-0.1c0-0.2-0.2-0.5,0.1-0.6 C87.8,45.1,88.3,45.3,88.3,45.1z"></path> <path class="st0" d="M96.4,47l-0.2-0.6c-0.3,0.2,0.2,0.7-0.1,1.1c-0.2-0.3-0.2-0.7-0.3-1c-0.1,0-0.1,0.1-0.2,0.1 c0.2,0.6,0,1.4,0.6,1.8C96.4,48,96.4,47.5,96.4,47z M86.9,46.7C86.9,46.7,87,46.7,86.9,46.7l-0.4-0.1c0.1-0.1,0.2-0.1,0.2-0.1 c-0.2,0-0.4-0.3-0.7-0.1c-0.2,0.2-1,0.6-0.5,1c0.6,0.1,1.1-0.1,1.5-0.5L86.9,46.7z M97.4,48.7c0.2-0.9-0.2-1.8-0.4-2.7 c-0.3,0-0.5,0.2-0.6,0.3c0.4,0.8,0.2,1.9,0.8,2.7c0-0.9-0.4-1.7-0.4-2.6c0.2,0.2,0.2,0.5,0.3,0.7C97.1,47.7,97.2,48.3,97.4,48.7z M117.4,47.4c-1.6,0.5-3.3,1-4.8,1.7c0.8-0.3,1.6-0.4,2.4-0.6c3.5,0.1,6.9-0.2,9.4-2.6C122.2,46.9,119.6,46.6,117.4,47.4z M116.1,48.1c1.6-0.5,3.4-0.5,5.1-0.9c-0.4,0.4-1,0.3-1.5,0.4L116.1,48.1z M97.2,45.9L97.2,45.9c0.4,0.8,0.3,1.8,0.9,2.3 C98,47.4,97.8,46.5,97.2,45.9z M79.6,52.6c-3.4-1.2-4.4-5.4-7.7-6.8c1,1.1,1.8,2.3,2.6,3.5c1.6,2.7,4.4,3.5,7.1,4l0.1-0.1 C81,52.9,80.3,52.9,79.6,52.6z M76.2,50.8c-0.9-1-1.7-2.1-2.4-3.2c1.4,1.3,2.1,3,3.7,4.1C77,51.7,76.6,51.1,76.2,50.8z M69.7,46.9 c-0.1-0.1-0.3-0.2-0.1-0.3c1.5,1.2,2.4,2.7,3.7,4.1c0.5,0.5,1.1,1,1.6,1.2l-0.7-0.6c-1.7-2.2-3.6-5.1-6.4-5.8c0.9,0.9,1.9,1.9,2.6,3 v0.2c-0.3,0-0.6,0.2-0.9,0.3c0,0.2,0.3,0.2,0.5,0.3c0.3-0.1,0.9,0.3,0.9-0.2c0.8,1,1.8,2.3,3.1,2.5C72.2,50.4,71.2,48.5,69.7,46.9z M89.3,46c-0.6,0.2-0.6-0.4-0.9-0.7l-0.3,0.4c-0.2,0.3,0.1,0.3,0.2,0.5c-0.1,0.2-0.2,0.1-0.3,0.2c-0.3,0.2-0.9,0.4-0.7,0.9 c0.5,0.3,1.1-0.1,1.5-0.3c0-0.4-0.3-0.2-0.5-0.3c0-0.1,0.2-0.1,0.2-0.2c0-0.1-0.2-0.1-0.2-0.2C88.7,46.4,89.1,46.4,89.3,46z"></path> <path class="st0" d="M57.3,48.9L57.3,48.9c0.5,0.4,1.1,0.7,1.7,1c2.9,1.4,6.1-0.4,9.1,0.6C64.9,49,60.9,49.5,57.3,48.9z M59.9,49.7 L59.9,49.7c1.4,0.3,2.9-0.2,4.3,0.1C62.7,49.8,61.3,50,59.9,49.7z M100.1,52.5c-0.1-0.3,0.3-0.1,0.2-0.3c-0.1-0.2-0.3-0.1-0.4-0.2 c-0.1-0.2,0.2-0.1,0.2-0.3c0-0.3-0.5-0.2-0.3-0.5c-0.1-0.2-0.3-0.1-0.4-0.1c-0.2-0.3-0.6-0.4-0.5-0.9c-0.1-0.5-0.2-1-0.5-1.4 c0.1,0.3,0.3,0.6,0.1,0.9l-0.1-0.2c-0.3,1.3,1,1.9,1.2,2.9c0.2,0.2,0,0.7,0.4,0.7c0.2,0,0.4-0.3,0.4-0.5 C100.3,52.6,100.2,52.6,100.1,52.5z M96.4,48.7c-0.2,0.2-0.2,0.5-0.2,0.8c-0.2-0.2,0-0.7-0.2-0.9l-0.1,0.7c0,0.5,0.1,1,0.3,1.3 C96.7,50.1,96.2,49.3,96.4,48.7z M98,48.5L98,48.5l0.1,1.6L98,50.2c-0.2-0.3-0.1-1-0.3-1.3c-0.1,0.5-0.1,0.9,0,1.4 c0.1,0.2,0.4,0.3,0.2,0.6c-0.4-0.2-0.5-0.8-0.7-1.3c-0.1,0-0.2,0.2-0.3,0.2L96.7,49c0,0-0.1,0-0.1,0.1c0,0.7,0,1.7,0.7,2.1 c0.3-0.1,0.8-0.1,1-0.5C98.1,49.9,98.3,49.1,98,48.5z M73.8,48.7L73.5,49l-0.1-0.5l-0.3,0.6L73,48.8c-0.6,0.1,0,0.6,0.1,0.9 c0.4,0.1,0.7-0.2,1-0.3C74.3,49.1,73.9,48.9,73.8,48.7z M95.9,51.5c-0.2,0,0,0.3-0.2,0.2c0-0.1-0.3-0.2-0.2-0.4 c0.6-0.4,0.1-1.3,0.1-2c-0.4,0.3,0,0.8-0.2,1.3c-0.3-0.3,0-0.9-0.5-1c0-0.4,0-0.8-0.2-1.1l-0.1,1.1c-0.2-0.3-0.1-0.9-0.2-1.2l-0.1,1 c0.2,0.6,0,1.3,0.5,1.7c0.2-0.1,0.1-0.4,0.3-0.6c0.7,0.4,0.1,1.2,0.7,1.7c0.1,0.1,0.2,0.1,0.3-0.1C96,52.1,96,51.7,95.9,51.5z M87.9,48.3C87.8,48.3,87.8,48.3,87.9,48.3c-0.1-0.2-0.1-0.2-0.1-0.2l-0.4,0.2c-0.2-0.1,0.3-0.3,0.1-0.3c-0.9,0.1-1.1,1.1-1.7,1.6 c-0.1-0.4,0.4-0.6,0.4-1c-0.4,0.6-1.1,1.1-1.1,1.7c0.7-0.3,1.2-1.1,1.6-1.7c0.2,0,0.3,0.2,0.4,0.3c0.6,0.1,0.9-0.8,1.2-1.2 L87.9,48.3z M87.5,47.7c-0.3,0.3-0.4-0.2-0.6-0.3c-0.3,0.2-0.8,0.2-0.8,0.6c-0.2-0.3-0.3,0.2-0.5,0.2L85.5,48 c-0.4,0-0.6,0.5-0.8,0.7c-0.1-0.5,0.6-0.7,0.8-1c-0.4-0.1-0.8,0.3-1,0.6c0,0.2-0.2,0.4,0,0.6c0.6,0,1.1-0.5,1.7-0.7 c0.6,0.1,1.1-0.2,1.6-0.4C87.7,47.7,87.5,47.8,87.5,47.7z M73.1,47.7c-0.2-0.1-0.1,0.2-0.2,0.3c-0.1-0.2,0-0.4,0-0.5 c-0.4-0.6-0.9,0.2-1.3,0.4l0.8,0.9c0.3-0.2,0.7-0.3,0.9-0.7L73.1,47.7z"></path> <path class="st0" d="M109.5,53.6l-2.5-0.9c-1.6-0.3-3.5-0.7-5.1-0.2l1,0.2c2.9,1,5.9,2.1,9.1,1.3C111.2,53.8,110.3,53.8,109.5,53.6z M103.3,52.5c2.3,0.2,4.2,1.1,6.5,1.4C107.4,53.8,105.4,52.9,103.3,52.5z M82.7,52.3c-0.1-0.2-0.3,0-0.4-0.1c-0.5,0.4-0.4,1-0.4,1.5 c0.1,0.2,0.2,0.3,0.4,0.3c0.2-0.2,0-0.3,0-0.5c0.2-0.1,0-0.4,0.2-0.5C82.2,52.7,82.8,52.6,82.7,52.3z M83.4,52.1 c-0.2,0.1-0.4,0.2-0.4,0.3L82.6,54c0.1,0.1,0.2,0.3,0.4,0.3c0.3-0.1,0.1-0.4,0-0.6c0.1-0.1,0.1-0.1,0.2-0.1 c-0.4-0.5,0.5-0.3,0.2-0.8c0.3-0.1,0.2-0.5,0.5-0.6C83.8,52,83.6,52.1,83.4,52.1z M72.6,52.1c-2.5,0-4.6,1.1-7.1,1.3v0.1l1.8,0.3 c2.5,0.5,4.9-0.6,7.3-1.1l3.1-0.1C76.1,52.4,74.5,52,72.6,52.1z M67.9,53.5c2.2-0.3,4.2-1,6.5-1.1C72.2,52.7,70,53.4,67.9,53.5z M98.6,53.2c-0.1-0.1-0.2-0.2-0.4-0.2l0.2-0.4c0-0.1-0.3-0.2-0.2-0.4c0.2-0.2-0.3-0.2-0.1-0.4c-0.1-0.2-0.4-0.1-0.3-0.4 c-0.4-0.1-0.6,0.3-0.9,0.5c-0.1,0.3,0,0.6,0.1,0.8c0.3,0.1,0.2-0.2,0.3-0.3c0.2,0.3,0.5,0.6,0.6,1c-0.1,0.2-0.2,0-0.3,0 c0,0.1-0.1,0.1-0.1,0.2c0.1,0.3,0.4,0.3,0.7,0.2C98.4,53.7,98.7,53.5,98.6,53.2z M95,51.1c-0.2,0.2-0.2,0.5,0.1,0.7 C95.2,51.6,95.2,51.3,95,51.1z M85.1,52.2c0,0.2,0.3,0.4,0.3,0.5c0.4-0.4,0.7-1,1-1.6C86,51.4,85.3,51.6,85.1,52.2z M99.4,52.9 c-0.3-0.1,0.1-0.5-0.3-0.6c0.1-0.3-0.4-0.5-0.2-0.7c-0.3-0.1-0.1-0.4-0.3-0.5c-0.1,0.1-0.3,0.1-0.3,0.3c0.4,0.5,0.4,1.2,0.6,1.8 l0.2,0.2c0.1,0,0.3,0,0.4-0.1C99.4,53.1,99.6,53,99.4,52.9z M114.9,51.9c-2.5-0.9-5.2-1.2-7.9-0.8l-0.1,0.1c2.2,0,4.2,0.4,6.2,0.7 l0.2,0.1c-3.2-0.1-6.6-1.3-9.7-0.2c1.4-0.3,3-0.3,4.4-0.1c2.4,0.7,5.5,1.3,7.8,0.2C115.6,51.9,115.2,51.9,114.9,51.9z M96.5,50.8 c-0.2,0.1,0,0.4-0.2,0.4c0-0.2-0.2-0.3-0.3-0.2v0.1c0.1,0.4,0.1,0.8,0.5,1c0.1,0,0.1-0.1,0.1-0.2C96.7,51.6,97,51.1,96.5,50.8z M64.3,51.6c1.4-0.2,2.8-0.5,4.1-0.7c-2.4-0.7-5,0.4-7.6,0.3l0.8,0.4c2.5,1.2,5.3,0.1,7.8-0.3C67.6,51,66,52,64.3,51.6z M85.2,51.1 c0-0.1,0.1-0.3,0.1-0.4c-0.4,0.4-0.6,0.8-0.8,1.3c0.1,0.1,0.2,0.2,0.2,0.2C85,51.9,85.3,51.6,85.2,51.1L85.2,51.1z M84.7,50.6 l-0.6,0.7c-0.1-0.1,0.1-0.3,0-0.3c-0.4,0.1-0.7,0.5-1.1,0.8l0.1,0.1c0.4-0.2,0.9,0,1.2,0.1L84.7,50.6L84.7,50.6z M74.5,49.6 c-0.2-0.1-0.3,0.2-0.3,0.2c0.1,0.2,0.4,0.3,0.7,0.3C74.7,50,74.7,49.7,74.5,49.6z M112.2,49.6c2-0.1,3.7,0.5,5.7,0.4l0.1,0.1 c-2.5,0.3-4.7-0.6-7.2-0.1c3,0.3,6.7,1.7,9.5-0.2C117.7,50,114.8,48.9,112.2,49.6z M86.5,49.9c-0.1-0.3,0.3-0.6,0.2-0.9l-1.1,1.5 c0,0.2-0.2,0.5,0,0.7c0.8-0.3,1.2-1.2,1.6-1.9C86.9,49.1,86.8,49.8,86.5,49.9z"></path> <path class="st0" d="M69.9,55.1L69.9,55.1c3.1,0.7,6.1,0,8.5-1.5c0.4-0.1,0.9-0.3,1.3-0.4C76.1,52.6,73.3,54.7,69.9,55.1z M72.9,54.9c0.8-0.4,1.8-0.5,2.6-0.8c0.9-0.4,1.8-0.7,2.8-0.8C76.6,53.9,74.8,54.6,72.9,54.9z M97.4,52.9c-0.5,0.1-1.1,0.3-1.6,0.4 c-4,1.3-8.2,2.2-12.2,3.6c0,0.3-0.2,0.6,0,0.9c4.5-1.9,9.3-3.1,13.9-4.6L97.4,52.9z M89.3,55.4c-1.7,0.6-3.4,1.1-5.1,1.6 c1.6-0.8,3.5-1.2,5.2-1.8L89.3,55.4z M85.1,52.9c-0.2-0.2-0.5-0.7-0.9-0.5c-0.5,0.4-0.8,1.2-0.8,1.9l0.4,0.1 c0.2-0.1,0.2-0.3,0.3-0.5c0.1,0,0.1,0.1,0.2,0.1c0,1.1-1.1,0.2-1.7,0.7c0.2,0.4,1,0.3,1.4,0.3c0.4-0.1,0.7-0.5,0.8-0.9 c-0.2-0.2-0.6,0-0.7-0.4c-0.1-0.2,0.1-0.2,0.2-0.3c-0.1-0.1-0.2-0.2-0.1-0.3c0.1,0,0.2,0,0.2,0.1v-0.3c0.3,0,0.2,0.3,0.5,0.3 C85.1,53.1,85.1,53,85.1,52.9z"></path> <path class="st0" d="M98.3,53.9c-0.4,0.2-0.8-0.1-1.1-0.3c0.1,0.2,0.1,0.4,0.2,0.6c0.7,0.2,1.3-0.2,1.8-0.4 C99.1,53.3,98.7,53.9,98.3,53.9z M84.7,53.4l-0.1,0.2c1.8,0.4,3.5,0.8,5.3,1.1l0.6-0.2C88.6,54.1,86.7,53.8,84.7,53.4z"></path> <path class="st0" d="M91.5,57.3V57c0-0.2-0.1-0.2-0.2-0.3c0.1-0.1,0.2-0.1,0.2-0.3c0-0.3-0.2-0.4-0.5-0.4h-0.7v1.4h0.2v-0.6H91 c0.2,0,0.3,0.1,0.3,0.3c0,0.1,0,0.3,0,0.4h0.2l0,0C91.5,57.4,91.5,57.4,91.5,57.3z M91,56.7h-0.4v-0.5H91c0.1,0,0.3,0,0.3,0.2 C91.3,56.7,91.2,56.7,91,56.7z"></path> <path class="st0" d="M90.9,55.5c-0.7,0-1.2,0.6-1.2,1.2c0,0.7,0.6,1.2,1.2,1.2c0.7,0,1.2-0.6,1.2-1.2S91.6,55.5,90.9,55.5z M90.9,57.8c-0.6,0-1.1-0.5-1.1-1.1s0.5-1.1,1.1-1.1s1.1,0.5,1.1,1.1C92,57.4,91.5,57.8,90.9,57.8z"></path> <path class="st0" d="M131,19.2l-0.2,0.2c0.5,0.4,0,0.7,0,0.7l-1.8,1.5l0.9-3.7l-0.8-0.9l-0.2,0.2c0.3,0.3,0.2,0.6,0.1,0.7 c-0.2,0.1-1.6,1.3-2.1,1.8c-0.5,0.4-0.8-0.1-0.8-0.1l-0.2,0.2l1,1.1l0.2-0.1c-0.3-0.4-0.1-0.7,0.1-0.9c0.2-0.2,2-1.8,2-1.8l-1.1,4.4 l0.2,0.2c0.9-0.8,1.7-1.5,2.6-2.3c0.4-0.4,0.8,0.1,0.8,0.1l0.2-0.2L131,19.2z M119.5,8.6c-0.3,0.3-0.4,0-0.4,0s-0.3-0.5-0.7-0.8 c-0.9-0.7-2.2-0.5-3,0.5c-0.6,0.7-0.9,2,0.3,2.9c1.2,0.9,2.5,0.1,2.5,0.1l-0.1-0.2c-0.7,0.4-1.4,0.4-2,0s-0.9-1.3-0.3-2.3 c0.7-1,1.5-1.4,2.4-0.9s0.4,1.9,0.4,1.9l0.2,0.1L119.5,8.6L119.5,8.6z M98.4,5c-0.2,0.7-0.6,1-1.4,1c-0.7,0-0.8-0.4-0.8-0.6l0.1-1.3 c0.1,0,0.3,0,0.5,0c0.5,0,0.4,0.6,0.4,0.6h0.2l0.1-1.3h-0.1c-0.1,0.4-0.3,0.5-0.5,0.5c-0.1,0-0.4,0-0.6,0c0-0.7,0.1-1.3,0.1-1.4 s0.1-0.2,0.2-0.2c0.2,0,0.3,0,0.7,0c0.7,0,0.8,0.8,0.8,0.8h0.2c0,0,0-0.4,0-0.7c0-0.2-0.1-0.3-0.4-0.3L95.4,2v0.1 c0.3,0,0.5,0.2,0.5,0.4c0,0.3-0.1,2.1-0.1,2.7s-0.6,0.6-0.6,0.6V6c1.3,0,2.9,0.2,3.1,0.2S98.5,6,98.5,6l0.1-1H98.4z M91.7,5.8 c-0.5,0-0.6-0.3-0.6-0.5C91.1,5,91,3.2,91,2.7s0.5-0.5,0.5-0.5V2h-1.2l-1.2,3.3l-1.4-3.2l-1.2,0.1v0.1c0.4,0,0.6,0.2,0.6,0.5 s0.1,2,0.1,2.6s-0.5,0.7-0.5,0.7v0.2L88,6.1V6c-0.4,0-0.6-0.3-0.6-0.6c0-0.3-0.1-2.7-0.1-2.7l1.6,3.4h0.2l1.3-3.4 c0,0,0.1,2.1,0.2,2.7c0,0.5-0.6,0.5-0.6,0.5V6L91.7,5.8L91.7,5.8z M123.7,15.8c0.1-0.3,1.1-3.4,1.1-3.4l-0.2-0.2 c0,0-2.6,1.3-3.2,1.6s-0.9,0-0.9,0l-0.1,0.1l1,0.8l0.1-0.1c-0.3-0.3-0.2-0.5,0.1-0.6c0.1-0.1,0.4-0.2,0.7-0.4l1.1,0.9l-0.3,0.9 c-0.2,0.5-0.6,0.1-0.6,0.1l-0.1,0.1l1.2,1l0.1-0.1C123.6,16.3,123.6,16.1,123.7,15.8z M122.6,13.6c0.7-0.4,1.5-0.8,1.6-0.8l-0.6,1.7 L122.6,13.6z M83.6,6.3c-0.4,0-0.5-0.2-0.7-0.4c-0.2-0.3-1.8-3.1-1.8-3.1h-0.2c0,0-0.7,2.8-0.9,3.4c-0.2,0.6-0.6,0.6-0.6,0.6V7 l1.2-0.2V6.6c-0.4,0-0.5-0.1-0.4-0.5c0-0.1,0.1-0.4,0.2-0.8l1.4-0.2L82.3,6C82.6,6.4,82,6.5,82,6.5v0.1L83.6,6.3L83.6,6.3z M80.5,5.2l0.4-1.8L81.8,5L80.5,5.2z M71.4,8.7c-0.5,0.2-0.6-0.1-0.7-0.3s-1-3-1-3s0.3-0.1,0.6-0.2c0.6-0.2,1,0.5,1,0.5l0.2-0.1 l-0.4-0.9C69.8,5.3,67.5,6,67.5,6l0.3,0.9H68c0,0,0-0.5,0.2-0.8C68.3,5.9,69,5.7,69,5.7l1.1,2.9c0.2,0.6-0.4,0.8-0.4,0.8l0.1,0.2 L71.5,9L71.4,8.7z M65,10.5c-0.2-0.4-0.6-0.8-1.6-0.7s-1.2-0.1-1.3-0.3s-0.3-0.6,0.3-0.9C63.1,8.2,63.7,9,63.7,9l0.1-0.1L63.3,8 h-0.1c0,0.3-0.2,0.2-0.3,0.2s-0.4,0-0.8,0.2c-0.6,0.4-0.7,1.1-0.4,1.5s0.7,0.5,1.6,0.5c0.9-0.1,1.2,0.2,1.3,0.4 c0.2,0.4,0.1,0.9-0.3,1.1c-0.9,0.6-1.7-0.4-1.7-0.4l-0.1,0.1l0.6,1.1l0.1-0.1c-0.1-0.4,0.3-0.3,0.3-0.3s0.7,0,1.1-0.3 C65.2,11.6,65.2,10.9,65,10.5z M60.6,13.9c-0.4,0.4-1.2-0.1-1.8-0.2c-0.4-0.1-0.7-0.1-0.7-0.1c0.3-0.3,0.4-1-0.1-1.5 c-0.4-0.4-1.2-0.3-1.5,0c-0.4,0.3-1.5,1.2-1.5,1.2l0.1,0.1c0.3-0.3,0.6-0.2,0.8,0.1c0.2,0.2,1.3,1.6,1.7,2.1 c0.4,0.4-0.1,0.8-0.1,0.8l0.1,0.1l1.4-1.2l-0.1-0.1c-0.5,0.3-0.6,0.1-0.8,0l-0.8-0.9c0.1-0.1,0.2-0.2,0.3-0.3 c0.2-0.2,0.5-0.1,0.7-0.1c0.2,0.1,0.7,0.2,1.1,0.4c0.4,0.2,0.7,0.2,1.3-0.5L60.6,13.9z M57.6,13.8c-0.2,0.2-0.3,0.3-0.5,0.4 c-0.5-0.5-0.9-1.1-1-1.2c-0.1-0.2,0-0.3,0-0.3c0.1-0.1,0.1-0.1,0.4-0.3c0.3-0.2,0.7-0.1,1.1,0.3C57.9,13.1,57.8,13.6,57.6,13.8z M105.3,5.9c-0.2-0.4-0.4-0.6-0.4-0.6c0.4,0,1.1-0.3,1.1-1c0-0.6-0.5-1.1-1-1.2c-0.5-0.1-1.9-0.4-1.9-0.4v0.2 c0.4,0.1,0.5,0.3,0.4,0.6s-0.4,2.1-0.5,2.6s-0.7,0.4-0.7,0.4v0.2l1.8,0.3V6.9c-0.5-0.2-0.5-0.4-0.5-0.6l0.2-1.2 c0.1,0,0.3,0.1,0.4,0.1c0.3,0.1,0.4,0.3,0.5,0.5s0.3,0.7,0.4,1.1c0.2,0.4,0.2,0.7,1.2,0.7V7.4C105.7,7.3,105.6,6.4,105.3,5.9z M104.4,5c-0.2,0-0.5-0.1-0.7-0.1c0.1-0.7,0.3-1.4,0.3-1.5c0-0.2,0.2-0.2,0.3-0.2c0.1,0,0.2,0,0.5,0.1s0.6,0.5,0.5,1 C105.2,4.8,104.7,5.1,104.4,5z M110.4,4.6l-0.1,0.2c0.5,0.2,0.4,0.4,0.4,0.6c-0.1,0.2-0.7,2.1-0.9,2.6c-0.2,0.5-0.8,0.3-0.8,0.3v0.2 l1.7,0.6l0.1-0.2c-0.6-0.2-0.5-0.5-0.4-0.7s0.8-2.2,1-2.6c0.2-0.5,0.7-0.2,0.7-0.2l0.1-0.2L110.4,4.6z M54.8,18.8 c-0.4,0.5-0.6,0.3-0.8,0.2c-0.2-0.1-1.8-1.5-2.1-1.9c-0.4-0.3,0-0.7,0-0.7l-0.2-0.1l-1.2,1.3l0.2,0.1c0.3-0.4,0.5-0.3,0.7-0.1 c0.2,0.2,1.7,1.4,2.1,1.8c0.4,0.4,0,0.8,0,0.8l0.1,0.1L54.8,18.8L54.8,18.8z M50.8,23.9c-0.3,0.5-0.5,0.3-0.7,0.2 c-0.4-0.2-0.8-0.5-1.2-0.7c0.1-0.1,0.2-0.3,0.3-0.5c0.3-0.4,0.7,0,0.7,0l0.1-0.1L48.8,22l-0.1,0.1c0.2,0.2,0.3,0.5,0.2,0.6 s-0.2,0.3-0.3,0.5c-0.5-0.3-1-0.6-1.1-0.7c-0.2-0.1-0.1-0.3-0.1-0.3s0.1-0.1,0.4-0.7c0.3-0.5,1-0.2,1-0.2l0.1-0.2L48,20.7l-1.6,2.5 l0.2,0.1c0,0,0.1,0,0.2-0.2c0.2-0.2,0.5,0,0.5,0s2.1,1.3,2.4,1.5c0.3,0.2,0.2,0.4,0.2,0.5c-0.1,0.1-0.1,0.3-0.1,0.3l0.2,0.1l1-1.5 L50.8,23.9z"></path> <path class="st0" d="M82.9,50.1c0.1-0.1,0.3-0.3,0.4-0.4C83.1,49.7,82.9,50.1,82.9,50.1z M95.3,48.2v0.2h0.1L95.3,48.2L95.3,48.2z M83.2,48.2c0,0.2-0.1,0.4,0,0.5C83.3,48.5,83.2,48.3,83.2,48.2z M93.9,48v0.2V48L93.9,48z M93,47.4c0,0.1,0,0.3,0.1,0.3 C93.2,47.6,93.1,47.5,93,47.4z M89.9,47.1c-0.1,0.1-0.3,0-0.2,0.2c0.3-0.2,0.6,0.1,0.8,0C90.3,47.4,90.1,47.1,89.9,47.1z M84.1,47 L84.1,47l0.3-0.1L84.1,47z M74.5,46.9L74.5,46.9l0.1-0.3L74.5,46.9z M83.1,45.9c0.3,0,0.4,0,0.6-0.1v-0.1 C83.4,45.8,83.2,45.8,83.1,45.9z M81.7,45.6C81.6,45.6,81.6,45.7,81.7,45.6c-0.1,0.2-0.2,0.6,0,0.6C81.6,46.1,81.6,45.8,81.7,45.6z M76.4,45c0,0.2-0.2,0.4,0,0.5C76.4,45.3,76.6,45.1,76.4,45z M86.9,44.9L86.9,44.9l0.3,0.1L86.9,44.9z M77.7,44.3L77.7,44.3l0.1-0.2 L77.7,44.3z M84.5,44.1L84.5,44.1L84.5,44.1C84.5,44,84.5,44.1,84.5,44.1z M83.1,44.1h0.4C83.4,43.9,83.1,44,83.1,44.1z M78.3,43.9 L78.3,43.9l0.1-0.2L78.3,43.9z M79,43.3v0.2l0.1-0.1C79,43.4,79,43.3,79,43.3z"></path> <path class="st0" d="M91.5,57.3V57c0-0.2-0.1-0.2-0.2-0.3c0.1-0.1,0.2-0.1,0.2-0.3c0-0.3-0.2-0.4-0.5-0.4h-0.7v1.4h0.2v-0.6H91 c0.2,0,0.3,0.1,0.3,0.3c0,0.1,0,0.3,0,0.4h0.2l0,0C91.5,57.4,91.5,57.4,91.5,57.3z M91,56.7h-0.4v-0.5H91c0.1,0,0.3,0,0.3,0.2 C91.3,56.7,91.2,56.7,91,56.7z"></path> <path class="st0" d="M91.5,57.3V57c0-0.2-0.1-0.2-0.2-0.3c0.1-0.1,0.2-0.1,0.2-0.3c0-0.3-0.2-0.4-0.5-0.4h-0.7v1.4h0.2v-0.6H91 c0.2,0,0.3,0.1,0.3,0.3c0,0.1,0,0.3,0,0.4h0.2l0,0C91.5,57.4,91.5,57.4,91.5,57.3z M91,56.7h-0.4v-0.5H91c0.1,0,0.3,0,0.3,0.2 C91.3,56.7,91.2,56.7,91,56.7z M98.6,56.6c-2.1-0.8-4.3-1.2-6.5-1.6l-0.2,0.2l0.1,0.1c2.2,0.6,4.5,1.3,6.6,2 C98.8,57.1,98.7,56.8,98.6,56.6z M93.8,55.5c1.4,0.4,2.8,0.7,4.2,1.2C96.6,56.5,95.2,56,93.8,55.5z M87.3,46.5L87.3,46.5L87.3,46.5 L87.3,46.5z M82.5,43.6c0.1-0.1,0.3,0,0.4-0.2C82.8,43.3,82.5,43.4,82.5,43.6z"></path> <path class="st0" d="M76.7,20.8l1.4-0.5v-0.1C77.6,20.3,77.1,20.5,76.7,20.8z M76.6,20.2c-0.2,0.2-0.7,0.1-0.8,0.5l1.5-0.6 C77.1,20.1,76.9,20.2,76.6,20.2z M79.8,20.1c0.3,0,0.7,0,0.9-0.1C80.4,20,80,19.9,79.8,20.1z M76,20.1c0.1-0.1,0.3-0.1,0.4-0.2 C76.3,19.9,76.1,19.9,76,20.1z M70.7,19.8c0,0.1,0.1,0.1,0.2,0.1v-0.1C70.9,19.7,70.8,19.7,70.7,19.8z M71.1,19.5L71.1,19.5l0.4,0.1 v-0.1H71.1z M75.9,19.6l0.9-0.2C76.5,19.4,76,19.4,75.9,19.6z M78.6,19.2v0.1h1.1L78.6,19.2z M74.5,19.4v0.1 c0.6-0.3,1.3-0.2,1.9-0.4C75.8,19.1,75.1,19.2,74.5,19.4z M78.8,19c0.3,0,0.6,0.1,0.9,0.1V19C79.4,18.8,79,18.9,78.8,19z M74.8,18.8 c-0.3,0.1-0.7,0.2-0.9,0.4l1-0.3c0.5-0.1,1,0,1.4-0.2C75.9,18.7,75.4,18.8,74.8,18.8z M76.2,18.3c-0.6,0.2-1.3,0-1.8,0.3 c0.6-0.1,1.2-0.1,1.8-0.1V18.3L76.2,18.3z M78.6,18.1c0.2,0,0.4,0.2,0.5,0.1L78.6,18.1z"></path> <path class="st0" d="M73.4,20.5l-0.1,0.2C73.1,20.6,73.2,20.5,73.4,20.5C73.3,20.5,73.4,20.5,73.4,20.5z"></path> <path class="st0" d="M80.9,21.1c0.2-0.1,0.4,0,0.5-0.2C81.2,20.9,81,21,80.9,21.1z M77.8,21.1c0.2-0.1,0.5-0.1,0.7-0.3 C78.3,20.8,78,20.9,77.8,21.1z M68.1,20.8L68.1,20.8l0.1-0.1C68.2,20.7,68.1,20.7,68.1,20.8z M77,21c0.3,0,0.6-0.2,0.8-0.3 C77.5,20.7,77.2,20.8,77,21z M80.1,20.9c0.4,0,0.7-0.2,1-0.2v-0.1C80.7,20.7,80.3,20.7,80.1,20.9z"></path> <path class="st0" d="M74.4,21c-0.1,0.1-0.4,0-0.5-0.1L74.4,21z"></path> <path class="st0" d="M66.7,23.1c-0.4-0.1-0.2,0.5-0.2,0.6C66.5,23.5,66.7,23.3,66.7,23.1z M65.5,23.1c0.6,0.2,0,0.6,0.1,0.9l0.4-0.7 c0.2,0.2-0.1,0.5-0.1,0.6c0.2-0.2,0.3-0.5,0.3-0.8H65.5z M75.4,23l-0.3,0.1L75.4,23L75.4,23z M82.8,23.2c0.2,0,0.5-0.1,0.7-0.2 C83.3,22.9,83,23.1,82.8,23.2z M70.4,22.9c-0.1,0.1-0.4,0-0.4,0.2h0.3C70.4,23,70.5,23,70.4,22.9z M79.8,23.3 c0.3-0.1,0.6-0.2,0.8-0.5C80.3,22.9,80,23.1,79.8,23.3z M68.1,22.8c-0.3,0.2-1.1-0.1-0.9,0.6c0.1-0.4,0.4,0,0.6-0.4 c0.1,0,0.1,0.2,0.2,0.2C68.1,23,68.2,22.9,68.1,22.8z M79.7,23c0.2,0,0.4-0.1,0.5-0.3C80,22.7,79.8,22.8,79.7,23z M82.5,22.8 c0.2,0,0.5-0.1,0.6-0.2C82.9,22.5,82.7,22.6,82.5,22.8z M70.8,22.5v0.1h0.5v-0.1H70.8z M79.6,22.5c0.2-0.1,0.5-0.2,0.6-0.3 C79.9,22.2,79.7,22.3,79.6,22.5z M82,22.5c0.3-0.1,0.6-0.2,0.8-0.3C82.6,22.2,82.2,22.2,82,22.5z M71.5,22.1 c0.1,0.1,0.4,0.2,0.6,0.1C72,22,71.7,22.1,71.5,22.1z M78.8,22.4c0.4-0.1,0.7-0.2,1-0.4C79.4,22,79.1,22.2,78.8,22.4z M78.3,22.2 c0.4,0,0.7-0.3,1.1-0.5C79,21.8,78.6,21.9,78.3,22.2z M72.3,21.7l0.6,0.1v-0.1H72.3z M81.9,21.9c0.2-0.2,0.7-0.1,0.8-0.3 C82.4,21.7,82.1,21.8,81.9,21.9z M78.1,22c0.3-0.1,0.6-0.3,0.8-0.5C78.7,21.6,78.3,21.7,78.1,22z M81.6,21.6c0.2,0,0.5-0.1,0.6-0.2 C81.9,21.3,81.7,21.5,81.6,21.6z"></path> <path class="st0" d="M95.9,23.9l0.1-0.1c-0.1,0-0.3,0-0.4-0.1c0.1-0.2,0.4-0.1,0.5-0.2c-0.1,0-0.2,0-0.3-0.1 c-0.1-0.2,0.1-0.1,0.1-0.2c-1.3,0.3-2.6,1.2-3.3,2.4c1.1-0.7,2.1-1.3,3.5-1.4c0.1-0.1,0.2-0.1,0.2-0.2C96.2,23.9,96,23.9,95.9,23.9z M77.8,23.2c-0.1,0-0.3,0.2-0.1,0.3C77.8,23.4,77.9,23.3,77.8,23.2z"></path> <path class="st0" d="M54.4,29.8L54.4,29.8L54.4,29.8z M80.6,23.7c0.3-0.2,0.6-0.2,0.8-0.4C81.2,23.4,80.7,23.4,80.6,23.7z M80,23.6 c0.2-0.1,0.4-0.2,0.6-0.3C80.4,23.3,80.2,23.4,80,23.6z"></path> <path class="st0" d="M103.9,23.6c0,0.1-0.2-0.1-0.2,0.1l0.5,0.3c-0.1,0-0.1,0-0.1,0.1l0.3,0.2l-0.2,0.1l0.2,0.2 c-0.1,0-0.1,0-0.1,0.1l0.5,0.3h-0.4l0.6,0.5c0-0.1-0.1,0-0.2-0.1l-0.1,0.1c0.2,0.3,0.5,0.3,0.7,0.5l-0.3,0.1l0.7,0.4l-0.2,0.1 l0.6,0.4H106c0.1,0.2,0.5,0.3,0.7,0.5c-0.2,0-0.3-0.2-0.5-0.1c0.5,0.5,1.6,0.4,1.4,1.4c0.1,0.3-0.2,0.4-0.4,0.4 c-1.3,0-2.2-1.1-3.1-2.1l-1.7-2.8c-0.1-0.2,0-0.4,0.1-0.6l0.2,0.2c0.2-0.1,0.2-0.3,0.3-0.4l0.1,0.5l0.1-0.2l0.1,0.8 c0.2,0,0-0.3,0.2-0.4c0.3,0.3,0.2,0.8,0.3,1.1l0.1-0.4c0.4,0.1,0.1,0.9,0.5,0.7c0.4,0.3,0.1,0.8,0.5,1.1l0.1-0.2 c0.4,0.2,0.1,0.8,0.6,0.8c0.2,0.1,0.4,0.4,0.6,0.5v-0.2c-1.3-1.3-2.1-2.8-3-4.3C103.3,23.2,103.7,23.5,103.9,23.6L103.9,23.6z"></path> <path class="st0" d="M63.8,23.6v0.1h0.3v-0.1H63.8z M81.8,23.6c-0.1,0.1-0.2,0-0.2,0.2h0.1C81.7,23.7,81.8,23.7,81.8,23.6z M73.8,23.7c0.3,0,0.5,0,0.7-0.2C74.2,23.6,74,23.6,73.8,23.7z"></path> <path class="st0" d="M104.2,28.1c0.1,0.3,0.1,0.9-0.3,1c-1.4,0.3-2.3-1.3-3.2-2.1l-0.1,0.1c0.4,0.7,0.8,1.6,0.7,2.5 c-0.3,0.3-0.7,0.4-1.1,0.2c-0.3-0.2-0.5-0.5-0.6-0.9c0.2-0.1,0.4,0.1,0.4-0.2c0.1,0.1,0.2,0.4,0.3,0.5c0-0.2-0.1-0.6-0.2-0.9 l0.4,0.6c0.1-0.2,0-0.4-0.1-0.5c0.2,0,0.2,0.2,0.3,0.3c0-0.2-0.2-0.5-0.3-0.7c-0.1-0.1-0.2-0.2-0.2-0.3l0.5,0.4 c0-0.2-0.2-0.4-0.3-0.7c0-0.3,0.1-0.7,0.3-1c0.2,0.1,0,0.3,0.2,0.4v-0.7c0.1,0.3,0.2,0.6,0.3,0.8c0-0.4-0.1-1-0.1-1.4 c0.6,0.9,1.1,1.9,1.8,2.7l0.4-0.1c-0.1-0.3-0.5-0.3-0.7-0.5c0.2-0.1,0.4,0.2,0.5,0.1c-0.3-0.3-0.6-0.4-1-0.6l0.3-0.1 c-0.2-0.2-0.7-0.3-0.8-0.7c0.3-0.1,0.6,0.4,1,0.2c-0.3-0.3-0.8-0.3-1.2-0.6c0.4-0.1,0.9,0.2,1.3,0.2c-0.2-0.3-0.6-0.3-0.9-0.5 c-0.3,0-0.4-0.2-0.7-0.2c0.2-0.2,0.6,0.1,0.9,0c-0.2-0.3-0.6-0.3-0.8-0.5h0.6c-0.1-0.2-0.4-0.3-0.5-0.4l0.5-0.1 c0.1-0.2-0.4-0.1-0.2-0.4v-0.2C102.6,25.2,103.3,26.7,104.2,28.1L104.2,28.1z"></path> <path class="st0" d="M82.3,24.2L82.3,24.2L82.3,24.2L82.3,24.2z M77.8,24.6c0.1-0.1,0.2-0.3,0.2-0.4C77.8,24.2,77.8,24.5,77.8,24.6z M83.9,24.3c0.2-0.1,0.6,0,0.7-0.2C84.4,24.1,84.1,24.1,83.9,24.3z M62.8,24.1h0.5V24C63.2,23.9,63,24.1,62.8,24.1z M73.3,24.1 c0.1,0,0.4,0.1,0.4-0.1C73.6,24,73.3,23.9,73.3,24.1z M83.4,24.1c0.2-0.1,0.5,0,0.6-0.2C83.8,23.9,83.6,23.9,83.4,24.1z"></path> <path class="st0" d="M67.7,24.5c-0.1,0.1-0.1,0.1-0.2,0.1l-0.1-0.1C67.5,24.4,67.7,24.4,67.7,24.5z"></path> <path class="st0" d="M81.9,24.9c0.2,0,0.4-0.1,0.5-0.2C82.1,24.6,81.9,24.7,81.9,24.9z M61.9,24.7h0.3v-0.1 C62.1,24.6,61.9,24.6,61.9,24.7z M77.1,24.6c0.2,0.1,0.2-0.1,0.3-0.2C77.3,24.5,77.1,24.4,77.1,24.6z"></path> <path class="st0" d="M95.8,24.6c-0.1,0.2-0.4,0.1-0.6,0.2l0.7,0.1l-0.7,0.3h0.7c0,0.1-0.1,0.1-0.1,0.2c-0.4,0-0.8,0.1-1,0.3l0.7,0.1 L95.2,26c0,0.2,0.2,0.1,0.3,0.2c-1.3,0-2.6,0.2-3.7,0.9c0.1-0.3,0.3-0.6,0.6-0.9C93.3,25.3,94.5,24.8,95.8,24.6L95.8,24.6z"></path> <path class="st0" d="M86,26.2c-0.1,0.1-0.3,0-0.3,0.1h0.2C85.9,26.4,86,26.4,86,26.2z M59,26.4h0.2v-0.1C59.2,26.2,59,26.2,59,26.4z M84,26.5c0.2-0.1,0.5-0.1,0.5-0.3C84.3,26.2,84.1,26.4,84,26.5z M85.2,26h0.4v-0.1C85.5,25.8,85.2,25.8,85.2,26z M84.2,26 c0.2,0,0.3-0.1,0.4-0.2C84.5,25.7,84.2,25.7,84.2,26z M60,25.8c0.1,0,0.2,0,0.2,0C60.2,25.7,60,25.6,60,25.8z M75,25.8L75,25.8 c0.2,0,0.3-0.1,0.3-0.2C75.2,25.6,75.1,25.7,75,25.8z M74.8,25.6c-0.1,0.1-0.3,0.1-0.4,0.2h0.2C74.7,25.7,74.9,25.8,74.8,25.6z M83.6,25.8c0.2,0,0.3-0.1,0.4-0.2C83.9,25.6,83.6,25.6,83.6,25.8z M82.8,25.7c0.3,0,0.6-0.2,0.7-0.4C83.3,25.4,83,25.6,82.8,25.7z M75.1,25.2L75.1,25.2l0.4,0.1v-0.1H75.1z M82.5,25.4c0.3,0,0.4-0.2,0.7-0.3C83,25.1,82.7,25.2,82.5,25.4z M77.7,25.9l0.4-0.3 l0.6-0.5L77.7,25.9z M60.7,25.2l0.5-0.1C61,25,60.8,25.1,60.7,25.2z M82.1,25.2c0.3-0.1,0.5-0.2,0.7-0.4 C82.5,24.9,82.3,25,82.1,25.2z M75.9,25.3c0.1,0.1-0.2,0.3-0.1,0.4c0.1-0.3,0.3-0.6,0.6-0.7c0.1,0,0.1,0.1,0.2,0.1 c0.1-0.1,0.1-0.2,0.1-0.3C76.4,25,76.1,25.1,75.9,25.3z"></path> <path class="st0" d="M72.4,26.4c0,0.1-0.1,0-0.2,0.1v-0.1C72.2,26.4,72.3,26.3,72.4,26.4L72.4,26.4z"></path> <path class="st0" d="M84,27.3c0.3,0,0.5-0.2,0.8-0.3C84.5,27,84.2,27.1,84,27.3z M57.8,26.9l0.4-0.1v-0.1 C58.1,26.7,58,26.8,57.8,26.9z M86,26.8L86,26.8l0.1-0.1C86.1,26.7,86,26.7,86,26.8z M83.5,27.1c0.4-0.1,0.7-0.3,0.9-0.4 C84,26.7,83.7,26.9,83.5,27.1z"></path> <path class="st0" d="M73.3,27.1c0,0.1-0.1,0.2-0.1,0.2h-0.1C73.1,27.2,73.1,27,73.3,27.1z"></path> <path class="st0" d="M85.2,27.1c0,0.3-0.4,0.2-0.5,0.3C84.8,27.3,85,27.2,85.2,27.1z"></path> <path class="st0" d="M74.5,27.4c-0.2,0.2-0.5,0.1-0.7,0.1C74,27.5,74.2,27.2,74.5,27.4z"></path> <path class="st0" d="M56.7,27.5H57v-0.1C56.9,27.4,56.8,27.4,56.7,27.5z M85.7,27.4c-0.1,0.1-0.3,0.1-0.2,0.2h0.1 C85.6,27.6,85.7,27.5,85.7,27.4z"></path> <path class="st0" d="M77,27.5c0.1,0.2-0.2,0.3-0.3,0.4v-0.1C76.7,27.7,76.8,27.5,77,27.5L77,27.5z"></path> <path class="st0" d="M86,27.7h-0.2C85.8,27.7,85.9,27.6,86,27.7L86,27.7z"></path> <path class="st0" d="M74,27.7c-0.3,0.4-0.8,0.1-1.1,0.2C73.2,27.9,73.7,27.7,74,27.7z"></path> <path class="st0" d="M85.9,29c0.5-0.1,0.9-0.3,1.4-0.4v-0.1C86.8,28.6,86.3,28.7,85.9,29z M54.9,28.6h0.4v-0.1 C55.2,28.4,55,28.5,54.9,28.6z M85.8,28.6c0.5,0,0.9-0.3,1.4-0.5C86.6,28.2,86.2,28.4,85.8,28.6z M55.6,28h0.5v-0.1 C55.9,27.9,55.7,27.9,55.6,28z M85.9,28.2c0.3-0.1,0.6-0.2,0.8-0.3C86.4,27.7,86,28,85.9,28.2z"></path> <path class="st0" d="M79.4,28.8c0,0.1-0.1,0.1-0.1,0.1l0,0C79.2,28.9,79.3,28.6,79.4,28.8z"></path> <path class="st0" d="M86.5,29.3c0.2,0,0.4-0.1,0.5-0.2C86.8,29,86.6,29.1,86.5,29.3z M54.4,28.9c-0.1,0-0.2,0-0.2,0.1h0.2 C54.4,29.1,54.5,29,54.4,28.9z"></path> <path class="st0" d="M99.6,30.4c-0.1,0.1-0.1,0.3-0.3,0.3h-0.2c0-0.5,0.2-0.9,0.3-1.3C99.7,29.7,99.7,30,99.6,30.4L99.6,30.4z"></path> <path class="st0" d="M76.9,31.2h0.2l0,0C77,31,76.9,31.2,76.9,31.2z M89.3,31.4c0.2,0,0.4-0.1,0.5-0.2 C89.6,31.1,89.3,31.2,89.3,31.4z M73.4,31.1c0.1,0,0.2-0.1,0.2-0.1S73.5,31.1,73.4,31.1z M88.6,31.1c0.2-0.1,0.5-0.2,0.6-0.3 C89,30.8,88.7,30.9,88.6,31.1z M77.2,30.9c0.2-0.1,0.5,0.2,0.6-0.1C77.6,30.8,77.3,30.7,77.2,30.9z M88,30.8L88,30.8 c0.2-0.1,0.5-0.1,0.4-0.3C88.3,30.6,88.1,30.6,88,30.8z M87.8,30.5L87.8,30.5c0.2,0,0.4-0.1,0.4-0.2C88.1,30.3,87.9,30.2,87.8,30.5z M52.6,30h0.2v-0.1C52.7,29.9,52.5,29.9,52.6,30z M87.5,30.1c0.2-0.1,0.5-0.2,0.6-0.3C87.9,29.8,87.6,29.9,87.5,30.1z M64.6,30.1 c0,0,0-0.1,0.1-0.1C64.6,30,64.6,30,64.6,30.1z M64.4,30.4c0-0.1,0.1-0.2,0.1-0.3C64.5,30.2,64.4,30.2,64.4,30.4z M87.2,29.7 c0.2,0,0.4-0.1,0.6-0.2C87.6,29.5,87.3,29.5,87.2,29.7z"></path> <path class="st0" d="M81.3,31.4c-0.2,0.2-0.4,0-0.6,0C80.8,31.2,81.1,31.2,81.3,31.4z"></path> <path class="st0" d="M61.8,32C61.8,32.1,61.8,32.1,61.8,32C61.8,32.1,61.8,32,61.8,32z"></path> <path class="st0" d="M94.6,31.7c-0.2,0.1-0.5,0.1-0.7,0.1c0.2,0,0.3,0.1,0.5,0.1L94.3,32c-0.6-0.3-1.3,0.5-1.8-0.1 c0.3-0.3,0.9-0.2,1.3-0.3L94.6,31.7z"></path> <path class="st0" d="M90.5,32.4c0.2-0.1,0.4,0,0.5-0.2C90.8,32.2,90.6,32.2,90.5,32.4z M89.4,32.3c0.3-0.1,0.6-0.1,0.7-0.4 C89.9,32.1,89.5,32.1,89.4,32.3z M89,32.1c0.2-0.1,0.6-0.1,0.7-0.4C89.4,31.7,89.2,31.9,89,32.1z"></path> <path class="st0" d="M94.4,32.3c-0.5,0-1,0.3-1.4,0.1l0.3-0.1H94.4L94.4,32.3L94.4,32.3z"></path> <path class="st0" d="M79,32.4c0.2,0.1,0.5,0.3,0.7,0.1v-0.1H79z M48.2,32.5h0.2v-0.1C48.4,32.4,48.2,32.4,48.2,32.5z M55.7,32.3 c-0.1,0-0.3,0.1-0.3,0.2c0.1,0.1,0.2,0.2,0.1,0.4L55.7,32.3z"></path> <path class="st0" d="M93.4,32.7c0.4,0.2,0.9,0.1,1.2-0.1C94.1,32.5,93.7,32.6,93.4,32.7z M82.5,32.5c0,0.1-0.2,0.2-0.2,0.3h0.1 C82.5,32.7,82.6,32.6,82.5,32.5z"></path> <path class="st0" d="M91.6,32.8c-0.1,0.1-0.4,0-0.3,0.2C91.3,33,91.6,33.1,91.6,32.8z M78.6,32.8L78.6,32.8l0.4,0.1v-0.1H78.6z M53.9,33.5c0.1-0.1,0.2,0.1,0.2,0.1c-0.1,0,0,0.1-0.1,0.2l0.1-0.4c0.1-0.6,0.8-0.1,0.8-0.7L53.9,33.5z"></path> <path class="st0" d="M94.8,32.9C94.6,33,94.3,33,94,33.1L93.9,33C94,32.8,94.5,33,94.8,32.9L94.8,32.9z"></path> <path class="st0" d="M81.3,33.9L81.3,33.9l0.5,0.1L81.3,33.9z M57,34c0.1,0,0.3,0,0.4-0.1C57.2,33.9,57,33.8,57,34z M90.9,33.8 c0.2,0,0.3-0.1,0.4-0.2C91.2,33.6,91,33.7,90.9,33.8z M53.5,33.6c-0.3,0.3-0.8,0.4-1.1,0.6v0.1h0.2c0.1,0,0.1-0.1,0.1-0.2 c0.2-0.1,0.4-0.4,0.6-0.1C53.3,33.8,53.6,33.8,53.5,33.6z"></path> <path class="st0" d="M84.8,34.2c-0.1,0-0.1,0.1-0.2,0l0.2-0.2C85,34,84.8,34.1,84.8,34.2z"></path> <path class="st0" d="M94.3,35.6c0.2-0.1,0.5,0,0.6-0.3C94.7,35.4,94.4,35.4,94.3,35.6z M94.3,35.1c-0.1,0.1-0.3,0.1-0.4,0.2h0.2 C94.2,35.2,94.4,35.2,94.3,35.1z M79.4,34.9c0.1,0,0.3,0,0.4,0C79.7,34.8,79.4,34.8,79.4,34.9z M93.8,34.7c-0.1,0-0.3,0-0.3,0.2h0.1 C93.8,34.8,93.9,34.8,93.8,34.7z M92.7,34.7c0.3,0,0.7-0.1,0.8-0.3C93.2,34.4,92.9,34.5,92.7,34.7z M56.2,34.3l0.7-0.1v-0.1 C56.7,34.2,56.4,34.2,56.2,34.3z M51.2,34.1L51.2,34.1l0.2,0.1v-0.1H51.2z"></path> <path class="st0" d="M86.7,35.4l-0.1,0.2h0.1V35.4L86.7,35.4z M86.3,35.4L86,35.8l0.1,0.1C86.2,35.8,86.5,35.6,86.3,35.4z"></path> <path class="st0" d="M101.2,20.7c0.1,0.1,0.3,0.2,0.3,0.1S101.4,20.7,101.2,20.7z M99.6,20.5h1v-0.1C100.3,20.4,100,20.5,99.6,20.5z M101.7,20.3v0.1c0.1,0,0.2,0,0.2,0C101.9,20.4,101.8,20.4,101.7,20.3z M102.6,20.3c0.1,0,0.3,0.2,0.4,0 C102.9,20.2,102.7,20.1,102.6,20.3z M100.5,20c0.5,0,1,0.1,1.4,0.1V20C101.4,19.9,100.9,19.9,100.5,20z M99.8,20.1 c0.2,0,0.4-0.1,0.7-0.1C100.2,20,100,20,99.8,20.1z M102.6,19.8V20l0.5,0.1C103,19.9,102.8,19.8,102.6,19.8z M104.7,19.8 c0,0.2,0.1,0.3,0.2,0.4V20C104.9,19.9,104.9,19.7,104.7,19.8z M105,19.6c-0.1,0.3,0.3,0.5,0.4,0.7C105.3,20,105.2,19.7,105,19.6z M102.7,19.5l-0.1,0.1h0.4L102.7,19.5z M100.4,19.6h1.5v-0.1C101.5,19.5,100.8,19.4,100.4,19.6z M105.2,19.4 c0.1,0.3,0.3,0.6,0.5,0.8C105.6,19.9,105.6,19.5,105.2,19.4z M105.6,19.2l-0.1,0.2c0.3,0.4,0.6,0.7,1,1 C106.2,20,105.9,19.5,105.6,19.2z M105.8,19l0.1,0.2c0.2,0.2,0.5,0.6,0.8,0.5C106.4,19.5,106.1,19.3,105.8,19z M106.2,18.8l-0.2,0.1 c-0.1,0.2,0.2,0.1,0.3,0.2C106.3,18.9,106.2,18.8,106.2,18.8z M112.8,18.7L112.8,18.7l0.1,0.1L112.8,18.7z M102.5,18.6v0.1 c0.3-0.1,0.7,0.2,0.8-0.1C103.1,18.5,102.8,18.5,102.5,18.6z M111.9,18.4c0,0.2,0.2,0.2,0.2,0.2v-0.1C112,18.5,112,18.4,111.9,18.4z M104.5,18.5c0.2,0,0.4,0.2,0.5,0C104.9,18.5,104.6,18.3,104.5,18.5z M108.3,19.5c-0.3-0.4-0.5-1-1-1.2c-0.2,0.2-1,0.2-0.8,0.6 l0.1-0.2c0.2,0.2,0.2,0.4,0.4,0.5c0.1-0.2-0.2-0.4-0.1-0.6c0.3,0.3,0.4,0.7,0.8,1c-0.2-0.3-0.4-0.6-0.4-1L108.3,19.5z M111.1,18.3 c0,0.2,0.2,0.2,0.3,0.3v-0.1C111.3,18.4,111.3,18.2,111.1,18.3z M107.8,18.3v0.2c0.2,0.2,0.5,0.7,0.8,0.7 C108.3,18.9,108.1,18.4,107.8,18.3z M110.7,18.2l0.1,0.2v-0.1C110.8,18.3,110.7,18.2,110.7,18.2z M110,18.1c0,0.2,0.3,0.4,0.4,0.3 C110.3,18.4,110.3,18.1,110,18.1z M104.9,18.1c0.1,0.2,0.4,0.2,0.5,0.2C105.3,18.2,105.1,18.1,104.9,18.1z M109.6,18.1 c0.1,0.1,0,0.4,0.2,0.3C109.8,18.3,109.8,18.1,109.6,18.1z M109,18.1c0,0.2,0.2,0.3,0.3,0.3v-0.1C109.3,18.2,109.2,18,109,18.1z M108.5,18.3c0.1-0.1,0.2,0.1,0.3,0v-0.1c-0.1-0.1-0.2-0.2-0.4-0.1c-0.1,0.1-0.4,0-0.3,0.3c0.3,0.2,0.6,0.6,0.9,0.7L108.5,18.3z M102.9,18.2l1,0.1v-0.2C103.5,18,103.2,18.1,102.9,18.2z M105.2,17.8l0.5,0.3C105.7,17.9,105.4,17.9,105.2,17.8z M105.8,17.8 c0.1,0.1,0.2,0.3,0.3,0.3V18C106.2,17.8,105.9,17.9,105.8,17.8z M102.6,18l1.7-0.1v-0.2C103.7,17.6,103.1,17.8,102.6,18z M72.3,48.2 c0.2-0.1,0.2-0.4,0.2-0.6C72.4,47.8,72.4,48,72.3,48.2z M93.3,43.2L93.3,43.2L93.3,43.2L93.3,43.2C93.4,43.2,93.4,43.2,93.3,43.2z M91.9,42.2l-0.1,0.2H92C91.9,42.3,92,42.2,91.9,42.2z M82.5,38l0.6-0.1C82.9,37.8,82.6,37.8,82.5,38z M83.4,37.7l0.2,0.1v-0.1 C83.5,37.6,83.4,37.6,83.4,37.7z M81.5,36.2L81.5,36.2h0.3C81.7,36.2,81.6,36.2,81.5,36.2z M82.2,35.9h0.4 C82.5,35.8,82.4,35.8,82.2,35.9z M95.2,35.6c-0.1,0-0.3,0.1-0.3,0.2H95C95.1,35.8,95.3,35.8,95.2,35.6z"></path> <path class="st0" d="M115.3,21.3c0,0.1-0.1,0.1-0.2,0.1c-0.2-0.1,0-0.2,0-0.3C115.3,21,115.2,21.2,115.3,21.3L115.3,21.3z"></path> <path class="st0" d="M119.1,21.9L119.1,21.9c0.2,0,0.4,0.1,0.5-0.1C119.4,21.9,119.2,21.8,119.1,21.9z M101.3,21.8l0.2,0.1v-0.1 C101.5,21.8,101.4,21.8,101.3,21.8z M99.3,21.9c0.5-0.1,1,0.1,1.4,0.1v-0.1C100.2,21.8,99.6,21.8,99.3,21.9z M118.6,22 c-0.1-0.1-0.3-0.2-0.4-0.2c0,0.3,0.2,0.6,0.4,0.7C118.6,22.3,118.4,22.2,118.6,22z M118.4,21.5c0,0.1,0.1,0.1,0.2,0.1s0.2,0,0.2-0.1 H118.4z M101.3,21.5l0.3,0.1v-0.1H101.3z M118.2,22.6c0-0.2-0.1-0.3-0.2-0.5c0.1-0.6-0.4-0.6-0.8-0.8l0.4,0.8 c0.1-0.2-0.2-0.4-0.1-0.6C117.9,21.8,118,22.2,118.2,22.6z M117.9,21.2L117.9,21.2l1,0.1C118.6,21.2,118.3,21.2,117.9,21.2z M113.8,22l0.2-0.1c-0.4-0.2-0.8-0.7-1.3-0.8l0.1,0.3c0.4-0.3,0.3,0.3,0.5,0.4c0.4-0.3,0.3,0.4,0.6,0.5 C113.8,22.2,113.9,22.1,113.8,22z M101.4,21.1L101,21v0.1H101.4L101.4,21.1z"></path> <path class="st0" d="M111.2,21.9l-0.2,0.4c0.1,0.1,0.2,0.2,0.3,0.1C111.3,22.3,111.4,22.1,111.2,21.9z M110.8,21.9 c-0.2,0.1,0,0.2,0.1,0.3c0.1,0,0.1-0.1,0.1-0.2C110.9,22,110.9,21.9,110.8,21.9z"></path> <path class="st0" d="M108.4,22.3c-0.1-0.1-0.2-0.1-0.2,0l0.2,0.2C108.5,22.4,108.4,22.3,108.4,22.3z M106.4,22.2 c-0.1,0.1-0.2,0.3,0,0.4c0,0,0.1,0,0.1-0.1C106.5,22.5,106.4,22.3,106.4,22.2z"></path> <path class="st0" d="M96.2,22.6c0.3,0.1,0.5,0,0.5-0.3C96.5,22.3,96.3,22.5,96.2,22.6z M98.9,22.4l0.9,0.1l0.1-0.1 C99.6,22.2,99.2,22.4,98.9,22.4z M119.9,22.2v0.1c0.2,0,0.3,0,0.5-0.1C120.2,22.3,120,22.2,119.9,22.2z"></path> <path class="st0" d="M108.7,22.4c0,0.1,0,0.3-0.1,0.4c-0.1,0-0.1-0.2-0.1-0.3C108.6,22.5,108.6,22.4,108.7,22.4L108.7,22.4z"></path> <path class="st0" d="M101,22.6h-0.3l0.1-0.1C100.8,22.5,100.9,22.5,101,22.6L101,22.6z"></path> <path class="st0" d="M106.8,23.5c-0.3-0.2-0.3-0.6-0.3-0.9l0.1-0.1C106.8,22.8,106.8,23.2,106.8,23.5L106.8,23.5z"></path> <path class="st0" d="M113.3,23c0.3,0.1,0.7,0.3,1.1,0.2C114.2,22.8,113.7,23,113.3,23z M100.3,22.8L100.3,22.8l0.3,0.1v-0.1H100.3z M112.7,22.5c0.2,0.2,0.6,0.2,1,0.2C113.6,22.5,113.1,22.5,112.7,22.5z"></path> <path class="st0" d="M104.3,23.3C104.3,23.3,104.2,23.4,104.3,23.3c-0.2-0.1-0.1-0.2,0-0.3C104.4,23.1,104.3,23.2,104.3,23.3 L104.3,23.3z"></path> <path class="st0" d="M121.7,23.3c0.1,0.2,0.2,0,0.3,0H121.7z M113.8,23.3c0.3,0.2,0.8,0.1,1.1,0.3C114.7,23.1,114.2,23.5,113.8,23.3 z M100.2,23.1L100.2,23.1l0.3,0.1v-0.1H100.2z"></path> <path class="st0" d="M102.2,23.9c-0.1-0.1-0.1-0.1-0.1-0.2l0.1-0.1C102.3,23.6,102.3,23.8,102.2,23.9z"></path> <path class="st0" d="M96.6,34.4c0.1,0,0.3,0,0.4-0.1C96.9,34.2,96.7,34.4,96.6,34.4z M96.7,33.9h0.4v-0.1 C97,33.7,96.7,33.8,96.7,33.9z M96.8,33.3c0.2,0,0.4,0,0.6-0.1v-0.1C97.2,33.1,96.9,33.2,96.8,33.3z M125.1,32.5 c0.1,0.1,0.3,0.2,0.6,0.2C125.5,32.5,125.3,32.5,125.1,32.5z M96,32.3h1.5C97.1,32,96.5,32.3,96,32.3z M124.8,32.1 c0.3,0.1,0.6,0.2,0.9,0.2C125.4,32.1,125.1,32.1,124.8,32.1z M96.5,31.9l1.2,0.1v-0.2C97.3,31.8,96.8,31.8,96.5,31.9z M124.2,31.7 c0.4,0.2,1.1,0.2,1.5,0.2C125.2,31.7,124.6,31.7,124.2,31.7z M119.5,31.6c-0.1,0.1,0.1,0.2,0.2,0.1c0.1,0,0.2,0,0.1-0.1 C119.7,31.6,119.6,31.6,119.5,31.6z M97.1,31.5c0.2,0,0.5,0.1,0.7,0.1v-0.2C97.6,31.3,97.3,31.5,97.1,31.5z M128.7,31.2 c0.1,0.3,0.6,0.2,0.9,0.3C129.4,31.3,129,31.4,128.7,31.2z M119,31.1v0.2c0.2,0,0.5,0,0.7-0.1L119,31.1z M94.1,31.1 c0.4,0,0.8,0.1,1.2,0.1v-0.1C94.9,31.1,94.4,31,94.1,31.1z M97.3,31c0.2,0,0.4,0.1,0.6,0.1V31C97.7,30.9,97.5,31,97.3,31z M128.6,30.8l-0.4-0.1L128.6,30.8L128.6,30.8z M118.4,30.6v0.1c0.2,0,0.4,0.1,0.5-0.1H118.4z M127,30.4c0.2,0.2,0.5,0.4,0.7,0.4 C127.4,30.6,127.2,30.5,127,30.4z M93,30.4L93,30.4h0.3H93z M117.8,30.1l0.1,0.1h1C118.6,30,118.1,30.1,117.8,30.1z M127,30 c0.4,0.3,0.9,0.3,1.4,0.3C128,30.2,127.5,29.9,127,30z M97,30.1h1V30C97.8,29.9,97.3,30,97,30.1z M126.7,30.2 c-0.2-0.2-0.3-0.2-0.5-0.3l0.5,0.9C126.7,30.6,126.4,30.4,126.7,30.2z M131.3,29.2l0.9,1c0-0.2-0.4-0.3-0.2-0.5 c0.6,0.1,0.8,1,1.5,0.7L131.3,29.2z M97.6,29h0.6v-0.1C98,28.9,97.7,28.9,97.6,29z M131.4,28.8c0.1,0.2,0.4,0.2,0.6,0.2 C131.7,29,131.6,28.8,131.4,28.8z M110.1,28.8v0.1h0.2C110.2,28.9,110.2,28.8,110.1,28.8z M97.1,28.6h1.3v-0.1 C97.9,28.4,97.4,28.5,97.1,28.6z M130.8,29.2c0.1-0.1,0.1-0.1,0.2-0.1l-1.5-0.9l0.5,0.6c0-0.1,0-0.2,0.1-0.2 c0.5,0.2,0.8,0.8,1.1,1.1C131.1,29.5,131,29.3,130.8,29.2z M106.9,28.2C107,28.2,107,28.2,106.9,28.2C107,28.2,107,28.2,106.9,28.2z M106.5,28c0,0.2,0.3,0.1,0.4,0.1C106.8,28.1,106.7,28,106.5,28z M96.9,28.1c0.5,0.1,1,0.1,1.4,0C97.8,28,97.4,27.9,96.9,28.1z M129.2,28c-0.1-0.1-0.2-0.2-0.3-0.2c0.2,0.3,0.4,0.7,0.7,1C129.5,28.6,129.1,28.3,129.2,28z M130.3,27.8l-1.1-0.2L130.3,27.8 L130.3,27.8z M98,27.6L98,27.6c0.3,0,0.5,0.2,0.7,0.1C98.6,27.5,98.2,27.7,98,27.6z M102.3,27.6l0.1,0.3L102.3,27.6 C102.4,27.6,102.4,27.5,102.3,27.6z M128.4,27.6c-0.2-0.1-0.3-0.2-0.5-0.2c0.3,0.4,0.3,0.9,0.7,1.2 C128.6,28.1,128.1,27.9,128.4,27.6z M98.3,27.2c0.1,0.1,0.4,0.2,0.6,0.1C98.7,27.1,98.5,27.2,98.3,27.2z M128.3,27.1v0.1h0.6 C128.7,27.2,128.5,27.1,128.3,27.1z M101.7,26.8l0.1,0.6C101.8,27.2,102,26.8,101.7,26.8z M99.2,26.8l-1.4-0.2l-0.1,0.1 C98.2,26.8,98.8,26.8,99.2,26.8C99.2,26.8,99.1,26.8,99.2,26.8z M127.1,26.5c0.2,0.3,0.9,0.3,1.2,0.2L127.1,26.5z M121.8,26.4 L121.8,26.4c0.4,0.2,0.8,0.4,1.4,0.3C122.7,26.7,122.3,26.4,121.8,26.4z M99.1,26.2c-0.1,0.1,0.3,0.2,0.4,0.1L99.1,26.2z M126.4,26.1v0.1h0.6L126.4,26.1z M97.8,25.8L97.8,25.8c0.6,0,1.2,0.3,1.8,0.2C99.1,25.7,98.5,25.7,97.8,25.8z M125.6,25.6 c0.1,0.3,0.5,0.1,0.6,0.1C126,25.6,125.8,25.5,125.6,25.6z M98.7,25.3l0.8,0.2v-0.1L98.7,25.3z M124.6,25.1c0.1,0.2,0.4,0.1,0.5,0.1 L124.6,25.1z M100.1,24.7c0,0.1,0.2,0.2,0.3,0.2v-0.1C100.3,24.7,100.2,24.7,100.1,24.7z M124.7,24.7c-0.3,0-0.7-0.2-0.9-0.1 C124,24.9,124.5,24.8,124.7,24.7L124.7,24.7z M98.7,24.5v0.1h0.4v-0.1H98.7z M123.1,24.1L123.1,24.1c0.1,0.1,0.3,0.1,0.3,0.1 L123.1,24.1z M98.4,24.2c0.2,0,0.4,0.1,0.6,0.1v-0.1C98.8,24,98.6,24.2,98.4,24.2z M114.4,23.7c0.2,0.2,0.8,0.3,1.1,0.3 C115.4,23.6,114.8,23.9,114.4,23.7z M122.4,23.7v0.1c0.2,0.1,0.5,0,0.7-0.1C122.9,23.8,122.7,23.6,122.4,23.7z M97.7,23.9l1.5-0.1 v-0.1C98.7,23.7,98.1,23.7,97.7,23.9z"></path> </svg> 