<?xml version="1.0" encoding="UTF-8"?> <svg xmlns="http://www.w3.org/2000/svg" xmlns:xlink="http://www.w3.org/1999/xlink" version="1.1" id="Layer_1" x="0px" y="0px" viewBox="0 0 180 60" style="enable-background:new 0 0 180 60;" xml:space="preserve"> <style type="text/css"> .st0{fill:#1A1918;} </style> <g> <polygon class="st0" points="90.5,18.7 98,37.2 86.7,28.3 "></polygon> <path class="st0" d="M90,1C74,1,61,14,61,30s13,29,29,29s29-13,29-29S106,1,90,1z M101.9,44.4c-0.6,0-1-0.2-1.6-0.7l-15-12.1 l-5,12.6H76l12.7-30.5c0.3-0.8,1-1.2,1.8-1.2s1.5,0.4,1.8,1.2l11.5,27.8c0.1,0.3,0.2,0.6,0.2,0.8C104,43.6,103,44.4,101.9,44.4z"></path> </g> </svg> 