<?xml version="1.0" encoding="UTF-8"?> <svg xmlns:cc="http://creativecommons.org/ns#" xmlns:svg="http://www.w3.org/2000/svg" xmlns:rdf="http://www.w3.org/1999/02/22-rdf-syntax-ns#" xmlns:dc="http://purl.org/dc/elements/1.1/" xmlns:sodipodi="http://sodipodi.sourceforge.net/DTD/sodipodi-0.dtd" xmlns:inkscape="http://www.inkscape.org/namespaces/inkscape" xmlns="http://www.w3.org/2000/svg" xmlns:xlink="http://www.w3.org/1999/xlink" version="1.1" id="svg3055" x="0px" y="0px" viewBox="0 0 180 60" style="enable-background:new 0 0 180 60;" xml:space="preserve"> <style type="text/css"> .st0{fill:url(#path7258_00000150790339281372113240000006415267050349271998_);} .st1{fill:none;} .st2{fill:#BE202E;} .st3{opacity:0.35;fill:#BE202E;enable-background:new ;} .st4{fill:url(#path7286_00000025410962281003376090000000667274867085222538_);} .st5{fill:url(#path7298_00000173157993380643881330000005620510799763790731_);} .st6{fill:url(#path7310_00000078016978262506611220000011431406582189120170_);} .st7{fill:url(#path7322_00000146482152653648365970000000523703986499651210_);} .st8{fill:url(#path7334_00000110456291051472109590000017574243184991205041_);} .st9{fill:url(#path7346_00000131331339741918324180000000535826981224844985_);} .st10{fill:url(#path7362_00000016767469271365304460000011883564780129290924_);} .st11{fill:url(#path7378_00000151522369902102359880000004240347478637403023_);} .st12{fill:url(#path7394_00000096026852526769956990000010302596892784608403_);} .st13{fill:#FFFFFF;} .st14{fill:url(#path4710_00000034066053111302228660000000950655255090151078_);} .st15{fill:url(#path4737_00000036209276144094168150000010461122501034706817_);} .st16{fill:url(#path4748_00000127752606217400955780000006795635211243100840_);} .st17{fill:url(#path4759_00000111882193465490706580000017342099260132697744_);} .st18{fill:url(#path4770_00000144335656257650518420000014850805197467057575_);} .st19{fill:url(#path4781_00000139264263873290632710000005707547151481917348_);} .st20{fill:url(#path4792_00000085250456486194713390000012909594153410723769_);} .st21{fill:url(#path4807_00000106149213357798912340000008518044635532223661_);} .st22{fill:url(#path4822_00000125601799153477453470000013920940991323046831_);} .st23{fill:url(#path4837_00000070820587456742490720000003861750603525765524_);} </style> <g id="g4845" transform="translate(385.61463,-191.53704)"> </g> <g id="g4847" transform="translate(385.61463,-191.53704)"> </g> <g id="g4849" transform="translate(385.61463,-191.53704)"> </g> <g id="g4851" transform="translate(385.61463,-191.53704)"> </g> <g id="g4853" transform="translate(385.61463,-191.53704)"> </g> <g id="g7248" transform="matrix(0.09561334,-0.07017507,0.07017507,0.09561334,132.73733,36.368381)"> <linearGradient id="path7258_00000127015393195180748970000017626239271358004116_" gradientUnits="userSpaceOnUse" x1="-130825" y1="-88773.6484" x2="-130786.6562" y2="-88818.4922" gradientTransform="matrix(0.104 -5.699813e-02 -5.699813e-02 -0.104 8295.0176 -17043.3184)"> <stop offset="0" style="stop-color:#F69923"></stop> <stop offset="0.3123" style="stop-color:#F79A23"></stop> <stop offset="0.8383" style="stop-color:#E97826"></stop> </linearGradient> <path id="path7258" style="fill:url(#path7258_00000127015393195180748970000017626239271358004116_);" d="M-238.5-375.2 c-4.3,2.5-11.4,9.6-19.8,19.9l7.8,14.7c5.4-7.8,11-14.8,16.6-20.8c0.4-0.5,0.7-0.7,0.7-0.7c-0.2,0.3-0.5,0.5-0.7,0.7 c-1.8,2-7.3,8.4-15.6,21.1c8-0.4,20.2-2,30.2-3.8c3-16.6-2.9-24.2-2.9-24.2S-229.7-380.5-238.5-375.2z"></path> <path id="path7260" class="st1" d="M-251.7-291.7c0.1,0,0.1,0,0.2-0.1l-1.1,0.1c-0.1,0.1-0.2,0.1-0.2,0.1 C-252.4-291.6-252-291.7-251.7-291.7z"></path> <path id="path7262" class="st1" d="M-259.6-265.5c-0.6,0.2-1.3,0.3-1.9,0.4C-260.8-265.2-260.2-265.3-259.6-265.5z"></path> <path id="path7264" class="st1" d="M-313.4-206.6c0.1-0.2,0.2-0.5,0.3-0.7c1.7-4.5,3.4-8.9,5.1-13.2c1.9-4.8,3.8-9.4,5.6-13.9 c1.9-4.7,3.9-9.3,5.7-13.7c2-4.7,3.9-9.1,5.8-13.4c1.6-3.5,3.1-6.9,4.6-10.2c0.5-1.1,1-2.2,1.5-3.2c1-2.1,2-4.2,2.9-6.2 c0.9-1.9,1.8-3.7,2.6-5.5c0.3-0.6,0.6-1.2,0.9-1.8c0.1-0.1,0.1-0.2,0.2-0.3l-1,0.1l-0.8-1.5c-0.1,0.2-0.2,0.3-0.2,0.5 c-1.4,2.7-2.7,5.4-4.1,8.2c-0.8,1.6-1.5,3.2-2.3,4.8c-2.1,4.5-4.2,8.9-6.2,13.5c-2.1,4.6-4.1,9.2-6.1,13.7c-2,4.5-3.9,9-5.7,13.5 c-1.9,4.5-3.7,9-5.5,13.4c-1.9,4.7-3.7,9.3-5.4,13.8c-0.4,1-0.8,2.1-1.2,3.1c-1.4,3.7-2.8,7.3-4.1,10.9l1.2,2.4l1.1-0.1 c0.1-0.1,0.1-0.2,0.1-0.3C-316.8-197.6-315.1-202.2-313.4-206.6z"></path> <path id="path7266" class="st1" d="M-262-265.1L-262-265.1L-262-265.1L-262-265.1z"></path> <path id="path7268" class="st2" d="M-264.6-252.3c-1,0.2-2,0.4-3,0.5l0,0c0.5-0.1,1.1-0.2,1.6-0.3 C-265.6-252.1-265-252.2-264.6-252.3z"></path> <path id="path7270" class="st3" d="M-264.6-252.3c-1,0.2-2,0.4-3,0.5l0,0c0.5-0.1,1.1-0.2,1.6-0.3 C-265.6-252.1-265-252.2-264.6-252.3z"></path> <path id="path7272" class="st2" d="M-262-265.1L-262-265.1C-262-265.1-262-265.1-262-265.1c0.2,0,0.3-0.1,0.5-0.1 c0.7-0.1,1.3-0.2,1.9-0.4C-260.3-265.3-261.1-265.2-262-265.1L-262-265.1L-262-265.1z"></path> <path id="path7274" class="st3" d="M-262-265.1L-262-265.1C-262-265.1-262-265.1-262-265.1c0.2,0,0.3-0.1,0.5-0.1 c0.7-0.1,1.3-0.2,1.9-0.4C-260.3-265.3-261.1-265.2-262-265.1L-262-265.1L-262-265.1z"></path> <linearGradient id="path7286_00000140733875771860987280000000506704880017212315_" gradientUnits="userSpaceOnUse" x1="-132779.4062" y1="-90155.0703" x2="-132505.8125" y2="-90155.0703" gradientTransform="matrix(0.104 -5.699813e-02 -5.699813e-02 -0.104 8295.0176 -17043.3184)"> <stop offset="0.3233" style="stop-color:#9E2064"></stop> <stop offset="0.6302" style="stop-color:#C92037"></stop> <stop offset="0.7514" style="stop-color:#CD2335"></stop> <stop offset="1" style="stop-color:#E97826"></stop> </linearGradient> <path id="path7286" style="fill:url(#path7286_00000140733875771860987280000000506704880017212315_);" d="M-273.4-302.9 c2.4-4.4,4.8-8.7,7.1-12.9c2.5-4.4,5-8.6,7.6-12.7c0.2-0.3,0.3-0.5,0.5-0.7c2.5-4,5.1-7.9,7.7-11.6l-7.8-14.6 c-0.6,0.7-1.2,1.4-1.8,2.2c-2.2,2.8-4.6,5.8-6.9,9c-2.7,3.6-5.4,7.4-8.3,11.4c-2.6,3.7-5.2,7.6-7.9,11.6c-2.2,3.4-4.5,6.9-6.7,10.5 c-0.1,0.2-0.2,0.3-0.3,0.4l10.1,19.9C-277.8-294.5-275.6-298.7-273.4-302.9z"></path> <linearGradient id="path7298_00000013166323493026345840000003627300247159559060_" gradientUnits="userSpaceOnUse" x1="-132417.75" y1="-90177.2031" x2="-132254.7188" y2="-90177.2031" gradientTransform="matrix(0.104 -5.699813e-02 -5.699813e-02 -0.104 8295.0176 -17043.3184)"> <stop offset="0" style="stop-color:#282662"></stop> <stop offset="9.548389e-02" style="stop-color:#662E8D"></stop> <stop offset="0.7882" style="stop-color:#9F2064"></stop> <stop offset="0.9487" style="stop-color:#CD2032"></stop> </linearGradient> <path id="path7298" style="fill:url(#path7298_00000013166323493026345840000003627300247159559060_);" d="M-319.4-190.5 c-1.3,3.7-2.7,7.4-4,11.3c0,0.1-0.1,0.1-0.1,0.2c-0.2,0.6-0.4,1.1-0.6,1.6c-0.9,2.6-1.7,4.9-3.5,10.2c3,1.4,5.4,4.9,7.6,9 c-0.3-4.2-2-8.2-5.3-11.2c14.7,0.7,27.3-3,33.8-13.8c0.6-1,1.1-2,1.6-3c-3,3.8-6.6,5.4-13.6,5h-0.1h0.1c10.2-4.6,15.3-9,19.8-16.2 c1.1-1.7,2.1-3.6,3.2-5.7c-8.9,9.2-19.3,11.8-30.2,9.8l-8.2,0.9C-318.9-191.8-319.1-191.2-319.4-190.5z"></path> <linearGradient id="path7310_00000023959678432406401740000013418802757456933780_" gradientUnits="userSpaceOnUse" x1="-132687.5625" y1="-90061.2344" x2="-132413.9688" y2="-90061.2344" gradientTransform="matrix(0.104 -5.699813e-02 -5.699813e-02 -0.104 8295.0176 -17043.3184)"> <stop offset="0.3233" style="stop-color:#9E2064"></stop> <stop offset="0.6302" style="stop-color:#C92037"></stop> <stop offset="0.7514" style="stop-color:#CD2335"></stop> <stop offset="1" style="stop-color:#E97826"></stop> </linearGradient> <path id="path7310" style="fill:url(#path7310_00000023959678432406401740000013418802757456933780_);" d="M-315.6-208.8 c1.8-4.6,3.6-9.2,5.4-13.8c1.8-4.5,3.6-8.9,5.5-13.4c1.9-4.5,3.8-9,5.7-13.5c2-4.6,4-9.2,6.1-13.7c2-4.5,4.2-9,6.2-13.5 c0.8-1.6,1.5-3.2,2.3-4.8c1.3-2.7,2.7-5.5,4.1-8.2c0.1-0.2,0.2-0.3,0.2-0.5l-10-19.9c-0.2,0.3-0.3,0.6-0.5,0.8 c-2.3,3.9-4.7,7.8-7,11.8c-2.3,4.1-4.6,8.2-6.8,12.4c-1.9,3.5-3.7,7.1-5.5,10.7c-0.4,0.7-0.7,1.5-1.1,2.2c-2.2,4.5-4.2,8.9-6,13.1 c-2,4.8-3.8,9.3-5.4,13.6c-1,2.8-2,5.6-2.8,8.2c-0.7,2.2-1.4,4.5-2,6.7c-1.5,5.3-2.8,10.5-3.9,15.8l10.1,20 c1.3-3.6,2.7-7.2,4.1-10.9C-316.4-206.7-316-207.7-315.6-208.8z"></path> <linearGradient id="path7322_00000151521082443605480070000004396992306441091502_" gradientUnits="userSpaceOnUse" x1="-132533.2344" y1="-89987.1641" x2="-132389.4531" y2="-89987.1641" gradientTransform="matrix(0.104 -5.699813e-02 -5.699813e-02 -0.104 8295.0176 -17043.3184)"> <stop offset="0" style="stop-color:#282662"></stop> <stop offset="9.548389e-02" style="stop-color:#662E8D"></stop> <stop offset="0.7882" style="stop-color:#9F2064"></stop> <stop offset="0.9487" style="stop-color:#CD2032"></stop> </linearGradient> <path id="path7322" style="fill:url(#path7322_00000151521082443605480070000004396992306441091502_);" d="M-331.2-214.1 c-1.3,6.4-2.2,12.8-2.6,19.2c0,0.2-0.1,0.5-0.1,0.7c-3.1-5.1-11.7-10-11.6-10c6.1,8.8,10.7,17.5,11.4,26.1 c-3.2,0.7-7.7-0.3-12.8-2.2c5.4,4.9,9.4,6.3,11,6.6c-4.9,0.3-10,3.7-15.2,7.6c7.6-3.1,13.7-4.3,18-3.3 c-6.9,19.6-13.9,41.3-20.8,64.3c2.1-0.6,3.4-2.1,4.1-4c1.2-4.2,9.5-31.5,22.4-67.5c0.4-1,0.8-2,1.1-3.1c0.1-0.3,0.2-0.6,0.3-0.9 c1.4-3.8,2.8-7.6,4.3-11.6c0.4-0.9,0.7-1.8,1-2.7v-0.1l-10.1-20C-331.1-214.5-331.2-214.3-331.2-214.1z"></path> <linearGradient id="path7334_00000169551124847978888710000003069505002294079655_" gradientUnits="userSpaceOnUse" x1="-132546.3125" y1="-90253.6875" x2="-132272.7188" y2="-90253.6875" gradientTransform="matrix(0.104 -5.699813e-02 -5.699813e-02 -0.104 8295.0176 -17043.3184)"> <stop offset="0.3233" style="stop-color:#9E2064"></stop> <stop offset="0.6302" style="stop-color:#C92037"></stop> <stop offset="0.7514" style="stop-color:#CD2335"></stop> <stop offset="1" style="stop-color:#E97826"></stop> </linearGradient> <path id="path7334" style="fill:url(#path7334_00000169551124847978888710000003069505002294079655_);" d="M-278.4-288.6 c-0.3,0.6-0.6,1.2-0.9,1.8c-0.9,1.8-1.8,3.7-2.6,5.5c-1,2-1.9,4.1-2.9,6.2c-0.5,1.1-1,2.1-1.5,3.2c-1.5,3.3-3,6.7-4.6,10.2 c-1.9,4.3-3.9,8.8-5.8,13.4c-1.9,4.4-3.8,9-5.7,13.7c-1.8,4.5-3.7,9.1-5.6,13.9c-1.7,4.3-3.3,8.7-5.1,13.2 c-0.1,0.2-0.2,0.5-0.3,0.7c-1.7,4.5-3.4,9.1-5.1,13.8c-0.1,0.1-0.1,0.2-0.1,0.3l8.2-0.9c-0.2-0.1-0.3-0.1-0.5-0.1 c9.8-1.2,22.8-8.5,31.1-17.5c3.9-4.2,7.4-9,10.6-14.8c2.4-4.3,4.7-9,6.8-14.2c1.9-4.6,3.7-9.5,5.4-14.9c-2.2,1.2-4.8,2-7.7,2.6 c-0.5,0.1-1,0.2-1.5,0.3s-1,0.2-1.6,0.3l0,0l0,0l0,0c9.1-3.5,14.9-10.2,19-18.6c-2.4,1.6-6.3,3.8-11,4.8c-0.6,0.2-1.3,0.3-1.9,0.4 c-0.2,0-0.3,0.1-0.5,0.1l0,0l0,0l0,0l0,0l0,0c3.1-1.3,5.8-2.8,8.2-4.6c0.5-0.4,1-0.8,1.4-1.2c0.7-0.6,1.4-1.3,2-1.9 c0.4-0.5,0.8-0.9,1.2-1.3c0.9-1.1,1.8-2.2,2.5-3.5c0.3-0.4,0.5-0.8,0.7-1.2c0.3-0.6,0.6-1.2,0.9-1.7c1.3-2.5,2.3-4.8,3.1-6.8 c0.4-1,0.8-1.9,1.1-2.8c0.1-0.4,0.3-0.7,0.4-1c0.3-1,0.6-1.8,0.8-2.6c0.3-1.1,0.5-2,0.6-2.7l0,0l0,0c-0.3,0.3-0.7,0.5-1.1,0.7 c-2.7,1.6-7.5,3.1-11.3,3.9l7.5-0.8l-7.5,0.8c-0.1,0-0.1,0-0.2,0.1c-0.4,0.1-0.8,0.1-1.2,0.2c0.1-0.1,0.2-0.1,0.2-0.1l-25.7,2.8 C-278.3-288.7-278.3-288.6-278.4-288.6z"></path> <linearGradient id="path7346_00000033342071656362136380000001869178170114819462_" gradientUnits="userSpaceOnUse" x1="-132668.5312" y1="-90329.0312" x2="-132394.9375" y2="-90329.0312" gradientTransform="matrix(0.104 -5.699813e-02 -5.699813e-02 -0.104 8295.0176 -17043.3184)"> <stop offset="0.3233" style="stop-color:#9E2064"></stop> <stop offset="0.6302" style="stop-color:#C92037"></stop> <stop offset="0.7514" style="stop-color:#CD2335"></stop> <stop offset="1" style="stop-color:#E97826"></stop> </linearGradient> <path id="path7346" style="fill:url(#path7346_00000033342071656362136380000001869178170114819462_);" d="M-249.5-340.4 c-2.3,3.5-4.8,7.5-7.5,12c-0.2,0.3-0.3,0.5-0.4,0.7c-2.3,3.9-4.8,8.2-7.4,12.9c-2.2,4.1-4.6,8.4-7,13.1c-2.1,4.1-4.3,8.4-6.5,12.9 l25.7-2.8c7.5-3.4,10.8-6.5,14-11.1c0.9-1.2,1.7-2.5,2.6-3.9c2.6-4.1,5.2-8.6,7.5-13.1c2.2-4.4,4.2-8.7,5.7-12.5 c1-2.5,1.7-4.8,2.3-6.8c0.5-1.8,0.8-3.4,1.1-5.1C-229.3-342.4-241.5-340.8-249.5-340.4z"></path> <path id="path7348" class="st2" d="M-266.1-252c-0.5,0.1-1,0.2-1.6,0.3l0,0C-267.1-251.8-266.6-251.9-266.1-252z"></path> <path id="path7350" class="st3" d="M-266.1-252c-0.5,0.1-1,0.2-1.6,0.3l0,0C-267.1-251.8-266.6-251.9-266.1-252z"></path> <linearGradient id="path7362_00000080171337146991671380000015932006303349136014_" gradientUnits="userSpaceOnUse" x1="-132504.0156" y1="-90311.3359" x2="-132230.4219" y2="-90311.3359" gradientTransform="matrix(0.104 -5.699813e-02 -5.699813e-02 -0.104 8295.0176 -17043.3184)"> <stop offset="0.3233" style="stop-color:#9E2064"></stop> <stop offset="0.6302" style="stop-color:#C92037"></stop> <stop offset="0.7514" style="stop-color:#CD2335"></stop> <stop offset="1" style="stop-color:#E97826"></stop> </linearGradient> <path id="path7362" style="fill:url(#path7362_00000080171337146991671380000015932006303349136014_);" d="M-266.1-252 c-0.5,0.1-1,0.2-1.6,0.3l0,0C-267.1-251.8-266.6-251.9-266.1-252z"></path> <path id="path7364" class="st2" d="M-262-265.1c0.2,0,0.3-0.1,0.5-0.1C-261.7-265.1-261.8-265.1-262-265.1L-262-265.1z"></path> <path id="path7366" class="st3" d="M-262-265.1c0.2,0,0.3-0.1,0.5-0.1C-261.7-265.1-261.8-265.1-262-265.1L-262-265.1z"></path> <linearGradient id="path7378_00000114062046003273184380000001036043526545836458_" gradientUnits="userSpaceOnUse" x1="-132508.9844" y1="-90304.5703" x2="-132235.375" y2="-90304.5703" gradientTransform="matrix(0.104 -5.699813e-02 -5.699813e-02 -0.104 8295.0176 -17043.3184)"> <stop offset="0.3233" style="stop-color:#9E2064"></stop> <stop offset="0.6302" style="stop-color:#C92037"></stop> <stop offset="0.7514" style="stop-color:#CD2335"></stop> <stop offset="1" style="stop-color:#E97826"></stop> </linearGradient> <path id="path7378" style="fill:url(#path7378_00000114062046003273184380000001036043526545836458_);" d="M-262-265.1 c0.2,0,0.3-0.1,0.5-0.1C-261.7-265.1-261.8-265.1-262-265.1L-262-265.1z"></path> <path id="path7380" class="st2" d="M-262-265.1L-262-265.1L-262-265.1L-262-265.1L-262-265.1L-262-265.1z"></path> <path id="path7382" class="st3" d="M-262-265.1L-262-265.1L-262-265.1L-262-265.1L-262-265.1L-262-265.1z"></path> <linearGradient id="path7394_00000108993956335469591340000002763988877532918932_" gradientUnits="userSpaceOnUse" x1="-131259.7656" y1="-89385.9062" x2="-131259.7656" y2="-89385.9062" gradientTransform="matrix(0.104 -5.699813e-02 -5.699813e-02 -0.104 8295.0176 -17043.3184)"> <stop offset="0.3233" style="stop-color:#9E2064"></stop> <stop offset="0.6302" style="stop-color:#C92037"></stop> <stop offset="0.7514" style="stop-color:#CD2335"></stop> <stop offset="1" style="stop-color:#E97826"></stop> </linearGradient> <path id="path7394" style="fill:url(#path7394_00000108993956335469591340000002763988877532918932_);" d="M-262-265.1L-262-265.1 L-262-265.1L-262-265.1L-262-265.1L-262-265.1z"></path> </g> <path id="path4317" class="st13" d="M14.6,8.7h6.6c0.5,0,1.1,0,1.6,0c0.6,0,1,0.1,1.2,0.4c0.2,0.2,0.3,0.4,0.4,0.8 c0,0.3,0.1,0.6,0.2,0.9c0.1,0.5,0.1,1.1,0.2,1.7c0.1,0.5,0.2,1.1,0.3,1.7c0.4,2.1,0.7,4.3,0.9,6.5c0.3,2.2,0.6,4.4,1,6.5 c0.1,0.7,0.2,1.4,0.3,2.1c0.1,0.7,0.2,1.4,0.3,2.1c0,0.2,0.1,0.3,0.1,0.5c0,0.2,0.1,0.3,0.3,0.4c0.1,0,0.1,0.1,0.2,0.1 c0.1,0,0.2,0,0.3-0.1c0.3-0.1,0.5-0.3,0.7-0.6c0.2-0.3,0.3-0.6,0.5-0.9c0.4-0.8,0.8-1.5,1.2-2.3c0.4-0.8,0.8-1.6,1.2-2.3 c1.1-2.1,2.2-4.1,3.2-6.2c1.1-2.1,2.2-4.2,3.3-6.3c0.3-0.5,0.5-1.1,0.8-1.6c0.3-0.5,0.6-1.1,0.9-1.6c0.1-0.3,0.3-0.5,0.5-0.8 s0.4-0.5,0.7-0.7c0.2-0.2,0.5-0.3,0.8-0.3c0.3,0,0.7,0,1,0h3.3h3.5c0.3,0,0.6,0,0.9,0c0.3,0,0.6,0.1,0.7,0.2 c0.3,0.2,0.4,0.6,0.3,1.2c-0.1,0.5-0.2,1.1-0.3,1.7l-1.5,7.6l-3.8,18.9l-0.9,4.4c-0.1,0.4-0.2,0.7-0.3,1.1c-0.1,0.3-0.3,0.6-0.5,0.8 c-0.2,0.2-0.5,0.3-0.8,0.3c-0.3,0-0.6,0-1,0h-2.4h-1.4c-0.2-0.1-0.5-0.1-0.7-0.2c-0.2,0-0.3-0.2-0.4-0.4c-0.1-0.2-0.1-0.4-0.1-0.7 c0.1-0.3,0.1-0.6,0.2-0.9l0.5-2.6l2.6-13c0.1-0.5,0.1-0.9,0.2-1.3c0.1-0.4,0.2-0.9,0.3-1.3c0.1-0.3,0.1-0.5,0.2-0.8 c0.1-0.3,0.1-0.6,0.1-0.9c0-0.2,0-0.5,0-0.8c0.1-0.3,0-0.4-0.2-0.5c-0.1,0-0.2,0-0.3,0.1c-0.1,0.1-0.1,0.1-0.2,0.2 c-0.2,0.1-0.3,0.3-0.5,0.5c-0.1,0.2-0.2,0.3-0.3,0.5c-0.3,0.5-0.6,1-0.9,1.6c-0.3,0.5-0.6,1.1-0.9,1.6c-0.1,0.2-0.2,0.4-0.3,0.6 c-0.1,0.2-0.2,0.4-0.3,0.6c-0.3,0.4-0.5,0.9-0.8,1.3c-0.2,0.4-0.4,0.9-0.7,1.3c-0.1,0.1-0.1,0.2-0.2,0.4c0,0.1-0.1,0.2-0.2,0.3 c-0.2,0.3-0.4,0.6-0.6,1c-0.1,0.3-0.3,0.7-0.6,1c-0.2,0.3-0.4,0.6-0.6,1c-0.1,0.3-0.3,0.7-0.5,1c-0.6,1-1.2,2-1.7,3 c-0.5,1-1,2-1.6,2.9c-0.1,0.1-0.2,0.2-0.2,0.3c0,0.1-0.1,0.2-0.2,0.3c-0.2,0.4-0.5,0.8-0.7,1.2c-0.2,0.4-0.4,0.7-0.6,1.1 c-0.1,0.2-0.3,0.5-0.4,0.7c-0.1,0.2-0.3,0.4-0.5,0.5c-0.2,0.1-0.4,0.2-0.6,0.3c-0.2,0-0.4,0-0.7,0.1H26c-0.2,0-0.5,0-0.9,0.1 c-0.3,0-0.6,0-1,0c-0.3,0-0.6,0-0.9-0.1s-0.5-0.1-0.6-0.2c-0.2-0.2-0.4-0.4-0.5-0.6c0-0.2-0.1-0.5-0.2-0.8C22,42.8,22,42.4,22,42 c0-0.4-0.1-0.9-0.2-1.3l-0.1-0.5c-0.1-0.4-0.2-0.8-0.2-1.3c0-0.5-0.1-0.9-0.2-1.3c0-0.1,0-0.2,0-0.3c0-0.1,0-0.2-0.1-0.3 c-0.1-0.3-0.2-0.6-0.2-1c0-0.3-0.1-0.7-0.2-1c0-0.1,0-0.2,0-0.3c0-0.1,0-0.2-0.1-0.3c-0.1-0.3-0.1-0.7-0.2-1c0-0.3-0.1-0.7-0.2-1 c-0.1-0.7-0.3-1.4-0.4-2.1c-0.1-0.7-0.2-1.5-0.3-2.2c-0.1-0.8-0.3-1.7-0.4-2.6c-0.1-0.9-0.2-1.7-0.5-2.5c-0.1-0.5-0.2-0.9-0.3-1.2 c-0.1-0.1-0.1-0.1-0.2-0.2c0-0.1-0.1-0.1-0.2,0c-0.2,0.1-0.3,0.3-0.4,0.5c0,0.2-0.1,0.5-0.2,0.7c-0.1,0.2-0.2,0.5-0.3,0.8 c0,0.2-0.1,0.5-0.1,0.8c-0.1,0.4-0.2,0.7-0.3,1.1c-0.1,0.4-0.2,0.7-0.3,1.1l-2.7,13.5l-0.5,2.5c-0.1,0.3-0.1,0.5-0.2,0.8 c0,0.3-0.1,0.5-0.3,0.7c-0.2,0.2-0.5,0.4-0.9,0.5c-0.2,0.1-0.5,0.1-0.8,0.1c-0.3,0-0.5-0.1-0.8-0.1H8.1c-0.4,0-0.7,0-1,0 c-0.3,0-0.5-0.1-0.7-0.3c-0.2-0.2-0.2-0.4-0.2-0.8c0.1-0.4,0.1-0.7,0.2-1.1l0.9-4.5l3.8-18.9l1.4-7.1c0-0.2,0.1-0.4,0.1-0.7 c0.1-0.3,0.1-0.6,0.2-0.9c0.1-0.3,0.1-0.5,0.2-0.8c0.1-0.3,0.2-0.5,0.3-0.6c0.2-0.2,0.5-0.4,0.9-0.5c0.1,0,0.2,0,0.2,0 C14.4,8.8,14.5,8.8,14.6,8.7L14.6,8.7z"></path> <path id="path4319" class="st13" d="M75.2,42.8c0,0.4,0,0.7-0.1,1.1c-0.1,0.4-0.3,0.6-0.7,0.8c-0.2,0.1-0.5,0.2-0.8,0.2 c-0.3,0-0.5,0-0.8,0h-2.7c-0.3,0-0.6,0-0.9,0c-0.3,0-0.5-0.1-0.6-0.3c-0.2-0.1-0.3-0.3-0.4-0.6c-0.1-0.3-0.2-0.5-0.4-0.7 c-0.1-0.1-0.2-0.1-0.3-0.2c-0.1-0.1-0.2-0.1-0.4-0.1c-0.2,0.1-0.4,0.2-0.6,0.3s-0.3,0.2-0.5,0.3c-0.2,0.1-0.4,0.3-0.7,0.4 c-0.2,0.1-0.4,0.2-0.7,0.3c-0.5,0.2-1,0.4-1.5,0.5c-0.5,0.1-1,0.2-1.5,0.4c-0.3,0.1-0.5,0.1-0.8,0.1c-0.2,0-0.4,0.1-0.7,0.1 c-0.1,0-0.2,0-0.3,0c-0.1,0-0.2,0.1-0.3,0.1h-0.6c-0.4,0.1-0.7,0.1-1,0h-0.5c-0.2-0.1-0.5-0.1-0.7-0.1c-0.2,0-0.4,0-0.6-0.1 c-0.3-0.1-0.6-0.1-0.9-0.2c-0.3,0-0.6-0.1-0.8-0.3c-0.9-0.4-1.7-0.8-2.2-1.4c-0.6-0.6-1-1.4-1.2-2.4c-0.1-0.2-0.1-0.5-0.2-0.8 c0-0.3,0-0.6-0.1-0.9c0-0.2,0-0.3,0-0.5c0.1-0.2,0.1-0.3,0.1-0.5c0-0.1,0-0.3,0.1-0.6c0.1-0.3,0.1-0.6,0.2-0.7 c0.1-0.3,0.2-0.6,0.3-0.9c0.2-0.4,0.3-0.7,0.5-1.1c0.2-0.4,0.4-0.8,0.7-1.1c0.7-1,1.5-1.7,2.4-2.2c0.8-0.5,1.9-0.9,3.1-1.3 c0.5-0.2,0.9-0.3,1.4-0.4c0.5-0.1,1-0.2,1.5-0.3c0.3-0.1,0.6-0.1,0.9-0.1c0.3,0,0.7-0.1,1-0.2c0.2-0.1,0.5-0.1,0.7-0.1 c0.2,0,0.5,0,0.8-0.1c0.2-0.1,0.5-0.1,0.7-0.1s0.5,0,0.8-0.1c0.7-0.2,1.4-0.3,2-0.4c0.6-0.1,1.3-0.4,1.8-0.9c0.3-0.3,0.6-0.6,0.8-1 c0-0.1,0.1-0.2,0.1-0.3c0-0.1,0-0.1,0.1-0.2c0.1-0.1,0.1-0.2,0.1-0.3c0-0.1,0.1-0.2,0.1-0.3c0-0.1,0-0.3,0-0.4c0-0.1,0-0.3,0-0.4 c-0.1-1-0.7-1.7-1.7-2.1c-0.3-0.1-0.6-0.2-1.1-0.2c-0.4-0.1-0.8-0.1-1.3-0.1c-0.4,0-0.9,0-1.3,0.1c-0.4,0.1-0.8,0.2-1.1,0.3 c-0.2,0.1-0.5,0.2-0.7,0.3c-0.2,0.1-0.4,0.2-0.6,0.4s-0.4,0.3-0.7,0.6c-0.2,0.2-0.4,0.5-0.5,0.7c-0.2,0.3-0.4,0.7-0.6,1 s-0.5,0.5-0.9,0.6c-0.3,0.1-0.6,0.1-0.9,0.1s-0.6,0-0.9,0h-1.9c-0.2,0-0.4,0-0.6,0.1c-0.2,0-0.3,0-0.4-0.1h-0.5 c-0.1,0-0.2-0.1-0.3-0.1c-0.1,0-0.2,0-0.3-0.1c-0.2-0.1-0.4-0.3-0.4-0.7c0-0.2,0-0.3,0.1-0.5c0.1-0.2,0.1-0.3,0.2-0.5 c0.2-0.4,0.3-0.7,0.5-1c0.2-0.3,0.4-0.6,0.6-0.9c0.1-0.2,0.3-0.3,0.4-0.5s0.3-0.3,0.4-0.5c0.3-0.4,0.7-0.7,1.2-1.1 c0.1,0,0.2-0.1,0.4-0.3c0.2-0.1,0.4-0.3,0.5-0.4c0.2-0.1,0.4-0.2,0.6-0.3c0.6-0.4,1.3-0.7,2-0.9c0.7-0.2,1.4-0.5,2.1-0.7 c0.4-0.1,0.9-0.2,1.3-0.2c0.4,0,0.9-0.1,1.4-0.2c0.1,0,0.3,0,0.6,0c0.3,0,0.5,0,0.6-0.1c1.4,0,2.7,0,3.9,0.2 c1.3,0.1,2.3,0.4,3.3,0.8c1,0.4,1.8,0.9,2.4,1.5c0.6,0.6,1.1,1.4,1.3,2.4c0.1,0.6,0.1,1.2,0,2c-0.1,0.7-0.2,1.5-0.4,2.3l-2.3,11.3 c-0.1,0.6-0.2,1.3-0.4,2c-0.1,0.6-0.2,1.2-0.2,1.8c0,0.1,0,0.2-0.1,0.4C75.2,42.6,75.2,42.7,75.2,42.8L75.2,42.8z M69.3,35 c0.1-0.2,0.1-0.4,0.2-0.6c0-0.2,0.1-0.4,0.1-0.6c0-0.2,0-0.4,0.1-0.6c0-0.2,0-0.3-0.2-0.4c-0.1-0.1-0.4-0.2-0.7-0.2 c-0.1,0-0.3,0.1-0.4,0.1c-0.1,0-0.2,0-0.4,0.1c-0.2,0.1-0.5,0.1-0.8,0.2c-0.3,0-0.6,0.1-0.9,0.2c-0.1,0-0.3,0.1-0.5,0.1 c-0.5,0.1-0.9,0.2-1.4,0.2c-0.4,0-0.9,0.1-1.3,0.3c-0.3,0.1-0.5,0.1-0.8,0.2c-0.2,0-0.5,0.1-0.7,0.2c-0.8,0.3-1.5,0.8-2.1,1.4 s-1,1.5-1.1,2.5c0,0.6,0.1,1,0.3,1.4c0.1,0.4,0.4,0.7,0.9,0.9c0.4,0.2,0.9,0.4,1.5,0.5c0.5,0.1,1.1,0.1,1.7,0.1 c0.6-0.1,1.3-0.2,1.8-0.4c0.9-0.3,1.7-0.7,2.3-1.3c0.6-0.6,1.2-1.4,1.6-2.2c0.1-0.2,0.2-0.5,0.3-0.7c0.1-0.3,0.2-0.5,0.3-0.8 L69.3,35L69.3,35z"></path> <path id="path4321" class="st1" d="M84.4,18.7h3.7c0.4,0,0.7,0,1.1,0.1c0.3,0,0.6,0.1,0.8,0.2c0.3,0.2,0.5,0.7,0.5,1.3 c0,0.6,0.1,1.1,0.2,1.6c0.1,1.1,0.3,2.3,0.4,3.4c0.1,1.1,0.2,2.3,0.4,3.4c0.1,0.8,0.2,1.6,0.3,2.5c0.1,0.8,0.2,1.7,0.3,2.4 c0,0.3,0.1,0.6,0.1,1c0.1,0.3,0.3,0.5,0.7,0.5c0.1-0.1,0.2-0.1,0.2-0.1c0,0,0.1-0.1,0.2-0.2c0.1-0.2,0.3-0.3,0.4-0.5 c0.1-0.2,0.2-0.4,0.3-0.6c0.3-0.4,0.5-0.8,0.6-1.2c0.2-0.4,0.4-0.8,0.6-1.2c0.7-1.4,1.5-2.8,2.2-4.3c0.7-1.5,1.4-2.9,2.2-4.3 c0.3-0.4,0.5-0.8,0.7-1.2c0.2-0.4,0.4-0.8,0.6-1.2c0.1-0.3,0.3-0.5,0.4-0.8c0.2-0.3,0.4-0.5,0.6-0.7c0.1-0.1,0.3-0.2,0.7-0.3 c0.2-0.1,0.4-0.1,0.7-0.1c0.2,0,0.5,0,0.7,0h2.5c0.4,0,0.7,0,1,0.1c0.3,0,0.6,0.1,0.7,0.3c0.2,0.2,0.2,0.4,0.1,0.8 c-0.1,0.3-0.2,0.6-0.3,0.8c-0.3,0.5-0.5,1-0.8,1.5c-0.3,0.5-0.5,1-0.8,1.5c-0.1,0.2-0.3,0.5-0.4,0.7c-0.1,0.2-0.2,0.4-0.3,0.6 c-0.2,0.4-0.5,0.7-0.7,1.1c-0.2,0.4-0.4,0.7-0.6,1.1c0,0.1-0.1,0.2-0.2,0.4c0,0.1-0.1,0.2-0.2,0.3c-0.3,0.5-0.6,1-0.9,1.6 c-0.3,0.5-0.5,1-0.8,1.5c-0.6,1-1.1,2.1-1.7,3.1c-0.5,1-1.1,2.1-1.7,3.1c-0.3,0.5-0.5,0.9-0.8,1.4c-0.2,0.4-0.4,0.9-0.7,1.4 c-0.1,0.2-0.2,0.3-0.3,0.5c-0.1,0.1-0.2,0.2-0.3,0.4c-0.2,0.4-0.4,0.8-0.6,1.2c-0.2,0.4-0.4,0.7-0.6,1.1c-0.2,0.4-0.5,0.7-0.7,1.1 c-0.2,0.3-0.5,0.5-0.9,0.7c-0.3,0.1-0.6,0.2-0.9,0.2c-0.3,0-0.6-0.1-0.9-0.1h-3.3c-0.4,0-0.7,0-1.1,0c-0.3,0-0.6-0.1-0.9-0.2 c-0.2-0.2-0.3-0.4-0.4-0.6c0-0.3-0.1-0.6-0.1-0.9c-0.1-0.4-0.2-0.8-0.3-1.3c0-0.4-0.1-0.9-0.2-1.3c0-0.1-0.1-0.3-0.1-0.4 c0-0.1,0-0.3-0.1-0.5c-0.1-0.4-0.2-0.8-0.2-1.3c0-0.4-0.1-0.9-0.2-1.3c0-0.2-0.1-0.3-0.1-0.5c0-0.2,0-0.3-0.1-0.5 c-0.1-0.3-0.1-0.6-0.2-0.9c0-0.3-0.1-0.7-0.2-1c0-0.1-0.1-0.2-0.1-0.3c0-0.1,0-0.3,0-0.4c-0.1-0.3-0.1-0.6-0.2-0.9 c0-0.3-0.1-0.6-0.2-1c-0.1-0.8-0.3-1.6-0.4-2.4c-0.1-0.8-0.2-1.7-0.3-2.5c-0.2-0.9-0.4-1.8-0.5-2.7c-0.1-0.9-0.2-1.9-0.4-2.8 l-0.2-1.4c0-0.1-0.1-0.2-0.1-0.4c0-0.2,0.1-0.3,0.2-0.5c0.1-0.2,0.4-0.4,0.8-0.5C84.2,18.8,84.4,18.7,84.4,18.7L84.4,18.7z"></path> <path id="path4323" class="st13" d="M134,31.5c0,0.3-0.1,0.6-0.2,0.9s-0.3,0.6-0.5,0.7c-0.2,0.1-0.4,0.2-0.8,0.3 c-0.3,0-0.7,0.1-1.1,0.1c-0.4,0-0.8,0-1.2,0c-0.4,0-0.7-0.1-1-0.1h-12.4c-0.2,0-0.5,0-0.7,0c-0.2,0-0.4,0-0.6,0.1 c-0.3,0.1-0.5,0.3-0.6,0.4c-0.1,0.1-0.2,0.2-0.3,0.4c-0.1,0.2-0.2,0.3-0.2,0.5c0,0.2,0,0.4,0,0.6c0,0.2,0,0.4,0.1,0.6 c0.1,0.8,0.3,1.5,0.6,2c0.3,0.5,0.7,1,1.3,1.4c0.2,0.2,0.5,0.3,0.8,0.4c0.3,0,0.6,0.1,0.9,0.2c0.3,0.1,0.6,0.1,1.1,0.2 c0.5,0,0.9,0,1.3-0.1h0.5c0.3-0.1,0.7-0.1,1-0.2c0.3-0.1,0.6-0.2,0.9-0.3c0.4-0.2,0.8-0.4,1.3-0.7s0.8-0.5,1.1-0.8 c0.2-0.2,0.4-0.5,0.7-0.7c0.2-0.2,0.5-0.4,0.8-0.5c0.4-0.2,0.8-0.2,1.3-0.2c0.5,0,1,0,1.5,0c0.2,0,0.4,0,0.6,0c0.2,0,0.4,0,0.6,0.1 h0.5c0.3,0.1,0.5,0.2,0.7,0.3c0.1,0.1,0.1,0.2,0.1,0.5c0,0.2-0.1,0.4-0.2,0.6c-0.3,0.5-0.6,0.9-0.9,1.3c-0.3,0.4-0.6,0.7-0.9,1.1 c-0.9,1.1-2,2-3,2.7c-1.1,0.7-2.4,1.3-3.9,1.7c-0.4,0.1-0.8,0.2-1.2,0.3s-0.8,0.1-1.2,0.2c-0.1,0-0.3,0-0.5,0c-0.1,0-0.3,0-0.4,0.1 h-0.6c-0.2,0.1-0.4,0.1-0.6,0.1c-0.2,0-0.4,0-0.6-0.1c-0.3,0-0.5,0-0.7,0c-0.2,0-0.4,0-0.7-0.1c-0.2-0.1-0.4-0.1-0.6-0.1 c-0.2,0-0.4,0-0.5-0.1c-0.4-0.1-0.7-0.2-1.1-0.3c-0.3-0.1-0.6-0.2-0.9-0.4c-0.3-0.1-0.7-0.3-1-0.4c-0.3-0.1-0.6-0.3-0.8-0.5 c-0.9-0.7-1.8-1.5-2.4-2.3c-0.6-0.9-1.1-2-1.4-3.1c-0.1-0.4-0.2-0.7-0.2-1.1c0-0.4-0.1-0.8-0.2-1.2c0-0.1,0-0.3,0-0.4 c0-0.1,0.1-0.3,0.1-0.4c0-0.4,0-0.8,0-1.3c0.1-0.5,0.1-0.9,0.2-1.4c0-0.2,0.1-0.4,0.1-0.6c0-0.2,0.1-0.4,0.2-0.6l0.2-0.6l0.4-1.2 c0.2-0.6,0.5-1.1,0.7-1.7c0.2-0.5,0.5-1,0.8-1.5c2.2-3.5,5.1-6,8.9-7.5c0.5-0.2,1-0.3,1.5-0.4c0.5-0.1,1-0.2,1.6-0.4 c0.3,0,0.5-0.1,0.8-0.1c0.2,0,0.5,0,0.8-0.1c1.7,0,3.2,0.2,4.3,0.6c1.1,0.4,2.1,0.9,3,1.6c0.3,0.2,0.5,0.4,0.8,0.7 c0.3,0.2,0.5,0.5,0.7,0.8c0.1,0.2,0.2,0.3,0.4,0.4c0.2,0.4,0.4,0.8,0.5,1.2c0.2,0.4,0.4,0.8,0.6,1.2c0.1,0.3,0.2,0.6,0.2,1 c0.1,0.3,0.1,0.6,0.2,1c0.1,0.4,0.1,0.9,0.1,1.4c0,0.5,0.1,0.9,0.1,1.4c0,0.3-0.1,0.6-0.2,0.9c-0.1,0.3-0.1,0.6-0.1,0.9L134,31.5 L134,31.5z M126.9,28.5c0.3-0.3,0.4-0.7,0.3-1.2c-0.1-0.5-0.1-0.9-0.2-1.1c-0.3-0.9-0.8-1.6-1.5-2.1c-0.7-0.5-1.7-0.8-3.1-0.8 c-0.1,0.1-0.2,0.1-0.4,0.1c-0.1,0-0.3,0-0.4,0c-0.2,0.1-0.4,0.1-0.6,0.2c-0.2,0-0.4,0-0.6,0.1c-1.6,0.5-2.9,1.4-3.9,2.8 c-0.1,0.1-0.2,0.3-0.4,0.6c-0.1,0.2-0.2,0.4-0.3,0.7c-0.1,0.2-0.1,0.4-0.1,0.6s0.1,0.4,0.3,0.5c0.2,0.2,0.6,0.3,1.1,0.3 c0.5,0,0.9,0,1.4,0h5.6c0.5,0,1,0,1.5,0C126.4,29,126.7,28.8,126.9,28.5z"></path> <path id="path4325" class="st13" d="M155.8,18c2-0.1,3.7,0.2,4.9,0.9c1.3,0.6,2.1,1.6,2.6,2.8c0.2,0.4,0.3,0.8,0.3,1.2 c0.1,0.4,0.1,0.8,0.2,1.3c0,0.3,0,0.5,0,0.8s0,0.5,0,0.7c-0.1,0.2-0.1,0.3-0.1,0.4c0,0.5-0.1,1-0.2,1.5c-0.1,0.5-0.2,1-0.3,1.5 l-0.9,4.5l-1.7,8.2c-0.1,0.6-0.3,1.3-0.4,1.9c-0.1,0.6-0.5,0.9-1,1.1c-0.2,0.1-0.4,0.1-0.7,0.1s-0.5,0-0.8,0h-2.7 c-0.4,0-0.8,0-1.1-0.1c-0.3-0.1-0.5-0.2-0.7-0.5c-0.1-0.2-0.1-0.5-0.1-0.8c0.1-0.3,0.1-0.7,0.2-1.1l0.7-3.5l1.5-7.6 c0.2-1.3,0.4-2.4,0.5-3.4c0.1-1.1,0-2-0.4-2.7c-0.3-0.7-0.9-1.1-1.8-1.4c-0.2-0.1-0.4-0.1-0.6-0.1c-0.2,0-0.3,0-0.5-0.1 c-0.2,0-0.4,0-0.7,0c-0.2,0-0.4,0-0.6,0.1c-0.2,0-0.3,0.1-0.4,0.1c-0.1,0-0.2,0-0.3,0.1c-0.8,0.2-1.5,0.5-2,0.8 c-1.3,0.8-2.1,1.9-2.6,3.4c-0.5,1.5-0.9,3.2-1.3,5l-1.3,6.3l-0.6,3.1c-0.1,0.3-0.1,0.6-0.2,0.9c-0.1,0.3-0.2,0.6-0.3,0.8 c-0.2,0.4-0.6,0.6-1,0.7c-0.4,0.1-0.8,0.1-1.4,0.1h-2.5c-0.4,0-0.7,0-1.1-0.1c-0.4,0-0.6-0.2-0.7-0.4c-0.2-0.3-0.2-0.7-0.1-1.3 c0.1-0.6,0.3-1.1,0.4-1.6l1.4-6.9l2.2-11.2l0.6-2.6c0.1-0.4,0.1-0.7,0.2-1c0.1-0.3,0.2-0.6,0.5-0.8c0.1-0.1,0.2-0.2,0.4-0.2 c0.2-0.1,0.3-0.1,0.5-0.2h0.3c0.2,0,0.3-0.1,0.5-0.1c0.2,0,0.4,0,0.6,0h2.1c0.3,0,0.5,0,0.8,0.1c0.3,0,0.5,0,0.7,0.1 c0.2,0.1,0.3,0.3,0.4,0.5c0.1,0.2,0.1,0.4,0.1,0.7c0,0.1,0,0.3-0.1,0.4c0,0.1,0,0.2,0,0.3c0,0.2,0.1,0.3,0.1,0.3 c0.1,0,0.2,0.1,0.3,0.2c0.3,0,0.7-0.1,1-0.4c0.3-0.3,0.6-0.5,0.9-0.7c1-0.7,2.2-1.2,3.3-1.6c0.3-0.1,0.7-0.2,1-0.2 c0.3,0,0.7-0.1,1.1-0.2c0.1,0,0.3,0,0.5,0C155.6,18.1,155.8,18.1,155.8,18z"></path> <path id="path4328" class="st13" d="M168.4,18c0,0,0.1,0.1,0.1,0.2c0,0.1,0,0.2-0.1,0.2l0,0.1c0,0.1-0.1,0.1-0.1,0.2 c0,0-0.1,0.1-0.1,0.1c-0.1,0-0.1,0-0.3,0c-0.1,0-0.2,0-0.3,0h-0.2c0,0-0.1,0-0.1,0c0,0-0.1,0-0.1,0c-0.1,0-0.1,0.1-0.2,0.2 c0,0,0,0.1,0,0.1c0,0,0,0.1,0,0.1l-0.5,2.4c0,0,0,0.1,0,0.1s0,0.1,0,0.1l0,0.1c0,0,0,0,0,0.1c0,0,0,0,0,0.1c0,0.1-0.1,0.1-0.1,0.1 c0,0-0.1,0-0.1,0c0,0-0.1,0-0.1,0c-0.1,0-0.2,0-0.3,0c-0.1,0-0.2,0-0.2-0.1c0,0,0-0.1,0-0.1c0-0.1,0-0.1,0-0.2l0.5-2.4 c0,0,0-0.1,0-0.1c0,0,0-0.1,0-0.1l0-0.1c0-0.1,0-0.2-0.1-0.2c-0.1,0-0.2,0-0.3,0c-0.1,0-0.2,0-0.3,0c0,0-0.1,0-0.1,0 c0,0-0.1,0-0.1,0c0,0-0.1,0-0.1,0c0,0,0,0-0.1,0c-0.1,0-0.1-0.1-0.1-0.2c0-0.1,0-0.2,0-0.3c0,0,0-0.1,0-0.1c0,0,0-0.1,0.1-0.1 c0,0,0-0.1,0.1-0.1c0,0,0.1,0,0.1-0.1c0,0,0,0,0,0c0,0,0,0,0.1,0h2.7c0.1,0,0.1,0,0.2,0C168.3,18,168.4,18,168.4,18L168.4,18z M173.8,18c0,0,0,0.1,0,0.2c0,0.1,0,0.1,0,0.2l-0.7,3.3c0,0.1,0,0.1-0.1,0.2c0,0.1,0,0.1-0.1,0.1c0,0.1-0.1,0.1-0.2,0.1 c-0.1,0-0.2,0-0.3,0c0,0-0.1,0-0.1,0c0,0-0.1,0-0.1,0c-0.1,0-0.1-0.1-0.1-0.1c0,0,0-0.1,0-0.2l0-0.2c0,0,0,0,0-0.1c0,0,0-0.1,0-0.1 l0.3-1.3c0-0.1,0-0.2,0-0.2c0-0.1,0-0.2,0-0.2c0,0,0-0.1,0-0.1c0,0,0,0,0-0.1c0,0,0,0,0,0c0,0,0,0-0.1,0c-0.1,0.1-0.1,0.2-0.2,0.3 c-0.1,0.1-0.1,0.2-0.2,0.3c-0.1,0.2-0.2,0.4-0.4,0.6c-0.1,0.2-0.2,0.4-0.4,0.6c-0.1,0.1-0.1,0.2-0.2,0.3c-0.1,0.1-0.1,0.2-0.2,0.3 c0,0-0.1,0-0.1,0.1c-0.1,0-0.1,0-0.2,0h-0.2c0,0-0.1,0-0.1,0c0,0-0.1,0-0.1-0.1c0,0,0,0,0-0.1c0,0,0-0.1,0-0.1c0-0.1,0-0.1,0-0.2 c0-0.1,0-0.1,0-0.2c0-0.2-0.1-0.4-0.1-0.6c0-0.2-0.1-0.4-0.1-0.6c0-0.1,0-0.2-0.1-0.3c0-0.1-0.1-0.2-0.1-0.3c0,0,0,0,0,0 c0,0,0,0,0,0c0,0-0.1,0.1-0.1,0.1c0,0,0,0.1,0,0.1c0,0,0,0.1,0,0.1l0,0.2c0,0,0,0.1,0,0.1c0,0,0,0.1,0,0.1l-0.2,1.2 c0,0.1,0,0.2-0.1,0.3c0,0.1-0.1,0.2-0.1,0.3c0,0,0,0-0.1,0.1c0,0,0,0-0.1,0c0,0-0.1,0-0.1,0c0,0-0.1,0-0.1,0c-0.1,0-0.2,0-0.3,0 c-0.1,0-0.2,0-0.2-0.1c0,0-0.1-0.1-0.1-0.1c0-0.1,0-0.1,0-0.2l0.7-3.3c0-0.1,0-0.1,0-0.2c0-0.1,0-0.1,0.1-0.1c0,0,0.1-0.1,0.2-0.1 c0,0,0,0,0,0c0,0,0,0,0.1,0h0.7c0.1,0,0.1,0,0.2,0c0.1,0,0.1,0,0.2,0.1c0.1,0,0.1,0.1,0.1,0.2c0,0.1,0,0.2,0.1,0.2 c0,0.2,0.1,0.4,0.1,0.6c0,0.2,0.1,0.4,0.1,0.6c0,0.1,0,0.2,0.1,0.3c0,0.1,0,0.2,0.1,0.3c0,0,0,0.1,0,0.1c0,0,0,0.1,0.1,0.1 c0,0,0.1,0,0.1,0c0,0,0.1-0.1,0.1-0.1c0.1-0.1,0.1-0.2,0.2-0.2c0-0.1,0.1-0.2,0.1-0.3c0.1-0.2,0.3-0.4,0.4-0.7 c0.1-0.2,0.3-0.5,0.4-0.7c0.1-0.1,0.1-0.2,0.2-0.3c0.1-0.1,0.1-0.2,0.2-0.2c0,0,0.1,0,0.1,0c0.1,0,0.1,0,0.2,0h0.4c0,0,0.1,0,0.1,0 c0,0,0.1,0,0.1,0h0.1C173.7,18,173.7,18,173.8,18C173.8,18,173.8,18,173.8,18L173.8,18z"></path> <g id="g4701" transform="matrix(0.13272567,0.01947468,-0.01947468,0.13272567,170.19741,12.570146)"> <linearGradient id="path4710_00000171718262387641585680000009165694777670213026_" gradientUnits="userSpaceOnUse" x1="-110083.3438" y1="-22585.748" x2="-110044.9922" y2="-22630.5898" gradientTransform="matrix(3.843945e-02 -0.1285 -0.1285 -3.843945e-02 853.0771 -14888.0361)"> <stop offset="0" style="stop-color:#F69923"></stop> <stop offset="0.3123" style="stop-color:#F79A23"></stop> <stop offset="0.8383" style="stop-color:#E97826"></stop> </linearGradient> <path id="path4710" style="fill:url(#path4710_00000171718262387641585680000009165694777670213026_);" d="M-462.6,106.3 c-4.3,2.5-11.4,9.6-19.8,19.9l7.8,14.7c5.4-7.8,11-14.8,16.6-20.8c0.4-0.5,0.7-0.7,0.7-0.7c-0.2,0.3-0.5,0.5-0.7,0.7 c-1.8,2-7.3,8.4-15.6,21.1c8-0.4,20.2-2,30.2-3.8c3-16.6-2.9-24.2-2.9-24.2S-453.8,101.1-462.6,106.3z"></path> <path id="path4712" class="st1" d="M-475.8,189.8c0.1,0,0.1,0,0.2-0.1l-1.1,0.1c-0.1,0.1-0.2,0.1-0.2,0.1 C-476.5,189.9-476.1,189.9-475.8,189.8z"></path> <path id="path4714" class="st1" d="M-483.7,216c-0.6,0.2-1.3,0.3-1.9,0.4C-485,216.3-484.3,216.2-483.7,216z"></path> <path id="path4716" class="st1" d="M-537.5,274.9c0.1-0.2,0.2-0.5,0.3-0.7c1.7-4.5,3.4-8.9,5.1-13.2c1.9-4.8,3.8-9.4,5.6-13.9 c1.9-4.7,3.9-9.3,5.7-13.7c2-4.7,3.9-9.1,5.8-13.4c1.6-3.5,3.1-6.9,4.6-10.2c0.5-1.1,1-2.2,1.5-3.2c1-2.1,2-4.2,2.9-6.2 c0.9-1.9,1.8-3.7,2.6-5.5c0.3-0.6,0.6-1.2,0.9-1.8c0.1-0.1,0.1-0.2,0.2-0.3l-1,0.1l-0.8-1.5c-0.1,0.2-0.2,0.3-0.2,0.5 c-1.4,2.7-2.7,5.4-4.1,8.2c-0.8,1.6-1.5,3.2-2.3,4.8c-2.1,4.5-4.2,8.9-6.2,13.5c-2.1,4.6-4.1,9.2-6.1,13.7c-2,4.5-3.9,9-5.7,13.5 c-1.9,4.5-3.7,9-5.5,13.4c-1.9,4.7-3.7,9.3-5.4,13.8c-0.4,1-0.8,2.1-1.2,3.1c-1.4,3.7-2.8,7.3-4.1,10.9l1.2,2.4l1.1-0.1 c0.1-0.1,0.1-0.2,0.1-0.3C-540.9,284-539.2,279.4-537.5,274.9z"></path> <path id="path4718" class="st1" d="M-486.1,216.5L-486.1,216.5L-486.1,216.5L-486.1,216.5z"></path> <path id="path4720" class="st2" d="M-488.7,229.3c-1,0.2-2,0.4-3,0.5l0,0c0.5-0.1,1.1-0.2,1.6-0.3 C-489.7,229.5-489.2,229.4-488.7,229.3z"></path> <path id="path4722" class="st3" d="M-488.7,229.3c-1,0.2-2,0.4-3,0.5l0,0c0.5-0.1,1.1-0.2,1.6-0.3 C-489.7,229.5-489.2,229.4-488.7,229.3z"></path> <path id="path4724" class="st2" d="M-486.1,216.5L-486.1,216.5C-486.1,216.5-486.1,216.5-486.1,216.5c0.2,0,0.3-0.1,0.5-0.1 c0.7-0.1,1.3-0.2,1.9-0.4C-484.5,216.2-485.3,216.3-486.1,216.5L-486.1,216.5L-486.1,216.5z"></path> <path id="path4726" class="st3" d="M-486.1,216.5L-486.1,216.5C-486.1,216.5-486.1,216.5-486.1,216.5c0.2,0,0.3-0.1,0.5-0.1 c0.7-0.1,1.3-0.2,1.9-0.4C-484.5,216.2-485.3,216.3-486.1,216.5L-486.1,216.5L-486.1,216.5z"></path> <linearGradient id="path4737_00000144320367473525645210000006880394262155830959_" gradientUnits="userSpaceOnUse" x1="-112171.0938" y1="-22241.2207" x2="-111897.5" y2="-22241.2207" gradientTransform="matrix(3.843945e-02 -0.1285 -0.1285 -3.843945e-02 853.0771 -14888.0361)"> <stop offset="0.3233" style="stop-color:#9E2064"></stop> <stop offset="0.6302" style="stop-color:#C92037"></stop> <stop offset="0.7514" style="stop-color:#CD2335"></stop> <stop offset="1" style="stop-color:#E97826"></stop> </linearGradient> <path id="path4737" style="fill:url(#path4737_00000144320367473525645210000006880394262155830959_);" d="M-497.5,178.7 c2.4-4.4,4.8-8.7,7.1-12.9c2.5-4.4,5-8.6,7.6-12.7c0.2-0.3,0.3-0.5,0.5-0.7c2.5-4,5.1-7.9,7.7-11.6l-7.8-14.6 c-0.6,0.7-1.2,1.4-1.8,2.2c-2.2,2.8-4.6,5.8-6.9,9c-2.7,3.6-5.4,7.4-8.3,11.4c-2.6,3.7-5.2,7.6-7.9,11.6c-2.2,3.4-4.5,6.9-6.7,10.5 c-0.1,0.2-0.2,0.3-0.3,0.4l10.1,19.9C-501.9,187.1-499.7,182.8-497.5,178.7z"></path> <linearGradient id="path4748_00000024704904863164733780000006347817828051328438_" gradientUnits="userSpaceOnUse" x1="-111957.2578" y1="-22479.7578" x2="-111794.2266" y2="-22479.7578" gradientTransform="matrix(3.843945e-02 -0.1285 -0.1285 -3.843945e-02 853.0771 -14888.0361)"> <stop offset="0" style="stop-color:#282662"></stop> <stop offset="9.548389e-02" style="stop-color:#662E8D"></stop> <stop offset="0.7882" style="stop-color:#9F2064"></stop> <stop offset="0.9487" style="stop-color:#CD2032"></stop> </linearGradient> <path id="path4748" style="fill:url(#path4748_00000024704904863164733780000006347817828051328438_);" d="M-543.5,291.1 c-1.3,3.7-2.7,7.4-4,11.3c0,0.1-0.1,0.1-0.1,0.2c-0.2,0.6-0.4,1.1-0.6,1.6c-0.9,2.6-1.7,4.9-3.5,10.2c3,1.4,5.4,4.9,7.6,9 c-0.3-4.2-2-8.2-5.3-11.2c14.7,0.7,27.3-3,33.8-13.8c0.6-1,1.1-2,1.6-3c-3,3.8-6.6,5.4-13.6,5h-0.1h0.1c10.2-4.6,15.3-9,19.8-16.2 c1.1-1.7,2.1-3.6,3.2-5.7c-8.9,9.2-19.3,11.8-30.2,9.8l-8.2,0.9C-543,289.7-543.3,290.4-543.5,291.1z"></path> <linearGradient id="path4759_00000022553045670392727910000006210033563167203992_" gradientUnits="userSpaceOnUse" x1="-112055.0234" y1="-22239.2129" x2="-111781.4297" y2="-22239.2129" gradientTransform="matrix(3.843945e-02 -0.1285 -0.1285 -3.843945e-02 853.0771 -14888.0361)"> <stop offset="0.3233" style="stop-color:#9E2064"></stop> <stop offset="0.6302" style="stop-color:#C92037"></stop> <stop offset="0.7514" style="stop-color:#CD2335"></stop> <stop offset="1" style="stop-color:#E97826"></stop> </linearGradient> <path id="path4759" style="fill:url(#path4759_00000022553045670392727910000006210033563167203992_);" d="M-539.7,272.8 c1.8-4.6,3.6-9.2,5.4-13.8c1.8-4.5,3.6-8.9,5.5-13.4c1.9-4.5,3.8-9,5.7-13.5c2-4.6,4-9.2,6.1-13.7c2-4.5,4.2-9,6.2-13.5 c0.8-1.6,1.5-3.2,2.3-4.8c1.3-2.7,2.7-5.5,4.1-8.2c0.1-0.2,0.2-0.3,0.2-0.5l-10-19.9c-0.2,0.3-0.3,0.6-0.5,0.8 c-2.3,3.9-4.7,7.8-7,11.8c-2.3,4.1-4.6,8.2-6.8,12.4c-1.9,3.5-3.7,7.1-5.5,10.7c-0.4,0.7-0.7,1.5-1.1,2.2c-2.2,4.5-4.2,8.9-6,13.1 c-2,4.8-3.8,9.3-5.4,13.6c-1,2.8-2,5.6-2.8,8.2c-0.7,2.2-1.4,4.5-2,6.7c-1.5,5.3-2.8,10.5-3.9,15.8l10.1,20 c1.3-3.6,2.7-7.2,4.1-10.9C-540.5,274.9-540.1,273.8-539.7,272.8z"></path> <linearGradient id="path4770_00000120531722476869533170000012817010748611111579_" gradientUnits="userSpaceOnUse" x1="-111911.9062" y1="-22288.4531" x2="-111768.125" y2="-22288.4531" gradientTransform="matrix(3.843945e-02 -0.1285 -0.1285 -3.843945e-02 853.0771 -14888.0361)"> <stop offset="0" style="stop-color:#282662"></stop> <stop offset="9.548389e-02" style="stop-color:#662E8D"></stop> <stop offset="0.7882" style="stop-color:#9F2064"></stop> <stop offset="0.9487" style="stop-color:#CD2032"></stop> </linearGradient> <path id="path4770" style="fill:url(#path4770_00000120531722476869533170000012817010748611111579_);" d="M-555.3,267.5 c-1.3,6.4-2.2,12.8-2.6,19.2c0,0.2-0.1,0.5-0.1,0.7c-3.1-5.1-11.7-10-11.6-10c6.1,8.8,10.7,17.5,11.4,26.1 c-3.2,0.7-7.7-0.3-12.8-2.2c5.4,4.9,9.4,6.3,11,6.6c-4.9,0.3-10,3.7-15.2,7.6c7.6-3.1,13.7-4.3,18-3.3 c-6.9,19.6-13.9,41.3-20.8,64.3c2.1-0.6,3.4-2.1,4.1-4c1.2-4.2,9.5-31.5,22.4-67.5c0.4-1,0.8-2,1.1-3.1c0.1-0.3,0.2-0.6,0.3-0.9 c1.4-3.8,2.8-7.6,4.3-11.6c0.4-0.9,0.7-1.8,1-2.7v-0.1l-10.1-20C-555.2,267-555.3,267.2-555.3,267.5z"></path> <linearGradient id="path4781_00000036244900547240013600000009508753170018502288_" gradientUnits="userSpaceOnUse" x1="-112085.6641" y1="-22448.0391" x2="-111812.0703" y2="-22448.0391" gradientTransform="matrix(3.843945e-02 -0.1285 -0.1285 -3.843945e-02 853.0771 -14888.0361)"> <stop offset="0.3233" style="stop-color:#9E2064"></stop> <stop offset="0.6302" style="stop-color:#C92037"></stop> <stop offset="0.7514" style="stop-color:#CD2335"></stop> <stop offset="1" style="stop-color:#E97826"></stop> </linearGradient> <path id="path4781" style="fill:url(#path4781_00000036244900547240013600000009508753170018502288_);" d="M-502.5,193 c-0.3,0.6-0.6,1.2-0.9,1.8c-0.9,1.8-1.8,3.7-2.6,5.5c-1,2-1.9,4.1-2.9,6.2c-0.5,1.1-1,2.1-1.5,3.2c-1.5,3.3-3,6.7-4.6,10.2 c-1.9,4.3-3.9,8.8-5.8,13.4c-1.9,4.4-3.8,9-5.7,13.7c-1.8,4.5-3.7,9.1-5.6,13.9c-1.7,4.3-3.3,8.7-5.1,13.2 c-0.1,0.2-0.2,0.5-0.3,0.7c-1.7,4.5-3.4,9.1-5.1,13.8c-0.1,0.1-0.1,0.2-0.1,0.3l8.2-0.9c-0.2-0.1-0.3-0.1-0.5-0.1 c9.8-1.2,22.8-8.5,31.1-17.5c3.9-4.2,7.4-9,10.6-14.8c2.4-4.3,4.7-9,6.8-14.2c1.9-4.6,3.7-9.5,5.4-14.9c-2.2,1.2-4.8,2-7.7,2.6 c-0.5,0.1-1,0.2-1.5,0.3c-0.5,0.1-1,0.2-1.6,0.3l0,0l0,0l0,0c9.1-3.5,14.9-10.2,19-18.6c-2.4,1.6-6.3,3.8-11,4.8 c-0.6,0.2-1.3,0.3-1.9,0.4c-0.2,0-0.3,0.1-0.5,0.1l0,0l0,0l0,0l0,0l0,0c3.1-1.3,5.8-2.8,8.2-4.6c0.5-0.4,1-0.8,1.4-1.2 c0.7-0.6,1.4-1.3,2-1.9c0.4-0.5,0.8-0.9,1.2-1.3c0.9-1.1,1.8-2.2,2.5-3.5c0.3-0.4,0.5-0.8,0.7-1.2c0.3-0.6,0.6-1.2,0.9-1.7 c1.3-2.5,2.3-4.8,3.1-6.8c0.4-1,0.8-1.9,1.1-2.8c0.1-0.4,0.3-0.7,0.4-1c0.3-1,0.6-1.8,0.8-2.6c0.3-1.1,0.5-2,0.6-2.7l0,0l0,0 c-0.3,0.3-0.7,0.5-1.1,0.7c-2.7,1.6-7.5,3.1-11.3,3.9l7.5-0.8l-7.5,0.8c-0.1,0-0.1,0-0.2,0.1c-0.4,0.1-0.8,0.1-1.2,0.2 c0.1-0.1,0.2-0.1,0.2-0.1l-25.7,2.8C-502.4,192.8-502.5,192.9-502.5,193z"></path> <linearGradient id="path4792_00000103261174146196637540000018332947870966852536_" gradientUnits="userSpaceOnUse" x1="-112209.3594" y1="-22419.5508" x2="-111935.7578" y2="-22419.5508" gradientTransform="matrix(3.843945e-02 -0.1285 -0.1285 -3.843945e-02 853.0771 -14888.0361)"> <stop offset="0.3233" style="stop-color:#9E2064"></stop> <stop offset="0.6302" style="stop-color:#C92037"></stop> <stop offset="0.7514" style="stop-color:#CD2335"></stop> <stop offset="1" style="stop-color:#E97826"></stop> </linearGradient> <path id="path4792" style="fill:url(#path4792_00000103261174146196637540000018332947870966852536_);" d="M-473.6,141.2 c-2.3,3.5-4.8,7.5-7.5,12c-0.2,0.3-0.3,0.5-0.4,0.7c-2.3,3.9-4.8,8.2-7.4,12.9c-2.2,4.1-4.6,8.4-7,13.1c-2.1,4.1-4.3,8.4-6.5,12.9 l25.7-2.8c7.5-3.4,10.8-6.5,14-11.1c0.9-1.2,1.7-2.5,2.6-3.9c2.6-4.1,5.2-8.6,7.5-13.1c2.2-4.4,4.2-8.7,5.7-12.5 c1-2.5,1.7-4.8,2.3-6.8c0.5-1.8,0.8-3.4,1.1-5.1C-453.4,139.1-465.6,140.8-473.6,141.2z"></path> <path id="path4794" class="st2" d="M-490.2,229.6c-0.5,0.1-1,0.2-1.6,0.3l0,0C-491.3,229.7-490.7,229.6-490.2,229.6z"></path> <path id="path4796" class="st3" d="M-490.2,229.6c-0.5,0.1-1,0.2-1.6,0.3l0,0C-491.3,229.7-490.7,229.6-490.2,229.6z"></path> <linearGradient id="path4807_00000142869013213224225750000005954476938607100342_" gradientUnits="userSpaceOnUse" x1="-112094.8438" y1="-22510.5859" x2="-111821.25" y2="-22510.5859" gradientTransform="matrix(3.843945e-02 -0.1285 -0.1285 -3.843945e-02 853.0771 -14888.0361)"> <stop offset="0.3233" style="stop-color:#9E2064"></stop> <stop offset="0.6302" style="stop-color:#C92037"></stop> <stop offset="0.7514" style="stop-color:#CD2335"></stop> <stop offset="1" style="stop-color:#E97826"></stop> </linearGradient> <path id="path4807" style="fill:url(#path4807_00000142869013213224225750000005954476938607100342_);" d="M-490.2,229.6 c-0.5,0.1-1,0.2-1.6,0.3l0,0C-491.3,229.7-490.7,229.6-490.2,229.6z"></path> <path id="path4809" class="st2" d="M-486.1,216.5c0.2,0,0.3-0.1,0.5-0.1C-485.8,216.4-485.9,216.5-486.1,216.5L-486.1,216.5z"></path> <path id="path4811" class="st3" d="M-486.1,216.5c0.2,0,0.3-0.1,0.5-0.1C-485.8,216.4-485.9,216.5-486.1,216.5L-486.1,216.5z"></path> <linearGradient id="path4822_00000163051349655583050050000014811851518432756360_" gradientUnits="userSpaceOnUse" x1="-112093.7656" y1="-22503.2441" x2="-111820.1719" y2="-22503.2441" gradientTransform="matrix(3.843945e-02 -0.1285 -0.1285 -3.843945e-02 853.0771 -14888.0361)"> <stop offset="0.3233" style="stop-color:#9E2064"></stop> <stop offset="0.6302" style="stop-color:#C92037"></stop> <stop offset="0.7514" style="stop-color:#CD2335"></stop> <stop offset="1" style="stop-color:#E97826"></stop> </linearGradient> <path id="path4822" style="fill:url(#path4822_00000163051349655583050050000014811851518432756360_);" d="M-486.1,216.5 c0.2,0,0.3-0.1,0.5-0.1C-485.8,216.4-485.9,216.5-486.1,216.5L-486.1,216.5z"></path> <path id="path4824" class="st2" d="M-486.1,216.5L-486.1,216.5L-486.1,216.5L-486.1,216.5L-486.1,216.5L-486.1,216.5z"></path> <path id="path4826" class="st3" d="M-486.1,216.5L-486.1,216.5L-486.1,216.5L-486.1,216.5L-486.1,216.5L-486.1,216.5z"></path> <linearGradient id="path4837_00000008145566939634801550000009183052321595371683_" gradientUnits="userSpaceOnUse" x1="-110737.1641" y1="-22700.9941" x2="-110737.1641" y2="-22700.9941" gradientTransform="matrix(3.843945e-02 -0.1285 -0.1285 -3.843945e-02 853.0771 -14888.0361)"> <stop offset="0.3233" style="stop-color:#9E2064"></stop> <stop offset="0.6302" style="stop-color:#C92037"></stop> <stop offset="0.7514" style="stop-color:#CD2335"></stop> <stop offset="1" style="stop-color:#E97826"></stop> </linearGradient> <path id="path4837" style="fill:url(#path4837_00000008145566939634801550000009183052321595371683_);" d="M-486.1,216.5 L-486.1,216.5L-486.1,216.5L-486.1,216.5L-486.1,216.5L-486.1,216.5z"></path> </g> </svg> 