<?xml version="1.0" encoding="UTF-8"?> <svg xmlns="http://www.w3.org/2000/svg" xmlns:xlink="http://www.w3.org/1999/xlink" version="1.1" id="Layer_1" x="0px" y="0px" viewBox="0 0 64 64" style="enable-background:new 0 0 64 64;" xml:space="preserve"> <style type="text/css"> .st0{fill-rule:evenodd;clip-rule:evenodd;fill:#FAD791;} .st1{fill-rule:evenodd;clip-rule:evenodd;fill:#624A1E;} .st2{fill-rule:evenodd;clip-rule:evenodd;fill:#D9A741;} .st3{fill-rule:evenodd;clip-rule:evenodd;fill:#876929;} </style> <symbol id="A" viewBox="-35 -40 70 80"> <g> <path class="st0" d="M35,5L18,4.3L7,5l18.2,23.4L35,5z"></path> <path class="st1" d="M35-4.7L18-4L7-4.7l18.2-23.4L35-4.7z M-35-4.7L-18-4l11-0.7L-25.2-28C-25.2-28-35-4.7-35-4.7z"></path> <path class="st0" d="M-35,5l17-0.7L-7,5l-18.2,23.4L-35,5z"></path> <path class="st2" d="M25.2-5.6L35-4.7v-18.7l-9.8-4.7V-5.6z"></path> <path class="st3" d="M7-23.4l18.2-4.6v22.5L7-4.7C7-4.7,7-23.4,7-23.4z"></path> <path class="st2" d="M0-26.2l19.7,6.1v9.3L0-14.1C0-14.1,0-26.2,0-26.2z"></path> <path class="st1" d="M-8.9-12.6l9-1.5l19.5,3.3L11-9.9L-8.9-12.6L-8.9-12.6z"></path> <path class="st3" d="M-25.2-5.6L-35-4.7v-18.8l9.8-4.6C-25.2-28.1-25.2-5.6-25.2-5.6z"></path> <path class="st2" d="M-7-23.4l-18.2-4.7v22.5L-7-4.7V-23.4z"></path> <path class="st3" d="M0-26.2l-19.7,6.1v9.3L0-14.1C0-14.1,0-26.2,0-26.2z"></path> <path class="st1" d="M8.9-12.6l-9-1.5l-19.5,3.3l8.7,0.9L8.9-12.6L8.9-12.6z"></path> <path class="st2" d="M25.2,5.9L35,5v18.7l-9.8,4.7V5.9z"></path> <path class="st3" d="M7,23.8l18.2,4.6V5.9L7,5C7,5,7,23.8,7,23.8z"></path> <path class="st2" d="M0,26.5l19.7-6.1v-9.3L0,14.4V26.5L0,26.5z"></path> <path class="st0" d="M-8.9,12.9l9,1.5l19.5-3.3L11,10.2L-8.9,12.9L-8.9,12.9z"></path> <path class="st3" d="M-25.2,5.9L-35,5v18.7l9.8,4.7V5.9z"></path> <path class="st2" d="M-7,23.8l-18.2,4.7V5.9L-7,5V23.8z"></path> <path class="st3" d="M0,26.5l-19.7-6.1v-9.3L0,14.4V26.5L0,26.5z"></path> <path class="st0" d="M8.9,12.9l-9,1.5l-19.5-3.3l8.7-0.9L8.9,12.9L8.9,12.9z"></path> <path class="st3" d="M-10.5,35L0,40l5.8-2.8L10.5-35L0-40l-10.5,5V35L-10.5,35z"></path> <path class="st2" d="M10.5,35L0,40v-80l10.5,5V35L10.5,35z"></path> </g> </symbol> <use xlink:href="#A" width="70" height="80" x="-35" y="-40" transform="matrix(0.7625 0 0 0.7625 32.0005 32)" style="overflow:visible;"></use> </svg> 