<?xml version="1.0" encoding="UTF-8"?> <svg xmlns="http://www.w3.org/2000/svg" xmlns:xlink="http://www.w3.org/1999/xlink" version="1.1" id="Layer_1" x="0px" y="0px" viewBox="0 0 64 64" style="enable-background:new 0 0 64 64;" xml:space="preserve"> <style type="text/css"> .st0{fill-rule:evenodd;clip-rule:evenodd;fill:#0078D7;} </style> <symbol id="A" viewBox="-50 -40 100 80"> <path class="st0" d="M38.8-5.2C39-6.5,39-8.4,39-9.8C39-26,24.5-40,6.8-40H6.6C-6-40-17.4-32.5-22.6-22c-1.5-0.2-2.9,0-4.4,0 c-12.9,0-23,9.8-23,21.4s10.4,21.2,23.2,21.2h11.8c0.4,1.5,1.5,2.9,2.7,4c4.1,3.8,11,3.8,15.1,0s4.1-10,0-13.8s-10.8-3.8-15.1,0 c-1,1-1.9,1.7-2.3,3.1l-12-0.4l0,0c-8.9,0-16-6.1-16.2-14.4c0-8.2,7.3-14.7,16.2-14.7c1.7,0,3.5,0.4,5.2,1l3.3,1.1l1-3.1 C-13.7-26-3.9-32.3,6.8-32.3c13.9,0,25.1,10.3,25.1,23.2c0,2.1-0.2,4.2-0.8,6.1l-1.5,4.6L34.9,1h0.8c3.9,0,7.3,3.1,7.3,6.7 c0,3.4-2.7,6.3-6.4,6.7l-18.3,0.2c-0.8-4.4-3.1-8.6-6.6-11.9C7.3-1.5,1.2-3.8-5.2-3.8c-4.4,0-8.5,1.1-12.2,3.1l3.7,5.5 c2.5-1.5,5.6-2.3,8.7-2.3c4.4,0,8.7,1.5,11.8,4.6c3.1,2.9,5,6.7,5,10.9c0,4-1.7,8-5,10.9C3.7,31.8-0.4,33.5-5,33.5 c-3.1,0-6.2-0.8-8.7-2.3l-3.7,5.6C-13.7,38.9-9.3,40-5,40c6.4,0,12.2-2.3,16.8-6.5c3.7-3.4,6-7.8,6.6-12.4l18.3-0.2h0.2 C44.4,20.3,50,14.5,50,7.7C50.2,1.3,45.4-4,38.8-5.2z"></path> </symbol> <use xlink:href="#A" width="100" height="80" x="-50" y="-40" transform="matrix(0.6079 0 0 0.6079 31.5002 32)" style="overflow:visible;"></use> </svg> 