<?xml version="1.0" encoding="UTF-8"?> <svg xmlns="http://www.w3.org/2000/svg" xmlns:xlink="http://www.w3.org/1999/xlink" version="1.1" id="Layer_1" x="0px" y="0px" viewBox="0 0 64 64" style="enable-background:new 0 0 64 64;" xml:space="preserve"> <style type="text/css"> .st0{fill-rule:evenodd;clip-rule:evenodd;fill:#0078D7;} </style> <symbol id="A" viewBox="-40 -40 80 80"> <g> <path class="st0" d="M21.1,27.7C14.8,32.6,7.4,34.9,0,34.9c-10.6,0-20.7-4.7-27.7-13.8c-11.6-15.2-8.7-37,6.5-48.7 c6.3-4.9,13.8-7.2,21.1-7.2c10.6,0,20.7,4.7,27.7,13.8C39.3-5.7,36.3,16.1,21.1,27.7L21.1,27.7z M31.7-24.4 C23.9-34.7,11.8-40,0-40c-8.4,0-17.1,2.8-24.3,8.3c-17.5,13.5-20.9,38.5-7.4,56.1C-23.9,34.7-12,40,0,40c8.4,0,17.1-2.8,24.3-8.3 C41.8,18.4,45.2-6.8,31.7-24.4z"></path> <path class="st0" d="M-18.1,7.5c-2.3-2.3-4.2-4.4-5.7-6.5c-3.4,6.8-4.4,13.8-4.9,19.5c0.4,0.4,0.4,0.9,0.6,1.3 c1.7,2.1,3.8,4.2,5.7,5.7C-22.3,22.7-21.9,15.1-18.1,7.5z M-5.8-19.4c-3.2,2.1-6.3,4.9-9.7,8.5c-1.7,1.9-3.4,3.8-4.7,5.7 c1.5,2.3,3.2,4.7,5.5,7c1.7-2.3,3.8-4.9,6.3-7.2c3.2-3,6.1-5.5,9.1-7.4L-5.8-19.4L-5.8-19.4z M27.3-21.4c-1.5-1.9-3-3.6-4.9-5.1 c-5.3-0.9-14-0.7-23.5,4.4c2.1,2.3,4.4,4.7,6.5,6.5C18.1-22.5,27.3-21.4,27.3-21.4z M-23.7,0.7l3.4-5.9 c-5.5-8.7-5.3-15.9-4.7-19.3c-1.3,1.5-2.8,3-3.8,4.4C-29.8-15.2-29.8-8-23.7,0.7L-23.7,0.7z"></path> <path class="st0" d="M-8.1,7.9L-14.6,2L-18,7.5c1.7,1.7,3.8,3.6,6.1,5.3C2.3,24,16.5,25.1,24.5,25.1c0.4,0,3-3.4,4.4-5.5 C25.3,20.4,10.1,22.3-8.1,7.9z"></path> <path class="st0" d="M-23.7,0.7c1.5,2.1,3.4,4.4,5.7,6.5c0.9-1.9,1.9-3.6,3.4-5.5c-2.3-2.3-4-4.7-5.5-7 C-21.6-3.1-22.7-1.2-23.7,0.7L-23.7,0.7z M0.7-12.8C13.8-0.7,29,9.5,33,12.2c0.4-1,0.7-2,0.9-3c-4.2-3.2-15.2-11.6-28.5-25 C4-14.9,2.3-14.3,0.7-12.8z M-0.8-22.2c-3.2-3.4-6.5-7.2-9.9-11c-1.5,0.4-3.2,1.1-4.7,1.9c2.3,4,5.9,8.2,9.5,12 C-4-20.3-2.5-21.4-0.8-22.2L-0.8-22.2z"></path> <path class="st0" d="M-0.8-22.2c-1.7,0.9-3.7,1.7-5.1,2.9l6.6,6.5l4.8-2.8L-0.8-22.2z M16.1-4.3c-3.2,2.6-3.8,7.2-1.5,10.4 c2.6,3.4,7.2,3.8,10.6,1.5C28.3,5,29,0.4,26.6-3C24.1-6.2,19.5-6.8,16.1-4.3z M0.7,14.5c-3,2.3-3.6,6.8-1.3,9.8 c2.3,3,6.8,3.6,9.7,1.3c3-2.3,3.6-6.5,1.3-9.8C8.1,12.6,3.8,12.2,0.7,14.5z M-25.2-7.5c-4.7,3.6-5.5,10.2-1.9,14.8 c3.6,4.7,10.1,5.5,14.8,1.9S-6.8-1-10.4-5.6C-14-10.3-20.8-11.2-25.2-7.5z"></path> </g> </symbol> <use xlink:href="#A" width="80" height="80" x="-40" y="-40" transform="matrix(0.7647 0 0 0.7647 32 32)" style="overflow:visible;"></use> </svg> 