<?xml version="1.0" encoding="UTF-8"?> <svg xmlns="http://www.w3.org/2000/svg" width="64" height="64" viewBox="0 0 64 64" fill="none"><g clip-path="url(#clip0_1576_33161)"><path d="M19.0514 37.6152H5.95325V49.2393H19.0514V37.6152Z" stroke="black" stroke-miterlimit="10"></path><path d="M5.95325 46.6496L7.85982 44.7025C8.46992 44.0794 9.46133 44.0794 10.0905 44.7025C10.7006 45.3256 11.7111 45.3256 12.3212 44.7025L13.6748 43.3201C14.2849 42.697 15.2954 42.697 15.9055 43.3201L19.242 46.7275" stroke="black" stroke-miterlimit="10"></path><path d="M12.1115 40.9836C12.1115 41.5093 11.6921 41.9571 11.1582 41.9571C10.6244 41.9571 10.205 41.5287 10.205 40.9836C10.205 40.4384 10.6244 40.01 11.1582 40.01C11.6921 40.01 12.1115 40.4384 12.1115 40.9836Z" fill="black"></path><path d="M43.1886 27.4126V52.9194C43.1886 54.1072 42.2353 55.0807 41.0723 55.0807H19.6234C18.4604 55.0807 17.5071 54.1072 17.5071 52.9194V52.0238" stroke="black" stroke-linejoin="round"></path><path d="M43.1886 13.6661V11.1349C43.1886 9.94718 42.2353 8.97363 41.0723 8.97363H19.6234C18.4604 8.97363 17.5071 9.94718 17.5071 11.1349V34.3636" stroke="black" stroke-linejoin="round"></path><path d="M43.1886 13.6661V11.1349C43.1886 9.94718 42.2353 8.97363 41.0723 8.97363H19.6234C18.4604 8.97363 17.5071 9.94718 17.5071 11.1349V34.3636" stroke="url(#paint0_linear_1576_33161)" stroke-linejoin="round"></path><path d="M17.5071 17.0735H37.2591" stroke="black" stroke-linejoin="round"></path><path d="M21.8922 46.9807H43.1886" stroke="black" stroke-linejoin="round"></path><path d="M28.3555 51.0308H32.3211" stroke="black" stroke-linejoin="round"></path><path d="M28.3555 13.0237H32.3211" stroke="black" stroke-linejoin="round"></path><path d="M38.7844 32.027C38.7844 36.7973 35.0094 40.6526 30.3383 40.6526C25.6672 40.6526 21.8922 36.7973 21.8922 32.027C21.8922 27.2566 25.6672 23.4014 30.3383 23.4014C35.0094 23.4014 38.7844 27.2566 38.7844 32.027Z" stroke="black" stroke-linejoin="round"></path><path d="M32.8931 30.4109C32.8931 31.8518 31.7492 33.0005 30.3574 33.0005C28.9656 33.0005 27.8217 31.8323 27.8217 30.4109C27.8217 28.9895 28.9656 27.8213 30.3574 27.8213C31.7492 27.8213 32.8931 28.9895 32.8931 30.4109Z" stroke="black" stroke-linejoin="round"></path><path d="M24.7521 38.725C24.7521 35.5707 27.2497 33.02 30.3383 33.02C33.427 33.02 35.9246 35.5707 35.9246 38.725" stroke="black" stroke-linejoin="round"></path><path d="M54.7805 17.0735H40.119V24.4529H54.7805V17.0735Z" stroke="black" stroke-miterlimit="10"></path><path d="M42.9408 20.8704H51.8063" stroke="black" stroke-miterlimit="10"></path><path d="M48.7177 43.5732H55.3716" stroke="black" stroke-miterlimit="10"></path><path d="M52.035 43.6902V48.7916" stroke="black" stroke-miterlimit="10"></path><path d="M46.4679 39.9517H57.6023V51.3226H46.4679" stroke="black" stroke-miterlimit="10"></path><path d="M7.45947 13.0234H9.36604" stroke="black" stroke-miterlimit="10"></path><path d="M11.2726 13.0234H13.1792" stroke="black" stroke-miterlimit="10"></path><path d="M11.2726 20.8118H13.1792" stroke="black" stroke-miterlimit="10"></path><path d="M7.45947 16.9177H15.2573" stroke="black" stroke-miterlimit="10"></path><path d="M11.2726 16.9177H13.1792" stroke="black" stroke-miterlimit="10"></path></g><defs><linearGradient id="paint0_linear_1576_33161" x1="26.1027" y1="17.6597" x2="52.5726" y2="40.9459" gradientUnits="userSpaceOnUse"><stop offset="0.236106" stop-color="#DA291C"></stop><stop offset="1" stop-color="#FFCD00"></stop></linearGradient><clipPath id="clip0_1576_33161"><rect width="53.5555" height="48.0541" fill="white" transform="translate(5 8)"></rect></clipPath></defs></svg> 