<?xml version="1.0" encoding="UTF-8"?> <svg xmlns="http://www.w3.org/2000/svg" width="64" height="64" viewBox="0 0 64 64" fill="none"><g clip-path="url(#clip0_1583_32857)"><path d="M19.0515 36.9988H5.95337V48.381H19.0515V36.9988Z" stroke="white" stroke-miterlimit="10"></path><path d="M5.95337 45.8453L7.85994 43.9387C8.47004 43.3286 9.46145 43.3286 10.0906 43.9387C10.7007 44.5488 11.7112 44.5488 12.3213 43.9387L13.675 42.585C14.2851 41.9749 15.2956 41.9749 15.9057 42.585L19.2421 45.9215" stroke="white" stroke-miterlimit="10"></path><path d="M12.1114 40.2973C12.1114 40.8121 11.692 41.2506 11.1581 41.2506C10.6243 41.2506 10.2048 40.8311 10.2048 40.2973C10.2048 39.7634 10.6243 39.344 11.1581 39.344C11.692 39.344 12.1114 39.7634 12.1114 40.2973Z" fill="white"></path><path d="M43.1886 27.0085V51.9846C43.1886 53.1476 42.2353 54.1009 41.0723 54.1009H19.6234C18.4604 54.1009 17.5071 53.1476 17.5071 51.9846V51.1076" stroke="white" stroke-linejoin="round"></path><path d="M43.1886 13.5482V11.0697C43.1886 9.90665 42.2353 8.95337 41.0723 8.95337H19.6234C18.4604 8.95337 17.5071 9.90665 17.5071 11.0697V33.815" stroke="black" stroke-linejoin="round"></path><path d="M43.1886 13.5482V11.0697C43.1886 9.90665 42.2353 8.95337 41.0723 8.95337H19.6234C18.4604 8.95337 17.5071 9.90665 17.5071 11.0697V33.815" stroke="url(#paint0_linear_1583_32857)" stroke-linejoin="round"></path><path d="M17.5071 16.8848H37.2591" stroke="white" stroke-linejoin="round"></path><path d="M21.8921 46.1697H43.1885" stroke="white" stroke-linejoin="round"></path><path d="M28.3555 50.1353H32.3211" stroke="white" stroke-linejoin="round"></path><path d="M28.3555 12.9189H32.3211" stroke="white" stroke-linejoin="round"></path><path d="M38.7843 31.5272C38.7843 36.1982 35.0093 39.9732 30.3382 39.9732C25.6671 39.9732 21.8921 36.1982 21.8921 31.5272C21.8921 26.8561 25.6671 23.0811 30.3382 23.0811C35.0093 23.0811 38.7843 26.8561 38.7843 31.5272Z" stroke="white" stroke-linejoin="round"></path><path d="M32.893 29.9447C32.893 31.3555 31.7491 32.4804 30.3573 32.4804C28.9655 32.4804 27.8215 31.3365 27.8215 29.9447C27.8215 28.5529 28.9655 27.4089 30.3573 27.4089C31.7491 27.4089 32.893 28.5529 32.893 29.9447Z" stroke="white" stroke-linejoin="round"></path><path d="M24.752 38.0858C24.752 34.9971 27.2496 32.4995 30.3382 32.4995C33.4268 32.4995 35.9244 34.9971 35.9244 38.0858" stroke="white" stroke-linejoin="round"></path><path d="M54.7804 16.8845H40.1189V24.1104H54.7804V16.8845Z" stroke="white" stroke-miterlimit="10"></path><path d="M42.9407 20.6023H51.8062" stroke="white" stroke-miterlimit="10"></path><path d="M48.7175 42.833H55.3715" stroke="white" stroke-miterlimit="10"></path><path d="M52.0349 42.9475V47.9427" stroke="white" stroke-miterlimit="10"></path><path d="M46.4678 39.2869H57.6021V50.4212H46.4678" stroke="white" stroke-miterlimit="10"></path><path d="M7.45947 12.9189H9.36604" stroke="white" stroke-miterlimit="10"></path><path d="M11.2727 12.9189H13.1793" stroke="white" stroke-miterlimit="10"></path><path d="M11.2727 20.5452H13.1793" stroke="white" stroke-miterlimit="10"></path><path d="M7.45947 16.7322H15.2573" stroke="white" stroke-miterlimit="10"></path><path d="M11.2727 16.7322H13.1793" stroke="white" stroke-miterlimit="10"></path></g><defs><linearGradient id="paint0_linear_1583_32857" x1="26.1027" y1="17.4587" x2="52.0856" y2="40.8023" gradientUnits="userSpaceOnUse"><stop offset="0.236106" stop-color="#DA291C"></stop><stop offset="1" stop-color="#FFCD00"></stop></linearGradient><clipPath id="clip0_1583_32857"><rect width="53.5555" height="47.0541" fill="white" transform="translate(5 8)"></rect></clipPath></defs></svg> 