<?xml version="1.0" encoding="UTF-8"?> <svg xmlns="http://www.w3.org/2000/svg" xmlns:xlink="http://www.w3.org/1999/xlink" width="196" height="67" viewBox="0 0 196 67"><defs><clipPath id="clip-Artboard_2"><rect width="196" height="67"></rect></clipPath></defs><g id="Artboard_2" data-name="Artboard – 2" clip-path="url(#clip-Artboard_2)"><rect width="196" height="67" fill="rgba(0,0,0,0)"></rect><g id="rx_source-logo-white" data-name="rx source-logo-white" transform="translate(4.3 3.75)"><g id="Group_2875" data-name="Group 2875"><path id="Path_44352" data-name="Path 44352" d="M70.2,4.1V55.3H28.3a25.6,25.6,0,1,1,0-51.2H70.2Z" fill="#fff"></path><g id="Group_2872" data-name="Group 2872"><path id="Path_44353" data-name="Path 44353" d="M151.7,55.8v-1a25.1,25.1,0,1,0,0-50.2v-1a26.1,26.1,0,1,1,0,52.2Z" fill="#fff"></path></g><g id="Group_2873" data-name="Group 2873"><path id="Path_44354" data-name="Path 44354" d="M19.6,39.8V19.3H31.3a15.786,15.786,0,0,1,5.2.8A7.56,7.56,0,0,1,40,22.5a6.015,6.015,0,0,1,1.3,3.8A5.271,5.271,0,0,1,40,29.9a8.3,8.3,0,0,1-3.6,2.3,17.265,17.265,0,0,1-5.4.7H24.1V28.6h5.5a12.734,12.734,0,0,0,2.2-.2,2.233,2.233,0,0,0,1.9-2.2,2.1,2.1,0,0,0-.5-1.5,2.189,2.189,0,0,0-1.4-.8,11.689,11.689,0,0,0-2.2-.3H27V39.7Zm15.8-9.4,6.7,9.4h-8l-6.6-9.4Z"></path><path id="Path_44355" data-name="Path 44355" d="M50.7,24.4l2.9,4.8,3.1-4.8H64l-5.5,7.7L75.2,55.9H68l-14.4-21-3.3,4.9H43l5.8-7.7-5.4-7.7Z"></path></g><g id="Group_2874" data-name="Group 2874"><path id="Path_44356" data-name="Path 44356" d="M91.6,27.9l-3.1.4a3.178,3.178,0,0,0-.3-.9,2.337,2.337,0,0,0-.7-.7,3.918,3.918,0,0,0-1.3-.2,3.018,3.018,0,0,0-1.9.5,1.887,1.887,0,0,0-1,1.3.959.959,0,0,0,.3,1,3.766,3.766,0,0,0,1.4.6l2.4.5a4.942,4.942,0,0,1,2.8,1.4,3.207,3.207,0,0,1,.6,2.6,3.707,3.707,0,0,1-1.2,2.3,4.942,4.942,0,0,1-2.4,1.5,8.662,8.662,0,0,1-3.2.6,6.684,6.684,0,0,1-4.1-1.1,3.544,3.544,0,0,1-1.4-3.1l3.3-.3a2.356,2.356,0,0,0,.7,1.5,2.86,2.86,0,0,0,1.7.5,3.645,3.645,0,0,0,2.1-.5,2.027,2.027,0,0,0,1-1.3.959.959,0,0,0-.3-1,3.963,3.963,0,0,0-1.3-.6l-2.4-.5a4.677,4.677,0,0,1-2.8-1.5,3.345,3.345,0,0,1-.6-2.7A3.577,3.577,0,0,1,81,26a5.745,5.745,0,0,1,2.2-1.5,7.286,7.286,0,0,1,3-.5A6.4,6.4,0,0,1,90,25a3.482,3.482,0,0,1,1.6,2.9Z" fill="#fff"></path><path id="Path_44357" data-name="Path 44357" d="M99.2,38.6a5.584,5.584,0,0,1-3.5-1,4.742,4.742,0,0,1-2-2.6,8.279,8.279,0,0,1-.2-3.9A8.018,8.018,0,0,1,95,27.3a8.387,8.387,0,0,1,2.7-2.6,7.9,7.9,0,0,1,3.8-.9,5.584,5.584,0,0,1,3.5,1,5.093,5.093,0,0,1,2,2.7,8.365,8.365,0,0,1,.2,3.9,8.018,8.018,0,0,1-1.5,3.8,6.785,6.785,0,0,1-2.8,2.5,7.244,7.244,0,0,1-3.7.9Zm.3-2.6a3.139,3.139,0,0,0,2.1-.7,4.978,4.978,0,0,0,1.5-1.7,6.193,6.193,0,0,0,.8-2.4,9.629,9.629,0,0,0,0-2.4,3.013,3.013,0,0,0-.8-1.7,2.445,2.445,0,0,0-1.8-.6,3.139,3.139,0,0,0-2.1.7,4.978,4.978,0,0,0-1.5,1.7,6.193,6.193,0,0,0-.8,2.4,8.817,8.817,0,0,0,0,2.3,2.449,2.449,0,0,0,.8,1.6,2.172,2.172,0,0,0,1.8.8Z" fill="#fff"></path><path id="Path_44358" data-name="Path 44358" d="M119,32.4l1.4-8.3h3.4l-2.4,14.3h-3.2l.4-2.5h-.1a5.2,5.2,0,0,1-1.9,2,5.426,5.426,0,0,1-2.9.7,3.793,3.793,0,0,1-2.4-.7,3.192,3.192,0,0,1-1.4-1.8,5.57,5.57,0,0,1-.1-2.9l1.5-9.1h3.4l-1.4,8.6a2.77,2.77,0,0,0,.4,2.1,2.2,2.2,0,0,0,1.8.8,2.822,2.822,0,0,0,1.5-.4,2.765,2.765,0,0,0,1.3-1.1,5.439,5.439,0,0,0,.7-1.7Z" fill="#fff"></path><path id="Path_44359" data-name="Path 44359" d="M124.8,38.4l2.4-14.3h3.2l-.4,2.4h.1a5.071,5.071,0,0,1,1.6-1.9,4.756,4.756,0,0,1,2.3-.7h.6c.2,0,.4.1.6.1l-.5,3.1c-.1-.1-.4-.1-.7-.1a2.769,2.769,0,0,0-.9-.1,3.287,3.287,0,0,0-1.7.4,4.735,4.735,0,0,0-1.3,1.1,2.928,2.928,0,0,0-.7,1.6L128,38.4Z" fill="#fff"></path><path id="Path_44360" data-name="Path 44360" d="M140.8,38.6a5.584,5.584,0,0,1-3.5-1,5.075,5.075,0,0,1-1.9-2.6,6.919,6.919,0,0,1-.1-3.8,8.018,8.018,0,0,1,1.5-3.8,8.632,8.632,0,0,1,2.8-2.6,7.956,7.956,0,0,1,3.8-1,5.2,5.2,0,0,1,2.9.7,3.512,3.512,0,0,1,1.8,1.8,4.833,4.833,0,0,1,.4,2.7h-3.2a2.06,2.06,0,0,0-.7-1.7,2.481,2.481,0,0,0-1.8-.7,2.7,2.7,0,0,0-1.9.6,5.356,5.356,0,0,0-1.5,1.5,5.673,5.673,0,0,0-.8,2.5,10.369,10.369,0,0,0,0,2.5,2.251,2.251,0,0,0,1,1.6,2.445,2.445,0,0,0,1.8.6,3.194,3.194,0,0,0,1.4-.3,2.836,2.836,0,0,0,1.1-.8,3.293,3.293,0,0,0,.7-1.3h3.2a8.449,8.449,0,0,1-1.3,2.7,6.9,6.9,0,0,1-2.4,1.8A8.808,8.808,0,0,1,140.8,38.6Z" fill="#fff"></path><path id="Path_44361" data-name="Path 44361" d="M156,38.6a6.273,6.273,0,0,1-3.5-.9,4.742,4.742,0,0,1-2-2.6,8.279,8.279,0,0,1-.2-3.9,8.84,8.84,0,0,1,1.5-3.9,7.74,7.74,0,0,1,2.8-2.6,7.873,7.873,0,0,1,3.7-1,6.051,6.051,0,0,1,2.4.4,4.628,4.628,0,0,1,1.8,1.3,4.074,4.074,0,0,1,1,2.2,11.379,11.379,0,0,1,0,3.2l-.1,1H151.7l.4-2.3h8.5a3.063,3.063,0,0,0-.1-1.7,1.946,1.946,0,0,0-1-1.2,3.447,3.447,0,0,0-3.4.1,9.336,9.336,0,0,0-1.5,1.3,2.837,2.837,0,0,0-.7,1.7l-.4,2.1a5.17,5.17,0,0,0,.1,2.2,2.209,2.209,0,0,0,1,1.3,3.425,3.425,0,0,0,1.8.4,5.9,5.9,0,0,0,1.4-.2,3.881,3.881,0,0,0,1.1-.6,2.539,2.539,0,0,0,.8-1l3.1.4a6.228,6.228,0,0,1-1.5,2.1,7.217,7.217,0,0,1-2.4,1.4,4.137,4.137,0,0,1-2.9.8Z" fill="#fff"></path></g></g></g></g></svg> 