<?xml version="1.0" encoding="UTF-8"?> <svg xmlns="http://www.w3.org/2000/svg" xmlns:xlink="http://www.w3.org/1999/xlink" version="1.1" id="Layer_1" x="0px" y="0px" viewBox="0 0 658.7 335.5" style="enable-background:new 0 0 658.7 335.5;" xml:space="preserve"> <style type="text/css"> .st0{fill-rule:evenodd;clip-rule:evenodd;fill:#006FAF;} </style> <g> <polygon class="st0" points="609.1,335.5 626.3,297.4 0,297.4 0,335.5 "></polygon> <polygon class="st0" points="79.4,284.2 79.4,254.3 65.2,254.3 94.6,205.9 94.6,284.2 149.3,284.2 149.3,83.9 101.7,83.9 2.3,284.2 "></polygon> <polygon class="st0" points="165.3,284.2 165.3,66.7 106.5,66.7 144.5,0 658.2,0 658.2,66.7 214.5,66.7 214.5,284.2 "></polygon> <path class="st0" d="M232,284.2V83.9h138.4c35,0,44.4,30.4,44.4,46.4v153.9h-50.7c0,0,0-169.9,0-162.3c0,7.4,2-12.2-6.3-12.2 c-0.5,0-9.6,0-9.6,0v174.4h-49.2V108h-17.5v176.2H232L232,284.2z"></path> <polygon class="st0" points="429.3,284.2 429.3,83.9 539.1,83.9 539.1,140 464.8,140 464.8,155.2 539.6,155.2 539.6,208.9 465.3,208.9 465.3,222.6 539.1,222.6 539.1,284.2 "></polygon> <polygon class="st0" points="554.3,284.2 554.3,83.9 606.3,83.9 606.3,223.1 658.7,223.1 633.4,284.2 "></polygon> </g> </svg> 