<?xml version="1.0" encoding="UTF-8"?> <svg xmlns="http://www.w3.org/2000/svg" xmlns:xlink="http://www.w3.org/1999/xlink" version="1.1" id="Layer_1" x="0px" y="0px" viewBox="0 0 64 64" style="enable-background:new 0 0 64 64;" xml:space="preserve"> <style type="text/css"> .st0{fill:#157CFF;} .st1{fill:#3A52DD;} .st2{fill:#3C54DF;} </style> <g> <path class="st0" d="M4.6,31.3c0-5,0-10,0-15c0-0.6,0.2-0.9,0.7-1.2c3.7-2.1,7.4-4.2,11-6.4c2.7-1.5,5.3-3.1,8-4.6 c1.6-0.9,3.1-1.8,4.7-2.7c0.3-0.1,0.7-0.3,0.9-0.1c0.2,0.2,0.4,0.6,0.4,0.9c0,1.6,0,3.2,0,4.7c0,2.4,0,4.8,0,7.2 c0,0.7-0.2,1.2-0.9,1.5c-3.9,2.2-7.8,4.5-11.7,6.7c-0.4,0.3-0.6,0.6-0.6,1.1c0,5.3,0,10.5,0,15.8c0,0.5,0.2,0.8,0.6,1.1 c4.5,2.6,9.1,5.2,13.6,7.8c0.5,0.3,0.9,0.3,1.4,0c3.7-2.2,7.4-4.3,11.1-6.4c1.7-1,1.2-0.9,2.7,0c3.3,1.9,6.6,3.8,9.9,5.7 c0.9,0.5,0.6,1.1,0,1.5c-6.8,3.9-13.6,7.8-20.4,11.8c-1.1,0.7-2.3,1.3-3.4,2c-0.4,0.2-0.7,0.2-1.1,0c-2.8-1.6-5.7-3.3-8.5-4.9 c-5.3-3.1-10.7-6.1-16-9.2c-0.6-0.3-1.2-0.7-1.8-1c-0.5-0.3-0.6-0.6-0.6-1.1C4.6,41.3,4.5,36.3,4.6,31.3L4.6,31.3z"></path> <path class="st1" d="M59.4,30c0,4.4,0,8.9,0,13.3c0,0.2,0,0.4,0,0.6c0,0.6-0.5,0.9-1.1,0.6c-1.4-0.8-2.9-1.6-4.3-2.4 c-2.1-1.2-4.3-2.5-6.4-3.7C47.2,38,47,37.7,47,37.1c0-4.5,0-9.1,0-13.6c0-0.6-0.2-0.9-0.7-1.2c-2.9-1.7-5.8-3.3-8.7-5 c-1.1-0.6-2.2-1.3-3.4-1.9c-0.3-0.2-0.5-0.5-0.5-0.9c0-4.2,0-8.3,0-12.5c0-0.8,0.5-1.1,1.2-0.7c2.6,1.5,5.1,3,7.7,4.5 C48,8.9,53.3,11.9,58.7,15c0.6,0.3,0.8,0.7,0.8,1.4C59.4,20.9,59.5,25.4,59.4,30L59.4,30z"></path> <path class="st2" d="M28.8,29.6c0.2-0.1,0.3-0.3,0.4-0.4c2.1-2.2,4.3-4.4,6.4-6.6c0.2-0.2,0.4-0.3,0.7-0.3c0.9,0,1.8,0,2.8,0 c-0.6,0.6-1.1,1.1-1.6,1.6c-2,2.1-4,4.1-6,6.2c-0.3,0.3-0.3,0.5,0,0.8c2.6,2.9,5.1,5.7,7.7,8.6c0.1,0.1,0.2,0.3,0.4,0.5 c-1.1,0-2,0-2.9,0c-0.2,0-0.4-0.2-0.5-0.4c-2.3-2.6-4.7-5.2-7-7.9c-0.1-0.2-0.3-0.3-0.5-0.6c0,0.3-0.1,0.5-0.1,0.8 c0,2.5,0,4.9,0,7.4c0,0.5-0.1,0.7-0.7,0.7c-0.4,0-0.8,0-1.2,0c-0.5,0.1-0.7-0.1-0.7-0.7c0-3.1,0-6.3,0-9.4c0-2.3,0-4.7,0-7 c0-0.5,0.1-0.7,0.6-0.6c0.4,0,0.8,0,1.2,0c0.5-0.1,0.7,0.1,0.7,0.7c0,2,0,3.9,0,5.9c0,0.2,0,0.4,0,0.7H28.8z"></path> </g> </svg> 