<?xml version="1.0" encoding="UTF-8"?> <svg xmlns="http://www.w3.org/2000/svg" xmlns:xlink="http://www.w3.org/1999/xlink" version="1.1" id="Layer_1" x="0px" y="0px" viewBox="0 0 64 64" style="enable-background:new 0 0 64 64;" xml:space="preserve"> <style type="text/css"> .st0{fill:#FFFFFF;} </style> <g> <g> <path class="st0" d="M36.9,32.7c-2.7,0-5-2-5.3-4.7c0-0.2,0-0.4,0-0.6c0-2.9,2.4-5.3,5.3-5.3c2.9,0,5.3,2.4,5.3,5.3 c0,0.2,0,0.3,0,0.5C41.8,30.7,39.6,32.7,36.9,32.7z M36.9,23.4c-2.2,0-4,1.8-4,4c0,0.1,0,0.3,0,0.4c0.2,2,1.9,3.6,4,3.6 c2,0,3.8-1.5,4-3.6c0-0.2,0-0.3,0-0.4C40.8,25.2,39.1,23.4,36.9,23.4z"></path> </g> <g> <path class="st0" d="M22.9,46.6c-2.9,0-5.3-2.4-5.3-5.3c0-2.9,2.4-5.3,5.3-5.3c0.2,0,0.3,0,0.5,0c2.8,0.3,4.8,2.6,4.8,5.3 s-2,5-4.7,5.3C23.3,46.6,23.1,46.6,22.9,46.6z M22.9,37.3c-2.2,0-4,1.8-4,4s1.8,4,4,4c0.2,0,0.3,0,0.4,0c2-0.2,3.5-1.9,3.5-4 s-1.5-3.7-3.6-4C23.2,37.3,23.1,37.3,22.9,37.3z"></path> </g> <g> <rect x="36.2" y="32" class="st0" width="1.3" height="29"></rect> </g> <g> <polygon class="st0" points="42.7,61 41.4,61 41.4,41 46,41 46,42.3 42.7,42.3 "></polygon> </g> <g> <polygon class="st0" points="32.9,61 31.5,61 31.5,42.3 27.6,42.3 27.6,41 32.9,41 "></polygon> </g> <g> <path class="st0" d="M50.7,46.6c-0.2,0-0.4,0-0.5,0c-2.6-0.2-4.8-2.5-4.8-5.3c0-2.7,2.1-5.1,4.9-5.3c0.1,0,0.3,0,0.4,0 c2.9,0,5.3,2.4,5.3,5.3C56,44.2,53.6,46.6,50.7,46.6z M50.6,37.3c-0.1,0-0.1,0-0.2,0c-2.1,0.2-3.7,1.9-3.7,4s1.6,3.8,3.6,4 c0.2,0,0.3,0,0.3,0c2.2,0,4-1.8,4-4C54.6,39.1,52.8,37.3,50.6,37.3z"></path> </g> <g> <path class="st0" d="M36.9,56.2c-6.3,0-12-4-14-10l-0.3-0.8l0.8-0.1c2-0.2,3.6-1.9,3.6-4s-1.5-3.7-3.6-4l-0.8-0.1l0.3-0.8 c1.5-4.3,4.9-7.7,9.2-9.2l0.8-0.3l0.1,0.8c0.2,2,1.9,3.6,4,3.6c2,0,3.8-1.5,4-3.6l0.1-0.8l0.8,0.3c4.3,1.5,7.7,4.9,9.2,9.2 l0.3,0.8l-0.9,0.1c-2,0.2-3.6,1.9-3.6,4s1.6,3.8,3.6,4l0.9,0.1l-0.3,0.8C48.8,52.1,43.2,56.2,36.9,56.2z M24.3,46.4 c2.1,5.1,7,8.4,12.5,8.4s10.4-3.3,12.5-8.4c-2.3-0.6-4-2.7-4-5.1c0-2.5,1.7-4.6,4-5.1c-1.4-3.3-4.1-6-7.4-7.4 c-0.6,2.3-2.7,3.9-5.1,3.9c-2.4,0-4.5-1.6-5.1-3.9c-3.3,1.4-6,4.1-7.4,7.4c2.3,0.6,3.9,2.7,3.9,5.1C28.3,43.7,26.6,45.8,24.3,46.4 z"></path> </g> <g> <path class="st0" d="M14,42.3c-0.1,0-11.4-0.9-12.1-11.9c0,0-1.1-7.7,8-11.8c0-2.3,0.8-12,11.8-15.2c0.1,0,12.5-3.3,18.7,8.9 c1.5-0.8,5.2-2.4,8.9,0.1c0,0,3.1,1.4,3.4,6.5c2,0,7.8,0.9,9.5,9.1c0,0.3,0.8,5.8-2.9,9.6l-0.9-0.9c3.2-3.3,2.6-8.4,2.5-8.5 c-1.7-8.7-8.5-8-8.7-8l-0.7,0.1v-0.7c0-4.7-2.6-5.9-2.7-6c-4-2.8-8,0.1-8.1,0.2L40,14.3l-0.3-0.7C33.9,1.6,22.1,4.7,22,4.7 C10.6,8.1,11.2,18.6,11.2,19v0.5l-0.4,0.2c-8.6,3.6-7.7,10.5-7.6,10.6C3.8,40.2,13.6,41,14.1,41L14,42.3z"></path> </g> </g> </svg> 