<?xml version="1.0" encoding="UTF-8"?> <svg xmlns="http://www.w3.org/2000/svg" xmlns:xlink="http://www.w3.org/1999/xlink" version="1.1" id="Layer_1" x="0px" y="0px" viewBox="0 0 64 64" style="enable-background:new 0 0 64 64;" xml:space="preserve"> <style type="text/css"> .st0{fill:#5294CF;} .st1{fill:#1F5B98;} .st2{fill:#2D72B8;} .st3{fill:#1A476F;} </style> <g> <path class="st0" d="M40,62.9h0.8L53,56.7l0.2-0.3V7.6L53,7.3L40.7,1.1H40L40,62.9"></path> <path class="st1" d="M24,62.9h-0.8L11,56.7l-0.2-0.4L10.7,7.8L11,7.3l12.2-6.1H24L24,62.9"></path> <path class="st2" d="M23.3,1.1h17.4v61.7H23.3V1.1z"></path> <path class="st3" d="M59.4,30.6L59,30.5L53.1,30L53,30l-12.3-0.5H23.3L11,30v-9.3l0,0l0,0l12.3-2.8h17.4L53,20.6l4.5,2.4v-1.5 l1.9-0.2l-0.2-0.4l-6-4.3L53,16.7l-12.3-3.8H23.3L11,16.7V7.3l-6.4,7.5v6.6l0,0l1.9,0.2v1.6l-1.9,1v6.5l0,0l1.9,0v2.7l-1.6,0 l-0.3,0v6.5l1.9,1v1.6l-1.8,0.2l-0.1-0.1v6.6l6.4,7.5v-9.4l12.3,3.8h17.4L53,47.3l0.2,0.1l6-4.2l0.3-0.4l-1.9-0.2V41l-0.2-0.1 l-4.1,2.2L53,43.4l-12.3,2.8v0H23.3v0L11,43.4V34l12.3,0.5v0h17.4L53,34l0.3,0.1l5.7-0.5l0.4-0.2l-1.9,0v-2.7L59.4,30.6"></path> <path class="st2" d="M53,47.3v9.4l6.4-7.5v-6.5L53,47.3L53,47.3 M53,43.4L53,43.4l6.4-3.4v-6.6L53,34L53,43.4 M53,20.7L53,20.7 l0,9.4l6.4,0.6v-6.6L53,20.7 M53,16.7l6.4,4.6v-6.5L53,7.3L53,16.7L53,16.7L53,16.7"></path> </g> </svg> 