<?xml version="1.0" encoding="UTF-8"?> <svg xmlns="http://www.w3.org/2000/svg" xmlns:xlink="http://www.w3.org/1999/xlink" version="1.1" id="Layer_1" x="0px" y="0px" viewBox="0 0 64 64" style="enable-background:new 0 0 64 64;" xml:space="preserve"> <style type="text/css"> .st0{fill:#1A476F;} .st1{fill:#1F5B98;} .st2{fill:#2D72B8;} .st3{fill:#5294CF;} </style> <g> <path class="st0" d="M1.4,46.6L8.6,53l0.6-0.6V11.6L8.6,11l-7.2,6.4V46.6"></path> <path class="st1" d="M8.6,53l13.7,5.2l0.6-0.7l0-51.2l-0.6-0.5L8.6,11L8.6,53"></path> <path class="st2" d="M62.6,17.4L55.4,11l-0.8,0.2l0.2,41.3l0.6,0.5l7.2-6.4V17.4"></path> <path class="st3" d="M41.7,58.2L55.4,53V11L41.7,5.8l-0.6,0.7l0,51L41.7,58.2"></path> <path class="st2" d="M22.3,5.8h19.4v52.4H22.3V5.8z"></path> </g> </svg> 