<?xml version="1.0" encoding="UTF-8"?> <svg xmlns="http://www.w3.org/2000/svg" xmlns:xlink="http://www.w3.org/1999/xlink" version="1.1" id="Layer_1" x="0px" y="0px" viewBox="0 0 64 64" style="enable-background:new 0 0 64 64;" xml:space="preserve"> <style type="text/css"> .st0{fill:#6C2DFE;} .st1{fill:#6E2FFE;} </style> <g> <path class="st0" d="M5.2,30.8c0.4-2.2,1-4.3,1.9-6.3c0.3-0.6,0.5-1,1.2-0.5c0.5,0.3,1.5,0.2,0.9,1.4c-4.3,9.8-2,20.9,5.9,28.3 c11.7,11,31.1,7.7,38.6-6.4c8-15-0.6-33-17.2-36.3c-2.7-0.5-5.4-0.6-8.1-0.2c-1.3,0.2-0.9-0.8-1.1-1.3C27,8.8,27.4,8.6,28,8.6 c9.2-1.1,17.2,1.5,23.5,8.3c7.3,7.8,9.4,17.1,5.9,27.2C54,54.2,46.6,60.3,36.1,62.2C21.7,64.7,7.7,54.5,5.2,40 c0-0.4-0.2-1.4-0.2-1.7C4.4,34.5,5.1,31.1,5.2,30.8z"></path> <path class="st0" d="M22.4,1.5c0.7,0,0.4,3,0.4,4.9c0,0.5-0.6,0.8-1.1,0.8c-1.1,0-2.2,0-3.3,0c-0.7,0-1.1-0.5-1.1-1.2 c0-1.1,0-2.2,0-3.2c0-0.5,0-0.9,0.6-1.2C19.4,1.5,20.9,1.5,22.4,1.5z M20.7,4.3c0.1-0.4-0.1-0.6-0.6-0.6c-0.4,0-0.6,0.1-0.6,0.5 s0,0.7,0.5,0.7C20.4,4.9,20.7,4.8,20.7,4.3z"></path> <path class="st0" d="M10.1,15.5c5.6,1,11.3,1,17.1,0.1c-0.4-0.4-0.8-0.4-1.1-0.4c-0.8,0-0.8-0.4-0.7-1c0.2-1.4,0.2-1.4,1.6-1.1 c1.1,0.2,2.1,0.4,3.1,0.9c1.3,0.7,1.5,1.5,0.7,2.7c-2.8,4.3-5.6,8.6-8.5,12.8c-0.4,0.7-0.4,1.3-0.4,2c0.1,1-0.4,1.5-1.3,1.8 c-1.5,0.4-2.9,0.4-4.4-0.1c-0.8-0.2-1.2-0.7-1.1-1.5c0.2-1.2-0.3-2.1-0.9-3.1c-2.5-3.9-5-7.9-7.5-11.9c-0.9-1.4-0.6-2.2,0.9-2.9 c1.4-0.6,2.9-0.9,4.4-1c1.5-0.2,3-0.2,4.6-0.3c0.6,0,0.9,0.1,0.8,0.8c0,1.8,0.1,1.4-1.4,1.5C13.9,14.9,12,15,10.1,15.5z M10,17.9 c0.3,0.5,0.5,0.8,0.7,1.1c2,3.1,3.9,6.2,5.9,9.3c0.4,0.6,0.8,1.3,0.7,2.1c-0.1,0.9,0.6,0.8,1.1,0.8c0.6,0,1.2,0.1,1.1-0.8 c-0.1-0.8,0.2-1.4,0.6-2c2.1-3.2,4.2-6.4,6.3-9.6c0.2-0.2,0.4-0.4,0.3-0.9C21.3,18.7,15.8,18.7,10,17.9z"></path> <path class="st1" d="M29.9,38.2c-0.1-0.6,0.1-1,0.9-1.2s1.3-0.8,1.5-1.7c0.1-0.9,0.8-0.6,1.3-0.6c0.4,0,1-0.3,1.2,0.5 c0.3,1.3,1.2,1.9,2.3,1.9s1.9-0.6,2.3-1.9c0.2-0.8,0.8-0.5,1.3-0.5c0.4,0,1-0.2,1.2,0.6c0.3,1.3,1.2,1.9,2.3,1.9s2-0.6,2.3-1.8 c0.2-0.8,0.8-0.6,1.2-0.6c0.5,0,1-0.3,1.3,0.6c0.3,1.2,1.2,1.9,2.4,1.8c1.1,0,1.9-0.6,2.3-1.8c0.2-0.5,1.3-0.9,2-0.6 c0.6,0.3,0.3,0.8,0.2,1.1c-0.8,3.3-4.7,4.7-7.4,2.6c-0.5-0.4-0.8-0.5-1.3-0.1c-1.8,1.5-4,1.4-5.9,0c-0.5-0.4-0.7-0.4-1.2,0 c-1.9,1.5-4.1,1.5-6.1-0.1c-0.4-0.3-0.6-0.4-1,0c-0.5,0.5-1.1,0.8-1.8,1C29.9,39.7,29.9,39.6,29.9,38.2z"></path> <path class="st0" d="M15.3,38.9c1,1.2,1.9,2.3,2.8,3.4c0.2,0.3,0.4,0.2,0.6,0c0.9-1.1,1.8-2.2,2.7-3.2c-0.2-0.4-0.5-0.2-0.7-0.3 c-0.8-0.1-1.2-0.5-1.2-1.3c0-0.6,0.1-1.3,0-1.9c-0.2-1.1,0.3-1.3,1.3-1.3c0.8,0,1.1,0.3,1,1.1c-0.2,1,0.2,1.4,1.2,1.2 c0.3,0,0.5,0,0.8,0c0.5,0,1,0.1,1.3,0.7c0.3,0.6,0,1-0.3,1.4c-1.8,2.1-3.6,4.3-5.4,6.4c-0.7,0.8-1.3,0.8-2,0 c-1.8-2.1-3.6-4.3-5.3-6.4c-0.3-0.4-0.5-0.8-0.3-1.3s0.7-0.7,1.2-0.7c0.1,0,0.3,0,0.4,0c1.6,0,1.6,0,1.7-1.6c0-0.9,0.6-0.7,1-0.7 c0.5,0.1,1.3-0.4,1.2,0.6c0,0.5,0,1.1,0,1.6C17.3,38.5,17.3,38.5,15.3,38.9z"></path> <path class="st1" d="M43.1,52.2c0,1.2-0.1,1.3-1.3,1c-0.3-0.1-0.6-0.1-0.7-0.3c-1-1-1.9-0.9-3.1-0.1c-1.7,1.1-3.5,0.7-5-0.6 c-0.4-0.3-0.6-0.4-1.1,0c-1.9,1.6-4.2,1.6-6.1,0c-0.5-0.4-0.7-0.4-1.2,0c-0.3,0.3-0.7,0.5-1.1,0.7c-1.6,0.7-2,0.5-1.9-1.2 c0-0.4,0.2-0.6,0.6-0.7c0.9-0.2,1.6-0.8,1.7-1.8c0.2-0.8,0.7-0.6,1.2-0.6s1.1-0.3,1.3,0.6c0.3,1.3,1.2,1.9,2.3,1.9 c1.1,0,2-0.6,2.3-1.8c0.2-0.9,0.9-0.6,1.4-0.6s1-0.2,1.2,0.6c0.3,1.2,1.2,1.8,2.3,1.8c1.2,0,2-0.6,2.4-1.8c0.2-0.8,0.7-0.6,1.2-0.6 s1.1-0.3,1.3,0.5c0.2,1,0.9,1.6,1.8,1.8C43.1,51.2,43.1,51.2,43.1,52.2z"></path> <path class="st1" d="M49.1,25.9c0,1.4-0.1,1.4-1.3,1.1c-0.8-0.2-1.5-1.1-2.2-1.2c-0.7,0-1.3,0.9-2.2,1.2c-1.6,0.5-3.1,0.2-4.4-0.9 c-0.5-0.4-0.7-0.4-1.2,0c-1.9,1.5-4.1,1.5-6,0c-0.4-0.3-0.7-0.5-1.1,0c-0.4,0.4-0.9,0.6-1.4,0.8c-1.5,0.6-1.7,0.4-1.7-1.2 c0-0.5,0.1-0.7,0.6-0.8c0.9-0.2,1.6-0.8,1.8-1.8c0.2-0.8,0.7-0.6,1.2-0.5c0.5,0,1.1-0.3,1.3,0.6c0.3,1.3,1.2,1.9,2.4,1.9 c1.1,0,2-0.7,2.3-1.8c0.2-0.9,0.9-0.5,1.4-0.6c0.5,0,1-0.2,1.2,0.6c0.3,1.2,1.2,1.8,2.3,1.8s2.1-0.6,2.3-1.8 c0.2-0.9,0.8-0.6,1.3-0.7c0.5,0,1.1-0.2,1.2,0.7c0.1,0.8,0.7,1.4,1.4,1.6C49.1,24.9,49.2,25.4,49.1,25.9z"></path> <path class="st0" d="M21.3,9.4c2.8,0,2.8,0,2.8,2.8c0,2.9,0,2.9-2.8,2.9s-2.8,0-2.8-2.9C18.4,9.4,18.4,9.4,21.3,9.4z M21.2,11.7 c-0.4,0-0.5,0.1-0.5,0.5s0.1,0.6,0.5,0.6s0.6-0.1,0.6-0.6C21.8,11.8,21.6,11.6,21.2,11.7z"></path> <path class="st0" d="M16.1,8.9c0,2.8,0,2.8-2.8,2.8s-2.8,0-2.8-2.8c0-2.9,0-2.9,2.9-2.9C16.1,6,16.1,6,16.1,8.9z M13.8,8.8 c0-0.4-0.1-0.5-0.5-0.5c-0.5,0-0.6,0.2-0.6,0.6c0,0.4,0.2,0.5,0.5,0.5C13.8,9.4,13.9,9.2,13.8,8.8z"></path> </g> </svg> 