<?xml version="1.0" encoding="UTF-8"?> <svg xmlns="http://www.w3.org/2000/svg" xmlns:xlink="http://www.w3.org/1999/xlink" version="1.1" id="Layer_1" x="0px" y="0px" viewBox="0 0 64 64" style="enable-background:new 0 0 64 64;" xml:space="preserve"> <style type="text/css"> .st0{fill:#D9A741;} .st1{fill:#876929;} .st2{fill:#624A1E;} .st3{fill:#FAD791;} </style> <g> <path class="st0" d="M57.6,21.2h-0.8L32,13.8v-0.3V1.1l25.6,12.8V21.2"></path> <path class="st1" d="M32,14.2V1.1L6.4,13.9v36.2l0,0l0,0L32,62.9l0.1-0.1V50.6v-0.1l-1.6-1.1l-19.8-5.9l0.1-22.9L32,14.2"></path> <path class="st0" d="M35.8,40.2L9.7,43.8V20.1l26.1,3.7V40.2"></path> <path class="st1" d="M22.6,38.7l9.4,1.2V24.2l-9.4,1.2V38.7 M13.1,37.4l6.1,0.8V25.7l-6.1,0.8V37.4"></path> <path class="st2" d="M9.7,20.2L32,13.5l25.6,7.7l-21.7,2.7L9.7,20.2"></path> <path class="st0" d="M57.6,36.6L32,39.8V24.1l25.6,3.3V36.6 M57.6,42.9H57l-24.9,7.5L32,50.5v12.3L57.6,50V42.9"></path> <path class="st3" d="M9.7,43.8L32,50.5l25.6-7.7l-21.7-2.7L9.7,43.8"></path> </g> </svg> 