<?xml version="1.0" encoding="UTF-8"?> <svg xmlns="http://www.w3.org/2000/svg" xmlns:xlink="http://www.w3.org/1999/xlink" version="1.1" id="Layer_1" x="0px" y="0px" viewBox="0 0 64 64" style="enable-background:new 0 0 64 64;" xml:space="preserve"> <style type="text/css"> .st0{fill-rule:evenodd;clip-rule:evenodd;fill:#FCBF92;} .st1{fill-rule:evenodd;clip-rule:evenodd;fill:#9D5025;} .st2{fill-rule:evenodd;clip-rule:evenodd;fill:#F58534;} </style> <symbol id="A" viewBox="-32.5 -40 65 80"> <g> <path class="st0" d="M32.4,4.7L-0.1,3.3l-32.4,1.4l32.4,15.3L32.4,4.7z"></path> <path class="st1" d="M-32.5,0h39v-36.7L0-40l-32.5,16.6V0z"></path> <path class="st0" d="M32.5,16.5L0,11.6l-32.5,4.8L0.1,40L32.5,16.5z"></path> <g> <path class="st1" d="M0,0h17.2v-25l-5-2L0-23.4V0z"></path> <path class="st1" d="M12.2,0h13.3v-16.2l-3.8-1.2l-9.5,1.6L12.2,0L12.2,0z"></path> <path class="st1" d="M21.7,0h10.7l0.1-18.7l-3.3-1.3l-7.6,1.4C21.7-18.7,21.7,0,21.7,0z"></path> </g> <path class="st2" d="M6.5-36.7L0-40V0h6.5V-36.7z M17.2-25l-5-2V0h5V-25z M25.4-16.2l-3.8-1.2V0h3.8V-16.2z M29.2-20.1l3.3,1.3V0 h-3.3V-20.1z M32.4,11.7l-32.4,8.3V8l32.4-3.3V11.7z M32.5,16.5L-0.1,28.2V40l32.6-16.6V16.5z"></path> <path class="st1" d="M-32.5,16.5l32.4,11.6V40l-32.4-16.6V16.5z M-32.5,4.7L-0.1,8v12l-32.4-8.3C-32.5,11.7-32.5,4.7-32.5,4.7z"></path> </g> </symbol> <use xlink:href="#A" width="65" height="80" x="-32.5" y="-40" transform="matrix(0.7701 0 0 0.7701 32 32)" style="overflow:visible;"></use> </svg> 