<?xml version="1.0" encoding="UTF-8"?> <svg xmlns="http://www.w3.org/2000/svg" xmlns:xlink="http://www.w3.org/1999/xlink" version="1.1" id="Layer_1" x="0px" y="0px" viewBox="0 0 64 64" style="enable-background:new 0 0 64 64;" xml:space="preserve"> <style type="text/css"> .st0{fill-rule:evenodd;clip-rule:evenodd;fill:#FCBF92;} .st1{fill-rule:evenodd;clip-rule:evenodd;fill:#6B3B19;} .st2{fill-rule:evenodd;clip-rule:evenodd;fill:#F58534;} .st3{fill-rule:evenodd;clip-rule:evenodd;fill:#9D5025;} </style> <symbol id="A" viewBox="-35 -40 70 80"> <g> <path class="st0" d="M18.6,21.6L0,17.7l-18.6,3.9L0,40L18.6,21.6z"></path> <path class="st1" d="M-35-13.8L0-40l35,26.2l-35,4L-35-13.8z"></path> <path class="st2" d="M0-23.6l35,9.8v-9.6L0-40V-23.6z M28-2.6L0-3.9v16l28-4L28-2.6L28-2.6z"></path> <path class="st3" d="M-28-2.6L0-3.9v16l-28-4C-28,8.1-28-2.6-28-2.6z M0-23.6l-35,9.8v-9.6L0-40V-23.6z"></path> <path class="st2" d="M18.6,21.6L0,27.7V40l18.6-8.8V21.6z"></path> <path class="st3" d="M-18.6,21.6L0,27.7V40l-18.6-8.8V21.6z"></path> </g> </symbol> <g> <use xlink:href="#A" width="70" height="80" x="-35" y="-40" transform="matrix(0.7726 0 0 0.7726 32.0005 32)" style="overflow:visible;"></use> </g> </svg> 