<?xml version="1.0" encoding="UTF-8"?> <svg xmlns="http://www.w3.org/2000/svg" xmlns:xlink="http://www.w3.org/1999/xlink" version="1.1" id="Layer_1" x="0px" y="0px" viewBox="0 0 2500 2500" style="enable-background:new 0 0 2500 2500;" xml:space="preserve"> <style type="text/css"> .st0{fill-rule:evenodd;clip-rule:evenodd;fill:url(#SVGID_1_);} </style> <g> <linearGradient id="SVGID_1_" gradientUnits="userSpaceOnUse" x1="183.8742" y1="1265.6436" x2="2347.3757" y2="1265.6436"> <stop offset="0" style="stop-color:#C8511B"></stop> <stop offset="1" style="stop-color:#FF9900"></stop> </linearGradient> <path class="st0" d="M1673.3,1488.5c0-67.6-54.7-122.5-122.3-122.7c-67.6,0.2-122.3,55.1-122.3,122.7 c0,67.6,54.7,122.5,122.3,122.7C1618.6,1611,1673.3,1556.2,1673.3,1488.5 M1224.8,1079.4c67.4,0,122.3-55.1,122.3-122.7 c0-67.6-54.9-122.7-122.3-122.7c-67.4,0-122.3,55.1-122.3,122.7C1102.5,1024.3,1157.4,1079.4,1224.8,1079.4 M857.9,1529.4 c67.4,0,122.3-55.1,122.3-122.7c0-67.6-54.9-122.7-122.3-122.7s-122.3,55.1-122.3,122.7C735.6,1474.3,790.5,1529.4,857.9,1529.4 M1754.8,1488.5c0,97-68.1,180.7-163.1,200.4v249.6c0,22.5-18.2,40.9-40.7,40.9h0h-285.3v245.5h-81.5v-450H857.9 c-22.5,0-40.8-18.4-40.7-40.9c0,0,0,0,0,0v-126.9c-95-19.7-163.1-103.4-163.1-200.4c0-112.8,91.4-204.5,203.8-204.5 s203.9,91.7,203.9,204.5c0,97-68.1,180.7-163.1,200.4v85.9h285.3v-536c-95-19.7-163-103.4-163-200.4 c0-112.8,91.4-204.6,203.8-204.6c112.4,0,203.9,91.8,203.9,204.6c0,97-68.1,180.7-163.1,200.4v740.5h244.6v-208.7 c-95-19.7-163.1-103.4-163.1-200.4c0-112.8,91.4-204.5,203.9-204.5C1663.4,1284,1754.8,1375.7,1754.8,1488.5 M2347.4,1286.6 c0,299.7-222.7,406.6-431.1,406.6v-81.8c105.1,0,349.6-31.7,349.6-324.7c0-219.3-166.2-298.8-305.5-326.9 c-18.2-3.7-31.6-19.1-32.7-37.7c-10.1-171.7-109.8-232.7-192.3-232.7c-55.6,0-107.9,26.6-143.2,73.1c-13.7,17.9-39.3,21.3-57.2,7.7 c-6.2-4.7-10.9-11.1-13.5-18.4c-31.9-86.9-77.7-159.9-136.2-216.7c-150.3-146.2-355.9-185.9-550-106 C674,494.9,547.8,685.3,547.8,862.6c0,19.6,1.1,39.3,3.6,58.5c2.5,20.6-10.6,39.8-30.6,44.8c-95.4,23.7-255.3,96.4-255.3,317.6 c0,8.4,0.4,16.4,0.8,24c9.5,170.3,159.9,303.8,342.3,303.8h45.6v81.8h-45.6c-225.6,0-411.8-167.4-423.7-381.2 c-0.5-9.5-0.8-18.9-0.9-28.4c0-257,177.6-353.1,283.3-387.4c-0.7-11.2-1-22.3-0.9-33.5c0-211.6,145.4-430.6,338.2-509.3 c224.9-92.5,463.2-46.6,637.5,123c53.6,52,97.8,115.3,131.9,188.7c45.7-37.1,102.8-57.4,161.7-57.4c120.8,0,247.7,86.5,270.8,278.6 C2226.5,940,2347.4,1081.3,2347.4,1286.6"></path> </g> </svg> 