<?xml version="1.0" encoding="UTF-8"?> <svg xmlns="http://www.w3.org/2000/svg" xmlns:xlink="http://www.w3.org/1999/xlink" version="1.1" id="Layer_1" x="0px" y="0px" viewBox="0 0 64 64" style="enable-background:new 0 0 64 64;" xml:space="preserve"> <style type="text/css"> .st0{fill:url(#SVGID_1_);} .st1{fill:url(#SVGID_00000120529330804464478800000002110980024585516187_);} .st2{fill:url(#SVGID_00000042722710197749216880000016075201664485564036_);} .st3{fill:url(#SVGID_00000106126787998897099210000008048780925994596251_);} .st4{fill:url(#SVGID_00000146482182505205882330000006557091815726961587_);} .st5{fill:url(#SVGID_00000049911609951230283540000015911553626134101437_);} .st6{fill:url(#SVGID_00000041975876880064971600000012093404591501250199_);} .st7{fill:url(#SVGID_00000121988594602094068270000016645065744172116140_);} </style> <g> <g> <linearGradient id="SVGID_1_" gradientUnits="userSpaceOnUse" x1="-1.0068" y1="-137.95" x2="63.7061" y2="-137.95" gradientTransform="matrix(1 0 0 1 0 170)"> <stop offset="0" style="stop-color:#FF5A2B"></stop> <stop offset="1" style="stop-color:#FF9201"></stop> </linearGradient> <path class="st0" d="M12.7,35.9H5.3c-0.2,0-0.4-0.2-0.4-0.4v-6.9c0-0.2,0.2-0.4,0.4-0.4h7.3c0.2,0,0.4,0.2,0.4,0.4v6.9 C13.1,35.7,12.9,35.9,12.7,35.9z M5.8,35h6.5v-6H5.8V35z"></path> </g> <g> <linearGradient id="SVGID_00000133508251519106347400000017601543692052975503_" gradientUnits="userSpaceOnUse" x1="-1.0068" y1="-137.95" x2="63.7061" y2="-137.95" gradientTransform="matrix(1 0 0 1 0 170)"> <stop offset="0" style="stop-color:#FF5A2B"></stop> <stop offset="1" style="stop-color:#FF9201"></stop> </linearGradient> <path style="fill:url(#SVGID_00000133508251519106347400000017601543692052975503_);" d="M29.4,35.9H22c-0.2,0-0.4-0.2-0.4-0.4 v-6.9c0-0.2,0.2-0.4,0.4-0.4h7.3c0.2,0,0.4,0.2,0.4,0.4v6.9C29.8,35.7,29.7,35.9,29.4,35.9z M22.5,35H29v-6h-6.5V35z"></path> </g> <g> <linearGradient id="SVGID_00000026125220712044455250000000381704487311126183_" gradientUnits="userSpaceOnUse" x1="-1.0068" y1="-137.95" x2="63.7061" y2="-137.95" gradientTransform="matrix(1 0 0 1 0 170)"> <stop offset="0" style="stop-color:#FF5A2B"></stop> <stop offset="1" style="stop-color:#FF9201"></stop> </linearGradient> <path style="fill:url(#SVGID_00000026125220712044455250000000381704487311126183_);" d="M46.3,35.9H39c-0.2,0-0.4-0.2-0.4-0.4 v-6.9c0-0.2,0.2-0.4,0.4-0.4h7.3c0.2,0,0.4,0.2,0.4,0.4v6.9C46.7,35.7,46.6,35.9,46.3,35.9z M39.4,35h6.5v-6h-6.5V35z"></path> </g> <g> <g> <linearGradient id="SVGID_00000052074960133298239820000014790959874627006608_" gradientUnits="userSpaceOnUse" x1="-1.0068" y1="-137.95" x2="63.7061" y2="-137.95" gradientTransform="matrix(1 0 0 1 0 170)"> <stop offset="0" style="stop-color:#FF5A2B"></stop> <stop offset="1" style="stop-color:#FF9201"></stop> </linearGradient> <path style="fill:url(#SVGID_00000052074960133298239820000014790959874627006608_);" d="M49.2,39.2H35.8c-0.2,0-0.4-0.2-0.4-0.4 v-4H33v4c0,0.2-0.2,0.4-0.4,0.4H19.1c-0.2,0-0.4-0.2-0.4-0.4v-4h-2.5v4c0,0.2-0.2,0.4-0.4,0.4H2.3c-0.2,0-0.4-0.2-0.4-0.4V25.3 c0-0.2,0.2-0.4,0.4-0.4h13.5c0.2,0,0.4,0.2,0.4,0.4v5h2.5v-5c0-0.2,0.2-0.4,0.4-0.4h13.4c0.2,0,0.4,0.2,0.4,0.4v4.9h2.4v-4.9 c0-0.2,0.2-0.4,0.4-0.4h13.4c0.2,0,0.4,0.2,0.4,0.4v2.8h7.7c0.2,0,0.4,0.2,0.4,0.4c0,0.2-0.2,0.4-0.4,0.4h-8.1 c-0.2,0-0.4-0.2-0.4-0.4v-2.8H36.2v4.9c0,0.2-0.2,0.4-0.4,0.4h-3.2c-0.2,0-0.4-0.2-0.4-0.4v-4.9H19.5v5c0,0.2-0.2,0.4-0.4,0.4 h-3.3c-0.2,0-0.4-0.2-0.4-0.4v-5H2.7v12.6h12.6v-4c0-0.2,0.2-0.4,0.4-0.4H19c0.2,0,0.4,0.2,0.4,0.4v4H32v-4 c0-0.2,0.2-0.4,0.4-0.4h3.2c0.2,0,0.4,0.2,0.4,0.4v4h12.6v-3c0-0.2,0.2-0.4,0.4-0.4h12c0.2,0,0.4,0.2,0.4,0.4s-0.2,0.4-0.4,0.4 H49.5v3C49.6,39,49.5,39.2,49.2,39.2z"></path> </g> <g> <g> <linearGradient id="SVGID_00000081627793742185194600000002768954077327054254_" gradientUnits="userSpaceOnUse" x1="-1.0068" y1="-134.7" x2="63.7061" y2="-134.7" gradientTransform="matrix(1 0 0 1 0 170)"> <stop offset="0" style="stop-color:#FF5A2B"></stop> <stop offset="1" style="stop-color:#FF9201"></stop> </linearGradient> <polygon style="fill:url(#SVGID_00000081627793742185194600000002768954077327054254_);" points="59.5,33.9 60.9,35.2 59.5,36.7 60.7,36.7 62.1,35.2 60.7,33.9 "></polygon> </g> </g> <g> <g> <linearGradient id="SVGID_00000111166401487052760350000018099143067409246090_" gradientUnits="userSpaceOnUse" x1="-1.0068" y1="-141.45" x2="63.7061" y2="-141.45" gradientTransform="matrix(1 0 0 1 0 170)"> <stop offset="0" style="stop-color:#FF5A2B"></stop> <stop offset="1" style="stop-color:#FF9201"></stop> </linearGradient> <polygon style="fill:url(#SVGID_00000111166401487052760350000018099143067409246090_);" points="55.6,30 57.1,28.6 55.6,27.1 56.9,27.1 58.3,28.6 56.9,30 "></polygon> </g> </g> </g> <g> <linearGradient id="SVGID_00000143618789197955816550000010927683633950757295_" gradientUnits="userSpaceOnUse" x1="-1.0068" y1="-151.35" x2="63.7061" y2="-151.35" gradientTransform="matrix(1 0 0 1 0 170)"> <stop offset="0" style="stop-color:#FF5A2B"></stop> <stop offset="1" style="stop-color:#FF9201"></stop> </linearGradient> <path style="fill:url(#SVGID_00000143618789197955816550000010927683633950757295_);" d="M39.8,22.4c-3.4-4.3-8.4-6.7-13.9-6.7 c-6,0-11.1,2.5-14.3,6.7l-0.7-0.5c3.3-4.5,8.8-7,15-7c5.7,0,11,2.6,14.6,7L39.8,22.4z"></path> </g> <g> <linearGradient id="SVGID_00000047033814271509463380000000358174368316813985_" gradientUnits="userSpaceOnUse" x1="-1.0068" y1="-124.55" x2="63.7061" y2="-124.55" gradientTransform="matrix(1 0 0 1 0 170)"> <stop offset="0" style="stop-color:#FF5A2B"></stop> <stop offset="1" style="stop-color:#FF9201"></stop> </linearGradient> <path style="fill:url(#SVGID_00000047033814271509463380000000358174368316813985_);" d="M25.3,49.2c-5.7,0-11-2.6-14.6-7l0.7-0.5 c3.4,4.3,8.4,6.7,13.9,6.7c6,0,11.1-2.5,14.3-6.7l0.7,0.5C37,46.6,31.5,49.2,25.3,49.2z"></path> </g> </g> </svg> 