<?xml version="1.0" encoding="UTF-8"?> <svg xmlns="http://www.w3.org/2000/svg" xmlns:xlink="http://www.w3.org/1999/xlink" version="1.1" id="Layer_1" x="0px" y="0px" viewBox="0 0 64 64" style="enable-background:new 0 0 64 64;" xml:space="preserve"> <style type="text/css"> .st0{fill:#FFFFFF;} </style> <g> <g> <g> <path class="st0" d="M31.9,22.9c-2.7,0-5-2-5.3-4.7c0-0.2,0-0.4,0-0.6c0-2.9,2.4-5.3,5.3-5.3s5.3,2.4,5.3,5.3c0,0.2,0,0.3,0,0.5 C36.8,20.9,34.6,22.9,31.9,22.9z M31.9,13.6c-2.2,0-4,1.8-4,4c0,0.1,0,0.3,0,0.4c0.2,2,1.9,3.6,4,3.6c2,0,3.8-1.5,4-3.6 c0-0.2,0-0.3,0-0.4C35.8,15.4,34.1,13.6,31.9,13.6z"></path> </g> <g> <path class="st0" d="M17.9,36.8c-2.9,0-5.3-2.4-5.3-5.3s2.4-5.3,5.3-5.3c0.2,0,0.3,0,0.5,0c2.8,0.3,4.8,2.6,4.8,5.3s-2,5-4.7,5.3 C18.3,36.8,18.1,36.8,17.9,36.8z M17.9,27.5c-2.2,0-4,1.8-4,4s1.8,4,4,4c0.2,0,0.3,0,0.4,0c2-0.2,3.5-1.9,3.5-4s-1.5-3.7-3.6-4 C18.2,27.5,18.1,27.5,17.9,27.5z"></path> </g> <g> <rect x="31.2" y="22.2" class="st0" width="1.3" height="29"></rect> </g> <g> <polygon class="st0" points="37.7,51.2 36.4,51.2 36.4,31.2 41,31.2 41,32.5 37.7,32.5 "></polygon> </g> <g> <polygon class="st0" points="27.9,51.2 26.5,51.2 26.5,32.5 22.6,32.5 22.6,31.2 27.9,31.2 "></polygon> </g> <g> <path class="st0" d="M45.7,36.8c-0.2,0-0.4,0-0.5,0c-2.6-0.2-4.8-2.5-4.8-5.3c0-2.7,2.1-5.1,4.9-5.3c0.1,0,0.3,0,0.4,0 c2.9,0,5.3,2.4,5.3,5.3C51,34.4,48.6,36.8,45.7,36.8z M45.6,27.5c-0.1,0-0.1,0-0.2,0c-2.1,0.2-3.7,1.9-3.7,4s1.6,3.8,3.6,4 c0.2,0,0.3,0,0.3,0c2.2,0,4-1.8,4-4S47.8,27.5,45.6,27.5z"></path> </g> <g> <path class="st0" d="M31.9,46.4c-6.3,0-12-4-14-10l-0.3-0.8l0.8-0.1c2-0.2,3.6-1.9,3.6-4s-1.5-3.7-3.6-4l-0.8-0.1l0.3-0.8 c1.5-4.3,4.9-7.7,9.2-9.2l0.8-0.3l0.1,0.8c0.2,2,1.9,3.6,4,3.6c2,0,3.8-1.5,4-3.6l0.1-0.8l0.8,0.3c4.3,1.5,7.7,4.9,9.2,9.2 l0.3,0.8l-0.9,0.1c-2,0.2-3.6,1.9-3.6,4s1.6,3.8,3.6,4l0.9,0.1l-0.3,0.8C43.8,42.3,38.2,46.4,31.9,46.4z M19.3,36.6 c2.1,5.1,7,8.4,12.5,8.4s10.4-3.3,12.5-8.4c-2.3-0.6-4-2.7-4-5.1c0-2.5,1.7-4.6,4-5.1c-1.4-3.3-4.1-6-7.4-7.4 c-0.6,2.3-2.7,3.9-5.1,3.9s-4.5-1.6-5.1-3.9c-3.3,1.4-6,4.1-7.4,7.4c2.3,0.6,3.9,2.7,3.9,5.1C23.3,33.9,21.6,36,19.3,36.6z"></path> </g> </g> <g> <path class="st0" d="M56,55.3H8V8.7h48V55.3z M9,54.3h46V9.7H9V54.3z"></path> </g> <g> <rect x="55.5" y="13.8" class="st0" width="4.4" height="1"></rect> </g> <g> <rect x="55.5" y="19.6" class="st0" width="4.4" height="1"></rect> </g> <g> <rect x="55.5" y="31.3" class="st0" width="4.4" height="1"></rect> </g> <g> <rect x="55.5" y="43" class="st0" width="4.4" height="1"></rect> </g> <g> <rect x="55.5" y="25.5" class="st0" width="4.4" height="1"></rect> </g> <g> <rect x="55.5" y="37.2" class="st0" width="4.4" height="1"></rect> </g> <g> <rect x="55.5" y="48.9" class="st0" width="4.4" height="1"></rect> </g> <g> <rect x="4.2" y="13.8" class="st0" width="4.4" height="1"></rect> </g> <g> <rect x="4.2" y="19.6" class="st0" width="4.4" height="1"></rect> </g> <g> <rect x="4.2" y="31.3" class="st0" width="4.4" height="1"></rect> </g> <g> <rect x="4.2" y="43" class="st0" width="4.4" height="1"></rect> </g> <g> <rect x="4.2" y="25.5" class="st0" width="4.4" height="1"></rect> </g> <g> <rect x="4.2" y="37.2" class="st0" width="4.4" height="1"></rect> </g> <g> <rect x="4.2" y="48.9" class="st0" width="4.4" height="1"></rect> </g> </g> </svg> 