<?xml version="1.0" encoding="UTF-8"?> <svg xmlns="http://www.w3.org/2000/svg" xmlns:xlink="http://www.w3.org/1999/xlink" version="1.1" id="Layer_1" x="0px" y="0px" viewBox="0 0 64 64" style="enable-background:new 0 0 64 64;" xml:space="preserve"> <style type="text/css"> .st0{fill-rule:evenodd;clip-rule:evenodd;fill:#205B99;} .st1{fill-rule:evenodd;clip-rule:evenodd;fill:#5294CF;} .st2{fill-rule:evenodd;clip-rule:evenodd;fill:#19486F;} .st3{fill-rule:evenodd;clip-rule:evenodd;fill:#99BCE3;} </style> <symbol id="A" viewBox="-35 -42.5 70 85"> <g> <path class="st0" d="M18.6,13.3L13,12.6v-25.1l5.6-0.7L34.5,0.7C34.5,0.7,18.6,13.3,18.6,13.3z"></path> <path class="st1" d="M-18.6,13.3l5.7-0.7v-25.1l-5.7-0.7L-34,0L-18.6,13.3z M9.7,9.5L0,10.8L-9.3-0.4L0-10.8l9.7,1.2 C9.7-9.5,9.7,9.5,9.7,9.5z M35,10l-16.4,3.3v-26.5L35-10C35-10,35,10,35,10z"></path> <path class="st0" d="M-9.6,9.6L0,10.8v-21.6l-9.6,1.2V9.6L-9.6,9.6z"></path> <g> <path class="st2" d="M5.9-15.8L-13-12.5l-5.7-0.7L0-42.5L5.9-15.8z"></path> <path class="st2" d="M18.6-13.2L13-12.5l-18.8-3.3L0-42.5L18.6-13.2z"></path> </g> <g> <path class="st3" d="M18.6,13.3L13,12.6l-18.8,3.3L0,42.5L18.6,13.3z"></path> <path class="st3" d="M5.9,15.9L-13,12.6l-5.7,0.7L0,42.5L5.9,15.9L5.9,15.9z"></path> </g> <path class="st1" d="M18.6-13.2L0-17l-17-8.8L0-42.5l18.6,9.4V-13.2L18.6-13.2z M18.6,33.1L0,42.5l-16.5-16.2L0,17.1l18.6-3.8 V33.1z"></path> <g> <path class="st0" d="M-18.6-13.2L0-17v-25.5l-18.6,9.4V-13.2L-18.6-13.2z"></path> <path class="st0" d="M-35,10l16.4,3.3v-26.5L-35-10C-35-10-35,10-35,10z"></path> <path class="st0" d="M-18.6,33.1L0,42.5V17.1l-18.6-3.8V33.1z"></path> </g> </g> </symbol> <use xlink:href="#A" width="70" height="85" x="-35" y="-42.5" transform="matrix(0.7202 0 0 0.7202 32.0005 31.9995)" style="overflow:visible;"></use> </svg> 