<?xml version="1.0" encoding="UTF-8"?> <svg xmlns="http://www.w3.org/2000/svg" xmlns:xlink="http://www.w3.org/1999/xlink" version="1.1" id="Layer_1" x="0px" y="0px" viewBox="0 0 64 64" style="enable-background:new 0 0 64 64;" xml:space="preserve"> <style type="text/css"> .st0{clip-path:url(#SVGID_00000178163024799330771280000001357198559545672867_);} .st1{fill:#A32422;} .st2{fill:#DC382C;} .st3{fill:#FFFFFF;} .st4{fill:#741113;} .st5{fill:#AC2724;} </style> <g> <g> <defs> <rect id="SVGID_1_" x="1.6" y="5.9" width="60.9" height="52.2"></rect> </defs> <clipPath id="SVGID_00000121265940598751955280000016871936601008690847_"> <use xlink:href="#SVGID_1_" style="overflow:visible;"></use> </clipPath> <g style="clip-path:url(#SVGID_00000121265940598751955280000016871936601008690847_);"> <path class="st1" d="M60,46.1c-3.2,1.7-20.1,8.6-23.7,10.5c-3.6,1.9-5.6,1.8-8.4,0.5C25.1,55.8,7.3,48.5,4,47 c-1.6-0.8-2.5-1.4-2.5-2v-6.2c0,0,23.3-5.1,27.1-6.4c3.8-1.4,5.1-1.4,8.3-0.2c3.2,1.2,22.4,4.6,25.5,5.8V44 C62.4,44.6,61.7,45.2,60,46.1L60,46.1z"></path> <path class="st2" d="M60,40c-3.2,1.7-20.1,8.6-23.7,10.5s-5.6,1.8-8.4,0.5C25.1,49.6,7.3,42.4,4,40.8S0.7,38.2,3.9,37 s21-8.2,24.7-9.6c3.8-1.4,5.1-1.4,8.3-0.2s20,7.8,23.1,9C63.1,37.3,63.3,38.3,60,40L60,40z"></path> <path class="st1" d="M60,36.1c-3.2,1.7-20.1,8.6-23.7,10.5c-3.6,1.9-5.5,1.8-8.4,0.5C25.1,45.7,7.3,38.5,4,37 c-1.6-0.8-2.5-1.4-2.5-2v-6.1c0,0,23.3-5.1,27.1-6.4c3.8-1.4,5.1-1.4,8.3-0.2s22.4,4.6,25.5,5.8V34C62.4,34.6,61.7,35.2,60,36.1z "></path> <path class="st2" d="M60,30c-3.2,1.7-20.1,8.6-23.7,10.5c-3.6,1.9-5.6,1.9-8.4,0.5C25.1,39.6,7.3,32.3,4,30.8 c-3.2-1.5-3.3-2.6-0.1-3.8c3.2-1.2,21-8.2,24.7-9.6c3.8-1.3,5.1-1.4,8.3-0.3s20,7.9,23.1,9S63.3,28.3,60,30L60,30z"></path> <path class="st1" d="M60,25.7c-3.2,1.7-20.1,8.6-23.7,10.5C32.7,38,30.8,38,28,36.7S7.3,28.1,4,26.6c-1.6-0.8-2.5-1.4-2.5-2v-6.2 c0,0,23.3-5.1,27.1-6.4s5.1-1.4,8.3-0.2s22.4,4.6,25.5,5.8v6.1C62.4,24.2,61.7,24.8,60,25.7z"></path> <path class="st2" d="M60,19.6C56.8,21.2,40,28.2,36.3,30c-3.6,1.8-5.6,1.8-8.4,0.5S7.3,21.9,4,20.4s-3.3-2.6-0.1-3.8 s21-8.2,24.7-9.6s5.1-1.4,8.3-0.2s20,7.8,23.1,9S63.3,17.9,60,19.6L60,19.6z"></path> </g> </g> <polygon class="st3" points="33,10.8 37,9.5 35.9,12.1 40,13.6 34.7,14.2 33.5,17 31.6,13.8 25.5,13.3 30.1,11.7 28.7,9.1 33,10.8 33,10.8 "></polygon> <polygon class="st3" points="33.2,27.4 23.4,23.3 37.5,21.2 33.2,27.4 33.2,27.4 "></polygon> <path class="st3" d="M19.6,15.2c4.2,0,7.5,1.3,7.5,2.9c0,1.6-3.4,2.9-7.5,2.9S12,19.7,12,18.1S15.4,15.2,19.6,15.2z"></path> <polygon class="st4" points="46.2,14.4 54.5,17.7 46.2,21 46.2,14.4 46.2,14.4 "></polygon> <polygon class="st5" points="46.2,14.4 46.2,21 45.3,21.4 37,18.1 46.2,14.4 46.2,14.4 "></polygon> </g> </svg> 