<?xml version="1.0" encoding="UTF-8"?> <svg xmlns="http://www.w3.org/2000/svg" xmlns:xlink="http://www.w3.org/1999/xlink" version="1.1" id="Layer_1" x="0px" y="0px" viewBox="0 0 64 64" style="enable-background:new 0 0 64 64;" xml:space="preserve"> <style type="text/css"> .st0{fill:#995B80;} .st1{fill:#7B3F65;} .st2{fill:#C17B9D;} </style> <g> <path class="st0" d="M25,57l-6.4-1.8l-6-6.9l7.5-0.2L25,57 M10.3,52.5l-3.6-1l-3.4-3.9l4.1-0.7L10.3,52.5"></path> <path class="st1" d="M1.2,47.1l3.7,0.7l0.5-0.9V15.2l-0.5-0.6l-3.7,2.1V47.1"></path> <path class="st2" d="M19,17.9L4.8,14.6v33.3L7,47.7l3.3,4.8l2.6-5.3l6.2-0.6L19,17.9"></path> <path class="st1" d="M9.4,48.8l6.3,1.3l0.4-1v-39l-0.4-0.9l-6.3,3.2L9.4,48.8"></path> <path class="st2" d="M51.4,20.8L15.6,9.3v40.8l4.1-0.5L25,57l4.1-8.6l22.3-2.9V20.8"></path> <path class="st0" d="M45,62.9l-9-2.5l-8.5-9.7l11.1-0.1L45,62.9"></path> <path class="st1" d="M22.8,51.4l9.2,1.8l0.7-0.6V2.1l-0.7-1l-9.2,4.6V51.4"></path> <path class="st2" d="M62.8,16.5L32,1.1v52.1l5.4-1.1L45,62.9l6.5-13.6l0,0L62.8,47V16.5"></path> </g> </svg> 