<?xml version="1.0" encoding="UTF-8"?> <svg xmlns="http://www.w3.org/2000/svg" xmlns:xlink="http://www.w3.org/1999/xlink" version="1.1" id="Layer_1" x="0px" y="0px" viewBox="0 0 64 64" style="enable-background:new 0 0 64 64;" xml:space="preserve"> <style type="text/css"> .st0{fill-rule:evenodd;clip-rule:evenodd;fill:#19486F;} .st1{fill-rule:evenodd;clip-rule:evenodd;fill:#205B99;} .st2{fill-rule:evenodd;clip-rule:evenodd;fill:#99BCE3;} .st3{fill-rule:evenodd;clip-rule:evenodd;fill:#5294CF;} </style> <symbol id="A" viewBox="-35 -42.5 70 85"> <g> <path class="st0" d="M21-15l9.5-12.2L35-15l-9.2,1.2L21-15z"></path> <path class="st1" d="M5.3,17.9L30.5,23l4-16.9l-4-16.9L5.3-8.5V17.9L5.3,17.9z"></path> <path class="st2" d="M0,6v19.4l30.5-20L7.4,4.4L0,6z"></path> <g> <path class="st1" d="M5.9,0h8.9l11.9-11.6L14.8-28.1l-8.9,2.6V0z"></path> <path class="st1" d="M21-15l9.5-1.3v-10.9L21-24.9C21-24.9,21-15,21-15z"></path> </g> <g> <path class="st3" d="M35,5L0,8.5v34l35-17.6V5z"></path> <path class="st3" d="M0,42.5l10.5-15.2v-42.2L0-17l-10.9,27.8L0,42.5z M30.5,17.1l4.5,7.8V-9.9l-4.5-0.9 C30.5-10.9,30.5,17.1,30.5,17.1z M35-24.9l-4.5-2.2v10.9L35-15V-24.9z M28-22.8l-13.2-5.3V0H28V-22.8z"></path> </g> <path class="st0" d="M-21-15l-9.5-12.2L-35-15l9.2,1.2L-21-15z"></path> <path class="st3" d="M-5.3,17.9L-30.5,23v-33.9l25.3,2.4V17.9L-5.3,17.9z"></path> <path class="st2" d="M0,6v21.6L-30.5,5.4l23.1-1.1L0,6z"></path> <g> <path class="st3" d="M-5.9,0h-8.9l-11-13.2l11-14.9l8.9,2.6V0z"></path> <path class="st3" d="M-21-15l-9.5-1.3v-10.9l9.5,2.2V-15z"></path> </g> <g> <path class="st1" d="M-35,5L0,8.5v34l-35-17.6V5z"></path> <path class="st1" d="M0,42.5l-10.5-14.1v-43.3L0-17V42.5z M-30.5,24.1l-4.5,0.8V-9.9l4.5-0.9V24.1z M-35-24.9l4.5-2.2v10.9 L-35-15V-24.9z M-28-22.8l13.2-5.3V0H-28V-22.8z"></path> </g> <path class="st0" d="M10.5-22.3L0-19.8l-10.5-2.5L0-42.5L10.5-22.3z"></path> <path class="st3" d="M0-42.5l10.5,5.3v14.9L0-25.5V-42.5z"></path> <path class="st1" d="M0-42.5l-10.5,5.3v14.9L0-25.5V-42.5z"></path> </g> </symbol> <use xlink:href="#A" width="70" height="85" x="-35" y="-42.5" transform="matrix(0.7342 0 0 0.7342 32 32)" style="overflow:visible;"></use> </svg> 