<?xml version="1.0" encoding="UTF-8"?> <svg xmlns="http://www.w3.org/2000/svg" xmlns:xlink="http://www.w3.org/1999/xlink" version="1.1" id="Layer_1" x="0px" y="0px" viewBox="0 0 64 64" style="enable-background:new 0 0 64 64;" xml:space="preserve"> <style type="text/css"> .st0{fill:#1C5A9A;} .st1{fill:#4E93D1;} .st2{fill:#174670;} .st3{fill:#99BCE5;} </style> <g> <polygon class="st0" points="31.9,14.2 7.1,21.6 7.1,14.3 31.9,2.1 "></polygon> <polygon class="st1" points="56.9,21.6 31.9,14.2 31.9,2.1 56.9,14.4 "></polygon> <polygon class="st2" points="56.9,21.6 31.9,24.2 7.1,21.6 31.9,14.2 "></polygon> </g> <polygon class="st0" points="31.9,61.8 7.1,49.7 7.1,42.4 31.9,49.8 "></polygon> <polygon class="st1" points="56.9,49.6 31.9,61.8 31.9,49.7 56.9,42.4 "></polygon> <polygon class="st3" points="31.9,49.8 7.1,42.4 31.9,39.8 56.9,42.4 "></polygon> <polygon class="st1" points="42.4,39.3 31.9,40.7 31.9,23 42.4,24.7 "></polygon> <polygon class="st0" points="21.6,39.3 31.9,40.7 31.9,23 21.6,24.7 "></polygon> </svg> 