<?xml version="1.0" encoding="UTF-8"?> <svg xmlns="http://www.w3.org/2000/svg" xmlns:xlink="http://www.w3.org/1999/xlink" version="1.1" id="Layer_1" x="0px" y="0px" viewBox="0 0 64 64" style="enable-background:new 0 0 64 64;" xml:space="preserve"> <style type="text/css"> .st0{fill-rule:evenodd;clip-rule:evenodd;fill:#F58534;} .st1{fill-rule:evenodd;clip-rule:evenodd;fill:#9D5125;} .st2{fill-rule:evenodd;clip-rule:evenodd;fill:#6B3B19;} .st3{fill-rule:evenodd;clip-rule:evenodd;fill:#FCBF92;} </style> <symbol id="A" viewBox="-32.5 -40 65 80"> <g> <path class="st0" d="M-21.1-21.9l-11.4-1.5v40l11.4-2.7V-21.9z"></path> <path class="st1" d="M-32.5-17.1l11.4,1.8L0-21l21.1,5.6v28.1l11.4,3.9v-40L0-40l-32.5,16.5V-17.1z"></path> <path class="st2" d="M-5.3-22.4L0.1-24L26-16.1l-4.9,0.7C21.1-15.4-5.3-22.4-5.3-22.4z"></path> <path class="st3" d="M-5.4,27.5v-16l26.5-3.7L26,8.2v9.5L-5.4,27.5z"></path> <path class="st2" d="M5.3-22.4L-0.1-24L-26-16.1l4.9,0.7L5.3-22.4z"></path> <path class="st3" d="M5.3,25.3V11.5l-26.5-3.7L-26,8.2v9.1C-26,17.4,5.3,25.3,5.3,25.3z"></path> <g> <path class="st0" d="M32.5-14.1L0-24v-16l32.5,16.5C32.5-23.5,32.5-14.1,32.5-14.1z M32.5,16.6L0,28.3v-16l32.5-5.2 C32.5,7.2,32.5,16.6,32.5,16.6z"></path> <path class="st0" d="M26-26.6l6.5,3.3v39.9L26,18.9C26,18.9,26-26.6,26-26.6z M9.7,13.9l-9.7,2V40l9.7-5 C9.7,35,9.7,13.9,9.7,13.9z"></path> </g> <g> <path class="st1" d="M21.1-15.4l4.9-0.7V8.2l-4.9-0.4V-15.4z M-32.5,16.6L0,28.3v-16l-32.5-5.2C-32.5,7.2-32.5,16.6-32.5,16.6z"></path> <path class="st1" d="M-26-26.6l-6.5,3.3v39.9l6.5,2.4C-26,18.9-26-26.6-26-26.6z M-9.7,13.9l9.7,2V40l-9.7-5 C-9.7,35-9.7,13.9-9.7,13.9z"></path> </g> </g> </symbol> <use xlink:href="#A" width="65" height="80" x="-32.5" y="-40" transform="matrix(0.7801 0 0 0.7801 32 32)" style="overflow:visible;"></use> </svg> 