<?xml version="1.0" encoding="UTF-8"?> <svg xmlns="http://www.w3.org/2000/svg" xmlns:xlink="http://www.w3.org/1999/xlink" version="1.1" id="Layer_1" x="0px" y="0px" viewBox="0 0 64 64" style="enable-background:new 0 0 64 64;" xml:space="preserve"> <style type="text/css"> .st0{fill-rule:evenodd;clip-rule:evenodd;fill:#5294CF;} .st1{fill-rule:evenodd;clip-rule:evenodd;fill:#205B99;} .st2{fill-rule:evenodd;clip-rule:evenodd;fill:#2E73B8;} </style> <g id="A"> <g> <path class="st0" d="M48.4,32L56,53.9l4.8-2.2V12.2L56,9.9L48.4,32z"></path> <path class="st1" d="M20,32L7.9,53.9l-4.8-2.2V12.2l4.8-2.2L20,32z M32,15.6l24-5.7V54l-24-5.7V15.6z"></path> <g> <path class="st0" d="M32,15.6L8,9.9V54l24-5.7V15.6z"></path> <path class="st0" d="M28.6,30.5l9.2-29.2L47,5.7v52.6l-9.2,4.5L28.6,30.5z"></path> </g> <path class="st1" d="M34.4,32L26.2,1.2l-9.2,4.5v52.6l9.2,4.5L34.4,32z"></path> <path class="st2" d="M26.2,62.8h11.5V1.2H26.2V62.8z"></path> </g> </g> </svg> 