<?xml version="1.0" encoding="UTF-8"?> <svg xmlns="http://www.w3.org/2000/svg" xmlns:xlink="http://www.w3.org/1999/xlink" version="1.1" id="Layer_1" x="0px" y="0px" viewBox="0 0 64 64" style="enable-background:new 0 0 64 64;" xml:space="preserve"> <style type="text/css"> .st0{fill-rule:evenodd;clip-rule:evenodd;fill:#9D5025;} .st1{fill-rule:evenodd;clip-rule:evenodd;fill:#F58534;} .st2{fill-rule:evenodd;clip-rule:evenodd;fill:#6B3B19;} .st3{fill-rule:evenodd;clip-rule:evenodd;fill:#FCBF92;} </style> <symbol id="A" viewBox="-32.5 -40 65 80"> <g> <path class="st0" d="M-32.5,23.5l4.2,2.2l1.7-0.4L-26.3-5l-2-0.1l-4.2,0.4V23.5L-32.5,23.5z"></path> <path class="st1" d="M-20.9,23.8l-7.5,1.8V-5.1l7.5,0.4C-20.9-4.7-20.9,23.8-20.9,23.8z"></path> <path class="st0" d="M-24.4,27.6l7.1,3.7l4.6-1.5v-47.6l-4.6-0.9l-7.1,2.2V27.6L-24.4,27.6z"></path> <path class="st1" d="M-5.1,27.3l-12.2,4v-50l12.2,2.4V27.3z"></path> <path class="st0" d="M21.9-17.2v34.5l8.2,1.3v-37.3L21.9-17.2z"></path> <path class="st2" d="M3-19.2l1.7-10.5l23.7,8.9v5.6L22-14.4C22-14.4,3-19.2,3-19.2z"></path> <path class="st3" d="M0.7,19.9l6.9,8.3L28.3,21v-5.7L22,14.4C22,14.4,0.7,19.9,0.7,19.9z"></path> <path class="st0" d="M-11.6,34.1L0,40l6.8-3.5l2.3-71.9L0-40l-11.6,5.9V34.1z"></path> <path class="st1" d="M0-40v80l32.5-16.6v-46.8L0-40z M28.3,15.4L9.7,21v-41.9l18.6,5.6L28.3,15.4z"></path> </g> </symbol> <use xlink:href="#A" width="65" height="80" x="-32.5" y="-40" transform="matrix(0.7691 0 0 0.7691 31.9995 32.0005)" style="overflow:visible;"></use> </svg> 