<?xml version="1.0" encoding="UTF-8"?> <svg xmlns="http://www.w3.org/2000/svg" xmlns:xlink="http://www.w3.org/1999/xlink" version="1.1" id="Layer_1" x="0px" y="0px" viewBox="0 0 64 64" style="enable-background:new 0 0 64 64;" xml:space="preserve"> <style type="text/css"> .st0{fill-rule:evenodd;clip-rule:evenodd;fill:#FCBF92;} .st1{fill-rule:evenodd;clip-rule:evenodd;fill:#9D5025;} .st2{fill-rule:evenodd;clip-rule:evenodd;fill:#F58534;} </style> <symbol id="A" viewBox="-40 -40 80 80"> <g> <path class="st0" d="M40,8.4l-40-5l-40,5L0,40C0,40,40,8.4,40,8.4z"></path> <path class="st1" d="M-40,8.4L0,20.4V40l-40-20.3V8.4z"></path> <path class="st2" d="M40,8.4L0,20.4V40l40-20.3V8.4z"></path> <path class="st1" d="M-34.8-8.8H-40V2.7l5.2,1l5.7-6.2L-34.8-8.8L-34.8-8.8z"></path> <path class="st2" d="M-29.1,3.1l-5.7,0.5V-8.8h5.7V3.1z"></path> <path class="st1" d="M-25.2-23.2l-6.8,1.3V4.2l6.8,1.4L-19-8.8L-25.2-23.2L-25.2-23.2z"></path> <path class="st2" d="M-19,4.9l-6.2,0.7v-28.8l6.2,0.7C-19-22.5-19,4.9-19,4.9z"></path> <path class="st1" d="M-12-17.4l-9.4,1V6.5l9.4,1.9L-2-4.6C-2-4.6-12-17.4-12-17.4z"></path> <path class="st2" d="M-5.6,7.3L-12,8.4v-25.7l6.3,0.5V7.3L-5.6,7.3z"></path> <g> <path class="st1" d="M0-38.1l-6.3,2V9.4L0,10.7l6.3-24.4L0-38.1z"></path> <path class="st1" d="M5.9,7.3L12,8.4l9.4-17.2L12-25.9l-6.1,1V7.3z"></path> <path class="st1" d="M21.4-8.8L12-25.9l-6.1,1"></path> <path class="st1" d="M18.9,4.9l6.3,0.7L32-16.1l-6.8-21.6l-6.3,1.5V4.9L18.9,4.9z"></path> <path class="st1" d="M29.1,3.1l5.7,0.5L40-17.8L34.8-40l-5.7,1.4V3.1z"></path> </g> <path class="st2" d="M0-38.1l6.3,2V9.4L0,10.7V-38.1z M21.4-24L12-25.9V8.4l9.4-1.9V-24z M32-34.9l-6.8-2.7V5.6L32,4.2V-34.9z M40-37.4L34.8-40V3.6l5.2-1V-37.4z"></path> </g> </symbol> <use xlink:href="#A" width="80" height="80" x="-40" y="-40" transform="matrix(0.7531 0 0 0.7531 32 32)" style="overflow:visible;"></use> </svg> 