<?xml version="1.0" encoding="UTF-8"?> <svg xmlns="http://www.w3.org/2000/svg" xmlns:xlink="http://www.w3.org/1999/xlink" version="1.1" id="Layer_1" x="0px" y="0px" viewBox="0 0 64 64" style="enable-background:new 0 0 64 64;" xml:space="preserve"> <style type="text/css"> .st0{fill-rule:evenodd;clip-rule:evenodd;fill:#6B3A19;} .st1{fill-rule:evenodd;clip-rule:evenodd;fill:#F58536;} .st2{fill-rule:evenodd;clip-rule:evenodd;fill:#9D5025;} .st3{fill-rule:evenodd;clip-rule:evenodd;fill:#FCBF92;} .st4{fill-rule:evenodd;clip-rule:evenodd;fill:#F58534;} </style> <symbol id="A" viewBox="-72 -87 144 174"> <g> <path class="st0" d="M-37.1-11.5l-20.3-35.6l-14.5,36l20.7,0.1L-37.1-11.5L-37.1-11.5z"></path> <path class="st1" d="M-38.5-11.6L-57-13.1V-48l20,5.5v31.1L-38.5-11.6z"></path> <path class="st2" d="M-72-11l15-2.2V-48l-15,7.4V-11z"></path> <path class="st0" d="M20.9-17.1L1.1-15.4L-20.8-17L1.1-73.1L20.9-17.1z"></path> <path class="st1" d="M21-17L1-19.3V-87l20,10.8V-17z"></path> <path class="st2" d="M-21-17l22-2.3V-87l-22,10.9V-17z"></path> <path class="st0" d="M72-12.2l-14.5-23L38-12.2l14.3,0.7L72-12.2z"></path> <path class="st1" d="M70.7-12.4l-12.8-1.8V-36L72-31.4v19.1L70.7-12.4z"></path> <path class="st2" d="M38-12.2l20-1.9L58-36l-20,3.5V-12.2z"></path> <path class="st3" d="M22.2,54.2L1.6,47.8l-21.4,6.4L1.6,72.3L22.2,54.2z"></path> <path class="st2" d="M-20,54l21,7.2V87l-21-10.9V54z"></path> <path class="st4" d="M22,54L1,61.2V87l21-10.9V54z"></path> </g> <g> <path class="st4" d="M72,1L1,1l0,42l71-18.4"></path> <path class="st2" d="M-71,1L1,1l0,42l-72-18.4V1z"></path> </g> </symbol> <g> <use xlink:href="#A" width="144" height="174" x="-72" y="-87" transform="matrix(0.3546 0 0 0.3546 32 32)" style="overflow:visible;"></use> </g> </svg> 