<?xml version="1.0" encoding="UTF-8"?> <svg xmlns="http://www.w3.org/2000/svg" xmlns:xlink="http://www.w3.org/1999/xlink" version="1.1" id="Layer_1" x="0px" y="0px" viewBox="0 0 64 64" style="enable-background:new 0 0 64 64;" xml:space="preserve"> <g> <g> <path d="M42,41.4c-4.2,0-8-2.7-9.4-6.6l2.8-1c1,2.8,3.7,4.7,6.6,4.7c2.8,0,5.4-1.7,6.5-4.3l2.7,1.1C49.6,39,46,41.4,42,41.4z"></path> </g> <g> <path d="M35.2,29.5l-2.8-0.8c1.2-4.3,5.2-7.2,9.6-7.2c4.4,0,8.2,2.8,9.5,7l-2.8,0.9c-0.9-3-3.6-4.9-6.7-4.9 C38.8,24.4,36.1,26.5,35.2,29.5z"></path> </g> <g> <path d="M30.8,28.8l-2.9-0.6c1.3-6.8,7.3-11.7,14.2-11.7c6.4,0,11.9,4.1,13.8,10.2l-2.8,0.9c-1.5-4.9-5.9-8.1-11-8.1 C36.6,19.5,31.9,23.4,30.8,28.8z"></path> </g> <g> <path d="M42.1,46.1c-6.4,0-12.1-4.3-13.9-10.4l2.8-0.8c1.4,4.9,6,8.3,11.1,8.3c1.2,0,2.3-0.2,3.4-0.5l0.9,2.8 C45.1,45.9,43.6,46.1,42.1,46.1z"></path> </g> <g> <path d="M25.4,27.5l-2.9-0.7c2.1-9.2,10.2-15.6,19.7-15.6v2.9C34.1,14.2,27.2,19.7,25.4,27.5z"></path> </g> <g> <path d="M42.1,51.6c-7.8,0-14.7-4.3-18.1-11.3l2.6-1.3c2.9,6,8.9,9.7,15.5,9.7c4,0,7.9-1.4,11-3.9L55,47 C51.4,50,46.8,51.6,42.1,51.6z"></path> </g> <g> <path d="M59.3,42l-2.5-1.5c1.7-2.7,2.6-5.8,2.6-9c0-2.6-0.6-5.2-1.7-7.5l2.6-1.3c1.3,2.8,2,5.7,2,8.8C62.3,35.2,61.3,38.8,59.3,42 z"></path> </g> <g> <path d="M7.8,38.3c-3.4,0-6.1-2.7-6.1-6.1s2.7-6.1,6.1-6.1s6.1,2.7,6.1,6.1S11.1,38.3,7.8,38.3z M7.8,29c-1.7,0-3.2,1.4-3.2,3.2 c0,1.7,1.4,3.2,3.2,3.2c1.7,0,3.2-1.4,3.2-3.2C10.9,30.4,9.5,29,7.8,29z"></path> </g> <g> <path d="M16.3,55.5c-3.4,0-6.1-2.7-6.1-6.1c0-3.4,2.7-6.1,6.1-6.1s6.1,2.7,6.1,6.1C22.4,52.8,19.6,55.5,16.3,55.5z M16.3,46.3 c-1.7,0-3.2,1.4-3.2,3.2c0,1.7,1.4,3.2,3.2,3.2c1.7,0,3.2-1.4,3.2-3.2C19.4,47.7,18,46.3,16.3,46.3z"></path> </g> <g> <path d="M16.3,20.7c-3.4,0-6.1-2.7-6.1-6.1s2.7-6.1,6.1-6.1s6.1,2.7,6.1,6.1S19.6,20.7,16.3,20.7z M16.3,11.4 c-1.7,0-3.2,1.4-3.2,3.2s1.4,3.2,3.2,3.2c1.7,0,3.2-1.4,3.2-3.2S18,11.4,16.3,11.4z"></path> </g> <g> <rect x="45.6" y="30.7" width="16.3" height="2.9"></rect> </g> <g> <rect x="12.8" y="30.7" width="21.3" height="2.9"></rect> </g> <g> <rect x="21.1" y="16.4" transform="matrix(0.6886 -0.7252 0.7252 0.6886 -7.6835 22.6604)" width="2.9" height="7.7"></rect> </g> <g> <rect x="19.1" y="42.6" transform="matrix(0.7437 -0.6685 0.6685 0.7437 -23.4953 26.9399)" width="8.6" height="2.9"></rect> </g> </g> </svg> 