<?xml version="1.0" encoding="UTF-8"?> <svg xmlns="http://www.w3.org/2000/svg" xmlns:xlink="http://www.w3.org/1999/xlink" version="1.1" id="Layer_1" x="0px" y="0px" viewBox="0 0 64 64" style="enable-background:new 0 0 64 64;" xml:space="preserve"> <style type="text/css"> .st0{fill:#9D5125;} .st1{fill:#F58534;} .st2{fill:#6B3B19;} .st3{fill:#FCBF92;} </style> <g transform="matrix(.33264 0 0 .33264 -10.559584 6.299086)"> <path class="st0" d="M45.6,151.9l38.9-71.7L45.6,2.7l-9.9,4.9V147L45.6,151.9z M140.1,38.6L75.6,27.8L90.2,7.3l65.2,29L140.1,38.6z M140.9,115.6l-76.5,12.6l16,22.1l75-32.4L140.9,115.6z"></path> <path class="st1" d="M68.6,7.9v138.5l-23,5.4V2.7L68.6,7.9z"></path> <path class="st0" d="M68.6,163.4l-12.1-6V-2.8l12.1-6L91.3,87L68.6,163.4z M155.4,36.2L140,38.6v76.8l15.3,2.4l14-39L155.4,36.2z"></path> <g> <path class="st1" d="M92.1-2.1v158.9l-23.5,6.6V-8.8L92.1-2.1z"></path> <path class="st1" d="M171.4,134.3v-19.5L68.6,133.9v29.4L171.4,134.3z M171.6,20.4v18.9l-103-19.6V-8.8L171.6,20.4z"></path> <path class="st1" d="M155.4,138.8v-123l16.5,4.5v114L155.4,138.8z"></path> </g> <path class="st2" d="M205,27.2l15.1,35L176,64.3l-15.6-1.1L205,27.2z"></path> <path class="st0" d="M160.4,34.5v28.8l44.7-2.6V27.2L160.4,34.5z"></path> <path class="st2" d="M139.6,61.8l-21.4-1.4l45.4-45.6l23,44.1L139.6,61.8z"></path> <g> <path class="st0" d="M118.3,25.3v35.1l45.4-3.8V14.7L118.3,25.3z M160.4,120.7V91.9l59.8,1l-15.1,35L160.4,120.7z"></path> <path class="st0" d="M118.3,129.8V94.7l68.4,1.5l-23,44.1L118.3,129.8z"></path> </g> <path class="st3" d="M139.6,93.3l-21.4,1.4l45.4,3.8l23-2.3L139.6,93.3z M205,94.4l15.1-1.5l-44.2-2L160.3,92L205,94.4z"></path> <path class="st1" d="M205,27.2v33.5l15.1,1.5V31.7L205,27.2z M186.6,21.7v37.2l-23-2.3V14.7L186.6,21.7z M205,127.9V94.4l15.1-1.5 v30.5L205,127.9z M186.6,133.4V96.2l-23,2.3v41.8L186.6,133.4z"></path> </g> </svg> 