<?xml version="1.0" encoding="UTF-8"?> <svg xmlns="http://www.w3.org/2000/svg" xmlns:xlink="http://www.w3.org/1999/xlink" version="1.1" id="Layer_1" x="0px" y="0px" viewBox="0 0 64 64" style="enable-background:new 0 0 64 64;" xml:space="preserve"> <style type="text/css"> .st0{fill:#03A8DD;} .st1{fill:#054851;} .st2{fill:#FEFEFE;} </style> <g> <path class="st0" d="M58.1,14.4c-2-1.2-4-2.4-6.1-3.5C47,8,42,5.1,37,2.2c-1.4-0.8-3-1.2-4.6-1c-1.1,0.2-2.1,0.7-3,1.2 C22.6,6.4,15.8,10.3,9,14.2c-2.4,1.4-3.6,3.4-3.5,6.2c0,4,0,8,0,12c0,4.1,0,8.2,0,12.4c0,2.1,0.9,3.8,2.6,5.1c1.2,1,2.6,1.6,4,2.4 c6,3.5,12,6.9,18,10.4c1.9,1.1,3.9,1.2,5.9,0.4c1.2-0.5,2.3-1.2,3.4-1.9c6.2-3.5,12.3-7.1,18.5-10.7c2.3-1.4,3.6-3.4,3.6-6.1 c0-8.1,0-16.2,0-24.2C61.3,17.8,60.2,15.7,58.1,14.4z M58.5,32.4c0,3.6,0,7.3,0,10.9c0,2.5-1.1,4.3-3.3,5.5 c-2.1,1.2-4.3,2.5-6.4,3.7c-2.5,1.4-5,2.9-7.5,4.3c-1.7,1-3.3,1.9-5,2.9c-2.1,1.2-4.1,1.1-6.2-0.1c-3.6-2-7.1-4.1-10.7-6.2 C17,52,14.5,50.5,12,49.1c-1-0.6-1.9-1.2-2.6-2.1c-0.8-1.1-1.1-2.2-1.1-3.5c0-7.3,0-14.7,0-22c0-2.4,1.2-4.2,3.3-5.4 c3-1.8,6.1-3.5,9.1-5.3c3.2-1.9,6.4-3.8,9.7-5.6c2.1-1.2,4.2-1,6.3,0.2c2.7,1.6,5.4,3.1,8.1,4.7c3.2,1.9,6.5,3.7,9.7,5.6 c0.6,0.4,1.3,0.7,1.8,1.1c1.5,1.2,2.2,2.8,2.2,4.7C58.5,25,58.5,28.7,58.5,32.4z"></path> <path class="st1" d="M23.8,35.8L23.8,35.8c-0.9,0-1.6,0.7-1.6,1.5c0,0.8,0.7,1.5,1.5,1.5h0.1c0.8,0,1.5-0.7,1.5-1.5 C25.4,36.5,24.7,35.8,23.8,35.8z M38.7,21.5c-0.1,0-0.2,0-0.3,0h-0.1c-0.8,0-1.5,0.7-1.5,1.5c0,0.8,0.7,1.5,1.5,1.6h0c0,0,0,0,0,0 c0,0,0,0,0,0c0.8,0,1.5-0.7,1.5-1.5C40,22.3,39.4,21.6,38.7,21.5z M38.7,21.5c-0.1,0-0.2,0-0.3,0h-0.1c-0.8,0-1.5,0.7-1.5,1.5 c0,0.8,0.7,1.5,1.5,1.6h0c0,0,0,0,0,0c0,0,0,0,0,0c0.8,0,1.5-0.7,1.5-1.5C40,22.3,39.4,21.6,38.7,21.5z M23.8,35.8L23.8,35.8 c-0.9,0-1.6,0.7-1.6,1.5c0,0.8,0.7,1.5,1.5,1.5h0.1c0.8,0,1.5-0.7,1.5-1.5C25.4,36.5,24.7,35.8,23.8,35.8z M23.8,35.8L23.8,35.8 c-0.9,0-1.6,0.7-1.6,1.5c0,0.8,0.7,1.5,1.5,1.5h0.1c0.8,0,1.5-0.7,1.5-1.5C25.4,36.5,24.7,35.8,23.8,35.8z M38.1,35.9 c-0.8,0-1.5,0.7-1.5,1.5c0,0.8,0.7,1.5,1.5,1.5c0.8,0,1.5-0.7,1.5-1.5C39.6,36.6,38.9,35.9,38.1,35.9z M38.7,21.5 c-0.1,0-0.2,0-0.3,0h-0.1c-0.8,0-1.5,0.7-1.5,1.5c0,0.8,0.7,1.5,1.5,1.6h0c0,0,0,0,0,0c0,0,0,0,0,0c0.8,0,1.5-0.7,1.5-1.5 C40,22.3,39.4,21.6,38.7,21.5z M38.7,21.5c-0.1,0-0.2,0-0.3,0h-0.1c-0.8,0-1.5,0.7-1.5,1.5c0,0.8,0.7,1.5,1.5,1.6h0c0,0,0,0,0,0 c0,0,0,0,0,0c0.8,0,1.5-0.7,1.5-1.5C40,22.3,39.4,21.6,38.7,21.5z M23.8,35.8L23.8,35.8c-0.9,0-1.6,0.7-1.6,1.5 c0,0.8,0.7,1.5,1.5,1.5h0.1c0.8,0,1.5-0.7,1.5-1.5C25.4,36.5,24.7,35.8,23.8,35.8z M38.1,35.9c-0.8,0-1.5,0.7-1.5,1.5 c0,0.8,0.7,1.5,1.5,1.5c0.8,0,1.5-0.7,1.5-1.5C39.6,36.6,38.9,35.9,38.1,35.9z M23.8,35.8L23.8,35.8c-0.9,0-1.6,0.7-1.6,1.5 c0,0.8,0.7,1.5,1.5,1.5h0.1c0.8,0,1.5-0.7,1.5-1.5C25.4,36.5,24.7,35.8,23.8,35.8z M38.1,35.9c-0.8,0-1.5,0.7-1.5,1.5 c0,0.8,0.7,1.5,1.5,1.5c0.8,0,1.5-0.7,1.5-1.5C39.6,36.6,38.9,35.9,38.1,35.9z M38.7,21.5c-0.1,0-0.2,0-0.3,0h-0.1 c-0.8,0-1.5,0.7-1.5,1.5c0,0.8,0.7,1.5,1.5,1.6h0c0,0,0,0,0,0c0,0,0,0,0,0c0.8,0,1.5-0.7,1.5-1.5C40,22.3,39.4,21.6,38.7,21.5z M38.7,21.5c-0.1,0-0.2,0-0.3,0h-0.1c-0.8,0-1.5,0.7-1.5,1.5c0,0.8,0.7,1.5,1.5,1.6h0c0,0,0,0,0,0c0,0,0,0,0,0 c0.8,0,1.5-0.7,1.5-1.5C40,22.3,39.4,21.6,38.7,21.5z M23.8,35.8L23.8,35.8c-0.9,0-1.6,0.7-1.6,1.5c0,0.8,0.7,1.5,1.5,1.5h0.1 c0.8,0,1.5-0.7,1.5-1.5C25.4,36.5,24.7,35.8,23.8,35.8z M38.1,35.9c-0.8,0-1.5,0.7-1.5,1.5c0,0.8,0.7,1.5,1.5,1.5 c0.8,0,1.5-0.7,1.5-1.5C39.6,36.6,38.9,35.9,38.1,35.9z M23.8,35.8L23.8,35.8c-0.9,0-1.6,0.7-1.6,1.5c0,0.8,0.7,1.5,1.5,1.5h0.1 c0.8,0,1.5-0.7,1.5-1.5C25.4,36.5,24.7,35.8,23.8,35.8z M38.1,35.9c-0.8,0-1.5,0.7-1.5,1.5c0,0.8,0.7,1.5,1.5,1.5 c0.8,0,1.5-0.7,1.5-1.5C39.6,36.6,38.9,35.9,38.1,35.9z M38.7,21.5c-0.1,0-0.2,0-0.3,0h-0.1c-0.8,0-1.5,0.7-1.5,1.5 c0,0.8,0.7,1.5,1.5,1.6h0c0,0,0,0,0,0c0,0,0,0,0,0c0.8,0,1.5-0.7,1.5-1.5C40,22.3,39.4,21.6,38.7,21.5z M38.7,21.5 c-0.1,0-0.2,0-0.3,0h-0.1c-0.8,0-1.5,0.7-1.5,1.5c0,0.8,0.7,1.5,1.5,1.6h0c0,0,0,0,0,0c0,0,0,0,0,0c0.8,0,1.5-0.7,1.5-1.5 C40,22.3,39.4,21.6,38.7,21.5z M23.8,35.8L23.8,35.8c-0.9,0-1.6,0.7-1.6,1.5c0,0.8,0.7,1.5,1.5,1.5h0.1c0.8,0,1.5-0.7,1.5-1.5 C25.4,36.5,24.7,35.8,23.8,35.8z M38.1,35.9c-0.8,0-1.5,0.7-1.5,1.5c0,0.8,0.7,1.5,1.5,1.5c0.8,0,1.5-0.7,1.5-1.5 C39.6,36.6,38.9,35.9,38.1,35.9z M56.3,16.7c-0.5-0.5-1.2-0.8-1.8-1.1c-3.2-1.9-6.5-3.7-9.7-5.6c-2.7-1.6-5.4-3.1-8.1-4.7 c-2.1-1.2-4.2-1.4-6.3-0.2c-3.2,1.8-6.5,3.7-9.7,5.6c-3,1.8-6.1,3.5-9.1,5.3c-2.1,1.2-3.3,3-3.3,5.4c0,7.3,0,14.7,0,22 c0,1.3,0.4,2.5,1.1,3.5c0.7,0.9,1.6,1.6,2.6,2.1c2.5,1.4,5.1,2.9,7.6,4.4c3.6,2.1,7.1,4.1,10.7,6.2c2,1.2,4.1,1.2,6.2,0.1 c1.7-0.9,3.3-1.9,5-2.9c2.5-1.4,5-2.9,7.5-4.3c2.1-1.2,4.3-2.5,6.4-3.7c2.1-1.2,3.3-3,3.3-5.5c0-3.6,0-7.3,0-10.9c0-3.7,0-7.4,0-11 C58.5,19.5,57.8,17.9,56.3,16.7z M25.4,23.3c0.8-0.2,1.5,0,2,0.6c0.6,0.6,0.7,1.3,0.4,2.1c-0.1,0.3-0.1,0.4,0.1,0.6 c2.9,2.9,5.7,5.7,8.6,8.6c0.2,0.2,0.4,0.2,0.7,0.1c0.9-0.4,2-0.2,2.7,0.4c0.8,0.7,1,1.8,0.6,2.7c-0.4,0.9-1.3,1.5-2.3,1.5 c-1.8,0-3-1.9-2.2-3.5c0.1-0.3,0.1-0.4-0.1-0.6c-2.9-2.9-5.7-5.7-8.6-8.6c-0.2-0.2-0.4-0.2-0.7-0.1c-1.1,0.4-2.2-0.2-2.6-1.2 C23.6,24.7,24.2,23.6,25.4,23.3z M38.1,29.2c0.3,0,0.5,0.2,0.5,0.5v0.7c0,0.4-0.2,0.6-0.5,0.6c-0.3,0-0.5-0.2-0.5-0.6 c0-0.2,0-0.5,0-0.7C37.6,29.4,37.8,29.2,38.1,29.2z M37.6,27.3c0-0.1,0-0.3,0-0.4c0-0.3,0.2-0.5,0.5-0.5c0.3,0,0.5,0.2,0.5,0.5v0.4 c0,0.6-0.2,0.9-0.5,0.9C37.7,28.1,37.6,27.9,37.6,27.3z M38.1,32c0.3,0,0.5,0.2,0.5,0.5v0.8c0,0.3-0.2,0.5-0.5,0.5 s-0.5-0.2-0.5-0.5c0-0.3,0-0.5,0-0.8C37.6,32.2,37.8,32,38.1,32z M34.8,37.3c0,0.3-0.2,0.5-0.5,0.5c-0.3,0-0.5,0-0.8,0 c-0.3,0-0.5-0.2-0.5-0.5c0-0.3,0.2-0.5,0.5-0.5h0.8C34.6,36.8,34.7,37,34.8,37.3z M31.9,37.3c0,0.3-0.1,0.5-0.4,0.5 c-0.3,0-0.6,0-0.9,0c-0.3,0-0.4-0.2-0.4-0.6c0-0.3,0.2-0.5,0.5-0.5H31c0.1,0,0.3,0,0.4,0C31.7,36.8,31.9,37,31.9,37.3z M29,37.3 c0,0.3-0.2,0.5-0.5,0.6c-0.3,0-0.5,0-0.8,0c-0.3,0-0.5-0.2-0.5-0.5c0-0.3,0.2-0.5,0.5-0.5h0.7C28.9,36.8,29,37,29,37.3z M36.5,43.9 c-4.7,1-8.6-0.3-11.6-4c-0.2-0.2-0.4-0.2-0.6-0.2c-1.2,0.2-2.4-0.5-2.8-1.7c-0.3-1.2,0.2-2.4,1.4-2.9c1-0.5,2.2-0.2,2.9,0.7 c0.7,0.9,0.7,2.2,0,3c-0.2,0.2-0.2,0.4,0,0.6c2.1,2.5,4.8,3.7,7.5,3.8c5.7,0,10.2-3.8,10.9-8.9c0.5-3.8-0.7-6.9-3.6-9.4 c-0.2-0.2-0.3-0.2-0.5,0c-0.9,0.8-2.3,0.8-3.2,0c-0.9-0.7-1.1-2.1-0.5-3.1c0.6-1,1.9-1.5,3-1.1c1.1,0.4,1.8,1.6,1.5,2.8 c-0.1,0.3,0,0.4,0.2,0.5c2.2,1.8,3.5,4.1,4,6.8C46.1,36.7,42.3,42.6,36.5,43.9z M38.7,21.5c-0.1,0-0.2,0-0.3,0h-0.1 c-0.8,0-1.5,0.7-1.5,1.5c0,0.8,0.7,1.5,1.5,1.6h0c0,0,0,0,0,0c0,0,0,0,0,0c0.8,0,1.5-0.7,1.5-1.5C40,22.3,39.4,21.6,38.7,21.5z M38.1,39c0.8,0,1.5-0.7,1.5-1.5c0-0.8-0.7-1.5-1.5-1.5c-0.8,0-1.5,0.7-1.5,1.5C36.6,38.3,37.3,39,38.1,39z M23.8,35.8L23.8,35.8 c-0.9,0-1.6,0.7-1.6,1.5c0,0.8,0.7,1.5,1.5,1.5h0.1c0.8,0,1.5-0.7,1.5-1.5C25.4,36.5,24.7,35.8,23.8,35.8z M38.1,35.9 c-0.8,0-1.5,0.7-1.5,1.5c0,0.8,0.7,1.5,1.5,1.5c0.8,0,1.5-0.7,1.5-1.5C39.6,36.6,38.9,35.9,38.1,35.9z M23.8,35.8L23.8,35.8 c-0.9,0-1.6,0.7-1.6,1.5c0,0.8,0.7,1.5,1.5,1.5h0.1c0.8,0,1.5-0.7,1.5-1.5C25.4,36.5,24.7,35.8,23.8,35.8z M38.7,21.5 c-0.1,0-0.2,0-0.3,0h-0.1c-0.8,0-1.5,0.7-1.5,1.5c0,0.8,0.7,1.5,1.5,1.6h0c0,0,0,0,0,0c0,0,0,0,0,0c0.8,0,1.5-0.7,1.5-1.5 C40,22.3,39.4,21.6,38.7,21.5z M38.7,21.5c-0.1,0-0.2,0-0.3,0h-0.1c-0.8,0-1.5,0.7-1.5,1.5c0,0.8,0.7,1.5,1.5,1.6h0c0,0,0,0,0,0 c0,0,0,0,0,0c0.8,0,1.5-0.7,1.5-1.5C40,22.3,39.4,21.6,38.7,21.5z M38.1,35.9c-0.8,0-1.5,0.7-1.5,1.5c0,0.8,0.7,1.5,1.5,1.5 c0.8,0,1.5-0.7,1.5-1.5C39.6,36.6,38.9,35.9,38.1,35.9z M23.8,35.8L23.8,35.8c-0.9,0-1.6,0.7-1.6,1.5c0,0.8,0.7,1.5,1.5,1.5h0.1 c0.8,0,1.5-0.7,1.5-1.5C25.4,36.5,24.7,35.8,23.8,35.8z M38.1,35.9c-0.8,0-1.5,0.7-1.5,1.5c0,0.8,0.7,1.5,1.5,1.5 c0.8,0,1.5-0.7,1.5-1.5C39.6,36.6,38.9,35.9,38.1,35.9z M23.8,35.8L23.8,35.8c-0.9,0-1.6,0.7-1.6,1.5c0,0.8,0.7,1.5,1.5,1.5h0.1 c0.8,0,1.5-0.7,1.5-1.5C25.4,36.5,24.7,35.8,23.8,35.8z M38.7,21.5c-0.1,0-0.2,0-0.3,0h-0.1c-0.8,0-1.5,0.7-1.5,1.5 c0,0.8,0.7,1.5,1.5,1.6h0c0,0,0,0,0,0c0,0,0,0,0,0c0.8,0,1.5-0.7,1.5-1.5C40,22.3,39.4,21.6,38.7,21.5z M38.7,21.5 c-0.1,0-0.2,0-0.3,0h-0.1c-0.8,0-1.5,0.7-1.5,1.5c0,0.8,0.7,1.5,1.5,1.6h0c0,0,0,0,0,0c0,0,0,0,0,0c0.8,0,1.5-0.7,1.5-1.5 C40,22.3,39.4,21.6,38.7,21.5z M38.1,35.9c-0.8,0-1.5,0.7-1.5,1.5c0,0.8,0.7,1.5,1.5,1.5c0.8,0,1.5-0.7,1.5-1.5 C39.6,36.6,38.9,35.9,38.1,35.9z M23.8,35.8L23.8,35.8c-0.9,0-1.6,0.7-1.6,1.5c0,0.8,0.7,1.5,1.5,1.5h0.1c0.8,0,1.5-0.7,1.5-1.5 C25.4,36.5,24.7,35.8,23.8,35.8z M38.1,35.9c-0.8,0-1.5,0.7-1.5,1.5c0,0.8,0.7,1.5,1.5,1.5c0.8,0,1.5-0.7,1.5-1.5 C39.6,36.6,38.9,35.9,38.1,35.9z M23.8,35.8L23.8,35.8c-0.9,0-1.6,0.7-1.6,1.5c0,0.8,0.7,1.5,1.5,1.5h0.1c0.8,0,1.5-0.7,1.5-1.5 C25.4,36.5,24.7,35.8,23.8,35.8z M38.7,21.5c-0.1,0-0.2,0-0.3,0h-0.1c-0.8,0-1.5,0.7-1.5,1.5c0,0.8,0.7,1.5,1.5,1.6h0c0,0,0,0,0,0 c0,0,0,0,0,0c0.8,0,1.5-0.7,1.5-1.5C40,22.3,39.4,21.6,38.7,21.5z M38.7,21.5c-0.1,0-0.2,0-0.3,0h-0.1c-0.8,0-1.5,0.7-1.5,1.5 c0,0.8,0.7,1.5,1.5,1.6h0c0,0,0,0,0,0c0,0,0,0,0,0c0.8,0,1.5-0.7,1.5-1.5C40,22.3,39.4,21.6,38.7,21.5z M38.1,35.9 c-0.8,0-1.5,0.7-1.5,1.5c0,0.8,0.7,1.5,1.5,1.5c0.8,0,1.5-0.7,1.5-1.5C39.6,36.6,38.9,35.9,38.1,35.9z M23.8,35.8L23.8,35.8 c-0.9,0-1.6,0.7-1.6,1.5c0,0.8,0.7,1.5,1.5,1.5h0.1c0.8,0,1.5-0.7,1.5-1.5C25.4,36.5,24.7,35.8,23.8,35.8z"></path> <g> <g> <path class="st2" d="M22.3,37.3c0-0.8,0.7-1.5,1.5-1.5C22.9,35.8,22.2,36.5,22.3,37.3c-0.1,0.8,0.6,1.5,1.5,1.5 C23,38.8,22.3,38.1,22.3,37.3z M36.9,23c0-0.8,0.7-1.5,1.4-1.5C37.5,21.4,36.8,22.2,36.9,23c-0.1,0.8,0.6,1.5,1.4,1.6h0 C37.6,24.5,36.9,23.8,36.9,23z"></path> </g> <path class="st1" d="M39.9,23c0,0.8-0.7,1.5-1.5,1.5c0,0,0,0,0,0h0c-0.8,0-1.5-0.7-1.5-1.6c0-0.8,0.7-1.5,1.5-1.5h0 C39.2,21.5,39.9,22.2,39.9,23z"></path> <path class="st1" d="M25.3,37.3c0,0.8-0.7,1.5-1.5,1.5h0c-0.8,0-1.5-0.7-1.5-1.5c0-0.8,0.7-1.5,1.5-1.5h0 C24.6,35.8,25.3,36.5,25.3,37.3z"></path> <path class="st1" d="M39.6,37.4c0,0.8-0.7,1.5-1.5,1.5c-0.8,0-1.5-0.7-1.5-1.5c0-0.8,0.7-1.5,1.5-1.5 C38.9,35.9,39.6,36.6,39.6,37.4z"></path> </g> </g> </svg> 