<?xml version="1.0" encoding="UTF-8"?> <svg xmlns="http://www.w3.org/2000/svg" xmlns:xlink="http://www.w3.org/1999/xlink" version="1.1" id="katman_1" x="0px" y="0px" viewBox="0 0 64 64" style="enable-background:new 0 0 64 64;" xml:space="preserve"> <style type="text/css"> .st0{fill:url(#SVGID_1_);} .st1{fill:none;} .st2{fill:#341A6E;} .st3{fill:url(#SVGID_00000171692168842561555560000015041028675197599412_);} .st4{fill:url(#SVGID_00000131325206988783103210000012594259528500975756_);} .st5{fill:url(#SVGID_00000028298377568975821830000006573268458642350781_);} .st6{fill:url(#SVGID_00000132079784201347673360000009400991024226107554_);} .st7{fill:url(#SVGID_00000121993954946054015200000009520051294942465426_);} .st8{fill:url(#SVGID_00000093889446836012930240000017762677415515508111_);} </style> <g> <linearGradient id="SVGID_1_" gradientUnits="userSpaceOnUse" x1="11.4186" y1="52.1308" x2="30.7729" y2="52.1308" gradientTransform="matrix(1 0 0 1 0 -38.3704)"> <stop offset="0" style="stop-color:#B77AF4"></stop> <stop offset="1" style="stop-color:#773ADC"></stop> </linearGradient> <polygon class="st0" points="21.2,5.1 11.4,7.2 11.4,20.3 21.2,22.4 30.7,18.3 30.7,8.5 "></polygon> <path class="st1" d="M21.6,22l8.8-3.4c0.3,0,0.3-0.3,0.3-0.3V9.2c0-0.3-0.3-0.3-0.3-0.7l-8.8-3h-0.3l-9.1,1.7 c-0.3,0-0.3,0.3-0.7,0.7v11.8c0,0.3,0.3,0.7,0.7,0.7l8.8,1.7C21.2,22,21.2,22,21.6,22z"></path> <path class="st2" d="M11.4,7.2v13.2l9.8,2V5.5L11.4,7.2z M15.5,19.3l-2.7-0.7V8.5l2.7-0.3V19.3z M19.9,20l-3-0.3V7.8l3-0.7V20z"></path> <linearGradient id="SVGID_00000075164177508577092850000017576995165794717834_" gradientUnits="userSpaceOnUse" x1="32.3266" y1="52.2997" x2="51.6471" y2="52.2997" gradientTransform="matrix(1 0 0 1 0 -38.3704)"> <stop offset="0" style="stop-color:#B77AF4"></stop> <stop offset="1" style="stop-color:#773ADC"></stop> </linearGradient> <polygon style="fill:url(#SVGID_00000075164177508577092850000017576995165794717834_);" points="41.8,5.5 32.4,7.2 32.4,20.3 41.8,22.4 51.6,18.7 51.6,8.9 "></polygon> <path class="st2" d="M32.4,7.2v13.2l9.8,2V5.5L32.4,7.2z M36.4,19.3l-2.7-0.7V8.5l2.7-0.3V19.3z M40.8,20l-3-0.7V8.2l3-0.7V20z"></path> <linearGradient id="SVGID_00000029035428631621025940000004355968434657855381_" gradientUnits="userSpaceOnUse" x1="1.5219" y1="70.3704" x2="20.8424" y2="70.3704" gradientTransform="matrix(1 0 0 1 0 -38.3704)"> <stop offset="0" style="stop-color:#B77AF4"></stop> <stop offset="1" style="stop-color:#773ADC"></stop> </linearGradient> <polygon style="fill:url(#SVGID_00000029035428631621025940000004355968434657855381_);" points="11.1,23.4 1.7,25.1 1.7,38.2 11.1,40.6 20.9,36.6 20.9,26.8 "></polygon> <path class="st2" d="M1.7,25.1v13.2l9.8,2V23.4L1.7,25.1z M5.7,37.6L3,36.9V26.8l2.7-0.3V37.6z M9.8,38.2l-3-0.3V26.1l3-0.7V38.2z"></path> <linearGradient id="SVGID_00000170246834363403480480000007244782578235085733_" gradientUnits="userSpaceOnUse" x1="22.3624" y1="70.2015" x2="41.6829" y2="70.2015" gradientTransform="matrix(1 0 0 1 0 -38.3704)"> <stop offset="0" style="stop-color:#B77AF4"></stop> <stop offset="1" style="stop-color:#773ADC"></stop> </linearGradient> <polygon style="fill:url(#SVGID_00000170246834363403480480000007244782578235085733_);" points="32,23.4 22.3,25.1 22.3,38.2 32,40.3 41.8,36.6 41.8,26.8 "></polygon> <path class="st2" d="M22.3,25.1v13.2l9.8,2V23.4L22.3,25.1z M26.3,37.2l-2.7-0.7V26.4l2.7-0.3V37.2z M30.7,37.9l-3-0.3V26.1l3-0.7 V37.9z"></path> <linearGradient id="SVGID_00000155850142511359891090000017609516303119747747_" gradientUnits="userSpaceOnUse" x1="43.1964" y1="70.3704" x2="62.5507" y2="70.3704" gradientTransform="matrix(1 0 0 1 0 -38.3704)"> <stop offset="0" style="stop-color:#B77AF4"></stop> <stop offset="1" style="stop-color:#773ADC"></stop> </linearGradient> <polygon style="fill:url(#SVGID_00000155850142511359891090000017609516303119747747_);" points="53,23.4 43.2,25.4 43.2,38.6 53,40.6 62.4,36.6 62.4,26.8 "></polygon> <path class="st2" d="M43.2,25.4v13.2l9.8,2V23.7L43.2,25.4z M47.2,37.6l-2.7-0.7V26.8l2.7-0.3V37.6z M51.6,38.2l-3-0.3V26.4l3-0.7 V38.2z"></path> <linearGradient id="SVGID_00000007410628758105136450000013058898692112617901_" gradientUnits="userSpaceOnUse" x1="11.1822" y1="88.7789" x2="30.5365" y2="88.7789" gradientTransform="matrix(1 0 0 1 0 -38.3704)"> <stop offset="0" style="stop-color:#B77AF4"></stop> <stop offset="1" style="stop-color:#773ADC"></stop> </linearGradient> <polygon style="fill:url(#SVGID_00000007410628758105136450000013058898692112617901_);" points="20.9,42 11.1,43.7 11.1,56.8 20.9,58.9 30.7,54.8 30.7,45 "></polygon> <path class="st1" d="M21.2,58.5l8.8-3.4c0.3,0,0.3-0.3,0.3-0.7v-8.8c0-0.3,0-0.7-0.3-0.7l-8.8-3h-0.3l-8.8,1.7 c-0.3,0-0.7,0.3-0.7,0.7v11.8c0,0.3,0.3,0.7,0.3,0.7l8.8,1.7C20.9,58.5,20.9,58.5,21.2,58.5z"></path> <path class="st2" d="M11.1,43.7v13.2l9.8,2V41.6L11.1,43.7z M15.2,55.8l-2.7-0.7V45l2.7-0.3V55.8z M19.6,56.5l-3-0.3V44.7l3-0.7 V56.5z"></path> <linearGradient id="SVGID_00000021838870776925577300000004568467610672372906_" gradientUnits="userSpaceOnUse" x1="32.05" y1="88.7789" x2="51.4043" y2="88.7789" gradientTransform="matrix(1 0 0 1 0 -38.3704)"> <stop offset="0" style="stop-color:#B77AF4"></stop> <stop offset="1" style="stop-color:#773ADC"></stop> </linearGradient> <polygon style="fill:url(#SVGID_00000021838870776925577300000004568467610672372906_);" points="41.8,42 32,43.7 32,56.8 41.8,58.9 51.3,55.1 51.3,45.3 "></polygon> <path class="st2" d="M32,43.7v13.2l9.8,2V42L32,43.7z M36.1,55.8l-2.7-0.7V45l2.7-0.3V55.8z M40.5,56.8l-3-0.3V45l3-0.7V56.8z"></path> </g> </svg> 