<?xml version="1.0" encoding="UTF-8"?> <svg xmlns="http://www.w3.org/2000/svg" xmlns:xlink="http://www.w3.org/1999/xlink" version="1.1" id="Layer_1" x="0px" y="0px" viewBox="0 0 64 64" style="enable-background:new 0 0 64 64;" xml:space="preserve"> <style type="text/css"> .st0{fill:#76CAE7;} .st1{clip-path:url(#SVGID_00000094612567458546345690000006834585042572153760_);fill:url(#SVGID_00000021120122404119974820000002823554306021509534_);} .st2{clip-path:url(#SVGID_00000094612567458546345690000006834585042572153760_);fill:#F2F2F2;} </style> <path class="st0" d="M11,19c-0.3,0-0.6-0.3-0.6-0.6v0c0-3.8-3.1-7-7-7c-0.3,0-0.6-0.3-0.6-0.6c0-0.3,0.3-0.6,0.6-0.6 c3.8,0,7-3.1,7-7c0-0.3,0.3-0.6,0.6-0.6c0,0,0,0,0,0c0.3,0,0.6,0.3,0.6,0.6v0c0,3.8,3.1,7,7,7c0.3,0,0.6,0.3,0.6,0.6v0 c0,0.3-0.3,0.6-0.6,0.6h0c-3.8,0-7,3.1-7,7C11.6,18.8,11.4,19,11,19"></path> <path class="st0" d="M54.9,61.3c-0.3,0-0.5-0.2-0.5-0.5c0-3.1-2.5-5.6-5.6-5.6c-0.3,0-0.5-0.2-0.5-0.5c0-0.3,0.2-0.5,0.5-0.5 c3.1,0,5.6-2.5,5.6-5.6c0-0.3,0.2-0.5,0.5-0.5c0.3,0,0.5,0.2,0.5,0.5c0,3.1,2.5,5.6,5.6,5.6c0.3,0,0.5,0.2,0.5,0.5s-0.2,0.5-0.5,0.5 h0c-3.1,0-5.6,2.5-5.6,5.6C55.4,61.1,55.2,61.3,54.9,61.3"></path> <g> <defs> <path id="SVGID_1_" d="M27.1,11.1C27.1,11.1,27.1,11.1,27.1,11.1C15.6,13.9,8.6,25.4,11.3,36.8C14,48.2,25.5,55.3,36.9,52.6 c11.4-2.7,18.5-14.2,15.8-25.7C50.4,17.1,41.6,10.6,32,10.6C30.4,10.6,28.7,10.7,27.1,11.1"></path> </defs> <clipPath id="SVGID_00000128451351370550937410000014942681641922331036_"> <use xlink:href="#SVGID_1_" style="overflow:visible;"></use> </clipPath> <radialGradient id="SVGID_00000068678948321113321350000001918381158485597062_" cx="-342.993" cy="407.0066" r="8.251829e-02" gradientTransform="matrix(259.3784 0 0 257.1251 88996.7969 -104619.7578)" gradientUnits="userSpaceOnUse"> <stop offset="0" style="stop-color:#679CD3"></stop> <stop offset="0.183" style="stop-color:#679CD3"></stop> <stop offset="1" style="stop-color:#2974BA"></stop> </radialGradient> <rect x="8.6" y="10.6" style="clip-path:url(#SVGID_00000128451351370550937410000014942681641922331036_);fill:url(#SVGID_00000068678948321113321350000001918381158485597062_);" width="46.9" height="44.7"></rect> <path style="clip-path:url(#SVGID_00000128451351370550937410000014942681641922331036_);fill:#F2F2F2;" d="M20.6,46.3 c3.1,0.1,5.7-2.4,5.8-5.5c0.1-3.1-2.4-5.7-5.5-5.8c-0.1,0-0.2,0-0.3,0c0-0.2,0-0.3,0-0.5c0-3.2-2.6-5.7-5.8-5.7h-4.3 c-0.8,6.4,1.2,12.8,5.5,17.5H20.6z"></path> <path style="clip-path:url(#SVGID_00000128451351370550937410000014942681641922331036_);fill:#F2F2F2;" d="M53,27.9 c0-0.1,0-0.1,0-0.2c-0.7-3.7-2.4-7.2-4.9-10c-0.3-0.1-0.7-0.2-1-0.3c-3.3-0.9-6.8,1-7.7,4.3c-0.1,0.5-0.2,1-0.2,1.5 c-0.2,0-0.5,0-0.7,0c-3.3,0-6,2.7-6,6c0,2.6,1.6,4.8,4,5.7c0.6,0.2,1.2,0.4,1.9,0.3h7C48.1,33.1,50.7,30.6,53,27.9"></path> </g> <path class="st0" d="M60.4,14.1c-2.2-3.6-7.3-5-14.4-4c-2.4,0.3-4.9,0.9-7.2,1.6c1.9,0.6,3.7,1.5,5.3,2.7c0.8-0.2,1.7-0.4,2.5-0.5 c1.3-0.2,2.5-0.3,3.8-0.3c2.5-0.4,5.1,0.6,6.8,2.5c1.3,2.2,0.2,6-3.1,10.4C49.5,32.1,44,36.8,37.6,40.5c-6.2,3.9-13,6.5-20.2,7.8 c-5.4,0.8-9.3,0-10.6-2.2c-1.3-2.2-0.2-6,3.1-10.4c0.4-0.5,0.5-0.8,1-1.4c-0.2-1.9-0.2-3.8,0.1-5.7c-1.5,1.5-2.8,3.1-4.1,4.8 C2.6,39.2,1.4,44.4,3.6,48c2.3,3.1,6.2,4.8,10.1,4.3c1.5,0,2.9-0.1,4.3-0.3c7.7-1.4,15-4.2,21.6-8.3c6.7-3.9,12.7-9,17.6-15 C61.4,22.9,62.6,17.7,60.4,14.1"></path> </svg> 