<?xml version="1.0" encoding="UTF-8"?> <svg xmlns="http://www.w3.org/2000/svg" xmlns:xlink="http://www.w3.org/1999/xlink" version="1.1" id="Layer_1" x="0px" y="0px" viewBox="0 0 64 64" style="enable-background:new 0 0 64 64;" xml:space="preserve"> <style type="text/css"> .st0{fill:#0A72D6;} </style> <g> <path class="st0" d="M31.4,61.2c-7.9,0-15.8,0-23.7,0c-2.2,0-2.7-0.5-2.8-2.7c0-4,0-7.9,0-11.9c0-2.1,0.6-2.7,2.7-2.7 c6.9,0,13.7,0,20.6,0c0.6,0,1.4,0.2,1.6-0.7c0.3-1,0.4-1.6-1.1-1.6c-4.1,0.1-8.3,0-12.4,0c-5.8,0-10.3-3.1-11.9-8.3 c-1.6-5,0.2-10.1,5-13.4c0.7-0.5,0.8-0.9,0.8-1.7C10.2,10,18.4,4.9,25.7,8.5c0.9,0.5,1.3,0.4,2-0.5C31.6,3,38.2,1.2,44.2,3.6 c5.8,2.3,9.3,8.3,8.5,14.6c-0.1,0.7,0.1,1.1,0.7,1.5c4.9,3.2,6.8,8.3,5.3,13.4c-1.5,5.1-6.2,8.4-12,8.5c-4.6,0-9.2,0-13.8,0 c-1,0-1.5,0.2-1.7,1.2c-0.2,1,0.3,1.1,1.1,1.1c5.1,0,10.2,0,15.3,0c2.7,0,5.4,0,8,0c1.8,0,2.4,0.7,2.4,2.4c0,4.1,0,8.2,0,12.3 c0,1.9-0.6,2.5-2.5,2.5C47.5,61.2,39.5,61.2,31.4,61.2z M22.6,38.3c2.4,0,4.9,0,7.3,0c0.9,0,1.3-0.2,1.5-1.1c0.5-2.4,1.1-4.7,1.8-7 c0.3-1,0-1.4-0.9-2c-1.5-1.1-2.6-0.6-3.8,0.3c-0.7,0.5-1.5,1-2.2,1.4c-0.7,0.4-1,0.8-1.2,1.7c-0.2,1.6-1.6,2.4-3,2.1 c-1.3-0.3-2.1-1.7-1.8-3c0.4-1.5,1.7-2.2,3.4-1.7c0.3,0.1,0.7,0.4,1,0.2c1.6-1,3.3-1.8,4.7-3c0.8-0.6-0.3-1.7,0-2.6 c0,0,0-0.1,0-0.2c0.1-2.2-2.1-3.7-4.2-2.8c-1.6,0.7-3.5-0.1-4.1-1.8c-0.6-1.6,0.3-3.5,1.9-4c1.6-0.6,3.7,0.4,3.8,2.1 c0.1,1.7,1.1,2.3,2.3,3.1c0.8,0.5,1.3,0.6,2.1-0.1c1.7-1.4,3.6-1.5,5.5-0.4c1.8,1,3.1,2.8,2.5,4.7c-0.7,2.3,0.6,3.3,1.9,4.5 c0.5,0.5,1,0.9,1.4,1.4c0.7,0.8,1.3,1.1,2.4,0.6c1.6-0.7,3.4,0.5,3.8,2.2c0.4,1.8-0.8,3.5-2.5,3.8c-1.8,0.2-3.6-1-3.5-2.8 c0.1-1.4-0.6-2.2-1.4-3c-0.8-0.7-1.6-1.5-2.3-2.2c-1.2-1.1-3.9-0.3-4.3,1.2c-0.6,2.5-1.2,5-1.9,7.5c-0.2,0.9-0.1,1.2,0.9,1.2 c4.6,0,9.3,0,13.9,0c4.2-0.1,7.6-3.1,8.2-7c0.7-4.3-1.5-8.1-5.6-9.5c-1.4-0.5-1.5-0.9-1.1-2.3c1.7-5.5-1-11-6.3-13 c-5.3-2-11.2,0.4-13.6,5.6c-1.1,2.4-1.1,2.4-3,0.6c-2.4-2.3-6-2.8-8.9-1.1c-2.9,1.6-4.3,4.9-3.3,8.2c0.4,1.3,0,1.7-1.1,2.2 c-4,1.6-6.1,5.5-5.3,9.5c0.8,3.9,4.2,6.8,8.4,6.8C18.1,38.4,20.3,38.3,22.6,38.3z M31.4,57.9c7.3,0,14.6,0,22,0 c1.3,0,1.6-0.4,1.5-1.6c-0.1-2.6-0.1-5.2,0-7.9c0-1-0.3-1.3-1.3-1.3c-7.4,0-14.7,0-22.1,0c-0.5,0-1.1-0.2-1.4,0.6 c-0.3,0.8,0.3,1,0.8,1.4c1.9,1.3,2.4,3.7,1.2,5.6c-1,1.5-2.8,2.2-4.5,1.7c-1.7-0.4-3-2.1-3-3.9c0-1.9,1-3.3,2.9-3.9 c0.6-0.2,1.4-0.2,1.2-1.1c-0.2-0.8-1-0.4-1.4-0.4c-5.8,0-11.5,0-17.3,0c-1.2,0-1.7,0.2-1.7,1.6c0.1,2.5,0.1,5,0,7.5 c-0.1,1.3,0.3,1.6,1.6,1.6C17,57.9,24.2,57.9,31.4,57.9z"></path> <path class="st0" d="M52.4,50.3c0.3,1.4-0.7,1.2-1.5,1.3c-1.4,0.1-1.1-0.8-1.1-1.6c-0.2-1.3,0.7-1.1,1.4-1.1 C52.5,48.7,52.6,49.4,52.4,50.3z"></path> <path class="st0" d="M52.4,54.8c0.3,1.3-0.5,1.2-1.4,1.3c-1,0.1-1.3-0.3-1.3-1.3c0-1.1,0.3-1.4,1.4-1.4 C52.2,53.4,52.7,53.7,52.4,54.8z"></path> </g> </svg> 