<?xml version="1.0" encoding="UTF-8"?> <svg xmlns="http://www.w3.org/2000/svg" xmlns:xlink="http://www.w3.org/1999/xlink" version="1.1" id="Layer_1" x="0px" y="0px" viewBox="0 0 64 64" style="enable-background:new 0 0 64 64;" xml:space="preserve"> <style type="text/css"> .st0{fill:#59B5D9;} .st1{fill:#3A99C6;} </style> <g> <path class="st0" d="M61.5,52.5c-0.9,2.3-2.6,2.8-4.9,2.8c-16.5-0.1-33,0-49.5,0c-2.1,0-3.7-0.6-4.5-2.7c0-0.1-0.2-0.1-0.2-0.2 c0-12.1,0-24.1,0-36.2c0.4,0,0.7,0.1,1.1,0.1c18.3,0,36.5,0,54.8,0c1.3,0,2.2,0.6,2.9,1.6c0.5,0.7,0.5,1.5,0.5,2.4 c0,10.2,0,20.4,0,30.6C61.6,51.1,61.5,52.4,61.5,52.5z M27.6,39.6c0.8,0,1.6,0,2.4,0c0.7,0,0.8,0.2,0.6,0.9 c-0.7,2.2-1.4,4.5-2.1,6.7c-0.1,0.4-0.2,0.8-0.3,1.1c-0.1,0.3-0.1,0.6,0.2,0.8c0.3,0.1,0.5-0.1,0.7-0.3c0.1-0.1,0.2-0.3,0.3-0.4 c3.3-4.7,6.5-9.3,9.8-14c0.2-0.3,0.5-0.6,0.3-1c-0.2-0.3-0.6-0.3-0.9-0.3c-1.5,0-3.1,0-4.6,0c-1.1,0-1.1,0-0.8-1.1 c0.7-2.4,1.4-4.7,2.1-7.1c0.1-0.4,0.4-0.8-0.1-1.1c-0.5-0.3-0.7,0.3-1,0.6c-0.5,0.7-1.1,1.5-1.6,2.3c-2.6,3.8-5.3,7.7-7.9,11.5 c-0.2,0.3-0.6,0.6-0.4,1c0.2,0.5,0.7,0.3,1.2,0.4C26.2,39.7,26.9,39.6,27.6,39.6z"></path> <path class="st1" d="M2.3,11.6c0-0.2,0.1-0.6,0.1-0.7c0.7-1.8,2.4-2.1,4.4-2.1c8.3,0,16.7,0,25,0c1.9,0,3.3,0.7,4.2,2.4 c0.5,1,1.2,2,1.8,3.2c-11.9,0-23.7,0-35.5,0C2.3,13.5,2.3,12.5,2.3,11.6z"></path> </g> </svg> 