<?xml version="1.0" encoding="UTF-8"?> <svg xmlns="http://www.w3.org/2000/svg" xmlns:xlink="http://www.w3.org/1999/xlink" version="1.1" id="Layer_1" x="0px" y="0px" viewBox="0 0 64 64" style="enable-background:new 0 0 64 64;" xml:space="preserve"> <style type="text/css"> .st0{fill-rule:evenodd;clip-rule:evenodd;fill:#5AB4D9;} </style> <symbol id="A" viewBox="-148.5 -115 297 230"> <g> <path class="st0" d="M-34.5-53l8,2.5V-115h-122v93.8l60.3,0.2l-1.5-9h-49.8l0-65h105.1L-34.5-53z M-25.5-21v-14l-8-3v8h-41l1.5,9 H-25.5z M34.5,13l-8,4.5V-61h122v94h-121l13.4-9h98.6v-65h-105V13z M-81.7,21l3.5,20h-41.3v65h105V54.8l9-5.1V115h-122V21H-81.7z M-66.5,21l3.5,20h44.5l14-7.8V21H-66.5z"></path> <circle class="st0" cx="-87" cy="-62" r="15.5"></circle> <path class="st0" d="M73.2-7.5l-149-47l3-6.2l148,47.2L73.2-7.5z M-55.8,73l134-72l-3-6.2L-57.8,67L-55.8,73z M-70.2,64l-18-112 l6.5-1l17.5,112L-70.2,64z"></path> <circle class="st0" cx="-65.5" cy="74.5" r="15.5"></circle> <circle class="st0" cx="88.8" cy="-8" r="15.5"></circle> </g> </symbol> <g> <use xlink:href="#A" width="297" height="230" x="-148.5" y="-115" transform="matrix(0.2043 0 0 0.2043 32 32)" style="overflow:visible;"></use> </g> </svg> 