<?xml version="1.0" encoding="UTF-8"?> <svg xmlns="http://www.w3.org/2000/svg" xmlns:xlink="http://www.w3.org/1999/xlink" version="1.1" id="Layer_1" x="0px" y="0px" viewBox="0 0 64 64" style="enable-background:new 0 0 64 64;" xml:space="preserve"> <style type="text/css"> .st0{fill:#2475BB;} .st1{clip-path:url(#SVGID_00000181058787226008937320000002484836986206287282_);fill:#76CAE7;} </style> <path class="st0" d="M32,1L5,16.5v25.1v1.6v4.1L32,63l27-15.5v-31L32,1z M54,44.3L32,57L10,44.4V23.8v-4.2v-0.1L32,6.8l22,12.8V44.3 z"></path> <g> <defs> <rect id="SVGID_1_" width="64" height="64"></rect> </defs> <clipPath id="SVGID_00000137820072038036172180000000144881957474135741_"> <use xlink:href="#SVGID_1_" style="overflow:visible;"></use> </clipPath> <path style="clip-path:url(#SVGID_00000137820072038036172180000000144881957474135741_);fill:#76CAE7;" d="M42.6,32 c-0.4,0-0.9,0-1.3,0.1c-3.2-4.1-7.9-6.8-13-7.6l22.3-12.9l-5.2-3L25.1,20.5c-1-0.8-2.4-1.2-3.8-1.2c-3.5,0-6.4,2.9-6.4,6.4 c0,3.5,2.9,6.4,6.4,6.4c2,0,3.9-1,5-2.5c4.2,0.2,8.2,2.3,10.8,5.6c-0.6,0.9-0.9,2-0.9,3.2c0,0.2,0,0.5,0,0.7L13.5,52.3l5.2,3 l20.3-11.7c1,0.8,2.4,1.2,3.8,1.2c3.5,0,6.4-2.9,6.4-6.4C49,34.9,46.2,32,42.6,32"></path> </g> </svg> 