<?xml version="1.0" encoding="UTF-8"?> <svg xmlns="http://www.w3.org/2000/svg" xmlns:xlink="http://www.w3.org/1999/xlink" version="1.1" id="Layer_1" x="0px" y="0px" viewBox="0 0 64 64" style="enable-background:new 0 0 64 64;" xml:space="preserve"> <style type="text/css"> .st0{fill:#3D9AC6;} .st1{fill:#FBD018;} .st2{fill:#FCBD11;} </style> <g> <path class="st0" d="M1.5,31.1C6.7,26,11.9,21,17.1,15.9c0.3-0.2,0.5-0.5,0.8-0.7c0.8-0.7,1.6-0.8,2.3,0c0.6,0.7,0.6,1.4-0.1,2.1 c-1.2,1.2-2.4,2.4-3.7,3.7c-3,3-6.1,6.1-9.1,9.1c-1.4,1.4-1.4,2,0,3.4c4.1,4.2,8.3,8.4,12.4,12.6c0.2,0.3,0.5,0.5,0.7,0.8 c0.6,0.7,0.7,1.5,0.1,2.2c-0.7,0.7-1.5,0.6-2.2,0c-1.2-1.1-2.4-2.2-3.5-3.4c-4.4-4.3-9.1-8.4-13.1-13.1C1.5,32.1,1.5,31.6,1.5,31.1 z"></path> <path class="st1" d="M23.2,57.4c-0.4,0.8-0.8,1.6-1.9,2.1c1.3-3.8,2.5-7.4,3.8-11c1.6-4.7,3.2-9.5,4.9-14.2c0.4-1.2,0.2-1.5-1-1.5 c-3.1,0-6.2-0.1-9.3-0.1c-1.2,0-1.2-0.4-0.9-1.3c3.1-8.6,6.1-17.2,9.1-25.8c0.3-0.7,0.5-1.1,1.4-1.1c2.5,0.1,5.1,0.1,7.6,0.1 c-0.1,0.3-0.1,0.6-0.2,0.9c-3,6.9-6,13.8-9.1,20.6c-0.8,1.7-0.7,1.9,1.2,1.9c3.3,0,6.6,0,9.9,0c0.1,0.7-0.3,1-0.5,1.4 c-2,3.6-4,7.2-6,10.9c-2.8,5-5.6,10-8.4,14.9C23.5,55.9,23,56.5,23.2,57.4z"></path> <path class="st2" d="M23.2,57.4c-0.1-0.8,0.3-1.5,0.7-2.1c2.8-5,5.6-10,8.4-14.9c2-3.6,4-7.2,6-10.9c0.2-0.4,0.5-0.8,0.5-1.4 c-3.3,0-6.6,0-9.9,0c-1.9,0-1.9-0.2-1.2-1.9c3.1-6.9,6.1-13.8,9.1-20.6c0.1-0.3,0.1-0.6,0.2-0.9c3.2,0,6.4,0,9.9,0 c-4.1,6.3-8.1,12.4-12.3,18.8c4.3,0,8.4,0,12.7,0c-0.8,1.2-1.5,2.1-2.2,3.1c-7,10-14.1,19.9-21.1,29.9C23.7,56.8,23.4,57,23.2,57.4 z"></path> <path class="st0" d="M43.2,48c-0.1-0.7,0.5-1.1,1-1.6c4.2-4.2,8.4-8.4,12.6-12.5c1.8-1.8,1.8-2.2,0-3.9c-4.2-4.1-8.3-8.2-12.5-12.2 c-0.8-0.8-1.4-1.6-0.4-2.6c1-1,1.8-0.4,2.6,0.4c4.9,4.8,9.9,9.6,14.8,14.4c1.6,1.6,1.6,2.2,0,3.7c-4.9,4.9-9.9,9.8-14.8,14.6 c-0.4,0.4-0.7,0.8-1.3,1C44.1,49.8,43.2,49.2,43.2,48z"></path> </g> </svg> 