<?xml version="1.0" encoding="UTF-8"?> <svg xmlns="http://www.w3.org/2000/svg" xmlns:xlink="http://www.w3.org/1999/xlink" version="1.1" id="Layer_1" x="0px" y="0px" viewBox="0 0 64 64" style="enable-background:new 0 0 64 64;" xml:space="preserve"> <style type="text/css"> .st0{fill:#50E6FF;} .st1{fill:#0078D4;} .st2{fill:#FFFFFF;} </style> <path class="st0" d="M34.7,61L7.6,48c-5-2.4-7.1-8.4-4.7-13.3L16,7.6c2.4-5,8.4-7.1,13.3-4.7l27.1,13c5,2.4,7.1,8.4,4.7,13.3 L48,56.4C45.6,61.3,39.7,63.4,34.7,61z"></path> <path class="st1" d="M50.5,56.4H13.7c-3.1,0-5.7-2.5-5.7-5.7V13.3c0-3.1,2.5-5.7,5.7-5.7h28.2c0.8,0,1.5,0.3,2,0.8l11.6,11.9 c0.5,0.5,0.8,1.2,0.8,2v28.4C56.2,53.8,53.7,56.4,50.5,56.4z"></path> <polygon class="st2" points="35.1,20.5 25,34.4 31,34.4 28.2,43.5 39,29.1 33.1,29.1 "></polygon> </svg> 