<?xml version="1.0" encoding="UTF-8"?> <svg xmlns="http://www.w3.org/2000/svg" xmlns:xlink="http://www.w3.org/1999/xlink" version="1.1" id="Layer_1" x="0px" y="0px" viewBox="0 0 64 64" style="enable-background:new 0 0 64 64;" xml:space="preserve"> <style type="text/css"> .st0{fill:#39BCDB;} .st1{fill:#FFFFFF;} .st2{fill:#8D7AB7;} .st3{clip-path:url(#SVGID_00000121266459503948660420000012556226397672475301_);fill:url(#SVGID_00000152962348327754751670000007412805859672427682_);} .st4{clip-path:url(#SVGID_00000029754861960230118730000006406851434387193274_);fill:url(#SVGID_00000098908229990765442530000011778543593448472757_);} .st5{opacity:0.498;enable-background:new ;} .st6{clip-path:url(#SVGID_00000155837796229059445510000010513798131329974157_);} .st7{clip-path:url(#SVGID_00000075146284349807287390000016896687042633829777_);fill:#A794C6;} .st8{fill:#5C4998;} </style> <path class="st0" d="M58.7,20.8L55,19.5c-0.7-1.4-1.5-2.7-2.4-3.9c-0.1-0.1-0.1-0.2-0.2-0.2c0.9-0.3,1.7-0.8,2.4-1.5 C56.5,16,57.7,18.3,58.7,20.8 M43.4,4.8c-0.5,0.9-0.8,1.8-0.9,2.7c-0.1,0-0.2-0.1-0.2-0.1C38.9,6,35.5,5.2,31.9,5.3 c-3.9,0-7.6,0.8-11.1,2.5c-3.5,1.7-6.5,4-8.9,7l-1,0.2c-1.1,0.2-1.6,0.9-1.6,2v1.6l-3.5,0.6c1.1-2.5,2.6-4.8,4.4-6.8 c1.8-2.1,3.9-3.8,6.2-5.3c2.3-1.5,4.8-2.6,7.4-3.4s5.3-1.2,8.1-1.2C35.9,2.4,39.7,3.2,43.4,4.8 M13.6,49.2c-0.9,0.5-1.6,1.1-2.2,1.9 c-2.4-2.4-4.3-5.2-5.7-8.3l3.5,0.8v0.9c0,1.1,0.5,1.8,1.6,2l0.5,0.1c0.6,0.9,1.3,1.7,2.1,2.5L13.6,49.2z M58.9,40.7 c-1,2.8-2.4,5.3-4.2,7.7c-1.8,2.3-3.9,4.4-6.3,6.1c-2.4,1.7-5,3-7.8,3.9c-2.8,0.9-5.7,1.3-8.6,1.3c-2.7,0-5.3-0.4-7.9-1.1 c0.4-0.9,0.6-1.8,0.6-2.8c0,0,0.1,0,0.1,0c2.3,0.7,4.7,1,7.1,1c4.9,0,9.5-1.3,13.7-3.9c4.2-2.6,7.4-6.1,9.5-10.6l0,0L58.9,40.7z"></path> <path class="st1" d="M35.6,41.9l8.6,1.9l-13.4,5.5c-0.1,0-0.1,0-0.2,0c-0.3,0-0.5-0.2-0.5-0.5V13.2c0-0.3,0.2-0.5,0.5-0.5 c0.1,0,0.1,0,0.2,0L46,18l-10.3,1.9c-1,0.2-1.5,0.8-1.5,1.8v18.3C34.2,41.1,34.7,41.7,35.6,41.9"></path> <path class="st2" d="M5.2,20.7l4.1-0.8v22.2l-4.2-0.9l-3.4-0.7c-0.2,0-0.3-0.2-0.3-0.4V21.8c0-0.2,0.1-0.4,0.3-0.4L5.2,20.7z"></path> <g> <defs> <path id="SVGID_1_" d="M30.7,12.7c-0.3,0-0.5,0.2-0.5,0.5v35.6c0,0.3,0.2,0.5,0.5,0.5c0.1,0,0.1,0,0.2,0l13.4-5.5l-8.6-1.9 c-1-0.2-1.5-0.8-1.5-1.8V21.8c0-1,0.5-1.6,1.5-1.8L46,18l-15.1-5.3C30.8,12.7,30.8,12.7,30.7,12.7C30.7,12.7,30.7,12.7,30.7,12.7"></path> </defs> <clipPath id="SVGID_00000163787316008450394300000009105035759280152993_"> <use xlink:href="#SVGID_1_" style="overflow:visible;"></use> </clipPath> <linearGradient id="SVGID_00000029010350898138153640000004973822145954582912_" gradientUnits="userSpaceOnUse" x1="-342.9686" y1="407.046" x2="-342.8833" y2="407.046" gradientTransform="matrix(233.6792 0 0 233.6792 80175.9453 -95087.1953)"> <stop offset="0" style="stop-color:#5C4998"></stop> <stop offset="1.000000e-03" style="stop-color:#5C4998"></stop> <stop offset="1" style="stop-color:#52378D"></stop> </linearGradient> <rect x="30.2" y="12.7" style="clip-path:url(#SVGID_00000163787316008450394300000009105035759280152993_);fill:url(#SVGID_00000029010350898138153640000004973822145954582912_);" width="15.8" height="36.6"></rect> </g> <g> <defs> <path id="SVGID_00000140702992079399744510000011452397200636901812_" d="M30.6,12.7l-19.3,3.7c-0.3,0.1-0.5,0.3-0.5,0.6v27.5 c0,0.3,0.2,0.5,0.5,0.6l19.3,4.2c0.5,0.1,0.7-0.1,0.7-0.6V13.3c0-0.4-0.2-0.6-0.6-0.6H30.6z"></path> </defs> <clipPath id="SVGID_00000154420263731073426960000012536397178754838665_"> <use xlink:href="#SVGID_00000140702992079399744510000011452397200636901812_" style="overflow:visible;"></use> </clipPath> <linearGradient id="SVGID_00000087374687186234220500000013844868594595302834_" gradientUnits="userSpaceOnUse" x1="-342.5224" y1="406.7041" x2="-342.4371" y2="406.7041" gradientTransform="matrix(0 397.1952 -397.1952 0 161561.9531 136062.5469)"> <stop offset="0" style="stop-color:#8C7AB7"></stop> <stop offset="0.999" style="stop-color:#5C4998"></stop> <stop offset="1" style="stop-color:#5C4998"></stop> </linearGradient> <rect x="10.8" y="12.7" style="clip-path:url(#SVGID_00000154420263731073426960000012536397178754838665_);fill:url(#SVGID_00000087374687186234220500000013844868594595302834_);" width="20.5" height="36.7"></rect> </g> <g class="st5"> <g> <defs> <rect id="SVGID_00000070090886652082660750000016370293420682185872_" x="11.3" y="14.5" width="17.9" height="32.5"></rect> </defs> <clipPath id="SVGID_00000124160468994712502610000011897130393495279280_"> <use xlink:href="#SVGID_00000070090886652082660750000016370293420682185872_" style="overflow:visible;"></use> </clipPath> <g style="clip-path:url(#SVGID_00000124160468994712502610000011897130393495279280_);"> <defs> <rect id="SVGID_00000019668434079155262070000010367743865259038613_" x="11.3" y="14.5" width="17.9" height="32.5"></rect> </defs> <clipPath id="SVGID_00000153705626108052012720000014305727899624589212_"> <use xlink:href="#SVGID_00000019668434079155262070000010367743865259038613_" style="overflow:visible;"></use> </clipPath> <path style="clip-path:url(#SVGID_00000153705626108052012720000014305727899624589212_);fill:#A794C6;" d="M13.4,19.6V42 l5.9,1.2V18.6L13.4,19.6z M21.7,18.2v25.6l6.7,1.1V17L21.7,18.2z"></path> </g> </g> </g> <path class="st0" d="M55.7,8.4c0,1.6-0.6,3-1.7,4.2c-1.2,1.2-2.6,1.7-4.2,1.7c-1.6,0-3-0.6-4.2-1.7c-1.2-1.2-1.7-2.6-1.7-4.2 c0-1.6,0.6-3,1.7-4.2c1.2-1.2,2.6-1.7,4.2-1.7c1.6,0,3.1,0.6,4.2,1.7C55.1,5.4,55.7,6.8,55.7,8.4"></path> <path class="st0" d="M23.2,55.6c0,1.6-0.6,3.1-1.7,4.2c-1.2,1.2-2.6,1.7-4.2,1.7c-1.6,0-3.1-0.6-4.2-1.7s-1.7-2.6-1.7-4.2 s0.6-3.1,1.7-4.2c1.2-1.2,2.6-1.7,4.2-1.7c1.6,0,3.1,0.6,4.2,1.7C22.6,52.6,23.2,54,23.2,55.6"></path> <path class="st8" d="M62.5,24.2v13c0,0.3-0.2,0.5-0.5,0.7l-2.6,1.1L49,43.2h0c0,0-0.1,0-0.1,0c-0.2,0-0.3-0.1-0.3-0.3V19.2 c0-0.1,0.1-0.2,0.2-0.3h0.1c0,0,0,0,0.1,0c0,0,0.1,0,0.1,0H49l10.2,3.5l2.7,1C62.3,23.6,62.5,23.8,62.5,24.2"></path> <path class="st2" d="M48.8,18.9l-12.9,2.4c-0.2,0-0.3,0.2-0.3,0.4v18.3c0,0.2,0.1,0.3,0.3,0.4l12.9,2.8c0.3,0.1,0.4,0,0.5-0.3 c0,0,0-0.1,0-0.1V19.3C49.3,19.1,49.1,18.9,48.8,18.9C48.8,18.9,48.8,18.9,48.8,18.9"></path> </svg> 