<?xml version="1.0" encoding="UTF-8"?> <svg xmlns="http://www.w3.org/2000/svg" width="64" height="64" viewBox="0 0 64 64" fill="none"><g clip-path="url(#clip0_1608_33481)"><path d="M55.0771 28.5322H14.153" stroke="black" stroke-linejoin="round"></path><path d="M44.8122 30.9294C43.5074 21.7277 39.4382 15.0005 34.6151 15.0005C28.7384 15.0005 23.9829 24.956 23.9829 37.2313C23.9829 49.5066 28.7384 59.4622 34.6151 59.4622C37.3407 59.4622 39.8151 57.3164 41.6999 53.7981" stroke="black" stroke-linecap="round" stroke-linejoin="round"></path><path d="M56.5656 33.7227C54.8838 23.1099 45.7015 15.0005 34.6151 15.0005C22.3398 15.0005 12.3843 24.956 12.3843 37.2313C12.3843 49.5066 22.3398 59.4622 34.6151 59.4622C39.2933 59.4622 43.6331 58.0123 47.2094 55.5476" stroke="black" stroke-linecap="round" stroke-linejoin="round"></path><path d="M14.153 45.9302H35.9296" stroke="black" stroke-linecap="round" stroke-linejoin="round"></path><path d="M47.8512 45.486C49.1073 46.6633 51.0799 46.5995 52.2573 45.3434C53.4346 44.0874 53.3708 42.1147 52.1147 40.9374C50.8587 39.7601 48.886 39.8239 47.7087 41.08C46.5314 42.336 46.5952 44.3086 47.8512 45.486Z" stroke="black" stroke-linecap="round" stroke-linejoin="round"></path><path d="M47.8512 45.486C49.1073 46.6633 51.0799 46.5995 52.2573 45.3434C53.4346 44.0874 53.3708 42.1147 52.1147 40.9374C50.8587 39.7601 48.886 39.8239 47.7087 41.08C46.5314 42.336 46.5952 44.3086 47.8512 45.486Z" stroke="url(#paint0_linear_1608_33481)" stroke-linecap="round" stroke-linejoin="round"></path><path d="M56.0989 50.3613C55.9248 50.547 55.631 50.5566 55.4453 50.3825L54.5773 49.5689C54.4181 49.4196 54.1824 49.4052 54.0024 49.5213C53.3974 49.9084 52.7451 50.1942 52.0752 50.3923C51.8677 50.4541 51.723 50.6389 51.7298 50.8518L51.7645 51.924C51.7766 52.2985 51.5741 52.5146 51.3171 52.5229L49.2536 52.5896C48.9966 52.5979 48.7843 52.399 48.776 52.142L48.7375 50.9523C48.7306 50.7394 48.574 50.557 48.3632 50.516C47.6784 50.3654 47.0125 50.1187 46.3837 49.7715C46.1966 49.6672 45.9623 49.6969 45.8167 49.8523L45.0848 50.6331C44.8254 50.9098 44.5317 50.9193 44.3459 50.7452L42.8411 49.3347C42.6554 49.1607 42.6459 48.8669 42.82 48.6812L43.6336 47.8132C43.7828 47.654 43.7972 47.4183 43.6811 47.2383C43.294 46.6333 43.0083 45.9809 42.8102 45.311C42.7483 45.1035 42.5635 44.9588 42.3506 44.9657L41.2784 45.0004C40.9039 45.0125 40.6879 44.81 40.6796 44.553L40.6128 42.4895C40.6045 42.2325 40.8035 42.0202 41.0605 42.0119L42.2501 41.9734C42.4631 41.9665 42.6454 41.8099 42.6864 41.5991C42.837 40.9142 43.0838 40.2483 43.431 39.6196C43.5352 39.4325 43.5055 39.1982 43.3501 39.0525L42.5693 38.3206C42.2926 38.0613 42.2831 37.7675 42.4572 37.5818L43.8677 36.077C44.0418 35.8912 44.3355 35.8817 44.6122 36.1411L45.393 36.873C45.5522 37.0222 45.7842 37.0331 45.9642 36.917C46.5691 36.5299 47.2177 36.2406 47.8914 36.046C48.0989 35.9842 48.2436 35.7994 48.2367 35.5864L48.1982 34.3968C48.1899 34.1398 48.3889 33.9275 48.6459 33.9192L50.7094 33.8525C50.9664 33.8441 51.1787 34.0431 51.1946 34.4212L51.2293 35.4933C51.2362 35.7063 51.3925 35.8813 51.6036 35.9296C52.2884 36.0802 52.9543 36.327 53.5831 36.6742C53.7702 36.7784 54.0045 36.7488 54.1537 36.5896L54.9673 35.7215C55.1414 35.5358 55.4351 35.5263 55.6209 35.7004L57.1257 37.1109C57.3114 37.285 57.3209 37.5787 57.0616 37.8554L56.3297 38.6363C56.1805 38.7955 56.1696 39.0274 56.2857 39.2074C56.6728 39.8123 56.9585 40.4647 57.1566 41.1346C57.2185 41.3421 57.4033 41.4868 57.6162 41.4799L58.8058 41.4414C59.0629 41.4331 59.2751 41.6321 59.2834 41.8891L59.3502 43.9526C59.3585 44.2096 59.1596 44.4219 58.7815 44.4378L57.7094 44.4725C57.4964 44.4794 57.3214 44.6357 57.2731 44.8468C57.1225 45.5316 56.8757 46.1975 56.5285 46.8263C56.4243 47.0134 56.4539 47.2477 56.6131 47.3969L57.4811 48.2105C57.6669 48.3846 57.6764 48.6783 57.5023 48.8641L56.0918 50.3689L56.0989 50.3613Z" stroke="black" stroke-linecap="round" stroke-linejoin="round"></path><path d="M56.0989 50.3613C55.9248 50.547 55.631 50.5566 55.4453 50.3825L54.5773 49.5689C54.4181 49.4196 54.1824 49.4052 54.0024 49.5213C53.3974 49.9084 52.7451 50.1942 52.0752 50.3923C51.8677 50.4541 51.723 50.6389 51.7298 50.8518L51.7645 51.924C51.7766 52.2985 51.5741 52.5146 51.3171 52.5229L49.2536 52.5896C48.9966 52.5979 48.7843 52.399 48.776 52.142L48.7375 50.9523C48.7306 50.7394 48.574 50.557 48.3632 50.516C47.6784 50.3654 47.0125 50.1187 46.3837 49.7715C46.1966 49.6672 45.9623 49.6969 45.8167 49.8523L45.0848 50.6331C44.8254 50.9098 44.5317 50.9193 44.3459 50.7452L42.8411 49.3347C42.6554 49.1607 42.6459 48.8669 42.82 48.6812L43.6336 47.8132C43.7828 47.654 43.7972 47.4183 43.6811 47.2383C43.294 46.6333 43.0083 45.9809 42.8102 45.311C42.7483 45.1035 42.5635 44.9588 42.3506 44.9657L41.2784 45.0004C40.9039 45.0125 40.6879 44.81 40.6796 44.553L40.6128 42.4895C40.6045 42.2325 40.8035 42.0202 41.0605 42.0119L42.2501 41.9734C42.4631 41.9665 42.6454 41.8099 42.6864 41.5991C42.837 40.9142 43.0838 40.2483 43.431 39.6196C43.5352 39.4325 43.5055 39.1982 43.3501 39.0525L42.5693 38.3206C42.2926 38.0613 42.2831 37.7675 42.4572 37.5818L43.8677 36.077C44.0418 35.8912 44.3355 35.8817 44.6122 36.1411L45.393 36.873C45.5522 37.0222 45.7842 37.0331 45.9642 36.917C46.5691 36.5299 47.2177 36.2406 47.8914 36.046C48.0989 35.9842 48.2436 35.7994 48.2367 35.5864L48.1982 34.3968C48.1899 34.1398 48.3889 33.9275 48.6459 33.9192L50.7094 33.8525C50.9664 33.8441 51.1787 34.0431 51.1946 34.4212L51.2293 35.4933C51.2362 35.7063 51.3925 35.8813 51.6036 35.9296C52.2884 36.0802 52.9543 36.327 53.5831 36.6742C53.7702 36.7784 54.0045 36.7488 54.1537 36.5896L54.9673 35.7215C55.1414 35.5358 55.4351 35.5263 55.6209 35.7004L57.1257 37.1109C57.3114 37.285 57.3209 37.5787 57.0616 37.8554L56.3297 38.6363C56.1805 38.7955 56.1696 39.0274 56.2857 39.2074C56.6728 39.8123 56.9585 40.4647 57.1566 41.1346C57.2185 41.3421 57.4033 41.4868 57.6162 41.4799L58.8058 41.4414C59.0629 41.4331 59.2751 41.6321 59.2834 41.8891L59.3502 43.9526C59.3585 44.2096 59.1596 44.4219 58.7815 44.4378L57.7094 44.4725C57.4964 44.4794 57.3214 44.6357 57.2731 44.8468C57.1225 45.5316 56.8757 46.1975 56.5285 46.8263C56.4243 47.0134 56.4539 47.2477 56.6131 47.3969L57.4811 48.2105C57.6669 48.3846 57.6764 48.6783 57.5023 48.8641L56.0918 50.3689L56.0989 50.3613Z" stroke="url(#paint1_linear_1608_33481)" stroke-linecap="round" stroke-linejoin="round"></path><path d="M20.3547 15.7496C20.3547 15.7496 20.3345 15.7194 20.3243 15.702C20.2239 15.5552 20.2286 15.3606 20.3462 15.2305L20.9872 14.4952C21.1255 14.3366 21.1092 14.0982 20.9506 13.96L19.677 12.8497C19.5184 12.7114 19.28 12.7278 19.0747 12.9633L18.4966 13.6265C18.3792 13.7611 18.1916 13.792 18.0322 13.708C17.5174 13.4495 16.9667 13.2613 16.3899 13.1517C16.2159 13.1184 16.0842 12.9783 16.0722 12.8029L16.0057 11.8314C15.9912 11.62 15.8089 11.4653 15.602 11.4794L13.9153 11.595C13.7039 11.6094 13.5492 11.7918 13.5634 11.9987L13.6299 12.9702C13.6419 13.1456 13.5307 13.3023 13.3628 13.359C12.8015 13.5421 12.2819 13.8081 11.8117 14.1341C11.6649 14.2345 11.4748 14.2295 11.3405 14.1167L10.6773 13.5385C10.4418 13.3332 10.2037 13.354 10.0652 13.5081L8.9549 14.7817C8.81664 14.9403 8.83297 15.1786 8.99156 15.3169L9.72687 15.9579C9.86143 16.0752 9.89267 16.2674 9.81288 16.422C9.55441 16.9368 9.36619 17.4874 9.25658 18.0643C9.22331 18.2383 9.0877 18.3696 8.90778 18.3819L8.03521 18.4417C7.72486 18.463 7.57015 18.6453 7.58432 18.8522L7.69985 20.5389C7.71433 20.7503 7.89665 20.905 8.10355 20.8908L9.07508 20.8243C9.25049 20.8122 9.40724 20.9235 9.46393 21.0914C9.64698 21.6527 9.91303 22.1722 10.239 22.6425C10.3394 22.7892 10.3344 22.9794 10.2215 23.1136L9.64335 23.7769C9.43806 24.0123 9.45888 24.2504 9.61298 24.389L10.8865 25.4993C11.0451 25.6375 11.2835 25.6212 11.4218 25.4626L12.0628 24.7273C12.1801 24.5927 12.3723 24.5615 12.5269 24.6413C12.5455 24.6491 12.5641 24.6568 12.5782 24.6649" stroke="black" stroke-linecap="round" stroke-linejoin="round"></path><path d="M18.0566 17.6918C17.4869 16.6327 16.3371 15.9432 15.0597 16.0307C13.3191 16.15 12.0077 17.6542 12.1269 19.3949C12.2138 20.6632 13.0395 21.7003 14.1487 22.1259" stroke="black" stroke-linecap="round" stroke-linejoin="round"></path></g><defs><linearGradient id="paint0_linear_1608_33481" x1="49.9043" y1="41.7887" x2="50.7791" y2="50.3449" gradientUnits="userSpaceOnUse"><stop offset="0.236106" stop-color="#DA291C"></stop><stop offset="1" stop-color="#FFCD00"></stop></linearGradient><linearGradient id="paint1_linear_1608_33481" x1="49.745" y1="38.9552" x2="52.3643" y2="64.6066" gradientUnits="userSpaceOnUse"><stop offset="0.236106" stop-color="#DA291C"></stop><stop offset="1" stop-color="#FFCD00"></stop></linearGradient><clipPath id="clip0_1608_33481"><rect width="64" height="64" fill="white"></rect></clipPath></defs></svg> 