<?xml version="1.0" encoding="UTF-8"?> <svg xmlns:sodipodi="http://sodipodi.sourceforge.net/DTD/sodipodi-0.dtd" xmlns:rdf="http://www.w3.org/1999/02/22-rdf-syntax-ns#" xmlns:dc="http://purl.org/dc/elements/1.1/" xmlns:svg="http://www.w3.org/2000/svg" xmlns:inkscape="http://www.inkscape.org/namespaces/inkscape" xmlns:cc="http://creativecommons.org/ns#" xmlns="http://www.w3.org/2000/svg" xmlns:xlink="http://www.w3.org/1999/xlink" version="1.1" id="svg24" sodipodi:docname="bamboo-ar21.svg" x="0px" y="0px" viewBox="0 0 180 60" style="enable-background:new 0 0 180 60;" xml:space="preserve"> <style type="text/css"> .st0{fill:#253858;} .st1{fill:#2684FF;} .st2{fill:url(#path16_00000055669181571578964890000015833578331238775187_);} .st3{fill:url(#path18_00000062913368647279759720000008172234641678709134_);} </style> <g id="g51" transform="translate(-1.3174956)"> <path id="path12" inkscape:connector-curvature="0" class="st0" d="M71.9,20.4c4.2,0,6.2,2.1,6.2,5.4c0,2.5-1.1,4-3.4,4.6 c3,0.5,4.5,2.2,4.5,5.1c0,3.3-2.2,5.5-6.8,5.5h-8.5V20.4H71.9z M66.7,23.1v6.1h4.8c2.7,0,3.8-1.2,3.8-3.2c0-2-1.2-2.9-3.8-2.9 L66.7,23.1z M66.7,31.7v6.4h5.8c2.7,0,3.9-1,3.9-3c0-2.2-1.2-3.4-4-3.4L66.7,31.7z M93,38.1c-1,2.1-2.9,3.1-5.3,3.1 c-4.2,0-6.3-3.5-6.3-8.1c0-4.4,2.2-8.1,6.6-8.1c2.3,0,4,1,5,3.1v-2.8h2.7v15.6H93V38.1z M88.4,38.7c2.4,0,4.6-1.5,4.6-5v-1.3 c0-3.5-2-5-4.3-5c-3,0-4.6,2-4.6,5.6C84.2,36.9,85.7,38.7,88.4,38.7L88.4,38.7z M113.1,40.9h-2.7v-9.5c0-2.8-1.1-4.1-3.7-4.1 c-2.5,0-4.2,1.7-4.2,4.8v8.7h-2.7V25.3h2.7v2.6c1-1.8,2.9-2.9,4.9-2.9c2.7,0,4.5,1.3,5.3,3.8c0.9-2.4,3-3.8,5.6-3.8 c3.5,0,5.4,2.4,5.4,6.8v9.2H121v-8.7c0-3.2-1.1-4.8-3.7-4.8c-2.5,0-4.2,1.7-4.2,4.8L113.1,40.9z M135.1,41.2c-2.3,0-4-1-5-3.1v2.8 h-2.7V18.7h2.7v9.4c1-2.1,2.9-3.1,5.3-3.1c4.2,0,6.3,3.5,6.3,8.1C141.7,37.5,139.5,41.2,135.1,41.2z M134.7,27.5 c-2.4,0-4.6,1.5-4.6,5v1.3c0,3.5,2,5,4.3,5c3,0,4.6-2,4.6-5.6C139,29.4,137.5,27.5,134.7,27.5L134.7,27.5z M143.9,33.1 c0-4.7,2.8-8.1,7.4-8.1c4.7,0,7.4,3.4,7.4,8.1s-2.7,8.2-7.4,8.2C146.7,41.3,143.9,37.8,143.9,33.1z M146.5,33.1 c0,3,1.5,5.7,4.8,5.7c3.3,0,4.8-2.7,4.8-5.7c0-3-1.4-5.6-4.8-5.6C148,27.5,146.5,30.1,146.5,33.1L146.5,33.1z M160.9,33.1 c0-4.7,2.8-8.1,7.4-8.1c4.7,0,7.4,3.4,7.4,8.1s-2.7,8.2-7.4,8.2C163.7,41.3,160.9,37.8,160.9,33.1z M163.5,33.1 c0,3,1.5,5.7,4.8,5.7c3.3,0,4.8-2.7,4.8-5.7c0-3-1.4-5.6-4.8-5.6S163.5,30.1,163.5,33.1z"></path> <g id="g44" transform="matrix(0.45559897,0,0,0.45559897,0.32861112,18.666742)"> <path id="path14" inkscape:connector-curvature="0" class="st1" d="M112.9,32.9H88.4c-1.6,0-3,1.1-3.2,2.7 C83.8,45.6,75.3,53,65.3,53l6.6,30.2c24-3.1,42.4-22.7,44.1-46.8c0.1-1.8-1.2-3.3-3-3.4C113,32.9,112.9,32.9,112.9,32.9z M70.5,32.2l35.2-30.2c1.3-1.2,1.5-3.2,0.3-4.5c-0.1-0.1-0.2-0.2-0.3-0.3L70.5-33.2c-1.3-1.1-3.4-1-4.5,0.4 c-0.5,0.6-0.8,1.3-0.8,2v60.5c0,1.8,1.4,3.2,3.2,3.2C69.2,32.9,70,32.6,70.5,32.2z"></path> <linearGradient id="path16_00000096029559421702511070000007167914539697957782_" gradientUnits="userSpaceOnUse" x1="1328.114" y1="-3046.4177" x2="1328.114" y2="-3115.6929" gradientTransform="matrix(0.4556 0 0 -0.4556 -564.9877 -1404.908)"> <stop offset="0" style="stop-color:#0052CC"></stop> <stop offset="1" style="stop-color:#2684FF"></stop> </linearGradient> <path id="path16" inkscape:connector-curvature="0" style="fill:url(#path16_00000096029559421702511070000007167914539697957782_);" d=" M14.9,39.5c3.4,25.3,24.9,44.1,50.4,44.1V53c-11.1,0-20.1-9-20.1-20L14.9,39.5z"></path> <linearGradient id="path18_00000106852058152067170010000017608526047465762973_" gradientUnits="userSpaceOnUse" x1="1327.5876" y1="-3046.4177" x2="1327.5876" y2="-3115.6929" gradientTransform="matrix(0.4556 0 0 -0.4556 -564.9877 -1404.908)"> <stop offset="0" style="stop-color:#0052CC"></stop> <stop offset="1" style="stop-color:#2684FF"></stop> </linearGradient> <path id="path18" inkscape:connector-curvature="0" style="fill:url(#path18_00000106852058152067170010000017608526047465762973_);" d=" M14.4,32.4v0.5h30.8c0-11.1,9-20,20.1-20l-6.6-30.2C33.6-14.1,14.7,7.1,14.4,32.4"></path> </g> </g> </svg> 