<?xml version="1.0" encoding="UTF-8"?> <svg xmlns="http://www.w3.org/2000/svg" xmlns:xlink="http://www.w3.org/1999/xlink" version="1.1" id="Layer_1" x="0px" y="0px" viewBox="0 0 64 64" style="enable-background:new 0 0 64 64;" xml:space="preserve"> <style type="text/css"> .st0{fill-rule:evenodd;clip-rule:evenodd;fill:#0072C6;} </style> <symbol id="A" viewBox="-45 -40 90 80"> <path class="st0" d="M8.3-37.9c0-1.2-0.9-2.1-2.2-2.1h-48.9c-1.3,0-2.2,0.9-2.2,2.1v6.6H8.3V-37.9z M-23.5-25.7 c0.1-0.1,0.4-0.3,0.7-0.3h0.3l1.8,1.3l0.4,0.3v0H8.3v-5.2H-45V3.1c0,1.2,0.9,2.1,2.2,2.1h14.3v-5.7l-1.4,1.7L-36-4.9l-0.5-0.5 c-0.4-0.3-0.4-0.8,0-1.1l1.5-1.2l0.3-0.3h0.2c0.4,0,0.6,0.1,0.6,0.4l3.6,3.7l1.9-2.2v-7.9l-1.4,1.7l-6.1-6.1l-0.5-0.5 c-0.4-0.3-0.4-0.8,0-1.1l1.5-1.2l0.3-0.3h0.2c0.4,0,0.6,0.1,0.6,0.4l3.6,3.7l1.9-2.2v-0.8c0-2.1,1.6-3.7,3.8-3.8L-23.5-25.7 L-23.5-25.7z M-26.6-20.5v6.6h53.3v-6.6c0-1.2-0.9-2.1-2.2-2.1h-48.9C-25.7-22.6-26.6-21.7-26.6-20.5L-26.6-20.5z M42.8-5.2H-6.1 c-1.3,0-2.2,0.9-2.2,2.1v6.6H45v-6.6C45-4.3,44.1-5.2,42.8-5.2L42.8-5.2z M-5.1-8.3C-5-8.4-4.8-8.6-4.4-8.6h0.3l1.8,1.3L-1.9-7v0 h28.6v-5.2h-53.3v32.7c0,1.2,0.9,2.1,2.2,2.1h14.3v-5.7l-1.4,1.7l-6.1-6.1l-0.5-0.5c-0.4-0.3-0.4-0.8,0-1.1l1.5-1.2l0.3-0.3h0.2 c0.4,0,0.6,0.1,0.6,0.4l3.6,3.7l1.9-2.2V3.3L-11.5,5l-6.1-6.1l-0.5-0.5c-0.4-0.3-0.4-0.8,0-1.1l1.5-1.2l0.3-0.3h0.2 c0.4,0,0.6,0.1,0.6,0.4l3.6,3.7l1.9-2.2v-0.8c0-2.1,1.6-3.7,3.8-3.8L-5.1-8.3L-5.1-8.3z M-8.3,37.9c0,1.2,0.9,2.1,2.2,2.1h48.9 c1.3,0,2.2-0.9,2.2-2.1V5.2H-8.3L-8.3,37.9L-8.3,37.9z M17.4,15.7h20.2v3.5H17.4L17.4,15.7L17.4,15.7z M17.4,29.6h20.2V33H17.4 L17.4,29.6L17.4,29.6z M0.2,14.7l1.5-1.2L2,13.1h0.2c0.4,0,0.6,0.1,0.6,0.4l3.6,3.7l6.8-8.1C13.3,9,13.6,8.8,14,8.8h0.3l1.8,1.3 l0.4,0.3v0.5L6.8,22.4l-6.1-6.1l-0.5-0.5C-0.1,15.4-0.1,15,0.2,14.7L0.2,14.7z M0.2,28.2L1.7,27L2,26.7h0.2c0.4,0,0.6,0.1,0.6,0.4 l3.6,3.7l6.8-8.1c0.1-0.1,0.4-0.3,0.7-0.3h0.3l1.8,1.3l0.4,0.3v0.5L6.8,36l-6.1-6.1l-0.5-0.5C-0.1,29-0.1,28.6,0.2,28.2L0.2,28.2z"></path> </symbol> <use xlink:href="#A" width="90" height="80" x="-45" y="-40" transform="matrix(0.6534 0 0 0.6534 32 32)" style="overflow:visible;"></use> </svg> 