<?xml version="1.0" encoding="UTF-8"?> <svg xmlns="http://www.w3.org/2000/svg" xmlns:xlink="http://www.w3.org/1999/xlink" version="1.1" id="Layer_1" x="0px" y="0px" viewBox="0 0 180 60" style="enable-background:new 0 0 180 60;" xml:space="preserve"> <style type="text/css"> .st0{fill:#FFFFFF;} .st1{fill:#EAEAEA;} </style> <g> <path class="st0" d="M-117.6-42.5l-2.4-5.1h-7.7l-2.4,5.1h-2.2l7.6-16.2h1.9l7.5,16.2H-117.6z M-120.7-49.3l-2.2-5 c-0.3-0.6-0.6-1.4-0.9-2.3c-0.2,0.7-0.5,1.5-0.8,2.3l-2.3,5H-120.7z"></path> <path class="st0" d="M-97.9-54.2c0,1.6-0.5,2.5-1.7,3.4c-1.1,0.9-2.7,1.3-4.8,1.3h-5v6.7h-1.9v-16.1h7.3 C-99.9-58.9-97.9-57.4-97.9-54.2z M-109.4-51.1h4.8c1.7,0,2.9-0.3,3.6-0.8c0.7-0.5,1.1-1,1.1-2.2c0-1.1-0.3-1.5-1-2 c-0.7-0.5-1.8-0.8-3.3-0.8h-5.2L-109.4-51.1L-109.4-51.1z"></path> <path class="st0" d="M-76.8-50.5c0,2.6-0.7,4.6-2.3,6.1c-1.5,1.5-3.6,2.2-6.3,2.2c-2.7,0-4.8-0.7-6.3-2.2c-1.5-1.5-2.2-3.5-2.2-6.2 s0.7-4.7,2.2-6.1c1.5-1.5,3.6-2.2,6.4-2.2c2.7,0,4.8,0.7,6.3,2.2C-77.6-55.2-76.8-53.1-76.8-50.5z M-91.6-50.5c0,2.2,0.5,3.9,1.6,5 c1.1,1.1,2.6,1.7,4.7,1.7c2.1,0,3.6-0.6,4.7-1.7c1-1.1,1.6-2.8,1.6-5c0-2.2-0.5-3.8-1.6-4.9c-1-1.1-2.6-1.7-4.6-1.7 c-2.1,0-3.6,0.6-4.7,1.7C-91.1-54.4-91.6-52.7-91.6-50.5z"></path> <path class="st0" d="M-23.9-50.5c0,2.6-0.7,4.6-2.3,6.1c-1.5,1.5-3.6,2.2-6.3,2.2c-2.7,0-4.8-0.7-6.3-2.2c-1.5-1.5-2.2-3.5-2.2-6.2 s0.7-4.7,2.2-6.1c1.5-1.5,3.6-2.2,6.4-2.2c2.7,0,4.8,0.7,6.3,2.2C-24.6-55.2-23.9-53.1-23.9-50.5z M-38.7-50.5c0,2.2,0.5,3.9,1.6,5 c1.1,1.1,2.6,1.7,4.7,1.7c2.1,0,3.6-0.6,4.7-1.7c1-1.1,1.6-2.8,1.6-5c0-2.2-0.5-3.8-1.6-4.9c-1-1.1-2.6-1.7-4.6-1.7 c-2.1,0-3.6,0.6-4.7,1.7C-38.1-54.4-38.7-52.7-38.7-50.5z"></path> <path class="st0" d="M-71.8-42.5v-16.1h1.9v14.5h10.6v1.7H-71.8z"></path> <path class="st0" d="M-56.4-42.5v-16.1h1.9v14.5h10.6v1.7H-56.4z"></path> <g> <path class="st0" d="M-154.4-64.6c-1.5-4.9-5.2-8.8-10-10.4c-1.6-0.6-3.4-0.9-5.2-0.9c-1.8,0-3.6,0.3-5.2,0.9 c-4.8,1.7-8.6,5.6-10.1,10.4c-0.4,1.5-0.7,3-0.7,4.6c0,8.8,7.1,15.9,15.9,15.9c8.8,0,15.9-7.1,15.9-15.9 C-153.7-61.6-153.9-63.2-154.4-64.6z M-169.6-47c-7.2,0-13.1-5.9-13.1-13.1c0-3.3,1.2-6.3,3.2-8.6c2.4-2.7,5.9-4.5,9.9-4.5 c3.9,0,7.5,1.8,9.9,4.5c2,2.3,3.2,5.3,3.2,8.6C-156.5-52.8-162.4-47-169.6-47z"></path> </g> <g> <polygon class="st0" points="-184.5,-30.7 -187.4,-31.8 -169.6,-75.9 -151.3,-32.4 -154.2,-31.3 -169.6,-67.8 "></polygon> </g> <g> <path class="st0" d="M-169.6-23.5c-14.6,0-26.5-11.9-26.5-26.5s11.9-26.5,26.5-26.5c14.6,0,26.5,11.9,26.5,26.5 C-143.1-35.3-155-23.5-169.6-23.5z M-169.6-73.8c-13.1,0-23.8,10.7-23.8,23.8s10.7,23.8,23.8,23.8s23.8-10.7,23.8-23.8 S-156.5-73.8-169.6-73.8z"></path> </g> </g> <g> <path class="st0" d="M70.2-75.9v51.2H28.3c-14.2,0-25.6-11.4-25.6-25.6s11.4-25.6,25.6-25.6h0.1l0,0C28.3-75.9,70.2-75.9,70.2-75.9 z"></path> <g> <path class="st0" d="M151.7-24.2v-1c13.8,0,25.1-11.3,25.1-25.1s-11.3-25.1-25.1-25.1v-1c14.4,0,26.1,11.7,26.1,26.1 S166.1-24.2,151.7-24.2z"></path> </g> <g> <path class="st0" d="M19.6-40.2v-20.5h11.7c2,0,3.8,0.3,5.2,0.8c1.5,0.6,2.7,1.3,3.5,2.4c0.8,1,1.3,2.3,1.3,3.8S40.8-51,40-50.1 c-0.9,1-2.1,1.8-3.6,2.3c-1.5,0.5-3.3,0.7-5.4,0.7h-6.9v-4.3h5.5c0.9,0,1.6-0.1,2.2-0.2c0.6-0.1,1.1-0.4,1.4-0.8 c0.3-0.4,0.5-0.8,0.5-1.4c0-0.6-0.1-1-0.5-1.5c-0.3-0.4-0.8-0.7-1.4-0.8c-0.6-0.1-1.3-0.3-2.2-0.3h-2.6v16.1L19.6-40.2L19.6-40.2z M35.4-49.6l6.7,9.4h-8l-6.6-9.4H35.4z"></path> <path class="st0" d="M50.7-55.6l2.9,4.8l3.1-4.8H64l-5.5,7.7l16.7,23.8h-7.2L53.6-45.1l-3.3,4.9H43l5.8-7.7l-5.4-7.7L50.7-55.6 L50.7-55.6z"></path> </g> <g> <path class="st0" d="M91.6-52.1l-3.1,0.4c-0.1-0.3-0.1-0.6-0.3-0.9c-0.1-0.3-0.4-0.5-0.7-0.7c-0.3-0.1-0.7-0.2-1.3-0.2 c-0.7,0-1.4,0.1-1.9,0.5c-0.5,0.3-0.9,0.7-1,1.3c-0.1,0.4,0,0.7,0.3,1c0.2,0.2,0.7,0.4,1.4,0.6l2.4,0.5c1.3,0.3,2.2,0.7,2.8,1.4 c0.6,0.7,0.7,1.5,0.6,2.6c-0.1,0.9-0.5,1.6-1.2,2.3c-0.6,0.7-1.4,1.2-2.4,1.5c-1,0.4-2.1,0.6-3.2,0.6c-1.8,0-3.2-0.4-4.1-1.1 c-1-0.7-1.4-1.8-1.4-3.1l3.3-0.3c0.1,0.7,0.3,1.1,0.7,1.5c0.4,0.3,1,0.5,1.7,0.5c0.8,0,1.5-0.1,2.1-0.5c0.6-0.4,0.9-0.8,1-1.3 c0.1-0.4,0-0.7-0.3-1c-0.2-0.2-0.7-0.4-1.3-0.6l-2.4-0.5c-1.3-0.3-2.3-0.8-2.8-1.5c-0.6-0.7-0.7-1.5-0.6-2.7 c0.1-0.9,0.5-1.6,1.1-2.2c0.6-0.7,1.3-1.1,2.2-1.5c0.9-0.4,1.9-0.5,3-0.5c1.7,0,3,0.4,3.8,1C91.1-54.3,91.5-53.3,91.6-52.1z"></path> <path class="st0" d="M99.2-41.4c-1.4,0-2.6-0.3-3.5-1c-1-0.6-1.6-1.5-2-2.6s-0.4-2.4-0.2-3.9c0.2-1.5,0.7-2.7,1.5-3.8 s1.6-1.9,2.7-2.6c1.1-0.6,2.4-0.9,3.8-0.9c1.4,0,2.6,0.3,3.5,1c1,0.6,1.5,1.5,2,2.7c0.4,1.2,0.4,2.4,0.2,3.9 c-0.2,1.5-0.7,2.7-1.5,3.8c-0.7,1.1-1.6,1.9-2.8,2.5C101.9-41.7,100.6-41.4,99.2-41.4z M99.5-44c0.8,0,1.5-0.2,2.1-0.7 c0.6-0.4,1.1-1,1.5-1.7c0.4-0.7,0.7-1.5,0.8-2.4c0.1-0.9,0.1-1.6,0-2.4c-0.1-0.7-0.4-1.3-0.8-1.7c-0.4-0.4-1-0.6-1.8-0.6 c-0.8,0-1.5,0.2-2.1,0.7c-0.6,0.4-1.1,1-1.5,1.7c-0.4,0.7-0.7,1.5-0.8,2.4c-0.1,0.9-0.1,1.6,0,2.3c0.1,0.7,0.4,1.3,0.8,1.6 C98.2-44.2,98.8-44,99.5-44z"></path> <path class="st0" d="M119-47.6l1.4-8.3h3.4l-2.4,14.3h-3.2l0.4-2.5h-0.1c-0.4,0.8-1.1,1.5-1.9,2c-0.8,0.5-1.8,0.7-2.9,0.7 c-1,0-1.7-0.2-2.4-0.7c-0.7-0.4-1.1-1-1.4-1.8c-0.3-0.8-0.3-1.8-0.1-2.9l1.5-9.1h3.4l-1.4,8.6c-0.1,0.9,0,1.6,0.4,2.1 c0.4,0.5,1,0.8,1.8,0.8c0.5,0,1-0.1,1.5-0.4c0.5-0.2,1-0.6,1.3-1.1C118.6-46.3,118.8-46.9,119-47.6z"></path> <path class="st0" d="M124.8-41.6l2.4-14.3h3.2l-0.4,2.4h0.1c0.4-0.8,1-1.5,1.6-1.9c0.7-0.4,1.5-0.7,2.3-0.7c0.2,0,0.4,0,0.6,0 s0.4,0.1,0.6,0.1l-0.5,3.1c-0.1-0.1-0.4-0.1-0.7-0.1c-0.3-0.1-0.6-0.1-0.9-0.1c-0.6,0-1.2,0.1-1.7,0.4c-0.5,0.3-1,0.7-1.3,1.1 c-0.4,0.4-0.6,1-0.7,1.6l-1.4,8.4L124.8-41.6L124.8-41.6z"></path> <path class="st0" d="M140.8-41.4c-1.4,0-2.6-0.3-3.5-1c-0.9-0.6-1.5-1.5-1.9-2.6s-0.4-2.4-0.1-3.8c0.2-1.5,0.7-2.7,1.5-3.8 s1.7-2,2.8-2.6s2.4-1,3.8-1c1.2,0,2.1,0.2,2.9,0.7c0.8,0.4,1.5,1,1.8,1.8s0.6,1.7,0.4,2.7h-3.2c0-0.7-0.2-1.3-0.7-1.7 c-0.4-0.4-1-0.7-1.8-0.7c-0.7,0-1.3,0.1-1.9,0.6c-0.6,0.4-1.1,0.9-1.5,1.5c-0.4,0.7-0.7,1.5-0.8,2.5c-0.1,1-0.1,1.8,0,2.5 c0.1,0.7,0.5,1.3,1,1.6c0.4,0.4,1,0.6,1.8,0.6c0.5,0,1-0.1,1.4-0.3c0.4-0.2,0.8-0.4,1.1-0.8c0.3-0.4,0.6-0.8,0.7-1.3h3.2 c-0.3,1-0.7,1.9-1.3,2.7c-0.7,0.8-1.5,1.4-2.4,1.8C143.1-41.6,142-41.4,140.8-41.4z"></path> <path class="st0" d="M156-41.4c-1.4,0-2.6-0.3-3.5-0.9c-1-0.6-1.6-1.5-2-2.6s-0.4-2.4-0.2-3.9c0.2-1.5,0.7-2.7,1.5-3.9 c0.7-1.1,1.7-2,2.8-2.6s2.4-1,3.7-1c0.9,0,1.7,0.1,2.4,0.4s1.3,0.7,1.8,1.3c0.5,0.6,0.9,1.3,1,2.2c0.2,0.9,0.1,2,0,3.2l-0.1,1 h-11.7l0.4-2.3h8.5c0.1-0.7,0.1-1.3-0.1-1.7c-0.1-0.5-0.5-0.9-1-1.2c-0.4-0.3-1-0.4-1.6-0.4c-0.7,0-1.3,0.1-1.8,0.5 c-0.6,0.4-1,0.8-1.5,1.3c-0.4,0.5-0.7,1.1-0.7,1.7l-0.4,2.1c-0.1,0.9-0.1,1.6,0.1,2.2c0.2,0.6,0.5,1,1,1.3 c0.5,0.3,1.1,0.4,1.8,0.4c0.5,0,1-0.1,1.4-0.2c0.4-0.1,0.8-0.4,1.1-0.6c0.4-0.3,0.6-0.6,0.8-1l3.1,0.4c-0.4,0.8-0.8,1.5-1.5,2.1 c-0.7,0.6-1.5,1.1-2.4,1.4C158.1-41.5,157.1-41.4,156-41.4z"></path> </g> </g> <g> <path class="st0" d="M342-44.6c0-3.6,0-7.2,0-10.8c1.1,0,2.2,0,3.3,0c1.1,0,2.2,0,3.3,0c2.4,0,3.7,2,2.8,4.2c0,0.1-0.1,0.2-0.1,0.3 c1,0.8,1.6,1.8,1.5,3.1c-0.1,1.6-1.4,3.1-3.1,3.2C347.2-44.6,344.7-44.6,342-44.6z M344-46.6c1.8,0,3.4,0,5.1,0 c1.1,0,1.7-0.6,1.7-1.5c0-0.9-0.6-1.5-1.7-1.5c-1.3,0-2.6,0-3.9,0c-0.4,0-0.8,0-1.2,0C344-48.5,344-47.6,344-46.6z M344-51.5 c1.6,0,3.2,0,4.8,0c0.6,0,1-0.5,1-1c0-0.5-0.4-0.9-1.1-0.9c-0.5,0-1.1,0-1.6,0c-1.1,0-2.1,0-3.2,0C344-52.8,344-52.2,344-51.5z"></path> <path class="st0" d="M328.1-55.3c0,0.6,0,1.2,0,1.9c-0.3,0-0.5,0-0.7,0c-2.2,0-4.4,0.1-6.6,0c-1.5-0.1-1.7,0.7-1.5,1.9 c2.3,0,4.5,0,6.8,0c0,0.7,0,1.3,0,1.9c-2.3,0-4.6,0-6.9,0c0,0.8-0.1,1.5,0,2.2c0.1,0.6,0.5,0.8,1.1,0.8c2.3,0,4.6,0,6.9,0 c0.2,0,0.5,0,0.8,0c0,0.7,0,1.3,0,2c-0.4,0-0.8,0-1.2,0c-2.1,0-4.3,0-6.4,0c-2.1,0-3.2-1.2-3.2-3.2c0-1.6,0-3.1,0-4.7 c0-1.6,1.2-2.9,2.8-2.9c2.5,0,5.1,0,7.6,0C327.8-55.4,327.9-55.4,328.1-55.3z"></path> <path class="st0" d="M329.7-44.6c0-3.6,0-7.1,0-10.8c0.5,0,1.1,0,1.6,0c1.4,0,2.8,0,4.2,0c2.7,0.1,4.9,2.5,4.9,5.3 c0.1,2.8-2.1,5.3-4.8,5.5C333.7-44.5,331.7-44.6,329.7-44.6z M331.6-46.5c1.2,0,2.3,0,3.4,0c1.9,0,3.4-1.5,3.4-3.4 c0-1.9-1.5-3.4-3.4-3.5c-1,0-2,0-3,0c-0.2,0-0.3,0.1-0.4,0.1C331.6-51.1,331.6-48.9,331.6-46.5z"></path> <path class="st0" d="M214-50.7c0-1.4,0-2.6,0-3.8c0-0.2,0.2-0.5,0.4-0.6c1.9-1.5,3.7-3.1,5.6-4.6c0.7-0.5,1.4-0.6,2.2-0.3 c0.7,0.3,1.2,0.9,1.2,1.7c0.1,2.5,0,5,0,7.6c-1.2,0-2.3,0-3.5,0c0-0.5,0-1,0-1.5c0-0.6,0.1-1.2,0-1.7c0-0.3-0.2-0.6-0.4-0.7 c-0.2-0.1-0.6,0-0.8,0.2c-1.4,1.1-2.8,2.3-4.2,3.4C214.4-51,214.3-50.9,214-50.7z"></path> <path class="st0" d="M212.8-50.6c-1.5-1.2-2.8-2.3-4.2-3.4c-0.2-0.2-0.4-0.4-0.6-0.5c-0.2-0.1-0.6-0.2-0.8-0.1 c-0.2,0.1-0.4,0.5-0.4,0.7c-0.1,0.9,0,1.9,0,2.9c0,0.1,0,0.2,0,0.4c-1.2,0-2.3,0-3.5,0c0-0.2,0-0.4,0-0.6c0-2.2,0-4.4,0-6.6 c0-0.9,0.4-1.7,1.2-2.1c0.9-0.4,1.7-0.3,2.4,0.4c1.8,1.4,3.5,2.9,5.3,4.3c0.4,0.3,0.6,0.7,0.6,1.3 C212.7-52.9,212.8-51.9,212.8-50.6z"></path> <path class="st0" d="M252.7-55.4c0.6,0,1.3,0,1.9,0c0,1.3,0,2.5,0,3.8c2.3,0,4.6,0,6.9,0c0-1.3,0-2.5,0-3.8c0.7,0,1.3,0,1.9,0 c0,3.6,0,7.1,0,10.7c-0.6,0-1.2,0-1.9,0c0-1.6,0-3.2,0-4.8c-2.3,0-4.6,0-6.9,0c0,1.6,0,3.2,0,4.8c-0.7,0-1.3,0-1.9,0 C252.7-48.2,252.7-51.8,252.7-55.4z"></path> <path class="st0" d="M203.2-49.3c1.2,0,2.3,0,3.5,0c0,1,0,2,0,2.9c0,0.4,0,0.9,0.4,1c0.3,0.1,0.7-0.1,1-0.3c1.5-1.2,3-2.4,4.6-3.7 c0,0.9-0.1,1.7,0,2.4c0.2,1.3-0.3,2.1-1.4,2.8c-1.6,1.1-3.1,2.4-4.6,3.7c-0.7,0.6-1.6,0.8-2.4,0.4c-0.9-0.4-1.2-1.2-1.2-2.1 c0-2.2,0-4.3,0-6.5C203.2-48.9,203.2-49.1,203.2-49.3z"></path> <path class="st0" d="M234.1-51.3c1.8-1.4,3.6-2.7,5.4-4.1c0,3.7,0,7.2,0,10.8c-0.6,0-1.3,0-1.9,0c0-2.2,0-4.4,0-6.8 c-1.2,0.9-2.3,1.8-3.5,2.6c-1.1-0.8-2.2-1.7-3.4-2.6c0,2.3,0,4.5,0,6.8c-0.7,0-1.3,0-2,0c0-3.6,0-7.1,0-10.8 C230.6-54,232.3-52.7,234.1-51.3z"></path> <path class="st0" d="M276.3-44.6c0-3.6,0-7.2,0-10.7c0.6,0,1.2,0,1.9,0c0,2.2,0,4.4,0,6.8c1.2-0.9,2.3-1.8,3.5-2.6 c1.1,0.8,2.2,1.7,3.4,2.6c0-2.3,0-4.5,0-6.7c0.7,0,1.3,0,2,0c0,3.6,0,7.1,0,10.7c-1.8-1.4-3.6-2.7-5.4-4.1 C280-47.4,278.2-46,276.3-44.6z"></path> <path class="st0" d="M304.9-55.4c1.8,1.4,3.6,2.7,5.4,4.1c1.8-1.4,3.5-2.7,5.4-4.1c0,3.6,0,7.2,0,10.8c-0.6,0-1.2,0-1.9,0 c0-2.2,0-4.4,0-6.8c-1.2,0.9-2.3,1.8-3.5,2.6c-1.1-0.8-2.2-1.7-3.4-2.6c0,2.3,0,4.5,0,6.8c-0.7,0-1.3,0-2,0 C304.9-48.2,304.9-51.7,304.9-55.4z"></path> <path class="st0" d="M214-49.4c1.4,1.1,2.6,2.1,3.9,3.2c0.3,0.2,0.5,0.5,0.8,0.7c0.6,0.5,1.2,0.2,1.3-0.6c0.1-0.9,0-1.8,0-2.7 c0-0.2,0-0.3,0.1-0.5c1.1,0,2.3,0,3.4,0c0,0.4,0,0.8,0,1.2c0,2,0,3.9,0,5.9c0,0.9-0.3,1.7-1.2,2.1c-0.9,0.4-1.7,0.3-2.4-0.3 c-1.8-1.5-3.6-2.9-5.5-4.4c-0.2-0.2-0.4-0.4-0.4-0.6C214-46.7,214-48,214-49.4z"></path> <path class="st0" d="M289-55.4c0.6,0,1.3,0,1.9,0c0,1.8,0,3.5,0,5.4c1.2-1.1,2.2-2,3.3-2.9c0.8-0.7,1.5-1.4,2.3-2.1 c0.3-0.2,0.7-0.4,1-0.4c0.7-0.1,1.4,0,2.3,0c-1.6,1.5-3.2,2.9-4.7,4.3c1.5,2.1,3.1,4.2,4.7,6.5c-0.8,0-1.6,0-2.3,0 c-0.2,0-0.4-0.2-0.5-0.4c-1.1-1.5-2.2-3.1-3.4-4.7c-0.9,0.8-1.8,1.6-2.6,2.4c-0.1,0.1-0.1,0.4-0.1,0.6c0,0.7,0,1.4,0,2.1 c-0.7,0-1.3,0-1.9,0C289-48.2,289-51.8,289-55.4z"></path> <path class="st0" d="M246-44.6c-3.1-0.1-5.4-2.5-5.4-5.6c0.1-3,2.5-5.3,5.6-5.2c2.9,0.1,5.3,2.5,5.3,5.5 C251.5-46.9,249-44.5,246-44.6z M246.1-53.4c-1.9,0-3.5,1.5-3.5,3.4c0,1.9,1.5,3.4,3.4,3.4c1.9,0,3.5-1.5,3.5-3.5 C249.5-51.9,248-53.4,246.1-53.4z"></path> <path class="st0" d="M354-55.4c0.7,0,1.3,0,2,0c0,0.7,0,1.5,0,2.2c0,1.1,0,2.2,0,3.2c0,1.9,1.6,3.4,3.5,3.4c1.9,0,3.4-1.5,3.4-3.4 c0-1.8,0-3.5,0-5.4c0.7,0,1.3,0,1.9,0c0,2.1,0,4.2,0,6.3c0,0.1-0.1,0.2-0.1,0.3c-0.6,2.7-3.1,4.5-5.9,4.2c-2.6-0.3-4.7-2.5-4.8-5.2 C354-51.7,354-53.5,354-55.4z"></path> <path class="st0" d="M270-55.4c1.9,3.6,3.7,7.2,5.5,10.8c-0.7,0-1.4,0.1-2,0c-0.2,0-0.4-0.3-0.5-0.5c-0.3-0.7-0.7-0.9-1.5-0.9 c-1.2,0.1-2.5,0-3.7,0c-0.4,0-0.6,0.1-0.7,0.5c-0.2,0.9-0.8,1.1-1.7,1c-0.3-0.1-0.6,0-1.1,0C266.3-48.2,268.1-51.8,270-55.4z M270-51.1c-0.5,1.1-1.1,2.1-1.6,3.1c1.1,0,2.1,0,3.2,0C271-49.1,270.5-50,270-51.1z"></path> <path class="st0" d="M371.4-51.6c0.9-1.1,1.7-2.2,2.5-3.2c0.3-0.5,0.7-0.7,1.3-0.6c0.5,0.1,1,0,1.7,0c-0.6,0.8-1.1,1.4-1.6,2 c-0.7,0.9-1.3,1.8-2.1,2.6c-0.7,0.7-0.9,1.5-0.8,2.5c0.1,1.2,0,2.4,0,3.6c-0.7,0-1.3,0-2,0c0-0.7-0.1-1.5,0-2.2 c0.3-2-0.3-3.6-1.7-5c-1-1.1-1.8-2.3-2.8-3.6c0.9,0,1.6,0,2.3,0c0.2,0,0.4,0.3,0.5,0.4C369.6-53.9,370.5-52.8,371.4-51.6z"></path> </g> <g> <g> <path class="st0" d="M-176.1,57.5c-0.3,0.1-0.7,0.3-1.3,0.3c-1.5,0-2.5-0.9-2.5-2.6c0-1.6,1.1-2.7,2.7-2.7c0.6,0,1,0.1,1.2,0.2 l-0.1,0.5c-0.3-0.1-0.6-0.2-1-0.2c-1.2,0-2,0.8-2,2.1c0,1.3,0.7,2.1,2,2.1c0.4,0,0.8-0.1,1.1-0.2L-176.1,57.5z"></path> <path class="st0" d="M-172,56.1l-0.5,1.6h-0.7l1.8-5.1h0.7l1.8,5.1h-0.7l-0.6-1.6H-172z M-170.3,55.6l-0.5-1.5 c-0.1-0.3-0.2-0.6-0.3-0.9l0,0c-0.1,0.3-0.1,0.6-0.3,0.9l-0.5,1.5L-170.3,55.6L-170.3,55.6z"></path> <path class="st0" d="M-165.7,52.7c0.3-0.1,0.8-0.1,1.3-0.1c0.7,0,1.2,0.1,1.5,0.4c0.3,0.2,0.4,0.6,0.4,1c0,0.7-0.4,1.1-1,1.3v0 c0.4,0.1,0.6,0.5,0.7,1c0.1,0.7,0.3,1.2,0.4,1.4h-0.7c-0.1-0.1-0.2-0.6-0.3-1.2c-0.1-0.7-0.4-1-1-1h-0.7v2.2h-0.7V52.7z M-165.1,55h0.7c0.7,0,1.2-0.4,1.2-1c0-0.7-0.5-0.9-1.2-1c-0.3,0-0.6,0-0.6,0.1V55z"></path> <path class="st0" d="M-159.2,52.7c0.4-0.1,0.9-0.1,1.4-0.1c0.9,0,1.6,0.2,2.1,0.6c0.4,0.4,0.7,1,0.7,1.8s-0.3,1.5-0.7,2 c-0.5,0.5-1.3,0.7-2.3,0.7c-0.5,0-0.9,0-1.2-0.1C-159.2,57.7-159.2,52.7-159.2,52.7z M-158.6,57.2c0.1,0,0.4,0,0.7,0 c1.4,0,2.2-0.8,2.2-2.2c0-1.2-0.7-2-2.1-2c-0.3,0-0.6,0-0.8,0.1L-158.6,57.2L-158.6,57.2z"></path> <path class="st0" d="M-151.1,52.6v5.1h-0.7v-5.1H-151.1z"></path> <path class="st0" d="M-143.2,55.1c0,1.8-1.1,2.7-2.4,2.7c-1.3,0-2.3-1-2.3-2.6c0-1.6,1-2.7,2.4-2.7 C-144,52.5-143.2,53.6-143.2,55.1z M-147.1,55.2c0,1.1,0.6,2.1,1.6,2.1s1.6-1,1.6-2.1c0-1-0.5-2.1-1.6-2.1 C-146.6,53.1-147.1,54.1-147.1,55.2z"></path> <path class="st0" d="M-139.9,52.6h0.7v4.5h2.2v0.6h-2.8L-139.9,52.6L-139.9,52.6z"></path> <path class="st0" d="M-129.8,55.1c0,1.8-1.1,2.7-2.4,2.7c-1.3,0-2.3-1-2.3-2.6c0-1.6,1-2.7,2.4-2.7 C-130.7,52.5-129.8,53.6-129.8,55.1z M-133.8,55.2c0,1.1,0.6,2.1,1.6,2.1s1.6-1,1.6-2.1c0-1-0.5-2.1-1.6-2.1 C-133.2,53.1-133.8,54.1-133.8,55.2z"></path> <path class="st0" d="M-122.6,57.5c-0.3,0.1-0.9,0.3-1.6,0.3c-0.8,0-1.4-0.2-1.9-0.7c-0.4-0.4-0.7-1.1-0.7-1.9c0-1.5,1-2.6,2.8-2.6 c0.6,0,1,0.1,1.3,0.2l-0.1,0.5c-0.3-0.1-0.6-0.2-1.1-0.2c-1.2,0-2.1,0.8-2.1,2.1c0,1.3,0.8,2.1,2,2.1c0.4,0,0.7-0.1,0.9-0.1v-1.5 h-1V55h1.7L-122.6,57.5L-122.6,57.5z"></path> <path class="st0" d="M-118.1,57.7v-2.2l-1.6-2.9h0.7l0.7,1.4c0.2,0.4,0.3,0.7,0.5,1l0,0c0.1-0.3,0.3-0.7,0.5-1l0.7-1.4h0.7 l-1.7,2.9v2.2H-118.1z"></path> <path class="st0" d="M-105.1,57.5c-0.3,0.1-0.7,0.3-1.3,0.3c-1.5,0-2.5-0.9-2.5-2.6c0-1.6,1.1-2.7,2.7-2.7c0.6,0,1,0.1,1.2,0.2 l-0.1,0.5c-0.3-0.1-0.6-0.2-1-0.2c-1.2,0-2,0.8-2,2.1c0,1.3,0.7,2.1,2,2.1c0.4,0,0.8-0.1,1.1-0.2L-105.1,57.5z"></path> <path class="st0" d="M-99.2,55.3h-2v1.8h2.2v0.6h-2.9v-5.1h2.8v0.6h-2.1v1.6h2L-99.2,55.3L-99.2,55.3z"></path> <path class="st0" d="M-95.7,57.7v-5.1h0.7l1.6,2.6c0.4,0.6,0.7,1.2,0.9,1.7l0,0c-0.1-0.7-0.1-1.3-0.1-2.1v-2.1h0.6v5.1h-0.7 l-1.6-2.6c-0.4-0.6-0.7-1.2-1-1.7h0c0,0.6,0,1.3,0,2.1v2.2L-95.7,57.7L-95.7,57.7z"></path> <path class="st0" d="M-87.3,53.2h-1.6v-0.6h3.8v0.6h-1.6v4.5h-0.7L-87.3,53.2L-87.3,53.2z"></path> <path class="st0" d="M-79.4,55.3h-2v1.8h2.2v0.6h-2.9v-5.1h2.8v0.6h-2.1v1.6h2L-79.4,55.3L-79.4,55.3z"></path> <path class="st0" d="M-75.9,52.7c0.3-0.1,0.8-0.1,1.3-0.1c0.7,0,1.2,0.1,1.5,0.4c0.3,0.2,0.4,0.6,0.4,1c0,0.7-0.4,1.1-1,1.3v0 c0.4,0.1,0.6,0.5,0.7,1c0.1,0.7,0.3,1.2,0.4,1.4h-0.7c-0.1-0.1-0.2-0.6-0.3-1.2c-0.1-0.7-0.4-1-1-1h-0.7v2.2h-0.7V52.7z M-75.2,55 h0.7c0.7,0,1.2-0.4,1.2-1c0-0.7-0.5-0.9-1.2-1c-0.3,0-0.6,0-0.6,0.1L-75.2,55L-75.2,55z"></path> <path class="st0" d="M-69.5,56.9c0.3,0.2,0.7,0.3,1.2,0.3c0.7,0,1.1-0.4,1.1-0.9s-0.3-0.7-1-1c-0.8-0.3-1.3-0.7-1.3-1.5 c0-0.8,0.7-1.4,1.6-1.4c0.5,0,0.9,0.1,1.1,0.3l-0.2,0.5c-0.1-0.1-0.5-0.3-1-0.3c-0.7,0-1,0.4-1,0.8c0,0.5,0.3,0.7,1,1 c0.9,0.3,1.3,0.7,1.3,1.5c0,0.8-0.6,1.5-1.8,1.5c-0.5,0-1-0.1-1.3-0.3L-69.5,56.9z"></path> <path class="st0" d="M-58.5,52.6v5.1h-0.7v-5.1H-58.5z"></path> <path class="st0" d="M-55,57.7v-5.1h0.7l1.6,2.6c0.4,0.6,0.7,1.2,0.9,1.7l0,0c-0.1-0.7-0.1-1.3-0.1-2.1v-2.1h0.6v5.1h-0.7 l-1.6-2.6c-0.4-0.6-0.7-1.2-1-1.7h0c0,0.6,0,1.3,0,2.1v2.2L-55,57.7L-55,57.7z"></path> <path class="st0" d="M-44,57.5c-0.3,0.1-0.7,0.3-1.3,0.3c-1.5,0-2.5-0.9-2.5-2.6c0-1.6,1.1-2.7,2.7-2.7c0.6,0,1,0.1,1.2,0.2 l-0.1,0.5c-0.3-0.1-0.6-0.2-1-0.2c-1.2,0-2,0.8-2,2.1c0,1.3,0.7,2.1,2,2.1c0.4,0,0.8-0.1,1.1-0.2L-44,57.5z"></path> <path class="st0" d="M-41,57.3c0-0.3,0.2-0.5,0.4-0.5s0.4,0.2,0.4,0.5c0,0.3-0.2,0.5-0.4,0.5S-41,57.6-41,57.3z"></path> </g> <g> <polygon class="st0" points="-136.4,48.2 -150.8,48.2 -161.4,30.5 -166,36.1 -166,48.2 -179.6,48.2 -179.6,2.2 -166,2.2 -166,21.1 -151.9,2.4 -136.6,2.4 -152.2,22.3 "></polygon> <polygon class="st0" points="-40.4,2.5 -40.4,48.2 -53,48.2 -53,30.5 -69.2,30.5 -69.2,48.2 -81.8,48.2 -81.8,2.5 -69.2,2.5 -69.2,19.4 -53,19.4 -53,2.5 "></polygon> <polygon class="st0" points="-87.7,2.8 -87.7,48.2 -100.2,48.2 -100.2,26.8 -110.8,35.5 -121.4,26.9 -121.4,48.2 -133.9,48.2 -133.9,2.6 -110.7,20.7 "></polygon> </g> </g> <g id="Layer_2_00000114035131433610371970000011608648442928006801_"> <g id="Layer_1-2"> <polygon class="st0" points="118.5,29.2 110.4,29.2 110.4,22.2 108.2,22.2 108.2,38.2 110.4,38.2 110.4,31.3 118.5,31.3 118.5,38.2 120.7,38.2 120.7,22.2 118.5,22.2 "></polygon> <path class="st0" d="M129.1,25c-4,0-6.5,2.7-6.5,6.7V32c0,4,2.2,6.5,6.4,6.5c3.2,0,5.4-1.5,6.1-4.2h-2.4c-0.5,1.5-1.8,2.3-3.7,2.3 c-2.7,0-4.2-1.6-4.4-4.2h10.5v-1C135.3,28,133.4,25,129.1,25z M124.8,30.8c0.3-2.5,1.9-4,4.3-4s3.8,1.6,4,4H124.8z"></path> <path class="st0" d="M143.4,25c-3.6,0-5.8,2-6,4.8h2.2c0.1-1.8,1.4-3.1,3.9-3.1c2.3,0,3.3,1,3.3,2.3c0,1.2-1.3,1.4-3.5,1.7 c-2.6,0.4-3.7,0.6-4.7,1.3c-1.1,0.7-1.7,1.8-1.7,3.1c0,2.1,1.4,3.4,4.2,3.4c2.9,0,4.8-1.6,5.7-3.5l0.2,3.2h1.8l0-8.8 C148.9,26.8,147.2,25,143.4,25z M146.9,32.1c0,2.2-2.1,4.7-5,4.7c-1.7,0-2.5-0.8-2.5-2c0-0.7,0.3-1.3,0.9-1.7 c0.7-0.5,1.6-0.7,3.5-1c1.4-0.2,2.5-0.5,3.1-1V32.1z"></path> <polygon class="st0" points="151.7,29.8 151.7,38.2 153.9,38.2 153.9,29.7 153.9,21.5 151.7,21.5 "></polygon> <path class="st0" d="M160.2,22.2h-1.7c0,0.5-0.1,1.7-0.2,2.1c-0.2,0.8-0.3,1-1.1,1.1c-0.3,0.1-1.2,0.1-1.6,0.1v1.9h2.5v6 c0,3.8,0.9,5,4.4,5h1.5v-2.1h-1c-2.3,0-2.8-0.5-2.8-3.2v-5.6h3.8v-2h-3.8L160.2,22.2z"></path> <path class="st0" d="M172.9,25c-2.3,0-3.9,1.2-4.7,2.9v-6.5h-2.1v16.7h2.1v-6.8c0-2.7,1.4-4.5,3.9-4.5c2.5,0,3.5,1.7,3.5,4v7.3 h2.2v-7.8C177.9,27.1,176.2,25,172.9,25z"></path> <path class="st0" d="M13.9,29.8c1.5-0.6,2.3-1.7,2.3-3.5v0c0-2.8-2.1-4.2-6.8-4.2H2.1v16h7.7c4.5,0,6.7-1.5,6.7-4.7 C16.6,31.4,15.7,30.3,13.9,29.8z M6.6,25.5h2.8c1.7,0,2.3,0.4,2.3,1.4v0c0,1-0.7,1.4-2.2,1.4H6.6V25.5z M11.9,32.9 c0,1-0.6,1.5-2.7,1.5H6.6v-3h2.6C11.3,31.4,11.9,31.8,11.9,32.9L11.9,32.9z"></path> <path class="st0" d="M22.7,22l-6.2,16h4.6l1-2.8h6l1,2.8h4.6l-6.3-16H22.7z M23.3,31.8l1.8-5.1l1.8,5.1H23.3z"></path> <path class="st0" d="M43.2,30.5c0,2.7-0.7,3.6-2.5,3.6c-1.7,0-2.5-1-2.5-3.6V22h-4.7v8.6c0,5.4,2.3,7.8,7.2,7.8 c4.5,0,7.2-2.4,7.2-7.8V22h-4.7V30.5z"></path> <path class="st0" d="M57.9,28.1c-2.5-0.4-3.8-0.6-3.8-1.6c0-0.8,0.6-1.4,2.2-1.4c1.7,0,2.6,0.5,2.7,1.9v0h4.6v0 c-0.4-3.6-2.8-5.4-7.3-5.4c-4.4,0-6.8,2.1-6.8,5.1c0,3.4,2.5,4.3,5.7,4.8c2.7,0.4,4,0.6,4,1.8c0,0.9-0.7,1.5-2.3,1.5 c-1.9,0-2.9-0.7-3-2.2v-0.1h-4.8v0c0.3,3.8,2.2,5.9,7.7,5.9c4.7,0,7.1-2.2,7.1-5.4C63.9,29.6,61.2,28.6,57.9,28.1z"></path> <path class="st0" d="M76,31.4c-0.2,1.8-1.1,2.9-3,2.9c-2.1,0-3.2-1.2-3.2-3.8v-0.9c0-2.7,1.1-3.9,3.2-3.9c1.9,0,2.8,1,3,2.7v0.1 h4.9v-0.3c-0.3-4.4-3.3-6.6-7.8-6.6c-4.8,0-7.9,2.7-7.9,7.8v1.3c0,5.2,2.9,7.7,7.8,7.7s7.7-2.2,8-6.9v-0.3H76V31.4z"></path> <polygon class="st0" points="97.2,28 97.2,22 92.7,22 92.7,28 92.7,28 87.2,28 87.2,22 82.6,22 82.6,38 87.2,38 87.2,32.2 92.7,32.2 92.7,32.2 92.7,32.2 92.7,38 97.2,38 97.2,32.2 97.2,32.2 97.2,32.2 102.7,32.2 102.7,28 "></polygon> <rect x="92.7" y="28" class="st1" width="4.5" height="4.2"></rect> </g> </g> <g> <path id="path107" class="st0" d="M293.5,26c-1.4,0-2.1,0.8-2.1,0.8v-0.6h-1.9v8.7h1.9v-6.5c0,0,0.5-0.8,1.7-0.8 c1.3,0,1.7,0.8,1.7,2.4v5h1.9v-5C296.7,27,295.5,26,293.5,26z"></path> <path id="path109" class="st0" d="M304.9,26.2H302v1.6h1v7.2h1.9V26.2L304.9,26.2L304.9,26.2z"></path> <path id="path111" class="st0" d="M303.9,24.8c0.7,0,1.2-0.6,1.2-1.3c0-0.7-0.5-1.3-1.2-1.3s-1.2,0.6-1.2,1.3 C302.7,24.3,303.2,24.8,303.9,24.8z"></path> <path id="path113" class="st0" d="M260,26.2h-2.9v1.6h1v7.2h1.9V26.2L260,26.2L260,26.2z"></path> <path id="path115" class="st0" d="M259,24.8c0.7,0,1.2-0.6,1.2-1.3c0-0.7-0.5-1.3-1.2-1.3s-1.2,0.6-1.2,1.3 C257.7,24.3,258.3,24.8,259,24.8z"></path> <path id="path117" class="st0" d="M329,26c-1.2,0-3.9,0.8-3.9,4.6c0,3.4,2.5,4.5,3.9,4.5c2.2,0,3.2-1.7,3.2-1.7l-1.2-1.1 c0,0-0.7,1.2-2,1.2c-1.1,0-2-1.3-2-3c0-1.7,0.7-2.9,2-2.9c0.7,0,1.3,0.3,2,1l1.2-1.1C332.3,27.5,331.2,26,329,26z"></path> <path id="path119" class="st0" d="M265.8,33.5c-1.2,0-2.1-1.2-2.1-3c0-1.8,0.8-2.9,2.1-3c1.3,0,2.1,1.2,2.1,3 C267.9,32.3,267,33.5,265.8,33.5z M265.8,26c-2.4,0-4,1.9-4,4.5c0,2.7,1.6,4.6,4,4.6c2.4,0,4-1.9,4-4.6 C269.8,27.9,268.1,26,265.8,26z"></path> <path id="path121" class="st0" d="M281.9,29.7c0.2-1.3,0.7-2.1,1.8-2.1c1.5,0,1.9,1.2,2,2.1C285.4,29.7,282.1,29.7,281.9,29.7z M283.8,26c-2.4,0-3.9,1.8-3.9,4.6c0,2.7,1.6,4.5,3.9,4.5c2.1,0,3.1-1.2,3.1-1.2l-1.1-1.1c-0.6,0.5-1.3,0.7-2,0.7 c-1.1,0-1.8-0.9-2-2.2c0.2,0,5.7,0,5.7,0s0.1-0.6,0.1-0.9C287.6,27.7,286.1,26,283.8,26z"></path> <path id="path123" class="st0" d="M317.9,29.7c0.2-1.3,0.8-2.1,1.8-2.1c1.4,0,1.8,1.2,1.9,2.1H317.9z M319.9,26 c-2.4,0-3.9,1.8-3.9,4.6c0,2.6,1.6,4.5,3.9,4.5c2.1,0,3.1-1.2,3.1-1.2l-1.1-1.1c-0.6,0.5-1.3,0.7-2,0.7c-1,0-1.8-0.9-2-2.2h5.7 c0,0,0.1-0.6,0.1-0.9C323.6,27.7,322.2,26,319.9,26z"></path> <path id="path125" class="st0" d="M312.4,33.3c-0.3,0.1-0.7,0.2-1.1,0.2c-1.5,0-2.8-0.9-2.8-3c0-1.8,1.1-3,2.7-3 c0.5,0,0.8,0,1.1,0.1V33.3L312.4,33.3z M312.4,21.9v4.2c-0.3,0-0.7-0.1-1.2-0.1c-2.7,0-4.6,2-4.6,4.7c0,2.5,1.5,4.5,5,4.5 c1.1,0,2.3-0.4,2.7-0.7V21.9H312.4z"></path> <path id="path127" class="st0" d="M255.8,30.2c0-2.9-1.8-4.2-3.9-4.2c-0.7,0-1.2,0.1-1.7,0.3v-4.4h-1.9v12.5 c0.5,0.3,1.6,0.7,2.7,0.7C253.9,35.1,255.8,33.3,255.8,30.2z M253.9,30.4c0,1.7-1,3.1-2.6,3.1c-0.5,0-0.8,0-1.1-0.2v-5.4 c0.2-0.1,0.7-0.4,1.4-0.4C253.3,27.6,253.9,28.8,253.9,30.4z"></path> <path id="path129" class="st0" d="M274.8,37.7c-1.5,0-2.4-0.5-2.4-1.3c0-0.9,0.9-1.4,2.4-1.4c1.4,0,2.4,0.5,2.4,1.3 C277.2,37.2,276.3,37.7,274.8,37.7z M274.7,27.5c1,0,1.6,0.7,1.6,1.9c0,1.1-0.6,1.9-1.6,1.9c-1,0-1.6-0.7-1.6-1.9 C273.2,28.2,273.8,27.5,274.7,27.5z M274.8,33.5c-0.4,0-1.1,0.1-1.2,0.1c-0.3-0.2-0.5-0.8-0.3-1.2c0.4,0.2,1,0.3,1.5,0.3 c2.1,0,3.4-1.4,3.4-3.4c0-0.7-0.3-1.6-0.7-1.8l1.1,0.1V26c0,0-3.7,0-3.8,0c-1,0-1.8,0.3-2.4,0.9c-0.6,0.6-1,1.5-1,2.5 c0,0.9,0.3,1.6,0.7,2.2l0,0c-0.3,0.4-0.5,0.9-0.4,1.5c0,0.4,0.1,0.7,0.3,1c-1.1,0.5-1.6,1.4-1.6,2.3l0,0l0,0c0,0.8,0.4,1.5,1.2,2.1 c0.8,0.5,1.9,0.8,3.2,0.8c1.3,0,2.4-0.3,3.2-0.8c0.8-0.5,1.2-1.2,1.2-2C279.2,34.7,277.4,33.5,274.8,33.5z"></path> <g id="path131"> <polygon class="st0" points="239.8,58.1 238.8,58.1 238.8,19.5 243.3,16.5 355.4,16.5 355.4,17.5 243.6,17.5 239.8,20 "></polygon> </g> <path id="path135" class="st0" d="M343.4,40.9c0.4,0,0.7,0,0.7-0.5c0-0.4-0.3-0.4-0.6-0.4h-0.6v0.8H343.4z M342.8,42.5h-0.5v-2.9 h1.1c0.7,0,1,0.2,1,0.8c0,0.5-0.3,0.7-0.7,0.8l0.8,1.3h-0.5l-0.7-1.2h-0.5L342.8,42.5L342.8,42.5z M343.3,38.9c-1.1,0-2,0.9-2,2.1 c0,1.2,0.8,2.1,2,2.1c1.1,0,2-0.9,2-2.1C345.4,39.7,344.5,38.9,343.3,38.9z M343.3,43.6c-1.5,0-2.6-1.1-2.6-2.6 c0-1.6,1.2-2.6,2.6-2.6c1.4,0,2.6,1,2.6,2.6C345.9,42.6,344.7,43.6,343.3,43.6z"></path> <g id="path3536"> <polygon class="st0" points="334.6,42.7 223.7,42.7 223.7,41.7 334.3,41.7 338.1,39.2 338.1,1.9 339,1.9 339,39.7 "></polygon> </g> </g> </svg> 