<?xml version="1.0" encoding="UTF-8"?> <svg xmlns="http://www.w3.org/2000/svg" xmlns:xlink="http://www.w3.org/1999/xlink" version="1.1" id="Layer_1" x="0px" y="0px" viewBox="0 0 180 60" style="enable-background:new 0 0 180 60;" xml:space="preserve"> <style type="text/css"> .st0{fill:#FFFFFF;} </style> <g> <g> <path class="st0" d="M114.1,34.4c-0.5-2.5-1.5-4.6-3-6.5c-2.9-3.9-7.7-6.3-14.2-6.3c-10,0-16.2,6.8-18,14c-1.6-5.1-6-8.5-10.7-9.9 c3.5-2.5,5.3-6.2,5.3-10.3c0-3.9-1.6-7.4-4.3-9.7c-3.9-3.4-9.3-4-15.9-4c-5.1,0-7,0-12.9,0v55.9c3.7,0,7.4,0,11.1,0 c3.3,0,6.5,0,9.4-0.1c9.4-0.4,15.9-5.1,17.9-12.2c0.7,3.2,2.1,5.8,3.9,7.7c3.6,4,8.9,5.6,14.2,5.6c6.5,0,11.2-1.9,14.5-4.8 l-4.6-5.4c-2.3,1.8-5.3,2.8-8.7,2.8c-6.6,0-9.5-4.2-9.7-8.2h25.7v14.7h9.6V1.9h-9.6L114.1,34.4L114.1,34.4z M50.3,9.1H53 c2.6,0,4.6,0.3,6.1,0.8c2.9,1.1,4.3,3.4,4.3,6.3c0,2.4-0.9,6.3-6,7.3c-0.9,0.2-2.1,0.3-3.8,0.3c-2.5,0-3.2,0-3.2,0L50.3,9.1z M61.2,49.3c-1.2,0.2-2.7,0.3-3.9,0.3c-3.6,0-7,0-7,0V31.4c0,0,3.7,0,6.3,0c2,0,4.2,0.2,5.5,0.6c4.4,1.2,6.9,4.3,6.9,8.5 S66.6,48.3,61.2,49.3z M88.6,35.8c0.8-4.1,3.9-7,8.3-7s7.4,2.6,8.2,7H88.6z"></path> <rect x="130.1" y="1.9" class="st0" width="9.5" height="55.6"></rect> </g> </g> </svg> 