<?xml version="1.0" encoding="UTF-8"?> <svg xmlns:svg="http://www.w3.org/2000/svg" xmlns="http://www.w3.org/2000/svg" width="566.35028" height="254.92172" id="svg3538"><defs id="defs3540"></defs><g transform="translate(126.03229,-320.61562)" id="layer1"><path d="M 170.77654,431.30647 C 165.06274,431.30647 161.76036,434.85181 161.76036,434.85181 C 161.76036,434.85181 161.76036,432.25049 161.76036,432.25049 C 161.76036,432.25049 153.77124,432.25049 153.77124,432.25049 C 153.77124,432.25049 153.77124,468.77994 153.77124,468.77994 C 153.77124,468.77994 161.76036,468.77994 161.76036,468.77994 C 161.76036,468.77994 161.76036,441.49314 161.76036,441.49314 C 161.76036,441.49314 164.0527,437.96429 169.10691,437.96429 C 174.52802,437.96429 176.35428,441.4643 176.35428,448.01492 C 176.35428,448.01492 176.35428,468.77994 176.35428,468.77994 C 176.35428,468.77994 184.35603,468.77994 184.35603,468.77994 C 184.35603,468.77994 184.32303,448.01492 184.32303,448.01492 C 184.32303,435.52791 179.12871,431.30647 170.77654,431.30647 z" id="path107" style="fill:#2056ae;fill-opacity:1;fill-rule:nonzero;stroke:none"></path><path d="M 218.65933,432.25049 C 218.65933,432.25049 206.49797,432.25049 206.49797,432.25049 C 206.49797,432.25049 206.49797,438.80527 206.49797,438.80527 C 206.49797,438.80527 210.70702,438.80527 210.70702,438.80527 C 210.70702,438.80527 210.70702,468.77994 210.70702,468.77994 C 210.70702,468.77994 218.65933,468.77994 218.65933,468.77994 C 218.65933,468.77994 218.65933,432.25049 218.65933,432.25049 C 218.65933,432.25049 218.65933,432.25049 218.65933,432.25049 C 218.65933,432.25049 218.65933,432.25049 218.65933,432.25049 z" id="path109" style="fill:#2056ae;fill-opacity:1;fill-rule:nonzero;stroke:none"></path><path d="M 214.5698,426.47077 C 217.46382,426.47077 219.79712,424.11679 219.79712,421.18982 C 219.79712,418.27523 217.46382,415.90481 214.5698,415.90481 C 211.7129,415.90481 209.39608,418.27523 209.39608,421.18982 C 209.39608,424.11679 211.7129,426.47077 214.5698,426.47077 z" id="path111" style="fill:#2056ae;fill-opacity:1;fill-rule:nonzero;stroke:none"></path><path d="M 30.393113,432.25049 C 30.393113,432.25049 18.235879,432.25049 18.235879,432.25049 C 18.235879,432.25049 18.235879,438.80527 18.235879,438.80527 C 18.235879,438.80527 22.432326,438.80527 22.432326,438.80527 C 22.432326,438.80527 22.432326,468.77994 22.432326,468.77994 C 22.432326,468.77994 30.393113,468.77994 30.393113,468.77994 C 30.393113,468.77994 30.393113,432.25049 30.393113,432.25049 C 30.393113,432.25049 30.393113,432.25049 30.393113,432.25049 C 30.393113,432.25049 30.393113,432.25049 30.393113,432.25049 z" id="path113" style="fill:#2056ae;fill-opacity:1;fill-rule:nonzero;stroke:none"></path><path d="M 26.320101,426.47077 C 29.193448,426.47077 31.522668,424.11679 31.522668,421.18982 C 31.522668,418.27523 29.193448,415.90481 26.320101,415.90481 C 23.450807,415.90481 21.117264,418.27523 21.117264,421.18982 C 21.117264,424.11679 23.450807,426.47077 26.320101,426.47077 z" id="path115" style="fill:#2056ae;fill-opacity:1;fill-rule:nonzero;stroke:none"></path><path d="M 319.80456,431.31056 C 314.89493,431.31056 303.31894,434.54678 303.31894,450.56265 C 303.31894,464.99138 313.70766,469.53436 319.61105,469.53436 C 328.8537,469.53436 333.21945,462.54673 333.21945,462.54673 C 333.21945,462.54673 328.13228,457.95016 328.13228,457.95016 C 328.13228,457.95016 325.19706,462.83943 319.80456,462.83943 C 315.05984,462.83943 311.46503,457.37713 311.46503,450.36062 C 311.46503,443.24521 314.56924,438.07148 319.63577,438.07148 C 322.6823,438.07148 325.20912,439.37003 328.14464,442.45782 C 328.14464,442.45782 333.33073,437.8035 333.33073,437.8035 C 333.33073,437.8035 328.73824,431.31056 319.80456,431.31056 z" id="path117" style="fill:#2056ae;fill-opacity:1;fill-rule:nonzero;stroke:none"></path><path d="M 54.79829,462.83943 C 49.818344,462.83943 46.141033,457.62447 46.141033,450.43894 C 46.141033,442.87416 49.455537,438.13744 54.79829,437.97253 C 60.141076,438.13744 63.45558,442.87416 63.45558,450.43894 C 63.45558,457.62447 59.774182,462.83943 54.79829,462.83943 z M 54.79829,431.32707 C 44.929042,431.32707 38.032091,439.08145 38.032091,450.22871 C 38.032091,461.66452 44.768289,469.43956 54.79829,469.5426 C 64.840718,469.43956 71.568608,461.66452 71.568608,450.22871 C 71.568608,439.08145 64.667301,431.32707 54.79829,431.32707 z" id="path119" style="fill:#2056ae;fill-opacity:1;fill-rule:nonzero;stroke:none"></path><path d="M 122.15166,446.81941 C 122.85249,441.47666 125.26418,437.97253 129.69584,437.97253 C 135.7971,437.97253 137.56156,442.92779 137.92849,446.81941 C 137.12868,446.81941 122.98028,446.81941 122.15166,446.81941 z M 130.17405,431.3518 C 120.0121,431.3518 113.68819,438.7228 113.68819,450.58325 C 113.68819,461.85827 120.379,469.52612 129.97618,469.52612 C 138.54246,469.52612 143.18877,464.41835 143.18877,464.41835 C 143.18877,464.41835 138.69527,459.95781 138.69527,459.95781 C 136.03621,461.90774 133.07218,462.85179 130.3884,462.85179 C 125.63519,462.85179 122.77414,459.15803 121.99915,453.44427 C 122.86897,453.44427 145.7777,453.44427 145.7777,453.44427 C 145.7777,453.44427 146.03331,450.93778 146.03331,449.82474 C 146.03331,438.6074 139.80831,431.3518 130.17405,431.3518 z" id="path121" style="fill:#2056ae;fill-opacity:1;fill-rule:nonzero;stroke:none"></path><path d="M 273.4061,446.81941 C 274.21,441.26231 276.9432,437.97253 280.99152,437.97253 C 286.79184,437.97253 288.63874,442.92779 289.00975,446.81941 C 289.00975,446.81941 273.4061,446.81941 273.4061,446.81941 z M 281.44909,431.3518 C 271.27063,431.3518 264.96323,438.7228 264.96323,450.58325 C 264.96323,461.41718 271.65816,469.52612 281.23062,469.52612 C 289.81365,469.52612 294.45534,464.41835 294.45534,464.41835 C 294.45534,464.41835 289.97852,459.95781 289.97852,459.95781 C 287.30304,461.90774 284.33895,462.85179 281.65081,462.85179 C 277.42555,462.85179 274.03273,459.15803 273.27419,453.44427 C 273.27419,453.44427 297.04426,453.44427 297.04426,453.44427 C 297.04426,453.44427 297.30011,450.93778 297.30011,449.82474 C 297.30011,438.6074 291.07515,431.3518 281.44909,431.3518 z" id="path123" style="fill:#2056ae;fill-opacity:1;fill-rule:nonzero;stroke:none"></path><path d="M 250.12224,462.15508 C 249.03801,462.53846 247.26122,462.83943 245.62462,462.83943 C 239.28419,462.83943 233.92492,459.11683 233.92492,450.4101 C 233.92492,442.68453 238.49681,437.97253 245.30717,437.97253 C 247.64021,437.97253 248.8113,438.20339 250.12224,438.5868 C 250.12224,438.5868 250.12224,462.15508 250.12224,462.15508 z M 250.12224,414.10739 C 250.12224,414.10739 250.12224,431.78877 250.12224,431.78877 C 248.72056,431.55794 247.17055,431.33944 245.00181,431.33944 C 233.61575,431.33944 225.86958,439.51433 225.86958,450.8677 C 225.86958,461.16983 231.95851,469.55496 246.78302,469.55496 C 251.39198,469.55496 256.25238,467.80289 258.19819,466.69809 C 258.19819,466.69809 258.19819,414.10739 258.19819,414.10739 C 258.19819,414.10739 250.12224,414.10739 250.12224,414.10739 z" id="path125" style="fill:#2056ae;fill-opacity:1;fill-rule:nonzero;stroke:none"></path><path d="M 13.070394,449.15684 C 13.070394,437.18518 5.484977,431.32707 -3.4401887,431.32707 C -6.2228927,431.32707 -8.4449223,431.86711 -10.683432,432.62566 C -10.683432,432.62566 -10.683432,414.10739 -10.683432,414.10739 C -10.683432,414.10739 -18.755294,414.10739 -18.755294,414.10739 C -18.755294,414.10739 -18.755294,466.69809 -18.755294,466.69809 C -16.821875,467.80289 -12.14692,469.55496 -7.5379887,469.55496 C 5.0520939,469.55496 13.070394,461.98197 13.070394,449.15684 z M 5.0026862,449.77935 C 5.0026862,457.12151 0.6781444,462.83943 -5.9054744,462.83943 C -7.9254828,462.83943 -9.2982943,462.67868 -10.683432,462.14272 C -10.683432,462.14272 -10.683432,439.45662 -10.683432,439.45662 C -9.6860587,438.97841 -7.7811772,437.97253 -4.9034402,437.97253 C 2.3766482,437.97253 5.0026862,442.97726 5.0026862,449.77935 z" id="path127" style="fill:#2056ae;fill-opacity:1;fill-rule:nonzero;stroke:none"></path><path d="M 92.333657,480.43837 C 86.269443,480.43837 82.353098,478.31117 82.353098,475.02142 C 82.353098,471.46781 86.240603,469.24994 92.51501,469.24994 C 98.373115,469.24994 102.62343,471.58736 102.62343,474.81116 C 102.62343,478.32353 98.781244,480.43837 92.333657,480.43837 z M 92.313022,437.47781 C 96.447903,437.47781 99.028552,440.52849 99.028552,445.4796 C 99.028552,450.09265 96.311872,453.44427 92.572759,453.44427 C 88.458512,453.44427 86.0015,450.4101 86.0015,445.34353 C 86.0015,440.56969 88.470872,437.47781 92.313022,437.47781 z M 92.329536,462.83943 C 90.833054,462.83943 87.60102,463.20636 87.456714,463.22696 C 86.104537,462.45194 85.469701,459.77642 86.104537,458.28406 C 87.860757,458.99728 90.2971,459.70635 92.333657,459.70635 C 100.9538,459.70635 106.75412,453.93071 106.75412,445.32293 C 106.75412,442.50314 105.57509,438.8259 103.64167,437.61796 C 103.64167,437.61796 108.39079,437.91069 108.39079,437.91069 C 108.39079,437.91069 108.39079,431.22812 108.39079,431.22812 C 108.39079,431.22812 92.824221,431.21573 92.51501,431.21573 C 88.524434,431.21573 84.92142,432.56794 82.386059,435.00844 C 79.702305,437.59324 78.284172,441.20868 78.284172,445.4796 C 78.284172,449.0332 79.376647,452.28584 81.400775,454.77584 C 81.400775,454.77584 81.400775,454.77584 81.400775,454.77584 C 80.131034,456.49903 79.430242,458.65099 79.553879,460.93482 C 79.644624,462.49314 80.118438,463.92366 80.844255,465.17686 C 76.338326,467.35357 73.897829,470.88245 73.897829,474.85651 C 73.897829,474.85651 73.922583,474.84003 73.922583,474.84003 C 73.922583,474.84827 73.922583,474.84827 73.922583,474.84827 C 73.922583,478.21225 75.670495,481.25462 78.869568,483.39834 C 82.212879,485.65748 86.949669,486.85711 92.519163,486.85711 C 97.899031,486.85711 102.5492,485.69456 105.9255,483.47669 C 109.23177,481.3247 111.06215,478.31529 111.06215,474.99254 C 111.06215,467.72458 103.51797,462.83943 92.329536,462.83943 z" id="path129" style="fill:#2056ae;fill-opacity:1;fill-rule:nonzero;stroke:none"></path><path d="M -56.142876,565.72886 C -56.142876,565.72886 -56.142876,405.20722 -56.142876,405.20722 C -56.142876,405.20722 -38.759909,393.48597 -38.759909,393.48597 C -38.759909,393.48597 430.26678,393.48597 430.26678,393.48597" id="path131" style="fill:none;stroke:#2056ae;stroke-width:4.12940216;stroke-linecap:butt;stroke-linejoin:miter;stroke-miterlimit:4;stroke-dasharray:none;stroke-opacity:1"></path><path d="M 379.96825,493.6386 C 381.45673,493.6386 382.76747,493.49433 382.76747,491.74638 C 382.76747,490.28705 381.33718,490.11387 380.14167,490.11387 C 380.14167,490.11387 377.75477,490.11387 377.75477,490.11387 C 377.75477,490.11387 377.75477,493.6386 377.75477,493.6386 C 377.75477,493.6386 379.96825,493.6386 379.96825,493.6386 z M 377.75477,500.48199 C 377.75477,500.48199 375.77596,500.48199 375.77596,500.48199 C 375.77596,500.48199 375.77596,488.42779 375.77596,488.42779 C 375.77596,488.42779 380.34781,488.42779 380.34781,488.42779 C 383.25827,488.42779 384.74652,489.44604 384.74652,491.89069 C 384.74652,494.0756 383.41082,494.97842 381.60104,495.18452 C 381.60104,495.18452 384.97714,500.48199 384.97714,500.48199 C 384.97714,500.48199 382.73883,500.48199 382.73883,500.48199 C 382.73883,500.48199 379.61815,495.32883 379.61815,495.32883 C 379.61815,495.32883 377.75477,495.32883 377.75477,495.32883 C 377.75477,495.32883 377.75477,500.48199 377.75477,500.48199 z M 379.91081,485.24935 C 375.19472,485.24935 371.52156,488.95132 371.52156,494.25287 C 371.52156,499.20397 374.72472,503.2523 379.91081,503.2523 C 384.56925,503.2523 388.2421,499.57914 388.2421,494.25287 C 388.2421,488.95132 384.56925,485.24935 379.91081,485.24935 z M 379.91081,505.14451 C 373.64849,505.14451 369.19234,500.45723 369.19234,494.25287 C 369.19234,487.69812 374.14757,483.35717 379.91081,483.35717 C 385.62049,483.35717 390.57159,487.69812 390.57159,494.25287 C 390.57159,500.79937 385.62049,505.14451 379.91081,505.14451 z" id="path135" style="fill:#2056ae;fill-opacity:1;fill-rule:nonzero;stroke:none"></path><path d="M 359.81511,330.51192 C 359.81511,330.51192 359.81511,487.64669 359.81511,487.64669 C 359.81511,487.64669 342.60607,499.12062 342.60607,499.12062 C 342.60607,499.12062 -121.7275,499.12062 -121.7275,499.12062" id="path3536" style="fill:none;stroke:#2056ae;stroke-width:4.06511402;stroke-linecap:butt;stroke-linejoin:miter;stroke-miterlimit:4;stroke-dasharray:none;stroke-opacity:1"></path></g></svg> 