<?xml version="1.0" encoding="UTF-8"?> <svg xmlns="http://www.w3.org/2000/svg" xmlns:xlink="http://www.w3.org/1999/xlink" version="1.1" id="Layer_1" x="0px" y="0px" viewBox="0 0 64 64" style="enable-background:new 0 0 64 64;" xml:space="preserve"> <style type="text/css"> .st0{fill:#2684FF;} .st1{fill:url(#SVGID_1_);} </style> <g id="Layer_2_00000142160545080521632080000001466220633001822869_"> <g id="Blue" transform="translate(0 -3.13)"> <path class="st0" d="M3.2,7.4c-1.1,0-2,0.9-2,2c0,0.1,0,0.2,0,0.3l8.4,50.9c0.2,1.3,1.3,2.2,2.6,2.2h40.2c1,0,1.8-0.7,2-1.7 l8.4-51.5c0.2-1.1-0.6-2.1-1.6-2.3c-0.1,0-0.2,0-0.3,0L3.2,7.4z M38.5,44.2H25.6L22.2,26h19.4L38.5,44.2z"></path> <linearGradient id="SVGID_1_" gradientUnits="userSpaceOnUse" x1="-455.7908" y1="1099.5686" x2="-459.6164" y2="1096.5829" gradientTransform="matrix(8.0103 0 0 -8.0103 3715.4341 8838.9561)"> <stop offset="0.18" style="stop-color:#0052CC"></stop> <stop offset="1" style="stop-color:#2684FF"></stop> </linearGradient> <path class="st1" d="M60.1,26H41.6l-3.1,18.2H25.6l-15.2,18c0.5,0.4,1.1,0.6,1.7,0.7h40.2c1,0,1.8-0.7,2-1.7L60.1,26z"></path> </g> </g> </svg> 