<?xml version="1.0" encoding="UTF-8"?> <svg xmlns="http://www.w3.org/2000/svg" xmlns:xlink="http://www.w3.org/1999/xlink" version="1.1" id="Layer_1" x="0px" y="0px" viewBox="0 0 64 64" style="enable-background:new 0 0 64 64;" xml:space="preserve"> <style type="text/css"> .st0{fill-rule:evenodd;clip-rule:evenodd;fill:#FFFFFF;} .st1{fill-rule:evenodd;clip-rule:evenodd;fill:#0082FC;} </style> <g transform="matrix(.376028 0 0 .376028 4.192715 0)"> <ellipse class="st0" cx="74" cy="84.5" rx="42.9" ry="71"></ellipse> <path class="st1" d="M80,47.1l12.4,12.4L80,71.8V47.1z M80,123.1l12.4-12.4L80,98.4V123.1z M66.7,85.2l-26.8-27l7.8-7.8L69,71.8 V20.6l38.8,38.8L82.2,85.2L108,111l-38.8,38.8V98.4l-21.5,21.4l-7.8-7.8L66.7,85.2z M74,160.2c32.8,0,55.4-15.5,55.4-75.2 c0-59.5-22.6-75-55.4-75S18.5,25.5,18.5,85.2C18.5,144.7,41.1,160.2,74,160.2z"></path> </g> </svg> 