<?xml version="1.0" encoding="UTF-8"?> <svg xmlns="http://www.w3.org/2000/svg" xmlns:xlink="http://www.w3.org/1999/xlink" version="1.1" id="Layer_1" x="0px" y="0px" viewBox="0 0 64 64" style="enable-background:new 0 0 64 64;" xml:space="preserve"> <style type="text/css"> .st0{fill-rule:evenodd;clip-rule:evenodd;fill:#0072C6;} </style> <symbol id="A" viewBox="-40 -40 80 80"> <path class="st0" d="M0-40c-22.1,0-40,17.9-40,40s17.9,40,40,40S40,22.1,40,0S22.1-40,0-40z M-8.4-4.2c2.3,0,4.2,1.9,4.2,4.2 s-1.9,4.2-4.2,4.2s-4.2-1.9-4.2-4.2S-10.7-4.2-8.4-4.2z M6.7,21.8h-27.6c-1.4,0-2.5-1.1-2.5-2.5c0,0,0,0,0,0V-8.4h5v25.1H6.7V21.8 L6.7,21.8z M8.4,4.2C6.1,4.2,4.2,2.3,4.2,0s1.9-4.2,4.2-4.2s4.2,1.9,4.2,4.2S10.7,4.2,8.4,4.2z M23.4,8.4h-5v-25.1H-6.7v-5h27.6 c1.4,0,2.5,1.1,2.5,2.5c0,0,0,0,0,0L23.4,8.4L23.4,8.4z"></path> </symbol> <use xlink:href="#A" width="80" height="80" x="-40" y="-40" transform="matrix(0.7416 0 0 0.7416 32 32)" style="overflow:visible;"></use> </svg> 