<?xml version="1.0" encoding="UTF-8"?> <svg xmlns="http://www.w3.org/2000/svg" xmlns:xlink="http://www.w3.org/1999/xlink" version="1.1" id="Layer_1" x="0px" y="0px" viewBox="0 0 180 60" style="enable-background:new 0 0 180 60;" xml:space="preserve"> <style type="text/css"> .st0{fill:#AEAEAE;} .st1{fill:#FFFFFF;} </style> <path class="st0" d="M37.8,16.7l0.1,29.5h-36V16.7h9.5c1.6-3.7,8-3.3,8-3.3l0,0c0.7,0,1.1,0,1.1,0c3.2,0.3,6.3,1.1,9.1,3.3H37.8z"></path> <g> <path class="st1" d="M115.1,46.2c-1.3,0-2.6,0-3.9,0c-0.4-6.6-0.7-13.2-1.1-19.7c0,0.3-0.1,0.7-0.2,1.2c-0.5,2.9-1,5.8-1.6,8.6 c-0.6,2.9-1.1,5.9-1.7,8.8c-0.2,1.1-0.2,1.1-1.3,1.1c-0.4,0-0.9,0-1.3,0c-0.3,0-0.3-0.1-0.4-0.3c-0.6-2.7-1.1-5.3-1.7-8 c-0.4-2.2-0.9-4.3-1.3-6.5c-0.3-1.5-0.5-3-0.7-4.6c0-0.1-0.1-0.3-0.1-0.4c-0.4,6.6-0.7,13.2-1.1,19.8c-1.3,0-2.5,0-3.8,0 c0.8-9.9,1.6-19.7,2.4-29.6c1.2,0,2.3,0,3.5,0c1.4,6.9,3.2,13.7,4.1,20.7c1.3-6.8,2.6-13.7,3.9-20.7c1.2,0,2.4,0,3.6,0 C113.3,26.5,114.2,36.3,115.1,46.2z"></path> <path class="st1" d="M164.3,16.6c1.2,0,2.4,0,3.5,0c0.1,0,0.3,0.2,0.3,0.3c0.6,1.8,1.2,3.6,1.8,5.4c1.1,3.3,2.2,6.7,3.3,10.1 c0.5,1.7,0.9,3.4,1.4,5.1c0,0.1,0.1,0.2,0.1,0.3c-0.1-0.7-0.2-1.5-0.2-2.2c-0.1-1.3-0.3-2.6-0.4-4c-0.3-4.9-0.1-9.8-0.2-14.7 c0-0.2,0-0.3,0-0.5c1.4,0,2.7,0,4,0c0,9.9,0,19.7,0,29.6c-0.6,0-1.2,0-1.8,0c-0.5,0-1,0-1.5,0c-0.3,0-0.5-0.1-0.6-0.4 c-0.8-2.4-1.6-4.7-2.4-7.1c-0.9-2.8-1.9-5.5-2.7-8.3c-0.6-2-1.1-4-1.6-6c0.7,7.3,0.6,14.5,0.8,21.8c-1.3,0-2.6,0-4,0 C164.3,36.4,164.3,26.5,164.3,16.6z"></path> <path class="st1" d="M161.2,31.7c-0.1,2.4-0.1,4.8-0.5,7.2c-0.3,1.8-0.7,3.6-1.8,5.1c-1.1,1.6-2.7,2.3-4.6,2.5 c-1.2,0.1-2.5,0-3.6-0.4c-1.9-0.7-3.1-2.2-3.8-4.1c-0.7-1.8-0.9-3.8-1.1-5.7c-0.3-2.8-0.3-5.6-0.1-8.5c0.1-2.3,0.3-4.6,1-6.8 c0.5-1.7,1.4-3.1,2.9-4c1.4-0.8,2.9-1,4.5-0.8c1.1,0.1,2.1,0.4,3,0.9c1.4,0.8,2.2,2.2,2.7,3.6c0.6,1.7,0.9,3.4,1,5.2 C161,27.9,161.1,29.8,161.2,31.7z M149.8,30.9c0.1,2.5,0.2,4.7,0.4,6.8c0.1,1.1,0.3,2.2,0.6,3.3c0.8,2.3,3.1,2.3,4.3,1.4 c0.6-0.5,1-1.2,1.2-2c0.5-1.7,0.6-3.4,0.6-5.1c0.1-3.9,0.1-7.7-0.4-11.5c-0.1-0.9-0.3-1.7-0.7-2.5c-0.5-0.9-1.3-1.4-2.3-1.4 c-1.1,0-2,0.4-2.4,1.4c-0.3,0.7-0.6,1.5-0.7,2.3C150.1,26.1,149.9,28.7,149.8,30.9z"></path> <path class="st1" d="M46.6,16.6c1.4,0,2.8,0,4.3,0c0.8,0,1.5,0,2.3,0.1c2.5,0.3,4.1,1.7,4.8,4.1c0.5,1.6,0.6,3.3,0.4,5 c-0.1,0.7-0.1,1.3-0.3,1.9c-0.3,1.6-1.4,2.6-2.8,3.2C55.1,31,55,31,54.8,31.1c0.3,0.2,0.6,0.3,0.9,0.5c1.6,0.8,2.6,2.1,2.9,3.9 c0.4,2.2,0.3,4.4-0.4,6.6c-0.8,2.3-2.4,3.7-4.8,4c-1,0.1-2.1,0.1-3.1,0.2c-1.2,0-2.5,0-3.8,0C46.6,36.4,46.6,26.5,46.6,16.6z M50.4,32.8c0,3.3,0,6.6,0,10c0.5,0,0.9-0.1,1.3-0.1c1.4-0.2,2.3-0.9,2.7-2.3c0.4-1.5,0.4-3.1,0.1-4.6c-0.1-0.7-0.4-1.3-0.9-1.8 C52.8,33,51.6,32.9,50.4,32.8z M50.4,29.6c0.2,0,0.5,0,0.7,0c1.8-0.1,2.7-0.8,3.1-2.4c0.3-1.2,0.3-2.4,0.2-3.6 c0-0.8-0.2-1.5-0.6-2.2c-0.7-1.2-2-1.7-3.4-1.5C50.4,23.1,50.4,26.3,50.4,29.6z"></path> <path class="st1" d="M70.2,31.9c1.8,4.8,3.6,9.5,5.4,14.4c-1.4,0-2.7,0-3.9,0c-0.1,0-0.3-0.2-0.3-0.4c-0.9-2.4-1.8-4.9-2.7-7.3 c-0.8-2.1-1.5-4.1-2.3-6.2c0-0.1-0.1-0.2-0.2-0.3c0,4.7,0,9.4,0,14.1c-1.4,0-2.7,0-4,0c0-9.9,0-19.7,0-29.6c0.1,0,0.3,0,0.4,0 c1.8,0,3.6-0.1,5.4,0c0.9,0,1.8,0.2,2.7,0.5c1.7,0.6,2.7,2,3.2,3.6c0.6,1.9,0.6,3.8,0.3,5.7c-0.2,1.3-0.5,2.4-1.3,3.5 c-0.6,0.9-1.4,1.4-2.3,1.8C70.4,31.8,70.3,31.8,70.2,31.9C70.2,31.8,70.2,31.8,70.2,31.9z M66.1,29.7c0.4,0,0.8-0.1,1.2-0.1 c1.6-0.2,2.5-1,2.8-2.5c0.3-1.6,0.3-3.1-0.1-4.7c-0.5-2-1.9-2.7-3.9-2.4C66.1,23.2,66.1,26.4,66.1,29.7z"></path> <path class="st1" d="M83.5,16.6c1,0,2,0,3,0c0.1,0,0.2,0.2,0.3,0.3c0.4,1.8,0.8,3.6,1.2,5.4c0.6,2.9,1.2,5.8,1.9,8.7 c0.8,3.6,1.5,7.1,2.3,10.7c0.3,1.4,0.6,2.8,0.9,4.2c0,0.1,0,0.3,0.1,0.4c-1.3,0-2.6,0-4,0c-0.4-1.9-0.7-3.8-1.1-5.8 c-0.9,0-1.7,0-2.6,0c-1,0-1.9,0-2.9,0c-0.2,0-0.3,0.1-0.4,0.3c-0.3,1.7-0.7,3.5-1,5.2c0,0.1-0.1,0.2-0.1,0.3c-1.3,0-2.5,0-3.9,0 C79.2,36.3,81.3,26.5,83.5,16.6z M87.3,37.3c-0.9-4.8-1.8-9.5-2.2-14.2c-0.8,4.7-1.6,9.4-2.4,14.2C84.2,37.3,85.7,37.3,87.3,37.3z"></path> <path class="st1" d="M117.7,16.5c2.3,0,4.6,0,6.9,0.2c3,0.3,4.6,1.9,5.3,4.8c0.5,2.4,0.5,4.8-0.2,7.2c-0.8,2.5-2.5,3.9-5.1,4.2 c-0.8,0.1-1.6,0.1-2.4,0.2c-0.3,0-0.4,0.1-0.4,0.4c0,4,0,8.1,0,12.1c0,0.2,0,0.4,0,0.6c-1.4,0-2.7,0-4,0 C117.7,36.4,117.7,26.5,117.7,16.5z M121.7,20c0,3.2,0,6.4,0,9.6c0.5,0,0.9-0.1,1.4-0.1c1.6-0.2,2.4-0.9,2.7-2.4 c0.3-1.2,0.3-2.5,0.1-3.8c-0.1-0.7-0.3-1.5-0.8-2.1C124.2,20.1,123,19.9,121.7,20z"></path> <path class="st1" d="M27.1,35.7c1-1,1.7-2.1,2.1-3.4c0.5-1.5,0.5-3.1,0.3-4.7c-0.1-0.8-0.2-1.7-0.3-2.5c0-0.2,0-0.4,0.2-0.5 c0.8-0.8,1.5-1.6,1.8-2.8c0.4-1.8-0.1-3.4-1.3-4.9c-0.1-0.1-0.2-0.2-0.3-0.3c2.8,0,5.5,0,8.2,0c0,0.2,0,0.4,0,0.6 c0,2.6,0,5.2,0,7.8c0,1.2-0.1,2.3-0.3,3.5c-0.2,1.5-1,2.7-2.1,3.7c-1.6,1.6-3.3,3.1-5,4.6c-2.6,2.4-4.2,5.5-4.5,9 c0,0.3-0.1,0.4-0.4,0.4c-1.6,0-3.2,0-4.8,0c-0.1,0-0.2,0-0.4,0c0-1.3,0-2.6,0-4c0.9-0.2,1.5-0.8,2.1-1.6c0.5-0.6,1.1-1.1,1.8-1.4 c0.7-0.3,1.3-0.7,1.8-1.3c0.6-0.6,1.1-1.2,1.7-1.8C27.6,36,27.3,35.9,27.1,35.7z"></path> <path class="st1" d="M12.8,36.1c-0.3,0.1-0.6,0.2-0.9,0.4c0.1,0.1,0.2,0.1,0.2,0.2c1.5,0.6,2.7,1.6,3.7,2.8 c0.5,0.5,0.9,1.1,1.4,1.5c0.5,0.5,1.1,0.8,1.6,1.2c0.1,0.1,0.2,0.2,0.2,0.2c0,1.3,0,2.5,0,3.8c-1.8,0-3.5,0-5.3,0 c-0.1-0.8-0.3-1.5-0.4-2.3c-0.5-3.1-2.2-5.5-4.5-7.5c-1.4-1.2-2.9-2.4-4.3-3.7c-0.7-0.7-1.3-1.5-1.9-2.3c-0.5-0.7-0.7-1.6-0.7-2.5 c0-3.7,0-7.4,0-11.1c0,0,0-0.1,0-0.2c3.2,0,6.4,0,9.6,0c-0.1,0.2-0.2,0.3-0.2,0.5c-0.5,1.2-0.8,2.5-0.9,3.8c0,0.2-0.1,0.5-0.3,0.7 c-1,1.3-1.5,2.8-1.7,4.4c-0.3,3,0.7,5.6,2.5,7.9C11.6,34.6,12.2,35.3,12.8,36.1z"></path> <path class="st1" d="M131.5,20.1c0-1.2,0-2.3,0-3.5c4.3,0,8.7,0,13,0c0,1.1,0,2.3,0,3.5c-1.5,0-2.9,0-4.4,0c0,8.7,0,17.4,0,26.1 c-1.3,0-2.6,0-4,0c0-8.7,0-17.4,0-26.1C134.5,20.1,133,20.1,131.5,20.1z"></path> <path class="st1" d="M28,25.4c0.6,2.7,0.8,5.3-0.4,7.8c-0.9,1.9-2.5,3-4.5,3.3c-0.3,0.1-0.7,0-1,0c-0.4-0.1-0.6-0.3-0.4-0.7 c0.2-0.5,0.5-1,0.9-1.5c0.4-0.6,0.9-1.1,1.4-1.8c-1.1-0.3-2.2-0.5-3.3,0C19.6,33,19,33.9,18.5,35c-0.7-1.3-1.4-2.5-1.3-4 c0.1-1.2,0.7-2.1,1.8-2.6c0.9-0.4,1.9-0.7,2.8-1c2-0.6,3.9-1.2,5.9-1.8C27.8,25.5,27.9,25.5,28,25.4z"></path> <path class="st1" d="M15.7,35.4c-0.6,0-1.1,0.1-1.6,0.1c-0.1,0-0.2,0-0.3-0.1c-1.2-1.3-2.4-2.6-3.2-4.2c-1.4-2.9-1.3-5.7,0.3-8.5 c0.4-0.7,0.6-1.4,0.7-2.2c0.3-2.1,1-3.9,2.6-5.3c1.4-1.2,3.1-1.7,4.9-1.8c1.7-0.1,3.4,0.3,5,1c0.1,0,0.1,0.1,0.2,0.1 c-0.7,0.1-1.5,0-2.1,0.3c-1,0.4-2.1,0.2-3.1,0.1c-2.6-0.1-4.8,1.8-5.1,4.4c-0.2,1.9,0.1,3.7,0.5,5.5c0.2,0.8,0.4,1.5,0.6,2.3 c0,0.1,0,0.3,0,0.4c-1.3,2-1.1,4.1-0.1,6.2C15.1,34.3,15.4,34.9,15.7,35.4z"></path> <path class="st1" d="M22.9,15.6c0.9-0.2,1.7-0.3,2.5-0.1c1.7,0.3,3,1.1,4.1,2.5c1.2,1.6,1,4.5-1,5.9c-1.5,0.9-3.1,1.5-4.7,2 c-1.5,0.4-2.9,0.8-4.4,1.3c-1.1,0.3-2,0.9-2.6,1.8c-0.8,1.1-0.8,2.3-0.6,3.6c0.2,1.3,0.9,2.3,1.7,3.4c0.1,0.2,0.1,0.4,0.2,0.6 c-0.1,0-0.2,0-0.2,0c-1.4-1.6-2.5-3.4-2.6-5.5c-0.1-1.4,0.4-2.7,1.5-3.5c1.4-1,2.9-1.9,4.3-2.9c1.1-0.7,2.3-1.3,3.2-2.3 c1.6-1.6,2-4.9-1.1-6.4C23.2,15.7,23.1,15.6,22.9,15.6z"></path> <path class="st1" d="M27.4,46.2c0.2-0.8,0.3-1.6,0.5-2.4c0.7-2.9,2.4-5.2,4.7-7.1c1.8-1.5,3.5-3.1,5.1-4.9c0,0,0.1,0,0.1-0.1 c0,0.1,0.1,0.1,0.1,0.2c0,1.5,0,3.1,0,4.6c0,0.2-0.2,0.3-0.3,0.5c-1.2,1-2.5,1.9-3.7,3c-1.8,1.5-2.7,3.5-3,5.8 c0,0.4-0.2,0.5-0.5,0.5C29.3,46.2,28.4,46.2,27.4,46.2z"></path> <path class="st1" d="M1.9,31.7c1.4,2.1,3.2,3.5,5.1,5c1.7,1.4,3.2,2.9,4.2,4.8c0.6,1.2,0.9,2.5,1.1,3.8c0,0.3,0.1,0.6,0.1,0.9 c-1.1,0-2.2,0-3.3,0c-0.2-0.9-0.3-1.7-0.5-2.5c-0.5-1.7-1.7-3-3-4.1c-1.1-0.9-2.2-1.8-3.4-2.7c-0.2-0.2-0.3-0.4-0.3-0.6 C1.9,34.8,1.9,33.3,1.9,31.7z"></path> <path class="st1" d="M37.9,38.4c0,2.6,0,5.2,0,7.8c-1.9,0-3.8,0-5.8,0c0.3-2,0.8-3.9,2.4-5.3c1-0.8,2-1.6,3-2.3 C37.7,38.5,37.8,38.5,37.9,38.4z"></path> <path class="st1" d="M1.9,38.3c1.5,1.2,3,2.1,4.2,3.5c1,1.2,1.4,2.6,1.5,4.1c0,0.1-0.1,0.2-0.2,0.2c-1.8,0-3.7,0-5.5,0 C1.9,43.6,1.9,41,1.9,38.3z"></path> <path class="st1" d="M14.1,36.5c1.7-0.4,3.2,0.5,4.7,1.1c0-0.2,0.1-0.3,0.1-0.5c0.1-1.3,0.5-2.4,1.5-3.3c0.5-0.4,1.3-0.7,2-0.6 c-0.2,0.2-0.5,0.4-0.7,0.6c-0.5,0.5-1,1-1.2,1.7c-0.3,1.1,0.2,2,1.4,2.2c0.8,0.1,1.6-0.1,2.3-0.4c0.6-0.2,1.2-0.5,1.7-0.8 c0.1-0.1,0.3-0.1,0.4-0.1c-1.1,0.7-1.9,1.8-3.1,2.3c-0.6,0.2-1,0.6-1.3,1.1c-0.2,0.3-0.4,0.6-0.6,0.8c-0.7,0.8-1.5,0.9-2.4,0.4 c-0.3-0.2-0.7-0.4-0.9-0.7c-0.6-0.6-1.2-1.3-1.8-1.9C15.5,37.6,14.8,37.1,14.1,36.5z"></path> <path class="st1" d="M17.8,20.7c0.8-1.5,1.5-3,2.8-4.1c0.5-0.4,1-0.6,1.6-0.2c0.4,0.3,0.9,0.6,1.3,1c0.7,0.7,1.1,1.5,0.7,2.5 c-0.4,1.1-1.1,1.8-2.2,1.9c-1.1,0.2-2.2-0.1-3.2-0.6C18.5,21.1,18.2,20.9,17.8,20.7z"></path> <path class="st1" d="M21.2,22.9c-1.7,1.1-3.4,2.2-5,3.3c-0.9-1.6-1.4-5.6-1-6.9c1,2.4,3,3.3,5.5,3.6C20.8,22.9,20.9,22.9,21.2,22.9 z"></path> <path class="st1" d="M19.8,15.8c-1.5,1-2.3,2.4-2.9,4c-0.6-0.6-0.7-1.8-0.3-2.7C17.1,16.1,18.2,15.7,19.8,15.8z"></path> </g> </svg> 