<?xml version="1.0" encoding="UTF-8"?> <svg xmlns="http://www.w3.org/2000/svg" width="64" height="64" viewBox="0 0 64 64" fill="none"><g clip-path="url(#clip0_1373_28185)"><path d="M12.3641 31.5686V9.9812H52.6359V19.3619V26.0737" stroke="white" stroke-miterlimit="10"></path><path d="M12.3641 40.1448V53.0188H52.6359V41.8914V30.8818" stroke="white" stroke-miterlimit="10"></path><path d="M41.0874 36.4945V26.6231L32.5 21.6973L23.8929 26.6231V36.4945L32.5 41.4203L41.0874 36.4945Z" stroke="black" stroke-miterlimit="10"></path><path d="M41.0874 36.4945V26.6231L32.5 21.6973L23.8929 26.6231V36.4945L32.5 41.4203L41.0874 36.4945Z" stroke="url(#paint0_linear_1373_28185)" stroke-miterlimit="10"></path><path d="M23.8929 26.6233L32.5 31.5688L41.0874 26.6233" stroke="black" stroke-miterlimit="10"></path><path d="M23.8929 26.6233L32.5 31.5688L41.0874 26.6233" stroke="url(#paint1_linear_1373_28185)" stroke-miterlimit="10"></path><path d="M16.2925 24.4841L32.5 15.1819L61.0259 31.5687L52.4977 36.4553" stroke="white" stroke-miterlimit="10"></path><path d="M48.7667 38.5944L32.5 47.9359L3.97412 31.5687L12.3641 26.741" stroke="white" stroke-miterlimit="10"></path><path d="M32.5 30.7249V41.4204" stroke="black" stroke-miterlimit="10"></path><path d="M32.5 30.7249V41.4204" stroke="url(#paint2_linear_1373_28185)" stroke-miterlimit="10"></path></g><defs><linearGradient id="paint0_linear_1373_28185" x1="29.6479" y1="28.4446" x2="49.6095" y2="43.5803" gradientUnits="userSpaceOnUse"><stop offset="0.236106" stop-color="#DA291C"></stop><stop offset="1" stop-color="#FFCD00"></stop></linearGradient><linearGradient id="paint1_linear_1373_28185" x1="29.6479" y1="28.3152" x2="32.747" y2="37.6867" gradientUnits="userSpaceOnUse"><stop offset="0.236106" stop-color="#DA291C"></stop><stop offset="1" stop-color="#FFCD00"></stop></linearGradient><linearGradient id="paint2_linear_1373_28185" x1="32.8347" y1="34.3839" x2="34.6511" y2="34.5316" gradientUnits="userSpaceOnUse"><stop offset="0.236106" stop-color="#DA291C"></stop><stop offset="1" stop-color="#FFCD00"></stop></linearGradient><clipPath id="clip0_1373_28185"><rect width="61" height="45" fill="white" transform="translate(2 9)"></rect></clipPath></defs></svg> 