<?xml version="1.0" encoding="UTF-8"?> <svg xmlns="http://www.w3.org/2000/svg" xmlns:xlink="http://www.w3.org/1999/xlink" version="1.1" id="Layer_1" x="0px" y="0px" viewBox="0 0 64 64" style="enable-background:new 0 0 64 64;" xml:space="preserve"> <style type="text/css"> .st0{fill-rule:evenodd;clip-rule:evenodd;fill:#0078D7;} </style> <symbol id="A" viewBox="-35 -40 70 80"> <path class="st0" d="M-25.7-30.8c0-2.7,8.6-4.9,19.2-4.9s19.2,2.2,19.2,4.9c0,2.7-8.6,4.9-19.2,4.9S-25.7-28.1-25.7-30.8z M-8.5,35.1v-47.4c0-5.9,9-8.6,22.1-8.6c3,0,5.9,0.2,8.6,0.6v-10.6c0-5.1-12.8-9.2-28.6-9.2S-35-35.9-35-30.8v61.1 c0,5.1,12.8,9.2,28.6,9.2h1.9C-7,38.1-8.5,36.7-8.5,35.1L-8.5,35.1z M14.4-5.8C6.8-5.8,0.5-7.4,0.5-9.3s6.3-3.5,13.9-3.5 s13.9,1.6,13.9,3.5S22.2-5.8,14.4-5.8z M26.6,14L1.3,35.5L11,18.9H2.4L27.8-2.7L18,14L26.6,14L26.6,14z M14.4-17.1 c-11.2,0-19.8,2.9-19.8,6.5v43.8c0,3.7,8.4,6.8,19.8,6.8C25.7,40,35,37.1,35,33.3v-43.8C35-14.2,25.9-17.1,14.4-17.1z"></path> </symbol> <g> <use xlink:href="#A" width="70" height="80" x="-35" y="-40" transform="matrix(0.7669 0 0 0.7669 32 32)" style="overflow:visible;"></use> </g> </svg> 