<?xml version="1.0" encoding="UTF-8"?> <svg xmlns="http://www.w3.org/2000/svg" version="1.2" viewBox="0 0 188 167" width="146" height="130"><title>Canadian Tire-svg</title><style> .s0 { fill: #ffffff } .s1 { fill: none;stroke: #ffffff;stroke-width: .1 } .s2 { fill: #000000 } .s3 { fill: none;stroke: #000000;stroke-width: .1 } .s4 { fill: #ed1b2d } .s5 { fill: none;stroke: #ed1b2d;stroke-width: .1 } .s6 { fill: #009d57 } .s7 { fill: none;stroke: #009d57;stroke-width: .5 } </style><path id="Layer" class="s0" d="m76.5 24.2l-8.7-2.2 3.3 8.7h-2.5l-4.5-11.9 11.1 2.8 3.6-6.7 1.2 1.3-2.3-10.9 9.9 5.9 6.5-12.2 6.6 12.2 9.8-5.8-2.1 10.7 1-1.2 3.6 6.7 11.1-2.8-4.4 11.9h-2.5l3.3-8.7-8.7 2.2-2.8-5.3-4 4.7-0.7 0.8 2.9-14.5-7.4 4.4-5.7-10.5-5.5 10.6-7.6-4.5 3.1 14.6-4.7-5.6"></path><path id="Layer" class="s0" d="m9.3 28.4h170c7.9 0.3 11.8 8.5 7.6 14.8l-5 6.9-73.6 105-6.6 9.2c-3.9 5.1-11.3 5-15.1-0.1l-6.7-9.5-73.4-104.3-5-7.4c-3.9-6.4 0.4-14.6 7.8-14.6z"></path><path id="Layer" class="s1" d="m9.3 28.4h170c7.9 0.3 11.8 8.5 7.6 14.8l-5 6.9-73.6 105-6.6 9.2c-3.9 5.1-11.3 5-15.1-0.1l-6.7-9.5-73.4-104.3-5-7.4c-3.9-6.4 0.4-14.6 7.8-14.6z"></path><path id="Layer" class="s2" d="m9.4 30.7h169.9c5.6 0.1 9 6.1 5.6 11.1l-4.6 6.7-74.1 105.4-6.3 8.8c-2.9 4.1-8.7 4.1-11.6 0l-6.3-9.1-73.6-104.5-4.7-7.1c-3.5-5.2 0.1-11.3 5.7-11.3z"></path><path id="Layer" class="s3" d="m9.4 30.7h169.9c5.6 0.1 9 6.1 5.6 11.1l-4.6 6.7-74.1 105.4-6.3 8.8c-2.9 4.1-8.7 4.1-11.6 0l-6.3-9.1-73.6-104.5-4.7-7.1c-3.5-5.2 0.1-11.3 5.7-11.3z"></path><path id="Layer" class="s0" d="m9.4 33.1h170c3.8 0 5.7 4.2 3.8 7.1l-4.6 6.5-74.5 106-6.1 8.7c-2.1 2.7-5.4 2.6-7.6 0l-6.2-9-74-105-4.6-6.9c-2-2.7-0.7-7.3 3.8-7.4z"></path><path id="Layer" class="s1" d="m9.4 33.1h170c3.8 0 5.7 4.2 3.8 7.1l-4.6 6.5-74.5 106-6.1 8.7c-2.1 2.7-5.4 2.6-7.6 0l-6.2-9-74-105-4.6-6.9c-2-2.7-0.7-7.3 3.8-7.4z"></path><path id="Layer" class="s4" d="m9.3 35.5h170.1c1.8 0 2.5 2.2 1.8 3.3l-4.3 6.2-75 106.8-5.9 8.2c-0.8 1.2-2.7 1.1-3.5 0l-5.9-8.4-74.7-106-4.3-6.5c-1-1.5 0-3.6 1.7-3.6z"></path><path id="Layer" class="s5" d="m9.3 35.5h170.1c1.8 0 2.5 2.2 1.8 3.3l-4.3 6.2-75 106.8-5.9 8.2c-0.8 1.2-2.7 1.1-3.5 0l-5.9-8.4-74.7-106-4.3-6.5c-1-1.5 0-3.6 1.7-3.6z"></path><path id="Layer" fill-rule="evenodd" class="s0" d="m146 67.6v16.4h-3.8v-15c0-0.9-0.8-1-1-1h-2.7c-0.7 0-0.8 0.8-0.8 0.8v15.2h-3.9v-17.6c0-1.3-0.8-1.6-0.8-1.6h4c0.8 0.8 0.7 1.5 0.7 1.9 0.1-1.3 1.4-1.9 2.3-1.9h3c2.8 0 3 2.5 3 2.8zm-14.9 0.4v16h-3.9v-5.6h-4.4v5.6h-3.8v-16c0-1.8 1.5-3.2 3.2-3.2h5.8c1.9 0 3.1 1.4 3.1 3.2zm-3.9 0.7c0-0.7-0.6-0.7-0.8-0.7h-2.9c0.2 0-0.7 0-0.7 0.7v6.4h4.4zm-15.2-3.9h4v19.2h-4zm-1.9 26.4h5.6v3.2h-4.1c-0.7 0-0.8 0.5-0.8 0.8v3.7h4.8v3.2h-4.8v4.5c0 0.3 0.3 0.6 0.8 0.6h4.1v3.2h-5.7c-1.7 0-3.1-1.4-3.1-3.1v-13.3c0-1.6 1.5-2.8 3.2-2.8zm-4.2-7.2h-8.7v-19.2h8.7c1.8 0 3.5 1 3.5 2.9v13.1c0 1.8-1.7 3.2-3.5 3.2zm-0.5-12.4v-2.7c0-0.4 0-0.9-0.8-0.9h-3.5v12.8h3.5c0.6 0 0.8-0.5 0.8-0.9zm-0.3 38.8h-4.3c-0.1 0-0.6-0.3-0.6-1.9v-3.9c0-0.8-0.6-1.1-0.9-1.1l-3.5-0.1v7h-3.8v-19.2h8.7c1.8 0 3.4 1.2 3.4 3.1v4.8c0 1.6-0.9 2.9-2.5 3.1 1.6 0.2 2.5 1.1 2.5 2.3v4.2c0.1 1.5 1.1 1.7 1 1.7zm-4.9-15.1c0-0.4-0.6-0.9-0.9-0.9h-3.5v5.7h3.6c0.5 0 0.8-0.5 0.8-0.8zm-9.6-11.3v-5.5h-4.4v5.5h-3.9v-16c0-1.7 1.5-3.2 3.4-3.2h5.6c2 0 3.1 1.4 3.1 3.2v16zm0-8.8v-6.4c0-0.7-0.6-0.8-0.7-0.8h-3c0.2 0-0.6 0-0.6 0.8v6.4zm-5.5 16h4v19.2h-4zm-13.1 0h11.5v3.2h-3.8v16h-3.8v-16h-3.9zm2.6-23.2h-2.7c-0.7 0-0.7 0.9-0.7 0.9v15.1h-3.9v-17.5c0-1.4-0.8-1.7-0.8-1.7h3.9c0.8 0.8 0.8 1.6 0.8 1.9 0-1.2 1.3-1.9 2.2-1.9h3c3 0 3.1 2.9 3.1 2.9v16.3h-3.9v-15c0-0.8-0.7-1-1-1zm4.9-0.3q0 0 0 0zm-14.9 0.4v16h-3.9v-5.6h-4.4v5.6h-3.9v-16c0-1.8 1.5-3.2 3.3-3.2h5.7c1.9 0 3.2 1.4 3.2 3.2zm-3.9 0.7c0-0.7-0.6-0.7-0.8-0.7h-2.9c0.1 0-0.7 0-0.7 0.7v6.4h4.4zm-15.9-3.9h5.6v3.2h-4.1c-0.6 0-0.8 0.5-0.8 0.7v11.5c0 0 0.5 0.6 0.7 0.6h4.2v3.2h-5.8c-1.6 0-3-1.4-3-3.1v-13.2c0-1.7 1.5-2.9 3.2-2.9zm101.2 2.9q0 0.1 0 0z"></path><path id="Layer" class="s2" d="m120.4 35.9l-12.1 9.5 3.9 7.1-14.7-2.4v4.8h-6.8v-4.8l-14.7 2.4 4-7.1-12.2-9.6 3.8-3.7-0.6-1.6-3.2-8.5 8.7 2.2 2.9-5.3 4.7 5.6-3.1-14.6 7.6 4.5 5.5-10.5 5.6 10.5 0.1-0.1 7.4-4.4-2.9 14.5 0.6-0.8 4.1-4.7 2.8 5.3 8.7-2.2-3.2 8.5-0.6 1.6"></path><path id="Layer" class="s2" d="m108.1 45.6l3.7 6.5-14.2-2.3h-0.3v4.9h-6.3v-4.9h-0.3l-14.2 2.4 3.7-6.6 0.1-0.2-0.1-0.2-12-9.4 3.6-3.5 0.1-0.1-0.1-0.2-0.5-1.6-3.1-8 8.2 2 0.2 0.1 0.1-0.2 2.7-5 4.5 5.3 0.1 0.1 0.6 0.7-0.2-0.9-3-14.1 7 4.2 0.2 0.1 0.2-0.2 5.3-10.1 5.4 10.1 0.1 0.2 0.2-0.1 0.1-0.1 7-4.1-2.9 14-0.1 0.9c0 0 0.6-0.7 0.6-0.7l0.6-0.8 3.8-4.5 2.7 5 0.1 0.2 0.2-0.1 8.2-2-3 8-0.6 1.6v0.2l0.1 0.1 3.5 3.6-11.9 9.3-0.2 0.2"></path><path id="Layer" class="s6" d="m96.5 47.8c-0.8-0.1-1 0.1-1 0.8v4.3h-2.7v-4.3c0-0.6-0.1-0.9-0.9-0.8l-12 2 1.9-3.3c0.5-0.8 0.5-2-0.3-2.5l-10.5-8.3 2.1-2.2c0.6-0.4 0.7-1.4 0.3-2.3l-0.3-0.7-2-5.6 5.1 1.4c0.9 0.3 1.6-0.3 2-0.9l1.5-2.9 5.5 6.4c1.1 1.2 2 0.6 1.7-1.1l-2.9-13.7 4 2.3c0.8 0.4 1.7 0.3 2.1-0.4l4-7.8 4.1 7.8c0.4 0.7 1.3 0.9 2.1 0.5l4-2.5-2.9 13.8c-0.3 1.8 0.6 2.3 1.8 1.1l5.4-6.4 1.5 3c0.4 0.7 1.1 1 2 0.7l5.1-1.2-2.1 5.5-0.3 0.9c-0.4 0.9-0.2 1.7 0.4 2.1l2.1 2.2-10.5 8.3c-0.9 0.5-0.9 1.6-0.3 2.5l1.8 3.3"></path><path id="Layer" class="s7" d="m96.5 47.8c-0.8-0.1-1 0.1-1 0.8v4.3h-2.7v-4.3c0-0.6-0.1-0.9-0.9-0.8l-12 2 1.9-3.3c0.5-0.8 0.5-2-0.3-2.5l-10.5-8.3 2.1-2.2c0.6-0.4 0.7-1.4 0.3-2.3l-0.3-0.7-2-5.6 5.1 1.4c0.9 0.3 1.6-0.3 2-0.9l1.5-2.9 5.5 6.4c1.1 1.2 2 0.6 1.7-1.1l-2.9-13.7 4 2.3c0.8 0.4 1.7 0.3 2.1-0.4l4-7.8 4.1 7.8c0.4 0.7 1.3 0.9 2.1 0.5l4-2.5-2.9 13.8c-0.3 1.8 0.6 2.3 1.8 1.1l5.4-6.4 1.5 3c0.4 0.7 1.1 1 2 0.7l5.1-1.2-2.1 5.5-0.3 0.9c-0.4 0.9-0.2 1.7 0.4 2.1l2.1 2.2-10.5 8.3c-0.9 0.5-0.9 1.6-0.3 2.5l1.8 3.3z"></path></svg> 