<?xml version="1.0" encoding="UTF-8"?> <svg xmlns="http://www.w3.org/2000/svg" xmlns:xlink="http://www.w3.org/1999/xlink" version="1.1" id="Layer_1" x="0px" y="0px" viewBox="0 0 180 60" style="enable-background:new 0 0 180 60;" xml:space="preserve"> <style type="text/css"> .st0{fill:#010101;} .st1{fill:#FFFFFF;} </style> <g> <path d="M78,24.4h-1.1c-0.1,0-0.2,0.1-0.2,0.2v2.3h1.5v-2.3C78.2,24.5,78.1,24.4,78,24.4z M93.8,24.4h-1.3v4.4h1.3 c0.1,0,0.2-0.1,0.2-0.2v-4C93.9,24.5,93.8,24.4,93.8,24.4L93.8,24.4z M88.5,24.4h-1.1c-0.1,0-0.2,0.1-0.2,0.2v2.3h1.5v-2.3 C88.7,24.5,88.6,24.4,88.5,24.4z"></path> <path d="M120.5,12.7c-0.2-0.2-0.5-0.2-0.7-0.2H60.4c-0.3,0-0.6,0-0.9,0.2c-0.3,0.3-0.4,0.7-0.2,1.2l29.9,42.4 c0.2,0.3,0.5,0.4,0.8,0.4c0.4,0,0.7-0.1,1-0.4l0.5-0.7l29.4-41.7C120.9,13.5,120.8,13,120.5,12.7z M74.5,24.4H73c0,0,0,0-0.1,0 s-0.2,0.1-0.2,0.2v4c0,0.1,0.1,0.2,0.2,0.2c0,0,0,0,0.1,0h1.5v1.1h-2.1c-0.5,0-0.9-0.4-0.9-0.9v-4.8c0-0.5,0.4-0.9,0.9-0.9h2.1 V24.4L74.5,24.4z M79.6,29.9h-1.4V28h-1.5v1.9h-1.4v-5.7c0-0.5,0.4-0.9,0.9-0.9h2.4c0.5,0,0.9,0.4,0.9,0.9L79.6,29.9L79.6,29.9z M81.9,24.6v5.3h-1.4v-6.1c0-0.2-0.1-0.5-0.3-0.6h1.3c0.2,0,0.3,0.2,0.4,0.6c0.1-0.3,0.4-0.5,0.7-0.5h0.1h1.2 c0.5,0,0.9,0.4,0.9,0.9v5.7h-1.4v-5.3c0-0.1-0.1-0.2-0.2-0.2h-1.1C82,24.4,81.9,24.5,81.9,24.6L81.9,24.6z M86.3,33.5h-1.4v5.7 h-1.4v-5.7h-1.4v-1.1h4.1v1.1H86.3z M88.2,39.2h-1.4v-6.8h1.4V39.2z M88.7,29.9V28h-1.5v1.9h-1.4v-5.7c0-0.5,0.4-0.9,0.9-0.9h2.4 c0.5,0,0.9,0.4,0.9,0.9v5.7C90,29.9,88.7,29.9,88.7,29.9z M93.2,39.2h-0.8c-0.1,0-0.2-0.4-0.2-0.6v-1.4c0-0.2-0.2-0.5-0.3-0.5h-1.2 v2.4h-1.4v-6.8h3.3c0.3,0,0.5,0.1,0.7,0.3s0.3,0.4,0.3,0.7v2.1c0,0.2-0.1,0.4-0.3,0.6c-0.1,0.1-0.3,0.2-0.6,0.2v0.1 c0.2,0,0.4,0.1,0.5,0.2c0.1,0.1,0.3,0.3,0.3,0.6v1.5c0,0.2,0.1,0.4,0.3,0.5L93.2,39.2L93.2,39.2L93.2,39.2z M93.2,29.9h-2.1v-6.6 h3.3c0.5,0,0.9,0.4,0.9,0.9V29c0,0.5-0.4,0.9-0.9,0.9H93.2L93.2,29.9z M97.6,33.5h-1.5c-0.1,0-0.2,0.1-0.2,0.2v1.5h1.6v1.2h-1.6 v1.5c0,0.1,0.1,0.2,0.2,0.2h1.5v1.1h-2.2c-0.5,0-1-0.4-1-1v-4.9c0-0.5,0.4-1,1-1h2.2V33.5z M97.7,29.9h-1.4v-6.6h1.4V29.9z M103,29.9h-1.4V28h-1.5v1.9h-1.4v-5.7c0-0.5,0.4-0.9,0.9-0.9h2.4c0.5,0,0.9,0.4,0.9,0.9L103,29.9L103,29.9z M108.2,29.9h-1.4v-5.3 c0-0.1-0.1-0.2-0.2-0.2h-1.1c-0.1,0-0.2,0.1-0.2,0.2v5.3h-1.4v-6.1c0-0.2-0.1-0.5-0.3-0.6h1.3c0.2,0,0.3,0.2,0.3,0.6 c0.1-0.3,0.4-0.5,0.7-0.5h0.1h1.2c0.5,0,0.9,0.4,0.9,0.9L108.2,29.9L108.2,29.9L108.2,29.9z"></path> <path d="M101.4,24.4h-1.1c-0.1,0-0.2,0.1-0.2,0.2v2.3h1.5v-2.3C101.6,24.5,101.5,24.4,101.4,24.4L101.4,24.4L101.4,24.4z M91.9,33.5h-1.3v2.1h1.3c0.1,0,0.2-0.1,0.2-0.2l0,0v-1.7C92.1,33.6,92.1,33.5,91.9,33.5L91.9,33.5z"></path> <path class="st0" d="M122.2,12.1c-0.7-1.1-1.6-1.3-2.6-1.4H98.2l1.1-3l-3.1,0.8l-0.9-1.9l-1.8,2l1.2-5.1L92,5l-2-3.5l-1.9,3.7 l-2.8-1.5l1.2,5.1l-1.8-2l-0.9,1.9l-3.1-0.8l1.1,3H60.3c-0.9,0-1.9,0.3-2.6,1.4C57.3,13,57.2,14,57.8,15l29.9,42.5 c0.6,0.7,1.3,1.1,2.3,1.1s1.7-0.4,2.3-1.1L122.2,15C122.8,13.9,122.6,12.9,122.2,12.1z M121.7,13.7c0,0.3-0.1,0.5-0.3,0.8l-30,42.4 c-0.3,0.3-0.5,0.5-0.9,0.6c-0.2,0-0.4,0.1-0.6,0.1h-0.1c-0.1,0-0.3,0-0.4,0c-0.5-0.1-0.8-0.4-1.1-0.7l-30-42.6 c-0.1-0.2-0.1-0.3-0.2-0.5C58,13,58.3,12.3,59,11.9c0.4-0.2,0.7-0.2,1.2-0.3h21.6l-1.2,1.2l4.3,3.3c0,0.2-0.2,0.5-0.3,0.7l-1.2,1.9 l5.3-0.9v1.7h2.5v-1.7l5.3,0.9l-1.2-1.9c-0.1-0.2-0.3-0.5-0.3-0.7l4.3-3.3L98,11.6h21.7c0.4,0,0.7,0.1,1,0.3 C121.4,12.3,121.7,12.9,121.7,13.7z"></path> <path class="st1" d="M94.4,15.5l3.6-2.8l-0.6-0.6c-0.3-0.3-0.4-0.8-0.2-1.2l0.7-1.8l-1.6,0.4c-0.5,0.1-0.6,0-0.9-0.3L95,8.3l-2,2.2 c-0.1,0.2-0.4,0.1-0.6,0s-0.3-0.3-0.2-0.6l1-4.7L92,5.9c-0.4,0.3-0.8,0.1-1.1-0.3l-1-2.3l-1.2,2.3c-0.2,0.4-0.6,0.6-1.1,0.3 l-1.2-0.7l1.1,4.7c0.1,0.2,0,0.4-0.2,0.6c-0.2,0.1-0.4,0.1-0.6,0l-2-2.2l-0.4,0.9c-0.2,0.2-0.4,0.4-0.9,0.3L82,9.1l0.7,1.9 c0.3,0.4,0.1,0.9-0.1,1.2L82,12.8l3.6,2.8c0.5,0.4,0.2,1.3-0.3,2l4-0.7c0.2,0,0.4,0,0.5,0.5v1.3h0.7v-1.3c0-0.5,0.2-0.5,0.5-0.5 l4,0.7C94.2,16.7,93.9,15.9,94.4,15.5L94.4,15.5z"></path> </g> </svg> 