<?xml version="1.0" encoding="UTF-8"?> <svg xmlns="http://www.w3.org/2000/svg" xmlns:xlink="http://www.w3.org/1999/xlink" version="1.1" id="Layer_1" x="0px" y="0px" viewBox="0 0 180 60" style="enable-background:new 0 0 180 60;" xml:space="preserve"> <style type="text/css"> .st0{fill:#FFFFFF;} </style> <g> <path class="st0" d="M88.5,24.4h-1.1c-0.1,0-0.2,0.1-0.2,0.2v2.3h1.5v-2.3C88.7,24.5,88.6,24.4,88.5,24.4z M93.8,24.4h-1.3v4.4h1.3 c0.1,0,0.2-0.1,0.2-0.2v-4C93.9,24.5,93.8,24.4,93.8,24.4z M78,24.4h-1.1c-0.1,0-0.2,0.1-0.2,0.2v2.3h1.5v-2.3 C78.2,24.5,78.1,24.4,78,24.4z"></path> <path class="st0" d="M120.5,12.7c-0.2-0.2-0.5-0.2-0.7-0.2h-22l0.2,0.2l-3.6,2.8c-0.5,0.4-0.2,1.2,0.6,2.1l-4-0.7 c-0.3,0-0.5,0-0.5,0.5v1.3h-0.7v-1.3c-0.1-0.5-0.3-0.5-0.5-0.5l-4,0.7c0.5-0.7,0.8-1.6,0.3-2L82,12.8l0.3-0.3H60.4 c-0.3,0-0.6,0-0.9,0.2c-0.3,0.3-0.4,0.7-0.2,1.2l29.9,42.4c0.2,0.3,0.5,0.4,0.8,0.4c0.4,0,0.7-0.1,1-0.4l0.5-0.7l29.4-41.7 C120.9,13.5,120.8,13,120.5,12.7z M91.1,23.3h3.3c0.5,0,0.9,0.4,0.9,0.9V29c0,0.5-0.4,0.9-0.9,0.9h-3.3V23.3z M74.5,24.4H73 c0,0,0,0-0.1,0c-0.1,0-0.2,0.1-0.2,0.2v4c0,0.1,0.1,0.2,0.2,0.2c0,0,0,0,0.1,0h1.5v1.1h-2.1c-0.5,0-0.9-0.4-0.9-0.9v-4.8 c0-0.5,0.4-0.9,0.9-0.9h2.1V24.4z M78.2,29.9V28h-1.5v1.9h-1.4v-5.7c0-0.5,0.4-0.9,0.9-0.9h2.4c0.5,0,0.9,0.4,0.9,0.9l0.1,5.7H78.2 z M81.9,24.6v5.3h-1.4v-6.1c0-0.2-0.1-0.5-0.3-0.6h1.3c0.2,0,0.3,0.2,0.4,0.6c0.1-0.3,0.4-0.5,0.7-0.5h1.3c0.5,0,0.9,0.4,0.9,0.9 v5.7h-1.4v-5.3c0-0.1-0.1-0.2-0.2-0.2h-1.1C82,24.4,81.9,24.5,81.9,24.6z M86.2,33.5h-1.3v5.7h-1.4v-5.7h-1.4v-1.1h4.1V33.5z M88.2,39.2h-1.4v-6.8h1.4V39.2z M88.7,29.9V28h-1.5v1.9h-1.4v-5.7c0-0.5,0.4-0.9,0.9-0.9h2.4c0.5,0,0.9,0.4,0.9,0.9v5.7H88.7z M93.2,39.2h-0.8c-0.1,0-0.2-0.4-0.2-0.6v-1.4c0-0.2-0.2-0.5-0.3-0.5h-1.2v2.4h-1.4v-6.8h3.3c0.3,0,0.5,0.1,0.7,0.3 c0.2,0.2,0.3,0.4,0.3,0.7v2.1c0,0.2-0.1,0.4-0.3,0.6c-0.1,0.1-0.3,0.2-0.6,0.2v0.1c0.2,0,0.4,0.1,0.5,0.2c0.1,0.1,0.3,0.3,0.3,0.6 v1.5c0,0.2,0.1,0.4,0.3,0.5L93.2,39.2z M97.6,33.5h-1.5c-0.1,0-0.2,0.1-0.2,0.2v1.5h1.6v1.2h-1.6v1.5c0,0.1,0.1,0.2,0.2,0.2h1.5 v1.1h-2.2c-0.5,0-1-0.4-1-1v-4.9c0-0.5,0.4-1,1-1h2.2V33.5z M97.7,29.9h-1.4v-6.6h1.4V29.9z M101.6,29.9V28h-1.5v1.9h-1.4v-5.7 c0-0.5,0.4-0.9,0.9-0.9h2.4c0.5,0,0.9,0.4,0.9,0.9l0.1,5.7H101.6z M106.8,29.9v-5.3c0-0.1-0.1-0.2-0.2-0.2h-1.1 c-0.1,0-0.2,0.1-0.2,0.2v5.3h-1.4v-6.1c0-0.2-0.1-0.5-0.3-0.6h1.3c0.2,0,0.3,0.2,0.3,0.6c0.1-0.3,0.4-0.5,0.7-0.5h1.3 c0.5,0,0.9,0.4,0.9,0.9l0.1,5.7H106.8z"></path> <path class="st0" d="M91.9,33.5h-1.3v2.1h1.3c0.1,0,0.2-0.1,0.2-0.2v-1.7C92.1,33.6,92.1,33.5,91.9,33.5z M101.4,24.4h-1.1 c-0.1,0-0.2,0.1-0.2,0.2v2.3h1.5v-2.3C101.6,24.5,101.5,24.4,101.4,24.4z"></path> <path class="st0" d="M122.2,12.1c-0.7-1.1-1.6-1.3-2.6-1.4H98.2l1.1-3l-3.1,0.8l-0.9-1.9l-1.8,2l1.2-5.1L92,5l-2-3.5l-1.9,3.7 l-2.8-1.5l1.2,5.1l-1.8-2l-0.9,1.9l-3.1-0.8l1.1,3H60.3c-0.9,0-1.9,0.3-2.6,1.4C57.3,13,57.2,14,57.8,15l29.9,42.5 c0.6,0.7,1.3,1.1,2.3,1.1s1.7-0.4,2.3-1.1L122.2,15C122.8,13.9,122.6,12.9,122.2,12.1z M83.4,9.5c0.5,0.1,0.7-0.1,0.9-0.3l0.4-0.9 l2,2.2c0.2,0.1,0.4,0.1,0.6,0c0.2-0.2,0.3-0.4,0.2-0.6l-1.1-4.7l1.2,0.7c0.5,0.3,0.9,0.1,1.1-0.3l1.2-2.3l1,2.3 C91.2,6,91.6,6.2,92,5.9l1.2-0.7l-1,4.7c-0.1,0.3,0,0.5,0.2,0.6c0.2,0.1,0.5,0.2,0.6,0l2-2.2l0.4,0.9c0.3,0.3,0.4,0.4,0.9,0.3 l1.6-0.4l-0.7,1.8c-0.2,0.4-0.1,0.9,0.2,1.2l0.4,0.4l0.2,0.2l-3.6,2.8c-0.5,0.4-0.2,1.2,0.6,2.1l-4-0.7c-0.3,0-0.5,0-0.5,0.5v1.3 h-0.7v-1.3c-0.1-0.5-0.3-0.5-0.5-0.5l-4,0.7c0.5-0.7,0.8-1.6,0.3-2L82,12.8l0.6-0.6c0.2-0.3,0.4-0.8,0.1-1.2L82,9.1L83.4,9.5z M121.4,14.5l-30,42.4c-0.3,0.3-0.5,0.5-0.9,0.6c-0.2,0-0.4,0.1-0.6,0.1h-0.5c-0.5-0.1-0.8-0.4-1.1-0.7l-30-42.6 c-0.1-0.2-0.1-0.3-0.2-0.5C58,13,58.3,12.3,59,11.9c0.4-0.2,0.7-0.2,1.2-0.3h21.6l-0.9,0.9l-0.3,0.3l4.3,3.3c0,0.2-0.2,0.5-0.3,0.7 l-1.2,1.9l5.3-0.9v1.7h2.5v-1.7l5.3,0.9l-1.2-1.9c-0.1-0.2-0.3-0.5-0.3-0.7l4.3-3.3L99,12.5l-1-0.9h21.7c0.4,0,0.7,0.1,1,0.3 c0.7,0.4,1,1,1,1.8C121.7,14,121.6,14.2,121.4,14.5z"></path> </g> </svg> 