<?xml version="1.0" encoding="UTF-8"?> <svg xmlns="http://www.w3.org/2000/svg" xmlns:xlink="http://www.w3.org/1999/xlink" version="1.1" id="Layer_1" x="0px" y="0px" viewBox="0 0 64 64" style="enable-background:new 0 0 64 64;" xml:space="preserve"> <style type="text/css"> .st0{fill-rule:evenodd;clip-rule:evenodd;fill:#0078D7;} </style> <symbol id="A" viewBox="-87.5 -40 175 80"> <path class="st0" d="M87.5,24.8c0-8.2-6.6-15.2-14.8-15.2h-2.2c0.6-3.3,1.7-6.6,1.7-10.4C72.2-22.6,54.1-40,32.8-40 c-17,0-31.7,11.5-37.2,26.6c-2.8-0.5-5.5-1.6-8.8-1.6C-28.4-15-40-3-40,12.3s12,27.2,26.8,27.2h86.4C81.5,38.9,87.5,33,87.5,24.8 L87.5,24.8z M-80.4-1.9c-3.9,0-7.1,3.3-7.1,7c0,3.8,3.3,7.1,7.1,7.1h33.8c0-4.9,1.2-9.8,3.4-14.2H-80.4z M-43.8,25.8h-26.8 c-3.9,0-7.1,3.3-7.1,7.1s3.3,7,7.1,7h37.2C-37.7,36.2-41.6,31.9-43.8,25.8L-43.8,25.8z M-8.2-21C-6-25.3-3.3-29.1,0-32.4h-58.6 c-3.8,0-7.1,3.3-7.1,7c0,3.8,3.3,7.1,7.1,7.1h31.7c4.4-2.2,8.8-3.3,17.3-3.2C-11.5-21-9.8-21-8.2-21z"></path> </symbol> <g> <use xlink:href="#A" width="175" height="80" x="-87.5" y="-40" transform="matrix(0.3491 0 0 0.3491 32 32)" style="overflow:visible;"></use> </g> </svg> 