<?xml version="1.0" encoding="UTF-8"?> <svg xmlns:rdf="http://www.w3.org/1999/02/22-rdf-syntax-ns#" xmlns:dc="http://purl.org/dc/elements/1.1/" xmlns:svg="http://www.w3.org/2000/svg" xmlns:cc="http://creativecommons.org/ns#" xmlns="http://www.w3.org/2000/svg" xmlns:xlink="http://www.w3.org/1999/xlink" version="1.1" id="svg2" x="0px" y="0px" viewBox="0 0 180 60" style="enable-background:new 0 0 180 60;" xml:space="preserve"> <style type="text/css"> .st0{fill:#435363;} .st1{fill:#F38B00;} </style> <g> <path id="path16" class="st0" d="M90.1,42.7c-7,0-12.7-5.7-12.7-12.7c0-7,5.7-12.7,12.7-12.7c5.8,0,10.7,3.9,12.2,9.2h4.9 c-1.6-8-8.7-13.9-17.1-13.9c-9.6,0-17.5,7.8-17.5,17.5c0,9.6,7.8,17.5,17.5,17.5c8.4,0,15.5-6,17.1-13.9h-4.9 C100.8,38.8,95.9,42.7,90.1,42.7"></path> <path id="path18" class="st0" d="M81.5,38.6c2.2,2.2,5.2,3.6,8.6,3.6v-5.1c-1.9,0-3.7-0.8-5-2.1L81.5,38.6L81.5,38.6z"></path> <path id="path20" class="st1" d="M78,30c0,1.7,0.4,3.4,1,4.9l4.6-2C83.3,32,83.1,31,83.1,30c0-3.9,3.2-7.1,7.1-7.1v-5.1 C83.4,17.9,78,23.3,78,30"></path> <path id="path22" class="st0" d="M94.5,18.7l-1.8,4.7c1.5,0.6,2.8,1.7,3.5,3h5.5C100.6,22.9,97.9,20.1,94.5,18.7"></path> <path id="path24" class="st1" d="M92.7,36.6l1.8,4.7c3.4-1.3,6.1-4.2,7.2-7.8h-5.5C95.4,34.9,94.2,36,92.7,36.6"></path> <path id="path26" class="st0" d="M67.7,36.8c-0.1-0.3-0.2-0.5-0.2-0.8c0,0,0,0,0,0c-0.1-0.2-0.1-0.5-0.2-0.8c0-0.1,0-0.1,0-0.2 c0-0.2-0.1-0.4-0.1-0.7c0-0.1,0-0.2-0.1-0.3c0-0.2-0.1-0.3-0.1-0.5c0-0.1,0-0.3-0.1-0.4c-0.1-1-0.2-2.1-0.2-3.1h-4.8 c0,1.1,0.1,2.3,0.2,3.4l0,0c0,0,0,0,0,0.1c0,0.3,0.1,0.6,0.1,0.9c0,0.1,0,0.2,0,0.3c0,0.2,0.1,0.5,0.1,0.7c0,0.1,0.1,0.3,0.1,0.4 c0,0.2,0.1,0.4,0.1,0.6c0,0.2,0.1,0.3,0.1,0.5c0,0.2,0.1,0.3,0.1,0.5c0.1,0.2,0.1,0.4,0.2,0.6c0,0.1,0,0.2,0.1,0.3h0 c0.3,1.1,0.7,2.2,1.2,3.2l4.4-1.9C68.3,38.6,68,37.7,67.7,36.8L67.7,36.8L67.7,36.8z"></path> <path id="path28" class="st1" d="M90.1,53.4c-6.5,0-12.3-2.6-16.5-6.9l-3.4,3.4c5.1,5.1,12.2,8.3,19.9,8.3 c14.4,0,26.2-10.8,28-24.7h-4.8C111.6,44.8,101.8,53.4,90.1,53.4"></path> <path id="path30" class="st1" d="M90.1,6.6c5.2,0,10.1,1.7,14,4.7l2.9-3.8c-4.7-3.5-10.5-5.6-16.9-5.6c-12,0-22.2,7.5-26.3,18 l4.5,1.7C71.7,12.8,80.2,6.6,90.1,6.6"></path> <path id="path32" class="st0" d="M113.3,26.5h4.8c-0.5-4.2-1.9-8-4.1-11.4l-4.1,2.5C111.6,20.3,112.8,23.3,113.3,26.5"></path> <path id="path34" class="st1" d="M107.8,26.5h4.8c-1.3-8.1-6.8-14.8-14.3-17.8l-1.7,4.4C102.3,15.4,106.6,20.4,107.8,26.5"></path> <path id="path36" class="st0" d="M90.1,11.9L90.1,11.9l0-4.8h0c-9.7,0-18,6-21.3,14.6l4.4,1.7C75.9,16.7,82.5,11.9,90.1,11.9"></path> <path id="path38" class="st1" d="M72,30L72,30h-4.8c0,9.6,6,17.8,14.4,21.2l1.8-4.4C76.8,44.1,72,37.6,72,30"></path> <path id="path40" class="st0" d="M90.1,48.1v4.8c11.4,0,20.9-8.4,22.6-19.3h-4.8C106.2,41.8,98.9,48.1,90.1,48.1"></path> </g> </svg> 