<?xml version="1.0" encoding="UTF-8"?> <svg xmlns="http://www.w3.org/2000/svg" xmlns:xlink="http://www.w3.org/1999/xlink" version="1.1" id="Layer_1" x="0px" y="0px" viewBox="0 0 545.6 163" style="enable-background:new 0 0 545.6 163;" xml:space="preserve"> <style type="text/css"> .st0{fill:#2897FF;} .st1{fill:#FFFFFF;} </style> <path class="st0" d="M70.4,127.4c-3.9-1.9-7.9-3.8-11.8-5.7c0.6-0.8,0.4-1.7-0.4-2.1c-2.7-1.6-5.6-3-8.3-4.8 c-1.4-0.9-0.9-4.2-3.9-3.5c-0.4-0.1-0.8-0.3-1.2-0.4c-0.2,0-0.3,0-0.5,0.1c-0.2-0.1-0.4-0.1-0.5-0.2c-0.1,0-0.3,0-0.4,0 c-0.8-1.2-1.6-2.4-2.3-3.6c-0.1-1-0.1-1.9-0.2-2.9c1.8,1.2,3.7,2.4,5.5,3.6c0.1,0.5,0.1,1.7,0.8,1.1c1.2-1.1,2.4-2.6,2.6-4.1 c0.3-2.1-1.7-0.2-2.5-0.8c-3-2.4-6-4.7-8.9-7.1c-0.1-0.1-0.2-0.3-0.3-0.4c-0.6-0.8-1.2-1.6-1.9-2.4c0.8-0.8,0.1-0.9-0.5-1.1 c-0.5-0.7-0.9-1.3-1.4-2c-0.1-0.4-0.2-0.8-0.3-1.2c-0.2-0.8-0.5-1.5-0.7-2.3c-0.3-1-0.8-2-1-3c-0.7-3.8-3.1-7.7,0-11.5l0,0 c-0.3-1.7,2-1,2.3-2.5c0.4-1.9,0.3-3.9,0.6-5.7c0.4-2.5,3-4.6,3.7-7.4c0.2-0.6,0.9-1.1,1.4-1.7c0.1,0.5,0.2,1.1,0.3,1.6 c0,0.3,0,0.5,0,0.8c-0.6,0.5-1.3,1-0.9,2c0,0.2,0,0.3,0,0.5c-1.7,1.4-0.2,3.5-1.3,5c0,0,0.4,0.5,0.6,0.4c0.2,0,0.6-0.3,0.7-0.5 c0.4-1,0.7-2.1,1-3.1c0.2-0.4,0.5-0.9,0.7-1.3c0.5-1,1-2,1.6-2.9l0,0c1.7-3.6,4.4-6.1,8-7.6c2-1.3,3.9-3,6.6-2c3-0.1,6-0.1,9-0.3 c0.7,0,1.4-0.5,2.1-0.7c-0.2-0.3-0.2-0.8-0.5-1c-2-1.3-3.8-2.9-6.2-3c-6.9-0.2-13.4-2.7-17.9-7.9c-6.2-7.3-12.1-7.7-18-3.7 C15.6,39.2,7.8,48.3,3.6,60.5c-5.2,15.1-5.1,29.6,2.8,43.8c4.6,8.3,12,13.2,19.9,17.7c0.7,0.3,1.4,0.6,2.1,0.9 c0.2,0.1,0.4,0.2,0.5,0.4c1,1.1,2.4,1.1,3.7,1.2c1,0.4,2,0.7,3,1.1c1.1,0.7,2.2,0.8,3.4,0.4c0.6,0.2,1,0.3,1.6,0.5 c2.6,3.7,6.5,2.3,9.9,2.8c3.7,0.3,7.4,0.7,11.1,0.9c3.2,0.1,6.5,0,9.7-0.1C70,129.5,68.7,128.9,70.4,127.4 M31,84.4 c0.1,0.5,0.1,1.3,0.4,2C31.2,85.7,31.2,84.9,31,84.4c-0.7-2.9-1.3-5.8-1.2-8.7C29.7,78.6,30.3,81.5,31,84.4 M42.1,54.6 c-0.8,0.5-0.4,1.6-0.8,2.4C41.7,56.2,41.3,55,42.1,54.6c0.4-0.2,0.8-0.3,1.2-0.4c-0.1,0-0.2-0.1-0.3-0.1c0.1,0,0.2,0.1,0.3,0.1 C42.9,54.3,42.5,54.3,42.1,54.6 M41.8,53.5c-0.1,0-0.3,0-0.3,0c-0.5,0.3-1.1,0.7-1.6,1c0.5-0.3,1.1-0.7,1.6-1 C41.5,53.5,41.6,53.5,41.8,53.5"></path> <path class="st0" d="M92.4,25.3c-0.6-0.7-1.4-1.4-0.8-2.5c-0.6-0.4-1.2-0.8-1.8-1.2c-2.4-3.8-6-6-9.9-7.9c-0.6-0.4-1.3-0.7-1.9-1.1 c-0.2-0.1-0.5-0.3-0.7-0.4c-5-3.5-9.9-7.1-15-10.6c-1.7-1.2-6.9,1.6-7.1,3.6C54.9,9.3,65.6,20,71.1,21l0,0c0.5,1.4,3,2.7,3.9,2l0,0 c0.2,0.1,0.3,0.1,0.5,0.2c1.4-0.1,1.4,2.7,3.3,1.6c1.2,0.7,2.5,1.4,3.7,2.1c0.9,0.1,1.8,0.1,2.6-0.1c-0.1-1.2,0.5-1.5,2.6,0.1 c0.2,0.1,0.7,0.1,0.7,0.1c0.8-3.2,2.3,0.2,3.4-0.4c0.3-0.2,0.8-0.2,0.8-0.3C92.7,25.9,92.6,25.5,92.4,25.3"></path> <path class="st0" d="M43.4,26.1c3.1,1.2,6.7,1.9,9.1,3.9c3.5,2.8,7.3,4.9,11.2,6.9c0,0,0,0,0-0.1c0,0,0,0,0,0.1 c1.3,0.7,2.6,1.4,4,0.3c-0.7-0.7-1.4-1.4-2.3-1.8c0.8,0.4,1.6,1.1,2.3,1.8c1.1,0.4,2.2,0.9,3.2,1.3c0.1,0,0.2,0,0.3,0 c0.6,0.1,1.2-0.1,1.8-0.3c0.1-0.1,0.3-0.2,0.5-0.4c1.4-0.8,0.8-1.9,0.4-3.3c-1.6-6.7-7.6-7.9-12.4-10.8c-3.5-2.1-8.5-2.8-9.8-7.8 c-0.4-0.4-0.8-0.8-1.2-1.1c-1-1.2-2.2-1.8-3.7-1.1c-0.3,0-0.6,0.1-0.9,0.1c-0.2,0-0.4,0-0.7-0.1c-2.6,1.6-4.2,3.1-4.6,6.9 C40.2,23.9,40.6,25,43.4,26.1 M70.5,31.7L70.5,31.7L70.5,31.7c0-0.1-0.1-0.1-0.1-0.2C70.4,31.5,70.4,31.6,70.5,31.7"></path> <path class="st0" d="M80.4,118.4c-2.4,0.8-3.7-3.9-6.3-1C73,113,68,116,66,113c-0.5-0.8-2.2-0.7-2.4,1.1c-0.2,2.2,0,4.5,2.8,3.9 c2.3-0.5,2.7,4.1,5.3,1.5c0.3-0.1,0.6-0.1,1-0.2c0.7,3.6,3.5,1.6,5.4,1.9c1.2,1.4,2.5,1.1,3.9,0.5v-0.1h0.1c0-0.2,0.1-0.4,0.1-0.7 C82.1,119.8,82.3,117.8,80.4,118.4"></path> <path class="st0" d="M59.6,114c0.4,0.1,0.8,0.3,1.2,0.4c3.2-1.4-0.5-2.6-0.1-3.8c0.9-3.1-1.9-2.2-2.7-2.2c-1.9-0.1-0.2,1.3-0.4,2 C57,112.2,58.2,113.2,59.6,114"></path> <path class="st0" d="M72.3,129.4c0.6-0.1,1.2-0.2,1.7-0.2c-0.9-0.7-1.7-1.5-2.6-2.2C70.4,128.3,70.7,129.1,72.3,129.4"></path> <polygon class="st0" points="33.2,73.5 33.2,73.4 33.2,73.4 "></polygon> <polygon class="st0" points="33.2,73.4 33.2,73.4 33.1,73.4 "></polygon> <path class="st0" d="M35,70.4c-0.3-0.7-0.4-1.5-0.6-2c-0.7-2.1-1.3-4.4-1.7-6.6c0.3,2.2,0.9,4.4,1.7,6.6 C34.6,68.9,34.7,69.8,35,70.4"></path> <path class="st1" d="M175.6,41.8c-7.6-2.5-15.5-4.7-23.4-4.7c-24.5,0-35,19.5-35,41.6c0,22.4,11.4,35.5,34.3,35.5 c7.2,0,14.2-2.2,21.1-4.2l-1.6,9.6c-7.2,1.6-14.6,2.5-21.8,2.5c-27.8,0-42.7-16-42.7-43.4c0-27,12.3-49.6,44.7-49.6 c8.1,0,16,1.1,23.8,3.4L175.6,41.8z"></path> <path class="st1" d="M191.8,120.3c2.2-37.1,4.5-74.6,5-120.3h11.5c-2.7,40-3.8,80.2-5,120.3H191.8z"></path> <path class="st1" d="M285.9,120.3c1.6-15.3,2-37.3,3.2-54.8l-0.4-0.4c-12.4,13.5-55.5,10.1-55.5,34.1c0,12.4,11.9,16,22.2,16 c7,0,13.9-1.4,20.4-3.8l-2,8.7c-6.3,1.4-12.6,2.2-18.9,2.2c-9.4,0-32.5-0.4-32.5-22.5c0-38.2,66.7-23.4,66.7-49.2 c0-11.9-13.7-14.2-22.9-14.2c-11,0-22,2.2-31.9,6.7l1.3-9.2c10.1-2.7,20.6-4.5,29-4.5c24.7,0,35.3,6.9,35.3,22.5 c0,15.1-2.7,39.7-2.7,68.5L285.9,120.3L285.9,120.3z"></path> <path class="st1" d="M333.7,46.5l0.4-0.4c5.6-11.4,14.2-16.9,27.9-16.9c2.3,0,4.7,0.4,7.2,1.1l0.4,9.4c-3.4-0.9-6.9-1.8-10.5-1.8 c-12.4,0-23.6,9.9-25.4,28.8c-1.4,15.1-1.6,31-1.6,46.3v7.2h-11.2c1.3-26.1,3.1-54.1,3.1-89.1h10.5L333.7,46.5z"></path> <path class="st1" d="M395.4,31.2c-2,29.6-3.2,59.3-3.4,89.1h-11.7c1.8-29.6,3.6-59.3,3.8-89.1C384.1,31.2,395.4,31.2,395.4,31.2z M383.8,10.8L384.2,0H397l-0.4,10.8H383.8z"></path> <path class="st1" d="M433.2,39.1c-0.5,19.3-2.5,38.9-2.5,58.4c0,8.7,2,16.8,12.4,16.8c4.7,0,9.2-1.3,13.7-2.7l-1.4,8.5 c-4.9,1.4-9.9,2.2-15,2.2c-15.1,0-20.6-6.1-20.6-21.1c0-11.2,2.2-35,3.1-62h-11.2l0.4-7.9h11.4l0.9-16.6l9.7-2l-0.7,18.6H459 l-0.4,7.9h-25.4V39.1z"></path> <path class="st1" d="M460.5,31.2h12.3c7.2,27.4,18,53.9,26.5,80.6h0.4c10.6-26.7,24-53,34.1-80.6h11.9L498,135.6 c-6.9,15.1-12.8,27.4-31.5,27.4c-4.5,0-9-0.7-13.3-2l-1.1-9.6c4.3,2,9.2,3.6,14.1,3.6c8.3,0,16.2-4.5,27.2-32.3L460.5,31.2z"></path> </svg> 