<?xml version="1.0" encoding="UTF-8"?> <svg xmlns="http://www.w3.org/2000/svg" width="64" height="64" viewBox="0 0 64 64" fill="none"><path d="M53.3182 44.251V53.3184H44.2507" stroke="#2E2D2C" stroke-linecap="round" stroke-linejoin="round"></path><path d="M44.2507 10.9219H53.3182V19.9817" stroke="#2E2D2C" stroke-linecap="round" stroke-linejoin="round"></path><path d="M10.9214 19.9817V10.9219H19.9812" stroke="#2E2D2C" stroke-linecap="round" stroke-linejoin="round"></path><path d="M19.9812 53.3184H10.9214V44.251" stroke="#2E2D2C" stroke-linecap="round" stroke-linejoin="round"></path><path d="M32.1198 53.3186C43.8273 53.3186 53.3182 43.8278 53.3182 32.1203C53.3182 20.4127 43.8273 10.9219 32.1198 10.9219C20.4122 10.9219 10.9214 20.4127 10.9214 32.1203C10.9214 43.8278 20.4122 53.3186 32.1198 53.3186Z" stroke="#2E2D2C" stroke-linecap="round" stroke-linejoin="round"></path><path d="M32.1199 6V15.8353" stroke="white" stroke-linecap="round" stroke-linejoin="round"></path><path d="M32.1199 48.4043V58.2395" stroke="white" stroke-linecap="round" stroke-linejoin="round"></path><path d="M6 32.1201H15.8353" stroke="white" stroke-linecap="round" stroke-linejoin="round"></path><path d="M48.3967 32.1201H58.232" stroke="white" stroke-linecap="round" stroke-linejoin="round"></path><path d="M32.1199 6V15.8353" stroke="#2E2D2C" stroke-linecap="round" stroke-linejoin="round"></path><path d="M32.1199 48.4043V58.2395" stroke="#2E2D2C" stroke-linecap="round" stroke-linejoin="round"></path><path d="M6 32.1201H15.8353" stroke="#2E2D2C" stroke-linecap="round" stroke-linejoin="round"></path><path d="M48.3967 32.1201H58.232" stroke="#2E2D2C" stroke-linecap="round" stroke-linejoin="round"></path><path d="M42.7229 32.1196C42.7229 37.9778 37.978 42.7227 32.1199 42.7227C26.2617 42.7227 21.5168 37.9778 21.5168 32.1196C21.5168 26.2615 26.2617 21.5166 32.1199 21.5166C37.978 21.5166 42.7229 26.2615 42.7229 32.1196Z" stroke="#2E2D2C" stroke-linecap="round" stroke-linejoin="round"></path><path d="M26.9143 29.832L32.1199 36.8035" stroke="white" stroke-linecap="round" stroke-linejoin="round"></path><path d="M43.9744 21.4785L32.1199 36.8034" stroke="white" stroke-linecap="round" stroke-linejoin="round"></path><path d="M26.9143 29.832L32.1199 36.8035" stroke="black" stroke-linecap="round" stroke-linejoin="round"></path><path d="M26.9143 29.832L32.1199 36.8035" stroke="url(#paint0_linear_526_9918)" stroke-linecap="round" stroke-linejoin="round"></path><path d="M43.9744 21.4785L32.1199 36.8034" stroke="black" stroke-linecap="round" stroke-linejoin="round"></path><path d="M43.9744 21.4785L32.1199 36.8034" stroke="url(#paint1_linear_526_9918)" stroke-linecap="round" stroke-linejoin="round"></path><defs><linearGradient id="paint0_linear_526_9918" x1="28.6566" y1="32.217" x2="35.3509" y2="36.5645" gradientUnits="userSpaceOnUse"><stop offset="0.236106" stop-color="#DA291C"></stop><stop offset="1" stop-color="#FFCD00"></stop></linearGradient><linearGradient id="paint1_linear_526_9918" x1="36.0876" y1="26.7212" x2="51.0083" y2="36.7597" gradientUnits="userSpaceOnUse"><stop offset="0.236106" stop-color="#DA291C"></stop><stop offset="1" stop-color="#FFCD00"></stop></linearGradient></defs></svg> 