<?xml version="1.0" encoding="UTF-8"?> <svg xmlns="http://www.w3.org/2000/svg" width="64" height="64" viewBox="0 0 64 64" fill="none"><g clip-path="url(#clip0_1576_34746)"><path d="M50.0834 42.4H52.6668C57.6655 42.4 61.7084 38.331 61.7084 33.3C61.7084 28.269 57.6655 24.2 52.6668 24.2C51.7109 24.2 50.7809 24.356 49.9155 24.629C50.0188 24.07 50.0834 23.485 50.0834 22.9C50.0834 17.869 46.0405 13.8 41.0418 13.8C38.7813 13.8 36.7276 14.645 35.1388 16.023C33.3822 10.953 28.5901 7.30005 22.9584 7.30005C15.8155 7.30005 10.0288 13.124 10.0288 20.3C10.0288 21.665 10.2484 22.991 10.6359 24.226C5.973 24.59 2.29175 28.503 2.29175 33.287C2.29175 38.318 6.33467 42.387 11.3334 42.387H13.9167" stroke="white" stroke-miterlimit="10"></path><path d="M35.1646 16.01C35.5004 16.959 35.72 17.96 35.8233 19" stroke="white" stroke-miterlimit="10"></path><path d="M49.9155 24.6289C49.7088 25.6949 49.3213 26.6959 48.7917 27.5799" stroke="white" stroke-miterlimit="10"></path><path d="M10.6357 24.226C11.7595 24.135 12.8962 24.265 13.9941 24.603" stroke="white" stroke-miterlimit="10"></path><path d="M46.2084 42.4001C46.2084 50.3041 39.8534 56.7001 32.0001 56.7001C24.1467 56.7001 17.7917 50.3041 17.7917 42.4001C17.7917 34.4961 24.1467 28.1001 32.0001 28.1001C39.8534 28.1001 46.2084 34.4961 46.2084 42.4001Z" stroke="black" stroke-linejoin="round"></path><path d="M46.2084 42.4001C46.2084 50.3041 39.8534 56.7001 32.0001 56.7001C24.1467 56.7001 17.7917 50.3041 17.7917 42.4001C17.7917 34.4961 24.1467 28.1001 32.0001 28.1001C39.8534 28.1001 46.2084 34.4961 46.2084 42.4001Z" stroke="url(#paint0_linear_1576_34746)" stroke-linejoin="round"></path><path d="M32 34.6001V50.2001" stroke="black" stroke-miterlimit="10"></path><path d="M32 34.6001V50.2001" stroke="url(#paint1_linear_1576_34746)" stroke-miterlimit="10"></path><path d="M39.75 42.3999H24.25" stroke="black" stroke-miterlimit="10"></path><path d="M39.75 42.3999H24.25" stroke="url(#paint2_linear_1576_34746)" stroke-miterlimit="10"></path></g><defs><linearGradient id="paint0_linear_1576_34746" x1="27.3029" y1="37.8843" x2="57.0468" y2="63.5881" gradientUnits="userSpaceOnUse"><stop offset="0.236106" stop-color="#DA291C"></stop><stop offset="1" stop-color="#FFCD00"></stop></linearGradient><linearGradient id="paint1_linear_1576_34746" x1="32.3347" y1="39.9369" x2="34.1574" y2="40.0386" gradientUnits="userSpaceOnUse"><stop offset="0.236106" stop-color="#DA291C"></stop><stop offset="1" stop-color="#FFCD00"></stop></linearGradient><linearGradient id="paint2_linear_1576_34746" x1="29.4379" y1="42.742" x2="29.593" y2="44.8327" gradientUnits="userSpaceOnUse"><stop offset="0.236106" stop-color="#DA291C"></stop><stop offset="1" stop-color="#FFCD00"></stop></linearGradient><clipPath id="clip0_1576_34746"><rect width="62" height="52" fill="white" transform="translate(1 6)"></rect></clipPath></defs></svg> 