<?xml version="1.0" encoding="UTF-8"?> <svg xmlns="http://www.w3.org/2000/svg" width="64" height="64" viewBox="0 0 64 64" fill="none"><path d="M49.6477 40.9835H52.1705C57.0519 40.9835 61 37.0354 61 32.154C61 27.2725 57.0519 23.3244 52.1705 23.3244C51.2371 23.3244 50.3289 23.4758 49.4838 23.7407C49.5847 23.1983 49.6477 22.6307 49.6477 22.0631C49.6477 17.1816 45.6997 13.2336 40.8182 13.2336C38.6108 13.2336 36.6053 14.0535 35.0538 15.3905C33.3383 10.4712 28.6587 6.92676 23.1592 6.92676C16.1964 6.92676 10.5455 12.5777 10.5455 19.5404C10.5455 20.8648 10.76 22.1514 11.1384 23.3497C6.58488 23.7029 2.98999 27.4996 2.98999 32.1414C2.98999 37.0228 6.93805 40.9709 11.8195 40.9709H14.3422" stroke="white" stroke-miterlimit="10"></path><path d="M11.1257 23.3495C11.3528 23.3368 11.5798 23.3242 11.8069 23.3242C13.5223 23.3242 15.1116 23.8162 16.4739 24.6487" stroke="white" stroke-miterlimit="10"></path><path d="M35.0789 15.3779C35.4068 16.2987 35.6213 17.27 35.7222 18.2791" stroke="white" stroke-miterlimit="10"></path><path d="M49.4839 23.7407C49.282 24.775 48.9036 25.7463 48.3865 26.604" stroke="white" stroke-miterlimit="10"></path><path d="M46.9611 37.3384L44.9682 32.52L42.0292 33.4912C41.222 32.356 40.2255 31.3848 39.1281 30.5901L40.112 27.6511L35.2936 25.6582L33.9061 28.4206C32.569 28.1935 31.1815 28.1809 29.794 28.4206L28.4065 25.6582L23.5881 27.6511L24.5594 30.5901C23.4242 31.3974 22.4529 32.3939 21.6582 33.4912L18.7193 32.5074L16.7263 37.3258L19.4887 38.7133C19.2617 40.0503 19.249 41.4378 19.4887 42.8253L16.7263 44.2128L18.7193 49.0312L21.6582 48.06C22.4655 49.1952 23.462 50.1664 24.5594 50.9611L23.5755 53.9001L28.3939 55.893L29.7814 53.1306C31.1185 53.3577 32.5059 53.3703 33.8934 53.1306L35.2809 55.893L40.0993 53.9001L39.1281 50.9611C40.2633 50.1412 41.2346 49.1573 42.0292 48.06L44.9682 49.0438L46.9611 44.2254L44.1988 42.8379C44.4258 41.5009 44.4384 40.1134 44.1988 38.7259L46.9611 37.3384Z" stroke="black" stroke-linejoin="round"></path><path d="M46.9611 37.3384L44.9682 32.52L42.0292 33.4912C41.222 32.356 40.2255 31.3848 39.1281 30.5901L40.112 27.6511L35.2936 25.6582L33.9061 28.4206C32.569 28.1935 31.1815 28.1809 29.794 28.4206L28.4065 25.6582L23.5881 27.6511L24.5594 30.5901C23.4242 31.3974 22.4529 32.3939 21.6582 33.4912L18.7193 32.5074L16.7263 37.3258L19.4887 38.7133C19.2617 40.0503 19.249 41.4378 19.4887 42.8253L16.7263 44.2128L18.7193 49.0312L21.6582 48.06C22.4655 49.1952 23.462 50.1664 24.5594 50.9611L23.5755 53.9001L28.3939 55.893L29.7814 53.1306C31.1185 53.3577 32.5059 53.3703 33.8934 53.1306L35.2809 55.893L40.0993 53.9001L39.1281 50.9611C40.2633 50.1412 41.2346 49.1573 42.0292 48.06L44.9682 49.0438L46.9611 44.2254L44.1988 42.8379C44.4258 41.5009 44.4384 40.1134 44.1988 38.7259L46.9611 37.3384Z" stroke="url(#paint0_linear_1649_32874)" stroke-linejoin="round"></path><path d="M37.034 40.9834C37.034 43.771 34.7762 46.0289 31.9886 46.0289C29.201 46.0289 26.9431 43.771 26.9431 40.9834C26.9431 38.1958 29.201 35.938 31.9886 35.938C34.7762 35.938 37.034 38.1958 37.034 40.9834Z" stroke="black" stroke-linejoin="round"></path><path d="M37.034 40.9834C37.034 43.771 34.7762 46.0289 31.9886 46.0289C29.201 46.0289 26.9431 43.771 26.9431 40.9834C26.9431 38.1958 29.201 35.938 31.9886 35.938C34.7762 35.938 37.034 38.1958 37.034 40.9834Z" stroke="url(#paint1_linear_1649_32874)" stroke-linejoin="round"></path><defs><linearGradient id="paint0_linear_1649_32874" x1="26.846" y1="36.0017" x2="58.3188" y2="63.375" gradientUnits="userSpaceOnUse"><stop offset="0.236106" stop-color="#DA291C"></stop><stop offset="1" stop-color="#FFCD00"></stop></linearGradient><linearGradient id="paint1_linear_1649_32874" x1="30.3206" y1="39.3901" x2="40.8246" y2="48.526" gradientUnits="userSpaceOnUse"><stop offset="0.236106" stop-color="#DA291C"></stop><stop offset="1" stop-color="#FFCD00"></stop></linearGradient></defs></svg> 