<?xml version="1.0" encoding="UTF-8"?> <svg xmlns="http://www.w3.org/2000/svg" width="64" height="64" viewBox="0 0 64 64" fill="none"><path d="M49.6477 40.9835H52.1705C57.0519 40.9835 61 37.0354 61 32.154C61 27.2725 57.0519 23.3244 52.1705 23.3244C51.2371 23.3244 50.3289 23.4758 49.4838 23.7407C49.5847 23.1983 49.6477 22.6307 49.6477 22.0631C49.6477 17.1816 45.6997 13.2336 40.8182 13.2336C38.6108 13.2336 36.6053 14.0535 35.0538 15.3905C33.3383 10.4712 28.6587 6.92676 23.1592 6.92676C16.1964 6.92676 10.5455 12.5777 10.5455 19.5404C10.5455 20.8648 10.76 22.1514 11.1384 23.3497C6.58488 23.7029 2.98999 27.4996 2.98999 32.1414C2.98999 37.0228 6.93805 40.9709 11.8195 40.9709H14.3422" stroke="url(#paint0_linear_1649_32847)" stroke-miterlimit="10"></path><path d="M11.1257 23.3495C11.3528 23.3368 11.5798 23.3242 11.8069 23.3242C13.5223 23.3242 15.1116 23.8162 16.4739 24.6487" stroke="url(#paint1_linear_1649_32847)" stroke-miterlimit="10"></path><path d="M35.079 15.3779C35.4069 16.2987 35.6214 17.27 35.7223 18.2791" stroke="url(#paint2_linear_1649_32847)" stroke-miterlimit="10"></path><path d="M49.4837 23.7407C49.2819 24.775 48.9035 25.7463 48.3864 26.604" stroke="url(#paint3_linear_1649_32847)" stroke-miterlimit="10"></path><path d="M46.961 37.3384L44.9681 32.52L42.0291 33.4912C41.2218 32.356 40.2254 31.3848 39.128 30.5901L40.1118 27.6511L35.2934 25.6582L33.9059 28.4206C32.5689 28.1935 31.1814 28.1809 29.7939 28.4206L28.4064 25.6582L23.588 27.6511L24.5593 30.5901C23.424 31.3974 22.4528 32.3939 21.6581 33.4912L18.7191 32.5074L16.7262 37.3258L19.4886 38.7133C19.2615 40.0503 19.2489 41.4378 19.4886 42.8253L16.7262 44.2128L18.7191 49.0312L21.6581 48.06C22.4654 49.1952 23.4619 50.1664 24.5593 50.9611L23.5754 53.9001L28.3938 55.893L29.7813 53.1306C31.1183 53.3577 32.5058 53.3703 33.8933 53.1306L35.2808 55.893L40.0992 53.9001L39.128 50.9611C40.2632 50.1412 41.2345 49.1573 42.0291 48.06L44.9681 49.0438L46.961 44.2254L44.1986 42.8379C44.4257 41.5009 44.4383 40.1134 44.1986 38.7259L46.961 37.3384Z" stroke="black" stroke-linejoin="round"></path><path d="M46.961 37.3384L44.9681 32.52L42.0291 33.4912C41.2218 32.356 40.2254 31.3848 39.128 30.5901L40.1118 27.6511L35.2934 25.6582L33.9059 28.4206C32.5689 28.1935 31.1814 28.1809 29.7939 28.4206L28.4064 25.6582L23.588 27.6511L24.5593 30.5901C23.424 31.3974 22.4528 32.3939 21.6581 33.4912L18.7191 32.5074L16.7262 37.3258L19.4886 38.7133C19.2615 40.0503 19.2489 41.4378 19.4886 42.8253L16.7262 44.2128L18.7191 49.0312L21.6581 48.06C22.4654 49.1952 23.4619 50.1664 24.5593 50.9611L23.5754 53.9001L28.3938 55.893L29.7813 53.1306C31.1183 53.3577 32.5058 53.3703 33.8933 53.1306L35.2808 55.893L40.0992 53.9001L39.128 50.9611C40.2632 50.1412 41.2345 49.1573 42.0291 48.06L44.9681 49.0438L46.961 44.2254L44.1986 42.8379C44.4257 41.5009 44.4383 40.1134 44.1986 38.7259L46.961 37.3384Z" stroke="url(#paint4_linear_1649_32847)" stroke-linejoin="round"></path><path d="M37.0341 40.9834C37.0341 43.771 34.7763 46.0289 31.9887 46.0289C29.2011 46.0289 26.9432 43.771 26.9432 40.9834C26.9432 38.1958 29.2011 35.938 31.9887 35.938C34.7763 35.938 37.0341 38.1958 37.0341 40.9834Z" stroke="black" stroke-linejoin="round"></path><path d="M37.0341 40.9834C37.0341 43.771 34.7763 46.0289 31.9887 46.0289C29.2011 46.0289 26.9432 43.771 26.9432 40.9834C26.9432 38.1958 29.2011 35.938 31.9887 35.938C34.7763 35.938 37.0341 38.1958 37.0341 40.9834Z" stroke="url(#paint5_linear_1649_32847)" stroke-linejoin="round"></path><defs><linearGradient id="paint0_linear_1649_32847" x1="31.995" y1="6.92676" x2="31.995" y2="40.9835" gradientUnits="userSpaceOnUse"><stop stop-color="#282828"></stop><stop offset="1" stop-color="#030303"></stop></linearGradient><linearGradient id="paint1_linear_1649_32847" x1="13.7998" y1="23.3242" x2="13.7998" y2="24.6487" gradientUnits="userSpaceOnUse"><stop stop-color="#282828"></stop><stop offset="1" stop-color="#030303"></stop></linearGradient><linearGradient id="paint2_linear_1649_32847" x1="35.4006" y1="15.3779" x2="35.4006" y2="18.2791" gradientUnits="userSpaceOnUse"><stop stop-color="#282828"></stop><stop offset="1" stop-color="#030303"></stop></linearGradient><linearGradient id="paint3_linear_1649_32847" x1="48.935" y1="23.7407" x2="48.935" y2="26.604" gradientUnits="userSpaceOnUse"><stop stop-color="#282828"></stop><stop offset="1" stop-color="#030303"></stop></linearGradient><linearGradient id="paint4_linear_1649_32847" x1="26.8459" y1="36.0017" x2="58.3187" y2="63.375" gradientUnits="userSpaceOnUse"><stop offset="0.236106" stop-color="#DA291C"></stop><stop offset="1" stop-color="#FFCD00"></stop></linearGradient><linearGradient id="paint5_linear_1649_32847" x1="30.3207" y1="39.3901" x2="40.8248" y2="48.526" gradientUnits="userSpaceOnUse"><stop offset="0.236106" stop-color="#DA291C"></stop><stop offset="1" stop-color="#FFCD00"></stop></linearGradient></defs></svg> 