<?xml version="1.0" encoding="UTF-8"?> <svg xmlns="http://www.w3.org/2000/svg" xmlns:xlink="http://www.w3.org/1999/xlink" version="1.1" id="Layer_1" x="0px" y="0px" viewBox="0 0 64 64" style="enable-background:new 0 0 64 64;" xml:space="preserve"> <style type="text/css"> .st0{fill-rule:evenodd;clip-rule:evenodd;fill:#0078D7;} .st1{fill-rule:evenodd;clip-rule:evenodd;fill:#FFFFFF;} </style> <g id="A"> <g> <path class="st0" d="M52.7,32.2c0,1.2-1,2.2-2.2,2.2c-1.2,0-2.2-1-2.2-2.2c0-1.2,1-2.2,2.2-2.2C51.7,30,52.7,31,52.7,32.2z"></path> <path class="st0" d="M32.2,21.2c1.3,0,2.3,1,2.2,2.2c0,1.2-1,2.2-2.2,2.2c-1.2,0-2.2-1-2.2-2.2C30,22.2,31,21.2,32.2,21.2z"></path> <path class="st0" d="M30.1,37.3c1.2,0,2.3,1,2.2,2.2c0,1.2-1,2.2-2.2,2.2c-1.2,0-2.2-1-2.2-2.2C27.9,38.2,28.9,37.3,30.1,37.3z"></path> <path class="st0" d="M12,33.6c1.2,0,2.3,1.1,2.2,2.2c0,1.2-1,2.2-2.2,2.2c-1.2,0-2.2-1-2.2-2.2S10.8,33.6,12,33.6z"></path> <path class="st0" d="M61.5,39.6c-1.5,3.5-4.6,5.7-8,5.7c-1,0-2.1-0.2-3-0.6c-1.8,2.3-5,4-8.2,4c0,0-0.1,0-0.1,0v-9.5h6.8 c1.3-0.1,2.4-1.2,2.4-2.6v-0.7c1.7-0.4,2.9-1.9,2.9-3.7c0-2.1-1.7-3.8-3.8-3.8c-2.1,0-3.8,1.7-3.8,3.8c0,1.8,1.3,3.3,2.9,3.7v0.7 c0,0.4-0.4,0.7-0.7,0.7h-6.8V25.1c0-1.3-1.1-2.4-2.4-2.4h-3.8c-0.4-1.7-1.9-2.9-3.7-2.9c-2.1,0-3.8,1.7-3.8,3.8 c0,2.1,1.7,3.8,3.8,3.8c1.9,0,3.4-1.3,3.7-2.9h3.7c0.4,0,0.7,0.4,0.7,0.7v23.4c-0.6-0.1-1.2-0.3-1.7-0.5c-1.6,1.3-4.1,2.1-7.1,2.1 c-2.4,0-5.5-0.6-7.4-2.2c-0.7,0.2-1.6,0.4-2.4,0.4c-0.2,0-0.3,0-0.5,0V37.5c0-1.3-1.1-2.4-2.4-2.4h-3.1c-0.4-1.7-1.9-2.9-3.7-2.9 c-2.1,0-3.8,1.7-3.8,3.8c0,2.1,1.7,3.8,3.8,3.8c1.8,0,3.3-1.3,3.7-2.9h3.1c0.4,0,0.7,0.4,0.7,0.7V48c-1.8-0.4-3.5-1.4-4.9-2.7 c-1.2,0.5-2.4,0.7-3.7,0.7c-3.3,0-6.3-1.8-8.1-4.8c-1.7-2.9-2-6.4-0.7-9.5c1.3-3.3,4-5.7,7.8-7.1c1.2-4.4,5.5-7.9,9.9-7.9 c0.3,0,0.7,0,1,0.1c0.1,0,0,0,0,0v12.3c0,1.3,1.1,2.4,2.4,2.4h5.4c0.4,0,0.7,0.4,0.7,0.7v3.5c-1.7,0.3-3,1.9-3,3.7 c0,2.1,1.7,3.8,3.8,3.8c2.2,0,3.9-1.7,3.8-3.8c0-1.7-1.2-3.2-2.8-3.7v-3.6c-0.1-1.5-1.2-2.6-2.4-2.6h-5.4c-0.4,0-0.7-0.4-0.7-0.7 V16.2c0,0-0.3,0.2,0-0.1c1.7-1.2,4-2.1,6.5-2.1c1.3,0,2.6,0.2,3.7,0.9c1.3-0.6,2.8-1,4.3-1c2.4,0,4.8,0.9,7.1,2.6h0.6 c5.6,0,9.5,4.5,10.9,9.2c2.9,1.3,5.2,3.7,6.3,6.2C62.8,34.3,62.8,37,61.5,39.6z"></path> <path class="st1" d="M21.1,48.2c0,0,0.1,0,0.1,0v0C21.2,48.2,21.2,48.2,21.1,48.2z M19.5,48c0.1,0,0.1,0,0.2,0 C19.7,48,19.6,48,19.5,48L19.5,48z M40.4,48.6L40.4,48.6c0.6,0.2,1.1,0.3,1.7,0.3v-0.1C41.5,48.7,41,48.7,40.4,48.6z"></path> </g> </g> </svg> 