<?xml version="1.0" encoding="UTF-8"?> <svg xmlns="http://www.w3.org/2000/svg" xmlns:xlink="http://www.w3.org/1999/xlink" version="1.1" id="Layer_1" x="0px" y="0px" viewBox="0 0 64 64" style="enable-background:new 0 0 64 64;" xml:space="preserve"> <style type="text/css"> .st0{fill:#0179D5;} </style> <path class="st0" d="M62.5,38.7c-0.8-4.2-3.3-7-7.2-8.7c-1-0.4-0.9-0.4-0.8-1.5c0.8-5.4-0.7-10.1-4.7-13.9 c-5.5-5.1-14.3-4.9-19.5,0.5c-1.3,1.3-2.3,2.8-3.1,4.5c-0.1,0.3-0.3,0.4-0.5,0.1c0-0.1-0.1-0.1-0.2-0.2c-2.6-2.8-7-3.9-10.6-2.5 c-5,1.9-7.7,7.1-6.6,12.3c0.1,0.4,0,0.6-0.4,0.8c-4.2,1.8-6.8,4.9-7.2,9.6c-0.4,4.3,1.1,7.8,4.5,10.5c2.2,1.8,4.9,2.5,7.7,2.5 c6.1,0,12.2,0,18.3,0h18c0.8,0,1.7,0,2.5-0.2C59.5,51.5,63.7,45.3,62.5,38.7z M38.1,42c-1.8,0.2-3.6,0-5.3-0.8 c-0.4-0.2-0.6-0.1-0.9,0.2c-2,2-4,4.1-6,6.1c-0.3,0.3-0.7,0.7-1.1,0.8c-1.2,0.5-2.5,0.1-3.3-1c-0.8-1.1-0.7-2.5,0.3-3.4 c2.1-2.1,4.2-4.3,6.3-6.4c0.3-0.3,0.3-0.5,0.2-0.9c-2.8-6,1-12.8,7.6-13.6c0.4,0,0.8,0,1.1-0.1c5.1,0,8.7,3.8,9.5,8.1 C47.3,36.1,43.3,41.4,38.1,42z"></path> <path class="st0" d="M42.9,32.3c0,3.5-2.5,6.1-6,6.1c-3.2,0-5.8-2.5-5.9-5.7c0-3.4,2.5-6,6-6.1C40.1,26.5,42.9,29.2,42.9,32.3z"></path> </svg> 