<?xml version="1.0" encoding="UTF-8"?> <svg xmlns="http://www.w3.org/2000/svg" xmlns:xlink="http://www.w3.org/1999/xlink" id="layer" x="0px" y="0px" viewBox="0 0 652 652" style="enable-background:new 0 0 652 652;" xml:space="preserve"> <style type="text/css"> .st0{fill:#0693CF;} .st1{fill:#FFC528;} .st2{fill:#EE3425;} .st3{clip-path:url(#SVGID_2_);fill:url(#SVGID_3_);} .st4{fill:#FFFFFF;} </style> <g> <g> <rect x="-52" y="515.9" class="st0" width="755.5" height="32.5"></rect> <rect x="-52" y="482.9" class="st1" width="755.5" height="33"></rect> <path class="st2" d="M-21.5,580.9H673c17-1,30.5-15.1,30.5-32.4v-0.1H-52v0.1C-52,565.8-38.5,579.9-21.5,580.9"></path> </g> <g> <defs> <path id="SVGID_1_" d="M-19.5,80.9c-17.9,0-32.5,14.5-32.5,32.5V483h755.5V113.4c0-17.9-14.5-32.5-32.4-32.5H-19.5z"></path> </defs> <clipPath id="SVGID_2_"> <use xlink:href="#SVGID_1_" style="overflow:visible;"></use> </clipPath> <linearGradient id="SVGID_3_" gradientUnits="userSpaceOnUse" x1="-269.858" y1="753.8054" x2="-258.8011" y2="753.8054" gradientTransform="matrix(-64.9598 -49.5148 -49.5148 64.9598 20449.4941 -61796.207)"> <stop offset="0" style="stop-color:#223267"></stop> <stop offset="0.1778" style="stop-color:#22366B"></stop> <stop offset="0.3589" style="stop-color:#234277"></stop> <stop offset="0.5415" style="stop-color:#24568C"></stop> <stop offset="0.7252" style="stop-color:#2672A8"></stop> <stop offset="0.908" style="stop-color:#2896CD"></stop> <stop offset="1" style="stop-color:#29ABE2"></stop> </linearGradient> <polygon class="st3" points="425.9,847.2 -245.8,335.2 225.7,-283.4 897.4,228.7 "></polygon> </g> <g> <path class="st4" d="M228.1,269.4c0-21.4-11.3-33.9-20.3-33.9c-5,0-8.9,1.6-12.2,5.3c-6,6.8-8.4,15-8.4,29.2 c0,11.3,0.8,18.7,6,27.1c3.3,5.3,7.7,8.4,15.4,8.4C221.5,305.4,228.1,289.3,228.1,269.4 M238.4,239.2c9.1,9.2,13.4,19.3,13.4,30.7 c0,10.9-4.7,21.4-12.1,29.6c-8,9-19.6,14-32.7,14c-12.3,0-22.8-3.5-31.6-14c-8.6-10.1-10.5-18.3-10.5-30.2 c0-9.3,4.7-22.9,16.3-32.3c9.6-7.8,19.7-9.4,27.6-9.4C222.1,227.7,231.8,232.8,238.4,239.2"></path> <path class="st4" d="M454.8,255c4.1,0,6.5-1.1,6.5-2.7c0-5.8-2-17.3-12.1-17.3c-9.5,0-15.4,7-17.9,20.1H454.8z M430.7,268.1 c0,19.9,14.2,31.5,25.3,31.5c12.1,0,19.4-5.1,23.5-11.3c0.8-1.3,1.6-1.3,2.4-1l2.9,1.7c1,0.6,1.4,1.4,0,3.9 c-4.1,7.4-14,20.6-35.4,20.6c-12.5,0-21.2-2.7-28-10.4c-8.9-10.3-10.9-20.1-10.9-32.1c0-10.7,1.2-18,9.6-28.8 c8.2-10.5,16.9-14.4,33.9-14.4c22.2,0,29.4,23.2,29.4,31.2c0,2.9-2,3.1-5.5,3.1h-47.1V268.1z"></path> <path class="st4" d="M506.3,261.2c0-9-1.5-12.1-7.4-15.2l-3.5-2c-1.2-0.4-1.5-0.8-1.5-1.6v-1.1c0-0.8,0.4-1.1,1.5-1.7l23.5-11.1 c1.2-0.4,1.9-0.8,3.1-0.8c1.1,0,1.5,1.2,1.7,2.4l1.8,14h0.8c6.6-10.9,14.8-17.5,23.4-17.5c6.2,0,10.1,4.3,10.1,9.7 c0,5.5-5.4,10.5-10.5,10.5c-2.7,0-5-0.7-6.6-1.5c-1.6-1.2-3.4-1.6-5.5-1.6c-2.3,0-5.8,1.6-8.1,5.6c-1.6,2.7-2.4,7-2.4,9.6v37.6 c0,6.2,1.6,8.2,5.5,8.2h8.6c1.2,0,1.5,0.4,1.5,1.3v4.5c0,1-0.4,1.3-1.3,1.3c-1.3,0-9.9-0.6-24.1-0.6c-13.6,0-21.2,0.6-22.7,0.6 c-1,0-1.4-0.4-1.4-1.3v-4.3c0-1.2,0.4-1.6,1.7-1.6h6.9c3.1,0,5-1.5,5-5.3V261.2z"></path> <path class="st4" d="M565.9,286.8c-0.2-0.8,0-1.4,0.6-1.6l3.7-1.1c0.8-0.2,1.4-0.2,1.7,0.6l6.4,10.9c3.5,5.9,7.2,10.5,16.8,10.5 c7.6,0,13.8-4.6,13.8-11.9c0-7.8-5.1-11.3-18.7-15.2c-13.3-3.9-23.8-10.5-23.8-24.3c0-8.6,3.1-15.6,10-20.4 c6.8-4.7,12.3-6.4,20.2-6.4c9.5,0,15.4,2.4,18.9,4.3c2.9,1.5,3.5,2.3,3.7,3.5l2.6,13.3c0.1,0.8,0.1,1.7-0.2,2.1l-3.7,1.7 c-0.6,0.2-1.1,0-1.5-0.8l-9.4-10.5c-2.4-2.5-5.8-6-12.3-6c-7.2,0-13.4,4.3-13.4,11.1c0,8,5.8,10.3,17.5,13.4 c9,2.3,14.4,4.7,19.4,10.1c4.3,4.3,5.9,9,5.9,15.6c0,16.3-13.2,28-32.5,28c-10.3,0-18.8-3.3-21-5c-0.7-0.8-1.3-1.3-1.5-2.2 L565.9,286.8z"></path> <path class="st4" d="M402.1,304.7h-7.8c-1.9,0-2.8-1.5-3.1-5.1c-0.4-2.3-0.4-9.4-0.4-16.8v-21c0-16.2,0-28.6,0.4-31.7 c0.2-1.6-0.4-2.4-1.6-2.4c-1.2,0-2.7,0.4-4.7,1.2c-3.3,1.3-22.5,8.2-25.3,9.3c-1,0.4-1.4,0.8-1.4,1.5v2.2c0,0.8,0.2,1.3,2,1.7 c9,2.4,10.1,6.3,10.1,12.1v27.5c0,5.4-0.2,11.7-0.4,17.5c-0.2,3.1-1.2,3.9-3.1,3.9c0,0-1.4,0.3-9.6,0.3c-8.3,0-10.5-0.3-10.5-0.3 c-4.2,0-4.6-2.7-5-6.2c-0.4-5.8-0.4-25.7-0.4-34.6v-28.1c0-10.7,0.4-51.2,0.8-61.7c0-2.8-0.8-3.5-1.9-3.5c-0.8,0-1.9,0.4-4.3,1.2 c-6.3,3.9-21.4,8.9-29.2,11.3c-1.2,0.4-1.5,1.1-1.5,1.5v2.3c0,0.8,0,1.2,1.2,1.6l3.9,1.1c6.2,1.9,9.6,5.1,9.9,11.7 c0.4,5.1,0.8,21.8,0.8,35.4v61c0,5.5-3,7-4.9,7c0,0-2.9,0.3-10.1,0.3c-7.2,0-9.9-0.3-9.9-0.3c-4.3,0-4.7-2.7-5.1-6.2 c-0.4-5.8-0.4-25.7-0.4-34.6v-28.1c0-10.7,0.4-51.2,0.8-61.7c0-2.8-0.8-3.5-1.9-3.5c-0.8,0-1.9,0.4-4.3,1.2 c-6.2,3.9-21.4,8.9-29.2,11.3c-1.2,0.4-1.6,1.1-1.6,1.5v2.3c0,0.8,0,1.2,1.2,1.6l3.9,1.1c6.2,1.9,9.5,5.1,9.9,11.7 c0.4,5.1,0.8,21.8,0.8,35.4v61c0,5.5-2.9,7-4.8,7h-7.4c-2.3,0-2.7,0.4-2.7,1.6v3.7c0,1.2,0.4,1.9,1.6,1.9c0.7,0,38.1-0.3,74.8-0.3 c35.4,0,70.2,0.3,71,0.3c1.2,0,1.5-0.8,1.5-1.9V306C404.1,305,403.7,304.7,402.1,304.7"></path> <path class="st4" d="M154.5,283.3c-1.3-1.2-3.5-3.2-3.7-3.4c-0.2-0.2-0.9,0-1.1,0.2c-8.6,11-24.7,20.4-44.8,20.4 c-9.4,0-20.7-1.5-33.5-15.2c-14.4-15.6-17.9-38.6-17.9-50.6c0-28,12.8-56,43.9-56c15.2,0,25.4,6.2,33.9,14.4 c8.2,8.5,12.8,18.3,15.2,25.3c0.6,1.6,1.2,2.4,2.2,2l3.7-1.2c0.8-0.2,1-0.8,0.8-2c-0.8-5.8-4.7-36.9-4.7-40.4 c0-2.7-0.4-3.1-2.7-3.1c-2.3,0-2.7,0-3.1,1.2l-1.6,5c-0.4,1.5-1.1,1.5-3.9,0c-7-3.8-21.4-9.3-39.3-9.3c-23.3,0-40.1,9.3-50.6,20.6 c-13.6,14.8-19.8,33.1-19.8,52.2c0,17.1,6.6,39.7,21,52.6c12.1,10.9,26.1,18.3,51,18.3c25.6,0,43.5-13.8,55.3-29.1 C155,284.8,155.1,283.8,154.5,283.3"></path> <path class="st4" d="M390.1,202.7c0,6.6-5.3,11.8-11.9,11.8c-6.6,0-11.9-5.3-11.9-11.8c0-6.6,5.3-11.9,11.9-11.9 C384.8,190.8,390.1,196.2,390.1,202.7"></path> <rect x="35.6" y="346.3" class="st4" width="6.5" height="43.6"></rect> <polygon class="st4" points="95.6,389.9 91.4,389.9 65.7,357.2 65.7,389.9 59.3,389.9 59.3,346.3 65,346.3 90.1,378.2 90.1,347.2 90.1,346.3 96.5,346.3 96.5,389.9 "></polygon> <polygon class="st4" points="124.3,389.9 124.3,352.4 110.3,352.4 110.3,346.3 145,346.3 145,352.4 130.9,352.4 130.9,389.1 130.9,389.9 "></polygon> <polygon class="st4" points="158.8,389.9 158.8,346.3 190.8,346.3 190.8,347.2 190.8,351.4 190.8,352.3 165.3,352.3 165.3,364.9 188.1,364.9 188.1,370.9 165.3,370.9 165.3,383.9 191.1,383.9 191.1,389.9 "></polygon> <polygon class="st4" points="291.9,389.9 287.7,389.9 261.9,357.2 261.9,389.9 255.6,389.9 255.6,346.3 261.3,346.3 286.4,378.2 286.4,347.2 286.4,346.3 292.7,346.3 292.7,389.9 "></polygon> <path class="st4" d="M343.8,389.9l-4.9-11.1h-21.6l-5,11.1h-6.8l19.9-43.9h5.6l19.9,43.9H343.8z M319.9,372.8h16.4l-8.2-18.3 L319.9,372.8z"></path> <polygon class="st4" points="369.2,389.9 369.2,352.4 355.2,352.4 355.2,346.3 389.8,346.3 389.8,352.4 375.8,352.4 375.8,389.1 375.8,389.9 "></polygon> <rect x="404.1" y="346.3" class="st4" width="6.5" height="43.6"></rect> <polygon class="st4" points="521.7,389.9 517.5,389.9 491.7,357.2 491.7,389.9 485.4,389.9 485.4,346.3 491.1,346.3 516.2,378.2 516.2,347.2 516.2,346.3 522.5,346.3 522.5,389.9 "></polygon> <path class="st4" d="M573.6,389.9l-4.9-11.1H547l-5,11.1h-6.8l19.9-43.9h5.6l19.9,43.9H573.6z M549.6,372.8H566l-8.1-18.3 L549.6,372.8z"></path> <polygon class="st4" points="593.3,389.9 593.3,347.2 593.3,346.3 599.8,346.3 599.8,383.8 623.4,383.8 623.4,389.9 "></polygon> <path class="st4" d="M224.1,367.6h-12v-15.2h12.1c6.6,0.1,9.8,2.8,9.8,7.4C233.9,364.7,230.1,367.6,224.1,367.6 M229.8,372.5 c6.1-1.5,10.8-5.9,10.7-12.8c0-8.1-6.5-13.4-16-13.4h-18.9v43.6h6.5v-16.2h10.6l12.2,16.2h8L229.8,372.5z"></path> <path class="st4" d="M448.2,384.5c-9.1,0-15.6-7.3-15.6-16.5c0.1-9.2,6.5-16.4,15.5-16.4c9.1,0,15.6,7.3,15.6,16.5 C463.7,377.3,457.3,384.5,448.2,384.5 M448.2,345.5c-13.2,0.1-22.3,10.6-22.3,22.6c0,12,9,22.4,22.2,22.5 c13.2,0,22.3-10.5,22.3-22.6C470.4,356,461.5,345.6,448.2,345.5"></path> </g> </g> </svg> 