<?xml version="1.0" encoding="UTF-8"?> <svg xmlns="http://www.w3.org/2000/svg" width="64" height="64" viewBox="0 0 64 64" fill="none"><path d="M30.6 47.5001L29.1 46.4001C29.1 46.0001 29.1 45.6001 29.1 45.2001L30.6 44.1001C30.8 43.9001 30.9 43.6001 30.8 43.3001L29.3 40.7001C29.1 40.4001 28.8 40.3001 28.5 40.4001L26.7 41.0001C26.4 40.8001 26 40.5001 25.6 40.4001L25.3 38.6001C25.3 38.3001 25 38.1001 24.7 38.1001H21.7C21.4 38.1001 21.1 38.3001 21.1 38.6001L20.8 40.4001C20.4 40.6001 20.1 40.8001 19.7 41.0001L18 40.3001C17.7 40.2001 17.4 40.3001 17.2 40.6001L15.7 43.2001C15.5 43.5001 15.6 43.8001 15.9 44.0001L17.4 45.1001C17.4 45.5001 17.4 45.9001 17.4 46.3001L16 47.5001C15.8 47.7001 15.7 48.0001 15.8 48.3001L17.3 50.9001C17.5 51.2001 17.8 51.3001 18.1 51.2001L19.8 50.5001C20.1 50.7001 20.5 50.9001 20.9 51.1001L21.2 52.9001C21.2 53.2001 21.5 53.4001 21.8 53.4001H24.8C25.1 53.4001 25.4 53.2001 25.4 52.9001L25.7 51.1001C26.1 50.9001 26.4 50.7001 26.8 50.5001L28.5 51.2001C28.8 51.3001 29.1 51.2001 29.3 50.9001L30.8 48.3001C30.9 48.0001 30.8 47.7001 30.6 47.5001Z" stroke="black" stroke-miterlimit="10"></path><path d="M51 7.2002H12.9V56.8002H51V7.2002Z" stroke="black" stroke-miterlimit="10" stroke-linecap="round" stroke-linejoin="round"></path><path d="M23.3 48.7002C24.9568 48.7002 26.3 47.357 26.3 45.7002C26.3 44.0433 24.9568 42.7002 23.3 42.7002C21.6431 42.7002 20.3 44.0433 20.3 45.7002C20.3 47.357 21.6431 48.7002 23.3 48.7002Z" stroke="black" stroke-miterlimit="10"></path><path d="M30.8 11.8003H17.1V18.9003H30.8V11.8003Z" stroke="black" stroke-miterlimit="10" stroke-linecap="round" stroke-linejoin="round"></path><path d="M17.1 21.4004H30.8" stroke="black" stroke-miterlimit="10" stroke-linecap="round" stroke-linejoin="round"></path><path d="M17.1 23.9004H30.8" stroke="black" stroke-miterlimit="10" stroke-linecap="round" stroke-linejoin="round"></path><path d="M20.1 26.5H30.8" stroke="black" stroke-miterlimit="10" stroke-linecap="round" stroke-linejoin="round"></path><path d="M17.1 26.5H17.8" stroke="black" stroke-miterlimit="10" stroke-linecap="round" stroke-linejoin="round"></path><path d="M33.8 46.8003H47.5" stroke="black" stroke-miterlimit="10" stroke-linecap="round" stroke-linejoin="round"></path><path d="M33.8 49.3003H47.5" stroke="black" stroke-miterlimit="10" stroke-linecap="round" stroke-linejoin="round"></path><path d="M33.8 51.8003H47.5" stroke="black" stroke-miterlimit="10" stroke-linecap="round" stroke-linejoin="round"></path><path d="M17.1 34.8003H47.5" stroke="black" stroke-miterlimit="10" stroke-linecap="round" stroke-linejoin="round"></path><path d="M17.1 29.9004H47.5" stroke="black" stroke-miterlimit="10" stroke-linecap="round" stroke-linejoin="round"></path><path d="M17.1 32.4004H47.5" stroke="black" stroke-miterlimit="10" stroke-linecap="round" stroke-linejoin="round"></path><path d="M36.8 44.3003H47.5" stroke="black" stroke-miterlimit="10" stroke-linecap="round" stroke-linejoin="round"></path><path d="M33.8 44.3003H34.5" stroke="black" stroke-miterlimit="10" stroke-linecap="round" stroke-linejoin="round"></path><path d="M43.2 17.7002L44.3 16.7002" stroke="black" stroke-linecap="round" stroke-linejoin="round"></path><path d="M43.2 17.7002L44.3 16.7002" stroke="url(#paint0_linear_1576_33640)" stroke-linecap="round" stroke-linejoin="round"></path><path d="M38 20.0004L39.3 21.6004L42.1 18.9004" stroke="black" stroke-linecap="round" stroke-linejoin="round"></path><path d="M38 20.0004L39.3 21.6004L42.1 18.9004" stroke="url(#paint1_linear_1576_33640)" stroke-linecap="round" stroke-linejoin="round"></path><path d="M41.2 25.5002C44.7346 25.5002 47.6 22.6348 47.6 19.1002C47.6 15.5656 44.7346 12.7002 41.2 12.7002C37.6654 12.7002 34.8 15.5656 34.8 19.1002C34.8 22.6348 37.6654 25.5002 41.2 25.5002Z" stroke="black" stroke-linecap="round" stroke-linejoin="round"></path><path d="M41.2 25.5002C44.7346 25.5002 47.6 22.6348 47.6 19.1002C47.6 15.5656 44.7346 12.7002 41.2 12.7002C37.6654 12.7002 34.8 15.5656 34.8 19.1002C34.8 22.6348 37.6654 25.5002 41.2 25.5002Z" stroke="url(#paint2_linear_1576_33640)" stroke-linecap="round" stroke-linejoin="round"></path><defs><linearGradient id="paint0_linear_1576_33640" x1="43.5682" y1="17.0423" x2="44.6183" y2="18.0469" gradientUnits="userSpaceOnUse"><stop offset="0.236106" stop-color="#DA291C"></stop><stop offset="1" stop-color="#FFCD00"></stop></linearGradient><linearGradient id="paint1_linear_1576_33640" x1="39.3723" y1="19.8241" x2="42.1039" y2="23.4318" gradientUnits="userSpaceOnUse"><stop offset="0.236106" stop-color="#DA291C"></stop><stop offset="1" stop-color="#FFCD00"></stop></linearGradient><linearGradient id="paint2_linear_1576_33640" x1="39.0842" y1="17.0791" x2="52.4083" y2="28.6677" gradientUnits="userSpaceOnUse"><stop offset="0.236106" stop-color="#DA291C"></stop><stop offset="1" stop-color="#FFCD00"></stop></linearGradient></defs></svg> 