<?xml version="1.0" encoding="UTF-8"?> <svg xmlns="http://www.w3.org/2000/svg" width="64" height="64" viewBox="0 0 64 64" fill="none"><path d="M30.5463 23.5982C28.3917 22.9974 26.8074 21.037 26.8074 18.6972C26.8074 15.883 29.0887 13.6064 31.9087 13.6064C34.7288 13.6064 37.0101 15.883 37.0101 18.6972C37.0101 20.9738 35.505 22.9025 33.4296 23.5507" stroke="white" stroke-miterlimit="10"></path><path d="M45.4543 44.5625L48.306 50.1275" stroke="white" stroke-miterlimit="10"></path><path d="M27.9956 21.749L16.2402 44.5624H20.1217L31.9087 21.6699L43.6958 44.5624H47.5772L35.8219 21.749" stroke="white" stroke-miterlimit="10"></path><path d="M18.3632 44.5625L15.5115 50.1275" stroke="white" stroke-miterlimit="10"></path><path d="M24.3992 37.3213H29.9283" stroke="black" stroke-miterlimit="10"></path><path d="M24.3992 37.3213H29.9283" stroke="url(#paint0_linear_506_13246)" stroke-miterlimit="10"></path><path d="M33.8892 37.3213H39.4183" stroke="black" stroke-miterlimit="10"></path><path d="M33.8892 37.3213H39.4183" stroke="url(#paint1_linear_506_13246)" stroke-miterlimit="10"></path><path d="M33.8892 37.3209C33.8892 38.4118 33.002 39.2971 31.9088 39.2971C30.8157 39.2971 29.9285 38.4118 29.9285 37.3209C29.9285 36.2301 30.8157 35.3447 31.9088 35.3447C33.002 35.3447 33.8892 36.2301 33.8892 37.3209Z" stroke="black" stroke-miterlimit="10"></path><path d="M33.8892 37.3209C33.8892 38.4118 33.002 39.2971 31.9088 39.2971C30.8157 39.2971 29.9285 38.4118 29.9285 37.3209C29.9285 36.2301 30.8157 35.3447 31.9088 35.3447C33.002 35.3447 33.8892 36.2301 33.8892 37.3209Z" stroke="url(#paint2_linear_506_13246)" stroke-miterlimit="10"></path><path d="M30.1343 13.3855V10.7453C30.1343 9.76511 30.9264 8.97461 31.9087 8.97461C32.8909 8.97461 33.683 9.76511 33.683 10.7453V13.3855" stroke="white" stroke-miterlimit="10"></path><path d="M14.9887 39.2501C13.9431 36.9577 13.3569 34.4281 13.3569 31.7405C13.3569 24.0886 18.1098 17.5434 24.8429 14.8874L25.3974 14.666" stroke="white" stroke-miterlimit="10"></path><path d="M41.5887 47.1549C38.8162 48.8781 35.5367 49.8584 32.0355 49.8584C28.5342 49.8584 25.4924 48.9414 22.7833 47.3288L21.9595 46.8545" stroke="white" stroke-miterlimit="10"></path><path d="M38.9746 15.0459C45.486 17.7968 50.0645 24.2313 50.0645 31.7409C50.0645 34.1756 49.5893 36.4838 48.7179 38.6023" stroke="white" stroke-miterlimit="10"></path><defs><linearGradient id="paint0_linear_506_13246" x1="26.2498" y1="37.6634" x2="26.6688" y2="39.6785" gradientUnits="userSpaceOnUse"><stop offset="0.236106" stop-color="#DA291C"></stop><stop offset="1" stop-color="#FFCD00"></stop></linearGradient><linearGradient id="paint1_linear_506_13246" x1="35.7398" y1="37.6634" x2="36.1588" y2="39.6785" gradientUnits="userSpaceOnUse"><stop offset="0.236106" stop-color="#DA291C"></stop><stop offset="1" stop-color="#FFCD00"></stop></linearGradient><linearGradient id="paint2_linear_506_13246" x1="31.2541" y1="36.6969" x2="35.3696" y2="40.2837" gradientUnits="userSpaceOnUse"><stop offset="0.236106" stop-color="#DA291C"></stop><stop offset="1" stop-color="#FFCD00"></stop></linearGradient></defs></svg> 