<?xml version="1.0" encoding="UTF-8"?> <svg xmlns="http://www.w3.org/2000/svg" xmlns:xlink="http://www.w3.org/1999/xlink" version="1.1" id="Layer_1" x="0px" y="0px" viewBox="0 0 180 60" style="enable-background:new 0 0 180 60;" xml:space="preserve"> <style type="text/css"> .st0{fill-rule:evenodd;clip-rule:evenodd;} </style> <g> <path class="st0" d="M139.4,11L139.4,11c0-2.5-2-4.5-4.5-4.5s-4.5,2-4.5,4.5c0,2.4,1.9,4.4,4.2,4.5c-0.4,1.2-0.8,2.2-0.8,2.2 c2.1,0,5.5-2.7,5.5-6.5C139.4,11.1,139.4,11.2,139.4,11L139.4,11L139.4,11z M148.8,49.9c0,0-6.4-8.3-27.4-8.3 c-8,0-7.9-0.8-24.9,2.4c-19,3.6-38.7,10.8-49.7-0.3c-2.7-2.7-4-7.5-4-11.7c0-9.6,4.1-14.5,7.9-18.3c4.1-4.1,11.6-6,14.2-6 c1.6,0,3.4,0.5,2.6,1.3s-1.4,0.9-1.4,3.4c0,2,1.7,4.4,5,4.4c2.4,0,5.8-2.2,5.8-5.7c0-3-1.2-4.4-2.3-5.4c-2.6-2.8-7.7-4-12.1-4 c-8,0-18.1,3.6-24.1,9.6c-4.2,4.2-9.1,11.9-9.1,20.2c0,11.1,3.3,15.1,5.4,17.2c2.2,2.2,6.6,6.9,19.5,6.9c15,0,25.3-6.2,43.9-6.2 c6.4,0,21.6,1.4,28.9,8.8C128.2,57.1,141.2,49.9,148.8,49.9z"></path> <path class="st0" d="M141.5,18.3c0-2.7,0.6-6.6,1.8-7.9c1.2-1.2,1.8-1.4,3.3-1.4c2.2,0,3.9,2.4,3.1,3.4c-0.8,0.9-2.4,2.7-2.4,7.1 c0,2.9,3.3,6,3.3,12.5c0,5.3-4.6,8.4-8.2,8.4c-3.4,0-4.9-0.6-6.7-2.4c-2.4-2.4-1.9-5.4-1.9-5.4s-8.4,7.8-14.3,7.8 c-2.3,0-3.6-1.8-3.6-3.8c0-4.1,4.6-8.1,4.6-10.7c0-2.2-0.8-2.3-1.4-2.3c-4.1,0-9.7,16.4-9.7,16.4h-7.5c0,0,1.6-4.2,1.2-4 c-0.5,0.2-3.4,4.5-9.1,4.5c-2.4,0-2.9-1.7-2.9-3.2c0-3.7,6.2-12.8,2.2-12.8c-4.7,0-9.1,15.6-9.1,15.6h-8.1l5.8-14 c0,0-5.8,1.9-6,2.3c-0.1,0.5-2.2,5.5-5.2,8.6c-2.4,2.4-4.7,4.3-9,4.3c-4.5,0-6.7-2.8-6.7-7.1c0-4.6,2-8.3,4.8-11 c3.2-3.2,7.5-4.9,10.4-4.9c1.7,0,3.5,0.5,4.7,1.7c1.8,1.8,1.8,4.3,1.8,4.3s0.6,0.4,3.4-0.9c3.3-1.5,5.1-4.8,5.1-4.8h8.3l-0.1,1.7 c1,0,2.1-2,6.2-2c2.1,0,3.7,1.7,3.7,3.9c0,4.8-7,12.8-3.8,12.8c1.1,0,2.2-1.1,3.5-2.5c2.4-2.4,7.9-14.2,7.9-14.2h8.1 c0,0-0.4,1.7-0.4,1.6c0,0,1.9-1.9,6-1.9c0.5,0,1.8,0.5,2.6,1.3c1.1,1.1,1.3,2.6,1.3,3.8c0,3.8-6.9,11.9-3.7,11.9 c1.7,0,5-2.2,7.2-4.5C133.9,28.5,141.5,19.6,141.5,18.3L141.5,18.3z M141.7,22.5c0,0-4.7,6.3-5.5,7.2c-0.7,0.7,1.5-0.9,3.1,0.7 c1.7,1.7,0.7,3.8,0.2,4.3c-0.8,0.8-0.6,1.2,0,1.2c1.3,0,2.6-1.9,2.6-4.2C142,26,141.7,22.5,141.7,22.5z M69.8,22.7 c0,0-7.9,3.7-7.9,11c0,0.7,0.4,2.1,2.2,2.1c2.8,0,7.8-6.3,7.8-7.9c0-0.7-1.2,0.3-2.5-1C67.9,25.4,69.8,22.7,69.8,22.7z"></path> </g> </svg> 