<?xml version="1.0" encoding="UTF-8"?> <svg xmlns="http://www.w3.org/2000/svg" xmlns:xlink="http://www.w3.org/1999/xlink" version="1.1" id="Layer_1" x="0px" y="0px" viewBox="0 0 77 76" style="enable-background:new 0 0 77 76;" xml:space="preserve"> <style type="text/css"> .st0{fill:#FFFFFF;} .st1{fill:url(#SVGID_1_);} .st2{fill:none;} </style> <path class="st0" d="M69,50.3h-3.2V18c0-0.9-0.8-1.6-1.9-1.6H13.1c-1.1,0-1.9,0.8-1.9,1.6v32.3H8c-1.1,0-1.9,0.8-1.9,1.6 c0,4.2,4,7.7,9,7.7h46.7c5,0,9-3.5,9-7.7C70.9,51,70,50.3,69,50.3z M13,17.9H64v32.4H13V17.9z M69,51.9c0,3.4-3.2,6.2-7.2,6.2H15.2 c-4,0-7.2-2.8-7.2-6.2v-0.1L69,51.9L69,51.9z"></path> <path d="M49.3,29.7c-0.2-0.1-0.4-0.2-0.6-0.2h-3.2v-1.9c0-3.2-3.1-5.9-7-5.9s-7,2.7-7,5.9v1.9h-3.2c-0.2,0-0.5,0.1-0.6,0.2 c-0.2,0.1-0.2,0.3-0.2,0.5V45c0,0.9,0.8,1.6,1.9,1.6h18.3c1.1,0,1.9-0.7,1.9-1.6V30.2C49.5,30,49.4,29.8,49.3,29.7z M33.3,27.6 c0-2.5,2.4-4.5,5.2-4.5s5.2,2,5.2,4.5v1.9H33.3V27.6z M47.8,45.1H29.2V30.9h2.3v2.8c0,0.2,0.1,0.4,0.2,0.5c0.2,0.1,0.4,0.2,0.6,0.2 c0.2,0,0.5-0.1,0.6-0.2c0.2-0.1,0.2-0.3,0.2-0.5v-2.8h10.4v2.8c0,0.2,0.1,0.4,0.2,0.5c0.2,0.1,0.4,0.2,0.6,0.2 c0.2,0,0.5-0.1,0.6-0.2c0.2-0.1,0.2-0.3,0.2-0.5v-2.8h2.3V45.1z"></path> <linearGradient id="SVGID_1_" gradientUnits="userSpaceOnUse" x1="32.919" y1="45.4417" x2="58.5524" y2="25.7129" gradientTransform="matrix(1 0 0 -1 0 78)"> <stop offset="0.2361" style="stop-color:#DA291C"></stop> <stop offset="1" style="stop-color:#FFCD00"></stop> </linearGradient> <path class="st1" d="M49.3,29.7c-0.2-0.1-0.4-0.2-0.6-0.2h-3.2v-1.9c0-3.2-3.1-5.9-7-5.9s-7,2.7-7,5.9v1.9h-3.2 c-0.2,0-0.5,0.1-0.6,0.2c-0.2,0.1-0.2,0.3-0.2,0.5V45c0,0.9,0.8,1.6,1.9,1.6h18.3c1.1,0,1.9-0.7,1.9-1.6V30.2 C49.5,30,49.4,29.8,49.3,29.7z M33.3,27.6c0-2.5,2.4-4.5,5.2-4.5s5.2,2,5.2,4.5v1.9H33.3V27.6z M47.8,45.1H29.2V30.9h2.3v2.8 c0,0.2,0.1,0.4,0.2,0.5c0.2,0.1,0.4,0.2,0.6,0.2c0.2,0,0.5-0.1,0.6-0.2c0.2-0.1,0.2-0.3,0.2-0.5v-2.8h10.4v2.8 c0,0.2,0.1,0.4,0.2,0.5c0.2,0.1,0.4,0.2,0.6,0.2c0.2,0,0.5-0.1,0.6-0.2c0.2-0.1,0.2-0.3,0.2-0.5v-2.8h2.3V45.1z"></path> <path class="st2" d="M49.3,29.7c-0.2-0.1-0.4-0.2-0.6-0.2h-3.2v-1.9c0-3.2-3.1-5.9-7-5.9s-7,2.7-7,5.9v1.9h-3.2 c-0.2,0-0.5,0.1-0.6,0.2c-0.2,0.1-0.2,0.3-0.2,0.5V45c0,0.9,0.8,1.6,1.9,1.6h18.3c1.1,0,1.9-0.7,1.9-1.6V30.2 C49.5,30,49.4,29.8,49.3,29.7z M33.3,27.6c0-2.5,2.4-4.5,5.2-4.5s5.2,2,5.2,4.5v1.9H33.3V27.6z M47.8,45.1H29.2V30.9h2.3v2.8 c0,0.2,0.1,0.4,0.2,0.5c0.2,0.1,0.4,0.2,0.6,0.2c0.2,0,0.5-0.1,0.6-0.2c0.2-0.1,0.2-0.3,0.2-0.5v-2.8h10.4v2.8 c0,0.2,0.1,0.4,0.2,0.5c0.2,0.1,0.4,0.2,0.6,0.2c0.2,0,0.5-0.1,0.6-0.2c0.2-0.1,0.2-0.3,0.2-0.5v-2.8h2.3V45.1z"></path> </svg> 