<?xml version="1.0" encoding="UTF-8"?> <svg xmlns="http://www.w3.org/2000/svg" width="64" height="64" viewBox="0 0 64 64" fill="none"><g clip-path="url(#clip0_1576_35478)"><path d="M23.85 28.24C29.02 28.24 33.22 24.04 33.22 18.87C33.22 13.7 29.02 9.5 23.85 9.5C18.68 9.5 14.48 13.7 14.48 18.87C14.48 24.04 18.68 28.24 23.85 28.24Z" stroke="url(#paint0_linear_1576_35478)" stroke-miterlimit="10"></path><path d="M37.4999 46.4199V41.5499M39.2799 40.1899H36.0599C35.8199 40.1899 35.6299 40.3799 35.6299 40.6199V47.3499C35.6299 47.5899 35.8199 47.7799 36.0599 47.7799H39.2799C39.5199 47.7799 39.7099 47.5899 39.7099 47.3499V40.6199C39.7099 40.3799 39.5199 40.1899 39.2799 40.1899Z" stroke="url(#paint1_linear_1576_35478)" stroke-linecap="round" stroke-linejoin="round"></path><path d="M51.26 38.81C50.95 38.67 50.57 38.6 50.08 38.6C49.7 38.6 49.3 38.64 48.92 38.68C48.2 38.75 47.52 38.79 47.16 38.66C47.16 38.42 47.27 37.9 47.41 37.43C47.82 36.1 48.2 34.61 47.57 33.75C47.23 33.29 46.69 33.09 45.91 33.15C45.72 33.17 45.57 33.3 45.52 33.49C45.16 35.1 44.57 36.35 43.54 37.68C43.31 37.98 43.04 38.25 42.78 38.5C42.17 39.11 41.54 39.73 41.4 40.73C41.23 41.94 41.06 45.31 41.66 46.59C41.9 47.29 42.68 47.69 42.77 47.73C42.83 47.76 42.89 47.77 42.96 47.77H49.78C50.54 47.77 51.16 47.15 51.16 46.39C51.16 46.08 51.05 45.78 50.87 45.55C51.08 45.35 51.23 45.08 51.3 44.75C51.37 44.37 51.32 43.93 51.1 43.57C51.34 43.34 51.51 43 51.56 42.59C51.61 42.22 51.55 41.87 51.4 41.58C51.77 41.34 52.02 40.96 52.1 40.49C52.23 39.76 51.89 39.07 51.26 38.79V38.81Z" stroke="url(#paint2_linear_1576_35478)" stroke-miterlimit="10"></path><path d="M29.2299 43.6601H7.62988C9.38988 36.1901 16.0999 30.8301 23.8499 30.8301C26.6699 30.8301 29.4499 31.5501 31.8999 32.9101C30.1099 35.2601 29.0399 38.1901 29.0399 41.3701C29.0399 42.1501 29.1099 42.9101 29.2299 43.6601Z" stroke="url(#paint3_linear_1576_35478)" stroke-miterlimit="10"></path><path d="M44.0099 54.2098C36.9299 54.2098 31.1699 48.4498 31.1699 41.3698C31.1699 34.2898 36.9299 28.5298 44.0099 28.5298C51.0899 28.5298 56.8499 34.2898 56.8499 41.3698C56.8499 48.4498 51.0899 54.2098 44.0099 54.2098V54.2098Z" stroke="url(#paint4_linear_1576_35478)" stroke-miterlimit="10"></path><path d="M39.6801 24.0301L37.7701 25.0401L38.1501 22.9001L36.5901 21.4001L38.7301 21.1101L39.6901 19.1401L40.6501 21.1101L42.7901 21.4001L41.2301 22.9001L41.6101 25.0401L39.7001 24.0301H39.6801Z" stroke="black" stroke-miterlimit="10"></path><path d="M39.6801 24.0301L37.7701 25.0401L38.1501 22.9001L36.5901 21.4001L38.7301 21.1101L39.6901 19.1401L40.6501 21.1101L42.7901 21.4001L41.2301 22.9001L41.6101 25.0401L39.7001 24.0301H39.6801Z" stroke="url(#paint5_linear_1576_35478)" stroke-miterlimit="10"></path><path d="M49.89 24.0301L47.98 25.0401L48.3601 22.9001L46.8 21.4001L48.94 21.1101L49.9001 19.1401L50.8601 21.1101L53 21.4001L51.44 22.9001L51.82 25.0401L49.91 24.0301H49.89Z" stroke="black" stroke-miterlimit="10"></path><path d="M49.89 24.0301L47.98 25.0401L48.3601 22.9001L46.8 21.4001L48.94 21.1101L49.9001 19.1401L50.8601 21.1101L53 21.4001L51.44 22.9001L51.82 25.0401L49.91 24.0301H49.89Z" stroke="url(#paint6_linear_1576_35478)" stroke-miterlimit="10"></path></g><defs><linearGradient id="paint0_linear_1576_35478" x1="23.85" y1="9.5" x2="23.85" y2="28.24" gradientUnits="userSpaceOnUse"><stop stop-color="white"></stop><stop offset="1" stop-color="white"></stop></linearGradient><linearGradient id="paint1_linear_1576_35478" x1="37.6699" y1="40.1899" x2="37.6699" y2="47.7799" gradientUnits="userSpaceOnUse"><stop stop-color="white"></stop><stop offset="1" stop-color="white"></stop></linearGradient><linearGradient id="paint2_linear_1576_35478" x1="46.6838" y1="33.1396" x2="46.6838" y2="47.77" gradientUnits="userSpaceOnUse"><stop stop-color="white"></stop><stop offset="1" stop-color="white"></stop></linearGradient><linearGradient id="paint3_linear_1576_35478" x1="19.7649" y1="30.8301" x2="19.7649" y2="43.6601" gradientUnits="userSpaceOnUse"><stop stop-color="white"></stop><stop offset="1" stop-color="white"></stop></linearGradient><linearGradient id="paint4_linear_1576_35478" x1="44.0099" y1="28.5298" x2="44.0099" y2="54.2098" gradientUnits="userSpaceOnUse"><stop stop-color="white"></stop><stop offset="1" stop-color="white"></stop></linearGradient><linearGradient id="paint5_linear_1576_35478" x1="38.6652" y1="21.1586" x2="44.8417" y2="26.8037" gradientUnits="userSpaceOnUse"><stop offset="0.236106" stop-color="#DA291C"></stop><stop offset="1" stop-color="#FFCD00"></stop></linearGradient><linearGradient id="paint6_linear_1576_35478" x1="48.8752" y1="21.1586" x2="55.0517" y2="26.8037" gradientUnits="userSpaceOnUse"><stop offset="0.236106" stop-color="#DA291C"></stop><stop offset="1" stop-color="#FFCD00"></stop></linearGradient><clipPath id="clip0_1576_35478"><rect width="50.36" height="45.71" fill="white" transform="translate(7 9)"></rect></clipPath></defs></svg> 