<?xml version="1.0" encoding="UTF-8"?> <svg xmlns="http://www.w3.org/2000/svg" xmlns:xlink="http://www.w3.org/1999/xlink" version="1.1" id="Layer_1" x="0px" y="0px" viewBox="0 0 64 64" style="enable-background:new 0 0 64 64;" xml:space="preserve"> <style type="text/css"> .st0{fill-rule:evenodd;clip-rule:evenodd;fill:#59B4D9;} .st1{fill-rule:evenodd;clip-rule:evenodd;fill:#3999C6;} .st2{fill-rule:evenodd;clip-rule:evenodd;fill:#FFFFFF;} .st3{fill-rule:evenodd;clip-rule:evenodd;fill:#7FBA00;} .st4{fill-rule:evenodd;clip-rule:evenodd;fill:#B8D432;} </style> <symbol id="A" viewBox="-40 -40 80 80"> <g> <path class="st0" d="M39.8,7.1L39.8,7.1v-19.4L17.9,6.8h-0.5v-19.1L-4.5,6.8l0,0v-39.9c0-3.4-7.5-6.7-17.4-6.7S-40-36.6-40-33.1 V40h80L39.8,7.1z M-21.9-29.9c-7.2,0-13-1.8-13-3.7c0-1.9,5.8-3.7,13-3.7s13,1.6,13,3.7C-9.1-31.7-14.9-29.9-21.9-29.9z M15.8,27 H7v-8.8h8.8V27z M0.3,27h-8.8v-8.8h8.8V27z M22.7,27v-8.8h8.8V27C31.5,27,22.7,27,22.7,27z"></path> <path class="st1" d="M-40-33.6h17.8V40H-40V-33.6z"></path> <path class="st2" d="M-4.6-33.6c0,3.5-8,6.4-17.8,6.4S-40-30.1-40-33.6c0-3.5,8-6.4,17.8-6.4S-4.6-37.3-4.6-33.6"></path> <path class="st3" d="M-8.2-34.1c0,2.4-6.2,4.2-14.1,4.2s-14.1-1.8-14.1-4.2s6.2-4.2,14.1-4.2S-8.2-36.3-8.2-34.1"></path> <path class="st4" d="M-11.2-31.5c1.9-0.6,2.9-1.6,2.9-2.6c0-2.4-6.2-4.2-14.1-4.2s-14.1,1.9-14.1,4.2c0.2,1,1.3,1.9,3,2.6 c2.6-1,6.6-1.6,11.2-1.6C-17.8-33.1-13.8-32.5-11.2-31.5"></path> </g> </symbol> <g> <use xlink:href="#A" width="80" height="80" x="-40" y="-40" transform="matrix(0.7655 0 0 0.7655 32 32)" style="overflow:visible;"></use> </g> </svg> 