<?xml version="1.0" encoding="UTF-8"?> <svg xmlns="http://www.w3.org/2000/svg" xmlns:xlink="http://www.w3.org/1999/xlink" version="1.1" id="Layer_1" x="0px" y="0px" viewBox="0 0 64 64" style="enable-background:new 0 0 64 64;" xml:space="preserve"> <style type="text/css"> .st0{fill-rule:evenodd;clip-rule:evenodd;fill:#A0A1A2;} .st1{fill-rule:evenodd;clip-rule:evenodd;fill:#7A7A7A;} .st2{fill-rule:evenodd;clip-rule:evenodd;fill:#FFFFFF;} .st3{fill-rule:evenodd;clip-rule:evenodd;fill:#59B4D9;} </style> <g id="A"> <g> <path class="st0" d="M51.4,56.8c3,0,5.4-2.4,5.4-5.4V12.5c0-3-2.4-5.4-5.4-5.4H12.5c-3,0-5.4,2.4-5.4,5.4v38.9 c0,3,2.4,5.4,5.4,5.4L51.4,56.8L51.4,56.8z M51.4,10.7c1,0,1.8,0.8,1.8,1.8v38.9c0,1-0.8,1.8-1.8,1.8H12.5c-1,0-1.8-0.8-1.8-1.8 V12.4c0-1,0.8-1.8,1.8-1.8H51.4z"></path> <path class="st1" d="M36.1,7.2H18.6l0.8-1.7c0.6-1.3,1.7-2.4,3.1-2.9c1.4-0.5,2.9-0.4,4.2,0.2L36.1,7.2z M61.4,22.5 c0.5,1.4,0.5,2.9-0.2,4.3l-4.4,9.4V18.6l1.7,0.8C59.8,20,60.9,21.1,61.4,22.5L61.4,22.5z M7.2,31.9v17.5l-1.7-0.8 c-1.3-0.6-2.4-1.7-2.9-3.1c-0.5-1.4-0.4-2.9,0.2-4.2L7.2,31.9z M41.3,61.2l-9.4-4.4h17.5l-0.8,1.7l0,0c-0.6,1.3-1.7,2.4-3.1,2.9 c-0.7,0.2-1.2,0.4-1.9,0.4C42.8,61.7,42,61.5,41.3,61.2L41.3,61.2z"></path> <path class="st2" d="M51.4,10.7c1,0,1.8,0.8,1.8,1.8v38.9c0,1-0.8,1.8-1.8,1.8H12.5c-1,0-1.8-0.8-1.8-1.8V12.4 c0-1,0.8-1.8,1.8-1.8H51.4z"></path> <path class="st3" d="M41.1,28.8c0,0.1-0.1,0.2-0.1,0.4l-12.5,18c-0.1,0.1-0.3,0.2-0.5,0.2c-0.1,0-0.2,0-0.2-0.1 c-0.2-0.1-0.4-0.4-0.3-0.7l3.3-10.7h-7.3c-0.2,0-0.4-0.1-0.5-0.3c-0.1-0.2-0.1-0.4,0.1-0.6l12.2-17.8c0.1-0.1,0.3-0.2,0.5-0.2 c0.1,0,0.2,0,0.2,0.1c0.2,0.1,0.4,0.4,0.3,0.7L33,28.2h7.5l0,0C40.8,28.2,41.1,28.5,41.1,28.8z"></path> </g> </g> </svg> 