<?xml version="1.0" encoding="UTF-8"?> <svg xmlns="http://www.w3.org/2000/svg" xmlns:xlink="http://www.w3.org/1999/xlink" version="1.1" id="Layer_1" x="0px" y="0px" viewBox="0 0 1400 1099" style="enable-background:new 0 0 1400 1099;" xml:space="preserve"> <style type="text/css"> .st0{fill:none;stroke:#E54539;stroke-width:4;stroke-miterlimit:10;} .st1{fill:none;stroke:#AF3E3E;stroke-width:4;stroke-miterlimit:10;} .st2{fill:none;stroke:#474A54;stroke-width:4;stroke-linecap:round;stroke-linejoin:round;stroke-miterlimit:10;} .st3{fill:none;stroke:#F9D7D4;stroke-width:3;stroke-miterlimit:10;} .st4{fill:#474A54;} .st5{fill:#FFFFFF;stroke:#F8D1CE;stroke-width:2;stroke-miterlimit:10;} .st6{fill:#FFFFFF;stroke:#E54539;stroke-miterlimit:10;} .st7{fill:#FFFFFF;stroke:#474A54;stroke-miterlimit:10;} .st8{fill:#FFFFFF;stroke:#AF3E3E;stroke-width:2;stroke-miterlimit:10;} .st9{fill:none;stroke:#474A54;stroke-width:2;stroke-linecap:round;stroke-linejoin:round;stroke-miterlimit:10;} .st10{fill:none;stroke:#F8D1CE;stroke-width:4;stroke-miterlimit:10;} .st11{fill:#FFFFFF;stroke:#AF3E3E;stroke-miterlimit:10;} .st12{opacity:0.39;} .st13{fill:#F8D1CE;} .st14{fill:#DBDEE7;} .st15{fill:#E54539;} .st16{fill:none;stroke:#474A54;stroke-linecap:round;stroke-linejoin:round;stroke-miterlimit:10;} .st17{fill:none;stroke:#E1251B;stroke-miterlimit:10;} </style> <g> <g> <path class="st0" d="M566.9,470.7c-13.4,21.3-21.1,46.5-21.1,73.5"></path> <path class="st1" d="M628.2,417.6c-25.4,11.2-46.7,29.8-61.4,53.1"></path> <path class="st2" d="M740.6,417.9c-17.3-7.7-36.4-12.1-56.5-12.1c-19.9,0-38.7,4.2-55.8,11.7"></path> <path class="st1" d="M800.1,469c-14.4-22.2-35.1-40.1-59.5-51"></path> <path class="st3" d="M822.3,544.2c0-27.7-8.2-53.6-22.2-75.2"></path> </g> <g> <path class="st4" d="M549.3,544.1c0-2-1.6-3.6-3.6-3.6c-2,0-3.6,1.6-3.6,3.6c0,2,1.6,3.6,3.6,3.6 C547.6,547.8,549.3,546.1,549.3,544.1z"></path> </g> <g> <path class="st5" d="M805,468.9c0-2.7-2.2-4.9-4.9-4.9c-2.7,0-4.9,2.2-4.9,4.9c0,2.7,2.2,4.9,4.9,4.9 C802.8,473.9,805,471.7,805,468.9z"></path> </g> <g> <path class="st6" d="M572.2,468.2c0-2.3-1.9-4.1-4.1-4.1c-2.3,0-4.1,1.9-4.1,4.1c0,2.3,1.9,4.1,4.1,4.1 C570.4,472.4,572.2,470.5,572.2,468.2z"></path> </g> <g> <path class="st7" d="M747,417.9c0-3.4-2.8-6.2-6.2-6.2c-3.4,0-6.2,2.8-6.2,6.2s2.8,6.2,6.2,6.2C744.2,424.1,747,421.4,747,417.9z"></path> </g> <g> <path class="st8" d="M633.3,417.9c0-2.8-2.3-5-5-5c-2.8,0-5,2.3-5,5c0,2.8,2.3,5,5,5C631.1,423,633.3,420.7,633.3,417.9z"></path> </g> </g> <g> <g> <path class="st9" d="M566.4,618c-13.4-21.3-21.1-46.5-21.1-73.5"></path> <path class="st10" d="M627.8,671c-25.4-11.2-46.7-29.8-61.4-53.1"></path> <path class="st1" d="M740.1,670.7c-17.3,7.7-36.4,12.1-56.5,12.1c-19.9,0-38.7-4.2-55.8-11.7"></path> <path class="st0" d="M799.6,619.7c-14.4,22.2-35.1,40.1-59.5,51"></path> <path class="st9" d="M821.9,544.5c0,27.7-8.2,53.6-22.2,75.2"></path> </g> <g> <path class="st4" d="M825.9,544.5c0,2-1.6,3.6-3.6,3.6c-2,0-3.6-1.6-3.6-3.6c0-2,1.6-3.6,3.6-3.6 C824.3,540.9,825.9,542.5,825.9,544.5z"></path> </g> <g> <path class="st6" d="M804.6,619.7c0,2.7-2.2,4.9-4.9,4.9c-2.7,0-4.9-2.2-4.9-4.9c0-2.7,2.2-4.9,4.9-4.9 C802.4,614.8,804.6,617,804.6,619.7z"></path> </g> <g> <path class="st5" d="M571.8,620.4c0,2.3-1.9,4.1-4.1,4.1c-2.3,0-4.1-1.9-4.1-4.1c0-2.3,1.9-4.1,4.1-4.1 C569.9,616.3,571.8,618.1,571.8,620.4z"></path> </g> <g> <path class="st11" d="M746.6,670.7c0,3.4-2.8,6.2-6.2,6.2s-6.2-2.8-6.2-6.2c0-3.4,2.8-6.2,6.2-6.2S746.6,667.3,746.6,670.7z"></path> </g> <g> <path class="st8" d="M632.9,670.7c0,2.8-2.3,5-5,5c-2.8,0-5-2.3-5-5c0-2.8,2.3-5,5-5C630.6,665.7,632.9,667.9,632.9,670.7z"></path> </g> </g> <g id="Shadow_2_" class="st12"> </g> <path class="st13" d="M683.6,728.5c-13.7,0-27.1-1.5-40-4.4c-7.7-1.7-15.4,2.6-18,10l-39.9,110c-3.1,8.6,1.7,18,10.5,20.5 c27.8,7.6,57.1,11.7,87.3,11.7c30.2,0,59.5-4.1,87.3-11.7c8.8-2.4,13.6-11.9,10.5-20.5l-39.9-110c-2.7-7.4-10.4-11.7-18-10 C710.7,727,697.3,728.5,683.6,728.5z"></path> <path class="st13" d="M522.9,660.2l-98.4,63.2c-7.7,5-9.6,15.4-4,22.7c32.8,42.8,75.8,77.4,125.3,100.2c8.3,3.8,18.2-0.3,21.3-8.9 l39.9-110c2.7-7.4-0.6-15.7-7.6-19.3c-21.5-11.1-40.5-26.4-56-44.7C538.3,657.3,529.6,655.9,522.9,660.2z"></path> <path class="st13" d="M760.1,727.4l39.9,110c3.1,8.6,13,12.7,21.3,8.9c49.6-22.7,92.6-57.3,125.3-100.2c5.6-7.3,3.7-17.8-4-22.7 l-98.4-63.2c-6.7-4.3-15.4-2.9-20.5,3.2c-15.5,18.3-34.5,33.6-56,44.7C760.7,711.7,757.4,719.9,760.1,727.4z"></path> <path class="st13" d="M865.4,568.8c-2.5,19.3-8,37.7-16,54.7c-3.4,7.2-1,15.7,5.6,20l98.4,63.2c7.7,4.9,18,2.3,22.3-5.8 c20.9-39,34.1-82.7,37.8-129c0.7-9.1-6.5-16.9-15.6-16.9H880.9C873,555.1,866.4,561,865.4,568.8z"></path> <path class="st13" d="M486.2,555.1H369.3c-9.2,0-16.4,7.8-15.6,16.9c3.7,46.4,17,90,37.8,129c4.3,8.1,14.6,10.7,22.3,5.8l98.4-63.2 c6.7-4.3,9-12.9,5.6-20c-8-17-13.5-35.4-16-54.7C500.8,561,494.1,555.1,486.2,555.1z"></path> <ellipse transform="matrix(0.7071 -0.7071 0.7071 0.7071 -181.6171 641.5197)" class="st14" cx="683.6" cy="540" rx="94.8" ry="94.8"></ellipse> <g> <path class="st15" d="M946.1,241.4l-2.7-3.9h-0.2h-2.9v3.9h-3.3v-14.2h6.1c3.8,0,6.1,2,6.1,5.1c0,2.1-1.1,3.7-2.9,4.5l3.2,4.5 H946.1z M943,229.9h-2.7v4.9h2.7c2,0,3-0.9,3-2.5C946,230.9,945,229.9,943,229.9z"></path> <path class="st15" d="M961.2,238.4h-6.6l-1.3,3h-3.4l6.3-14.2h3.2l6.3,14.2h-3.4L961.2,238.4z M960.2,235.9l-2.2-5.4l-2.2,5.4 H960.2z"></path> <path class="st15" d="M979.7,232.4c0,3.2-2.4,5.1-6.1,5.1h-2.9v3.9h-3.3v-14.2h6.1C977.3,227.3,979.7,229.2,979.7,232.4z M976.4,232.4c0-1.6-1-2.5-3-2.5h-2.7v4.9h2.7C975.4,234.9,976.4,234,976.4,232.4z"></path> <path class="st15" d="M982,227.3h3.3v14.2H982V227.3z"></path> <path class="st15" d="M988.6,227.3h6.4c4.6,0,7.8,2.8,7.8,7.1s-3.2,7.1-7.8,7.1h-6.4V227.3z M994.9,238.7c2.8,0,4.7-1.7,4.7-4.4 s-1.8-4.4-4.7-4.4h-3v8.8H994.9z"></path> <path class="st15" d="M1023.3,232.4c0,3.2-2.4,5.1-6.1,5.1h-2.9v3.9h-3.3v-14.2h6.1C1021,227.3,1023.3,229.2,1023.3,232.4z M1020,232.4c0-1.6-1-2.5-3-2.5h-2.7v4.9h2.7C1019,234.9,1020,234,1020,232.4z"></path> <path class="st15" d="M1034.7,241.4l-2.7-3.9h-0.2h-2.9v3.9h-3.3v-14.2h6.1c3.8,0,6.1,2,6.1,5.1c0,2.1-1.1,3.7-2.9,4.5l3.2,4.5 H1034.7z M1031.6,229.9h-2.7v4.9h2.7c2,0,3-0.9,3-2.5C1034.6,230.9,1033.6,229.9,1031.6,229.9z"></path> <path class="st15" d="M1039.6,234.4c0-4.2,3.3-7.3,7.7-7.3c4.4,0,7.7,3.1,7.7,7.3s-3.3,7.3-7.7,7.3 C1042.9,241.7,1039.6,238.6,1039.6,234.4z M1051.8,234.4c0-2.7-1.9-4.5-4.4-4.5s-4.4,1.8-4.4,4.5c0,2.7,1.9,4.5,4.4,4.5 S1051.8,237,1051.8,234.4z"></path> <path class="st15" d="M1060.3,229.9h-4.5v-2.7h12.3v2.7h-4.5v11.5h-3.3V229.9z"></path> <path class="st15" d="M1068.8,234.4c0-4.2,3.3-7.3,7.7-7.3c4.4,0,7.7,3.1,7.7,7.3s-3.3,7.3-7.7,7.3 C1072.1,241.7,1068.8,238.6,1068.8,234.4z M1081,234.4c0-2.7-1.9-4.5-4.4-4.5s-4.4,1.8-4.4,4.5c0,2.7,1.9,4.5,4.4,4.5 S1081,237,1081,234.4z"></path> <path class="st15" d="M1089.5,229.9h-4.5v-2.7h12.3v2.7h-4.5v11.5h-3.3V229.9z"></path> <path class="st15" d="M1105.6,236.4v5h-3.3v-5.1l-5.5-9.1h3.5l3.8,6.3l3.8-6.3h3.2L1105.6,236.4z"></path> <path class="st15" d="M1124.6,232.4c0,3.2-2.4,5.1-6.1,5.1h-2.9v3.9h-3.3v-14.2h6.1C1122.2,227.3,1124.6,229.2,1124.6,232.4z M1121.3,232.4c0-1.6-1-2.5-3-2.5h-2.7v4.9h2.7C1120.2,234.9,1121.3,234,1121.3,232.4z"></path> <path class="st15" d="M1137.9,238.8v2.6h-11v-14.2h10.7v2.6h-7.4v3.1h6.6v2.5h-6.6v3.3H1137.9z"></path> <path class="st15" d="M947.9,265.9l-1.7-1.6c-1.3,1-2.9,1.6-4.7,1.6c-3.1,0-5.4-1.6-5.4-3.9c0-1.8,1-3,3.1-4.2c-1-1.1-1.5-2-1.5-3 c0-2.1,1.7-3.5,4.4-3.5c2.4,0,4.1,1.3,4.1,3.3c0,1.5-0.8,2.5-2.8,3.6l2.6,2.4c0.3-0.6,0.5-1.4,0.7-2.2l2.5,0.8 c-0.3,1.2-0.7,2.3-1.3,3.2l1.7,1.5L947.9,265.9z M944.4,262.6l-3.4-3.2c-1.3,0.7-1.8,1.4-1.8,2.3c0,1,1,1.8,2.5,1.8 C942.7,263.5,943.6,263.2,944.4,262.6z M940.6,254.8c0,0.5,0.2,1,1.1,1.8c1.4-0.7,1.8-1.3,1.8-1.9c0-0.7-0.5-1.2-1.4-1.2 C941.2,253.5,940.6,254,940.6,254.8z"></path> <path class="st15" d="M970.4,265.7l0-8.5l-4.2,7h-1.5l-4.1-6.8v8.3h-3.1v-14.2h2.7l5.3,8.8l5.2-8.8h2.7l0,14.2H970.4z"></path> <path class="st15" d="M990.3,251.5l-6.1,14.2H981l-6.1-14.2h3.5l4.3,10.1l4.4-10.1H990.3z"></path> <path class="st15" d="M1003.8,256.7c0,3.2-2.4,5.1-6.1,5.1h-2.9v3.9h-3.3v-14.2h6.1C1001.4,251.5,1003.8,253.5,1003.8,256.7z M1000.5,256.7c0-1.6-1-2.5-3-2.5h-2.7v4.9h2.7C999.5,259.1,1000.5,258.2,1000.5,256.7z"></path> </g> <g> <path class="st15" d="M578.9,121.9c0-4.3,3.3-7.3,7.7-7.3c2.4,0,4.5,0.9,5.8,2.5l-2.1,1.9c-1-1.1-2.1-1.7-3.6-1.7 c-2.6,0-4.5,1.9-4.5,4.5c0,2.7,1.9,4.5,4.5,4.5c1.4,0,2.6-0.6,3.6-1.7l2.1,1.9c-1.3,1.6-3.4,2.5-5.8,2.5 C582.2,129.2,578.9,126.2,578.9,121.9z"></path> <path class="st15" d="M593.4,121.9c0-4.2,3.3-7.3,7.7-7.3c4.4,0,7.7,3.1,7.7,7.3s-3.3,7.3-7.7,7.3 C596.7,129.2,593.4,126.1,593.4,121.9z M605.6,121.9c0-2.7-1.9-4.5-4.4-4.5c-2.5,0-4.4,1.8-4.4,4.5s1.9,4.5,4.4,4.5 C603.7,126.4,605.6,124.6,605.6,121.9z"></path> <path class="st15" d="M624.4,114.8V129h-2.7l-7.1-8.6v8.6h-3.2v-14.2h2.7l7,8.6v-8.6H624.4z"></path> <path class="st15" d="M626.8,121.9c0-4.3,3.3-7.3,7.7-7.3c2.4,0,4.5,0.9,5.8,2.5l-2.1,1.9c-1-1.1-2.1-1.7-3.6-1.7 c-2.6,0-4.5,1.9-4.5,4.5c0,2.7,1.9,4.5,4.5,4.5c1.4,0,2.6-0.6,3.6-1.7l2.1,1.9c-1.3,1.6-3.4,2.5-5.8,2.5 C630.1,129.2,626.8,126.2,626.8,121.9z"></path> <path class="st15" d="M653.5,126.3v2.6h-11v-14.2h10.7v2.6h-7.4v3.1h6.6v2.5h-6.6v3.3H653.5z"></path> <path class="st15" d="M668.4,119.9c0,3.2-2.4,5.1-6.1,5.1h-2.9v3.9h-3.3v-14.2h6.1C666,114.8,668.4,116.8,668.4,119.9z M665.1,119.9c0-1.6-1-2.5-3-2.5h-2.7v4.9h2.7C664.1,122.4,665.1,121.5,665.1,119.9z"></path> <path class="st15" d="M673.3,117.5h-4.5v-2.7h12.3v2.7h-4.5V129h-3.3V117.5z"></path> <path class="st15" d="M688.5,114.8h6.4c4.6,0,7.8,2.8,7.8,7.1s-3.2,7.1-7.8,7.1h-6.4V114.8z M694.8,126.3c2.8,0,4.6-1.7,4.6-4.4 c0-2.7-1.8-4.4-4.6-4.4h-3v8.8H694.8z"></path> <path class="st15" d="M716.2,126.3v2.6h-11v-14.2h10.7v2.6h-7.4v3.1h6.6v2.5h-6.6v3.3H716.2z"></path> <path class="st15" d="M717.7,127.6l1.1-2.5c1.2,0.9,3,1.5,4.7,1.5c1.9,0,2.7-0.6,2.7-1.5c0-2.6-8.2-0.8-8.2-6.1 c0-2.4,1.9-4.4,6-4.4c1.8,0,3.6,0.4,4.9,1.3l-1,2.5c-1.3-0.7-2.7-1.1-3.9-1.1c-1.9,0-2.7,0.7-2.7,1.6c0,2.6,8.2,0.8,8.2,6 c0,2.4-2,4.4-6,4.4C721.2,129.2,718.9,128.5,717.7,127.6z"></path> <path class="st15" d="M731.7,114.8h3.3V129h-3.3V114.8z"></path> <path class="st15" d="M747.9,121.7h3v5.7c-1.6,1.2-3.7,1.8-5.7,1.8c-4.4,0-7.7-3.1-7.7-7.3s3.3-7.3,7.8-7.3c2.5,0,4.5,0.8,5.9,2.4 L749,119c-1-1.1-2.2-1.6-3.7-1.6c-2.8,0-4.6,1.8-4.6,4.5c0,2.6,1.9,4.5,4.6,4.5c0.9,0,1.7-0.2,2.5-0.6V121.7z"></path> <path class="st15" d="M766.9,114.8V129h-2.7l-7.1-8.6v8.6h-3.2v-14.2h2.7l7,8.6v-8.6H766.9z"></path> <path class="st15" d="M786.9,129.2l-1.7-1.6c-1.3,1-2.9,1.6-4.7,1.6c-3.1,0-5.4-1.6-5.4-3.9c0-1.8,1-3,3.1-4.2c-1-1.1-1.5-2-1.5-3 c0-2.1,1.7-3.5,4.4-3.5c2.4,0,4.1,1.3,4.1,3.3c0,1.5-0.8,2.5-2.8,3.6l2.6,2.4c0.3-0.6,0.5-1.4,0.7-2.2l2.5,0.8 c-0.3,1.2-0.7,2.3-1.3,3.2l1.7,1.5L786.9,129.2z M783.3,125.9l-3.4-3.2c-1.3,0.7-1.8,1.4-1.8,2.3c0,1,1,1.8,2.5,1.8 C781.6,126.7,782.5,126.5,783.3,125.9z M779.6,118.1c0,0.5,0.2,1,1.1,1.8c1.4-0.7,1.8-1.3,1.8-1.9c0-0.7-0.5-1.2-1.4-1.2 C780.1,116.8,779.6,117.3,779.6,118.1z"></path> <path class="st15" d="M608.2,153.2l-2.7-3.9h-0.2h-2.9v3.9h-3.3v-14.2h6.1c3.8,0,6.1,2,6.1,5.1c0,2.1-1.1,3.7-2.9,4.5l3.2,4.5 H608.2z M605.1,141.7h-2.7v4.9h2.7c2,0,3-0.9,3-2.5C608.1,142.7,607.1,141.7,605.1,141.7z"></path> <path class="st15" d="M613.1,146.2c0-4.2,3.3-7.3,7.7-7.3c4.4,0,7.7,3.1,7.7,7.3s-3.3,7.3-7.7,7.3 C616.4,153.5,613.1,150.4,613.1,146.2z M625.3,146.2c0-2.7-1.9-4.5-4.4-4.5c-2.5,0-4.4,1.8-4.4,4.5s1.9,4.5,4.4,4.5 C623.4,150.7,625.3,148.8,625.3,146.2z"></path> <path class="st15" d="M640.2,150.2h-6.6l-1.3,3H629l6.3-14.2h3.2l6.3,14.2h-3.4L640.2,150.2z M639.2,147.7l-2.2-5.4l-2.2,5.4H639.2 z"></path> <path class="st15" d="M646.4,139.1h6.4c4.6,0,7.8,2.8,7.8,7.1s-3.2,7.1-7.8,7.1h-6.4V139.1z M652.6,150.5c2.8,0,4.6-1.7,4.6-4.4 c0-2.7-1.8-4.4-4.6-4.4h-3v8.8H652.6z"></path> <path class="st15" d="M681.7,153.2l0-8.5l-4.2,7H676l-4.1-6.8v8.3h-3.1v-14.2h2.7l5.3,8.8l5.2-8.8h2.7l0,14.2H681.7z"></path> <path class="st15" d="M697.4,150.2h-6.6l-1.3,3h-3.4l6.3-14.2h3.2l6.3,14.2h-3.4L697.4,150.2z M696.4,147.7l-2.2-5.4l-2.2,5.4 H696.4z"></path> <path class="st15" d="M715.9,144.2c0,3.2-2.4,5.1-6.1,5.1h-2.9v3.9h-3.3v-14.2h6.1C713.5,139.1,715.9,141,715.9,144.2z M712.5,144.2c0-1.6-1-2.5-3-2.5h-2.7v4.9h2.7C711.5,146.7,712.5,145.7,712.5,144.2z"></path> <path class="st15" d="M730.5,144.2c0,3.2-2.4,5.1-6.1,5.1h-2.9v3.9h-3.3v-14.2h6.1C728.1,139.1,730.5,141,730.5,144.2z M727.1,144.2c0-1.6-1-2.5-3-2.5h-2.7v4.9h2.7C726.1,146.7,727.1,145.7,727.1,144.2z"></path> <path class="st15" d="M732.8,139.1h3.3v14.2h-3.3V139.1z"></path> <path class="st15" d="M752.4,139.1v14.2h-2.7l-7.1-8.6v8.6h-3.2v-14.2h2.7l7,8.6v-8.6H752.4z"></path> <path class="st15" d="M765.3,145.9h3v5.7c-1.6,1.2-3.7,1.8-5.7,1.8c-4.4,0-7.7-3.1-7.7-7.3s3.3-7.3,7.8-7.3c2.5,0,4.5,0.8,5.9,2.4 l-2.1,1.9c-1-1.1-2.2-1.6-3.7-1.6c-2.8,0-4.6,1.8-4.6,4.5c0,2.6,1.9,4.5,4.6,4.5c0.9,0,1.7-0.2,2.5-0.6V145.9z"></path> </g> <g> <path class="st15" d="M936.1,841.3h6.4c4.6,0,7.8,2.8,7.8,7.1s-3.2,7.1-7.8,7.1h-6.4V841.3z M942.4,852.8c2.8,0,4.7-1.7,4.7-4.4 s-1.8-4.4-4.7-4.4h-3v8.8H942.4z"></path> <path class="st15" d="M963.8,852.9v2.6h-11v-14.2h10.7v2.6h-7.4v3.1h6.6v2.5h-6.6v3.3H963.8z"></path> <path class="st15" d="M979.8,841.3l-6.1,14.2h-3.2l-6.1-14.2h3.5l4.3,10.1l4.4-10.1H979.8z"></path> <path class="st15" d="M981,841.3h3.3v14.2H981V841.3z"></path> <path class="st15" d="M986.7,848.4c0-4.3,3.3-7.3,7.7-7.3c2.4,0,4.5,0.9,5.8,2.5l-2.1,1.9c-1-1.1-2.1-1.7-3.6-1.7 c-2.6,0-4.5,1.9-4.5,4.5s1.9,4.5,4.5,4.5c1.4,0,2.6-0.6,3.6-1.7l2.1,1.9c-1.3,1.6-3.4,2.5-5.8,2.5 C990,855.7,986.7,852.7,986.7,848.4z"></path> <path class="st15" d="M1013.4,852.9v2.6h-11v-14.2h10.7v2.6h-7.4v3.1h6.6v2.5h-6.6v3.3H1013.4z"></path> <path class="st15" d="M1032.6,855.7l-1.7-1.6c-1.3,1-2.9,1.6-4.7,1.6c-3.1,0-5.4-1.6-5.4-3.9c0-1.8,1-3,3.1-4.2c-1-1.1-1.5-2-1.5-3 c0-2.1,1.7-3.5,4.4-3.5c2.4,0,4.1,1.3,4.1,3.3c0,1.5-0.8,2.5-2.8,3.6l2.6,2.4c0.3-0.6,0.5-1.4,0.7-2.2l2.5,0.8 c-0.3,1.2-0.7,2.3-1.3,3.2l1.7,1.5L1032.6,855.7z M1029,852.4l-3.4-3.2c-1.3,0.7-1.8,1.4-1.8,2.3c0,1,1,1.8,2.5,1.8 C1027.3,853.3,1028.2,853,1029,852.4z M1025.3,844.6c0,0.5,0.2,1,1.1,1.8c1.4-0.7,1.8-1.3,1.8-1.9c0-0.7-0.5-1.2-1.4-1.2 C1025.8,843.3,1025.3,843.9,1025.3,844.6z"></path> <path class="st15" d="M1055.1,841.3v14.2h-3.3v-5.8h-6.4v5.8h-3.3v-14.2h3.3v5.6h6.4v-5.6H1055.1z"></path> <path class="st15" d="M1069.4,852.9v2.6h-11v-14.2h10.7v2.6h-7.4v3.1h6.6v2.5h-6.6v3.3H1069.4z"></path> <path class="st15" d="M1081.4,852.5h-6.6l-1.3,3h-3.4l6.3-14.2h3.2l6.3,14.2h-3.4L1081.4,852.5z M1080.3,850l-2.2-5.4l-2.2,5.4 H1080.3z"></path> <path class="st15" d="M1087.5,841.3h3.3v11.5h7.1v2.7h-10.4V841.3z"></path> <path class="st15" d="M1101.4,844h-4.5v-2.7h12.3v2.7h-4.5v11.5h-3.3V844z"></path> <path class="st15" d="M1123.9,841.3v14.2h-3.3v-5.8h-6.4v5.8h-3.3v-14.2h3.3v5.6h6.4v-5.6H1123.9z"></path> <path class="st15" d="M936.1,865.6h6.4c4.6,0,7.8,2.8,7.8,7.1s-3.2,7.1-7.8,7.1h-6.4V865.6z M942.4,877.1c2.8,0,4.7-1.7,4.7-4.4 s-1.8-4.4-4.7-4.4h-3v8.8H942.4z"></path> <path class="st15" d="M961.9,876.7h-6.6l-1.3,3h-3.4l6.3-14.2h3.2l6.3,14.2h-3.4L961.9,876.7z M960.9,874.2l-2.2-5.4l-2.2,5.4 H960.9z"></path> <path class="st15" d="M970.3,868.3h-4.5v-2.7h12.3v2.7h-4.5v11.5h-3.3V868.3z"></path> <path class="st15" d="M988.5,876.7h-6.6l-1.3,3h-3.4l6.3-14.2h3.2l6.3,14.2h-3.4L988.5,876.7z M987.5,874.2l-2.2-5.4l-2.2,5.4 H987.5z"></path> <path class="st15" d="M1000.4,865.6h3.3v14.2h-3.3V865.6z"></path> <path class="st15" d="M1020,865.6v14.2h-2.7l-7.1-8.6v8.6h-3.2v-14.2h2.7l7,8.6v-8.6H1020z"></path> <path class="st15" d="M1026.3,868.3h-4.5v-2.7h12.3v2.7h-4.5v11.5h-3.3V868.3z"></path> <path class="st15" d="M1046.8,877.1v2.6h-11v-14.2h10.7v2.6h-7.4v3.1h6.6v2.5h-6.6v3.3H1046.8z"></path> <path class="st15" d="M1058.9,872.5h3v5.7c-1.6,1.2-3.7,1.8-5.7,1.8c-4.4,0-7.7-3.1-7.7-7.3s3.3-7.3,7.8-7.3c2.5,0,4.5,0.8,5.9,2.4 l-2.1,1.9c-1-1.1-2.2-1.6-3.7-1.6c-2.8,0-4.6,1.8-4.6,4.5c0,2.6,1.9,4.5,4.6,4.5c0.9,0,1.7-0.2,2.5-0.6V872.5z"></path> <path class="st15" d="M1074,879.8l-2.7-3.9h-0.2h-2.9v3.9h-3.3v-14.2h6.1c3.8,0,6.1,2,6.1,5.1c0,2.1-1.1,3.7-2.9,4.5l3.2,4.5H1074z M1070.9,868.3h-2.7v4.9h2.7c2,0,3-0.9,3-2.5C1073.9,869.2,1072.9,868.3,1070.9,868.3z"></path> <path class="st15" d="M1089.1,876.7h-6.6l-1.3,3h-3.4l6.3-14.2h3.2l6.3,14.2h-3.4L1089.1,876.7z M1088.1,874.2l-2.2-5.4l-2.2,5.4 H1088.1z"></path> <path class="st15" d="M1097.5,868.3h-4.5v-2.7h12.3v2.7h-4.5v11.5h-3.3V868.3z"></path> <path class="st15" d="M1107.1,865.6h3.3v14.2h-3.3V865.6z"></path> <path class="st15" d="M1112.8,872.7c0-4.2,3.3-7.3,7.7-7.3c4.4,0,7.7,3.1,7.7,7.3s-3.3,7.3-7.7,7.3 C1116.1,880,1112.8,876.9,1112.8,872.7z M1125,872.7c0-2.7-1.9-4.5-4.4-4.5s-4.4,1.8-4.4,4.5c0,2.7,1.9,4.5,4.4,4.5 S1125,875.4,1125,872.7z"></path> <path class="st15" d="M1143.8,865.6v14.2h-2.7l-7.1-8.6v8.6h-3.2v-14.2h2.7l7,8.6v-8.6H1143.8z"></path> <path class="st15" d="M1146,878.4l1.1-2.5c1.2,0.9,3,1.5,4.7,1.5c1.9,0,2.7-0.6,2.7-1.5c0-2.6-8.2-0.8-8.2-6.1c0-2.4,1.9-4.4,6-4.4 c1.8,0,3.6,0.4,4.9,1.3l-1,2.5c-1.3-0.7-2.7-1.1-3.9-1.1c-1.9,0-2.7,0.7-2.7,1.6c0,2.6,8.2,0.8,8.2,6c0,2.4-2,4.4-6,4.4 C1149.5,880,1147.3,879.3,1146,878.4z"></path> </g> <g> <path class="st15" d="M202,857c-0.9,1.1-2.3,1.7-3.8,1.7c-2.1,0-3.6-0.8-5.8-3.1c-3.9-0.5-6.6-3.4-6.6-7.3c0-4.2,3.3-7.3,7.7-7.3 c4.4,0,7.7,3.1,7.7,7.3c0,3.3-2,5.9-5.1,6.9c0.7,0.7,1.3,1,2,1c0.9,0,1.6-0.3,2.3-1.1L202,857z M193.6,853c2.5,0,4.4-1.8,4.4-4.5 c0-2.7-1.9-4.5-4.4-4.5c-2.5,0-4.4,1.8-4.4,4.5C189.1,851.1,191,853,193.6,853z"></path> <path class="st15" d="M203.6,849.3v-7.9h3.3v7.8c0,2.7,1.2,3.8,3.2,3.8c2,0,3.2-1.1,3.2-3.8v-7.8h3.2v7.9c0,4.2-2.4,6.5-6.4,6.5 S203.6,853.4,203.6,849.3z"></path> <path class="st15" d="M228.7,852.5h-6.6l-1.3,3h-3.4l6.3-14.2h3.2l6.3,14.2H230L228.7,852.5z M227.7,850l-2.2-5.4l-2.2,5.4H227.7z"></path> <path class="st15" d="M234.9,841.3h3.3v11.5h7.1v2.7h-10.4V841.3z"></path> <path class="st15" d="M247.1,841.3h3.3v14.2h-3.3V841.3z"></path> <path class="st15" d="M256.7,844h-4.5v-2.7h12.3v2.7h-4.5v11.5h-3.3V844z"></path> <path class="st15" d="M272.8,850.5v5h-3.3v-5.1l-5.5-9.1h3.5l3.8,6.3l3.8-6.3h3.2L272.8,850.5z"></path> <path class="st15" d="M296.3,852.9v2.6h-11v-14.2H296v2.6h-7.4v3.1h6.6v2.5h-6.6v3.3H296.3z"></path> <path class="st15" d="M311.9,841.3v14.2h-2.7l-7.1-8.6v8.6h-3.2v-14.2h2.7l7,8.6v-8.6H311.9z"></path> <path class="st15" d="M324.8,848.2h3v5.7c-1.6,1.2-3.7,1.8-5.7,1.8c-4.4,0-7.7-3.1-7.7-7.3s3.3-7.3,7.8-7.3c2.5,0,4.5,0.8,5.9,2.4 l-2.1,1.9c-1-1.1-2.2-1.6-3.7-1.6c-2.8,0-4.6,1.8-4.6,4.5c0,2.6,1.9,4.5,4.6,4.5c0.9,0,1.7-0.2,2.5-0.6V848.2z"></path> <path class="st15" d="M330.8,841.3h3.3v14.2h-3.3V841.3z"></path> <path class="st15" d="M350.5,841.3v14.2h-2.7l-7.1-8.6v8.6h-3.2v-14.2h2.7l7,8.6v-8.6H350.5z"></path> <path class="st15" d="M364.8,852.9v2.6h-11v-14.2h10.7v2.6h-7.4v3.1h6.6v2.5h-6.6v3.3H364.8z"></path> <path class="st15" d="M378.3,852.9v2.6h-11v-14.2h10.7v2.6h-7.4v3.1h6.6v2.5h-6.6v3.3H378.3z"></path> <path class="st15" d="M390,855.5l-2.7-3.9h-0.2h-2.9v3.9h-3.3v-14.2h6.1c3.8,0,6.1,2,6.1,5.1c0,2.1-1.1,3.7-2.9,4.5l3.2,4.5H390z M386.9,844h-2.7v4.9h2.7c2,0,3-0.9,3-2.5C389.9,844.9,388.9,844,386.9,844z"></path> <path class="st15" d="M395.8,841.3h3.3v14.2h-3.3V841.3z"></path> <path class="st15" d="M415.4,841.3v14.2h-2.7l-7.1-8.6v8.6h-3.2v-14.2h2.7l7,8.6v-8.6H415.4z"></path> <path class="st15" d="M428.3,848.2h3v5.7c-1.6,1.2-3.7,1.8-5.7,1.8c-4.4,0-7.7-3.1-7.7-7.3s3.3-7.3,7.8-7.3c2.5,0,4.5,0.8,5.9,2.4 l-2.1,1.9c-1-1.1-2.2-1.6-3.7-1.6c-2.7,0-4.6,1.8-4.6,4.5c0,2.6,1.9,4.5,4.6,4.5c0.9,0,1.7-0.2,2.5-0.6V848.2z"></path> <path class="st15" d="M249.4,880l-1.7-1.6c-1.3,1-2.9,1.6-4.7,1.6c-3.1,0-5.4-1.6-5.4-3.9c0-1.8,1-3,3.1-4.2c-1-1.1-1.5-2-1.5-3 c0-2.1,1.7-3.5,4.4-3.5c2.4,0,4.1,1.3,4.1,3.3c0,1.5-0.8,2.5-2.8,3.6l2.6,2.4c0.3-0.6,0.5-1.4,0.7-2.2l2.5,0.8 c-0.3,1.2-0.7,2.3-1.3,3.2l1.7,1.5L249.4,880z M245.8,876.7l-3.4-3.2c-1.3,0.7-1.8,1.4-1.8,2.3c0,1,1,1.8,2.5,1.8 C244.2,877.5,245.1,877.3,245.8,876.7z M242.1,868.9c0,0.5,0.2,1,1.1,1.8c1.4-0.7,1.8-1.3,1.8-1.9c0-0.7-0.5-1.2-1.4-1.2 C242.7,867.6,242.1,868.1,242.1,868.9z"></path> <path class="st15" d="M259,865.6h6.4c4.6,0,7.8,2.8,7.8,7.1s-3.2,7.1-7.8,7.1H259V865.6z M265.2,877.1c2.8,0,4.6-1.7,4.6-4.4 s-1.8-4.4-4.6-4.4h-3v8.8H265.2z"></path> <path class="st15" d="M286.6,877.1v2.6h-11v-14.2h10.7v2.6h-7.4v3.1h6.6v2.5h-6.6v3.3H286.6z"></path> <path class="st15" d="M302.6,865.6l-6.1,14.2h-3.2l-6.1-14.2h3.5l4.3,10.1l4.4-10.1H302.6z"></path> <path class="st15" d="M303.8,865.6h3.3v14.2h-3.3V865.6z"></path> <path class="st15" d="M309.5,872.7c0-4.3,3.3-7.3,7.7-7.3c2.4,0,4.5,0.9,5.8,2.5l-2.1,1.9c-1-1.1-2.1-1.7-3.6-1.7 c-2.6,0-4.5,1.9-4.5,4.5s1.9,4.5,4.5,4.5c1.4,0,2.6-0.6,3.6-1.7l2.1,1.9c-1.3,1.6-3.4,2.5-5.8,2.5C312.8,880,309.5,877,309.5,872.7 z"></path> <path class="st15" d="M336.2,877.1v2.6h-11v-14.2H336v2.6h-7.4v3.1h6.6v2.5h-6.6v3.3H336.2z"></path> <path class="st15" d="M347.5,868.3H343v-2.7h12.3v2.7h-4.5v11.5h-3.3V868.3z"></path> <path class="st15" d="M368,877.1v2.6h-11v-14.2h10.7v2.6h-7.4v3.1h6.6v2.5h-6.6v3.3H368z"></path> <path class="st15" d="M369.5,878.4l1.1-2.5c1.2,0.9,3,1.5,4.7,1.5c1.9,0,2.7-0.6,2.7-1.5c0-2.6-8.2-0.8-8.2-6.1 c0-2.4,1.9-4.4,6-4.4c1.8,0,3.6,0.4,4.9,1.3l-1,2.5c-1.3-0.7-2.7-1.1-3.9-1.1c-1.9,0-2.7,0.7-2.7,1.6c0,2.6,8.2,0.8,8.2,6 c0,2.4-2,4.4-6,4.4C373,880,370.8,879.3,369.5,878.4z"></path> <path class="st15" d="M386.2,868.3h-4.5v-2.7H394v2.7h-4.5v11.5h-3.3V868.3z"></path> <path class="st15" d="M395.8,865.6h3.3v14.2h-3.3V865.6z"></path> <path class="st15" d="M415.4,865.6v14.2h-2.7l-7.1-8.6v8.6h-3.2v-14.2h2.7l7,8.6v-8.6H415.4z"></path> <path class="st15" d="M428.3,872.5h3v5.7c-1.6,1.2-3.7,1.8-5.7,1.8c-4.4,0-7.7-3.1-7.7-7.3s3.3-7.3,7.8-7.3c2.5,0,4.5,0.8,5.9,2.4 l-2.1,1.9c-1-1.1-2.2-1.6-3.7-1.6c-2.7,0-4.6,1.8-4.6,4.5c0,2.6,1.9,4.5,4.6,4.5c0.9,0,1.7-0.2,2.5-0.6V872.5z"></path> </g> <g> <path class="st15" d="M645.9,950.5c0-4.3,3.3-7.3,7.7-7.3c2.4,0,4.5,0.9,5.8,2.5l-2.1,1.9c-1-1.1-2.1-1.7-3.6-1.7 c-2.6,0-4.5,1.9-4.5,4.5c0,2.7,1.9,4.5,4.5,4.5c1.4,0,2.6-0.6,3.6-1.7l2.1,1.9c-1.3,1.6-3.4,2.5-5.8,2.5 C649.2,957.8,645.9,954.8,645.9,950.5z"></path> <path class="st15" d="M661.6,943.4h3.3v11.5h7.1v2.7h-10.4V943.4z"></path> <path class="st15" d="M672.7,950.5c0-4.2,3.3-7.3,7.7-7.3c4.4,0,7.7,3.1,7.7,7.3s-3.3,7.3-7.7,7.3 C676,957.8,672.7,954.7,672.7,950.5z M684.9,950.5c0-2.7-1.9-4.5-4.4-4.5s-4.4,1.8-4.4,4.5c0,2.7,1.9,4.5,4.4,4.5 S684.9,953.2,684.9,950.5z"></path> <path class="st15" d="M690.5,951.4v-7.9h3.3v7.8c0,2.7,1.2,3.8,3.2,3.8c2,0,3.2-1.1,3.2-3.8v-7.8h3.2v7.9c0,4.2-2.4,6.5-6.4,6.5 S690.5,955.5,690.5,951.4z"></path> <path class="st15" d="M706.6,943.4h6.4c4.6,0,7.8,2.8,7.8,7.1s-3.2,7.1-7.8,7.1h-6.4V943.4z M712.9,954.9c2.8,0,4.7-1.7,4.7-4.4 c0-2.7-1.8-4.4-4.7-4.4h-3v8.8H712.9z"></path> </g> <g> <path class="st15" d="M269.9,234.4c0-4.3,3.3-7.3,7.7-7.3c2.4,0,4.5,0.9,5.8,2.5l-2.1,1.9c-1-1.1-2.1-1.7-3.6-1.7 c-2.6,0-4.5,1.9-4.5,4.5c0,2.7,1.9,4.5,4.5,4.5c1.4,0,2.6-0.6,3.6-1.7l2.1,1.9c-1.3,1.6-3.4,2.5-5.8,2.5 C273.2,241.7,269.9,238.6,269.9,234.4z"></path> <path class="st15" d="M296.6,238.8v2.6h-11v-14.2h10.7v2.6h-7.4v3.1h6.6v2.5h-6.6v3.3H296.6z"></path> <path class="st15" d="M308.2,241.4l-2.7-3.9h-0.2h-2.9v3.9h-3.3v-14.2h6.1c3.8,0,6.1,2,6.1,5.1c0,2.1-1.1,3.7-2.9,4.5l3.2,4.5 H308.2z M305.1,229.9h-2.7v4.9h2.7c2,0,3-0.9,3-2.5C308.1,230.9,307.1,229.9,305.1,229.9z"></path> <path class="st15" d="M316.8,229.9h-4.5v-2.7h12.3v2.7H320v11.5h-3.3V229.9z"></path> <path class="st15" d="M326.3,227.3h3.3v14.2h-3.3V227.3z"></path> <path class="st15" d="M336.2,229.9v3.7h6.6v2.6h-6.6v5.2H333v-14.2h10.7v2.6H336.2z"></path> <path class="st15" d="M345.9,227.3h3.3v14.2h-3.3V227.3z"></path> <path class="st15" d="M351.6,234.4c0-4.3,3.3-7.3,7.7-7.3c2.4,0,4.5,0.9,5.8,2.5l-2.1,1.9c-1-1.1-2.1-1.7-3.6-1.7 c-2.6,0-4.5,1.9-4.5,4.5c0,2.7,1.9,4.5,4.5,4.5c1.4,0,2.6-0.6,3.6-1.7l2.1,1.9c-1.3,1.6-3.4,2.5-5.8,2.5 C354.9,241.7,351.6,238.6,351.6,234.4z"></path> <path class="st15" d="M376.4,238.4h-6.6l-1.3,3h-3.4l6.3-14.2h3.2l6.3,14.2h-3.4L376.4,238.4z M375.3,235.9l-2.2-5.4l-2.2,5.4 H375.3z"></path> <path class="st15" d="M384.8,229.9h-4.5v-2.7h12.3v2.7H388v11.5h-3.3V229.9z"></path> <path class="st15" d="M394.3,227.3h3.3v14.2h-3.3V227.3z"></path> <path class="st15" d="M400.1,234.4c0-4.2,3.3-7.3,7.7-7.3c4.4,0,7.7,3.1,7.7,7.3s-3.3,7.3-7.7,7.3 C403.3,241.7,400.1,238.6,400.1,234.4z M412.2,234.4c0-2.7-1.9-4.5-4.4-4.5c-2.5,0-4.4,1.8-4.4,4.5s1.9,4.5,4.4,4.5 C410.3,238.9,412.2,237,412.2,234.4z"></path> <path class="st15" d="M431,227.3v14.2h-2.7l-7.1-8.6v8.6H418v-14.2h2.7l7,8.6v-8.6H431z"></path> </g> <g> <polyline class="st16" points="461.2,813.5 446.4,838.2 446.4,883.9 "></polyline> <polyline class="st16" points="906,813.5 920.7,838.2 920.7,883.9 "></polyline> </g> <g> <path class="st15" d="M124.9,612.1v14.2h-3.3v-5.8h-6.4v5.8H112v-14.2h3.3v5.6h6.4v-5.6H124.9z"></path> <path class="st15" d="M128.2,620v-7.9h3.3v7.8c0,2.7,1.2,3.8,3.2,3.8c2,0,3.2-1.1,3.2-3.8v-7.8h3.2v7.9c0,4.2-2.4,6.5-6.4,6.5 S128.2,624.2,128.2,620z"></path> <path class="st15" d="M157.1,626.3l0-8.5l-4.2,7h-1.5l-4.1-6.8v8.3h-3.1v-14.2h2.7l5.3,8.8l5.2-8.8h2.7l0,14.2H157.1z"></path> <path class="st15" d="M172.9,623.2h-6.6l-1.3,3h-3.4l6.3-14.2h3.2l6.3,14.2h-3.4L172.9,623.2z M171.8,620.7l-2.2-5.4l-2.2,5.4 H171.8z"></path> <path class="st15" d="M192,612.1v14.2h-2.7l-7.1-8.6v8.6H179v-14.2h2.7l7,8.6v-8.6H192z"></path> <path class="st15" d="M200,624.9l1.1-2.5c1.2,0.9,3,1.5,4.7,1.5c1.9,0,2.7-0.6,2.7-1.5c0-2.6-8.2-0.8-8.2-6.1c0-2.4,1.9-4.4,6-4.4 c1.8,0,3.6,0.4,4.9,1.3l-1,2.5c-1.3-0.7-2.7-1.1-3.9-1.1c-1.9,0-2.7,0.7-2.7,1.6c0,2.6,8.2,0.8,8.2,6c0,2.4-2,4.4-6,4.4 C203.5,626.5,201.2,625.8,200,624.9z"></path> <path class="st15" d="M213.9,620v-7.9h3.3v7.8c0,2.7,1.2,3.8,3.2,3.8c2,0,3.2-1.1,3.2-3.8v-7.8h3.2v7.9c0,4.2-2.4,6.5-6.4,6.5 S213.9,624.2,213.9,620z"></path> <path class="st15" d="M242.9,622.4c0,2.4-1.9,3.9-5.7,3.9h-7.3v-14.2h6.9c3.5,0,5.4,1.5,5.4,3.7c0,1.4-0.7,2.5-1.9,3.1 C241.9,619.4,242.9,620.6,242.9,622.4z M233.2,614.6v3.3h3.3c1.6,0,2.5-0.6,2.5-1.7c0-1.1-0.9-1.7-2.5-1.7H233.2z M239.6,622.1 c0-1.2-0.9-1.8-2.6-1.8h-3.8v3.5h3.8C238.7,623.8,239.6,623.3,239.6,622.1z"></path> <path class="st15" d="M243.4,624.4l1.8-2.2c0.8,1,1.6,1.6,2.6,1.6c1.3,0,2-0.8,2-2.3v-6.7h-5v-2.6h8.2v9.2c0,3.5-1.8,5.2-5.1,5.2 C246.1,626.5,244.4,625.8,243.4,624.4z"></path> <path class="st15" d="M267.3,623.6v2.6h-11v-14.2H267v2.6h-7.4v3.1h6.6v2.5h-6.6v3.3H267.3z"></path> <path class="st15" d="M268.9,619.2c0-4.3,3.3-7.3,7.7-7.3c2.4,0,4.5,0.9,5.8,2.5l-2.1,1.9c-1-1.1-2.1-1.7-3.6-1.7 c-2.6,0-4.5,1.9-4.5,4.5s1.9,4.5,4.5,4.5c1.4,0,2.6-0.6,3.6-1.7l2.1,1.9c-1.3,1.6-3.4,2.5-5.8,2.5 C272.2,626.5,268.9,623.5,268.9,619.2z"></path> <path class="st15" d="M287.4,614.8h-4.5v-2.7h12.3v2.7h-4.5v11.5h-3.3V614.8z"></path> <path class="st15" d="M178.2,636.4l-6.1,14.2h-3.2l-6.1-14.2h3.5l4.3,10.1l4.4-10.1H178.2z"></path> <path class="st15" d="M188.2,647.5h-6.6l-1.3,3H177l6.3-14.2h3.2l6.3,14.2h-3.4L188.2,647.5z M187.2,645l-2.2-5.4l-2.2,5.4H187.2z"></path> <path class="st15" d="M194.4,636.4h3.3v11.5h7.1v2.7h-10.4V636.4z"></path> <path class="st15" d="M206.6,636.4h3.3v14.2h-3.3V636.4z"></path> <path class="st15" d="M213.2,636.4h6.4c4.6,0,7.8,2.8,7.8,7.1s-3.2,7.1-7.8,7.1h-6.4V636.4z M219.5,647.8c2.8,0,4.6-1.7,4.6-4.4 s-1.8-4.4-4.6-4.4h-3v8.8H219.5z"></path> <path class="st15" d="M239,647.5h-6.6l-1.3,3h-3.4l6.3-14.2h3.2l6.3,14.2h-3.4L239,647.5z M238,645l-2.2-5.4l-2.2,5.4H238z"></path> <path class="st15" d="M247.4,639h-4.5v-2.7h12.3v2.7h-4.5v11.5h-3.3V639z"></path> <path class="st15" d="M257,636.4h3.3v14.2H257V636.4z"></path> <path class="st15" d="M262.7,643.5c0-4.2,3.3-7.3,7.7-7.3c4.4,0,7.7,3.1,7.7,7.3s-3.3,7.3-7.7,7.3 C266,650.8,262.7,647.7,262.7,643.5z M274.9,643.5c0-2.7-1.9-4.5-4.4-4.5c-2.5,0-4.4,1.8-4.4,4.5c0,2.7,1.9,4.5,4.4,4.5 C273,648,274.9,646.1,274.9,643.5z"></path> <path class="st15" d="M293.7,636.4v14.2H291l-7.1-8.6v8.6h-3.2v-14.2h2.7l7,8.6v-8.6H293.7z"></path> </g> <g> <path class="st15" d="M1072.6,619.2c0-4.3,3.3-7.3,7.7-7.3c2.4,0,4.5,0.9,5.8,2.5l-2.1,1.9c-1-1.1-2.1-1.7-3.6-1.7 c-2.6,0-4.5,1.9-4.5,4.5s1.9,4.5,4.5,4.5c1.4,0,2.6-0.6,3.6-1.7l2.1,1.9c-1.3,1.6-3.4,2.5-5.8,2.5 C1075.9,626.5,1072.6,623.5,1072.6,619.2z"></path> <path class="st15" d="M1087.1,619.2c0-4.2,3.3-7.3,7.7-7.3c4.4,0,7.7,3.1,7.7,7.3s-3.3,7.3-7.7,7.3 C1090.4,626.5,1087.1,623.4,1087.1,619.2z M1099.3,619.2c0-2.7-1.9-4.5-4.4-4.5s-4.4,1.8-4.4,4.5c0,2.7,1.9,4.5,4.4,4.5 S1099.3,621.9,1099.3,619.2z"></path> <path class="st15" d="M1117.9,626.3l0-8.5l-4.2,7h-1.5l-4.1-6.8v8.3h-3.1v-14.2h2.7l5.3,8.8l5.2-8.8h2.7l0,14.2H1117.9z"></path> <path class="st15" d="M1136.6,617.2c0,3.2-2.4,5.1-6.1,5.1h-2.9v3.9h-3.3v-14.2h6.1C1134.3,612.1,1136.6,614.1,1136.6,617.2z M1133.3,617.2c0-1.6-1-2.5-3-2.5h-2.7v4.9h2.7C1132.3,619.7,1133.3,618.8,1133.3,617.2z"></path> <path class="st15" d="M1147.6,623.2h-6.6l-1.3,3h-3.4l6.3-14.2h3.2l6.3,14.2h-3.4L1147.6,623.2z M1146.5,620.7l-2.2-5.4l-2.2,5.4 H1146.5z"></path> <path class="st15" d="M1166.7,612.1v14.2h-2.7l-7.1-8.6v8.6h-3.2v-14.2h2.7l7,8.6v-8.6H1166.7z"></path> <path class="st15" d="M1170.1,612.1h3.3v14.2h-3.3V612.1z"></path> <path class="st15" d="M1175.8,619.2c0-4.2,3.3-7.3,7.7-7.3c4.4,0,7.7,3.1,7.7,7.3s-3.3,7.3-7.7,7.3 C1179.1,626.5,1175.8,623.4,1175.8,619.2z M1188,619.2c0-2.7-1.9-4.5-4.4-4.5s-4.4,1.8-4.4,4.5c0,2.7,1.9,4.5,4.4,4.5 S1188,621.9,1188,619.2z"></path> <path class="st15" d="M1206.8,612.1v14.2h-2.7l-7.1-8.6v8.6h-3.2v-14.2h2.7l7,8.6v-8.6H1206.8z"></path> <path class="st15" d="M1082.8,647.5h-6.6l-1.3,3h-3.4l6.3-14.2h3.2l6.3,14.2h-3.4L1082.8,647.5z M1081.8,645l-2.2-5.4l-2.2,5.4 H1081.8z"></path> <path class="st15" d="M1101.2,641.5c0,3.2-2.4,5.1-6.1,5.1h-2.9v3.9h-3.3v-14.2h6.1C1098.9,636.4,1101.2,638.3,1101.2,641.5z M1097.9,641.5c0-1.6-1-2.5-3-2.5h-2.7v4.9h2.7C1096.9,644,1097.9,643,1097.9,641.5z"></path> <path class="st15" d="M1115.8,641.5c0,3.2-2.4,5.1-6.1,5.1h-2.9v3.9h-3.3v-14.2h6.1C1113.5,636.4,1115.8,638.3,1115.8,641.5z M1112.5,641.5c0-1.6-1-2.5-3-2.5h-2.7v4.9h2.7C1111.5,644,1112.5,643,1112.5,641.5z"></path> <path class="st15" d="M1117.2,649.1l1.1-2.5c1.2,0.9,3,1.5,4.7,1.5c1.9,0,2.7-0.6,2.7-1.5c0-2.6-8.2-0.8-8.2-6.1 c0-2.4,1.9-4.4,6-4.4c1.8,0,3.6,0.4,4.9,1.3l-1,2.5c-1.3-0.7-2.7-1.1-3.9-1.1c-1.9,0-2.7,0.7-2.7,1.6c0,2.6,8.2,0.8,8.2,6 c0,2.4-2,4.4-6,4.4C1120.8,650.8,1118.5,650.1,1117.2,649.1z"></path> </g> <g> <path class="st15" d="M171,455.1l1.1-2.5c1.2,0.9,3,1.5,4.7,1.5c1.9,0,2.7-0.6,2.7-1.5c0-2.6-8.2-0.8-8.2-6.1c0-2.4,1.9-4.4,6-4.4 c1.8,0,3.6,0.4,4.9,1.3l-1,2.5c-1.3-0.7-2.7-1.1-3.9-1.1c-1.9,0-2.7,0.7-2.7,1.6c0,2.6,8.2,0.8,8.2,6c0,2.4-2,4.4-6,4.4 C174.5,456.7,172.3,456.1,171,455.1z"></path> <path class="st15" d="M196,453.9v2.6h-11v-14.2h10.7v2.6h-7.4v3.1h6.6v2.5h-6.6v3.3H196z"></path> <path class="st15" d="M197.7,449.4c0-4.3,3.3-7.3,7.7-7.3c2.4,0,4.5,0.9,5.8,2.5l-2.1,1.9c-1-1.1-2.1-1.7-3.6-1.7 c-2.6,0-4.5,1.9-4.5,4.5c0,2.7,1.9,4.5,4.5,4.5c1.4,0,2.6-0.6,3.6-1.7l2.1,1.9c-1.3,1.6-3.4,2.5-5.8,2.5 C200.9,456.7,197.7,453.7,197.7,449.4z"></path> <path class="st15" d="M213.1,450.3v-7.9h3.3v7.8c0,2.7,1.2,3.8,3.2,3.8c2,0,3.2-1.1,3.2-3.8v-7.8h3.2v7.9c0,4.2-2.4,6.5-6.4,6.5 S213.1,454.4,213.1,450.3z"></path> <path class="st15" d="M238.2,456.5l-2.7-3.9h-0.2h-2.9v3.9h-3.3v-14.2h6.1c3.8,0,6.1,2,6.1,5.1c0,2.1-1.1,3.7-2.9,4.5l3.2,4.5 H238.2z M235.1,445h-2.7v4.9h2.7c2,0,3-0.9,3-2.5C238.1,445.9,237.1,445,235.1,445z"></path> <path class="st15" d="M244,442.3h3.3v14.2H244V442.3z"></path> <path class="st15" d="M253.6,445h-4.5v-2.7h12.3v2.7h-4.5v11.5h-3.3V445z"></path> <path class="st15" d="M269.7,451.5v5h-3.3v-5.1l-5.5-9.1h3.5l3.8,6.3l3.8-6.3h3.2L269.7,451.5z"></path> <path class="st15" d="M293.2,456.7l-1.7-1.6c-1.3,1-2.9,1.6-4.7,1.6c-3.1,0-5.4-1.6-5.4-3.9c0-1.8,1-3,3.1-4.2c-1-1.1-1.5-2-1.5-3 c0-2.1,1.7-3.5,4.4-3.5c2.4,0,4.1,1.3,4.1,3.3c0,1.5-0.8,2.5-2.8,3.6l2.6,2.4c0.3-0.6,0.5-1.4,0.7-2.2l2.5,0.8 c-0.3,1.2-0.7,2.3-1.3,3.2l1.7,1.5L293.2,456.7z M289.6,453.4l-3.4-3.2c-1.3,0.7-1.8,1.4-1.8,2.3c0,1,1,1.8,2.5,1.8 C287.9,454.3,288.8,454,289.6,453.4z M285.9,445.6c0,0.5,0.2,1,1.1,1.8c1.4-0.7,1.8-1.3,1.8-1.9c0-0.7-0.5-1.2-1.4-1.2 C286.4,444.3,285.9,444.8,285.9,445.6z"></path> <path class="st15" d="M56,473.7c0-4.3,3.3-7.3,7.7-7.3c2.4,0,4.5,0.9,5.8,2.5l-2.1,1.9c-1-1.1-2.1-1.7-3.6-1.7 c-2.6,0-4.5,1.9-4.5,4.5c0,2.7,1.9,4.5,4.5,4.5c1.4,0,2.6-0.6,3.6-1.7l2.1,1.9c-1.3,1.6-3.4,2.5-5.8,2.5 C59.3,481,56,477.9,56,473.7z"></path> <path class="st15" d="M70.6,473.7c0-4.2,3.3-7.3,7.7-7.3c4.4,0,7.7,3.1,7.7,7.3s-3.3,7.3-7.7,7.3C73.8,481,70.6,477.9,70.6,473.7z M82.7,473.7c0-2.7-1.9-4.5-4.4-4.5c-2.5,0-4.4,1.8-4.4,4.5s1.9,4.5,4.4,4.5C80.8,478.2,82.7,476.4,82.7,473.7z"></path> <path class="st15" d="M101.4,480.7l0-8.5l-4.2,7h-1.5l-4.1-6.8v8.3h-3.1v-14.2h2.7l5.3,8.8l5.2-8.8h2.7l0,14.2H101.4z"></path> <path class="st15" d="M120.1,471.7c0,3.2-2.4,5.1-6.1,5.1h-2.9v3.9h-3.3v-14.2h6.1C117.7,466.6,120.1,468.5,120.1,471.7z M116.8,471.7c0-1.6-1-2.5-3-2.5h-2.7v4.9h2.7C115.8,474.2,116.8,473.3,116.8,471.7z"></path> <path class="st15" d="M122.4,466.6h3.3v11.5h7.1v2.7h-10.4V466.6z"></path> <path class="st15" d="M134.6,466.6h3.3v14.2h-3.3V466.6z"></path> <path class="st15" d="M150.6,477.7H144l-1.3,3h-3.4l6.3-14.2h3.2l6.3,14.2h-3.4L150.6,477.7z M149.6,475.2l-2.2-5.4l-2.2,5.4H149.6 z"></path> <path class="st15" d="M169.7,466.6v14.2H167l-7.1-8.6v8.6h-3.2v-14.2h2.7l7,8.6v-8.6H169.7z"></path> <path class="st15" d="M172.2,473.7c0-4.3,3.3-7.3,7.7-7.3c2.4,0,4.5,0.9,5.8,2.5l-2.1,1.9c-1-1.1-2.1-1.7-3.6-1.7 c-2.6,0-4.5,1.9-4.5,4.5c0,2.7,1.9,4.5,4.5,4.5c1.4,0,2.6-0.6,3.6-1.7l2.1,1.9c-1.3,1.6-3.4,2.5-5.8,2.5 C175.5,481,172.2,477.9,172.2,473.7z"></path> <path class="st15" d="M198.9,478.1v2.6h-11v-14.2h10.7v2.6h-7.4v3.1h6.6v2.5h-6.6v3.3H198.9z"></path> <path class="st15" d="M210.1,469.3h-4.5v-2.7h12.3v2.7h-4.5v11.5h-3.3V469.3z"></path> <path class="st15" d="M230.7,478.1v2.6h-11v-14.2h10.7v2.6H223v3.1h6.6v2.5H223v3.3H230.7z"></path> <path class="st15" d="M232.2,479.3l1.1-2.5c1.2,0.9,3,1.5,4.7,1.5c1.9,0,2.7-0.6,2.7-1.5c0-2.6-8.2-0.8-8.2-6.1 c0-2.4,1.9-4.4,6-4.4c1.8,0,3.6,0.4,4.9,1.3l-1,2.5c-1.3-0.7-2.7-1.1-3.9-1.1c-1.9,0-2.7,0.7-2.7,1.6c0,2.6,8.2,0.8,8.2,6 c0,2.4-2,4.4-6,4.4C235.7,481,233.4,480.3,232.2,479.3z"></path> <path class="st15" d="M248.9,469.3h-4.5v-2.7h12.3v2.7h-4.5v11.5h-3.3V469.3z"></path> <path class="st15" d="M258.5,466.6h3.3v14.2h-3.3V466.6z"></path> <path class="st15" d="M278.1,466.6v14.2h-2.7l-7.1-8.6v8.6h-3.2v-14.2h2.7l7,8.6v-8.6H278.1z"></path> <path class="st15" d="M291,473.4h3v5.7c-1.6,1.2-3.7,1.8-5.7,1.8c-4.4,0-7.7-3.1-7.7-7.3s3.3-7.3,7.8-7.3c2.5,0,4.5,0.8,5.9,2.4 l-2.1,1.9c-1-1.1-2.2-1.6-3.7-1.6c-2.8,0-4.6,1.8-4.6,4.5c0,2.6,1.9,4.5,4.6,4.5c0.9,0,1.7-0.2,2.5-0.6V473.4z"></path> </g> <g> <path class="st15" d="M1073.5,442.3h6.4c4.6,0,7.8,2.8,7.8,7.1s-3.2,7.1-7.8,7.1h-6.4V442.3z M1079.7,453.8c2.8,0,4.7-1.7,4.7-4.4 c0-2.7-1.8-4.4-4.7-4.4h-3v8.8H1079.7z"></path> <path class="st15" d="M1101.1,453.9v2.6h-11v-14.2h10.7v2.6h-7.4v3.1h6.6v2.5h-6.6v3.3H1101.1z"></path> <path class="st15" d="M1117.1,442.3l-6.1,14.2h-3.2l-6.1-14.2h3.5l4.3,10.1l4.4-10.1H1117.1z"></path> <path class="st15" d="M1118.3,442.3h3.3v14.2h-3.3V442.3z"></path> <path class="st15" d="M1124.1,449.4c0-4.3,3.3-7.3,7.7-7.3c2.4,0,4.5,0.9,5.8,2.5l-2.1,1.9c-1-1.1-2.1-1.7-3.6-1.7 c-2.6,0-4.5,1.9-4.5,4.5c0,2.7,1.9,4.5,4.5,4.5c1.4,0,2.6-0.6,3.6-1.7l2.1,1.9c-1.3,1.6-3.4,2.5-5.8,2.5 C1127.3,456.7,1124.1,453.7,1124.1,449.4z"></path> <path class="st15" d="M1150.7,453.9v2.6h-11v-14.2h10.7v2.6h-7.4v3.1h6.6v2.5h-6.6v3.3H1150.7z"></path> <path class="st15" d="M1169.9,456.7l-1.7-1.6c-1.3,1-2.9,1.6-4.7,1.6c-3.1,0-5.4-1.6-5.4-3.9c0-1.8,1-3,3.1-4.2c-1-1.1-1.5-2-1.5-3 c0-2.1,1.7-3.5,4.4-3.5c2.4,0,4.1,1.3,4.1,3.3c0,1.5-0.8,2.5-2.8,3.6l2.6,2.4c0.3-0.6,0.5-1.4,0.7-2.2l2.5,0.8 c-0.3,1.2-0.7,2.3-1.3,3.2l1.7,1.5L1169.9,456.7z M1166.4,453.4l-3.4-3.2c-1.3,0.7-1.8,1.4-1.8,2.3c0,1,1,1.8,2.5,1.8 C1164.7,454.3,1165.6,454,1166.4,453.4z M1162.6,445.6c0,0.5,0.2,1,1.1,1.8c1.4-0.7,1.8-1.3,1.8-1.9c0-0.7-0.5-1.2-1.4-1.2 C1163.2,444.3,1162.6,444.8,1162.6,445.6z"></path> <path class="st15" d="M1192.5,442.3v14.2h-3.3v-5.8h-6.4v5.8h-3.3v-14.2h3.3v5.6h6.4v-5.6H1192.5z"></path> <path class="st15" d="M1206.8,453.9v2.6h-11v-14.2h10.7v2.6h-7.4v3.1h6.6v2.5h-6.6v3.3H1206.8z"></path> <path class="st15" d="M1218.7,453.4h-6.6l-1.3,3h-3.4l6.3-14.2h3.2l6.3,14.2h-3.4L1218.7,453.4z M1217.7,451l-2.2-5.4l-2.2,5.4 H1217.7z"></path> <path class="st15" d="M1224.9,442.3h3.3v11.5h7.1v2.7h-10.4V442.3z"></path> <path class="st15" d="M1238.7,445h-4.5v-2.7h12.3v2.7h-4.5v11.5h-3.3V445z"></path> <path class="st15" d="M1261.3,442.3v14.2h-3.3v-5.8h-6.4v5.8h-3.3v-14.2h3.3v5.6h6.4v-5.6H1261.3z"></path> <path class="st15" d="M1085.7,471.7c0,3.2-2.4,5.1-6.1,5.1h-2.9v3.9h-3.3v-14.2h6.1C1083.4,466.6,1085.7,468.5,1085.7,471.7z M1082.4,471.7c0-1.6-1-2.5-3-2.5h-2.7v4.9h2.7C1081.4,474.2,1082.4,473.3,1082.4,471.7z"></path> <path class="st15" d="M1088.1,466.6h3.3v11.5h7.1v2.7h-10.4V466.6z"></path> <path class="st15" d="M1109.7,477.7h-6.6l-1.3,3h-3.4l6.3-14.2h3.2l6.3,14.2h-3.4L1109.7,477.7z M1108.7,475.2l-2.2-5.4l-2.2,5.4 H1108.7z"></path> <path class="st15" d="M1118.1,469.3h-4.5v-2.7h12.3v2.7h-4.5v11.5h-3.3V469.3z"></path> <path class="st15" d="M1131,469.2v3.7h6.6v2.6h-6.6v5.2h-3.3v-14.2h10.7v2.6H1131z"></path> <path class="st15" d="M1139.6,473.7c0-4.2,3.3-7.3,7.7-7.3c4.4,0,7.7,3.1,7.7,7.3s-3.3,7.3-7.7,7.3 C1142.8,481,1139.6,477.9,1139.6,473.7z M1151.7,473.7c0-2.7-1.9-4.5-4.4-4.5s-4.4,1.8-4.4,4.5s1.9,4.5,4.4,4.5 S1151.7,476.4,1151.7,473.7z"></path> <path class="st15" d="M1166.5,480.7l-2.7-3.9h-0.2h-2.9v3.9h-3.3v-14.2h6.1c3.8,0,6.1,2,6.1,5.1c0,2.1-1.1,3.7-2.9,4.5l3.2,4.5 H1166.5z M1163.5,469.3h-2.7v4.9h2.7c2,0,3-0.9,3-2.5C1166.5,470.2,1165.5,469.3,1163.5,469.3z"></path> <path class="st15" d="M1185.3,480.7l0-8.5l-4.2,7h-1.5l-4.1-6.8v8.3h-3.1v-14.2h2.7l5.3,8.8l5.2-8.8h2.7l0,14.2H1185.3z"></path> <path class="st15" d="M1208.4,478.1v2.6h-11v-14.2h10.7v2.6h-7.4v3.1h6.6v2.5h-6.6v3.3H1208.4z"></path> <path class="st15" d="M1224,466.6v14.2h-2.7l-7.1-8.6v8.6h-3.2v-14.2h2.7l7,8.6v-8.6H1224z"></path> <path class="st15" d="M1236.9,473.4h3v5.7c-1.6,1.2-3.7,1.8-5.7,1.8c-4.4,0-7.7-3.1-7.7-7.3s3.3-7.3,7.8-7.3c2.5,0,4.5,0.8,5.9,2.4 l-2.1,1.9c-1-1.1-2.2-1.6-3.7-1.6c-2.8,0-4.6,1.8-4.6,4.5c0,2.6,1.9,4.5,4.6,4.5c0.9,0,1.7-0.2,2.5-0.6V473.4z"></path> <path class="st15" d="M1242.9,466.6h3.3v14.2h-3.3V466.6z"></path> <path class="st15" d="M1262.5,466.6v14.2h-2.7l-7.1-8.6v8.6h-3.2v-14.2h2.7l7,8.6v-8.6H1262.5z"></path> <path class="st15" d="M1276.8,478.1v2.6h-11v-14.2h10.7v2.6h-7.4v3.1h6.6v2.5h-6.6v3.3H1276.8z"></path> <path class="st15" d="M1290.4,478.1v2.6h-11v-14.2h10.7v2.6h-7.4v3.1h6.6v2.5h-6.6v3.3H1290.4z"></path> <path class="st15" d="M1302,480.7l-2.7-3.9h-0.2h-2.9v3.9h-3.3v-14.2h6.1c3.8,0,6.1,2,6.1,5.1c0,2.1-1.1,3.7-2.9,4.5l3.2,4.5H1302z M1298.9,469.3h-2.7v4.9h2.7c2,0,3-0.9,3-2.5C1302,470.2,1300.9,469.3,1298.9,469.3z"></path> <path class="st15" d="M1307.9,466.6h3.3v14.2h-3.3V466.6z"></path> <path class="st15" d="M1327.5,466.6v14.2h-2.7l-7.1-8.6v8.6h-3.2v-14.2h2.7l7,8.6v-8.6H1327.5z"></path> <path class="st15" d="M1340.4,473.4h3v5.7c-1.6,1.2-3.7,1.8-5.7,1.8c-4.4,0-7.7-3.1-7.7-7.3s3.3-7.3,7.8-7.3c2.5,0,4.5,0.8,5.9,2.4 l-2.1,1.9c-1-1.1-2.2-1.6-3.7-1.6c-2.8,0-4.6,1.8-4.6,4.5c0,2.6,1.9,4.5,4.6,4.5c0.9,0,1.7-0.2,2.5-0.6V473.4z"></path> </g> <g> <polyline class="st16" points="327,603.8 309.2,603.8 309.2,656.1 "></polyline> <polyline class="st16" points="1040.2,603.8 1057.9,603.8 1057.9,656.1 "></polyline> </g> <line class="st16" x1="683.6" y1="922.6" x2="683.6" y2="891.2"></line> <g> <path class="st13" d="M683,366.8c13.7,0,27.1,1.5,40,4.4c7.7,1.7,15.4-2.6,18-10l39.9-110c3.1-8.6-1.7-18-10.5-20.5 c-27.8-7.6-57.1-11.7-87.3-11.7c-30.2,0-59.5,4.1-87.3,11.7c-8.8,2.4-13.6,11.9-10.5,20.5l39.9,110c2.7,7.4,10.4,11.7,18,10 C655.9,368.3,669.2,366.8,683,366.8z"></path> <path class="st13" d="M843.7,435.2L942,372c7.7-5,9.6-15.4,4-22.7c-32.8-42.8-75.8-77.4-125.3-100.2c-8.3-3.8-18.2,0.3-21.3,8.9 l-39.9,110c-2.7,7.4,0.6,15.7,7.6,19.3c21.5,11.1,40.5,26.4,56,44.7C828.2,438,837,439.4,843.7,435.2z"></path> <path class="st13" d="M606.4,367.9l-39.9-110c-3.1-8.6-13-12.7-21.3-8.9c-49.6,22.7-92.6,57.3-125.3,100.2 c-5.6,7.3-3.7,17.8,4,22.7l98.4,63.2c6.7,4.3,15.4,2.9,20.5-3.2c15.5-18.3,34.5-33.6,56-44.7C605.8,383.6,609.1,375.4,606.4,367.9z "></path> <path class="st13" d="M501.2,526.5c2.5-19.3,8-37.7,16-54.7c3.4-7.2,1-15.7-5.6-20l-98.4-63.2c-7.7-4.9-18-2.3-22.3,5.8 c-20.9,39-34.1,82.7-37.8,129c-0.7,9.1,6.5,16.9,15.6,16.9h116.9C493.5,540.3,500.2,534.3,501.2,526.5z"></path> <path class="st13" d="M880.3,540.3h116.9c9.2,0,16.4-7.8,15.6-16.9c-3.7-46.4-17-90-37.8-129c-4.3-8.1-14.6-10.7-22.3-5.8 l-98.4,63.2c-6.7,4.3-9,12.9-5.6,20c8,17,13.5,35.4,16,54.7C865.8,534.3,872.4,540.3,880.3,540.3z"></path> </g> <g> <polyline class="st16" points="905.4,281.6 920.1,256.8 920.1,224.1 "></polyline> <polyline class="st16" points="460.6,281.6 445.8,256.8 445.8,224.1 "></polyline> </g> <g> <polyline class="st16" points="1039.6,491.2 1057.3,491.2 1057.3,438.9 "></polyline> <polyline class="st16" points="326.4,491.2 308.6,491.2 308.6,438.9 "></polyline> </g> <line class="st16" x1="683" y1="172.4" x2="683" y2="203.8"></line> <g> <g> <path class="st4" d="M660.1,290.9c0-11.1,6.2-17.5,14.8-17.5c8.5,0,14.8,6.4,14.8,17.5c0,11.1-6.2,17.5-14.8,17.5 C666.3,308.4,660.1,302,660.1,290.9z M680.1,290.9c0-7.1-2.2-9.7-5.2-9.7c-3.1,0-5.3,2.6-5.3,9.7s2.2,9.7,5.3,9.7 C677.9,300.6,680.1,298,680.1,290.9z"></path> <path class="st4" d="M708.2,274.1v33.6h-9.5v-26.3h-6.2v-7.3H708.2z"></path> </g> </g> <g> <g> <path class="st4" d="M654,802.7c0-11.1,6.2-17.5,14.8-17.5c8.5,0,14.8,6.4,14.8,17.5s-6.2,17.5-14.8,17.5 C660.3,820.2,654,813.8,654,802.7z M674.1,802.7c0-7.1-2.2-9.7-5.2-9.7c-3.1,0-5.3,2.6-5.3,9.7s2.2,9.7,5.3,9.7 C671.9,812.4,674.1,809.8,674.1,802.7z"></path> <path class="st4" d="M716.9,808.7c0,7-5.9,11.5-13.2,11.5c-9.4,0-15.6-5.7-15.6-16.6c0-11.7,7.2-18.4,17.9-18.4 c3.8,0,7.4,0.9,9.9,2.4l-3.5,6.8c-1.9-1.3-4-1.7-6.2-1.7c-4.8,0-8,2.7-8.5,7.8c1.9-1.6,4.4-2.5,7.6-2.5 C711.6,798.1,716.9,802.3,716.9,808.7z M707.6,809.1c0-2.6-1.9-4.2-4.6-4.2s-4.7,1.7-4.7,4.3c0,2.5,1.8,4.2,4.7,4.2 C705.8,813.4,707.6,811.8,707.6,809.1z"></path> </g> </g> <g> <g> <path class="st4" d="M816.2,349.5c0-11.1,6.2-17.5,14.8-17.5c8.5,0,14.8,6.4,14.8,17.5c0,11.1-6.2,17.5-14.8,17.5 C822.4,367,816.2,360.6,816.2,349.5z M836.3,349.5c0-7.1-2.2-9.7-5.2-9.7c-3.1,0-5.3,2.6-5.3,9.7s2.2,9.7,5.3,9.7 C834,359.2,836.3,356.6,836.3,349.5z"></path> <path class="st4" d="M875.9,358.8v7.5h-26.2v-6l12.6-11.8c2.7-2.5,3.1-4,3.1-5.4c0-2.2-1.4-3.5-4.3-3.5c-2.4,0-4.7,1.1-6,3.3 l-7.1-3.9c2.5-4.2,7.3-7,13.9-7c7.7,0,13.1,4,13.1,10.2c0,3.3-0.9,6.2-5.7,10.7l-6.3,5.9H875.9z"></path> </g> </g> <g> <g> <path class="st4" d="M901,475.4c0-11.1,6.2-17.5,14.8-17.5c8.5,0,14.8,6.4,14.8,17.5c0,11.1-6.2,17.5-14.8,17.5 C907.3,492.9,901,486.5,901,475.4z M921.1,475.4c0-7.1-2.2-9.7-5.2-9.7c-3.1,0-5.3,2.6-5.3,9.7s2.2,9.7,5.3,9.7 C918.9,485.1,921.1,482.5,921.1,475.4z"></path> <path class="st4" d="M960.5,481.7c0,5.7-4.5,11.2-14.6,11.2c-4.7,0-9.6-1.2-13.1-3.3l3.5-7.2c2.7,1.8,6.1,2.8,9.3,2.8 c3.2,0,5.3-1.2,5.3-3.5c0-2-1.5-3.3-5.1-3.3h-4v-6l6-6.5h-13.2v-7.3h24.3v6l-7,7.5C957.5,473.3,960.5,476.9,960.5,481.7z"></path> </g> </g> <g> <g> <path class="st4" d="M501.9,332.7v33.6h-9.5v-26.3h-6.2v-7.3H501.9z"></path> <path class="st4" d="M508.1,349.5c0-11.1,6.2-17.5,14.8-17.5c8.5,0,14.8,6.4,14.8,17.5c0,11.1-6.2,17.5-14.8,17.5 C514.4,367,508.1,360.6,508.1,349.5z M528.2,349.5c0-7.1-2.2-9.7-5.2-9.7c-3.1,0-5.3,2.6-5.3,9.7s2.2,9.7,5.3,9.7 C526,359.2,528.2,356.6,528.2,349.5z"></path> </g> </g> <g> <g> <path class="st4" d="M815.8,746.6c0-11.1,6.2-17.5,14.8-17.5c8.5,0,14.8,6.4,14.8,17.5c0,11.1-6.2,17.5-14.8,17.5 C822,764,815.8,757.7,815.8,746.6z M835.9,746.6c0-7.1-2.2-9.7-5.2-9.7c-3.1,0-5.3,2.6-5.3,9.7s2.2,9.7,5.3,9.7 C833.7,756.3,835.9,753.6,835.9,746.6z"></path> <path class="st4" d="M876.3,752.6c0,6-4.5,11.5-14.6,11.5c-4.7,0-9.6-1.2-13-3.3l3.4-7.2c2.7,1.8,6.1,2.8,9.3,2.8 c3.2,0,5.4-1.3,5.4-3.6c0-2.1-1.4-3.4-6.5-3.4h-9.1l1.7-19.6h21.4v7.3h-13.5l-0.4,4.9h2.3C872.4,742,876.3,746.6,876.3,752.6z"></path> </g> </g> <g> <g> <path class="st4" d="M482.1,746.6c0-11.1,6.2-17.5,14.8-17.5c8.5,0,14.8,6.4,14.8,17.5c0,11.1-6.2,17.5-14.8,17.5 C488.4,764,482.1,757.7,482.1,746.6z M502.2,746.6c0-7.1-2.2-9.7-5.2-9.7c-3.1,0-5.3,2.6-5.3,9.7s2.2,9.7,5.3,9.7 C500,756.3,502.2,753.6,502.2,746.6z"></path> <path class="st4" d="M543.4,729.8v6l-11.9,27.7h-10.4l11.3-26.1h-8.8v5.2h-8.1v-12.7H543.4z"></path> </g> </g> <g> <g> <path class="st4" d="M400,475.4c0-11.1,6.2-17.5,14.8-17.5c8.5,0,14.8,6.4,14.8,17.5c0,11.1-6.2,17.5-14.8,17.5 C406.3,492.9,400,486.5,400,475.4z M420.1,475.4c0-7.1-2.2-9.7-5.2-9.7c-3.1,0-5.3,2.6-5.3,9.7s2.2,9.7,5.3,9.7 C417.9,485.1,420.1,482.5,420.1,475.4z"></path> <path class="st4" d="M462,474.5c0,11.7-7.2,18.4-17.9,18.4c-3.7,0-7.4-0.9-9.8-2.4l3.5-6.8c1.9,1.3,4,1.7,6.2,1.7 c4.8,0,7.9-2.7,8.4-7.8c-1.9,1.6-4.4,2.4-7.5,2.4c-6.3,0-11.6-4.2-11.6-10.6c0-7,5.9-11.5,13.2-11.5 C455.8,457.9,462,463.6,462,474.5z M451.7,468.9c0-2.5-1.8-4.2-4.7-4.2c-2.7,0-4.6,1.6-4.6,4.3c0,2.6,1.9,4.2,4.6,4.2 S451.7,471.5,451.7,468.9z"></path> </g> </g> <g> <g> <path class="st4" d="M898.4,619.3c0-11.1,6.2-17.5,14.8-17.5c8.5,0,14.8,6.4,14.8,17.5s-6.2,17.5-14.8,17.5 C904.7,636.8,898.4,630.4,898.4,619.3z M918.5,619.3c0-7.1-2.2-9.7-5.2-9.7c-3.1,0-5.3,2.6-5.3,9.7s2.2,9.7,5.3,9.7 C916.3,629,918.5,626.4,918.5,619.3z"></path> <path class="st4" d="M964.2,629.7h-5v6.4H950v-6.4h-17.8v-6.2l15.1-21h9.8l-13.7,19.6h6.8v-5.7h9v5.7h5V629.7z"></path> </g> </g> <g> <g> <path class="st4" d="M399.5,619.3c0-11.1,6.2-17.5,14.8-17.5c8.5,0,14.8,6.4,14.8,17.5s-6.2,17.5-14.8,17.5 C405.8,636.8,399.5,630.4,399.5,619.3z M419.6,619.3c0-7.1-2.2-9.7-5.2-9.7c-3.1,0-5.3,2.6-5.3,9.7s2.2,9.7,5.3,9.7 C417.4,629,419.6,626.4,419.6,619.3z"></path> <path class="st4" d="M462.6,626.2c0,6.4-5.9,10.6-14.6,10.6c-8.7,0-14.6-4.1-14.6-10.6c0-3.5,1.8-6.1,4.8-7.8 c-2.3-1.6-3.6-3.9-3.6-6.8c0-6,5.5-9.8,13.4-9.8c7.9,0,13.4,3.8,13.4,9.8c0,2.9-1.3,5.2-3.6,6.8 C460.8,620.1,462.6,622.8,462.6,626.2z M453.1,626c0-2.6-2-4.2-5-4.2c-3,0-5,1.6-5,4.2c0,2.6,2,4.2,5,4.2 C451,630.1,453.1,628.5,453.1,626z M444,612.1c0,2.2,1.6,3.5,4,3.5c2.4,0,4-1.3,4-3.5c0-2.3-1.7-3.6-4-3.6 C445.7,608.5,444,609.8,444,612.1z"></path> </g> </g> <g> <g> <g> <path class="st4" d="M645.8,564.5c0,3.7-2.8,6-7.2,6h-2.8v4.2h-4.6v-16.1h7.4C643.1,558.5,645.8,560.8,645.8,564.5z M641.2,564.5 c0-1.5-0.9-2.4-2.8-2.4h-2.5v4.7h2.5C640.3,566.9,641.2,566,641.2,564.5z"></path> <path class="st4" d="M658.6,571.6h-6.8l-1.3,3.1h-4.7l7.1-16.1h4.5l7.2,16.1h-4.8L658.6,571.6z M657.3,568.2l-2.1-5.2l-2.1,5.2 H657.3z"></path> <path class="st4" d="M669.2,562.2h-5v-3.6h14.5v3.6h-4.9v12.5h-4.6V562.2z"></path> <path class="st4" d="M680.9,558.5h4.6v16.1h-4.6V558.5z"></path> <path class="st4" d="M702.3,571.2v3.5h-13v-16.1H702v3.5h-8.1v2.7h7.2v3.4h-7.2v3H702.3z"></path> <path class="st4" d="M720.8,558.5v16.1H717l-7.1-8.6v8.6h-4.5v-16.1h3.8l7.1,8.6v-8.6H720.8z"></path> <path class="st4" d="M728,562.2h-5v-3.6h14.5v3.6h-4.9v12.5H728V562.2z"></path> </g> <g> <path class="st4" d="M632.1,586.7c0-3.3,2.5-5.8,6-5.8c1.7,0,3.2,0.6,4.2,1.7l-0.8,0.8c-0.9-0.9-2.1-1.4-3.4-1.4 c-2.8,0-4.8,2-4.8,4.7s2.1,4.7,4.8,4.7c1.3,0,2.4-0.4,3.4-1.4l0.8,0.8c-1,1.1-2.5,1.7-4.2,1.7 C634.6,592.5,632.1,590.1,632.1,586.7z"></path> <path class="st4" d="M653.7,591.4v1h-8.1V581h7.8v1h-6.6v4.1h5.9v1h-5.9v4.2H653.7z"></path> <path class="st4" d="M666.9,581v11.4h-1l-7.3-9.3v9.3h-1.2V581h1l7.3,9.3V581H666.9z"></path> <path class="st4" d="M673.7,582.1h-4v-1h9.2v1h-4v10.4h-1.2V582.1z"></path> <path class="st4" d="M689.4,592.4l-2.6-3.7c-0.3,0-0.6,0-0.9,0h-3.1v3.6h-1.2V581h4.3c2.9,0,4.7,1.5,4.7,3.9c0,1.8-0.9,3-2.6,3.6 l2.8,3.9H689.4z M689.3,584.9c0-1.8-1.2-2.9-3.5-2.9h-3v5.7h3C688.1,587.8,689.3,586.7,689.3,584.9z"></path> <path class="st4" d="M694.2,581h1.2v11.4h-1.2V581z"></path> <path class="st4" d="M698.9,586.7c0-3.3,2.5-5.8,6-5.8c1.7,0,3.2,0.6,4.2,1.7l-0.8,0.8c-0.9-0.9-2.1-1.4-3.4-1.4 c-2.8,0-4.8,2-4.8,4.7s2.1,4.7,4.8,4.7c1.3,0,2.4-0.4,3.4-1.4l0.8,0.8c-1,1.1-2.5,1.7-4.2,1.7 C701.5,592.5,698.9,590.1,698.9,586.7z"></path> <path class="st4" d="M712.5,581h1.2v11.4h-1.2V581z"></path> <path class="st4" d="M720.4,582.1h-4v-1h9.2v1h-4v10.4h-1.2V582.1z"></path> <path class="st4" d="M732.2,588.5v3.9H731v-3.9l-4.6-7.5h1.3l3.9,6.4l3.9-6.4h1.2L732.2,588.5z"></path> </g> </g> </g> <g> <path class="st17" d="M709.5,487.3c0,0-1.9,1.8-7.6,1.8c-1.3,0-2.7-0.1-4.4-0.3c-9.7-1.2-13.8-5.5-13.8-5.5s-4.1,4.3-13.8,5.5 c-1.7,0.2-3.1,0.3-4.4,0.3c-5.7,0-7.6-1.8-7.6-1.8s-5.6,33.1,25.8,51.3C715,520.4,709.5,487.3,709.5,487.3z"></path> <polygon class="st17" points="687.3,498.8 680.1,498.8 680.1,506 672.9,506 672.9,513.1 680.1,513.1 680.1,520.3 687.3,520.3 687.3,513.1 694.5,513.1 694.5,506 687.3,506 "></polygon> </g> </svg> 