<?xml version="1.0" encoding="UTF-8"?> <svg xmlns="http://www.w3.org/2000/svg" width="64" height="64" viewBox="0 0 64 64" fill="none"><g clip-path="url(#clip0_506_11167)"><path d="M30.67 45.0698C23.84 44.7098 18.41 39.2598 17.92 32.6298C17.68 29.3898 18.47 26.4098 20.37 23.7698C22.88 20.2898 26.31 18.3798 30.57 18.0198V14.4398C30.14 14.4798 29.75 14.4998 29.36 14.5498C28.42 14.6598 28.42 14.6598 27.97 13.8498C27.23 12.5098 26.49 11.1598 25.74 9.7998C23.86 10.5698 22.02 11.3298 20.17 12.0898C20.59 13.6898 20.98 15.2398 21.4 16.7898C21.54 17.3198 21.4 17.6698 20.99 18.0398C19.94 19.0198 18.9 20.0198 17.92 21.0698C17.28 21.7598 17.25 21.8298 16.33 21.5698C14.87 21.1598 13.41 20.7498 11.92 20.3298C11.15 22.2098 10.39 24.0498 9.63 25.8998C11.04 26.6998 12.4 27.4798 13.77 28.2598C14.48 28.6598 14.43 28.6998 14.4 29.5098C14.36 31.0098 14.39 32.5198 14.43 34.0198C14.44 34.4498 14.36 34.7498 13.98 34.9498C13.33 35.2998 12.69 35.6598 12.04 36.0098C11.24 36.4498 10.44 36.8898 9.63 37.3498C10.37 39.1498 11.09 40.8998 11.8 42.6498C11.92 42.9598 12.11 42.8598 12.32 42.7998C13.69 42.4198 15.06 42.0298 16.43 41.6498C17.2 41.4398 17.31 41.5298 17.86 42.1198C18.84 43.1698 19.86 44.1898 20.91 45.1698C21.46 45.6898 21.56 45.7898 21.35 46.5198C20.93 48.0298 20.51 49.5398 20.07 51.0898C21.93 51.8598 23.77 52.6098 25.64 53.3798C26.45 51.9498 27.26 50.5698 28.03 49.1598C28.3 48.6598 28.65 48.4998 29.19 48.5998C29.66 48.6798 30.15 48.6998 30.66 48.7398V45.0998L30.67 45.0698Z" stroke="black" stroke-miterlimit="10"></path><path d="M43.0601 52.1403C43.0601 52.9603 43.6401 53.5703 44.4201 53.5703C45.1701 53.5703 45.7901 52.9103 45.7901 52.1303C45.7901 51.3403 45.1601 50.6903 44.4101 50.7003C43.6301 50.7003 43.0601 51.3103 43.0601 52.1403V52.1403Z" stroke="black" stroke-miterlimit="10"></path><path d="M54.01 16.1998C54.01 15.3898 53.42 14.7598 52.66 14.7598C51.89 14.7598 51.28 15.4098 51.28 16.2398C51.28 16.9598 51.98 17.6698 52.67 17.6598C53.42 17.6598 54.01 17.0098 54.01 16.1998Z" stroke="black" stroke-miterlimit="10"></path><path d="M44.41 9.50023C43.66 9.50023 43.05 10.1602 43.05 10.9502C43.05 11.7502 43.67 12.3802 44.43 12.3702C45.21 12.3602 45.78 11.7402 45.78 10.9202C45.78 10.1002 45.19 9.49023 44.41 9.49023V9.50023Z" stroke="black" stroke-miterlimit="10"></path><path d="M52.68 45.5C51.87 45.5 51.27 46.1 51.29 46.9C51.3 47.7 51.92 48.34 52.68 48.33C53.4 48.33 54.01 47.67 54.02 46.9C54.02 46.11 53.45 45.51 52.69 45.51L52.68 45.5Z" stroke="black" stroke-miterlimit="10"></path><path d="M30.66 21.6596H38.97L44.03 12.3096" stroke="black" stroke-miterlimit="10"></path><path d="M30.66 41.8896H38.97L44.03 51.2397" stroke="black" stroke-miterlimit="10"></path><path d="M30.66 25.0905H46.39L51.73 17.2305" stroke="black" stroke-miterlimit="10"></path><path d="M30.66 37.96H46.39L51.73 45.82" stroke="black" stroke-miterlimit="10"></path><path d="M52.51 34.18C52.51 35.01 53.07 35.62 53.85 35.63C54.64 35.64 55.26 35 55.25 34.18C55.25 33.38 54.64 32.75 53.87 32.75C53.1 32.75 52.51 33.37 52.51 34.18Z" stroke="black" stroke-miterlimit="10"></path><path d="M52.51 34.18C52.51 35.01 53.07 35.62 53.85 35.63C54.64 35.64 55.26 35 55.25 34.18C55.25 33.38 54.64 32.75 53.87 32.75C53.1 32.75 52.51 33.37 52.51 34.18Z" stroke="url(#paint0_linear_506_11167)" stroke-miterlimit="10"></path><path d="M53.89 27.4902C53.1 27.4902 52.52 28.0702 52.51 28.9002C52.5 29.7402 53.09 30.3802 53.88 30.3702C54.64 30.3702 55.24 29.7402 55.25 28.9302C55.25 28.1302 54.66 27.5002 53.89 27.4902V27.4902Z" stroke="black" stroke-miterlimit="10"></path><path d="M53.89 27.4902C53.1 27.4902 52.52 28.0702 52.51 28.9002C52.5 29.7402 53.09 30.3802 53.88 30.3702C54.64 30.3702 55.24 29.7402 55.25 28.9302C55.25 28.1302 54.66 27.5002 53.89 27.4902V27.4902Z" stroke="url(#paint1_linear_506_11167)" stroke-miterlimit="10"></path><path d="M30.67 28.9307H52.16" stroke="black" stroke-miterlimit="10"></path><path d="M30.67 28.9307H52.16" stroke="url(#paint2_linear_506_11167)" stroke-miterlimit="10"></path><path d="M30.67 34.1904H52.16" stroke="black" stroke-miterlimit="10"></path><path d="M30.67 34.1904H52.16" stroke="url(#paint3_linear_506_11167)" stroke-miterlimit="10"></path><path d="M30.66 19.5801C24.62 19.8901 19.12 24.9901 19.41 32.0201C19.71 39.2301 25.8 43.3901 30.66 43.5301V19.5801Z" stroke="black" stroke-miterlimit="10"></path></g><defs><linearGradient id="paint0_linear_506_11167" x1="53.4271" y1="33.7353" x2="56.4009" y2="36.196" gradientUnits="userSpaceOnUse"><stop offset="0.236106" stop-color="#DA291C"></stop><stop offset="1" stop-color="#FFCD00"></stop></linearGradient><linearGradient id="paint1_linear_506_11167" x1="53.427" y1="28.4755" x2="56.4008" y2="30.9363" gradientUnits="userSpaceOnUse"><stop offset="0.236106" stop-color="#DA291C"></stop><stop offset="1" stop-color="#FFCD00"></stop></linearGradient><linearGradient id="paint2_linear_506_11167" x1="37.8627" y1="29.2728" x2="37.9749" y2="31.369" gradientUnits="userSpaceOnUse"><stop offset="0.236106" stop-color="#DA291C"></stop><stop offset="1" stop-color="#FFCD00"></stop></linearGradient><linearGradient id="paint3_linear_506_11167" x1="37.8627" y1="34.5325" x2="37.9749" y2="36.6287" gradientUnits="userSpaceOnUse"><stop offset="0.236106" stop-color="#DA291C"></stop><stop offset="1" stop-color="#FFCD00"></stop></linearGradient><clipPath id="clip0_506_11167"><rect width="46.75" height="45.08" fill="white" transform="translate(9 9)"></rect></clipPath></defs></svg> 