<?xml version="1.0" encoding="UTF-8"?> <svg xmlns="http://www.w3.org/2000/svg" width="41.929" height="38.803" viewBox="0 0 41.929 38.803"><g id="Digital-Asset-Manager" transform="translate(0.3 0.305)"><path id="Path_21" data-name="Path 21" d="M25,59.388l.855-4.988" transform="translate(-9.323 -21.307)" fill="none" stroke="#fff" stroke-linecap="round" stroke-linejoin="round" stroke-width="0.6"></path><path id="Path_22" data-name="Path 22" d="M36.421,61.4H21.6" transform="translate(-8.346 -23.319)" fill="none" stroke="#fff" stroke-linecap="round" stroke-linejoin="round" stroke-width="0.6"></path><path id="Path_23" data-name="Path 23" d="M37.8,54.5l.855,4.988" transform="translate(-13.003 -21.336)" fill="none" stroke="#fff" stroke-linecap="round" stroke-linejoin="round" stroke-width="0.6"></path><path id="Path_24" data-name="Path 24" d="M11.266,12.7H5.494A2.525,2.525,0,0,0,3,15.194v24.8a2.525,2.525,0,0,0,2.494,2.494H41.835a2.525,2.525,0,0,0,2.494-2.494v-24.8A2.525,2.525,0,0,0,41.835,12.7H34.424" transform="translate(-3 -9.321)" fill="none" stroke="#fff" stroke-linecap="round" stroke-linejoin="round" stroke-width="0.6"></path><path id="Path_25" data-name="Path 25" d="M3,47.5H44.329" transform="translate(-3 -19.324)" fill="none" stroke="#fff" stroke-linejoin="round" stroke-width="0.6"></path><path id="Path_26" data-name="Path 26" d="M44.8,40.572V34.8" transform="translate(-15.015 -15.674)" fill="none" stroke="#fff" stroke-linecap="round" stroke-linejoin="round" stroke-width="0.6"></path><path id="Path_27" data-name="Path 27" d="M49.4,38.56V27.8" transform="translate(-16.337 -13.662)" fill="none" stroke="#fff" stroke-linecap="round" stroke-linejoin="round" stroke-width="0.6"></path><path id="Path_28" data-name="Path 28" d="M54,36.577V20.9" transform="translate(-17.659 -11.678)" fill="none" stroke="#fff" stroke-linecap="round" stroke-linejoin="round" stroke-width="0.6"></path><path id="Path_29" data-name="Path 29" d="M21.02,30.341a3.421,3.421,0,0,0,3.42-3.42,3.42,3.42,0,1,0-6.841,0A3.421,3.421,0,0,0,21.02,30.341Z" transform="translate(-7.196 -12.426)" fill="none" stroke="#fff" stroke-linecap="round" stroke-linejoin="round" stroke-width="0.6"></path><path id="Path_30" data-name="Path 30" d="M21.02,30.341a3.421,3.421,0,0,0,3.42-3.42,3.42,3.42,0,1,0-6.841,0A3.421,3.421,0,0,0,21.02,30.341Z" transform="translate(-7.196 -12.426)" fill="none" stroke="#fff" stroke-linecap="round" stroke-linejoin="round" stroke-width="0.6"></path><path id="Path_31" data-name="Path 31" d="M27.685,25.576a.46.46,0,0,1-.428.428h-1.14a.452.452,0,0,0-.428.356,6.047,6.047,0,0,1-.784,1.853.538.538,0,0,0,.071.57l.713.713c.285.285.285.57.071.713l-1.425,1.425a.532.532,0,0,1-.641,0l-.784-.784a.538.538,0,0,0-.57-.071,6.047,6.047,0,0,1-1.853.784.452.452,0,0,0-.356.428v1c0,.356-.214.57-.428.57H17.781a.46.46,0,0,1-.428-.428v-1.14A.452.452,0,0,0,17,31.562a6.047,6.047,0,0,1-1.853-.784.538.538,0,0,0-.57.071l-.713.713c-.285.285-.57.285-.713.071l-1.425-1.425a.532.532,0,0,1,0-.641l.784-.784a.538.538,0,0,0,.071-.57A6.047,6.047,0,0,1,11.8,26.36.452.452,0,0,0,11.368,26h-1c-.356,0-.57-.214-.57-.428v-2c0-.214.214-.428.57-.428h1A.452.452,0,0,0,11.8,22.8a6.047,6.047,0,0,1,.784-1.853.538.538,0,0,0-.071-.57l-.784-.784a.532.532,0,0,1,0-.641l1.425-1.425c.143-.143.428-.143.713.071l.713.713a.538.538,0,0,0,.57.071A6.047,6.047,0,0,1,17,17.6a.452.452,0,0,0,.356-.428v-1.14a.46.46,0,0,1,.428-.428h2c.214,0,.428.214.428.57v1a.452.452,0,0,0,.356.428,6.047,6.047,0,0,1,1.853.784.538.538,0,0,0,.57-.071l.784-.784a.532.532,0,0,1,.641,0l1.425,1.425c.143.143.143.428-.071.713l-.713.713a.538.538,0,0,0-.071.57,6.047,6.047,0,0,1,.784,1.853.452.452,0,0,0,.428.356h1.14a.46.46,0,0,1,.428.428v2Z" transform="translate(-4.955 -10.155)" fill="none" stroke="#fff" stroke-linecap="round" stroke-linejoin="round" stroke-width="0.6"></path><path id="Path_32" data-name="Path 32" d="M27.685,25.576a.46.46,0,0,1-.428.428h-1.14a.452.452,0,0,0-.428.356,6.047,6.047,0,0,1-.784,1.853.538.538,0,0,0,.071.57l.713.713c.285.285.285.57.071.713l-1.425,1.425a.532.532,0,0,1-.641,0l-.784-.784a.538.538,0,0,0-.57-.071,6.047,6.047,0,0,1-1.853.784.452.452,0,0,0-.356.428v1c0,.356-.214.57-.428.57H17.781a.46.46,0,0,1-.428-.428v-1.14A.452.452,0,0,0,17,31.562a6.047,6.047,0,0,1-1.853-.784.538.538,0,0,0-.57.071l-.713.713c-.285.285-.57.285-.713.071l-1.425-1.425a.532.532,0,0,1,0-.641l.784-.784a.538.538,0,0,0,.071-.57A6.047,6.047,0,0,1,11.8,26.36.452.452,0,0,0,11.368,26h-1c-.356,0-.57-.214-.57-.428v-2c0-.214.214-.428.57-.428h1A.452.452,0,0,0,11.8,22.8a6.047,6.047,0,0,1,.784-1.853.538.538,0,0,0-.071-.57l-.784-.784a.532.532,0,0,1,0-.641l1.425-1.425c.143-.143.428-.143.713.071l.713.713a.538.538,0,0,0,.57.071A6.047,6.047,0,0,1,17,17.6a.452.452,0,0,0,.356-.428v-1.14a.46.46,0,0,1,.428-.428h2c.214,0,.428.214.428.57v1a.452.452,0,0,0,.356.428,6.047,6.047,0,0,1,1.853.784.538.538,0,0,0,.57-.071l.784-.784a.532.532,0,0,1,.641,0l1.425,1.425c.143.143.143.428-.071.713l-.713.713a.538.538,0,0,0-.071.57,6.047,6.047,0,0,1,.784,1.853.452.452,0,0,0,.428.356h1.14a.46.46,0,0,1,.428.428v2Z" transform="translate(-4.955 -10.155)" fill="none" stroke="#000" stroke-linecap="round" stroke-linejoin="round" stroke-width="0.6"></path><path id="Path_33" data-name="Path 33" d="M36.328,14.294a1.563,1.563,0,1,0-.784-2.066A1.565,1.565,0,0,0,36.328,14.294Z" transform="translate(-12.314 -8.921)" fill="none" stroke="#fff" stroke-linecap="round" stroke-linejoin="round" stroke-width="0.6"></path><path id="Path_34" data-name="Path 34" d="M39.571,14.045c-.071.071-.143.143-.285.071l-.5-.214a.137.137,0,0,0-.214.071,6.424,6.424,0,0,1-.713.641c-.071.071-.143.143-.071.214l.143.428c.071.143,0,.285-.071.285l-.855.356c-.071.071-.214,0-.285-.143l-.214-.5c0-.071-.143-.143-.214-.143h-.926c-.071,0-.214,0-.214.143l-.214.428c0,.143-.071.214-.214.143l-.784-.356c-.071-.071-.143-.143-.071-.285l.214-.5a.137.137,0,0,0-.071-.214,6.426,6.426,0,0,1-.641-.713c-.071-.071-.143-.071-.285-.071l-.428.143c-.143.071-.285,0-.285-.071l-.285-.855c-.071-.071,0-.214.143-.285l.5-.214c.071,0,.143-.143.143-.214v-.926c0-.071,0-.214-.143-.214l-.428-.214c-.143-.071-.214-.214-.143-.285l.356-.784c.071-.071.143-.143.285-.071l.428.214a.137.137,0,0,0,.214-.071,6.424,6.424,0,0,1,.713-.641c.071-.071.143-.143.071-.214l-.214-.5c-.071-.071,0-.214.143-.285l.926-.214c.071-.071.214,0,.285.143l.143.428c0,.071.071.143.214.143h.926c.071,0,.214,0,.214-.143l.214-.5c.071-.071.143-.143.285-.071l.784.356c.071.071.143.143.071.285L38,9.057a.137.137,0,0,0,.071.214,6.425,6.425,0,0,1,.641.713c.071.071.143.143.214.071l.5-.214c.071-.071.214,0,.285.143l.285.855c.071.071,0,.214-.143.285l-.428.143c-.071,0-.143.143-.143.214v.926c0,.071,0,.214.143.214l.428.356c.071.071.143.143.071.285l-.356.784Z" transform="translate(-11.353 -7.959)" fill="none" stroke="#000" stroke-linecap="round" stroke-linejoin="round" stroke-width="0.6"></path></g></svg> 