<?xml version="1.0" encoding="UTF-8"?> <svg xmlns="http://www.w3.org/2000/svg" width="64" height="64" viewBox="0 0 64 64" fill="none"><g clip-path="url(#clip0_506_13266)"><path d="M30.54 45.0698C23.71 44.7098 18.28 39.2598 17.79 32.6298C17.55 29.3898 18.34 26.4098 20.24 23.7698C22.75 20.2898 26.18 18.3798 30.44 18.0198V14.4398C30.01 14.4798 29.62 14.4998 29.23 14.5498C28.29 14.6598 28.29 14.6598 27.84 13.8498C27.1 12.5098 26.36 11.1598 25.61 9.7998C23.73 10.5698 21.89 11.3298 20.04 12.0898C20.46 13.6898 20.85 15.2398 21.27 16.7898C21.41 17.3198 21.27 17.6698 20.86 18.0398C19.81 19.0198 18.77 20.0198 17.79 21.0698C17.15 21.7598 17.12 21.8298 16.2 21.5698C14.74 21.1598 13.28 20.7498 11.79 20.3298C11.02 22.2098 10.26 24.0498 9.5 25.8998C10.91 26.6998 12.27 27.4798 13.64 28.2598C14.35 28.6598 14.3 28.6998 14.27 29.5098C14.23 31.0098 14.26 32.5198 14.3 34.0198C14.31 34.4498 14.23 34.7498 13.85 34.9498C13.2 35.2998 12.56 35.6598 11.91 36.0098C11.11 36.4498 10.31 36.8898 9.5 37.3498C10.24 39.1498 10.96 40.8998 11.67 42.6498C11.79 42.9598 11.98 42.8598 12.19 42.7998C13.56 42.4198 14.93 42.0298 16.3 41.6498C17.07 41.4398 17.18 41.5298 17.73 42.1198C18.71 43.1698 19.73 44.1898 20.78 45.1698C21.33 45.6898 21.43 45.7898 21.22 46.5198C20.8 48.0298 20.38 49.5398 19.94 51.0898C21.8 51.8598 23.64 52.6098 25.51 53.3798C26.32 51.9498 27.13 50.5698 27.9 49.1598C28.17 48.6598 28.52 48.4998 29.06 48.5998C29.53 48.6798 30.02 48.6998 30.53 48.7398V45.0998L30.54 45.0698Z" stroke="white" stroke-miterlimit="10"></path><path d="M42.9302 52.1403C42.9302 52.9603 43.5102 53.5703 44.2902 53.5703C45.0402 53.5703 45.6602 52.9103 45.6602 52.1303C45.6602 51.3403 45.0302 50.6903 44.2802 50.7003C43.5002 50.7003 42.9302 51.3103 42.9302 52.1403V52.1403Z" stroke="white" stroke-miterlimit="10"></path><path d="M53.8801 16.1998C53.8801 15.3898 53.2901 14.7598 52.5301 14.7598C51.7601 14.7598 51.1501 15.4098 51.1501 16.2398C51.1501 16.9598 51.8501 17.6698 52.5401 17.6598C53.2901 17.6598 53.8801 17.0098 53.8801 16.1998Z" stroke="white" stroke-miterlimit="10"></path><path d="M44.2802 9.50023C43.5302 9.50023 42.9202 10.1602 42.9202 10.9502C42.9202 11.7502 43.5402 12.3802 44.3002 12.3702C45.0802 12.3602 45.6502 11.7402 45.6502 10.9202C45.6502 10.1002 45.0602 9.49023 44.2802 9.49023V9.50023Z" stroke="white" stroke-miterlimit="10"></path><path d="M52.5502 45.5C51.7402 45.5 51.1402 46.1 51.1602 46.9C51.1702 47.7 51.7902 48.34 52.5502 48.33C53.2702 48.33 53.8802 47.67 53.8902 46.9C53.8902 46.11 53.3202 45.51 52.5602 45.51L52.5502 45.5Z" stroke="white" stroke-miterlimit="10"></path><path d="M30.53 21.6596H38.84L43.9 12.3096" stroke="white" stroke-miterlimit="10"></path><path d="M30.53 41.8896H38.84L43.9 51.2397" stroke="white" stroke-miterlimit="10"></path><path d="M30.53 25.0905H46.26L51.6 17.2305" stroke="white" stroke-miterlimit="10"></path><path d="M30.53 37.96H46.26L51.6 45.82" stroke="white" stroke-miterlimit="10"></path><path d="M52.3801 34.18C52.3801 35.01 52.9401 35.62 53.7201 35.63C54.5101 35.64 55.1301 35 55.1201 34.18C55.1201 33.38 54.5101 32.75 53.7401 32.75C52.9701 32.75 52.3801 33.37 52.3801 34.18Z" stroke="black" stroke-miterlimit="10"></path><path d="M52.3801 34.18C52.3801 35.01 52.9401 35.62 53.7201 35.63C54.5101 35.64 55.1301 35 55.1201 34.18C55.1201 33.38 54.5101 32.75 53.7401 32.75C52.9701 32.75 52.3801 33.37 52.3801 34.18Z" stroke="url(#paint0_linear_506_13266)" stroke-miterlimit="10"></path><path d="M53.76 27.4902C52.97 27.4902 52.39 28.0702 52.38 28.9002C52.37 29.7402 52.96 30.3802 53.75 30.3702C54.51 30.3702 55.11 29.7402 55.12 28.9302C55.12 28.1302 54.53 27.5002 53.76 27.4902V27.4902Z" stroke="black" stroke-miterlimit="10"></path><path d="M53.76 27.4902C52.97 27.4902 52.39 28.0702 52.38 28.9002C52.37 29.7402 52.96 30.3802 53.75 30.3702C54.51 30.3702 55.11 29.7402 55.12 28.9302C55.12 28.1302 54.53 27.5002 53.76 27.4902V27.4902Z" stroke="url(#paint1_linear_506_13266)" stroke-miterlimit="10"></path><path d="M30.54 28.9307H52.03" stroke="black" stroke-miterlimit="10"></path><path d="M30.54 28.9307H52.03" stroke="url(#paint2_linear_506_13266)" stroke-miterlimit="10"></path><path d="M30.54 34.1904H52.03" stroke="black" stroke-miterlimit="10"></path><path d="M30.54 34.1904H52.03" stroke="url(#paint3_linear_506_13266)" stroke-miterlimit="10"></path><path d="M30.53 19.5801C24.49 19.8901 18.99 24.9901 19.28 32.0201C19.58 39.2301 25.67 43.3901 30.53 43.5301V19.5801Z" stroke="white" stroke-miterlimit="10"></path></g><defs><linearGradient id="paint0_linear_506_13266" x1="53.2973" y1="33.7353" x2="56.2711" y2="36.196" gradientUnits="userSpaceOnUse"><stop offset="0.236106" stop-color="#DA291C"></stop><stop offset="1" stop-color="#FFCD00"></stop></linearGradient><linearGradient id="paint1_linear_506_13266" x1="53.297" y1="28.4755" x2="56.2708" y2="30.9363" gradientUnits="userSpaceOnUse"><stop offset="0.236106" stop-color="#DA291C"></stop><stop offset="1" stop-color="#FFCD00"></stop></linearGradient><linearGradient id="paint2_linear_506_13266" x1="37.7328" y1="29.2728" x2="37.8449" y2="31.369" gradientUnits="userSpaceOnUse"><stop offset="0.236106" stop-color="#DA291C"></stop><stop offset="1" stop-color="#FFCD00"></stop></linearGradient><linearGradient id="paint3_linear_506_13266" x1="37.7328" y1="34.5325" x2="37.8449" y2="36.6287" gradientUnits="userSpaceOnUse"><stop offset="0.236106" stop-color="#DA291C"></stop><stop offset="1" stop-color="#FFCD00"></stop></linearGradient><clipPath id="clip0_506_13266"><rect width="46.75" height="45.08" fill="white" transform="translate(8.87012 9)"></rect></clipPath></defs></svg> 