<?xml version="1.0" encoding="UTF-8"?> <svg xmlns="http://www.w3.org/2000/svg" xmlns:xlink="http://www.w3.org/1999/xlink" version="1.1" id="Layer_1" x="0px" y="0px" viewBox="0 0 64 64" style="enable-background:new 0 0 64 64;" xml:space="preserve"> <style type="text/css"> .st0{fill-rule:evenodd;clip-rule:evenodd;fill:#9D5025;} .st1{fill-rule:evenodd;clip-rule:evenodd;fill:#F58536;} </style> <symbol id="A" viewBox="-35 -40 70 80"> <g> <path class="st0" d="M-31.5-25.1l-3.5,1.7v46.9l3.5,1.7l14.2-23.9L-31.5-25.1z"></path> <path class="st1" d="M-23.3,23.3l-8.2,1.8v-50.2l8.2,1.8V23.3z"></path> <path class="st0" d="M-27.6-26.9l4.3-2L-2.8,2.1L-23.3,29l-4.3-2C-27.6,26.9-27.6-26.9-27.6-26.9z"></path> <path class="st1" d="M-13.1,26.2L-23.3,29V-29l10.2,2.7V26.2L-13.1,26.2z"></path> <path class="st0" d="M-18.5-31.3l5.4-2.6L17.1,5.5l-30.2,28.3l-5.4-2.6C-18.5,31.3-18.5-31.3-18.5-31.3z"></path> <path class="st1" d="M0,29.3l-13.1,4.5v-67.6L0-29.3V29.3L0,29.3z"></path> <path class="st0" d="M-7-36.7L0-40L32.7,2.3L0,40l-7-3.3C-7,36.7-7-36.7-7-36.7z"></path> <path class="st1" d="M35,23.4L0,40v-80l35,16.6V23.4z"></path> </g> </symbol> <use xlink:href="#A" width="70" height="80" x="-35" y="-40" transform="matrix(0.7493 0 0 0.7493 32.0005 32)" style="overflow:visible;"></use> </svg> 