<?xml version="1.0" encoding="UTF-8"?> <svg xmlns="http://www.w3.org/2000/svg" xmlns:xlink="http://www.w3.org/1999/xlink" version="1.1" id="Layer_1" x="0px" y="0px" viewBox="0 0 872.8 793.1" style="enable-background:new 0 0 872.8 793.1;" xml:space="preserve"> <style type="text/css"> .st0{fill:#E07143;} .st1{enable-background:new ;} .st2{fill:#FFFFFF;} </style> <path class="st0" d="M832,565v127.9c0,39-31.6,70.6-70.6,70.6H111.6c-39,0-70.6-31.6-70.6-70.6V563.5L832,565z"></path> <g> <path class="st0" d="M760.1,769.3c-0.1,0-0.2,0-0.3,0l-652.9-1.4c-39.2,0-71.1-31.9-71.1-71.1V99.4c0-41.7,33.9-75.6,75.6-75.6 h649.8c41.8,0,75.8,33.9,75.8,75.6v592.8c0,20.7-8.1,40.1-22.7,54.7C799.9,761.3,780.6,769.3,760.1,769.3z M111.5,33.8 c-36.2,0-65.6,29.4-65.6,65.6v597.3c0,33.7,27.4,61.1,61.1,61.1l652.9,1.4c0.1,0,0.2,0,0.3,0c17.8,0,34.6-6.9,47.2-19.5 c12.7-12.7,19.7-29.6,19.7-47.6V99.4c0-36.2-29.5-65.6-65.8-65.6H111.5z"></path> </g> <g> <path class="st0" d="M533.3,504.4H363.8c-32,0-58.1-26.1-58.1-58.1v-2.5H171.5c-43.1,0-78.2-35.1-78.2-78.2V153.9 c0-43.1,35.1-78.2,78.2-78.2h530c43.1,0,78.2,35.1,78.2,78.2v211.7c0,43.1-35.1,78.2-78.2,78.2H591.5v2.5 C591.5,478.4,565.4,504.4,533.3,504.4z M171.5,85.7c-37.6,0-68.2,30.6-68.2,68.2v211.7c0,37.6,30.6,68.2,68.2,68.2h144.2v12.5 c0,26.5,21.6,48.1,48.1,48.1h169.6c26.5,0,48.1-21.6,48.1-48.1v-12.5h120.1c37.6,0,68.2-30.6,68.2-68.2V153.9 c0-37.6-30.6-68.2-68.2-68.2H171.5z"></path> </g> <g> <path class="st0" d="M181.9,291.8c-2.8,0-5-2.2-5-5V80.7c0-2.8,2.2-5,5-5s5,2.2,5,5v206.2C186.9,289.6,184.7,291.8,181.9,291.8z"></path> </g> <g> <path class="st0" d="M228.6,291.8c-2.8,0-5-2.2-5-5V80.7c0-2.8,2.2-5,5-5s5,2.2,5,5v206.2C233.6,289.6,231.4,291.8,228.6,291.8z"></path> </g> <g> <path class="st0" d="M275.1,291.8c-2.8,0-5-2.2-5-5V80.7c0-2.8,2.2-5,5-5s5,2.2,5,5v206.2C280.1,289.6,277.9,291.8,275.1,291.8z"></path> </g> <g> <path class="st0" d="M321.6,291.8c-2.8,0-5-2.2-5-5V80.7c0-2.8,2.2-5,5-5s5,2.2,5,5v206.2C326.6,289.6,324.4,291.8,321.6,291.8z"></path> </g> <g> <path class="st0" d="M368.3,291.8c-2.8,0-5-2.2-5-5V80.7c0-2.8,2.2-5,5-5s5,2.2,5,5v206.2C373.3,289.6,371.1,291.8,368.3,291.8z"></path> </g> <g> <path class="st0" d="M414.8,291.8c-2.8,0-5-2.2-5-5V80.7c0-2.8,2.2-5,5-5s5,2.2,5,5v206.2C419.8,289.6,417.6,291.8,414.8,291.8z"></path> </g> <g> <path class="st0" d="M461.3,291.8c-2.8,0-5-2.2-5-5V80.7c0-2.8,2.2-5,5-5s5,2.2,5,5v206.2C466.3,289.6,464.1,291.8,461.3,291.8z"></path> </g> <g> <path class="st0" d="M507.8,291.8c-2.8,0-5-2.2-5-5V80.7c0-2.8,2.2-5,5-5s5,2.2,5,5v206.2C512.8,289.6,510.6,291.8,507.8,291.8z"></path> </g> <g> <path class="st0" d="M554.5,291.8c-2.8,0-5-2.2-5-5V80.7c0-2.8,2.2-5,5-5s5,2.2,5,5v206.2C559.5,289.6,557.3,291.8,554.5,291.8z"></path> </g> <g> <path class="st0" d="M601,291.8c-2.8,0-5-2.2-5-5V80.7c0-2.8,2.2-5,5-5s5,2.2,5,5v206.2C606,289.6,603.8,291.8,601,291.8z"></path> </g> <g> <path class="st0" d="M647.5,291.8c-2.8,0-5-2.2-5-5V80.7c0-2.8,2.2-5,5-5s5,2.2,5,5v206.2C652.5,289.6,650.3,291.8,647.5,291.8z"></path> </g> <g> <path class="st0" d="M694.2,291.8c-2.8,0-5-2.2-5-5V80.7c0-2.8,2.2-5,5-5s5,2.2,5,5v206.2C699.2,289.6,697,291.8,694.2,291.8z"></path> </g> <g> <path class="st0" d="M181.9,345.3c-2.8,0-5-2.2-5-5v-18.7c0-2.8,2.2-5,5-5s5,2.2,5,5v18.7C186.9,343.1,184.7,345.3,181.9,345.3z"></path> </g> <g> <path class="st0" d="M228.6,345.3c-2.8,0-5-2.2-5-5v-18.7c0-2.8,2.2-5,5-5s5,2.2,5,5v18.7C233.6,343.1,231.4,345.3,228.6,345.3z"></path> </g> <g> <path class="st0" d="M275.1,345.3c-2.8,0-5-2.2-5-5v-18.7c0-2.8,2.2-5,5-5s5,2.2,5,5v18.7C280.1,343.1,277.9,345.3,275.1,345.3z"></path> </g> <g> <path class="st0" d="M321.6,345.3c-2.8,0-5-2.2-5-5v-18.7c0-2.8,2.2-5,5-5s5,2.2,5,5v18.7C326.6,343.1,324.4,345.3,321.6,345.3z"></path> </g> <g> <path class="st0" d="M368.3,345.3c-2.8,0-5-2.2-5-5v-18.7c0-2.8,2.2-5,5-5s5,2.2,5,5v18.7C373.3,343.1,371.1,345.3,368.3,345.3z"></path> </g> <g> <path class="st0" d="M414.8,345.3c-2.8,0-5-2.2-5-5v-18.7c0-2.8,2.2-5,5-5s5,2.2,5,5v18.7C419.8,343.1,417.6,345.3,414.8,345.3z"></path> </g> <g> <path class="st0" d="M461.3,345.3c-2.8,0-5-2.2-5-5v-18.7c0-2.8,2.2-5,5-5s5,2.2,5,5v18.7C466.3,343.1,464.1,345.3,461.3,345.3z"></path> </g> <g> <path class="st0" d="M507.8,345.3c-2.8,0-5-2.2-5-5v-18.7c0-2.8,2.2-5,5-5s5,2.2,5,5v18.7C512.8,343.1,510.6,345.3,507.8,345.3z"></path> </g> <g> <path class="st0" d="M554.5,345.3c-2.8,0-5-2.2-5-5v-18.7c0-2.8,2.2-5,5-5s5,2.2,5,5v18.7C559.5,343.1,557.3,345.3,554.5,345.3z"></path> </g> <g> <path class="st0" d="M601,345.3c-2.8,0-5-2.2-5-5v-18.7c0-2.8,2.2-5,5-5s5,2.2,5,5v18.7C606,343.1,603.8,345.3,601,345.3z"></path> </g> <g> <path class="st0" d="M647.5,345.3c-2.8,0-5-2.2-5-5v-18.7c0-2.8,2.2-5,5-5s5,2.2,5,5v18.7C652.5,343.1,650.3,345.3,647.5,345.3z"></path> </g> <g> <path class="st0" d="M694.2,345.3c-2.8,0-5-2.2-5-5v-18.7c0-2.8,2.2-5,5-5s5,2.2,5,5v18.7C699.2,343.1,697,345.3,694.2,345.3z"></path> </g> <g class="st1"> <path class="st2" d="M114,704.5v-82h59.3v9.7h-48.4v25.1h45.4v9.6h-45.4v27.9h50.3v9.7H114z"></path> <path class="st2" d="M216.6,704.5v-72.3h-27v-9.7h65v9.7h-27.1v72.3H216.6z"></path> <path class="st2" d="M271.7,704.5v-82h10.8v33.7h42.6v-33.7H336v82h-10.8v-38.6h-42.6v38.6H271.7z"></path> <path class="st2" d="M359.9,704.5v-82h59.3v9.7h-48.4v25.1h45.4v9.6h-45.4v27.9h50.3v9.7H359.9z"></path> <path class="st2" d="M441.8,704.5v-82h36.4c7.3,0,12.9,0.7,16.7,2.2c3.8,1.5,6.8,4.1,9.1,7.8s3.4,7.8,3.4,12.4 c0,5.8-1.9,10.7-5.6,14.7c-3.8,4-9.6,6.5-17.4,7.6c2.9,1.4,5.1,2.7,6.5,4.1c3.2,2.9,6.2,6.5,9,10.9l14.3,22.3h-13.6l-10.8-17.1 c-3.2-4.9-5.8-8.7-7.8-11.3c-2.1-2.6-3.9-4.4-5.5-5.5c-1.6-1-3.3-1.8-5-2.2c-1.2-0.3-3.2-0.4-6-0.4h-12.6v36.4H441.8z M452.7,658.7 H476c5,0,8.8-0.5,11.6-1.5s4.9-2.7,6.4-4.9c1.5-2.3,2.2-4.7,2.2-7.4c0-3.9-1.4-7.1-4.2-9.6c-2.8-2.5-7.3-3.7-13.3-3.7h-26V658.7z"></path> <path class="st2" d="M529.9,704.5v-82H541l43.1,64.4v-64.4h10.4v82h-11.1l-43.1-64.4v64.4H529.9z"></path> <path class="st2" d="M618.5,704.5v-82h59.3v9.7h-48.4v25.1h45.4v9.6h-45.4v27.9h50.3v9.7H618.5z"></path> <path class="st2" d="M721.2,704.5v-72.3h-27v-9.7h65v9.7H732v72.3H721.2z"></path> </g> </svg> 