<?xml version="1.0" encoding="UTF-8"?> <svg xmlns="http://www.w3.org/2000/svg" xmlns:xlink="http://www.w3.org/1999/xlink" version="1.1" id="Layer_1" x="0px" y="0px" viewBox="0 0 64 64" style="enable-background:new 0 0 64 64;" xml:space="preserve"> <style type="text/css"> .st0{fill-rule:evenodd;clip-rule:evenodd;fill:#006FD4;} </style> <symbol id="A" viewBox="-40 -40 80 80"> <g> <g> <path id="C_00000134946676719365761000000016457225759983064458_" class="st0" d="M9.6-4c0,0.8-0.6,1.4-1.4,1.4H-2.5 c-0.8,0-1.4-0.6-1.4-1.4v-7.7c0-0.8,0.6-1.4,1.4-1.4H8.2c0.8,0,1.4,0.6,1.4,1.4C9.6-11.7,9.6-4,9.6-4z"></path> </g> <path class="st0" d="M28.9,4c0,0.8-0.6,1.4-1.4,1.4H16.7c-0.8,0-1.4-0.6-1.4-1.4v-7.7c0-0.8,0.6-1.4,1.4-1.4h10.7 c0.8,0,1.4,0.6,1.4,1.4V4z"></path> <g> <path id="C_00000006695676949340928270000015545336952037602749_" class="st0" d="M9.6,11.9c0,0.8-0.6,1.4-1.4,1.4H-2.5 c-0.8,0-1.4-0.6-1.4-1.4V4.2c0-0.8,0.6-1.4,1.4-1.4H8.2c0.8,0,1.4,0.6,1.4,1.4C9.6,4.2,9.6,11.9,9.6,11.9z"></path> </g> <path class="st0" d="M-9.6-12.1c0,0.8-0.6,1.4-1.4,1.4H-22c-0.8,0-1.4-0.6-1.4-1.4v-8.1c0-0.8,0.6-1.4,1.4-1.4h10.7 c1,0,1.6,0.6,1.6,1.4C-9.6-20.1-9.6-12.1-9.6-12.1z M38.4-40h-0.2h-7.9h-60.8h-5.3h-2.8c-0.8,0-1.4,0.6-1.4,1.4v15.9 c0,0.8,0.6,1.4,1.4,1.4h8.3c0.8,0,1.4-0.6,1.4-1.4v-6.7h57.7v6.7c0,0.8,0.6,1.4,1.6,1.4h7.9c0.8,0,1.4-0.6,1.4-1.4v-8.1v-8.1 C39.8-39.6,39.2-40,38.4-40z M38.4,21.5h-7.9c-0.8,0-1.4,0.6-1.4,1.4v6.5h-57.9v-6.7c0-0.8-0.6-1.4-1.6-1.4h-7.9 c-0.8,0-1.4,0.6-1.4,1.6v15.7c0,0.8,0.6,1.4,1.4,1.4h2.8h5.5h60.8h7.7h0.2c0.8,0,1.4-0.6,1.4-1.4V22.9 C39.8,22.1,39.2,21.5,38.4,21.5L38.4,21.5z"></path> <g> <path id="D_00000003096570510366713930000010800949560424075450_" class="st0" d="M-9.8,3.8c0,0.8-0.6,1.4-1.4,1.4H-22 c-0.8,0-1.4-0.6-1.4-1.4v-7.7c0-0.8,0.6-1.4,1.4-1.4h10.7c0.8,0,1.4,0.6,1.4,1.4V3.8z"></path> </g> <g> <path id="D_00000137824927061114555750000000875986751599248266_" class="st0" d="M-9.8,19.8c0,0.8-0.6,1.4-1.4,1.4H-22 c-0.8,0-1.4-0.6-1.4-1.4v-7.7c0-0.8,0.6-1.4,1.4-1.4h10.7c0.8,0,1.4,0.6,1.4,1.4V19.8z"></path> </g> </g> </symbol> <g> <use xlink:href="#A" width="80" height="80" x="-40" y="-40" transform="matrix(0.7531 0 0 0.7531 32 32)" style="overflow:visible;"></use> </g> </svg> 