<?xml version="1.0" encoding="UTF-8"?> <svg xmlns="http://www.w3.org/2000/svg" xmlns:xlink="http://www.w3.org/1999/xlink" version="1.1" id="图层_1" x="0px" y="0px" viewBox="0 0 180 60" style="enable-background:new 0 0 180 60;" xml:space="preserve"> <style type="text/css"> .st0{clip-path:url(#SVGID_00000005946646520442295460000017628008808873915019_);fill:#FFFFFF;} .st1{fill:#FFFFFF;} </style> <g> <g> <defs> <path id="SVGID_1_" d="M24,4C14.3,4,6.4,11.8,6.4,21.5V56h36.9c8,0,14.8-5.4,16.9-12.8h-8.5c-1.7,2.9-4.8,4.9-8.4,4.9h-29V21.5 c0-5.3,4.3-9.6,9.6-9.6h29v5.4h7.9V4H24z"></path> </defs> <use xlink:href="#SVGID_1_" style="overflow:visible;fill:#FFFFFF;"></use> <clipPath id="SVGID_00000114075261064833646550000010866981053298921610_"> <use xlink:href="#SVGID_1_" style="overflow:visible;"></use> </clipPath> <rect x="6.4" y="4" style="clip-path:url(#SVGID_00000114075261064833646550000010866981053298921610_);fill:#FFFFFF;" width="54.5" height="52"></rect> </g> <path class="st1" d="M129.5,23.6c-1.6,0-2.2,0.9-2.2,2.2V28h14.5v4.4h-14.5v8.8h-4.4V24.7c0-4.4,2-5.5,5.5-5.5h15.9v4.4H129.5z"></path> <path class="st1" d="M86.8,41.3l-7.3-8.8h-4.6v8.8h-4.4V19.2H86c3.5,0,6.6,2.8,6.6,6.6c0,3.7-3,6.6-6.5,6.6h-0.8l7.3,8.8H86.8z M86,23.6H74.9V28H86c0.3,0,2.2-0.3,2.2-2.2C88.2,24.6,87.2,23.6,86,23.6"></path> <polygon class="st1" points="101.4,41.3 101.4,23.6 93.2,23.6 93.2,19.2 114.1,19.2 114.1,23.6 105.8,23.6 105.8,41.3 "></polygon> <rect x="116" y="19.2" class="st1" width="4.4" height="22.1"></rect> <polygon class="st1" points="158.5,33.3 158.5,41.3 153.8,41.3 153.8,33.3 145,19.2 151.5,19.2 156.2,27.8 160.6,19.2 167.1,19.2 "></polygon> <path class="st1" d="M61.5,41.3H46V25.8c0-3.8,3.1-6.6,6.6-6.6h15.5v15.5C68.1,38,65.4,41.3,61.5,41.3 M63.7,23.6H52.6 c-1.2,0-2.2,1-2.2,2.2v11.1h11.1c1.7,0,2.2-1.4,2.2-2.2V23.6z"></path> <path class="st1" d="M44,27.3H24.3v-2.7c0-1.6,1-2.7,2.6-2.7h18c1.2-2.2,3.3-3.9,5.9-4.4v-3.2H24c-4,0-7.3,3.3-7.3,7.3V46h7.6V34.7 H44V27.3z"></path> <path class="st1" d="M171.2,19.1c1.3,0,2.4,1.1,2.4,2.4c0,1.4-1.1,2.4-2.4,2.4c-1.3,0-2.4-1.1-2.4-2.4 C168.7,20.2,169.8,19.1,171.2,19.1L171.2,19.1z M171.2,19.6c-1,0-1.8,0.9-1.8,2c0,1.1,0.8,1.9,1.8,1.9c1,0,1.9-0.9,1.9-1.9 C173,20.5,172.2,19.6,171.2,19.6L171.2,19.6z M170.8,23h-0.6v-2.7c0.2,0,0.5-0.1,0.9-0.1c0.5,0,0.7,0.1,0.9,0.2 c0.2,0.1,0.2,0.3,0.2,0.6c0,0.3-0.2,0.6-0.5,0.6v0c0.2,0,0.4,0.3,0.4,0.7c0.1,0.4,0.1,0.6,0.2,0.7h-0.6c-0.1-0.1-0.1-0.3-0.2-0.7 c0-0.3-0.2-0.4-0.5-0.4h-0.3V23z M170.8,21.4h0.3c0.3,0,0.6-0.1,0.6-0.4c0-0.2-0.2-0.4-0.6-0.4c-0.1,0-0.2,0-0.3,0V21.4z"></path> </g> </svg> 