<?xml version="1.0" encoding="UTF-8"?> <svg xmlns="http://www.w3.org/2000/svg" xmlns:xlink="http://www.w3.org/1999/xlink" version="1.1" id="Layer_1" x="0px" y="0px" viewBox="0 0 64 64" style="enable-background:new 0 0 64 64;" xml:space="preserve"> <style type="text/css"> .st0{fill:none;stroke:#FFFFFF;stroke-linecap:round;stroke-linejoin:round;} .st1{fill:none;stroke:#FFFFFF;stroke-miterlimit:10;} .st2{fill:#FFFFFF;} .st3{fill:none;stroke:#000000;stroke-linecap:round;stroke-linejoin:round;} .st4{fill:none;stroke:url(#SVGID_1_);stroke-linecap:round;stroke-linejoin:round;} .st5{fill:url(#SVGID_00000163755677827886759660000014816895929748720277_);} </style> <g> <path class="st0" d="M21.4,16.9L10.3,28"></path> <path class="st0" d="M33.7,20h-7.4c-1.2,0-2.3-0.5-3.1-1.3l-1.5-1.6"></path> <path class="st1" d="M1.6,27.8l4.5,4.5l16.5-16.5l-4.5-4.5"></path> <path class="st0" d="M1.6,27.8l4.5,4.5l16.5-16.5l-4.5-4.5"></path> <path class="st2" d="M5,24.7c0,0.6,0.5,1,1,1c0.6,0,1-0.5,1-1s-0.5-1-1-1C5.5,23.6,5,24.1,5,24.7z"></path> <path class="st0" d="M32,49.7l2.2,2.2c1,1,2.7,1,3.7,0s1-2.7,0-3.7l-1.5-1.5"></path> <path class="st0" d="M33.5,43.8l5.1,5.1c1,1,2.7,1,3.7,0s1-2.7,0-3.7l-3-3"></path> <path class="st0" d="M37.2,40.1l5.9,5.9c1,1,2.7,1,3.7,0s1-2.7,0-3.7l-5.9-5.9"></path> <path class="st0" d="M29.8,51.8c-1,1-2.7,1-3.7,0s-1-2.7,0-3.7l1.5-1.5c1-1,2.7-1,3.7,0c1,1,1,2.7,0,3.7L29.8,51.8z"></path> <path class="st0" d="M18.8,40.7c-1,1-2.7,1-3.7,0s-1-2.7,0-3.7l3-3c1-1,2.7-1,3.7,0s1,2.7,0,3.7L18.8,40.7z"></path> <path class="st0" d="M25.3,48.9c-1,1-2.7,1-3.7,0s-1-2.7,0-3.7l3-3c1-1,2.7-1,3.7,0s1,2.7,0,3.7L25.3,48.9z"></path> <path class="st0" d="M20.9,46c-1,1-2.7,1-3.7,0s-1-2.7,0-3.7l4.5-4.5c1-1,2.7-1,3.7,0s1,2.7,0,3.7L20.9,46z"></path> <path class="st0" d="M47.5,35.6l6.9-6.9"></path> <path class="st0" d="M42.5,16.9l11.9,11.9"></path> <path class="st0" d="M43,38.5l2.1,2.1c1,1,2.6,1.1,3.7,0.1c1.1-1,1.1-2.7,0.1-3.8l-9.8-9.8c-0.8-0.8-1.8-1.2-2.9-1.2h-4.8l-2.2,2.2 c-1.6,1.6-4,1.9-5.9,1c-0.8-0.4-1-1.5-0.4-2.1l5.9-5.9c0.8-0.8,1.8-1.2,2.9-1.2h6c1.2,0,2.3-0.5,3.1-1.3l1.8-1.6"></path> <path class="st1" d="M43.3,24c1,1,1.5,2.3,1.5,3.7s-0.6,2.8-1.5,3.7"></path> <path class="st3" d="M62.4,27.8l-4.5,4.5L41.4,15.8l4.5-4.5"></path> <linearGradient id="SVGID_1_" gradientUnits="userSpaceOnUse" x1="48.2737" y1="744.671" x2="70.1323" y2="763.6824" gradientTransform="matrix(1 0 0 1 0 -726)"> <stop offset="0.2361" style="stop-color:#DA291C"></stop> <stop offset="1" style="stop-color:#FFCD00"></stop> </linearGradient> <path class="st4" d="M62.4,27.8l-4.5,4.5L41.4,15.8l4.5-4.5"></path> <path class="st0" d="M16.5,35.6l-6.9-6.9"></path> <path d="M59,24.7c0,0.6-0.5,1-1,1c-0.6,0-1-0.5-1-1s0.5-1,1-1C58.5,23.6,59,24.1,59,24.7z"></path> <linearGradient id="SVGID_00000000209566158286120100000006934759909404255921_" gradientUnits="userSpaceOnUse" x1="57.6005" y1="750.3583" x2="59.7584" y2="752.2352" gradientTransform="matrix(1 0 0 1 0 -726)"> <stop offset="0.2361" style="stop-color:#DA291C"></stop> <stop offset="1" style="stop-color:#FFCD00"></stop> </linearGradient> <path style="fill:url(#SVGID_00000000209566158286120100000006934759909404255921_);" d="M59,24.7c0,0.6-0.5,1-1,1 c-0.6,0-1-0.5-1-1s0.5-1,1-1C58.5,23.6,59,24.1,59,24.7z"></path> <path class="st0" d="M16.5,28.1c-1,1-1.5,2.3-1.5,3.7c0,1.5,0.6,2.8,1.5,3.7"></path> </g> </svg> 