<?xml version="1.0" encoding="UTF-8"?> <svg xmlns="http://www.w3.org/2000/svg" xmlns:xlink="http://www.w3.org/1999/xlink" version="1.1" id="Layer_1" x="0px" y="0px" viewBox="0 0 64 64" style="enable-background:new 0 0 64 64;" xml:space="preserve"> <style type="text/css"> .st0{fill:none;stroke:#000000;stroke-linecap:round;stroke-linejoin:round;} .st1{fill:none;stroke:url(#SVGID_1_);stroke-linecap:round;stroke-linejoin:round;} .st2{fill:url(#SVGID_00000098191094290295629060000015587263277756318086_);} </style> <g> <path class="st0" d="M21.4,16.9L10.3,28"></path> <path class="st0" d="M33.7,20h-7.4c-1.2,0-2.3-0.5-3.1-1.3l-1.8-1.8"></path> <path class="st0" d="M1.6,27.9l4.5,4.5l16.5-16.5l-4.5-4.5"></path> <path d="M5,24.7c0,0.6,0.5,1,1,1c0.6,0,1-0.5,1-1s-0.5-1-1-1C5.5,23.7,5,24.2,5,24.7z"></path> <path class="st0" d="M31.9,49.6l2.3,2.3c1,1,2.7,1,3.7,0c1-1,1-2.7,0-3.7l-1.5-1.5"></path> <path class="st0" d="M33.5,43.8l5.1,5.1c1,1,2.7,1,3.7,0c1-1,1-2.7,0-3.7l-3-3"></path> <path class="st0" d="M37.2,40.1l5.9,5.9c1,1,2.7,1,3.7,0c1-1,1-2.7,0-3.7l-5.9-5.9"></path> <path class="st0" d="M29.8,51.9c-1,1-2.7,1-3.7,0c-1-1-1-2.7,0-3.7l1.5-1.5c1-1,2.7-1,3.7,0c1,1,1,2.7,0,3.7L29.8,51.9z"></path> <path class="st0" d="M18.8,40.7c-1,1-2.7,1-3.7,0c-1-1-1-2.7,0-3.7l3-3c1-1,2.7-1,3.7,0c1,1,1,2.7,0,3.7L18.8,40.7z"></path> <path class="st0" d="M25.3,49c-1,1-2.7,1-3.7,0c-1-1-1-2.7,0-3.7l3-3c1-1,2.7-1,3.7,0c1,1,1,2.7,0,3.7L25.3,49z"></path> <path class="st0" d="M20.9,46c-1,1-2.7,1-3.7,0c-1-1-1-2.7,0-3.7l4.5-4.5c1-1,2.7-1,3.7,0c1,1,1,2.7,0,3.7L20.9,46z"></path> <path class="st0" d="M47.5,35.6l6.9-6.9"></path> <path class="st0" d="M42.5,16.9l11.9,11.9"></path> <path class="st0" d="M43,38.6l2.1,2.1c1,1,2.6,1.1,3.7,0.1c1.1-1,1.1-2.7,0.1-3.8L39,27.2c-0.8-0.8-1.8-1.2-2.9-1.2l-4.8,0 l-2.2,2.2c-1.6,1.6-4,1.9-5.9,1c-0.8-0.4-1-1.5-0.4-2.1l5.9-5.9c0.8-0.8,1.8-1.2,2.9-1.2h6c1.2,0,2.3-0.5,3.1-1.3l1.8-1.8"></path> <path class="st0" d="M43.3,24c1,1,1.5,2.3,1.5,3.7s-0.6,2.8-1.5,3.7"></path> <path class="st0" d="M62.4,27.9l-4.5,4.5L41.4,15.8l4.5-4.5"></path> <linearGradient id="SVGID_1_" gradientUnits="userSpaceOnUse" x1="48.2769" y1="47.3016" x2="70.1355" y2="28.2902" gradientTransform="matrix(1 0 0 -1 0 66)"> <stop offset="0.2361" style="stop-color:#DA291C"></stop> <stop offset="1" style="stop-color:#FFCD00"></stop> </linearGradient> <path class="st1" d="M62.4,27.9l-4.5,4.5L41.4,15.8l4.5-4.5"></path> <path class="st0" d="M16.5,35.6l-6.9-6.9"></path> <path d="M59,24.7c0,0.6-0.5,1-1,1c-0.6,0-1-0.5-1-1s0.5-1,1-1C58.5,23.7,59,24.2,59,24.7z"></path> <linearGradient id="SVGID_00000011032555882683159790000009738597887767584899_" gradientUnits="userSpaceOnUse" x1="57.5746" y1="41.5808" x2="59.7325" y2="39.704" gradientTransform="matrix(1 0 0 -1 0 66)"> <stop offset="0.2361" style="stop-color:#DA291C"></stop> <stop offset="1" style="stop-color:#FFCD00"></stop> </linearGradient> <path style="fill:url(#SVGID_00000011032555882683159790000009738597887767584899_);" d="M59,24.7c0,0.6-0.5,1-1,1 c-0.6,0-1-0.5-1-1s0.5-1,1-1C58.5,23.7,59,24.2,59,24.7z"></path> <path class="st0" d="M16.5,28.2c-1,1-1.5,2.3-1.5,3.7c0,1.5,0.6,2.8,1.5,3.7"></path> </g> </svg> 