<?xml version="1.0" encoding="UTF-8"?> <svg xmlns="http://www.w3.org/2000/svg" width="168.233" height="41.732" viewBox="0 0 168.233 41.732"><g id="Genworth" transform="translate(-385.591 -697.673)"><path id="Path_111" data-name="Path 111" d="M394.85,719.806h5.266v6.013a14.135,14.135,0,0,1-4.385.647,6.835,6.835,0,0,1-5.361-2c-1.479-1.772-1.846-4.662-1.846-6.376a9.68,9.68,0,0,1,2.148-6.523,5.939,5.939,0,0,1,4.553-1.711c2.645,0,4.224.962,4.956,2.876l2.28-1.455a4.741,4.741,0,0,0-.979-1.473,7.922,7.922,0,0,0-5.945-2.165,10.4,10.4,0,0,0-5.614,1.432c-3.83,2.584-4.332,7.362-4.332,9.382a10.9,10.9,0,0,0,2.82,7.729c1.423,1.461,3.6,2.528,7.32,2.528a22.053,22.053,0,0,0,7.176-1.234V717.473H394.85" fill="#fff"></path><path id="Path_112" data-name="Path 112" d="M408.437,719.834c.055-3.114,2.121-4.153,3.823-4.153,3.235,0,3.49,2.81,3.463,4.153Zm9.965,1.855c.055-2.3.189-7.893-6.087-7.893a6.72,6.72,0,0,0-3.823,1.039c-2.2,1.545-2.765,3.851-2.765,6.629,0,4.463,2.093,7.219,6.507,7.219a6.034,6.034,0,0,0,4.824-1.884,4.767,4.767,0,0,0,1.2-2.949h-2.621a3.057,3.057,0,0,1-3.3,2.922c-2.876,0-4.073-2.161-4.016-5.083" fill="#fff"></path><path id="Path_113" data-name="Path 113" d="M421.217,715.791l-.027-1.625h2.624l.026,2.272a4.584,4.584,0,0,1,4.495-2.557c1.253,0,5.081.476,5.081,4.8v9.575H430.74V719.3a3.194,3.194,0,0,0-.758-2.416,3.582,3.582,0,0,0-2.482-.952c-1.9,0-3.66,1.372-3.66,4.208v8.118h-2.623" fill="#fff"></path><path id="Path_114" data-name="Path 114" d="M437.825,714.166,441.2,725.4l3.542-11.229h3.435l3.18,11.114,3.518-11.114h2.707l-4.941,14.094h-3.012l-3.293-11.6-3.655,11.6h-3.1l-4.63-14.094" fill="#fff"></path><path id="Path_115" data-name="Path 115" d="M460.908,721.214c0-4.413,2.707-5.48,4.382-5.48,2.456,0,4.076,1.853,4.076,5.361,0,4.246-2.261,5.676-4.244,5.676C462.137,726.771,460.908,724.1,460.908,721.214Zm-2.738.169c0,4.126,2.263,7.353,6.9,7.353,4.774,0,7.09-3.426,7.09-7.552,0-2.951-1.258-7.388-6.867-7.388C459.79,713.8,458.17,717.9,458.17,721.383Z" fill="#fff"></path><path id="Path_116" data-name="Path 116" d="M483.91,714.1h2.032v-2.946l2.6-.839V714.1h3.125v1.942h-3.125v8.45c0,.7,0,1.879,1.872,1.879a5.6,5.6,0,0,0,1.253-.14v2.05a12.8,12.8,0,0,1-2.177.169c-2.4,0-3.543-.705-3.543-3v-9.4H483.91" fill="#fff"></path><path id="Path_117" data-name="Path 117" d="M494.9,708.246l2.65-.861v8.857a5.112,5.112,0,0,1,4.548-2.327c1.48,0,3.6.531,4.408,2.239a6.863,6.863,0,0,1,.478,3.288v8.818H504.31v-8.339c0-1.265,0-3.986-3.017-3.986A3.618,3.618,0,0,0,498,717.816a6.741,6.741,0,0,0-.446,2.976v7.468H494.9V708.246" fill="#fff"></path><path id="Path_118" data-name="Path 118" d="M482.256,714.043a8.036,8.036,0,0,0-1.615.063,3.8,3.8,0,0,0-3.351,2.781l-.052-2.72h-2.652c.081.921.139,1.908.139,2.858V728.26h2.652v-7.5c0-2.419.722-4.267,3.821-4.267a6.045,6.045,0,0,1,.753.027c.118.018.207.045.305.066" fill="#fff"></path><path id="Path_119" data-name="Path 119" d="M534.614,705.033l-1.646,7.358-1.642-7.358,1.642-7.36Z" fill="#1072be"></path><path id="Path_120" data-name="Path 120" d="M543.677,710.159l-6.365,4.044,4.042-6.367,6.367-4.042Z" fill="#1072be"></path><path id="Path_121" data-name="Path 121" d="M546.463,720.2l-7.361-1.646,7.361-1.648,7.361,1.65Z" fill="#1072be"></path><path id="Path_122" data-name="Path 122" d="M541.334,729.264l-4.041-6.368,6.367,4.042L547.7,733.3Z" fill="#1072be"></path><path id="Path_123" data-name="Path 123" d="M531.295,732.05l1.644-7.362,1.647,7.362-1.647,7.355Z" fill="#1072be"></path><path id="Path_124" data-name="Path 124" d="M522.23,726.919l6.368-4.039-4.042,6.366-6.367,4.038Z" fill="#1072be"></path><path id="Path_125" data-name="Path 125" d="M519.446,716.882l7.361,1.644-7.361,1.646-7.36-1.648Z" fill="#1072be"></path><path id="Path_126" data-name="Path 126" d="M524.575,707.815l4.042,6.368-6.367-4.04-4.04-6.369Z" fill="#1072be"></path><path id="Path_127" data-name="Path 127" d="M519.886,714.88a13.5,13.5,0,0,1,1.257-3.028l-.017-.011-6.564-.945,5.3,3.981" fill="#1072be"></path><path id="Path_128" data-name="Path 128" d="M526.3,706.7a13.488,13.488,0,0,1,3.031-1.255v-.02l-3.977-5.308.936,6.567" fill="#1072be"></path><path id="Path_129" data-name="Path 129" d="M546.058,714.9l.016,0,5.314-3.972-6.566.933-.017.013A13.675,13.675,0,0,1,546.058,714.9Z" fill="#1072be"></path><path id="Path_130" data-name="Path 130" d="M539.654,706.71l.012-.016.944-6.565-3.982,5.306-.007.017A13.707,13.707,0,0,1,539.654,706.71Z" fill="#1072be"></path><path id="Path_131" data-name="Path 131" d="M519.878,722.172l-.019.005-5.306,3.973,6.566-.936.015-.012A13.667,13.667,0,0,1,519.878,722.172Z" fill="#1072be"></path><path id="Path_132" data-name="Path 132" d="M546.05,722.19a13.58,13.58,0,0,1-1.257,3.032l.017.009,6.564.943-5.3-3.982" fill="#1072be"></path><path id="Path_133" data-name="Path 133" d="M526.282,730.362l-.01.017-.941,6.564,3.979-5.3v-.019A13.774,13.774,0,0,1,526.282,730.362Z" fill="#1072be"></path><path id="Path_134" data-name="Path 134" d="M539.635,730.37a13.4,13.4,0,0,1-3.031,1.255l.005.018,3.972,5.311-.931-6.568" fill="#1072be"></path></g></svg> 