<?xml version="1.0" encoding="UTF-8"?> <svg xmlns="http://www.w3.org/2000/svg" xmlns:xlink="http://www.w3.org/1999/xlink" version="1.1" id="Layer_1" x="0px" y="0px" viewBox="0 0 180 60" style="enable-background:new 0 0 180 60;" xml:space="preserve"> <style type="text/css"> .st0{fill:#FF6C37;} .st1{fill:#FFFFFF;} </style> <g> <path class="st0" d="M47.1,15.2c-6-7.7-16-11.1-25.5-8.6S5.2,17.2,3.9,26.9s3.5,19.2,12,24.1s19.1,4.1,26.8-1.8 C53.3,41,55.2,25.8,47.1,15.2L47.1,15.2z"></path> <path class="st1" d="M36.1,21.2L25.9,31.5l-2.9-3C33.1,18.5,34.1,19.4,36.1,21.2L36.1,21.2z"></path> <path class="st0" d="M25.9,31.8c-0.1,0-0.2,0-0.2-0.1l-2.9-2.9c-0.1-0.2-0.1-0.4,0-0.5c9.9-9.9,11.2-9.4,13.6-7.3 c0.1,0.1,0.1,0.2,0.1,0.3c0,0.1,0,0.2-0.1,0.3L26.2,31.7C26.1,31.8,26,31.8,25.9,31.8L25.9,31.8z M23.5,28.6l2.4,2.4l9.7-9.7 c-0.7-0.9-1.9-1.1-2.9-0.5C31,21.6,28.1,24,23.5,28.6z"></path> <path class="st1" d="M28.8,34.3L26,31.5l10.2-10.1C39,24.1,34.9,28.6,28.8,34.3L28.8,34.3z"></path> <path class="st0" d="M28.8,34.7c-0.1,0-0.2,0-0.2-0.1l-2.8-2.8c0-0.1,0-0.2,0-0.3c0-0.1,0-0.2,0-0.3L36,21c0.1-0.1,0.4-0.1,0.5,0 c0.7,0.6,1,1.5,1,2.4c0,2.7-3.1,6.1-8.4,11.1C29,34.7,28.9,34.7,28.8,34.7L28.8,34.7z M26.6,31.5l2.3,2.3c4-3.8,7.9-7.7,7.9-10.4 c0-0.6-0.2-1.1-0.5-1.6L26.6,31.5z"></path> <path class="st1" d="M23.1,28.6l2,2c0,0,0,0.1,0,0.1c0,0,0,0.1,0,0.1l-4.2,0.9c-0.2,0-0.4-0.1-0.5-0.3c0-0.1,0-0.3,0.1-0.4l2.5-2.5 C23,28.6,23.1,28.6,23.1,28.6L23.1,28.6z"></path> <path class="st0" d="M20.8,32.1c-0.3,0-0.5-0.1-0.7-0.4c-0.2-0.3-0.1-0.7,0.1-0.9l2.5-2.5c0.2-0.2,0.5-0.2,0.6,0l2,2 c0.1,0.1,0.2,0.3,0.1,0.4c0,0.2-0.2,0.3-0.3,0.3L20.9,32L20.8,32.1z M23,29l-2.3,2.3l3.8-0.8L23,29z"></path> <path class="st1" d="M41.5,15.6c-1.5-1.4-3.7-1.5-5.3-0.1s-1.8,3.6-0.6,5.2c1.2,1.6,3.4,2.1,5.2,1.1L38.1,19L41.5,15.6z"></path> <path class="st0" d="M38.8,22.7c-1.7,0-3.2-1.1-3.9-2.7c-0.6-1.6-0.3-3.4,0.9-4.6c1.7-1.7,4.4-1.7,6,0c0.1,0.1,0.2,0.3,0,0.5 c0,0,0,0,0,0L38.6,19l2.5,2.4c0.1,0.1,0.1,0.2,0.1,0.3c0,0.1-0.1,0.2-0.2,0.3C40.3,22.4,39.6,22.6,38.8,22.7L38.8,22.7z M38.8,14.8 c-2,0-3.5,1.6-3.5,3.6c0,0.9,0.4,1.8,1,2.5c1,1,2.6,1.3,3.9,0.7l-2.4-2.4c-0.1-0.1-0.1-0.2-0.1-0.3s0-0.2,0.1-0.3l3.1-3.2 C40.3,15.1,39.6,14.8,38.8,14.8L38.8,14.8z"></path> <path class="st1" d="M41.6,15.6L38.2,19l2.7,2.7c0.3-0.2,0.5-0.3,0.8-0.6C43.2,19.6,43.1,17.2,41.6,15.6L41.6,15.6z"></path> <path class="st0" d="M40.8,22.1c-0.1,0-0.2,0-0.2-0.1l-2.7-2.7c-0.1-0.1-0.1-0.2-0.1-0.3s0-0.2,0.1-0.3l3.4-3.4 c0.1-0.1,0.2-0.2,0.3-0.2s0.2,0.1,0.3,0.2c1.7,1.6,1.7,4.3,0.1,6c0,0,0,0-0.1,0.1c-0.2,0.3-0.5,0.5-0.8,0.6 C41,22.1,40.9,22.1,40.8,22.1L40.8,22.1z M38.6,19l2.3,2.3c0.2-0.1,0.3-0.2,0.4-0.4c0.7-0.7,1-1.6,1-2.5c0-0.8-0.3-1.7-0.9-2.3 L38.6,19z"></path> <path class="st1" d="M36.5,21.6c-0.6-0.5-1.4-0.5-2,0l-9.1,9.1l1.5,1.5l9.7-8.5C37.2,23.3,37.2,22.3,36.5,21.6 C36.6,21.7,36.6,21.7,36.5,21.6L36.5,21.6z"></path> <path class="st0" d="M26.8,32.7c-0.1,0-0.2,0-0.2-0.1L25,31c-0.1-0.2-0.1-0.4,0-0.5l9.1-9.1c0.7-0.7,1.9-0.7,2.6,0 c0.4,0.4,0.6,0.9,0.5,1.4c0,0.5-0.2,1-0.6,1.3L27,32.6C27,32.7,26.9,32.7,26.8,32.7L26.8,32.7z M25.7,30.8l1,1l9.5-8.2 c0.2-0.2,0.4-0.5,0.4-0.8c0-0.3-0.1-0.6-0.3-0.8c-0.4-0.4-1.2-0.4-1.6,0L25.7,30.8z"></path> <path class="st1" d="M18.3,41.1c-0.1,0.1-0.1,0.2,0,0.2l0.4,1.8c0,0.2-0.1,0.4-0.2,0.5s-0.4,0.1-0.6-0.1L15.1,41l8.6-8.7h3l2,2 C25.6,37,22.1,39.4,18.3,41.1L18.3,41.1z"></path> <path class="st0" d="M18.1,44.1c-0.2,0-0.4-0.1-0.6-0.3l-2.6-2.6c-0.1-0.1-0.1-0.2-0.1-0.3c0-0.1,0-0.2,0.1-0.3l8.7-8.7 c0-0.1,0.1-0.1,0.2-0.1h3c0.1,0,0.2,0,0.2,0l2,2c0.1,0.1,0.1,0.2,0.1,0.3c0,0.1,0,0.2-0.1,0.3l-0.2,0.1c-3.2,2.6-6.6,4.9-10.3,6.6 l0.4,1.6c0.1,0.3,0,0.5-0.2,0.7c-0.2,0.2-0.4,0.3-0.7,0.3L18.1,44.1z M15.7,40.9l2.4,2.4c0,0,0.1,0,0.2,0c0,0,0-0.1,0-0.1l-0.4-1.8 c-0.1-0.3,0.1-0.5,0.3-0.6c3.6-1.7,7-3.9,10.1-6.5l-1.7-1.7h-2.7L15.7,40.9z"></path> <path class="st1" d="M13,43l2-2l3.1,3.1l-4.9-0.3c-0.2,0-0.4-0.2-0.4-0.4C12.9,43.2,12.9,43.1,13,43L13,43z"></path> <path class="st0" d="M18.2,44.4l-4.9-0.3c-0.4,0-0.7-0.4-0.7-0.8c0-0.2,0.1-0.3,0.2-0.5l2-2c0.2-0.1,0.4-0.1,0.5,0l3.1,3.1 c0.1,0.1,0.1,0.3,0,0.4C18.4,44.3,18.3,44.4,18.2,44.4L18.2,44.4z M13.3,43.3l4,0.3l-2.2-2.1L13.3,43.3z"></path> <path class="st1" d="M27,32.5l-4.1,0.6l2.4-2.3L27,32.5z"></path> <path class="st0" d="M22.9,33.5c-0.1,0-0.3-0.1-0.3-0.2c-0.1-0.1-0.1-0.3,0-0.4l2.3-2.4c0.1-0.1,0.4-0.1,0.5,0l1.7,1.7 c0.1,0.1,0.1,0.3,0,0.4c0,0.1-0.1,0.2-0.3,0.3L22.9,33.5L22.9,33.5z M25.3,31.3L24,32.6l2.3-0.3L25.3,31.3z"></path> <path class="st1" d="M27,32.5l-2.8,0.4c-0.2,0-0.3,0-0.4-0.2s-0.1-0.3,0.1-0.4l1.5-1.5L27,32.5z"></path> <path class="st0" d="M24.1,33.3c-0.3,0-0.5-0.1-0.6-0.4c-0.2-0.3-0.1-0.6,0.1-0.9l1.5-1.5c0.1-0.1,0.4-0.1,0.5,0l1.7,1.7 c0.1,0.1,0.2,0.2,0.1,0.4c-0.1,0.1-0.2,0.2-0.3,0.2l-2.8,0.4L24.1,33.3z M24.1,32.5l2.1-0.3l-0.9-0.9L24.1,32.5L24.1,32.5z M41.6,17.9c-0.1-0.1-0.2-0.2-0.4-0.1c-0.1,0-0.1,0.1-0.2,0.2c0,0.1,0,0.1,0,0.2c0.1,0.3,0.1,0.6-0.1,0.9c-0.1,0-0.1,0.1-0.1,0.2 s0,0.1,0.1,0.2c0.1,0,0.1,0,0.2,0c0.1,0,0.2,0,0.3-0.1C41.7,19,41.8,18.4,41.6,17.9L41.6,17.9z M138.5,26.3l-2.4,5.1 c-0.2,0.4-0.4,1-0.8,1c-0.6,0-0.6-0.6-0.9-1.1l-1.9-4.3c-0.1-0.2-0.1-0.6-0.4-0.6c-0.4,0.1-0.3,0.5-0.3,0.8V36c0,0.4,0,0.9-0.1,1.3 S131.4,38,131,38c-0.4-0.1-0.6-0.4-0.6-0.7V23.7c0-0.6-0.1-1.4,0.5-1.6c0.7-0.2,1.2,0.4,1.4,1l2.2,4.9c0.2,0.4,0.3,1.2,0.9,1.3 c0.6,0,0.7-0.9,0.9-1.3l2.2-4.8c0.3-0.6,0.6-1.3,1.4-1.2c0.8,0.2,0.6,1,0.6,1.7v12.6c0,0.6,0.2,1.7-0.7,1.7c-1,0-0.8-1-0.8-1.7V28 C139,27.4,139.1,26.8,138.5,26.3L138.5,26.3z M169.5,26.6c-0.4,0.4-0.3,1-0.3,1.5v8.6c0,0.5,0.1,1.3-0.6,1.3 c-0.8,0.1-0.8-0.7-0.8-1.3V23.4c0-0.5-0.1-1.2,0.5-1.3c0.6-0.2,1,0.3,1.3,0.9l3.5,7.9c0.2,0.6,0.5,1.1,0.7,1.7 c0.1,0.3,0.1,0.7,0.6,0.6c0.4-0.1,0.3-0.6,0.3-0.9v-8.5c0-0.4,0-0.6,0.1-1c0.1-0.5,0.4-0.7,0.8-0.7c0.4,0.1,0.6,0.4,0.6,0.9v13.4 c0,0.6,0.2,1.4-0.5,1.6c-0.8,0.3-1.1-0.5-1.4-1.2l-4-9C170.1,27.3,170,26.8,169.5,26.6L169.5,26.6z M87.6,30 c-0.1,1.6,0.1,3.1-0.1,4.7c-0.4,2.2-1.6,3.3-3.8,3.3c-2.4,0-3.8-1-4-3.2c-0.4-3.2-0.4-6.6,0-9.8c0.3-2.1,1.7-3.1,3.9-3.1 S87,23,87.3,25C87.7,26.7,87.5,28.4,87.6,30L87.6,30z M86.1,30v-3.7c-0.1-1.9-1.1-3-2.7-2.9c-1.6,0-2.5,1-2.6,2.9v7.5 c0.1,1.9,1,2.9,2.6,3c1.7,0,2.7-1,2.7-3C86.2,32.6,86.1,31.4,86.1,30L86.1,30z M158.9,37c0,0.5-0.1,0.9-0.5,0.9 c-0.4,0.1-0.6,0-0.8-0.4c-0.1-0.3-0.2-0.6-0.3-0.9c-0.6-2.2-0.6-2.2-2.6-2.2h-0.6c-2.5,0-2.5,0-3.3,2.6c-0.1,0.5-0.2,1.2-0.9,1 c-0.7-0.3-0.5-1-0.4-1.6l3.5-13.1c0.2-0.6,0.3-1.6,1.2-1.5c0.8,0.1,0.9,0.9,1.1,1.5l3.3,12.4C158.7,36.2,158.8,36.6,158.9,37 L158.9,37z M154,33h0.7c1.6,0,1.7-0.1,1.2-1.9l-1.4-5.1c-0.1-0.4,0-0.9-0.4-0.9s-0.5,0.5-0.6,0.9l-1.2,4.3 C151.7,33,151.7,33,154,33L154,33z M62.1,30v-6.7c0-1.1,0.4-1.4,1.2-1.4h2.5c3.3,0.1,4.5,1.6,4.5,5.4c-0.1,2.6-1.4,4.1-3.6,4.3 c-0.6,0-1.2,0.1-1.9,0c-1-0.1-1.4,0.4-1.3,1.5c0.1,1.3,0,2.6,0,3.8c0,0.5-0.1,1.1-0.7,1.1s-0.6-0.6-0.6-1.2L62.1,30L62.1,30z M65.5,30.3c2.1,0,2.9-0.5,3.2-2c0.4-1.5,0.4-3-0.7-4.1c-1.2-1.2-2.7-0.6-4-0.6c-0.5,0-0.5,0.6-0.5,1.2v3.2 C63.5,30.3,63.5,30.3,65.5,30.3L65.5,30.3z M100.4,38.2c-1.5,0-2.7-0.3-3.7-1.4c-0.3-0.4-0.6-0.9-0.2-1.4c0.4-0.4,0.8-0.1,1.1,0.2 c0.9,0.9,1.8,1.2,3,1.2c1.1-0.1,1.9-0.6,2.3-1.8c0.4-1.1,0.2-2.4-0.6-3.2c-0.8-0.9-1.8-1.2-2.8-1.7c-1.4-0.6-2.5-1.6-2.7-3.5 c-0.2-2.6,0.9-4,3.5-4.5c1.1-0.2,2.1,0.1,3,0.4c0.5,0.1,0.9,0.6,0.7,1.2c-0.2,0.7-0.7,0.4-1.2,0.2c-0.9-0.5-1.9-0.5-2.9-0.4 c-0.8,0.1-1.5,0.6-1.7,1.7s0,1.9,0.7,2.5c0.9,0.8,2,1.1,3,1.6c1.6,0.8,2.5,2.2,2.5,4.2c0,1.9-0.4,3.3-2,4.3 C101.7,38.1,100.9,38,100.4,38.2L100.4,38.2z M116.2,30.6v-5.6c0.1-1.4-0.4-1.8-1.5-1.7c-0.4,0.1-0.9,0-1.4,0s-0.7-0.2-0.7-0.8 c0-0.4,0.3-0.7,0.6-0.7h7.4c0.4,0,0.6,0.2,0.6,0.6c0,0.5-0.3,0.8-0.7,0.8c-0.5,0-1.1,0.1-1.6,0c-1-0.1-1.3,0.4-1.3,1.5v11.8 c0,0.6-0.1,1.2-0.7,1.2c-0.7,0-0.7-0.6-0.7-1.2L116.2,30.6L116.2,30.6z"></path> </g> </svg> 