<?xml version="1.0" encoding="UTF-8"?> <svg xmlns="http://www.w3.org/2000/svg" xmlns:xlink="http://www.w3.org/1999/xlink" version="1.1" id="Layer_1" x="0px" y="0px" viewBox="0 0 180 60" style="enable-background:new 0 0 180 60;" xml:space="preserve"> <style type="text/css"> .st0{fill:#E24329;} .st1{fill:#FC6D26;} .st2{fill:#FCA326;} </style> <g> <path class="st0" d="M90,58.4L90,58.4l11.4-34.9H78.6L90,58.4L90,58.4z"></path> <path class="st1" d="M90,58.4L78.6,23.5H62.7L90,58.4L90,58.4z"></path> <path class="st2" d="M62.7,23.5L62.7,23.5l-3.5,10.6c-0.3,1,0,2,0.9,2.6L90,58.4L62.7,23.5L62.7,23.5z"></path> <path class="st0" d="M62.7,23.5h15.9l-6.8-21c-0.4-1.1-1.9-1.1-2.2,0L62.7,23.5L62.7,23.5z"></path> <path class="st1" d="M90,58.4l11.4-34.9h15.9L90,58.4L90,58.4z"></path> <path class="st2" d="M117.3,23.5L117.3,23.5l3.5,10.6c0.3,1,0,2-0.9,2.6L90,58.4L117.3,23.5L117.3,23.5z"></path> <path class="st0" d="M117.3,23.5h-15.9l6.8-21c0.4-1.1,1.9-1.1,2.2,0L117.3,23.5L117.3,23.5z"></path> </g> </svg> 