<?xml version="1.0" encoding="UTF-8"?> <svg xmlns="http://www.w3.org/2000/svg" xmlns:xlink="http://www.w3.org/1999/xlink" version="1.1" id="Layer_1" x="0px" y="0px" viewBox="0 0 180 60" style="enable-background:new 0 0 180 60;" xml:space="preserve"> <style type="text/css"> .st0{fill:#FFFFFF;} </style> <path d="M60.6,37v-4.7h3.1V2.1H7.8v21.5l2.3-2.4l-0.6,8.1H7.8V58h55.8V41.6c-0.1,0.1-3,0.1-3.1,0.1v-2.3L60.6,37L60.6,37z"></path> <path class="st0" d="M63.7,41.6v-9.3H29.4l-0.9,1.3l-0.9-1.3h-9.9v9.8h9.9l0.9-1.3l0.9,1.3h6.2V40h-0.2c0.8,0,1.6-0.2,2.2-0.4v2.6 h4.5V41l0.9,1.2h18.5C62.3,42.1,63.1,41.9,63.7,41.6L63.7,41.6z M56.8,29.2H61v-9.8h-4.6v1.4l-0.9-1.4h-4v1.8l-0.8-1.8h-6.4 c-0.3,0-0.6,0-0.8,0.1c-0.3,0-0.5,0.1-0.8,0.2c-0.2,0.1-0.4,0.1-0.6,0.2c-0.2,0.1-0.4,0.2-0.6,0.3v-0.3v-0.4h-21L20,21l-0.6-1.6h-5 v1.8l-0.8-1.8h-4l-1.8,4.2v5.6h2.8l0.5-1.4h1l0.5,1.4h21.9V28l0.9,1.2h6V29v-0.4c0.2,0.1,0.3,0.2,0.5,0.3c0.2,0.1,0.4,0.1,0.5,0.2 c0.2,0.1,0.5,0.1,0.7,0.2c0.3,0,0.6,0.1,0.8,0.1h3.6L48,28h1l0.5,1.4H56V28L56.8,29.2L56.8,29.2z"></path> <path d="M24.6,35.3V34h-5.2v6.6h5.2v-1.3h-3.7V38h3.6v-1.3h-3.6v-1.3h3.7V35.3z M30.2,40.5h1.9l-2.6-3.3l2.6-3.3h-1.8L28.6,36 l-1.7-2.1H25l2.6,3.3L25,40.5h1.8l1.7-2.2L30.2,40.5L30.2,40.5z M32.5,33.9v6.6H34v-2.2h2c1.4,0,2.3-0.9,2.3-2.2s-0.9-2.2-2.3-2.2 L32.5,33.9L32.5,33.9z M36.8,36.1c0,0.5-0.3,0.8-0.9,0.8H34v-1.7h1.9C36.5,35.3,36.8,35.7,36.8,36.1L36.8,36.1z M40.8,38.1h0.8 l2,2.4h1.9L43.3,38c1.1-0.2,1.8-1,1.8-2c0-1.2-0.9-2.1-2.3-2.1h-3.5v6.6h1.5V38.1L40.8,38.1z M42.6,35.3c0.6,0,0.9,0.3,0.9,0.8 c0,0.4-0.3,0.8-0.9,0.8h-1.9v-1.6H42.6L42.6,35.3z M51.2,35.3V34H46v6.6h5.2v-1.3h-3.7V38h3.6v-1.3h-3.6v-1.3h3.7V35.3z M55.5,39.2 h-3.4v1.3h3.3c1.4,0,2.3-0.9,2.3-2.1c0-1.2-0.8-1.9-2-1.9h-1.5c-0.4,0-0.7-0.3-0.7-0.6c0-0.4,0.3-0.6,0.7-0.6H57l0.6-1.3h-3.3 c-1.4,0-2.3,0.9-2.3,2c0,1.2,0.8,1.9,2,1.9h1.5c0.4,0,0.7,0.3,0.7,0.7C56.2,38.9,55.9,39.2,55.5,39.2L55.5,39.2z M61.6,39.2h-3.4 v1.3h3.3c1.4,0,2.3-0.9,2.3-2.1c0-1.2-0.8-1.9-2-1.9h-1.5c-0.4,0-0.7-0.3-0.7-0.6c0-0.4,0.3-0.6,0.7-0.6h2.8l0.6-1.3h-3.3 c-1.4,0-2.3,0.9-2.3,2c0,1.2,0.8,1.9,2,1.9h1.5c0.4,0,0.7,0.3,0.7,0.7C62.3,38.9,62,39.2,61.6,39.2L61.6,39.2z"></path> <path d="M13.8,27.6h1.7L12.7,21h-2l-2.8,6.6h1.6l0.6-1.4h3.2L13.8,27.6L13.8,27.6z M11.2,23.4l0.5-1.4l0.5,1.4l0.6,1.5h-2.2 L11.2,23.4L11.2,23.4z M19.3,27.6h1.3l1.9-5.3v5.3H24V21h-2.5L20,25.4L18.4,21h-2.5v6.6h1.5v-5.3L19.3,27.6L19.3,27.6z M30.6,22.3 V21h-5.2v6.6h5.2v-1.3h-3.7V25h3.6v-1.3h-3.6v-1.3h3.7V22.3z M33.3,25.2H34l2,2.4h1.9l-2.2-2.5c1.1-0.2,1.8-1,1.8-2 c0-1.2-0.9-2.1-2.3-2.1h-3.5v6.6h1.5L33.3,25.2L33.3,25.2z M35.1,22.3c0.6,0,0.9,0.3,0.9,0.8c0,0.4-0.3,0.8-0.9,0.8h-1.9v-1.6 L35.1,22.3L35.1,22.3z M38.5,27.6H40v-3V21h-1.5v3.4V27.6L38.5,27.6z M44,27.6L44,27.6l0.7-1.3h-0.4c-1.1,0-1.8-0.7-1.8-1.9v-0.1 c0-1.1,0.6-1.9,1.7-1.9h1.7V21h-1.8c-2,0-3.1,1.4-3.1,3.2v0.1C41,26.3,42.2,27.6,44,27.6L44,27.6z M51,27.6h1.7L49.8,21h-2L45,27.6 h1.6l0.6-1.4h3.2L51,27.6L51,27.6z M48.3,23.4l0.5-1.4l0.5,1.4l0.6,1.5h-2.2L48.3,23.4L48.3,23.4z M54.9,23.5l2.6,4h1.9V21h-1.5v4.3 l-0.4-0.6L55,21h-1.9v6.6h1.5v-4.5L54.9,23.5L54.9,23.5z"></path> <g> <path d="M84,19.3c2.1,0,3.3-1.3,3.6-2.1l0,0v1.9H90v-6.9h-5.2v2.2h2.4c-0.3,1.5-1.3,2.5-2.8,2.5s-3.3-1-3.3-4.8s2.1-4.5,3.2-4.5 c1.3,0,2.2,0.7,2.8,2.6l2.8-0.8C89,6.1,87,5,84.4,5c-3.8,0-6.2,2.8-6.2,7C78,16.3,79.9,19.3,84,19.3L84,19.3z"></path> <polygon points="101.6,19.1 101.6,16.6 95.6,16.6 95.6,5.4 92.5,5.4 92.5,19.1 "></polygon> <path d="M108.1,19.3c3.3,0,6.4-2.3,6.4-7.1s-3.1-7.1-6.4-7.1s-6.5,2.3-6.5,7.1S104.8,19.3,108.1,19.3L108.1,19.3z M108.1,16.9 c-2.1,0-3.4-1.8-3.4-4.7s1.3-4.6,3.4-4.6s3.4,1.7,3.4,4.6S110.2,16.9,108.1,16.9L108.1,16.9z"></path> <path d="M122.2,19.1c2.6,0,5-1,5-3.8c0-2.2-1.3-3-3-3.3l0,0c1.4-0.3,2.6-1.2,2.6-3.1c0-2.8-2.4-3.4-4.9-3.4h-5.5v13.7L122.2,19.1 L122.2,19.1z M119.5,7.7h2.3c1.6,0,2.3,0.6,2.3,1.7s-0.7,1.6-2.3,1.6h-2.2V7.7H119.5z M119.5,13.1h2.3c1.7,0,2.5,0.6,2.5,1.8 s-0.7,1.8-2.4,1.8h-2.4V13.1L119.5,13.1z"></path> <path d="M134,9.2L134,9.2l1.6,4.7h-3.2L134,9.2L134,9.2z M130.6,19.1l1.1-3h4.7l1,3h3l-4.8-13.7h-2.9l-4.8,13.7H130.6L130.6,19.1z"></path> <polygon points="150.9,19.1 150.9,16.6 144.9,16.6 144.9,5.4 141.9,5.4 141.9,19.1 "></polygon> <path d="M85.1,36.8c2.6,0,5-1,5-3.8c0-2.2-1.3-3-3-3.3l0,0c1.4-0.3,2.6-1.2,2.6-3.1c0-2.8-2.4-3.4-4.9-3.4h-5.5v13.7h5.8V36.8z M82.3,25.5h2.3c1.6,0,2.3,0.6,2.3,1.7s-0.7,1.6-2.3,1.6h-2.2v-3.3H82.3z M82.3,30.9h2.3c1.7,0,2.5,0.6,2.5,1.8s-0.7,1.8-2.4,1.8 h-2.4V30.9L82.3,30.9z"></path> <path d="M97.5,37.1c3.8,0,5.5-2.1,5.5-5.5v-8.4h-3v8.4c0,2-0.7,3.1-2.5,3.1s-2.6-1.1-2.6-3.1v-8.4h-3v8.4 C91.9,35,93.7,37.1,97.5,37.1L97.5,37.1z"></path> <path d="M110.2,37.1c3.8,0,5.5-2,5.5-4.2c0-2.8-2.6-3.6-5-4.2c-1.8-0.5-2.8-0.9-2.8-2c0-0.8,0.7-1.4,2-1.4s2.6,0.8,3.4,1.9l2.1-1.6 c-1-1.5-2.6-2.8-5.4-2.8c-2.9,0-4.9,1.5-4.9,4.1c0,2.9,2.6,3.5,5,4.2c1.8,0.5,2.8,0.9,2.8,2c0,1.1-1,1.6-2.4,1.6 c-1.6,0-2.9-0.8-3.7-2.3l-2.3,1.3C105.4,35.7,107.3,37.1,110.2,37.1L110.2,37.1z"></path> <polygon points="120.8,36.8 120.8,30 120.8,23.2 119.3,23.2 117.8,23.2 117.8,30 117.8,36.8 119.1,36.8 "></polygon> <polygon points="126.4,36.8 126.4,28 126.4,28 132.4,36.8 135.1,36.8 135.1,23.2 132.4,23.2 132.4,31.9 132.3,31.9 126.6,23.2 123.6,23.2 123.6,36.8 "></polygon> <polygon points="147.6,36.8 147.6,34.4 140.9,34.4 140.9,31 145.5,31 145.5,28.6 140.9,28.6 140.9,25.7 147.2,25.7 147.2,23.2 137.9,23.2 137.9,36.8 "></polygon> <path d="M154.3,37.1c3.8,0,5.5-2,5.5-4.2c0-2.8-2.6-3.6-5-4.2c-1.8-0.5-2.8-0.9-2.8-2c0-0.8,0.7-1.4,2-1.4s2.6,0.8,3.4,1.9l2.1-1.6 c-1-1.5-2.6-2.8-5.4-2.8c-2.9,0-4.9,1.5-4.9,4.1c0,2.9,2.6,3.5,5,4.2c1.8,0.5,2.8,0.9,2.8,2c0,1.1-1,1.6-2.4,1.6 c-1.6,0-2.9-0.8-3.7-2.3l-2.3,1.3C149.5,35.7,151.3,37.1,154.3,37.1L154.3,37.1z"></path> <path d="M166.7,37.1c3.8,0,5.5-2,5.5-4.2c0-2.8-2.6-3.6-5-4.2c-1.8-0.5-2.8-0.9-2.8-2c0-0.8,0.7-1.4,2-1.4s2.6,0.8,3.4,1.9l2.1-1.6 c-1-1.5-2.6-2.8-5.4-2.8c-2.9,0-4.9,1.5-4.9,4.1c0,2.9,2.6,3.5,5,4.2c1.8,0.5,2.8,0.9,2.8,2c0,1.1-1,1.6-2.4,1.6 c-1.6,0-2.9-0.8-3.7-2.3l-2.3,1.3C161.9,35.7,163.7,37.1,166.7,37.1L166.7,37.1z"></path> <polygon points="86.1,54.6 86.1,43.5 90.2,43.5 90.2,40.9 79.1,40.9 79.1,43.5 83.1,43.5 83.1,54.6 "></polygon> <path d="M94.8,43.4h2.1c1.7,0,2.6,0.5,2.6,1.8c0,1.4-0.8,1.9-2.6,1.9h-2.1V43.4L94.8,43.4z M94.8,54.6v-5.2h1.7l2.8,5.2h3.2l-3-5.5 c1.8-0.6,2.8-1.7,2.8-3.9c0-3-2-4.2-5.4-4.2h-5.1v13.7L94.8,54.6L94.8,54.6z"></path> <path d="M109.5,44.7L109.5,44.7l1.6,4.7h-3.2L109.5,44.7L109.5,44.7z M106.1,54.6l1.1-3h4.7l1,3h3L111,40.9h-2.9l-4.8,13.7 L106.1,54.6L106.1,54.6z"></path> <polygon points="122.4,54.7 127.1,40.9 124.3,40.9 121,50.7 121,50.7 117.9,40.9 114.8,40.9 119.5,54.7 "></polygon> <polygon points="138.3,54.6 138.3,52.2 131.6,52.2 131.6,48.8 136.2,48.8 136.2,46.4 131.6,46.4 131.6,43.5 137.9,43.5 137.9,40.9 128.6,40.9 128.6,54.6 "></polygon> <polygon points="149.7,54.6 149.7,52.2 143.7,52.2 143.7,40.9 140.6,40.9 140.6,54.6 "></polygon> </g> </svg> 