<?xml version="1.0" encoding="UTF-8"?> <svg xmlns="http://www.w3.org/2000/svg" xmlns:xlink="http://www.w3.org/1999/xlink" version="1.1" id="Layer_1" x="0px" y="0px" viewBox="0 0 180 60" style="enable-background:new 0 0 180 60;" xml:space="preserve"> <style type="text/css"> .st0{fill:#FFFFFF;} .st1{fill:#EAEAEA;} </style> <path class="st0" d="M35.9,35.2H34v1.7h1.9c0.6,0,0.9-0.3,0.9-0.8C36.8,35.7,36.5,35.3,35.9,35.2z M42.6,35.3h-1.9v1.6h1.9 c0.6,0,0.9-0.4,0.9-0.8C43.5,35.6,43.2,35.3,42.6,35.3z M42.6,35.3h-1.9v1.6h1.9c0.6,0,0.9-0.4,0.9-0.8 C43.5,35.6,43.2,35.3,42.6,35.3z M35.9,35.2H34v1.7h1.9c0.6,0,0.9-0.3,0.9-0.8C36.8,35.7,36.5,35.3,35.9,35.2z M35.9,35.2H34v1.7 h1.9c0.6,0,0.9-0.3,0.9-0.8C36.8,35.7,36.5,35.3,35.9,35.2z M42.6,35.3h-1.9v1.6h1.9c0.6,0,0.9-0.4,0.9-0.8 C43.5,35.6,43.2,35.3,42.6,35.3z M42.6,35.3h-1.9v1.6h1.9c0.6,0,0.9-0.4,0.9-0.8C43.5,35.6,43.2,35.3,42.6,35.3z M35.9,35.2H34v1.7 h1.9c0.6,0,0.9-0.3,0.9-0.8C36.8,35.7,36.5,35.3,35.9,35.2z M35.9,35.2H34v1.7h1.9c0.6,0,0.9-0.3,0.9-0.8 C36.8,35.7,36.5,35.3,35.9,35.2z M42.6,35.3h-1.9v1.6h1.9c0.6,0,0.9-0.4,0.9-0.8C43.5,35.6,43.2,35.3,42.6,35.3z M42.6,35.3h-1.9 v1.6h1.9c0.6,0,0.9-0.4,0.9-0.8C43.5,35.6,43.2,35.3,42.6,35.3z M35.9,35.2H34v1.7h1.9c0.6,0,0.9-0.3,0.9-0.8 C36.8,35.7,36.5,35.3,35.9,35.2z M35.9,35.2H34v1.7h1.9c0.6,0,0.9-0.3,0.9-0.8C36.8,35.7,36.5,35.3,35.9,35.2z M42.6,35.3h-1.9v1.6 h1.9c0.6,0,0.9-0.4,0.9-0.8C43.5,35.6,43.2,35.3,42.6,35.3z M42.6,35.3h-1.9v1.6h1.9c0.6,0,0.9-0.4,0.9-0.8 C43.5,35.6,43.2,35.3,42.6,35.3z M35.9,35.2H34v1.7h1.9c0.6,0,0.9-0.3,0.9-0.8C36.8,35.7,36.5,35.3,35.9,35.2z M35.9,35.2H34v1.7 h1.9c0.6,0,0.9-0.3,0.9-0.8C36.8,35.7,36.5,35.3,35.9,35.2z M42.6,35.3h-1.9v1.6h1.9c0.6,0,0.9-0.4,0.9-0.8 C43.5,35.6,43.2,35.3,42.6,35.3z M49.3,23.4L48.8,22l-0.5,1.4l-0.6,1.5h2.2L49.3,23.4z M42.6,35.3h-1.9v1.6h1.9 c0.6,0,0.9-0.4,0.9-0.8C43.5,35.6,43.2,35.3,42.6,35.3z M35.9,35.2H34v1.7h1.9c0.6,0,0.9-0.3,0.9-0.8C36.8,35.7,36.5,35.3,35.9,35.2 z M49.3,23.4L48.8,22l-0.5,1.4l-0.6,1.5h2.2L49.3,23.4z M35.9,35.2H34v1.7h1.9c0.6,0,0.9-0.3,0.9-0.8C36.8,35.7,36.5,35.3,35.9,35.2 z M42.6,35.3h-1.9v1.6h1.9c0.6,0,0.9-0.4,0.9-0.8C43.5,35.6,43.2,35.3,42.6,35.3z M49.3,23.4L48.8,22l-0.5,1.4l-0.6,1.5h2.2 L49.3,23.4z M42.6,35.3h-1.9v1.6h1.9c0.6,0,0.9-0.4,0.9-0.8C43.5,35.6,43.2,35.3,42.6,35.3z M35.9,35.2H34v1.7h1.9 c0.6,0,0.9-0.3,0.9-0.8C36.8,35.7,36.5,35.3,35.9,35.2z M49.3,23.4L48.8,22l-0.5,1.4l-0.6,1.5h2.2L49.3,23.4z M35.1,22.3h-1.9v1.6 h1.9c0.6,0,0.9-0.4,0.9-0.8C36,22.6,35.7,22.3,35.1,22.3z M35.9,35.2H34v1.7h1.9c0.6,0,0.9-0.3,0.9-0.8 C36.8,35.7,36.5,35.3,35.9,35.2z M42.6,35.3h-1.9v1.6h1.9c0.6,0,0.9-0.4,0.9-0.8C43.5,35.6,43.2,35.3,42.6,35.3z M49.3,23.4L48.8,22 l-0.5,1.4l-0.6,1.5h2.2L49.3,23.4z M42.6,35.3h-1.9v1.6h1.9c0.6,0,0.9-0.4,0.9-0.8C43.5,35.6,43.2,35.3,42.6,35.3z M35.9,35.2H34 v1.7h1.9c0.6,0,0.9-0.3,0.9-0.8C36.8,35.7,36.5,35.3,35.9,35.2z M49.3,23.4L48.8,22l-0.5,1.4l-0.6,1.5h2.2L49.3,23.4z M35.1,22.3 h-1.9v1.6h1.9c0.6,0,0.9-0.4,0.9-0.8C36,22.6,35.7,22.3,35.1,22.3z M12.2,23.4L11.7,22l-0.5,1.4l-0.6,1.5h2.2L12.2,23.4z M35.1,22.3 h-1.9v1.6h1.9c0.6,0,0.9-0.4,0.9-0.8C36,22.6,35.7,22.3,35.1,22.3z M35.9,35.2H34v1.7h1.9c0.6,0,0.9-0.3,0.9-0.8 C36.8,35.7,36.5,35.3,35.9,35.2z M42.6,35.3h-1.9v1.6h1.9c0.6,0,0.9-0.4,0.9-0.8C43.5,35.6,43.2,35.3,42.6,35.3z M49.3,23.4L48.8,22 l-0.5,1.4l-0.6,1.5h2.2L49.3,23.4z M42.6,35.3h-1.9v1.6h1.9c0.6,0,0.9-0.4,0.9-0.8C43.5,35.6,43.2,35.3,42.6,35.3z M35.9,35.2H34 v1.7h1.9c0.6,0,0.9-0.3,0.9-0.8C36.8,35.7,36.5,35.3,35.9,35.2z M49.3,23.4L48.8,22l-0.5,1.4l-0.6,1.5h2.2L49.3,23.4z M35.1,22.3 h-1.9v1.6h1.9c0.6,0,0.9-0.4,0.9-0.8C36,22.6,35.7,22.3,35.1,22.3z M60.4,34h0.2v-1.7h3.1V2.1H7.8v21.5l2.3-2.4L10,22.7l0.7-1.7h2 l2.8,6.6h-1.7l-0.5-1.4h-3.2l-0.4,1l-0.1,2l0,0.1H7.8V58h55.8V41.6c-0.1,0.1-3,0.1-3.1,0.1v-1.2h-2.3v-1.3h2.3l0-1.3h-0.5 c-1.2,0-2-0.7-2-1.9C58.1,34.9,59,34,60.4,34z M15.9,21h2.5l1.6,4.4l1.5-4.4H24v6.6h-1.5v-5.3l-1.9,5.3h-1.3l-1.9-5.3v5.3h-1.5V21z M57.9,25.3V21h1.5v6.5h-1.9l-2.6-4l-0.3-0.4v4.5h-1.5V21H55l2.5,3.7L57.9,25.3z M37.9,27.6H36l-2-2.4h-0.7l-0.1,2.4h-1.5V21h3.5 c1.4,0,2.3,0.9,2.3,2.1c0,1-0.7,1.8-1.8,2L37.9,27.6z M38.5,27.6V21H40v6.6H38.5z M51,27.6l-0.6-1.4h-3.2l-0.6,1.4H45l2.8-6.6h2 l2.9,6.6H51z M45.9,22.4h-1.7c-1.1,0-1.7,0.8-1.7,1.9v0.1c0,1.2,0.7,1.9,1.8,1.9h0.4L44,27.6c-1.8,0-3-1.3-3-3.3v-0.1 c0-1.8,1.1-3.2,3.1-3.2h1.8V22.4z M30.5,23.7V25h-3.6v1.3h3.7v1.3h-5.2V21h5.2v1.4h-3.7v1.3H30.5z M24.5,36.7V38h-3.6v1.3h3.7v1.3 h-5.2V34h5.2v1.4h-3.7v1.3H24.5z M25,40.5l2.6-3.3L25,33.9h1.9l1.7,2.1l1.7-2.1h1.8l-2.6,3.3l2.6,3.3h-1.9l-1.7-2.2l-1.7,2.2H25z M32.5,40.5v-6.6H36c1.4,0,2.3,0.9,2.3,2.2c0,1.3-0.9,2.2-2.3,2.2h-2v2.2H32.5z M40.8,38.1v2.4h-1.5v-6.6h3.5c1.4,0,2.3,0.9,2.3,2.1 c0,1-0.7,1.8-1.8,2l2.2,2.5h-1.9l-2-2.4H40.8z M51.1,36.7V38h-3.6v1.3h3.7v1.3H46V34h5.2v1.4h-3.7v1.3H51.1z M55.4,40.5h-3.3v-1.3 h3.4c0.4,0,0.7-0.3,0.7-0.6c0-0.4-0.3-0.7-0.7-0.7H54c-1.2,0-2-0.7-2-1.9c0-1.1,0.9-2,2.3-2h3.3L57,35.3h-2.8 c-0.4,0-0.7,0.2-0.7,0.6c0,0.3,0.3,0.6,0.7,0.6h1.5c1.2,0,2,0.7,2,1.9C57.7,39.6,56.8,40.5,55.4,40.5z M48.8,22l-0.5,1.4l-0.6,1.5 h2.2l-0.6-1.5L48.8,22z M42.6,35.3h-1.9v1.6h1.9c0.6,0,0.9-0.4,0.9-0.8C43.5,35.6,43.2,35.3,42.6,35.3z M36.8,36.1 c0-0.4-0.3-0.8-0.9-0.9H34v1.7h1.9C36.5,36.9,36.8,36.6,36.8,36.1z M35.1,22.3h-1.9v1.6h1.9c0.6,0,0.9-0.4,0.9-0.8 C36,22.6,35.7,22.3,35.1,22.3z M11.7,22l-0.5,1.4l-0.6,1.5h2.2l-0.6-1.5L11.7,22z M35.1,22.3h-1.9v1.6h1.9c0.6,0,0.9-0.4,0.9-0.8 C36,22.6,35.7,22.3,35.1,22.3z M49.3,23.4L48.8,22l-0.5,1.4l-0.6,1.5h2.2L49.3,23.4z M35.9,35.2H34v1.7h1.9c0.6,0,0.9-0.3,0.9-0.8 C36.8,35.7,36.5,35.3,35.9,35.2z M42.6,35.3h-1.9v1.6h1.9c0.6,0,0.9-0.4,0.9-0.8C43.5,35.6,43.2,35.3,42.6,35.3z M49.3,23.4L48.8,22 l-0.5,1.4l-0.6,1.5h2.2L49.3,23.4z M42.6,35.3h-1.9v1.6h1.9c0.6,0,0.9-0.4,0.9-0.8C43.5,35.6,43.2,35.3,42.6,35.3z M35.9,35.2H34 v1.7h1.9c0.6,0,0.9-0.3,0.9-0.8C36.8,35.7,36.5,35.3,35.9,35.2z M35.1,22.3h-1.9v1.6h1.9c0.6,0,0.9-0.4,0.9-0.8 C36,22.6,35.7,22.3,35.1,22.3z M35.1,22.3h-1.9v1.6h1.9c0.6,0,0.9-0.4,0.9-0.8C36,22.6,35.7,22.3,35.1,22.3z M49.3,23.4L48.8,22 l-0.5,1.4l-0.6,1.5h2.2L49.3,23.4z M35.9,35.2H34v1.7h1.9c0.6,0,0.9-0.3,0.9-0.8C36.8,35.7,36.5,35.3,35.9,35.2z M42.6,35.3h-1.9 v1.6h1.9c0.6,0,0.9-0.4,0.9-0.8C43.5,35.6,43.2,35.3,42.6,35.3z M49.3,23.4L48.8,22l-0.5,1.4l-0.6,1.5h2.2L49.3,23.4z M42.6,35.3 h-1.9v1.6h1.9c0.6,0,0.9-0.4,0.9-0.8C43.5,35.6,43.2,35.3,42.6,35.3z M35.9,35.2H34v1.7h1.9c0.6,0,0.9-0.3,0.9-0.8 C36.8,35.7,36.5,35.3,35.9,35.2z M35.1,22.3h-1.9v1.6h1.9c0.6,0,0.9-0.4,0.9-0.8C36,22.6,35.7,22.3,35.1,22.3z M49.3,23.4L48.8,22 l-0.5,1.4l-0.6,1.5h2.2L49.3,23.4z M35.9,35.2H34v1.7h1.9c0.6,0,0.9-0.3,0.9-0.8C36.8,35.7,36.5,35.3,35.9,35.2z M42.6,35.3h-1.9 v1.6h1.9c0.6,0,0.9-0.4,0.9-0.8C43.5,35.6,43.2,35.3,42.6,35.3z M49.3,23.4L48.8,22l-0.5,1.4l-0.6,1.5h2.2L49.3,23.4z M42.6,35.3 h-1.9v1.6h1.9c0.6,0,0.9-0.4,0.9-0.8C43.5,35.6,43.2,35.3,42.6,35.3z M35.9,35.2H34v1.7h1.9c0.6,0,0.9-0.3,0.9-0.8 C36.8,35.7,36.5,35.3,35.9,35.2z M35.9,35.2H34v1.7h1.9c0.6,0,0.9-0.3,0.9-0.8C36.8,35.7,36.5,35.3,35.9,35.2z M42.6,35.3h-1.9v1.6 h1.9c0.6,0,0.9-0.4,0.9-0.8C43.5,35.6,43.2,35.3,42.6,35.3z M42.6,35.3h-1.9v1.6h1.9c0.6,0,0.9-0.4,0.9-0.8 C43.5,35.6,43.2,35.3,42.6,35.3z M35.9,35.2H34v1.7h1.9c0.6,0,0.9-0.3,0.9-0.8C36.8,35.7,36.5,35.3,35.9,35.2z M35.9,35.2H34v1.7 h1.9c0.6,0,0.9-0.3,0.9-0.8C36.8,35.7,36.5,35.3,35.9,35.2z M42.6,35.3h-1.9v1.6h1.9c0.6,0,0.9-0.4,0.9-0.8 C43.5,35.6,43.2,35.3,42.6,35.3z M60.3,35.3c-0.4,0-0.7,0.2-0.7,0.6c0,0.3,0.3,0.6,0.7,0.6h0.3v-1.2H60.3z M42.6,35.3h-1.9v1.6h1.9 c0.6,0,0.9-0.4,0.9-0.8C43.5,35.6,43.2,35.3,42.6,35.3z M35.9,35.2H34v1.7h1.9c0.6,0,0.9-0.3,0.9-0.8C36.8,35.7,36.5,35.3,35.9,35.2 z M35.9,35.2H34v1.7h1.9c0.6,0,0.9-0.3,0.9-0.8C36.8,35.7,36.5,35.3,35.9,35.2z M42.6,35.3h-1.9v1.6h1.9c0.6,0,0.9-0.4,0.9-0.8 C43.5,35.6,43.2,35.3,42.6,35.3z M42.6,35.3h-1.9v1.6h1.9c0.6,0,0.9-0.4,0.9-0.8C43.5,35.6,43.2,35.3,42.6,35.3z M35.9,35.2H34v1.7 h1.9c0.6,0,0.9-0.3,0.9-0.8C36.8,35.7,36.5,35.3,35.9,35.2z M35.9,35.2H34v1.7h1.9c0.6,0,0.9-0.3,0.9-0.8 C36.8,35.7,36.5,35.3,35.9,35.2z M42.6,35.3h-1.9v1.6h1.9c0.6,0,0.9-0.4,0.9-0.8C43.5,35.6,43.2,35.3,42.6,35.3z M42.6,35.3h-1.9 v1.6h1.9c0.6,0,0.9-0.4,0.9-0.8C43.5,35.6,43.2,35.3,42.6,35.3z M35.9,35.2H34v1.7h1.9c0.6,0,0.9-0.3,0.9-0.8 C36.8,35.7,36.5,35.3,35.9,35.2z M35.9,35.2H34v1.7h1.9c0.6,0,0.9-0.3,0.9-0.8C36.8,35.7,36.5,35.3,35.9,35.2z M35.9,35.2H34v1.7 h1.9c0.6,0,0.9-0.3,0.9-0.8C36.8,35.7,36.5,35.3,35.9,35.2z"></path> <path class="st1" d="M49.3,23.4L48.8,22l-0.5,1.4l-0.6,1.5h2.2L49.3,23.4z M49.3,23.4L48.8,22l-0.5,1.4l-0.6,1.5h2.2L49.3,23.4z M49.3,23.4L48.8,22l-0.5,1.4l-0.6,1.5h2.2L49.3,23.4z M49.3,23.4L48.8,22l-0.5,1.4l-0.6,1.5h2.2L49.3,23.4z M35.1,22.3h-1.9v1.6 h1.9c0.6,0,0.9-0.4,0.9-0.8C36,22.6,35.7,22.3,35.1,22.3z M49.3,23.4L48.8,22l-0.5,1.4l-0.6,1.5h2.2L49.3,23.4z M49.3,23.4L48.8,22 l-0.5,1.4l-0.6,1.5h2.2L49.3,23.4z M35.1,22.3h-1.9v1.6h1.9c0.6,0,0.9-0.4,0.9-0.8C36,22.6,35.7,22.3,35.1,22.3z M12.2,23.4L11.7,22 l-0.5,1.4l-0.6,1.5h2.2L12.2,23.4z M35.1,22.3h-1.9v1.6h1.9c0.6,0,0.9-0.4,0.9-0.8C36,22.6,35.7,22.3,35.1,22.3z M49.3,23.4L48.8,22 l-0.5,1.4l-0.6,1.5h2.2L49.3,23.4z M49.3,23.4L48.8,22l-0.5,1.4l-0.6,1.5h2.2L49.3,23.4z M35.1,22.3h-1.9v1.6h1.9 c0.6,0,0.9-0.4,0.9-0.8C36,22.6,35.7,22.3,35.1,22.3z M12.2,23.4L11.7,22l-0.5,1.4l-0.6,1.5h2.2L12.2,23.4z M56.4,19.4v1.4l-0.9-1.4 h-4v1.8l-0.8-1.8h-6.4c-0.3,0-0.6,0-0.8,0.1c-0.3,0-0.5,0.1-0.8,0.2c-0.2,0.1-0.4,0.1-0.6,0.2c-0.2,0.1-0.4,0.2-0.6,0.3v-0.7h-21 L20,21l-0.6-1.6h-5v1.8l-0.8-1.8h-4l-1.8,4.2v5.6h2.8l0.5-1.4h1l0.5,1.4h21.9V28l0.9,1.2h6v-0.6c0.2,0.1,0.3,0.2,0.5,0.3 c0.2,0.1,0.4,0.1,0.5,0.2c0.2,0.1,0.5,0.1,0.7,0.2c0.3,0,0.6,0.1,0.8,0.1h3.6L48,28h1l0.5,1.4H56V28l0.8,1.2H61v-9.8H56.4z M13.8,27.6l-0.5-1.4h-3.2l-0.4,1l-0.2,0.4H7.9l2.1-4.9l0.7-1.7h2l2.8,6.6H13.8z M24,27.6h-1.5v-5.3l-1.9,5.3h-1.3l-1.9-5.3v5.3 h-1.5V21h2.5l1.6,4.4l1.5-4.4H24V27.6z M30.6,22.4h-3.7v1.3h3.6V25h-3.6v1.3h3.7v1.3h-5.2V21h5.2V22.4z M36,27.6l-2-2.4h-0.7 l-0.1,2.4h-1.5V21h3.5c1.4,0,2.3,0.9,2.3,2.1c0,1-0.7,1.8-1.8,2l2.2,2.5H36z M40,27.6h-1.5V21H40V27.6z M44,27.6c-1.8,0-3-1.3-3-3.3 v-0.1c0-1.8,1.1-3.2,3.1-3.2h1.8v1.4h-1.7c-1.1,0-1.7,0.8-1.7,1.9v0.1c0,1.2,0.7,1.9,1.8,1.9h0.4L44,27.6z M51,27.6l-0.6-1.4h-3.2 l-0.6,1.4H45l2.8-6.6h2l2.9,6.6H51z M59.4,27.5h-1.9l-2.6-4l-0.3-0.4v4.5h-1.5V21H55l2.5,3.7l0.4,0.6V21h1.5V27.5z M48.8,22 l-0.5,1.4l-0.6,1.5h2.2l-0.6-1.5L48.8,22z M36,23.1c0-0.5-0.3-0.8-0.9-0.8h-1.9v1.6h1.9C35.7,23.9,36,23.5,36,23.1z M11.7,22 l-0.5,1.4l-0.6,1.5h2.2l-0.6-1.5L11.7,22z M35.1,22.3h-1.9v1.6h1.9c0.6,0,0.9-0.4,0.9-0.8C36,22.6,35.7,22.3,35.1,22.3z M49.3,23.4 L48.8,22l-0.5,1.4l-0.6,1.5h2.2L49.3,23.4z M49.3,23.4L48.8,22l-0.5,1.4l-0.6,1.5h2.2L49.3,23.4z M35.1,22.3h-1.9v1.6h1.9 c0.6,0,0.9-0.4,0.9-0.8C36,22.6,35.7,22.3,35.1,22.3z M35.1,22.3h-1.9v1.6h1.9c0.6,0,0.9-0.4,0.9-0.8C36,22.6,35.7,22.3,35.1,22.3z M49.3,23.4L48.8,22l-0.5,1.4l-0.6,1.5h2.2L49.3,23.4z M49.3,23.4L48.8,22l-0.5,1.4l-0.6,1.5h2.2L49.3,23.4z M35.1,22.3h-1.9v1.6 h1.9c0.6,0,0.9-0.4,0.9-0.8C36,22.6,35.7,22.3,35.1,22.3z M49.3,23.4L48.8,22l-0.5,1.4l-0.6,1.5h2.2L49.3,23.4z M49.3,23.4L48.8,22 l-0.5,1.4l-0.6,1.5h2.2L49.3,23.4z M35.9,35.2H34v1.7h1.9c0.6,0,0.9-0.3,0.9-0.8C36.8,35.7,36.5,35.3,35.9,35.2z M42.6,35.3h-1.9 v1.6h1.9c0.6,0,0.9-0.4,0.9-0.8C43.5,35.6,43.2,35.3,42.6,35.3z M42.6,35.3h-1.9v1.6h1.9c0.6,0,0.9-0.4,0.9-0.8 C43.5,35.6,43.2,35.3,42.6,35.3z M35.9,35.2H34v1.7h1.9c0.6,0,0.9-0.3,0.9-0.8C36.8,35.7,36.5,35.3,35.9,35.2z M35.9,35.2H34v1.7 h1.9c0.6,0,0.9-0.3,0.9-0.8C36.8,35.7,36.5,35.3,35.9,35.2z M42.6,35.3h-1.9v1.6h1.9c0.6,0,0.9-0.4,0.9-0.8 C43.5,35.6,43.2,35.3,42.6,35.3z M42.6,35.3h-1.9v1.6h1.9c0.6,0,0.9-0.4,0.9-0.8C43.5,35.6,43.2,35.3,42.6,35.3z M35.9,35.2H34v1.7 h1.9c0.6,0,0.9-0.3,0.9-0.8C36.8,35.7,36.5,35.3,35.9,35.2z M35.9,35.2H34v1.7h1.9c0.6,0,0.9-0.3,0.9-0.8 C36.8,35.7,36.5,35.3,35.9,35.2z M42.6,35.3h-1.9v1.6h1.9c0.6,0,0.9-0.4,0.9-0.8C43.5,35.6,43.2,35.3,42.6,35.3z M42.6,35.3h-1.9 v1.6h1.9c0.6,0,0.9-0.4,0.9-0.8C43.5,35.6,43.2,35.3,42.6,35.3z M35.9,35.2H34v1.7h1.9c0.6,0,0.9-0.3,0.9-0.8 C36.8,35.7,36.5,35.3,35.9,35.2z M35.9,35.2H34v1.7h1.9c0.6,0,0.9-0.3,0.9-0.8C36.8,35.7,36.5,35.3,35.9,35.2z M42.6,35.3h-1.9v1.6 h1.9c0.6,0,0.9-0.4,0.9-0.8C43.5,35.6,43.2,35.3,42.6,35.3z M42.6,35.3h-1.9v1.6h1.9c0.6,0,0.9-0.4,0.9-0.8 C43.5,35.6,43.2,35.3,42.6,35.3z M35.9,35.2H34v1.7h1.9c0.6,0,0.9-0.3,0.9-0.8C36.8,35.7,36.5,35.3,35.9,35.2z M35.9,35.2H34v1.7 h1.9c0.6,0,0.9-0.3,0.9-0.8C36.8,35.7,36.5,35.3,35.9,35.2z M42.6,35.3h-1.9v1.6h1.9c0.6,0,0.9-0.4,0.9-0.8 C43.5,35.6,43.2,35.3,42.6,35.3z M42.6,35.3h-1.9v1.6h1.9c0.6,0,0.9-0.4,0.9-0.8C43.5,35.6,43.2,35.3,42.6,35.3z M35.9,35.2H34v1.7 h1.9c0.6,0,0.9-0.3,0.9-0.8C36.8,35.7,36.5,35.3,35.9,35.2z M35.9,35.2H34v1.7h1.9c0.6,0,0.9-0.3,0.9-0.8 C36.8,35.7,36.5,35.3,35.9,35.2z M42.6,35.3h-1.9v1.6h1.9c0.6,0,0.9-0.4,0.9-0.8C43.5,35.6,43.2,35.3,42.6,35.3z M42.6,35.3h-1.9 v1.6h1.9c0.6,0,0.9-0.4,0.9-0.8C43.5,35.6,43.2,35.3,42.6,35.3z M35.9,35.2H34v1.7h1.9c0.6,0,0.9-0.3,0.9-0.8 C36.8,35.7,36.5,35.3,35.9,35.2z M35.9,35.2H34v1.7h1.9c0.6,0,0.9-0.3,0.9-0.8C36.8,35.7,36.5,35.3,35.9,35.2z M42.6,35.3h-1.9v1.6 h1.9c0.6,0,0.9-0.4,0.9-0.8C43.5,35.6,43.2,35.3,42.6,35.3z M42.6,35.3h-1.9v1.6h1.9c0.6,0,0.9-0.4,0.9-0.8 C43.5,35.6,43.2,35.3,42.6,35.3z M35.9,35.2H34v1.7h1.9c0.6,0,0.9-0.3,0.9-0.8C36.8,35.7,36.5,35.3,35.9,35.2z M35.9,35.2H34v1.7 h1.9c0.6,0,0.9-0.3,0.9-0.8C36.8,35.7,36.5,35.3,35.9,35.2z M42.6,35.3h-1.9v1.6h1.9c0.6,0,0.9-0.4,0.9-0.8 C43.5,35.6,43.2,35.3,42.6,35.3z M42.6,35.3h-1.9v1.6h1.9c0.6,0,0.9-0.4,0.9-0.8C43.5,35.6,43.2,35.3,42.6,35.3z M35.9,35.2H34v1.7 h1.9c0.6,0,0.9-0.3,0.9-0.8C36.8,35.7,36.5,35.3,35.9,35.2z M60.4,34h3.3v-1.7H29.4l-0.9,1.3l-0.9-1.3h-9.9v9.8h9.9l0.9-1.3l0.9,1.3 h6.2V40h-0.2c0.8,0,1.6-0.2,2.2-0.4v2.6h4.5V41l0.9,1.2h18.5c0.8-0.1,1.5-0.3,2.1-0.6c0,0,0.1,0,0.1,0v-2.5 c-0.3,0.8-1.1,1.4-2.2,1.4h-3.3v-1.3h3.4c0.4,0,0.7-0.3,0.7-0.6c0-0.4-0.3-0.7-0.7-0.7h-1.5c-1.2,0-2-0.7-2-1.9 C58.1,34.9,59,34,60.4,34z M24.6,35.4h-3.7v1.3h3.6V38h-3.6v1.3h3.7v1.3h-5.2V34h5.2V35.4z M32.1,40.5h-1.9l-1.7-2.2l-1.7,2.2H25 l2.6-3.3L25,33.9h1.9l1.7,2.1l1.7-2.1h1.8l-2.6,3.3L32.1,40.5z M36,38.3h-2v2.2h-1.5v-6.6H36c1.4,0,2.3,0.9,2.3,2.2 C38.3,37.4,37.4,38.3,36,38.3z M43.6,40.5l-2-2.4h-0.8v2.4h-1.5v-6.6h3.5c1.4,0,2.3,0.9,2.3,2.1c0,1-0.7,1.8-1.8,2l2.2,2.5H43.6z M51.2,35.4h-3.7v1.3h3.6V38h-3.6v1.3h3.7v1.3H46V34h5.2V35.4z M55.4,40.5h-3.3v-1.3h3.4c0.4,0,0.7-0.3,0.7-0.6 c0-0.4-0.3-0.7-0.7-0.7H54c-1.2,0-2-0.7-2-1.9c0-1.1,0.9-2,2.3-2h3.3L57,35.3h-2.8c-0.4,0-0.7,0.2-0.7,0.6c0,0.3,0.3,0.6,0.7,0.6 h1.5c1.2,0,2,0.7,2,1.9C57.7,39.6,56.8,40.5,55.4,40.5z M42.6,35.3h-1.9v1.6h1.9c0.6,0,0.9-0.4,0.9-0.8 C43.5,35.6,43.2,35.3,42.6,35.3z M35.9,35.2H34v1.7h1.9c0.6,0,0.9-0.3,0.9-0.8C36.8,35.7,36.5,35.3,35.9,35.2z M35.9,35.2H34v1.7 h1.9c0.6,0,0.9-0.3,0.9-0.8C36.8,35.7,36.5,35.3,35.9,35.2z M42.6,35.3h-1.9v1.6h1.9c0.6,0,0.9-0.4,0.9-0.8 C43.5,35.6,43.2,35.3,42.6,35.3z M42.6,35.3h-1.9v1.6h1.9c0.6,0,0.9-0.4,0.9-0.8C43.5,35.6,43.2,35.3,42.6,35.3z M35.9,35.2H34v1.7 h1.9c0.6,0,0.9-0.3,0.9-0.8C36.8,35.7,36.5,35.3,35.9,35.2z M35.9,35.2H34v1.7h1.9c0.6,0,0.9-0.3,0.9-0.8 C36.8,35.7,36.5,35.3,35.9,35.2z M42.6,35.3h-1.9v1.6h1.9c0.6,0,0.9-0.4,0.9-0.8C43.5,35.6,43.2,35.3,42.6,35.3z M42.6,35.3h-1.9 v1.6h1.9c0.6,0,0.9-0.4,0.9-0.8C43.5,35.6,43.2,35.3,42.6,35.3z M35.9,35.2H34v1.7h1.9c0.6,0,0.9-0.3,0.9-0.8 C36.8,35.7,36.5,35.3,35.9,35.2z M35.9,35.2H34v1.7h1.9c0.6,0,0.9-0.3,0.9-0.8C36.8,35.7,36.5,35.3,35.9,35.2z M42.6,35.3h-1.9v1.6 h1.9c0.6,0,0.9-0.4,0.9-0.8C43.5,35.6,43.2,35.3,42.6,35.3z M42.6,35.3h-1.9v1.6h1.9c0.6,0,0.9-0.4,0.9-0.8 C43.5,35.6,43.2,35.3,42.6,35.3z M35.9,35.2H34v1.7h1.9c0.6,0,0.9-0.3,0.9-0.8C36.8,35.7,36.5,35.3,35.9,35.2z M35.9,35.2H34v1.7 h1.9c0.6,0,0.9-0.3,0.9-0.8C36.8,35.7,36.5,35.3,35.9,35.2z M42.6,35.3h-1.9v1.6h1.9c0.6,0,0.9-0.4,0.9-0.8 C43.5,35.6,43.2,35.3,42.6,35.3z M42.6,35.3h-1.9v1.6h1.9c0.6,0,0.9-0.4,0.9-0.8C43.5,35.6,43.2,35.3,42.6,35.3z M35.9,35.2H34v1.7 h1.9c0.6,0,0.9-0.3,0.9-0.8C36.8,35.7,36.5,35.3,35.9,35.2z M63.1,35.3h-2.8c-0.4,0-0.7,0.2-0.7,0.6c0,0.3,0.3,0.6,0.7,0.6h1.5 c1,0,1.7,0.5,1.9,1.2V34L63.1,35.3z M35.9,35.2H34v1.7h1.9c0.6,0,0.9-0.3,0.9-0.8C36.8,35.7,36.5,35.3,35.9,35.2z M42.6,35.3h-1.9 v1.6h1.9c0.6,0,0.9-0.4,0.9-0.8C43.5,35.6,43.2,35.3,42.6,35.3z M42.6,35.3h-1.9v1.6h1.9c0.6,0,0.9-0.4,0.9-0.8 C43.5,35.6,43.2,35.3,42.6,35.3z M35.9,35.2H34v1.7h1.9c0.6,0,0.9-0.3,0.9-0.8C36.8,35.7,36.5,35.3,35.9,35.2z M35.9,35.2H34v1.7 h1.9c0.6,0,0.9-0.3,0.9-0.8C36.8,35.7,36.5,35.3,35.9,35.2z M42.6,35.3h-1.9v1.6h1.9c0.6,0,0.9-0.4,0.9-0.8 C43.5,35.6,43.2,35.3,42.6,35.3z M42.6,35.3h-1.9v1.6h1.9c0.6,0,0.9-0.4,0.9-0.8C43.5,35.6,43.2,35.3,42.6,35.3z M35.9,35.2H34v1.7 h1.9c0.6,0,0.9-0.3,0.9-0.8C36.8,35.7,36.5,35.3,35.9,35.2z M35.9,35.2H34v1.7h1.9c0.6,0,0.9-0.3,0.9-0.8 C36.8,35.7,36.5,35.3,35.9,35.2z M42.6,35.3h-1.9v1.6h1.9c0.6,0,0.9-0.4,0.9-0.8C43.5,35.6,43.2,35.3,42.6,35.3z M42.6,35.3h-1.9 v1.6h1.9c0.6,0,0.9-0.4,0.9-0.8C43.5,35.6,43.2,35.3,42.6,35.3z M35.9,35.2H34v1.7h1.9c0.6,0,0.9-0.3,0.9-0.8 C36.8,35.7,36.5,35.3,35.9,35.2z M35.9,35.2H34v1.7h1.9c0.6,0,0.9-0.3,0.9-0.8C36.8,35.7,36.5,35.3,35.9,35.2z M35.9,35.2H34v1.7 h1.9c0.6,0,0.9-0.3,0.9-0.8C36.8,35.7,36.5,35.3,35.9,35.2z"></path> <path class="st0" d="M63.7,37.8v1.3c0.1-0.2,0.1-0.4,0.1-0.7C63.8,38.2,63.8,38,63.7,37.8z"></path> <g> <path class="st0" d="M84,19.3c2.1,0,3.3-1.3,3.6-2.1l0,0v1.9H90v-6.9h-5.2v2.2h2.4c-0.3,1.5-1.3,2.5-2.8,2.5s-3.3-1-3.3-4.8 s2.1-4.5,3.2-4.5c1.3,0,2.2,0.7,2.8,2.6l2.8-0.8C89,6.1,87,5,84.4,5c-3.8,0-6.2,2.8-6.2,7C78,16.3,79.9,19.3,84,19.3L84,19.3z"></path> <polygon class="st0" points="101.6,19.1 101.6,16.6 95.6,16.6 95.6,5.4 92.5,5.4 92.5,19.1 "></polygon> <path class="st0" d="M108.1,19.3c3.3,0,6.4-2.3,6.4-7.1s-3.1-7.1-6.4-7.1s-6.5,2.3-6.5,7.1S104.8,19.3,108.1,19.3L108.1,19.3z M108.1,16.9c-2.1,0-3.4-1.8-3.4-4.7s1.3-4.6,3.4-4.6s3.4,1.7,3.4,4.6S110.2,16.9,108.1,16.9L108.1,16.9z"></path> <path class="st0" d="M122.2,19.1c2.6,0,5-1,5-3.8c0-2.2-1.3-3-3-3.3l0,0c1.4-0.3,2.6-1.2,2.6-3.1c0-2.8-2.4-3.4-4.9-3.4h-5.5v13.7 L122.2,19.1L122.2,19.1z M119.5,7.7h2.3c1.6,0,2.3,0.6,2.3,1.7s-0.7,1.6-2.3,1.6h-2.2V7.7H119.5z M119.5,13.1h2.3 c1.7,0,2.5,0.6,2.5,1.8s-0.7,1.8-2.4,1.8h-2.4V13.1L119.5,13.1z"></path> <path class="st0" d="M134,9.2L134,9.2l1.6,4.7h-3.2L134,9.2L134,9.2z M130.6,19.1l1.1-3h4.7l1,3h3l-4.8-13.7h-2.9l-4.8,13.7H130.6 L130.6,19.1z"></path> <polygon class="st0" points="150.9,19.1 150.9,16.6 144.9,16.6 144.9,5.4 141.9,5.4 141.9,19.1 "></polygon> <path class="st0" d="M85.1,36.8c2.6,0,5-1,5-3.8c0-2.2-1.3-3-3-3.3l0,0c1.4-0.3,2.6-1.2,2.6-3.1c0-2.8-2.4-3.4-4.9-3.4h-5.5v13.7 h5.8V36.8z M82.3,25.5h2.3c1.6,0,2.3,0.6,2.3,1.7s-0.7,1.6-2.3,1.6h-2.2v-3.3C82.4,25.5,82.3,25.5,82.3,25.5z M82.3,30.9h2.3 c1.7,0,2.5,0.6,2.5,1.8s-0.7,1.8-2.4,1.8h-2.4V30.9L82.3,30.9z"></path> <path class="st0" d="M97.5,37.1c3.8,0,5.5-2.1,5.5-5.5v-8.4h-3v8.4c0,2-0.7,3.1-2.5,3.1s-2.6-1.1-2.6-3.1v-8.4h-3v8.4 C91.9,35,93.7,37.1,97.5,37.1L97.5,37.1z"></path> <path class="st0" d="M110.2,37.1c3.8,0,5.5-2,5.5-4.2c0-2.8-2.6-3.6-5-4.2c-1.8-0.5-2.8-0.9-2.8-2c0-0.8,0.7-1.4,2-1.4 s2.6,0.8,3.4,1.9l2.1-1.6c-1-1.5-2.6-2.8-5.4-2.8c-2.9,0-4.9,1.5-4.9,4.1c0,2.9,2.6,3.5,5,4.2c1.8,0.5,2.8,0.9,2.8,2 c0,1.1-1,1.6-2.4,1.6c-1.6,0-2.9-0.8-3.7-2.3l-2.3,1.3C105.4,35.7,107.3,37.1,110.2,37.1L110.2,37.1z"></path> <polygon class="st0" points="120.8,36.8 120.8,30 120.8,23.2 119.3,23.2 117.8,23.2 117.8,30 117.8,36.8 119.1,36.8 "></polygon> <polygon class="st0" points="126.4,36.8 126.4,28 126.4,28 132.4,36.8 135.1,36.8 135.1,23.2 132.4,23.2 132.4,31.9 132.3,31.9 126.6,23.2 123.6,23.2 123.6,36.8 "></polygon> <polygon class="st0" points="147.6,36.8 147.6,34.4 140.9,34.4 140.9,31 145.5,31 145.5,28.6 140.9,28.6 140.9,25.7 147.2,25.7 147.2,23.2 137.9,23.2 137.9,36.8 "></polygon> <path class="st0" d="M154.3,37.1c3.8,0,5.5-2,5.5-4.2c0-2.8-2.6-3.6-5-4.2c-1.8-0.5-2.8-0.9-2.8-2c0-0.8,0.7-1.4,2-1.4 s2.6,0.8,3.4,1.9l2.1-1.6c-1-1.5-2.6-2.8-5.4-2.8c-2.9,0-4.9,1.5-4.9,4.1c0,2.9,2.6,3.5,5,4.2c1.8,0.5,2.8,0.9,2.8,2 c0,1.1-1,1.6-2.4,1.6c-1.6,0-2.9-0.8-3.7-2.3l-2.3,1.3C149.5,35.7,151.3,37.1,154.3,37.1L154.3,37.1z"></path> <path class="st0" d="M166.7,37.1c3.8,0,5.5-2,5.5-4.2c0-2.8-2.6-3.6-5-4.2c-1.8-0.5-2.8-0.9-2.8-2c0-0.8,0.7-1.4,2-1.4 s2.6,0.8,3.4,1.9l2.1-1.6c-1-1.5-2.6-2.8-5.4-2.8c-2.9,0-4.9,1.5-4.9,4.1c0,2.9,2.6,3.5,5,4.2c1.8,0.5,2.8,0.9,2.8,2 c0,1.1-1,1.6-2.4,1.6c-1.6,0-2.9-0.8-3.7-2.3l-2.3,1.3C161.9,35.7,163.7,37.1,166.7,37.1L166.7,37.1z"></path> <polygon class="st0" points="86.1,54.6 86.1,43.5 90.2,43.5 90.2,40.9 79.1,40.9 79.1,43.5 83.1,43.5 83.1,54.6 "></polygon> <path class="st0" d="M94.8,43.4h2.1c1.7,0,2.6,0.5,2.6,1.8c0,1.4-0.8,1.9-2.6,1.9h-2.1V43.4L94.8,43.4z M94.8,54.6v-5.2h1.7 l2.8,5.2h3.2l-3-5.5c1.8-0.6,2.8-1.7,2.8-3.9c0-3-2-4.2-5.4-4.2h-5.1v13.7L94.8,54.6L94.8,54.6z"></path> <path class="st0" d="M109.5,44.7L109.5,44.7l1.6,4.7h-3.2L109.5,44.7L109.5,44.7z M106.1,54.6l1.1-3h4.7l1,3h3L111,40.9h-2.9 l-4.8,13.7L106.1,54.6L106.1,54.6z"></path> <polygon class="st0" points="122.4,54.7 127.1,40.9 124.3,40.9 121,50.7 121,50.7 117.9,40.9 114.8,40.9 119.5,54.7 "></polygon> <polygon class="st0" points="138.3,54.6 138.3,52.2 131.6,52.2 131.6,48.8 136.2,48.8 136.2,46.4 131.6,46.4 131.6,43.5 137.9,43.5 137.9,40.9 128.6,40.9 128.6,54.6 "></polygon> <polygon class="st0" points="149.7,54.6 149.7,52.2 143.7,52.2 143.7,40.9 140.6,40.9 140.6,54.6 "></polygon> </g> </svg> 