<?xml version="1.0" encoding="UTF-8"?> <svg xmlns="http://www.w3.org/2000/svg" width="64" height="64" viewBox="0 0 64 64" fill="none"><g clip-path="url(#clip0_526_10043)"><path d="M46.29 33.31C46.42 33.18 49.43 30.11 50.95 25.14C51.85 22.21 52.05 19.22 51.53 16.26C50.89 12.59 49.15 8.97 46.35 5.5" stroke="black" stroke-linecap="round" stroke-linejoin="round"></path><path d="M37.87 25.6298C40.75 22.3398 40.59 19.0898 39.94 16.9398C39.26 14.6598 37.91 13.1498 37.85 13.0898" stroke="black" stroke-linecap="round" stroke-linejoin="round"></path><path d="M42.2 29.0496C42.29 28.9596 44.3399 26.7496 45.3699 23.2796C46.3299 20.0496 46.57 15.0896 42.24 9.80957" stroke="black" stroke-linecap="round" stroke-linejoin="round"></path><path d="M17.0299 33.31C16.8999 33.18 13.8899 30.11 12.3699 25.14C11.4699 22.21 11.2699 19.22 11.7899 16.26C12.4199 12.58 14.1599 8.97 16.9599 5.5" stroke="black" stroke-linecap="round" stroke-linejoin="round"></path><path d="M25.4499 25.6298C22.5699 22.3398 22.7299 19.0898 23.3799 16.9398C24.0599 14.6598 25.4099 13.1498 25.4699 13.0898" stroke="black" stroke-linecap="round" stroke-linejoin="round"></path><path d="M21.1199 29.0496C21.0299 28.9596 18.9799 26.7496 17.9499 23.2796C16.9899 20.0496 16.7499 15.0896 21.0799 9.80957" stroke="black" stroke-linecap="round" stroke-linejoin="round"></path><path d="M17.09 58.1402L22.05 45.6602L44.26 53.3702L46.16 58.1402" stroke="black" stroke-miterlimit="10"></path><path d="M36.88 34.7895L28.99 31.1895L34.38 28.5195L36.88 34.7895Z" stroke="black" stroke-miterlimit="10"></path><path d="M31.51 22.0002C31.61 22.0002 31.7 22.0002 31.79 21.9902L33.67 26.7202L28.58 29.2502L31.46 22.0102C31.46 22.0102 31.5 22.0102 31.52 22.0102L31.51 22.0002Z" stroke="black" stroke-miterlimit="10"></path><path d="M31.51 22.0002C31.61 22.0002 31.7 22.0002 31.79 21.9902L33.67 26.7202L28.58 29.2502L31.46 22.0102C31.46 22.0102 31.5 22.0102 31.52 22.0102L31.51 22.0002Z" stroke="url(#paint0_linear_526_10043)" stroke-miterlimit="10"></path><path d="M27.26 32.5303L36.32 36.6703L23.27 42.5703L27.26 32.5303Z" stroke="black" stroke-miterlimit="10"></path><path d="M24.1 44.3197L38.14 37.9697L43.31 50.9897L24.1 44.3197Z" stroke="black" stroke-miterlimit="10"></path><path d="M31.49 21.7798C32.578 21.7798 33.46 20.8978 33.46 19.8098C33.46 18.7218 32.578 17.8398 31.49 17.8398C30.402 17.8398 29.52 18.7218 29.52 19.8098C29.52 20.8978 30.402 21.7798 31.49 21.7798Z" stroke="black" stroke-miterlimit="10"></path><path d="M31.49 21.7798C32.578 21.7798 33.46 20.8978 33.46 19.8098C33.46 18.7218 32.578 17.8398 31.49 17.8398C30.402 17.8398 29.52 18.7218 29.52 19.8098C29.52 20.8978 30.402 21.7798 31.49 21.7798Z" stroke="url(#paint1_linear_526_10043)" stroke-miterlimit="10"></path></g><defs><linearGradient id="paint0_linear_526_10043" x1="30.2836" y1="24.4739" x2="37.0675" y2="28.6106" gradientUnits="userSpaceOnUse"><stop offset="0.236106" stop-color="#DA291C"></stop><stop offset="1" stop-color="#FFCD00"></stop></linearGradient><linearGradient id="paint1_linear_526_10043" x1="30.8387" y1="19.1877" x2="34.9401" y2="22.7548" gradientUnits="userSpaceOnUse"><stop offset="0.236106" stop-color="#DA291C"></stop><stop offset="1" stop-color="#FFCD00"></stop></linearGradient><clipPath id="clip0_526_10043"><rect width="41.32" height="53.32" fill="white" transform="translate(11 5)"></rect></clipPath></defs></svg> 