<?xml version="1.0" encoding="UTF-8"?> <svg xmlns="http://www.w3.org/2000/svg" width="64" height="64" viewBox="0 0 64 64" fill="none"><g clip-path="url(#clip0_526_9971)"><path d="M43.4236 38.7162C50.1266 32.0132 52.534 22.6523 50.6636 14.0251C50.4936 13.2555 49.9029 12.6649 49.1422 12.5038C40.5151 10.6334 31.1542 13.0497 24.4512 19.7437C21.838 22.3569 19.887 25.3728 18.5805 28.5946C18.2851 29.3284 18.4373 30.1607 18.9921 30.7245L32.4429 44.1753C32.9977 44.7301 33.839 44.8912 34.5728 44.5869C37.7945 43.2803 40.8105 41.3294 43.4236 38.7162V38.7162Z" stroke="black" stroke-linecap="round" stroke-linejoin="round"></path><path d="M42.1439 48.3992C45.2403 45.3028 46.2158 40.846 45.0614 36.8994C44.5423 37.5259 44.0053 38.1344 43.4147 38.7251C40.4704 41.6694 37.007 43.7725 33.3289 45.0612L39.4054 51.1377L42.1439 48.3992V48.3992Z" stroke="black" stroke-linecap="round" stroke-linejoin="round"></path><path d="M24.4511 19.7441C25.0328 19.1624 25.6503 18.6165 26.2767 18.0974C22.3301 16.943 17.8734 17.9184 14.7769 21.0149L12.0385 23.7534L18.115 29.8299C19.4037 26.1428 21.5068 22.6884 24.4511 19.7441V19.7441Z" stroke="black" stroke-linecap="round" stroke-linejoin="round"></path><path d="M18.8758 30.5996C18.1867 32.5774 17.7661 34.6357 17.605 36.703L26.4648 45.5628C28.532 45.4017 30.5904 44.9811 32.5682 44.292L18.8758 30.5996V30.5996Z" stroke="black" stroke-linecap="round" stroke-linejoin="round"></path><path d="M17.5748 36.6843L15.0516 39.2109L15.115 39.2742L17.6381 36.7475L17.5748 36.6843Z" stroke="black" stroke-linecap="round" stroke-linejoin="round"></path><path d="M26.4273 45.5267L23.9006 48.0498L23.9639 48.1131L26.4905 45.59L26.4273 45.5267Z" stroke="black" stroke-linecap="round" stroke-linejoin="round"></path><path d="M19.4805 43.6357L15.6963 47.4199L15.7596 47.4832L19.5438 43.699L19.4805 43.6357Z" stroke="black" stroke-linecap="round" stroke-linejoin="round"></path><path d="M21.378 50.578L20.7443 51.21L20.8075 51.2733L21.4411 50.6414L21.378 50.578Z" stroke="black" stroke-linecap="round" stroke-linejoin="round"></path><path d="M12.5323 41.7227L11.8995 42.3555L11.9628 42.4188L12.5956 41.7859L12.5323 41.7227Z" stroke="black" stroke-linecap="round" stroke-linejoin="round"></path><path d="M13.1743 49.9361L11.9159 51.1963L11.9792 51.2595L13.2376 49.9994L13.1743 49.9361Z" stroke="black" stroke-linecap="round" stroke-linejoin="round"></path><path d="M32.6576 34.2957L28.8721 30.5102L35.1813 24.2009L33.2841 22.3126L41.4548 21.6504L40.8552 29.8837L38.9669 27.9865L32.6576 34.2957Z" stroke="black" stroke-linecap="round" stroke-linejoin="round"></path><path d="M32.6576 34.2957L28.8721 30.5102L35.1813 24.2009L33.2841 22.3126L41.4548 21.6504L40.8552 29.8837L38.9669 27.9865L32.6576 34.2957Z" stroke="url(#paint0_linear_526_9971)" stroke-linecap="round" stroke-linejoin="round"></path></g><defs><linearGradient id="paint0_linear_526_9971" x1="33.0835" y1="25.9764" x2="46.2374" y2="37.3603" gradientUnits="userSpaceOnUse"><stop offset="0.236106" stop-color="#DA291C"></stop><stop offset="1" stop-color="#FFCD00"></stop></linearGradient><clipPath id="clip0_526_9971"><rect width="41.1667" height="41.1667" fill="white" transform="translate(11.0004 11)"></rect></clipPath></defs></svg> 