<?xml version="1.0" encoding="UTF-8"?> <svg xmlns="http://www.w3.org/2000/svg" width="64" height="64" viewBox="0 0 64 64" fill="none"><g clip-path="url(#clip0_526_10218)"><path d="M43.4235 38.7162C50.1266 32.0132 52.5339 22.6523 50.6635 14.0251C50.4935 13.2555 49.9028 12.6649 49.1421 12.5038C40.515 10.6334 31.1541 13.0497 24.4511 19.7437C21.8379 22.3569 19.887 25.3728 18.5804 28.5946C18.285 29.3284 18.4372 30.1607 18.992 30.7245L32.4428 44.1753C32.9976 44.7301 33.8389 44.8912 34.5727 44.5869C37.7945 43.2803 40.8104 41.3294 43.4235 38.7162V38.7162Z" stroke="white" stroke-linecap="round" stroke-linejoin="round"></path><path d="M42.1438 48.3992C45.2403 45.3028 46.2157 40.846 45.0613 36.8994C44.5422 37.5259 44.0053 38.1344 43.4146 38.7251C40.4703 41.6694 37.0069 43.7725 33.3288 45.0612L39.4053 51.1377L42.1438 48.3992V48.3992Z" stroke="white" stroke-linecap="round" stroke-linejoin="round"></path><path d="M24.4511 19.7441C25.0328 19.1624 25.6503 18.6165 26.2767 18.0974C22.3301 16.943 17.8734 17.9184 14.7769 21.0149L12.0385 23.7534L18.115 29.8299C19.4037 26.1428 21.5068 22.6884 24.4511 19.7441V19.7441Z" stroke="white" stroke-linecap="round" stroke-linejoin="round"></path><path d="M18.8757 30.5996C18.1866 32.5774 17.766 34.6357 17.6049 36.703L26.4647 45.5628C28.532 45.4017 30.5903 44.9811 32.5681 44.292L18.8757 30.5996V30.5996Z" stroke="white" stroke-linecap="round" stroke-linejoin="round"></path><path d="M17.5748 36.6843L15.0516 39.2109L15.1149 39.2742L17.6381 36.7475L17.5748 36.6843Z" stroke="white" stroke-linecap="round" stroke-linejoin="round"></path><path d="M26.4272 45.5267L23.9005 48.0498L23.9638 48.1131L26.4905 45.59L26.4272 45.5267Z" stroke="white" stroke-linecap="round" stroke-linejoin="round"></path><path d="M19.4805 43.6357L15.6963 47.4199L15.7596 47.4832L19.5438 43.699L19.4805 43.6357Z" stroke="white" stroke-linecap="round" stroke-linejoin="round"></path><path d="M21.3779 50.578L20.7442 51.21L20.8074 51.2733L21.4411 50.6414L21.3779 50.578Z" stroke="white" stroke-linecap="round" stroke-linejoin="round"></path><path d="M12.5323 41.7227L11.8995 42.3555L11.9628 42.4188L12.5956 41.7859L12.5323 41.7227Z" stroke="white" stroke-linecap="round" stroke-linejoin="round"></path><path d="M13.1742 49.9361L11.9158 51.1963L11.9791 51.2595L13.2375 49.9994L13.1742 49.9361Z" stroke="white" stroke-linecap="round" stroke-linejoin="round"></path><path d="M32.6576 34.2957L28.872 30.5102L35.1813 24.2009L33.284 22.3126L41.4547 21.6504L40.8551 29.8837L38.9668 27.9865L32.6576 34.2957Z" stroke="black" stroke-linecap="round" stroke-linejoin="round"></path><path d="M32.6576 34.2957L28.872 30.5102L35.1813 24.2009L33.284 22.3126L41.4547 21.6504L40.8551 29.8837L38.9668 27.9865L32.6576 34.2957Z" stroke="url(#paint0_linear_526_10218)" stroke-linecap="round" stroke-linejoin="round"></path></g><defs><linearGradient id="paint0_linear_526_10218" x1="33.0835" y1="25.9764" x2="46.2374" y2="37.3603" gradientUnits="userSpaceOnUse"><stop offset="0.236106" stop-color="#DA291C"></stop><stop offset="1" stop-color="#FFCD00"></stop></linearGradient><clipPath id="clip0_526_10218"><rect width="41.1667" height="41.1667" fill="white" transform="translate(11.0003 11)"></rect></clipPath></defs></svg> 