<?xml version="1.0" encoding="UTF-8"?> <svg xmlns="http://www.w3.org/2000/svg" xmlns:xlink="http://www.w3.org/1999/xlink" version="1.1" id="Layer_1" x="0px" y="0px" viewBox="0 0 64 64" style="enable-background:new 0 0 64 64;" xml:space="preserve"> <style type="text/css"> .st0{fill-rule:evenodd;clip-rule:evenodd;fill:#0078D7;} </style> <symbol id="A" viewBox="-55 -40 110 80"> <path class="st0" d="M14.2,25.3c-0.6-1.7-2.4-4.8-2.4-4.8s-0.4,4.6-3.5,9.2s-5.2,5.4-5.2,5.4s-0.2,1.5,1.5,1.7h8.7 c1.3,0,2.2-1.1,2.2-2.4s-1.1-2.8-1.1-2.8S14.8,27,14.2,25.3L14.2,25.3z M-47.8,14.6l-4.3,5.2c-1.7,2.2-0.6,3.7-0.6,3.7 s4.6,7.6,8.5,6.5c1.3-0.4,2.4-2.4,2.4-2.4s-1.7-2.2-3-5C-46.3,19.6-47.6,15.3-47.8,14.6z M55-18.5C54.4-33.1,50.3-37,49.2-37 c-1.5,0.2-2,2.6-3.7,3.7c-2.2,1.7-3.7,1.3-5,2.6s1.3,4.6,0.9,13.3c-0.4,8-5.6,10.9-5.6,10.9s2.4-3.5,2.8-5.9 c0.4-1.9-0.7-2.2-1.5-2.8c-1.5-1.3-4.4,2-5.2,2.8c1.3-1.5,3.3-3.1,2.6-4.6c-1.5-2.4-4.6-0.7-5.4-0.6c0.7-0.4,2.2-0.9,1.9-2.4 c-0.6-2.6-3.1-2-3.5-1.9c1.1-0.6,1.7-1.1,4.6-0.9c1.7,0,1.3-1.7,0.2-3c-1.7-2-2.8-2.8-4.1-3.1c-1.5-0.6-4.4-0.2-4.4-0.2 s2-1.3,3.1-1.1c-1.5-2-6.3-9.4-14.6-9.8c-15.2-0.7-19.6,9.1-19.6,9.1l7.4-0.4c0,0-2.2,0.9-6.7,1.7l-4.4,0.7 c-1.7,0.4-5.9,5.5-9.8,10c-4.1,4.3-8,10-8,12.2s2.2,3.7,3.5,5.5S-23.9,2-23.9,2l5.4-6.3l-6.3,12.9c0,0,3,3.9,6.1,3.5 c2.4-0.4,7.8-4.6,11.1-5.2c3.5-0.7,5-0.2,5-0.2s2.4-6.3,1.3-10.7c-2-8-0.6-12.2,1.1-14.8C-1.5-8.1,2-7.4,1.8-0.6 C1.6,4.6,0,10.2,0,10.2s-5-1.7-8.9,0.4s-7.2,4.8-10.9,4.8c-3.9,0-9.1-6.7-9.1-6.7l2.8-4.1c0,0-0.4-1.3-1.5-2.6 c-1.7-2-4.4-5-4.6-7.4c-0.2-4.1,3.9-8.5,5.4-10.2c1.5-1.8,5.9-6.7,5.9-6.7s-13,1.9-18.3,8.1c-6.5,7.8-7.4,10-9.8,10.4 s-3.3-2.2-3.3-2.2s1.9-0.2,1.7-2.4c-0.4-3.5,0.6-5.5,0.6-5.5s-3.9,2.4-4.6,4.8c-0.7,2.6,0.9,3.1,0.9,3.1s0,4.4,2.6,5.4 c2.6,1.1,4.6,0.2,4.6,0.2s-1.7,8.1,0.6,14.1s6.7,12.4,6.7,12.4s-0.4,4.4-0.9,5.5c-0.4,1.1-2,3.7,0.6,5.6c2.6,1.9,9.1,2.6,10.6,1.7 s1.1-3.5,1.3-4.4s2.2-4.6,2.6-5.5c0.2-1.1,0.2-6.7-0.2-8.5c0.4,0.9,2,5.2,8.1,5.4c5.6,0.2,7.4-2.8,7.4-4.8c0,0.9,0.4,5-0.2,5.7 s-2.2,1.3-3.9,2.2c-1.7,1.1-3.9,2.2-0.2,6.7c4.1,5.2,4.8,5.5,8.3,2.8s7.2-5.4,9.8-8.7s7.2-15.5,7.2-15.5s-2.8-1.8-4.6-4.3 c-1.3-1.8-1.7-3-1.7-3s3.7,3.7,7.6,4.6c1.5,1.7,3.9,4.1,5.9,4.8c7.6,3.1,10-6.3,10-6.3l-0.4-0.4c0,0-2,4.8-5.4,4.4 c-6.7-0.7-4.6-14.4-4.6-14.4s6.7,9.6,20.2,9.2C46.3,8.9,55.7-0.9,55-18.5L55-18.5z M7.9-19.2c0,0,0.6-6.3,1.9-7.2 c1.7-1.1,6.1,0.4,6.1,0.4s-2.8,0-4.4,1.5C10-23.3,7.9-19.2,7.9-19.2L7.9-19.2z M18.9-13.7C16.8-12,15-10,15-10s0.4-0.9,0.7-1.5 s0.9-1.5,0.9-1.5s-0.7-0.2-1.7-1.1c-0.6-0.6-0.7-1.1-0.9-1.5c0,0-0.4,0.2-0.9,0.7c-0.6,0.4-1.3,1.3-1.3,1.3s1.9-3.5,4.4-5.4 c2.8-1.9,5.6-1.9,5.6-1.9s-0.4,0-1.3,0.6c-0.9,0.4-0.9,0.6-0.9,0.6s0.9,0.4,1.7,1.1c0.5,0.6,0.8,1.3,0.9,2c0,0,0.2,0,1.1-0.4 s1.9-0.4,1.9-0.4S21.6-15.9,18.9-13.7L18.9-13.7z M46.8-30.2c-2.2,1.7-4.6,1.9-4.8,1.1c-0.4-0.7,0.2-0.7,0.2-0.7s2.4-0.9,3.7-1.9 c1.7-1.3,3.1-4.3,3.7-3.5C50-34.4,48.5-31.5,46.8-30.2L46.8-30.2z"></path> </symbol> <g> <use xlink:href="#A" width="110" height="80" x="-55" y="-40" transform="matrix(0.5549 0 0 0.5549 32 32)" style="overflow:visible;"></use> </g> </svg> 