<?xml version="1.0" encoding="UTF-8"?> <svg xmlns="http://www.w3.org/2000/svg" xmlns:xlink="http://www.w3.org/1999/xlink" version="1.1" id="Layer_1" x="0px" y="0px" viewBox="0 0 180 60" style="enable-background:new 0 0 180 60;" xml:space="preserve"> <g> <path d="M104.9,43H120c3.5,0,7.7,1.4,7.7,7c0,6.1-3.8,7.7-7.7,7.7h-15.1v-2.9h2.9V46h-2.9V43z M113.7,54.8h4.1 c2.4,0,3.8-1.9,3.8-4.4c0-2.2-1.2-4.4-3.7-4.4h-4.2L113.7,54.8 M64.8,42.5c2.8,0,11.4,0.4,11.4,7.9s-8.6,7.9-11.4,7.9 c-2.8,0-11.4-0.3-11.4-7.9C53.4,42.9,62,42.5,64.8,42.5L64.8,42.5z M59.9,50.4c0,3.6,2.2,4.9,4.9,4.9c2.7,0,4.9-1.3,4.9-4.9 c0-3.6-2.2-4.9-4.9-4.9C62.1,45.4,59.9,46.8,59.9,50.4 M25.8,54.8h2.9V46h-2.9v-3h11.6v3h-2.9v2.9h8.9V46h-2.9v-3h11.6v3h-2.9v8.8 h2.9v2.9H40.5v-2.9h2.9v-3h-8.9v3h2.9v2.9H25.8V54.8 M86.6,57.7h-9.2v-2.9h2.9V46h-2.9v-3H89l8.2,11v-8h-2.9v-3h9.3v2.9h-2.9v11.8 H92l-8.2-11.1v8.1h2.8L86.6,57.7 M154.2,54.8v2.9h-12.6v-2.9h2.9l-1.1-2.1h-7.8l-1.1,2.1h2.9v2.9h-9.6v-2.9h2.9l5-8.8h-3.5v-3h12.2 l6.8,11.8H154.2L154.2,54.8z M141.9,49.9l-2.4-4.5l-2.4,4.5H141.9 M88.2,22.9c-0.4,0-0.8,0-1.2,0.1c-1.6,0.2-2.2,0.6-2.7,1.7 c-0.4,0.7-1.1,2.7-1.7,5.3c-1.1,0-2.3-0.1-3.4-0.2c-0.4-3.7-1.3-18.9-1.3-24.1c0.6,0,1.3-0.1,2.1-0.1c0.5,2.4,2,10.8,3.2,13.5 c0.5,1.2,1.5,1.6,2.7,1.7c1.6,0.1,3.1,0.1,4.7,0c1.2-0.1,2.1-0.5,2.7-1.7C94.4,16.4,96,8,96.4,5.6c0.7,0,1.4,0.1,2.1,0.1 c0,5.2-0.9,20.5-1.3,24.1c-1,0.1-2.2,0.1-3.4,0.2c-0.6-2.6-1.3-4.6-1.7-5.3c-0.6-1-1.1-1.5-2.7-1.7C89,23,88.6,22.9,88.2,22.9"></path> <path d="M88.2,34c-3.1,0-10.3-0.2-12.7-0.6c-2.5-0.5-4.2-1.9-5-4.3c-0.7-2-1.2-5.8-1.6-11.2c-0.2-3.4-0.2-6.4,0-9 c0.4-4.4,2.4-6.2,6.7-6.7c2.8-0.3,9.2-0.5,12.6-0.5s9.8,0.2,12.6,0.5c4.3,0.5,6.3,2.2,6.7,6.7c0.2,2.6,0.2,5.6,0,9 c-0.3,5.4-0.8,9.1-1.6,11.2c-0.8,2.4-2.5,3.8-5,4.3C98.5,33.8,91.3,34,88.2,34L88.2,34z M100.5,31.4c1.6-0.3,3-1.5,3.6-3 c0.4-1.3,1.1-4.1,1.5-10.6c0.2-3.3,0.2-6.2,0-8.7c-0.2-3-1.8-4.5-4.9-4.9c-2.8-0.3-9-0.5-12.4-0.5s-9.6,0.1-12.4,0.5 c-3.3,0.3-4.8,1.8-5,4.8c-0.2,2.5-0.2,5.4,0,8.7c0.4,6.5,1,9.4,1.5,10.6c0.4,1.2,1.6,2.6,3.6,3s8.5,0.6,12.3,0.6 C92,32,98.5,31.8,100.5,31.4"></path> </g> </svg> 