<?xml version="1.0" encoding="UTF-8"?> <svg xmlns="http://www.w3.org/2000/svg" xmlns:xlink="http://www.w3.org/1999/xlink" version="1.1" id="Layer_1" x="0px" y="0px" viewBox="0 0 2146.1 1027.4" style="enable-background:new 0 0 2146.1 1027.4;" xml:space="preserve"> <style type="text/css"> .st0{fill:#FFFFFF;} .st1{fill:#EE4854;} </style> <path class="st0" d="M132.1,404.5c38.3-18.8,80.7-27.7,123.3-26c82.4,2.8,127.7,44.7,129.5,126.7c2,85.9,1.4,171.1,1.1,256.9 c0,34.9-9.2,43-43.7,43h-47.8c-30.5,0-40-9.3-40.6-40v-230c0-35.6-16.8-50.2-52.8-48.8c-6.3,0.1-12.5,0.7-18.7,1.8 c-47.2,9.6-49.9,13-49.9,61.1v205c0,43.8-7.5,51.2-50.7,51.2H33.9c-22.5,0-32.4-10.6-33.9-33.8V230c0-39.6,8.4-47.9,47.4-47.9h42.2 c32.7,0,42.8,9.2,43.4,42.2c0.9,49.5,0,99,0,148.4C132.1,381.8,132.1,391.6,132.1,404.5L132.1,404.5z M836.8,605.2 c-2.9,22.8-4.5,52-10.6,80.5c-9.5,64.2-59.4,115-123.4,125.6c-43.8,9.4-89.1,8.8-132.6-1.7c-55.1-10.6-99.1-52.3-112.5-106.8 c-19.9-68.7-19.9-141.7,0-210.5c21.1-72.2,76.3-110.9,157.2-113.7c29.2-1.6,58.4,0.3,87.2,5.4c76.3,15.3,119.6,67,129.4,151.5 C833.9,556.9,834.6,577.6,836.8,605.2L836.8,605.2z M703.5,606.9c-1.5-23.5-2.3-39.6-3.8-55.4c-0.9-8.3-2.6-16.5-5.1-24.5 c-4.8-26.6-29.1-45.3-56-43.2c-26.3-2-49.9,16.2-54.6,42.2c-12,47.5-12,97.2,0,144.6c4.9,26.4,29.5,44.5,56.2,41.5 c25.3,1.7,47.9-15.6,52.8-40.5c4.7-21.4,8.2-43,10.6-64.8v0.1L703.5,606.9z M1681.1,541.2c5.8-44.1-4-57.7-46.5-55.7 c-34.7,2.9-69.1,8-103.1,15.3c-28.8,5.2-49.9-2.1-53.9-24.5c-6.5-36.9-4-68.6,25.6-77.5c68.5-22.5,141.9-26.2,212.3-10.6 c64,15.3,95,57.6,95,126.7v244.5c0,18.5,0,37.5-22,44.7c-24.4,8.9-51.9,1.4-68.3-18.8l-6.8-9.8c-37.4,29.9-84.6,45-132.5,42.2 c-104-3.8-163.7-102.9-118.5-197.2c21.1-44.9,63.3-59,106.9-66C1606.9,548.9,1644.2,545.4,1681.1,541.2z M1683.1,613.2 c-25.2,3.8-47.4,5.9-68.9,10.6c-22.5,2.9-39.4,21.8-39.9,44.4c-4.7,22.7,7.3,45.7,28.7,54.7c21.1,8.2,66,0,76.3-14.4 c2-2.8,3.1-6.1,3.2-9.5c0.6-27.8,0.6-55.4,0.6-86.1L1683.1,613.2z M927.2,393.3v-54.6c-1.9-16.7,8.9-32.3,25.2-36.3 c21.5-7.2,43.4-13.3,65.6-18.4c16-5.3,33.3,3.3,38.6,19.3c1.4,4.3,1.9,8.8,1.3,13.3c0.7,23.5,0,46.9,0,73h62.6 c30.5,0.7,41,10.6,42.2,42.2c1.7,64.2-1.8,67.8-65.2,67.8h-36.8c-1,5.7-1.7,11.5-2,17.3v135.4c0,42.2,12.7,55.1,53.7,58.1 c36,2.6,45.8,10.6,45.8,39.9c1.3,46.8-8.2,62.6-45.8,64.8c-29.8,2.2-59.8,0.7-89.2-4.5c-61.1-12.4-94-52-96.1-116.6 c-1.8-56.4-0.7-112.8-0.9-168.9v-25.3h-36.9c-17.4,1.4-32.6-11.5-34.1-28.9V468c-5.1-43.2,2.6-54.7,43.7-66.3L927.2,393.3z M1386.3,655.8c0,73.1,1.4,146.3,0,219.4c-0.4,84.4-69,152.5-153.4,152.1c-8,0-16-0.7-24-2c-29.4-3.7-39.9-15.3-40.3-45.8v-27.1 c1.3-25.5,9.2-34.4,34.5-39.1c39.1-7.3,51.8-22,51.9-62.8v-416c0-35.3,9-44.7,44.3-45.8h48c28.4,1.3,39.1,11.6,39.3,40.2v225.5 L1386.3,655.8z M1975.9,418.6c34.6-24.8,75.8-38.7,118.3-40c42.2,0,51.9,8.9,51.8,50.7v18.8c0,27-11.2,36.6-37.6,39.4 c-24.8,3-49.5,7.4-73.9,13c-16.4,3.5-22.6,13.4-22.3,31.7c1.3,76.3,0,152,0,227.9c0,37.3-8.1,45.1-45.8,45.8H1912 c-15.6,1.3-29.3-10.4-30.6-26c-0.2-1.9-0.1-3.8,0.1-5.7V423.1c-1.2-15.6,10.5-29.3,26.1-30.5h0.1h1.3 C1935.4,388.1,1963.1,384,1975.9,418.6L1975.9,418.6z"></path> <path class="st1" d="M1372.1,314.5c23.9-85.7,15.3-128.9-26.6-137.2c6.4,29.1,13.6,59-17,79.2c-16,10.6-28.7,6.5-57.1-15.3 c-13.1,26.9-8.7,53.7-2.6,82.4c-40.7-7.1-72.8-24-87.7-63.3c-15.4-35.8-6.9-77.3,21.1-104.3c9.8-10,20.4-19.1,31.7-27.3 c45.8-34.4,54.7-67.8,30.5-119.5c-1.1-3-2-6-2.6-9.1c50.9,7.7,99.1,28.2,140.1,59.4c89.3,73,78.5,204.3-20.1,252.5 C1378.4,312.2,1375.2,313,1372.1,314.5L1372.1,314.5z"></path> </svg> 