<?xml version="1.0" encoding="UTF-8"?> <svg xmlns="http://www.w3.org/2000/svg" width="64" height="64" viewBox="0 0 64 64" fill="none"><g clip-path="url(#clip0_1576_35469)"><path d="M42.7799 30.25C42.0799 30.25 41.4999 30.71 41.2999 31.35H36.9599L32.4199 21.21C32.3199 21.01 32.0999 20.89 31.8799 20.93C31.6799 20.95 31.5199 21.09 31.4599 21.28L27.2299 34.44L24.5999 27C24.5299 26.81 24.3599 26.68 24.1599 26.66C23.9599 26.64 23.7699 26.74 23.6699 26.92L21.2199 31.35H12.4299C12.6699 31.68 12.9499 32.07 13.1699 32.37H21.5199C21.6999 32.37 21.8799 32.27 21.9699 32.11L24.0199 28.4L26.7799 36.21C26.8599 36.4 27.0499 36.53 27.2599 36.53C27.4699 36.53 27.6599 36.39 27.7399 36.19L32.0199 22.85L36.1799 32.08C36.2699 32.26 36.4499 32.37 36.6399 32.37H41.3099C41.5299 32.96 42.1099 33.39 42.7799 33.39C43.6399 33.39 44.3399 32.69 44.3399 31.82C44.3399 30.95 43.6399 30.25 42.7799 30.25Z" fill="white"></path><path d="M42.7799 30.25C42.0799 30.25 41.4999 30.71 41.2999 31.35H36.9599L32.4199 21.21C32.3199 21.01 32.0999 20.89 31.8799 20.93C31.6799 20.95 31.5199 21.09 31.4599 21.28L27.2299 34.44L24.5999 27C24.5299 26.81 24.3599 26.68 24.1599 26.66C23.9599 26.64 23.7699 26.74 23.6699 26.92L21.2199 31.35H12.4299C12.6699 31.68 12.9499 32.07 13.1699 32.37H21.5199C21.6999 32.37 21.8799 32.27 21.9699 32.11L24.0199 28.4L26.7799 36.21C26.8599 36.4 27.0499 36.53 27.2599 36.53C27.4699 36.53 27.6599 36.39 27.7399 36.19L32.0199 22.85L36.1799 32.08C36.2699 32.26 36.4499 32.37 36.6399 32.37H41.3099C41.5299 32.96 42.1099 33.39 42.7799 33.39C43.6399 33.39 44.3399 32.69 44.3399 31.82C44.3399 30.95 43.6399 30.25 42.7799 30.25Z" fill="white"></path><path d="M42.7799 30.25C42.0799 30.25 41.4999 30.71 41.2999 31.35H36.9599L32.4199 21.21C32.3199 21.01 32.0999 20.89 31.8799 20.93C31.6799 20.95 31.5199 21.09 31.4599 21.28L27.2299 34.44L24.5999 27C24.5299 26.81 24.3599 26.68 24.1599 26.66C23.9599 26.64 23.7699 26.74 23.6699 26.92L21.2199 31.35H12.4299C12.6699 31.68 12.9499 32.07 13.1699 32.37H21.5199C21.6999 32.37 21.8799 32.27 21.9699 32.11L24.0199 28.4L26.7799 36.21C26.8599 36.4 27.0499 36.53 27.2599 36.53C27.4699 36.53 27.6599 36.39 27.7399 36.19L32.0199 22.85L36.1799 32.08C36.2699 32.26 36.4499 32.37 36.6399 32.37H41.3099C41.5299 32.96 42.1099 33.39 42.7799 33.39C43.6399 33.39 44.3399 32.69 44.3399 31.82C44.3399 30.95 43.6399 30.25 42.7799 30.25Z" fill="white"></path><path d="M51.08 14.81C48.55 12.24 45.26 11.04 41.97 11C41.93 11 41.9 11 41.87 11H41.85C41.85 11 41.79 11 41.76 11C38.46 11.03 35.16 12.22 32.63 14.8C32.37 15.06 32.18 15.24 32.05 15.34C32 15.38 31.98 15.42 31.96 15.43C31.94 15.43 31.91 15.39 31.85 15.34C31.72 15.24 31.53 15.06 31.27 14.8C28.72 12.21 25.37 11 22.05 11C18.73 11 15.38 12.21 12.82 14.81C7.70997 20 7.73997 28.59 12.85 33.78C12.85 33.78 17.45 38.41 22.09 43.08C24.42 45.41 26.74 47.75 28.52 49.53C29.4 50.42 30.15 51.16 30.68 51.7C30.95 51.96 31.17 52.17 31.32 52.32C31.4 52.39 31.47 52.46 31.51 52.51C31.56 52.55 31.57 52.56 31.62 52.6C31.71 52.68 31.83 52.72 31.95 52.72C32.07 52.72 32.19 52.68 32.28 52.6C32.33 52.56 32.34 52.55 32.39 52.51C32.43 52.46 32.5 52.39 32.58 52.32C32.73 52.16 32.95 51.96 33.22 51.7C33.75 51.16 34.5 50.42 35.38 49.53C37.16 47.75 39.48 45.41 41.81 43.07C46.45 38.41 51.05 33.78 51.05 33.78C56.16 28.59 56.19 20 51.08 14.81ZM50.33 33.08C50.33 33.08 45.73 37.7 41.09 42.36C38.77 44.69 36.42 47.02 34.65 48.79C33.77 49.68 33.02 50.43 32.48 50.96C32.25 51.19 32.09 51.36 31.94 51.5L31.4 50.96C30.87 50.43 30.12 49.68 29.23 48.79C27.46 47.02 25.13 44.69 22.81 42.36C18.17 37.7 13.57 33.07 13.57 33.07H13.56C13.46 32.96 13.36 32.86 13.27 32.75C13.25 32.73 13.24 32.71 13.22 32.69C13.12 32.59 13.03 32.48 12.93 32.37L12.17 31.35C12.08 31.22 11.99 31.08 11.92 30.94C11.89 30.89 11.86 30.85 11.84 30.82C11.81 30.79 11.79 30.75 11.78 30.71C8.95997 25.95 9.52997 19.6 13.54 15.52C15.89 13.13 18.97 12.02 22.05 12.02C25.13 12.02 28.19 13.13 30.54 15.52C30.8 15.78 31.01 15.98 31.21 16.14C31.41 16.31 31.64 16.46 31.94 16.46C32.24 16.46 32.49 16.31 32.69 16.14C32.89 15.98 33.1 15.78 33.36 15.52C35.7 13.14 38.73 12.03 41.79 12.02H41.9C44.97 12.03 48.02 13.14 50.36 15.52C55.07 20.32 55.03 28.27 50.31 33.07H50.33V33.08Z" fill="white"></path><path d="M42.7799 30.25C42.0799 30.25 41.4999 30.71 41.2999 31.35H36.9599L32.4199 21.21C32.3199 21.01 32.0999 20.89 31.8799 20.93C31.6799 20.95 31.5199 21.09 31.4599 21.28L27.2299 34.44L24.5999 27C24.5299 26.81 24.3599 26.68 24.1599 26.66C23.9599 26.64 23.7699 26.74 23.6699 26.92L21.2199 31.35H12.4299C12.6699 31.68 12.9499 32.07 13.1699 32.37H21.5199C21.6999 32.37 21.8799 32.27 21.9699 32.11L24.0199 28.4L26.7799 36.21C26.8599 36.4 27.0499 36.53 27.2599 36.53C27.4699 36.53 27.6599 36.39 27.7399 36.19L32.0199 22.85L36.1799 32.08C36.2699 32.26 36.4499 32.37 36.6399 32.37H41.3099C41.5299 32.96 42.1099 33.39 42.7799 33.39C43.6399 33.39 44.3399 32.69 44.3399 31.82C44.3399 30.95 43.6399 30.25 42.7799 30.25Z" fill="white"></path><path d="M42.7799 30.25C42.0799 30.25 41.4999 30.71 41.2999 31.35H36.9599L32.4199 21.21C32.3199 21.01 32.0999 20.89 31.8799 20.93C31.6799 20.95 31.5199 21.09 31.4599 21.28L27.2299 34.44L24.5999 27C24.5299 26.81 24.3599 26.68 24.1599 26.66C23.9599 26.64 23.7699 26.74 23.6699 26.92L21.2199 31.35H12.4299C12.6699 31.68 12.9499 32.07 13.1699 32.37H21.5199C21.6999 32.37 21.8799 32.27 21.9699 32.11L24.0199 28.4L26.7799 36.21C26.8599 36.4 27.0499 36.53 27.2599 36.53C27.4699 36.53 27.6599 36.39 27.7399 36.19L32.0199 22.85L36.1799 32.08C36.2699 32.26 36.4499 32.37 36.6399 32.37H41.3099C41.5299 32.96 42.1099 33.39 42.7799 33.39C43.6399 33.39 44.3399 32.69 44.3399 31.82C44.3399 30.95 43.6399 30.25 42.7799 30.25Z" fill="white"></path><path d="M42.7799 30.25C42.0799 30.25 41.4999 30.71 41.2999 31.35H36.9599L32.4199 21.21C32.3199 21.01 32.0999 20.89 31.8799 20.93C31.6799 20.95 31.5199 21.09 31.4599 21.28L27.2299 34.44L24.5999 27C24.5299 26.81 24.3599 26.68 24.1599 26.66C23.9599 26.64 23.7699 26.74 23.6699 26.92L21.2199 31.35H12.4299C12.6699 31.68 12.9499 32.07 13.1699 32.37H21.5199C21.6999 32.37 21.8799 32.27 21.9699 32.11L24.0199 28.4L26.7799 36.21C26.8599 36.4 27.0499 36.53 27.2599 36.53C27.4699 36.53 27.6599 36.39 27.7399 36.19L32.0199 22.85L36.1799 32.08C36.2699 32.26 36.4499 32.37 36.6399 32.37H41.3099C41.5299 32.96 42.1099 33.39 42.7799 33.39C43.6399 33.39 44.3399 32.69 44.3399 31.82C44.3399 30.95 43.6399 30.25 42.7799 30.25Z" fill="black"></path><path d="M42.7799 30.25C42.0799 30.25 41.4999 30.71 41.2999 31.35H36.9599L32.4199 21.21C32.3199 21.01 32.0999 20.89 31.8799 20.93C31.6799 20.95 31.5199 21.09 31.4599 21.28L27.2299 34.44L24.5999 27C24.5299 26.81 24.3599 26.68 24.1599 26.66C23.9599 26.64 23.7699 26.74 23.6699 26.92L21.2199 31.35H12.4299C12.6699 31.68 12.9499 32.07 13.1699 32.37H21.5199C21.6999 32.37 21.8799 32.27 21.9699 32.11L24.0199 28.4L26.7799 36.21C26.8599 36.4 27.0499 36.53 27.2599 36.53C27.4699 36.53 27.6599 36.39 27.7399 36.19L32.0199 22.85L36.1799 32.08C36.2699 32.26 36.4499 32.37 36.6399 32.37H41.3099C41.5299 32.96 42.1099 33.39 42.7799 33.39C43.6399 33.39 44.3399 32.69 44.3399 31.82C44.3399 30.95 43.6399 30.25 42.7799 30.25Z" fill="url(#paint0_linear_1576_35469)"></path></g><defs><linearGradient id="paint0_linear_1576_35469" x1="23.1103" y1="26.2618" x2="37.1285" y2="51.1889" gradientUnits="userSpaceOnUse"><stop offset="0.236106" stop-color="#DA291C"></stop><stop offset="1" stop-color="#FFCD00"></stop></linearGradient><clipPath id="clip0_1576_35469"><rect width="45.9" height="41.72" fill="white" transform="translate(9 11)"></rect></clipPath></defs></svg> 