<?xml version="1.0" encoding="UTF-8"?> <svg xmlns="http://www.w3.org/2000/svg" width="74" height="83" viewBox="0 0 74 83" fill="none"><path d="M73.333 0.186157L66.6826 74.6885L36.7884 82.976L6.97658 74.6999L0.333008 0.186157H73.333Z" fill="#E44D26"></path><path d="M36.833 76.6411L60.989 69.9443L66.672 6.27856H36.833V76.6411Z" fill="#F16529"></path><path d="M23.9045 24.5565H36.8328V15.4177H13.917L14.1356 17.8695L16.3819 43.0536H36.8328V33.9148H24.7398L23.9045 24.5565ZM25.9642 47.6232H16.7902L18.0705 61.9725L36.7908 67.169L36.8328 67.1576V57.6493L36.7928 57.6599L26.6149 54.9117L25.9642 47.6232Z" fill="#EBEBEB"></path><path d="M36.8016 43.0536H48.055L46.994 54.906L36.8013 57.6571V67.1647L55.5364 61.9725L55.6738 60.4284L57.8216 36.3688L58.0446 33.9148H36.8016V43.0536ZM36.8016 24.5342V24.5565H58.8761L59.0592 22.5025L59.4759 17.8695L59.6942 15.4177H36.8016V24.5345V24.5342Z" fill="white"></path></svg> 