<?xml version="1.0" encoding="UTF-8"?> <svg xmlns="http://www.w3.org/2000/svg" xmlns:xlink="http://www.w3.org/1999/xlink" version="1.1" id="Layer_1" x="0px" y="0px" viewBox="0 0 180 60" style="enable-background:new 0 0 180 60;" xml:space="preserve"> <style type="text/css"> .st0{fill:#010101;} </style> <g id="Layer_2_00000155852239720056410500000011246473108189462943_"> <g id="Layer_1-2"> <path class="st0" d="M57.7,42.2h-8.2V34h-7.6v8.2h-8.2v7.6h8.2V58h7.6v-8.2h6.1c1.2,0,2.1-1,2.1-2.1l0,0 C57.7,47.7,57.7,42.2,57.7,42.2z"></path> <path class="st0" d="M29.4,26.2c2,0,2.4-1,2.4-2.8V5.5c0-1.8-0.4-2.8-2.4-2.8V2.5l7.5-0.7v12c1.4-1.4,3.5-3,6-3 c2.4,0,4.5,1.4,4.5,5v7.6c0,1.8,0.4,2.8,2.4,2.8v0.2h-9.6v-0.2c1.7,0,2.1-1,2.1-2.8v-8.1c0-1.9-0.9-2.8-2.2-2.8s-2.4,0.8-3.2,1.6 v9.2c0,1.8,0.4,2.8,2.4,2.8v0.2L29.4,26.2C29.4,26.3,29.4,26.2,29.4,26.2z"></path> <path class="st0" d="M52.9,21.9v-7.2c0-1.8-0.4-2.9-2.4-2.9v-0.2l7.4-0.7v11.5c0,1.9,0.9,2.8,2.2,2.8s2.4-0.8,3.2-1.7v-8.8 c0-1.8-0.4-2.9-2.1-2.9v-0.2l7.2-0.7v12.5c0,1.8,0.4,2.9,2.4,2.9v0.2h-7.3v-2.7c-1.4,1.5-3.5,3.1-6.1,3.1 C55,26.8,52.9,25.4,52.9,21.9z"></path> <path class="st0" d="M72,26.2c2,0,2.4-1,2.4-2.8v-8.8c0-1.8-0.4-2.8-2.4-2.8v-0.2l7.2-0.8v3.1c1.4-1.5,3.3-3.1,5.8-3.1 c1.9,0,3.5,0.9,4.1,3.1c1.4-1.5,3.4-3.1,5.9-3.1c2.4,0,4.3,1.4,4.3,5v7.6c0,1.8,0.4,2.8,2.4,2.8v0.2h-9.4v-0.2 c1.7,0,2.1-1,2.1-2.8v-8.1c0-1.9-0.9-2.8-2.1-2.8c-1.3,0-2.3,0.9-3.1,1.7c0.1,0.5,0.1,1.1,0.1,1.6v7.6c0,1.8,0.4,2.8,2.3,2.8v0.2 h-9.3v-0.2c1.7,0,2.1-1,2.1-2.8v-8.1c0-1.9-0.8-2.8-2.1-2.8c-1.2,0-2.1,0.8-2.9,1.6v9.3c0,1.8,0.4,2.8,2.1,2.8v0.2H72V26.2z"></path> <path class="st0" d="M108.6,25.6l-4,1.2h-0.1V5.5c0-1.8-0.4-2.8-2.4-2.8V2.5l7.4-0.7v11.5c1-1.2,2.6-2.5,5.1-2.5 c4.3,0,6.5,3.9,6.5,7.9c0,4.5-2.8,8.2-8.2,8.2C110.9,26.8,109.6,26.3,108.6,25.6z M115.9,19c0-3.7-1-6.8-3.5-6.8 c-1.2,0-2.1,0.6-2.8,1.4v10.9c0.2,0.9,0.9,2.1,2.5,2.1C115,26.6,115.9,22.4,115.9,19z"></path> <path class="st0" d="M123,26.2c2,0,2.4-1,2.4-2.8V5.5c0-1.8-0.4-2.8-2.4-2.8V2.5l7.4-0.7v21.6c0,1.8,0.4,2.8,2.4,2.8v0.2H123V26.2 z"></path> <path class="st0" d="M134.6,18.8c0-4.5,3.4-8,8.4-8c4.4,0,7.5,2.7,7.6,7.3h-10.8c0,4.9,1.8,7.9,5.2,7.9c2.6,0,4.3-1.7,5.3-3.2 l0.2,0.1c-1.2,1.7-3.3,3.9-7.5,3.9C137.5,26.8,134.6,23,134.6,18.8z M139.8,17.7h5.8c0-1.7-0.1-6.7-2.7-6.7 C140.8,11,139.9,14.8,139.8,17.7L139.8,17.7z"></path> <path class="st0" d="M63.5,57.6c2.1,0,3.1-0.8,3.1-3.1V42.4h-3.3v-0.5h3.3v-2.6c0-4.7,3.4-7,7.6-7c4.4,0,6.2,2.6,6.2,4.6 c0,1.4-1.1,2.6-2.6,2.7l0,0c-1.5,0-2.6-1.2-2.6-2.7c0-1.3,0.8-2.3,1.9-2.6c-0.4-1-1.1-1.7-2.3-1.7c-1.9,0-2.9,1.6-2.9,4.2v5.1h4.4 v0.5H72v12.2c0,2.6,1.4,3.1,3.5,3.1v0.2h-12V57.6z"></path> <path class="st0" d="M79.7,53.1v-7.5c0-1.9-0.4-3.1-2.5-3.1v-0.2l7.8-0.8v12.1c0,2,0.9,3,2.3,3s2.5-0.9,3.4-1.7v-9.2 c0-1.9-0.5-3.1-2.2-3.1v-0.2l7.5-0.8v13.1c0,1.9,0.4,3.1,2.5,3.1V58h-7.7v-3c-1.5,1.6-3.7,3.3-6.4,3.3 C81.9,58.3,79.7,56.8,79.7,53.1z"></path> <path class="st0" d="M99.8,57.6c2.1,0,2.5-1,2.5-3v-9.2c0-1.9-0.4-3-2.5-3v-0.2l7.5-0.8v3.2c1.5-1.6,3.5-3.2,6.1-3.2 c2,0,3.7,1,4.3,3.3c1.5-1.6,3.5-3.3,6.2-3.3c2.5,0,4.5,1.5,4.5,5.2v8c0,1.9,0.4,3,2.5,3v0.2H121v-0.2c1.7,0,2.3-1,2.3-3v-8.5 c0-2-0.9-2.9-2.3-2.9s-2.5,0.9-3.3,1.8c0.1,0.6,0.1,1.1,0.2,1.7v8c0,1.9,0.4,3,2.4,3v0.2h-9.7v-0.2c1.7,0,2.2-1,2.2-3v-8.5 c0-2-0.9-2.9-2.3-2.9c-1.2,0-2.3,0.8-3.1,1.6v9.8c0,1.9,0.5,3,2.2,3v0.2h-9.9v-0.3H99.8z"></path> <path class="st0" d="M132.7,49.8c0-4.8,3.6-8.4,8.9-8.4c4.6,0,7.8,2.8,8,7.6h-11.3c0,5.1,1.9,8.3,5.5,8.3c2.7,0,4.5-1.8,5.6-3.3 l0.2,0.2c-1.3,1.8-3.5,4.1-7.9,4.1C135.7,58.3,132.7,54.2,132.7,49.8z M138.2,48.7h6.1c0-1.8-0.2-7.1-2.8-7.1 C139.2,41.7,138.3,45.6,138.2,48.7L138.2,48.7z"></path> </g> </g> </svg> 