<?xml version="1.0" encoding="UTF-8"?> <svg xmlns="http://www.w3.org/2000/svg" width="64" height="64" viewBox="0 0 64 64" fill="none"><path d="M37.6517 27.9213L32.3386 33.2344L25.6589 26.5547" stroke="black" stroke-linecap="round" stroke-linejoin="round"></path><path d="M37.6517 27.9213L32.3386 33.2344L25.6589 26.5547" stroke="url(#paint0_linear_506_14216)" stroke-linecap="round" stroke-linejoin="round"></path><path d="M34.3963 33.2343C34.3963 34.3706 33.4749 35.2996 32.331 35.2996C31.187 35.2996 30.2656 34.3783 30.2656 33.2343C30.2656 32.0903 31.187 31.1689 32.331 31.1689C33.4749 31.1689 34.3963 32.0903 34.3963 33.2343Z" fill="black"></path><path d="M34.3963 33.2343C34.3963 34.3706 33.4749 35.2996 32.331 35.2996C31.187 35.2996 30.2656 34.3783 30.2656 33.2343C30.2656 32.0903 31.187 31.1689 32.331 31.1689C33.4749 31.1689 34.3963 32.0903 34.3963 33.2343Z" stroke="black" stroke-linecap="round" stroke-linejoin="round"></path><path d="M34.3963 33.2343C34.3963 34.3706 33.4749 35.2996 32.331 35.2996C31.187 35.2996 30.2656 34.3783 30.2656 33.2343C30.2656 32.0903 31.187 31.1689 32.331 31.1689C33.4749 31.1689 34.3963 32.0903 34.3963 33.2343Z" stroke="url(#paint1_linear_506_14216)" stroke-linecap="round" stroke-linejoin="round"></path><path d="M24.2309 33.2344H22.6953" stroke="white" stroke-linecap="round" stroke-linejoin="round"></path><path d="M32.3386 25.1264V23.5908" stroke="white" stroke-linecap="round" stroke-linejoin="round"></path><path d="M41.9818 33.2344H40.4463" stroke="white" stroke-linecap="round" stroke-linejoin="round"></path><path d="M32.3386 42.8774V41.3418" stroke="white" stroke-linecap="round" stroke-linejoin="round"></path><path d="M56.278 30.7465C56.278 30.355 55.9709 29.9711 55.587 29.8866L51.0341 28.6198C50.6425 28.5353 50.2202 28.1514 50.0897 27.7752L48.7614 24.5582C48.5848 24.1974 48.6156 23.6292 48.8305 23.2914L51.1569 19.1761C51.3642 18.846 51.3105 18.3546 51.0341 18.0782L47.4946 14.5387C47.2182 14.2623 46.7268 14.2086 46.3967 14.4159L42.2891 16.7423C41.9512 16.9572 41.3831 16.9879 41.0222 16.8113L37.8129 15.4754C37.4367 15.3449 37.0528 14.9226 36.9683 14.531L35.7015 9.97811C35.6171 9.6019 35.2332 9.28711 34.8416 9.28711H29.851C29.4595 9.28711 29.0756 9.6019 28.9911 9.97811L27.7243 14.531C27.6398 14.9226 27.2559 15.3449 26.8797 15.4754L23.6627 16.8037C23.3019 16.9803 22.7337 16.9495 22.3959 16.7346L18.2806 14.4082C17.9505 14.2009 17.4591 14.2546 17.1827 14.531L13.6432 18.0705C13.3668 18.3469 13.3131 18.8383 13.5204 19.1684L15.8467 23.276C16.0617 23.6139 16.0924 24.182 15.9158 24.5429L14.5799 27.7522C14.4494 28.1284 14.0271 28.5123 13.6355 28.5968L9.0826 29.8636C8.70639 29.9481 8.3916 30.3319 8.3916 30.7235V35.7141C8.3916 36.1056 8.70639 36.4895 9.0826 36.574L13.6355 37.8408C14.0271 37.9253 14.4494 38.3092 14.5799 38.6854L15.9082 41.9024C16.0848 42.2632 16.054 42.8314 15.8391 43.1692L13.5127 47.2845C13.3054 47.6147 13.3591 48.106 13.6355 48.3824L17.175 51.9219C17.4514 52.1983 17.9428 52.252 18.2729 52.0447L22.3805 49.7184C22.7184 49.5034 23.2865 49.4727 23.6474 49.6493L26.8567 50.9852C27.2329 51.1157 27.6168 51.538 27.7013 51.9296L28.9681 56.4825C29.0525 56.8587 29.4364 57.1735 29.828 57.1735H34.8186C35.2101 57.1735 35.594 56.8587 35.6785 56.4825L36.9453 51.9296C37.0298 51.538 37.4137 51.1157 37.7899 50.9852L41.0069 49.6569C41.3677 49.4804 41.9359 49.5111 42.2737 49.726L46.389 52.0524C46.7191 52.2597 47.2105 52.206 47.4869 51.9296L51.0264 48.3901C51.3028 48.1137 51.3565 47.6223 51.1492 47.2922L48.8229 43.1846C48.6079 42.8467 48.5772 42.2786 48.7538 41.9177L50.0897 38.7084C50.2202 38.3322 50.6425 37.9483 51.0341 37.8639L55.587 36.597C55.9632 36.5126 56.278 36.1287 56.278 35.7371V30.7465ZM45.7441 33.2341C45.7441 36.812 44.3467 40.1826 41.8207 42.7162C39.287 45.2499 35.9242 46.6396 32.3386 46.6396C24.9449 46.6396 18.9332 40.6279 18.9332 33.2341C18.9332 29.6563 20.3306 26.2857 22.8566 23.7521C25.3902 21.2184 28.7531 19.8287 32.3386 19.8287C39.7324 19.8287 45.7441 25.8404 45.7441 33.2341Z" stroke="white" stroke-miterlimit="10"></path><defs><linearGradient id="paint0_linear_506_14216" x1="29.6729" y1="28.8398" x2="36.0501" y2="38.798" gradientUnits="userSpaceOnUse"><stop offset="0.236106" stop-color="#DA291C"></stop><stop offset="1" stop-color="#FFCD00"></stop></linearGradient><linearGradient id="paint1_linear_506_14216" x1="31.6482" y1="32.5821" x2="35.948" y2="36.3218" gradientUnits="userSpaceOnUse"><stop offset="0.236106" stop-color="#DA291C"></stop><stop offset="1" stop-color="#FFCD00"></stop></linearGradient></defs></svg> 