<?xml version="1.0" encoding="UTF-8"?> <svg xmlns="http://www.w3.org/2000/svg" width="64" height="64" viewBox="0 0 64 64" fill="none"><g clip-path="url(#clip0_506_12147)"><path d="M5.99999 30.6018C6.12749 29.7498 6.21514 28.8886 6.3878 28.0459C7.72256 21.5072 11.339 16.6364 17.1629 13.4362C20.1219 11.8095 23.3254 11.0335 26.7055 11.0002C27.493 10.9922 27.7613 11.2385 27.7666 12.0252C27.7733 13.0396 27.7799 14.0552 27.7626 15.0696C27.752 15.7139 27.3257 16.0773 26.7798 15.9415C26.3362 15.831 26.1795 15.5049 26.1769 15.0829C26.1729 14.2869 26.1769 13.4895 26.1769 12.6149C23.2736 12.7254 20.6001 13.4722 18.0076 14.8193C18.2333 15.2214 18.4472 15.6047 18.6623 15.9868C18.8257 16.2756 18.9957 16.5618 19.1577 16.8507C19.4725 17.4111 19.4087 17.8558 18.9798 18.114C18.5508 18.3723 18.1098 18.2125 17.7911 17.6694C17.4046 17.0105 17.0274 16.3475 16.6144 15.6327C14.1812 17.1769 12.2183 19.1523 10.6192 21.6203C11.1598 21.9318 11.6857 22.2327 12.209 22.5348C12.4095 22.6507 12.6154 22.7625 12.808 22.8916C13.2223 23.1698 13.3365 23.6331 13.0988 24.0125C12.8717 24.3745 12.4294 24.4917 12.0084 24.2601C11.2833 23.8594 10.5701 23.4361 9.81038 22.9968C8.48756 25.5606 7.76241 28.2562 7.63756 31.2008C8.12897 31.2008 8.60178 31.2008 9.07327 31.2008C9.35483 31.2008 9.63772 31.2008 9.91928 31.2008C10.598 31.2035 10.9658 31.4777 10.9738 31.9862C10.9831 32.5094 10.6019 32.7956 9.89405 32.7982C9.32959 32.7982 8.76514 32.7982 8.20069 32.7982C8.036 32.7982 7.87264 32.7982 7.64288 32.7982C7.74249 35.7108 8.48358 38.4105 9.80639 41.0036C10.5103 40.5963 11.1797 40.2036 11.8517 39.8189C12.3856 39.514 12.869 39.5926 13.1068 40.0159C13.3485 40.4458 13.1812 40.8865 12.6419 41.2059C11.9872 41.5933 11.3271 41.9714 10.6179 42.3827C12.1758 44.8294 14.1533 46.7929 16.5998 48.3703C17.0181 47.6502 17.4258 46.9553 17.8256 46.2551C18.0288 45.8997 18.3183 45.7146 18.7301 45.7905C19.268 45.8904 19.5163 46.4761 19.2281 47.0059C18.8403 47.7181 18.4246 48.4156 17.9916 49.1691C20.5469 50.5229 23.2284 51.2484 26.1596 51.3935C26.1596 50.7731 26.1596 50.1981 26.1596 49.623C26.1596 49.4739 26.1596 49.3235 26.1596 49.1744C26.1622 48.4036 26.4226 48.0296 26.9565 48.0269C27.4917 48.0242 27.7507 48.3943 27.752 49.1691C27.7533 50.1169 27.7573 51.066 27.7507 52.0138C27.7454 52.7446 27.4731 53.0055 26.7546 52.9989C17.034 52.9163 8.62038 46.106 6.51264 36.5868C6.30811 35.6656 6.22709 34.7165 6.08499 33.7806C6.06506 33.6515 6.02788 33.5237 5.99866 33.3959C5.99866 32.4641 5.99866 31.5323 5.99866 30.6005L5.99999 30.6018Z" fill="black"></path><path d="M57 38.1907C56.2735 39.2609 55.5138 40.3112 54.8271 41.4068C53.8178 43.0162 53.2281 44.7907 52.9279 46.665C52.8283 47.288 52.4843 47.5901 51.985 47.5089C51.4909 47.4291 51.2678 47.0177 51.3594 46.4001C51.7406 43.8362 52.746 41.5279 54.179 39.3914C54.2959 39.2184 54.4088 39.0426 54.5841 38.7777C53.8802 38.7777 53.2746 38.7777 52.6703 38.7777C52.0567 38.7777 51.4418 38.7897 50.8295 38.7724C50.2996 38.7564 49.941 38.3997 49.9582 37.9431C49.9742 37.4798 50.3221 37.183 50.8813 37.1816C52.6065 37.1763 54.3318 37.1923 56.057 37.171C56.4979 37.1657 56.7662 37.3707 56.9986 37.6915V38.1907H57Z" fill="black"></path><path d="M32.342 45.9457C32.5174 45.9457 32.6927 45.9457 32.8667 45.9457C34.0606 45.9457 35.2559 45.9404 36.4499 45.9497C37.0051 45.9537 37.3517 46.2705 37.3544 46.7324C37.3557 47.1864 37.0024 47.5325 36.4579 47.5365C34.7659 47.5498 33.0738 47.5511 31.3818 47.5365C30.7602 47.5312 30.4681 47.2024 30.5026 46.586C30.5677 45.4212 31.0763 44.4734 32.002 43.7812C32.9038 43.105 33.8521 42.49 34.7606 41.8217C35.5561 41.2373 35.7912 40.2509 35.3742 39.4309C35.0169 38.7281 34.2585 38.4152 33.37 38.6043C32.686 38.7494 32.1468 39.371 32.0897 40.0806C32.0831 40.1631 32.0897 40.2469 32.0831 40.3295C32.0459 40.8353 31.7218 41.1788 31.2835 41.1788C30.8174 41.1788 30.5079 40.8287 30.4933 40.2829C30.4588 38.9424 31.2357 37.7443 32.4802 37.2185C33.7379 36.6887 35.3383 36.9789 36.2281 37.9014C37.2003 38.9078 37.4367 40.4373 36.8298 41.7432C36.527 42.3955 36.0528 42.892 35.4685 43.2953C34.6623 43.8504 33.8508 44.3989 33.0672 44.9846C32.7631 45.2109 32.528 45.5304 32.261 45.8073C32.2876 45.8539 32.3142 45.9005 32.342 45.9471V45.9457Z" fill="black"></path><path d="M43.1463 43.6374C44.428 43.7972 44.764 43.9742 44.7029 44.5107C44.5953 45.4665 43.8077 45.2415 43.1463 45.3067C43.1463 45.75 43.153 46.1773 43.145 46.6046C43.133 47.1784 42.8037 47.5391 42.3229 47.5258C41.858 47.5125 41.5659 47.1664 41.5552 46.61C41.5473 46.2106 41.5459 45.8126 41.5419 45.4132C41.5419 45.3973 41.534 45.3813 41.5101 45.2828C41.3587 45.2828 41.1847 45.2828 41.0107 45.2828C39.9163 45.2828 38.8193 45.3121 37.7276 45.2628C37.4434 45.2508 37.1047 45.0565 36.9108 44.8382C36.6651 44.5613 36.8085 44.2138 37.0157 43.9223C38.5523 41.7538 40.0877 39.5867 41.6177 37.4142C41.866 37.0628 42.1808 36.8844 42.5978 37.0202C43.0188 37.1573 43.153 37.502 43.1516 37.924C43.1477 39.8183 43.1503 41.7126 43.1503 43.6374H43.1463ZM41.5273 40.3122C40.6933 41.4916 39.9442 42.5512 39.1606 43.6601H41.5273V40.3122Z" fill="black"></path><path d="M27.7547 26.9644C27.7547 28.5605 27.7454 30.1579 27.76 31.754C27.764 32.2119 27.6153 32.5393 27.2328 32.8043C25.4358 34.0556 23.6482 35.3215 21.8592 36.5875C21.482 36.8537 21.1008 36.9429 20.7236 36.6207C20.2853 36.2467 20.3743 35.6823 20.9321 35.2869C22.4741 34.1913 24.0068 33.0825 25.5726 32.0215C26.0268 31.714 26.1769 31.3852 26.1716 30.8461C26.1437 28.0027 26.1583 25.1593 26.1596 22.3159C26.1596 22.1176 26.157 21.9126 26.1995 21.7209C26.2911 21.3095 26.5687 21.0952 26.9884 21.1112C27.4081 21.1272 27.6631 21.3614 27.7295 21.7781C27.756 21.9405 27.7507 22.1096 27.7507 22.276C27.7521 23.8388 27.7507 25.4029 27.7507 26.9657L27.7547 26.9644Z" fill="black"></path><path d="M27.7547 26.9644C27.7547 28.5605 27.7454 30.1579 27.76 31.754C27.764 32.2119 27.6153 32.5393 27.2328 32.8043C25.4358 34.0556 23.6482 35.3215 21.8592 36.5875C21.482 36.8537 21.1008 36.9429 20.7236 36.6207C20.2853 36.2467 20.3743 35.6823 20.9321 35.2869C22.4741 34.1913 24.0068 33.0825 25.5726 32.0215C26.0268 31.714 26.1769 31.3852 26.1716 30.8461C26.1437 28.0027 26.1583 25.1593 26.1596 22.3159C26.1596 22.1176 26.157 21.9126 26.1995 21.7209C26.2911 21.3095 26.5687 21.0952 26.9884 21.1112C27.4081 21.1272 27.6631 21.3614 27.7295 21.7781C27.756 21.9405 27.7507 22.1096 27.7507 22.276C27.7521 23.8388 27.7507 25.4029 27.7507 26.9657L27.7547 26.9644Z" fill="url(#paint0_linear_506_12147)"></path><path d="M49.7365 37.5274C49.7153 37.6033 49.69 37.7338 49.6409 37.8562C48.4456 40.8807 47.2463 43.9025 46.051 46.9269C45.8929 47.3262 45.6233 47.5592 45.1797 47.5153C44.8052 47.478 44.5714 47.249 44.5024 46.887C44.4731 46.7339 44.4957 46.5502 44.5542 46.4037C45.7574 43.3474 46.9674 40.2936 48.1786 37.2399C48.3486 36.8126 48.6767 36.6103 49.1269 36.7128C49.5054 36.7993 49.706 37.0762 49.7352 37.5274H49.7365Z" fill="black"></path><path d="M47.9249 32.0183C47.917 32.4469 47.5544 32.7997 47.1254 32.7997C46.6685 32.7997 46.3166 32.4269 46.3378 31.9663C46.3577 31.531 46.7217 31.1916 47.1533 31.2076C47.5796 31.2222 47.9342 31.5949 47.9263 32.0196L47.9249 32.0183Z" fill="black"></path><path d="M45.2235 21.8813C45.2289 22.2993 44.865 22.6787 44.4439 22.692C43.9964 22.7066 43.6298 22.3352 43.6364 21.876C43.6431 21.43 43.9804 21.1012 44.4267 21.1025C44.8636 21.1039 45.2182 21.4513 45.2235 21.8813Z" fill="black"></path><path d="M37.0608 13.712C37.4978 13.7187 37.8484 14.0701 37.8457 14.5001C37.8444 14.9221 37.4792 15.2935 37.0581 15.3014C36.6119 15.3094 36.2493 14.934 36.2613 14.4748C36.2732 14.0328 36.6159 13.7054 37.0608 13.712Z" fill="black"></path><path d="M32.9862 12.4575C32.9955 12.8861 32.6502 13.2468 32.2172 13.2615C31.7776 13.2761 31.419 12.95 31.3991 12.5147C31.3778 12.0608 31.7351 11.6814 32.1853 11.6787C32.613 11.6774 32.9782 12.0315 32.9875 12.4575H32.9862Z" fill="black"></path><path d="M41.2152 18.5055C40.7902 18.5055 40.4356 18.15 40.429 17.7161C40.421 17.2542 40.7783 16.9014 41.2404 16.9134C41.6774 16.9254 42.0147 17.2781 42.0068 17.7148C41.9988 18.1447 41.6389 18.5055 41.2165 18.5055H41.2152Z" fill="black"></path><path d="M46.4467 27.5637C46.0191 27.5663 45.6565 27.2149 45.6459 26.7849C45.6352 26.351 45.9739 25.9942 46.4109 25.9809C46.8731 25.9663 47.2396 26.319 47.2356 26.7743C47.2317 27.2029 46.8744 27.561 46.4467 27.5637Z" fill="black"></path></g><defs><linearGradient id="paint0_linear_506_12147" x1="22.8941" y1="26.4871" x2="34.3845" y2="31.1379" gradientUnits="userSpaceOnUse"><stop offset="0.236106" stop-color="#DA291C"></stop><stop offset="1" stop-color="#FFCD00"></stop></linearGradient><clipPath id="clip0_506_12147"><rect width="51" height="42" fill="white" transform="translate(6 11)"></rect></clipPath></defs></svg> 