<?xml version="1.0" encoding="UTF-8"?> <svg xmlns="http://www.w3.org/2000/svg" width="64" height="64" viewBox="0 0 64 64" fill="none"><path d="M30.5655 41.9439V45.5588H25.5536L34.3245 56.4035L43.0954 45.5588H38.0834V36M39.5 39.534H51.8663C56.7154 39.534 60.6372 35.7625 60.6372 31.0993C60.6372 26.4361 56.7154 22.6645 51.8663 22.6645C50.9391 22.6645 50.0369 22.8091 49.1974 23.0622C49.2977 22.544 49.3603 22.0018 49.3603 21.4596C49.3603 16.7964 45.4385 13.0248 40.5894 13.0248C38.3967 13.0248 36.4044 13.808 34.8633 15.0853C33.1592 10.3859 28.5106 7 23.0476 7C16.1186 7 10.5052 12.3982 10.5052 19.0496C10.5052 20.3148 10.7182 21.5439 11.0941 22.6886C6.5708 23.026 2.99979 26.653 2.99979 31.0872C2.99979 35.7504 6.92164 39.522 11.7707 39.522H21" stroke="white" stroke-miterlimit="10"></path><path d="M34.9062 15.2339C35.4309 16.2139 35.774 17.2476 35.9355 18.3216" stroke="white" stroke-miterlimit="10"></path><path d="M49.3156 23.4678C49.1263 24.2114 48.7714 24.9096 48.2863 25.5263" stroke="white" stroke-miterlimit="10"></path><path d="M11.2337 22.5101C12.2669 22.279 13.312 22.6092 14.3214 23.4677" stroke="white" stroke-miterlimit="10"></path><path d="M30.7892 32.731V34.7894" stroke="white" stroke-miterlimit="10"></path><path d="M30.7892 36.8479V39.9356" stroke="white" stroke-miterlimit="10"></path><path d="M23.0476 41.5V27.4724H18.0356L26.8066 16.6277L35.5775 27.4724H30.5655V29.8823" stroke="black" stroke-miterlimit="10"></path><path d="M23.0476 41.5V27.4724H18.0356L26.8066 16.6277L35.5775 27.4724H30.5655V29.8823" stroke="url(#paint0_linear_1373_28065)" stroke-miterlimit="10"></path><defs><linearGradient id="paint0_linear_1373_28065" x1="23.9069" y1="25.1366" x2="47.2113" y2="39.4317" gradientUnits="userSpaceOnUse"><stop offset="0.236106" stop-color="#DA291C"></stop><stop offset="1" stop-color="#FFCD00"></stop></linearGradient></defs></svg> 