<?xml version="1.0" encoding="UTF-8"?> <svg xmlns="http://www.w3.org/2000/svg" width="64" height="64" viewBox="0 0 64 64" fill="none"><g clip-path="url(#clip0_506_14101)"><path d="M5.99986 30.6018C6.12736 29.7498 6.21502 28.8886 6.38768 28.0459C7.72244 21.5072 11.3389 16.6364 17.1628 13.4362C20.1218 11.8095 23.3253 11.0335 26.7053 11.0002C27.4929 10.9922 27.7612 11.2385 27.7665 12.0252C27.7731 13.0396 27.7798 14.0552 27.7625 15.0696C27.7519 15.7139 27.3256 16.0773 26.7797 15.9415C26.3361 15.831 26.1794 15.5049 26.1767 15.0829C26.1728 14.2869 26.1767 13.4895 26.1767 12.6149C23.2735 12.7254 20.5999 13.4722 18.0074 14.8193C18.2332 15.2214 18.4471 15.6047 18.6622 15.9868C18.8256 16.2756 18.9956 16.5618 19.1576 16.8507C19.4724 17.4111 19.4086 17.8558 18.9796 18.114C18.5506 18.3723 18.1097 18.2125 17.791 17.6694C17.4045 17.0105 17.0273 16.3475 16.6142 15.6327C14.1811 17.1769 12.2181 19.1523 10.6191 21.6203C11.1596 21.9318 11.6856 22.2327 12.2088 22.5348C12.4094 22.6507 12.6153 22.7625 12.8078 22.8916C13.2222 23.1698 13.3364 23.6331 13.0987 24.0125C12.8716 24.3745 12.4293 24.4917 12.0083 24.2601C11.2831 23.8594 10.5699 23.4361 9.81025 22.9968C8.48744 25.5606 7.76229 28.2562 7.63744 31.2008C8.12885 31.2008 8.60166 31.2008 9.07314 31.2008C9.35471 31.2008 9.6376 31.2008 9.91916 31.2008C10.5978 31.2035 10.9657 31.4777 10.9737 31.9862C10.983 32.5094 10.6018 32.7956 9.89393 32.7982C9.32947 32.7982 8.76502 32.7982 8.20057 32.7982C8.03588 32.7982 7.87252 32.7982 7.64275 32.7982C7.74236 35.7108 8.48346 38.4105 9.80627 41.0036C10.5102 40.5963 11.1796 40.2036 11.8516 39.8189C12.3855 39.514 12.8689 39.5926 13.1067 40.0159C13.3484 40.4458 13.181 40.8865 12.6418 41.2059C11.9871 41.5933 11.327 41.9714 10.6178 42.3827C12.1756 44.8294 14.1532 46.7929 16.5996 48.3703C17.018 47.6502 17.4257 46.9553 17.8255 46.2551C18.0287 45.8997 18.3182 45.7146 18.7299 45.7905C19.2678 45.8904 19.5162 46.4761 19.228 47.0059C18.8402 47.7181 18.4245 48.4156 17.9915 49.1691C20.5468 50.5229 23.2283 51.2484 26.1595 51.3935C26.1595 50.7731 26.1595 50.1981 26.1595 49.623C26.1595 49.4739 26.1595 49.3235 26.1595 49.1744C26.1621 48.4036 26.4224 48.0296 26.9563 48.0269C27.4916 48.0242 27.7506 48.3943 27.7519 49.1691C27.7532 50.1169 27.7572 51.066 27.7506 52.0138C27.7453 52.7446 27.473 53.0055 26.7545 52.9989C17.0339 52.9163 8.62025 46.106 6.51252 36.5868C6.30799 35.6656 6.22697 34.7165 6.08486 33.7806C6.06494 33.6515 6.02775 33.5237 5.99854 33.3959C5.99854 32.4641 5.99854 31.5323 5.99854 30.6005L5.99986 30.6018Z" fill="white"></path><path d="M57.0001 38.1907C56.2736 39.2609 55.5139 40.3112 54.8273 41.4068C53.8179 43.0162 53.2282 44.7907 52.928 46.665C52.8284 47.288 52.4845 47.5901 51.9851 47.5089C51.491 47.4291 51.2679 47.0177 51.3595 46.4001C51.7407 43.8362 52.7461 41.5279 54.1791 39.3914C54.296 39.2184 54.4089 39.0426 54.5842 38.7777C53.8803 38.7777 53.2747 38.7777 52.6704 38.7777C52.0568 38.7777 51.4419 38.7897 50.8296 38.7724C50.2997 38.7564 49.9411 38.3997 49.9584 37.9431C49.9743 37.4798 50.3223 37.183 50.8814 37.1816C52.6066 37.1763 54.3319 37.1923 56.0571 37.171C56.498 37.1657 56.7663 37.3707 56.9987 37.6915V38.1907H57.0001Z" fill="white"></path><path d="M32.342 45.9457C32.5174 45.9457 32.6927 45.9457 32.8667 45.9457C34.0606 45.9457 35.2559 45.9404 36.4499 45.9497C37.0051 45.9537 37.3517 46.2705 37.3544 46.7324C37.3557 47.1864 37.0024 47.5325 36.4579 47.5365C34.7659 47.5498 33.0738 47.5511 31.3818 47.5365C30.7602 47.5312 30.4681 47.2024 30.5026 46.586C30.5677 45.4212 31.0763 44.4734 32.002 43.7812C32.9038 43.105 33.8521 42.49 34.7606 41.8217C35.5561 41.2373 35.7912 40.2509 35.3742 39.4309C35.0169 38.7281 34.2585 38.4152 33.37 38.6043C32.686 38.7494 32.1468 39.371 32.0897 40.0806C32.0831 40.1631 32.0897 40.2469 32.0831 40.3295C32.0459 40.8353 31.7218 41.1788 31.2835 41.1788C30.8174 41.1788 30.5079 40.8287 30.4933 40.2829C30.4588 38.9424 31.2357 37.7443 32.4802 37.2185C33.7379 36.6887 35.3383 36.9789 36.2281 37.9014C37.2003 38.9078 37.4367 40.4373 36.8298 41.7432C36.527 42.3955 36.0528 42.892 35.4685 43.2953C34.6623 43.8504 33.8508 44.3989 33.0672 44.9846C32.7631 45.2109 32.528 45.5304 32.261 45.8073C32.2876 45.8539 32.3142 45.9005 32.342 45.9471V45.9457Z" fill="white"></path><path d="M43.1464 43.6374C44.4281 43.7972 44.7641 43.9742 44.703 44.5107C44.5954 45.4665 43.8079 45.2415 43.1464 45.3067C43.1464 45.75 43.1531 46.1773 43.1451 46.6046C43.1332 47.1784 42.8038 47.5391 42.323 47.5258C41.8582 47.5125 41.566 47.1664 41.5554 46.61C41.5474 46.2106 41.5461 45.8126 41.5421 45.4132C41.5421 45.3973 41.5341 45.3813 41.5102 45.2828C41.3588 45.2828 41.1848 45.2828 41.0108 45.2828C39.9164 45.2828 38.8194 45.3121 37.7277 45.2628C37.4435 45.2508 37.1048 45.0565 36.9109 44.8382C36.6652 44.5613 36.8086 44.2138 37.0158 43.9223C38.5525 41.7538 40.0878 39.5867 41.6178 37.4142C41.8661 37.0628 42.1809 36.8844 42.5979 37.0202C43.0189 37.1573 43.1531 37.502 43.1518 37.924C43.1478 39.8183 43.1504 41.7126 43.1504 43.6374H43.1464ZM41.5275 40.3122C40.6934 41.4916 39.9443 42.5512 39.1607 43.6601H41.5275V40.3122Z" fill="white"></path><path d="M27.7547 26.9644C27.7547 28.5605 27.7454 30.1579 27.76 31.754C27.764 32.2119 27.6153 32.5393 27.2328 32.8043C25.4358 34.0556 23.6482 35.3215 21.8592 36.5875C21.482 36.8537 21.1008 36.9429 20.7236 36.6207C20.2853 36.2467 20.3743 35.6823 20.9321 35.2869C22.4741 34.1913 24.0068 33.0825 25.5726 32.0215C26.0268 31.714 26.1769 31.3852 26.1716 30.8461C26.1437 28.0027 26.1583 25.1593 26.1596 22.3159C26.1596 22.1176 26.157 21.9126 26.1995 21.7209C26.2911 21.3095 26.5687 21.0952 26.9884 21.1112C27.4081 21.1272 27.6631 21.3614 27.7295 21.7781C27.756 21.9405 27.7507 22.1096 27.7507 22.276C27.7521 23.8388 27.7507 25.4029 27.7507 26.9657L27.7547 26.9644Z" fill="black"></path><path d="M27.7547 26.9644C27.7547 28.5605 27.7454 30.1579 27.76 31.754C27.764 32.2119 27.6153 32.5393 27.2328 32.8043C25.4358 34.0556 23.6482 35.3215 21.8592 36.5875C21.482 36.8537 21.1008 36.9429 20.7236 36.6207C20.2853 36.2467 20.3743 35.6823 20.9321 35.2869C22.4741 34.1913 24.0068 33.0825 25.5726 32.0215C26.0268 31.714 26.1769 31.3852 26.1716 30.8461C26.1437 28.0027 26.1583 25.1593 26.1596 22.3159C26.1596 22.1176 26.157 21.9126 26.1995 21.7209C26.2911 21.3095 26.5687 21.0952 26.9884 21.1112C27.4081 21.1272 27.6631 21.3614 27.7295 21.7781C27.756 21.9405 27.7507 22.1096 27.7507 22.276C27.7521 23.8388 27.7507 25.4029 27.7507 26.9657L27.7547 26.9644Z" fill="url(#paint0_linear_506_14101)"></path><path d="M49.7364 37.5274C49.7151 37.6033 49.6899 37.7338 49.6408 37.8562C48.4454 40.8807 47.2462 43.9025 46.0508 46.9269C45.8928 47.3262 45.6232 47.5592 45.1796 47.5153C44.8051 47.478 44.5713 47.249 44.5022 46.887C44.473 46.7339 44.4956 46.5502 44.554 46.4037C45.7573 43.3474 46.9672 40.2936 48.1785 37.2399C48.3485 36.8126 48.6765 36.6103 49.1268 36.7128C49.5053 36.7993 49.7058 37.0762 49.7351 37.5274H49.7364Z" fill="white"></path><path d="M47.9249 32.0183C47.917 32.4469 47.5544 32.7997 47.1254 32.7997C46.6685 32.7997 46.3166 32.4269 46.3378 31.9663C46.3577 31.531 46.7217 31.1916 47.1533 31.2076C47.5796 31.2222 47.9342 31.5949 47.9263 32.0196L47.9249 32.0183Z" fill="white"></path><path d="M45.2234 21.8813C45.2287 22.2993 44.8648 22.6787 44.4438 22.692C43.9962 22.7066 43.6297 22.3352 43.6363 21.876C43.643 21.43 43.9803 21.1012 44.4266 21.1025C44.8635 21.1039 45.2181 21.4513 45.2234 21.8813Z" fill="white"></path><path d="M37.0608 13.712C37.4978 13.7187 37.8484 14.0701 37.8457 14.5001C37.8444 14.9221 37.4792 15.2935 37.0581 15.3014C36.6119 15.3094 36.2493 14.934 36.2613 14.4748C36.2732 14.0328 36.6159 13.7054 37.0608 13.712Z" fill="white"></path><path d="M32.9862 12.4575C32.9955 12.8861 32.6502 13.2468 32.2172 13.2615C31.7776 13.2761 31.419 12.95 31.3991 12.5147C31.3778 12.0608 31.7351 11.6814 32.1853 11.6787C32.613 11.6774 32.9782 12.0315 32.9875 12.4575H32.9862Z" fill="white"></path><path d="M41.2153 18.5055C40.7903 18.5055 40.4357 18.15 40.4291 17.7161C40.4211 17.2542 40.7784 16.9014 41.2406 16.9134C41.6775 16.9254 42.0149 17.2781 42.0069 17.7148C41.9989 18.1447 41.639 18.5055 41.2167 18.5055H41.2153Z" fill="white"></path><path d="M46.4466 27.5637C46.019 27.5663 45.6564 27.2149 45.6458 26.7849C45.6351 26.351 45.9738 25.9942 46.4107 25.9809C46.8729 25.9663 47.2395 26.319 47.2355 26.7743C47.2315 27.2029 46.8743 27.561 46.4466 27.5637Z" fill="white"></path></g><defs><linearGradient id="paint0_linear_506_14101" x1="22.8941" y1="26.4871" x2="34.3845" y2="31.1379" gradientUnits="userSpaceOnUse"><stop offset="0.236106" stop-color="#DA291C"></stop><stop offset="1" stop-color="#FFCD00"></stop></linearGradient><clipPath id="clip0_506_14101"><rect width="51" height="42" fill="white" transform="translate(6 11)"></rect></clipPath></defs></svg> 