<?xml version="1.0" encoding="UTF-8"?> <svg xmlns="http://www.w3.org/2000/svg" width="64" height="64" viewBox="0 0 64 64" fill="none"><g clip-path="url(#clip0_1373_28390)"><path d="M37.7192 38.1685C37.6129 38.8264 37.7723 39.4844 38.1618 40.0179C38.9763 41.1204 40.5168 41.3693 41.6323 40.5691L45.8465 37.5283C46.3777 37.1371 46.7318 36.5681 46.8204 35.9101C46.9266 35.2522 46.7672 34.5942 46.3777 34.0608C45.5809 32.9582 44.0227 32.7093 42.9072 33.5095L38.693 36.5503C38.1618 36.9415 37.8254 37.5105 37.7192 38.1863V38.1685Z" stroke="white" stroke-miterlimit="10"></path><path d="M40.6939 42.1696C40.5877 42.8275 40.747 43.4855 41.1366 44.0189C41.9511 45.1215 43.4915 45.3704 44.6071 44.5702L46.3069 43.3076C46.8381 42.9164 47.1922 42.3474 47.2807 41.6894C47.387 41.0315 47.2276 40.3735 46.8381 39.8401C46.0413 38.7376 44.5008 38.4886 43.3853 39.3066L41.6501 40.5514C41.1189 40.9426 40.7824 41.5294 40.6762 42.1874L40.6939 42.1696Z" stroke="white" stroke-miterlimit="10"></path><path d="M35.9132 32.407L35.081 33.0116C34.5498 33.4028 34.2134 33.9719 34.1071 34.6476C34.0009 35.3055 34.1602 35.9635 34.5498 36.497C35.3466 37.5995 36.9048 37.8484 38.0203 37.0482L43.9166 32.816C44.4478 32.4248 44.8019 31.8558 44.8904 31.1978C44.9967 30.5399 44.855 29.8997 44.4655 29.3662" stroke="white" stroke-miterlimit="10"></path><path d="M45.3508 44.001C45.3508 44.001 41.4377 47.2374 38.5869 48.7844C32.124 52.3232 29.6805 51.6119 26.5995 53.6568L22.7218 56.2353" stroke="white" stroke-miterlimit="10"></path><path d="M29.8221 23.9247L26.0861 18.4299L30.8314 15.1758C31.5043 14.6956 31.6459 13.7354 31.1147 13.113C30.92 12.8996 30.7075 12.704 30.4773 12.5262C29.2732 11.6548 28.8129 10.2856 29.2732 8.9519C29.6982 7.67157 30.9377 6.81801 32.2834 6.88914C33.6999 6.96027 34.8508 7.92052 35.2049 9.34312C35.3289 9.87659 35.5237 10.3745 36.0372 10.659C36.5152 10.9258 36.9933 10.9613 37.5068 10.6057L41.3491 7.97387L44.1645 12.135C44.6957 12.9352 44.4301 13.5753 43.5093 13.7532C42.1282 14.0021 41.1544 15.158 41.0835 16.5628C41.0127 17.9854 41.9512 19.3013 43.3323 19.6747C44.7134 20.0659 46.183 19.4613 46.8382 18.2343C47.0506 17.8253 47.4756 17.6653 47.8829 17.9142C48.0953 18.0387 48.3255 18.2521 48.4849 18.4833C49.5119 19.977 50.5211 21.4885 51.5304 22.9645L51.7783 23.3379L38.6931 32.3002C37.4714 33.136 35.8247 32.8159 35.0102 31.6067L33.1156 28.8327" stroke="black" stroke-miterlimit="10" stroke-linecap="square"></path><path d="M29.8221 23.9247L26.0861 18.4299L30.8314 15.1758C31.5043 14.6956 31.6459 13.7354 31.1147 13.113C30.92 12.8996 30.7075 12.704 30.4773 12.5262C29.2732 11.6548 28.8129 10.2856 29.2732 8.9519C29.6982 7.67157 30.9377 6.81801 32.2834 6.88914C33.6999 6.96027 34.8508 7.92052 35.2049 9.34312C35.3289 9.87659 35.5237 10.3745 36.0372 10.659C36.5152 10.9258 36.9933 10.9613 37.5068 10.6057L41.3491 7.97387L44.1645 12.135C44.6957 12.9352 44.4301 13.5753 43.5093 13.7532C42.1282 14.0021 41.1544 15.158 41.0835 16.5628C41.0127 17.9854 41.9512 19.3013 43.3323 19.6747C44.7134 20.0659 46.183 19.4613 46.8382 18.2343C47.0506 17.8253 47.4756 17.6653 47.8829 17.9142C48.0953 18.0387 48.3255 18.2521 48.4849 18.4833C49.5119 19.977 50.5211 21.4885 51.5304 22.9645L51.7783 23.3379L38.6931 32.3002C37.4714 33.136 35.8247 32.8159 35.0102 31.6067L33.1156 28.8327" stroke="url(#paint0_linear_1373_28390)" stroke-miterlimit="10" stroke-linecap="square"></path><path d="M30.8845 40.0711C31.6282 36.2478 29.3795 31.7133 29.3795 31.7133L30.6544 30.8064C33.0447 29.2949 34.2665 25.4539 32.3719 22.751L30.1409 24.387L24.3862 28.5836C23.1999 29.5083 22.4916 30.9131 22.4385 32.4068C22.4385 32.4068 22.0312 36.3901 20.0304 39.6087C18.1004 42.7206 11.5312 47.8064 11.5312 47.8064" stroke="white" stroke-miterlimit="10"></path></g><defs><linearGradient id="paint0_linear_1373_28390" x1="34.6853" y1="15.7394" x2="61.5989" y2="38.9757" gradientUnits="userSpaceOnUse"><stop offset="0.236106" stop-color="#DA291C"></stop><stop offset="1" stop-color="#FFCD00"></stop></linearGradient><clipPath id="clip0_1373_28390"><rect width="42" height="51" fill="white" transform="translate(11 6)"></rect></clipPath></defs></svg> 