<?xml version="1.0" encoding="UTF-8"?> <svg xmlns="http://www.w3.org/2000/svg" width="407.606" height="149.184" viewBox="0 0 407.606 149.184"><g id="Oracle-responsys-logo" transform="translate(-24.794 -14.094)"><text id="RESPONSYS" transform="translate(106.049 150.278)" fill="#fff" font-size="52.8" font-family="SegoeUI, Segoe UI"><tspan x="0" y="0">RESPONSYS</tspan></text><g id="Group_2" data-name="Group 2"><g id="Group_1" data-name="Group 1"><path id="Path_81" data-name="Path 81" d="M199.6,48.3h26.6L212.1,25.6,186.2,66.7H174.4L206,17.3a7.523,7.523,0,0,1,10.4-1.9,7.69,7.69,0,0,1,1.8,1.8l31.6,49.3H238l-5.5-9.2h-27l-5.9-9m122.3,9.1V14.6h-10v47a4.691,4.691,0,0,0,1.5,3.5,5.075,5.075,0,0,0,3.6,1.5h45.5l5.9-9.2H321.9M156.5,49.8a17.6,17.6,0,1,0,0-35.2H112.8v52h10V23.8h33.1a8.4,8.4,0,0,1,0,16.8H127.7l29.8,25.9H172L152,49.7h4.5M51.4,66.6H81.6a26.009,26.009,0,0,0,0-52H51.4a25.958,25.958,0,0,0-1.3,51.9,5.7,5.7,0,0,0,1.3.1m29.5-9.2H52.1a16.859,16.859,0,0,1,0-33.7H80.9A16.859,16.859,0,0,1,82,57.4H80.9m189.7,9.2h30.8l5.8-9.1h-36a16.859,16.859,0,0,1-1.1-33.7h30.4l5.9-9.2H270.5a25.958,25.958,0,0,0-1.3,51.9,7.085,7.085,0,0,0,1.4.1m122.2-9.2a16.92,16.92,0,0,1-16.2-12.2h42.7l5.9-9.2H376.6a16.83,16.83,0,0,1,16.2-12.2h29.3l5.9-9.2H392.2a25.958,25.958,0,0,0,0,51.9H423l5.9-9.1H392.8" fill="#ed1c24"></path></g></g><rect id="Rectangle_1" data-name="Rectangle 1" width="393.9" height="3.6" transform="translate(38.5 89.3)" fill="#fff"></rect></g></svg> 