<?xml version="1.0" encoding="UTF-8"?> <svg xmlns="http://www.w3.org/2000/svg" width="64" height="64" viewBox="0 0 64 64" fill="none"><path d="M45.3 22.5001L41 23.0001C40.4 22.2001 39.7 21.6001 39 21.0001L39.5 16.7001C39.6 16.0001 39.1 15.3001 38.4 15.1001L31.7 13.3001C31 13.1001 30.3 13.4001 30 14.1001L28.3 18.1001C27.3 18.2001 26.4 18.5001 25.5 18.8001L22 16.2001C21.4 15.8001 20.6 15.8001 20.1 16.3001L15.2 21.2001C14.7 21.7001 14.6 22.5001 15.1 23.1001L17.7 26.6001C17.4 27.5001 17.1 28.4001 17 29.4001L13 31.1001C12.3 31.4001 12 32.1001 12.2 32.8001L14 39.5001C14.2 40.2001 14.9 40.7001 15.6 40.6001L19.9 40.1001C20.5 40.9001 21.2 41.5001 21.9 42.1001L21.4 46.4001C21.3 47.1001 21.8 47.8001 22.5 48.0001L29.2 49.8001C29.9 50.0001 30.6 49.7001 30.9 49.0001L32.6 45.0001C33.5 44.9001 34.5 44.6001 35.4 44.3001L38.9 46.9001C39.5 47.3001 40.3 47.3001 40.8 46.8001L45.7 41.9001C46.2 41.4001 46.3 40.6001 45.8 40.0001L43.2 36.5001C43.5 35.6001 43.8 34.7001 43.9 33.7001L47.9 32.0001C48.6 31.7001 48.9 31.0001 48.7 30.3001L46.9 23.6001C46.7 22.9001 46 22.4001 45.3 22.5001Z" stroke="white" stroke-miterlimit="10"></path><path d="M29.0001 40.3002V34.9002C29.0001 34.7002 28.9001 34.4002 28.6001 34.4002C25.5001 33.1002 25.2001 28.4002 28.1001 26.7002V30.4002C28.1001 30.7002 28.4001 31.0002 28.7001 31.0002H31.9001C32.2001 31.0002 32.5001 30.7002 32.5001 30.4002V26.8002C35.4001 28.5002 35.2001 33.1002 32.1001 34.4002C31.9001 34.5002 31.7001 34.7002 31.7001 34.9002V40.3002" stroke="black" stroke-linejoin="round"></path><path d="M29.0001 40.3002V34.9002C29.0001 34.7002 28.9001 34.4002 28.6001 34.4002C25.5001 33.1002 25.2001 28.4002 28.1001 26.7002V30.4002C28.1001 30.7002 28.4001 31.0002 28.7001 31.0002H31.9001C32.2001 31.0002 32.5001 30.7002 32.5001 30.4002V26.8002C35.4001 28.5002 35.2001 33.1002 32.1001 34.4002C31.9001 34.5002 31.7001 34.7002 31.7001 34.9002V40.3002" stroke="url(#paint0_linear_1576_34809)" stroke-linejoin="round"></path><path d="M27.8 39.7003C23.3 38.3003 20.9 33.5003 22.3 29.0003C25.4 19.9003 38.7 21.9003 38.9 31.6003C38.9 35.3003 36.5 38.6003 33 39.7003" stroke="white" stroke-linejoin="round"></path><path d="M55.6 35.4C53.7 47.8 43.2 57.2 30.4 57.2C16.3 57.2 5 45.8 5 31.6C5 17.4 16.3 6 30.4 6C43.6 6 54.4 16.1 55.7 29" stroke="white" stroke-linejoin="round"></path><path d="M49.8001 41.5C50.0001 41.7 50.3001 41.7 50.5001 41.4L55.5001 35.6L58.6001 42.6C58.7001 42.9 59.0001 43 59.3001 42.9C59.6001 42.8 59.7001 42.5 59.6001 42.2L56.2001 34.5C56.1001 34.3 56.0001 34.2 55.8001 34.2C55.6001 34.2 55.5001 34.2 55.3001 34.4L49.8001 40.8C49.7001 40.9 49.7001 41 49.7001 41.1C49.6001 41.2 49.7001 41.3 49.8001 41.5Z" fill="white"></path><defs><linearGradient id="paint0_linear_1576_34809" x1="28.9235" y1="31.3528" x2="40.8934" y2="37.8332" gradientUnits="userSpaceOnUse"><stop offset="0.236106" stop-color="#DA291C"></stop><stop offset="1" stop-color="#FFCD00"></stop></linearGradient></defs></svg> 