<?xml version="1.0" encoding="UTF-8"?> <svg xmlns="http://www.w3.org/2000/svg" width="64" height="64" viewBox="0 0 64 64" fill="none"><g clip-path="url(#clip0_1557_32839)"><path d="M17.49 49.87H8.37C7.34 49.87 6.5 49.03 6.5 48V15.37C6.5 14.34 7.34 13.5 8.37 13.5H17.49V49.87Z" stroke="black" stroke-miterlimit="10"></path><path d="M57.37 48C57.37 49.03 56.53 49.87 55.5 49.87H19.19V13.5H55.5C56.53 13.5 57.37 14.34 57.37 15.37V48Z" stroke="black" stroke-miterlimit="10"></path><path d="M50.46 16.28H55.2" stroke="black" stroke-linecap="round" stroke-linejoin="round"></path><path d="M43.5 16.28H48.24" stroke="black" stroke-linecap="round" stroke-linejoin="round"></path><path d="M36.53 16.28H41.27" stroke="black" stroke-linecap="round" stroke-linejoin="round"></path><path d="M29.57 16.28H34.31" stroke="black" stroke-linecap="round" stroke-linejoin="round"></path><path d="M22.61 16.28H27.34" stroke="black" stroke-linecap="round" stroke-linejoin="round"></path><path d="M9.13 16.28H14.86" stroke="black" stroke-linecap="round" stroke-linejoin="round"></path><path d="M9.13 19.47H14.86" stroke="black" stroke-linecap="round" stroke-linejoin="round"></path><path d="M9.13 22.6599H14.86" stroke="black" stroke-linecap="round" stroke-linejoin="round"></path><path d="M9.13 25.8501H14.86" stroke="black" stroke-linecap="round" stroke-linejoin="round"></path><path d="M9.13 29.04H14.86" stroke="black" stroke-linecap="round" stroke-linejoin="round"></path><path d="M9.13 32.23H14.86" stroke="black" stroke-linecap="round" stroke-linejoin="round"></path><path d="M9.63 42.6299H13.36" stroke="black" stroke-linecap="round" stroke-linejoin="round"></path><path d="M9.63 45.8201H13.36" stroke="black" stroke-linecap="round" stroke-linejoin="round"></path><path d="M32.5385 32H31.4817C31.4192 31.696 31.3098 31.429 31.1536 31.1989C31.0002 30.9688 30.8127 30.7756 30.5911 30.6193C30.3723 30.4602 30.1294 30.3409 29.8624 30.2614C29.5953 30.1818 29.3169 30.142 29.0272 30.142C28.4988 30.142 28.0201 30.2756 27.5911 30.5426C27.165 30.8097 26.8255 31.2031 26.5726 31.723C26.3226 32.2429 26.1976 32.8807 26.1976 33.6364C26.1976 34.392 26.3226 35.0298 26.5726 35.5497C26.8255 36.0696 27.165 36.4631 27.5911 36.7301C28.0201 36.9972 28.4988 37.1307 29.0272 37.1307C29.3169 37.1307 29.5953 37.0909 29.8624 37.0114C30.1294 36.9318 30.3723 36.8139 30.5911 36.6577C30.8127 36.4986 31.0002 36.304 31.1536 36.0739C31.3098 35.8409 31.4192 35.5739 31.4817 35.2727H32.5385C32.459 35.7187 32.3141 36.1179 32.1039 36.4702C31.8936 36.8224 31.6323 37.1222 31.3198 37.3693C31.0073 37.6136 30.6564 37.7997 30.2672 37.9276C29.8809 38.0554 29.4675 38.1193 29.0272 38.1193C28.2828 38.1193 27.6209 37.9375 27.0414 37.5739C26.4618 37.2102 26.0059 36.6932 25.6735 36.0227C25.3411 35.3523 25.1749 34.5568 25.1749 33.6364C25.1749 32.7159 25.3411 31.9205 25.6735 31.25C26.0059 30.5795 26.4618 30.0625 27.0414 29.6989C27.6209 29.3352 28.2828 29.1534 29.0272 29.1534C29.4675 29.1534 29.8809 29.2173 30.2672 29.3452C30.6564 29.473 31.0073 29.6605 31.3198 29.9077C31.6323 30.152 31.8936 30.4503 32.1039 30.8026C32.3141 31.152 32.459 31.5511 32.5385 32ZM34.2463 38V29.2727H37.1951C37.877 29.2727 38.4366 29.3892 38.8741 29.6222C39.3116 29.8523 39.6355 30.169 39.8457 30.5724C40.0559 30.9759 40.161 31.4347 40.161 31.9489C40.161 32.4631 40.0559 32.919 39.8457 33.3168C39.6355 33.7145 39.313 34.027 38.8784 34.2543C38.4437 34.4787 37.8883 34.5909 37.2122 34.5909H34.8258V33.6364H37.1781C37.644 33.6364 38.019 33.5682 38.3031 33.4318C38.59 33.2955 38.7974 33.1023 38.9252 32.8523C39.0559 32.5994 39.1213 32.2983 39.1213 31.9489C39.1213 31.5994 39.0559 31.294 38.9252 31.0327C38.7946 30.7713 38.5858 30.5696 38.2988 30.4276C38.0119 30.2827 37.6326 30.2102 37.161 30.2102H35.3031V38H34.2463ZM38.3542 34.0795L40.502 38H39.2747L37.161 34.0795H38.3542ZM41.9221 29.2727H43.1834L46.1493 36.517H46.2516L49.2175 29.2727H50.4789V38H49.4902V31.3693H49.405L46.6777 38H45.7232L42.9959 31.3693H42.9107V38H41.9221V29.2727Z" fill="black"></path><path d="M32.5385 32H31.4817C31.4192 31.696 31.3098 31.429 31.1536 31.1989C31.0002 30.9688 30.8127 30.7756 30.5911 30.6193C30.3723 30.4602 30.1294 30.3409 29.8624 30.2614C29.5953 30.1818 29.3169 30.142 29.0272 30.142C28.4988 30.142 28.0201 30.2756 27.5911 30.5426C27.165 30.8097 26.8255 31.2031 26.5726 31.723C26.3226 32.2429 26.1976 32.8807 26.1976 33.6364C26.1976 34.392 26.3226 35.0298 26.5726 35.5497C26.8255 36.0696 27.165 36.4631 27.5911 36.7301C28.0201 36.9972 28.4988 37.1307 29.0272 37.1307C29.3169 37.1307 29.5953 37.0909 29.8624 37.0114C30.1294 36.9318 30.3723 36.8139 30.5911 36.6577C30.8127 36.4986 31.0002 36.304 31.1536 36.0739C31.3098 35.8409 31.4192 35.5739 31.4817 35.2727H32.5385C32.459 35.7187 32.3141 36.1179 32.1039 36.4702C31.8936 36.8224 31.6323 37.1222 31.3198 37.3693C31.0073 37.6136 30.6564 37.7997 30.2672 37.9276C29.8809 38.0554 29.4675 38.1193 29.0272 38.1193C28.2828 38.1193 27.6209 37.9375 27.0414 37.5739C26.4618 37.2102 26.0059 36.6932 25.6735 36.0227C25.3411 35.3523 25.1749 34.5568 25.1749 33.6364C25.1749 32.7159 25.3411 31.9205 25.6735 31.25C26.0059 30.5795 26.4618 30.0625 27.0414 29.6989C27.6209 29.3352 28.2828 29.1534 29.0272 29.1534C29.4675 29.1534 29.8809 29.2173 30.2672 29.3452C30.6564 29.473 31.0073 29.6605 31.3198 29.9077C31.6323 30.152 31.8936 30.4503 32.1039 30.8026C32.3141 31.152 32.459 31.5511 32.5385 32ZM34.2463 38V29.2727H37.1951C37.877 29.2727 38.4366 29.3892 38.8741 29.6222C39.3116 29.8523 39.6355 30.169 39.8457 30.5724C40.0559 30.9759 40.161 31.4347 40.161 31.9489C40.161 32.4631 40.0559 32.919 39.8457 33.3168C39.6355 33.7145 39.313 34.027 38.8784 34.2543C38.4437 34.4787 37.8883 34.5909 37.2122 34.5909H34.8258V33.6364H37.1781C37.644 33.6364 38.019 33.5682 38.3031 33.4318C38.59 33.2955 38.7974 33.1023 38.9252 32.8523C39.0559 32.5994 39.1213 32.2983 39.1213 31.9489C39.1213 31.5994 39.0559 31.294 38.9252 31.0327C38.7946 30.7713 38.5858 30.5696 38.2988 30.4276C38.0119 30.2827 37.6326 30.2102 37.161 30.2102H35.3031V38H34.2463ZM38.3542 34.0795L40.502 38H39.2747L37.161 34.0795H38.3542ZM41.9221 29.2727H43.1834L46.1493 36.517H46.2516L49.2175 29.2727H50.4789V38H49.4902V31.3693H49.405L46.6777 38H45.7232L42.9959 31.3693H42.9107V38H41.9221V29.2727Z" fill="url(#paint0_linear_1557_32839)"></path></g><defs><linearGradient id="paint0_linear_1557_32839" x1="33.3717" y1="31.1579" x2="51.4588" y2="55.6286" gradientUnits="userSpaceOnUse"><stop offset="0.236106" stop-color="#DA291C"></stop><stop offset="1" stop-color="#FFCD00"></stop></linearGradient><clipPath id="clip0_1557_32839"><rect width="51.87" height="37.37" fill="white" transform="translate(6 13)"></rect></clipPath></defs></svg> 