<?xml version="1.0" encoding="UTF-8"?> <svg xmlns="http://www.w3.org/2000/svg" width="64" height="64" viewBox="0 0 64 64" fill="none"><g clip-path="url(#clip0_497_13580)"><path d="M53.47 23.02C53.05 22.53 52.44 22.25 51.79 22.25H42.9V17.37C42.9 16.06 41.84 15 40.53 15H15.54C14.23 15 13.17 16.06 13.17 17.37V18.88H9.13C8.9 18.88 8.72 19.06 8.72 19.29C8.72 19.52 8.9 19.7 9.13 19.7H13.17V23.09H7.89C7.66 23.09 7.48 23.27 7.48 23.5C7.48 23.73 7.66 23.91 7.89 23.91H13.17V27.3H7.07C6.84 27.3 6.66 27.48 6.66 27.71C6.66 27.94 6.84 28.12 7.07 28.12H13.17V31.51H5.41C5.18 31.51 5 31.69 5 31.92C5 32.15 5.18 32.33 5.41 32.33H13.17V41.04C13.17 42.35 14.23 43.41 15.54 43.41H19.49C19.7 45.97 21.84 47.98 24.45 47.98C27.06 47.98 29.2 45.96 29.41 43.41H45.41C45.62 45.97 47.76 47.98 50.37 47.98C52.98 47.98 55.12 45.96 55.33 43.41H57.05C57.95 43.41 58.68 42.68 58.68 41.78V29.91C58.68 29.36 58.48 28.83 58.12 28.42L53.45 23.01L53.47 23.02ZM24.45 47.19C22.16 47.19 20.29 45.32 20.29 43.03C20.29 40.74 22.16 38.87 24.45 38.87C26.74 38.87 28.61 40.74 28.61 43.03C28.61 45.32 26.74 47.19 24.45 47.19ZM42.07 41.08C42.07 41.93 41.38 42.62 40.52 42.62H29.41C29.2 40.07 27.06 38.05 24.45 38.05C21.84 38.05 19.7 40.07 19.49 42.62H15.54C14.69 42.62 14 41.93 14 41.08V36.2H42.08V41.08H42.07ZM42.07 35.38H14V32.37H17.64C17.87 32.37 18.05 32.19 18.05 31.96C18.05 31.73 17.87 31.55 17.64 31.55H14V28.16H20.53C20.76 28.16 20.94 27.98 20.94 27.75C20.94 27.52 20.76 27.34 20.53 27.34H14V23.95H23.42C23.65 23.95 23.83 23.77 23.83 23.54C23.83 23.31 23.65 23.13 23.42 23.13H14V19.74H30.44C30.67 19.74 30.85 19.56 30.85 19.33C30.85 19.1 30.67 18.92 30.44 18.92H14V17.41C14 16.56 14.69 15.87 15.54 15.87H40.53C41.38 15.87 42.08 16.56 42.08 17.41V35.37L42.07 35.38ZM54.54 43.04C54.54 45.33 52.67 47.2 50.38 47.2C48.09 47.2 46.23 45.34 46.22 43.05C46.22 40.76 48.09 38.9 50.38 38.9C52.67 38.9 54.54 40.76 54.54 43.06V43.04ZM57.87 41.82C57.87 42.26 57.51 42.62 57.07 42.62H55.35C55.14 40.07 53 38.05 50.39 38.05C47.78 38.05 45.64 40.07 45.43 42.62H42.33C42.69 42.2 42.91 41.67 42.91 41.08V23.08H51.8C52.2 23.08 52.59 23.26 52.85 23.56L54.27 25.21H47.5C46.85 25.21 46.33 25.74 46.33 26.38V32.08C46.33 32.73 46.86 33.25 47.5 33.25H57.87V41.8V41.82ZM57.87 32.44H47.5C47.31 32.44 47.15 32.28 47.15 32.09V26.39C47.15 26.2 47.31 26.04 47.5 26.04H54.99L57.52 28.97C57.75 29.23 57.87 29.57 57.87 29.92V32.44Z" fill="white"></path><path d="M50.39 40.8604C49.2 40.8604 48.23 41.8304 48.23 43.0204C48.23 44.2104 49.2 45.1804 50.39 45.1804C51.58 45.1804 52.55 44.2104 52.55 43.0204C52.55 41.8304 51.58 40.8604 50.39 40.8604ZM50.39 44.3604C49.65 44.3604 49.05 43.7604 49.05 43.0204C49.05 42.2804 49.65 41.6804 50.39 41.6804C51.13 41.6804 51.73 42.2804 51.73 43.0204C51.73 43.7604 51.13 44.3604 50.39 44.3604Z" fill="black"></path><path d="M50.39 40.8604C49.2 40.8604 48.23 41.8304 48.23 43.0204C48.23 44.2104 49.2 45.1804 50.39 45.1804C51.58 45.1804 52.55 44.2104 52.55 43.0204C52.55 41.8304 51.58 40.8604 50.39 40.8604ZM50.39 44.3604C49.65 44.3604 49.05 43.7604 49.05 43.0204C49.05 42.2804 49.65 41.6804 50.39 41.6804C51.13 41.6804 51.73 42.2804 51.73 43.0204C51.73 43.7604 51.13 44.3604 50.39 44.3604Z" fill="url(#paint0_linear_497_13580)"></path><path d="M24.45 40.8604C23.26 40.8604 22.29 41.8304 22.29 43.0204C22.29 44.2104 23.26 45.1804 24.45 45.1804C25.64 45.1804 26.61 44.2104 26.61 43.0204C26.61 41.8304 25.64 40.8604 24.45 40.8604ZM24.45 44.3604C23.71 44.3604 23.11 43.7604 23.11 43.0204C23.11 42.2804 23.71 41.6804 24.45 41.6804C25.19 41.6804 25.79 42.2804 25.79 43.0204C25.79 43.7604 25.19 44.3604 24.45 44.3604Z" fill="black"></path><path d="M24.45 40.8604C23.26 40.8604 22.29 41.8304 22.29 43.0204C22.29 44.2104 23.26 45.1804 24.45 45.1804C25.64 45.1804 26.61 44.2104 26.61 43.0204C26.61 41.8304 25.64 40.8604 24.45 40.8604ZM24.45 44.3604C23.71 44.3604 23.11 43.7604 23.11 43.0204C23.11 42.2804 23.71 41.6804 24.45 41.6804C25.19 41.6804 25.79 42.2804 25.79 43.0204C25.79 43.7604 25.19 44.3604 24.45 44.3604Z" fill="url(#paint1_linear_497_13580)"></path></g><defs><linearGradient id="paint0_linear_497_13580" x1="49.6759" y1="42.3382" x2="54.1728" y2="46.2494" gradientUnits="userSpaceOnUse"><stop offset="0.236106" stop-color="#DA291C"></stop><stop offset="1" stop-color="#FFCD00"></stop></linearGradient><linearGradient id="paint1_linear_497_13580" x1="23.736" y1="42.3382" x2="28.2328" y2="46.2494" gradientUnits="userSpaceOnUse"><stop offset="0.236106" stop-color="#DA291C"></stop><stop offset="1" stop-color="#FFCD00"></stop></linearGradient><clipPath id="clip0_497_13580"><rect width="53.69" height="33.01" fill="white" transform="translate(5 15)"></rect></clipPath></defs></svg> 