<?xml version="1.0" encoding="UTF-8"?> <svg xmlns="http://www.w3.org/2000/svg" width="64" height="64" viewBox="0 0 64 64" fill="none"><path d="M19.9999 47.6138C14.9076 44.5419 11.2154 39.4609 10.0768 33.5M20.9878 11C24.0595 9.3597 27.5827 8.42749 31.3283 8.42749C35.4164 8.42749 39.2396 9.53799 42.4999 11.4676M52.5798 33.5C51.4412 39.4609 47.749 44.5419 42.6567 47.6138" stroke="black" stroke-linecap="round" stroke-linejoin="round"></path><path d="M19.9999 47.6138C14.9076 44.5419 11.2154 39.4609 10.0768 33.5M20.9878 11C24.0595 9.3597 27.5827 8.42749 31.3283 8.42749C35.4164 8.42749 39.2396 9.53799 42.4999 11.4676M52.5798 33.5C51.4412 39.4609 47.749 44.5419 42.6567 47.6138" stroke="url(#paint0_linear_1373_28118)" stroke-linecap="round" stroke-linejoin="round"></path><path d="M18.0797 13.103C18.0797 15.3736 16.1947 17.2185 13.8747 17.2185C11.5547 17.2185 9.66968 15.3736 9.66968 13.103C9.66968 10.8324 11.5547 8.98755 13.8747 8.98755C16.1947 8.98755 18.0797 10.8324 18.0797 13.103Z" stroke="white" stroke-linecap="round" stroke-linejoin="round"></path><path d="M22.6893 30.4911V24.2694C22.6893 22.4245 21.1629 20.9307 19.2779 20.9307H8.46394C6.57894 20.9307 5.05261 22.4245 5.05261 24.2694V30.4911" stroke="white" stroke-linecap="square" stroke-linejoin="bevel"></path><path d="M9.76135 26.271V30.491" stroke="white" stroke-linecap="round" stroke-linejoin="bevel"></path><path d="M17.9882 30.491V26.271" stroke="white" stroke-linecap="round" stroke-linejoin="bevel"></path><path d="M53.3303 13.103C53.3303 15.3736 51.4453 17.2185 49.1253 17.2185C46.8053 17.2185 44.9203 15.3736 44.9203 13.103C44.9203 10.8324 46.8053 8.98755 49.1253 8.98755C51.4453 8.98755 53.3303 10.8324 53.3303 13.103Z" stroke="white" stroke-linecap="round" stroke-linejoin="round"></path><path d="M57.9474 30.4911V24.2694C57.9474 22.4245 56.4211 20.9307 54.5361 20.9307H43.7144C41.8294 20.9307 40.3031 22.4245 40.3031 24.2694V30.4911" stroke="white" stroke-linecap="square" stroke-linejoin="bevel"></path><path d="M45.0194 26.271V30.491" stroke="white" stroke-linecap="round" stroke-linejoin="bevel"></path><path d="M53.2463 30.491V26.271" stroke="white" stroke-linecap="round" stroke-linejoin="bevel"></path><path d="M35.7775 37.6243C35.7775 39.8949 33.8925 41.7398 31.5724 41.7398C29.2524 41.7398 27.3674 39.8949 27.3674 37.6243C27.3674 35.3537 29.2524 33.5088 31.5724 33.5088C33.8925 33.5088 35.7775 35.3537 35.7775 37.6243Z" stroke="white" stroke-linecap="round" stroke-linejoin="round"></path><path d="M40.3947 55.0124V48.7906C40.3947 46.9457 38.8683 45.4519 36.9833 45.4519H26.1617C24.2767 45.4519 22.7504 46.9457 22.7504 48.7906V55.0124" stroke="white" stroke-linecap="square" stroke-linejoin="bevel"></path><path d="M27.4591 50.7925V55.0125" stroke="white" stroke-linecap="round" stroke-linejoin="round"></path><path d="M35.6859 55.0125V50.7925" stroke="white" stroke-linecap="round" stroke-linejoin="round"></path><path d="M9.76135 27.4663V30.4913" stroke="white" stroke-linecap="square" stroke-linejoin="bevel"></path><path d="M17.9883 30.4913V27.4663" stroke="white" stroke-linecap="square" stroke-linejoin="bevel"></path><path d="M45.0194 27.4663V30.4913" stroke="white" stroke-linecap="square" stroke-linejoin="bevel"></path><path d="M53.2463 30.4913V27.4663" stroke="white" stroke-linecap="square" stroke-linejoin="bevel"></path><path d="M27.4591 51.9873V55.0123" stroke="white" stroke-linecap="square" stroke-linejoin="bevel"></path><path d="M35.6859 55.0123V51.9873" stroke="white" stroke-linecap="square" stroke-linejoin="bevel"></path><defs><linearGradient id="paint0_linear_1373_28118" x1="24.3026" y1="21.8333" x2="65.4214" y2="60.6231" gradientUnits="userSpaceOnUse"><stop offset="0.236106" stop-color="#DA291C"></stop><stop offset="1" stop-color="#FFCD00"></stop></linearGradient></defs></svg> 