<?xml version="1.0" encoding="UTF-8"?> <svg xmlns="http://www.w3.org/2000/svg" width="64" height="64" viewBox="0 0 64 64" fill="none"><g clip-path="url(#clip0_1576_35902)"><path fill-rule="evenodd" clip-rule="evenodd" d="M7.24001 32.2902C7.46001 32.4702 7.64001 32.6802 7.70001 32.9502C7.78001 33.3602 7.54001 33.6902 7.31001 34.0102L7.26001 34.0802C6.95001 34.5002 6.84001 34.8302 6.93001 35.0102C7.24001 35.6302 9.52001 35.6402 10.62 35.6502C10.86 35.6502 11.08 35.6502 11.28 35.6502H11.5C11.66 32.5802 14.21 30.1302 17.31 30.1302C20.41 30.1302 22.9 32.5202 23.12 35.5302L42.72 35.4702C42.87 32.3902 45.43 29.9202 48.55 29.9202C51.07 29.9202 53.32 31.5802 54.1 33.9402C54.47 33.7202 54.62 33.5602 54.62 33.5602C54.66 33.5102 54.7 33.4802 54.75 33.4602C55.63 33.0202 56.09 30.7602 55.71 28.7202C55.49 27.5002 55 26.7002 54.44 26.6202C53 26.6502 51.11 26.3702 51.03 26.3502C51.03 26.3502 51.03 26.3502 51.02 26.3502L48.39 25.8602C48.39 25.8602 48.35 25.8602 48.32 25.8402C47.07 25.4002 39.16 23.5502 39.08 23.5302C31.86 21.9902 26.23 23.7502 26.18 23.7702C21.09 25.5502 19.31 27.1802 19.29 27.2002C19.23 27.2602 19.15 27.3002 19.07 27.3102L16.74 27.7502C10.36 29.6202 7.98001 31.5302 7.25001 32.2802L7.24001 32.2902ZM11.26 36.5402H11.25C11.05 36.5402 10.83 36.5402 10.59 36.5402C8.84001 36.5402 6.67001 36.5202 6.11001 35.4102C5.85001 34.9002 5.99001 34.2702 6.52001 33.5502L6.58001 33.4702C6.67001 33.3502 6.79001 33.1902 6.81001 33.1202C6.79001 33.0802 6.69001 32.9702 6.34001 32.7702C6.24001 32.7102 6.16001 32.6102 6.13001 32.4902C6.10001 32.3702 6.13001 32.2502 6.19001 32.1502C6.26001 32.0402 8.02001 29.3902 16.48 26.9002C16.49 26.9002 16.51 26.9002 16.52 26.8902L18.75 26.4602C19.2 26.0802 21.18 24.5702 25.86 22.9302C26.11 22.8502 31.78 21.0702 39.24 22.6602C39.57 22.7402 47.16 24.5202 48.55 24.9802L51.14 25.4602C51.26 25.4802 53.09 25.7502 54.41 25.7202C54.43 25.7202 54.45 25.7202 54.47 25.7202C55.48 25.8202 56.24 26.8502 56.55 28.5502C56.95 30.7102 56.53 33.4502 55.18 34.2102C55.04 34.3502 54.68 34.6502 53.96 34.9902C53.84 35.0502 53.7 35.0502 53.57 34.9902C53.45 34.9302 53.36 34.8202 53.33 34.6902C52.84 32.4402 50.8 30.8202 48.5 30.8202C45.77 30.8202 43.55 33.0402 43.55 35.7702C43.55 35.8202 43.55 35.8602 43.55 35.9102C43.55 36.0302 43.51 36.1502 43.42 36.2302C43.34 36.3202 43.22 36.3702 43.1 36.3702L22.63 36.4402C22.51 36.4402 22.4 36.3902 22.32 36.3102C22.24 36.2302 22.19 36.1102 22.19 36.0002V35.9802C22.19 33.2602 19.98 31.0402 17.26 31.0402C14.54 31.0402 12.33 33.2502 12.33 35.9702C12.33 36.0102 12.33 36.0502 12.33 36.0902C12.33 36.2102 12.29 36.3202 12.21 36.4102C12.13 36.5002 12.01 36.5402 11.89 36.5502H11.22L11.26 36.5402Z" fill="white"></path><path fill-rule="evenodd" clip-rule="evenodd" d="M32.1501 28.77C26.7701 28.77 21.4201 28.03 18.8501 27.3C18.6101 27.23 18.4801 26.99 18.5401 26.75C18.6101 26.51 18.8501 26.38 19.0901 26.44C21.8201 27.22 27.4901 27.96 33.0201 27.87C39.5001 27.77 43.9601 26.56 45.6001 24.46C45.7501 24.27 46.0301 24.23 46.2201 24.38C46.4101 24.53 46.4501 24.81 46.3001 25C44.0801 27.85 38.1001 28.76 32.1501 28.76V28.77Z" fill="white"></path><path fill-rule="evenodd" clip-rule="evenodd" d="M40.85 27.7701C40.66 27.7701 40.48 27.6501 40.42 27.4601L39.16 23.3201C39.09 23.0801 39.22 22.8401 39.46 22.7601C39.7 22.6901 39.94 22.8201 40.02 23.0601L41.28 27.2001C41.35 27.4301 41.22 27.6801 40.98 27.7601C40.94 27.7701 40.89 27.7801 40.85 27.7801V27.7701Z" fill="white"></path><path fill-rule="evenodd" clip-rule="evenodd" d="M36.93 30.0298C36.71 30.0298 36.52 29.8698 36.49 29.6398C36.46 29.3998 36.63 29.1698 36.88 29.1398L39.57 28.7998C39.81 28.7698 40.04 28.9398 40.07 29.1898C40.1 29.4398 39.93 29.6598 39.68 29.6898L36.99 30.0298C36.99 30.0298 36.95 30.0298 36.93 30.0298Z" fill="white"></path><path fill-rule="evenodd" clip-rule="evenodd" d="M54.4601 30.1001C53.5501 30.1001 52.9701 29.8001 52.7501 29.2101C52.3301 28.0901 53.6201 26.4601 54.7001 25.9001C54.9201 25.7901 55.1901 25.8701 55.3001 26.0901C55.4101 26.3101 55.3301 26.5801 55.1101 26.6901C54.2401 27.1301 53.3901 28.3701 53.5901 28.8901C53.7001 29.1801 54.3901 29.3701 55.9801 28.9801C56.2201 28.9201 56.4601 29.0701 56.5201 29.3101C56.5801 29.5501 56.4301 29.7901 56.1901 29.8501C55.5201 30.0201 54.9401 30.1001 54.4601 30.1001Z" fill="white"></path><path fill-rule="evenodd" clip-rule="evenodd" d="M7.25995 33.4301C7.01995 33.4301 6.81995 33.2301 6.81995 32.9901C6.81995 32.7401 7.01995 32.5401 7.25995 32.5401C8.65995 32.5401 9.53995 32.2501 9.82995 31.7201C10.1199 31.1801 9.74995 30.4001 9.57995 30.1401C9.44995 29.9301 9.49995 29.6601 9.70995 29.5201C9.91995 29.3901 10.1899 29.4401 10.3199 29.6501C10.3599 29.7101 11.2099 31.0201 10.6099 32.1401C10.1599 32.9901 9.02995 33.4201 7.25995 33.4301Z" fill="white"></path><path fill-rule="evenodd" clip-rule="evenodd" d="M23.33 28.16C23.14 28.16 22.96 28.04 22.9 27.85L22.01 24.93C21.94 24.69 22.07 24.45 22.31 24.37C22.55 24.3 22.79 24.43 22.87 24.67L23.76 27.59C23.83 27.82 23.7 28.07 23.46 28.15C23.42 28.16 23.37 28.17 23.33 28.17V28.16Z" fill="white"></path><path fill-rule="evenodd" clip-rule="evenodd" d="M17.31 32.68C15.51 32.68 14.05 34.14 14.05 35.94C14.05 37.74 15.51 39.2 17.31 39.2C19.11 39.2 20.57 37.74 20.57 35.94C20.57 34.14 19.11 32.68 17.31 32.68ZM17.31 40.09C15.02 40.09 13.16 38.23 13.16 35.94C13.16 33.65 15.02 31.79 17.31 31.79C19.6 31.79 21.46 33.65 21.46 35.94C21.46 38.23 19.6 40.09 17.31 40.09Z" fill="black"></path><path fill-rule="evenodd" clip-rule="evenodd" d="M17.31 32.68C15.51 32.68 14.05 34.14 14.05 35.94C14.05 37.74 15.51 39.2 17.31 39.2C19.11 39.2 20.57 37.74 20.57 35.94C20.57 34.14 19.11 32.68 17.31 32.68ZM17.31 40.09C15.02 40.09 13.16 38.23 13.16 35.94C13.16 33.65 15.02 31.79 17.31 31.79C19.6 31.79 21.46 33.65 21.46 35.94C21.46 38.23 19.6 40.09 17.31 40.09Z" fill="url(#paint0_linear_1576_35902)"></path><path fill-rule="evenodd" clip-rule="evenodd" d="M17.3101 35.5902C17.1101 35.5902 16.9501 35.7502 16.9501 35.9502C16.9501 36.1502 17.1101 36.3102 17.3101 36.3102C17.5101 36.3102 17.6701 36.1502 17.6701 35.9502C17.6701 35.7502 17.5101 35.5902 17.3101 35.5902ZM17.3101 37.2002C16.6201 37.2002 16.0601 36.6402 16.0601 35.9502C16.0601 35.2602 16.6201 34.7002 17.3101 34.7002C18.0001 34.7002 18.5601 35.2602 18.5601 35.9502C18.5601 36.6402 18.0001 37.2002 17.3101 37.2002Z" fill="black"></path><path fill-rule="evenodd" clip-rule="evenodd" d="M17.3101 35.5902C17.1101 35.5902 16.9501 35.7502 16.9501 35.9502C16.9501 36.1502 17.1101 36.3102 17.3101 36.3102C17.5101 36.3102 17.6701 36.1502 17.6701 35.9502C17.6701 35.7502 17.5101 35.5902 17.3101 35.5902ZM17.3101 37.2002C16.6201 37.2002 16.0601 36.6402 16.0601 35.9502C16.0601 35.2602 16.6201 34.7002 17.3101 34.7002C18.0001 34.7002 18.5601 35.2602 18.5601 35.9502C18.5601 36.6402 18.0001 37.2002 17.3101 37.2002Z" fill="url(#paint1_linear_1576_35902)"></path><path fill-rule="evenodd" clip-rule="evenodd" d="M17.31 35.5901C17.06 35.5901 16.87 35.3901 16.87 35.1501V32.2501C16.87 32.0001 17.07 31.8101 17.31 31.8101C17.55 31.8101 17.75 32.0101 17.75 32.2501V35.1501C17.75 35.4001 17.55 35.6001 17.31 35.5901Z" fill="black"></path><path fill-rule="evenodd" clip-rule="evenodd" d="M17.31 35.5901C17.06 35.5901 16.87 35.3901 16.87 35.1501V32.2501C16.87 32.0001 17.07 31.8101 17.31 31.8101C17.55 31.8101 17.75 32.0101 17.75 32.2501V35.1501C17.75 35.4001 17.55 35.6001 17.31 35.5901Z" fill="url(#paint2_linear_1576_35902)"></path><path fill-rule="evenodd" clip-rule="evenodd" d="M18 35.9899C17.85 35.9899 17.7 35.9099 17.61 35.7699C17.49 35.5599 17.56 35.2899 17.77 35.1599L20.29 33.7099C20.5 33.5899 20.77 33.6599 20.9 33.8699C21.02 34.0799 20.95 34.3499 20.74 34.4799L18.22 35.9299C18.15 35.9699 18.07 35.9899 18 35.9899Z" fill="black"></path><path fill-rule="evenodd" clip-rule="evenodd" d="M18 35.9899C17.85 35.9899 17.7 35.9099 17.61 35.7699C17.49 35.5599 17.56 35.2899 17.77 35.1599L20.29 33.7099C20.5 33.5899 20.77 33.6599 20.9 33.8699C21.02 34.0799 20.95 34.3499 20.74 34.4799L18.22 35.9299C18.15 35.9699 18.07 35.9899 18 35.9899Z" fill="url(#paint3_linear_1576_35902)"></path><path fill-rule="evenodd" clip-rule="evenodd" d="M20.52 38.2502C20.44 38.2502 20.37 38.2302 20.3 38.1902L17.78 36.7402C17.57 36.6202 17.49 36.3502 17.62 36.1302C17.74 35.9202 18.02 35.8402 18.23 35.9702L20.75 37.4202C20.96 37.5402 21.04 37.8202 20.91 38.0302C20.83 38.1702 20.68 38.2502 20.52 38.2502Z" fill="black"></path><path fill-rule="evenodd" clip-rule="evenodd" d="M20.52 38.2502C20.44 38.2502 20.37 38.2302 20.3 38.1902L17.78 36.7402C17.57 36.6202 17.49 36.3502 17.62 36.1302C17.74 35.9202 18.02 35.8402 18.23 35.9702L20.75 37.4202C20.96 37.5402 21.04 37.8202 20.91 38.0302C20.83 38.1702 20.68 38.2502 20.52 38.2502Z" fill="url(#paint4_linear_1576_35902)"></path><path fill-rule="evenodd" clip-rule="evenodd" d="M17.31 40.0998C17.06 40.0998 16.87 39.8998 16.87 39.6598V36.7598C16.87 36.5098 17.07 36.3198 17.31 36.3198C17.56 36.3198 17.75 36.5198 17.75 36.7598V39.6598C17.75 39.9098 17.55 40.0998 17.31 40.0998Z" fill="black"></path><path fill-rule="evenodd" clip-rule="evenodd" d="M17.31 40.0998C17.06 40.0998 16.87 39.8998 16.87 39.6598V36.7598C16.87 36.5098 17.07 36.3198 17.31 36.3198C17.56 36.3198 17.75 36.5198 17.75 36.7598V39.6598C17.75 39.9098 17.55 40.0998 17.31 40.0998Z" fill="url(#paint5_linear_1576_35902)"></path><path fill-rule="evenodd" clip-rule="evenodd" d="M14.1 38.2501C13.95 38.2501 13.8 38.1701 13.71 38.0301C13.59 37.8201 13.66 37.5501 13.87 37.4201L16.39 35.9701C16.6 35.8501 16.87 35.9201 17 36.1301C17.12 36.3401 17.05 36.6101 16.84 36.7401L14.32 38.1901C14.25 38.2301 14.17 38.2501 14.1 38.2501Z" fill="black"></path><path fill-rule="evenodd" clip-rule="evenodd" d="M14.1 38.2501C13.95 38.2501 13.8 38.1701 13.71 38.0301C13.59 37.8201 13.66 37.5501 13.87 37.4201L16.39 35.9701C16.6 35.8501 16.87 35.9201 17 36.1301C17.12 36.3401 17.05 36.6101 16.84 36.7401L14.32 38.1901C14.25 38.2301 14.17 38.2501 14.1 38.2501Z" fill="url(#paint6_linear_1576_35902)"></path><path fill-rule="evenodd" clip-rule="evenodd" d="M16.6101 35.9899C16.5301 35.9899 16.4601 35.9699 16.3901 35.9299L13.8701 34.4799C13.6601 34.3599 13.5801 34.0799 13.7101 33.8699C13.8301 33.6599 14.1101 33.5799 14.3201 33.7099L16.8401 35.1599C17.0501 35.2799 17.1301 35.5599 17.0001 35.7699C16.9201 35.9099 16.7701 35.9899 16.6101 35.9899Z" fill="black"></path><path fill-rule="evenodd" clip-rule="evenodd" d="M16.6101 35.9899C16.5301 35.9899 16.4601 35.9699 16.3901 35.9299L13.8701 34.4799C13.6601 34.3599 13.5801 34.0799 13.7101 33.8699C13.8301 33.6599 14.1101 33.5799 14.3201 33.7099L16.8401 35.1599C17.0501 35.2799 17.1301 35.5599 17.0001 35.7699C16.9201 35.9099 16.7701 35.9899 16.6101 35.9899Z" fill="url(#paint7_linear_1576_35902)"></path><path fill-rule="evenodd" clip-rule="evenodd" d="M48.54 32.4901C46.74 32.4901 45.28 33.9501 45.28 35.7501C45.28 37.5501 46.74 39.0101 48.54 39.0101C50.34 39.0101 51.8 37.5501 51.8 35.7501C51.8 33.9501 50.34 32.4901 48.54 32.4901ZM48.54 39.9001C46.25 39.9001 44.39 38.0401 44.39 35.7501C44.39 33.4601 46.25 31.6001 48.54 31.6001C50.83 31.6001 52.69 33.4601 52.69 35.7501C52.69 38.0401 50.83 39.9001 48.54 39.9001Z" fill="black"></path><path fill-rule="evenodd" clip-rule="evenodd" d="M48.54 32.4901C46.74 32.4901 45.28 33.9501 45.28 35.7501C45.28 37.5501 46.74 39.0101 48.54 39.0101C50.34 39.0101 51.8 37.5501 51.8 35.7501C51.8 33.9501 50.34 32.4901 48.54 32.4901ZM48.54 39.9001C46.25 39.9001 44.39 38.0401 44.39 35.7501C44.39 33.4601 46.25 31.6001 48.54 31.6001C50.83 31.6001 52.69 33.4601 52.69 35.7501C52.69 38.0401 50.83 39.9001 48.54 39.9001Z" fill="url(#paint8_linear_1576_35902)"></path><path fill-rule="evenodd" clip-rule="evenodd" d="M48.54 35.39C48.34 35.39 48.18 35.55 48.18 35.75C48.18 35.95 48.34 36.11 48.54 36.11C48.74 36.11 48.9 35.95 48.9 35.75C48.9 35.55 48.74 35.39 48.54 35.39ZM48.54 37C47.85 37 47.29 36.44 47.29 35.75C47.29 35.06 47.85 34.5 48.54 34.5C49.23 34.5 49.79 35.06 49.79 35.75C49.79 36.44 49.23 37 48.54 37Z" fill="black"></path><path fill-rule="evenodd" clip-rule="evenodd" d="M48.54 35.39C48.34 35.39 48.18 35.55 48.18 35.75C48.18 35.95 48.34 36.11 48.54 36.11C48.74 36.11 48.9 35.95 48.9 35.75C48.9 35.55 48.74 35.39 48.54 35.39ZM48.54 37C47.85 37 47.29 36.44 47.29 35.75C47.29 35.06 47.85 34.5 48.54 34.5C49.23 34.5 49.79 35.06 49.79 35.75C49.79 36.44 49.23 37 48.54 37Z" fill="url(#paint9_linear_1576_35902)"></path><path fill-rule="evenodd" clip-rule="evenodd" d="M48.54 35.3899C48.29 35.3899 48.1 35.1899 48.1 34.9499V32.0499C48.1 31.7999 48.3 31.6099 48.54 31.6099C48.78 31.6099 48.98 31.8099 48.98 32.0499V34.9499C48.98 35.1999 48.78 35.3899 48.54 35.3899Z" fill="black"></path><path fill-rule="evenodd" clip-rule="evenodd" d="M48.54 35.3899C48.29 35.3899 48.1 35.1899 48.1 34.9499V32.0499C48.1 31.7999 48.3 31.6099 48.54 31.6099C48.78 31.6099 48.98 31.8099 48.98 32.0499V34.9499C48.98 35.1999 48.78 35.3899 48.54 35.3899Z" fill="url(#paint10_linear_1576_35902)"></path><path fill-rule="evenodd" clip-rule="evenodd" d="M49.23 35.7902C49.08 35.7902 48.93 35.7102 48.84 35.5702C48.72 35.3602 48.79 35.0902 49 34.9602L51.52 33.5102C51.73 33.3902 52 33.4602 52.13 33.6702C52.25 33.8802 52.18 34.1502 51.97 34.2802L49.45 35.7302C49.38 35.7702 49.3 35.7902 49.23 35.7902Z" fill="black"></path><path fill-rule="evenodd" clip-rule="evenodd" d="M49.23 35.7902C49.08 35.7902 48.93 35.7102 48.84 35.5702C48.72 35.3602 48.79 35.0902 49 34.9602L51.52 33.5102C51.73 33.3902 52 33.4602 52.13 33.6702C52.25 33.8802 52.18 34.1502 51.97 34.2802L49.45 35.7302C49.38 35.7702 49.3 35.7902 49.23 35.7902Z" fill="url(#paint11_linear_1576_35902)"></path><path fill-rule="evenodd" clip-rule="evenodd" d="M51.75 38.05C51.67 38.05 51.6 38.03 51.53 37.99L49.01 36.54C48.8 36.42 48.72 36.15 48.85 35.93C48.97 35.72 49.25 35.64 49.46 35.77L51.98 37.22C52.19 37.34 52.27 37.62 52.14 37.83C52.06 37.97 51.91 38.05 51.75 38.05Z" fill="black"></path><path fill-rule="evenodd" clip-rule="evenodd" d="M51.75 38.05C51.67 38.05 51.6 38.03 51.53 37.99L49.01 36.54C48.8 36.42 48.72 36.15 48.85 35.93C48.97 35.72 49.25 35.64 49.46 35.77L51.98 37.22C52.19 37.34 52.27 37.62 52.14 37.83C52.06 37.97 51.91 38.05 51.75 38.05Z" fill="url(#paint12_linear_1576_35902)"></path><path fill-rule="evenodd" clip-rule="evenodd" d="M48.54 39.9001C48.29 39.9001 48.1 39.7001 48.1 39.4601V36.5601C48.1 36.3101 48.3 36.1201 48.54 36.1201C48.78 36.1201 48.98 36.3201 48.98 36.5601V39.4601C48.98 39.7101 48.78 39.9001 48.54 39.9001Z" fill="black"></path><path fill-rule="evenodd" clip-rule="evenodd" d="M48.54 39.9001C48.29 39.9001 48.1 39.7001 48.1 39.4601V36.5601C48.1 36.3101 48.3 36.1201 48.54 36.1201C48.78 36.1201 48.98 36.3201 48.98 36.5601V39.4601C48.98 39.7101 48.78 39.9001 48.54 39.9001Z" fill="url(#paint13_linear_1576_35902)"></path><path fill-rule="evenodd" clip-rule="evenodd" d="M45.33 38.0499C45.18 38.0499 45.03 37.9699 44.94 37.8299C44.82 37.6199 44.89 37.3499 45.1 37.2199L47.62 35.7699C47.83 35.6499 48.1 35.7199 48.23 35.9299C48.35 36.1399 48.28 36.4099 48.07 36.5399L45.55 37.9899C45.48 38.0299 45.4 38.0499 45.33 38.0499Z" fill="black"></path><path fill-rule="evenodd" clip-rule="evenodd" d="M45.33 38.0499C45.18 38.0499 45.03 37.9699 44.94 37.8299C44.82 37.6199 44.89 37.3499 45.1 37.2199L47.62 35.7699C47.83 35.6499 48.1 35.7199 48.23 35.9299C48.35 36.1399 48.28 36.4099 48.07 36.5399L45.55 37.9899C45.48 38.0299 45.4 38.0499 45.33 38.0499Z" fill="url(#paint14_linear_1576_35902)"></path><path fill-rule="evenodd" clip-rule="evenodd" d="M47.84 35.7902C47.76 35.7902 47.69 35.7702 47.62 35.7302L45.1 34.2802C44.89 34.1602 44.81 33.8902 44.94 33.6702C45.06 33.4602 45.34 33.3802 45.55 33.5102L48.07 34.9602C48.28 35.0802 48.36 35.3602 48.23 35.5702C48.15 35.7102 48 35.7902 47.84 35.7902Z" fill="black"></path><path fill-rule="evenodd" clip-rule="evenodd" d="M47.84 35.7902C47.76 35.7902 47.69 35.7702 47.62 35.7302L45.1 34.2802C44.89 34.1602 44.81 33.8902 44.94 33.6702C45.06 33.4602 45.34 33.3802 45.55 33.5102L48.07 34.9602C48.28 35.0802 48.36 35.3602 48.23 35.5702C48.15 35.7102 48 35.7902 47.84 35.7902Z" fill="url(#paint15_linear_1576_35902)"></path></g><defs><linearGradient id="paint0_linear_1576_35902" x1="15.9381" y1="34.6295" x2="24.5779" y2="42.144" gradientUnits="userSpaceOnUse"><stop offset="0.236106" stop-color="#DA291C"></stop><stop offset="1" stop-color="#FFCD00"></stop></linearGradient><linearGradient id="paint1_linear_1576_35902" x1="16.8968" y1="35.5555" x2="19.4992" y2="37.8188" gradientUnits="userSpaceOnUse"><stop offset="0.236106" stop-color="#DA291C"></stop><stop offset="1" stop-color="#FFCD00"></stop></linearGradient><linearGradient id="paint2_linear_1576_35902" x1="17.1645" y1="33.1033" x2="18.7101" y2="33.4163" gradientUnits="userSpaceOnUse"><stop offset="0.236106" stop-color="#DA291C"></stop><stop offset="1" stop-color="#FFCD00"></stop></linearGradient><linearGradient id="paint3_linear_1576_35902" x1="18.6919" y1="34.4514" x2="21.0826" y2="37.4808" gradientUnits="userSpaceOnUse"><stop offset="0.236106" stop-color="#DA291C"></stop><stop offset="1" stop-color="#FFCD00"></stop></linearGradient><linearGradient id="paint4_linear_1576_35902" x1="18.7003" y1="36.7088" x2="21.0952" y2="39.7455" gradientUnits="userSpaceOnUse"><stop offset="0.236106" stop-color="#DA291C"></stop><stop offset="1" stop-color="#FFCD00"></stop></linearGradient><linearGradient id="paint5_linear_1576_35902" x1="17.1645" y1="37.613" x2="18.7101" y2="37.9259" gradientUnits="userSpaceOnUse"><stop offset="0.236106" stop-color="#DA291C"></stop><stop offset="1" stop-color="#FFCD00"></stop></linearGradient><linearGradient id="paint6_linear_1576_35902" x1="14.7918" y1="36.7116" x2="17.1825" y2="39.741" gradientUnits="userSpaceOnUse"><stop offset="0.236106" stop-color="#DA291C"></stop><stop offset="1" stop-color="#FFCD00"></stop></linearGradient><linearGradient id="paint7_linear_1576_35902" x1="14.7904" y1="34.4485" x2="17.1853" y2="37.4853" gradientUnits="userSpaceOnUse"><stop offset="0.236106" stop-color="#DA291C"></stop><stop offset="1" stop-color="#FFCD00"></stop></linearGradient><linearGradient id="paint8_linear_1576_35902" x1="47.168" y1="34.4396" x2="55.8079" y2="41.954" gradientUnits="userSpaceOnUse"><stop offset="0.236106" stop-color="#DA291C"></stop><stop offset="1" stop-color="#FFCD00"></stop></linearGradient><linearGradient id="paint9_linear_1576_35902" x1="48.1268" y1="35.3553" x2="50.7292" y2="37.6187" gradientUnits="userSpaceOnUse"><stop offset="0.236106" stop-color="#DA291C"></stop><stop offset="1" stop-color="#FFCD00"></stop></linearGradient><linearGradient id="paint10_linear_1576_35902" x1="48.3945" y1="32.903" x2="49.9401" y2="33.216" gradientUnits="userSpaceOnUse"><stop offset="0.236106" stop-color="#DA291C"></stop><stop offset="1" stop-color="#FFCD00"></stop></linearGradient><linearGradient id="paint11_linear_1576_35902" x1="49.9218" y1="34.2517" x2="52.3125" y2="37.2811" gradientUnits="userSpaceOnUse"><stop offset="0.236106" stop-color="#DA291C"></stop><stop offset="1" stop-color="#FFCD00"></stop></linearGradient><linearGradient id="paint12_linear_1576_35902" x1="49.9303" y1="36.5086" x2="52.3252" y2="39.5453" gradientUnits="userSpaceOnUse"><stop offset="0.236106" stop-color="#DA291C"></stop><stop offset="1" stop-color="#FFCD00"></stop></linearGradient><linearGradient id="paint13_linear_1576_35902" x1="48.3945" y1="37.4133" x2="49.9401" y2="37.7262" gradientUnits="userSpaceOnUse"><stop offset="0.236106" stop-color="#DA291C"></stop><stop offset="1" stop-color="#FFCD00"></stop></linearGradient><linearGradient id="paint14_linear_1576_35902" x1="46.0218" y1="36.5114" x2="48.4125" y2="39.5408" gradientUnits="userSpaceOnUse"><stop offset="0.236106" stop-color="#DA291C"></stop><stop offset="1" stop-color="#FFCD00"></stop></linearGradient><linearGradient id="paint15_linear_1576_35902" x1="46.0204" y1="34.2488" x2="48.4152" y2="37.2856" gradientUnits="userSpaceOnUse"><stop offset="0.236106" stop-color="#DA291C"></stop><stop offset="1" stop-color="#FFCD00"></stop></linearGradient><clipPath id="clip0_1576_35902"><rect width="50.72" height="18.1" fill="white" transform="translate(6 22)"></rect></clipPath></defs></svg> 