<?xml version="1.0" encoding="UTF-8"?> <svg xmlns="http://www.w3.org/2000/svg" width="65" height="65" viewBox="0 0 65 65" fill="none"><mask id="path-1-inside-1_1593_32839" fill="white"><path d="M14.4206 32.2999C8.17104 37.901 5.22312 43.2662 7.05083 46.4499C7.87624 47.9239 9.58603 48.7493 12.1212 48.9262C12.3571 50.577 13.7721 51.8151 15.4819 51.8151C17.3685 51.8151 18.9014 50.2822 18.9014 48.3955V48.2776C20.1985 47.9828 21.5546 47.6291 23.0285 47.1574C24.7973 55.5884 27.981 60.5999 31.5775 60.5999C32.5797 60.5999 33.5231 60.2461 34.4664 59.4797C34.9381 59.7745 35.5277 59.8924 36.0583 59.8924C37.9449 59.8924 39.4779 58.3595 39.4779 56.4728C39.4779 56.237 39.4779 56.0601 39.4189 55.7653C39.242 54.9399 38.8293 54.2914 38.1808 53.7607C38.9472 51.8741 39.6547 49.6337 40.1854 47.1574C41.8951 47.688 43.546 48.1597 45.1378 48.4545C46.9066 48.8083 48.4985 48.9851 49.8545 48.9851C52.9793 48.9851 55.1607 48.1008 56.1041 46.4499C56.6347 45.5066 56.7526 44.4453 56.5168 43.1483C57.5191 42.5587 58.1676 41.4385 58.1676 40.2004C58.1676 38.3137 56.6347 36.7808 54.748 36.7808C54.2174 36.7808 53.7457 36.8987 53.2741 37.1345C52.036 35.5427 50.503 33.9508 48.6753 32.2999C54.9249 26.64 57.8139 21.3337 55.9862 18.15C55.3376 17.0298 54.1585 16.2633 52.4487 15.9096C52.4487 15.7916 52.4487 15.6737 52.3897 15.5558C52.036 13.9639 50.6799 12.8437 49.0291 12.8437C47.2014 12.8437 45.7274 14.2587 45.6095 16.0864C43.8408 16.3812 41.9541 16.8529 40.0085 17.5014C38.3576 9.01145 35.1739 4 31.5775 4C27.922 4 24.7383 9.18832 22.9695 17.4425C20.8471 16.735 18.7835 16.2633 16.8969 15.9685C16.7789 14.1998 15.305 12.8437 13.4773 12.8437C12.6098 12.8417 11.7739 13.1694 11.139 13.7605C10.504 14.3517 10.1175 15.162 10.0577 16.0275C8.70166 16.3812 7.64041 17.1477 7.05083 18.15C5.63583 20.5673 6.99187 24.2816 10.8242 28.7035C11.8264 29.8827 13.0646 31.0618 14.4206 32.2999ZM8.05312 45.8603C6.52021 43.2662 9.52708 38.3137 15.246 33.0664C17.1916 34.7762 19.3731 36.427 21.7314 37.9599C21.9083 40.7899 22.2621 43.4431 22.7337 45.9783C21.3187 46.4499 19.9037 46.8037 18.6066 47.0985C18.6066 47.0985 18.6066 47.0395 18.5477 47.0395C18.4887 46.9216 18.4298 46.7447 18.3708 46.6268C18.3118 46.5678 18.3119 46.5089 18.2529 46.4499C18.1939 46.332 18.135 46.273 18.0171 46.1551C17.9581 46.0962 17.8991 46.0372 17.8991 45.9783L17.6633 45.7424C17.6044 45.6835 17.5454 45.6245 17.4864 45.6245C17.3685 45.5655 17.3096 45.5066 17.1916 45.4476C17.1327 45.3887 17.0737 45.3887 17.0148 45.3297C16.8969 45.2708 16.7789 45.2118 16.72 45.2118C16.661 45.2118 16.6021 45.1528 16.5431 45.1528C16.4252 45.0939 16.3073 45.0939 16.1894 45.0349C16.1304 45.0349 16.0714 45.0349 16.0125 44.976C15.8356 44.917 15.6587 44.917 15.4229 44.917C15.246 44.917 15.0691 44.917 14.8923 44.976H14.7744C14.5975 45.0349 14.4796 45.0349 14.3027 45.0939C14.2437 45.0939 14.2437 45.0939 14.1848 45.1528C14.0079 45.2118 13.89 45.2708 13.7721 45.3297C13.7131 45.3297 13.7131 45.3887 13.6542 45.3887C13.5362 45.4476 13.3594 45.5655 13.2414 45.6835L13.1825 45.7424L12.8877 46.0372C12.8877 46.0962 12.8287 46.0962 12.8287 46.1551C12.7108 46.273 12.6519 46.391 12.5929 46.5089C12.5339 46.5678 12.5339 46.6268 12.475 46.6268C12.416 46.7447 12.3571 46.8626 12.2981 47.0395C12.2981 47.0985 12.2392 47.1574 12.2392 47.2164C12.1802 47.3343 12.1212 47.5112 12.1212 47.6291V47.688C10.5883 47.6291 8.81958 47.1574 8.05312 45.8603ZM39.242 18.9754C39.6547 21.0979 39.9495 23.3973 40.1264 25.7556C38.9472 24.9891 37.7681 24.2816 36.5299 23.5741C35.2918 22.8666 34.0537 22.2181 32.8745 21.5696C35.056 20.5673 37.1785 19.6829 39.242 18.9754ZM35.9993 24.6354C37.4733 25.4608 38.8883 26.3452 40.2443 27.2885C40.3622 28.9393 40.4212 30.6491 40.4212 32.2999C40.4212 34.0687 40.3622 35.7195 40.2443 37.3114C38.8883 38.1958 37.4733 39.1391 35.9993 39.9645C34.5254 40.7899 33.0514 41.6153 31.5775 42.3228C30.1035 41.6153 28.6295 40.7899 27.1556 39.9645C25.6816 39.1391 24.2666 38.2547 22.9106 37.3114C22.7927 35.6606 22.7337 33.9508 22.7337 32.2999C22.7337 30.5902 22.7927 28.8804 22.9106 27.2885C24.2666 26.4041 25.6816 25.4608 27.1556 24.6354C28.6295 23.81 30.1035 22.9845 31.5775 22.2771C33.0514 22.9845 34.5254 23.751 35.9993 24.6354ZM41.4824 28.1139C43.4281 29.47 45.3147 30.885 46.9066 32.2999C45.2558 33.7149 43.4281 35.1299 41.4824 36.486C41.5414 35.1299 41.6003 33.7149 41.6003 32.2999C41.6003 30.885 41.5414 29.47 41.4824 28.1139ZM40.1854 38.7854C40.0085 41.2026 39.6547 43.502 39.301 45.6245C37.2374 44.917 35.1149 44.0326 32.9335 43.0303C34.1716 42.3818 35.4097 41.7333 36.6479 41.0258C37.827 40.3183 39.0062 39.5518 40.1854 38.7854ZM23.8539 45.6245C23.5002 43.502 23.1464 41.2026 22.9695 38.7854C24.1487 39.5518 25.3279 40.2593 26.566 40.9668C27.8041 41.6743 29.0422 42.3228 30.2214 42.9714C28.04 44.0326 25.9175 44.917 23.8539 45.6245ZM26.566 23.5741C25.3279 24.2816 24.1487 24.9891 22.9695 25.7556C23.1464 23.3383 23.5002 21.0389 23.8539 18.9754C25.9175 19.6829 28.04 20.5673 30.2214 21.5696C28.9833 22.2181 27.7452 22.8666 26.566 23.5741ZM21.6135 36.486C19.6679 35.1299 17.8402 33.7149 16.1894 32.2999C17.8402 30.885 19.6679 29.47 21.6135 28.1139C21.5546 29.47 21.4956 30.885 21.4956 32.2999C21.4956 33.7149 21.5546 35.1299 21.6135 36.486ZM15.4819 50.636C14.2437 50.636 13.2414 49.6337 13.2414 48.3955C13.2414 47.1574 14.2437 46.1551 15.4819 46.1551C15.7766 46.1551 16.0714 46.2141 16.3073 46.332C16.9558 46.6268 17.4864 47.2164 17.6633 47.9239C17.6633 48.1008 17.7223 48.2187 17.7223 48.3955C17.7223 49.6337 16.72 50.636 15.4819 50.636ZM38.2987 56.4728C38.2987 57.7109 37.2964 58.7132 36.0583 58.7132C35.5866 58.7132 35.1149 58.5364 34.7612 58.3005C34.1716 57.8878 33.8768 57.2393 33.8768 56.4728C33.8768 55.2347 34.8791 54.2324 36.1172 54.2324C36.471 54.2324 36.8837 54.3503 37.1785 54.5272C37.7681 54.822 38.1808 55.3526 38.2987 56.0012V56.4728ZM37.1195 53.2301H37.0606C36.9426 53.1712 36.8247 53.1712 36.7068 53.1712H36.5299C36.3531 53.1712 36.2352 53.1122 36.0583 53.1122C34.1716 53.1122 32.6387 54.6451 32.6387 56.5318C32.6387 56.7087 32.6387 56.8855 32.6977 57.0624V57.1803C32.7566 57.3572 32.7566 57.5341 32.8156 57.7109V57.7699C32.8745 57.9468 32.9335 58.0647 33.0514 58.2416C33.0514 58.3005 33.1104 58.3005 33.1104 58.3595C33.2283 58.5364 33.2872 58.6543 33.4052 58.7722C32.7566 59.2439 32.1081 59.4797 31.4595 59.4797C28.5116 59.4797 25.6227 54.5272 24.0308 46.8626C26.4481 46.0372 28.9243 44.976 31.4595 43.7378C33.9947 44.976 36.5299 46.0372 38.8883 46.8626C38.5345 49.221 37.886 51.4024 37.1195 53.2301ZM56.9884 40.2004C56.9884 41.0847 56.4578 41.9101 55.5735 42.2639C55.3376 42.3818 55.0428 42.4408 54.748 42.4408C54.5712 42.4408 54.4532 42.4408 54.2764 42.3818C53.2741 42.146 52.5076 41.2616 52.5076 40.2004V39.9056C52.5666 39.257 52.9203 38.7264 53.451 38.3726C53.8047 38.1368 54.2764 37.9599 54.6891 37.9599C55.9862 37.9599 56.9884 38.9622 56.9884 40.2004ZM52.3897 37.7831C52.3307 37.842 52.3307 37.842 52.3307 37.901L52.2128 38.0189C52.1539 38.0779 52.0949 38.1368 52.036 38.2547L51.977 38.3137C51.918 38.4316 51.8591 38.5495 51.8001 38.6085C51.8001 38.6085 51.8001 38.6674 51.7412 38.6674C51.6822 38.7854 51.6822 38.8443 51.6232 38.9622C51.6232 39.0212 51.5643 39.0212 51.5643 39.0801C51.5643 39.1391 51.5053 39.257 51.5053 39.316C51.5053 39.3749 51.5053 39.3749 51.4464 39.4339C51.4464 39.4929 51.3874 39.6108 51.3874 39.6697V40.1414C51.3874 42.0281 52.9203 43.561 54.807 43.561C55.0428 43.561 55.2197 43.561 55.3966 43.502C55.5145 44.3864 55.4555 45.1528 55.0428 45.8014C53.9226 47.747 50.3851 48.2776 45.3147 47.2753C43.7818 46.9805 42.131 46.5089 40.3622 45.9783C40.8339 43.502 41.1876 40.7899 41.3645 37.9599C43.7818 36.3681 45.9043 34.7172 47.791 33.0664C49.6187 34.6583 51.1516 36.2501 52.3897 37.7831ZM55.0428 18.7396C56.5757 21.3337 53.5689 26.3452 47.8499 31.5335C45.9043 29.8827 43.7818 28.2318 41.4235 26.64C41.2466 23.8689 40.8929 21.1568 40.4212 18.6216C42.3668 17.9731 44.1945 17.5014 45.9043 17.2066V17.2656C45.9633 17.4425 46.0222 17.5604 46.0812 17.7373C46.1401 17.7962 46.1401 17.8552 46.1991 17.9141C46.258 18.0321 46.317 18.15 46.376 18.2089C46.4349 18.2679 46.4939 18.3268 46.4939 18.3858C46.5528 18.5037 46.6708 18.5627 46.7297 18.6216L46.9066 18.7985C47.0245 18.8575 47.0835 18.9164 47.2014 18.9754C47.2603 19.0343 47.3193 19.0343 47.3783 19.0933C47.4962 19.1523 47.6141 19.2112 47.673 19.2702C47.732 19.3291 47.791 19.3291 47.9089 19.3881C48.0268 19.4471 48.1447 19.4471 48.2626 19.506C48.3216 19.506 48.3805 19.565 48.4395 19.565C48.6164 19.6239 48.8522 19.6239 49.0291 19.6239C49.2649 19.6239 49.4418 19.6239 49.6776 19.565C49.7366 19.565 49.7955 19.506 49.8545 19.506C49.9724 19.4471 50.0903 19.4471 50.2672 19.3881C50.3262 19.3881 50.4441 19.3291 50.503 19.2702C50.621 19.2112 50.7389 19.1523 50.7978 19.0933C50.8568 19.0343 50.9747 18.9754 51.0337 18.9164C51.0926 18.8575 51.2105 18.7985 51.2695 18.7396C51.3285 18.6806 51.4464 18.6216 51.5053 18.5627L51.6822 18.3858C51.7412 18.3268 51.8001 18.2089 51.8591 18.15C51.918 18.091 51.918 18.0321 51.977 17.9731C52.036 17.8552 52.0949 17.7373 52.1539 17.6783C52.1539 17.6194 52.2128 17.5604 52.2128 17.5014C52.2718 17.3835 52.3307 17.2656 52.3307 17.1477C53.6868 17.3835 54.5712 17.9141 55.0428 18.7396ZM49.147 13.9639C50.2083 13.9639 51.0926 14.7304 51.3285 15.7327C51.3874 15.9096 51.3874 16.0864 51.3874 16.2044V16.3223C51.3285 17.5014 50.3262 18.4448 49.147 18.4448C49.0291 18.4448 48.8522 18.4448 48.7343 18.3858C47.791 18.2089 47.0245 17.4425 46.9655 16.4402V16.2044C46.9066 14.9662 47.9089 13.9639 49.147 13.9639ZM31.5775 5.17916C34.4664 5.17916 37.4143 10.1317 39.0062 17.7962C36.5889 18.6216 34.0537 19.6829 31.5775 20.921C29.0422 19.6829 26.507 18.6216 24.1487 17.7962C25.7406 10.2496 28.5116 5.17916 31.5775 5.17916ZM13.5362 13.9639C14.7744 13.9639 15.7766 14.9662 15.7766 16.2044V16.3812C15.6587 17.5014 14.7154 18.4448 13.5362 18.4448C13.4183 18.4448 13.2414 18.4448 13.1235 18.3858C12.1802 18.2089 11.4137 17.3835 11.2958 16.3812V16.2044C11.2958 14.9662 12.2981 13.9639 13.5362 13.9639ZM8.05312 18.7396C8.46583 18.0321 9.17333 17.5014 10.2346 17.2066C10.2935 17.3835 10.3525 17.5604 10.4704 17.7373C10.4704 17.7962 10.5294 17.8552 10.5294 17.8552C10.5883 17.9731 10.6473 18.091 10.7652 18.2089C10.8242 18.2679 10.8831 18.3268 10.8831 18.3858C10.9421 18.5037 11.06 18.5627 11.1189 18.6806L11.2958 18.8575C11.4137 18.9164 11.4727 19.0343 11.5906 19.0933C11.6496 19.1523 11.7085 19.1523 11.7675 19.2112C11.8854 19.2702 12.0033 19.3291 12.0623 19.3881C12.1212 19.4471 12.1802 19.4471 12.2981 19.506C12.416 19.565 12.5339 19.565 12.7108 19.6239C12.7698 19.6239 12.8287 19.6829 12.8877 19.6829C13.0646 19.7418 13.3004 19.7418 13.4773 19.7418C13.7131 19.7418 13.89 19.7418 14.0669 19.6829C14.1258 19.6829 14.1848 19.6239 14.2437 19.6239C14.3616 19.565 14.4796 19.565 14.5975 19.506C14.6564 19.506 14.7154 19.4471 14.8333 19.3881C14.9512 19.3291 15.0691 19.2702 15.1281 19.2112C15.1871 19.1523 15.246 19.0933 15.3639 19.0933C15.4229 19.0343 15.5408 18.9754 15.5998 18.9164L15.7766 18.7396C15.8356 18.6806 15.8946 18.6216 15.9535 18.5037C16.0125 18.4448 16.0714 18.3858 16.1304 18.2679C16.1894 18.2089 16.2483 18.091 16.3073 18.0321C16.3662 17.9731 16.4252 17.8552 16.4841 17.7962C16.5431 17.6783 16.5431 17.6194 16.6021 17.5014C16.661 17.4425 16.661 17.3246 16.72 17.2656C18.5477 17.5604 20.5523 18.091 22.6748 18.7396C22.2031 21.2158 21.8493 23.8689 21.6725 26.7579C19.2552 28.3497 17.1327 30.0006 15.246 31.6514C13.89 30.4722 12.7108 29.2341 11.6496 28.055C8.28895 23.9868 6.99187 20.6852 8.05312 18.7396Z"></path></mask><path d="M14.4206 32.2999C8.17104 37.901 5.22312 43.2662 7.05083 46.4499C7.87624 47.9239 9.58603 48.7493 12.1212 48.9262C12.3571 50.577 13.7721 51.8151 15.4819 51.8151C17.3685 51.8151 18.9014 50.2822 18.9014 48.3955V48.2776C20.1985 47.9828 21.5546 47.6291 23.0285 47.1574C24.7973 55.5884 27.981 60.5999 31.5775 60.5999C32.5797 60.5999 33.5231 60.2461 34.4664 59.4797C34.9381 59.7745 35.5277 59.8924 36.0583 59.8924C37.9449 59.8924 39.4779 58.3595 39.4779 56.4728C39.4779 56.237 39.4779 56.0601 39.4189 55.7653C39.242 54.9399 38.8293 54.2914 38.1808 53.7607C38.9472 51.8741 39.6547 49.6337 40.1854 47.1574C41.8951 47.688 43.546 48.1597 45.1378 48.4545C46.9066 48.8083 48.4985 48.9851 49.8545 48.9851C52.9793 48.9851 55.1607 48.1008 56.1041 46.4499C56.6347 45.5066 56.7526 44.4453 56.5168 43.1483C57.5191 42.5587 58.1676 41.4385 58.1676 40.2004C58.1676 38.3137 56.6347 36.7808 54.748 36.7808C54.2174 36.7808 53.7457 36.8987 53.2741 37.1345C52.036 35.5427 50.503 33.9508 48.6753 32.2999C54.9249 26.64 57.8139 21.3337 55.9862 18.15C55.3376 17.0298 54.1585 16.2633 52.4487 15.9096C52.4487 15.7916 52.4487 15.6737 52.3897 15.5558C52.036 13.9639 50.6799 12.8437 49.0291 12.8437C47.2014 12.8437 45.7274 14.2587 45.6095 16.0864C43.8408 16.3812 41.9541 16.8529 40.0085 17.5014C38.3576 9.01145 35.1739 4 31.5775 4C27.922 4 24.7383 9.18832 22.9695 17.4425C20.8471 16.735 18.7835 16.2633 16.8969 15.9685C16.7789 14.1998 15.305 12.8437 13.4773 12.8437C12.6098 12.8417 11.7739 13.1694 11.139 13.7605C10.504 14.3517 10.1175 15.162 10.0577 16.0275C8.70166 16.3812 7.64041 17.1477 7.05083 18.15C5.63583 20.5673 6.99187 24.2816 10.8242 28.7035C11.8264 29.8827 13.0646 31.0618 14.4206 32.2999ZM8.05312 45.8603C6.52021 43.2662 9.52708 38.3137 15.246 33.0664C17.1916 34.7762 19.3731 36.427 21.7314 37.9599C21.9083 40.7899 22.2621 43.4431 22.7337 45.9783C21.3187 46.4499 19.9037 46.8037 18.6066 47.0985C18.6066 47.0985 18.6066 47.0395 18.5477 47.0395C18.4887 46.9216 18.4298 46.7447 18.3708 46.6268C18.3118 46.5678 18.3119 46.5089 18.2529 46.4499C18.1939 46.332 18.135 46.273 18.0171 46.1551C17.9581 46.0962 17.8991 46.0372 17.8991 45.9783L17.6633 45.7424C17.6044 45.6835 17.5454 45.6245 17.4864 45.6245C17.3685 45.5655 17.3096 45.5066 17.1916 45.4476C17.1327 45.3887 17.0737 45.3887 17.0148 45.3297C16.8969 45.2708 16.7789 45.2118 16.72 45.2118C16.661 45.2118 16.6021 45.1528 16.5431 45.1528C16.4252 45.0939 16.3073 45.0939 16.1894 45.0349C16.1304 45.0349 16.0714 45.0349 16.0125 44.976C15.8356 44.917 15.6587 44.917 15.4229 44.917C15.246 44.917 15.0691 44.917 14.8923 44.976H14.7744C14.5975 45.0349 14.4796 45.0349 14.3027 45.0939C14.2437 45.0939 14.2437 45.0939 14.1848 45.1528C14.0079 45.2118 13.89 45.2708 13.7721 45.3297C13.7131 45.3297 13.7131 45.3887 13.6542 45.3887C13.5362 45.4476 13.3594 45.5655 13.2414 45.6835L13.1825 45.7424L12.8877 46.0372C12.8877 46.0962 12.8287 46.0962 12.8287 46.1551C12.7108 46.273 12.6519 46.391 12.5929 46.5089C12.5339 46.5678 12.5339 46.6268 12.475 46.6268C12.416 46.7447 12.3571 46.8626 12.2981 47.0395C12.2981 47.0985 12.2392 47.1574 12.2392 47.2164C12.1802 47.3343 12.1212 47.5112 12.1212 47.6291V47.688C10.5883 47.6291 8.81958 47.1574 8.05312 45.8603ZM39.242 18.9754C39.6547 21.0979 39.9495 23.3973 40.1264 25.7556C38.9472 24.9891 37.7681 24.2816 36.5299 23.5741C35.2918 22.8666 34.0537 22.2181 32.8745 21.5696C35.056 20.5673 37.1785 19.6829 39.242 18.9754ZM35.9993 24.6354C37.4733 25.4608 38.8883 26.3452 40.2443 27.2885C40.3622 28.9393 40.4212 30.6491 40.4212 32.2999C40.4212 34.0687 40.3622 35.7195 40.2443 37.3114C38.8883 38.1958 37.4733 39.1391 35.9993 39.9645C34.5254 40.7899 33.0514 41.6153 31.5775 42.3228C30.1035 41.6153 28.6295 40.7899 27.1556 39.9645C25.6816 39.1391 24.2666 38.2547 22.9106 37.3114C22.7927 35.6606 22.7337 33.9508 22.7337 32.2999C22.7337 30.5902 22.7927 28.8804 22.9106 27.2885C24.2666 26.4041 25.6816 25.4608 27.1556 24.6354C28.6295 23.81 30.1035 22.9845 31.5775 22.2771C33.0514 22.9845 34.5254 23.751 35.9993 24.6354ZM41.4824 28.1139C43.4281 29.47 45.3147 30.885 46.9066 32.2999C45.2558 33.7149 43.4281 35.1299 41.4824 36.486C41.5414 35.1299 41.6003 33.7149 41.6003 32.2999C41.6003 30.885 41.5414 29.47 41.4824 28.1139ZM40.1854 38.7854C40.0085 41.2026 39.6547 43.502 39.301 45.6245C37.2374 44.917 35.1149 44.0326 32.9335 43.0303C34.1716 42.3818 35.4097 41.7333 36.6479 41.0258C37.827 40.3183 39.0062 39.5518 40.1854 38.7854ZM23.8539 45.6245C23.5002 43.502 23.1464 41.2026 22.9695 38.7854C24.1487 39.5518 25.3279 40.2593 26.566 40.9668C27.8041 41.6743 29.0422 42.3228 30.2214 42.9714C28.04 44.0326 25.9175 44.917 23.8539 45.6245ZM26.566 23.5741C25.3279 24.2816 24.1487 24.9891 22.9695 25.7556C23.1464 23.3383 23.5002 21.0389 23.8539 18.9754C25.9175 19.6829 28.04 20.5673 30.2214 21.5696C28.9833 22.2181 27.7452 22.8666 26.566 23.5741ZM21.6135 36.486C19.6679 35.1299 17.8402 33.7149 16.1894 32.2999C17.8402 30.885 19.6679 29.47 21.6135 28.1139C21.5546 29.47 21.4956 30.885 21.4956 32.2999C21.4956 33.7149 21.5546 35.1299 21.6135 36.486ZM15.4819 50.636C14.2437 50.636 13.2414 49.6337 13.2414 48.3955C13.2414 47.1574 14.2437 46.1551 15.4819 46.1551C15.7766 46.1551 16.0714 46.2141 16.3073 46.332C16.9558 46.6268 17.4864 47.2164 17.6633 47.9239C17.6633 48.1008 17.7223 48.2187 17.7223 48.3955C17.7223 49.6337 16.72 50.636 15.4819 50.636ZM38.2987 56.4728C38.2987 57.7109 37.2964 58.7132 36.0583 58.7132C35.5866 58.7132 35.1149 58.5364 34.7612 58.3005C34.1716 57.8878 33.8768 57.2393 33.8768 56.4728C33.8768 55.2347 34.8791 54.2324 36.1172 54.2324C36.471 54.2324 36.8837 54.3503 37.1785 54.5272C37.7681 54.822 38.1808 55.3526 38.2987 56.0012V56.4728ZM37.1195 53.2301H37.0606C36.9426 53.1712 36.8247 53.1712 36.7068 53.1712H36.5299C36.3531 53.1712 36.2352 53.1122 36.0583 53.1122C34.1716 53.1122 32.6387 54.6451 32.6387 56.5318C32.6387 56.7087 32.6387 56.8855 32.6977 57.0624V57.1803C32.7566 57.3572 32.7566 57.5341 32.8156 57.7109V57.7699C32.8745 57.9468 32.9335 58.0647 33.0514 58.2416C33.0514 58.3005 33.1104 58.3005 33.1104 58.3595C33.2283 58.5364 33.2872 58.6543 33.4052 58.7722C32.7566 59.2439 32.1081 59.4797 31.4595 59.4797C28.5116 59.4797 25.6227 54.5272 24.0308 46.8626C26.4481 46.0372 28.9243 44.976 31.4595 43.7378C33.9947 44.976 36.5299 46.0372 38.8883 46.8626C38.5345 49.221 37.886 51.4024 37.1195 53.2301ZM56.9884 40.2004C56.9884 41.0847 56.4578 41.9101 55.5735 42.2639C55.3376 42.3818 55.0428 42.4408 54.748 42.4408C54.5712 42.4408 54.4532 42.4408 54.2764 42.3818C53.2741 42.146 52.5076 41.2616 52.5076 40.2004V39.9056C52.5666 39.257 52.9203 38.7264 53.451 38.3726C53.8047 38.1368 54.2764 37.9599 54.6891 37.9599C55.9862 37.9599 56.9884 38.9622 56.9884 40.2004ZM52.3897 37.7831C52.3307 37.842 52.3307 37.842 52.3307 37.901L52.2128 38.0189C52.1539 38.0779 52.0949 38.1368 52.036 38.2547L51.977 38.3137C51.918 38.4316 51.8591 38.5495 51.8001 38.6085C51.8001 38.6085 51.8001 38.6674 51.7412 38.6674C51.6822 38.7854 51.6822 38.8443 51.6232 38.9622C51.6232 39.0212 51.5643 39.0212 51.5643 39.0801C51.5643 39.1391 51.5053 39.257 51.5053 39.316C51.5053 39.3749 51.5053 39.3749 51.4464 39.4339C51.4464 39.4929 51.3874 39.6108 51.3874 39.6697V40.1414C51.3874 42.0281 52.9203 43.561 54.807 43.561C55.0428 43.561 55.2197 43.561 55.3966 43.502C55.5145 44.3864 55.4555 45.1528 55.0428 45.8014C53.9226 47.747 50.3851 48.2776 45.3147 47.2753C43.7818 46.9805 42.131 46.5089 40.3622 45.9783C40.8339 43.502 41.1876 40.7899 41.3645 37.9599C43.7818 36.3681 45.9043 34.7172 47.791 33.0664C49.6187 34.6583 51.1516 36.2501 52.3897 37.7831ZM55.0428 18.7396C56.5757 21.3337 53.5689 26.3452 47.8499 31.5335C45.9043 29.8827 43.7818 28.2318 41.4235 26.64C41.2466 23.8689 40.8929 21.1568 40.4212 18.6216C42.3668 17.9731 44.1945 17.5014 45.9043 17.2066V17.2656C45.9633 17.4425 46.0222 17.5604 46.0812 17.7373C46.1401 17.7962 46.1401 17.8552 46.1991 17.9141C46.258 18.0321 46.317 18.15 46.376 18.2089C46.4349 18.2679 46.4939 18.3268 46.4939 18.3858C46.5528 18.5037 46.6708 18.5627 46.7297 18.6216L46.9066 18.7985C47.0245 18.8575 47.0835 18.9164 47.2014 18.9754C47.2603 19.0343 47.3193 19.0343 47.3783 19.0933C47.4962 19.1523 47.6141 19.2112 47.673 19.2702C47.732 19.3291 47.791 19.3291 47.9089 19.3881C48.0268 19.4471 48.1447 19.4471 48.2626 19.506C48.3216 19.506 48.3805 19.565 48.4395 19.565C48.6164 19.6239 48.8522 19.6239 49.0291 19.6239C49.2649 19.6239 49.4418 19.6239 49.6776 19.565C49.7366 19.565 49.7955 19.506 49.8545 19.506C49.9724 19.4471 50.0903 19.4471 50.2672 19.3881C50.3262 19.3881 50.4441 19.3291 50.503 19.2702C50.621 19.2112 50.7389 19.1523 50.7978 19.0933C50.8568 19.0343 50.9747 18.9754 51.0337 18.9164C51.0926 18.8575 51.2105 18.7985 51.2695 18.7396C51.3285 18.6806 51.4464 18.6216 51.5053 18.5627L51.6822 18.3858C51.7412 18.3268 51.8001 18.2089 51.8591 18.15C51.918 18.091 51.918 18.0321 51.977 17.9731C52.036 17.8552 52.0949 17.7373 52.1539 17.6783C52.1539 17.6194 52.2128 17.5604 52.2128 17.5014C52.2718 17.3835 52.3307 17.2656 52.3307 17.1477C53.6868 17.3835 54.5712 17.9141 55.0428 18.7396ZM49.147 13.9639C50.2083 13.9639 51.0926 14.7304 51.3285 15.7327C51.3874 15.9096 51.3874 16.0864 51.3874 16.2044V16.3223C51.3285 17.5014 50.3262 18.4448 49.147 18.4448C49.0291 18.4448 48.8522 18.4448 48.7343 18.3858C47.791 18.2089 47.0245 17.4425 46.9655 16.4402V16.2044C46.9066 14.9662 47.9089 13.9639 49.147 13.9639ZM31.5775 5.17916C34.4664 5.17916 37.4143 10.1317 39.0062 17.7962C36.5889 18.6216 34.0537 19.6829 31.5775 20.921C29.0422 19.6829 26.507 18.6216 24.1487 17.7962C25.7406 10.2496 28.5116 5.17916 31.5775 5.17916ZM13.5362 13.9639C14.7744 13.9639 15.7766 14.9662 15.7766 16.2044V16.3812C15.6587 17.5014 14.7154 18.4448 13.5362 18.4448C13.4183 18.4448 13.2414 18.4448 13.1235 18.3858C12.1802 18.2089 11.4137 17.3835 11.2958 16.3812V16.2044C11.2958 14.9662 12.2981 13.9639 13.5362 13.9639ZM8.05312 18.7396C8.46583 18.0321 9.17333 17.5014 10.2346 17.2066C10.2935 17.3835 10.3525 17.5604 10.4704 17.7373C10.4704 17.7962 10.5294 17.8552 10.5294 17.8552C10.5883 17.9731 10.6473 18.091 10.7652 18.2089C10.8242 18.2679 10.8831 18.3268 10.8831 18.3858C10.9421 18.5037 11.06 18.5627 11.1189 18.6806L11.2958 18.8575C11.4137 18.9164 11.4727 19.0343 11.5906 19.0933C11.6496 19.1523 11.7085 19.1523 11.7675 19.2112C11.8854 19.2702 12.0033 19.3291 12.0623 19.3881C12.1212 19.4471 12.1802 19.4471 12.2981 19.506C12.416 19.565 12.5339 19.565 12.7108 19.6239C12.7698 19.6239 12.8287 19.6829 12.8877 19.6829C13.0646 19.7418 13.3004 19.7418 13.4773 19.7418C13.7131 19.7418 13.89 19.7418 14.0669 19.6829C14.1258 19.6829 14.1848 19.6239 14.2437 19.6239C14.3616 19.565 14.4796 19.565 14.5975 19.506C14.6564 19.506 14.7154 19.4471 14.8333 19.3881C14.9512 19.3291 15.0691 19.2702 15.1281 19.2112C15.1871 19.1523 15.246 19.0933 15.3639 19.0933C15.4229 19.0343 15.5408 18.9754 15.5998 18.9164L15.7766 18.7396C15.8356 18.6806 15.8946 18.6216 15.9535 18.5037C16.0125 18.4448 16.0714 18.3858 16.1304 18.2679C16.1894 18.2089 16.2483 18.091 16.3073 18.0321C16.3662 17.9731 16.4252 17.8552 16.4841 17.7962C16.5431 17.6783 16.5431 17.6194 16.6021 17.5014C16.661 17.4425 16.661 17.3246 16.72 17.2656C18.5477 17.5604 20.5523 18.091 22.6748 18.7396C22.2031 21.2158 21.8493 23.8689 21.6725 26.7579C19.2552 28.3497 17.1327 30.0006 15.246 31.6514C13.89 30.4722 12.7108 29.2341 11.6496 28.055C8.28895 23.9868 6.99187 20.6852 8.05312 18.7396Z" fill="black" stroke="black" stroke-width="2" mask="url(#path-1-inside-1_1593_32839)"></path><path d="M32.1861 36.372C34.4854 36.372 36.3721 34.4854 36.3721 32.186C36.3721 29.8866 34.4854 28 32.1861 28C29.8867 28 28 29.8866 28 32.186C28 34.4854 29.8867 36.372 32.1861 36.372ZM32.1861 29.1791C33.8369 29.1791 35.1929 30.5352 35.1929 32.186C35.1929 33.8368 33.8369 35.1929 32.1861 35.1929C30.5352 35.1929 29.1792 33.8368 29.1792 32.186C29.1792 30.5352 30.5352 29.1791 32.1861 29.1791Z" fill="url(#paint0_linear_1593_32839)"></path><defs><linearGradient id="paint0_linear_1593_32839" x1="30.8022" y1="30.8641" x2="39.5171" y2="38.4438" gradientUnits="userSpaceOnUse"><stop offset="0.236106" stop-color="#DA291C"></stop><stop offset="1" stop-color="#FFCD00"></stop></linearGradient></defs></svg> 