<?xml version="1.0" encoding="UTF-8"?> <svg xmlns="http://www.w3.org/2000/svg" width="64" height="64" viewBox="0 0 64 64" fill="none"><path d="M59.5298 21.7546L58.8829 30.5399C58.7947 31.5866 57.3775 32.498 56.2426 32.6627C56.1897 32.6686 56.1426 32.6745 56.0956 32.6804L55.2312 44.3823C55.1959 44.841 54.8078 45.2174 54.355 45.2174H49.6918C49.2449 45.2174 48.8509 44.841 48.8156 44.3823L47.9512 32.6804C47.9042 32.6804 47.8512 32.6686 47.8042 32.6627C46.6693 32.498 45.258 31.5866 45.1639 30.5458L44.5229 21.9074C44.5229 21.8369 44.5229 21.784 44.5229 21.7604C44.5229 20.0375 45.8813 18.6085 47.5455 18.5674H56.5072C58.1831 18.6085 59.5356 20.0375 59.5356 21.7546H59.5298Z" stroke="white" stroke-linecap="round" stroke-linejoin="round"></path><path d="M52.0205 16.203C50.4445 16.203 49.1626 14.9211 49.1626 13.3452C49.1626 11.7692 50.4445 10.4873 52.0205 10.4873C53.5964 10.4873 54.8784 11.7692 54.8784 13.3452C54.8784 14.9211 53.5964 16.203 52.0205 16.203Z" stroke="white" stroke-linecap="round" stroke-linejoin="round"></path><path d="M52.0205 31.8623V44.8521" stroke="white" stroke-linecap="round" stroke-linejoin="round"></path><path d="M47.9513 32.6804L47.228 22.9248" stroke="white" stroke-linecap="round" stroke-linejoin="round"></path><path d="M56.0957 32.6804L56.819 22.9248" stroke="white" stroke-linecap="round" stroke-linejoin="round"></path><path d="M18.5068 21.7546L17.8599 30.5399C17.7717 31.5866 16.3546 32.498 15.2196 32.6627C15.1667 32.6686 15.1197 32.6745 15.0726 32.6804L14.2082 44.3823C14.1729 44.841 13.7848 45.2174 13.332 45.2174H8.66888C8.22197 45.2174 7.82797 44.841 7.79269 44.3823L6.92827 32.6804C6.88122 32.6804 6.8283 32.6686 6.78126 32.6627C5.64634 32.498 4.23505 31.5866 4.14096 30.5458L3.5 21.9074C3.5 21.8369 3.5 21.784 3.5 21.7604C3.5 20.0375 4.85836 18.6085 6.52252 18.5674H15.4843C17.1602 18.6085 18.5127 20.0375 18.5127 21.7546H18.5068Z" stroke="white" stroke-linecap="round" stroke-linejoin="round"></path><path d="M10.9975 16.203C9.42159 16.203 8.13965 14.9211 8.13965 13.3452C8.13965 11.7692 9.42159 10.4873 10.9975 10.4873C12.5735 10.4873 13.8554 11.7692 13.8554 13.3452C13.8554 14.9211 12.5735 16.203 10.9975 16.203Z" stroke="white" stroke-linecap="round" stroke-linejoin="round"></path><path d="M10.9976 31.8623V44.8521" stroke="white" stroke-linecap="round" stroke-linejoin="round"></path><path d="M6.92836 32.6804L6.20508 22.9248" stroke="white" stroke-linecap="round" stroke-linejoin="round"></path><path d="M15.0728 32.6804L15.796 22.9248" stroke="white" stroke-linecap="round" stroke-linejoin="round"></path><path d="M14.149 25.1362C14.149 25.1362 14.149 25.1597 14.149 25.1715L14.7958 33.9568C14.9017 35.174 16.2954 36.2031 17.6126 36.4854L18.4476 47.8051C18.5005 48.5167 19.1121 49.0929 19.806 49.0929H24.4691C25.1689 49.0929 25.7804 48.5167 25.8275 47.8051L26.6625 36.4912C27.9797 36.2031 29.3734 35.1799 29.4792 33.9745L30.1202 25.3303C30.1202 25.2244 30.1202 25.1597 30.1202 25.1186C30.1202 23.1604 28.5501 21.508 26.6213 21.4609H17.6478C15.7014 21.508 14.1255 23.1604 14.1255 25.1421L14.149 25.1362Z" fill="black"></path><path d="M25.4922 16.7268C25.4922 14.8804 23.9927 13.3809 22.1462 13.3809C20.2998 13.3809 18.8003 14.8804 18.8003 16.7268C18.8003 18.5733 20.2998 20.0728 22.1462 20.0728C23.9927 20.0728 25.4922 18.5733 25.4922 16.7268Z" fill="black"></path><path d="M14.6431 25.1354L15.2899 33.9207C15.3781 34.9674 16.7953 35.8789 17.9302 36.0436C17.9832 36.0494 18.0302 36.0553 18.0772 36.0612L18.9417 47.7632C18.9769 48.2219 19.3651 48.5982 19.8178 48.5982H24.481C24.9279 48.5982 25.3219 48.2219 25.3572 47.7632L26.2216 36.0612C26.2687 36.0612 26.3216 36.0494 26.3686 36.0436C27.5035 35.8789 28.9148 34.9675 29.0089 33.9266L29.6499 25.2883C29.6499 25.2177 29.6499 25.1648 29.6499 25.1413C29.6499 23.4183 28.2915 21.9894 26.6274 21.9482H17.6656C15.9897 21.9894 14.6372 23.4183 14.6372 25.1354H14.6431Z" fill="black" stroke="white" stroke-linecap="round" stroke-linejoin="round"></path><path d="M22.1464 19.5839C23.7224 19.5839 25.0043 18.302 25.0043 16.726C25.0043 15.1501 23.7224 13.8682 22.1464 13.8682C20.5705 13.8682 19.2886 15.1501 19.2886 16.726C19.2886 18.302 20.5705 19.5839 22.1464 19.5839Z" fill="black" stroke="white" stroke-linecap="round" stroke-linejoin="round"></path><path d="M22.1523 35.2432V48.233" stroke="white" stroke-linecap="round" stroke-linejoin="round"></path><path d="M26.2217 36.0613L26.945 26.3057" stroke="white" stroke-linecap="round" stroke-linejoin="round"></path><path d="M18.0773 36.0613L17.354 26.3057" stroke="white" stroke-linecap="round" stroke-linejoin="round"></path><path d="M45.7799 21.4541H36.8065C34.8777 21.5012 33.3076 23.1536 33.3076 25.1118C33.3076 25.147 33.3076 25.2176 33.3076 25.3234L33.9486 33.9676C34.0544 35.1731 35.4481 36.1963 36.7653 36.4844L37.6003 47.7983C37.6532 48.5099 38.2648 49.0861 38.9646 49.0861H43.6277C44.3275 49.0861 44.9391 48.5099 44.9861 47.7983L45.8211 36.4786C47.1442 36.1904 48.532 35.1613 48.6378 33.95L49.2847 25.1647C49.2847 25.1647 49.2847 25.1411 49.2847 25.1294C49.2847 23.1477 47.7087 21.5012 45.7682 21.4482L45.7799 21.4541Z" fill="black"></path><path d="M41.3049 20.0728C43.1514 20.0728 44.6509 18.5733 44.6509 16.7268C44.6509 14.8804 43.1514 13.3809 41.3049 13.3809C39.4585 13.3809 37.959 14.8804 37.959 16.7268C37.959 18.5733 39.4585 20.0728 41.3049 20.0728Z" fill="black"></path><path d="M48.8144 25.1354L48.1676 33.9207C48.0793 34.9674 46.6622 35.8789 45.5273 36.0436C45.4743 36.0494 45.4273 36.0553 45.3802 36.0612L44.5158 47.7632C44.4806 48.2219 44.0924 48.5982 43.6396 48.5982H38.9765C38.5296 48.5982 38.1356 48.2219 38.1003 47.7632L37.2359 36.0612C37.1888 36.0612 37.1359 36.0494 37.0889 36.0436C35.954 35.8789 34.5427 34.9675 34.4486 33.9266L33.8076 25.2883C33.8076 25.2177 33.8076 25.1648 33.8076 25.1413C33.8076 23.4183 35.166 21.9894 36.8301 21.9482H45.7919C47.4678 21.9894 48.8203 23.4183 48.8203 25.1354H48.8144Z" fill="black" stroke="white" stroke-linecap="round" stroke-linejoin="round"></path><path d="M41.3052 19.5839C39.7292 19.5839 38.4473 18.302 38.4473 16.726C38.4473 15.1501 39.7292 13.8682 41.3052 13.8682C42.8811 13.8682 44.163 15.1501 44.163 16.726C44.163 18.302 42.8811 19.5839 41.3052 19.5839Z" fill="black" stroke="white" stroke-linecap="round" stroke-linejoin="round"></path><path d="M41.3052 35.2432V48.233" stroke="white" stroke-linecap="round" stroke-linejoin="round"></path><path d="M37.236 36.0613L36.5127 26.3057" stroke="white" stroke-linecap="round" stroke-linejoin="round"></path><path d="M45.3804 36.0613L46.1036 26.3057" stroke="white" stroke-linecap="round" stroke-linejoin="round"></path><path d="M39.2348 29.8952L38.588 38.6805C38.4998 39.7272 37.0826 40.6387 35.9477 40.8034C35.8947 40.8092 35.8477 40.8151 35.8007 40.821L34.9362 52.523C34.901 52.9817 34.5129 53.358 34.0601 53.358H29.3969C28.95 53.358 28.556 52.9817 28.5207 52.523L27.6563 40.821C27.6093 40.821 27.5563 40.8092 27.5093 40.8034C26.3744 40.6328 24.9631 39.7272 24.869 38.6864L24.228 30.0481C24.228 29.9775 24.228 29.9246 24.228 29.9011C24.228 28.1781 25.5864 26.7492 27.2506 26.708H36.2123C37.8882 26.7492 39.2407 28.1781 39.2407 29.8952H39.2348Z" stroke="white" stroke-linecap="round" stroke-linejoin="round"></path><path d="M31.7255 24.3437C30.1496 24.3437 28.8677 23.0617 28.8677 21.4858C28.8677 19.9098 30.1496 18.6279 31.7255 18.6279C33.3015 18.6279 34.5834 19.9098 34.5834 21.4858C34.5834 23.0617 33.3015 24.3437 31.7255 24.3437Z" stroke="white" stroke-linecap="round" stroke-linejoin="round"></path><path d="M31.7256 39.9971V52.9927" stroke="white" stroke-linecap="round" stroke-linejoin="round"></path><path d="M27.6564 40.821L26.9331 31.0596" stroke="white" stroke-linecap="round" stroke-linejoin="round"></path><path d="M35.8008 40.821L36.5241 31.0596" stroke="white" stroke-linecap="round" stroke-linejoin="round"></path><path d="M39.2348 29.8942L38.588 38.6796C38.4998 39.7263 37.0826 40.6377 35.9477 40.8024C35.8947 40.8083 35.8477 40.8141 35.8007 40.82L34.9362 52.522C34.901 52.9807 34.5129 53.357 34.0601 53.357H29.3969C28.95 53.357 28.556 52.9807 28.5207 52.522L27.6563 40.82C27.6093 40.82 27.5563 40.8083 27.5093 40.8024C26.3744 40.6318 24.9631 39.7262 24.869 38.6854L24.228 30.0471C24.228 29.9765 24.228 29.9236 24.228 29.9001C24.228 28.1771 25.5864 26.7482 27.2506 26.707H36.2123C37.8882 26.7482 39.2407 28.1772 39.2407 29.8942H39.2348Z" fill="black"></path><path d="M39.2348 29.8942L38.588 38.6796C38.4998 39.7263 37.0826 40.6377 35.9477 40.8024C35.8947 40.8083 35.8477 40.8141 35.8007 40.82L34.9362 52.522C34.901 52.9807 34.5129 53.357 34.0601 53.357H29.3969C28.95 53.357 28.556 52.9807 28.5207 52.522L27.6563 40.82C27.6093 40.82 27.5563 40.8083 27.5093 40.8024C26.3744 40.6318 24.9631 39.7262 24.869 38.6854L24.228 30.0471C24.228 29.9765 24.228 29.9236 24.228 29.9001C24.228 28.1771 25.5864 26.7482 27.2506 26.707H36.2123C37.8882 26.7482 39.2407 28.1772 39.2407 29.8942H39.2348Z" stroke="black" stroke-linecap="round" stroke-linejoin="round"></path><path d="M39.2348 29.8942L38.588 38.6796C38.4998 39.7263 37.0826 40.6377 35.9477 40.8024C35.8947 40.8083 35.8477 40.8141 35.8007 40.82L34.9362 52.522C34.901 52.9807 34.5129 53.357 34.0601 53.357H29.3969C28.95 53.357 28.556 52.9807 28.5207 52.522L27.6563 40.82C27.6093 40.82 27.5563 40.8083 27.5093 40.8024C26.3744 40.6318 24.9631 39.7262 24.869 38.6854L24.228 30.0471C24.228 29.9765 24.228 29.9236 24.228 29.9001C24.228 28.1771 25.5864 26.7482 27.2506 26.707H36.2123C37.8882 26.7482 39.2407 28.1772 39.2407 29.8942H39.2348Z" stroke="url(#paint0_linear_497_13494)" stroke-linecap="round" stroke-linejoin="round"></path><path d="M31.7255 24.3427C30.1496 24.3427 28.8677 23.0608 28.8677 21.4848C28.8677 19.9089 30.1496 18.627 31.7255 18.627C33.3015 18.627 34.5834 19.9089 34.5834 21.4848C34.5834 23.0608 33.3015 24.3427 31.7255 24.3427Z" fill="black"></path><path d="M31.7255 24.3427C30.1496 24.3427 28.8677 23.0608 28.8677 21.4848C28.8677 19.9089 30.1496 18.627 31.7255 18.627C33.3015 18.627 34.5834 19.9089 34.5834 21.4848C34.5834 23.0608 33.3015 24.3427 31.7255 24.3427Z" stroke="black" stroke-linecap="round" stroke-linejoin="round"></path><path d="M31.7255 24.3427C30.1496 24.3427 28.8677 23.0608 28.8677 21.4848C28.8677 19.9089 30.1496 18.627 31.7255 18.627C33.3015 18.627 34.5834 19.9089 34.5834 21.4848C34.5834 23.0608 33.3015 24.3427 31.7255 24.3427Z" stroke="url(#paint1_linear_497_13494)" stroke-linecap="round" stroke-linejoin="round"></path><path d="M31.7256 39.9961V52.9918" stroke="black" stroke-linecap="round" stroke-linejoin="round"></path><path d="M31.7256 39.9961V52.9918" stroke="url(#paint2_linear_497_13494)" stroke-linecap="round" stroke-linejoin="round"></path><path d="M27.6564 40.82L26.9331 31.0586" stroke="black" stroke-linecap="round" stroke-linejoin="round"></path><path d="M27.6564 40.82L26.9331 31.0586" stroke="url(#paint3_linear_497_13494)" stroke-linecap="round" stroke-linejoin="round"></path><path d="M35.8008 40.82L36.5241 31.0586" stroke="black" stroke-linecap="round" stroke-linejoin="round"></path><path d="M35.8008 40.82L36.5241 31.0586" stroke="url(#paint4_linear_497_13494)" stroke-linecap="round" stroke-linejoin="round"></path><defs><linearGradient id="paint0_linear_497_13494" x1="29.2528" y1="35.8241" x2="51.388" y2="46.6693" gradientUnits="userSpaceOnUse"><stop offset="0.236106" stop-color="#DA291C"></stop><stop offset="1" stop-color="#FFCD00"></stop></linearGradient><linearGradient id="paint1_linear_497_13494" x1="30.7808" y1="20.5823" x2="36.7306" y2="25.7571" gradientUnits="userSpaceOnUse"><stop offset="0.236106" stop-color="#DA291C"></stop><stop offset="1" stop-color="#FFCD00"></stop></linearGradient><linearGradient id="paint2_linear_497_13494" x1="32.0603" y1="44.442" x2="33.8805" y2="44.5638" gradientUnits="userSpaceOnUse"><stop offset="0.236106" stop-color="#DA291C"></stop><stop offset="1" stop-color="#FFCD00"></stop></linearGradient><linearGradient id="paint3_linear_497_13494" x1="27.1752" y1="34.398" x2="28.4922" y2="34.4829" gradientUnits="userSpaceOnUse"><stop offset="0.236106" stop-color="#DA291C"></stop><stop offset="1" stop-color="#FFCD00"></stop></linearGradient><linearGradient id="paint4_linear_497_13494" x1="36.0429" y1="34.398" x2="37.3599" y2="34.4829" gradientUnits="userSpaceOnUse"><stop offset="0.236106" stop-color="#DA291C"></stop><stop offset="1" stop-color="#FFCD00"></stop></linearGradient></defs></svg> 