<?xml version="1.0" encoding="UTF-8"?> <svg xmlns="http://www.w3.org/2000/svg" width="64" height="64" viewBox="0 0 64 64" fill="none"><path d="M28.3377 21.2604H34.0094C37.2255 21.2604 39.8237 18.6676 39.8237 15.4583V14.6836H29.1457C25.5018 14.6836 22.5551 17.6242 22.5551 21.2604V27.7424H21.3669V31.0624C21.3669 32.6908 22.2382 34.003 23.87 34.003C23.87 34.003 25.5177 42.9039 31.9974 42.9039H32.7261C39.2058 42.9039 40.8535 34.003 40.8535 34.003C42.4853 34.003 43.325 32.6908 43.325 31.0624V27.7424H42.1684V19.9166C42.1684 18.1143 40.7109 16.6598 38.9048 16.6598" stroke="white" stroke-miterlimit="10"></path><path d="M28.0209 41.5444C28.0209 43.7262 26.595 45.6391 24.5038 46.2873C21.4144 47.2517 16.9626 48.8011 14 50.5718" stroke="white" stroke-miterlimit="10"></path><path d="M36.7185 41.5444C36.7185 43.7262 38.1444 45.6391 40.2356 46.2873C43.325 47.2517 47.7768 48.8011 50.7394 50.5718" stroke="white" stroke-miterlimit="10"></path><path d="M39.2692 45.7339C39.2692 49.544 36.1799 52.6269 32.3618 52.6269C28.5437 52.6269 25.4543 49.544 25.4543 45.7339" stroke="white" stroke-miterlimit="10"></path><path d="M55.508 26.9046C55.508 25.5924 56.015 24.3118 56.9656 23.379C57.8845 22.4779 58.4548 21.2289 58.4548 19.8535C58.4548 17.0077 56.0309 14.7153 53.1316 14.9367C50.7552 15.1106 48.8224 16.9919 48.6006 19.3476C48.4422 20.8969 49.0125 22.3198 50.0106 23.3158C50.9612 24.2644 51.5157 25.545 51.5157 26.8888" stroke="#E35115" stroke-miterlimit="10"></path><path d="M51.5157 26.6519H55.508V28.4067C55.508 29.3395 54.7476 30.0984 53.8129 30.0984H53.195C52.2603 30.0984 51.4998 29.3395 51.4998 28.4067V26.6519H51.5157Z" stroke="#E35115" stroke-miterlimit="10"></path><path d="M53.5119 26.6514V20.5015" stroke="#E35115" stroke-miterlimit="10"></path><path d="M53.5118 12.581V11" stroke="#E35115" stroke-miterlimit="10"></path><path d="M60.8312 19.8853H62.4155" stroke="#E35115" stroke-miterlimit="10"></path><path d="M44.6082 19.8853H46.1925" stroke="#E35115" stroke-miterlimit="10"></path><path d="M58.6766 14.7309L59.8014 13.6084" stroke="#E35115" stroke-miterlimit="10"></path><path d="M47.2064 26.1614L48.3313 25.0547" stroke="#E35115" stroke-miterlimit="10"></path><path d="M58.6766 25.0547L59.8014 26.1614" stroke="#E35115" stroke-miterlimit="10"></path><path d="M47.2064 13.6084L48.3313 14.7309" stroke="#E35115" stroke-miterlimit="10"></path></svg> 