<?xml version="1.0" encoding="UTF-8"?> <svg xmlns="http://www.w3.org/2000/svg" width="64" height="64" viewBox="0 0 64 64" fill="none"><path d="M21.6463 19.9002L18.9114 21.8986C18.6415 22.0954 18.2761 21.8312 18.3801 21.5136L19.4342 18.2952C19.4342 18.2952 19.4342 18.2671 19.4229 18.2587L16.6768 16.2742C16.4041 16.0775 16.5447 15.6474 16.8792 15.6502L20.2662 15.6587C20.2802 15.6587 20.2943 15.6502 20.2971 15.6362L21.3371 12.4122C21.4411 12.0918 21.8908 12.0918 21.9948 12.4122L23.0348 15.6362C23.0348 15.6362 23.0517 15.6587 23.0657 15.6587L26.4527 15.6502C26.7872 15.6502 26.9278 16.0775 26.6551 16.2742L23.909 18.2587C23.909 18.2587 23.8921 18.2811 23.8977 18.2952L24.9518 21.5136C25.0558 21.8312 24.6904 22.0982 24.4205 21.8986L21.6856 19.9002C21.6856 19.9002 21.6575 19.8917 21.6463 19.9002V19.9002Z" fill="white" stroke="white" stroke-linecap="round" stroke-linejoin="round"></path><path d="M21.6663 19.8859L18.8274 21.9602C18.5828 22.1401 18.254 21.8984 18.3467 21.6117L19.4401 18.2697L16.59 16.2093C16.3454 16.0323 16.4719 15.6444 16.7727 15.6444L20.289 15.6528L21.3684 12.308C21.4611 12.0184 21.8687 12.0184 21.9614 12.308L23.0408 15.6528L26.5571 15.6444C26.8606 15.6444 26.9871 16.0323 26.7398 16.2093L23.8896 18.2697L24.983 21.6117C25.0786 21.8984 24.7469 22.1401 24.5024 21.9602L21.6635 19.8859H21.6663Z" stroke="#2E2D2C" stroke-linecap="round" stroke-linejoin="round"></path><path d="M43.9676 19.9002L41.2326 21.8986C40.9628 22.0954 40.5974 21.8312 40.7014 21.5136L41.7555 18.2952C41.7555 18.2952 41.7555 18.2671 41.7442 18.2587L38.9981 16.2742C38.7254 16.0775 38.866 15.6474 39.2004 15.6502L42.5875 15.6587C42.6015 15.6587 42.6156 15.6502 42.6184 15.6362L43.6584 12.4122C43.7624 12.0918 44.2121 12.0918 44.3161 12.4122L45.3561 15.6362C45.3561 15.6362 45.373 15.6587 45.387 15.6587L48.774 15.6502C49.1085 15.6502 49.2491 16.0775 48.9764 16.2742L46.2303 18.2587C46.2303 18.2587 46.2134 18.2811 46.219 18.2952L47.2731 21.5136C47.3771 21.8312 47.0117 22.0982 46.7418 21.8986L44.0069 19.9002C44.0069 19.9002 43.9788 19.8917 43.9676 19.9002V19.9002Z" fill="white" stroke="white" stroke-linecap="round" stroke-linejoin="round"></path><path d="M43.9876 19.8859L41.1487 21.9602C40.9041 22.1401 40.5753 21.8984 40.668 21.6117L41.7614 18.2697L38.9113 16.2093C38.6667 16.0323 38.7932 15.6444 39.094 15.6444L42.6103 15.6528L43.6896 12.308C43.7824 12.0184 44.19 12.0184 44.2827 12.308L45.3621 15.6528L48.8784 15.6444C49.1819 15.6444 49.3084 16.0323 49.0611 16.2093L46.2109 18.2697L47.3043 21.6117C47.3999 21.8984 47.0682 22.1401 46.8237 21.9602L43.9848 19.8859H43.9876Z" stroke="#2E2D2C" stroke-linecap="round" stroke-linejoin="round"></path><path d="M32.7961 21.5436L28.4794 24.6979C28.0535 25.0084 27.4768 24.5914 27.641 24.0901L29.3046 19.0104C29.3046 19.0104 29.3046 18.966 29.2868 18.9527L24.9525 15.8206C24.5222 15.5101 24.744 14.8313 25.2719 14.8358L30.6178 14.8491C30.6399 14.8491 30.6621 14.8358 30.6666 14.8136L32.308 9.72502C32.4722 9.21927 33.182 9.21927 33.3462 9.72502L34.9876 14.8136C34.9876 14.8136 35.0142 14.8491 35.0364 14.8491L40.3823 14.8358C40.9102 14.8358 41.1321 15.5101 40.7017 15.8206L36.3674 18.9527C36.3674 18.9527 36.3407 18.9882 36.3496 19.0104L38.0133 24.0901C38.1774 24.5914 37.6007 25.0129 37.1748 24.6979L32.8582 21.5436C32.8582 21.5436 32.8138 21.5303 32.7961 21.5436V21.5436Z" fill="white" stroke="white" stroke-linecap="round" stroke-linejoin="round"></path><path d="M32.8272 21.522L28.3464 24.7961C27.9604 25.08 27.4414 24.6985 27.5878 24.246L29.3135 18.9711L24.815 15.7192C24.429 15.4397 24.6287 14.8275 25.1034 14.8275L30.6533 14.8408L32.3569 9.56146C32.5033 9.10451 33.1466 9.10451 33.293 9.56146L34.9965 14.8408L40.5465 14.8275C41.0256 14.8275 41.2253 15.4397 40.8349 15.7192L36.3363 18.9711L38.0621 24.246C38.213 24.6985 37.6894 25.08 37.3035 24.7961L32.8227 21.522H32.8272Z" stroke="black" stroke-linecap="round" stroke-linejoin="round"></path><path d="M32.8272 21.522L28.3464 24.7961C27.9604 25.08 27.4414 24.6985 27.5878 24.246L29.3135 18.9711L24.815 15.7192C24.429 15.4397 24.6287 14.8275 25.1034 14.8275L30.6533 14.8408L32.3569 9.56146C32.5033 9.10451 33.1466 9.10451 33.293 9.56146L34.9965 14.8408L40.5465 14.8275C41.0256 14.8275 41.2253 15.4397 40.8349 15.7192L36.3363 18.9711L38.0621 24.246C38.213 24.6985 37.6894 25.08 37.3035 24.7961L32.8227 21.522H32.8272Z" stroke="url(#paint0_linear_497_11732)" stroke-linecap="round" stroke-linejoin="round"></path><path d="M25.55 36.5547H14.4601C12.3882 36.6034 10.7056 38.3763 10.7056 40.5039L11.5747 51.7676" stroke="#2E2D2C" stroke-linecap="round" stroke-linejoin="round"></path><path d="M20.0014 33.6346C21.9482 33.6346 23.5404 32.0494 23.5404 30.0956C23.5404 28.1419 21.9551 26.5566 20.0014 26.5566C18.0476 26.5566 16.4624 28.1419 16.4624 30.0956C16.4624 32.0494 18.0476 33.6346 20.0014 33.6346Z" stroke="#2E2D2C" stroke-linecap="round" stroke-linejoin="round"></path><path d="M15.1973 51.7608L14.4673 41.9434" stroke="#2E2D2C" stroke-linecap="round" stroke-linejoin="round"></path><path d="M38.1626 36.5547H49.2524C51.3243 36.6034 53 38.3763 53 40.5039L52.1726 51.7676" stroke="#2E2D2C" stroke-linecap="round" stroke-linejoin="round"></path><path d="M43.7109 33.6346C41.7641 33.6346 40.1719 32.0494 40.1719 30.0956C40.1719 28.1419 41.7571 26.5566 43.7109 26.5566C45.6647 26.5566 47.243 28.1419 47.243 30.0956C47.243 32.0494 45.6577 33.6346 43.7109 33.6346Z" stroke="#2E2D2C" stroke-linecap="round" stroke-linejoin="round"></path><path d="M48.543 51.7608L49.2661 41.9434" stroke="#2E2D2C" stroke-linecap="round" stroke-linejoin="round"></path><path d="M22.9494 51.7604L22.5601 46.5736C22.5601 46.4832 22.5601 46.4206 22.5601 46.3859C22.5601 44.2513 24.2357 42.4853 26.3007 42.4297H37.3905C39.4624 42.4784 41.1381 44.2513 41.1381 46.3789L40.7418 51.7535" stroke="#2E2D2C" stroke-linecap="round" stroke-linejoin="round"></path><path d="M31.863 39.53C33.8175 39.5246 35.3975 37.9357 35.3921 35.9812C35.3866 34.0266 33.7977 32.4466 31.8432 32.452C29.8887 32.4575 28.3086 34.0464 28.3141 36.0009C28.3195 37.9555 29.9084 39.5355 31.863 39.53Z" stroke="#2E2D2C" stroke-linecap="round" stroke-linejoin="round"></path><path d="M26.5931 51.7608L26.2524 47.1719" stroke="#2E2D2C" stroke-linecap="round" stroke-linejoin="round"></path><path d="M31.8564 39.5165C29.9096 39.5165 28.3174 37.9313 28.3174 35.9775C28.3174 34.0237 29.9027 32.4385 31.8564 32.4385C33.8102 32.4385 35.3954 34.0237 35.3954 35.9775C35.3954 37.9313 33.8102 39.5165 31.8564 39.5165Z" stroke="#2E2D2C" stroke-linecap="round" stroke-linejoin="round"></path><path d="M31.863 39.53C33.8175 39.5246 35.3975 37.9357 35.3921 35.9812C35.3866 34.0266 33.7977 32.4466 31.8432 32.452C29.8887 32.4575 28.3086 34.0464 28.3141 36.0009C28.3195 37.9555 29.9084 39.5355 31.863 39.53Z" stroke="#2E2D2C" stroke-linecap="round" stroke-linejoin="round"></path><path d="M37.0986 51.761L37.4393 47.1025" stroke="#2E2D2C" stroke-linecap="round" stroke-linejoin="round"></path><defs><linearGradient id="paint0_linear_497_11732" x1="30.1106" y1="14.5812" x2="46.5163" y2="29.5376" gradientUnits="userSpaceOnUse"><stop offset="0.236106" stop-color="#DA291C"></stop><stop offset="1" stop-color="#FFCD00"></stop></linearGradient></defs></svg> 