<?xml version="1.0" encoding="UTF-8"?> <svg xmlns="http://www.w3.org/2000/svg" width="64" height="64" viewBox="0 0 64 64" fill="none"><path d="M33.3842 17.6857V16.3577H40.2283C42.5572 16.3577 44.4424 18.239 44.4424 20.563V24.7052H45.092V25.0846C44.886 25.97 44.7593 26.8869 44.6167 27.7881C44.5217 28.3414 44.284 28.7209 43.5869 28.7209C43.5869 28.7209 42.2086 32.8156 39.9273 32.8156H39.8639C38.7549 32.5468 37.5825 32.5468 36.4735 32.8156C34.2397 32.8156 32.7188 28.7209 32.7188 28.7209C32.1009 28.7209 31.895 28.4205 31.8158 27.9462C31.689 26.9818 31.5464 26.0332 31.2454 25.1004V24.7052H31.8633V19.6935C31.8633 18.5394 32.8772 17.6066 34.0337 17.6066" stroke="black" stroke-miterlimit="10"></path><path d="M33.3842 17.6857V16.3577H40.2283C42.5572 16.3577 44.4424 18.239 44.4424 20.563V24.7052H45.092V25.0846C44.886 25.97 44.7593 26.8869 44.6167 27.7881C44.5217 28.3414 44.284 28.7209 43.5869 28.7209C43.5869 28.7209 42.2086 32.8156 39.9273 32.8156H39.8639C38.7549 32.5468 37.5825 32.5468 36.4735 32.8156C34.2397 32.8156 32.7188 28.7209 32.7188 28.7209C32.1009 28.7209 31.895 28.4205 31.8158 27.9462C31.689 26.9818 31.5464 26.0332 31.2454 25.1004V24.7052H31.8633V19.6935C31.8633 18.5394 32.8772 17.6066 34.0337 17.6066" stroke="url(#paint0_linear_1533_33736)" stroke-miterlimit="10"></path><path d="M35.3012 32.4204C35.0319 34.0172 34.2239 36.2622 33.1624 36.5942C31.1821 37.2107 28.3304 38.2068 26.4292 39.3451C23.2607 41.2264 23.6092 44.2302 23.6092 44.2302V50.7596" stroke="#253130" stroke-miterlimit="10"></path><path d="M25.0034 32.104C25.0034 33.2581 25.7638 34.2858 26.8728 34.6336C28.5205 35.1395 30.881 35.9774 32.4653 36.9101" stroke="#253130" stroke-miterlimit="10"></path><path d="M20.5516 21.3218H23.5617C25.2727 21.3218 26.651 19.9464 26.651 18.2389V17.8279H20.9793C19.0465 17.8279 17.4781 19.393 17.4781 21.3218V24.7683H16.8444V26.539C16.8444 27.4085 17.3038 28.1042 18.1752 28.1042C18.1752 28.1042 19.0465 32.8313 22.5002 32.8313H22.8805C26.3342 32.8313 27.2055 28.1042 27.2055 28.1042C28.0769 28.1042 28.5205 27.4085 28.5205 26.539V24.7683H27.9026V20.6104C27.9026 19.646 27.1263 18.8713 26.1599 18.8713" stroke="#253130" stroke-miterlimit="10"></path><path d="M20.3931 32.104C20.3931 33.2581 19.6327 34.2858 18.5237 34.6336C16.876 35.1395 14.5155 35.9774 12.9312 36.9101C10.3013 38.4753 10.6023 40.9732 10.6023 40.9732" stroke="#253130" stroke-miterlimit="10"></path><path d="M26.3659 34.3333C26.3659 36.3569 24.7182 38.0011 22.6904 38.0011C20.6625 38.0011 19.0148 36.3569 19.0148 34.3333" stroke="#253130" stroke-miterlimit="10"></path><path d="M42.9215 36.4517C41.3214 35.5031 40.4342 35.2976 38.1846 35.2976C35.9349 35.2976 35.0318 35.5031 33.4476 36.4517" stroke="#253130" stroke-miterlimit="10"></path><path d="M41.1155 32.6416C41.4165 34.2226 42.1928 36.2778 43.2226 36.594C45.2029 37.2106 48.0546 38.2066 49.9557 39.3449C53.1243 41.2263 52.7758 44.2301 52.7758 44.2301V50.7595" stroke="#253130" stroke-miterlimit="10"></path><path d="M24.4014 41.2422H10.2063C9.44581 41.2422 8.82794 41.8588 8.82794 42.6176C8.82794 43.3765 9.44581 43.9931 10.2063 43.9931H23.5934" stroke="#253130" stroke-miterlimit="10"></path><path d="M52.7599 43.9931H54.3759C55.1363 43.9931 55.7542 43.3765 55.7542 42.6176C55.7542 41.8588 55.1363 41.2422 54.3759 41.2422H51.9678" stroke="#253130" stroke-miterlimit="10"></path><path d="M26.5402 50.7594C26.5402 44.0403 31.7524 38.6018 38.2004 38.6018C44.6485 38.6018 49.8607 44.0403 49.8607 50.7594" stroke="#253130" stroke-miterlimit="10"></path><path d="M15.4819 43.9929V50.7594" stroke="#253130" stroke-miterlimit="10"></path><defs><linearGradient id="paint0_linear_1533_33736" x1="35.8799" y1="21.988" x2="52.3681" y2="34.0531" gradientUnits="userSpaceOnUse"><stop offset="0.236106" stop-color="#DA291C"></stop><stop offset="1" stop-color="#FFCD00"></stop></linearGradient></defs></svg> 