<?xml version="1.0" encoding="UTF-8"?> <svg xmlns="http://www.w3.org/2000/svg" width="64" height="64" viewBox="0 0 64 64" fill="none"><path d="M26 60L27 54" stroke="white" stroke-linecap="round" stroke-linejoin="round"></path><path d="M41 60H23" stroke="white" stroke-linecap="round" stroke-linejoin="round"></path><path d="M37 54L38 60" stroke="white" stroke-linecap="round" stroke-linejoin="round"></path><path d="M16 18H10C8.34 18 7 19.34 7 21V51C7 52.66 8.34 54 10 54H54C55.66 54 57 52.66 57 51V21C57 19.34 55.66 18 54 18H50" stroke="white" stroke-linecap="round" stroke-linejoin="round"></path><path d="M7 48H57" stroke="white" stroke-linejoin="round"></path><path d="M33.02 23.0298C35.7814 23.0298 38.02 20.7912 38.02 18.0298C38.02 15.2684 35.7814 13.0298 33.02 13.0298C30.2586 13.0298 28.02 15.2684 28.02 18.0298C28.02 20.7912 30.2586 23.0298 33.02 23.0298Z" stroke="black" stroke-linecap="round" stroke-linejoin="round"></path><path d="M33.02 23.0298C35.7814 23.0298 38.02 20.7912 38.02 18.0298C38.02 15.2684 35.7814 13.0298 33.02 13.0298C30.2586 13.0298 28.02 15.2684 28.02 18.0298C28.02 20.7912 30.2586 23.0298 33.02 23.0298Z" stroke="url(#paint0_linear_1518_32926)" stroke-linecap="round" stroke-linejoin="round"></path><path d="M46.02 19.46C46.02 19.82 45.73 20.11 45.37 20.11H43.72C43.42 20.11 43.17 20.32 43.09 20.61C42.84 21.58 42.46 22.49 41.96 23.33C41.81 23.59 41.84 23.91 42.05 24.13L43.1 25.18C43.47 25.55 43.47 25.96 43.22 26.21L41.19 28.24C40.94 28.49 40.53 28.49 40.28 28.24L39.11 27.07C38.9 26.86 38.57 26.83 38.31 26.98C37.47 27.48 36.56 27.86 35.59 28.11C35.3 28.18 35.09 28.43 35.09 28.73V30.22C35.09 30.74 34.8 31.03 34.44 31.03H31.57C31.21 31.03 30.92 30.74 30.92 30.38V28.73C30.92 28.43 30.71 28.18 30.42 28.1C29.45 27.85 28.54 27.47 27.7 26.97C27.44 26.82 27.12 26.85 26.9 27.06L25.85 28.11C25.48 28.48 25.07 28.48 24.82 28.23L22.79 26.2C22.54 25.95 22.54 25.54 22.79 25.29L23.96 24.12C24.17 23.91 24.2 23.58 24.05 23.32C23.55 22.48 23.17 21.57 22.92 20.6C22.85 20.31 22.6 20.1 22.3 20.1H20.81C20.29 20.1 20 19.81 20 19.45V16.58C20 16.22 20.29 15.93 20.81 15.93H22.3C22.6 15.93 22.85 15.72 22.92 15.43C23.17 14.46 23.55 13.55 24.05 12.71C24.2 12.45 24.17 12.12 23.96 11.91L22.79 10.74C22.54 10.49 22.54 10.08 22.79 9.83L24.82 7.8C25.07 7.55 25.48 7.55 25.85 7.92L26.9 8.97C27.11 9.18 27.44 9.21 27.7 9.06C28.54 8.56 29.45 8.17999 30.42 7.92999C30.71 7.85999 30.92 7.6 30.92 7.3V5.64999C30.92 5.28999 31.21 5 31.57 5H34.44C34.8 5 35.09 5.29 35.09 5.81V7.3C35.09 7.6 35.3 7.85 35.59 7.92C36.56 8.17 37.47 8.55 38.31 9.05C38.57 9.2 38.9 9.16999 39.11 8.95999L40.28 7.78999C40.53 7.53999 40.94 7.53999 41.19 7.78999L43.22 9.81999C43.47 10.07 43.47 10.48 43.1 10.85L42.05 11.9C41.84 12.11 41.81 12.44 41.96 12.7C42.46 13.54 42.84 14.45 43.09 15.42C43.16 15.71 43.42 15.92 43.72 15.92H45.37C45.73 15.92 46.02 16.21 46.02 16.57V19.44V19.46Z" stroke="black" stroke-linecap="round" stroke-linejoin="round"></path><path d="M46.02 19.46C46.02 19.82 45.73 20.11 45.37 20.11H43.72C43.42 20.11 43.17 20.32 43.09 20.61C42.84 21.58 42.46 22.49 41.96 23.33C41.81 23.59 41.84 23.91 42.05 24.13L43.1 25.18C43.47 25.55 43.47 25.96 43.22 26.21L41.19 28.24C40.94 28.49 40.53 28.49 40.28 28.24L39.11 27.07C38.9 26.86 38.57 26.83 38.31 26.98C37.47 27.48 36.56 27.86 35.59 28.11C35.3 28.18 35.09 28.43 35.09 28.73V30.22C35.09 30.74 34.8 31.03 34.44 31.03H31.57C31.21 31.03 30.92 30.74 30.92 30.38V28.73C30.92 28.43 30.71 28.18 30.42 28.1C29.45 27.85 28.54 27.47 27.7 26.97C27.44 26.82 27.12 26.85 26.9 27.06L25.85 28.11C25.48 28.48 25.07 28.48 24.82 28.23L22.79 26.2C22.54 25.95 22.54 25.54 22.79 25.29L23.96 24.12C24.17 23.91 24.2 23.58 24.05 23.32C23.55 22.48 23.17 21.57 22.92 20.6C22.85 20.31 22.6 20.1 22.3 20.1H20.81C20.29 20.1 20 19.81 20 19.45V16.58C20 16.22 20.29 15.93 20.81 15.93H22.3C22.6 15.93 22.85 15.72 22.92 15.43C23.17 14.46 23.55 13.55 24.05 12.71C24.2 12.45 24.17 12.12 23.96 11.91L22.79 10.74C22.54 10.49 22.54 10.08 22.79 9.83L24.82 7.8C25.07 7.55 25.48 7.55 25.85 7.92L26.9 8.97C27.11 9.18 27.44 9.21 27.7 9.06C28.54 8.56 29.45 8.17999 30.42 7.92999C30.71 7.85999 30.92 7.6 30.92 7.3V5.64999C30.92 5.28999 31.21 5 31.57 5H34.44C34.8 5 35.09 5.29 35.09 5.81V7.3C35.09 7.6 35.3 7.85 35.59 7.92C36.56 8.17 37.47 8.55 38.31 9.05C38.57 9.2 38.9 9.16999 39.11 8.95999L40.28 7.78999C40.53 7.53999 40.94 7.53999 41.19 7.78999L43.22 9.81999C43.47 10.07 43.47 10.48 43.1 10.85L42.05 11.9C41.84 12.11 41.81 12.44 41.96 12.7C42.46 13.54 42.84 14.45 43.09 15.42C43.16 15.71 43.42 15.92 43.72 15.92H45.37C45.73 15.92 46.02 16.21 46.02 16.57V19.44V19.46Z" stroke="url(#paint1_linear_1518_32926)" stroke-linecap="round" stroke-linejoin="round"></path><path d="M23.8939 38.9156C25.0333 39.4407 26.3827 38.9427 26.9079 37.8033C27.433 36.6638 26.935 35.3144 25.7956 34.7892C24.6561 34.2641 23.3067 34.7621 22.7815 35.9015C22.2564 37.041 22.7544 38.3904 23.8939 38.9156Z" stroke="white" stroke-linecap="round" stroke-linejoin="round"></path><path d="M29.9369 39.9149C29.8685 40.0635 29.6937 40.128 29.5451 40.0595L28.8643 39.7457C28.7405 39.6887 28.5974 39.7278 28.5092 39.8322C28.2216 40.185 27.8917 40.4882 27.5257 40.7397C27.4143 40.8185 27.3659 40.9562 27.4107 41.0869L27.6443 41.7199C27.7266 41.9429 27.6486 42.1121 27.4979 42.1677L26.2742 42.6193C26.1235 42.6749 25.9543 42.597 25.8987 42.4463L25.6384 41.741C25.5917 41.6144 25.4613 41.5393 25.3255 41.5517C24.8838 41.5983 24.436 41.582 23.9882 41.5007C23.8552 41.4745 23.721 41.5377 23.664 41.6615L23.3806 42.2763C23.2817 42.4909 23.1069 42.5554 22.9584 42.4869L21.7741 41.9411C21.6256 41.8727 21.561 41.6979 21.6295 41.5493L21.9433 40.8685C22.0003 40.7447 21.9612 40.6016 21.8568 40.5134C21.5041 40.2258 21.2008 39.8959 20.9493 39.5299C20.8705 39.4185 20.7328 39.3701 20.6021 39.4149L19.9691 39.6485C19.7461 39.7308 19.5769 39.6528 19.5213 39.5021L19.0697 38.2784C19.0141 38.1277 19.0921 37.9585 19.2428 37.9029L19.948 37.6426C20.0746 37.5959 20.1498 37.4654 20.1373 37.3296C20.0907 36.8879 20.107 36.4402 20.1883 35.9924C20.2146 35.8594 20.1513 35.7252 20.0276 35.6682L19.4127 35.3848C19.1982 35.2859 19.1337 35.1111 19.2021 34.9626L19.7479 33.7783C19.8164 33.6298 19.9912 33.5652 20.2057 33.6641L20.8206 33.9475C20.9444 34.0045 21.0874 33.9654 21.1715 33.8591C21.4591 33.5063 21.789 33.2031 22.155 32.9516C22.2664 32.8728 22.3167 32.731 22.27 32.6044L22.0097 31.8991C21.9541 31.7484 22.0321 31.5792 22.1828 31.5236L23.4065 31.072C23.5572 31.0164 23.7264 31.0943 23.8087 31.3174L24.0423 31.9503C24.089 32.0769 24.2194 32.1521 24.3553 32.1396C24.797 32.093 25.2447 32.1093 25.6925 32.1906C25.8255 32.2169 25.9616 32.1495 26.0186 32.0257L26.3324 31.3449C26.4009 31.1963 26.5757 31.1318 26.7242 31.2003L27.9085 31.7461C28.0571 31.8145 28.1216 31.9893 28.0227 32.2039L27.7393 32.8187C27.6823 32.9425 27.7214 33.0856 27.8277 33.1696C28.1804 33.4573 28.4837 33.7871 28.7352 34.1532C28.814 34.2645 28.9558 34.3149 29.0824 34.2682L29.7877 34.0079C29.9384 33.9523 30.1076 34.0303 30.1632 34.181L30.6148 35.4046C30.6704 35.5553 30.5924 35.7245 30.3694 35.8068L29.7365 36.0404C29.6099 36.0871 29.5347 36.2176 29.5472 36.3534C29.5938 36.7951 29.5775 37.2429 29.4962 37.6907C29.4699 37.8237 29.5373 37.9597 29.6611 38.0168L30.3419 38.3306C30.4905 38.399 30.555 38.5739 30.4865 38.7224L29.9407 39.9067L29.9369 39.9149Z" stroke="white" stroke-linecap="round" stroke-linejoin="round"></path><path d="M39.4316 36.7451C40.3344 37.117 41.3676 36.6866 41.7395 35.7838C42.1113 34.8811 41.6809 33.8478 40.7781 33.476C39.8754 33.1042 38.8421 33.5346 38.4703 34.4373C38.0985 35.3401 38.5289 36.3733 39.4316 36.7451Z" stroke="white" stroke-linecap="round" stroke-linejoin="round"></path><path d="M44.1621 37.3285C44.1137 37.4462 43.9798 37.5019 43.8621 37.4535L43.3227 37.2313C43.2246 37.1909 43.1146 37.2259 43.0494 37.3099C42.8371 37.5934 42.5903 37.8397 42.3138 38.047C42.2297 38.1118 42.1964 38.2204 42.2355 38.3206L42.4373 38.8053C42.5085 38.976 42.4533 39.1101 42.3379 39.1581L41.4009 39.5484C41.2855 39.5965 41.1515 39.5413 41.1034 39.4259L40.8785 38.8859C40.8381 38.7889 40.7342 38.7347 40.6291 38.7487C40.2871 38.7991 39.9385 38.8008 39.5877 38.7519C39.4835 38.7357 39.3811 38.7892 39.3407 38.8872L39.1401 39.3743C39.0701 39.5443 38.9362 39.6001 38.8186 39.5516L37.8803 39.1652C37.7626 39.1167 37.7069 38.9828 37.7553 38.8652L37.9775 38.3257C38.0179 38.2277 37.9829 38.1177 37.8989 38.0525C37.6154 37.8401 37.3691 37.5934 37.1618 37.3168C37.097 37.2327 36.9884 37.1995 36.8882 37.2385L36.4035 37.4404C36.2328 37.5115 36.0987 37.4563 36.0507 37.3409L35.6604 36.4039C35.6123 36.2885 35.6675 36.1545 35.7829 36.1064L36.3229 35.8815C36.4199 35.8411 36.4741 35.7373 36.4601 35.6321C36.4097 35.2901 36.408 34.9415 36.4569 34.5907C36.4731 34.4865 36.4196 34.3842 36.3216 34.3438L35.8345 34.1431C35.6645 34.0731 35.6087 33.9393 35.6572 33.8216L36.0436 32.8833C36.0921 32.7656 36.226 32.7099 36.396 32.7799L36.8831 32.9805C36.9811 33.0209 37.0911 32.9859 37.1531 32.9006C37.3654 32.6171 37.6122 32.3708 37.8887 32.1635C37.9728 32.0987 38.0074 31.9868 37.967 31.8899L37.7421 31.3498C37.694 31.2344 37.7492 31.1004 37.8646 31.0523L38.8016 30.662C38.917 30.614 39.051 30.6692 39.1222 30.84L39.324 31.3246C39.3644 31.4215 39.4683 31.4758 39.5735 31.4618C39.9154 31.4114 40.264 31.4097 40.6148 31.4586C40.7191 31.4748 40.8227 31.418 40.8631 31.32L41.0853 30.7806C41.1338 30.6629 41.2676 30.6071 41.3853 30.6556L42.3236 31.042C42.4412 31.0905 42.497 31.2244 42.427 31.3944L42.2263 31.8815C42.1859 31.9795 42.2209 32.0895 42.3063 32.1515C42.5898 32.3638 42.8361 32.6106 43.0434 32.8871C43.1082 32.9712 43.2201 33.0058 43.317 32.9654L43.8571 32.7405C43.9724 32.6924 44.1065 32.7476 44.1545 32.863L44.5448 33.8C44.5929 33.9154 44.5377 34.0494 44.3669 34.1206L43.8823 34.3225C43.7853 34.3628 43.7311 34.4667 43.7451 34.5719C43.7955 34.9138 43.7972 35.2625 43.7483 35.6132C43.7321 35.7175 43.7888 35.8211 43.8869 35.8615L44.4263 36.0837C44.544 36.1322 44.5998 36.266 44.5513 36.3837L44.1648 37.322L44.1621 37.3285Z" stroke="white" stroke-linecap="round" stroke-linejoin="round"></path><defs><linearGradient id="paint0_linear_1518_32926" x1="31.367" y1="16.4508" x2="41.7765" y2="25.5044" gradientUnits="userSpaceOnUse"><stop offset="0.236106" stop-color="#DA291C"></stop><stop offset="1" stop-color="#FFCD00"></stop></linearGradient><linearGradient id="paint1_linear_1518_32926" x1="28.7089" y1="13.905" x2="55.8034" y2="37.4611" gradientUnits="userSpaceOnUse"><stop offset="0.236106" stop-color="#DA291C"></stop><stop offset="1" stop-color="#FFCD00"></stop></linearGradient></defs></svg> 