<?xml version="1.0" encoding="UTF-8"?> <svg xmlns="http://www.w3.org/2000/svg" width="64" height="64" viewBox="0 0 64 64" fill="none"><path d="M30.7666 6.875C28.9914 9.47977 17.4773 14.8055 12.5 14.8055V33.6527C12.5 42.5123 29.738 52.218 30.75 52.5C31.762 52.218 49 41.8486 49 34.6482V14.8055C43.9232 14.8055 32.5418 9.46318 30.7666 6.875Z" stroke="white" stroke-linejoin="round"></path><path d="M34.3068 24.8241C32.9939 21.323 27.0743 21.7453 27.0282 25.3846C27.0052 27.0123 28.9169 27.7647 30.5139 28.0181C36.3337 28.9394 34.729 34.4137 30.5139 34.2064C27.32 34.0451 26.391 31.8877 26.2988 31.3733" stroke="black" stroke-linecap="round" stroke-linejoin="round"></path><path d="M34.3068 24.8241C32.9939 21.323 27.0743 21.7453 27.0282 25.3846C27.0052 27.0123 28.9169 27.7647 30.5139 28.0181C36.3337 28.9394 34.729 34.4137 30.5139 34.2064C27.32 34.0451 26.391 31.8877 26.2988 31.3733" stroke="url(#paint0_linear_497_13751)" stroke-linecap="round" stroke-linejoin="round"></path><path d="M30.583 19.4805V22.4134" stroke="black" stroke-linecap="round" stroke-linejoin="round"></path><path d="M30.583 19.4805V22.4134" stroke="url(#paint1_linear_497_13751)" stroke-linecap="round" stroke-linejoin="round"></path><path d="M30.583 34.2061V37.1466" stroke="black" stroke-linecap="round" stroke-linejoin="round"></path><path d="M30.583 34.2061V37.1466" stroke="url(#paint2_linear_497_13751)" stroke-linecap="round" stroke-linejoin="round"></path><defs><linearGradient id="paint0_linear_497_13751" x1="28.9791" y1="26.4502" x2="39.8367" y2="32.8599" gradientUnits="userSpaceOnUse"><stop offset="0.236106" stop-color="#DA291C"></stop><stop offset="1" stop-color="#FFCD00"></stop></linearGradient><linearGradient id="paint1_linear_497_13751" x1="30.9177" y1="20.4838" x2="32.5983" y2="20.9822" gradientUnits="userSpaceOnUse"><stop offset="0.236106" stop-color="#DA291C"></stop><stop offset="1" stop-color="#FFCD00"></stop></linearGradient><linearGradient id="paint2_linear_497_13751" x1="30.9177" y1="35.212" x2="32.599" y2="35.7093" gradientUnits="userSpaceOnUse"><stop offset="0.236106" stop-color="#DA291C"></stop><stop offset="1" stop-color="#FFCD00"></stop></linearGradient></defs></svg> 