<?xml version="1.0" encoding="UTF-8"?> <svg xmlns="http://www.w3.org/2000/svg" width="64" height="64" viewBox="0 0 64 64" fill="none"><path d="M30.5464 23.5986C28.3918 22.9979 26.8075 21.0375 26.8075 18.6977C26.8075 15.8835 29.0889 13.6069 31.9089 13.6069C34.7289 13.6069 37.0102 15.8835 37.0102 18.6977C37.0102 20.9742 35.5052 22.903 33.4298 23.5512" stroke="white" stroke-miterlimit="10"></path><path d="M45.4545 44.562L48.3061 50.127" stroke="white" stroke-miterlimit="10"></path><path d="M27.9957 21.749L16.2404 44.5624H20.1218L31.9089 21.6699L43.6959 44.5624H47.5774L35.822 21.749" stroke="white" stroke-miterlimit="10"></path><path d="M18.3633 44.5625L15.5116 50.1275" stroke="white" stroke-miterlimit="10"></path><path d="M24.3994 37.3213H29.9286" stroke="black" stroke-miterlimit="10"></path><path d="M24.3994 37.3213H29.9286" stroke="url(#paint0_linear_1549_35057)" stroke-miterlimit="10"></path><path d="M33.8892 37.3213H39.4184" stroke="black" stroke-miterlimit="10"></path><path d="M33.8892 37.3213H39.4184" stroke="url(#paint1_linear_1549_35057)" stroke-miterlimit="10"></path><path d="M33.8892 37.3214C33.8892 38.4123 33.002 39.2976 31.9089 39.2976C30.8157 39.2976 29.9285 38.4123 29.9285 37.3214C29.9285 36.2306 30.8157 35.3452 31.9089 35.3452C33.002 35.3452 33.8892 36.2306 33.8892 37.3214Z" stroke="black" stroke-miterlimit="10"></path><path d="M33.8892 37.3214C33.8892 38.4123 33.002 39.2976 31.9089 39.2976C30.8157 39.2976 29.9285 38.4123 29.9285 37.3214C29.9285 36.2306 30.8157 35.3452 31.9089 35.3452C33.002 35.3452 33.8892 36.2306 33.8892 37.3214Z" stroke="url(#paint2_linear_1549_35057)" stroke-miterlimit="10"></path><path d="M30.1345 13.3855V10.7453C30.1345 9.76511 30.9267 8.97461 31.9089 8.97461C32.8912 8.97461 33.6833 9.76511 33.6833 10.7453V13.3855" stroke="white" stroke-miterlimit="10"></path><path d="M14.9888 39.2501C13.9432 36.9577 13.357 34.4281 13.357 31.7405C13.357 24.0886 18.1098 17.5434 24.843 14.8874L25.3975 14.666" stroke="white" stroke-miterlimit="10"></path><path d="M41.5888 47.1549C38.8164 48.8781 35.5369 49.8584 32.0357 49.8584C28.5344 49.8584 25.4926 48.9414 22.7835 47.3288L21.9597 46.8545" stroke="white" stroke-miterlimit="10"></path><path d="M38.9747 15.0454C45.4861 17.7963 50.0647 24.2308 50.0647 31.7404C50.0647 34.1751 49.5894 36.4833 48.7181 38.6018" stroke="white" stroke-miterlimit="10"></path><defs><linearGradient id="paint0_linear_1549_35057" x1="26.25" y1="37.6634" x2="26.6691" y2="39.6785" gradientUnits="userSpaceOnUse"><stop offset="0.236106" stop-color="#DA291C"></stop><stop offset="1" stop-color="#FFCD00"></stop></linearGradient><linearGradient id="paint1_linear_1549_35057" x1="35.7398" y1="37.6634" x2="36.1589" y2="39.6785" gradientUnits="userSpaceOnUse"><stop offset="0.236106" stop-color="#DA291C"></stop><stop offset="1" stop-color="#FFCD00"></stop></linearGradient><linearGradient id="paint2_linear_1549_35057" x1="31.2542" y1="36.6974" x2="35.3696" y2="40.2842" gradientUnits="userSpaceOnUse"><stop offset="0.236106" stop-color="#DA291C"></stop><stop offset="1" stop-color="#FFCD00"></stop></linearGradient></defs></svg> 