<?xml version="1.0" encoding="UTF-8"?> <svg xmlns="http://www.w3.org/2000/svg" width="64" height="64" viewBox="0 0 64 64" fill="none"><path d="M32 14.3803L39.42 8.36035L41.87 17.5903L51.42 17.0804L47.98 25.9903L56 31.1804L47.98 36.3803L51.42 45.2903L41.87 44.7803L39.42 54.0103L32 47.9803L24.58 54.0103L22.13 44.7803L12.58 45.2903L16.02 36.3803L8 31.1804L16.02 25.9903L12.58 17.0804L22.13 17.5903L24.58 8.36035L32 14.3803Z" stroke="white" stroke-linecap="round" stroke-linejoin="round"></path><path d="M33.5 21.4307L23 33.4307H32L30.5 40.9307L41 28.9307H32L33.5 21.4307Z" stroke="black" stroke-linecap="round" stroke-linejoin="round"></path><path d="M33.5 21.4307L23 33.4307H32L30.5 40.9307L41 28.9307H32L33.5 21.4307Z" stroke="url(#paint0_linear_497_13801)" stroke-linecap="round" stroke-linejoin="round"></path><defs><linearGradient id="paint0_linear_497_13801" x1="29.0246" y1="28.1017" x2="49.0366" y2="44.1681" gradientUnits="userSpaceOnUse"><stop offset="0.236106" stop-color="#DA291C"></stop><stop offset="1" stop-color="#FFCD00"></stop></linearGradient></defs></svg> 