<?xml version="1.0" encoding="UTF-8"?> <svg xmlns="http://www.w3.org/2000/svg" width="64" height="64" viewBox="0 0 64 64" fill="none"><path d="M43.6703 51.8602C34.9674 60.563 20.8508 60.563 12.1479 51.8602C3.43692 43.1492 3.43692 29.0406 12.1398 20.3296C20.8426 11.6268 34.9593 11.6268 43.6622 20.3296C52.365 29.0325 52.365 43.1492 43.6622 51.852L43.6703 51.8602Z" stroke="white" stroke-linecap="round" stroke-linejoin="round"></path><path d="M38.175 25.8249C43.8494 31.4992 43.8494 40.6987 38.175 46.373C32.5007 52.0474 23.3012 52.0474 17.6269 46.373C11.9525 40.6987 11.9525 31.4992 17.6269 25.8249C23.3012 20.1505 32.5007 20.1505 38.175 25.8249V25.8249Z" stroke="white" stroke-linecap="round" stroke-linejoin="round"></path><path d="M32.6879 40.8778C30.0502 43.5156 25.7598 43.5156 23.1221 40.8778C20.4844 38.2401 20.4844 33.9498 23.1221 31.312C25.7598 28.6743 30.0502 28.6743 32.6879 31.312C35.3256 33.9498 35.3256 38.2401 32.6879 40.8778Z" stroke="black" stroke-linecap="round" stroke-linejoin="round"></path><path d="M32.6879 40.8778C30.0502 43.5156 25.7598 43.5156 23.1221 40.8778C20.4844 38.2401 20.4844 33.9498 23.1221 31.312C25.7598 28.6743 30.0502 28.6743 32.6879 31.312C35.3256 33.9498 35.3256 38.2401 32.6879 40.8778Z" stroke="url(#paint0_linear_1373_28106)" stroke-linecap="round" stroke-linejoin="round"></path><path d="M42.9783 21.0217L27.901 36.0991" stroke="black" stroke-width="4" stroke-linecap="round" stroke-linejoin="round"></path><path d="M41.1709 24.1398C40.4464 24.1398 39.8602 23.5537 39.8602 22.8291V15.8685C39.8602 15.5184 39.9986 15.1846 40.2429 14.9404L48.4898 6.69342C48.7422 6.44105 49.076 6.31079 49.4179 6.31079C49.5889 6.31079 49.7598 6.34336 49.9226 6.40848C50.4111 6.61201 50.7286 7.09234 50.7286 7.62151V13.2714H56.3785C56.9077 13.2714 57.388 13.5889 57.5916 14.0774C57.7951 14.5659 57.6811 15.1276 57.3066 15.5021L49.0597 23.7491C48.8155 23.9933 48.4817 24.1317 48.1316 24.1317H41.1709V24.1398Z" fill="black"></path><path d="M49.3173 8.43449V14.6861H55.5665L48.1625 22.093H41.9134V15.8414L49.3173 8.43449ZM49.3173 6.08008C48.7034 6.08008 48.1041 6.32137 47.6509 6.76739L40.247 14.1743C39.8084 14.613 39.5599 15.2126 39.5599 15.8341V22.0857C39.5599 23.3872 40.6124 24.4401 41.9134 24.4401H48.1625C48.7838 24.4401 49.3831 24.1915 49.8217 23.7528L57.189 16.3824C57.6349 15.951 57.9199 15.3515 57.9199 14.6788C57.9199 13.3773 56.8675 12.3244 55.5738 12.3244H51.6708V8.43449C51.6708 7.48395 51.1007 6.62847 50.2163 6.26287C49.924 6.14588 49.617 6.08739 49.3173 6.08739V6.08008Z" fill="black"></path><path d="M49.4178 7.62134V14.582H56.3785L48.1315 22.8289H41.1709V15.8683L49.4178 7.62134Z" stroke="white" stroke-linecap="round" stroke-linejoin="round"></path><path d="M41.171 22.8291L27.901 36.0991" stroke="white" stroke-linecap="round" stroke-linejoin="round"></path><defs><linearGradient id="paint0_linear_1373_28106" x1="25.6698" y1="33.9598" x2="39.7459" y2="46.2024" gradientUnits="userSpaceOnUse"><stop offset="0.236106" stop-color="#DA291C"></stop><stop offset="1" stop-color="#FFCD00"></stop></linearGradient></defs></svg> 