<?xml version="1.0" encoding="UTF-8"?> <svg xmlns="http://www.w3.org/2000/svg" width="64" height="64" viewBox="0 0 64 64" fill="none"><path d="M31.5 10C43.3745 10 53 19.6255 53 31.5C53 43.3745 43.3745 53 31.5 53C19.6255 53 10 43.3745 10 31.5C10 27.2233 11.2498 23.2379 13.4027 19.8906" stroke="black" stroke-linecap="round" stroke-linejoin="round"></path><path d="M22.9293 36.1193C22.3441 36.1193 21.8271 36.0156 21.3782 35.8082C20.9322 35.598 20.5842 35.3097 20.3342 34.9432C20.0842 34.5739 19.9606 34.1534 19.9634 33.6818C19.9606 33.3125 20.033 32.9716 20.1808 32.6591C20.3285 32.3437 20.5302 32.081 20.7859 31.8707C21.0444 31.6577 21.3327 31.5227 21.6509 31.4659V31.4148C21.2333 31.3068 20.9009 31.0724 20.6538 30.7116C20.4066 30.348 20.2844 29.9347 20.2873 29.4716C20.2844 29.0284 20.3967 28.6321 20.6239 28.2827C20.8512 27.9332 21.1637 27.6577 21.5614 27.456C21.962 27.2543 22.418 27.1534 22.9293 27.1534C23.435 27.1534 23.8867 27.2543 24.2844 27.456C24.6822 27.6577 24.9947 27.9332 25.2219 28.2827C25.4521 28.6321 25.5685 29.0284 25.5714 29.4716C25.5685 29.9347 25.4421 30.348 25.1921 30.7116C24.945 31.0724 24.6168 31.3068 24.2077 31.4148V31.4659C24.5231 31.5227 24.8072 31.6577 25.06 31.8707C25.3129 32.081 25.5146 32.3437 25.6651 32.6591C25.8157 32.9716 25.8924 33.3125 25.8952 33.6818C25.8924 34.1534 25.7646 34.5739 25.5117 34.9432C25.2617 35.3097 24.9137 35.598 24.4677 35.8082C24.0245 36.0156 23.5117 36.1193 22.9293 36.1193ZM22.9293 35.1818C23.3242 35.1818 23.6651 35.1179 23.9521 34.9901C24.239 34.8622 24.4606 34.6818 24.6168 34.4489C24.7731 34.2159 24.8526 33.9432 24.8555 33.6307C24.8526 33.3011 24.7674 33.0099 24.5998 32.7571C24.4322 32.5043 24.2035 32.3054 23.9137 32.1605C23.6268 32.0156 23.2987 31.9432 22.9293 31.9432C22.5572 31.9432 22.2248 32.0156 21.9322 32.1605C21.6424 32.3054 21.4137 32.5043 21.2461 32.7571C21.0813 33.0099 21.0004 33.3011 21.0032 33.6307C21.0004 33.9432 21.0756 34.2159 21.229 34.4489C21.3853 34.6818 21.6083 34.8622 21.8981 34.9901C22.1879 35.1179 22.5316 35.1818 22.9293 35.1818ZM22.9293 31.0398C23.2418 31.0398 23.5188 30.9773 23.7603 30.8523C24.0046 30.7273 24.1964 30.5526 24.3356 30.3281C24.4748 30.1037 24.5458 29.8409 24.5487 29.5398C24.5458 29.2443 24.4762 28.9872 24.3398 28.7685C24.2035 28.5469 24.0146 28.3764 23.7731 28.2571C23.5316 28.1349 23.2504 28.0739 22.9293 28.0739C22.6026 28.0739 22.3171 28.1349 22.0728 28.2571C21.8285 28.3764 21.6396 28.5469 21.506 28.7685C21.3725 28.9872 21.3072 29.2443 21.31 29.5398C21.3072 29.8409 21.3739 30.1037 21.5103 30.3281C21.6495 30.5526 21.8413 30.7273 22.0856 30.8523C22.3299 30.9773 22.6112 31.0398 22.9293 31.0398ZM30.3239 36.1193C29.7386 36.1193 29.2216 36.0156 28.7727 35.8082C28.3267 35.598 27.9787 35.3097 27.7287 34.9432C27.4787 34.5739 27.3551 34.1534 27.358 33.6818C27.3551 33.3125 27.4276 32.9716 27.5753 32.6591C27.723 32.3437 27.9247 32.081 28.1804 31.8707C28.4389 31.6577 28.7273 31.5227 29.0455 31.4659V31.4148C28.6278 31.3068 28.2955 31.0724 28.0483 30.7116C27.8011 30.348 27.679 29.9347 27.6818 29.4716C27.679 29.0284 27.7912 28.6321 28.0185 28.2827C28.2457 27.9332 28.5582 27.6577 28.956 27.456C29.3565 27.2543 29.8125 27.1534 30.3239 27.1534C30.8295 27.1534 31.2813 27.2543 31.679 27.456C32.0767 27.6577 32.3892 27.9332 32.6165 28.2827C32.8466 28.6321 32.9631 29.0284 32.9659 29.4716C32.9631 29.9347 32.8366 30.348 32.5866 30.7116C32.3395 31.0724 32.0114 31.3068 31.6023 31.4148V31.4659C31.9176 31.5227 32.2017 31.6577 32.4545 31.8707C32.7074 32.081 32.9091 32.3437 33.0597 32.6591C33.2102 32.9716 33.2869 33.3125 33.2898 33.6818C33.2869 34.1534 33.1591 34.5739 32.9062 34.9432C32.6562 35.3097 32.3082 35.598 31.8622 35.8082C31.419 36.0156 30.9063 36.1193 30.3239 36.1193ZM30.3239 35.1818C30.7188 35.1818 31.0597 35.1179 31.3466 34.9901C31.6335 34.8622 31.8551 34.6818 32.0114 34.4489C32.1676 34.2159 32.2472 33.9432 32.25 33.6307C32.2472 33.3011 32.1619 33.0099 31.9943 32.7571C31.8267 32.5043 31.598 32.3054 31.3082 32.1605C31.0213 32.0156 30.6932 31.9432 30.3239 31.9432C29.9517 31.9432 29.6193 32.0156 29.3267 32.1605C29.0369 32.3054 28.8082 32.5043 28.6406 32.7571C28.4759 33.0099 28.3949 33.3011 28.3977 33.6307C28.3949 33.9432 28.4702 34.2159 28.6236 34.4489C28.7798 34.6818 29.0028 34.8622 29.2926 34.9901C29.5824 35.1179 29.9261 35.1818 30.3239 35.1818ZM30.3239 31.0398C30.6364 31.0398 30.9134 30.9773 31.1548 30.8523C31.3991 30.7273 31.5909 30.5526 31.7301 30.3281C31.8693 30.1037 31.9403 29.8409 31.9432 29.5398C31.9403 29.2443 31.8707 28.9872 31.7344 28.7685C31.598 28.5469 31.4091 28.3764 31.1676 28.2571C30.9261 28.1349 30.6449 28.0739 30.3239 28.0739C29.9972 28.0739 29.7116 28.1349 29.4673 28.2571C29.223 28.3764 29.0341 28.5469 28.9006 28.7685C28.767 28.9872 28.7017 29.2443 28.7045 29.5398C28.7017 29.8409 28.7685 30.1037 28.9048 30.3281C29.044 30.5526 29.2358 30.7273 29.4801 30.8523C29.7244 30.9773 30.0057 31.0398 30.3239 31.0398ZM39.3718 34.3636V33.9034C39.3718 33.5852 39.4371 33.294 39.5678 33.0298C39.7013 32.7628 39.8945 32.5497 40.1474 32.3906C40.4031 32.2287 40.7127 32.1477 41.0763 32.1477C41.4457 32.1477 41.7553 32.2287 42.0053 32.3906C42.2553 32.5497 42.4442 32.7628 42.5721 33.0298C42.6999 33.294 42.7638 33.5852 42.7638 33.9034V34.3636C42.7638 34.6818 42.6985 34.9744 42.5678 35.2415C42.44 35.5057 42.2496 35.7187 41.9968 35.8807C41.7468 36.0398 41.44 36.1193 41.0763 36.1193C40.707 36.1193 40.396 36.0398 40.1431 35.8807C39.8903 35.7187 39.6985 35.5057 39.5678 35.2415C39.4371 34.9744 39.3718 34.6818 39.3718 34.3636ZM40.2411 33.9034V34.3636C40.2411 34.6278 40.3036 34.8651 40.4286 35.0753C40.5536 35.2827 40.7695 35.3864 41.0763 35.3864C41.3746 35.3864 41.5849 35.2827 41.707 35.0753C41.832 34.8651 41.8945 34.6278 41.8945 34.3636V33.9034C41.8945 33.6392 41.8349 33.4034 41.7156 33.196C41.5962 32.9858 41.3832 32.8807 41.0763 32.8807C40.7781 32.8807 40.5636 32.9858 40.4329 33.196C40.305 33.4034 40.2411 33.6392 40.2411 33.9034ZM35.0252 29.3693V28.9091C35.0252 28.5909 35.0906 28.2997 35.2212 28.0355C35.3548 27.7685 35.5479 27.5554 35.8008 27.3963C36.0565 27.2344 36.3661 27.1534 36.7298 27.1534C37.0991 27.1534 37.4087 27.2344 37.6587 27.3963C37.9087 27.5554 38.0977 27.7685 38.2255 28.0355C38.3533 28.2997 38.4173 28.5909 38.4173 28.9091V29.3693C38.4173 29.6875 38.3519 29.9801 38.2212 30.2472C38.0934 30.5114 37.9031 30.7244 37.6502 30.8864C37.4002 31.0455 37.0934 31.125 36.7298 31.125C36.3604 31.125 36.0494 31.0455 35.7965 30.8864C35.5437 30.7244 35.3519 30.5114 35.2212 30.2472C35.0906 29.9801 35.0252 29.6875 35.0252 29.3693ZM35.8945 28.9091V29.3693C35.8945 29.6335 35.957 29.8707 36.082 30.081C36.207 30.2884 36.4229 30.392 36.7298 30.392C37.0281 30.392 37.2383 30.2884 37.3604 30.081C37.4854 29.8707 37.5479 29.6335 37.5479 29.3693V28.9091C37.5479 28.6449 37.4883 28.4091 37.369 28.2017C37.2496 27.9915 37.0366 27.8864 36.7298 27.8864C36.4315 27.8864 36.217 27.9915 36.0863 28.2017C35.9585 28.4091 35.8945 28.6449 35.8945 28.9091ZM35.3491 36L41.3491 27.2727H42.3207L36.3207 36H35.3491Z" fill="black"></path><path d="M22.9293 36.1193C22.3441 36.1193 21.8271 36.0156 21.3782 35.8082C20.9322 35.598 20.5842 35.3097 20.3342 34.9432C20.0842 34.5739 19.9606 34.1534 19.9634 33.6818C19.9606 33.3125 20.033 32.9716 20.1808 32.6591C20.3285 32.3437 20.5302 32.081 20.7859 31.8707C21.0444 31.6577 21.3327 31.5227 21.6509 31.4659V31.4148C21.2333 31.3068 20.9009 31.0724 20.6538 30.7116C20.4066 30.348 20.2844 29.9347 20.2873 29.4716C20.2844 29.0284 20.3967 28.6321 20.6239 28.2827C20.8512 27.9332 21.1637 27.6577 21.5614 27.456C21.962 27.2543 22.418 27.1534 22.9293 27.1534C23.435 27.1534 23.8867 27.2543 24.2844 27.456C24.6822 27.6577 24.9947 27.9332 25.2219 28.2827C25.4521 28.6321 25.5685 29.0284 25.5714 29.4716C25.5685 29.9347 25.4421 30.348 25.1921 30.7116C24.945 31.0724 24.6168 31.3068 24.2077 31.4148V31.4659C24.5231 31.5227 24.8072 31.6577 25.06 31.8707C25.3129 32.081 25.5146 32.3437 25.6651 32.6591C25.8157 32.9716 25.8924 33.3125 25.8952 33.6818C25.8924 34.1534 25.7646 34.5739 25.5117 34.9432C25.2617 35.3097 24.9137 35.598 24.4677 35.8082C24.0245 36.0156 23.5117 36.1193 22.9293 36.1193ZM22.9293 35.1818C23.3242 35.1818 23.6651 35.1179 23.9521 34.9901C24.239 34.8622 24.4606 34.6818 24.6168 34.4489C24.7731 34.2159 24.8526 33.9432 24.8555 33.6307C24.8526 33.3011 24.7674 33.0099 24.5998 32.7571C24.4322 32.5043 24.2035 32.3054 23.9137 32.1605C23.6268 32.0156 23.2987 31.9432 22.9293 31.9432C22.5572 31.9432 22.2248 32.0156 21.9322 32.1605C21.6424 32.3054 21.4137 32.5043 21.2461 32.7571C21.0813 33.0099 21.0004 33.3011 21.0032 33.6307C21.0004 33.9432 21.0756 34.2159 21.229 34.4489C21.3853 34.6818 21.6083 34.8622 21.8981 34.9901C22.1879 35.1179 22.5316 35.1818 22.9293 35.1818ZM22.9293 31.0398C23.2418 31.0398 23.5188 30.9773 23.7603 30.8523C24.0046 30.7273 24.1964 30.5526 24.3356 30.3281C24.4748 30.1037 24.5458 29.8409 24.5487 29.5398C24.5458 29.2443 24.4762 28.9872 24.3398 28.7685C24.2035 28.5469 24.0146 28.3764 23.7731 28.2571C23.5316 28.1349 23.2504 28.0739 22.9293 28.0739C22.6026 28.0739 22.3171 28.1349 22.0728 28.2571C21.8285 28.3764 21.6396 28.5469 21.506 28.7685C21.3725 28.9872 21.3072 29.2443 21.31 29.5398C21.3072 29.8409 21.3739 30.1037 21.5103 30.3281C21.6495 30.5526 21.8413 30.7273 22.0856 30.8523C22.3299 30.9773 22.6112 31.0398 22.9293 31.0398ZM30.3239 36.1193C29.7386 36.1193 29.2216 36.0156 28.7727 35.8082C28.3267 35.598 27.9787 35.3097 27.7287 34.9432C27.4787 34.5739 27.3551 34.1534 27.358 33.6818C27.3551 33.3125 27.4276 32.9716 27.5753 32.6591C27.723 32.3437 27.9247 32.081 28.1804 31.8707C28.4389 31.6577 28.7273 31.5227 29.0455 31.4659V31.4148C28.6278 31.3068 28.2955 31.0724 28.0483 30.7116C27.8011 30.348 27.679 29.9347 27.6818 29.4716C27.679 29.0284 27.7912 28.6321 28.0185 28.2827C28.2457 27.9332 28.5582 27.6577 28.956 27.456C29.3565 27.2543 29.8125 27.1534 30.3239 27.1534C30.8295 27.1534 31.2813 27.2543 31.679 27.456C32.0767 27.6577 32.3892 27.9332 32.6165 28.2827C32.8466 28.6321 32.9631 29.0284 32.9659 29.4716C32.9631 29.9347 32.8366 30.348 32.5866 30.7116C32.3395 31.0724 32.0114 31.3068 31.6023 31.4148V31.4659C31.9176 31.5227 32.2017 31.6577 32.4545 31.8707C32.7074 32.081 32.9091 32.3437 33.0597 32.6591C33.2102 32.9716 33.2869 33.3125 33.2898 33.6818C33.2869 34.1534 33.1591 34.5739 32.9062 34.9432C32.6562 35.3097 32.3082 35.598 31.8622 35.8082C31.419 36.0156 30.9063 36.1193 30.3239 36.1193ZM30.3239 35.1818C30.7188 35.1818 31.0597 35.1179 31.3466 34.9901C31.6335 34.8622 31.8551 34.6818 32.0114 34.4489C32.1676 34.2159 32.2472 33.9432 32.25 33.6307C32.2472 33.3011 32.1619 33.0099 31.9943 32.7571C31.8267 32.5043 31.598 32.3054 31.3082 32.1605C31.0213 32.0156 30.6932 31.9432 30.3239 31.9432C29.9517 31.9432 29.6193 32.0156 29.3267 32.1605C29.0369 32.3054 28.8082 32.5043 28.6406 32.7571C28.4759 33.0099 28.3949 33.3011 28.3977 33.6307C28.3949 33.9432 28.4702 34.2159 28.6236 34.4489C28.7798 34.6818 29.0028 34.8622 29.2926 34.9901C29.5824 35.1179 29.9261 35.1818 30.3239 35.1818ZM30.3239 31.0398C30.6364 31.0398 30.9134 30.9773 31.1548 30.8523C31.3991 30.7273 31.5909 30.5526 31.7301 30.3281C31.8693 30.1037 31.9403 29.8409 31.9432 29.5398C31.9403 29.2443 31.8707 28.9872 31.7344 28.7685C31.598 28.5469 31.4091 28.3764 31.1676 28.2571C30.9261 28.1349 30.6449 28.0739 30.3239 28.0739C29.9972 28.0739 29.7116 28.1349 29.4673 28.2571C29.223 28.3764 29.0341 28.5469 28.9006 28.7685C28.767 28.9872 28.7017 29.2443 28.7045 29.5398C28.7017 29.8409 28.7685 30.1037 28.9048 30.3281C29.044 30.5526 29.2358 30.7273 29.4801 30.8523C29.7244 30.9773 30.0057 31.0398 30.3239 31.0398ZM39.3718 34.3636V33.9034C39.3718 33.5852 39.4371 33.294 39.5678 33.0298C39.7013 32.7628 39.8945 32.5497 40.1474 32.3906C40.4031 32.2287 40.7127 32.1477 41.0763 32.1477C41.4457 32.1477 41.7553 32.2287 42.0053 32.3906C42.2553 32.5497 42.4442 32.7628 42.5721 33.0298C42.6999 33.294 42.7638 33.5852 42.7638 33.9034V34.3636C42.7638 34.6818 42.6985 34.9744 42.5678 35.2415C42.44 35.5057 42.2496 35.7187 41.9968 35.8807C41.7468 36.0398 41.44 36.1193 41.0763 36.1193C40.707 36.1193 40.396 36.0398 40.1431 35.8807C39.8903 35.7187 39.6985 35.5057 39.5678 35.2415C39.4371 34.9744 39.3718 34.6818 39.3718 34.3636ZM40.2411 33.9034V34.3636C40.2411 34.6278 40.3036 34.8651 40.4286 35.0753C40.5536 35.2827 40.7695 35.3864 41.0763 35.3864C41.3746 35.3864 41.5849 35.2827 41.707 35.0753C41.832 34.8651 41.8945 34.6278 41.8945 34.3636V33.9034C41.8945 33.6392 41.8349 33.4034 41.7156 33.196C41.5962 32.9858 41.3832 32.8807 41.0763 32.8807C40.7781 32.8807 40.5636 32.9858 40.4329 33.196C40.305 33.4034 40.2411 33.6392 40.2411 33.9034ZM35.0252 29.3693V28.9091C35.0252 28.5909 35.0906 28.2997 35.2212 28.0355C35.3548 27.7685 35.5479 27.5554 35.8008 27.3963C36.0565 27.2344 36.3661 27.1534 36.7298 27.1534C37.0991 27.1534 37.4087 27.2344 37.6587 27.3963C37.9087 27.5554 38.0977 27.7685 38.2255 28.0355C38.3533 28.2997 38.4173 28.5909 38.4173 28.9091V29.3693C38.4173 29.6875 38.3519 29.9801 38.2212 30.2472C38.0934 30.5114 37.9031 30.7244 37.6502 30.8864C37.4002 31.0455 37.0934 31.125 36.7298 31.125C36.3604 31.125 36.0494 31.0455 35.7965 30.8864C35.5437 30.7244 35.3519 30.5114 35.2212 30.2472C35.0906 29.9801 35.0252 29.6875 35.0252 29.3693ZM35.8945 28.9091V29.3693C35.8945 29.6335 35.957 29.8707 36.082 30.081C36.207 30.2884 36.4229 30.392 36.7298 30.392C37.0281 30.392 37.2383 30.2884 37.3604 30.081C37.4854 29.8707 37.5479 29.6335 37.5479 29.3693V28.9091C37.5479 28.6449 37.4883 28.4091 37.369 28.2017C37.2496 27.9915 37.0366 27.8864 36.7298 27.8864C36.4315 27.8864 36.217 27.9915 36.0863 28.2017C35.9585 28.4091 35.8945 28.6449 35.8945 28.9091ZM35.3491 36L41.3491 27.2727H42.3207L36.3207 36H35.3491Z" fill="url(#paint0_linear_506_12116)"></path><path d="M13.5 20H19" stroke="black" stroke-linecap="round"></path><defs><linearGradient id="paint0_linear_506_12116" x1="26.7064" y1="29.1579" x2="44.5983" y2="54.229" gradientUnits="userSpaceOnUse"><stop offset="0.236106" stop-color="#DA291C"></stop><stop offset="1" stop-color="#FFCD00"></stop></linearGradient></defs></svg> 