<?xml version="1.0" encoding="UTF-8"?> <svg xmlns="http://www.w3.org/2000/svg" xmlns:xlink="http://www.w3.org/1999/xlink" width="75" height="75" viewBox="0 0 75 75"><defs><clipPath id="clip-icon-nuxt-js"><rect width="75" height="75"></rect></clipPath></defs><g id="icon-nuxt-js" clip-path="url(#clip-icon-nuxt-js)"><rect width="75" height="75" fill="rgba(255,255,255,0)"></rect><g id="feaebb07bec7a4ac51571ed24bbe00fe" transform="translate(2 8)"><path id="Path_37771" data-name="Path 37771" d="M30.167,37.67,14.31,9.51,30.555,38.476c-.119-.269-.239-.538-.388-.806Z" transform="translate(28.424 12.93)"></path><path id="Path_37772" data-name="Path 37772" d="M44.407,49.517a4.458,4.458,0,0,1-3.792,1.911H30.342a2.828,2.828,0,0,0,2.449-4.211l-.03-.03h7.615L19.652,10.458l-3.733,6.659L13.5,12.847l2.717-4.808a3.879,3.879,0,0,1,3.4-2.359,4.415,4.415,0,0,1,3.524,2.359l20.963,37.3a4.027,4.027,0,0,1,.3,4.181Z" transform="translate(26.815 5.323)" fill="#3b8070"></path><path id="Path_37773" data-name="Path 37773" d="M40.315,18.17,37.9,22.44,29.654,7.778,4.481,52.511H20.9l-.03.03a2.818,2.818,0,0,0,2.449,4.211H4.182c-2.24,0-3.255-.985-3.733-1.822-1.045-1.822.03-3.882.239-4.27l25.5-45.3C27.3,3.418,28.639,3,29.594,3c2.09,0,3.315,1.971,3.524,2.329l7.2,12.841Z" transform="translate(0)" fill="#41b883"></path><path id="Path_37774" data-name="Path 37774" d="M19.615,18.784l0,.006Z" transform="translate(38.96 31.35)"></path><ellipse id="Ellipse_3966" data-name="Ellipse 3966" cx="0.021" cy="0.003" rx="0.021" ry="0.003" transform="translate(59.265 51.994)"></ellipse><path id="Path_37775" data-name="Path 37775" d="M44.7,36.775l-.024-.042.009.018Zm.406,1.314a5.693,5.693,0,0,1,.3,1.015h.269ZM7.508,39.1v-.06a5.8,5.8,0,0,1,.627-1.792L23.6,9.75,7,39.1Z" transform="translate(13.905 13.407)"></path><path id="Path_37776" data-name="Path 37776" d="M45.97,42.451l-.03-.03h-.269a5.692,5.692,0,0,0-.3-1.015l-.03-.09L29.1,12.35,26.679,8.08,24.26,12.35l-.388.717L8.4,40.57a5.8,5.8,0,0,0-.627,1.792v.06H7.269l-.03.03a2.818,2.818,0,0,0,2.449,4.211H43.521A2.828,2.828,0,0,0,45.97,42.451Zm-33.8-.03,14.513-25.8,14.513,25.8H12.166Z" transform="translate(13.636 10.09)" fill="#35495e"></path></g></g></svg> 