<?xml version="1.0" encoding="UTF-8"?> <svg xmlns="http://www.w3.org/2000/svg" width="54" height="55" viewBox="0 0 54 55" fill="none"><mask id="path-1-inside-1_44_7263" fill="white"><path d="M46.6325 45.612C41.5172 51.6848 34.0494 54.9998 26.392 54.9998C23.22 54.9998 20.0169 54.4316 16.9326 53.2551C12.5538 51.5848 8.75485 48.8304 5.8459 45.2356L5.87771 47.1953C5.87953 47.3074 5.8591 47.4189 5.81757 47.5232C5.77604 47.6275 5.71424 47.7226 5.63568 47.8032C5.55713 47.8838 5.46336 47.9482 5.35974 47.9928C5.25611 48.0374 5.14466 48.0613 5.03175 48.0631L5.01767 48.0632C4.79204 48.0632 4.57547 47.975 4.41466 47.8178C4.25385 47.6606 4.16169 47.4469 4.15805 47.2228L4.08206 42.5458C4.07997 42.4162 4.10759 42.2879 4.16282 42.1705C4.21805 42.0531 4.29945 41.9497 4.40085 41.8682C4.50226 41.7866 4.62101 41.7291 4.74812 41.6999C4.87522 41.6706 5.00736 41.6705 5.13451 41.6995L9.724 42.7472C9.94365 42.8004 10.1334 42.9374 10.2521 43.1286C10.3708 43.3197 10.409 43.5496 10.3583 43.7685C10.3077 43.9873 10.1723 44.1776 9.98148 44.2981C9.79066 44.4186 9.55976 44.4595 9.33875 44.4122L6.94758 43.8663C9.69573 47.3723 13.3354 50.0528 17.5491 51.6602C27.393 55.4155 38.5506 52.5443 45.3134 44.5156C45.4597 44.3419 45.6696 44.233 45.8968 44.2129C46.124 44.1929 46.3499 44.2633 46.5248 44.4087C46.6997 44.554 46.8094 44.7625 46.8296 44.9882C46.8498 45.2138 46.7789 45.4382 46.6325 45.612ZM10.8727 9.74542C14.3811 6.92441 18.5379 5.13375 22.9688 4.5228L21.2973 6.30674C21.146 6.47325 21.0667 6.69218 21.0766 6.91624C21.0864 7.14031 21.1846 7.35155 21.3498 7.50435C21.5151 7.65716 21.7343 7.73927 21.96 7.73296C22.1857 7.72666 22.3998 7.63244 22.5562 7.47065L25.7644 4.04649C25.8533 3.95164 25.9194 3.83793 25.9575 3.71397C25.9956 3.59002 26.0048 3.45907 25.9844 3.33105C25.964 3.20304 25.9145 3.08131 25.8398 2.9751C25.765 2.8689 25.6668 2.78099 25.5528 2.71804L21.437 0.44488C21.2379 0.337455 21.0041 0.312435 20.7865 0.37526C20.5689 0.438085 20.3851 0.583676 20.275 0.780387C20.1649 0.977099 20.1374 1.20903 20.1985 1.42577C20.2596 1.64251 20.4043 1.82654 20.6012 1.93786L22.3258 2.89037C17.7372 3.59528 13.4362 5.48609 9.79032 8.41772C1.02326 15.4673 -2.26654 27.2702 1.60425 37.7877C1.68258 38.0004 1.84277 38.1735 2.04959 38.269C2.25641 38.3644 2.49292 38.3744 2.70712 38.2966C2.92132 38.2188 3.09564 38.0597 3.19173 37.8543C3.28783 37.6489 3.29783 37.4139 3.21954 37.2012C-0.398863 27.3693 2.6766 16.3358 10.8727 9.74542ZM53.8777 37.526C53.7605 37.3316 53.5704 37.1915 53.3491 37.1364C53.1279 37.0813 52.8937 37.1158 52.6981 37.2322L51.0053 38.2395C52.6851 33.9398 53.1871 29.2945 52.454 24.6927C50.6912 13.6261 42.0455 4.89469 30.9401 2.96575C30.8288 2.94638 30.7148 2.94897 30.6046 2.97338C30.4944 2.99779 30.3901 3.04354 30.2976 3.10801C30.2052 3.17249 30.1265 3.25442 30.066 3.34913C30.0054 3.44384 29.9643 3.54947 29.9449 3.65998C29.9056 3.88312 29.9572 4.11262 30.0883 4.29799C30.2193 4.48337 30.4192 4.60944 30.6438 4.64847C41.0252 6.45173 49.1073 14.6141 50.7552 24.9596C51.4606 29.3881 50.9434 33.8592 49.2607 37.9761L48.541 35.6464C48.5079 35.5391 48.4539 35.4394 48.382 35.3529C48.3101 35.2664 48.2217 35.1948 48.1219 35.1422C48.0221 35.0897 47.9129 35.0571 47.8005 35.0465C47.6881 35.0359 47.5746 35.0474 47.4667 35.0804C47.3587 35.1133 47.2583 35.167 47.1713 35.2384C47.0842 35.3099 47.0121 35.3976 46.9592 35.4967C46.9063 35.5958 46.8736 35.7043 46.8629 35.816C46.8522 35.9276 46.8637 36.0403 46.8968 36.1475L48.2782 40.6193C48.3165 40.7432 48.3826 40.8569 48.4716 40.9516C48.5607 41.0464 48.6702 41.1198 48.792 41.1663C48.9138 41.2127 49.0447 41.2311 49.1747 41.2199C49.3047 41.2087 49.4304 41.1682 49.5423 41.1016L53.5821 38.6978C53.7777 38.5813 53.9188 38.3924 53.9742 38.1727C54.0296 37.9529 53.9949 37.7203 53.8777 37.526ZM23.5974 20.9605C23.5974 23.7136 21.3424 25.9534 18.5707 25.9534C15.799 25.9534 13.5441 23.7136 13.5441 20.9605C13.5441 18.2074 15.799 15.9675 18.5707 15.9675C21.3424 15.9675 23.5974 18.2074 23.5974 20.9605ZM21.8775 20.9605C21.8775 19.1494 20.3941 17.6759 18.5707 17.6759C16.7474 17.6759 15.2639 19.1493 15.2639 20.9605C15.2639 22.7716 16.7473 24.2451 18.5707 24.2451C20.3941 24.2451 21.8775 22.7716 21.8775 20.9605ZM25.5578 12.0396L27.5519 14.0203C27.6965 14.164 27.7848 14.3541 27.801 14.5566C27.8173 14.7591 27.7603 14.9607 27.6404 15.1252L26.1547 17.1633C26.3443 17.536 26.5056 17.9223 26.6371 18.319L29.1379 18.7166C29.3399 18.7487 29.5237 18.8512 29.6564 19.0058C29.7891 19.1603 29.862 19.3568 29.862 19.56V22.3611C29.862 22.5642 29.7891 22.7607 29.6564 22.9153C29.5238 23.0698 29.34 23.1724 29.1381 23.2045L26.6375 23.6021C26.5058 23.9987 26.3445 24.385 26.1549 24.7578L27.6405 26.7959C27.7604 26.9604 27.8174 27.162 27.8012 27.3645C27.7849 27.567 27.6966 27.7571 27.552 27.9007L25.5579 29.8814C25.4133 30.0251 25.2219 30.1129 25.018 30.129C24.8141 30.1451 24.6111 30.0885 24.4455 29.9693L22.3938 28.4936C22.0185 28.6819 21.6296 28.8421 21.2303 28.9728L20.83 31.4569C20.7976 31.6574 20.6944 31.84 20.5388 31.9718C20.3832 32.1036 20.1854 32.176 19.9809 32.176H17.161C16.9565 32.176 16.7586 32.1036 16.603 31.9718C16.4474 31.84 16.3442 31.6574 16.3119 31.4569L15.9116 28.973C15.5123 28.8422 15.1234 28.682 14.7481 28.4937L12.6963 29.9693C12.5306 30.0884 12.3277 30.145 12.1238 30.1289C11.9199 30.1128 11.7285 30.0251 11.5839 29.8814L9.58985 27.9007C9.44525 27.7571 9.35692 27.567 9.34071 27.3645C9.32449 27.162 9.38146 26.9604 9.50138 26.7959L10.9869 24.7578C10.7974 24.385 10.6362 23.9987 10.5045 23.6021L8.0038 23.2045C7.80186 23.1724 7.61805 23.0699 7.48535 22.9153C7.35265 22.7607 7.27975 22.5642 7.27973 22.3611V19.56C7.27974 19.3568 7.35263 19.1604 7.4853 19.0058C7.61798 18.8512 7.80177 18.7487 8.00369 18.7166L10.5045 18.319C10.6361 17.9223 10.7974 17.536 10.9869 17.1633L9.50138 15.1252C9.38146 14.9607 9.32449 14.7591 9.34071 14.5566C9.35692 14.3541 9.44525 14.164 9.58985 14.0203L11.5839 12.0396C11.7285 11.8959 11.9199 11.8082 12.1238 11.7921C12.3277 11.776 12.5306 11.8326 12.6963 11.9517L14.7479 13.4272C15.1232 13.2389 15.5122 13.0787 15.9116 12.9479L16.3119 10.4641C16.3442 10.2635 16.4474 10.081 16.6031 9.94918C16.7587 9.81739 16.9565 9.745 17.161 9.74499H19.9809C20.1854 9.745 20.3832 9.81739 20.5388 9.94918C20.6944 10.081 20.7976 10.2635 20.83 10.4641L21.2303 12.9479C21.6296 13.0787 22.0186 13.2389 22.3939 13.4272L24.4456 11.9516C24.6112 11.8326 24.8142 11.776 25.018 11.7921C25.2218 11.8083 25.4132 11.896 25.5578 12.0396ZM24.4429 16.5986L25.8173 14.7132L24.8602 13.7625L22.9621 15.1276C22.8263 15.2253 22.6646 15.2814 22.4971 15.289C22.3295 15.2966 22.1634 15.2554 22.0192 15.1704C21.4686 14.8458 20.8742 14.6009 20.2539 14.4431C20.0915 14.4019 19.9447 14.3144 19.8317 14.1913C19.7187 14.0683 19.6444 13.9151 19.6179 13.7506L19.2477 11.4531H17.8942L17.5238 13.7506C17.4973 13.9151 17.423 14.0683 17.31 14.1913C17.197 14.3143 17.0503 14.4019 16.8878 14.4431C16.2675 14.6008 15.6731 14.8457 15.1225 15.1703C14.9782 15.2553 14.8121 15.2965 14.6446 15.2889C14.477 15.2813 14.3154 15.2252 14.1796 15.1274L12.2816 13.7624L11.3244 14.7131L12.6987 16.5984C12.7971 16.7334 12.8536 16.8939 12.8612 17.0603C12.8689 17.2267 12.8274 17.3917 12.7418 17.5349C12.4152 18.0818 12.1687 18.6723 12.0099 19.2883C11.9684 19.4497 11.8803 19.5955 11.7564 19.7077C11.6325 19.82 11.4783 19.8938 11.3127 19.9201L8.9995 20.2879V21.6324L11.3126 22.0001C11.4782 22.0264 11.6324 22.1003 11.7563 22.2125C11.8801 22.3248 11.9683 22.4705 12.0098 22.6319C12.1686 23.248 12.4151 23.8384 12.7418 24.3853C12.8274 24.5286 12.8689 24.6936 12.8612 24.86C12.8536 25.0264 12.7971 25.1869 12.6987 25.3219L11.3243 27.2074L12.2815 28.158L14.1796 26.793C14.3154 26.6953 14.477 26.6392 14.6446 26.6316C14.8121 26.624 14.9782 26.6652 15.1225 26.7502C15.6731 27.0747 16.2675 27.3196 16.8877 27.4774C17.0501 27.5186 17.1969 27.6062 17.3099 27.7292C17.4229 27.8523 17.4972 28.0054 17.5237 28.1699L17.8941 30.4673H19.2476L19.6178 28.1697C19.6443 28.0052 19.7187 27.8521 19.8317 27.729C19.9447 27.606 20.0914 27.5185 20.2538 27.4772C20.8741 27.3194 21.4685 27.0746 22.0192 26.75C22.1634 26.665 22.3295 26.6238 22.4971 26.6314C22.6646 26.639 22.8263 26.6951 22.9621 26.7929L24.8602 28.158L25.8173 27.2074L24.443 25.322C24.3447 25.187 24.2882 25.0265 24.2805 24.8601C24.2729 24.6937 24.3144 24.5287 24.3999 24.3854C24.7266 23.8385 24.9732 23.2481 25.132 22.632C25.1736 22.4706 25.2617 22.3248 25.3856 22.2126C25.5094 22.1003 25.6637 22.0265 25.8292 22.0002L28.1422 21.6325V20.288L25.8291 19.9203C25.6636 19.894 25.5094 19.8202 25.3855 19.7079C25.2616 19.5957 25.1735 19.4499 25.1319 19.2885C24.9732 18.6724 24.7267 18.082 24.3999 17.5351C24.3143 17.3919 24.2728 17.2269 24.2804 17.0605C24.2881 16.8941 24.3446 16.7336 24.4429 16.5986Z"></path></mask><path d="M46.6325 45.612C41.5172 51.6848 34.0494 54.9998 26.392 54.9998C23.22 54.9998 20.0169 54.4316 16.9326 53.2551C12.5538 51.5848 8.75485 48.8304 5.8459 45.2356L5.87771 47.1953C5.87953 47.3074 5.8591 47.4189 5.81757 47.5232C5.77604 47.6275 5.71424 47.7226 5.63568 47.8032C5.55713 47.8838 5.46336 47.9482 5.35974 47.9928C5.25611 48.0374 5.14466 48.0613 5.03175 48.0631L5.01767 48.0632C4.79204 48.0632 4.57547 47.975 4.41466 47.8178C4.25385 47.6606 4.16169 47.4469 4.15805 47.2228L4.08206 42.5458C4.07997 42.4162 4.10759 42.2879 4.16282 42.1705C4.21805 42.0531 4.29945 41.9497 4.40085 41.8682C4.50226 41.7866 4.62101 41.7291 4.74812 41.6999C4.87522 41.6706 5.00736 41.6705 5.13451 41.6995L9.724 42.7472C9.94365 42.8004 10.1334 42.9374 10.2521 43.1286C10.3708 43.3197 10.409 43.5496 10.3583 43.7685C10.3077 43.9873 10.1723 44.1776 9.98148 44.2981C9.79066 44.4186 9.55976 44.4595 9.33875 44.4122L6.94758 43.8663C9.69573 47.3723 13.3354 50.0528 17.5491 51.6602C27.393 55.4155 38.5506 52.5443 45.3134 44.5156C45.4597 44.3419 45.6696 44.233 45.8968 44.2129C46.124 44.1929 46.3499 44.2633 46.5248 44.4087C46.6997 44.554 46.8094 44.7625 46.8296 44.9882C46.8498 45.2138 46.7789 45.4382 46.6325 45.612ZM10.8727 9.74542C14.3811 6.92441 18.5379 5.13375 22.9688 4.5228L21.2973 6.30674C21.146 6.47325 21.0667 6.69218 21.0766 6.91624C21.0864 7.14031 21.1846 7.35155 21.3498 7.50435C21.5151 7.65716 21.7343 7.73927 21.96 7.73296C22.1857 7.72666 22.3998 7.63244 22.5562 7.47065L25.7644 4.04649C25.8533 3.95164 25.9194 3.83793 25.9575 3.71397C25.9956 3.59002 26.0048 3.45907 25.9844 3.33105C25.964 3.20304 25.9145 3.08131 25.8398 2.9751C25.765 2.8689 25.6668 2.78099 25.5528 2.71804L21.437 0.44488C21.2379 0.337455 21.0041 0.312435 20.7865 0.37526C20.5689 0.438085 20.3851 0.583676 20.275 0.780387C20.1649 0.977099 20.1374 1.20903 20.1985 1.42577C20.2596 1.64251 20.4043 1.82654 20.6012 1.93786L22.3258 2.89037C17.7372 3.59528 13.4362 5.48609 9.79032 8.41772C1.02326 15.4673 -2.26654 27.2702 1.60425 37.7877C1.68258 38.0004 1.84277 38.1735 2.04959 38.269C2.25641 38.3644 2.49292 38.3744 2.70712 38.2966C2.92132 38.2188 3.09564 38.0597 3.19173 37.8543C3.28783 37.6489 3.29783 37.4139 3.21954 37.2012C-0.398863 27.3693 2.6766 16.3358 10.8727 9.74542ZM53.8777 37.526C53.7605 37.3316 53.5704 37.1915 53.3491 37.1364C53.1279 37.0813 52.8937 37.1158 52.6981 37.2322L51.0053 38.2395C52.6851 33.9398 53.1871 29.2945 52.454 24.6927C50.6912 13.6261 42.0455 4.89469 30.9401 2.96575C30.8288 2.94638 30.7148 2.94897 30.6046 2.97338C30.4944 2.99779 30.3901 3.04354 30.2976 3.10801C30.2052 3.17249 30.1265 3.25442 30.066 3.34913C30.0054 3.44384 29.9643 3.54947 29.9449 3.65998C29.9056 3.88312 29.9572 4.11262 30.0883 4.29799C30.2193 4.48337 30.4192 4.60944 30.6438 4.64847C41.0252 6.45173 49.1073 14.6141 50.7552 24.9596C51.4606 29.3881 50.9434 33.8592 49.2607 37.9761L48.541 35.6464C48.5079 35.5391 48.4539 35.4394 48.382 35.3529C48.3101 35.2664 48.2217 35.1948 48.1219 35.1422C48.0221 35.0897 47.9129 35.0571 47.8005 35.0465C47.6881 35.0359 47.5746 35.0474 47.4667 35.0804C47.3587 35.1133 47.2583 35.167 47.1713 35.2384C47.0842 35.3099 47.0121 35.3976 46.9592 35.4967C46.9063 35.5958 46.8736 35.7043 46.8629 35.816C46.8522 35.9276 46.8637 36.0403 46.8968 36.1475L48.2782 40.6193C48.3165 40.7432 48.3826 40.8569 48.4716 40.9516C48.5607 41.0464 48.6702 41.1198 48.792 41.1663C48.9138 41.2127 49.0447 41.2311 49.1747 41.2199C49.3047 41.2087 49.4304 41.1682 49.5423 41.1016L53.5821 38.6978C53.7777 38.5813 53.9188 38.3924 53.9742 38.1727C54.0296 37.9529 53.9949 37.7203 53.8777 37.526ZM23.5974 20.9605C23.5974 23.7136 21.3424 25.9534 18.5707 25.9534C15.799 25.9534 13.5441 23.7136 13.5441 20.9605C13.5441 18.2074 15.799 15.9675 18.5707 15.9675C21.3424 15.9675 23.5974 18.2074 23.5974 20.9605ZM21.8775 20.9605C21.8775 19.1494 20.3941 17.6759 18.5707 17.6759C16.7474 17.6759 15.2639 19.1493 15.2639 20.9605C15.2639 22.7716 16.7473 24.2451 18.5707 24.2451C20.3941 24.2451 21.8775 22.7716 21.8775 20.9605ZM25.5578 12.0396L27.5519 14.0203C27.6965 14.164 27.7848 14.3541 27.801 14.5566C27.8173 14.7591 27.7603 14.9607 27.6404 15.1252L26.1547 17.1633C26.3443 17.536 26.5056 17.9223 26.6371 18.319L29.1379 18.7166C29.3399 18.7487 29.5237 18.8512 29.6564 19.0058C29.7891 19.1603 29.862 19.3568 29.862 19.56V22.3611C29.862 22.5642 29.7891 22.7607 29.6564 22.9153C29.5238 23.0698 29.34 23.1724 29.1381 23.2045L26.6375 23.6021C26.5058 23.9987 26.3445 24.385 26.1549 24.7578L27.6405 26.7959C27.7604 26.9604 27.8174 27.162 27.8012 27.3645C27.7849 27.567 27.6966 27.7571 27.552 27.9007L25.5579 29.8814C25.4133 30.0251 25.2219 30.1129 25.018 30.129C24.8141 30.1451 24.6111 30.0885 24.4455 29.9693L22.3938 28.4936C22.0185 28.6819 21.6296 28.8421 21.2303 28.9728L20.83 31.4569C20.7976 31.6574 20.6944 31.84 20.5388 31.9718C20.3832 32.1036 20.1854 32.176 19.9809 32.176H17.161C16.9565 32.176 16.7586 32.1036 16.603 31.9718C16.4474 31.84 16.3442 31.6574 16.3119 31.4569L15.9116 28.973C15.5123 28.8422 15.1234 28.682 14.7481 28.4937L12.6963 29.9693C12.5306 30.0884 12.3277 30.145 12.1238 30.1289C11.9199 30.1128 11.7285 30.0251 11.5839 29.8814L9.58985 27.9007C9.44525 27.7571 9.35692 27.567 9.34071 27.3645C9.32449 27.162 9.38146 26.9604 9.50138 26.7959L10.9869 24.7578C10.7974 24.385 10.6362 23.9987 10.5045 23.6021L8.0038 23.2045C7.80186 23.1724 7.61805 23.0699 7.48535 22.9153C7.35265 22.7607 7.27975 22.5642 7.27973 22.3611V19.56C7.27974 19.3568 7.35263 19.1604 7.4853 19.0058C7.61798 18.8512 7.80177 18.7487 8.00369 18.7166L10.5045 18.319C10.6361 17.9223 10.7974 17.536 10.9869 17.1633L9.50138 15.1252C9.38146 14.9607 9.32449 14.7591 9.34071 14.5566C9.35692 14.3541 9.44525 14.164 9.58985 14.0203L11.5839 12.0396C11.7285 11.8959 11.9199 11.8082 12.1238 11.7921C12.3277 11.776 12.5306 11.8326 12.6963 11.9517L14.7479 13.4272C15.1232 13.2389 15.5122 13.0787 15.9116 12.9479L16.3119 10.4641C16.3442 10.2635 16.4474 10.081 16.6031 9.94918C16.7587 9.81739 16.9565 9.745 17.161 9.74499H19.9809C20.1854 9.745 20.3832 9.81739 20.5388 9.94918C20.6944 10.081 20.7976 10.2635 20.83 10.4641L21.2303 12.9479C21.6296 13.0787 22.0186 13.2389 22.3939 13.4272L24.4456 11.9516C24.6112 11.8326 24.8142 11.776 25.018 11.7921C25.2218 11.8083 25.4132 11.896 25.5578 12.0396ZM24.4429 16.5986L25.8173 14.7132L24.8602 13.7625L22.9621 15.1276C22.8263 15.2253 22.6646 15.2814 22.4971 15.289C22.3295 15.2966 22.1634 15.2554 22.0192 15.1704C21.4686 14.8458 20.8742 14.6009 20.2539 14.4431C20.0915 14.4019 19.9447 14.3144 19.8317 14.1913C19.7187 14.0683 19.6444 13.9151 19.6179 13.7506L19.2477 11.4531H17.8942L17.5238 13.7506C17.4973 13.9151 17.423 14.0683 17.31 14.1913C17.197 14.3143 17.0503 14.4019 16.8878 14.4431C16.2675 14.6008 15.6731 14.8457 15.1225 15.1703C14.9782 15.2553 14.8121 15.2965 14.6446 15.2889C14.477 15.2813 14.3154 15.2252 14.1796 15.1274L12.2816 13.7624L11.3244 14.7131L12.6987 16.5984C12.7971 16.7334 12.8536 16.8939 12.8612 17.0603C12.8689 17.2267 12.8274 17.3917 12.7418 17.5349C12.4152 18.0818 12.1687 18.6723 12.0099 19.2883C11.9684 19.4497 11.8803 19.5955 11.7564 19.7077C11.6325 19.82 11.4783 19.8938 11.3127 19.9201L8.9995 20.2879V21.6324L11.3126 22.0001C11.4782 22.0264 11.6324 22.1003 11.7563 22.2125C11.8801 22.3248 11.9683 22.4705 12.0098 22.6319C12.1686 23.248 12.4151 23.8384 12.7418 24.3853C12.8274 24.5286 12.8689 24.6936 12.8612 24.86C12.8536 25.0264 12.7971 25.1869 12.6987 25.3219L11.3243 27.2074L12.2815 28.158L14.1796 26.793C14.3154 26.6953 14.477 26.6392 14.6446 26.6316C14.8121 26.624 14.9782 26.6652 15.1225 26.7502C15.6731 27.0747 16.2675 27.3196 16.8877 27.4774C17.0501 27.5186 17.1969 27.6062 17.3099 27.7292C17.4229 27.8523 17.4972 28.0054 17.5237 28.1699L17.8941 30.4673H19.2476L19.6178 28.1697C19.6443 28.0052 19.7187 27.8521 19.8317 27.729C19.9447 27.606 20.0914 27.5185 20.2538 27.4772C20.8741 27.3194 21.4685 27.0746 22.0192 26.75C22.1634 26.665 22.3295 26.6238 22.4971 26.6314C22.6646 26.639 22.8263 26.6951 22.9621 26.7929L24.8602 28.158L25.8173 27.2074L24.443 25.322C24.3447 25.187 24.2882 25.0265 24.2805 24.8601C24.2729 24.6937 24.3144 24.5287 24.3999 24.3854C24.7266 23.8385 24.9732 23.2481 25.132 22.632C25.1736 22.4706 25.2617 22.3248 25.3856 22.2126C25.5094 22.1003 25.6637 22.0265 25.8292 22.0002L28.1422 21.6325V20.288L25.8291 19.9203C25.6636 19.894 25.5094 19.8202 25.3855 19.7079C25.2616 19.5957 25.1735 19.4499 25.1319 19.2885C24.9732 18.6724 24.7267 18.082 24.3999 17.5351C24.3143 17.3919 24.2728 17.2269 24.2804 17.0605C24.2881 16.8941 24.3446 16.7336 24.4429 16.5986Z" fill="black" stroke="white" stroke-width="0.4" mask="url(#path-1-inside-1_44_7263)"></path><mask id="path-2-inside-2_44_7263" fill="white"><path d="M43.0762 32.044L41.8106 33.7803C41.9573 34.075 42.0843 34.3791 42.1907 34.6905L44.3212 35.0292C44.5231 35.0613 44.7069 35.1638 44.8396 35.3184C44.9723 35.473 45.0451 35.6694 45.0452 35.8726V38.3297C45.0451 38.5328 44.9723 38.7293 44.8396 38.8839C44.7069 39.0384 44.5231 39.141 44.3212 39.1731L42.1908 39.5118C42.0845 39.8232 41.9575 40.1273 41.8107 40.4221L43.0763 42.1584C43.1962 42.323 43.2532 42.5246 43.237 42.727C43.2208 42.9295 43.1325 43.1196 42.9879 43.2633L41.2385 45.001C41.0939 45.1446 40.9025 45.2324 40.6987 45.2485C40.4948 45.2646 40.2918 45.208 40.1262 45.0889L38.3782 43.8317C38.0814 43.9775 37.7753 44.1036 37.4618 44.2092L37.1207 46.3255C37.0884 46.5261 36.9852 46.7086 36.8296 46.8404C36.674 46.9722 36.4761 47.0446 36.2716 47.0446H33.7979C33.5934 47.0446 33.3956 46.9722 33.24 46.8404C33.0844 46.7086 32.9812 46.5261 32.9488 46.3255L32.6079 44.2094C32.2943 44.1038 31.9882 43.9776 31.6914 43.8318L29.9434 45.089C29.7777 45.2081 29.5748 45.2647 29.3709 45.2486C29.167 45.2325 28.9756 45.1447 28.831 45.0011L27.0818 43.2636C26.9372 43.12 26.8489 42.9298 26.8327 42.7274C26.8165 42.5249 26.8734 42.3233 26.9933 42.1587L28.259 40.4223C28.1123 40.1276 27.9853 39.8235 27.879 39.5122L25.7484 39.1734C25.5465 39.1413 25.3627 39.0387 25.23 38.8842C25.0973 38.7296 25.0244 38.5331 25.0244 38.33V35.8729C25.0244 35.6698 25.0973 35.4733 25.23 35.3187C25.3627 35.1642 25.5465 35.0616 25.7484 35.0295L27.8789 34.6907C27.9852 34.3793 28.1122 34.0753 28.2589 33.7805L26.9932 32.0442C26.8733 31.8796 26.8164 31.678 26.8326 31.4755C26.8488 31.2731 26.9371 31.0829 27.0817 30.9393L28.8309 29.2018C28.9755 29.0581 29.1669 28.9704 29.3708 28.9543C29.5747 28.9382 29.7776 28.9948 29.9433 29.1139L31.6912 30.371C31.988 30.2252 32.2941 30.0991 32.6077 29.9934L32.9486 27.8773C32.981 27.6767 33.0842 27.4942 33.2398 27.3624C33.3954 27.2306 33.5932 27.1582 33.7977 27.1582H36.2714C36.4759 27.1582 36.6737 27.2306 36.8293 27.3624C36.9849 27.4942 37.0882 27.6767 37.1205 27.8773L37.4615 29.9934C37.775 30.099 38.0812 30.2251 38.378 30.371L40.1259 29.1138C40.2915 28.9947 40.4945 28.9381 40.6983 28.9542C40.9022 28.9703 41.0936 29.0581 41.2382 29.2017L42.9874 30.9392C43.1322 31.0827 43.2206 31.2728 43.2369 31.4753C43.2532 31.6778 43.1962 31.8794 43.0762 32.044ZM41.385 36.2925C41.2195 36.2662 41.0653 36.1923 40.9415 36.0801C40.8176 35.9679 40.7295 35.8222 40.688 35.6608C40.5512 35.13 40.3388 34.6213 40.0572 34.1501C39.9716 34.0068 39.9302 33.8418 39.9378 33.6754C39.9455 33.509 40.002 33.3485 40.1003 33.2135L41.2532 31.632L40.5409 30.9246L38.9487 32.0696C38.8129 32.1673 38.6512 32.2234 38.4837 32.231C38.3162 32.2386 38.1501 32.1974 38.0058 32.1124C37.5315 31.8327 37.0194 31.6218 36.485 31.4859C36.3226 31.4446 36.1758 31.357 36.0628 31.234C35.9498 31.111 35.8755 30.9578 35.849 30.7933L35.5384 28.8663H34.531L34.2205 30.7933C34.194 30.9578 34.1196 31.111 34.0066 31.234C33.8936 31.3571 33.7468 31.4446 33.5843 31.4859C33.05 31.6217 32.5379 31.8326 32.0635 32.1123C31.9193 32.1973 31.7532 32.2385 31.5856 32.2309C31.4181 32.2233 31.2565 32.1672 31.1206 32.0695L29.5285 30.9245L28.8163 31.6319L29.9691 33.2134C30.0674 33.3483 30.1239 33.5089 30.1315 33.6753C30.1392 33.8417 30.0977 34.0066 30.0122 34.1499C29.7307 34.6211 29.5183 35.1298 29.3816 35.6606C29.3401 35.822 29.2519 35.9677 29.1281 36.08C29.0042 36.1922 28.85 36.2661 28.6844 36.2924L26.7442 36.601V37.6015L28.6843 37.91C28.8498 37.9363 29.004 38.0101 29.1279 38.1224C29.2517 38.2346 29.3398 38.3803 29.3814 38.5416C29.5182 39.0725 29.7306 39.5812 30.0122 40.0525C30.0977 40.1957 30.1392 40.3607 30.1315 40.5271C30.1238 40.6935 30.0674 40.854 29.9691 40.9889L28.8162 42.5704L29.5284 43.2779L31.1206 42.1329C31.2565 42.0352 31.4181 41.9791 31.5856 41.9715C31.7532 41.9639 31.9193 42.0051 32.0635 42.0901C32.5379 42.3697 33.05 42.5806 33.5843 42.7165C33.7468 42.7578 33.8936 42.8453 34.0066 42.9683C34.1196 43.0914 34.194 43.2446 34.2205 43.409L34.531 45.3361H35.5383L35.849 43.4089C35.8755 43.2445 35.9498 43.0913 36.0628 42.9683C36.1758 42.8452 36.3226 42.7577 36.485 42.7164C37.0194 42.5806 37.5314 42.3696 38.0057 42.09C38.1499 42.005 38.3161 41.9637 38.4836 41.9713C38.6512 41.9789 38.8128 42.0351 38.9486 42.1328L40.5408 43.2779L41.253 42.5704L40.1003 40.9889C40.002 40.854 39.9455 40.6935 39.9378 40.527C39.9302 40.3606 39.9716 40.1956 40.0572 40.0523C40.3388 39.5812 40.5512 39.0726 40.688 38.5419C40.7295 38.3805 40.8176 38.2347 40.9415 38.1225C41.0654 38.0102 41.2196 37.9364 41.3852 37.9101L43.3252 37.6016V36.6011L41.385 36.2925ZM39.5497 37.1012C39.5497 39.5741 37.5242 41.5859 35.0347 41.5859C32.5452 41.5859 30.5197 39.574 30.5197 37.1012C30.5197 34.6284 32.5452 32.6165 35.0347 32.6165C37.5242 32.6165 39.5497 34.6284 39.5497 37.1012ZM37.8299 37.1012C37.8299 35.5703 36.576 34.3248 35.0347 34.3248C33.4935 34.3248 32.2396 35.5703 32.2396 37.1012C32.2396 38.6321 33.4935 39.8776 35.0347 39.8776C36.576 39.8776 37.8299 38.6322 37.8299 37.1012Z"></path></mask><path d="M43.0762 32.044L41.8106 33.7803C41.9573 34.075 42.0843 34.3791 42.1907 34.6905L44.3212 35.0292C44.5231 35.0613 44.7069 35.1638 44.8396 35.3184C44.9723 35.473 45.0451 35.6694 45.0452 35.8726V38.3297C45.0451 38.5328 44.9723 38.7293 44.8396 38.8839C44.7069 39.0384 44.5231 39.141 44.3212 39.1731L42.1908 39.5118C42.0845 39.8232 41.9575 40.1273 41.8107 40.4221L43.0763 42.1584C43.1962 42.323 43.2532 42.5246 43.237 42.727C43.2208 42.9295 43.1325 43.1196 42.9879 43.2633L41.2385 45.001C41.0939 45.1446 40.9025 45.2324 40.6987 45.2485C40.4948 45.2646 40.2918 45.208 40.1262 45.0889L38.3782 43.8317C38.0814 43.9775 37.7753 44.1036 37.4618 44.2092L37.1207 46.3255C37.0884 46.5261 36.9852 46.7086 36.8296 46.8404C36.674 46.9722 36.4761 47.0446 36.2716 47.0446H33.7979C33.5934 47.0446 33.3956 46.9722 33.24 46.8404C33.0844 46.7086 32.9812 46.5261 32.9488 46.3255L32.6079 44.2094C32.2943 44.1038 31.9882 43.9776 31.6914 43.8318L29.9434 45.089C29.7777 45.2081 29.5748 45.2647 29.3709 45.2486C29.167 45.2325 28.9756 45.1447 28.831 45.0011L27.0818 43.2636C26.9372 43.12 26.8489 42.9298 26.8327 42.7274C26.8165 42.5249 26.8734 42.3233 26.9933 42.1587L28.259 40.4223C28.1123 40.1276 27.9853 39.8235 27.879 39.5122L25.7484 39.1734C25.5465 39.1413 25.3627 39.0387 25.23 38.8842C25.0973 38.7296 25.0244 38.5331 25.0244 38.33V35.8729C25.0244 35.6698 25.0973 35.4733 25.23 35.3187C25.3627 35.1642 25.5465 35.0616 25.7484 35.0295L27.8789 34.6907C27.9852 34.3793 28.1122 34.0753 28.2589 33.7805L26.9932 32.0442C26.8733 31.8796 26.8164 31.678 26.8326 31.4755C26.8488 31.2731 26.9371 31.0829 27.0817 30.9393L28.8309 29.2018C28.9755 29.0581 29.1669 28.9704 29.3708 28.9543C29.5747 28.9382 29.7776 28.9948 29.9433 29.1139L31.6912 30.371C31.988 30.2252 32.2941 30.0991 32.6077 29.9934L32.9486 27.8773C32.981 27.6767 33.0842 27.4942 33.2398 27.3624C33.3954 27.2306 33.5932 27.1582 33.7977 27.1582H36.2714C36.4759 27.1582 36.6737 27.2306 36.8293 27.3624C36.9849 27.4942 37.0882 27.6767 37.1205 27.8773L37.4615 29.9934C37.775 30.099 38.0812 30.2251 38.378 30.371L40.1259 29.1138C40.2915 28.9947 40.4945 28.9381 40.6983 28.9542C40.9022 28.9703 41.0936 29.0581 41.2382 29.2017L42.9874 30.9392C43.1322 31.0827 43.2206 31.2728 43.2369 31.4753C43.2532 31.6778 43.1962 31.8794 43.0762 32.044ZM41.385 36.2925C41.2195 36.2662 41.0653 36.1923 40.9415 36.0801C40.8176 35.9679 40.7295 35.8222 40.688 35.6608C40.5512 35.13 40.3388 34.6213 40.0572 34.1501C39.9716 34.0068 39.9302 33.8418 39.9378 33.6754C39.9455 33.509 40.002 33.3485 40.1003 33.2135L41.2532 31.632L40.5409 30.9246L38.9487 32.0696C38.8129 32.1673 38.6512 32.2234 38.4837 32.231C38.3162 32.2386 38.1501 32.1974 38.0058 32.1124C37.5315 31.8327 37.0194 31.6218 36.485 31.4859C36.3226 31.4446 36.1758 31.357 36.0628 31.234C35.9498 31.111 35.8755 30.9578 35.849 30.7933L35.5384 28.8663H34.531L34.2205 30.7933C34.194 30.9578 34.1196 31.111 34.0066 31.234C33.8936 31.3571 33.7468 31.4446 33.5843 31.4859C33.05 31.6217 32.5379 31.8326 32.0635 32.1123C31.9193 32.1973 31.7532 32.2385 31.5856 32.2309C31.4181 32.2233 31.2565 32.1672 31.1206 32.0695L29.5285 30.9245L28.8163 31.6319L29.9691 33.2134C30.0674 33.3483 30.1239 33.5089 30.1315 33.6753C30.1392 33.8417 30.0977 34.0066 30.0122 34.1499C29.7307 34.6211 29.5183 35.1298 29.3816 35.6606C29.3401 35.822 29.2519 35.9677 29.1281 36.08C29.0042 36.1922 28.85 36.2661 28.6844 36.2924L26.7442 36.601V37.6015L28.6843 37.91C28.8498 37.9363 29.004 38.0101 29.1279 38.1224C29.2517 38.2346 29.3398 38.3803 29.3814 38.5416C29.5182 39.0725 29.7306 39.5812 30.0122 40.0525C30.0977 40.1957 30.1392 40.3607 30.1315 40.5271C30.1238 40.6935 30.0674 40.854 29.9691 40.9889L28.8162 42.5704L29.5284 43.2779L31.1206 42.1329C31.2565 42.0352 31.4181 41.9791 31.5856 41.9715C31.7532 41.9639 31.9193 42.0051 32.0635 42.0901C32.5379 42.3697 33.05 42.5806 33.5843 42.7165C33.7468 42.7578 33.8936 42.8453 34.0066 42.9683C34.1196 43.0914 34.194 43.2446 34.2205 43.409L34.531 45.3361H35.5383L35.849 43.4089C35.8755 43.2445 35.9498 43.0913 36.0628 42.9683C36.1758 42.8452 36.3226 42.7577 36.485 42.7164C37.0194 42.5806 37.5314 42.3696 38.0057 42.09C38.1499 42.005 38.3161 41.9637 38.4836 41.9713C38.6512 41.9789 38.8128 42.0351 38.9486 42.1328L40.5408 43.2779L41.253 42.5704L40.1003 40.9889C40.002 40.854 39.9455 40.6935 39.9378 40.527C39.9302 40.3606 39.9716 40.1956 40.0572 40.0523C40.3388 39.5812 40.5512 39.0726 40.688 38.5419C40.7295 38.3805 40.8176 38.2347 40.9415 38.1225C41.0654 38.0102 41.2196 37.9364 41.3852 37.9101L43.3252 37.6016V36.6011L41.385 36.2925ZM39.5497 37.1012C39.5497 39.5741 37.5242 41.5859 35.0347 41.5859C32.5452 41.5859 30.5197 39.574 30.5197 37.1012C30.5197 34.6284 32.5452 32.6165 35.0347 32.6165C37.5242 32.6165 39.5497 34.6284 39.5497 37.1012ZM37.8299 37.1012C37.8299 35.5703 36.576 34.3248 35.0347 34.3248C33.4935 34.3248 32.2396 35.5703 32.2396 37.1012C32.2396 38.6321 33.4935 39.8776 35.0347 39.8776C36.576 39.8776 37.8299 38.6322 37.8299 37.1012Z" fill="black"></path><path d="M43.0762 32.044L41.8106 33.7803C41.9573 34.075 42.0843 34.3791 42.1907 34.6905L44.3212 35.0292C44.5231 35.0613 44.7069 35.1638 44.8396 35.3184C44.9723 35.473 45.0451 35.6694 45.0452 35.8726V38.3297C45.0451 38.5328 44.9723 38.7293 44.8396 38.8839C44.7069 39.0384 44.5231 39.141 44.3212 39.1731L42.1908 39.5118C42.0845 39.8232 41.9575 40.1273 41.8107 40.4221L43.0763 42.1584C43.1962 42.323 43.2532 42.5246 43.237 42.727C43.2208 42.9295 43.1325 43.1196 42.9879 43.2633L41.2385 45.001C41.0939 45.1446 40.9025 45.2324 40.6987 45.2485C40.4948 45.2646 40.2918 45.208 40.1262 45.0889L38.3782 43.8317C38.0814 43.9775 37.7753 44.1036 37.4618 44.2092L37.1207 46.3255C37.0884 46.5261 36.9852 46.7086 36.8296 46.8404C36.674 46.9722 36.4761 47.0446 36.2716 47.0446H33.7979C33.5934 47.0446 33.3956 46.9722 33.24 46.8404C33.0844 46.7086 32.9812 46.5261 32.9488 46.3255L32.6079 44.2094C32.2943 44.1038 31.9882 43.9776 31.6914 43.8318L29.9434 45.089C29.7777 45.2081 29.5748 45.2647 29.3709 45.2486C29.167 45.2325 28.9756 45.1447 28.831 45.0011L27.0818 43.2636C26.9372 43.12 26.8489 42.9298 26.8327 42.7274C26.8165 42.5249 26.8734 42.3233 26.9933 42.1587L28.259 40.4223C28.1123 40.1276 27.9853 39.8235 27.879 39.5122L25.7484 39.1734C25.5465 39.1413 25.3627 39.0387 25.23 38.8842C25.0973 38.7296 25.0244 38.5331 25.0244 38.33V35.8729C25.0244 35.6698 25.0973 35.4733 25.23 35.3187C25.3627 35.1642 25.5465 35.0616 25.7484 35.0295L27.8789 34.6907C27.9852 34.3793 28.1122 34.0753 28.2589 33.7805L26.9932 32.0442C26.8733 31.8796 26.8164 31.678 26.8326 31.4755C26.8488 31.2731 26.9371 31.0829 27.0817 30.9393L28.8309 29.2018C28.9755 29.0581 29.1669 28.9704 29.3708 28.9543C29.5747 28.9382 29.7776 28.9948 29.9433 29.1139L31.6912 30.371C31.988 30.2252 32.2941 30.0991 32.6077 29.9934L32.9486 27.8773C32.981 27.6767 33.0842 27.4942 33.2398 27.3624C33.3954 27.2306 33.5932 27.1582 33.7977 27.1582H36.2714C36.4759 27.1582 36.6737 27.2306 36.8293 27.3624C36.9849 27.4942 37.0882 27.6767 37.1205 27.8773L37.4615 29.9934C37.775 30.099 38.0812 30.2251 38.378 30.371L40.1259 29.1138C40.2915 28.9947 40.4945 28.9381 40.6983 28.9542C40.9022 28.9703 41.0936 29.0581 41.2382 29.2017L42.9874 30.9392C43.1322 31.0827 43.2206 31.2728 43.2369 31.4753C43.2532 31.6778 43.1962 31.8794 43.0762 32.044ZM41.385 36.2925C41.2195 36.2662 41.0653 36.1923 40.9415 36.0801C40.8176 35.9679 40.7295 35.8222 40.688 35.6608C40.5512 35.13 40.3388 34.6213 40.0572 34.1501C39.9716 34.0068 39.9302 33.8418 39.9378 33.6754C39.9455 33.509 40.002 33.3485 40.1003 33.2135L41.2532 31.632L40.5409 30.9246L38.9487 32.0696C38.8129 32.1673 38.6512 32.2234 38.4837 32.231C38.3162 32.2386 38.1501 32.1974 38.0058 32.1124C37.5315 31.8327 37.0194 31.6218 36.485 31.4859C36.3226 31.4446 36.1758 31.357 36.0628 31.234C35.9498 31.111 35.8755 30.9578 35.849 30.7933L35.5384 28.8663H34.531L34.2205 30.7933C34.194 30.9578 34.1196 31.111 34.0066 31.234C33.8936 31.3571 33.7468 31.4446 33.5843 31.4859C33.05 31.6217 32.5379 31.8326 32.0635 32.1123C31.9193 32.1973 31.7532 32.2385 31.5856 32.2309C31.4181 32.2233 31.2565 32.1672 31.1206 32.0695L29.5285 30.9245L28.8163 31.6319L29.9691 33.2134C30.0674 33.3483 30.1239 33.5089 30.1315 33.6753C30.1392 33.8417 30.0977 34.0066 30.0122 34.1499C29.7307 34.6211 29.5183 35.1298 29.3816 35.6606C29.3401 35.822 29.2519 35.9677 29.1281 36.08C29.0042 36.1922 28.85 36.2661 28.6844 36.2924L26.7442 36.601V37.6015L28.6843 37.91C28.8498 37.9363 29.004 38.0101 29.1279 38.1224C29.2517 38.2346 29.3398 38.3803 29.3814 38.5416C29.5182 39.0725 29.7306 39.5812 30.0122 40.0525C30.0977 40.1957 30.1392 40.3607 30.1315 40.5271C30.1238 40.6935 30.0674 40.854 29.9691 40.9889L28.8162 42.5704L29.5284 43.2779L31.1206 42.1329C31.2565 42.0352 31.4181 41.9791 31.5856 41.9715C31.7532 41.9639 31.9193 42.0051 32.0635 42.0901C32.5379 42.3697 33.05 42.5806 33.5843 42.7165C33.7468 42.7578 33.8936 42.8453 34.0066 42.9683C34.1196 43.0914 34.194 43.2446 34.2205 43.409L34.531 45.3361H35.5383L35.849 43.4089C35.8755 43.2445 35.9498 43.0913 36.0628 42.9683C36.1758 42.8452 36.3226 42.7577 36.485 42.7164C37.0194 42.5806 37.5314 42.3696 38.0057 42.09C38.1499 42.005 38.3161 41.9637 38.4836 41.9713C38.6512 41.9789 38.8128 42.0351 38.9486 42.1328L40.5408 43.2779L41.253 42.5704L40.1003 40.9889C40.002 40.854 39.9455 40.6935 39.9378 40.527C39.9302 40.3606 39.9716 40.1956 40.0572 40.0523C40.3388 39.5812 40.5512 39.0726 40.688 38.5419C40.7295 38.3805 40.8176 38.2347 40.9415 38.1225C41.0654 38.0102 41.2196 37.9364 41.3852 37.9101L43.3252 37.6016V36.6011L41.385 36.2925ZM39.5497 37.1012C39.5497 39.5741 37.5242 41.5859 35.0347 41.5859C32.5452 41.5859 30.5197 39.574 30.5197 37.1012C30.5197 34.6284 32.5452 32.6165 35.0347 32.6165C37.5242 32.6165 39.5497 34.6284 39.5497 37.1012ZM37.8299 37.1012C37.8299 35.5703 36.576 34.3248 35.0347 34.3248C33.4935 34.3248 32.2396 35.5703 32.2396 37.1012C32.2396 38.6321 33.4935 39.8776 35.0347 39.8776C36.576 39.8776 37.8299 38.6322 37.8299 37.1012Z" fill="url(#paint0_linear_44_7263)"></path><path d="M43.0762 32.044L41.8106 33.7803C41.9573 34.075 42.0843 34.3791 42.1907 34.6905L44.3212 35.0292C44.5231 35.0613 44.7069 35.1638 44.8396 35.3184C44.9723 35.473 45.0451 35.6694 45.0452 35.8726V38.3297C45.0451 38.5328 44.9723 38.7293 44.8396 38.8839C44.7069 39.0384 44.5231 39.141 44.3212 39.1731L42.1908 39.5118C42.0845 39.8232 41.9575 40.1273 41.8107 40.4221L43.0763 42.1584C43.1962 42.323 43.2532 42.5246 43.237 42.727C43.2208 42.9295 43.1325 43.1196 42.9879 43.2633L41.2385 45.001C41.0939 45.1446 40.9025 45.2324 40.6987 45.2485C40.4948 45.2646 40.2918 45.208 40.1262 45.0889L38.3782 43.8317C38.0814 43.9775 37.7753 44.1036 37.4618 44.2092L37.1207 46.3255C37.0884 46.5261 36.9852 46.7086 36.8296 46.8404C36.674 46.9722 36.4761 47.0446 36.2716 47.0446H33.7979C33.5934 47.0446 33.3956 46.9722 33.24 46.8404C33.0844 46.7086 32.9812 46.5261 32.9488 46.3255L32.6079 44.2094C32.2943 44.1038 31.9882 43.9776 31.6914 43.8318L29.9434 45.089C29.7777 45.2081 29.5748 45.2647 29.3709 45.2486C29.167 45.2325 28.9756 45.1447 28.831 45.0011L27.0818 43.2636C26.9372 43.12 26.8489 42.9298 26.8327 42.7274C26.8165 42.5249 26.8734 42.3233 26.9933 42.1587L28.259 40.4223C28.1123 40.1276 27.9853 39.8235 27.879 39.5122L25.7484 39.1734C25.5465 39.1413 25.3627 39.0387 25.23 38.8842C25.0973 38.7296 25.0244 38.5331 25.0244 38.33V35.8729C25.0244 35.6698 25.0973 35.4733 25.23 35.3187C25.3627 35.1642 25.5465 35.0616 25.7484 35.0295L27.8789 34.6907C27.9852 34.3793 28.1122 34.0753 28.2589 33.7805L26.9932 32.0442C26.8733 31.8796 26.8164 31.678 26.8326 31.4755C26.8488 31.2731 26.9371 31.0829 27.0817 30.9393L28.8309 29.2018C28.9755 29.0581 29.1669 28.9704 29.3708 28.9543C29.5747 28.9382 29.7776 28.9948 29.9433 29.1139L31.6912 30.371C31.988 30.2252 32.2941 30.0991 32.6077 29.9934L32.9486 27.8773C32.981 27.6767 33.0842 27.4942 33.2398 27.3624C33.3954 27.2306 33.5932 27.1582 33.7977 27.1582H36.2714C36.4759 27.1582 36.6737 27.2306 36.8293 27.3624C36.9849 27.4942 37.0882 27.6767 37.1205 27.8773L37.4615 29.9934C37.775 30.099 38.0812 30.2251 38.378 30.371L40.1259 29.1138C40.2915 28.9947 40.4945 28.9381 40.6983 28.9542C40.9022 28.9703 41.0936 29.0581 41.2382 29.2017L42.9874 30.9392C43.1322 31.0827 43.2206 31.2728 43.2369 31.4753C43.2532 31.6778 43.1962 31.8794 43.0762 32.044ZM41.385 36.2925C41.2195 36.2662 41.0653 36.1923 40.9415 36.0801C40.8176 35.9679 40.7295 35.8222 40.688 35.6608C40.5512 35.13 40.3388 34.6213 40.0572 34.1501C39.9716 34.0068 39.9302 33.8418 39.9378 33.6754C39.9455 33.509 40.002 33.3485 40.1003 33.2135L41.2532 31.632L40.5409 30.9246L38.9487 32.0696C38.8129 32.1673 38.6512 32.2234 38.4837 32.231C38.3162 32.2386 38.1501 32.1974 38.0058 32.1124C37.5315 31.8327 37.0194 31.6218 36.485 31.4859C36.3226 31.4446 36.1758 31.357 36.0628 31.234C35.9498 31.111 35.8755 30.9578 35.849 30.7933L35.5384 28.8663H34.531L34.2205 30.7933C34.194 30.9578 34.1196 31.111 34.0066 31.234C33.8936 31.3571 33.7468 31.4446 33.5843 31.4859C33.05 31.6217 32.5379 31.8326 32.0635 32.1123C31.9193 32.1973 31.7532 32.2385 31.5856 32.2309C31.4181 32.2233 31.2565 32.1672 31.1206 32.0695L29.5285 30.9245L28.8163 31.6319L29.9691 33.2134C30.0674 33.3483 30.1239 33.5089 30.1315 33.6753C30.1392 33.8417 30.0977 34.0066 30.0122 34.1499C29.7307 34.6211 29.5183 35.1298 29.3816 35.6606C29.3401 35.822 29.2519 35.9677 29.1281 36.08C29.0042 36.1922 28.85 36.2661 28.6844 36.2924L26.7442 36.601V37.6015L28.6843 37.91C28.8498 37.9363 29.004 38.0101 29.1279 38.1224C29.2517 38.2346 29.3398 38.3803 29.3814 38.5416C29.5182 39.0725 29.7306 39.5812 30.0122 40.0525C30.0977 40.1957 30.1392 40.3607 30.1315 40.5271C30.1238 40.6935 30.0674 40.854 29.9691 40.9889L28.8162 42.5704L29.5284 43.2779L31.1206 42.1329C31.2565 42.0352 31.4181 41.9791 31.5856 41.9715C31.7532 41.9639 31.9193 42.0051 32.0635 42.0901C32.5379 42.3697 33.05 42.5806 33.5843 42.7165C33.7468 42.7578 33.8936 42.8453 34.0066 42.9683C34.1196 43.0914 34.194 43.2446 34.2205 43.409L34.531 45.3361H35.5383L35.849 43.4089C35.8755 43.2445 35.9498 43.0913 36.0628 42.9683C36.1758 42.8452 36.3226 42.7577 36.485 42.7164C37.0194 42.5806 37.5314 42.3696 38.0057 42.09C38.1499 42.005 38.3161 41.9637 38.4836 41.9713C38.6512 41.9789 38.8128 42.0351 38.9486 42.1328L40.5408 43.2779L41.253 42.5704L40.1003 40.9889C40.002 40.854 39.9455 40.6935 39.9378 40.527C39.9302 40.3606 39.9716 40.1956 40.0572 40.0523C40.3388 39.5812 40.5512 39.0726 40.688 38.5419C40.7295 38.3805 40.8176 38.2347 40.9415 38.1225C41.0654 38.0102 41.2196 37.9364 41.3852 37.9101L43.3252 37.6016V36.6011L41.385 36.2925ZM39.5497 37.1012C39.5497 39.5741 37.5242 41.5859 35.0347 41.5859C32.5452 41.5859 30.5197 39.574 30.5197 37.1012C30.5197 34.6284 32.5452 32.6165 35.0347 32.6165C37.5242 32.6165 39.5497 34.6284 39.5497 37.1012ZM37.8299 37.1012C37.8299 35.5703 36.576 34.3248 35.0347 34.3248C33.4935 34.3248 32.2396 35.5703 32.2396 37.1012C32.2396 38.6321 33.4935 39.8776 35.0347 39.8776C36.576 39.8776 37.8299 38.6322 37.8299 37.1012Z" stroke="white" stroke-width="0.4" mask="url(#path-2-inside-2_44_7263)"></path><defs><linearGradient id="paint0_linear_44_7263" x1="31.7254" y1="33.9614" x2="52.445" y2="52.1039" gradientUnits="userSpaceOnUse"><stop offset="0.236106" stop-color="#DA291C"></stop><stop offset="1" stop-color="#FFCD00"></stop></linearGradient></defs></svg> 