<?xml version="1.0" encoding="UTF-8"?> <svg xmlns="http://www.w3.org/2000/svg" width="64" height="64" viewBox="0 0 64 64" fill="none"><path d="M19.678 14.3774C17.5052 14.3774 15.7393 12.6115 15.7393 10.4387C15.7393 8.26585 17.5052 6.5 19.678 6.5C21.8508 6.5 23.6167 8.26585 23.6167 10.4387C23.6167 12.6115 21.8508 14.3774 19.678 14.3774Z" stroke="white" stroke-linecap="round" stroke-linejoin="round"></path><path d="M29.8051 22.0244L28.9144 34.1323C28.7916 35.5757 26.8414 36.8272 25.2752 37.0575C25.2061 37.0652 25.137 37.0728 25.0679 37.0805L23.8778 53.2116C23.8317 53.8488 23.2943 54.3632 22.6724 54.3632H16.6914C16.0772 54.3632 15.5321 53.8488 15.486 53.2116L14.2959 37.0805C14.2268 37.0805 14.1654 37.0652 14.0886 37.0575C12.5224 36.8272 10.5722 35.568 10.4494 34.1399L9.56641 22.2317C9.56641 22.1319 9.56641 22.0627 9.56641 22.0244C9.56641 19.6519 11.4321 17.6787 13.7354 17.625H25.6437C27.9547 17.6787 29.8204 19.6519 29.8204 22.0244H29.8051Z" stroke="white" stroke-linecap="round" stroke-linejoin="round"></path><path d="M19.678 37.542V54.3794" stroke="white" stroke-linecap="round" stroke-linejoin="round"></path><path d="M14.2882 37.0882L13.29 23.6367" stroke="white" stroke-linecap="round" stroke-linejoin="round"></path><path d="M45.3601 14.3774C43.1873 14.3774 41.4214 12.6115 41.4214 10.4387C41.4214 8.26585 43.1873 6.5 45.3601 6.5C47.5329 6.5 49.2988 8.26585 49.2988 10.4387C49.2988 12.6115 47.5329 14.3774 45.3601 14.3774Z" stroke="white" stroke-linecap="round" stroke-linejoin="round"></path><path d="M55.4872 22.0244L54.5966 34.1323C54.4737 35.5757 52.5236 36.8272 50.9573 37.0575C50.8882 37.0652 50.8191 37.0728 50.75 37.0805L49.5599 53.2116C49.5139 53.8488 48.9688 54.3632 48.3545 54.3632H42.3735C41.7593 54.3632 41.2142 53.8488 41.1681 53.2116L39.9781 37.0805C39.909 37.0805 39.8475 37.0652 39.7708 37.0575C38.2045 36.8272 36.2543 35.568 36.1315 34.1399L35.2485 22.2317C35.2485 22.1319 35.2485 22.0627 35.2485 22.0244C35.2485 19.6519 37.1142 17.6787 39.4176 17.625H51.3258C53.6368 17.6787 55.5026 19.6519 55.5026 22.0244H55.4872Z" stroke="white" stroke-linecap="round" stroke-linejoin="round"></path><path d="M45.3601 37.542V54.3794" stroke="white" stroke-linecap="round" stroke-linejoin="round"></path><path d="M50.75 37.0882L51.7481 23.6367" stroke="white" stroke-linecap="round" stroke-linejoin="round"></path><path d="M19.678 24.9951H31.7859" stroke="black" stroke-linecap="round" stroke-linejoin="round"></path><path d="M23.8931 28.5886L19.678 24.9954L23.8931 21.3945" fill="black"></path><path d="M23.8931 28.5886L19.678 24.9954L23.8931 21.3945" stroke="black" stroke-linecap="round" stroke-linejoin="round"></path><path d="M23.8931 28.5886L19.678 24.9954L23.8931 21.3945" stroke="url(#paint0_linear_506_13964)" stroke-linecap="round" stroke-linejoin="round"></path><path d="M19.678 24.9951H35.3714" stroke="black" stroke-linecap="round" stroke-linejoin="round"></path><path d="M19.678 24.9951H35.3714" stroke="url(#paint1_linear_506_13964)" stroke-linecap="round" stroke-linejoin="round"></path><path d="M32.3003 26.5693H36.9146" stroke="black" stroke-linecap="round" stroke-linejoin="round"></path><path d="M45.3603 28.9424H32.8225" stroke="black" stroke-linecap="round" stroke-linejoin="round"></path><path d="M41.1377 25.3418L45.3605 28.9427L41.1377 32.5359" fill="black"></path><path d="M41.1377 25.3418L45.3605 28.9427L41.1377 32.5359" stroke="black" stroke-linecap="round" stroke-linejoin="round"></path><path d="M41.1377 25.3418L45.3605 28.9427L41.1377 32.5359" stroke="url(#paint2_linear_506_13964)" stroke-linecap="round" stroke-linejoin="round"></path><path d="M45.3604 28.9424H29.2908" stroke="black" stroke-linecap="round" stroke-linejoin="round"></path><path d="M45.3604 28.9424H29.2908" stroke="url(#paint3_linear_506_13964)" stroke-linecap="round" stroke-linejoin="round"></path><path d="M32.3158 27.3613H27.7014" stroke="black" stroke-linecap="round" stroke-linejoin="round"></path><defs><linearGradient id="paint0_linear_506_13964" x1="21.0888" y1="23.8557" x2="27.2068" y2="26.9734" gradientUnits="userSpaceOnUse"><stop offset="0.236106" stop-color="#DA291C"></stop><stop offset="1" stop-color="#FFCD00"></stop></linearGradient><linearGradient id="paint1_linear_506_13964" x1="24.9306" y1="25.3372" x2="25.0838" y2="27.4282" gradientUnits="userSpaceOnUse"><stop offset="0.236106" stop-color="#DA291C"></stop><stop offset="1" stop-color="#FFCD00"></stop></linearGradient><linearGradient id="paint2_linear_506_13964" x1="42.5511" y1="27.8029" x2="48.6756" y2="30.9297" gradientUnits="userSpaceOnUse"><stop offset="0.236106" stop-color="#DA291C"></stop><stop offset="1" stop-color="#FFCD00"></stop></linearGradient><linearGradient id="paint3_linear_506_13964" x1="34.6693" y1="29.2845" x2="34.819" y2="31.376" gradientUnits="userSpaceOnUse"><stop offset="0.236106" stop-color="#DA291C"></stop><stop offset="1" stop-color="#FFCD00"></stop></linearGradient></defs></svg> 