<?xml version="1.0" encoding="UTF-8"?> <svg xmlns="http://www.w3.org/2000/svg" xmlns:xlink="http://www.w3.org/1999/xlink" width="75" height="75" viewBox="0 0 75 75"><defs><clipPath id="clip-icon-sauce-labs"><rect width="75" height="75"></rect></clipPath></defs><g id="icon-sauce-labs" clip-path="url(#clip-icon-sauce-labs)"><rect width="75" height="75" fill="rgba(255,255,255,0)"></rect><g id="sauce-labs-seeklogo.com" transform="translate(5.667 5.666)"><path id="Path_37830" data-name="Path 37830" d="M7.778,41.046l16.964.008-9.5,17.92A31.813,31.813,0,0,1,44.931,2.836L14.4,33.368H41.584L21.592,53.557l8.255-15.575H10.067a22.979,22.979,0,0,1-.84-6.15,22.632,22.632,0,0,1,22.6-22.6c.266,0,.528.017.793.017l2.91-2.915a25.107,25.107,0,0,0-3.65-.265,25.826,25.826,0,0,0-25.8,25.765A25.5,25.5,0,0,0,7.778,41.046ZM48.418,4.689A31.813,31.813,0,0,1,18.727,60.827l30.3-30.532H21.767l20.3-20.2L33.807,25.684H53.584a25.012,25.012,0,0,1,.85,6.148,22.632,22.632,0,0,1-22.6,22.6c-.3,0-.594-.021-.891-.021l-2.882,2.91a26.129,26.129,0,0,0,3.773.274A25.743,25.743,0,0,0,55.875,22.609H38.916Z" transform="translate(0)" fill="#e12826"></path></g></g></svg> 