<?xml version="1.0" encoding="UTF-8"?> <svg xmlns="http://www.w3.org/2000/svg" width="64" height="64" viewBox="0 0 64 64" fill="none"><path d="M55.5 54.8001H8.50003C8.30003 54.8001 8.20003 54.7001 8.10003 54.6001L1.90003 48.0001C1.80003 47.8001 1.70003 47.6001 1.80003 47.4001C1.90003 47.2001 2.10003 47.1001 2.30003 47.1001H61.6C61.8 47.1001 62 47.2001 62.1 47.4001C62.2 47.6001 62.1 47.8001 62 48.0001L60.2 49.9001C60.1 50.0001 59.9 50.1001 59.8 50.1001C59.7 50.1001 59.5 50.0001 59.4 50.0001C59.3 49.9001 59.2 49.8001 59.2 49.6001C59.2 49.5001 59.2 49.3001 59.3 49.2001L60.2 48.2001H3.40003L8.60003 53.7001H55.1L55.6 53.2001C55.9 53.0001 56 53.0001 56.2 53.0001C56.3 53.0001 56.5 53.1001 56.6 53.1001C56.8 53.3001 56.8 53.6001 56.6 53.8001L55.9 54.5001C55.8 54.7001 55.6 54.8001 55.5 54.8001ZM58 52.1001C57.9 52.1001 57.7 52.0001 57.6 52.0001C57.4 51.8001 57.4 51.4001 57.6 51.2001C57.7 51.0001 57.9 51.0001 58 51.0001C58.1 51.0001 58.3 51.1001 58.4 51.1001C58.6 51.3001 58.6 51.7001 58.4 51.9001C58.3 52.0001 58.2 52.1001 58 52.1001Z" fill="black"></path><path d="M56.4 48.2H7.6C7.5 48.2 7.3 48.1 7.2 48C7.1 47.9 7 47.8 7 47.6V23.3C7 22.9 7.2 22.4 7.5 22.1C7.8 21.8 8.2 21.6 8.7 21.6H15.4C15.5 21.6 15.7 21.7 15.8 21.8C15.9 21.9 16 22 16 22.2V25.3C16 25.6 15.8 25.9 15.4 25.9C15.1 25.9 14.8 25.7 14.8 25.3V22.8H8.7C8.4 22.8 8.1 23.1 8.1 23.4V47.2H55.9V34.7C55.9 34.4 56.1 34.1 56.5 34.1C56.8 34.1 57 34.3 57 34.7V47.7C57 47.8 56.9 48 56.8 48.1C56.7 48.1 56.6 48.2 56.4 48.2ZM19.8 34.9C19.7 34.9 19.5 34.9 19.4 34.8C19.2 34.6 19.2 34.4 19.2 34.2L21.1 29.4H17.2C16.9 29.4 16.6 29.2 16.6 28.8C16.6 28.5 16.8 28.2 17.2 28.2H22C22.2 28.2 22.4 28.3 22.5 28.4C22.6 28.6 22.6 28.7 22.6 28.9L21 32.9L28.5 28.3C28.6 28.2 28.7 28.2 28.8 28.2H48.2V22.1C48.2 22 48.3 21.8 48.4 21.7C48.5 21.6 48.6 21.5 48.8 21.5H55.5C55.9 21.5 56.4 21.7 56.7 22C57 22.3 57.2 22.7 57.2 23.2V29C57.2 29.3 57 29.6 56.7 29.6C56.4 29.6 56.1 29.4 56.1 29V23.2C56.1 22.9 55.8 22.6 55.5 22.6H49.4V28.7C49.4 28.8 49.3 29 49.2 29.1C49.1 29.2 49 29.3 48.8 29.3H28.8L20 34.7C20 34.9 19.9 34.9 19.8 34.9ZM56.4 32.4C56.1 32.4 55.8 32.2 55.8 31.8C55.8 31.4 56 31.2 56.4 31.2C56.7 31.2 56.9 31.4 56.9 31.8C56.9 32.2 56.7 32.4 56.4 32.4ZM15.3 28.6C15 28.6 14.7 28.4 14.7 28C14.7 27.7 14.9 27.4 15.3 27.4C15.6 27.4 15.9 27.6 15.9 28C15.9 28.3 15.6 28.6 15.3 28.6Z" fill="black"></path><path d="M52 48.2H12C11.9 48.2 11.7 48.1 11.6 48C11.5 47.9 11.4 47.8 11.4 47.6V46.3C11.4 46 11.6 45.7 12 45.7C12.3 45.7 12.6 45.9 12.6 46.3V47.1H51.5V27.2H51.1C50.8 27.2 50.5 27 50.5 26.6C50.5 26.3 50.7 26 51.1 26H52C52.1 26 52.3 26.1 52.4 26.2C52.5 26.3 52.6 26.4 52.6 26.6V47.6C52.6 47.7 52.5 47.9 52.4 48C52.3 48.1 52.1 48.2 52 48.2ZM12 44.1C11.7 44.1 11.4 43.9 11.4 43.5C11.4 43.2 11.6 42.9 12 42.9C12.3 42.9 12.6 43.1 12.6 43.5C12.6 43.9 12.3 44.1 12 44.1ZM12 41.4C11.7 41.4 11.4 41.2 11.4 40.8V26.6C11.4 26.5 11.5 26.3 11.6 26.2C11.7 26.1 11.8 26 12 26H15.3C15.4 26 15.6 26.1 15.7 26.2C15.8 26.3 15.9 26.4 15.9 26.6V28.3H22C22.2 28.3 22.4 28.4 22.5 28.5C22.6 28.7 22.6 28.8 22.6 29L21 33L28.5 28.4C28.6 28.3 28.7 28.3 28.8 28.3H47.9C48.2 28.3 48.5 28.5 48.5 28.9C48.5 29.2 48.3 29.5 47.9 29.5H29L20.2 34.9C20 35 19.7 35 19.6 34.9C19.4 34.7 19.4 34.5 19.4 34.3L21.3 29.5H15.4C15.3 29.5 15.1 29.4 15 29.3C14.9 29.2 14.8 29.1 14.8 28.9V27.2H12.6V40.8C12.6 41.1 12.3 41.4 12 41.4ZM48.7 27.5C48.4 27.5 48.1 27.3 48.1 26.9C48.1 26.6 48.3 26.3 48.7 26.3C49 26.3 49.3 26.5 49.3 26.9C49.2 27.3 49 27.5 48.7 27.5Z" fill="black"></path><path d="M19.8 34.9001C19.7 34.9001 19.5 34.9001 19.4 34.8001C19.2 34.6001 19.2 34.4001 19.2 34.2001L21.1 29.4001H15.2C15.1 29.4001 14.9 29.3001 14.8 29.2001C14.7 29.1001 14.6 29.0001 14.6 28.8001V12.2001C14.6 12.1001 14.7 11.9001 14.8 11.8001C14.9 11.7001 15 11.6001 15.2 11.6001H48.5C48.6 11.6001 48.8 11.7001 48.9 11.8001C49 11.9001 49.1 12.0001 49.1 12.2001V28.8001C49.1 28.9001 49 29.1001 48.9 29.2001C48.8 29.3001 48.7 29.4001 48.5 29.4001H36.5C36.2 29.4001 35.9 29.2001 35.9 28.8001C35.9 28.5001 36.1 28.2001 36.5 28.2001H48V12.7001H15.9V28.2001H22C22.2 28.2001 22.4 28.3001 22.5 28.4001C22.6 28.6001 22.6 28.7001 22.6 28.9001L21 32.9001L28.5 28.3001C28.6 28.2001 28.7 28.2001 28.8 28.2001H31.3C31.6 28.2001 31.9 28.4001 31.9 28.8001C31.9 29.1001 31.7 29.4001 31.3 29.4001H29L20.2 34.8001C20 34.9001 19.9 34.9001 19.8 34.9001ZM33.9 29.4001C33.6 29.4001 33.3 29.2001 33.3 28.8001C33.3 28.5001 33.5 28.2001 33.9 28.2001C34.2 28.2001 34.5 28.4001 34.5 28.8001C34.4 29.1001 34.2 29.4001 33.9 29.4001Z" fill="black"></path><path d="M47.2 33.2001H32.8C32.5 33.2001 32.2 33.0001 32.2 32.7001C32.2 32.4001 32.4 32.1001 32.8 32.1001H47.2C47.5 32.1001 47.8 32.3001 47.8 32.7001C47.8 33.0001 47.5 33.2001 47.2 33.2001Z" fill="black"></path><path d="M47.2 37.1001H32.8C32.5 37.1001 32.2 36.9001 32.2 36.5001C32.2 36.2001 32.4 35.9001 32.8 35.9001H47.2C47.5 35.9001 47.8 36.1001 47.8 36.5001C47.8 36.9001 47.5 37.1001 47.2 37.1001Z" fill="black"></path><path d="M47.2 41H32.8C32.5 41 32.2 40.8001 32.2 40.4001C32.2 40.0001 32.4 39.8 32.8 39.8H47.2C47.5 39.8 47.8 40.0001 47.8 40.4001C47.8 40.8001 47.5 41 47.2 41Z" fill="black"></path><path d="M47.6 44.9002H28.7C28.6 44.9002 28.4 44.8002 28.3 44.7002C28.2 44.6002 28.1 44.5002 28.1 44.3002V33.2002C28.1 32.9002 28.3 32.7002 28.7 32.7002C29 32.7002 29.3 32.9002 29.3 33.3002V43.8002H47.6C47.9 43.8002 48.1 44.0002 48.1 44.4002C48.1 44.6002 47.9 44.9002 47.6 44.9002Z" fill="black"></path><path fill-rule="evenodd" clip-rule="evenodd" d="M24.2 18.9001H26.4V21.1001H24.2V18.9001Z" fill="black"></path><path fill-rule="evenodd" clip-rule="evenodd" d="M24.2 18.9001H26.4V21.1001H24.2V18.9001Z" fill="url(#paint0_linear_1506_32839)"></path><path fill-rule="evenodd" clip-rule="evenodd" d="M28.7 18.9001H30.9V21.1001H28.7V18.9001Z" fill="black"></path><path fill-rule="evenodd" clip-rule="evenodd" d="M28.7 18.9001H30.9V21.1001H28.7V18.9001Z" fill="url(#paint1_linear_1506_32839)"></path><path fill-rule="evenodd" clip-rule="evenodd" d="M33.1 18.9001H35.3V21.1001H33.1V18.9001Z" fill="black"></path><path fill-rule="evenodd" clip-rule="evenodd" d="M33.1 18.9001H35.3V21.1001H33.1V18.9001Z" fill="url(#paint2_linear_1506_32839)"></path><path fill-rule="evenodd" clip-rule="evenodd" d="M37.6 18.9001H39.8V21.1001H37.6V18.9001Z" fill="black"></path><path fill-rule="evenodd" clip-rule="evenodd" d="M37.6 18.9001H39.8V21.1001H37.6V18.9001Z" fill="url(#paint3_linear_1506_32839)"></path><path fill-rule="evenodd" clip-rule="evenodd" d="M42 18.9001H44.2V21.1001H42V18.9001Z" fill="black"></path><path fill-rule="evenodd" clip-rule="evenodd" d="M42 18.9001H44.2V21.1001H42V18.9001Z" fill="url(#paint4_linear_1506_32839)"></path><path fill-rule="evenodd" clip-rule="evenodd" d="M19.8 18.9001H22V21.1001H19.8V18.9001Z" fill="black"></path><path fill-rule="evenodd" clip-rule="evenodd" d="M19.8 18.9001H22V21.1001H19.8V18.9001Z" fill="url(#paint5_linear_1506_32839)"></path><defs><linearGradient id="paint0_linear_1506_32839" x1="24.9364" y1="19.6528" x2="27.2264" y2="21.6446" gradientUnits="userSpaceOnUse"><stop offset="0.236106" stop-color="#DA291C"></stop><stop offset="1" stop-color="#FFCD00"></stop></linearGradient><linearGradient id="paint1_linear_1506_32839" x1="29.4364" y1="19.6528" x2="31.7264" y2="21.6446" gradientUnits="userSpaceOnUse"><stop offset="0.236106" stop-color="#DA291C"></stop><stop offset="1" stop-color="#FFCD00"></stop></linearGradient><linearGradient id="paint2_linear_1506_32839" x1="33.8364" y1="19.6528" x2="36.1265" y2="21.6446" gradientUnits="userSpaceOnUse"><stop offset="0.236106" stop-color="#DA291C"></stop><stop offset="1" stop-color="#FFCD00"></stop></linearGradient><linearGradient id="paint3_linear_1506_32839" x1="38.3364" y1="19.6528" x2="40.6265" y2="21.6446" gradientUnits="userSpaceOnUse"><stop offset="0.236106" stop-color="#DA291C"></stop><stop offset="1" stop-color="#FFCD00"></stop></linearGradient><linearGradient id="paint4_linear_1506_32839" x1="42.7363" y1="19.6528" x2="45.0264" y2="21.6446" gradientUnits="userSpaceOnUse"><stop offset="0.236106" stop-color="#DA291C"></stop><stop offset="1" stop-color="#FFCD00"></stop></linearGradient><linearGradient id="paint5_linear_1506_32839" x1="20.5364" y1="19.6528" x2="22.8265" y2="21.6446" gradientUnits="userSpaceOnUse"><stop offset="0.236106" stop-color="#DA291C"></stop><stop offset="1" stop-color="#FFCD00"></stop></linearGradient></defs></svg> 