<?xml version="1.0" encoding="UTF-8"?> <svg xmlns="http://www.w3.org/2000/svg" width="64" height="64" viewBox="0 0 64 64" fill="none"><path d="M39.6296 10.666H32.9269V22.9965H35.5757" stroke="#2E2D2C" stroke-linecap="round" stroke-linejoin="round"></path><path d="M7.29077 16.4082H20.6655" stroke="#2E2D2C" stroke-linecap="round" stroke-linejoin="round"></path><path d="M20.6655 12.3545H9.68628" stroke="#2E2D2C" stroke-linecap="round" stroke-linejoin="round"></path><path d="M10.5001 20.4629H22.846" stroke="white" stroke-linecap="round" stroke-linejoin="round"></path><path d="M9.68628 20.4629H20.6655" stroke="#2E2D2C" stroke-linecap="round" stroke-linejoin="round"></path><path d="M32.9269 12.3547H32.1207C28.9268 12.3547 28.6504 8.30078 23.7903 8.30078H12.3888" fill="white"></path><path d="M32.9269 12.3547H32.1207C28.9268 12.3547 28.6504 8.30078 23.7903 8.30078H12.3888" stroke="#2E2D2C" stroke-linecap="round" stroke-linejoin="round"></path><path d="M32.9269 20.4629H32.1207C28.9268 20.4629 28.6504 24.5168 23.7903 24.5168H15.506" fill="white"></path><path d="M32.9269 20.4629H32.1207C28.9268 20.4629 28.6504 24.5168 23.7903 24.5168H15.506" stroke="#2E2D2C" stroke-linecap="round" stroke-linejoin="round"></path><path d="M9.65552 23.8408V30.5435H21.9861V27.8947" stroke="#2E2D2C" stroke-linecap="round" stroke-linejoin="round"></path><path d="M15.3986 56.1794V42.8047" stroke="#2E2D2C" stroke-linecap="round" stroke-linejoin="round"></path><path d="M11.3446 42.8047V53.7839" stroke="#2E2D2C" stroke-linecap="round" stroke-linejoin="round"></path><path d="M19.4524 52.9709V40.625" stroke="white" stroke-linecap="round" stroke-linejoin="round"></path><path d="M19.4524 53.7839V42.8047" stroke="#2E2D2C" stroke-linecap="round" stroke-linejoin="round"></path><path d="M11.3446 30.5439V31.3501C11.3446 34.5441 7.29077 34.8205 7.29077 39.6805V51.082" fill="white"></path><path d="M11.3446 30.5439V31.3501C11.3446 34.5441 7.29077 34.8205 7.29077 39.6805V51.082" stroke="#2E2D2C" stroke-linecap="round" stroke-linejoin="round"></path><path d="M19.4524 30.5439V31.3501C19.4524 34.5441 23.5063 34.8205 23.5063 39.6805V47.9649" fill="white"></path><path d="M19.4524 30.5439V31.3501C19.4524 34.5441 23.5063 34.8205 23.5063 39.6805V47.9649" stroke="#2E2D2C" stroke-linecap="round" stroke-linejoin="round"></path><path d="M22.8459 53.8149H29.5487V41.4844H26.8998" stroke="black" stroke-linecap="round" stroke-linejoin="round"></path><path d="M22.8459 53.8149H29.5487V41.4844H26.8998" stroke="url(#paint0_linear_506_11898)" stroke-linecap="round" stroke-linejoin="round"></path><path d="M55.1848 48.0723H41.8101" stroke="black" stroke-linecap="round" stroke-linejoin="round"></path><path d="M55.1848 48.0723H41.8101" stroke="url(#paint1_linear_506_11898)" stroke-linecap="round" stroke-linejoin="round"></path><path d="M41.8101 52.126H52.7893" stroke="black" stroke-linecap="round" stroke-linejoin="round"></path><path d="M41.8101 52.126H52.7893" stroke="url(#paint2_linear_506_11898)" stroke-linecap="round" stroke-linejoin="round"></path><path d="M51.9755 44.0176H39.6296" stroke="white" stroke-linecap="round" stroke-linejoin="round"></path><path d="M52.7893 44.0176H41.8101" stroke="black" stroke-linecap="round" stroke-linejoin="round"></path><path d="M52.7893 44.0176H41.8101" stroke="url(#paint3_linear_506_11898)" stroke-linecap="round" stroke-linejoin="round"></path><path d="M29.5487 52.126H30.3549C33.5488 52.126 33.8252 56.1799 38.6853 56.1799H50.0868" fill="white"></path><path d="M29.5487 52.126H30.3549C33.5488 52.126 33.8252 56.1798 38.6853 56.1798H50.0868" stroke="black" stroke-linecap="round" stroke-linejoin="round"></path><path d="M29.5487 52.126H30.3549C33.5488 52.126 33.8252 56.1798 38.6853 56.1798H50.0868" stroke="url(#paint4_linear_506_11898)" stroke-linecap="round" stroke-linejoin="round"></path><path d="M29.5487 44.0177H30.3549C33.5488 44.0177 33.8252 39.9639 38.6853 39.9639H46.9696" fill="white"></path><path d="M29.5487 44.0177H30.3549C33.5488 44.0177 33.8252 39.9639 38.6853 39.9639H46.9696" stroke="black" stroke-linecap="round" stroke-linejoin="round"></path><path d="M29.5487 44.0177H30.3549C33.5488 44.0177 33.8252 39.9639 38.6853 39.9639H46.9696" stroke="url(#paint5_linear_506_11898)" stroke-linecap="round" stroke-linejoin="round"></path><path d="M52.8047 40.6401V33.9297H40.4741V36.5862" stroke="#2E2D2C" stroke-linecap="round" stroke-linejoin="round"></path><path d="M47.0618 8.30078V21.6678" stroke="#2E2D2C" stroke-linecap="round" stroke-linejoin="round"></path><path d="M51.1156 21.6677V10.6885" stroke="#2E2D2C" stroke-linecap="round" stroke-linejoin="round"></path><path d="M43.0078 11.5098V23.848" stroke="white" stroke-linecap="round" stroke-linejoin="round"></path><path d="M43.0078 10.6885V21.6677" stroke="#2E2D2C" stroke-linecap="round" stroke-linejoin="round"></path><path d="M51.1156 33.9297V33.1235C51.1156 29.9296 55.1695 29.6532 55.1695 24.7931V13.3916" fill="white"></path><path d="M51.1156 33.9297V33.1235C51.1156 29.9296 55.1695 29.6532 55.1695 24.7931V13.3916" stroke="#2E2D2C" stroke-linecap="round" stroke-linejoin="round"></path><path d="M43.0078 33.9287V33.1225C43.0078 29.9286 38.954 29.6522 38.954 24.7922V16.5078" fill="white"></path><path d="M43.0078 33.9287V33.1225C43.0078 29.9286 38.954 29.6522 38.954 24.7922V16.5078" stroke="#2E2D2C" stroke-linecap="round" stroke-linejoin="round"></path><defs><linearGradient id="paint0_linear_506_11898" x1="25.0894" y1="45.7027" x2="35.1056" y2="50.4382" gradientUnits="userSpaceOnUse"><stop offset="0.236106" stop-color="#DA291C"></stop><stop offset="1" stop-color="#FFCD00"></stop></linearGradient><linearGradient id="paint1_linear_506_11898" x1="46.2866" y1="48.4144" x2="46.466" y2="50.5012" gradientUnits="userSpaceOnUse"><stop offset="0.236106" stop-color="#DA291C"></stop><stop offset="1" stop-color="#FFCD00"></stop></linearGradient><linearGradient id="paint2_linear_506_11898" x1="45.4848" y1="52.4681" x2="45.7026" y2="54.5475" gradientUnits="userSpaceOnUse"><stop offset="0.236106" stop-color="#DA291C"></stop><stop offset="1" stop-color="#FFCD00"></stop></linearGradient><linearGradient id="paint3_linear_506_11898" x1="45.4848" y1="44.3597" x2="45.7026" y2="46.4391" gradientUnits="userSpaceOnUse"><stop offset="0.236106" stop-color="#DA291C"></stop><stop offset="1" stop-color="#FFCD00"></stop></linearGradient><linearGradient id="paint4_linear_506_11898" x1="36.4229" y1="53.5128" x2="38.2622" y2="61.6175" gradientUnits="userSpaceOnUse"><stop offset="0.236106" stop-color="#DA291C"></stop><stop offset="1" stop-color="#FFCD00"></stop></linearGradient><linearGradient id="paint5_linear_506_11898" x1="35.3795" y1="41.3507" x2="37.5073" y2="49.3035" gradientUnits="userSpaceOnUse"><stop offset="0.236106" stop-color="#DA291C"></stop><stop offset="1" stop-color="#FFCD00"></stop></linearGradient></defs></svg> 