<?xml version="1.0" encoding="UTF-8"?> <svg xmlns="http://www.w3.org/2000/svg" width="64" height="64" viewBox="0 0 64 64" fill="none"><g clip-path="url(#clip0_1576_34447)"><path d="M46.29 33.31C46.42 33.18 49.43 30.11 50.95 25.14C51.85 22.21 52.05 19.22 51.53 16.26C50.89 12.59 49.15 8.97 46.35 5.5" stroke="black" stroke-linecap="round" stroke-linejoin="round"></path><path d="M37.87 25.6301C40.75 22.3401 40.59 19.0901 39.94 16.9401C39.26 14.6601 37.91 13.1501 37.85 13.0901" stroke="black" stroke-linecap="round" stroke-linejoin="round"></path><path d="M42.2 29.0501C42.29 28.9601 44.3399 26.7501 45.3699 23.2801C46.3299 20.0501 46.57 15.0901 42.24 9.81006" stroke="black" stroke-linecap="round" stroke-linejoin="round"></path><path d="M17.0299 33.31C16.8999 33.18 13.8899 30.11 12.3699 25.14C11.4699 22.21 11.2699 19.22 11.7899 16.26C12.4199 12.58 14.1599 8.97 16.9599 5.5" stroke="black" stroke-linecap="round" stroke-linejoin="round"></path><path d="M25.4499 25.6301C22.5699 22.3401 22.7299 19.0901 23.3799 16.9401C24.0599 14.6601 25.4099 13.1501 25.4699 13.0901" stroke="black" stroke-linecap="round" stroke-linejoin="round"></path><path d="M21.1199 29.0501C21.0299 28.9601 18.9799 26.7501 17.9499 23.2801C16.9899 20.0501 16.7499 15.0901 21.0799 9.81006" stroke="black" stroke-linecap="round" stroke-linejoin="round"></path><path d="M17.09 58.1399L22.05 45.6599L44.26 53.3699L46.16 58.1399" stroke="black" stroke-miterlimit="10"></path><path d="M36.88 34.79L28.99 31.19L34.38 28.52L36.88 34.79Z" stroke="black" stroke-miterlimit="10"></path><path d="M31.51 22C31.61 22 31.7 22 31.79 21.99L33.67 26.72L28.58 29.25L31.46 22.01C31.46 22.01 31.5 22.01 31.52 22.01L31.51 22Z" stroke="black" stroke-miterlimit="10"></path><path d="M31.51 22C31.61 22 31.7 22 31.79 21.99L33.67 26.72L28.58 29.25L31.46 22.01C31.46 22.01 31.5 22.01 31.52 22.01L31.51 22Z" stroke="url(#paint0_linear_1576_34447)" stroke-miterlimit="10"></path><path d="M27.26 32.53L36.32 36.67L23.27 42.57L27.26 32.53Z" stroke="black" stroke-miterlimit="10"></path><path d="M24.1 44.32L38.14 37.97L43.31 50.99L24.1 44.32Z" stroke="black" stroke-miterlimit="10"></path><path d="M31.49 21.7801C32.578 21.7801 33.46 20.8981 33.46 19.8101C33.46 18.7221 32.578 17.8401 31.49 17.8401C30.402 17.8401 29.52 18.7221 29.52 19.8101C29.52 20.8981 30.402 21.7801 31.49 21.7801Z" stroke="black" stroke-miterlimit="10"></path><path d="M31.49 21.7801C32.578 21.7801 33.46 20.8981 33.46 19.8101C33.46 18.7221 32.578 17.8401 31.49 17.8401C30.402 17.8401 29.52 18.7221 29.52 19.8101C29.52 20.8981 30.402 21.7801 31.49 21.7801Z" stroke="url(#paint1_linear_1576_34447)" stroke-miterlimit="10"></path></g><defs><linearGradient id="paint0_linear_1576_34447" x1="30.2836" y1="24.4737" x2="37.0675" y2="28.6104" gradientUnits="userSpaceOnUse"><stop offset="0.236106" stop-color="#DA291C"></stop><stop offset="1" stop-color="#FFCD00"></stop></linearGradient><linearGradient id="paint1_linear_1576_34447" x1="30.8387" y1="19.188" x2="34.9401" y2="22.7551" gradientUnits="userSpaceOnUse"><stop offset="0.236106" stop-color="#DA291C"></stop><stop offset="1" stop-color="#FFCD00"></stop></linearGradient><clipPath id="clip0_1576_34447"><rect width="41.32" height="53.32" fill="white" transform="translate(11 5)"></rect></clipPath></defs></svg> 