<?xml version="1.0" encoding="UTF-8"?> <svg xmlns="http://www.w3.org/2000/svg" width="64" height="64" viewBox="0 0 64 64" fill="none"><path d="M26 61L27 55" stroke="#37464C" stroke-linecap="round" stroke-linejoin="round"></path><path d="M41 61H23" stroke="#37464C" stroke-linecap="round" stroke-linejoin="round"></path><path d="M37 55L38 61" stroke="#37464C" stroke-linecap="round" stroke-linejoin="round"></path><path d="M16 19H10C8.34 19 7 20.34 7 22V52C7 53.66 8.34 55 10 55H54C55.66 55 57 53.66 57 52V22C57 20.34 55.66 19 54 19H50" stroke="#37464C" stroke-linecap="round" stroke-linejoin="round"></path><path d="M7 49H57" stroke="#37464C" stroke-linejoin="round"></path><path d="M33.02 24.03C35.7814 24.03 38.02 21.7915 38.02 19.03C38.02 16.2686 35.7814 14.03 33.02 14.03C30.2586 14.03 28.02 16.2686 28.02 19.03C28.02 21.7915 30.2586 24.03 33.02 24.03Z" stroke="black" stroke-linecap="round" stroke-linejoin="round"></path><path d="M33.02 24.03C35.7814 24.03 38.02 21.7915 38.02 19.03C38.02 16.2686 35.7814 14.03 33.02 14.03C30.2586 14.03 28.02 16.2686 28.02 19.03C28.02 21.7915 30.2586 24.03 33.02 24.03Z" stroke="url(#paint0_linear_1518_32878)" stroke-linecap="round" stroke-linejoin="round"></path><path d="M46.02 20.46C46.02 20.82 45.73 21.11 45.37 21.11H43.72C43.42 21.11 43.17 21.32 43.09 21.61C42.84 22.58 42.46 23.49 41.96 24.33C41.81 24.59 41.84 24.91 42.05 25.13L43.1 26.18C43.47 26.55 43.47 26.96 43.22 27.21L41.19 29.24C40.94 29.49 40.53 29.49 40.28 29.24L39.11 28.07C38.9 27.86 38.57 27.83 38.31 27.98C37.47 28.48 36.56 28.86 35.59 29.11C35.3 29.18 35.09 29.43 35.09 29.73V31.22C35.09 31.74 34.8 32.03 34.44 32.03H31.57C31.21 32.03 30.92 31.74 30.92 31.38V29.73C30.92 29.43 30.71 29.18 30.42 29.1C29.45 28.85 28.54 28.47 27.7 27.97C27.44 27.82 27.12 27.85 26.9 28.06L25.85 29.11C25.48 29.48 25.07 29.48 24.82 29.23L22.79 27.2C22.54 26.95 22.54 26.54 22.79 26.29L23.96 25.12C24.17 24.91 24.2 24.58 24.05 24.32C23.55 23.48 23.17 22.57 22.92 21.6C22.85 21.31 22.6 21.1 22.3 21.1H20.81C20.29 21.1 20 20.81 20 20.45V17.58C20 17.22 20.29 16.93 20.81 16.93H22.3C22.6 16.93 22.85 16.72 22.92 16.43C23.17 15.46 23.55 14.55 24.05 13.71C24.2 13.45 24.17 13.12 23.96 12.91L22.79 11.74C22.54 11.49 22.54 11.08 22.79 10.83L24.82 8.8C25.07 8.55 25.48 8.55 25.85 8.92L26.9 9.97C27.11 10.18 27.44 10.21 27.7 10.06C28.54 9.56 29.45 9.17999 30.42 8.92999C30.71 8.85999 30.92 8.6 30.92 8.3V6.64999C30.92 6.28999 31.21 6 31.57 6H34.44C34.8 6 35.09 6.29 35.09 6.81V8.3C35.09 8.6 35.3 8.85 35.59 8.92C36.56 9.17 37.47 9.55 38.31 10.05C38.57 10.2 38.9 10.17 39.11 9.95999L40.28 8.78999C40.53 8.53999 40.94 8.53999 41.19 8.78999L43.22 10.82C43.47 11.07 43.47 11.48 43.1 11.85L42.05 12.9C41.84 13.11 41.81 13.44 41.96 13.7C42.46 14.54 42.84 15.45 43.09 16.42C43.16 16.71 43.42 16.92 43.72 16.92H45.37C45.73 16.92 46.02 17.21 46.02 17.57V20.44V20.46Z" stroke="black" stroke-linecap="round" stroke-linejoin="round"></path><path d="M46.02 20.46C46.02 20.82 45.73 21.11 45.37 21.11H43.72C43.42 21.11 43.17 21.32 43.09 21.61C42.84 22.58 42.46 23.49 41.96 24.33C41.81 24.59 41.84 24.91 42.05 25.13L43.1 26.18C43.47 26.55 43.47 26.96 43.22 27.21L41.19 29.24C40.94 29.49 40.53 29.49 40.28 29.24L39.11 28.07C38.9 27.86 38.57 27.83 38.31 27.98C37.47 28.48 36.56 28.86 35.59 29.11C35.3 29.18 35.09 29.43 35.09 29.73V31.22C35.09 31.74 34.8 32.03 34.44 32.03H31.57C31.21 32.03 30.92 31.74 30.92 31.38V29.73C30.92 29.43 30.71 29.18 30.42 29.1C29.45 28.85 28.54 28.47 27.7 27.97C27.44 27.82 27.12 27.85 26.9 28.06L25.85 29.11C25.48 29.48 25.07 29.48 24.82 29.23L22.79 27.2C22.54 26.95 22.54 26.54 22.79 26.29L23.96 25.12C24.17 24.91 24.2 24.58 24.05 24.32C23.55 23.48 23.17 22.57 22.92 21.6C22.85 21.31 22.6 21.1 22.3 21.1H20.81C20.29 21.1 20 20.81 20 20.45V17.58C20 17.22 20.29 16.93 20.81 16.93H22.3C22.6 16.93 22.85 16.72 22.92 16.43C23.17 15.46 23.55 14.55 24.05 13.71C24.2 13.45 24.17 13.12 23.96 12.91L22.79 11.74C22.54 11.49 22.54 11.08 22.79 10.83L24.82 8.8C25.07 8.55 25.48 8.55 25.85 8.92L26.9 9.97C27.11 10.18 27.44 10.21 27.7 10.06C28.54 9.56 29.45 9.17999 30.42 8.92999C30.71 8.85999 30.92 8.6 30.92 8.3V6.64999C30.92 6.28999 31.21 6 31.57 6H34.44C34.8 6 35.09 6.29 35.09 6.81V8.3C35.09 8.6 35.3 8.85 35.59 8.92C36.56 9.17 37.47 9.55 38.31 10.05C38.57 10.2 38.9 10.17 39.11 9.95999L40.28 8.78999C40.53 8.53999 40.94 8.53999 41.19 8.78999L43.22 10.82C43.47 11.07 43.47 11.48 43.1 11.85L42.05 12.9C41.84 13.11 41.81 13.44 41.96 13.7C42.46 14.54 42.84 15.45 43.09 16.42C43.16 16.71 43.42 16.92 43.72 16.92H45.37C45.73 16.92 46.02 17.21 46.02 17.57V20.44V20.46Z" stroke="url(#paint1_linear_1518_32878)" stroke-linecap="round" stroke-linejoin="round"></path><path d="M23.8938 39.9158C25.0333 40.441 26.3827 39.943 26.9078 38.8035C27.433 37.664 26.935 36.3146 25.7955 35.7895C24.6561 35.2643 23.3067 35.7623 22.7815 36.9018C22.2564 38.0412 22.7544 39.3907 23.8938 39.9158Z" stroke="#37464C" stroke-linecap="round" stroke-linejoin="round"></path><path d="M29.9369 40.9149C29.8685 41.0635 29.6937 41.128 29.5451 41.0595L28.8643 40.7457C28.7405 40.6887 28.5974 40.7278 28.5092 40.8322C28.2216 41.185 27.8917 41.4882 27.5257 41.7397C27.4143 41.8185 27.3659 41.9562 27.4107 42.0869L27.6443 42.7199C27.7266 42.9429 27.6486 43.1121 27.4979 43.1677L26.2742 43.6193C26.1235 43.6749 25.9543 43.597 25.8987 43.4463L25.6384 42.741C25.5917 42.6144 25.4613 42.5393 25.3255 42.5517C24.8838 42.5983 24.436 42.582 23.9882 42.5007C23.8552 42.4745 23.721 42.5377 23.664 42.6615L23.3806 43.2763C23.2817 43.4909 23.1069 43.5554 22.9584 43.4869L21.7741 42.9411C21.6256 42.8727 21.561 42.6979 21.6295 42.5493L21.9433 41.8685C22.0003 41.7447 21.9612 41.6016 21.8568 41.5134C21.5041 41.2258 21.2008 40.8959 20.9493 40.5299C20.8705 40.4185 20.7328 40.3701 20.6021 40.4149L19.9691 40.6485C19.7461 40.7308 19.5769 40.6528 19.5213 40.5021L19.0697 39.2784C19.0141 39.1277 19.0921 38.9585 19.2428 38.9029L19.948 38.6426C20.0746 38.5959 20.1498 38.4654 20.1373 38.3296C20.0907 37.8879 20.107 37.4402 20.1883 36.9924C20.2146 36.8594 20.1513 36.7252 20.0276 36.6682L19.4127 36.3848C19.1982 36.2859 19.1337 36.1111 19.2021 35.9626L19.7479 34.7783C19.8164 34.6298 19.9912 34.5652 20.2057 34.6641L20.8206 34.9475C20.9444 35.0045 21.0874 34.9654 21.1715 34.8591C21.4591 34.5063 21.789 34.2031 22.155 33.9516C22.2664 33.8728 22.3167 33.731 22.27 33.6044L22.0097 32.8991C21.9541 32.7484 22.0321 32.5792 22.1828 32.5236L23.4065 32.072C23.5572 32.0164 23.7264 32.0943 23.8087 32.3174L24.0423 32.9503C24.089 33.0769 24.2194 33.1521 24.3553 33.1396C24.797 33.093 25.2447 33.1093 25.6925 33.1906C25.8255 33.2169 25.9616 33.1495 26.0186 33.0257L26.3324 32.3449C26.4009 32.1963 26.5757 32.1318 26.7242 32.2003L27.9085 32.7461C28.0571 32.8145 28.1216 32.9893 28.0227 33.2039L27.7393 33.8187C27.6823 33.9425 27.7214 34.0856 27.8277 34.1696C28.1804 34.4573 28.4837 34.7871 28.7352 35.1532C28.814 35.2645 28.9558 35.3149 29.0824 35.2682L29.7877 35.0079C29.9384 34.9523 30.1076 35.0303 30.1632 35.181L30.6148 36.4046C30.6704 36.5553 30.5924 36.7245 30.3694 36.8068L29.7365 37.0404C29.6099 37.0871 29.5347 37.2176 29.5472 37.3534C29.5938 37.7951 29.5775 38.2429 29.4962 38.6907C29.4699 38.8237 29.5373 38.9597 29.6611 39.0168L30.3419 39.3306C30.4905 39.399 30.555 39.5739 30.4865 39.7224L29.9407 40.9067L29.9369 40.9149Z" stroke="#37464C" stroke-linecap="round" stroke-linejoin="round"></path><path d="M39.4316 37.7451C40.3344 38.117 41.3676 37.6866 41.7394 36.7838C42.1113 35.8811 41.6809 34.8478 40.7781 34.476C39.8754 34.1042 38.8421 34.5346 38.4703 35.4373C38.0985 36.3401 38.5289 37.3733 39.4316 37.7451Z" stroke="#37464C" stroke-linecap="round" stroke-linejoin="round"></path><path d="M44.1621 38.3285C44.1137 38.4462 43.9798 38.5019 43.8621 38.4535L43.3227 38.2313C43.2246 38.1909 43.1146 38.2259 43.0494 38.3099C42.8371 38.5934 42.5903 38.8397 42.3138 39.047C42.2297 39.1118 42.1964 39.2204 42.2355 39.3206L42.4373 39.8053C42.5085 39.976 42.4533 40.1101 42.3379 40.1581L41.4009 40.5484C41.2855 40.5965 41.1515 40.5413 41.1034 40.4259L40.8785 39.8859C40.8381 39.7889 40.7342 39.7347 40.6291 39.7487C40.2871 39.7991 39.9385 39.8008 39.5877 39.7519C39.4835 39.7357 39.3811 39.7892 39.3407 39.8872L39.1401 40.3743C39.0701 40.5443 38.9362 40.6001 38.8186 40.5516L37.8803 40.1652C37.7626 40.1167 37.7069 39.9828 37.7553 39.8652L37.9775 39.3257C38.0179 39.2277 37.9829 39.1177 37.8989 39.0525C37.6154 38.8401 37.3691 38.5934 37.1618 38.3168C37.097 38.2327 36.9884 38.1995 36.8882 38.2385L36.4035 38.4404C36.2328 38.5115 36.0987 38.4563 36.0507 38.3409L35.6604 37.4039C35.6123 37.2885 35.6675 37.1545 35.7829 37.1064L36.3229 36.8815C36.4199 36.8411 36.4741 36.7373 36.4601 36.6321C36.4097 36.2901 36.408 35.9415 36.4569 35.5907C36.4731 35.4865 36.4196 35.3842 36.3216 35.3438L35.8345 35.1431C35.6645 35.0731 35.6087 34.9393 35.6572 34.8216L36.0436 33.8833C36.0921 33.7656 36.226 33.7099 36.396 33.7799L36.8831 33.9805C36.9811 34.0209 37.0911 33.9859 37.1531 33.9006C37.3654 33.6171 37.6122 33.3708 37.8887 33.1635C37.9728 33.0987 38.0074 32.9868 37.967 32.8899L37.7421 32.3498C37.694 32.2344 37.7492 32.1004 37.8646 32.0523L38.8016 31.662C38.917 31.614 39.051 31.6692 39.1222 31.84L39.324 32.3246C39.3644 32.4215 39.4683 32.4758 39.5735 32.4618C39.9154 32.4114 40.264 32.4097 40.6148 32.4586C40.7191 32.4748 40.8227 32.418 40.8631 32.32L41.0853 31.7806C41.1338 31.6629 41.2676 31.6071 41.3853 31.6556L42.3236 32.042C42.4412 32.0905 42.497 32.2244 42.427 32.3944L42.2263 32.8815C42.1859 32.9795 42.2209 33.0895 42.3063 33.1515C42.5898 33.3638 42.8361 33.6106 43.0434 33.8871C43.1082 33.9712 43.2201 34.0058 43.317 33.9654L43.8571 33.7405C43.9724 33.6924 44.1065 33.7476 44.1545 33.863L44.5448 34.8C44.5929 34.9154 44.5377 35.0494 44.3669 35.1206L43.8823 35.3225C43.7853 35.3628 43.7311 35.4667 43.7451 35.5719C43.7955 35.9138 43.7972 36.2625 43.7483 36.6132C43.7321 36.7175 43.7888 36.8211 43.8869 36.8615L44.4263 37.0837C44.544 37.1322 44.5998 37.266 44.5513 37.3837L44.1648 38.322L44.1621 38.3285Z" stroke="#37464C" stroke-linecap="round" stroke-linejoin="round"></path><defs><linearGradient id="paint0_linear_1518_32878" x1="31.367" y1="17.4511" x2="41.7765" y2="26.5046" gradientUnits="userSpaceOnUse"><stop offset="0.236106" stop-color="#DA291C"></stop><stop offset="1" stop-color="#FFCD00"></stop></linearGradient><linearGradient id="paint1_linear_1518_32878" x1="28.7089" y1="14.905" x2="55.8034" y2="38.4611" gradientUnits="userSpaceOnUse"><stop offset="0.236106" stop-color="#DA291C"></stop><stop offset="1" stop-color="#FFCD00"></stop></linearGradient></defs></svg> 