<?xml version="1.0" encoding="UTF-8"?> <svg xmlns="http://www.w3.org/2000/svg" width="64" height="64" viewBox="0 0 64 64" fill="none"><g clip-path="url(#clip0_1373_28242)"><path d="M29.75 28.625H25.25C24.0125 28.625 23 29.6375 23 30.875V55.625C23 56.8625 24.0125 57.875 25.25 57.875H38.75C39.9875 57.875 41 56.8625 41 55.625V30.875C41 29.6375 39.9875 28.625 38.75 28.625H34.25" stroke="white" stroke-miterlimit="10"></path><path d="M30.875 54.5H33.125" stroke="white" stroke-miterlimit="10"></path><path d="M44.375 36.5H50C54.3537 36.5 57.875 32.9787 57.875 28.625C57.875 24.2713 54.3537 20.75 50 20.75C49.1675 20.75 48.3575 20.885 47.6037 21.1212C47.6937 20.6375 47.75 20.1312 47.75 19.625C47.75 15.2713 44.2287 11.75 39.875 11.75C37.9062 11.75 36.1175 12.4813 34.7338 13.6738C33.2038 9.28625 29.03 6.125 24.125 6.125C17.9037 6.125 12.8637 11.165 12.8637 17.375C12.8637 18.5562 13.055 19.7038 13.3925 20.7725C9.33125 21.0875 6.125 24.4737 6.125 28.6137C6.125 32.9675 9.64625 36.4887 14 36.4887H19.625" stroke="white" stroke-miterlimit="10"></path><path d="M34.7562 13.6626C35.0487 14.4838 35.24 15.3501 35.33 16.2501" stroke="white" stroke-miterlimit="10"></path><path d="M47.6037 21.1213C47.4237 22.0438 47.0862 22.9101 46.625 23.6751" stroke="white" stroke-miterlimit="10"></path><path d="M13.3925 20.7725C14.3712 20.6937 15.3612 20.8062 16.3175 21.0987" stroke="white" stroke-miterlimit="10"></path><path d="M32 20.75V42.125" stroke="black" stroke-miterlimit="10"></path><path d="M32 20.75V42.125" stroke="url(#paint0_linear_1373_28242)" stroke-miterlimit="10"></path><path d="M35.375 24.125L32 20.75L28.625 24.125" stroke="black" stroke-miterlimit="10"></path><path d="M35.375 24.125L32 20.75L28.625 24.125" stroke="url(#paint1_linear_1373_28242)" stroke-miterlimit="10"></path><path d="M35.375 38.75L32 42.125L28.625 38.75" stroke="black" stroke-miterlimit="10"></path><path d="M35.375 38.75L32 42.125L28.625 38.75" stroke="url(#paint2_linear_1373_28242)" stroke-miterlimit="10"></path></g><defs><linearGradient id="paint0_linear_1373_28242" x1="32.3347" y1="28.0625" x2="34.1601" y2="28.1368" gradientUnits="userSpaceOnUse"><stop offset="0.236106" stop-color="#DA291C"></stop><stop offset="1" stop-color="#FFCD00"></stop></linearGradient><linearGradient id="paint1_linear_1373_28242" x1="30.8842" y1="21.9046" x2="33.9498" y2="27.2372" gradientUnits="userSpaceOnUse"><stop offset="0.236106" stop-color="#DA291C"></stop><stop offset="1" stop-color="#FFCD00"></stop></linearGradient><linearGradient id="paint2_linear_1373_28242" x1="30.8842" y1="39.9046" x2="33.9498" y2="45.2372" gradientUnits="userSpaceOnUse"><stop offset="0.236106" stop-color="#DA291C"></stop><stop offset="1" stop-color="#FFCD00"></stop></linearGradient><clipPath id="clip0_1373_28242"><rect width="54" height="54" fill="white" transform="translate(5 5)"></rect></clipPath></defs></svg> 