<?xml version="1.0" encoding="UTF-8"?> <svg xmlns="http://www.w3.org/2000/svg" width="64" height="64" viewBox="0 0 64 64" fill="none"><path d="M11.0557 39.2016V29.7969H31.5676" stroke="white" stroke-miterlimit="10"></path><path d="M52.0798 38.9052V29.7969H31.5679" stroke="white" stroke-miterlimit="10"></path><path d="M31.5679 38.9056V29.7973V22.5264" stroke="white" stroke-miterlimit="10"></path><path d="M13.7685 36.5615L11.056 39.2486L8.36328 36.5615" stroke="white" stroke-miterlimit="10"></path><path d="M34.2609 36.5615L31.5682 39.2486L28.8755 36.5615" stroke="white" stroke-miterlimit="10"></path><path d="M54.7728 36.5615L52.0802 39.2486L49.3677 36.5615" stroke="white" stroke-miterlimit="10"></path><path d="M55.9996 45.1494H45.7437V55.384H55.9996V45.1494Z" stroke="white" stroke-miterlimit="10"></path><path d="M26.4399 50.2667C26.4399 53.0929 28.7417 55.384 31.5679 55.384C34.3941 55.384 36.6959 53.0929 36.6959 50.2667C36.6959 47.4405 34.3941 45.1494 31.5679 45.1494C28.7417 45.1494 26.4399 47.4405 26.4399 50.2667Z" stroke="black" stroke-miterlimit="10"></path><path d="M26.4399 50.2667C26.4399 53.0929 28.7417 55.384 31.5679 55.384C34.3941 55.384 36.6959 53.0929 36.6959 50.2667C36.6959 47.4405 34.3941 45.1494 31.5679 45.1494C28.7417 45.1494 26.4399 47.4405 26.4399 50.2667Z" stroke="url(#paint0_linear_497_13730)" stroke-miterlimit="10"></path><path d="M41.8235 9.09082H21.3115V19.3254H41.8235V9.09082Z" stroke="black" stroke-miterlimit="10"></path><path d="M41.8235 9.09082H21.3115V19.3254H41.8235V9.09082Z" stroke="url(#paint1_linear_497_13730)" stroke-miterlimit="10"></path><path d="M17.3717 45.1494H7.11572V55.384H17.3717V45.1494Z" stroke="white" stroke-miterlimit="10"></path><defs><linearGradient id="paint0_linear_497_13730" x1="29.8726" y1="48.6507" x2="40.5294" y2="57.9387" gradientUnits="userSpaceOnUse"><stop offset="0.236106" stop-color="#DA291C"></stop><stop offset="1" stop-color="#FFCD00"></stop></linearGradient><linearGradient id="paint1_linear_497_13730" x1="28.1769" y1="12.5921" x2="37.4635" y2="28.7797" gradientUnits="userSpaceOnUse"><stop offset="0.236106" stop-color="#DA291C"></stop><stop offset="1" stop-color="#FFCD00"></stop></linearGradient></defs></svg> 