<?xml version="1.0" encoding="UTF-8"?> <svg xmlns="http://www.w3.org/2000/svg" width="64" height="64" viewBox="0 0 64 64" fill="none"><path d="M42.8475 6H31.6875V11.46H42.8475V6Z" stroke="white" stroke-linecap="round" stroke-linejoin="round"></path><path d="M18.2775 28.1201V8.37012H31.6874" stroke="white" stroke-linecap="round" stroke-linejoin="round"></path><path d="M42.8475 10.2002H45.8675V13.6802H28.7875V10.2002H31.6875" stroke="white" stroke-linecap="round" stroke-linejoin="round"></path><path d="M42.9674 8.37012H56.3774V57.9701H33.9974" stroke="white" stroke-linecap="round" stroke-linejoin="round"></path><path d="M23.3975 19.0498H51.1375" stroke="white" stroke-linecap="round" stroke-linejoin="round"></path><path d="M23.3975 25.1201H51.1375" stroke="white" stroke-linecap="round" stroke-linejoin="round"></path><path d="M23.3975 31.2002H51.1375" stroke="white" stroke-linecap="round" stroke-linejoin="round"></path><path d="M33.9974 37.2803H51.1375" stroke="white" stroke-linecap="round" stroke-linejoin="round"></path><path d="M33.9974 43.3501H51.1375" stroke="white" stroke-linecap="round" stroke-linejoin="round"></path><path d="M33.9974 49.4302H51.1375" stroke="white" stroke-linecap="round" stroke-linejoin="round"></path><path d="M22.7675 39.0999C22.7675 41.5599 20.7175 43.5699 18.2075 43.5699C15.6975 43.5699 13.6475 41.5699 13.6475 39.0999C13.6475 36.6299 15.6975 34.6299 18.2075 34.6299C20.7175 34.6299 22.7675 36.6299 22.7675 39.0999Z" stroke="black" stroke-linecap="round" stroke-linejoin="round"></path><path d="M22.7675 39.0999C22.7675 41.5599 20.7175 43.5699 18.2075 43.5699C15.6975 43.5699 13.6475 41.5699 13.6475 39.0999C13.6475 36.6299 15.6975 34.6299 18.2075 34.6299C20.7175 34.6299 22.7675 36.6299 22.7675 39.0999Z" stroke="url(#paint0_linear_1533_33521)" stroke-linecap="round" stroke-linejoin="round"></path><path d="M27.7874 57.9701V51.2201C27.7874 49.2201 26.1275 47.6001 24.0875 47.6001H12.3375C10.2875 47.6001 8.63745 49.2201 8.63745 51.2201V57.9701" stroke="black" stroke-linecap="round" stroke-linejoin="round"></path><path d="M27.7874 57.9701V51.2201C27.7874 49.2201 26.1275 47.6001 24.0875 47.6001H12.3375C10.2875 47.6001 8.63745 49.2201 8.63745 51.2201V57.9701" stroke="url(#paint1_linear_1533_33521)" stroke-linecap="round" stroke-linejoin="round"></path><path d="M13.7474 53.3896V57.9697" stroke="black" stroke-linecap="round" stroke-linejoin="round"></path><path d="M13.7474 53.3896V57.9697" stroke="url(#paint2_linear_1533_33521)" stroke-linecap="round" stroke-linejoin="round"></path><path d="M22.6775 57.9697V53.3896" stroke="black" stroke-linecap="round" stroke-linejoin="round"></path><path d="M22.6775 57.9697V53.3896" stroke="url(#paint3_linear_1533_33521)" stroke-linecap="round" stroke-linejoin="round"></path><path d="M13.7474 54.6899V57.9699" stroke="black" stroke-linecap="round" stroke-linejoin="round"></path><path d="M13.7474 54.6899V57.9699" stroke="url(#paint4_linear_1533_33521)" stroke-linecap="round" stroke-linejoin="round"></path><path d="M22.6775 57.9699V54.6899" stroke="black" stroke-linecap="round" stroke-linejoin="round"></path><path d="M22.6775 57.9699V54.6899" stroke="url(#paint5_linear_1533_33521)" stroke-linecap="round" stroke-linejoin="round"></path><defs><linearGradient id="paint0_linear_1533_33521" x1="16.6999" y1="37.6883" x2="26.0299" y2="45.9664" gradientUnits="userSpaceOnUse"><stop offset="0.236106" stop-color="#DA291C"></stop><stop offset="1" stop-color="#FFCD00"></stop></linearGradient><linearGradient id="paint1_linear_1533_33521" x1="15.047" y1="51.1477" x2="24.8282" y2="66.8576" gradientUnits="userSpaceOnUse"><stop offset="0.236106" stop-color="#DA291C"></stop><stop offset="1" stop-color="#FFCD00"></stop></linearGradient><linearGradient id="paint2_linear_1533_33521" x1="14.0821" y1="54.9565" x2="15.8469" y2="55.2916" gradientUnits="userSpaceOnUse"><stop offset="0.236106" stop-color="#DA291C"></stop><stop offset="1" stop-color="#FFCD00"></stop></linearGradient><linearGradient id="paint3_linear_1533_33521" x1="23.0122" y1="54.9565" x2="24.7769" y2="55.2916" gradientUnits="userSpaceOnUse"><stop offset="0.236106" stop-color="#DA291C"></stop><stop offset="1" stop-color="#FFCD00"></stop></linearGradient><linearGradient id="paint4_linear_1533_33521" x1="14.0821" y1="55.812" x2="15.7904" y2="56.265" gradientUnits="userSpaceOnUse"><stop offset="0.236106" stop-color="#DA291C"></stop><stop offset="1" stop-color="#FFCD00"></stop></linearGradient><linearGradient id="paint5_linear_1533_33521" x1="23.0122" y1="55.812" x2="24.7205" y2="56.265" gradientUnits="userSpaceOnUse"><stop offset="0.236106" stop-color="#DA291C"></stop><stop offset="1" stop-color="#FFCD00"></stop></linearGradient></defs></svg> 