<?xml version="1.0" encoding="UTF-8"?> <svg xmlns="http://www.w3.org/2000/svg" width="64" height="64" viewBox="0 0 64 64" fill="none"><g clip-path="url(#clip0_1373_28375)"><path d="M27.7474 10.0688H14.0918" stroke="white" stroke-miterlimit="10"></path><path d="M49.5376 10.0688H27.7471" stroke="white" stroke-miterlimit="10"></path><path d="M12.2969 29.7913C12.2969 18.8843 21.1145 10.0493 32 10.0493C42.8855 10.0493 51.7227 18.8843 51.7227 29.8109" stroke="black" stroke-miterlimit="10"></path><path d="M12.2969 29.7913C12.2969 18.8843 21.1145 10.0493 32 10.0493C42.8855 10.0493 51.7227 18.8843 51.7227 29.8109" stroke="url(#paint0_linear_1373_28375)" stroke-miterlimit="10"></path><path d="M12.0433 12.1212C13.1854 12.1212 14.1112 11.1935 14.1112 10.0492C14.1112 8.90493 13.1854 7.97729 12.0433 7.97729C10.9013 7.97729 9.97546 8.90493 9.97546 10.0492C9.97546 11.1935 10.9013 12.1212 12.0433 12.1212Z" stroke="white" stroke-miterlimit="10"></path><path d="M54.0246 10.0492C54.0246 11.1829 53.1077 12.1212 51.9568 12.1212C50.8058 12.1212 49.8889 11.2025 49.8889 10.0492C49.8889 8.89598 50.8058 7.97729 51.9568 7.97729C53.1077 7.97729 54.0246 8.89598 54.0246 10.0492Z" stroke="white" stroke-miterlimit="10"></path><path d="M54.0246 29.7913H49.9084V33.9156H54.0246V29.7913Z" stroke="black" stroke-miterlimit="10"></path><path d="M54.0246 29.7913H49.9084V33.9156H54.0246V29.7913Z" stroke="url(#paint1_linear_1373_28375)" stroke-miterlimit="10"></path><path d="M14.0917 29.7913H9.97546V33.9156H14.0917V29.7913Z" stroke="white" stroke-miterlimit="10"></path><path d="M34.8091 45.9758V33.9156L36.1162 30.495L32.7023 21.8945H31.3757L27.8838 30.495L29.2103 33.9156V45.9758" stroke="white" stroke-miterlimit="10"></path><path d="M26.8889 33.9155H37.1111" stroke="white" stroke-miterlimit="10"></path><path d="M45.9482 29.3613C45.9482 21.2886 39.1204 14.8187 30.927 15.4246C24.2358 15.9133 18.7735 21.2495 18.1102 27.9539C17.6811 32.3519 19.2807 36.3785 22.0899 39.2127C24.7625 41.9101 26.3621 45.5263 26.3621 49.3378V49.7092H37.6378V49.3574C37.6378 45.624 39.0619 41.9883 41.7345 39.3886C44.3291 36.8476 45.9482 33.3097 45.9482 29.3808V29.3613Z" stroke="white" stroke-miterlimit="10"></path><path d="M26.3622 46.269H37.6378V52.563C37.6378 54.4786 36.0967 56.0228 34.1849 56.0228H29.8151C27.9033 56.0228 26.3622 54.4786 26.3622 52.563V46.269Z" stroke="white" stroke-miterlimit="10"></path><path d="M32 29.1072V30.8468" stroke="white" stroke-miterlimit="10"></path></g><defs><linearGradient id="paint0_linear_1373_28375" x1="25.4928" y1="16.8098" x2="43.4649" y2="47.9952" gradientUnits="userSpaceOnUse"><stop offset="0.236106" stop-color="#DA291C"></stop><stop offset="1" stop-color="#FFCD00"></stop></linearGradient><linearGradient id="paint1_linear_1373_28375" x1="51.2861" y1="31.2022" x2="55.5782" y2="34.9278" gradientUnits="userSpaceOnUse"><stop offset="0.236106" stop-color="#DA291C"></stop><stop offset="1" stop-color="#FFCD00"></stop></linearGradient><clipPath id="clip0_1373_28375"><rect width="46" height="50" fill="white" transform="translate(9 7)"></rect></clipPath></defs></svg> 