<?xml version="1.0" encoding="UTF-8"?> <svg xmlns="http://www.w3.org/2000/svg" width="64" height="64" viewBox="0 0 64 64" fill="none"><g clip-path="url(#clip0_506_14164)"><path d="M49.3595 10.3266C50.34 11.2985 51.3204 12.2704 52.3008 13.2338C52.5822 13.5152 52.6333 13.8221 52.4372 14.1716C51.3119 16.1922 50.1865 18.2213 49.0697 20.2418C48.8991 20.5487 48.6519 20.6937 48.2938 20.6851C47.3901 20.6851 46.4779 20.6766 45.5742 20.6851C45.4037 20.6851 45.1905 20.7448 45.0797 20.8556C41.6013 24.317 38.1314 27.7954 34.6615 31.2653C34.6359 31.2909 34.6104 31.3335 34.5677 31.3932C34.6359 31.4784 34.7041 31.5637 34.7809 31.6404C36.1364 32.996 37.492 34.343 38.839 35.7071C39.0266 35.8947 39.1715 35.9373 39.4273 35.835C45.2076 33.6439 51.4653 37.2843 52.4458 43.3971C53.3068 48.7426 49.3851 53.8835 44.0055 54.4632C38.7793 55.0259 34.1585 51.5219 33.3145 46.3384C33.0417 44.6589 33.2378 43.0135 33.826 41.4107C33.8772 41.2657 33.8857 41.0185 33.8004 40.9332C32.3596 39.4583 30.9018 38.009 29.4865 36.5852C28.8983 37.182 28.3185 37.7532 27.7047 38.3756C27.8155 38.4864 28.0031 38.6825 28.1907 38.8701C28.6255 39.3049 29.0773 39.7397 29.5036 40.183C29.8361 40.524 29.8446 40.8821 29.5206 41.2146C28.8471 41.9051 28.1821 42.6042 27.466 43.2522C27.2955 43.4056 26.9289 43.4483 26.6816 43.3971C26.1445 43.2778 25.6245 43.0731 24.9765 42.86C25.1641 43.4397 25.3005 43.9172 25.4795 44.3775C25.6671 44.8379 25.5648 45.1875 25.2152 45.537C22.7855 47.9497 20.3727 50.388 17.943 52.8008C16.3317 54.395 14.4134 54.9492 12.2394 54.2671C10.0995 53.5936 8.82067 52.0676 8.3944 49.8595C8.31767 49.1348 8.31767 48.5806 8.38587 48.1288C8.58196 46.7903 9.23842 45.7161 10.1933 44.7782C12.5548 42.4423 14.9079 40.0892 17.2439 37.7191C17.6531 37.3014 18.0368 37.1735 18.5824 37.4122C19.0001 37.5998 19.4605 37.7021 20.0062 37.8726C19.8015 37.2502 19.6481 36.7387 19.469 36.2442C19.3241 35.852 19.4094 35.5536 19.6992 35.2723C20.296 34.6926 20.8843 34.0958 21.4725 33.5075C22.0096 32.9704 22.2995 32.9704 22.8452 33.5246C23.4078 34.0872 23.979 34.6585 24.5076 35.1956C25.1215 34.5817 26.2639 33.3796 26.2383 33.354C24.0046 31.1118 21.7539 28.8782 19.5287 26.6274C19.3241 26.4228 19.1536 26.4995 18.949 26.5592C14.4901 27.8466 9.87784 25.2804 8.63311 20.8045C8.51375 20.3612 8.4285 19.9178 8.33472 19.466C8.33472 18.8862 8.33472 18.315 8.33472 17.7353C8.45407 17.2323 8.54785 16.7293 8.68426 16.2348C8.90593 15.4505 9.46861 15.3055 10.0569 15.8853C10.8668 16.6867 11.6511 17.5051 12.4781 18.2895C12.6145 18.4259 12.8873 18.5111 13.0749 18.4855C13.9445 18.3747 14.8056 18.2042 15.6667 18.0678C15.9395 18.0252 16.0503 17.9143 16.0929 17.6415C16.2208 16.7719 16.3913 15.9108 16.5107 15.0498C16.5363 14.8622 16.451 14.5894 16.3146 14.453C15.5217 13.6175 14.6948 12.8161 13.8848 12.0061C13.3477 11.4605 13.4841 10.8893 14.2173 10.6762C14.7203 10.5312 15.2404 10.4289 15.7604 10.3096C16.3402 10.3096 16.9114 10.3096 17.4911 10.3096C17.5593 10.3351 17.619 10.3692 17.6872 10.3863C22.8452 11.1365 25.9911 15.9961 24.5503 21.0176C24.4735 21.2734 24.5503 21.4098 24.7122 21.5718C26.8862 23.7373 29.0517 25.9027 31.2172 28.0768C31.2939 28.1535 31.3792 28.2302 31.4815 28.3155C31.5497 28.2558 31.6094 28.2217 31.6605 28.1705C35.1134 24.7177 38.5662 21.2734 42.002 17.812C42.1128 17.7012 42.181 17.4881 42.1896 17.3261C42.2066 16.465 42.2151 15.5954 42.1896 14.7343C42.1725 14.2569 42.3515 13.9585 42.7693 13.7283C44.4659 12.8075 46.1454 11.8612 47.8249 10.9234C48.1745 10.7273 48.507 10.5142 48.848 10.3096C49.0185 10.3096 49.1975 10.3096 49.368 10.3096L49.3595 10.3266Z" stroke="white" stroke-miterlimit="10"></path><path d="M47.7227 44.906C47.7227 45.5369 47.7141 46.1678 47.7227 46.8072C47.7312 47.1994 47.5777 47.4636 47.2282 47.6342C45.9153 48.2821 44.6194 48.9556 43.2894 49.578C43.0592 49.6888 42.6841 49.6718 42.4454 49.5609C41.1324 48.9471 39.8451 48.2736 38.5407 47.6342C38.1911 47.4636 38.0291 47.2079 38.0377 46.8157C38.0462 45.5198 38.0462 44.2239 38.0377 42.9366C38.0377 42.5444 38.2082 42.2972 38.5492 42.1267C39.8366 41.4958 41.1239 40.8564 42.4027 40.1999C42.7267 40.0379 43.0166 40.0294 43.3405 40.1999C44.6194 40.8478 45.9067 41.4958 47.1941 42.1267C47.5607 42.3057 47.7312 42.57 47.7227 42.9792C47.7056 43.6272 47.7227 44.2751 47.7227 44.923V44.906Z" stroke="black" stroke-miterlimit="10"></path><path d="M47.7227 44.906C47.7227 45.5369 47.7141 46.1678 47.7227 46.8072C47.7312 47.1994 47.5777 47.4636 47.2282 47.6342C45.9153 48.2821 44.6194 48.9556 43.2894 49.578C43.0592 49.6888 42.6841 49.6718 42.4454 49.5609C41.1324 48.9471 39.8451 48.2736 38.5407 47.6342C38.1911 47.4636 38.0291 47.2079 38.0377 46.8157C38.0462 45.5198 38.0462 44.2239 38.0377 42.9366C38.0377 42.5444 38.2082 42.2972 38.5492 42.1267C39.8366 41.4958 41.1239 40.8564 42.4027 40.1999C42.7267 40.0379 43.0166 40.0294 43.3405 40.1999C44.6194 40.8478 45.9067 41.4958 47.1941 42.1267C47.5607 42.3057 47.7312 42.57 47.7227 42.9792C47.7056 43.6272 47.7227 44.2751 47.7227 44.923V44.906Z" stroke="url(#paint0_linear_506_14164)" stroke-miterlimit="10"></path><path d="M13.7654 50.9846C16.2293 48.5207 18.7443 46.0057 21.2764 43.4736" stroke="white" stroke-linecap="round" stroke-linejoin="round"></path><path d="M11.6255 48.9472C14.1405 46.4321 16.6555 43.9171 19.1706 41.3936" stroke="white" stroke-linecap="round" stroke-linejoin="round"></path><path d="M17.3547 19.875L18.7359 21.2561" stroke="white" stroke-linecap="round" stroke-linejoin="round"></path><path d="M27.9775 34.9395L26.1189 36.798" stroke="white" stroke-linecap="round" stroke-linejoin="round"></path></g><defs><linearGradient id="paint0_linear_506_14164" x1="41.2792" y1="43.3518" x2="51.2641" y2="52.1339" gradientUnits="userSpaceOnUse"><stop offset="0.236106" stop-color="#DA291C"></stop><stop offset="1" stop-color="#FFCD00"></stop></linearGradient><clipPath id="clip0_506_14164"><rect width="45.1" height="45.1" fill="white" transform="translate(7.8999 9.90039)"></rect></clipPath></defs></svg> 