<?xml version="1.0" encoding="UTF-8"?> <svg xmlns="http://www.w3.org/2000/svg" width="64" height="64" viewBox="0 0 64 64" fill="none"><path d="M50.9724 9V43.9339" stroke="white" stroke-linecap="round" stroke-linejoin="round"></path><path d="M12.0076 48.0267V13.0928" stroke="white" stroke-linecap="round" stroke-linejoin="round"></path><path d="M50.9725 43.9336H16.0923C13.835 43.9336 12 45.7686 12 48.0259C12 50.2831 13.8273 52.1181 16.0923 52.1181H50.9725" stroke="white" stroke-linecap="round" stroke-linejoin="round"></path><path d="M12.0078 13.0923C12.0078 10.835 13.8351 9 16.1001 9H50.9803" stroke="white" stroke-linecap="round" stroke-linejoin="round"></path><path d="M16.3916 13.3838V39.5497" stroke="white" stroke-linecap="round" stroke-linejoin="round"></path><path d="M50.9724 43.9336V52.1105" stroke="white" stroke-linecap="round" stroke-linejoin="round"></path><path d="M32.6917 13.0459V20.4166" stroke="white" stroke-linecap="round" stroke-linejoin="round"></path><path d="M29.0063 16.7314H36.377" stroke="white" stroke-linecap="round" stroke-linejoin="round"></path><path d="M28.4229 51.9575V51.1129C28.4229 47.75 24.1541 47.4583 24.1541 42.3372V33.6075L41.2371 30.3291V42.3372C41.2371 47.4659 36.9683 47.75 36.9683 51.1129V51.9575" fill="black"></path><path d="M28.4229 51.9575V51.1129C28.4229 47.75 24.1541 47.4583 24.1541 42.3372V33.6075L41.2371 30.3291V42.3372C41.2371 47.4659 36.9683 47.75 36.9683 51.1129V51.9575" stroke="black" stroke-linecap="round" stroke-linejoin="round"></path><path d="M39.5098 56.8872V51.958H25.7742V56.8872" stroke="black" stroke-linecap="round" stroke-linejoin="round"></path><path d="M39.5098 56.8872V51.958H25.7742V56.8872" stroke="black" stroke-linecap="round" stroke-linejoin="round"></path><path d="M39.5098 56.8872V51.958H25.7742V56.8872" stroke="url(#paint0_linear_506_14025)" stroke-linecap="round" stroke-linejoin="round"></path><path d="M32.6917 24.9473V39.036" stroke="black" stroke-linecap="round" stroke-linejoin="round"></path><path d="M32.6917 24.9473V39.036" stroke="url(#paint1_linear_506_14025)" stroke-linecap="round" stroke-linejoin="round"></path><path d="M36.9607 39.0364V27.4736" stroke="black" stroke-linecap="round" stroke-linejoin="round"></path><path d="M36.9607 39.0364V27.4736" stroke="url(#paint2_linear_506_14025)" stroke-linecap="round" stroke-linejoin="round"></path><path d="M28.4229 27.4736V39.0364" stroke="black" stroke-linecap="round" stroke-linejoin="round"></path><path d="M28.4229 27.4736V39.0364" stroke="url(#paint3_linear_506_14025)" stroke-linecap="round" stroke-linejoin="round"></path><path d="M36.9607 51.9575V51.1129C36.9607 47.75 41.2295 47.4583 41.2295 42.3372V30.3291" stroke="black" stroke-linecap="round" stroke-linejoin="round"></path><path d="M36.9607 51.9575V51.1129C36.9607 47.75 41.2295 47.4583 41.2295 42.3372V30.3291" stroke="url(#paint4_linear_506_14025)" stroke-linecap="round" stroke-linejoin="round"></path><path d="M28.4229 51.9573V51.1128C28.4229 47.7499 24.1541 47.4582 24.1541 42.3371V33.6074" stroke="black" stroke-linecap="round" stroke-linejoin="round"></path><path d="M28.4229 51.9573V51.1128C28.4229 47.7499 24.1541 47.4582 24.1541 42.3371V33.6074" stroke="url(#paint5_linear_506_14025)" stroke-linecap="round" stroke-linejoin="round"></path><defs><linearGradient id="paint0_linear_506_14025" x1="30.3715" y1="53.6443" x2="34.025" y2="62.4989" gradientUnits="userSpaceOnUse"><stop offset="0.236106" stop-color="#DA291C"></stop><stop offset="1" stop-color="#FFCD00"></stop></linearGradient><linearGradient id="paint1_linear_506_14025" x1="33.0264" y1="29.7671" x2="34.8478" y2="29.8795" gradientUnits="userSpaceOnUse"><stop offset="0.236106" stop-color="#DA291C"></stop><stop offset="1" stop-color="#FFCD00"></stop></linearGradient><linearGradient id="paint2_linear_506_14025" x1="37.2954" y1="31.4293" x2="39.1135" y2="31.5661" gradientUnits="userSpaceOnUse"><stop offset="0.236106" stop-color="#DA291C"></stop><stop offset="1" stop-color="#FFCD00"></stop></linearGradient><linearGradient id="paint3_linear_506_14025" x1="28.7576" y1="31.4293" x2="30.5756" y2="31.5661" gradientUnits="userSpaceOnUse"><stop offset="0.236106" stop-color="#DA291C"></stop><stop offset="1" stop-color="#FFCD00"></stop></linearGradient><linearGradient id="paint4_linear_506_14025" x1="38.3895" y1="37.7283" x2="45.9711" y2="39.0298" gradientUnits="userSpaceOnUse"><stop offset="0.236106" stop-color="#DA291C"></stop><stop offset="1" stop-color="#FFCD00"></stop></linearGradient><linearGradient id="paint5_linear_506_14025" x1="25.5828" y1="39.885" x2="33.0809" y2="41.4021" gradientUnits="userSpaceOnUse"><stop offset="0.236106" stop-color="#DA291C"></stop><stop offset="1" stop-color="#FFCD00"></stop></linearGradient></defs></svg> 