<?xml version="1.0" encoding="UTF-8"?> <svg xmlns="http://www.w3.org/2000/svg" width="64" height="64" viewBox="0 0 64 64" fill="none"><path d="M11.0559 39.1103V29.7056H31.5679" stroke="white" stroke-miterlimit="10"></path><path d="M52.0798 38.8139V29.7056H31.5679" stroke="white" stroke-miterlimit="10"></path><path d="M31.5679 38.8143V29.7059V22.4351" stroke="white" stroke-miterlimit="10"></path><path d="M13.7683 36.4707L11.0558 39.1578L8.36316 36.4707" stroke="white" stroke-miterlimit="10"></path><path d="M34.2605 36.4707L31.5678 39.1578L28.8751 36.4707" stroke="white" stroke-miterlimit="10"></path><path d="M54.7726 36.4707L52.0799 39.1578L49.3674 36.4707" stroke="white" stroke-miterlimit="10"></path><path d="M56 45.0581H45.744V55.2927H56V45.0581Z" stroke="white" stroke-miterlimit="10"></path><path d="M26.4398 50.1754C26.4398 53.0016 28.7416 55.2927 31.5678 55.2927C34.394 55.2927 36.6958 53.0016 36.6958 50.1754C36.6958 47.3492 34.394 45.0581 31.5678 45.0581C28.7416 45.0581 26.4398 47.3492 26.4398 50.1754Z" stroke="black" stroke-miterlimit="10"></path><path d="M26.4398 50.1754C26.4398 53.0016 28.7416 55.2927 31.5678 55.2927C34.394 55.2927 36.6958 53.0016 36.6958 50.1754C36.6958 47.3492 34.394 45.0581 31.5678 45.0581C28.7416 45.0581 26.4398 47.3492 26.4398 50.1754Z" stroke="url(#paint0_linear_1519_33057)" stroke-miterlimit="10"></path><path d="M41.8238 9H21.3119V19.2346H41.8238V9Z" stroke="black" stroke-miterlimit="10"></path><path d="M41.8238 9H21.3119V19.2346H41.8238V9Z" stroke="url(#paint1_linear_1519_33057)" stroke-miterlimit="10"></path><path d="M17.3718 45.0581H7.11584V55.2927H17.3718V45.0581Z" stroke="white" stroke-miterlimit="10"></path><defs><linearGradient id="paint0_linear_1519_33057" x1="29.8725" y1="48.5594" x2="40.5292" y2="57.8474" gradientUnits="userSpaceOnUse"><stop offset="0.236106" stop-color="#DA291C"></stop><stop offset="1" stop-color="#FFCD00"></stop></linearGradient><linearGradient id="paint1_linear_1519_33057" x1="28.1773" y1="12.5013" x2="37.4638" y2="28.6889" gradientUnits="userSpaceOnUse"><stop offset="0.236106" stop-color="#DA291C"></stop><stop offset="1" stop-color="#FFCD00"></stop></linearGradient></defs></svg> 