<?xml version="1.0" encoding="UTF-8"?> <svg xmlns="http://www.w3.org/2000/svg" width="64" height="64" viewBox="0 0 64 64" fill="none"><path d="M44.5738 16.6572H37.1746C35.5842 16.696 34.2896 18.0585 34.2896 19.6731C34.2896 19.7022 34.2896 19.7604 34.2896 19.8477L34.8181 26.9754C34.9053 27.9694 36.0545 28.813 37.1406 29.0506L37.8291 38.3796C37.8728 38.9663 38.377 39.4415 38.9541 39.4415H42.7991C43.3761 39.4415 43.8804 38.9663 43.9192 38.3796L44.6077 29.0458C45.6987 28.8082 46.843 27.9596 46.9302 26.9608L47.4636 19.7168C47.4636 19.7168 47.4636 19.6974 47.4636 19.6877C47.4636 18.0536 46.1641 16.696 44.564 16.6523L44.5738 16.6572Z" fill="white"></path><path d="M40.8839 15.5179C42.4065 15.5179 43.6429 14.2815 43.6429 12.7589C43.6429 11.2364 42.4065 10 40.8839 10C39.3614 10 38.125 11.2364 38.125 12.7589C38.125 14.2815 39.3614 15.5179 40.8839 15.5179Z" fill="white"></path><path d="M47.0757 19.6925L46.5423 26.9365C46.4696 27.7996 45.301 28.5511 44.3652 28.6869C44.3216 28.6918 44.2828 28.6966 44.244 28.7015L43.5313 38.3505C43.5022 38.7287 43.1821 39.039 42.8088 39.039H38.9637C38.5952 39.039 38.2703 38.7287 38.2412 38.3505L37.5285 28.7015C37.4897 28.7015 37.446 28.6918 37.4073 28.6869C36.4714 28.5511 35.3078 27.7996 35.2302 26.9414L34.7017 19.8185C34.7017 19.7604 34.7017 19.7167 34.7017 19.6973C34.7017 18.2766 35.8217 17.0984 37.1939 17.0645H44.5834C45.9653 17.0984 47.0805 18.2766 47.0805 19.6925H47.0757Z" stroke="#2E2D2C" stroke-linecap="round" stroke-linejoin="round"></path><path d="M40.8838 15.1153C39.5844 15.1153 38.5273 14.0583 38.5273 12.7588C38.5273 11.4594 39.5844 10.4023 40.8838 10.4023C42.1833 10.4023 43.2403 11.4594 43.2403 12.7588C43.2403 14.0583 42.1833 15.1153 40.8838 15.1153Z" stroke="#2E2D2C" stroke-linecap="round" stroke-linejoin="round"></path><path d="M40.8838 28.0273V38.7383" stroke="#2E2D2C" stroke-linecap="round" stroke-linejoin="round"></path><path d="M37.5285 28.7013L36.9321 20.6572" stroke="#2E2D2C" stroke-linecap="round" stroke-linejoin="round"></path><path d="M44.2441 28.7013L44.8405 20.6572" stroke="#2E2D2C" stroke-linecap="round" stroke-linejoin="round"></path><path d="M53.1104 22.4287H45.7112C44.1208 22.4675 42.8262 23.83 42.8262 25.4446C42.8262 25.4737 42.8262 25.5319 42.8262 25.6192L43.3547 32.7468C43.442 33.7408 44.5911 34.5845 45.6772 34.8221L46.3658 44.1511C46.4094 44.7378 46.9137 45.213 47.4907 45.213H51.3357C51.9127 45.213 52.417 44.7378 52.4558 44.1511L53.1443 34.8172C54.2353 34.5797 55.3796 33.7311 55.4669 32.7323L56.0002 25.4882C56.0002 25.4882 56.0002 25.4689 56.0002 25.4592C56.0002 23.8251 54.7008 22.4675 53.1007 22.4238L53.1104 22.4287Z" fill="white"></path><path d="M49.4206 21.2894C50.9431 21.2894 52.1795 20.0529 52.1795 18.5304C52.1795 17.0079 50.9431 15.7715 49.4206 15.7715C47.8981 15.7715 46.6616 17.0079 46.6616 18.5304C46.6616 20.0529 47.8981 21.2894 49.4206 21.2894Z" fill="white"></path><path d="M55.6123 25.464L55.0789 32.708C55.0062 33.5711 53.8377 34.3226 52.9018 34.4584C52.8582 34.4632 52.8194 34.4681 52.7806 34.4729L52.0679 44.1219C52.0388 44.5002 51.7187 44.8105 51.3454 44.8105H47.5003C47.1318 44.8105 46.807 44.5002 46.7779 44.1219L46.0651 34.4729C46.0263 34.4729 45.9827 34.4632 45.9439 34.4584C45.0081 34.3226 43.8444 33.5711 43.7668 32.7128L43.2383 25.59C43.2383 25.5318 43.2383 25.4882 43.2383 25.4688C43.2383 24.0481 44.3583 22.8699 45.7305 22.8359H53.12C54.5019 22.8699 55.6171 24.0481 55.6171 25.464H55.6123Z" stroke="#2E2D2C" stroke-linecap="round" stroke-linejoin="round"></path><path d="M49.4205 20.8868C48.121 20.8868 47.064 19.8298 47.064 18.5303C47.064 17.2308 48.121 16.1738 49.4205 16.1738C50.7199 16.1738 51.777 17.2308 51.777 18.5303C51.777 19.8298 50.7199 20.8868 49.4205 20.8868Z" stroke="#2E2D2C" stroke-linecap="round" stroke-linejoin="round"></path><path d="M49.4204 33.7988V44.5097" stroke="#2E2D2C" stroke-linecap="round" stroke-linejoin="round"></path><path d="M46.0651 34.4728L45.4688 26.4287" stroke="#2E2D2C" stroke-linecap="round" stroke-linejoin="round"></path><path d="M52.7808 34.4728L53.3771 26.4287" stroke="#2E2D2C" stroke-linecap="round" stroke-linejoin="round"></path><path d="M19.2842 22.4287H11.885C10.2946 22.4675 9 23.83 9 25.4446C9 25.4737 9 25.5319 9 25.6192L9.52851 32.7468C9.61579 33.7408 10.7649 34.5845 11.8511 34.8221L12.5396 44.1511C12.5832 44.7378 13.0875 45.213 13.6645 45.213H17.5096C18.0866 45.213 18.5908 44.7378 18.6296 44.1511L19.3181 34.8172C20.4091 34.5797 21.5534 33.7311 21.6407 32.7323L22.1741 25.4882C22.1741 25.4882 22.1741 25.4689 22.1741 25.4592C22.1741 23.8251 20.8746 22.4675 19.2745 22.4238L19.2842 22.4287Z" fill="white"></path><path d="M15.5944 21.2894C17.1169 21.2894 18.3533 20.0529 18.3533 18.5304C18.3533 17.0079 17.1169 15.7715 15.5944 15.7715C14.0719 15.7715 12.8354 17.0079 12.8354 18.5304C12.8354 20.0529 14.0719 21.2894 15.5944 21.2894Z" fill="white"></path><path d="M21.7861 25.464L21.2528 32.708C21.18 33.5711 20.0115 34.3226 19.0757 34.4584C19.032 34.4632 18.9932 34.4681 18.9545 34.4729L18.2417 44.1219C18.2126 44.5002 17.8926 44.8105 17.5192 44.8105H13.6742C13.3057 44.8105 12.9808 44.5002 12.9517 44.1219L12.2389 34.4729C12.2001 34.4729 12.1565 34.4632 12.1177 34.4584C11.1819 34.3226 10.0182 33.5711 9.94062 32.7128L9.41211 25.59C9.41211 25.5318 9.41211 25.4882 9.41211 25.4688C9.41211 24.0481 10.5322 22.8699 11.9044 22.8359H19.2939C20.6758 22.8699 21.791 24.0481 21.791 25.464H21.7861Z" stroke="#2E2D2C" stroke-linecap="round" stroke-linejoin="round"></path><path d="M15.5943 20.8868C14.2948 20.8868 13.2378 19.8298 13.2378 18.5303C13.2378 17.2308 14.2948 16.1738 15.5943 16.1738C16.8938 16.1738 17.9508 17.2308 17.9508 18.5303C17.9508 19.8298 16.8938 20.8868 15.5943 20.8868Z" stroke="#2E2D2C" stroke-linecap="round" stroke-linejoin="round"></path><path d="M15.5942 33.7988V44.5097" stroke="#2E2D2C" stroke-linecap="round" stroke-linejoin="round"></path><path d="M12.239 34.4728L11.6426 26.4287" stroke="#2E2D2C" stroke-linecap="round" stroke-linejoin="round"></path><path d="M18.9546 34.4728L19.551 26.4287" stroke="#2E2D2C" stroke-linecap="round" stroke-linejoin="round"></path><path d="M44.2744 27.2177L44.2748 27.2164C44.7252 27.2637 45.1456 27.6718 45.1637 28.212L44.6468 35.2329C44.6271 35.2554 44.5972 35.2861 44.5542 35.3225C44.375 35.4741 44.115 35.6015 43.8828 35.6521L42.4237 35.9699L42.3138 37.4592L41.6836 46.002H39.466L38.8359 37.464L38.7261 35.9762L37.2687 35.6574C37.0357 35.6064 36.7734 35.4784 36.5925 35.3264C36.5511 35.2915 36.5219 35.2621 36.5023 35.2401L35.9902 28.3342V28.3341V28.3337V28.3333V28.3329V28.3325V28.3321V28.3317V28.3313V28.3309V28.3305V28.3301V28.3297V28.3293V28.3289V28.3285V28.3281V28.3278V28.3274V28.327V28.3266V28.3262V28.3258V28.3254V28.325V28.3246V28.3242V28.3239V28.3235V28.3231V28.3227V28.3223V28.3219V28.3216V28.3212V28.3208V28.3204V28.32V28.3197V28.3193V28.3189V28.3185V28.3181V28.3178V28.3174V28.317V28.3166V28.3163V28.3159V28.3155V28.3152V28.3148V28.3144V28.314V28.3137V28.3133V28.3129V28.3126V28.3122V28.3118V28.3115V28.3111V28.3108V28.3104V28.31V28.3097V28.3093V28.3089V28.3086V28.3082V28.3079V28.3075V28.3072V28.3068V28.3064V28.3061V28.3057V28.3054V28.305V28.3047V28.3043V28.304V28.3036V28.3033V28.3029V28.3026V28.3022V28.3019V28.3015V28.3012V28.3009V28.3005V28.3002V28.2998V28.2995V28.2991V28.2988V28.2985V28.2981V28.2978V28.2974V28.2971V28.2968V28.2964V28.2961V28.2958V28.2954V28.2951V28.2948V28.2944V28.2941V28.2938V28.2934V28.2931V28.2928V28.2925V28.2921V28.2918V28.2915V28.2911V28.2908V28.2905V28.2902V28.2899V28.2895V28.2892V28.2889V28.2886V28.2883V28.2879V28.2876V28.2873V28.287V28.2867V28.2864V28.286V28.2857V28.2854V28.2851V28.2848V28.2845V28.2842V28.2839V28.2835V28.2832V28.2829V28.2826V28.2823V28.282V28.2817V28.2814V28.2811V28.2808V28.2805V28.2802V28.2799V28.2796V28.2793V28.279V28.2787V28.2784V28.2781V28.2778V28.2775V28.2772V28.2769V28.2766V28.2763V28.276V28.2757V28.2754V28.2752V28.2749V28.2746V28.2743V28.274V28.2737V28.2734V28.2731V28.2729V28.2726V28.2723V28.272V28.2717V28.2714V28.2712V28.2709V28.2706V28.2703V28.27V28.2698V28.2695V28.2692V28.2689V28.2687V28.2684V28.2681V28.2678V28.2676V28.2673V28.267V28.2667V28.2665V28.2662V28.2659V28.2657V28.2654V28.2651V28.2649V28.2646V28.2643V28.2641V28.2638V28.2635V28.2633V28.263V28.2628V28.2625V28.2622V28.262V28.2617V28.2615V28.2612V28.261V28.2607V28.2604V28.2602V28.2599V28.2597V28.2594V28.2592V28.2589V28.2587V28.2584V28.2582V28.2579V28.2577V28.2574V28.2572V28.257V28.2567V28.2565V28.2562V28.256V28.2557V28.2555V28.2553V28.255V28.2548V28.2545V28.2543V28.2541V28.2538V28.2536V28.2534V28.2531V28.2529V28.2526V28.2524V28.2522V28.252V28.2517V28.2515V28.2513V28.251V28.2508V28.2506V28.2504V28.2501V28.2499V28.2497V28.2495V28.2492V28.249V28.2488V28.2486V28.2483V28.2481V28.2479V28.2477V28.2475V28.2472V28.247V28.2468V28.2466V28.2464V28.2462V28.246V28.2457V28.2455V28.2453V28.2451V28.2449V28.2447V28.2445V28.2443V28.2441V28.2439V28.2437V28.2434V28.2432V28.243V28.2428V28.2426V28.2424V28.2422V28.242V28.2418V28.2416V28.2414V28.2412V28.241V28.2408V28.2406V28.2404V28.2403V28.2401V28.2399V28.2397V28.2395V28.2393V28.2391V28.2389V28.2387V28.2385V28.2383V28.2382V28.238V28.2378V28.2376V28.2374V28.2372V28.237V28.2369V28.2367V28.2365V28.2363V28.2361V28.236V28.2358V28.2356V28.2354V28.2352V28.2351V28.2349V28.2347V28.2345V28.2344V28.2342V28.234V28.2339V28.2337C35.9902 27.6702 36.4485 27.239 36.9072 27.2177H44.2744Z" fill="white" stroke="white" stroke-width="4"></path><path d="M41.3436 21.3195C41.3436 21.7374 41.0026 22.0784 40.5846 22.0784C40.1667 22.0784 39.8257 21.7374 39.8257 21.3195C39.8257 20.9015 40.1667 20.5605 40.5846 20.5605C41.0026 20.5605 41.3436 20.9015 41.3436 21.3195Z" fill="white" stroke="white" stroke-width="4"></path><path d="M28.3545 27.2177L28.3548 27.2164C28.8053 27.2637 29.2257 27.6718 29.2438 28.212L28.7268 35.2329C28.7072 35.2554 28.6773 35.2861 28.6342 35.3225C28.4551 35.4741 28.1951 35.6015 27.9629 35.6521L26.5037 35.9699L26.3939 37.4592L25.7637 46.002H23.5461L22.916 37.464L22.8062 35.9762L21.3488 35.6574C21.1158 35.6064 20.8534 35.4784 20.6726 35.3264C20.6312 35.2915 20.602 35.2621 20.5824 35.2401L20.0703 28.3342V28.3341V28.3337V28.3333V28.3329V28.3325V28.3321V28.3317V28.3313V28.3309V28.3305V28.3301V28.3297V28.3293V28.3289V28.3285V28.3281V28.3278V28.3274V28.327V28.3266V28.3262V28.3258V28.3254V28.325V28.3246V28.3242V28.3239V28.3235V28.3231V28.3227V28.3223V28.3219V28.3216V28.3212V28.3208V28.3204V28.32V28.3197V28.3193V28.3189V28.3185V28.3181V28.3178V28.3174V28.317V28.3166V28.3163V28.3159V28.3155V28.3152V28.3148V28.3144V28.314V28.3137V28.3133V28.3129V28.3126V28.3122V28.3118V28.3115V28.3111V28.3108V28.3104V28.31V28.3097V28.3093V28.3089V28.3086V28.3082V28.3079V28.3075V28.3072V28.3068V28.3064V28.3061V28.3057V28.3054V28.305V28.3047V28.3043V28.304V28.3036V28.3033V28.3029V28.3026V28.3022V28.3019V28.3015V28.3012V28.3009V28.3005V28.3002V28.2998V28.2995V28.2991V28.2988V28.2985V28.2981V28.2978V28.2974V28.2971V28.2968V28.2964V28.2961V28.2958V28.2954V28.2951V28.2948V28.2944V28.2941V28.2938V28.2934V28.2931V28.2928V28.2925V28.2921V28.2918V28.2915V28.2911V28.2908V28.2905V28.2902V28.2899V28.2895V28.2892V28.2889V28.2886V28.2883V28.2879V28.2876V28.2873V28.287V28.2867V28.2864V28.286V28.2857V28.2854V28.2851V28.2848V28.2845V28.2842V28.2839V28.2835V28.2832V28.2829V28.2826V28.2823V28.282V28.2817V28.2814V28.2811V28.2808V28.2805V28.2802V28.2799V28.2796V28.2793V28.279V28.2787V28.2784V28.2781V28.2778V28.2775V28.2772V28.2769V28.2766V28.2763V28.276V28.2757V28.2754V28.2752V28.2749V28.2746V28.2743V28.274V28.2737V28.2734V28.2731V28.2729V28.2726V28.2723V28.272V28.2717V28.2714V28.2712V28.2709V28.2706V28.2703V28.27V28.2698V28.2695V28.2692V28.2689V28.2687V28.2684V28.2681V28.2678V28.2676V28.2673V28.267V28.2667V28.2665V28.2662V28.2659V28.2657V28.2654V28.2651V28.2649V28.2646V28.2643V28.2641V28.2638V28.2635V28.2633V28.263V28.2628V28.2625V28.2622V28.262V28.2617V28.2615V28.2612V28.261V28.2607V28.2604V28.2602V28.2599V28.2597V28.2594V28.2592V28.2589V28.2587V28.2584V28.2582V28.2579V28.2577V28.2574V28.2572V28.257V28.2567V28.2565V28.2562V28.256V28.2557V28.2555V28.2553V28.255V28.2548V28.2545V28.2543V28.2541V28.2538V28.2536V28.2534V28.2531V28.2529V28.2526V28.2524V28.2522V28.252V28.2517V28.2515V28.2513V28.251V28.2508V28.2506V28.2504V28.2501V28.2499V28.2497V28.2495V28.2492V28.249V28.2488V28.2486V28.2483V28.2481V28.2479V28.2477V28.2475V28.2472V28.247V28.2468V28.2466V28.2464V28.2462V28.246V28.2457V28.2455V28.2453V28.2451V28.2449V28.2447V28.2445V28.2443V28.2441V28.2439V28.2437V28.2434V28.2432V28.243V28.2428V28.2426V28.2424V28.2422V28.242V28.2418V28.2416V28.2414V28.2412V28.241V28.2408V28.2406V28.2404V28.2403V28.2401V28.2399V28.2397V28.2395V28.2393V28.2391V28.2389V28.2387V28.2385V28.2383V28.2382V28.238V28.2378V28.2376V28.2374V28.2372V28.237V28.2369V28.2367V28.2365V28.2363V28.2361V28.236V28.2358V28.2356V28.2354V28.2352V28.2351V28.2349V28.2347V28.2345V28.2344V28.2342V28.234V28.2339V28.2337C20.0703 27.6702 20.5286 27.239 20.9873 27.2177H28.3545Z" fill="white" stroke="white" stroke-width="4"></path><path d="M25.4236 21.3195C25.4236 21.7374 25.0826 22.0784 24.6647 22.0784C24.2468 22.0784 23.9058 21.7374 23.9058 21.3195C23.9058 20.9015 24.2468 20.5605 24.6647 20.5605C25.0826 20.5605 25.4236 20.9015 25.4236 21.3195Z" fill="white" stroke="white" stroke-width="4"></path><path d="M18.8999 19.6925L19.4332 26.9365C19.506 27.7996 20.6745 28.5511 21.6103 28.6869C21.654 28.6918 21.6928 28.6966 21.7315 28.7015L22.4443 38.3505C22.4734 38.7287 22.7934 39.039 23.1668 39.039H27.0118C27.3803 39.039 27.7052 38.7287 27.7343 38.3505L28.4471 28.7015C28.4859 28.7015 28.5295 28.6918 28.5683 28.6869C29.5041 28.5511 30.6678 27.7996 30.7454 26.9414L31.2739 19.8185C31.2739 19.7604 31.2739 19.7167 31.2739 19.6973C31.2739 18.2766 30.1538 17.0984 28.7816 17.0645H21.3921C20.0102 17.0984 18.895 18.2766 18.895 19.6925H18.8999Z" stroke="#2E2D2C" stroke-linecap="round" stroke-linejoin="round"></path><path d="M25.087 15.1153C26.3864 15.1153 27.4435 14.0583 27.4435 12.7588C27.4435 11.4594 26.3864 10.4023 25.087 10.4023C23.7875 10.4023 22.7305 11.4594 22.7305 12.7588C22.7305 14.0583 23.7875 15.1153 25.087 15.1153Z" stroke="#2E2D2C" stroke-linecap="round" stroke-linejoin="round"></path><path d="M25.0918 28.0273V38.7383" stroke="#2E2D2C" stroke-linecap="round" stroke-linejoin="round"></path><path d="M28.4473 28.7013L29.0437 20.6572" stroke="#2E2D2C" stroke-linecap="round" stroke-linejoin="round"></path><path d="M21.7317 28.7013L21.1353 20.6572" stroke="#2E2D2C" stroke-linecap="round" stroke-linejoin="round"></path><path d="M18.1932 28.2522C18.1932 28.2522 18.1932 28.2715 18.1932 28.2812L18.7266 35.5253C18.8139 36.529 19.963 37.3775 21.0491 37.6102L21.7377 46.9441C21.7813 47.5308 22.2856 48.006 22.8577 48.006H26.7028C27.2798 48.006 27.7841 47.5308 27.8228 46.9441L28.5114 37.6151C29.5975 37.3775 30.7466 36.5338 30.8339 35.5398L31.3624 28.4122C31.3624 28.3249 31.3624 28.2716 31.3624 28.2376C31.3624 26.623 30.0678 25.2605 28.4774 25.2217H21.0782C19.4733 25.2605 18.1738 26.623 18.1738 28.257L18.1932 28.2522Z" fill="white"></path><path d="M27.5467 21.3185C27.5467 19.796 26.3103 18.5596 24.7878 18.5596C23.2652 18.5596 22.0288 19.796 22.0288 21.3185C22.0288 22.841 23.2652 24.0775 24.7878 24.0775C26.3103 24.0775 27.5467 22.841 27.5467 21.3185Z" fill="white"></path><path d="M18.6006 28.252L19.1339 35.4961C19.2067 36.3592 20.3752 37.1107 21.311 37.2465C21.3546 37.2513 21.3934 37.2562 21.4322 37.261L22.145 46.91C22.1741 47.2882 22.4941 47.5986 22.8675 47.5986H26.7125C27.081 47.5986 27.4059 47.2882 27.435 46.91L28.1478 37.261C28.1865 37.261 28.2302 37.2513 28.269 37.2465C29.2048 37.1107 30.3685 36.3592 30.4461 35.5009L30.9746 28.3781C30.9746 28.3199 30.9746 28.2763 30.9746 28.2569C30.9746 26.8362 29.8545 25.658 28.4823 25.624H21.0928C19.7109 25.658 18.5957 26.8362 18.5957 28.252H18.6006Z" stroke="#2E2D2C" stroke-linecap="round" stroke-linejoin="round"></path><path d="M24.7876 23.6749C26.0871 23.6749 27.1441 22.6179 27.1441 21.3184C27.1441 20.0189 26.0871 18.9619 24.7876 18.9619C23.4882 18.9619 22.4312 20.0189 22.4312 21.3184C22.4312 22.6179 23.4882 23.6749 24.7876 23.6749Z" stroke="#2E2D2C" stroke-linecap="round" stroke-linejoin="round"></path><path d="M24.7925 36.5869V47.2978" stroke="#2E2D2C" stroke-linecap="round" stroke-linejoin="round"></path><path d="M28.1479 37.2609L28.7443 29.2168" stroke="#2E2D2C" stroke-linecap="round" stroke-linejoin="round"></path><path d="M21.4323 37.2609L20.8359 29.2168" stroke="#2E2D2C" stroke-linecap="round" stroke-linejoin="round"></path><path d="M44.2744 25.2177H36.8752C35.2849 25.2565 33.9902 26.619 33.9902 28.2337C33.9902 28.2628 33.9902 28.321 33.9902 28.4082L34.5187 35.5359C34.606 36.5299 35.7552 37.3736 36.8413 37.6112L37.5298 46.9402C37.5735 47.5269 38.0777 48.002 38.6547 48.002H42.4998C43.0768 48.002 43.5811 47.5269 43.6199 46.9402L44.3084 37.6063C45.3994 37.3687 46.5436 36.5202 46.6309 35.5213L47.1643 28.2773C47.1643 28.2773 47.1643 28.2579 47.1643 28.2482C47.1643 26.6142 45.8648 25.2565 44.2647 25.2129L44.2744 25.2177Z" fill="white"></path><path d="M40.5846 24.0784C42.1071 24.0784 43.3436 22.842 43.3436 21.3195C43.3436 19.797 42.1071 18.5605 40.5846 18.5605C39.0621 18.5605 37.8257 19.797 37.8257 21.3195C37.8257 22.842 39.0621 24.0784 40.5846 24.0784Z" fill="white"></path><path d="M46.7764 28.253L46.243 35.4971C46.1703 36.3601 45.0017 37.1117 44.0659 37.2474C44.0223 37.2523 43.9835 37.2572 43.9447 37.262L43.2319 46.911C43.2028 47.2892 42.8828 47.5996 42.5094 47.5996H38.6644C38.2959 47.5996 37.971 47.2892 37.9419 46.911L37.2292 37.262C37.1904 37.262 37.1467 37.2523 37.1079 37.2474C36.1721 37.1117 35.0084 36.3601 34.9309 35.5019L34.4023 28.3791C34.4023 28.3209 34.4023 28.2773 34.4023 28.2579C34.4023 26.8372 35.5224 25.6589 36.8946 25.625H44.2841C45.666 25.6589 46.7812 26.8372 46.7812 28.253H46.7764Z" stroke="#2E2D2C" stroke-linecap="round" stroke-linejoin="round"></path><path d="M40.5845 23.6759C39.2851 23.6759 38.228 22.6188 38.228 21.3194C38.228 20.0199 39.2851 18.9629 40.5845 18.9629C41.884 18.9629 42.941 20.0199 42.941 21.3194C42.941 22.6188 41.884 23.6759 40.5845 23.6759Z" stroke="#2E2D2C" stroke-linecap="round" stroke-linejoin="round"></path><path d="M40.5845 36.5879V47.2988" stroke="#2E2D2C" stroke-linecap="round" stroke-linejoin="round"></path><path d="M37.2292 37.2619L36.6328 29.2178" stroke="#2E2D2C" stroke-linecap="round" stroke-linejoin="round"></path><path d="M43.9448 37.2619L44.5412 29.2178" stroke="#2E2D2C" stroke-linecap="round" stroke-linejoin="round"></path><path d="M30.7662 52.2928C30.0049 52.2928 29.3358 51.6625 29.2824 50.8915L28.6133 41.8195C27.5078 41.4898 26.3732 40.6122 26.2713 39.4921L25.738 32.3596C25.7331 32.2432 25.738 32.1802 25.738 32.1414C25.738 30.3377 27.1926 28.82 28.977 28.7764H36.3859C38.1896 28.82 39.6491 30.3425 39.6491 32.1753V32.2384L39.1157 39.4727C39.0187 40.6073 37.8793 41.4898 36.7737 41.8195L36.1046 50.8915C36.0513 51.6625 35.3822 52.2928 34.6209 52.2928H30.7758H30.7662Z" fill="white"></path><path d="M36.3808 29.1404C37.9857 29.1792 39.2852 30.5417 39.2852 32.1757C39.2852 32.1854 39.2852 32.1951 39.2852 32.2048L38.7518 39.4489C38.6645 40.4525 37.5154 41.3011 36.4292 41.5338L35.7407 50.8677C35.6971 51.4544 35.1928 51.9295 34.6207 51.9295H30.7756C30.1986 51.9295 29.6943 51.4544 29.6507 50.8677L28.9622 41.5387C27.8761 41.3011 26.7269 40.4574 26.6396 39.4634L26.1111 32.3357C26.1111 32.2484 26.1111 32.1951 26.1111 32.1612C26.1111 30.5465 27.4057 29.184 28.9961 29.1453H36.3953M36.405 28.4179H28.9961C27.0033 28.4664 25.3935 30.1392 25.3838 32.1466C25.3838 32.1903 25.3838 32.2678 25.3838 32.3745L25.9172 39.5167C26.0238 40.7241 27.1342 41.6744 28.2785 42.0914L28.9331 50.921C29.0058 51.8956 29.8156 52.6569 30.7805 52.6569H34.6255C35.5759 52.6569 36.405 51.8762 36.4729 50.921L37.1275 42.0914C38.2766 41.6744 39.3821 40.7192 39.4888 39.5119L40.0222 32.2581C40.0222 32.2581 40.0222 32.2097 40.0222 32.1757C40.0222 30.1489 38.4027 28.4664 36.4099 28.4131H36.4002L36.405 28.4179Z" fill="white"></path><path d="M32.6859 28.5338C30.8724 28.5338 29.3936 27.0598 29.3936 25.2415C29.3936 23.4232 30.8724 21.9492 32.6859 21.9492C34.4993 21.9492 35.9782 23.4232 35.9782 25.2415C35.9782 27.0598 34.4993 28.5338 32.6859 28.5338Z" fill="white"></path><path d="M32.686 22.4827C34.2085 22.4827 35.445 23.7192 35.445 25.2417C35.445 26.7642 34.2085 28.0006 32.686 28.0006C31.1635 28.0006 29.9271 26.7642 29.9271 25.2417C29.9271 23.7192 31.1635 22.4827 32.686 22.4827ZM32.686 21.416C30.5768 21.416 28.8604 23.1325 28.8604 25.2417C28.8604 27.3509 30.5768 29.0673 32.686 29.0673C34.7952 29.0673 36.5117 27.3509 36.5117 25.2417C36.5117 23.1325 34.7952 21.416 32.686 21.416Z" fill="white"></path><path d="M38.8779 32.1749L38.3446 39.419C38.2718 40.282 37.1033 41.0336 36.1675 41.1694C36.1238 41.1742 36.085 41.179 36.0463 41.1839L35.3335 50.8329C35.3044 51.2111 34.9844 51.5214 34.611 51.5214H30.766C30.3975 51.5214 30.0726 51.2111 30.0435 50.8329L29.3307 41.1839C29.2919 41.1839 29.2483 41.1742 29.2095 41.1694C28.2737 41.0287 27.11 40.282 27.0324 39.4238L26.5039 32.301C26.5039 32.2428 26.5039 32.1991 26.5039 32.1797C26.5039 30.7591 27.624 29.5808 28.9962 29.5469H36.3857C37.7676 29.5808 38.8828 30.7591 38.8828 32.1749H38.8779Z" stroke="#2E2D2C" stroke-linecap="round" stroke-linejoin="round"></path><path d="M32.6861 27.5978C31.3866 27.5978 30.3296 26.5407 30.3296 25.2413C30.3296 23.9418 31.3866 22.8848 32.6861 22.8848C33.9855 22.8848 35.0426 23.9418 35.0426 25.2413C35.0426 26.5407 33.9855 27.5978 32.6861 27.5978Z" stroke="#2E2D2C" stroke-linecap="round" stroke-linejoin="round"></path><path d="M32.686 40.5049V51.2206" stroke="#2E2D2C" stroke-linecap="round" stroke-linejoin="round"></path><path d="M29.3308 41.1837L28.7344 33.1348" stroke="#2E2D2C" stroke-linecap="round" stroke-linejoin="round"></path><path d="M36.0464 41.1837L36.6428 33.1348" stroke="#2E2D2C" stroke-linecap="round" stroke-linejoin="round"></path><path d="M38.8779 32.1749L38.3446 39.419C38.2718 40.282 37.1033 41.0336 36.1675 41.1694C36.1238 41.1742 36.085 41.179 36.0463 41.1839L35.3335 50.8329C35.3044 51.2111 34.9844 51.5214 34.611 51.5214H30.766C30.3975 51.5214 30.0726 51.2111 30.0435 50.8329L29.3307 41.1839C29.2919 41.1839 29.2483 41.1742 29.2095 41.1694C28.2737 41.0287 27.11 40.282 27.0324 39.4238L26.5039 32.301C26.5039 32.2428 26.5039 32.1991 26.5039 32.1797C26.5039 30.7591 27.624 29.5808 28.9962 29.5469H36.3857C37.7676 29.5808 38.8828 30.7591 38.8828 32.1749H38.8779Z" stroke="black" stroke-linecap="round" stroke-linejoin="round"></path><path d="M38.8779 32.1749L38.3446 39.419C38.2718 40.282 37.1033 41.0336 36.1675 41.1694C36.1238 41.1742 36.085 41.179 36.0463 41.1839L35.3335 50.8329C35.3044 51.2111 34.9844 51.5214 34.611 51.5214H30.766C30.3975 51.5214 30.0726 51.2111 30.0435 50.8329L29.3307 41.1839C29.2919 41.1839 29.2483 41.1742 29.2095 41.1694C28.2737 41.0287 27.11 40.282 27.0324 39.4238L26.5039 32.301C26.5039 32.2428 26.5039 32.1991 26.5039 32.1797C26.5039 30.7591 27.624 29.5808 28.9962 29.5469H36.3857C37.7676 29.5808 38.8828 30.7591 38.8828 32.1749H38.8779Z" stroke="url(#paint0_linear_497_11783)" stroke-linecap="round" stroke-linejoin="round"></path><path d="M32.6861 27.5978C31.3866 27.5978 30.3296 26.5407 30.3296 25.2413C30.3296 23.9418 31.3866 22.8848 32.6861 22.8848C33.9855 22.8848 35.0426 23.9418 35.0426 25.2413C35.0426 26.5407 33.9855 27.5978 32.6861 27.5978Z" stroke="black" stroke-linecap="round" stroke-linejoin="round"></path><path d="M32.6861 27.5978C31.3866 27.5978 30.3296 26.5407 30.3296 25.2413C30.3296 23.9418 31.3866 22.8848 32.6861 22.8848C33.9855 22.8848 35.0426 23.9418 35.0426 25.2413C35.0426 26.5407 33.9855 27.5978 32.6861 27.5978Z" stroke="url(#paint1_linear_497_11783)" stroke-linecap="round" stroke-linejoin="round"></path><path d="M32.686 40.5049V51.2206" stroke="black" stroke-linecap="round" stroke-linejoin="round"></path><path d="M32.686 40.5049V51.2206" stroke="url(#paint2_linear_497_11783)" stroke-linecap="round" stroke-linejoin="round"></path><path d="M29.3308 41.1837L28.7344 33.1348" stroke="black" stroke-linecap="round" stroke-linejoin="round"></path><path d="M29.3308 41.1837L28.7344 33.1348" stroke="url(#paint3_linear_497_11783)" stroke-linecap="round" stroke-linejoin="round"></path><path d="M36.0464 41.1837L36.6428 33.1348" stroke="black" stroke-linecap="round" stroke-linejoin="round"></path><path d="M36.0464 41.1837L36.6428 33.1348" stroke="url(#paint4_linear_497_11783)" stroke-linecap="round" stroke-linejoin="round"></path><defs><linearGradient id="paint0_linear_497_11783" x1="30.6471" y1="37.0645" x2="48.899" y2="46.007" gradientUnits="userSpaceOnUse"><stop offset="0.236106" stop-color="#DA291C"></stop><stop offset="1" stop-color="#FFCD00"></stop></linearGradient><linearGradient id="paint1_linear_497_11783" x1="31.907" y1="24.4971" x2="36.813" y2="28.764" gradientUnits="userSpaceOnUse"><stop offset="0.236106" stop-color="#DA291C"></stop><stop offset="1" stop-color="#FFCD00"></stop></linearGradient><linearGradient id="paint2_linear_497_11783" x1="33.0207" y1="44.1708" x2="34.8371" y2="44.3182" gradientUnits="userSpaceOnUse"><stop offset="0.236106" stop-color="#DA291C"></stop><stop offset="1" stop-color="#FFCD00"></stop></linearGradient><linearGradient id="paint3_linear_497_11783" x1="28.934" y1="35.8883" x2="30.0199" y2="35.9583" gradientUnits="userSpaceOnUse"><stop offset="0.236106" stop-color="#DA291C"></stop><stop offset="1" stop-color="#FFCD00"></stop></linearGradient><linearGradient id="paint4_linear_497_11783" x1="36.246" y1="35.8883" x2="37.3319" y2="35.9583" gradientUnits="userSpaceOnUse"><stop offset="0.236106" stop-color="#DA291C"></stop><stop offset="1" stop-color="#FFCD00"></stop></linearGradient></defs></svg> 