<?xml version="1.0" encoding="UTF-8"?> <svg xmlns="http://www.w3.org/2000/svg" xmlns:xlink="http://www.w3.org/1999/xlink" version="1.1" id="bdb56329-4717-4410-aa13-4505ecaa4e46" x="0px" y="0px" viewBox="0 0 64 64" style="enable-background:new 0 0 64 64;" xml:space="preserve"> <style type="text/css"> .st0{fill:#50E6FF;} .st1{fill:#FFFFFF;} .st2{fill:url(#SVGID_1_);} .st3{fill:#53B1E0;} .st4{fill:#9CEBFF;} .st5{fill:url(#SVGID_00000074399571854200940310000002625798954018619031_);} </style> <g> <polygon class="st0" points="5.5,35.9 31.8,53 58.5,35.9 61.8,39.8 31.8,59.2 2.2,39.8 "></polygon> <polygon class="st1" points="7.5,33.8 31.8,4.8 56.5,33.8 31.8,49.4 "></polygon> <polygon class="st0" points="31.8,4.8 31.8,49.4 7.5,33.8 "></polygon> <linearGradient id="SVGID_1_" gradientUnits="userSpaceOnUse" x1="46.1078" y1="20.6797" x2="30.7564" y2="49.7579" gradientTransform="matrix(1 0 0 -1 0 66)"> <stop offset="0" style="stop-color:#1988D9"></stop> <stop offset="0.9" style="stop-color:#54AEF0"></stop> </linearGradient> <polygon class="st2" points="31.8,4.8 31.8,49.4 56.5,33.8 "></polygon> <polygon class="st3" points="31.8,27.9 56.5,33.8 31.8,49.4 "></polygon> <polygon class="st4" points="31.8,49.4 7.5,33.8 31.8,27.9 "></polygon> <linearGradient id="SVGID_00000026852106290537476170000007881461980247348631_" gradientUnits="userSpaceOnUse" x1="39.4986" y1="29.129" x2="50.1086" y2="10.8267" gradientTransform="matrix(1 0 0 -1 0 66)"> <stop offset="0.1" style="stop-color:#54AEF0"></stop> <stop offset="0.29" style="stop-color:#4FABEE"></stop> <stop offset="0.51" style="stop-color:#41A2E9"></stop> <stop offset="0.74" style="stop-color:#2A93E0"></stop> <stop offset="0.88" style="stop-color:#1988D9"></stop> </linearGradient> <polygon style="fill:url(#SVGID_00000026852106290537476170000007881461980247348631_);" points="31.8,59.2 61.8,39.8 58.5,35.9 31.8,53 "></polygon> </g> </svg> 