<?xml version="1.0" encoding="UTF-8"?> <svg xmlns="http://www.w3.org/2000/svg" width="101" height="91" viewBox="0 0 101 91" fill="none"><mask id="path-1-inside-1_160_8276" fill="white"><path d="M67.9828 30.3656H53.4168V24.4918H58.4093C58.5693 24.4965 58.7286 24.4664 58.8776 24.4032C59.0267 24.34 59.1624 24.2451 59.2767 24.1241C59.391 24.003 59.4815 23.8584 59.5429 23.6987C59.6044 23.5391 59.6353 23.3677 59.6341 23.1948V16.2837C60.3051 16.0525 60.9177 15.6571 61.424 15.1284C62.0191 14.4831 62.4238 13.662 62.587 12.7686C62.7503 11.8752 62.6647 10.9496 62.3411 10.1087C62.0176 9.26781 61.4705 8.54925 60.769 8.04375C60.0675 7.53825 59.2431 7.26847 58.3997 7.26847C57.5563 7.26847 56.7319 7.53825 56.0304 8.04375C55.3289 8.54925 54.7818 9.26781 54.4583 10.1087C54.1347 10.9496 54.0491 11.8752 54.2124 12.7686C54.3756 13.662 54.7803 14.4831 55.3754 15.1284C55.8752 15.6565 56.4818 16.052 57.1473 16.2837V21.8066H52.2299C51.8898 21.8145 51.5656 21.9629 51.3237 22.2211C51.0819 22.4793 50.941 22.8278 50.9298 23.1948V30.3656H47.9766V15.5441C48.6492 15.3249 49.261 14.9292 49.7574 14.3925C50.4201 13.6782 50.8475 12.7489 50.9743 11.7472C51.101 10.7454 50.92 9.72647 50.459 8.84643C49.998 7.9664 49.2825 7.27386 48.4221 6.87495C47.5616 6.47604 46.6038 6.39277 45.6953 6.63791C44.7869 6.88305 43.9779 7.44306 43.3925 8.23213C42.807 9.0212 42.4774 9.99577 42.454 11.0065C42.4307 12.0172 42.715 13.0083 43.2633 13.8279C43.8116 14.6475 44.5937 15.2504 45.4897 15.5441V30.3656H42.5364V23.1948C42.5253 22.8278 42.3843 22.4793 42.1425 22.2211C41.9007 21.9629 41.5764 21.8145 41.2364 21.8066H36.3191V16.2837C36.9847 16.052 37.5913 15.6565 38.0911 15.1284C38.6923 14.482 39.1023 13.6575 39.2691 12.7594C39.4359 11.8612 39.3521 10.9298 39.0283 10.0831C38.7045 9.23637 38.1552 8.51251 37.45 8.00317C36.7448 7.49383 35.9155 7.22194 35.067 7.22194C34.2186 7.22194 33.3893 7.49383 32.6841 8.00317C31.9789 8.51251 31.4296 9.23637 31.1058 10.0831C30.7819 10.9298 30.6981 11.8612 30.865 12.7594C31.0318 13.6575 31.4418 14.482 32.043 15.1284C32.5492 15.6569 33.1614 16.0523 33.8322 16.2837V23.1948C33.8309 23.3677 33.8619 23.5391 33.9233 23.6987C33.9847 23.8584 34.0753 24.003 34.1896 24.1241C34.3039 24.2451 34.4396 24.34 34.5887 24.4032C34.7377 24.4664 34.897 24.4965 35.057 24.4918H40.0495V30.3656H25.3627C25.2061 30.3608 25.0504 30.391 24.9052 30.4543C24.76 30.5176 24.6285 30.6125 24.5189 30.7333C24.4093 30.854 24.324 30.9979 24.2683 31.1559C24.2126 31.3139 24.1878 31.4826 24.1954 31.6515V38.5373L18.1262 54.549C17.9459 55.0137 17.8747 55.5194 17.9191 56.0209C17.9634 56.5225 18.1219 57.0045 18.3805 57.424C18.639 57.8435 18.9895 58.1874 19.4009 58.4253C19.8123 58.6632 20.2717 58.7877 20.7384 58.7875H20.7674L24.4386 58.7416L26.1997 67.9036C26.3348 68.5909 26.6824 69.2082 27.1855 69.6539C27.6886 70.0997 28.3172 70.3473 28.9679 70.3561L36.7792 70.4233L37.1151 75.7809C37.1368 76.1192 37.2772 76.4358 37.5076 76.6661C37.7381 76.8965 38.0413 77.0233 38.3553 77.0206H64.3415C64.5042 77.022 64.6655 76.9887 64.8162 76.9225C64.9669 76.8564 65.104 76.7587 65.2196 76.6351C65.3351 76.5115 65.4269 76.3644 65.4897 76.2023C65.5524 76.0403 65.5848 75.8664 65.585 75.6908C65.585 75.5476 65.5878 61.3479 65.8271 58.7639C65.8287 58.7453 65.8301 58.7303 65.8312 58.7114C65.9748 56.043 66.8211 52.757 67.7171 49.276C69.3705 42.8517 71.0802 36.2394 69.131 31.1648C69.0354 30.923 68.8749 30.7177 68.6703 30.5753C68.4657 30.4329 68.2262 30.3598 67.9828 30.3656ZM57.1436 13.2296C56.8508 12.9135 56.6686 12.4975 56.628 12.0526C56.5874 11.6076 56.691 11.1613 56.9211 10.7895C57.1511 10.4178 57.4934 10.1437 57.8897 10.0139C58.2859 9.88414 58.7116 9.90672 59.0942 10.0778C59.4767 10.2489 59.7925 10.5579 59.9877 10.9522C60.1829 11.3465 60.2454 11.8017 60.1646 12.2402C60.0839 12.6787 59.8648 13.0734 59.5447 13.357C59.2246 13.6406 58.8233 13.7957 58.4093 13.7957C58.1741 13.7964 57.9412 13.7467 57.7239 13.6495C57.5066 13.5524 57.3094 13.4096 57.1436 13.2296ZM45.4674 9.76053C45.7178 9.49025 46.0367 9.30618 46.3839 9.2316C46.7312 9.15703 47.0911 9.1953 47.4181 9.34158C47.7452 9.48786 48.0248 9.73557 48.2214 10.0534C48.4181 10.3712 48.5231 10.7449 48.5231 11.1271C48.5231 11.5094 48.4181 11.883 48.2214 12.2009C48.0248 12.5187 47.7452 12.7664 47.4181 12.9127C47.0911 13.0589 46.7312 13.0972 46.3839 13.0226C46.0367 12.9481 45.7178 12.764 45.4674 12.4937C45.3006 12.3146 45.1682 12.1017 45.0778 11.8672C44.9874 11.6327 44.9409 11.3811 44.9409 11.1271C44.9409 10.8731 44.9874 10.6216 45.0778 10.3871C45.1682 10.1525 45.3006 9.9396 45.4674 9.76053ZM33.267 11.863C33.267 11.5452 33.3396 11.2323 33.4784 10.952C33.6172 10.6717 33.8178 10.4327 34.0626 10.2561C34.3073 10.0795 34.5886 9.97082 34.8816 9.93966C35.1745 9.90851 35.47 9.95584 35.742 10.0775C36.014 10.1991 36.2539 10.3913 36.4407 10.637C36.6274 10.8826 36.7552 11.1743 36.8126 11.486C36.87 11.7977 36.8554 12.1199 36.7699 12.424C36.6845 12.7282 36.5308 13.0049 36.3227 13.2296C36.0724 13.4998 35.7534 13.6839 35.4062 13.7584C35.0591 13.8329 34.6992 13.7946 34.3721 13.6484C34.0451 13.5021 33.7656 13.2544 33.5689 12.9366C33.3722 12.6189 33.2671 12.2452 33.267 11.863ZM65.3209 48.5869C64.3913 52.1991 63.5129 55.5851 63.3499 58.533C63.1436 60.839 63.1063 70.6433 63.1002 74.3354H39.5179L39.1825 68.9879C39.1611 68.6508 39.0223 68.3349 38.794 68.1038C38.5657 67.8727 38.2648 67.7435 37.9518 67.7423L28.9875 67.6673C28.9045 67.6665 28.8241 67.6352 28.7598 67.5785C28.6954 67.5218 28.6509 67.4432 28.6336 67.3555L26.6629 57.1118C26.6043 56.807 26.4494 56.5336 26.2247 56.3385C26 56.1434 25.7194 56.0388 25.4311 56.0426L20.7337 56.1017C20.6736 56.1027 20.6142 56.0875 20.5609 56.0575C20.5076 56.0275 20.462 55.9836 20.4283 55.9298C20.3938 55.8767 20.3723 55.8149 20.366 55.7503C20.3596 55.6857 20.3685 55.6205 20.3919 55.5606L26.5527 39.3061C26.6251 39.1478 26.6691 38.9762 26.6823 38.8002V33.0508H67.1053C68.2521 37.2464 66.7635 42.9824 65.3209 48.5869Z"></path></mask><path d="M67.9828 30.3656H53.4168V24.4918H58.4093C58.5693 24.4965 58.7286 24.4664 58.8776 24.4032C59.0267 24.34 59.1624 24.2451 59.2767 24.1241C59.391 24.003 59.4815 23.8584 59.5429 23.6987C59.6044 23.5391 59.6353 23.3677 59.6341 23.1948V16.2837C60.3051 16.0525 60.9177 15.6571 61.424 15.1284C62.0191 14.4831 62.4238 13.662 62.587 12.7686C62.7503 11.8752 62.6647 10.9496 62.3411 10.1087C62.0176 9.26781 61.4705 8.54925 60.769 8.04375C60.0675 7.53825 59.2431 7.26847 58.3997 7.26847C57.5563 7.26847 56.7319 7.53825 56.0304 8.04375C55.3289 8.54925 54.7818 9.26781 54.4583 10.1087C54.1347 10.9496 54.0491 11.8752 54.2124 12.7686C54.3756 13.662 54.7803 14.4831 55.3754 15.1284C55.8752 15.6565 56.4818 16.052 57.1473 16.2837V21.8066H52.2299C51.8898 21.8145 51.5656 21.9629 51.3237 22.2211C51.0819 22.4793 50.941 22.8278 50.9298 23.1948V30.3656H47.9766V15.5441C48.6492 15.3249 49.261 14.9292 49.7574 14.3925C50.4201 13.6782 50.8475 12.7489 50.9743 11.7472C51.101 10.7454 50.92 9.72647 50.459 8.84643C49.998 7.9664 49.2825 7.27386 48.4221 6.87495C47.5616 6.47604 46.6038 6.39277 45.6953 6.63791C44.7869 6.88305 43.9779 7.44306 43.3925 8.23213C42.807 9.0212 42.4774 9.99577 42.454 11.0065C42.4307 12.0172 42.715 13.0083 43.2633 13.8279C43.8116 14.6475 44.5937 15.2504 45.4897 15.5441V30.3656H42.5364V23.1948C42.5253 22.8278 42.3843 22.4793 42.1425 22.2211C41.9007 21.9629 41.5764 21.8145 41.2364 21.8066H36.3191V16.2837C36.9847 16.052 37.5913 15.6565 38.0911 15.1284C38.6923 14.482 39.1023 13.6575 39.2691 12.7594C39.4359 11.8612 39.3521 10.9298 39.0283 10.0831C38.7045 9.23637 38.1552 8.51251 37.45 8.00317C36.7448 7.49383 35.9155 7.22194 35.067 7.22194C34.2186 7.22194 33.3893 7.49383 32.6841 8.00317C31.9789 8.51251 31.4296 9.23637 31.1058 10.0831C30.7819 10.9298 30.6981 11.8612 30.865 12.7594C31.0318 13.6575 31.4418 14.482 32.043 15.1284C32.5492 15.6569 33.1614 16.0523 33.8322 16.2837V23.1948C33.8309 23.3677 33.8619 23.5391 33.9233 23.6987C33.9847 23.8584 34.0753 24.003 34.1896 24.1241C34.3039 24.2451 34.4396 24.34 34.5887 24.4032C34.7377 24.4664 34.897 24.4965 35.057 24.4918H40.0495V30.3656H25.3627C25.2061 30.3608 25.0504 30.391 24.9052 30.4543C24.76 30.5176 24.6285 30.6125 24.5189 30.7333C24.4093 30.854 24.324 30.9979 24.2683 31.1559C24.2126 31.3139 24.1878 31.4826 24.1954 31.6515V38.5373L18.1262 54.549C17.9459 55.0137 17.8747 55.5194 17.9191 56.0209C17.9634 56.5225 18.1219 57.0045 18.3805 57.424C18.639 57.8435 18.9895 58.1874 19.4009 58.4253C19.8123 58.6632 20.2717 58.7877 20.7384 58.7875H20.7674L24.4386 58.7416L26.1997 67.9036C26.3348 68.5909 26.6824 69.2082 27.1855 69.6539C27.6886 70.0997 28.3172 70.3473 28.9679 70.3561L36.7792 70.4233L37.1151 75.7809C37.1368 76.1192 37.2772 76.4358 37.5076 76.6661C37.7381 76.8965 38.0413 77.0233 38.3553 77.0206H64.3415C64.5042 77.022 64.6655 76.9887 64.8162 76.9225C64.9669 76.8564 65.104 76.7587 65.2196 76.6351C65.3351 76.5115 65.4269 76.3644 65.4897 76.2023C65.5524 76.0403 65.5848 75.8664 65.585 75.6908C65.585 75.5476 65.5878 61.3479 65.8271 58.7639C65.8287 58.7453 65.8301 58.7303 65.8312 58.7114C65.9748 56.043 66.8211 52.757 67.7171 49.276C69.3705 42.8517 71.0802 36.2394 69.131 31.1648C69.0354 30.923 68.8749 30.7177 68.6703 30.5753C68.4657 30.4329 68.2262 30.3598 67.9828 30.3656ZM57.1436 13.2296C56.8508 12.9135 56.6686 12.4975 56.628 12.0526C56.5874 11.6076 56.691 11.1613 56.9211 10.7895C57.1511 10.4178 57.4934 10.1437 57.8897 10.0139C58.2859 9.88414 58.7116 9.90672 59.0942 10.0778C59.4767 10.2489 59.7925 10.5579 59.9877 10.9522C60.1829 11.3465 60.2454 11.8017 60.1646 12.2402C60.0839 12.6787 59.8648 13.0734 59.5447 13.357C59.2246 13.6406 58.8233 13.7957 58.4093 13.7957C58.1741 13.7964 57.9412 13.7467 57.7239 13.6495C57.5066 13.5524 57.3094 13.4096 57.1436 13.2296ZM45.4674 9.76053C45.7178 9.49025 46.0367 9.30618 46.3839 9.2316C46.7312 9.15703 47.0911 9.1953 47.4181 9.34158C47.7452 9.48786 48.0248 9.73557 48.2214 10.0534C48.4181 10.3712 48.5231 10.7449 48.5231 11.1271C48.5231 11.5094 48.4181 11.883 48.2214 12.2009C48.0248 12.5187 47.7452 12.7664 47.4181 12.9127C47.0911 13.0589 46.7312 13.0972 46.3839 13.0226C46.0367 12.9481 45.7178 12.764 45.4674 12.4937C45.3006 12.3146 45.1682 12.1017 45.0778 11.8672C44.9874 11.6327 44.9409 11.3811 44.9409 11.1271C44.9409 10.8731 44.9874 10.6216 45.0778 10.3871C45.1682 10.1525 45.3006 9.9396 45.4674 9.76053ZM33.267 11.863C33.267 11.5452 33.3396 11.2323 33.4784 10.952C33.6172 10.6717 33.8178 10.4327 34.0626 10.2561C34.3073 10.0795 34.5886 9.97082 34.8816 9.93966C35.1745 9.90851 35.47 9.95584 35.742 10.0775C36.014 10.1991 36.2539 10.3913 36.4407 10.637C36.6274 10.8826 36.7552 11.1743 36.8126 11.486C36.87 11.7977 36.8554 12.1199 36.7699 12.424C36.6845 12.7282 36.5308 13.0049 36.3227 13.2296C36.0724 13.4998 35.7534 13.6839 35.4062 13.7584C35.0591 13.8329 34.6992 13.7946 34.3721 13.6484C34.0451 13.5021 33.7656 13.2544 33.5689 12.9366C33.3722 12.6189 33.2671 12.2452 33.267 11.863ZM65.3209 48.5869C64.3913 52.1991 63.5129 55.5851 63.3499 58.533C63.1436 60.839 63.1063 70.6433 63.1002 74.3354H39.5179L39.1825 68.9879C39.1611 68.6508 39.0223 68.3349 38.794 68.1038C38.5657 67.8727 38.2648 67.7435 37.9518 67.7423L28.9875 67.6673C28.9045 67.6665 28.8241 67.6352 28.7598 67.5785C28.6954 67.5218 28.6509 67.4432 28.6336 67.3555L26.6629 57.1118C26.6043 56.807 26.4494 56.5336 26.2247 56.3385C26 56.1434 25.7194 56.0388 25.4311 56.0426L20.7337 56.1017C20.6736 56.1027 20.6142 56.0875 20.5609 56.0575C20.5076 56.0275 20.462 55.9836 20.4283 55.9298C20.3938 55.8767 20.3723 55.8149 20.366 55.7503C20.3596 55.6857 20.3685 55.6205 20.3919 55.5606L26.5527 39.3061C26.6251 39.1478 26.6691 38.9762 26.6823 38.8002V33.0508H67.1053C68.2521 37.2464 66.7635 42.9824 65.3209 48.5869Z" fill="black" stroke="white" stroke-width="1.2" mask="url(#path-1-inside-1_160_8276)"></path><path d="M38.6674 11.8729C38.6674 13.8653 37.0523 15.4804 35.0599 15.4804C33.0675 15.4804 31.4523 13.8653 31.4523 11.8729C31.4523 9.88048 33.0675 8.26533 35.0599 8.26533C37.0523 8.26533 38.6674 9.88048 38.6674 11.8729Z" fill="white"></path><path d="M38.6674 11.8729C38.6674 13.8653 37.0523 15.4804 35.0599 15.4804C33.0675 15.4804 31.4523 13.8653 31.4523 11.8729C31.4523 9.88048 33.0675 8.26533 35.0599 8.26533C37.0523 8.26533 38.6674 9.88048 38.6674 11.8729Z" stroke="black" stroke-width="1.6"></path><path d="M38.6674 11.8729C38.6674 13.8653 37.0523 15.4804 35.0599 15.4804C33.0675 15.4804 31.4523 13.8653 31.4523 11.8729C31.4523 9.88048 33.0675 8.26533 35.0599 8.26533C37.0523 8.26533 38.6674 9.88048 38.6674 11.8729Z" stroke="url(#paint0_linear_160_8276)" stroke-width="1.6"></path><circle cx="46.5482" cy="11.1492" r="3.60754" fill="white"></circle><circle cx="46.5482" cy="11.1492" r="3.60754" stroke="black" stroke-width="1.6"></circle><circle cx="46.5482" cy="11.1492" r="3.60754" stroke="url(#paint1_linear_160_8276)" stroke-width="1.6"></circle><circle cx="58.0364" cy="11.7889" r="3.60754" fill="white"></circle><circle cx="58.0364" cy="11.7889" r="3.60754" stroke="black" stroke-width="1.6"></circle><circle cx="58.0364" cy="11.7889" r="3.60754" stroke="url(#paint2_linear_160_8276)" stroke-width="1.6"></circle><defs><linearGradient id="paint0_linear_160_8276" x1="33.6028" y1="10.481" x2="42.7788" y2="18.4618" gradientUnits="userSpaceOnUse"><stop offset="0.236106" stop-color="#DA291C"></stop><stop offset="1" stop-color="#FFCD00"></stop></linearGradient><linearGradient id="paint1_linear_160_8276" x1="45.0911" y1="9.75738" x2="54.2671" y2="17.7382" gradientUnits="userSpaceOnUse"><stop offset="0.236106" stop-color="#DA291C"></stop><stop offset="1" stop-color="#FFCD00"></stop></linearGradient><linearGradient id="paint2_linear_160_8276" x1="56.5793" y1="10.397" x2="65.7554" y2="18.3778" gradientUnits="userSpaceOnUse"><stop offset="0.236106" stop-color="#DA291C"></stop><stop offset="1" stop-color="#FFCD00"></stop></linearGradient></defs></svg> 