<?xml version="1.0" encoding="UTF-8"?> <svg xmlns="http://www.w3.org/2000/svg" width="64" height="64" viewBox="0 0 64 64" fill="none"><path d="M7.9716 34.1635C12.7945 35.5268 13.1683 35.4462 13.1683 35.4462C13.6374 37.4692 14.4436 39.4115 15.5431 41.1706C15.5431 41.1706 15.2206 41.3685 12.7798 45.7443C12.6699 45.9422 12.7798 46.3233 12.9777 46.5652C13.9452 47.7306 15.0154 48.8081 16.1881 49.7756C16.43 49.9808 16.8184 50.0834 17.009 49.9808C21.3848 47.5401 21.5827 47.2175 21.5827 47.2175C23.3418 48.317 25.2915 49.1159 27.3144 49.585C27.3144 49.585 27.2265 49.9515 28.5898 54.7744C28.6484 54.9869 28.9929 55.1848 29.3154 55.2141C30.8253 55.3607 32.3499 55.3607 33.8598 55.2141C34.1749 55.1848 34.5268 54.9869 34.5854 54.7744C35.9487 49.9588 35.8534 50.0248 35.8534 50.0248C37.891 49.6583 39.8261 48.3096 41.5925 47.2102C41.5925 47.2102 41.7977 47.5327 46.1662 49.9735C46.3641 50.0834 46.7452 49.9735 46.9871 49.7756C48.1525 48.8081 49.2299 47.7379 50.1975 46.5652C50.4027 46.316 50.5053 45.9349 50.4027 45.7443C47.9619 41.3685 47.6394 41.1706 47.6394 41.1706C48.7389 39.4115 49.5378 37.4618 50.0069 35.4389C50.0069 35.4389 50.3807 35.5195 55.1962 34.1562C55.4088 34.0975 55.6067 33.7531 55.636 33.4306C55.7826 31.9207 55.7826 30.3961 55.636 28.8862C55.6067 28.571 55.4015 28.2412 55.1962 28.1606C50.3807 26.7899 49.9996 26.8852 49.9996 26.8852C49.5305 24.8623 48.7242 22.9199 47.6248 21.1608C47.6248 21.1608 47.9546 20.9556 50.3954 16.5798C50.4906 16.3746 50.3954 16.0007 50.1975 15.7589C49.2299 14.5935 48.1598 13.516 46.9871 12.5485C46.7379 12.3433 46.3567 12.2407 46.1662 12.3433C41.7904 14.7767 41.5852 15.1139 41.5852 15.1139C39.8261 14.0144 37.8837 13.2155 35.8607 12.7464C35.8607 12.7464 35.9487 12.3653 34.5854 7.54972C34.5268 7.33717 34.1823 7.13926 33.8598 7.10994C32.3499 6.96335 30.8253 6.96335 29.3154 7.10994C29.0002 7.13926 28.6704 7.33717 28.5898 7.54972C27.2191 12.3653 27.3071 12.7464 27.3071 12.7464C25.2841 13.2155 23.3418 14.0218 21.5827 15.1212C21.5827 15.1212 21.3848 14.7914 17.009 12.3506C16.8038 12.2553 16.43 12.3506 16.1881 12.5485C15.0227 13.516 13.9379 14.5861 12.9704 15.7516C12.7652 16.0008 12.6772 16.3746 12.7652 16.5725C15.1986 20.9482 15.5284 21.1535 15.5284 21.1535C14.429 22.9126 13.6301 24.8549 13.161 26.8779V26.8999C13.161 26.8999 12.7798 26.8119 7.96427 28.1752C7.75171 28.2339 7.55381 28.5784 7.52449 28.9009C7.3779 30.4108 7.3779 31.9353 7.52449 33.4452C7.55381 33.7604 7.75171 34.1122 7.96427 34.1709L7.9716 34.1635Z" stroke="white" stroke-linecap="round" stroke-linejoin="round"></path><path d="M26.369 56.615C25.5628 56.615 24.9031 55.9553 24.9031 55.1491V47.4677C24.9031 45.0049 23.5691 43.3338 22.0226 41.4061C20.0729 38.98 17.8667 36.224 17.8667 31.4525C17.8667 23.881 24.0309 17.7168 31.6024 17.7168C39.1739 17.7168 45.3307 23.881 45.3307 31.4525C45.3307 36.224 43.1245 38.98 41.1748 41.4061C39.6283 43.3338 38.2943 45.0049 38.2943 47.4677V55.1491C38.2943 55.9553 37.6346 56.615 36.8284 56.615H26.369Z" fill="black" fill-opacity="0.1"></path><path d="M31.5951 19.1818C38.375 19.1818 43.8649 24.6717 43.8649 31.4516C43.8649 39.4848 36.8285 41.134 36.8285 47.4668V55.1482H26.3691V47.4668C26.3691 41.134 19.3327 39.4848 19.3327 31.4516C19.3327 24.6717 24.8226 19.1818 31.6025 19.1818M31.6025 16.25C23.2247 16.25 16.4009 23.0665 16.4009 31.4516C16.4009 36.7362 18.8856 39.8367 20.8793 42.3214C22.5138 44.359 23.4446 45.6051 23.4446 47.4668V55.1482C23.4446 56.7681 24.7566 58.0801 26.3765 58.0801H36.8358C38.4557 58.0801 39.7677 56.7681 39.7677 55.1482V47.4668C39.7677 45.6051 40.6912 44.359 42.3257 42.3214C44.3193 39.8367 46.8041 36.7362 46.8041 31.4516C46.8041 23.0665 39.9875 16.25 31.6025 16.25Z" fill="black" fill-opacity="0.1"></path><path d="M36.8212 52.0479H26.3691" stroke="white" stroke-linecap="round" stroke-linejoin="round"></path><path d="M35.0476 55.1484H28.1431" stroke="white" stroke-linecap="round" stroke-linejoin="round"></path><path d="M33.4496 48.9412V47.468C33.4496 43.3048 35.6412 40.5709 37.3929 38.3793C39.1227 36.2244 40.486 34.5239 40.486 31.4528C40.486 26.5493 36.4987 22.5547 31.5879 22.5547" stroke="black" stroke-linecap="round" stroke-linejoin="round"></path><path d="M33.4496 48.9412V47.468C33.4496 43.3048 35.6412 40.5709 37.3929 38.3793C39.1227 36.2244 40.486 34.5239 40.486 31.4528C40.486 26.5493 36.4987 22.5547 31.5879 22.5547" stroke="url(#paint0_linear_497_13439)" stroke-linecap="round" stroke-linejoin="round"></path><path d="M36.8212 48.9404H26.3691" stroke="black" stroke-opacity="0.1" stroke-linecap="round" stroke-linejoin="round"></path><path d="M26.3689 48.9408V47.4676C26.3689 41.1348 19.3325 39.4856 19.3325 31.4524C19.3325 24.6725 24.8224 19.1826 31.6023 19.1826C38.3822 19.1826 43.872 24.6725 43.872 31.4524C43.872 39.4856 36.8356 41.1348 36.8356 47.4676V48.9408H26.3763H26.3689Z" stroke="white" stroke-linecap="round" stroke-linejoin="round"></path><defs><linearGradient id="paint0_linear_497_13439" x1="34.5661" y1="31.5817" x2="49.5466" y2="35.9754" gradientUnits="userSpaceOnUse"><stop offset="0.236106" stop-color="#DA291C"></stop><stop offset="1" stop-color="#FFCD00"></stop></linearGradient></defs></svg> 