<?xml version="1.0" encoding="UTF-8"?> <svg xmlns="http://www.w3.org/2000/svg" width="125" height="110" viewBox="0 0 125 110" fill="none"><path d="M36.7998 0C33.3998 0 30.1998 1.9 28.4998 4.8L2.1998 50.2C0.499805 53.2 0.499805 56.8 2.1998 59.8L28.3998 105.2C30.1998 108.1 33.2998 110 36.6998 110H89.0998C92.4998 110 95.6998 108.1 97.3998 105.2L123.6 59.8C125.3 56.8 125.3 53.2 123.6 50.2L97.4998 4.8C95.7998 1.9 92.5998 0 89.1998 0H36.7998ZM37.2998 26.6H46.5998C46.9998 26.6 47.3998 26.8 47.5998 27.2L62.8998 54.5C62.9998 54.6 62.9998 54.8 62.9998 54.9C62.9998 54.7 63.0998 54.6 63.0998 54.5L78.3998 27.2C78.5998 26.8 78.9998 26.6 79.3998 26.6H88.3998C89.0998 26.7 89.5998 27.3 89.4998 28C89.4998 28.1 89.4998 28.2 89.3998 28.4L74.5998 55L89.5998 81.7C89.8998 82.3 89.5998 83.1 88.9998 83.3C88.8998 83.4 88.6998 83.4 88.5998 83.4H79.4998C79.0998 83.4 78.6998 83.2 78.4998 82.8L63.0998 55.5C62.9998 55.4 62.9998 55.2 62.9998 55.1C62.9998 55.3 62.8998 55.4 62.8998 55.5L47.4998 82.8C47.2998 83.2 46.8998 83.4 46.4998 83.4H37.4998C36.7998 83.3 36.2998 82.7 36.3998 82.1C36.3998 82 36.4998 81.8 36.4998 81.7L51.4998 55L36.4998 28.3C36.1998 27.7 36.4998 27 37.0998 26.7C37.0998 26.6 37.1998 26.6 37.2998 26.6Z" fill="#3498DB"></path></svg> 