<?xml version="1.0" encoding="UTF-8"?> <svg xmlns="http://www.w3.org/2000/svg" width="64" height="64" viewBox="0 0 64 64" fill="none"><g clip-path="url(#clip0_1576_33898)"><path d="M49.3007 23.5933H3.95959" stroke="#37464C" stroke-linejoin="round"></path><path d="M37.9279 26.2489C36.4822 16.0542 31.9738 8.60083 26.6301 8.60083C20.1192 8.60083 14.8505 19.6309 14.8505 33.2311C14.8505 46.8313 20.1192 57.8613 26.6301 57.8613C29.65 57.8613 32.3915 55.484 34.4797 51.586" stroke="#37464C" stroke-linecap="round" stroke-linejoin="round"></path><path d="M50.9499 29.3438C49.0866 17.5855 38.9133 8.60083 26.6303 8.60083C13.0301 8.60083 2 19.6309 2 33.2311C2 46.8313 13.0301 57.8613 26.6303 57.8613C31.8133 57.8613 36.6216 56.255 40.5838 53.5243" stroke="#37464C" stroke-linecap="round" stroke-linejoin="round"></path><path d="M3.95959 42.8689H28.0865" stroke="#37464C" stroke-linecap="round" stroke-linejoin="round"></path><path d="M39.8508 43.485C41.1068 44.6623 43.0795 44.5985 44.2568 43.3424C45.4341 42.0864 45.3703 40.1137 44.1143 38.9364C42.8582 37.7591 40.8856 37.8229 39.7082 39.079C38.5309 40.335 38.5947 42.3077 39.8508 43.485Z" stroke="black" stroke-linecap="round" stroke-linejoin="round"></path><path d="M39.8508 43.485C41.1068 44.6623 43.0795 44.5985 44.2568 43.3424C45.4341 42.0864 45.3703 40.1137 44.1143 38.9364C42.8582 37.7591 40.8856 37.8229 39.7082 39.079C38.5309 40.335 38.5947 42.3077 39.8508 43.485Z" stroke="url(#paint0_linear_1576_33898)" stroke-linecap="round" stroke-linejoin="round"></path><path d="M48.0983 48.3603C47.9242 48.5461 47.6305 48.5556 47.4448 48.3815L46.5768 47.5679C46.4176 47.4187 46.1819 47.4042 46.0018 47.5203C45.3969 47.9074 44.7445 48.1932 44.0746 48.3913C43.8671 48.4531 43.7224 48.6379 43.7293 48.8509L43.764 49.923C43.7761 50.2975 43.5736 50.5136 43.3166 50.5219L41.2531 50.5887C40.9961 50.597 40.7838 50.398 40.7755 50.141L40.737 48.9514C40.7301 48.7384 40.5735 48.556 40.3627 48.5151C39.6778 48.3645 39.0119 48.1177 38.3832 47.7705C38.196 47.6663 37.9618 47.6959 37.8161 47.8513L37.0842 48.6322C36.8249 48.9089 36.5311 48.9184 36.3454 48.7443L34.8406 47.3338C34.6548 47.1597 34.6453 46.8659 34.8194 46.6802L35.633 45.8122C35.7823 45.653 35.7967 45.4173 35.6806 45.2373C35.2935 44.6323 35.0077 43.98 34.8096 43.3101C34.7478 43.1026 34.563 42.9578 34.35 42.9647L33.2779 42.9994C32.9034 43.0115 32.6873 42.809 32.679 42.552L32.6123 40.4885C32.6039 40.2315 32.8029 40.0192 33.0599 40.0109L34.2495 39.9724C34.4625 39.9655 34.6449 39.8089 34.6859 39.5981C34.8364 38.9133 35.0832 38.2474 35.4304 37.6186C35.5346 37.4315 35.505 37.1972 35.3496 37.0515L34.5687 36.3197C34.292 36.0603 34.2825 35.7665 34.4566 35.5808L35.8671 34.076C36.0412 33.8903 36.335 33.8808 36.6117 34.1401L37.3925 34.872C37.5517 35.0212 37.7836 35.0321 37.9636 34.916C38.5686 34.5289 39.2172 34.2396 39.8908 34.0451C40.0983 33.9832 40.2431 33.7984 40.2362 33.5855L40.1977 32.3959C40.1894 32.1388 40.3883 31.9266 40.6454 31.9182L42.7088 31.8515C42.9659 31.8432 43.1781 32.0421 43.194 32.4202L43.2287 33.4923C43.2356 33.7053 43.392 33.8803 43.603 33.9286C44.2879 34.0792 44.9538 34.326 45.5825 34.6732C45.7697 34.7774 46.0039 34.7478 46.1532 34.5886L46.9668 33.7206C47.1409 33.5348 47.4346 33.5253 47.6203 33.6994L49.1251 35.1099C49.3109 35.284 49.3204 35.5777 49.061 35.8545L48.3291 36.6353C48.1799 36.7945 48.169 37.0264 48.2851 37.2064C48.6722 37.8114 48.958 38.4637 49.1561 39.1336C49.2179 39.3411 49.4027 39.4858 49.6157 39.4789L50.8053 39.4405C51.0623 39.4321 51.2746 39.6311 51.2829 39.8881L51.3497 41.9516C51.358 42.2086 51.159 42.4209 50.7809 42.4368L49.7088 42.4715C49.4959 42.4784 49.3208 42.6348 49.2725 42.8458C49.1219 43.5307 48.8752 44.1966 48.5279 44.8253C48.4237 45.0124 48.4534 45.2467 48.6126 45.3959L49.4806 46.2095C49.6663 46.3836 49.6758 46.6774 49.5017 46.8631L48.0912 48.3679L48.0983 48.3603Z" stroke="black" stroke-linecap="round" stroke-linejoin="round"></path><path d="M48.0983 48.3603C47.9242 48.5461 47.6305 48.5556 47.4448 48.3815L46.5768 47.5679C46.4176 47.4187 46.1819 47.4042 46.0018 47.5203C45.3969 47.9074 44.7445 48.1932 44.0746 48.3913C43.8671 48.4531 43.7224 48.6379 43.7293 48.8509L43.764 49.923C43.7761 50.2975 43.5736 50.5136 43.3166 50.5219L41.2531 50.5887C40.9961 50.597 40.7838 50.398 40.7755 50.141L40.737 48.9514C40.7301 48.7384 40.5735 48.556 40.3627 48.5151C39.6778 48.3645 39.0119 48.1177 38.3832 47.7705C38.196 47.6663 37.9618 47.6959 37.8161 47.8513L37.0842 48.6322C36.8249 48.9089 36.5311 48.9184 36.3454 48.7443L34.8406 47.3338C34.6548 47.1597 34.6453 46.8659 34.8194 46.6802L35.633 45.8122C35.7823 45.653 35.7967 45.4173 35.6806 45.2373C35.2935 44.6323 35.0077 43.98 34.8096 43.3101C34.7478 43.1026 34.563 42.9578 34.35 42.9647L33.2779 42.9994C32.9034 43.0115 32.6873 42.809 32.679 42.552L32.6123 40.4885C32.6039 40.2315 32.8029 40.0192 33.0599 40.0109L34.2495 39.9724C34.4625 39.9655 34.6449 39.8089 34.6859 39.5981C34.8364 38.9133 35.0832 38.2474 35.4304 37.6186C35.5346 37.4315 35.505 37.1972 35.3496 37.0515L34.5687 36.3197C34.292 36.0603 34.2825 35.7665 34.4566 35.5808L35.8671 34.076C36.0412 33.8903 36.335 33.8808 36.6117 34.1401L37.3925 34.872C37.5517 35.0212 37.7836 35.0321 37.9636 34.916C38.5686 34.5289 39.2172 34.2396 39.8908 34.0451C40.0983 33.9832 40.2431 33.7984 40.2362 33.5855L40.1977 32.3959C40.1894 32.1388 40.3883 31.9266 40.6454 31.9182L42.7088 31.8515C42.9659 31.8432 43.1781 32.0421 43.194 32.4202L43.2287 33.4923C43.2356 33.7053 43.392 33.8803 43.603 33.9286C44.2879 34.0792 44.9538 34.326 45.5825 34.6732C45.7697 34.7774 46.0039 34.7478 46.1532 34.5886L46.9668 33.7206C47.1409 33.5348 47.4346 33.5253 47.6203 33.6994L49.1251 35.1099C49.3109 35.284 49.3204 35.5777 49.061 35.8545L48.3291 36.6353C48.1799 36.7945 48.169 37.0264 48.2851 37.2064C48.6722 37.8114 48.958 38.4637 49.1561 39.1336C49.2179 39.3411 49.4027 39.4858 49.6157 39.4789L50.8053 39.4405C51.0623 39.4321 51.2746 39.6311 51.2829 39.8881L51.3497 41.9516C51.358 42.2086 51.159 42.4209 50.7809 42.4368L49.7088 42.4715C49.4959 42.4784 49.3208 42.6348 49.2725 42.8458C49.1219 43.5307 48.8752 44.1966 48.5279 44.8253C48.4237 45.0124 48.4534 45.2467 48.6126 45.3959L49.4806 46.2095C49.6663 46.3836 49.6758 46.6774 49.5017 46.8631L48.0912 48.3679L48.0983 48.3603Z" stroke="url(#paint1_linear_1576_33898)" stroke-linecap="round" stroke-linejoin="round"></path><path d="M51.4045 47.7348C51.4045 47.7348 51.4453 47.7445 51.4675 47.7512C51.6675 47.7962 51.8163 47.9641 51.8191 48.1662L51.8555 49.2897C51.8633 49.532 52.0642 49.7203 52.3065 49.7125L54.2525 49.6495C54.4949 49.6417 54.6832 49.4408 54.6715 49.081L54.6387 48.0676C54.6321 47.862 54.7661 47.6886 54.9665 47.6343C55.6037 47.4483 56.2161 47.1749 56.7888 46.8145C56.9617 46.706 57.1827 46.7209 57.3306 46.8595L58.1493 47.6269C58.3275 47.7939 58.6027 47.7813 58.7661 47.6069L60.0985 46.1855C60.2655 46.0073 60.2529 45.7321 60.0785 45.5686L59.2598 44.8012C59.112 44.6627 59.0828 44.4431 59.1799 44.2635C59.5098 43.6684 59.7393 43.0362 59.8802 42.3921C59.9252 42.1921 60.0896 42.0471 60.2914 42.0369L61.3048 42.0041C61.6646 41.9925 61.8491 41.788 61.8451 41.5493L61.7821 39.6033C61.7743 39.3609 61.5734 39.1726 61.331 39.1805L60.2075 39.2168C60.0019 39.2235 59.8247 39.0859 59.7707 38.8928C59.5846 38.2556 59.3112 37.6433 58.9509 37.0706C58.8424 36.8976 58.8537 36.6804 58.9958 36.5288L59.6851 35.7934C59.9302 35.5319 59.9177 35.2566 59.7433 35.0932L58.3219 33.7609C58.1437 33.5939 57.8684 33.6065 57.705 33.7808L56.9376 34.5996C56.799 34.7474 56.5794 34.7766 56.3999 34.6795C55.8048 34.3495 55.1725 34.12 54.5284 33.9792C54.3285 33.9342 54.1835 33.7698 54.1733 33.568L54.1405 32.5546C54.1289 32.1948 53.9244 32.0102 53.6856 32.0143L51.7397 32.0772C51.4973 32.0851 51.309 32.286 51.3169 32.5283L51.3532 33.6519C51.3599 33.8575 51.2222 34.0347 51.0292 34.0887C51.0074 34.0968 50.9856 34.1048 50.9674 34.1091" stroke="#37464C" stroke-linecap="round" stroke-linejoin="round"></path><path d="M51.8187 44.2923C53.1306 44.7387 54.6419 44.4178 55.6509 43.3413C57.0259 41.8744 56.9515 39.5759 55.4846 38.2009C54.4157 37.199 52.905 36.9722 51.6352 37.4838" stroke="#37464C" stroke-linecap="round" stroke-linejoin="round"></path></g><defs><linearGradient id="paint0_linear_1576_33898" x1="41.9038" y1="39.7878" x2="42.7787" y2="48.3439" gradientUnits="userSpaceOnUse"><stop offset="0.236106" stop-color="#DA291C"></stop><stop offset="1" stop-color="#FFCD00"></stop></linearGradient><linearGradient id="paint1_linear_1576_33898" x1="41.7445" y1="36.9542" x2="44.3637" y2="62.6056" gradientUnits="userSpaceOnUse"><stop offset="0.236106" stop-color="#DA291C"></stop><stop offset="1" stop-color="#FFCD00"></stop></linearGradient><clipPath id="clip0_1576_33898"><rect width="64" height="64" fill="white"></rect></clipPath></defs></svg> 