<?xml version="1.0" encoding="UTF-8"?> <svg xmlns="http://www.w3.org/2000/svg" width="64" height="64" viewBox="0 0 64 64" fill="none"><path d="M11.9733 31.6682C11.9733 31.6682 11.3284 27.0538 10.8831 23.9213C10.4147 20.6275 8.35708 19.7676 6 19.7676L6.52208 37.1808L17.7086 48.3674" stroke="black" stroke-linecap="round" stroke-linejoin="round"></path><path d="M26.3384 49.2886C26.8988 44.3211 26.2078 41.5187 24.0273 39.3459C22.2077 37.5262 21.0253 36.7738 18.4226 36.2594C17.2325 35.0693 15.6278 33.4647 15.0904 32.9272C14.5529 32.3898 12.5491 30.8619 9.94629 33.4647L16.9638 40.4822" stroke="black" stroke-linecap="round" stroke-linejoin="round"></path><path d="M28.9797 54.8784V49.6191H14.0464V54.8784" stroke="black" stroke-linecap="round" stroke-linejoin="round"></path><path d="M25.6321 53.1969C25.6321 53.7343 25.1944 54.1643 24.6647 54.1643C24.1349 54.1643 23.6973 53.7267 23.6973 53.1969C23.6973 52.6671 24.1349 52.2295 24.6647 52.2295C25.1944 52.2295 25.6321 52.6671 25.6321 53.1969Z" fill="black"></path><path d="M52.7422 31.6682C52.7422 31.6682 53.3871 27.0538 53.8324 23.9213C54.3008 20.6275 56.3584 19.7676 58.7155 19.7676L58.1934 37.1808L47.0068 48.3674" stroke="black" stroke-linecap="round" stroke-linejoin="round"></path><path d="M38.3771 49.2886C37.8166 44.3211 38.5076 41.5187 40.6881 39.3459C42.5077 37.5262 43.6901 36.7738 46.2929 36.2594C47.4829 35.0693 49.0876 33.4647 49.6251 32.9272C50.1625 32.3898 52.1664 30.8619 54.7692 33.4647L47.7517 40.4822" stroke="black" stroke-linecap="round" stroke-linejoin="round"></path><path d="M35.7358 54.8784V49.6191H50.6692V54.8784" stroke="black" stroke-linecap="round" stroke-linejoin="round"></path><path d="M39.0835 53.1969C39.0835 53.7343 39.5211 54.1643 40.0509 54.1643C40.5807 54.1643 41.0183 53.7267 41.0183 53.1969C41.0183 52.6671 40.5807 52.2295 40.0509 52.2295C39.5211 52.2295 39.0835 52.6671 39.0835 53.1969Z" fill="black"></path><path d="M36.1716 37.0947H29.0225" stroke="black" stroke-linecap="round" stroke-linejoin="round"></path><path d="M34.958 39.2158H30.2354" stroke="black" stroke-linecap="round" stroke-linejoin="round"></path><path d="M33.8652 34.9701V33.9624C33.8652 31.1148 35.3642 29.2448 36.5624 27.7458C37.7456 26.2719 38.6781 25.1088 38.6781 23.0081C38.6781 19.6542 35.9508 16.9219 32.5918 16.9219" stroke="black" stroke-linecap="round" stroke-linejoin="round"></path><path d="M33.8652 34.9701V33.9624C33.8652 31.1148 35.3642 29.2448 36.5624 27.7458C37.7456 26.2719 38.6781 25.1088 38.6781 23.0081C38.6781 19.6542 35.9508 16.9219 32.5918 16.9219" stroke="url(#paint0_linear_497_11869)" stroke-linecap="round" stroke-linejoin="round"></path><path d="M29.0223 34.9696V33.962C29.0223 29.6304 24.2095 28.5024 24.2095 23.0077C24.2095 18.3703 27.9645 14.6152 32.6019 14.6152C37.2393 14.6152 40.9943 18.3703 40.9943 23.0077C40.9943 28.5024 36.1815 29.6304 36.1815 33.962V34.9696H29.0274H29.0223Z" stroke="black" stroke-linecap="round" stroke-linejoin="round"></path><defs><linearGradient id="paint0_linear_497_11869" x1="34.6289" y1="23.0963" x2="44.8754" y2="26.1015" gradientUnits="userSpaceOnUse"><stop offset="0.236106" stop-color="#DA291C"></stop><stop offset="1" stop-color="#FFCD00"></stop></linearGradient></defs></svg> 