<?xml version="1.0" encoding="UTF-8"?> <svg xmlns="http://www.w3.org/2000/svg" width="64" height="64" viewBox="0 0 64 64" fill="none"><path d="M26 54.3027L27 48.3027" stroke="white" stroke-linecap="round" stroke-linejoin="round"></path><path d="M41 54.3027H23" stroke="white" stroke-linecap="round" stroke-linejoin="round"></path><path d="M37 48.3027L38 54.3027" stroke="white" stroke-linecap="round" stroke-linejoin="round"></path><path d="M16 12.3027H10C8.34 12.3027 7 13.6427 7 15.3027V45.3027C7 46.9627 8.34 48.3027 10 48.3027H54C55.66 48.3027 57 46.9627 57 45.3027V15.3027C57 13.6427 55.66 12.3027 54 12.3027H50" stroke="white" stroke-linecap="round" stroke-linejoin="round"></path><path d="M7 42.3027H57" stroke="white" stroke-linejoin="round"></path><path d="M45 36.3027C46.1046 36.3027 47 35.4073 47 34.3027C47 33.1982 46.1046 32.3027 45 32.3027C43.8954 32.3027 43 33.1982 43 34.3027C43 35.4073 43.8954 36.3027 45 36.3027Z" stroke="white" stroke-linejoin="round"></path><path d="M43 34.3027H39C37.9 34.3027 37 33.4027 37 32.3027V30.3027M40.0874 23.7972V13.9259L31.5 9L22.8929 13.9259V23.7972L31.5 28.7231L40.0874 23.7972Z" stroke="#DA291C" stroke-linecap="round" stroke-linejoin="round"></path><path d="M17 36.3027C18.1046 36.3027 19 35.4073 19 34.3027C19 33.1982 18.1046 32.3027 17 32.3027C15.8954 32.3027 15 33.1982 15 34.3027C15 35.4073 15.8954 36.3027 17 36.3027Z" stroke="white" stroke-linejoin="round"></path><path d="M19 34.3027H23C24.1 34.3027 25 33.4027 25 32.3027V30.3027" stroke="#DA291C" stroke-linecap="round" stroke-linejoin="round"></path><path d="M31 38.3027C32.1046 38.3027 33 37.4073 33 36.3027C33 35.1982 32.1046 34.3027 31 34.3027C29.8954 34.3027 29 35.1982 29 36.3027C29 37.4073 29.8954 38.3027 31 38.3027Z" stroke="white" stroke-linejoin="round"></path></svg> 