<?xml version="1.0" encoding="UTF-8"?> <svg xmlns="http://www.w3.org/2000/svg" width="44" height="59" viewBox="0 0 44 59" fill="none"><mask id="path-1-inside-1_479_9793" fill="white"><path d="M41.4964 20.2764H29.4261V15.409H33.5631C33.6958 15.4129 33.8278 15.388 33.9513 15.3356C34.0748 15.2833 34.1872 15.2046 34.2819 15.1043C34.3767 15.004 34.4517 14.8841 34.5026 14.7518C34.5535 14.6196 34.5792 14.4775 34.5781 14.3343V8.60732C35.1342 8.41572 35.6418 8.0881 36.0614 7.64997C36.5545 7.11528 36.8898 6.43483 37.0251 5.69452C37.1604 4.95421 37.0894 4.18723 36.8213 3.4904C36.5532 2.79357 36.0999 2.19813 35.5186 1.77924C34.9373 1.36035 34.2541 1.1368 33.5552 1.1368C32.8564 1.1368 32.1732 1.36035 31.5919 1.77924C31.0106 2.19813 30.5573 2.79357 30.2891 3.4904C30.021 4.18723 29.9501 4.95421 30.0854 5.69452C30.2206 6.43483 30.556 7.11528 31.0491 7.64997C31.4632 8.08758 31.9659 8.41531 32.5174 8.60732V13.1839H28.4425C28.1608 13.1905 27.8921 13.3135 27.6917 13.5274C27.4913 13.7414 27.3745 14.0302 27.3653 14.3343V20.2764H24.918V7.99445C25.4754 7.81281 25.9824 7.48495 26.3937 7.04016C26.9428 6.44824 27.2971 5.67822 27.4021 4.84812C27.5071 4.01802 27.3571 3.17364 26.9751 2.44439C26.5931 1.71514 26.0002 1.14126 25.2872 0.810703C24.5742 0.480143 23.7804 0.411143 23.0277 0.614279C22.2749 0.817414 21.6045 1.28148 21.1194 1.93534C20.6342 2.58921 20.3611 3.3968 20.3417 4.23435C20.3224 5.0719 20.5579 5.89318 21.0123 6.57234C21.4667 7.2515 22.1147 7.75106 22.8572 7.99445V20.2764H20.41V14.3343C20.4008 14.0302 20.284 13.7414 20.0836 13.5274C19.8832 13.3135 19.6145 13.1905 19.3327 13.1839H15.258V8.60732C15.8095 8.41536 16.3122 8.08763 16.7263 7.64997C17.2245 7.11436 17.5642 6.43114 17.7025 5.68687C17.8408 4.9426 17.7713 4.17076 17.503 3.46914C17.2346 2.76752 16.7794 2.16768 16.1951 1.74562C15.6107 1.32355 14.9235 1.09825 14.2204 1.09825C13.5174 1.09825 12.8301 1.32355 12.2458 1.74562C11.6614 2.16768 11.2062 2.76752 10.9379 3.46914C10.6695 4.17076 10.6001 4.9426 10.7384 5.68687C10.8766 6.43114 11.2164 7.11436 11.7145 7.64997C12.134 8.08797 12.6413 8.41559 13.1972 8.60732V14.3343C13.1961 14.4775 13.2218 14.6196 13.2727 14.7518C13.3236 14.8841 13.3986 15.004 13.4933 15.1043C13.588 15.2046 13.7005 15.2833 13.824 15.3356C13.9475 15.388 14.0795 15.4129 14.2121 15.409H18.3492V20.2764H6.17881C6.04912 20.2725 5.92007 20.2975 5.79975 20.3499C5.67944 20.4023 5.57045 20.481 5.47963 20.5811C5.38881 20.6811 5.31811 20.8004 5.27198 20.9313C5.22584 21.0622 5.20526 21.202 5.21152 21.342V27.0479L0.182237 40.3162C0.0328165 40.7013 -0.0261351 41.1203 0.0106274 41.5359C0.04739 41.9516 0.178726 42.351 0.392954 42.6986C0.607181 43.0462 0.897658 43.3312 1.23854 43.5284C1.57943 43.7255 1.96016 43.8286 2.34686 43.8285H2.37095L5.41309 43.7904L6.87241 51.3826C6.98435 51.9522 7.27245 52.4637 7.68934 52.833C8.10623 53.2024 8.62711 53.4076 9.16635 53.4149L15.6392 53.4705L15.9176 57.9102C15.9355 58.1905 16.0519 58.4529 16.2428 58.6437C16.4338 58.8346 16.685 58.9397 16.9453 58.9375H38.479C38.6138 58.9387 38.7474 58.911 38.8723 58.8562C38.9972 58.8014 39.1108 58.7204 39.2066 58.618C39.3023 58.5156 39.3784 58.3937 39.4304 58.2594C39.4823 58.1251 39.5092 57.981 39.5094 57.8355C39.5094 57.7169 39.5117 45.9501 39.71 43.8089C39.7113 43.7935 39.7125 43.7811 39.7134 43.7654C39.8324 41.5542 40.5337 38.8312 41.2761 35.9467C42.6463 30.6231 44.063 25.1438 42.4478 20.9387C42.3686 20.7383 42.2356 20.5682 42.066 20.4502C41.8965 20.3322 41.6981 20.2717 41.4964 20.2764ZM32.5143 6.07655C32.2717 5.81457 32.1207 5.46987 32.0871 5.10117C32.0535 4.73247 32.1393 4.36259 32.3299 4.05455C32.5206 3.74651 32.8042 3.51937 33.1326 3.41183C33.4609 3.30429 33.8137 3.32301 34.1307 3.46479C34.4477 3.60656 34.7094 3.86264 34.8711 4.18937C35.0329 4.51611 35.0847 4.89329 35.0178 5.25665C34.9508 5.62002 34.7693 5.94708 34.504 6.18212C34.2388 6.41715 33.9063 6.54562 33.5631 6.54563C33.3683 6.5462 33.1753 6.50504 32.9952 6.42452C32.8152 6.344 32.6517 6.22573 32.5143 6.07655ZM22.8388 3.20187C23.0462 2.97789 23.3105 2.82536 23.5983 2.76356C23.886 2.70177 24.1842 2.73348 24.4553 2.8547C24.7263 2.97591 24.958 3.18118 25.1209 3.44455C25.2839 3.70792 25.3709 4.01755 25.3709 4.3343C25.3709 4.65105 25.2839 4.96069 25.1209 5.22406C24.958 5.48743 24.7263 5.6927 24.4553 5.81391C24.1842 5.93512 23.886 5.96684 23.5983 5.90504C23.3105 5.84325 23.0462 5.69071 22.8388 5.46674C22.7005 5.31835 22.5908 5.14191 22.5159 4.94756C22.441 4.75321 22.4025 4.5448 22.4025 4.3343C22.4025 4.12381 22.441 3.91539 22.5159 3.72105C22.5908 3.5267 22.7005 3.35026 22.8388 3.20187ZM12.7288 4.94412C12.7288 4.68075 12.789 4.42144 12.904 4.18917C13.019 3.95689 13.1852 3.75882 13.3881 3.6125C13.5909 3.46618 13.824 3.37612 14.0667 3.35031C14.3095 3.32449 14.5544 3.36371 14.7797 3.4645C15.0051 3.56529 15.204 3.72453 15.3587 3.92812C15.5134 4.13171 15.6193 4.37336 15.6669 4.63167C15.7145 4.88998 15.7023 5.15698 15.6315 5.40901C15.5607 5.66104 15.4334 5.89032 15.2609 6.07655C15.0535 6.30048 14.7892 6.45296 14.5015 6.51473C14.2138 6.5765 13.9156 6.54477 13.6446 6.42356C13.3736 6.30235 13.142 6.09711 12.979 5.83377C12.816 5.57044 12.7289 5.26084 12.7288 4.94412ZM39.2905 35.3756C38.5202 38.369 37.7923 41.1748 37.6572 43.6175C37.4863 45.5285 37.4554 53.6529 37.4504 56.7124H17.9087L17.6307 52.2811C17.613 52.0017 17.498 51.74 17.3088 51.5485C17.1196 51.357 16.8702 51.25 16.6109 51.2489L9.18258 51.1868C9.11376 51.1861 9.04719 51.1602 8.99387 51.1132C8.94055 51.0662 8.90366 51.001 8.8893 50.9284L7.25623 42.4399C7.20774 42.1873 7.07938 41.9607 6.89315 41.7991C6.70692 41.6374 6.47442 41.5508 6.23549 41.5539L2.343 41.6028C2.29318 41.6036 2.24396 41.5911 2.19978 41.5662C2.15559 41.5413 2.11784 41.505 2.08991 41.4604C2.06131 41.4164 2.04354 41.3652 2.03827 41.3117C2.033 41.2582 2.0404 41.2041 2.05977 41.1545L7.16491 27.685C7.22495 27.5539 7.2614 27.4117 7.27233 27.2659V22.5015H40.7692C41.7195 25.9782 40.4859 30.7315 39.2905 35.3756Z"></path></mask><path d="M41.4964 20.2764H29.4261V15.409H33.5631C33.6958 15.4129 33.8278 15.388 33.9513 15.3356C34.0748 15.2833 34.1872 15.2046 34.2819 15.1043C34.3767 15.004 34.4517 14.8841 34.5026 14.7518C34.5535 14.6196 34.5792 14.4775 34.5781 14.3343V8.60732C35.1342 8.41572 35.6418 8.0881 36.0614 7.64997C36.5545 7.11528 36.8898 6.43483 37.0251 5.69452C37.1604 4.95421 37.0894 4.18723 36.8213 3.4904C36.5532 2.79357 36.0999 2.19813 35.5186 1.77924C34.9373 1.36035 34.2541 1.1368 33.5552 1.1368C32.8564 1.1368 32.1732 1.36035 31.5919 1.77924C31.0106 2.19813 30.5573 2.79357 30.2891 3.4904C30.021 4.18723 29.9501 4.95421 30.0854 5.69452C30.2206 6.43483 30.556 7.11528 31.0491 7.64997C31.4632 8.08758 31.9659 8.41531 32.5174 8.60732V13.1839H28.4425C28.1608 13.1905 27.8921 13.3135 27.6917 13.5274C27.4913 13.7414 27.3745 14.0302 27.3653 14.3343V20.2764H24.918V7.99445C25.4754 7.81281 25.9824 7.48495 26.3937 7.04016C26.9428 6.44824 27.2971 5.67822 27.4021 4.84812C27.5071 4.01802 27.3571 3.17364 26.9751 2.44439C26.5931 1.71514 26.0002 1.14126 25.2872 0.810703C24.5742 0.480143 23.7804 0.411143 23.0277 0.614279C22.2749 0.817414 21.6045 1.28148 21.1194 1.93534C20.6342 2.58921 20.3611 3.3968 20.3417 4.23435C20.3224 5.0719 20.5579 5.89318 21.0123 6.57234C21.4667 7.2515 22.1147 7.75106 22.8572 7.99445V20.2764H20.41V14.3343C20.4008 14.0302 20.284 13.7414 20.0836 13.5274C19.8832 13.3135 19.6145 13.1905 19.3327 13.1839H15.258V8.60732C15.8095 8.41536 16.3122 8.08763 16.7263 7.64997C17.2245 7.11436 17.5642 6.43114 17.7025 5.68687C17.8408 4.9426 17.7713 4.17076 17.503 3.46914C17.2346 2.76752 16.7794 2.16768 16.1951 1.74562C15.6107 1.32355 14.9235 1.09825 14.2204 1.09825C13.5174 1.09825 12.8301 1.32355 12.2458 1.74562C11.6614 2.16768 11.2062 2.76752 10.9379 3.46914C10.6695 4.17076 10.6001 4.9426 10.7384 5.68687C10.8766 6.43114 11.2164 7.11436 11.7145 7.64997C12.134 8.08797 12.6413 8.41559 13.1972 8.60732V14.3343C13.1961 14.4775 13.2218 14.6196 13.2727 14.7518C13.3236 14.8841 13.3986 15.004 13.4933 15.1043C13.588 15.2046 13.7005 15.2833 13.824 15.3356C13.9475 15.388 14.0795 15.4129 14.2121 15.409H18.3492V20.2764H6.17881C6.04912 20.2725 5.92007 20.2975 5.79975 20.3499C5.67944 20.4023 5.57045 20.481 5.47963 20.5811C5.38881 20.6811 5.31811 20.8004 5.27198 20.9313C5.22584 21.0622 5.20526 21.202 5.21152 21.342V27.0479L0.182237 40.3162C0.0328165 40.7013 -0.0261351 41.1203 0.0106274 41.5359C0.04739 41.9516 0.178726 42.351 0.392954 42.6986C0.607181 43.0462 0.897658 43.3312 1.23854 43.5284C1.57943 43.7255 1.96016 43.8286 2.34686 43.8285H2.37095L5.41309 43.7904L6.87241 51.3826C6.98435 51.9522 7.27245 52.4637 7.68934 52.833C8.10623 53.2024 8.62711 53.4076 9.16635 53.4149L15.6392 53.4705L15.9176 57.9102C15.9355 58.1905 16.0519 58.4529 16.2428 58.6437C16.4338 58.8346 16.685 58.9397 16.9453 58.9375H38.479C38.6138 58.9387 38.7474 58.911 38.8723 58.8562C38.9972 58.8014 39.1108 58.7204 39.2066 58.618C39.3023 58.5156 39.3784 58.3937 39.4304 58.2594C39.4823 58.1251 39.5092 57.981 39.5094 57.8355C39.5094 57.7169 39.5117 45.9501 39.71 43.8089C39.7113 43.7935 39.7125 43.7811 39.7134 43.7654C39.8324 41.5542 40.5337 38.8312 41.2761 35.9467C42.6463 30.6231 44.063 25.1438 42.4478 20.9387C42.3686 20.7383 42.2356 20.5682 42.066 20.4502C41.8965 20.3322 41.6981 20.2717 41.4964 20.2764ZM32.5143 6.07655C32.2717 5.81457 32.1207 5.46987 32.0871 5.10117C32.0535 4.73247 32.1393 4.36259 32.3299 4.05455C32.5206 3.74651 32.8042 3.51937 33.1326 3.41183C33.4609 3.30429 33.8137 3.32301 34.1307 3.46479C34.4477 3.60656 34.7094 3.86264 34.8711 4.18937C35.0329 4.51611 35.0847 4.89329 35.0178 5.25665C34.9508 5.62002 34.7693 5.94708 34.504 6.18212C34.2388 6.41715 33.9063 6.54562 33.5631 6.54563C33.3683 6.5462 33.1753 6.50504 32.9952 6.42452C32.8152 6.344 32.6517 6.22573 32.5143 6.07655ZM22.8388 3.20187C23.0462 2.97789 23.3105 2.82536 23.5983 2.76356C23.886 2.70177 24.1842 2.73348 24.4553 2.8547C24.7263 2.97591 24.958 3.18118 25.1209 3.44455C25.2839 3.70792 25.3709 4.01755 25.3709 4.3343C25.3709 4.65105 25.2839 4.96069 25.1209 5.22406C24.958 5.48743 24.7263 5.6927 24.4553 5.81391C24.1842 5.93512 23.886 5.96684 23.5983 5.90504C23.3105 5.84325 23.0462 5.69071 22.8388 5.46674C22.7005 5.31835 22.5908 5.14191 22.5159 4.94756C22.441 4.75321 22.4025 4.5448 22.4025 4.3343C22.4025 4.12381 22.441 3.91539 22.5159 3.72105C22.5908 3.5267 22.7005 3.35026 22.8388 3.20187ZM12.7288 4.94412C12.7288 4.68075 12.789 4.42144 12.904 4.18917C13.019 3.95689 13.1852 3.75882 13.3881 3.6125C13.5909 3.46618 13.824 3.37612 14.0667 3.35031C14.3095 3.32449 14.5544 3.36371 14.7797 3.4645C15.0051 3.56529 15.204 3.72453 15.3587 3.92812C15.5134 4.13171 15.6193 4.37336 15.6669 4.63167C15.7145 4.88998 15.7023 5.15698 15.6315 5.40901C15.5607 5.66104 15.4334 5.89032 15.2609 6.07655C15.0535 6.30048 14.7892 6.45296 14.5015 6.51473C14.2138 6.5765 13.9156 6.54477 13.6446 6.42356C13.3736 6.30235 13.142 6.09711 12.979 5.83377C12.816 5.57044 12.7289 5.26084 12.7288 4.94412ZM39.2905 35.3756C38.5202 38.369 37.7923 41.1748 37.6572 43.6175C37.4863 45.5285 37.4554 53.6529 37.4504 56.7124H17.9087L17.6307 52.2811C17.613 52.0017 17.498 51.74 17.3088 51.5485C17.1196 51.357 16.8702 51.25 16.6109 51.2489L9.18258 51.1868C9.11376 51.1861 9.04719 51.1602 8.99387 51.1132C8.94055 51.0662 8.90366 51.001 8.8893 50.9284L7.25623 42.4399C7.20774 42.1873 7.07938 41.9607 6.89315 41.7991C6.70692 41.6374 6.47442 41.5508 6.23549 41.5539L2.343 41.6028C2.29318 41.6036 2.24396 41.5911 2.19978 41.5662C2.15559 41.5413 2.11784 41.505 2.08991 41.4604C2.06131 41.4164 2.04354 41.3652 2.03827 41.3117C2.033 41.2582 2.0404 41.2041 2.05977 41.1545L7.16491 27.685C7.22495 27.5539 7.2614 27.4117 7.27233 27.2659V22.5015H40.7692C41.7195 25.9782 40.4859 30.7315 39.2905 35.3756Z" fill="white" stroke="black" stroke-width="1.2" mask="url(#path-1-inside-1_479_9793)"></path><circle cx="14.2149" cy="4.95215" r="2.90234" stroke="black" stroke-width="1.5"></circle><circle cx="14.2149" cy="4.95215" r="2.90234" stroke="url(#paint0_linear_479_9793)" stroke-width="1.5"></circle><circle cx="23.9323" cy="4.35254" r="2.90234" stroke="black" stroke-width="1.5"></circle><circle cx="23.9323" cy="4.35254" r="2.90234" stroke="url(#paint1_linear_479_9793)" stroke-width="1.5"></circle><circle cx="33.6523" cy="4.95215" r="2.85234" stroke="black" stroke-width="1.6"></circle><circle cx="33.6523" cy="4.95215" r="2.85234" stroke="url(#paint2_linear_479_9793)" stroke-width="1.6"></circle><defs><linearGradient id="paint0_linear_479_9793" x1="13.0075" y1="3.79878" x2="20.6112" y2="10.4121" gradientUnits="userSpaceOnUse"><stop offset="0.236106" stop-color="#DA291C"></stop><stop offset="1" stop-color="#FFCD00"></stop></linearGradient><linearGradient id="paint1_linear_479_9793" x1="22.7249" y1="3.19917" x2="30.3287" y2="9.81251" gradientUnits="userSpaceOnUse"><stop offset="0.236106" stop-color="#DA291C"></stop><stop offset="1" stop-color="#FFCD00"></stop></linearGradient><linearGradient id="paint2_linear_479_9793" x1="32.4449" y1="3.79878" x2="40.0487" y2="10.4121" gradientUnits="userSpaceOnUse"><stop offset="0.236106" stop-color="#DA291C"></stop><stop offset="1" stop-color="#FFCD00"></stop></linearGradient></defs></svg> 