<?xml version="1.0" encoding="UTF-8"?> <svg xmlns="http://www.w3.org/2000/svg" width="64" height="64" viewBox="0 0 64 64" fill="none"><path d="M26 57L27 51" stroke="#37464C" stroke-linecap="round" stroke-linejoin="round"></path><path d="M41 57H23" stroke="#37464C" stroke-linecap="round" stroke-linejoin="round"></path><path d="M37 51L38 57" stroke="#37464C" stroke-linecap="round" stroke-linejoin="round"></path><path d="M16 15H10C8.34 15 7 16.34 7 18V48C7 49.66 8.34 51 10 51H54C55.66 51 57 49.66 57 48V18C57 16.34 55.66 15 54 15H50" stroke="#37464C" stroke-linecap="round" stroke-linejoin="round"></path><path d="M7 45H57" stroke="#37464C" stroke-linejoin="round"></path><path d="M45 39C46.1046 39 47 38.1046 47 37C47 35.8954 46.1046 35 45 35C43.8954 35 43 35.8954 43 37C43 38.1046 43.8954 39 45 39Z" stroke="#37464C" stroke-linejoin="round"></path><path d="M43 37H39C37.9 37 37 36.1 37 35V33M40.0874 26.4945V16.6231L31.5 11.6973L22.8929 16.6231V26.4945L31.5 31.4203L40.0874 26.4945Z" stroke="#DA291C" stroke-linecap="round" stroke-linejoin="round"></path><path d="M17 39C18.1046 39 19 38.1046 19 37C19 35.8954 18.1046 35 17 35C15.8954 35 15 35.8954 15 37C15 38.1046 15.8954 39 17 39Z" stroke="#37464C" stroke-linejoin="round"></path><path d="M19 37H23C24.1 37 25 36.1 25 35V33" stroke="#37464C" stroke-linecap="round" stroke-linejoin="round"></path><path d="M31 41C32.1046 41 33 40.1046 33 39C33 37.8954 32.1046 37 31 37C29.8954 37 29 37.8954 29 39C29 40.1046 29.8954 41 31 41Z" stroke="#37464C" stroke-linejoin="round"></path></svg> 