<?xml version="1.0" encoding="UTF-8"?> <svg xmlns="http://www.w3.org/2000/svg" width="64" height="64" viewBox="0 0 64 64" fill="none"><g clip-path="url(#clip0_1373_28343)"><path d="M43.4236 38.7162C50.1266 32.0132 52.5339 22.6523 50.6635 14.0251C50.4935 13.2555 49.9029 12.6649 49.1422 12.5038C40.5151 10.6334 31.1541 13.0497 24.4511 19.7437C21.8379 22.3569 19.887 25.3728 18.5804 28.5946C18.2851 29.3284 18.4372 30.1607 18.9921 30.7245L32.4428 44.1753C32.9977 44.7301 33.8389 44.8912 34.5727 44.5869C37.7945 43.2803 40.8104 41.3294 43.4236 38.7162V38.7162Z" stroke="white" stroke-linecap="round" stroke-linejoin="round"></path><path d="M42.1438 48.3992C45.2403 45.3028 46.2158 40.846 45.0613 36.8994C44.5422 37.5259 44.0053 38.1344 43.4146 38.7251C40.4703 41.6694 37.0069 43.7725 33.3288 45.0612L39.4054 51.1377L42.1438 48.3992V48.3992Z" stroke="white" stroke-linecap="round" stroke-linejoin="round"></path><path d="M24.4511 19.7438C25.0328 19.1621 25.6503 18.6162 26.2767 18.0972C22.3301 16.9427 17.8734 17.9182 14.7769 21.0146L12.0385 23.7531L18.115 29.8297C19.4037 26.1426 21.5068 22.6881 24.4511 19.7438V19.7438Z" stroke="white" stroke-linecap="round" stroke-linejoin="round"></path><path d="M18.8757 30.5991C18.1866 32.5769 17.766 34.6352 17.6049 36.7025L26.4647 45.5623C28.532 45.4012 30.5903 44.9806 32.5681 44.2915L18.8757 30.5991V30.5991Z" stroke="white" stroke-linecap="round" stroke-linejoin="round"></path><path d="M17.5748 36.6843L15.0516 39.2109L15.115 39.2742L17.6381 36.7475L17.5748 36.6843Z" stroke="white" stroke-linecap="round" stroke-linejoin="round"></path><path d="M26.4272 45.5264L23.9005 48.0496L23.9638 48.1129L26.4904 45.5897L26.4272 45.5264Z" stroke="white" stroke-linecap="round" stroke-linejoin="round"></path><path d="M19.4805 43.635L15.6963 47.4192L15.7596 47.4825L19.5438 43.6983L19.4805 43.635Z" stroke="white" stroke-linecap="round" stroke-linejoin="round"></path><path d="M21.3779 50.578L20.7442 51.21L20.8074 51.2733L21.4411 50.6414L21.3779 50.578Z" stroke="white" stroke-linecap="round" stroke-linejoin="round"></path><path d="M12.5323 41.7224L11.8995 42.3552L11.9628 42.4185L12.5956 41.7857L12.5323 41.7224Z" stroke="white" stroke-linecap="round" stroke-linejoin="round"></path><path d="M13.1742 49.9354L11.9158 51.1956L11.9791 51.2588L13.2375 49.9986L13.1742 49.9354Z" stroke="white" stroke-linecap="round" stroke-linejoin="round"></path><path d="M32.6576 34.2952L28.872 30.5097L35.1813 24.2004L33.284 22.3121L41.4547 21.6499L40.8551 29.8832L38.9668 27.986L32.6576 34.2952Z" stroke="black" stroke-linecap="round" stroke-linejoin="round"></path><path d="M32.6576 34.2952L28.872 30.5097L35.1813 24.2004L33.284 22.3121L41.4547 21.6499L40.8551 29.8832L38.9668 27.986L32.6576 34.2952Z" stroke="url(#paint0_linear_1373_28343)" stroke-linecap="round" stroke-linejoin="round"></path></g><defs><linearGradient id="paint0_linear_1373_28343" x1="33.0835" y1="25.9759" x2="46.2374" y2="37.3598" gradientUnits="userSpaceOnUse"><stop offset="0.236106" stop-color="#DA291C"></stop><stop offset="1" stop-color="#FFCD00"></stop></linearGradient><clipPath id="clip0_1373_28343"><rect width="41.1667" height="41.1667" fill="white" transform="translate(11.0003 11.0002)"></rect></clipPath></defs></svg> 