<?xml version="1.0" encoding="UTF-8"?> <svg xmlns="http://www.w3.org/2000/svg" width="64" height="64" viewBox="0 0 64 64" fill="none"><g clip-path="url(#clip0_1531_32839)"><path d="M42.2101 5.75684H31.05V11.255H42.2101V5.75684Z" stroke="black" stroke-linecap="round" stroke-linejoin="round"></path><path d="M17.64 28.0312V8.14331H31.05" stroke="black" stroke-linecap="round" stroke-linejoin="round"></path><path d="M42.21 9.98608H45.23V13.4904H28.15V9.98608H31.05" stroke="black" stroke-linecap="round" stroke-linejoin="round"></path><path d="M42.33 8.14331H55.74V58.0897H33.36" stroke="black" stroke-linecap="round" stroke-linejoin="round"></path><path d="M22.76 18.8979H50.5" stroke="black" stroke-linecap="round" stroke-linejoin="round"></path><path d="M22.76 25.0105H50.5" stroke="black" stroke-linecap="round" stroke-linejoin="round"></path><path d="M22.76 31.1328H50.5" stroke="black" stroke-linecap="round" stroke-linejoin="round"></path><path d="M33.36 37.2554H50.5" stroke="black" stroke-linecap="round" stroke-linejoin="round"></path><path d="M33.36 43.3677H50.5" stroke="black" stroke-linecap="round" stroke-linejoin="round"></path><path d="M33.36 49.4902H50.5" stroke="black" stroke-linecap="round" stroke-linejoin="round"></path><path d="M22.13 39.0879C22.13 41.5651 20.08 43.5891 17.57 43.5891C15.06 43.5891 13.01 41.5751 13.01 39.0879C13.01 36.6006 15.06 34.5867 17.57 34.5867C20.08 34.5867 22.13 36.6006 22.13 39.0879Z" stroke="black" stroke-linecap="round" stroke-linejoin="round"></path><path d="M22.13 39.0879C22.13 41.5651 20.08 43.5891 17.57 43.5891C15.06 43.5891 13.01 41.5751 13.01 39.0879C13.01 36.6006 15.06 34.5867 17.57 34.5867C20.08 34.5867 22.13 36.6006 22.13 39.0879Z" stroke="url(#paint0_linear_1531_32839)" stroke-linecap="round" stroke-linejoin="round"></path><path d="M27.15 58.0896V51.2925C27.15 49.2785 25.49 47.6472 23.45 47.6472H11.7C9.65001 47.6472 8 49.2785 8 51.2925V58.0896" stroke="black" stroke-linecap="round" stroke-linejoin="round"></path><path d="M27.15 58.0896V51.2925C27.15 49.2785 25.49 47.6472 23.45 47.6472H11.7C9.65001 47.6472 8 49.2785 8 51.2925V58.0896" stroke="url(#paint1_linear_1531_32839)" stroke-linecap="round" stroke-linejoin="round"></path><path d="M13.11 53.4778V58.0898" stroke="black" stroke-linecap="round" stroke-linejoin="round"></path><path d="M13.11 53.4778V58.0898" stroke="url(#paint2_linear_1531_32839)" stroke-linecap="round" stroke-linejoin="round"></path><path d="M22.04 58.0898V53.4778" stroke="black" stroke-linecap="round" stroke-linejoin="round"></path><path d="M22.04 58.0898V53.4778" stroke="url(#paint3_linear_1531_32839)" stroke-linecap="round" stroke-linejoin="round"></path><path d="M13.11 54.7869V58.0898" stroke="black" stroke-linecap="round" stroke-linejoin="round"></path><path d="M13.11 54.7869V58.0898" stroke="url(#paint4_linear_1531_32839)" stroke-linecap="round" stroke-linejoin="round"></path><path d="M22.04 58.0898V54.7869" stroke="black" stroke-linecap="round" stroke-linejoin="round"></path><path d="M22.04 58.0898V54.7869" stroke="url(#paint5_linear_1531_32839)" stroke-linecap="round" stroke-linejoin="round"></path></g><defs><linearGradient id="paint0_linear_1531_32839" x1="16.0625" y1="37.6664" x2="25.4496" y2="45.9375" gradientUnits="userSpaceOnUse"><stop offset="0.236106" stop-color="#DA291C"></stop><stop offset="1" stop-color="#FFCD00"></stop></linearGradient><linearGradient id="paint1_linear_1531_32839" x1="14.4095" y1="51.2196" x2="24.2892" y2="66.9775" gradientUnits="userSpaceOnUse"><stop offset="0.236106" stop-color="#DA291C"></stop><stop offset="1" stop-color="#FFCD00"></stop></linearGradient><linearGradient id="paint2_linear_1531_32839" x1="13.4447" y1="55.0556" x2="15.2103" y2="55.3885" gradientUnits="userSpaceOnUse"><stop offset="0.236106" stop-color="#DA291C"></stop><stop offset="1" stop-color="#FFCD00"></stop></linearGradient><linearGradient id="paint3_linear_1531_32839" x1="22.3747" y1="55.0556" x2="24.1403" y2="55.3885" gradientUnits="userSpaceOnUse"><stop offset="0.236106" stop-color="#DA291C"></stop><stop offset="1" stop-color="#FFCD00"></stop></linearGradient><linearGradient id="paint4_linear_1531_32839" x1="13.4447" y1="55.9168" x2="15.1545" y2="56.367" gradientUnits="userSpaceOnUse"><stop offset="0.236106" stop-color="#DA291C"></stop><stop offset="1" stop-color="#FFCD00"></stop></linearGradient><linearGradient id="paint5_linear_1531_32839" x1="22.3747" y1="55.9168" x2="24.0846" y2="56.367" gradientUnits="userSpaceOnUse"><stop offset="0.236106" stop-color="#DA291C"></stop><stop offset="1" stop-color="#FFCD00"></stop></linearGradient><clipPath id="clip0_1531_32839"><rect width="64" height="64" fill="white"></rect></clipPath></defs></svg> 