<?xml version="1.0" encoding="UTF-8"?> <svg xmlns="http://www.w3.org/2000/svg" width="64" height="64" viewBox="0 0 64 64" fill="none"><path d="M12.4956 22.8231L13.2333 32.8416C13.3338 34.0353 14.95 35.0747 16.2442 35.2625C16.3045 35.2692 16.3582 35.2759 16.4118 35.2826L17.3976 48.6273C17.4378 49.1503 17.8804 49.5795 18.3968 49.5795H23.7145C24.2242 49.5795 24.6735 49.1503 24.7137 48.6273L25.6995 35.2826C25.7531 35.2826 25.8135 35.2692 25.8671 35.2625C27.1614 35.0747 28.7708 34.0353 28.8781 32.8484L29.609 22.9974C29.609 22.9169 29.609 22.8566 29.609 22.8298C29.609 20.8649 28.06 19.2354 26.1622 19.1885H15.9424C14.0312 19.2354 12.4889 20.8649 12.4889 22.8231H12.4956Z" stroke="white" stroke-linecap="round" stroke-linejoin="round"></path><path d="M21.0523 16.4927C22.8494 16.4927 24.3113 15.0308 24.3113 13.2337C24.3113 11.4365 22.8494 9.97461 21.0523 9.97461C19.2551 9.97461 17.7932 11.4365 17.7932 13.2337C17.7932 15.0308 19.2551 16.4927 21.0523 16.4927Z" stroke="white" stroke-linecap="round" stroke-linejoin="round"></path><path d="M21.0591 34.3506V49.1639" stroke="white" stroke-linecap="round" stroke-linejoin="round"></path><path d="M25.6995 35.2823L26.5243 24.1572" stroke="white" stroke-linecap="round" stroke-linejoin="round"></path><path d="M16.4119 35.2823L15.587 24.1572" stroke="white" stroke-linecap="round" stroke-linejoin="round"></path><path d="M51.4635 22.8231L50.7258 32.8416C50.6253 34.0353 49.0091 35.0747 47.7149 35.2625C47.6546 35.2692 47.6009 35.2759 47.5473 35.2826L46.5615 48.6273C46.5213 49.1503 46.0787 49.5795 45.5623 49.5795H40.2446C39.7349 49.5795 39.2856 49.1503 39.2454 48.6273L38.2596 35.2826C38.206 35.2826 38.1456 35.2692 38.092 35.2625C36.7977 35.0747 35.1883 34.0353 35.081 32.8484L34.3501 22.9974C34.3501 22.9169 34.3501 22.8566 34.3501 22.8298C34.3501 20.8649 35.8991 19.2354 37.7969 19.1885H48.0167C49.9279 19.2354 51.4702 20.8649 51.4702 22.8231H51.4635Z" stroke="white" stroke-linecap="round" stroke-linejoin="round"></path><path d="M42.9002 16.4927C41.103 16.4927 39.6411 15.0308 39.6411 13.2337C39.6411 11.4365 41.103 9.97461 42.9002 9.97461C44.6974 9.97461 46.1592 11.4365 46.1592 13.2337C46.1592 15.0308 44.6974 16.4927 42.9002 16.4927Z" stroke="white" stroke-linecap="round" stroke-linejoin="round"></path><path d="M42.9001 34.3506V49.1639" stroke="white" stroke-linecap="round" stroke-linejoin="round"></path><path d="M38.2596 35.2823L37.4348 24.1572" stroke="white" stroke-linecap="round" stroke-linejoin="round"></path><path d="M47.5474 35.2823L48.3722 24.1572" stroke="white" stroke-linecap="round" stroke-linejoin="round"></path><path d="M29.3207 56.0714C28.2679 56.0714 27.3425 55.1996 27.2687 54.1334L26.3433 41.5867C24.8144 41.1307 23.2452 39.9169 23.1044 38.3678L22.3667 28.5035C22.36 28.3426 22.3667 28.2554 22.3667 28.2017C22.3667 25.7071 24.3785 23.6082 26.8463 23.5479H37.0929C39.5874 23.6082 41.6059 25.7139 41.6059 28.2487V28.3359L40.8683 38.341C40.7342 39.9102 39.1583 41.1307 37.6293 41.5867L36.7039 54.1334C36.6302 55.1996 35.7047 56.0714 34.6519 56.0714H29.3342H29.3207Z" fill="black"></path><path d="M37.0861 24.0508C39.3058 24.1045 41.103 25.9888 41.103 28.2487C41.103 28.2621 41.103 28.2755 41.103 28.2889L40.3653 38.3075C40.2446 39.6956 38.6553 40.8692 37.1532 41.191L36.201 54.0999C36.1406 54.9113 35.4432 55.5684 34.6519 55.5684H29.3341C28.5361 55.5684 27.8387 54.9113 27.7784 54.0999L26.8261 41.1977C25.324 40.8692 23.7347 39.7023 23.614 38.3276L22.8831 28.47C22.8831 28.3493 22.8831 28.2755 22.8831 28.2286C22.8831 25.9955 24.6736 24.1112 26.8731 24.0575H37.1062M37.1197 23.0516H26.8731C24.117 23.1187 21.8906 25.4322 21.8772 28.2085C21.8772 28.2688 21.8772 28.3761 21.8772 28.5236L22.6148 38.4014C22.7624 40.0711 24.298 41.3855 25.8806 41.9622L26.7859 54.1736C26.8865 55.5215 28.0064 56.5743 29.3408 56.5743H34.6586C35.973 56.5743 37.1197 55.4947 37.2135 54.1736L38.1188 41.9622C39.7081 41.3855 41.2371 40.0645 41.3846 38.3947L42.1223 28.3627C42.1223 28.3627 42.1223 28.2956 42.1223 28.2487C42.1223 25.4456 39.8825 23.1187 37.1264 23.0449H37.113L37.1197 23.0516Z" fill="black"></path><path d="M31.9762 23.213C29.4682 23.213 27.4229 21.1744 27.4229 18.6597C27.4229 16.145 29.4682 14.1064 31.9762 14.1064C34.4842 14.1064 36.5295 16.145 36.5295 18.6597C36.5295 21.1744 34.4842 23.213 31.9762 23.213Z" fill="black"></path><path d="M31.9762 14.8434C34.0819 14.8434 35.7919 16.5534 35.7919 18.6591C35.7919 20.7647 34.0819 22.4747 31.9762 22.4747C29.8706 22.4747 28.1606 20.7647 28.1606 18.6591C28.1606 16.5534 29.8706 14.8434 31.9762 14.8434ZM31.9762 13.3682C29.0592 13.3682 26.6853 15.742 26.6853 18.6591C26.6853 21.5761 29.0592 23.95 31.9762 23.95C34.8933 23.95 37.2672 21.5761 37.2672 18.6591C37.2672 15.742 34.8933 13.3682 31.9762 13.3682Z" fill="black"></path><path d="M40.5397 28.2479L39.802 38.2665C39.7015 39.4601 38.0853 40.4995 36.7911 40.6873C36.7307 40.694 36.6771 40.7007 36.6234 40.7074L35.6377 54.0521C35.5974 54.5752 35.1549 55.0043 34.6385 55.0043H29.3207C28.8111 55.0043 28.3618 54.5752 28.3216 54.0521L27.3358 40.7074C27.2822 40.7074 27.2218 40.694 27.1682 40.6873C25.8739 40.4928 24.2645 39.4601 24.1572 38.2732L23.4263 28.4222C23.4263 28.3417 23.4263 28.2814 23.4263 28.2546C23.4263 26.2897 24.9753 24.6602 26.8731 24.6133H37.0929C39.004 24.6602 40.5464 26.2898 40.5464 28.2479H40.5397Z" stroke="white" stroke-linecap="round" stroke-linejoin="round"></path><path d="M31.9763 21.9176C30.1792 21.9176 28.7173 20.4556 28.7173 18.6585C28.7173 16.8613 30.1792 15.3994 31.9763 15.3994C33.7735 15.3994 35.2354 16.8613 35.2354 18.6585C35.2354 20.4556 33.7735 21.9176 31.9763 21.9176Z" stroke="white" stroke-linecap="round" stroke-linejoin="round"></path><path d="M31.9763 39.7686V54.5885" stroke="white" stroke-linecap="round" stroke-linejoin="round"></path><path d="M27.3358 40.7079L26.511 29.5762" stroke="white" stroke-linecap="round" stroke-linejoin="round"></path><path d="M36.6235 40.7079L37.4484 29.5762" stroke="white" stroke-linecap="round" stroke-linejoin="round"></path><path d="M40.5397 28.2479L39.802 38.2665C39.7015 39.4601 38.0853 40.4995 36.7911 40.6873C36.7307 40.694 36.6771 40.7007 36.6234 40.7074L35.6377 54.0521C35.5974 54.5752 35.1549 55.0043 34.6385 55.0043H29.3207C28.8111 55.0043 28.3618 54.5752 28.3216 54.0521L27.3358 40.7074C27.2822 40.7074 27.2218 40.694 27.1682 40.6873C25.8739 40.4928 24.2645 39.4601 24.1572 38.2732L23.4263 28.4222C23.4263 28.3417 23.4263 28.2814 23.4263 28.2546C23.4263 26.2897 24.9753 24.6602 26.8731 24.6133H37.0929C39.004 24.6602 40.5464 26.2898 40.5464 28.2479H40.5397Z" stroke="black" stroke-linecap="round" stroke-linejoin="round"></path><path d="M40.5397 28.2479L39.802 38.2665C39.7015 39.4601 38.0853 40.4995 36.7911 40.6873C36.7307 40.694 36.6771 40.7007 36.6234 40.7074L35.6377 54.0521C35.5974 54.5752 35.1549 55.0043 34.6385 55.0043H29.3207C28.8111 55.0043 28.3618 54.5752 28.3216 54.0521L27.3358 40.7074C27.2822 40.7074 27.2218 40.694 27.1682 40.6873C25.8739 40.4928 24.2645 39.4601 24.1572 38.2732L23.4263 28.4222C23.4263 28.3417 23.4263 28.2814 23.4263 28.2546C23.4263 26.2897 24.9753 24.6602 26.8731 24.6133H37.0929C39.004 24.6602 40.5464 26.2898 40.5464 28.2479H40.5397Z" stroke="url(#paint0_linear_506_14174)" stroke-linecap="round" stroke-linejoin="round"></path><path d="M31.9763 21.9176C30.1792 21.9176 28.7173 20.4556 28.7173 18.6585C28.7173 16.8613 30.1792 15.3994 31.9763 15.3994C33.7735 15.3994 35.2354 16.8613 35.2354 18.6585C35.2354 20.4556 33.7735 21.9176 31.9763 21.9176Z" stroke="black" stroke-linecap="round" stroke-linejoin="round"></path><path d="M31.9763 21.9176C30.1792 21.9176 28.7173 20.4556 28.7173 18.6585C28.7173 16.8613 30.1792 15.3994 31.9763 15.3994C33.7735 15.3994 35.2354 16.8613 35.2354 18.6585C35.2354 20.4556 33.7735 21.9176 31.9763 21.9176Z" stroke="url(#paint1_linear_506_14174)" stroke-linecap="round" stroke-linejoin="round"></path><path d="M31.9763 39.7686V54.5885" stroke="black" stroke-linecap="round" stroke-linejoin="round"></path><path d="M31.9763 39.7686V54.5885" stroke="url(#paint2_linear_506_14174)" stroke-linecap="round" stroke-linejoin="round"></path><path d="M27.3358 40.7079L26.511 29.5762" stroke="black" stroke-linecap="round" stroke-linejoin="round"></path><path d="M27.3358 40.7079L26.511 29.5762" stroke="url(#paint3_linear_506_14174)" stroke-linecap="round" stroke-linejoin="round"></path><path d="M36.6235 40.7079L37.4484 29.5762" stroke="black" stroke-linecap="round" stroke-linejoin="round"></path><path d="M36.6235 40.7079L37.4484 29.5762" stroke="url(#paint4_linear_506_14174)" stroke-linecap="round" stroke-linejoin="round"></path><defs><linearGradient id="paint0_linear_506_14174" x1="29.1564" y1="35.0102" x2="54.3989" y2="47.3778" gradientUnits="userSpaceOnUse"><stop offset="0.236106" stop-color="#DA291C"></stop><stop offset="1" stop-color="#FFCD00"></stop></linearGradient><linearGradient id="paint1_linear_506_14174" x1="30.8989" y1="17.6293" x2="37.6839" y2="23.5305" gradientUnits="userSpaceOnUse"><stop offset="0.236106" stop-color="#DA291C"></stop><stop offset="1" stop-color="#FFCD00"></stop></linearGradient><linearGradient id="paint2_linear_506_14174" x1="32.311" y1="44.8385" x2="34.1331" y2="44.9455" gradientUnits="userSpaceOnUse"><stop offset="0.236106" stop-color="#DA291C"></stop><stop offset="1" stop-color="#FFCD00"></stop></linearGradient><linearGradient id="paint3_linear_506_14174" x1="26.7871" y1="33.3844" x2="28.2889" y2="33.4812" gradientUnits="userSpaceOnUse"><stop offset="0.236106" stop-color="#DA291C"></stop><stop offset="1" stop-color="#FFCD00"></stop></linearGradient><linearGradient id="paint4_linear_506_14174" x1="36.8996" y1="33.3844" x2="38.4015" y2="33.4812" gradientUnits="userSpaceOnUse"><stop offset="0.236106" stop-color="#DA291C"></stop><stop offset="1" stop-color="#FFCD00"></stop></linearGradient></defs></svg> 