<?xml version="1.0" encoding="UTF-8"?> <svg xmlns="http://www.w3.org/2000/svg" width="64" height="64" viewBox="0 0 64 64" fill="none"><g clip-path="url(#clip0_1576_35646)"><path d="M54.57 23.02C54.15 22.53 53.54 22.25 52.89 22.25H44V17.37C44 16.06 42.94 15 41.63 15H16.64C15.33 15 14.27 16.06 14.27 17.37V18.88H10.23C9.99998 18.88 9.81998 19.06 9.81998 19.29C9.81998 19.52 9.99998 19.7 10.23 19.7H14.27V23.09H8.98998C8.75998 23.09 8.57998 23.27 8.57998 23.5C8.57998 23.73 8.75998 23.91 8.98998 23.91H14.27V27.3H8.16998C7.93998 27.3 7.75998 27.48 7.75998 27.71C7.75998 27.94 7.93998 28.12 8.16998 28.12H14.27V31.51H6.50998C6.27998 31.51 6.09998 31.69 6.09998 31.92C6.09998 32.15 6.27998 32.33 6.50998 32.33H14.27V41.04C14.27 42.35 15.33 43.41 16.64 43.41H20.59C20.8 45.97 22.94 47.98 25.55 47.98C28.16 47.98 30.3 45.96 30.51 43.41H46.51C46.72 45.97 48.86 47.98 51.47 47.98C54.08 47.98 56.22 45.96 56.43 43.41H58.15C59.05 43.41 59.78 42.68 59.78 41.78V29.91C59.78 29.36 59.58 28.83 59.22 28.42L54.55 23.01L54.57 23.02ZM25.55 47.19C23.26 47.19 21.39 45.32 21.39 43.03C21.39 40.74 23.26 38.87 25.55 38.87C27.84 38.87 29.71 40.74 29.71 43.03C29.71 45.32 27.84 47.19 25.55 47.19ZM43.17 41.08C43.17 41.93 42.48 42.62 41.62 42.62H30.51C30.3 40.07 28.16 38.05 25.55 38.05C22.94 38.05 20.8 40.07 20.59 42.62H16.64C15.79 42.62 15.1 41.93 15.1 41.08V36.2H43.18V41.08H43.17ZM43.17 35.38H15.1V32.37H18.74C18.97 32.37 19.15 32.19 19.15 31.96C19.15 31.73 18.97 31.55 18.74 31.55H15.1V28.16H21.63C21.86 28.16 22.04 27.98 22.04 27.75C22.04 27.52 21.86 27.34 21.63 27.34H15.1V23.95H24.52C24.75 23.95 24.93 23.77 24.93 23.54C24.93 23.31 24.75 23.13 24.52 23.13H15.1V19.74H31.54C31.77 19.74 31.95 19.56 31.95 19.33C31.95 19.1 31.77 18.92 31.54 18.92H15.1V17.41C15.1 16.56 15.79 15.87 16.64 15.87H41.63C42.48 15.87 43.18 16.56 43.18 17.41V35.37L43.17 35.38ZM55.64 43.04C55.64 45.33 53.77 47.2 51.48 47.2C49.19 47.2 47.33 45.34 47.32 43.05C47.32 40.76 49.19 38.9 51.48 38.9C53.77 38.9 55.64 40.76 55.64 43.06V43.04ZM58.97 41.82C58.97 42.26 58.61 42.62 58.17 42.62H56.45C56.24 40.07 54.1 38.05 51.49 38.05C48.88 38.05 46.74 40.07 46.53 42.62H43.43C43.79 42.2 44.01 41.67 44.01 41.08V23.08H52.9C53.3 23.08 53.69 23.26 53.95 23.56L55.37 25.21H48.6C47.95 25.21 47.43 25.74 47.43 26.38V32.08C47.43 32.73 47.96 33.25 48.6 33.25H58.97V41.8V41.82ZM58.97 32.44H48.6C48.41 32.44 48.25 32.28 48.25 32.09V26.39C48.25 26.2 48.41 26.04 48.6 26.04H56.09L58.62 28.97C58.85 29.23 58.97 29.57 58.97 29.92V32.44Z" fill="white"></path><path d="M51.49 40.8599C50.3 40.8599 49.33 41.8299 49.33 43.0199C49.33 44.2099 50.3 45.1799 51.49 45.1799C52.68 45.1799 53.65 44.2099 53.65 43.0199C53.65 41.8299 52.68 40.8599 51.49 40.8599ZM51.49 44.3599C50.75 44.3599 50.15 43.7599 50.15 43.0199C50.15 42.2799 50.75 41.6799 51.49 41.6799C52.23 41.6799 52.83 42.2799 52.83 43.0199C52.83 43.7599 52.23 44.3599 51.49 44.3599Z" fill="black"></path><path d="M51.49 40.8599C50.3 40.8599 49.33 41.8299 49.33 43.0199C49.33 44.2099 50.3 45.1799 51.49 45.1799C52.68 45.1799 53.65 44.2099 53.65 43.0199C53.65 41.8299 52.68 40.8599 51.49 40.8599ZM51.49 44.3599C50.75 44.3599 50.15 43.7599 50.15 43.0199C50.15 42.2799 50.75 41.6799 51.49 41.6799C52.23 41.6799 52.83 42.2799 52.83 43.0199C52.83 43.7599 52.23 44.3599 51.49 44.3599Z" fill="url(#paint0_linear_1576_35646)"></path><path d="M25.55 40.8599C24.36 40.8599 23.39 41.8299 23.39 43.0199C23.39 44.2099 24.36 45.1799 25.55 45.1799C26.74 45.1799 27.71 44.2099 27.71 43.0199C27.71 41.8299 26.74 40.8599 25.55 40.8599ZM25.55 44.3599C24.81 44.3599 24.21 43.7599 24.21 43.0199C24.21 42.2799 24.81 41.6799 25.55 41.6799C26.29 41.6799 26.89 42.2799 26.89 43.0199C26.89 43.7599 26.29 44.3599 25.55 44.3599Z" fill="black"></path><path d="M25.55 40.8599C24.36 40.8599 23.39 41.8299 23.39 43.0199C23.39 44.2099 24.36 45.1799 25.55 45.1799C26.74 45.1799 27.71 44.2099 27.71 43.0199C27.71 41.8299 26.74 40.8599 25.55 40.8599ZM25.55 44.3599C24.81 44.3599 24.21 43.7599 24.21 43.0199C24.21 42.2799 24.81 41.6799 25.55 41.6799C26.29 41.6799 26.89 42.2799 26.89 43.0199C26.89 43.7599 26.29 44.3599 25.55 44.3599Z" fill="url(#paint1_linear_1576_35646)"></path></g><defs><linearGradient id="paint0_linear_1576_35646" x1="50.7759" y1="42.3378" x2="55.2728" y2="46.2489" gradientUnits="userSpaceOnUse"><stop offset="0.236106" stop-color="#DA291C"></stop><stop offset="1" stop-color="#FFCD00"></stop></linearGradient><linearGradient id="paint1_linear_1576_35646" x1="24.8359" y1="42.3378" x2="29.3328" y2="46.2489" gradientUnits="userSpaceOnUse"><stop offset="0.236106" stop-color="#DA291C"></stop><stop offset="1" stop-color="#FFCD00"></stop></linearGradient><clipPath id="clip0_1576_35646"><rect width="53.69" height="33.01" fill="white" transform="translate(6.09998 15)"></rect></clipPath></defs></svg> 