<?xml version="1.0" encoding="UTF-8"?> <svg xmlns="http://www.w3.org/2000/svg" width="64" height="64" viewBox="0 0 64 64" fill="none"><path d="M30.5464 23.5984C28.3918 22.9976 26.8075 21.0372 26.8075 18.6974C26.8075 15.8833 29.0889 13.6067 31.9089 13.6067C34.7289 13.6067 37.0102 15.8833 37.0102 18.6974C37.0102 20.974 35.5052 22.9028 33.4298 23.551" stroke="#253130" stroke-miterlimit="10"></path><path d="M45.4545 44.562L48.3061 50.127" stroke="#253130" stroke-miterlimit="10"></path><path d="M27.9957 21.7485L16.2404 44.5619H20.1218L31.9089 21.6694L43.6959 44.5619H47.5774L35.822 21.7485" stroke="#253130" stroke-miterlimit="10"></path><path d="M18.3633 44.5618L15.5116 50.1268" stroke="#253130" stroke-miterlimit="10"></path><path d="M24.3994 37.321H29.9286" stroke="black" stroke-miterlimit="10"></path><path d="M24.3994 37.321H29.9286" stroke="url(#paint0_linear_1533_33728)" stroke-miterlimit="10"></path><path d="M33.8892 37.321H39.4184" stroke="black" stroke-miterlimit="10"></path><path d="M33.8892 37.321H39.4184" stroke="url(#paint1_linear_1533_33728)" stroke-miterlimit="10"></path><path d="M33.8892 37.3212C33.8892 38.412 33.002 39.2974 31.9089 39.2974C30.8157 39.2974 29.9285 38.412 29.9285 37.3212C29.9285 36.2303 30.8157 35.345 31.9089 35.345C33.002 35.345 33.8892 36.2303 33.8892 37.3212Z" stroke="black" stroke-miterlimit="10"></path><path d="M33.8892 37.3212C33.8892 38.412 33.002 39.2974 31.9089 39.2974C30.8157 39.2974 29.9285 38.412 29.9285 37.3212C29.9285 36.2303 30.8157 35.345 31.9089 35.345C33.002 35.345 33.8892 36.2303 33.8892 37.3212Z" stroke="url(#paint2_linear_1533_33728)" stroke-miterlimit="10"></path><path d="M30.1345 13.3853V10.7451C30.1345 9.76487 30.9267 8.97437 31.9089 8.97437C32.8912 8.97437 33.6833 9.76487 33.6833 10.7451V13.3853" stroke="#253130" stroke-miterlimit="10"></path><path d="M14.9888 39.2498C13.9432 36.9574 13.357 34.4279 13.357 31.7402C13.357 24.0883 18.1098 17.5431 24.843 14.8871L25.3975 14.6658" stroke="#253130" stroke-miterlimit="10"></path><path d="M41.5888 47.1546C38.8164 48.8779 35.5369 49.8581 32.0357 49.8581C28.5344 49.8581 25.4926 48.9412 22.7835 47.3286L21.9597 46.8542" stroke="#253130" stroke-miterlimit="10"></path><path d="M38.9747 15.0454C45.4861 17.7963 50.0647 24.2308 50.0647 31.7404C50.0647 34.1751 49.5894 36.4833 48.7181 38.6018" stroke="#253130" stroke-miterlimit="10"></path><defs><linearGradient id="paint0_linear_1533_33728" x1="26.25" y1="37.6632" x2="26.6691" y2="39.6782" gradientUnits="userSpaceOnUse"><stop offset="0.236106" stop-color="#DA291C"></stop><stop offset="1" stop-color="#FFCD00"></stop></linearGradient><linearGradient id="paint1_linear_1533_33728" x1="35.7398" y1="37.6632" x2="36.1589" y2="39.6782" gradientUnits="userSpaceOnUse"><stop offset="0.236106" stop-color="#DA291C"></stop><stop offset="1" stop-color="#FFCD00"></stop></linearGradient><linearGradient id="paint2_linear_1533_33728" x1="31.2542" y1="36.6971" x2="35.3696" y2="40.284" gradientUnits="userSpaceOnUse"><stop offset="0.236106" stop-color="#DA291C"></stop><stop offset="1" stop-color="#FFCD00"></stop></linearGradient></defs></svg> 