<?xml version="1.0" encoding="UTF-8"?> <svg xmlns="http://www.w3.org/2000/svg" width="64" height="64" viewBox="0 0 64 64" fill="none"><g clip-path="url(#clip0_1576_35616)"><path d="M47.39 33.31C47.52 33.18 50.53 30.11 52.05 25.14C52.95 22.21 53.15 19.22 52.63 16.26C51.99 12.59 50.25 8.97 47.45 5.5" stroke="white" stroke-linecap="round" stroke-linejoin="round"></path><path d="M38.97 25.6298C41.85 22.3398 41.69 19.0898 41.04 16.9398C40.36 14.6598 39.01 13.1498 38.95 13.0898" stroke="white" stroke-linecap="round" stroke-linejoin="round"></path><path d="M43.2999 29.0501C43.3899 28.9601 45.4399 26.7501 46.4699 23.2801C47.4299 20.0501 47.6699 15.0901 43.3399 9.81006" stroke="white" stroke-linecap="round" stroke-linejoin="round"></path><path d="M18.1299 33.31C17.9999 33.18 14.9899 30.11 13.4699 25.14C12.5699 22.21 12.3699 19.22 12.8899 16.26C13.5199 12.58 15.2599 8.97 18.0599 5.5" stroke="white" stroke-linecap="round" stroke-linejoin="round"></path><path d="M26.5499 25.6298C23.6699 22.3398 23.8299 19.0898 24.4799 16.9398C25.1599 14.6598 26.5099 13.1498 26.5699 13.0898" stroke="white" stroke-linecap="round" stroke-linejoin="round"></path><path d="M22.2199 29.0501C22.1299 28.9601 20.0799 26.7501 19.0499 23.2801C18.0899 20.0501 17.8499 15.0901 22.1799 9.81006" stroke="white" stroke-linecap="round" stroke-linejoin="round"></path><path d="M18.1899 58.1402L23.1499 45.6602L45.3599 53.3702L47.2599 58.1402" stroke="white" stroke-miterlimit="10"></path><path d="M37.98 34.79L30.09 31.19L35.48 28.52L37.98 34.79Z" stroke="white" stroke-miterlimit="10"></path><path d="M32.6099 22.0002C32.7099 22.0002 32.7999 22.0002 32.8899 21.9902L34.7699 26.7202L29.6799 29.2502L32.5599 22.0102C32.5599 22.0102 32.5999 22.0102 32.6199 22.0102L32.6099 22.0002Z" stroke="black" stroke-miterlimit="10"></path><path d="M32.6099 22.0002C32.7099 22.0002 32.7999 22.0002 32.8899 21.9902L34.7699 26.7202L29.6799 29.2502L32.5599 22.0102C32.5599 22.0102 32.5999 22.0102 32.6199 22.0102L32.6099 22.0002Z" stroke="url(#paint0_linear_1576_35616)" stroke-miterlimit="10"></path><path d="M28.36 32.5298L37.42 36.6698L24.37 42.5698L28.36 32.5298Z" stroke="white" stroke-miterlimit="10"></path><path d="M25.2 44.3202L39.24 37.9702L44.41 50.9902L25.2 44.3202Z" stroke="white" stroke-miterlimit="10"></path><path d="M32.59 21.7798C33.678 21.7798 34.56 20.8978 34.56 19.8098C34.56 18.7218 33.678 17.8398 32.59 17.8398C31.502 17.8398 30.62 18.7218 30.62 19.8098C30.62 20.8978 31.502 21.7798 32.59 21.7798Z" stroke="black" stroke-miterlimit="10"></path><path d="M32.59 21.7798C33.678 21.7798 34.56 20.8978 34.56 19.8098C34.56 18.7218 33.678 17.8398 32.59 17.8398C31.502 17.8398 30.62 18.7218 30.62 19.8098C30.62 20.8978 31.502 21.7798 32.59 21.7798Z" stroke="url(#paint1_linear_1576_35616)" stroke-miterlimit="10"></path></g><defs><linearGradient id="paint0_linear_1576_35616" x1="31.3836" y1="24.4739" x2="38.1675" y2="28.6106" gradientUnits="userSpaceOnUse"><stop offset="0.236106" stop-color="#DA291C"></stop><stop offset="1" stop-color="#FFCD00"></stop></linearGradient><linearGradient id="paint1_linear_1576_35616" x1="31.9387" y1="19.1877" x2="36.0401" y2="22.7548" gradientUnits="userSpaceOnUse"><stop offset="0.236106" stop-color="#DA291C"></stop><stop offset="1" stop-color="#FFCD00"></stop></linearGradient><clipPath id="clip0_1576_35616"><rect width="41.32" height="53.32" fill="white" transform="translate(12.1 5)"></rect></clipPath></defs></svg> 