<?xml version="1.0" encoding="UTF-8"?> <svg xmlns="http://www.w3.org/2000/svg" width="68" height="64" viewBox="0 0 68 64" fill="none"><g clip-path="url(#clip0_1373_28178)"><path d="M43.7892 23.9138C44.0725 24.732 44.2709 25.5932 44.3559 26.4832" stroke="white" stroke-miterlimit="10"></path><path d="M56.4683 31.3206C56.2983 32.2392 55.9583 33.0861 55.505 33.8612" stroke="white" stroke-miterlimit="10"></path><path d="M26.9167 39.3875H0" stroke="black" stroke-miterlimit="10"></path><path d="M26.9167 39.3875H0" stroke="url(#paint0_linear_1373_28178)" stroke-miterlimit="10"></path><path d="M12.75 46.5645H58.82C63.1125 46.5645 66.5833 43.0621 66.5833 38.7559C66.5833 34.4497 63.1125 30.9473 58.82 30.9473C57.9983 30.9473 57.205 31.0765 56.4542 31.3205C56.5533 30.8325 56.5958 30.3444 56.5958 29.8277C56.5958 25.5071 53.125 22.0191 48.8325 22.0191C46.8917 22.0191 45.1208 22.7368 43.7608 23.9282C42.245 19.5789 38.1367 16.4497 33.3058 16.4497C27.1858 16.4497 22.2133 21.4449 22.2133 27.6172C22.2133 28.7942 22.3975 29.9282 22.7375 30.9904C18.7283 31.2918 15.5692 34.665 15.5692 38.7703" stroke="white" stroke-miterlimit="10"></path><path d="M17 27.9043H4.25" stroke="black" stroke-miterlimit="10"></path><path d="M17 27.9043H4.25" stroke="url(#paint1_linear_1373_28178)" stroke-miterlimit="10"></path></g><defs><linearGradient id="paint0_linear_1373_28178" x1="9.00907" y1="39.7296" x2="9.0987" y2="41.8279" gradientUnits="userSpaceOnUse"><stop offset="0.236106" stop-color="#DA291C"></stop><stop offset="1" stop-color="#FFCD00"></stop></linearGradient><linearGradient id="paint1_linear_1373_28178" x1="8.51745" y1="28.2464" x2="8.7055" y2="30.3316" gradientUnits="userSpaceOnUse"><stop offset="0.236106" stop-color="#DA291C"></stop><stop offset="1" stop-color="#FFCD00"></stop></linearGradient><clipPath id="clip0_1373_28178"><rect width="68" height="33" fill="white" transform="translate(0 15)"></rect></clipPath></defs></svg> 