<?xml version="1.0" encoding="UTF-8"?> <svg xmlns="http://www.w3.org/2000/svg" width="64" height="64" viewBox="0 0 64 64" fill="none"><mask id="path-1-inside-1_497_13421" fill="white"><path d="M45.8752 39.5549L51.9874 18.194C52.0164 18.0791 51.9946 17.9642 51.9292 17.8709C51.8565 17.7704 51.7403 17.7201 51.624 17.7201H18.3012V15.7456C18.3012 14.4244 17.7779 13.1823 16.8331 12.2488L12.6468 8.11309C12.4942 7.9623 12.2616 7.9623 12.109 8.11309C11.9637 8.25669 11.9637 8.49363 12.109 8.64442L16.2953 12.7802C17.102 13.5772 17.5453 14.6255 17.5453 15.7456V40.8832C17.5453 43.4393 19.6384 45.5 22.2112 45.5H46.304C46.5147 45.5 46.6819 45.3349 46.6819 45.1266C46.6819 44.9256 46.5147 44.7533 46.304 44.7533H22.2112C20.1327 44.7533 18.4538 43.1449 18.323 41.1201L45.5263 39.8349C45.6862 39.8205 45.8316 39.7056 45.8752 39.5549ZM18.3012 40.3662V18.4668H51.1225L45.2211 39.0953L18.3012 40.3662Z"></path></mask><path d="M45.8752 39.5549L46.8358 39.8327L46.8366 39.83L45.8752 39.5549ZM51.9874 18.194L52.9488 18.4691L52.953 18.4543L52.9568 18.4393L51.9874 18.194ZM51.9292 17.8709L52.7482 17.297L52.7439 17.291L52.7396 17.285L51.9292 17.8709ZM18.3012 17.7201H17.3012V18.7201H18.3012V17.7201ZM16.8331 12.2488L17.5359 11.5375L16.8331 12.2488ZM12.6468 8.11309L11.944 8.82447L11.944 8.82447L12.6468 8.11309ZM12.109 8.11309L11.4062 7.4017L12.109 8.11309ZM12.109 8.64442L11.3891 9.33845L11.3975 9.34723L11.4062 9.3558L12.109 8.64442ZM16.2953 12.7802L16.9981 12.0688V12.0688L16.2953 12.7802ZM18.323 41.1201L18.2758 40.1212L17.2595 40.1693L17.3251 41.1846L18.323 41.1201ZM45.5263 39.8349L45.5735 40.8338L45.5947 40.8328L45.6158 40.8309L45.5263 39.8349ZM18.3012 40.3662H17.3012V41.4145L18.3483 41.3651L18.3012 40.3662ZM18.3012 18.4668V17.4668H17.3012V18.4668H18.3012ZM51.1225 18.4668L52.0839 18.7419L52.4487 17.4668H51.1225V18.4668ZM45.2211 39.0953L45.2682 40.0942L45.9851 40.0604L46.1825 39.3704L45.2211 39.0953ZM46.8366 39.83L52.9488 18.4691L51.026 17.9189L44.9137 39.2798L46.8366 39.83ZM52.9568 18.4393C53.0568 18.0441 52.9814 17.6299 52.7482 17.297L51.1103 18.4448C51.0078 18.2985 50.9761 18.1141 51.0179 17.9487L52.9568 18.4393ZM52.7396 17.285C52.4555 16.8921 52.0191 16.7201 51.624 16.7201V18.7201C51.4614 18.7201 51.2576 18.6486 51.1188 18.4568L52.7396 17.285ZM51.624 16.7201H18.3012V18.7201H51.624V16.7201ZM19.3012 17.7201V15.7456H17.3012V17.7201H19.3012ZM19.3012 15.7456C19.3012 14.1541 18.6687 12.6566 17.5359 11.5375L16.1303 12.9602C16.8871 13.7079 17.3012 14.6947 17.3012 15.7456H19.3012ZM17.5359 11.5375L13.3496 7.4017L11.944 8.82447L16.1303 12.9602L17.5359 11.5375ZM13.3496 7.4017C12.8075 6.8661 11.9484 6.8661 11.4062 7.4017L12.8118 8.82447C12.5749 9.05851 12.1809 9.05851 11.944 8.82447L13.3496 7.4017ZM11.4062 7.4017C10.8552 7.94606 10.8797 8.81005 11.3891 9.33845L12.829 7.95038C13.0476 8.17722 13.0721 8.56732 12.8118 8.82447L11.4062 7.4017ZM11.4062 9.3558L15.5925 13.4916L16.9981 12.0688L12.8118 7.93303L11.4062 9.3558ZM15.5925 13.4916C16.2126 14.1043 16.5453 14.8978 16.5453 15.7456H18.5453C18.5453 14.3531 17.9913 13.0501 16.9981 12.0688L15.5925 13.4916ZM16.5453 15.7456V40.8832H18.5453V15.7456H16.5453ZM16.5453 40.8832C16.5453 44.003 19.0976 46.5 22.2112 46.5V44.5C20.1793 44.5 18.5453 42.8756 18.5453 40.8832H16.5453ZM22.2112 46.5H46.304V44.5H22.2112V46.5ZM46.304 46.5C47.0555 46.5 47.6819 45.8985 47.6819 45.1266H45.6819C45.6819 44.7712 45.9739 44.5 46.304 44.5V46.5ZM47.6819 45.1266C47.6819 44.3744 47.0681 43.7533 46.304 43.7533V45.7533C45.9614 45.7533 45.6819 45.4768 45.6819 45.1266H47.6819ZM46.304 43.7533H22.2112V45.7533H46.304V43.7533ZM22.2112 43.7533C20.6638 43.7533 19.418 42.5582 19.3209 41.0556L17.3251 41.1846C17.4896 43.7316 19.6015 45.7533 22.2112 45.7533V43.7533ZM18.3702 42.119L45.5735 40.8338L45.4791 38.836L18.2758 40.1212L18.3702 42.119ZM45.6158 40.8309C46.1615 40.7819 46.6709 40.403 46.8358 39.8327L44.9145 39.277C44.9561 39.1332 45.0381 39.0303 45.1201 38.9648C45.2021 38.8993 45.3095 38.8503 45.4369 38.8389L45.6158 40.8309ZM19.3012 40.3662V18.4668H17.3012V40.3662H19.3012ZM18.3012 19.4668H51.1225V17.4668H18.3012V19.4668ZM50.1611 18.1918L44.2596 38.8203L46.1825 39.3704L52.0839 18.7419L50.1611 18.1918ZM45.1739 38.0964L18.254 39.3673L18.3483 41.3651L45.2682 40.0942L45.1739 38.0964Z" fill="white" mask="url(#path-1-inside-1_497_13421)"></path><path d="M41.375 48C39.6514 48 38.25 49.4014 38.25 51.125C38.25 52.8411 39.6514 54.25 41.375 54.25C43.0986 54.25 44.5 52.8411 44.5 51.125C44.5 49.3939 43.1061 48 41.375 48ZM41.375 53.4706C40.086 53.4706 39.0294 52.414 39.0294 51.125C39.0294 49.8285 40.086 48.7794 41.375 48.7794C42.664 48.7794 43.7206 49.8285 43.7206 51.125C43.7206 52.414 42.664 53.4706 41.375 53.4706Z" fill="white"></path><path d="M25.125 48C23.4014 48 22 49.4014 22 51.125C22 52.8411 23.4014 54.25 25.125 54.25C26.8411 54.25 28.25 52.8411 28.25 51.125C28.25 49.3939 26.8486 48 25.125 48ZM25.125 53.4706C23.8285 53.4706 22.7794 52.414 22.7794 51.125C22.7794 49.8285 23.8285 48.7794 25.125 48.7794C26.414 48.7794 27.4706 49.8285 27.4706 51.125C27.4706 52.414 26.414 53.4706 25.125 53.4706Z" fill="white"></path><path d="M33.5488 21.0088H33.5405V23.0819H33.5488V21.0088Z" stroke="white" stroke-linecap="round" stroke-linejoin="round"></path><path d="M26.8018 23.7881L26.7959 23.7939L28.2618 25.2599L28.2677 25.254L26.8018 23.7881Z" stroke="white" stroke-linecap="round" stroke-linejoin="round"></path><path d="M26.0814 30.54H24.0083V30.5483H26.0814V30.54Z" stroke="white" stroke-linecap="round" stroke-linejoin="round"></path><path d="M43.0809 30.54H41.0078V30.5483H43.0809V30.54Z" stroke="white" stroke-linecap="round" stroke-linejoin="round"></path><path d="M40.2863 37.2908L38.8186 35.823H38.8227L39.9878 36.984C40.0666 37.0627 40.1744 37.1042 40.2822 37.1042H40.2905C40.4024 37.1042 40.5019 37.0545 40.5766 36.9757C41.4721 35.9972 42.1438 34.8653 42.5709 33.6131C43.0145 32.3071 43.1679 30.9347 43.0228 29.5374C42.9109 28.4552 42.6165 27.4062 42.1397 26.4236C41.6795 25.4658 41.0617 24.5951 40.3071 23.8322C39.5524 23.0734 38.6859 22.4474 37.7323 21.9788C36.7496 21.4937 35.7047 21.1911 34.6267 21.0708C33.2336 20.9174 31.8612 21.0584 30.5552 21.4854C29.303 21.8959 28.1711 22.5552 27.1843 23.4383C26.1933 24.3256 25.4139 25.3829 24.8666 26.5853C24.2985 27.8291 24.0083 29.1601 24.0083 30.5408C24.0083 32.929 24.8956 35.2135 26.5085 36.9757C26.5831 37.0545 26.6826 37.1001 26.7945 37.1042H26.8028C26.9106 37.1042 27.0184 37.0586 27.0972 36.984L28.2623 35.8189H28.2664L26.7987 37.2908H26.7945L27.035 37.042C26.9645 37.0876 26.8816 37.1125 26.7987 37.1125H26.7904C26.6784 37.1125 26.5748 37.0628 26.5002 36.9798C24.8873 35.2177 24 32.9331 24 30.5408C24 29.1601 24.2902 27.8291 24.8583 26.5811C25.4097 25.3787 26.1892 24.3173 27.1801 23.43C28.1669 22.5469 29.303 21.8876 30.5552 21.4771C31.8612 21.0459 33.2336 20.905 34.6309 21.0625C35.713 21.1828 36.7579 21.4896 37.7405 21.9705C38.6942 22.4391 39.5607 23.0651 40.3153 23.8239C41.0699 24.5868 41.6877 25.4575 42.148 26.4153C42.6248 27.4021 42.9192 28.4511 43.0311 29.5332C43.1762 30.9305 43.0228 32.3029 42.5792 33.6131C42.1521 34.8653 41.4804 35.9972 40.5849 36.9798C40.5102 37.0628 40.4066 37.1084 40.2946 37.1125H40.2863C40.2034 37.1125 40.1205 37.0876 40.05 37.042L40.2905 37.2825H40.2863V37.2908Z" stroke="white" stroke-linecap="round" stroke-linejoin="round"></path><path d="M40.2882 23.7978L38.8223 25.2637L38.8281 25.2695L40.294 23.8036L40.2882 23.7978Z" stroke="white" stroke-linecap="round" stroke-linejoin="round"></path><path d="M34.7182 31.7182C34.0714 32.365 33.0224 32.365 32.3714 31.7182C31.7205 31.0713 31.7246 30.0224 32.3714 29.3714C32.8151 28.9277 34.8633 27.9866 36.103 27.4393C36.4472 27.2858 36.7996 27.6383 36.6503 27.9866C36.1072 29.2263 35.166 31.2745 34.7182 31.7182V31.7182Z" stroke="black" stroke-linecap="round" stroke-linejoin="round"></path><path d="M34.7182 31.7182C34.0714 32.365 33.0224 32.365 32.3714 31.7182C31.7205 31.0713 31.7246 30.0224 32.3714 29.3714C32.8151 28.9277 34.8633 27.9866 36.103 27.4393C36.4472 27.2858 36.7996 27.6383 36.6503 27.9866C36.1072 29.2263 35.166 31.2745 34.7182 31.7182V31.7182Z" stroke="url(#paint0_linear_497_13421)" stroke-linecap="round" stroke-linejoin="round"></path><defs><linearGradient id="paint0_linear_497_13421" x1="33.4916" y1="29.0448" x2="38.4891" y2="33.3911" gradientUnits="userSpaceOnUse"><stop offset="0.236106" stop-color="#DA291C"></stop><stop offset="1" stop-color="#FFCD00"></stop></linearGradient></defs></svg> 