<?xml version="1.0" encoding="UTF-8"?> <svg xmlns="http://www.w3.org/2000/svg" xmlns:xlink="http://www.w3.org/1999/xlink" version="1.1" id="Layer_1" x="0px" y="0px" viewBox="0 0 72 64" style="enable-background:new 0 0 72 64;" xml:space="preserve"> <style type="text/css"> .st0{fill:none;stroke:#FFFFFF;stroke-miterlimit:10;} .st1{fill:none;} .st2{fill:#FFFFFF;} .st3{fill:none;stroke:#FFFFFF;stroke-linejoin:round;} .st4{fill:none;stroke:#000000;stroke-linejoin:round;} .st5{fill:none;stroke:url(#SVGID_1_);stroke-linejoin:round;} </style> <path class="st0" d="M37.6,36.3v3.9"></path> <path class="st0" d="M37.6,44.1V50"></path> <rect x="9" y="8" class="st1" width="53.6" height="47.1"></rect> <path class="st0" d="M23.1,37H10v11.4h13.1V37z"></path> <path class="st0" d="M10,45.8l1.9-1.9c0.6-0.6,1.6-0.6,2.2,0c0.6,0.6,1.6,0.6,2.2,0l1.4-1.4c0.6-0.6,1.6-0.6,2.2,0l3.3,3.3"></path> <path class="st2" d="M16.1,40.3c0,0.5-0.4,1-1,1c-0.5,0-1-0.4-1-1c0-0.5,0.4-1,1-1C15.7,39.3,16.1,39.8,16.1,40.3z"></path> <path class="st3" d="M47.2,27v25c0,1.2-1,2.1-2.1,2.1H23.6c-1.2,0-2.1-1-2.1-2.1v-0.9"></path> <path class="st4" d="M47.2,13.5v-2.5c0-1.2-1-2.1-2.1-2.1H23.6c-1.2,0-2.1,1-2.1,2.1v22.7"></path> <linearGradient id="SVGID_1_" gradientUnits="userSpaceOnUse" x1="29.8102" y1="48.2157" x2="55.7931" y2="24.8721" gradientTransform="matrix(1 0 0 -1 0 66)"> <stop offset="0.2361" style="stop-color:#DA291C"></stop> <stop offset="1" style="stop-color:#FFCD00"></stop> </linearGradient> <path class="st5" d="M47.2,13.5v-2.5c0-1.2-1-2.1-2.1-2.1H23.6c-1.2,0-2.1,1-2.1,2.1v22.7"></path> <path class="st3" d="M21.5,16.9h19.8"></path> <path class="st3" d="M25.9,46.2h21.3"></path> <path class="st3" d="M32.4,50.1h4"></path> <path class="st3" d="M32.4,12.9h4"></path> <path class="st3" d="M42.8,31.5c0,4.7-3.8,8.4-8.4,8.4s-8.4-3.8-8.4-8.4c0-4.7,3.8-8.4,8.4-8.4S42.8,26.9,42.8,31.5z"></path> <path class="st3" d="M36.9,29.9c0,1.4-1.1,2.5-2.5,2.5s-2.5-1.1-2.5-2.5s1.1-2.5,2.5-2.5S36.9,28.6,36.9,29.9z"></path> <path class="st3" d="M28.8,38.1c0-3.1,2.5-5.6,5.6-5.6c3.1,0,5.6,2.5,5.6,5.6"></path> <path class="st0" d="M58.8,16.9H44.1v7.2h14.7V16.9z"></path> <path class="st0" d="M46.9,20.6h8.9"></path> <path class="st0" d="M52.7,42.8h6.7"></path> <path class="st0" d="M56,42.9v5"></path> <path class="st0" d="M50.5,39.3h11.1v11.1H50.5"></path> <path class="st0" d="M11.5,12.9h1.9"></path> <path class="st0" d="M15.3,12.9h1.9"></path> <path class="st0" d="M15.3,20.5h1.9"></path> <path class="st0" d="M11.5,16.7h7.8"></path> <path class="st0" d="M15.3,16.7h1.9"></path> </svg> 