<?xml version="1.0" encoding="UTF-8"?> <svg xmlns="http://www.w3.org/2000/svg" width="64" height="64" viewBox="0 0 64 64" fill="none"><path d="M49.45 13.5498H14.54C13.336 13.5498 12.36 14.5258 12.36 15.7298V50.6398C12.36 51.8438 13.336 52.8198 14.54 52.8198H49.45C50.654 52.8198 51.63 51.8438 51.63 50.6398V15.7298C51.63 14.5258 50.654 13.5498 49.45 13.5498Z" stroke="#262626" stroke-linecap="round" stroke-linejoin="round"></path><path d="M18.92 9.17969H18.9V13.5397H18.92V9.17969Z" stroke="#262626" stroke-linecap="round" stroke-linejoin="round"></path><path d="M25.46 9.17969H25.44V13.5397H25.46V9.17969Z" stroke="#262626" stroke-linecap="round" stroke-linejoin="round"></path><path d="M32.01 9.17969H31.99V13.5397H32.01V9.17969Z" stroke="#262626" stroke-linecap="round" stroke-linejoin="round"></path><path d="M38.56 9.17969H38.54V13.5397H38.56V9.17969Z" stroke="#262626" stroke-linecap="round" stroke-linejoin="round"></path><path d="M45.1 9.17969H45.08V13.5397H45.1V9.17969Z" stroke="#262626" stroke-linecap="round" stroke-linejoin="round"></path><path d="M18.92 52.8193H18.9V57.1793H18.92V52.8193Z" stroke="#262626" stroke-linecap="round" stroke-linejoin="round"></path><path d="M25.46 52.8193H25.44V57.1793H25.46V52.8193Z" stroke="#262626" stroke-linecap="round" stroke-linejoin="round"></path><path d="M32.01 52.8193H31.99V57.1793H32.01V52.8193Z" stroke="#262626" stroke-linecap="round" stroke-linejoin="round"></path><path d="M38.56 52.8193H38.54V57.1793H38.56V52.8193Z" stroke="#262626" stroke-linecap="round" stroke-linejoin="round"></path><path d="M45.1 52.8193H45.08V57.1793H45.1V52.8193Z" stroke="#262626" stroke-linecap="round" stroke-linejoin="round"></path><path d="M12.36 46.2695H8V46.2896H12.36V46.2695Z" stroke="#262626" stroke-linecap="round" stroke-linejoin="round"></path><path d="M12.36 39.7197H8V39.7397H12.36V39.7197Z" stroke="#262626" stroke-linecap="round" stroke-linejoin="round"></path><path d="M12.36 33.1699H8V33.1899H12.36V33.1699Z" stroke="#262626" stroke-linecap="round" stroke-linejoin="round"></path><path d="M12.36 26.6299H8V26.6499H12.36V26.6299Z" stroke="#262626" stroke-linecap="round" stroke-linejoin="round"></path><path d="M12.36 20.0801H8V20.1001H12.36V20.0801Z" stroke="#262626" stroke-linecap="round" stroke-linejoin="round"></path><path d="M56 46.2695H51.64V46.2896H56V46.2695Z" stroke="#262626" stroke-linecap="round" stroke-linejoin="round"></path><path d="M56 39.7197H51.64V39.7397H56V39.7197Z" stroke="#262626" stroke-linecap="round" stroke-linejoin="round"></path><path d="M56 33.1699H51.64V33.1899H56V33.1699Z" stroke="#262626" stroke-linecap="round" stroke-linejoin="round"></path><path d="M56 26.6299H51.64V26.6499H56V26.6299Z" stroke="#262626" stroke-linecap="round" stroke-linejoin="round"></path><path d="M56 20.0801H51.64V20.1001H56V20.0801Z" stroke="#262626" stroke-linecap="round" stroke-linejoin="round"></path><path d="M23.14 42.0499C20.77 39.6799 19.47 36.5399 19.47 33.1899C19.47 29.8399 20.77 26.6999 23.14 24.3299C25.08 22.3899 27.53 21.1699 30.24 20.7799C32.86 20.4099 35.57 20.8899 37.9 22.1299V22.1499C35.57 20.9199 32.86 20.4399 30.25 20.8099C27.55 21.1899 25.1 22.4199 23.16 24.3499C20.8 26.7099 19.5 29.85 19.5 33.2C19.5 36.55 20.8 39.6799 23.16 42.0499H23.15H23.14Z" stroke="#262626" stroke-linecap="round" stroke-linejoin="round"></path><path d="M40.86 42.0496H40.85C42.78 40.0996 44.01 37.6496 44.39 34.9496C44.76 32.3396 44.28 29.6196 43.05 27.3096H43.07C44.31 29.6196 44.78 32.3396 44.42 34.9596C44.04 37.6696 42.81 40.1196 40.88 42.0596L40.86 42.0496Z" stroke="#262626" stroke-linecap="round" stroke-linejoin="round"></path><path d="M32 35.7893C33.4415 35.7893 34.61 34.6208 34.61 33.1793C34.61 31.7379 33.4415 30.5693 32 30.5693C30.5585 30.5693 29.39 31.7379 29.39 33.1793C29.39 34.6208 30.5585 35.7893 32 35.7893Z" stroke="black" stroke-linecap="round" stroke-linejoin="round"></path><path d="M32 35.7893C33.4415 35.7893 34.61 34.6208 34.61 33.1793C34.61 31.7379 33.4415 30.5693 32 30.5693C30.5585 30.5693 29.39 31.7379 29.39 33.1793C29.39 34.6208 30.5585 35.7893 32 35.7893Z" stroke="url(#paint0_linear_506_11820)" stroke-linecap="round" stroke-linejoin="round"></path><path d="M33.85 31.3498L41.9 23.2998H41.89L33.84 31.3398C33.84 31.3398 33.84 31.3398 33.85 31.3498Z" stroke="black" stroke-linecap="round" stroke-linejoin="round"></path><path d="M33.85 31.3498L41.9 23.2998H41.89L33.84 31.3398C33.84 31.3398 33.84 31.3398 33.85 31.3498Z" stroke="url(#paint1_linear_506_11820)" stroke-linecap="round" stroke-linejoin="round"></path><defs><linearGradient id="paint0_linear_506_11820" x1="31.1372" y1="32.3551" x2="36.5709" y2="37.0811" gradientUnits="userSpaceOnUse"><stop offset="0.236106" stop-color="#DA291C"></stop><stop offset="1" stop-color="#FFCD00"></stop></linearGradient><linearGradient id="paint1_linear_506_11820" x1="36.5377" y1="26.0538" x2="44.9188" y2="33.3522" gradientUnits="userSpaceOnUse"><stop offset="0.236106" stop-color="#DA291C"></stop><stop offset="1" stop-color="#FFCD00"></stop></linearGradient></defs></svg> 