<?xml version="1.0" encoding="UTF-8"?> <svg xmlns="http://www.w3.org/2000/svg" width="64" height="64" viewBox="0 0 64 64" fill="none"><path d="M33.6218 36.2654V40.19" stroke="white" stroke-miterlimit="10"></path><path d="M33.6218 44.1143V50.0012" stroke="white" stroke-miterlimit="10"></path><g clip-path="url(#clip0_1373_28074)"><path d="M19.0514 36.9988H5.95325V48.381H19.0514V36.9988Z" stroke="white" stroke-miterlimit="10"></path><path d="M5.95325 45.8453L7.85982 43.9387C8.46992 43.3286 9.46133 43.3286 10.0905 43.9387C10.7006 44.5488 11.7111 44.5488 12.3212 43.9387L13.6748 42.585C14.2849 41.9749 15.2954 41.9749 15.9055 42.585L19.242 45.9215" stroke="white" stroke-miterlimit="10"></path><path d="M12.1115 40.2973C12.1115 40.8121 11.6921 41.2506 11.1582 41.2506C10.6244 41.2506 10.205 40.8311 10.205 40.2973C10.205 39.7634 10.6244 39.344 11.1582 39.344C11.6921 39.344 12.1115 39.7634 12.1115 40.2973Z" fill="white"></path><path d="M43.1886 27.0085V51.9846C43.1886 53.1476 42.2353 54.1009 41.0723 54.1009H19.6234C18.4604 54.1009 17.5071 53.1476 17.5071 51.9846V51.1076" stroke="white" stroke-linejoin="round"></path><path d="M43.1886 13.5482V11.0697C43.1886 9.90665 42.2353 8.95337 41.0723 8.95337H19.6234C18.4604 8.95337 17.5071 9.90665 17.5071 11.0697V33.815" stroke="black" stroke-linejoin="round"></path><path d="M43.1886 13.5482V11.0697C43.1886 9.90665 42.2353 8.95337 41.0723 8.95337H19.6234C18.4604 8.95337 17.5071 9.90665 17.5071 11.0697V33.815" stroke="url(#paint0_linear_1373_28074)" stroke-linejoin="round"></path><path d="M17.5071 16.8848H37.2591" stroke="white" stroke-linejoin="round"></path><path d="M21.8922 46.1697H43.1886" stroke="white" stroke-linejoin="round"></path><path d="M28.3555 50.1353H32.3211" stroke="white" stroke-linejoin="round"></path><path d="M28.3555 12.9189H32.3211" stroke="white" stroke-linejoin="round"></path><path d="M38.7844 31.5272C38.7844 36.1982 35.0094 39.9732 30.3383 39.9732C25.6672 39.9732 21.8922 36.1982 21.8922 31.5272C21.8922 26.8561 25.6672 23.0811 30.3383 23.0811C35.0094 23.0811 38.7844 26.8561 38.7844 31.5272Z" stroke="white" stroke-linejoin="round"></path><path d="M32.8931 29.9447C32.8931 31.3555 31.7492 32.4804 30.3574 32.4804C28.9656 32.4804 27.8217 31.3365 27.8217 29.9447C27.8217 28.5529 28.9656 27.4089 30.3574 27.4089C31.7492 27.4089 32.8931 28.5529 32.8931 29.9447Z" stroke="white" stroke-linejoin="round"></path><path d="M24.7521 38.0858C24.7521 34.9971 27.2497 32.4995 30.3383 32.4995C33.427 32.4995 35.9246 34.9971 35.9246 38.0858" stroke="white" stroke-linejoin="round"></path><path d="M54.7805 16.8845H40.119V24.1104H54.7805V16.8845Z" stroke="white" stroke-miterlimit="10"></path><path d="M42.9408 20.6023H51.8063" stroke="white" stroke-miterlimit="10"></path><path d="M48.7177 42.833H55.3716" stroke="white" stroke-miterlimit="10"></path><path d="M52.035 42.9475V47.9427" stroke="white" stroke-miterlimit="10"></path><path d="M46.4679 39.2869H57.6023V50.4212H46.4679" stroke="white" stroke-miterlimit="10"></path><path d="M7.45947 12.9189H9.36604" stroke="white" stroke-miterlimit="10"></path><path d="M11.2726 12.9189H13.1792" stroke="white" stroke-miterlimit="10"></path><path d="M11.2726 20.5452H13.1792" stroke="white" stroke-miterlimit="10"></path><path d="M7.45947 16.7322H15.2573" stroke="white" stroke-miterlimit="10"></path><path d="M11.2726 16.7322H13.1792" stroke="white" stroke-miterlimit="10"></path></g><defs><linearGradient id="paint0_linear_1373_28074" x1="26.1027" y1="17.4587" x2="52.0856" y2="40.8023" gradientUnits="userSpaceOnUse"><stop offset="0.236106" stop-color="#DA291C"></stop><stop offset="1" stop-color="#FFCD00"></stop></linearGradient><clipPath id="clip0_1373_28074"><rect width="53.5555" height="47.0541" fill="white" transform="translate(5 8)"></rect></clipPath></defs></svg> 