<?xml version="1.0" encoding="UTF-8"?> <svg xmlns="http://www.w3.org/2000/svg" width="1313" height="517.9" viewBox="0 0 1313 517.9"><g id="Power_Review" data-name="Power Review" transform="translate(-63.5 -31.1)"><path id="Path_62" data-name="Path 62" d="M63.5,316.9V263.1c1.4-.7,1.3-2.1,1.4-3.3,1.9-15,4.5-29.9,8.9-44.4a246.783,246.783,0,0,1,52.7-93.9c9.6,8.3,19.3,16.6,28.9,25-.6.9-1.1,1.8-1.8,2.7C109.8,201.8,93.4,262.3,106,329.1c15.6,82.5,64.4,138.5,142.8,168.6,23.7,9.1,48.7,12.3,74,13.1-.1,12.7-.2,25.4-.4,38.1H294.2c-.9-1.7-2.5-1.3-3.9-1.5-30-4.1-58.9-12.3-85.7-26.5Q91.2,460.45,67.1,334.1C66,328.4,66.8,322.2,63.5,316.9Z" fill="#6cbbae"></path><path id="Path_63" data-name="Path 63" d="M322.5,548.9c.1-12.7.2-25.4.4-38.1,6.2-.4,12.4-.7,18.5-1.3q113.7-11.55,172.3-109.8c14.5-24.4,22.5-51.1,27.1-78.9,12.6,1.7,25.2,3.5,37.9,5.2a238.452,238.452,0,0,1-31.1,92.8C506.4,489.4,445,531.4,364.7,546c-4.7.8-9.7.3-13.9,3C341.3,548.9,331.9,548.9,322.5,548.9Z" fill="#f1a903"></path><path id="Path_64" data-name="Path 64" d="M246.7,43.1c15.4-5.7,31.5-8.3,47.7-10.6,1-.1,2.2-.1,2.5-1.4h53.9c5.9,3,12.6,2.4,18.9,3.6a266.768,266.768,0,0,1,86.9,33.9,5.071,5.071,0,0,1,2.5,2.7c-6.7,10.8-13.3,21.6-20,32.4-4.1-2.2-8.3-4.3-12.4-6.6-43.3-23.7-89.3-32-138.1-23.8-10.5,1.8-20.7,4.5-31.1,6.7C253.9,67.8,250.3,55.4,246.7,43.1Z" fill="#85bd03"></path><path id="Path_65" data-name="Path 65" d="M1376.5,390c-.5.3-1.3.5-1.5,1-10.1,28.8-60.3,31.2-81,11.7-.5-.4-.9-.9-1.4-1.3-3.9-4.3-9.9-10.1-7.7-14.4,2.7-5.3,11.3-5.6,17.4-8.1,2-.8,2.3,1.4,3,2.5,8.7,13.3,24.4,18.3,39.2,12.6,6-2.3,10.4-6,10.6-13,.2-6.7-3.7-10.6-9.3-13.2-8.2-3.8-17.3-4.6-25.8-7.2-2.9-.9-5.8-1.5-8.6-2.5a31.854,31.854,0,0,1-11.1-52.8c15.1-14.9,48.2-16.3,64-2.6,4.5,3.9,10.7,9,9.2,14.3-1.3,4.5-9.6,5.1-14.7,7.7-2.7,1.3-3.2-1.2-4.3-2.5-7.4-9-21-12.7-31.9-8.7-5.9,2.2-9.7,6.2-10,12.8-.2,6.2,3.7,9.8,8.8,12.1,7,3.2,14.6,4.8,22.1,6.2,14.8,2.8,27,8.8,33,23.6C1376.5,375.5,1376.5,382.7,1376.5,390Z" fill="#fff"></path><path id="Path_66" data-name="Path 66" d="M439,103.7c6.7-10.8,13.3-21.6,20-32.4,15.1,7.8,28.1,18.6,40.4,30,38.9,36.1,64.6,80.1,76,132,6.8,30.6,8.4,61.6,3.1,92.7-12.6-1.7-25.2-3.5-37.9-5.2,1-15.7,2.6-31.3,1.4-47.1a217.843,217.843,0,0,0-32.8-100.3C491.3,144.7,467.3,122,439,103.7Z" fill="#5dc2e6"></path><path id="Path_67" data-name="Path 67" d="M1244,375.5c5.7-25.1,11.4-49.8,16.9-74.6.9-4.1,2.1-6.6,7-5.8,5.3.8,12.8-2.4,15.5,1.5,2,3-1.7,9.9-3,15.1-8.2,32-16.6,64-24.6,96.1-1.2,4.7-3,6.5-8.1,6.4-14.3-.4-14.2-.1-17.6-13.7-5.4-21.3-10.9-42.6-16.3-63.9a5.361,5.361,0,0,0-2.2-3.3c-4.4,17.2-8.8,34.5-13.2,51.7-2.1,8.1-4.3,16.1-6.1,24.2-.8,3.5-2,4.9-5.9,4.9-16.2.2-16.1.3-20.1-15.5-8.2-32.3-16.4-64.5-25-96.7-1.6-6-.3-7.1,5.6-6.9,15.8.4,15.7.1,19.1,15.5,4.8,21.7,9.7,43.3,15.5,65.1,1.7-6.3,3.5-12.5,5.1-18.8,5-19,10.1-37.9,14.9-57,.9-3.5,2.2-4.8,6-4.8,14.3-.1,14.2-.2,17.7,13.6,5.3,20.9,10.8,41.7,16.3,62.6C1241.8,372.6,1241.5,374.3,1244,375.5Z" fill="#fff"></path><path id="Path_68" data-name="Path 68" d="M943.3,194.2c-6.1,24.2-12.4,48.3-18.3,72.5-1.3,5.2-3.3,7.1-8.9,7-13.7-.5-13.7-.1-17.1-13.3-8.6-33.3-17-66.6-25.8-99.8-1.3-4.8-.3-5.7,4.4-5.7,16.9,0,16.9-.1,20.7,16.5,4.4,19.4,8.7,38.7,13,58.1a12.465,12.465,0,0,0,2.5,5.4c2.5-9.2,4.9-18.4,7.4-27.5,4.2-15.9,8.5-31.7,12.4-47.7.9-3.5,2.2-4.8,5.9-4.8,14.2-.1,14.2-.2,17.8,13.4,5.3,20.2,10.5,40.5,15.8,60.7.4,1.5-.2,4.1,1.8,4.3,2.7.2,2.2-2.7,2.5-4.3,5.3-22.9,10.5-45.7,15.5-68.7.9-4.1,2.3-5.9,6.7-5.4a63.108,63.108,0,0,0,11.5,0c4.1-.3,5.6.5,4.4,5.2q-14.25,53.85-27.9,107.8c-1.2,4.8-3.4,5.8-7.8,5.7-14.3-.2-14.3-.1-17.9-13.9-5.1-19.8-10.1-39.7-15.2-59.5C946.4,198,946.4,195.4,943.3,194.2Z" fill="#fff"></path><path id="Path_69" data-name="Path 69" d="M1199.7,226.6c9.8,15.6,19.1,30.5,29.1,46.6-8.2,0-15.1-.1-22,0-2.8,0-3.5-2.1-4.6-3.8-7.3-11.6-14.7-23-21.7-34.8-2.6-4.4-5.5-6.1-10.7-5.9-11.9.4-11.9.1-11.9,12.3,0,9.2-.1,18.4.1,27.5.1,3.6-1.1,4.7-4.7,4.7-17.7.4-17.7.5-17.7-17.3V168.1c0-10.5,2.8-13.2,13.3-13.2,12.2,0,24.4-.3,36.5.2,28.6,1.2,44.7,25.3,34.6,51.4C1216.3,216,1209.3,222.3,1199.7,226.6ZM1158,191.4v15.4c0,2.2.5,3.7,3.2,3.6,8.3-.3,16.7.8,24.9-.8,9.8-1.9,14.9-8,14.9-17.8,0-10-4.7-15.8-15-17.6-8.2-1.4-16.6-.3-24.9-.6-2.7-.1-3.1,1.6-3.1,3.7Z" fill="#fff"></path><path id="Path_70" data-name="Path 70" d="M759.8,413.3c-7.6,0-14.4-.1-21.1.1-3,.1-4-1.9-5.2-3.9-7-11.2-14.3-22.2-20.9-33.7-3-5.1-6.4-6.8-12.2-6.6-11,.5-11,.1-11,11.2,0,9.4-.1,18.8.1,28.2.1,3.4-.6,4.8-4.5,4.9-17.7.5-17.7.6-17.7-17.1V308.7c0-10.6,2.7-13.4,13.1-13.4,12.2,0,24.4-.4,36.5.2,14.7.7,27.4,6.2,33.7,20.4,6.1,13.6,4.9,27.1-3.8,39.5a26.92,26.92,0,0,1-11.7,9.7c-3.7,1.6-3.5,3-1.6,6,8.1,12.5,15.9,25.3,23.9,37.9C758.1,410,758.7,411.3,759.8,413.3Zm-70.4-81.6c0,5.1.1,10.2,0,15.3,0,2.3.6,3.6,3.2,3.5,7.9-.2,15.8.3,23.6-.5,10.6-1,16.5-8.2,16.2-18.5-.3-10.2-6-16.3-16.9-17.1-6.6-.5-13.2,0-19.8-.4-4.8-.3-7.1.8-6.5,6.2C689.7,324,689.3,327.9,689.4,331.7Z" fill="#fff"></path><path id="Path_71" data-name="Path 71" d="M767.9,215.3c0-7.9-.7-15.9.1-23.7,2.8-25.2,27.1-42.1,54.3-38.3,26.2,3.7,40.9,20.5,40.9,47v29.5c-.1,24-15.9,42-39.8,44.7-12.3,1.4-24.3.1-35.4-6.1-13-7.3-19.9-18.4-20.3-33.3-.2-6.6,0-13.2,0-19.9C767.7,215.3,767.8,215.3,767.9,215.3Zm73.1-1c0-6.2.1-12.4,0-18.5-.2-14-10.3-23.1-25.8-23.2-15-.1-25.2,8.9-25.4,22.8-.2,12.4-.2,24.7,0,37.1.1,10.4,5.7,17.7,15.5,21.1a32.042,32.042,0,0,0,18.9.6c10.7-2.9,16.6-10.2,16.8-21.3C841.1,226.7,841,220.5,841,214.3Z" fill="#fff"></path><path id="Path_72" data-name="Path 72" d="M1033,217.5V168.8c0-9.4,4.3-13.7,13.7-13.8,21.1-.1,42.3.1,63.4-.1,4.3,0,5.2,1.3,5.2,5.4-.1,14.2.1,14.2-14.4,14.2-13.7,0-27.3.1-41-.1-3.6-.1-4.8,1.1-4.7,4.7q.45,9.6,0,19.2c-.2,4.1,1.4,4.9,5.1,4.9,14.1-.2,28.2.1,42.3-.2,4.3-.1,5.9.9,5.8,5.6-.3,10.4-3.5,14-13.6,14-11.5,0-23.1.2-34.6-.1-4-.1-5.2,1.3-5,5.1a200.229,200.229,0,0,1,0,20.5c-.3,4.8,1.7,5.6,5.9,5.5,16-.2,32,.1,48-.2,5.2-.1,7,1.1,6.8,6.6-.4,13.2-.1,13.2-13.6,13.2-20.7,0-41.4-.2-62.1.1-5.6.1-7.7-1-7.5-7.2C1033.3,249.9,1033,233.7,1033,217.5Z" fill="#fff"></path><path id="Path_73" data-name="Path 73" d="M1043.6,356.6V307.9c0-9.7,3-12.7,12.6-12.7,21.4,0,42.7.1,64.1-.1,4.6-.1,5.7,1.3,5.7,5.7-.1,13.9.1,13.9-14,13.9-13.7,0-27.3.1-41-.1-3.9-.1-5.2,1-5,5a175.656,175.656,0,0,1,0,19.2c-.2,4.2,1.4,4.9,5.2,4.8,14.3-.2,28.6.1,42.9-.2,3.9-.1,5,1,5,5-.1,12.3-2.1,14.6-14.4,14.6-11.3,0-22.6.1-34-.1-3.6-.1-4.8.9-4.7,4.6.3,7.2.3,14.5,0,21.8-.1,3.7,1.1,4.6,4.7,4.6,16.7-.2,33.3.1,50-.2,4.9-.1,6,1.4,6,6.1-.2,13.5,0,13.5-13.8,13.5-20.7,0-41.4-.2-62.1.1-5.4.1-7.3-.9-7.2-6.9C1043.9,390,1043.6,373.3,1043.6,356.6Z" fill="#fff"></path><path id="Path_74" data-name="Path 74" d="M774,357.8V308.5c0-9,3.9-13.2,12.7-13.2,21.6-.1,43.1.1,64.7-.1,4,0,5,1.2,5,5,.2,14.6.3,14.6-14.6,14.6-13.5,0-26.9.1-40.4-.1-3.8-.1-5.4.9-5.2,4.9q.45,9.6,0,19.2c-.2,4.2,1.6,4.9,5.3,4.8,14.1-.2,28.2.1,42.3-.2,4.2-.1,6,.7,5.8,5.5-.3,11.2-2.8,14.1-13.9,14.1-11.3,0-22.6.1-34-.1-4-.1-5.8.7-5.5,5.2a175.243,175.243,0,0,1,0,20.5c-.2,4.3,1.3,5.4,5.4,5.3,16.4-.2,32.9.1,49.3-.2,4.6-.1,6.3.8,6.2,5.9-.2,13.7,0,13.7-13.6,13.7-21.4,0-42.7-.1-64.1.1-4.5,0-5.7-1.2-5.7-5.7C774.2,391.1,774,374.4,774,357.8Z" fill="#fff"></path><path id="Path_75" data-name="Path 75" d="M667.2,217.6V168.9c0-9,4.3-13.8,13-13.9,13.2-.2,26.5-.5,39.7.2,27.8,1.5,43.2,26.4,32.3,52.2-6,14.1-17.5,20.4-32.3,21.2-8.5.4-17.1.3-25.6,0-3.9-.1-5.2,1.1-5.1,5.1.2,11.3-.1,22.6.2,33.9.1,4.7-1.5,6-5.8,5.5-5.2-.6-12.1,2.2-15.4-1.1s-.9-10.1-1-15.4C667.1,243.7,667.2,230.7,667.2,217.6Zm22.2-25.7c0,4.9.1,9.8,0,14.7-.1,2.7.8,3.8,3.6,3.8,7.9-.2,15.8.3,23.6-.5,11.7-1.2,17.6-8.1,17.2-19-.4-10.4-6.6-16.5-18.3-17.1-7.4-.4-14.9-.1-22.3-.2-2.8-.1-3.8,1-3.7,3.7C689.5,182.1,689.4,187,689.4,191.9Z" fill="#fff"></path><path id="Path_76" data-name="Path 76" d="M925.8,381.9c8.3-27,16.3-52.4,23.7-78,1.9-6.6,4.4-9.2,11.6-8.8,13.1.7,13.3.2,9.1,13-11,33.8-22.3,67.6-33.2,101.5-1.2,3.9-3.2,4.7-6.8,4.7-16.3,0-16.4.1-21.5-15.3-10.8-32.8-21.4-65.7-32.3-98.4-1.4-4.3-.7-5.7,3.8-5.3,6.1.5,13.8-2.4,18,1.1,3.9,3.2,4.3,10.7,6.1,16.4,6.3,20.4,12.4,40.8,18.6,61.2C923.6,376,924.5,378.2,925.8,381.9Z" fill="#fff"></path><path id="Path_77" data-name="Path 77" d="M1017.5,354.8c0,17.5-.2,35,.1,52.5.1,5.2-1.6,6.3-6.4,6.2-15.7-.2-15.7,0-15.7-15.9v-89a14.257,14.257,0,0,1,20.5-13.2c2.5,1.1,1.5,3.3,1.5,5C1017.5,318.5,1017.5,336.6,1017.5,354.8Z" fill="#fff"></path><path id="Path_78" data-name="Path 78" d="M257.5,80.1c-29.7,9.6-57.2,23.3-80.2,44.8-7.5,6.9-14.5,14.4-21.7,21.6-9.6-8.3-19.3-16.6-28.9-25C158.6,82.9,198.9,57.2,246.8,43,250.3,55.4,253.9,67.8,257.5,80.1Z" fill="#e03c31"></path><path id="Path_79" data-name="Path 79" d="M239.3,293.8V177.2c0-15.4,8.3-23.6,23.8-23.7,26.3,0,52.5-.4,78.8.1,30.2.5,55.6,11.3,71.7,38.2,24,40.1,11.6,112.3-60.2,121.2-22.3,2.8-44.8.8-67.2.9-5.4,0-6.7,1.5-6.6,6.8.3,30.3,0,60.6.2,91,0,4.7-.7,6.8-6.2,6.5a265.267,265.267,0,0,0-28.2,0c-5.4.3-6.2-1.7-6.2-6.5C239.4,372.4,239.3,333.1,239.3,293.8Zm40.4-60.7c0,13.2.1,26.5,0,39.7,0,3,.3,4.7,4,4.7,19.8-.2,39.7.3,59.5-.4,12.8-.4,24.4-5.1,32.3-15.8,10.8-14.7,11.6-31,4.6-47.3-6.7-15.8-20.3-23-36.6-23.7-19.8-.9-39.7-.3-59.5-.5-4.1-.1-4.3,1.9-4.3,5C279.8,207.5,279.7,220.3,279.7,233.1Z" fill="#fff"></path><path id="Path_80" data-name="Path 80" d="M321.8,333.7c16-.7,30.8,1.1,45.2-2.7,2.2-.6,3.1.8,4.1,2.2l57.3,82.5a9.974,9.974,0,0,1,.6,2.4H382.3a4.062,4.062,0,0,1-3.7-2C359.9,389,341.2,361.8,321.8,333.7Z" fill="#fff"></path></g></svg> 