<?xml version="1.0" encoding="UTF-8"?> <svg xmlns="http://www.w3.org/2000/svg" width="64" height="64" viewBox="0 0 64 64" fill="none"><g clip-path="url(#clip0_1373_28152)"><path d="M46.625 36.5H50C54.3537 36.5 57.875 32.9787 57.875 28.625C57.875 24.2713 54.3537 20.75 50 20.75C49.1675 20.75 48.3575 20.885 47.6037 21.1212C47.6937 20.6375 47.75 20.1312 47.75 19.625C47.75 15.2713 44.2287 11.75 39.875 11.75C37.9062 11.75 36.1175 12.4813 34.7338 13.6738C33.2038 9.28625 29.03 6.125 24.125 6.125C17.9037 6.125 12.8637 11.165 12.8637 17.375C12.8637 18.5562 13.055 19.7038 13.3925 20.7725C9.33125 21.0875 6.125 24.4737 6.125 28.6137C6.125 32.9675 9.64625 36.4887 14 36.4887H17.375" stroke="white" stroke-miterlimit="10"></path><path d="M34.7563 13.6626C35.0488 14.4838 35.24 15.3501 35.33 16.2501" stroke="white" stroke-miterlimit="10"></path><path d="M47.6037 21.1213C47.4237 22.0438 47.0862 22.9101 46.625 23.6751" stroke="white" stroke-miterlimit="10"></path><path d="M13.3925 20.7725C14.3712 20.6937 15.3612 20.8062 16.3175 21.0987" stroke="white" stroke-miterlimit="10"></path><path d="M20.75 45.5H7.25V54.5H20.75V45.5Z" stroke="white" stroke-miterlimit="10"></path><path d="M38.75 45.5H25.25V54.5H38.75V45.5Z" stroke="white" stroke-miterlimit="10"></path><path d="M56.75 45.5H43.25V54.5H56.75V45.5Z" stroke="white" stroke-miterlimit="10"></path><path d="M9.5 57.875H18.5" stroke="white" stroke-miterlimit="10"></path><path d="M14 54.5V57.875" stroke="white" stroke-miterlimit="10"></path><path d="M27.5 57.875H36.5" stroke="white" stroke-miterlimit="10"></path><path d="M32 54.5V57.875" stroke="white" stroke-miterlimit="10"></path><path d="M45.5 57.875H54.5" stroke="white" stroke-miterlimit="10"></path><path d="M50 54.5V57.875" stroke="white" stroke-miterlimit="10"></path><path d="M19.625 43.25V34.25" stroke="white" stroke-miterlimit="10"></path><path d="M32 43.25V32" stroke="black" stroke-miterlimit="10"></path><path d="M32 43.25V32" stroke="url(#paint0_linear_1373_28152)" stroke-miterlimit="10"></path><path d="M44.375 43.25V35.375" stroke="white" stroke-miterlimit="10"></path><path d="M21.875 36.5H29.75" stroke="white" stroke-miterlimit="10"></path><path d="M34.25 36.5H42.125" stroke="white" stroke-miterlimit="10"></path><path d="M19.625 32V29.75" stroke="black" stroke-miterlimit="10"></path><path d="M19.625 32V29.75" stroke="url(#paint1_linear_1373_28152)" stroke-miterlimit="10"></path><path d="M19.625 27.5V25.25" stroke="black" stroke-miterlimit="10"></path><path d="M19.625 27.5V25.25" stroke="url(#paint2_linear_1373_28152)" stroke-miterlimit="10"></path><path d="M32 29.75V27.5" stroke="white" stroke-miterlimit="10"></path><path d="M32 25.25V23" stroke="white" stroke-miterlimit="10"></path><path d="M44.375 33.125V30.875" stroke="black" stroke-miterlimit="10"></path><path d="M44.375 33.125V30.875" stroke="url(#paint3_linear_1373_28152)" stroke-miterlimit="10"></path><path d="M32 20.75V18.5" stroke="white" stroke-miterlimit="10"></path></g><defs><linearGradient id="paint0_linear_1373_28152" x1="32.3347" y1="35.8487" x2="34.1522" y2="35.9892" gradientUnits="userSpaceOnUse"><stop offset="0.236106" stop-color="#DA291C"></stop><stop offset="1" stop-color="#FFCD00"></stop></linearGradient><linearGradient id="paint1_linear_1373_28152" x1="19.9597" y1="30.5197" x2="21.5504" y2="31.1346" gradientUnits="userSpaceOnUse"><stop offset="0.236106" stop-color="#DA291C"></stop><stop offset="1" stop-color="#FFCD00"></stop></linearGradient><linearGradient id="paint2_linear_1373_28152" x1="19.9597" y1="26.0197" x2="21.5504" y2="26.6346" gradientUnits="userSpaceOnUse"><stop offset="0.236106" stop-color="#DA291C"></stop><stop offset="1" stop-color="#FFCD00"></stop></linearGradient><linearGradient id="paint3_linear_1373_28152" x1="44.7097" y1="31.6447" x2="46.3004" y2="32.2596" gradientUnits="userSpaceOnUse"><stop offset="0.236106" stop-color="#DA291C"></stop><stop offset="1" stop-color="#FFCD00"></stop></linearGradient><clipPath id="clip0_1373_28152"><rect width="54" height="54" fill="white" transform="translate(5 5)"></rect></clipPath></defs></svg> 