<?xml version="1.0" encoding="UTF-8"?> <svg xmlns="http://www.w3.org/2000/svg" width="64" height="64" viewBox="0 0 64 64" fill="none"><path d="M12.496 21.8221L13.2336 31.8407C13.3342 33.0343 14.9503 34.0737 16.2446 34.2615C16.3049 34.2682 16.3586 34.2749 16.4122 34.2816L17.398 47.6263C17.4382 48.1494 17.8808 48.5786 18.3971 48.5786H23.7149C24.2245 48.5786 24.6739 48.1494 24.7141 47.6263L25.6999 34.2816C25.7535 34.2816 25.8139 34.2682 25.8675 34.2615C27.1617 34.0737 28.7711 33.0343 28.8784 31.8474L29.6094 21.9964C29.6094 21.916 29.6094 21.8556 29.6094 21.8288C29.6094 19.864 28.0603 18.2344 26.1626 18.1875H15.9428C14.0316 18.2344 12.4893 19.864 12.4893 21.8221H12.496Z" stroke="white" stroke-linecap="round" stroke-linejoin="round"></path><path d="M21.0525 15.4917C22.8497 15.4917 24.3116 14.0299 24.3116 12.2327C24.3116 10.4355 22.8497 8.97363 21.0525 8.97363C19.2553 8.97363 17.7935 10.4355 17.7935 12.2327C17.7935 14.0299 19.2553 15.4917 21.0525 15.4917Z" stroke="white" stroke-linecap="round" stroke-linejoin="round"></path><path d="M21.0596 33.3496V48.1629" stroke="white" stroke-linecap="round" stroke-linejoin="round"></path><path d="M25.6997 34.2813L26.5245 23.1562" stroke="white" stroke-linecap="round" stroke-linejoin="round"></path><path d="M16.4122 34.2813L15.5874 23.1562" stroke="white" stroke-linecap="round" stroke-linejoin="round"></path><path d="M51.4635 21.8221L50.7258 31.8407C50.6253 33.0343 49.0091 34.0737 47.7149 34.2615C47.6546 34.2682 47.6009 34.2749 47.5473 34.2816L46.5615 47.6263C46.5213 48.1494 46.0787 48.5786 45.5623 48.5786H40.2446C39.7349 48.5786 39.2856 48.1494 39.2454 47.6263L38.2596 34.2816C38.206 34.2816 38.1456 34.2682 38.092 34.2615C36.7977 34.0737 35.1883 33.0343 35.081 31.8474L34.3501 21.9964C34.3501 21.916 34.3501 21.8556 34.3501 21.8288C34.3501 19.864 35.8991 18.2344 37.7969 18.1875H48.0167C49.9279 18.2344 51.4702 19.864 51.4702 21.8221H51.4635Z" stroke="white" stroke-linecap="round" stroke-linejoin="round"></path><path d="M42.9002 15.4917C41.103 15.4917 39.6411 14.0299 39.6411 12.2327C39.6411 10.4355 41.103 8.97363 42.9002 8.97363C44.6974 8.97363 46.1592 10.4355 46.1592 12.2327C46.1592 14.0299 44.6974 15.4917 42.9002 15.4917Z" stroke="white" stroke-linecap="round" stroke-linejoin="round"></path><path d="M42.8999 33.3496V48.1629" stroke="white" stroke-linecap="round" stroke-linejoin="round"></path><path d="M38.2594 34.2813L37.4346 23.1562" stroke="white" stroke-linecap="round" stroke-linejoin="round"></path><path d="M47.5474 34.2813L48.3722 23.1562" stroke="white" stroke-linecap="round" stroke-linejoin="round"></path><path d="M40.5402 27.2469L39.8025 37.2655C39.7019 38.4592 38.0858 39.4986 36.7916 39.6863C36.7312 39.693 36.6776 39.6997 36.6239 39.7064L35.6382 53.0511C35.5979 53.5742 35.1553 54.0034 34.639 54.0034H29.3212C28.8116 54.0034 28.3623 53.5742 28.3221 53.0511L27.3363 39.7064C27.2827 39.7064 27.2223 39.693 27.1687 39.6863C25.8744 39.4919 24.265 38.4591 24.1577 37.2722L23.4268 27.4212C23.4268 27.3408 23.4268 27.2804 23.4268 27.2536C23.4268 25.2888 24.9758 23.6592 26.8736 23.6123H37.0933C39.0045 23.6592 40.5469 25.2888 40.5469 27.2469H40.5402Z" stroke="white" stroke-linecap="round" stroke-linejoin="round"></path><path d="M31.9768 20.9166C30.1796 20.9166 28.7178 19.4547 28.7178 17.6575C28.7178 15.8603 30.1796 14.3984 31.9768 14.3984C33.774 14.3984 35.2359 15.8603 35.2359 17.6575C35.2359 19.4547 33.774 20.9166 31.9768 20.9166Z" stroke="white" stroke-linecap="round" stroke-linejoin="round"></path><path d="M31.9766 38.7676V53.5876" stroke="white" stroke-linecap="round" stroke-linejoin="round"></path><path d="M27.3365 39.7069L26.5117 28.5752" stroke="white" stroke-linecap="round" stroke-linejoin="round"></path><path d="M36.624 39.7069L37.4489 28.5752" stroke="white" stroke-linecap="round" stroke-linejoin="round"></path><path d="M40.5397 27.2469L39.802 37.2655C39.7015 38.4592 38.0853 39.4986 36.7911 39.6863C36.7307 39.693 36.6771 39.6997 36.6234 39.7064L35.6377 53.0511C35.5974 53.5742 35.1549 54.0034 34.6385 54.0034H29.3207C28.8111 54.0034 28.3618 53.5742 28.3216 53.0511L27.3358 39.7064C27.2822 39.7064 27.2218 39.693 27.1682 39.6863C25.8739 39.4919 24.2645 38.4591 24.1572 37.2722L23.4263 27.4212C23.4263 27.3408 23.4263 27.2804 23.4263 27.2536C23.4263 25.2888 24.9753 23.6592 26.8731 23.6123H37.0929C39.004 23.6592 40.5464 25.2888 40.5464 27.2469H40.5397Z" fill="black"></path><path d="M40.5397 27.2469L39.802 37.2655C39.7015 38.4592 38.0853 39.4986 36.7911 39.6863C36.7307 39.693 36.6771 39.6997 36.6234 39.7064L35.6377 53.0511C35.5974 53.5742 35.1549 54.0034 34.6385 54.0034H29.3207C28.8111 54.0034 28.3618 53.5742 28.3216 53.0511L27.3358 39.7064C27.2822 39.7064 27.2218 39.693 27.1682 39.6863C25.8739 39.4919 24.2645 38.4591 24.1572 37.2722L23.4263 27.4212C23.4263 27.3408 23.4263 27.2804 23.4263 27.2536C23.4263 25.2888 24.9753 23.6592 26.8731 23.6123H37.0929C39.004 23.6592 40.5464 25.2888 40.5464 27.2469H40.5397Z" stroke="black" stroke-linecap="round" stroke-linejoin="round"></path><path d="M40.5397 27.2469L39.802 37.2655C39.7015 38.4592 38.0853 39.4986 36.7911 39.6863C36.7307 39.693 36.6771 39.6997 36.6234 39.7064L35.6377 53.0511C35.5974 53.5742 35.1549 54.0034 34.6385 54.0034H29.3207C28.8111 54.0034 28.3618 53.5742 28.3216 53.0511L27.3358 39.7064C27.2822 39.7064 27.2218 39.693 27.1682 39.6863C25.8739 39.4919 24.2645 38.4591 24.1572 37.2722L23.4263 27.4212C23.4263 27.3408 23.4263 27.2804 23.4263 27.2536C23.4263 25.2888 24.9753 23.6592 26.8731 23.6123H37.0929C39.004 23.6592 40.5464 25.2888 40.5464 27.2469H40.5397Z" stroke="url(#paint0_linear_497_13452)" stroke-linecap="round" stroke-linejoin="round"></path><path d="M31.9763 20.9166C30.1792 20.9166 28.7173 19.4547 28.7173 17.6575C28.7173 15.8603 30.1792 14.3984 31.9763 14.3984C33.7735 14.3984 35.2354 15.8603 35.2354 17.6575C35.2354 19.4547 33.7735 20.9166 31.9763 20.9166Z" stroke="black" stroke-linecap="round" stroke-linejoin="round"></path><path d="M31.9763 20.9166C30.1792 20.9166 28.7173 19.4547 28.7173 17.6575C28.7173 15.8603 30.1792 14.3984 31.9763 14.3984C33.7735 14.3984 35.2354 15.8603 35.2354 17.6575C35.2354 19.4547 33.7735 20.9166 31.9763 20.9166Z" stroke="url(#paint1_linear_497_13452)" stroke-linecap="round" stroke-linejoin="round"></path><path d="M31.9761 38.7676V53.5876" stroke="black" stroke-linecap="round" stroke-linejoin="round"></path><path d="M31.9761 38.7676V53.5876" stroke="url(#paint2_linear_497_13452)" stroke-linecap="round" stroke-linejoin="round"></path><path d="M27.3361 39.7069L26.5112 28.5752" stroke="black" stroke-linecap="round" stroke-linejoin="round"></path><path d="M27.3361 39.7069L26.5112 28.5752" stroke="url(#paint3_linear_497_13452)" stroke-linecap="round" stroke-linejoin="round"></path><path d="M36.6235 39.7069L37.4484 28.5752" stroke="black" stroke-linecap="round" stroke-linejoin="round"></path><path d="M36.6235 39.7069L37.4484 28.5752" stroke="url(#paint4_linear_497_13452)" stroke-linecap="round" stroke-linejoin="round"></path><defs><linearGradient id="paint0_linear_497_13452" x1="29.1564" y1="34.0092" x2="54.3989" y2="46.3768" gradientUnits="userSpaceOnUse"><stop offset="0.236106" stop-color="#DA291C"></stop><stop offset="1" stop-color="#FFCD00"></stop></linearGradient><linearGradient id="paint1_linear_497_13452" x1="30.8989" y1="16.6283" x2="37.6839" y2="22.5295" gradientUnits="userSpaceOnUse"><stop offset="0.236106" stop-color="#DA291C"></stop><stop offset="1" stop-color="#FFCD00"></stop></linearGradient><linearGradient id="paint2_linear_497_13452" x1="32.3108" y1="43.8376" x2="34.1329" y2="43.9445" gradientUnits="userSpaceOnUse"><stop offset="0.236106" stop-color="#DA291C"></stop><stop offset="1" stop-color="#FFCD00"></stop></linearGradient><linearGradient id="paint3_linear_497_13452" x1="26.7873" y1="32.3834" x2="28.2892" y2="32.4802" gradientUnits="userSpaceOnUse"><stop offset="0.236106" stop-color="#DA291C"></stop><stop offset="1" stop-color="#FFCD00"></stop></linearGradient><linearGradient id="paint4_linear_497_13452" x1="36.8996" y1="32.3834" x2="38.4015" y2="32.4802" gradientUnits="userSpaceOnUse"><stop offset="0.236106" stop-color="#DA291C"></stop><stop offset="1" stop-color="#FFCD00"></stop></linearGradient></defs></svg> 