<?xml version="1.0" encoding="UTF-8"?> <svg xmlns="http://www.w3.org/2000/svg" width="64" height="64" viewBox="0 0 64 64" fill="none"><path d="M11.0559 39.2011V29.7964H31.5679" stroke="white" stroke-miterlimit="10"></path><path d="M52.0798 38.9048V29.7964H31.5679" stroke="white" stroke-miterlimit="10"></path><path d="M31.5679 38.9051V29.7968V22.5259" stroke="url(#paint0_linear_1549_35092)" stroke-miterlimit="10"></path><path d="M13.7683 36.5615L11.0558 39.2486L8.36316 36.5615" stroke="white" stroke-miterlimit="10"></path><path d="M34.2605 36.5615L31.5678 39.2486L28.8751 36.5615" stroke="url(#paint1_linear_1549_35092)" stroke-miterlimit="10"></path><path d="M54.7726 36.5615L52.0799 39.2486L49.3674 36.5615" stroke="white" stroke-miterlimit="10"></path><path d="M56 45.1489H45.744V55.3835H56V45.1489Z" stroke="white" stroke-miterlimit="10"></path><path d="M26.4398 50.2662C26.4398 53.0924 28.7416 55.3835 31.5678 55.3835C34.394 55.3835 36.6958 53.0924 36.6958 50.2662C36.6958 47.44 34.394 45.1489 31.5678 45.1489C28.7416 45.1489 26.4398 47.44 26.4398 50.2662Z" stroke="black" stroke-miterlimit="10"></path><path d="M26.4398 50.2662C26.4398 53.0924 28.7416 55.3835 31.5678 55.3835C34.394 55.3835 36.6958 53.0924 36.6958 50.2662C36.6958 47.44 34.394 45.1489 31.5678 45.1489C28.7416 45.1489 26.4398 47.44 26.4398 50.2662Z" stroke="url(#paint2_linear_1549_35092)" stroke-miterlimit="10"></path><path d="M41.8238 9.09082H21.3119V19.3254H41.8238V9.09082Z" stroke="black" stroke-miterlimit="10"></path><path d="M41.8238 9.09082H21.3119V19.3254H41.8238V9.09082Z" stroke="url(#paint3_linear_1549_35092)" stroke-miterlimit="10"></path><path d="M17.3718 45.1489H7.11584V55.3835H17.3718V45.1489Z" stroke="white" stroke-miterlimit="10"></path><defs><linearGradient id="paint0_linear_1549_35092" x1="32.0679" y1="22.5259" x2="32.0679" y2="38.9051" gradientUnits="userSpaceOnUse"><stop stop-color="white"></stop><stop offset="1" stop-color="white"></stop></linearGradient><linearGradient id="paint1_linear_1549_35092" x1="31.5678" y1="36.5615" x2="31.5678" y2="39.2486" gradientUnits="userSpaceOnUse"><stop stop-color="white"></stop><stop offset="1" stop-color="white"></stop></linearGradient><linearGradient id="paint2_linear_1549_35092" x1="29.8725" y1="48.6502" x2="40.5292" y2="57.9382" gradientUnits="userSpaceOnUse"><stop offset="0.236106" stop-color="#DA291C"></stop><stop offset="1" stop-color="#FFCD00"></stop></linearGradient><linearGradient id="paint3_linear_1549_35092" x1="28.1773" y1="12.5921" x2="37.4638" y2="28.7797" gradientUnits="userSpaceOnUse"><stop offset="0.236106" stop-color="#DA291C"></stop><stop offset="1" stop-color="#FFCD00"></stop></linearGradient></defs></svg> 