<?xml version="1.0" encoding="UTF-8"?> <svg xmlns="http://www.w3.org/2000/svg" width="64" height="64" viewBox="0 0 64 64" fill="none"><g clip-path="url(#clip0_1447_33143)"><path d="M48.8162 22.8625C51.9258 22.1066 53.8338 18.9729 53.0779 15.8633C52.3219 12.7537 49.1883 10.8457 46.0787 11.6017C42.9691 12.3576 41.0611 15.4913 41.817 18.6009C42.573 21.7105 45.7066 23.6185 48.8162 22.8625Z" stroke="#DC372A" stroke-linecap="round" stroke-linejoin="round"></path><path d="M43.904 28.7555C44.9868 29.0886 46.1155 29.2674 47.2763 29.2834C47.6248 29.2941 47.9297 29.5181 48.0118 29.8559L48.4635 31.714C48.562 32.1194 48.968 32.3665 49.3734 32.268L52.6053 31.4823C53.0107 31.3837 53.2578 30.9778 53.1155 30.3922L52.7076 28.7144C52.6255 28.3765 52.7935 28.0375 53.1009 27.8793C54.1248 27.3323 55.0455 26.6552 55.8545 25.8622C56.1062 25.6221 56.486 25.5656 56.78 25.7446L58.4178 26.7418C58.7678 26.9549 59.2295 26.8426 59.4426 26.4927L61.1728 23.651C61.3859 23.301 61.2736 22.8393 60.7557 22.524L59.2858 21.629C58.9891 21.4388 58.8678 21.0867 58.9655 20.7528C59.2986 19.67 59.4774 18.5412 59.4934 17.3805C59.5041 17.032 59.7281 16.7271 60.0659 16.645L61.924 16.1933C62.3293 16.0947 62.5765 15.6888 62.478 15.2834L62.4725 15.2609L61.6868 12.029C61.5883 11.6236 61.1823 11.3765 60.7769 11.475L58.9189 11.9267C58.5811 12.0088 58.2308 11.8435 58.0726 11.5361C57.5255 10.5123 56.8485 9.59155 56.0555 8.78252C55.8154 8.5308 55.7588 8.15098 55.9378 7.85701L56.8327 6.38719C57.1481 5.86925 57.0359 5.40754 56.6859 5.19445L53.8443 3.46423C53.4943 3.25114 53.0326 3.36339 52.8195 3.71335L51.8223 5.35116C51.6433 5.64513 51.2799 5.76926 50.9461 5.67152C49.8633 5.33844 48.7345 5.15964 47.5738 5.14366C47.228 5.14422 46.9231 4.9202 46.841 4.58237L46.4331 2.9045C46.2907 2.31893 45.8848 2.07176 45.4794 2.17031L42.2475 2.956C41.8421 3.05455 41.5949 3.4605 41.6935 3.86589L42.1452 5.72394C42.2273 6.06176 42.062 6.41202 41.7546 6.57024C40.7308 7.1173 39.81 7.79434 39.001 8.58734C38.7493 8.82743 38.3695 8.88398 38.0755 8.705L36.6057 7.81005C36.0877 7.49469 35.626 7.60694 35.413 7.9569L33.6827 10.7986C33.4696 11.1485 33.5819 11.6102 33.9318 11.8233L35.5697 12.8205C35.8636 12.9995 35.9878 13.3629 35.89 13.6967C35.5569 14.7795 35.3781 15.9083 35.3622 17.069C35.3627 17.4148 35.1387 17.7197 34.8009 17.8018L33.123 18.2097" stroke="#DC372A" stroke-linejoin="round"></path><mask id="path-3-inside-1_1447_33143" fill="white"><path d="M33.8752 44.5549L39.9874 23.194C40.0164 23.0791 39.9946 22.9642 39.9292 22.8709C39.8565 22.7704 39.7403 22.7201 39.624 22.7201H6.30117V20.7456C6.30117 19.4244 5.77789 18.1823 4.83308 17.2488L0.646833 13.1131C0.494209 12.9623 0.26164 12.9623 0.109017 13.1131C-0.0363389 13.2567 -0.0363389 13.4936 0.109017 13.6444L4.29526 17.7802C5.10199 18.5772 5.54532 19.6255 5.54532 20.7456V45.8832C5.54532 48.4393 7.63844 50.5 10.2112 50.5H34.304C34.5147 50.5 34.6819 50.3349 34.6819 50.1266C34.6819 49.9256 34.5147 49.7533 34.304 49.7533H10.2112C8.13265 49.7533 6.45379 48.1449 6.32298 46.1201L33.5263 44.8349C33.6862 44.8205 33.8316 44.7056 33.8752 44.5549ZM6.30117 45.3662V23.4668H39.1225L33.2211 44.0953L6.30117 45.3662Z"></path></mask><path d="M33.8752 44.5549L34.8358 44.8327L34.8366 44.83L33.8752 44.5549ZM39.9874 23.194L40.9488 23.4691L40.953 23.4543L40.9568 23.4393L39.9874 23.194ZM39.9292 22.8709L40.7482 22.297L40.7439 22.291L40.7396 22.285L39.9292 22.8709ZM6.30117 22.7201H5.30117V23.7201H6.30117V22.7201ZM4.83308 17.2488L5.53588 16.5375L4.83308 17.2488ZM0.646833 13.1131L-0.0559706 13.8245L-0.0559706 13.8245L0.646833 13.1131ZM0.109017 13.6444L-0.610927 14.3384L-0.602463 14.3472L-0.593787 14.3558L0.109017 13.6444ZM4.29526 17.7802L4.99807 17.0688L4.29526 17.7802ZM6.32298 46.1201L6.27578 45.1212L5.25946 45.1693L5.32506 46.1846L6.32298 46.1201ZM33.5263 44.8349L33.5735 45.8338L33.5947 45.8328L33.6158 45.8309L33.5263 44.8349ZM6.30117 45.3662H5.30117V46.4145L6.34833 46.3651L6.30117 45.3662ZM6.30117 23.4668V22.4668H5.30117V23.4668H6.30117ZM39.1225 23.4668L40.0839 23.7419L40.4487 22.4668H39.1225V23.4668ZM33.2211 44.0953L33.2682 45.0942L33.9851 45.0604L34.1825 44.3704L33.2211 44.0953ZM34.8366 44.83L40.9488 23.4691L39.026 22.9189L32.9137 44.2798L34.8366 44.83ZM40.9568 23.4393C41.0568 23.0441 40.9814 22.6299 40.7482 22.297L39.1103 23.4448C39.0078 23.2985 38.9761 23.1141 39.0179 22.9487L40.9568 23.4393ZM40.7396 22.285C40.4555 21.8921 40.0191 21.7201 39.624 21.7201V23.7201C39.4614 23.7201 39.2576 23.6486 39.1188 23.4568L40.7396 22.285ZM39.624 21.7201H6.30117V23.7201H39.624V21.7201ZM7.30117 22.7201V20.7456H5.30117V22.7201H7.30117ZM7.30117 20.7456C7.30117 19.1541 6.66872 17.6566 5.53588 16.5375L4.13028 17.9602C4.88707 18.7079 5.30117 19.6947 5.30117 20.7456H7.30117ZM5.53588 16.5375L1.34964 12.4017L-0.0559706 13.8245L4.13028 17.9602L5.53588 16.5375ZM1.34964 12.4017C0.807493 11.8661 -0.0516436 11.8661 -0.593787 12.4017L0.81182 13.8245C0.574924 14.0585 0.180925 14.0585 -0.0559706 13.8245L1.34964 12.4017ZM-0.593787 12.4017C-1.14479 12.9461 -1.12031 13.81 -0.610927 14.3384L0.828961 12.9504C1.04763 13.1772 1.07211 13.5673 0.81182 13.8245L-0.593787 12.4017ZM-0.593787 14.3558L3.59246 18.4916L4.99807 17.0688L0.81182 12.933L-0.593787 14.3558ZM3.59246 18.4916C4.21264 19.1043 4.54532 19.8978 4.54532 20.7456H6.54532C6.54532 19.3531 5.99133 18.0501 4.99807 17.0688L3.59246 18.4916ZM4.54532 20.7456V45.8832H6.54532V20.7456H4.54532ZM4.54532 45.8832C4.54532 49.003 7.09764 51.5 10.2112 51.5V49.5C8.17925 49.5 6.54532 47.8756 6.54532 45.8832H4.54532ZM10.2112 51.5H34.304V49.5H10.2112V51.5ZM34.304 51.5C35.0555 51.5 35.6819 50.8985 35.6819 50.1266H33.6819C33.6819 49.7712 33.9739 49.5 34.304 49.5V51.5ZM35.6819 50.1266C35.6819 49.3744 35.0681 48.7533 34.304 48.7533V50.7533C33.9614 50.7533 33.6819 50.4768 33.6819 50.1266H35.6819ZM34.304 48.7533H10.2112V50.7533H34.304V48.7533ZM10.2112 48.7533C8.66382 48.7533 7.41797 47.5582 7.32089 46.0556L5.32506 46.1846C5.48962 48.7316 7.60149 50.7533 10.2112 50.7533V48.7533ZM6.37017 47.119L33.5735 45.8338L33.4791 43.836L6.27578 45.1212L6.37017 47.119ZM33.6158 45.8309C34.1615 45.7819 34.6709 45.403 34.8358 44.8327L32.9145 44.277C32.9561 44.1332 33.0381 44.0303 33.1201 43.9648C33.2021 43.8993 33.3095 43.8503 33.4369 43.8389L33.6158 45.8309ZM7.30117 45.3662V23.4668H5.30117V45.3662H7.30117ZM6.30117 24.4668H39.1225V22.4668H6.30117V24.4668ZM38.1611 23.1918L32.2596 43.8203L34.1825 44.3704L40.0839 23.7419L38.1611 23.1918ZM33.1739 43.0964L6.25401 44.3673L6.34833 46.3651L33.2682 45.0942L33.1739 43.0964Z" fill="black" mask="url(#path-3-inside-1_1447_33143)"></path><path d="M29.375 53C27.6514 53 26.25 54.4014 26.25 56.125C26.25 57.8411 27.6514 59.25 29.375 59.25C31.0986 59.25 32.5 57.8411 32.5 56.125C32.5 54.3939 31.1061 53 29.375 53ZM29.375 58.4706C28.086 58.4706 27.0294 57.414 27.0294 56.125C27.0294 54.8285 28.086 53.7794 29.375 53.7794C30.664 53.7794 31.7206 54.8285 31.7206 56.125C31.7206 57.414 30.664 58.4706 29.375 58.4706Z" fill="black"></path><path d="M13.125 53C11.4014 53 10 54.4014 10 56.125C10 57.8411 11.4014 59.25 13.125 59.25C14.8411 59.25 16.25 57.8411 16.25 56.125C16.25 54.3939 14.8486 53 13.125 53ZM13.125 58.4706C11.8285 58.4706 10.7794 57.414 10.7794 56.125C10.7794 54.8285 11.8285 53.7794 13.125 53.7794C14.414 53.7794 15.4706 54.8285 15.4706 56.125C15.4706 57.414 14.414 58.4706 13.125 58.4706Z" fill="black"></path></g><defs><clipPath id="clip0_1447_33143"><rect width="64" height="64" fill="white"></rect></clipPath></defs></svg> 