<?xml version="1.0" encoding="UTF-8"?> <svg xmlns="http://www.w3.org/2000/svg" xmlns:xlink="http://www.w3.org/1999/xlink" width="75" height="75" viewBox="0 0 75 75"><defs><clipPath id="clip-icon-vue-js"><rect width="75" height="75"></rect></clipPath></defs><g id="icon-vue-js" clip-path="url(#clip-icon-vue-js)"><rect width="75" height="75" fill="rgba(255,255,255,0)"></rect><g id="dd6f1aea1a117a3ba358060ef8b1e332" transform="translate(2.539 -1.517)"><path id="Path_37777" data-name="Path 37777" d="M0,8.934l27.234.087,7.739,13.367L42.857,9.02l27.066-.086L35.052,69.1Zm69.365.348-13.307.011L35.04,45.375,14.034,9.293.515,9.283,35.045,68.22Zm-13.738,0L43.2,9.369,34.979,22.833,26.885,9.369,14.434,9.277,35.045,44.5ZM14.2,9.185l12.565,0m-12.565,0,12.565,0" transform="translate(0)" fill="none"></path><path id="Path_37778" data-name="Path 37778" d="M26,9.393l12.565,0,8.214,13.634L54.961,9.4l12.554,0L46.839,45.261Z" transform="translate(-11.796 -0.208)" fill="#35495e"></path><path id="Path_37779" data-name="Path 37779" d="M.911,9.491,14.6,9.4,35.444,45.265,56.122,9.4l13.717.014-34.4,59.03Z" transform="translate(-0.413 -0.21)" fill="#41b883"></path></g></g></svg> 