<?xml version="1.0" encoding="UTF-8"?> <svg xmlns="http://www.w3.org/2000/svg" width="64" height="64" viewBox="0 0 64 64" fill="none"><path d="M11.9326 21.822C11.9326 21.822 11.9326 21.8489 11.9326 21.8623L12.6702 31.8809C12.7909 33.269 14.3802 34.4425 15.8823 34.7644L16.8346 47.6732C16.8949 48.4846 17.5924 49.1418 18.3836 49.1418H23.7014C24.4994 49.1418 25.1968 48.4846 25.2505 47.6732L26.2027 34.7711C27.7048 34.4425 29.2941 33.2757 29.4148 31.901L30.1457 22.0433C30.1457 21.9226 30.1457 21.8489 30.1457 21.8019C30.1457 19.5689 28.3553 17.6845 26.1558 17.6309H15.9226C13.7029 17.6845 11.9058 19.5689 11.9058 21.8287L11.9326 21.822Z" fill="white"></path><path d="M24.8681 12.2326C24.8681 10.127 23.1581 8.41699 21.0525 8.41699C18.9468 8.41699 17.2368 10.127 17.2368 12.2326C17.2368 14.3383 18.9468 16.0483 21.0525 16.0483C23.1581 16.0483 24.8681 14.3383 24.8681 12.2326Z" fill="white"></path><path d="M12.496 21.8221L13.2336 31.8407C13.3342 33.0343 14.9503 34.0737 16.2446 34.2615C16.3049 34.2682 16.3586 34.2749 16.4122 34.2816L17.398 47.6263C17.4382 48.1494 17.8808 48.5786 18.3971 48.5786H23.7149C24.2245 48.5786 24.6739 48.1494 24.7141 47.6263L25.6999 34.2816C25.7535 34.2816 25.8139 34.2682 25.8675 34.2615C27.1617 34.0737 28.7711 33.0343 28.8784 31.8474L29.6094 21.9964C29.6094 21.916 29.6094 21.8556 29.6094 21.8288C29.6094 19.864 28.0603 18.2344 26.1626 18.1875H15.9428C14.0316 18.2344 12.4893 19.864 12.4893 21.8221H12.496Z" stroke="#2E2D2C" stroke-linecap="round" stroke-linejoin="round"></path><path d="M21.0525 15.4917C22.8497 15.4917 24.3116 14.0299 24.3116 12.2327C24.3116 10.4355 22.8497 8.97363 21.0525 8.97363C19.2553 8.97363 17.7935 10.4355 17.7935 12.2327C17.7935 14.0299 19.2553 15.4917 21.0525 15.4917Z" stroke="#2E2D2C" stroke-linecap="round" stroke-linejoin="round"></path><path d="M21.0596 33.3496V48.1629" stroke="#2E2D2C" stroke-linecap="round" stroke-linejoin="round"></path><path d="M25.6997 34.2813L26.5245 23.1562" stroke="#2E2D2C" stroke-linecap="round" stroke-linejoin="round"></path><path d="M16.4122 34.2813L15.5874 23.1562" stroke="#2E2D2C" stroke-linecap="round" stroke-linejoin="round"></path><path d="M48.0034 17.6239H37.7703C35.5708 17.6775 33.7803 19.5619 33.7803 21.795C33.7803 21.8352 33.7803 21.9157 33.7803 22.0364L34.5112 31.894C34.6319 33.2687 36.2212 34.4355 37.7233 34.7641L38.6756 47.6662C38.7359 48.4777 39.4333 49.1348 40.2313 49.1348H45.5491C46.3471 49.1348 47.0445 48.4777 47.0982 47.6662L48.0504 34.7574C49.5592 34.4288 51.1418 33.2553 51.2625 31.8739L52.0002 21.8553C52.0002 21.8553 52.0002 21.8285 52.0002 21.8151C52.0002 19.5552 50.203 17.6775 47.99 17.6172L48.0034 17.6239Z" fill="white"></path><path d="M42.9001 16.0483C45.0058 16.0483 46.7158 14.3383 46.7158 12.2326C46.7158 10.127 45.0058 8.41699 42.9001 8.41699C40.7945 8.41699 39.0845 10.127 39.0845 12.2326C39.0845 14.3383 40.7945 16.0483 42.9001 16.0483Z" fill="white"></path><path d="M51.4635 21.8221L50.7258 31.8407C50.6253 33.0343 49.0091 34.0737 47.7149 34.2615C47.6546 34.2682 47.6009 34.2749 47.5473 34.2816L46.5615 47.6263C46.5213 48.1494 46.0787 48.5786 45.5623 48.5786H40.2446C39.7349 48.5786 39.2856 48.1494 39.2454 47.6263L38.2596 34.2816C38.206 34.2816 38.1456 34.2682 38.092 34.2615C36.7977 34.0737 35.1883 33.0343 35.081 31.8474L34.3501 21.9964C34.3501 21.916 34.3501 21.8556 34.3501 21.8288C34.3501 19.864 35.8991 18.2344 37.7969 18.1875H48.0167C49.9279 18.2344 51.4702 19.864 51.4702 21.8221H51.4635Z" stroke="#2E2D2C" stroke-linecap="round" stroke-linejoin="round"></path><path d="M42.9002 15.4917C41.103 15.4917 39.6411 14.0299 39.6411 12.2327C39.6411 10.4355 41.103 8.97363 42.9002 8.97363C44.6974 8.97363 46.1592 10.4355 46.1592 12.2327C46.1592 14.0299 44.6974 15.4917 42.9002 15.4917Z" stroke="#2E2D2C" stroke-linecap="round" stroke-linejoin="round"></path><path d="M42.8999 33.3496V48.1629" stroke="#2E2D2C" stroke-linecap="round" stroke-linejoin="round"></path><path d="M38.2594 34.2813L37.4346 23.1562" stroke="#2E2D2C" stroke-linecap="round" stroke-linejoin="round"></path><path d="M47.5474 34.2813L48.3722 23.1562" stroke="#2E2D2C" stroke-linecap="round" stroke-linejoin="round"></path><path d="M29.3212 55.0704C28.2684 55.0704 27.343 54.1986 27.2692 53.1324L26.3438 40.5857C24.8149 40.1297 23.2457 38.9159 23.1049 37.3669L22.3672 27.5025C22.3605 27.3416 22.3672 27.2544 22.3672 27.2008C22.3672 24.7062 24.379 22.6072 26.8468 22.5469H37.0933C39.5879 22.6072 41.6064 24.7129 41.6064 27.2477V27.3349L40.8688 37.3401C40.7346 38.9092 39.1588 40.1297 37.6298 40.5857L36.7044 53.1324C36.6307 54.1986 35.7052 55.0704 34.6524 55.0704H29.3346H29.3212Z" fill="white"></path><path d="M37.0864 23.0498C39.306 23.1035 41.1032 24.9878 41.1032 27.2477C41.1032 27.2611 41.1032 27.2745 41.1032 27.2879L40.3656 37.3065C40.2449 38.6947 38.6556 39.8682 37.1534 40.1901L36.2012 53.0989C36.1409 53.9103 35.4434 54.5675 34.6521 54.5675H29.3344C28.5364 54.5675 27.839 53.9103 27.7786 53.0989L26.8264 40.1968C25.3243 39.8682 23.735 38.7013 23.6143 37.3266L22.8833 27.469C22.8833 27.3483 22.8833 27.2745 22.8833 27.2276C22.8833 24.9945 24.6738 23.1102 26.8733 23.0565H37.1065M37.1199 22.0507H26.8733C24.1172 22.1177 21.8909 24.4312 21.8774 27.2075C21.8774 27.2678 21.8774 27.3751 21.8774 27.5226L22.6151 37.4004C22.7626 39.0702 24.2983 40.3845 25.8809 40.9612L26.7862 53.1726C26.8867 54.5205 28.0066 55.5734 29.3411 55.5734H34.6588C35.9732 55.5734 37.1199 54.4937 37.2138 53.1726L38.1191 40.9612C39.7084 40.3845 41.2373 39.0635 41.3848 37.3937L42.1225 27.3617C42.1225 27.3617 42.1225 27.2947 42.1225 27.2477C42.1225 24.4447 39.8827 22.1177 37.1266 22.0439H37.1132L37.1199 22.0507Z" fill="white"></path><path d="M31.9766 22.2121C29.4686 22.2121 27.4233 20.1735 27.4233 17.6587C27.4233 15.144 29.4686 13.1055 31.9766 13.1055C34.4846 13.1055 36.5299 15.144 36.5299 17.6587C36.5299 20.1735 34.4846 22.2121 31.9766 22.2121Z" fill="white"></path><path d="M31.9765 13.8424C34.0821 13.8424 35.7921 15.5524 35.7921 17.6581C35.7921 19.7637 34.0821 21.4737 31.9765 21.4737C29.8708 21.4737 28.1608 19.7637 28.1608 17.6581C28.1608 15.5524 29.8708 13.8424 31.9765 13.8424ZM31.9765 12.3672C29.0594 12.3672 26.6855 14.741 26.6855 17.6581C26.6855 20.5752 29.0594 22.949 31.9765 22.949C34.8935 22.949 37.2674 20.5752 37.2674 17.6581C37.2674 14.741 34.8935 12.3672 31.9765 12.3672Z" fill="white"></path><path d="M40.5402 27.2469L39.8025 37.2655C39.7019 38.4592 38.0858 39.4986 36.7916 39.6863C36.7312 39.693 36.6776 39.6997 36.6239 39.7064L35.6382 53.0511C35.5979 53.5742 35.1553 54.0034 34.639 54.0034H29.3212C28.8116 54.0034 28.3623 53.5742 28.3221 53.0511L27.3363 39.7064C27.2827 39.7064 27.2223 39.693 27.1687 39.6863C25.8744 39.4919 24.265 38.4591 24.1577 37.2722L23.4268 27.4212C23.4268 27.3408 23.4268 27.2804 23.4268 27.2536C23.4268 25.2888 24.9758 23.6592 26.8736 23.6123H37.0933C39.0045 23.6592 40.5469 25.2888 40.5469 27.2469H40.5402Z" stroke="#2E2D2C" stroke-linecap="round" stroke-linejoin="round"></path><path d="M31.9768 20.9166C30.1796 20.9166 28.7178 19.4547 28.7178 17.6575C28.7178 15.8603 30.1796 14.3984 31.9768 14.3984C33.774 14.3984 35.2359 15.8603 35.2359 17.6575C35.2359 19.4547 33.774 20.9166 31.9768 20.9166Z" stroke="#2E2D2C" stroke-linecap="round" stroke-linejoin="round"></path><path d="M31.9766 38.7676V53.5876" stroke="#2E2D2C" stroke-linecap="round" stroke-linejoin="round"></path><path d="M27.3365 39.7069L26.5117 28.5752" stroke="#2E2D2C" stroke-linecap="round" stroke-linejoin="round"></path><path d="M36.624 39.7069L37.4489 28.5752" stroke="#2E2D2C" stroke-linecap="round" stroke-linejoin="round"></path><path d="M40.5397 27.2469L39.802 37.2655C39.7015 38.4592 38.0853 39.4986 36.7911 39.6863C36.7307 39.693 36.6771 39.6997 36.6234 39.7064L35.6377 53.0511C35.5974 53.5742 35.1549 54.0034 34.6385 54.0034H29.3207C28.8111 54.0034 28.3618 53.5742 28.3216 53.0511L27.3358 39.7064C27.2822 39.7064 27.2218 39.693 27.1682 39.6863C25.8739 39.4919 24.2645 38.4591 24.1572 37.2722L23.4263 27.4212C23.4263 27.3408 23.4263 27.2804 23.4263 27.2536C23.4263 25.2888 24.9753 23.6592 26.8731 23.6123H37.0929C39.004 23.6592 40.5464 25.2888 40.5464 27.2469H40.5397Z" stroke="black" stroke-linecap="round" stroke-linejoin="round"></path><path d="M40.5397 27.2469L39.802 37.2655C39.7015 38.4592 38.0853 39.4986 36.7911 39.6863C36.7307 39.693 36.6771 39.6997 36.6234 39.7064L35.6377 53.0511C35.5974 53.5742 35.1549 54.0034 34.6385 54.0034H29.3207C28.8111 54.0034 28.3618 53.5742 28.3216 53.0511L27.3358 39.7064C27.2822 39.7064 27.2218 39.693 27.1682 39.6863C25.8739 39.4919 24.2645 38.4591 24.1572 37.2722L23.4263 27.4212C23.4263 27.3408 23.4263 27.2804 23.4263 27.2536C23.4263 25.2888 24.9753 23.6592 26.8731 23.6123H37.0929C39.004 23.6592 40.5464 25.2888 40.5464 27.2469H40.5397Z" stroke="url(#paint0_linear_497_11598)" stroke-linecap="round" stroke-linejoin="round"></path><path d="M31.9763 20.9166C30.1792 20.9166 28.7173 19.4547 28.7173 17.6575C28.7173 15.8603 30.1792 14.3984 31.9763 14.3984C33.7735 14.3984 35.2354 15.8603 35.2354 17.6575C35.2354 19.4547 33.7735 20.9166 31.9763 20.9166Z" stroke="black" stroke-linecap="round" stroke-linejoin="round"></path><path d="M31.9763 20.9166C30.1792 20.9166 28.7173 19.4547 28.7173 17.6575C28.7173 15.8603 30.1792 14.3984 31.9763 14.3984C33.7735 14.3984 35.2354 15.8603 35.2354 17.6575C35.2354 19.4547 33.7735 20.9166 31.9763 20.9166Z" stroke="url(#paint1_linear_497_11598)" stroke-linecap="round" stroke-linejoin="round"></path><path d="M31.9761 38.7676V53.5876" stroke="black" stroke-linecap="round" stroke-linejoin="round"></path><path d="M31.9761 38.7676V53.5876" stroke="url(#paint2_linear_497_11598)" stroke-linecap="round" stroke-linejoin="round"></path><path d="M27.3361 39.7069L26.5112 28.5752" stroke="black" stroke-linecap="round" stroke-linejoin="round"></path><path d="M27.3361 39.7069L26.5112 28.5752" stroke="url(#paint3_linear_497_11598)" stroke-linecap="round" stroke-linejoin="round"></path><path d="M36.6235 39.7069L37.4484 28.5752" stroke="black" stroke-linecap="round" stroke-linejoin="round"></path><path d="M36.6235 39.7069L37.4484 28.5752" stroke="url(#paint4_linear_497_11598)" stroke-linecap="round" stroke-linejoin="round"></path><defs><linearGradient id="paint0_linear_497_11598" x1="29.1564" y1="34.0092" x2="54.3989" y2="46.3768" gradientUnits="userSpaceOnUse"><stop offset="0.236106" stop-color="#DA291C"></stop><stop offset="1" stop-color="#FFCD00"></stop></linearGradient><linearGradient id="paint1_linear_497_11598" x1="30.8989" y1="16.6283" x2="37.6839" y2="22.5295" gradientUnits="userSpaceOnUse"><stop offset="0.236106" stop-color="#DA291C"></stop><stop offset="1" stop-color="#FFCD00"></stop></linearGradient><linearGradient id="paint2_linear_497_11598" x1="32.3108" y1="43.8376" x2="34.1329" y2="43.9445" gradientUnits="userSpaceOnUse"><stop offset="0.236106" stop-color="#DA291C"></stop><stop offset="1" stop-color="#FFCD00"></stop></linearGradient><linearGradient id="paint3_linear_497_11598" x1="26.7873" y1="32.3834" x2="28.2892" y2="32.4802" gradientUnits="userSpaceOnUse"><stop offset="0.236106" stop-color="#DA291C"></stop><stop offset="1" stop-color="#FFCD00"></stop></linearGradient><linearGradient id="paint4_linear_497_11598" x1="36.8996" y1="32.3834" x2="38.4015" y2="32.4802" gradientUnits="userSpaceOnUse"><stop offset="0.236106" stop-color="#DA291C"></stop><stop offset="1" stop-color="#FFCD00"></stop></linearGradient></defs></svg> 