<?xml version="1.0" encoding="UTF-8"?> <svg xmlns="http://www.w3.org/2000/svg" width="64" height="64" viewBox="0 0 64 64" fill="none"><path d="M11.9324 22.823C11.9324 22.823 11.9324 22.8498 11.9324 22.8632L12.67 32.8818C12.7907 34.27 14.38 35.4435 15.8822 35.7654L16.8344 48.6742C16.8948 49.4856 17.5922 50.1428 18.3835 50.1428H23.7012C24.4992 50.1428 25.1966 49.4856 25.2503 48.6742L26.2025 35.7721C27.7046 35.4435 29.2939 34.2767 29.4146 32.902L30.1456 23.0443C30.1456 22.9236 30.1456 22.8499 30.1456 22.8029C30.1456 20.5699 28.3551 18.6855 26.1556 18.6318H15.9224C13.7027 18.6855 11.9056 20.5698 11.9056 22.8297L11.9324 22.823Z" fill="white"></path><path d="M24.868 13.2336C24.868 11.128 23.158 9.41797 21.0524 9.41797C18.9467 9.41797 17.2367 11.128 17.2367 13.2336C17.2367 15.3393 18.9467 17.0493 21.0524 17.0493C23.158 17.0493 24.868 15.3393 24.868 13.2336Z" fill="white"></path><path d="M12.4957 22.8231L13.2333 32.8416C13.3339 34.0353 14.95 35.0747 16.2443 35.2625C16.3046 35.2692 16.3583 35.2759 16.4119 35.2826L17.3977 48.6273C17.4379 49.1503 17.8805 49.5795 18.3968 49.5795H23.7146C24.2242 49.5795 24.6735 49.1503 24.7138 48.6273L25.6995 35.2826C25.7532 35.2826 25.8135 35.2692 25.8672 35.2625C27.1614 35.0747 28.7708 34.0353 28.8781 32.8484L29.6091 22.9974C29.6091 22.9169 29.6091 22.8566 29.6091 22.8298C29.6091 20.8649 28.06 19.2354 26.1623 19.1885H15.9425C14.0313 19.2354 12.489 20.8649 12.489 22.8231H12.4957Z" stroke="#2E2D2C" stroke-linecap="round" stroke-linejoin="round"></path><path d="M21.0524 16.4927C22.8496 16.4927 24.3115 15.0308 24.3115 13.2337C24.3115 11.4365 22.8496 9.97461 21.0524 9.97461C19.2552 9.97461 17.7933 11.4365 17.7933 13.2337C17.7933 15.0308 19.2552 16.4927 21.0524 16.4927Z" stroke="#2E2D2C" stroke-linecap="round" stroke-linejoin="round"></path><path d="M21.0591 34.3506V49.1639" stroke="#2E2D2C" stroke-linecap="round" stroke-linejoin="round"></path><path d="M25.6996 35.2823L26.5244 24.1572" stroke="#2E2D2C" stroke-linecap="round" stroke-linejoin="round"></path><path d="M16.4119 35.2823L15.5871 24.1572" stroke="#2E2D2C" stroke-linecap="round" stroke-linejoin="round"></path><path d="M48.0033 18.6249H37.7701C35.5706 18.6785 33.7801 20.5629 33.7801 22.796C33.7801 22.8362 33.7801 22.9167 33.7801 23.0374L34.511 32.895C34.6317 34.2697 36.221 35.4365 37.7232 35.7651L38.6754 48.6672C38.7357 49.4786 39.4331 50.1358 40.2311 50.1358H45.5489C46.3469 50.1358 47.0443 49.4786 47.098 48.6672L48.0502 35.7584C49.559 35.4298 51.1416 34.2563 51.2623 32.8749L52 22.8563C52 22.8563 52 22.8295 52 22.8161C52 20.5562 50.2028 18.6785 47.9898 18.6182L48.0033 18.6249Z" fill="white"></path><path d="M42.9001 17.0493C45.0057 17.0493 46.7157 15.3393 46.7157 13.2336C46.7157 11.128 45.0057 9.41797 42.9001 9.41797C40.7944 9.41797 39.0844 11.128 39.0844 13.2336C39.0844 15.3393 40.7944 17.0493 42.9001 17.0493Z" fill="white"></path><path d="M51.4636 22.8231L50.7259 32.8416C50.6253 34.0353 49.0092 35.0747 47.7149 35.2625C47.6546 35.2692 47.6009 35.2759 47.5473 35.2826L46.5616 48.6273C46.5213 49.1503 46.0787 49.5795 45.5623 49.5795H40.2446C39.735 49.5795 39.2856 49.1503 39.2454 48.6273L38.2596 35.2826C38.206 35.2826 38.1456 35.2692 38.092 35.2625C36.7978 35.0747 35.1884 34.0353 35.0811 32.8484L34.3501 22.9974C34.3501 22.9169 34.3501 22.8566 34.3501 22.8298C34.3501 20.8649 35.8992 19.2354 37.7969 19.1885H48.0167C49.9279 19.2354 51.4702 20.8649 51.4702 22.8231H51.4636Z" stroke="#2E2D2C" stroke-linecap="round" stroke-linejoin="round"></path><path d="M42.9001 16.4927C41.1029 16.4927 39.6411 15.0308 39.6411 13.2337C39.6411 11.4365 41.1029 9.97461 42.9001 9.97461C44.6973 9.97461 46.1592 11.4365 46.1592 13.2337C46.1592 15.0308 44.6973 16.4927 42.9001 16.4927Z" stroke="#2E2D2C" stroke-linecap="round" stroke-linejoin="round"></path><path d="M42.9001 34.3506V49.1639" stroke="#2E2D2C" stroke-linecap="round" stroke-linejoin="round"></path><path d="M38.2596 35.2823L37.4348 24.1572" stroke="#2E2D2C" stroke-linecap="round" stroke-linejoin="round"></path><path d="M47.5473 35.2823L48.3721 24.1572" stroke="#2E2D2C" stroke-linecap="round" stroke-linejoin="round"></path><path d="M29.3208 56.0714C28.268 56.0714 27.3425 55.1996 27.2688 54.1334L26.3434 41.5867C24.8144 41.1307 23.2452 39.9169 23.1044 38.3678L22.3668 28.5035C22.3601 28.3426 22.3668 28.2554 22.3668 28.2017C22.3668 25.7071 24.3785 23.6082 26.8463 23.5479H37.0929C39.5875 23.6082 41.606 25.7139 41.606 28.2487V28.3359L40.8683 38.341C40.7342 39.9102 39.1583 41.1307 37.6294 41.5867L36.704 54.1334C36.6302 55.1996 35.7048 56.0714 34.6519 56.0714H29.3342H29.3208Z" fill="white"></path><path d="M37.0862 24.0508C39.3058 24.1045 41.103 25.9888 41.103 28.2487C41.103 28.2621 41.103 28.2755 41.103 28.2889L40.3653 38.3075C40.2446 39.6956 38.6553 40.8692 37.1532 41.191L36.201 54.0999C36.1406 54.9113 35.4432 55.5684 34.6519 55.5684H29.3342C28.5362 55.5684 27.8387 54.9113 27.7784 54.0999L26.8262 41.1977C25.3241 40.8692 23.7348 39.7023 23.614 38.3276L22.8831 28.47C22.8831 28.3493 22.8831 28.2755 22.8831 28.2286C22.8831 25.9955 24.6736 24.1112 26.8731 24.0575H37.1063M37.1197 23.0516H26.8731C24.117 23.1187 21.8906 25.4322 21.8772 28.2085C21.8772 28.2688 21.8772 28.3761 21.8772 28.5236L22.6149 38.4014C22.7624 40.0711 24.2981 41.3855 25.8806 41.9622L26.7859 54.1736C26.8865 55.5215 28.0064 56.5743 29.3409 56.5743H34.6586C35.973 56.5743 37.1197 55.4947 37.2136 54.1736L38.1189 41.9622C39.7082 41.3855 41.2371 40.0645 41.3846 38.3947L42.1223 28.3627C42.1223 28.3627 42.1223 28.2956 42.1223 28.2487C42.1223 25.4456 39.8825 23.1187 37.1264 23.0449H37.113L37.1197 23.0516Z" fill="white"></path><path d="M31.9762 23.213C29.4682 23.213 27.4229 21.1744 27.4229 18.6597C27.4229 16.145 29.4682 14.1064 31.9762 14.1064C34.4842 14.1064 36.5295 16.145 36.5295 18.6597C36.5295 21.1744 34.4842 23.213 31.9762 23.213Z" fill="white"></path><path d="M31.9762 14.8434C34.0819 14.8434 35.7919 16.5534 35.7919 18.6591C35.7919 20.7647 34.0819 22.4747 31.9762 22.4747C29.8706 22.4747 28.1606 20.7647 28.1606 18.6591C28.1606 16.5534 29.8706 14.8434 31.9762 14.8434ZM31.9762 13.3682C29.0592 13.3682 26.6853 15.742 26.6853 18.6591C26.6853 21.5761 29.0592 23.95 31.9762 23.95C34.8933 23.95 37.2672 21.5761 37.2672 18.6591C37.2672 15.742 34.8933 13.3682 31.9762 13.3682Z" fill="white"></path><path d="M40.5397 28.2479L39.802 38.2665C39.7015 39.4601 38.0853 40.4995 36.7911 40.6873C36.7307 40.694 36.6771 40.7007 36.6234 40.7074L35.6377 54.0521C35.5974 54.5752 35.1549 55.0043 34.6385 55.0043H29.3207C28.8111 55.0043 28.3618 54.5752 28.3216 54.0521L27.3358 40.7074C27.2822 40.7074 27.2218 40.694 27.1682 40.6873C25.8739 40.4928 24.2645 39.4601 24.1572 38.2732L23.4263 28.4222C23.4263 28.3417 23.4263 28.2814 23.4263 28.2546C23.4263 26.2897 24.9753 24.6602 26.8731 24.6133H37.0929C39.004 24.6602 40.5464 26.2898 40.5464 28.2479H40.5397Z" stroke="#2E2D2C" stroke-linecap="round" stroke-linejoin="round"></path><path d="M31.9763 21.9176C30.1791 21.9176 28.7172 20.4556 28.7172 18.6585C28.7172 16.8613 30.1791 15.3994 31.9763 15.3994C33.7734 15.3994 35.2353 16.8613 35.2353 18.6585C35.2353 20.4556 33.7734 21.9176 31.9763 21.9176Z" stroke="#2E2D2C" stroke-linecap="round" stroke-linejoin="round"></path><path d="M31.9763 39.7686V54.5885" stroke="#2E2D2C" stroke-linecap="round" stroke-linejoin="round"></path><path d="M27.3358 40.7079L26.511 29.5762" stroke="#2E2D2C" stroke-linecap="round" stroke-linejoin="round"></path><path d="M36.6234 40.7079L37.4482 29.5762" stroke="#2E2D2C" stroke-linecap="round" stroke-linejoin="round"></path><path d="M40.5397 28.2479L39.802 38.2665C39.7015 39.4601 38.0853 40.4995 36.7911 40.6873C36.7307 40.694 36.6771 40.7007 36.6234 40.7074L35.6377 54.0521C35.5974 54.5752 35.1549 55.0043 34.6385 55.0043H29.3207C28.8111 55.0043 28.3618 54.5752 28.3216 54.0521L27.3358 40.7074C27.2822 40.7074 27.2218 40.694 27.1682 40.6873C25.8739 40.4928 24.2645 39.4601 24.1572 38.2732L23.4263 28.4222C23.4263 28.3417 23.4263 28.2814 23.4263 28.2546C23.4263 26.2897 24.9753 24.6602 26.8731 24.6133H37.0929C39.004 24.6602 40.5464 26.2898 40.5464 28.2479H40.5397Z" stroke="black" stroke-linecap="round" stroke-linejoin="round"></path><path d="M40.5397 28.2479L39.802 38.2665C39.7015 39.4601 38.0853 40.4995 36.7911 40.6873C36.7307 40.694 36.6771 40.7007 36.6234 40.7074L35.6377 54.0521C35.5974 54.5752 35.1549 55.0043 34.6385 55.0043H29.3207C28.8111 55.0043 28.3618 54.5752 28.3216 54.0521L27.3358 40.7074C27.2822 40.7074 27.2218 40.694 27.1682 40.6873C25.8739 40.4928 24.2645 39.4601 24.1572 38.2732L23.4263 28.4222C23.4263 28.3417 23.4263 28.2814 23.4263 28.2546C23.4263 26.2897 24.9753 24.6602 26.8731 24.6133H37.0929C39.004 24.6602 40.5464 26.2898 40.5464 28.2479H40.5397Z" stroke="url(#paint0_linear_506_11984)" stroke-linecap="round" stroke-linejoin="round"></path><path d="M31.9763 21.9176C30.1791 21.9176 28.7172 20.4556 28.7172 18.6585C28.7172 16.8613 30.1791 15.3994 31.9763 15.3994C33.7734 15.3994 35.2353 16.8613 35.2353 18.6585C35.2353 20.4556 33.7734 21.9176 31.9763 21.9176Z" stroke="black" stroke-linecap="round" stroke-linejoin="round"></path><path d="M31.9763 21.9176C30.1791 21.9176 28.7172 20.4556 28.7172 18.6585C28.7172 16.8613 30.1791 15.3994 31.9763 15.3994C33.7734 15.3994 35.2353 16.8613 35.2353 18.6585C35.2353 20.4556 33.7734 21.9176 31.9763 21.9176Z" stroke="url(#paint1_linear_506_11984)" stroke-linecap="round" stroke-linejoin="round"></path><path d="M31.9763 39.7686V54.5885" stroke="black" stroke-linecap="round" stroke-linejoin="round"></path><path d="M31.9763 39.7686V54.5885" stroke="url(#paint2_linear_506_11984)" stroke-linecap="round" stroke-linejoin="round"></path><path d="M27.3358 40.7079L26.511 29.5762" stroke="black" stroke-linecap="round" stroke-linejoin="round"></path><path d="M27.3358 40.7079L26.511 29.5762" stroke="url(#paint3_linear_506_11984)" stroke-linecap="round" stroke-linejoin="round"></path><path d="M36.6234 40.7079L37.4482 29.5762" stroke="black" stroke-linecap="round" stroke-linejoin="round"></path><path d="M36.6234 40.7079L37.4482 29.5762" stroke="url(#paint4_linear_506_11984)" stroke-linecap="round" stroke-linejoin="round"></path><defs><linearGradient id="paint0_linear_506_11984" x1="29.1564" y1="35.0102" x2="54.3989" y2="47.3778" gradientUnits="userSpaceOnUse"><stop offset="0.236106" stop-color="#DA291C"></stop><stop offset="1" stop-color="#FFCD00"></stop></linearGradient><linearGradient id="paint1_linear_506_11984" x1="30.8989" y1="17.6293" x2="37.6839" y2="23.5305" gradientUnits="userSpaceOnUse"><stop offset="0.236106" stop-color="#DA291C"></stop><stop offset="1" stop-color="#FFCD00"></stop></linearGradient><linearGradient id="paint2_linear_506_11984" x1="32.311" y1="44.8385" x2="34.1331" y2="44.9455" gradientUnits="userSpaceOnUse"><stop offset="0.236106" stop-color="#DA291C"></stop><stop offset="1" stop-color="#FFCD00"></stop></linearGradient><linearGradient id="paint3_linear_506_11984" x1="26.7871" y1="33.3844" x2="28.2889" y2="33.4812" gradientUnits="userSpaceOnUse"><stop offset="0.236106" stop-color="#DA291C"></stop><stop offset="1" stop-color="#FFCD00"></stop></linearGradient><linearGradient id="paint4_linear_506_11984" x1="36.8995" y1="33.3844" x2="38.4013" y2="33.4812" gradientUnits="userSpaceOnUse"><stop offset="0.236106" stop-color="#DA291C"></stop><stop offset="1" stop-color="#FFCD00"></stop></linearGradient></defs></svg> 