<?xml version="1.0" encoding="UTF-8"?> <svg xmlns="http://www.w3.org/2000/svg" width="64" height="64" viewBox="0 0 64 64" fill="none"><path d="M33.3842 17.6855V16.3574H40.2283C42.5572 16.3574 44.4424 18.2388 44.4424 20.5628V24.7049H45.092V25.0844C44.886 25.9697 44.7593 26.8867 44.6167 27.7878C44.5217 28.3412 44.284 28.7206 43.5869 28.7206C43.5869 28.7206 42.2086 32.8153 39.9273 32.8153H39.8639C38.7549 32.5465 37.5825 32.5465 36.4735 32.8153C34.2397 32.8153 32.7188 28.7206 32.7188 28.7206C32.1009 28.7206 31.895 28.4202 31.8158 27.9459C31.689 26.9815 31.5464 26.0329 31.2454 25.1002V24.7049H31.8633V19.6933C31.8633 18.5392 32.8772 17.6064 34.0337 17.6064" stroke="black" stroke-miterlimit="10"></path><path d="M33.3842 17.6855V16.3574H40.2283C42.5572 16.3574 44.4424 18.2388 44.4424 20.5628V24.7049H45.092V25.0844C44.886 25.9697 44.7593 26.8867 44.6167 27.7878C44.5217 28.3412 44.284 28.7206 43.5869 28.7206C43.5869 28.7206 42.2086 32.8153 39.9273 32.8153H39.8639C38.7549 32.5465 37.5825 32.5465 36.4735 32.8153C34.2397 32.8153 32.7188 28.7206 32.7188 28.7206C32.1009 28.7206 31.895 28.4202 31.8158 27.9459C31.689 26.9815 31.5464 26.0329 31.2454 25.1002V24.7049H31.8633V19.6933C31.8633 18.5392 32.8772 17.6064 34.0337 17.6064" stroke="url(#paint0_linear_1549_35077)" stroke-miterlimit="10"></path><path d="M35.3012 32.4199C35.0319 34.0167 34.2239 36.2617 33.1624 36.5937C31.1821 37.2103 28.3304 38.2063 26.4292 39.3446C23.2607 41.2259 23.6092 44.2298 23.6092 44.2298V50.7591" stroke="white" stroke-miterlimit="10"></path><path d="M25.0034 32.104C25.0034 33.2581 25.7638 34.2858 26.8728 34.6336C28.5205 35.1395 30.881 35.9774 32.4653 36.9101" stroke="white" stroke-miterlimit="10"></path><path d="M20.5516 21.3216H23.5617C25.2727 21.3216 26.651 19.9461 26.651 18.2387V17.8276H20.9793C19.0465 17.8276 17.4781 19.3928 17.4781 21.3216V24.7681H16.8444V26.5388C16.8444 27.4083 17.3038 28.1039 18.1752 28.1039C18.1752 28.1039 19.0465 32.831 22.5002 32.831H22.8805C26.3342 32.831 27.2055 28.1039 27.2055 28.1039C28.0769 28.1039 28.5205 27.4083 28.5205 26.5388V24.7681H27.9026V20.6101C27.9026 19.6457 27.1263 18.8711 26.1599 18.8711" stroke="white" stroke-miterlimit="10"></path><path d="M20.3931 32.104C20.3931 33.2581 19.6327 34.2858 18.5237 34.6336C16.876 35.1395 14.5155 35.9774 12.9312 36.9101C10.3013 38.4753 10.6023 40.9732 10.6023 40.9732" stroke="white" stroke-miterlimit="10"></path><path d="M26.3659 34.333C26.3659 36.3566 24.7182 38.0008 22.6904 38.0008C20.6625 38.0008 19.0148 36.3566 19.0148 34.333" stroke="white" stroke-miterlimit="10"></path><path d="M42.9215 36.4515C41.3214 35.5029 40.4342 35.2974 38.1846 35.2974C35.9349 35.2974 35.0318 35.5029 33.4476 36.4515" stroke="white" stroke-miterlimit="10"></path><path d="M41.1155 32.6416C41.4165 34.2226 42.1928 36.2778 43.2226 36.594C45.2029 37.2106 48.0546 38.2066 49.9557 39.3449C53.1243 41.2263 52.7758 44.2301 52.7758 44.2301V50.7595" stroke="white" stroke-miterlimit="10"></path><path d="M24.4014 41.2417H10.2063C9.44581 41.2417 8.82794 41.8583 8.82794 42.6171C8.82794 43.376 9.44581 43.9926 10.2063 43.9926H23.5934" stroke="white" stroke-miterlimit="10"></path><path d="M52.7599 43.9926H54.3759C55.1363 43.9926 55.7542 43.376 55.7542 42.6171C55.7542 41.8583 55.1363 41.2417 54.3759 41.2417H51.9678" stroke="white" stroke-miterlimit="10"></path><path d="M26.5402 50.7592C26.5402 44.0401 31.7524 38.6016 38.2004 38.6016C44.6485 38.6016 49.8607 44.0401 49.8607 50.7592" stroke="white" stroke-miterlimit="10"></path><path d="M15.4819 43.9927V50.7592" stroke="white" stroke-miterlimit="10"></path><defs><linearGradient id="paint0_linear_1549_35077" x1="35.8799" y1="21.9878" x2="52.3681" y2="34.0529" gradientUnits="userSpaceOnUse"><stop offset="0.236106" stop-color="#DA291C"></stop><stop offset="1" stop-color="#FFCD00"></stop></linearGradient></defs></svg> 