<?xml version="1.0" encoding="UTF-8"?> <svg xmlns="http://www.w3.org/2000/svg" width="64" height="64" viewBox="0 0 64 64" fill="none"><g clip-path="url(#clip0_1576_34437)"><path d="M50.3596 9.32613C51.3401 10.298 52.3205 11.27 53.3009 12.2333C53.5823 12.5147 53.6334 12.8216 53.4374 13.1711C52.312 15.1917 51.1866 17.2208 50.0698 19.2413C49.8993 19.5482 49.652 19.6932 49.294 19.6846C48.3902 19.6846 47.478 19.6761 46.5743 19.6846C46.4038 19.6846 46.1907 19.7443 46.0798 19.8552C42.6014 23.3165 39.1315 26.7949 35.6616 30.2648C35.6361 30.2904 35.6105 30.333 35.5679 30.3927C35.6361 30.4779 35.7043 30.5632 35.781 30.6399C37.1366 31.9955 38.4921 33.3425 39.8391 34.7066C40.0267 34.8942 40.1716 34.9368 40.4274 34.8345C46.2077 32.6434 52.4654 36.2838 53.4459 42.3966C54.307 47.7421 50.3852 52.883 45.0056 53.4627C39.7795 54.0254 35.1586 50.5214 34.3146 45.3379C34.0418 43.6584 34.2379 42.013 34.8261 40.4102C34.8773 40.2652 34.8858 40.018 34.8006 39.9327C33.3598 38.4578 31.9019 37.0085 30.4867 35.5847C29.8984 36.1815 29.3187 36.7527 28.7048 37.3751C28.8157 37.4859 29.0032 37.682 29.1908 37.8696C29.6256 38.3044 30.0774 38.7392 30.5037 39.1825C30.8362 39.5235 30.8447 39.8816 30.5208 40.2141C29.8472 40.9047 29.1822 41.6037 28.4661 42.2517C28.2956 42.4051 27.929 42.4478 27.6818 42.3966C27.1446 42.2773 26.6246 42.0727 25.9767 41.8595C26.1642 42.4393 26.3006 42.9167 26.4797 43.3771C26.6672 43.8374 26.5649 44.187 26.2154 44.5365C23.7856 46.9492 21.3729 49.3875 18.9431 51.8003C17.3318 53.3945 15.4135 53.9487 13.2395 53.2667C11.0996 52.5931 9.82079 51.0671 9.39452 48.859C9.31779 48.1343 9.31779 47.5801 9.38599 47.1283C9.58208 45.7898 10.2385 44.7156 11.1934 43.7778C13.555 41.4418 15.908 39.0887 18.244 36.7186C18.6532 36.3009 19.0369 36.173 19.5825 36.4117C20.0003 36.5993 20.4606 36.7016 21.0063 36.8721C20.8017 36.2497 20.6482 35.7382 20.4692 35.2437C20.3242 34.8515 20.4095 34.5531 20.6994 34.2718C21.2961 33.6921 21.8844 33.0953 22.4727 32.507C23.0098 31.9699 23.2996 31.9699 23.8453 32.5241C24.408 33.0868 24.9792 33.658 25.5077 34.1951C26.1216 33.5812 27.264 32.3791 27.2384 32.3536C25.0047 30.1113 22.754 27.8777 20.5288 25.6269C20.3242 25.4223 20.1537 25.499 19.9491 25.5587C15.4903 26.8461 10.878 24.2799 9.63323 19.804C9.51387 19.3607 9.42862 18.9173 9.33484 18.4655C9.33484 17.8858 9.33484 17.3145 9.33484 16.7348C9.4542 16.2318 9.54798 15.7288 9.68439 15.2343C9.90605 14.45 10.4687 14.305 11.057 14.8848C11.8669 15.6862 12.6513 16.5046 13.4782 17.289C13.6146 17.4254 13.8875 17.5106 14.075 17.4851C14.9446 17.3742 15.8057 17.2037 16.6668 17.0673C16.9396 17.0247 17.0504 16.9138 17.0931 16.641C17.2209 15.7714 17.3915 14.9103 17.5108 14.0493C17.5364 13.8617 17.4511 13.5889 17.3147 13.4525C16.5219 12.617 15.6949 11.8156 14.885 11.0057C14.3478 10.46 14.4843 9.88882 15.2174 9.67568C15.7205 9.53075 16.2405 9.42844 16.7606 9.30908C17.3403 9.30908 17.9115 9.30908 18.4912 9.30908C18.5595 9.33466 18.6191 9.36876 18.6873 9.38581C23.8453 10.1361 26.9912 14.9956 25.5504 20.0171C25.4736 20.2729 25.5504 20.4093 25.7124 20.5713C27.8864 22.7368 30.0519 24.9023 32.2173 27.0763C32.2941 27.153 32.3793 27.2297 32.4816 27.315C32.5498 27.2553 32.6095 27.2212 32.6607 27.17C36.1135 23.7172 39.5663 20.2729 43.0021 16.8115C43.1129 16.7007 43.1812 16.4876 43.1897 16.3256C43.2067 15.4645 43.2153 14.5949 43.1897 13.7338C43.1726 13.2564 43.3517 12.958 43.7694 12.7278C45.466 11.8071 47.1455 10.8607 48.825 9.92292C49.1746 9.72683 49.5071 9.51369 49.8481 9.30908C50.0186 9.30908 50.1977 9.30908 50.3682 9.30908L50.3596 9.32613Z" stroke="black" stroke-miterlimit="10"></path><path d="M48.7228 43.9057C48.7228 44.5366 48.7143 45.1675 48.7228 45.8069C48.7313 46.1991 48.5779 46.4634 48.2283 46.6339C46.9154 47.2818 45.6195 47.9554 44.2895 48.5777C44.0593 48.6886 43.6842 48.6715 43.4455 48.5607C42.1326 47.9468 40.8452 47.2733 39.5408 46.6339C39.1913 46.4634 39.0293 46.2076 39.0378 45.8155C39.0463 44.5196 39.0463 43.2237 39.0378 41.9363C39.0378 41.5442 39.2083 41.2969 39.5493 41.1264C40.8367 40.4955 42.124 39.8561 43.4029 39.1997C43.7268 39.0377 44.0167 39.0291 44.3407 39.1997C45.6195 39.8476 46.9069 40.4955 48.1942 41.1264C48.5608 41.3055 48.7313 41.5698 48.7228 41.979C48.7057 42.6269 48.7228 43.2749 48.7228 43.9228V43.9057Z" stroke="black" stroke-miterlimit="10"></path><path d="M48.7228 43.9057C48.7228 44.5366 48.7143 45.1675 48.7228 45.8069C48.7313 46.1991 48.5779 46.4634 48.2283 46.6339C46.9154 47.2818 45.6195 47.9554 44.2895 48.5777C44.0593 48.6886 43.6842 48.6715 43.4455 48.5607C42.1326 47.9468 40.8452 47.2733 39.5408 46.6339C39.1913 46.4634 39.0293 46.2076 39.0378 45.8155C39.0463 44.5196 39.0463 43.2237 39.0378 41.9363C39.0378 41.5442 39.2083 41.2969 39.5493 41.1264C40.8367 40.4955 42.124 39.8561 43.4029 39.1997C43.7268 39.0377 44.0167 39.0291 44.3407 39.1997C45.6195 39.8476 46.9069 40.4955 48.1942 41.1264C48.5608 41.3055 48.7313 41.5698 48.7228 41.979C48.7057 42.6269 48.7228 43.2749 48.7228 43.9228V43.9057Z" stroke="url(#paint0_linear_1576_34437)" stroke-miterlimit="10"></path><path d="M14.7656 49.9844C17.2295 47.5205 19.7445 45.0055 22.2766 42.4734" stroke="black" stroke-linecap="round" stroke-linejoin="round"></path><path d="M12.6257 47.9467C15.1408 45.4316 17.6558 42.9166 20.1708 40.3931" stroke="black" stroke-linecap="round" stroke-linejoin="round"></path><path d="M18.3549 18.8748L19.736 20.2559" stroke="black" stroke-linecap="round" stroke-linejoin="round"></path><path d="M28.9776 33.9395L27.119 35.798" stroke="black" stroke-linecap="round" stroke-linejoin="round"></path></g><defs><linearGradient id="paint0_linear_1576_34437" x1="42.2793" y1="42.3516" x2="52.2642" y2="51.1336" gradientUnits="userSpaceOnUse"><stop offset="0.236106" stop-color="#DA291C"></stop><stop offset="1" stop-color="#FFCD00"></stop></linearGradient><clipPath id="clip0_1576_34437"><rect width="45.1" height="45.1" fill="white" transform="translate(8.90002 8.8999)"></rect></clipPath></defs></svg> 