<?xml version="1.0" encoding="UTF-8"?> <svg xmlns="http://www.w3.org/2000/svg" width="64" height="64" viewBox="0 0 64 64" fill="none"><path d="M37.6518 27.9213L32.3387 33.2344L25.6591 26.5547" stroke="black" stroke-linecap="round" stroke-linejoin="round"></path><path d="M37.6518 27.9213L32.3387 33.2344L25.6591 26.5547" stroke="url(#paint0_linear_506_12040)" stroke-linecap="round" stroke-linejoin="round"></path><path d="M34.3964 33.2343C34.3964 34.3706 33.4751 35.2996 32.3311 35.2996C31.1871 35.2996 30.2657 34.3783 30.2657 33.2343C30.2657 32.0903 31.1871 31.1689 32.3311 31.1689C33.4751 31.1689 34.3964 32.0903 34.3964 33.2343Z" fill="white"></path><path d="M34.3964 33.2343C34.3964 34.3706 33.4751 35.2996 32.3311 35.2996C31.1871 35.2996 30.2657 34.3783 30.2657 33.2343C30.2657 32.0903 31.1871 31.1689 32.3311 31.1689C33.4751 31.1689 34.3964 32.0903 34.3964 33.2343Z" stroke="black" stroke-linecap="round" stroke-linejoin="round"></path><path d="M34.3964 33.2343C34.3964 34.3706 33.4751 35.2996 32.3311 35.2996C31.1871 35.2996 30.2657 34.3783 30.2657 33.2343C30.2657 32.0903 31.1871 31.1689 32.3311 31.1689C33.4751 31.1689 34.3964 32.0903 34.3964 33.2343Z" stroke="url(#paint1_linear_506_12040)" stroke-linecap="round" stroke-linejoin="round"></path><path d="M24.2311 33.2344H22.6955" stroke="#2E2D2C" stroke-linecap="round" stroke-linejoin="round"></path><path d="M32.3387 25.1264V23.5908" stroke="#2E2D2C" stroke-linecap="round" stroke-linejoin="round"></path><path d="M41.9821 33.2344H40.4465" stroke="#2E2D2C" stroke-linecap="round" stroke-linejoin="round"></path><path d="M32.3387 42.8774V41.3418" stroke="#2E2D2C" stroke-linecap="round" stroke-linejoin="round"></path><path d="M56.2781 30.7465C56.2781 30.355 55.971 29.9711 55.5871 29.8866L51.0342 28.6198C50.6426 28.5353 50.2203 28.1514 50.0898 27.7752L48.7616 24.5582C48.585 24.1974 48.6157 23.6292 48.8307 23.2914L51.157 19.1761C51.3643 18.846 51.3106 18.3546 51.0342 18.0782L47.4947 14.5387C47.2183 14.2623 46.7269 14.2086 46.3968 14.4159L42.2892 16.7423C41.9514 16.9572 41.3832 16.9879 41.0223 16.8113L37.813 15.4754C37.4368 15.3449 37.0529 14.9226 36.9685 14.531L35.7016 9.97811C35.6172 9.6019 35.2333 9.28711 34.8417 9.28711H29.8512C29.4596 9.28711 29.0757 9.6019 28.9912 9.97811L27.7244 14.531C27.64 14.9226 27.2561 15.3449 26.8798 15.4754L23.6629 16.8037C23.302 16.9803 22.7338 16.9495 22.396 16.7346L18.2807 14.4082C17.9506 14.2009 17.4592 14.2546 17.1828 14.531L13.6433 18.0705C13.3669 18.3469 13.3132 18.8383 13.5205 19.1684L15.8469 23.276C16.0618 23.6139 16.0926 24.182 15.916 24.5429L14.58 27.7522C14.4495 28.1284 14.0272 28.5123 13.6357 28.5968L9.08273 29.8636C8.70651 29.9481 8.39172 30.3319 8.39172 30.7235V35.7141C8.39172 36.1056 8.70651 36.4895 9.08273 36.574L13.6357 37.8408C14.0272 37.9253 14.4495 38.3092 14.58 38.6854L15.9083 41.9024C16.0849 42.2632 16.0542 42.8314 15.8392 43.1692L13.5128 47.2845C13.3055 47.6147 13.3593 48.106 13.6357 48.3824L17.1751 51.9219C17.4515 52.1983 17.9429 52.252 18.273 52.0447L22.3807 49.7184C22.7185 49.5034 23.2866 49.4727 23.6475 49.6493L26.8568 50.9852C27.233 51.1157 27.6169 51.538 27.7014 51.9296L28.9682 56.4825C29.0527 56.8587 29.4366 57.1735 29.8281 57.1735H34.8187C35.2103 57.1735 35.5941 56.8587 35.6786 56.4825L36.9454 51.9296C37.0299 51.538 37.4138 51.1157 37.79 50.9852L41.007 49.6569C41.3678 49.4804 41.936 49.5111 42.2738 49.726L46.3891 52.0524C46.7193 52.2597 47.2106 52.206 47.487 51.9296L51.0265 48.3901C51.3029 48.1137 51.3567 47.6223 51.1494 47.2922L48.823 43.1846C48.608 42.8467 48.5773 42.2786 48.7539 41.9177L50.0898 38.7084C50.2203 38.3322 50.6426 37.9483 51.0342 37.8639L55.5871 36.597C55.9633 36.5126 56.2781 36.1287 56.2781 35.7371V30.7465ZM45.7442 33.2341C45.7442 36.812 44.3468 40.1826 41.8208 42.7162C39.2872 45.2499 35.9243 46.6396 32.3388 46.6396C24.945 46.6396 18.9333 40.6279 18.9333 33.2341C18.9333 29.6563 20.3307 26.2857 22.8567 23.7521C25.3904 21.2184 28.7532 19.8287 32.3388 19.8287C39.7325 19.8287 45.7442 25.8404 45.7442 33.2341Z" stroke="#2E2D2C" stroke-miterlimit="10"></path><defs><linearGradient id="paint0_linear_506_12040" x1="29.673" y1="28.8398" x2="36.0502" y2="38.798" gradientUnits="userSpaceOnUse"><stop offset="0.236106" stop-color="#DA291C"></stop><stop offset="1" stop-color="#FFCD00"></stop></linearGradient><linearGradient id="paint1_linear_506_12040" x1="31.6483" y1="32.5821" x2="35.9481" y2="36.3218" gradientUnits="userSpaceOnUse"><stop offset="0.236106" stop-color="#DA291C"></stop><stop offset="1" stop-color="#FFCD00"></stop></linearGradient></defs></svg> 