<?xml version="1.0" encoding="UTF-8"?> <svg xmlns="http://www.w3.org/2000/svg" width="64" height="64" viewBox="0 0 64 64" fill="none"><path d="M41.8 56.2994H9.90001C8.70001 56.2994 7.70001 55.2994 7.70001 54.0994V16.1994C7.70001 14.9994 8.70001 13.9994 9.90001 13.9994H17.5C17.7 13.9994 17.9 14.1994 17.9 14.3994C17.9 14.5994 17.7 14.7994 17.5 14.7994H9.90001C9.10001 14.7994 8.40001 15.4994 8.40001 16.2994V54.1994C8.40001 54.9994 9.10001 55.6994 9.90001 55.6994H41.8C42.6 55.6994 43.3 54.9994 43.3 54.1994V16.1994C43.3 15.3994 42.6 14.6994 41.8 14.6994H34.2C34 14.6994 33.8 14.4994 33.8 14.2994C33.8 14.0994 34 13.8994 34.2 13.8994H41.8C43 13.8994 44 14.8994 44 16.0994V53.9994C44.1 55.2994 43.1 56.2994 41.8 56.2994Z" fill="white"></path><path d="M33.2 17.9996H18.5C18.3 17.9996 18.2 17.8996 18.1 17.6996L16.7 12.9996C16.6 12.7996 16.7 12.5996 16.9 12.5996C18.2 11.9996 21.1 10.7996 22.8 10.3996C23 8.89961 24.3 7.59961 25.9 7.59961H26C27.6 7.59961 28.9 8.79961 29.1 10.3996C30.7 10.7996 33.7 11.9996 35 12.5996C35.2 12.6996 35.3 12.8996 35.2 12.9996L33.8 17.6996C33.5 17.8996 33.4 17.9996 33.2 17.9996ZM18.8 17.2996H33L34.3 13.1996C32.7 12.4996 29.9 11.3996 28.6 11.0996C28.4 11.0996 28.3 10.8996 28.3 10.6996C28.3 9.39961 27.3 8.39961 26 8.39961H25.9C24.6 8.39961 23.6 9.39961 23.6 10.6996C23.6 10.8996 23.5 10.9996 23.3 11.0996C22 11.3996 19.3 12.3996 17.6 13.1996L18.8 17.2996Z" fill="white"></path><path d="M25.9 12.2998C25.1 12.2998 24.4 11.5998 24.4 10.7998C24.4 9.9998 25.1 9.2998 25.9 9.2998C26.7 9.2998 27.4 9.9998 27.4 10.7998C27.4 11.5998 26.7 12.2998 25.9 12.2998ZM25.9 10.0998C25.5 10.0998 25.2 10.3998 25.2 10.7998C25.2 11.1998 25.5 11.4998 25.9 11.4998C26.3 11.4998 26.6 11.1998 26.6 10.7998C26.6 10.3998 26.3 10.0998 25.9 10.0998Z" fill="white"></path><path d="M35.1 54.0996H10.3C10.1 54.0996 9.90002 53.8996 9.90002 53.6996V16.4996C9.90002 16.2996 10.1 16.0996 10.3 16.0996H18.2C18.4 16.0996 18.6 16.2996 18.6 16.4996C18.6 16.6996 18.4 16.8996 18.2 16.8996H10.7V53.2996H35L41.1 47.1996V16.8996H33.6C33.4 16.8996 33.2 16.6996 33.2 16.4996C33.2 16.2996 33.4 16.0996 33.6 16.0996H41.5C41.7 16.0996 41.9 16.2996 41.9 16.4996V47.3996C41.9 47.4996 41.9 47.5996 41.8 47.6996L35.4 53.9996C35.3 54.0996 35.2 54.0996 35.1 54.0996Z" fill="white"></path><path d="M35.1 54.0996H35C34.9 53.9996 34.8 53.8996 34.8 53.7996V47.4996C34.8 47.2996 35 47.0996 35.2 47.0996H41.5C41.7 47.0996 41.8 47.1996 41.8 47.2996C41.9 47.3996 41.8 47.5996 41.7 47.6996L35.4 53.9996C35.3 54.0996 35.2 54.0996 35.1 54.0996ZM35.5 47.7996V52.7996L40.5 47.7996H35.5Z" fill="white"></path><path d="M56 49.2996H49C48.8 49.2996 48.6 49.0996 48.6 48.8996V24.4996C48.6 22.3996 50.3 20.5996 52.5 20.5996C54.6 20.5996 56.4 22.2996 56.4 24.4996V48.8996C56.3 49.0996 56.2 49.2996 56 49.2996ZM49.3 48.4996H55.6V24.4996C55.6 22.7996 54.2 21.3996 52.5 21.3996C50.8 21.3996 49.4 22.7996 49.4 24.4996L49.3 48.4996Z" fill="white"></path><path d="M52.4 56.2994C52.3 56.2994 52.1 56.1994 52.1 56.0994L48.6 48.9994C48.5 48.8994 48.5 48.6994 48.6 48.5994C48.7 48.4994 48.8 48.3994 48.9 48.3994H55.9C56 48.3994 56.2 48.4994 56.2 48.5994C56.3 48.6994 56.3 48.7994 56.2 48.9994L52.7 56.0994C52.7 56.2994 52.6 56.2994 52.4 56.2994ZM49.5 49.2994L52.4 55.1994L55.3 49.2994H49.5Z" fill="white"></path><path d="M56 26.8996H49C48.8 26.8996 48.6 26.6996 48.6 26.4996C48.6 26.2996 48.8 26.0996 49 26.0996H56C56.2 26.0996 56.4 26.2996 56.4 26.4996C56.4 26.6996 56.2 26.8996 56 26.8996Z" fill="white"></path><path d="M52.4 49.2992C52.2 49.2992 52 49.0992 52 48.8992V26.5992C52 26.3992 52.2 26.1992 52.4 26.1992C52.6 26.1992 52.8 26.3992 52.8 26.5992V48.8992C52.8 49.0992 52.7 49.2992 52.4 49.2992Z" fill="white"></path><path d="M53.8 53.5998H51.1C50.9 53.5998 50.7 53.3998 50.7 53.1998C50.7 52.9998 50.9 52.7998 51.1 52.7998H53.8C54 52.7998 54.2 52.9998 54.2 53.1998C54.2 53.3998 54 53.5998 53.8 53.5998Z" fill="white"></path><path d="M18 27.5994H13C12.8 27.5994 12.6 27.3994 12.6 27.1994V21.7994C12.6 21.5994 12.8 21.3994 13 21.3994H18C18.2 21.3994 18.4 21.5994 18.4 21.7994V27.1994C18.4 27.3994 18.2 27.5994 18 27.5994ZM13.4 26.7994H17.7V22.0994H13.4V26.7994Z" fill="black"></path><path d="M18 27.5994H13C12.8 27.5994 12.6 27.3994 12.6 27.1994V21.7994C12.6 21.5994 12.8 21.3994 13 21.3994H18C18.2 21.3994 18.4 21.5994 18.4 21.7994V27.1994C18.4 27.3994 18.2 27.5994 18 27.5994ZM13.4 26.7994H17.7V22.0994H13.4V26.7994Z" fill="url(#paint0_linear_423_9371)"></path><path d="M38.7 22.6994H20.5C20.3 22.6994 20.1 22.4994 20.1 22.2994C20.1 22.0994 20.3 21.8994 20.5 21.8994H38.7C38.9 21.8994 39.1 22.0994 39.1 22.2994C39.1 22.4994 38.9 22.6994 38.7 22.6994Z" fill="white"></path><path d="M38.7 26.8996H20.5C20.3 26.8996 20.1 26.6996 20.1 26.4996C20.1 26.2996 20.3 26.0996 20.5 26.0996H38.7C38.9 26.0996 39.1 26.2996 39.1 26.4996C39.1 26.6996 38.9 26.8996 38.7 26.8996Z" fill="white"></path><path d="M18 38.7H13C12.8 38.7 12.6 38.5 12.6 38.3V32.9C12.6 32.7 12.8 32.5 13 32.5H18C18.2 32.5 18.4 32.7 18.4 32.9V38.3C18.4 38.6 18.2 38.7 18 38.7ZM13.4 38H17.7V33.3H13.4V38Z" fill="white"></path><path d="M38.7 33.8H20.5C20.3 33.8 20.1 33.6 20.1 33.4C20.1 33.2 20.3 33 20.5 33H38.7C38.9 33 39.1 33.2 39.1 33.4C39.1 33.6 38.9 33.8 38.7 33.8Z" fill="white"></path><path d="M38.7 38.0998H20.5C20.3 38.0998 20.1 37.8998 20.1 37.6998C20.1 37.4998 20.3 37.2998 20.5 37.2998H38.7C38.9 37.2998 39.1 37.4998 39.1 37.6998C39.1 37.8998 38.9 38.0998 38.7 38.0998Z" fill="white"></path><path d="M18 49.8996H13C12.8 49.8996 12.6 49.6996 12.6 49.4996V43.9996C12.6 43.7996 12.8 43.5996 13 43.5996H18C18.2 43.5996 18.4 43.7996 18.4 43.9996V49.3996C18.4 49.6996 18.2 49.8996 18 49.8996ZM13.4 49.0996H17.7V44.3996H13.4V49.0996Z" fill="white"></path><path d="M38.7 44.9992H20.5C20.3 44.9992 20.1 44.7992 20.1 44.5992C20.1 44.3992 20.3 44.1992 20.5 44.1992H38.7C38.9 44.1992 39.1 44.3992 39.1 44.5992C39.1 44.7992 38.9 44.9992 38.7 44.9992Z" fill="white"></path><path d="M32.7 49.1994H20.5C20.3 49.1994 20.1 48.9994 20.1 48.7994C20.1 48.5994 20.3 48.3994 20.5 48.3994H32.7C32.9 48.3994 33.1 48.5994 33.1 48.7994C33.1 48.9994 32.9 49.1994 32.7 49.1994Z" fill="white"></path><defs><linearGradient id="paint0_linear_423_9371" x1="14.5413" y1="23.5205" x2="20.9219" y2="28.7119" gradientUnits="userSpaceOnUse"><stop offset="0.236106" stop-color="#DA291C"></stop><stop offset="1" stop-color="#FFCD00"></stop></linearGradient></defs></svg> 