<?xml version="1.0" encoding="UTF-8"?> <svg xmlns="http://www.w3.org/2000/svg" width="64" height="64" viewBox="0 0 64 64" fill="none"><path d="M21.0555 20.2847L18.162 22.399C17.8766 22.6072 17.49 22.3276 17.6 21.9916L18.7152 18.5867C18.7152 18.5867 18.7152 18.5569 18.7033 18.548L15.7979 16.4486C15.5095 16.2404 15.6582 15.7854 16.012 15.7884L19.5954 15.7973C19.6102 15.7973 19.6251 15.7884 19.6281 15.7735L20.7284 12.3627C20.8384 12.0236 21.3142 12.0236 21.4242 12.3627L22.5245 15.7735C22.5245 15.7735 22.5423 15.7973 22.5572 15.7973L26.1406 15.7884C26.4944 15.7884 26.6431 16.2404 26.3547 16.4486L23.4493 18.548C23.4493 18.548 23.4315 18.5718 23.4374 18.5867L24.5526 21.9916C24.6626 22.3276 24.276 22.6101 23.9906 22.399L21.0971 20.2847C21.0971 20.2847 21.0674 20.2758 21.0555 20.2847V20.2847Z" stroke="white" stroke-linecap="round" stroke-linejoin="round"></path><path d="M21.0764 20.2694L18.0729 22.464C17.8142 22.6543 17.4663 22.3986 17.5645 22.0952L18.7212 18.5595L15.7059 16.3797C15.4472 16.1924 15.581 15.782 15.8992 15.782L19.6193 15.7909L20.7612 12.2522C20.8593 11.9459 21.2905 11.9459 21.3887 12.2522L22.5306 15.7909L26.2507 15.782C26.5719 15.782 26.7057 16.1924 26.444 16.3797L23.4286 18.5595L24.5854 22.0952C24.6865 22.3986 24.3356 22.6543 24.0769 22.464L21.0735 20.2694H21.0764Z" stroke="white" stroke-linecap="round" stroke-linejoin="round"></path><path d="M44.6702 20.2847L41.7768 22.399C41.4913 22.6072 41.1047 22.3276 41.2148 21.9916L42.3299 18.5867C42.3299 18.5867 42.3299 18.5569 42.318 18.548L39.4127 16.4486C39.1242 16.2404 39.2729 15.7854 39.6268 15.7884L43.2101 15.7973C43.225 15.7973 43.2399 15.7884 43.2428 15.7735L44.3431 12.3627C44.4531 12.0236 44.9289 12.0236 45.039 12.3627L46.1393 15.7735C46.1393 15.7735 46.1571 15.7973 46.172 15.7973L49.7553 15.7884C50.1092 15.7884 50.2579 16.2404 49.9694 16.4486L47.0641 18.548C47.0641 18.548 47.0462 18.5718 47.0522 18.5867L48.1673 21.9916C48.2774 22.3276 47.8908 22.6101 47.6053 22.399L44.7119 20.2847C44.7119 20.2847 44.6821 20.2758 44.6702 20.2847V20.2847Z" stroke="white" stroke-linecap="round" stroke-linejoin="round"></path><path d="M44.6912 20.2694L41.6877 22.464C41.429 22.6543 41.0811 22.3986 41.1792 22.0952L42.336 18.5595L39.3206 16.3797C39.0619 16.1924 39.1957 15.782 39.5139 15.782L43.234 15.7909L44.376 12.2522C44.4741 11.9459 44.9053 11.9459 45.0034 12.2522L46.1453 15.7909L49.8655 15.782C50.1866 15.782 50.3204 16.1924 50.0588 16.3797L47.0434 18.5595L48.2002 22.0952C48.3013 22.3986 47.9504 22.6543 47.6917 22.464L44.6882 20.2694H44.6912Z" stroke="white" stroke-linecap="round" stroke-linejoin="round"></path><path d="M32.8508 22.0241L28.284 25.3612C27.8334 25.6898 27.2232 25.2486 27.3969 24.7182L29.157 19.3441C29.157 19.3441 29.157 19.2971 29.1382 19.2831L24.5526 15.9694C24.0973 15.6409 24.332 14.9227 24.8905 14.9274L30.5463 14.9415C30.5697 14.9415 30.5932 14.9274 30.5979 14.904L32.3345 9.52044C32.5082 8.98537 33.2591 8.98537 33.4328 9.52044L35.1694 14.904C35.1694 14.904 35.1976 14.9415 35.2211 14.9415L40.8768 14.9274C41.4353 14.9274 41.67 15.6409 41.2147 15.9694L36.6291 19.2831C36.6291 19.2831 36.601 19.3206 36.6104 19.3441L38.3704 24.7182C38.5441 25.2486 37.9339 25.6945 37.4834 25.3612L32.9165 22.0241C32.9165 22.0241 32.8696 22.01 32.8508 22.0241Z" fill="black" stroke="black" stroke-linecap="round" stroke-linejoin="round"></path><path d="M32.884 22.0008L28.1435 25.4647C27.7351 25.765 27.186 25.3614 27.3409 24.8827L29.1666 19.302L24.4074 15.8616C23.999 15.5659 24.2102 14.9182 24.7125 14.9182L30.5841 14.9323L32.3865 9.34695C32.5413 8.86352 33.2219 8.86352 33.3768 9.34695L35.1791 14.9323L41.0508 14.9182C41.5577 14.9182 41.7689 15.5659 41.3559 15.8616L36.5966 19.302L38.4224 24.8827C38.582 25.3614 38.0281 25.765 37.6198 25.4647L32.8793 22.0008H32.884Z" stroke="black" stroke-linecap="round" stroke-linejoin="round"></path><path d="M32.884 22.0008L28.1435 25.4647C27.7351 25.765 27.186 25.3614 27.3409 24.8827L29.1666 19.302L24.4074 15.8616C23.999 15.5659 24.2102 14.9182 24.7125 14.9182L30.5841 14.9323L32.3865 9.34695C32.5413 8.86352 33.2219 8.86352 33.3768 9.34695L35.1791 14.9323L41.0508 14.9182C41.5577 14.9182 41.7689 15.5659 41.3559 15.8616L36.5966 19.302L38.4224 24.8827C38.582 25.3614 38.0281 25.765 37.6198 25.4647L32.8793 22.0008H32.884Z" stroke="url(#paint0_linear_497_13585)" stroke-linecap="round" stroke-linejoin="round"></path><path d="M25.1848 37.9053H13.4522C11.2601 37.9568 9.47998 39.8325 9.47998 42.0834L10.3995 54" stroke="white" stroke-linecap="round" stroke-linejoin="round"></path><path d="M19.3149 34.8154C21.3746 34.8154 23.0591 33.1383 23.0591 31.0713C23.0591 29.0043 21.3819 27.3271 19.3149 27.3271C17.2479 27.3271 15.5708 29.0043 15.5708 31.0713C15.5708 33.1383 17.2479 34.8154 19.3149 34.8154Z" stroke="white" stroke-linecap="round" stroke-linejoin="round"></path><path d="M14.2318 53.992L13.4595 43.6055" stroke="white" stroke-linecap="round" stroke-linejoin="round"></path><path d="M38.5283 37.9053H50.2609C52.453 37.9568 54.2258 39.8325 54.2258 42.0834L53.3504 54" stroke="white" stroke-linecap="round" stroke-linejoin="round"></path><path d="M44.3985 34.8154C42.3388 34.8154 40.6543 33.1383 40.6543 31.0713C40.6543 29.0043 42.3315 27.3271 44.3985 27.3271C46.4655 27.3271 48.1353 29.0043 48.1353 31.0713C48.1353 33.1383 46.4581 34.8154 44.3985 34.8154Z" stroke="white" stroke-linecap="round" stroke-linejoin="round"></path><path d="M49.5107 53.992L50.2757 43.6055" stroke="white" stroke-linecap="round" stroke-linejoin="round"></path><path d="M22.4339 53.9927L22.022 48.5052C22.022 48.4096 22.022 48.3434 22.022 48.3066C22.022 46.0483 23.7947 44.1799 25.9794 44.1211H37.7121C39.9041 44.1726 41.6769 46.0483 41.6769 48.2992L41.2576 53.9853" stroke="white" stroke-linecap="round" stroke-linejoin="round"></path><path d="M31.8637 41.053C33.9315 41.0472 35.6031 39.3663 35.5974 37.2984C35.5916 35.2306 33.9106 33.559 31.8428 33.5647C29.775 33.5705 28.1033 35.2515 28.1091 37.3194C28.1149 39.3872 29.7959 41.0588 31.8637 41.053Z" stroke="white" stroke-linecap="round" stroke-linejoin="round"></path><path d="M26.2882 53.9926L25.9277 49.1377" stroke="white" stroke-linecap="round" stroke-linejoin="round"></path><path d="M31.8565 41.0391C29.7968 41.0391 28.1123 39.362 28.1123 37.295C28.1123 35.2279 29.7895 33.5508 31.8565 33.5508C33.9235 33.5508 35.6006 35.2279 35.6006 37.295C35.6006 39.362 33.9235 41.0391 31.8565 41.0391Z" stroke="white" stroke-linecap="round" stroke-linejoin="round"></path><path d="M31.8637 41.053C33.9315 41.0472 35.6031 39.3663 35.5974 37.2984C35.5916 35.2306 33.9106 33.559 31.8428 33.5647C29.775 33.5705 28.1033 35.2515 28.1091 37.3194C28.1149 39.3872 29.7959 41.0588 31.8637 41.053Z" stroke="white" stroke-linecap="round" stroke-linejoin="round"></path><path d="M37.4033 53.9929L37.7638 49.0645" stroke="white" stroke-linecap="round" stroke-linejoin="round"></path><defs><linearGradient id="paint0_linear_497_13585" x1="30.0099" y1="14.6577" x2="47.3667" y2="30.481" gradientUnits="userSpaceOnUse"><stop offset="0.236106" stop-color="#DA291C"></stop><stop offset="1" stop-color="#FFCD00"></stop></linearGradient></defs></svg> 