<?xml version="1.0" encoding="UTF-8"?> <svg xmlns="http://www.w3.org/2000/svg" width="64" height="64" viewBox="0 0 64 64" fill="none"><path d="M50.0894 54.8986L50.0894 9.39165C50.0894 8.62306 49.4677 8 48.7007 8L15.5891 8C14.8221 8 14.2003 8.62306 14.2003 9.39165L14.2003 54.8986C14.2003 55.6672 14.8221 56.2903 15.5891 56.2903L48.7007 56.2903C49.4677 56.2903 50.0894 55.6672 50.0894 54.8986Z" stroke="white" stroke-linejoin="round"></path><path d="M14.2204 43.5664L49.7524 43.5664" stroke="white" stroke-miterlimit="10"></path><path d="M43.3046 50.0474L45.348 50.0474" stroke="white" stroke-miterlimit="10"></path><path d="M39.2376 50.0474L41.281 50.0474" stroke="white" stroke-miterlimit="10"></path><path d="M23.0489 50.0474L25.0924 50.0474" stroke="white" stroke-miterlimit="10"></path><path d="M18.962 50.0474L21.0054 50.0474" stroke="white" stroke-miterlimit="10"></path><path d="M32.1549 47.7415C33.4246 47.7415 34.4761 48.7753 34.4761 50.0675C34.4761 51.3598 33.4445 52.3936 32.1549 52.3936C30.8654 52.3936 29.8337 51.3598 29.8337 50.0675C29.8337 48.7753 30.8654 47.7415 32.1549 47.7415Z" stroke="white" stroke-miterlimit="10"></path><path d="M41.6704 36.5233L44 30.4424L38.2084 17.5596H35.1023L29.3214 30.4424L31.6834 36.5233" stroke="black" stroke-miterlimit="10"></path><path d="M41.6704 36.5233L44 30.4424L38.2084 17.5596H35.1023L29.3214 30.4424L31.6834 36.5233" stroke="url(#paint0_linear_1549_34823)" stroke-miterlimit="10"></path><path d="M38.6182 30.4422C38.6182 31.5184 37.7446 32.3902 36.6661 32.3902C35.5876 32.3902 34.714 31.5184 34.714 30.4422C34.714 29.3659 35.5876 28.4941 36.6661 28.4941C37.7446 28.4941 38.6182 29.3659 38.6182 30.4422Z" stroke="black" stroke-miterlimit="10"></path><path d="M38.6182 30.4422C38.6182 31.5184 37.7446 32.3902 36.6661 32.3902C35.5876 32.3902 34.714 31.5184 34.714 30.4422C34.714 29.3659 35.5876 28.4941 36.6661 28.4941C37.7446 28.4941 38.6182 29.3659 38.6182 30.4422Z" stroke="url(#paint1_linear_1549_34823)" stroke-miterlimit="10"></path><path d="M36.6661 28.4944V17.5596" stroke="black" stroke-miterlimit="10"></path><path d="M36.6661 28.4944V17.5596" stroke="url(#paint2_linear_1549_34823)" stroke-miterlimit="10"></path><path d="M42.1018 38.4929H31.2196C30.6803 38.4929 30.2489 38.0624 30.2489 37.5243C30.2489 36.9862 30.6803 36.5557 31.2196 36.5557H42.1018C42.6411 36.5557 43.0725 36.9862 43.0725 37.5243C43.0725 38.0624 42.6411 38.4929 42.1018 38.4929Z" stroke="black" stroke-miterlimit="10"></path><path d="M42.1018 38.4929H31.2196C30.6803 38.4929 30.2489 38.0624 30.2489 37.5243C30.2489 36.9862 30.6803 36.5557 31.2196 36.5557H42.1018C42.6411 36.5557 43.0725 36.9862 43.0725 37.5243C43.0725 38.0624 42.6411 38.4929 42.1018 38.4929Z" stroke="url(#paint3_linear_1549_34823)" stroke-miterlimit="10"></path><path d="M41.6812 38.4067V43.3575" stroke="black" stroke-miterlimit="10"></path><path d="M41.6812 38.4067V43.3575" stroke="url(#paint4_linear_1549_34823)" stroke-miterlimit="10"></path><path d="M31.7265 38.4067V43.3575" stroke="black" stroke-miterlimit="10"></path><path d="M31.7265 38.4067V43.3575" stroke="url(#paint5_linear_1549_34823)" stroke-miterlimit="10"></path><path d="M26.2045 43.3578L26.5604 29.0973L23.7131 19.0127H22.1277L19 29.0973L19.4314 43.3578" stroke="white" stroke-miterlimit="10"></path><path d="M26.5604 29.0972H19" stroke="white" stroke-miterlimit="10"></path><path d="M26.5604 32.1431H19" stroke="white" stroke-miterlimit="10"></path><path d="M22.8827 19.0126V17" stroke="white" stroke-miterlimit="10"></path><defs><linearGradient id="paint0_linear_1549_34823" x1="34.2344" y1="24.0472" x2="52.7024" y2="36.4801" gradientUnits="userSpaceOnUse"><stop offset="0.236106" stop-color="#DA291C"></stop><stop offset="1" stop-color="#FFCD00"></stop></linearGradient><linearGradient id="paint1_linear_1549_34823" x1="36.0207" y1="29.827" x2="40.0775" y2="33.3627" gradientUnits="userSpaceOnUse"><stop offset="0.236106" stop-color="#DA291C"></stop><stop offset="1" stop-color="#FFCD00"></stop></linearGradient><linearGradient id="paint2_linear_1549_34823" x1="37.0008" y1="21.3004" x2="38.8177" y2="21.4449" gradientUnits="userSpaceOnUse"><stop offset="0.236106" stop-color="#DA291C"></stop><stop offset="1" stop-color="#FFCD00"></stop></linearGradient><linearGradient id="paint3_linear_1549_34823" x1="34.541" y1="37.2184" x2="35.2277" y2="41.1717" gradientUnits="userSpaceOnUse"><stop offset="0.236106" stop-color="#DA291C"></stop><stop offset="1" stop-color="#FFCD00"></stop></linearGradient><linearGradient id="paint4_linear_1549_34823" x1="42.0159" y1="40.1004" x2="43.7895" y2="40.412" gradientUnits="userSpaceOnUse"><stop offset="0.236106" stop-color="#DA291C"></stop><stop offset="1" stop-color="#FFCD00"></stop></linearGradient><linearGradient id="paint5_linear_1549_34823" x1="32.0612" y1="40.1004" x2="33.8348" y2="40.412" gradientUnits="userSpaceOnUse"><stop offset="0.236106" stop-color="#DA291C"></stop><stop offset="1" stop-color="#FFCD00"></stop></linearGradient></defs></svg> 