<?xml version="1.0" encoding="UTF-8"?> <svg xmlns="http://www.w3.org/2000/svg" xmlns:xlink="http://www.w3.org/1999/xlink" version="1.1" id="Layer_1" x="0px" y="0px" viewBox="0 0 64 64" style="enable-background:new 0 0 64 64;" xml:space="preserve"> <style type="text/css"> .st0{fill:#FFFFFF;} .st1{fill:#0277BD;} </style> <g> <path class="st0" d="M60.5,38.5c-0.2-1.1-1.3-2.4-3.3-2.4c-0.4,0-0.9,0.1-1.4,0.2c-1,0.2-1.8,0.3-2.5,0.3 c5.6-9.5,9.2-22.8,5.6-27.4c-4.7-6.1-11.1-7-14.5-7l-0.3,0c-1.3,0-2.6,0.2-3.9,0.5l-4.8,1c-0.7-0.1-1.3-0.1-2-0.2h0h0l-0.2,0 c-2.2,0-4.1,0.5-5.9,1.3l-1.7-0.7c-2.3-0.9-5.8-2-9.3-2c-0.2,0-0.4,0-0.6,0C12.2,2.3,9.2,3.6,7.1,6c-2.7,2.9-3.9,7.2-3.6,12.6 c0,0.3,3.3,28.3,12.7,28.3h0l0.1,0c1.2,0,2.4-0.5,3.5-1.5c0.8,0.6,1.9,1,2.9,1.1c0.7,0.2,1.8,0.4,3.3,0.4c1.7,0,3.3-0.4,4.7-1 c0,1.2,0,2.7,0,4.6l0,0.1l0,0.1c0.1,1.9,0.5,3.7,1,5c1.4,3.9,3.9,6,6.9,6c0.1,0,0.3,0,0.4,0c2.5-0.2,5-1.6,6.8-3.8 c1.9-2.4,2.3-4.9,2.5-6.8l0-0.1V51v-5.5l0.1,0l0.6,0.1l0.1,0l0.1,0c0.2,0,0.3,0,0.5,0c2,0,4.6-0.5,6.2-1.3 C57.4,43.5,61.1,41.4,60.5,38.5z"></path> <path class="st1" d="M45.5,44.2c0-0.3,0-0.5,0-0.8c0-0.3,0-0.6,0-0.6s0,0,0,0c0.2-3.6,1.2-5,2.3-5.8c-0.1-0.2-0.3-0.4-0.5-0.6 c-0.5-0.6-1-1.3-1.6-2.3l-0.1-0.2c-0.1-0.2-0.3-0.6-0.6-1.1c-1.6-2.9-4.9-8.9-2.7-12.7c1-1.7,2.9-2.6,5.6-2.9 C46.8,14,42.7,6.4,33.3,6.3c0,0,0,0,0,0C25.1,6.2,22.4,13.6,21.5,18c1.2-0.5,2.6-0.8,3.8-0.8c0,0,0,0,0.1,0c3.1,0,5.2,1.7,5.9,4.5 c0.5,2.1,0.7,3.9,0.7,5.6c0,3.7-0.8,5.6-1.4,7.3l-0.2,0.6c-0.2,0.5-0.3,0.9-0.5,1.3c-0.2,0.4-0.3,0.8-0.4,1.1 c0.7,0.1,1.2,0.4,1.5,0.5l0.2,0.1c0.1,0,0.1,0.1,0.2,0.1c1.1,0.7,1.9,1.8,2,3c0.1,0.7,0.1,5.3,0,9.3c0.1,1.7,0.4,3.2,0.8,4.3 c0.6,1.5,1.9,4.4,4.6,4.2c1.9-0.1,3.6-1.2,4.8-2.7c1.3-1.6,1.7-3.4,1.9-5.4L45.5,44.2L45.5,44.2z"></path> <path class="st1" d="M21.2,37.3C19.1,35,18,32,18.4,29.1c0.4-2.8,0.2-5.5,0.1-6.9c0-0.5-0.1-0.8-0.1-1c0,0,0,0,0,0c0,0,0,0,0,0 c0.2-4.1,1.7-10.5,6.1-14.4c-2.1-0.8-5.6-1.9-8.8-1.8c-5.1,0.2-10,3.7-9.5,13.5c0.2,3.7,4.4,25.9,10.1,25.7c0.8,0,1.7-0.5,2.5-1.6 c1.4-1.7,2.7-3.2,3.7-4.2C22,38.1,21.6,37.7,21.2,37.3z M50.9,18.1c0,0.2,0,0.4,0,0.6c0,1.2-0.1,2.5-0.2,3.6 c-0.1,0.9-0.2,1.8-0.2,2.6c0,0.9,0.1,1.7,0.2,2.6c0.3,2.1,0.6,4.5-1,7.4c0.3,0.4,0.6,0.8,0.8,1.1c6.2-10.1,8.8-22.1,6.4-25.2 c-3.6-4.6-8.7-6-12.6-5.9c-1.2,0-2.4,0.2-3.3,0.4C47.6,8.7,50.7,15.8,50.9,18.1z M56.3,38.9c-3.6,0.7-5.3,0.3-6.2-0.2 c-0.1,0.1-0.3,0.2-0.4,0.3c-0.5,0.3-1.3,0.8-1.5,3.8c0.1,0,0.2,0,0.3,0.1l0.6,0.1c1.8,0.1,4.1-0.4,5.5-1.1 C57.6,40.4,59.2,38.3,56.3,38.9z M30.6,41.6c-0.1-0.4-0.3-0.7-0.7-1l-0.1-0.1c-0.5-0.2-1-0.5-1.9-0.5h0c-0.2,0-0.3,0-0.5,0 c-0.1,0-0.1,0-0.2,0c-0.6,0.5-1.6,0.9-3.8,1.3c-4,1-1.7,2.2-0.1,2.4c1.5,0.4,5.1,0.8,7.4-1.1C30.6,42.2,30.6,41.8,30.6,41.6z"></path> <path class="st1" d="M28.8,23.2c-0.4,0.4-1,0.8-1.7,0.7c-1.1-0.2-2-1.5-1.9-2l0,0c0.1-0.5,1-0.8,2.1-0.6c0.4,0.1,0.7,0.2,1,0.3 c-0.4-0.9-1.2-1.5-2.4-1.6c-2.1-0.2-4.4,0.9-4.8,1.5c0,0.1,0,0.3,0,0.6c0.1,1.6,0.4,4.4-0.1,7.5c-0.3,2,0.5,4.3,2.1,5.9 c1,1.1,2.2,1.7,3.4,1.9c0.2-0.6,0.4-1.3,0.7-1.9c0.2-0.4,0.3-0.7,0.5-1.2l0.2-0.6c0.6-1.6,1.2-3.2,1.2-6.4 C29.2,26.1,29.1,24.7,28.8,23.2z M48,27.9c-0.1-1-0.3-2-0.3-3.1c0-1,0.1-2,0.2-2.9c0.1-0.7,0.1-1.4,0.2-2.1 c-1.7,0.1-2.9,0.6-3.5,1.5c0.2-0.1,0.5-0.1,0.8-0.2c1.2-0.2,2.1,0.2,2.2,0.9c0.1,0.5-0.3,1-0.5,1.1c-0.4,0.4-0.8,0.6-1.3,0.7 c-0.1,0-0.2,0-0.3,0c-0.5,0-0.9-0.2-1.3-0.4c0.2,2.7,2.1,6.2,3.1,8c0.2,0.4,0.4,0.7,0.5,0.9C48.4,30.9,48.2,29.5,48,27.9z"></path> </g> </svg> 