<?xml version="1.0" encoding="UTF-8"?> <svg xmlns="http://www.w3.org/2000/svg" width="64" height="64" viewBox="0 0 64 64" fill="none"><g clip-path="url(#clip0_497_11899)"><path d="M55.0769 28.5312H14.1528" stroke="black" stroke-linejoin="round"></path><path d="M44.8122 30.9289C43.5074 21.7272 39.4382 15 34.6151 15C28.7384 15 23.9829 24.9555 23.9829 37.2308C23.9829 49.5061 28.7384 59.4617 34.6151 59.4617C37.3407 59.4617 39.8151 57.3159 41.6999 53.7976" stroke="black" stroke-linecap="round" stroke-linejoin="round"></path><path d="M56.5656 33.7222C54.8838 23.1094 45.7015 15 34.6151 15C22.3398 15 12.3843 24.9555 12.3843 37.2308C12.3843 49.5061 22.3398 59.4617 34.6151 59.4617C39.2933 59.4617 43.6331 58.0118 47.2094 55.5471" stroke="black" stroke-linecap="round" stroke-linejoin="round"></path><path d="M14.1528 45.9297H35.9294" stroke="black" stroke-linecap="round" stroke-linejoin="round"></path><path d="M47.8511 45.486C49.1072 46.6633 51.0798 46.5995 52.2572 45.3434C53.4345 44.0874 53.3707 42.1147 52.1146 40.9374C50.8586 39.7601 48.8859 39.8239 47.7086 41.08C46.5313 42.336 46.5951 44.3086 47.8511 45.486Z" stroke="black" stroke-linecap="round" stroke-linejoin="round"></path><path d="M47.8511 45.486C49.1072 46.6633 51.0798 46.5995 52.2572 45.3434C53.4345 44.0874 53.3707 42.1147 52.1146 40.9374C50.8586 39.7601 48.8859 39.8239 47.7086 41.08C46.5313 42.336 46.5951 44.3086 47.8511 45.486Z" stroke="url(#paint0_linear_497_11899)" stroke-linecap="round" stroke-linejoin="round"></path><path d="M56.0988 50.3618C55.9247 50.5475 55.631 50.557 55.4452 50.3829L54.5772 49.5693C54.418 49.4201 54.1823 49.4057 54.0023 49.5218C53.3974 49.9089 52.745 50.1946 52.0751 50.3927C51.8676 50.4546 51.7229 50.6394 51.7298 50.8523L51.7645 51.9245C51.7766 52.299 51.5741 52.515 51.3171 52.5234L49.2536 52.5901C48.9965 52.5984 48.7843 52.3995 48.776 52.1424L48.7375 50.9528C48.7306 50.7399 48.574 50.5575 48.3632 50.5165C47.6783 50.3659 47.0124 50.1192 46.3837 49.7719C46.1965 49.6677 45.9623 49.6974 45.8166 49.8528L45.0847 50.6336C44.8253 50.9103 44.5316 50.9198 44.3459 50.7457L42.841 49.3352C42.6553 49.1611 42.6458 48.8674 42.8199 48.6817L43.6335 47.8137C43.7827 47.6545 43.7972 47.4188 43.6811 47.2387C43.2939 46.6338 43.0082 45.9814 42.8101 45.3115C42.7483 45.104 42.5635 44.9593 42.3505 44.9662L41.2784 45.0009C40.9039 45.013 40.6878 44.8105 40.6795 44.5535L40.6127 42.49C40.6044 42.233 40.8034 42.0207 41.0604 42.0124L42.25 41.9739C42.463 41.967 42.6454 41.8104 42.6863 41.5996C42.8369 40.9147 43.0837 40.2488 43.4309 39.6201C43.5351 39.433 43.5055 39.1987 43.3501 39.053L42.5692 38.3211C42.2925 38.0618 42.283 37.768 42.4571 37.5823L43.8676 36.0775C44.0417 35.8917 44.3354 35.8822 44.6121 36.1416L45.393 36.8735C45.5522 37.0227 45.7841 37.0336 45.9641 36.9175C46.5691 36.5304 47.2176 36.2411 47.8913 36.0465C48.0988 35.9847 48.2436 35.7999 48.2367 35.5869L48.1982 34.3973C48.1899 34.1403 48.3888 33.928 48.6458 33.9197L50.7093 33.8529C50.9663 33.8446 51.1786 34.0436 51.1945 34.4217L51.2292 35.4938C51.2361 35.7067 51.3924 35.8818 51.6035 35.9301C52.2884 36.0807 52.9543 36.3275 53.583 36.6747C53.7701 36.7789 54.0044 36.7492 54.1536 36.59L54.9672 35.722C55.1413 35.5363 55.4351 35.5268 55.6208 35.7009L57.1256 37.1114C57.3114 37.2855 57.3209 37.5792 57.0615 37.8559L56.3296 38.6368C56.1804 38.796 56.1695 39.0279 56.2856 39.2079C56.6727 39.8128 56.9585 40.4652 57.1566 41.1351C57.2184 41.3426 57.4032 41.4873 57.6162 41.4804L58.8058 41.4419C59.0628 41.4336 59.2751 41.6326 59.2834 41.8896L59.3501 43.9531C59.3585 44.2101 59.1595 44.4224 58.7814 44.4383L57.7093 44.473C57.4963 44.4799 57.3213 44.6362 57.273 44.8473C57.1224 45.5321 56.8756 46.198 56.5284 46.8268C56.4242 47.0139 56.4539 47.2482 56.6131 47.3974L57.4811 48.211C57.6668 48.3851 57.6763 48.6788 57.5022 48.8646L56.0917 50.3694L56.0988 50.3618Z" stroke="black" stroke-linecap="round" stroke-linejoin="round"></path><path d="M56.0988 50.3618C55.9247 50.5475 55.631 50.557 55.4452 50.3829L54.5772 49.5693C54.418 49.4201 54.1823 49.4057 54.0023 49.5218C53.3974 49.9089 52.745 50.1946 52.0751 50.3927C51.8676 50.4546 51.7229 50.6394 51.7298 50.8523L51.7645 51.9245C51.7766 52.299 51.5741 52.515 51.3171 52.5234L49.2536 52.5901C48.9965 52.5984 48.7843 52.3995 48.776 52.1424L48.7375 50.9528C48.7306 50.7399 48.574 50.5575 48.3632 50.5165C47.6783 50.3659 47.0124 50.1192 46.3837 49.7719C46.1965 49.6677 45.9623 49.6974 45.8166 49.8528L45.0847 50.6336C44.8253 50.9103 44.5316 50.9198 44.3459 50.7457L42.841 49.3352C42.6553 49.1611 42.6458 48.8674 42.8199 48.6817L43.6335 47.8137C43.7827 47.6545 43.7972 47.4188 43.6811 47.2387C43.2939 46.6338 43.0082 45.9814 42.8101 45.3115C42.7483 45.104 42.5635 44.9593 42.3505 44.9662L41.2784 45.0009C40.9039 45.013 40.6878 44.8105 40.6795 44.5535L40.6127 42.49C40.6044 42.233 40.8034 42.0207 41.0604 42.0124L42.25 41.9739C42.463 41.967 42.6454 41.8104 42.6863 41.5996C42.8369 40.9147 43.0837 40.2488 43.4309 39.6201C43.5351 39.433 43.5055 39.1987 43.3501 39.053L42.5692 38.3211C42.2925 38.0618 42.283 37.768 42.4571 37.5823L43.8676 36.0775C44.0417 35.8917 44.3354 35.8822 44.6121 36.1416L45.393 36.8735C45.5522 37.0227 45.7841 37.0336 45.9641 36.9175C46.5691 36.5304 47.2176 36.2411 47.8913 36.0465C48.0988 35.9847 48.2436 35.7999 48.2367 35.5869L48.1982 34.3973C48.1899 34.1403 48.3888 33.928 48.6458 33.9197L50.7093 33.8529C50.9663 33.8446 51.1786 34.0436 51.1945 34.4217L51.2292 35.4938C51.2361 35.7067 51.3924 35.8818 51.6035 35.9301C52.2884 36.0807 52.9543 36.3275 53.583 36.6747C53.7701 36.7789 54.0044 36.7492 54.1536 36.59L54.9672 35.722C55.1413 35.5363 55.4351 35.5268 55.6208 35.7009L57.1256 37.1114C57.3114 37.2855 57.3209 37.5792 57.0615 37.8559L56.3296 38.6368C56.1804 38.796 56.1695 39.0279 56.2856 39.2079C56.6727 39.8128 56.9585 40.4652 57.1566 41.1351C57.2184 41.3426 57.4032 41.4873 57.6162 41.4804L58.8058 41.4419C59.0628 41.4336 59.2751 41.6326 59.2834 41.8896L59.3501 43.9531C59.3585 44.2101 59.1595 44.4224 58.7814 44.4383L57.7093 44.473C57.4963 44.4799 57.3213 44.6362 57.273 44.8473C57.1224 45.5321 56.8756 46.198 56.5284 46.8268C56.4242 47.0139 56.4539 47.2482 56.6131 47.3974L57.4811 48.211C57.6668 48.3851 57.6763 48.6788 57.5022 48.8646L56.0917 50.3694L56.0988 50.3618Z" stroke="url(#paint1_linear_497_11899)" stroke-linecap="round" stroke-linejoin="round"></path><path d="M20.3547 15.7496C20.3547 15.7496 20.3345 15.7194 20.3243 15.702C20.2239 15.5552 20.2286 15.3606 20.3462 15.2305L20.9872 14.4952C21.1255 14.3366 21.1092 14.0982 20.9506 13.96L19.677 12.8497C19.5184 12.7114 19.28 12.7278 19.0747 12.9633L18.4966 13.6265C18.3792 13.7611 18.1916 13.792 18.0322 13.708C17.5174 13.4495 16.9667 13.2613 16.3899 13.1517C16.2159 13.1184 16.0842 12.9783 16.0722 12.8029L16.0057 11.8314C15.9912 11.62 15.8089 11.4653 15.602 11.4794L13.9153 11.595C13.7039 11.6094 13.5492 11.7918 13.5634 11.9987L13.6299 12.9702C13.6419 13.1456 13.5307 13.3023 13.3628 13.359C12.8015 13.5421 12.2819 13.8081 11.8117 14.1341C11.6649 14.2345 11.4748 14.2295 11.3405 14.1167L10.6773 13.5385C10.4418 13.3332 10.2037 13.354 10.0652 13.5081L8.9549 14.7817C8.81664 14.9403 8.83297 15.1786 8.99156 15.3169L9.72687 15.9579C9.86143 16.0752 9.89267 16.2674 9.81288 16.422C9.55441 16.9368 9.36619 17.4874 9.25658 18.0643C9.22331 18.2383 9.0877 18.3696 8.90778 18.3819L8.03521 18.4417C7.72486 18.463 7.57015 18.6453 7.58432 18.8522L7.69985 20.5389C7.71433 20.7503 7.89665 20.905 8.10355 20.8908L9.07508 20.8243C9.25049 20.8122 9.40724 20.9235 9.46393 21.0914C9.64698 21.6527 9.91303 22.1722 10.239 22.6425C10.3394 22.7892 10.3344 22.9794 10.2215 23.1136L9.64335 23.7769C9.43806 24.0123 9.45888 24.2504 9.61298 24.389L10.8865 25.4993C11.0451 25.6375 11.2835 25.6212 11.4218 25.4626L12.0628 24.7273C12.1801 24.5927 12.3723 24.5615 12.5269 24.6413C12.5455 24.6491 12.5641 24.6568 12.5782 24.6649" stroke="black" stroke-linecap="round" stroke-linejoin="round"></path><path d="M18.0568 17.6918C17.4871 16.6327 16.3373 15.9432 15.0599 16.0307C13.3193 16.15 12.0079 17.6542 12.1271 19.3949C12.214 20.6632 13.0397 21.7003 14.1489 22.1259" stroke="black" stroke-linecap="round" stroke-linejoin="round"></path></g><defs><linearGradient id="paint0_linear_497_11899" x1="49.9042" y1="41.7887" x2="50.7791" y2="50.3449" gradientUnits="userSpaceOnUse"><stop offset="0.236106" stop-color="#DA291C"></stop><stop offset="1" stop-color="#FFCD00"></stop></linearGradient><linearGradient id="paint1_linear_497_11899" x1="49.7449" y1="38.9557" x2="52.3642" y2="64.6071" gradientUnits="userSpaceOnUse"><stop offset="0.236106" stop-color="#DA291C"></stop><stop offset="1" stop-color="#FFCD00"></stop></linearGradient><clipPath id="clip0_497_11899"><rect width="64" height="64" fill="white"></rect></clipPath></defs></svg> 