<?xml version="1.0" encoding="UTF-8"?> <svg xmlns="http://www.w3.org/2000/svg" width="64" height="64" viewBox="0 0 64 64" fill="none"><path d="M45.17 23H2.83002" stroke="#37464C" stroke-linejoin="round"></path><path d="M34.55 25.48C33.2 15.96 28.99 9 24 9C17.92 9 13 19.3 13 32C13 44.7 17.92 55 24 55C26.82 55 29.38 52.78 31.33 49.14" stroke="#37464C" stroke-linecap="round" stroke-linejoin="round"></path><path d="M46.71 28.37C44.97 17.39 35.47 9 24 9C11.3 9 1 19.3 1 32C1 44.7 11.3 55 24 55C28.84 55 33.33 53.5 37.03 50.95" stroke="#37464C" stroke-linecap="round" stroke-linejoin="round"></path><path d="M2.83002 41H25.36" stroke="#37464C" stroke-linecap="round" stroke-linejoin="round"></path><path d="M30.0561 43L27.6697 34.2727H28.7436L30.5675 41.3807H30.6527L32.5107 34.2727H33.7038L35.5618 41.3807H35.647L37.4709 34.2727H38.5447L36.1584 43H35.0675L33.1413 36.0455H33.0732L31.147 43H30.0561ZM41.4467 43L39.0604 34.2727H40.1342L41.9581 41.3807H42.0433L43.9013 34.2727H45.0945L46.9524 41.3807H47.0376L48.8615 34.2727H49.9354L47.549 43H46.4581L44.532 36.0455H44.4638L42.5376 43H41.4467ZM52.8374 43L50.451 34.2727H51.5249L53.3487 41.3807H53.4339L55.2919 34.2727H56.4851L58.343 41.3807H58.4283L60.2521 34.2727H61.326L58.9396 43H57.8487L55.9226 36.0455H55.8544L53.9283 43H52.8374Z" fill="black"></path><path d="M30.0561 43L27.6697 34.2727H28.7436L30.5675 41.3807H30.6527L32.5107 34.2727H33.7038L35.5618 41.3807H35.647L37.4709 34.2727H38.5447L36.1584 43H35.0675L33.1413 36.0455H33.0732L31.147 43H30.0561ZM41.4467 43L39.0604 34.2727H40.1342L41.9581 41.3807H42.0433L43.9013 34.2727H45.0945L46.9524 41.3807H47.0376L48.8615 34.2727H49.9354L47.549 43H46.4581L44.532 36.0455H44.4638L42.5376 43H41.4467ZM52.8374 43L50.451 34.2727H51.5249L53.3487 41.3807H53.4339L55.2919 34.2727H56.4851L58.343 41.3807H58.4283L60.2521 34.2727H61.326L58.9396 43H57.8487L55.9226 36.0455H55.8544L53.9283 43H52.8374Z" fill="url(#paint0_linear_1528_33201)"></path><defs><linearGradient id="paint0_linear_1528_33201" x1="38.7146" y1="36.1579" x2="55.2929" y2="64.1946" gradientUnits="userSpaceOnUse"><stop offset="0.236106" stop-color="#DA291C"></stop><stop offset="1" stop-color="#FFCD00"></stop></linearGradient></defs></svg> 