<?xml version="1.0" encoding="UTF-8"?> <svg xmlns="http://www.w3.org/2000/svg" width="64" height="64" viewBox="0 0 64 64" fill="none"><g clip-path="url(#clip0_1576_35606)"><path d="M51.4596 9.32613C52.4401 10.298 53.4205 11.27 54.4009 12.2333C54.6823 12.5147 54.7334 12.8216 54.5373 13.1711C53.412 15.1917 52.2866 17.2208 51.1697 19.2413C50.9992 19.5482 50.752 19.6932 50.3939 19.6846C49.4902 19.6846 48.578 19.6761 47.6743 19.6846C47.5038 19.6846 47.2906 19.7443 47.1798 19.8552C43.7014 23.3165 40.2315 26.7949 36.7616 30.2648C36.736 30.2904 36.7105 30.333 36.6678 30.3927C36.736 30.4779 36.8042 30.5632 36.881 30.6399C38.2365 31.9955 39.5921 33.3425 40.9391 34.7066C41.1267 34.8942 41.2716 34.9368 41.5274 34.8345C47.3077 32.6434 53.5654 36.2838 54.5459 42.3966C55.4069 47.7421 51.4852 52.883 46.1056 53.4627C40.8794 54.0254 36.2586 50.5214 35.4146 45.3379C35.1418 43.6584 35.3379 42.013 35.9261 40.4102C35.9773 40.2652 35.9858 40.018 35.9005 39.9327C34.4597 38.4578 33.0019 37.0085 31.5866 35.5847C30.9984 36.1815 30.4186 36.7527 29.8048 37.3751C29.9156 37.4859 30.1032 37.682 30.2907 37.8696C30.7255 38.3044 31.1774 38.7392 31.6037 39.1825C31.9362 39.5235 31.9447 39.8816 31.6207 40.2141C30.9472 40.9047 30.2822 41.6037 29.5661 42.2517C29.3956 42.4051 29.029 42.4478 28.7817 42.3966C28.2446 42.2773 27.7246 42.0727 27.0766 41.8595C27.2642 42.4393 27.4006 42.9167 27.5796 43.3771C27.7672 43.8374 27.6649 44.187 27.3153 44.5365C24.8856 46.9492 22.4728 49.3875 20.0431 51.8003C18.4318 53.3945 16.5135 53.9487 14.3395 53.2667C12.1996 52.5931 10.9208 51.0671 10.4945 48.859C10.4178 48.1343 10.4178 47.5801 10.486 47.1283C10.6821 45.7898 11.3385 44.7156 12.2934 43.7778C14.6549 41.4418 17.008 39.0887 19.344 36.7186C19.7532 36.3009 20.1369 36.173 20.6825 36.4117C21.1002 36.5993 21.5606 36.7016 22.1063 36.8721C21.9016 36.2497 21.7482 35.7382 21.5691 35.2437C21.4242 34.8515 21.5095 34.5531 21.7993 34.2718C22.3961 33.6921 22.9844 33.0953 23.5726 32.507C24.1097 31.9699 24.3996 31.9699 24.9452 32.5241C25.5079 33.0868 26.0791 33.658 26.6077 34.1951C27.2216 33.5812 28.364 32.3791 28.3384 32.3536C26.1047 30.1113 23.854 27.8777 21.6288 25.6269C21.4242 25.4223 21.2537 25.499 21.0491 25.5587C16.5902 26.8461 11.9779 24.2799 10.7332 19.804C10.6139 19.3607 10.5286 18.9173 10.4348 18.4655C10.4348 17.8858 10.4348 17.3145 10.4348 16.7348C10.5542 16.2318 10.648 15.7288 10.7844 15.2343C11.006 14.45 11.5687 14.305 12.157 14.8848C12.9669 15.6862 13.7512 16.5046 14.5782 17.289C14.7146 17.4254 14.9874 17.5106 15.175 17.4851C16.0446 17.3742 16.9057 17.2037 17.7668 17.0673C18.0396 17.0247 18.1504 16.9138 18.193 16.641C18.3209 15.7714 18.4914 14.9103 18.6108 14.0493C18.6364 13.8617 18.5511 13.5889 18.4147 13.4525C17.6218 12.617 16.7949 11.8156 15.9849 11.0057C15.4478 10.46 15.5842 9.88882 16.3174 9.67568C16.8204 9.53075 17.3405 9.42844 17.8605 9.30908C18.4403 9.30908 19.0115 9.30908 19.5912 9.30908C19.6594 9.33466 19.7191 9.36876 19.7873 9.38581C24.9452 10.1361 28.0912 14.9956 26.6504 20.0171C26.5736 20.2729 26.6504 20.4093 26.8123 20.5713C28.9863 22.7368 31.1518 24.9023 33.3173 27.0763C33.394 27.153 33.4793 27.2297 33.5816 27.315C33.6498 27.2553 33.7095 27.2212 33.7606 27.17C37.2135 23.7172 40.6663 20.2729 44.1021 16.8115C44.2129 16.7007 44.2811 16.4876 44.2897 16.3256C44.3067 15.4645 44.3152 14.5949 44.2897 13.7338C44.2726 13.2564 44.4516 12.958 44.8694 12.7278C46.566 11.8071 48.2455 10.8607 49.925 9.92292C50.2746 9.72683 50.6071 9.51369 50.9481 9.30908C51.1186 9.30908 51.2976 9.30908 51.4681 9.30908L51.4596 9.32613Z" stroke="white" stroke-miterlimit="10"></path><path d="M49.8228 43.9055C49.8228 44.5364 49.8142 45.1673 49.8228 45.8067C49.8313 46.1989 49.6778 46.4632 49.3283 46.6337C48.0154 47.2816 46.7195 47.9551 45.3895 48.5775C45.1593 48.6883 44.7842 48.6713 44.5455 48.5604C43.2325 47.9466 41.9452 47.2731 40.6408 46.6337C40.2912 46.4632 40.1292 46.2074 40.1378 45.8152C40.1463 44.5193 40.1463 43.2235 40.1378 41.9361C40.1378 41.5439 40.3083 41.2967 40.6493 41.1262C41.9367 40.4953 43.224 39.8559 44.5028 39.1994C44.8268 39.0374 45.1167 39.0289 45.4406 39.1994C46.7195 39.8474 48.0068 40.4953 49.2942 41.1262C49.6608 41.3052 49.8313 41.5695 49.8228 41.9787C49.8057 42.6267 49.8228 43.2746 49.8228 43.9226V43.9055Z" stroke="black" stroke-miterlimit="10"></path><path d="M49.8228 43.9055C49.8228 44.5364 49.8142 45.1673 49.8228 45.8067C49.8313 46.1989 49.6778 46.4632 49.3283 46.6337C48.0154 47.2816 46.7195 47.9551 45.3895 48.5775C45.1593 48.6883 44.7842 48.6713 44.5455 48.5604C43.2325 47.9466 41.9452 47.2731 40.6408 46.6337C40.2912 46.4632 40.1292 46.2074 40.1378 45.8152C40.1463 44.5193 40.1463 43.2235 40.1378 41.9361C40.1378 41.5439 40.3083 41.2967 40.6493 41.1262C41.9367 40.4953 43.224 39.8559 44.5028 39.1994C44.8268 39.0374 45.1167 39.0289 45.4406 39.1994C46.7195 39.8474 48.0068 40.4953 49.2942 41.1262C49.6608 41.3052 49.8313 41.5695 49.8228 41.9787C49.8057 42.6267 49.8228 43.2746 49.8228 43.9226V43.9055Z" stroke="url(#paint0_linear_1576_35606)" stroke-miterlimit="10"></path><path d="M15.8656 49.9841C18.3295 47.5202 20.8445 45.0052 23.3766 42.4731" stroke="white" stroke-linecap="round" stroke-linejoin="round"></path><path d="M13.7257 47.9467C16.2407 45.4316 18.7558 42.9166 21.2708 40.3931" stroke="white" stroke-linecap="round" stroke-linejoin="round"></path><path d="M19.4548 18.875L20.836 20.2561" stroke="white" stroke-linecap="round" stroke-linejoin="round"></path><path d="M30.0776 33.9395L28.219 35.798" stroke="white" stroke-linecap="round" stroke-linejoin="round"></path></g><defs><linearGradient id="paint0_linear_1576_35606" x1="43.3793" y1="42.3513" x2="53.3642" y2="51.1334" gradientUnits="userSpaceOnUse"><stop offset="0.236106" stop-color="#DA291C"></stop><stop offset="1" stop-color="#FFCD00"></stop></linearGradient><clipPath id="clip0_1576_35606"><rect width="45.1" height="45.1" fill="white" transform="translate(10 8.8999)"></rect></clipPath></defs></svg> 