<?xml version="1.0" encoding="UTF-8"?> <svg xmlns="http://www.w3.org/2000/svg" version="1.2" viewBox="0 0 180 49" width="180" height="49"><title>Icon-Klevu-Dark-svg</title><defs><clipPath id="cp1"><path d="m0 0h180v49h-180z"></path></clipPath></defs><style> .s0 { opacity: 0;fill: #ffffff } .s1 { fill: #ffffff } .s2 { fill: #98c341 } </style><g id="Clip-Path: Icon-Klevu-Dark" clip-path="url(#cp1)"><g id="Icon-Klevu-Dark"><path id="Rectangle_2" class="s0" d="m0 0h180v49h-180z"></path><g id="Klevu"><path id="Path_37629" class="s1" d="m44.2 12v10.8h0.8l12.6-10.8h5l-14.6 11.7 16 13.4h-5l-14.8-12.4v12.4h-3.3v-25.1z"></path><path id="Path_37630" class="s1" d="m68.8 37.1v-25.1h3.4v22.3h16.4v2.8z"></path><path id="Path_37631" class="s1" d="m113.4 12v2.5h-16.7v8.1h15.4v2.5h-12.1l-3.3-1.8v11h16.7v2.8h-20v-25.1z"></path><path id="Path_37632" class="s1" d="m154 11.9v17.2q-0.1 0.5 0 1 0.2 0.6 0.4 1 0.2 0.5 0.5 0.9 0.3 0.4 0.7 0.7 0.4 0.4 0.9 0.7 0.5 0.3 1 0.5 0.5 0.2 1 0.3 0.6 0.1 1.1 0h6.3q0.5 0.1 1.1 0 0.5-0.1 1-0.3 0.6-0.2 1-0.5 0.5-0.3 0.9-0.7 0.4-0.3 0.7-0.7 0.3-0.4 0.5-0.9 0.3-0.5 0.4-1 0.1-0.5 0.1-1v-17.2h3.3v17.8q0 0.8-0.2 1.5-0.2 0.7-0.5 1.4-0.3 0.7-0.7 1.3-0.5 0.5-1 1-0.6 0.6-1.3 1-0.6 0.4-1.4 0.7-0.7 0.2-1.5 0.4-0.7 0.1-1.5 0.1h-8.1q-0.8 0-1.5-0.2-0.8-0.1-1.6-0.4-0.7-0.2-1.4-0.6-0.6-0.4-1.2-1-0.6-0.4-1-1-0.5-0.6-0.8-1.3-0.3-0.7-0.5-1.4-0.1-0.7-0.1-1.5v-17.8z"></path><path id="Path_37633" class="s2" d="m14.9 21.5l0.9-1.4 0.9 1.4 9.5 13.8c0.2 0.2 0.3 0.5 0.2 0.8 0 0.4-0.2 0.6-0.5 0.8-0.2 0.2-0.5 0.2-0.9 0.2-0.3-0.1-0.5-0.3-0.7-0.5l-8.5-12.4-8.6 12.4q-0.1 0.2-0.3 0.3-0.2 0.1-0.4 0.2-0.2 0-0.5 0-0.2-0.1-0.4-0.2-0.2-0.2-0.3-0.4-0.1-0.1-0.2-0.4 0-0.2 0-0.4 0.1-0.2 0.2-0.4z"></path><path id="Path_37634" class="s2" d="m14.8 13.3l1-1.4 0.9 1.4 6.7 9.7q0 0 0.1 0.1 0 0 0 0 0 0 0 0 0 0.1 0 0.1c0.2 0.3 0.2 0.6 0.1 0.9 0 0.3-0.2 0.5-0.5 0.7-0.3 0.1-0.6 0.1-0.9 0.1-0.3-0.1-0.5-0.3-0.7-0.6l-5.7-8.3-5.8 8.4q-0.1 0.2-0.3 0.3-0.2 0.1-0.4 0.1-0.2 0.1-0.5 0-0.2 0-0.4-0.1-0.2-0.2-0.3-0.4-0.1-0.2-0.2-0.4 0-0.2 0-0.4 0.1-0.3 0.2-0.5z"></path><path id="Path_37635" class="s1" d="m146.1 11.9l-11.6 25.2h-4.6l-11.6-25.2h3.6l10.3 22.1 10.3-22.1z"></path></g></g></g></svg> 