<?xml version="1.0" encoding="UTF-8"?> <svg xmlns="http://www.w3.org/2000/svg" width="64" height="64" viewBox="0 0 64 64" fill="none"><g clip-path="url(#clip0_1576_35255)"><path d="M49.3007 23.5928H3.95959" stroke="white" stroke-linejoin="round"></path><path d="M37.9279 26.2487C36.4822 16.0539 31.9738 8.60059 26.6301 8.60059C20.1192 8.60059 14.8505 19.6307 14.8505 33.2308C14.8505 46.831 20.1192 57.8611 26.6301 57.8611C29.65 57.8611 32.3915 55.4837 34.4797 51.5857" stroke="white" stroke-linecap="round" stroke-linejoin="round"></path><path d="M50.9499 29.3435C49.0866 17.5853 38.9133 8.60059 26.6303 8.60059C13.0301 8.60059 2 19.6307 2 33.2308C2 46.831 13.0301 57.8611 26.6303 57.8611C31.8133 57.8611 36.6216 56.2548 40.5838 53.524" stroke="white" stroke-linecap="round" stroke-linejoin="round"></path><path d="M3.95959 42.8687H28.0865" stroke="white" stroke-linecap="round" stroke-linejoin="round"></path><path d="M39.8508 43.4845C41.1068 44.6618 43.0795 44.598 44.2568 43.342C45.4341 42.0859 45.3703 40.1133 44.1143 38.9359C42.8582 37.7586 40.8856 37.8224 39.7082 39.0785C38.5309 40.3345 38.5947 42.3072 39.8508 43.4845Z" stroke="black" stroke-linecap="round" stroke-linejoin="round"></path><path d="M39.8508 43.4845C41.1068 44.6618 43.0795 44.598 44.2568 43.342C45.4341 42.0859 45.3703 40.1133 44.1143 38.9359C42.8582 37.7586 40.8856 37.8224 39.7082 39.0785C38.5309 40.3345 38.5947 42.3072 39.8508 43.4845Z" stroke="url(#paint0_linear_1576_35255)" stroke-linecap="round" stroke-linejoin="round"></path><path d="M48.0983 48.3598C47.9242 48.5456 47.6305 48.5551 47.4448 48.381L46.5768 47.5674C46.4176 47.4182 46.1819 47.4037 46.0018 47.5198C45.3969 47.907 44.7445 48.1927 44.0746 48.3908C43.8671 48.4526 43.7224 48.6374 43.7293 48.8504L43.764 49.9225C43.7761 50.297 43.5736 50.5131 43.3166 50.5214L41.2531 50.5882C40.9961 50.5965 40.7838 50.3975 40.7755 50.1405L40.737 48.9509C40.7301 48.7379 40.5735 48.5555 40.3627 48.5146C39.6778 48.364 39.0119 48.1172 38.3832 47.77C38.196 47.6658 37.9618 47.6954 37.8161 47.8508L37.0842 48.6317C36.8249 48.9084 36.5311 48.9179 36.3454 48.7438L34.8406 47.3333C34.6548 47.1592 34.6453 46.8655 34.8194 46.6797L35.633 45.8117C35.7823 45.6525 35.7967 45.4168 35.6806 45.2368C35.2935 44.6318 35.0077 43.9795 34.8096 43.3096C34.7478 43.1021 34.563 42.9574 34.35 42.9642L33.2779 42.9989C32.9034 43.011 32.6873 42.8085 32.679 42.5515L32.6123 40.488C32.6039 40.231 32.8029 40.0187 33.0599 40.0104L34.2495 39.9719C34.4625 39.9651 34.6449 39.8085 34.6859 39.5976C34.8364 38.9128 35.0832 38.2469 35.4304 37.6181C35.5346 37.431 35.505 37.1967 35.3496 37.0511L34.5687 36.3192C34.292 36.0598 34.2825 35.7661 34.4566 35.5803L35.8671 34.0755C36.0412 33.8898 36.335 33.8803 36.6117 34.1396L37.3925 34.8715C37.5517 35.0208 37.7836 35.0316 37.9636 34.9155C38.5686 34.5284 39.2172 34.2391 39.8908 34.0446C40.0983 33.9827 40.2431 33.7979 40.2362 33.585L40.1977 32.3954C40.1894 32.1383 40.3883 31.9261 40.6454 31.9178L42.7088 31.851C42.9659 31.8427 43.1781 32.0416 43.194 32.4197L43.2287 33.4918C43.2356 33.7048 43.392 33.8798 43.603 33.9281C44.2879 34.0787 44.9538 34.3255 45.5825 34.6727C45.7697 34.7769 46.0039 34.7473 46.1532 34.5881L46.9668 33.7201C47.1409 33.5344 47.4346 33.5248 47.6203 33.6989L49.1251 35.1094C49.3109 35.2835 49.3204 35.5773 49.061 35.854L48.3291 36.6348C48.1799 36.794 48.169 37.0259 48.2851 37.2059C48.6722 37.8109 48.958 38.4632 49.1561 39.1331C49.2179 39.3406 49.4027 39.4854 49.6157 39.4785L50.8053 39.44C51.0623 39.4317 51.2746 39.6306 51.2829 39.8876L51.3497 41.9511C51.358 42.2081 51.159 42.4204 50.7809 42.4363L49.7088 42.471C49.4959 42.4779 49.3208 42.6343 49.2725 42.8453C49.1219 43.5302 48.8752 44.1961 48.5279 44.8248C48.4237 45.0119 48.4534 45.2462 48.6126 45.3954L49.4806 46.209C49.6663 46.3831 49.6758 46.6769 49.5017 46.8626L48.0912 48.3674L48.0983 48.3598Z" stroke="black" stroke-linecap="round" stroke-linejoin="round"></path><path d="M48.0983 48.3598C47.9242 48.5456 47.6305 48.5551 47.4448 48.381L46.5768 47.5674C46.4176 47.4182 46.1819 47.4037 46.0018 47.5198C45.3969 47.907 44.7445 48.1927 44.0746 48.3908C43.8671 48.4526 43.7224 48.6374 43.7293 48.8504L43.764 49.9225C43.7761 50.297 43.5736 50.5131 43.3166 50.5214L41.2531 50.5882C40.9961 50.5965 40.7838 50.3975 40.7755 50.1405L40.737 48.9509C40.7301 48.7379 40.5735 48.5555 40.3627 48.5146C39.6778 48.364 39.0119 48.1172 38.3832 47.77C38.196 47.6658 37.9618 47.6954 37.8161 47.8508L37.0842 48.6317C36.8249 48.9084 36.5311 48.9179 36.3454 48.7438L34.8406 47.3333C34.6548 47.1592 34.6453 46.8655 34.8194 46.6797L35.633 45.8117C35.7823 45.6525 35.7967 45.4168 35.6806 45.2368C35.2935 44.6318 35.0077 43.9795 34.8096 43.3096C34.7478 43.1021 34.563 42.9574 34.35 42.9642L33.2779 42.9989C32.9034 43.011 32.6873 42.8085 32.679 42.5515L32.6123 40.488C32.6039 40.231 32.8029 40.0187 33.0599 40.0104L34.2495 39.9719C34.4625 39.9651 34.6449 39.8085 34.6859 39.5976C34.8364 38.9128 35.0832 38.2469 35.4304 37.6181C35.5346 37.431 35.505 37.1967 35.3496 37.0511L34.5687 36.3192C34.292 36.0598 34.2825 35.7661 34.4566 35.5803L35.8671 34.0755C36.0412 33.8898 36.335 33.8803 36.6117 34.1396L37.3925 34.8715C37.5517 35.0208 37.7836 35.0316 37.9636 34.9155C38.5686 34.5284 39.2172 34.2391 39.8908 34.0446C40.0983 33.9827 40.2431 33.7979 40.2362 33.585L40.1977 32.3954C40.1894 32.1383 40.3883 31.9261 40.6454 31.9178L42.7088 31.851C42.9659 31.8427 43.1781 32.0416 43.194 32.4197L43.2287 33.4918C43.2356 33.7048 43.392 33.8798 43.603 33.9281C44.2879 34.0787 44.9538 34.3255 45.5825 34.6727C45.7697 34.7769 46.0039 34.7473 46.1532 34.5881L46.9668 33.7201C47.1409 33.5344 47.4346 33.5248 47.6203 33.6989L49.1251 35.1094C49.3109 35.2835 49.3204 35.5773 49.061 35.854L48.3291 36.6348C48.1799 36.794 48.169 37.0259 48.2851 37.2059C48.6722 37.8109 48.958 38.4632 49.1561 39.1331C49.2179 39.3406 49.4027 39.4854 49.6157 39.4785L50.8053 39.44C51.0623 39.4317 51.2746 39.6306 51.2829 39.8876L51.3497 41.9511C51.358 42.2081 51.159 42.4204 50.7809 42.4363L49.7088 42.471C49.4959 42.4779 49.3208 42.6343 49.2725 42.8453C49.1219 43.5302 48.8752 44.1961 48.5279 44.8248C48.4237 45.0119 48.4534 45.2462 48.6126 45.3954L49.4806 46.209C49.6663 46.3831 49.6758 46.6769 49.5017 46.8626L48.0912 48.3674L48.0983 48.3598Z" stroke="url(#paint1_linear_1576_35255)" stroke-linecap="round" stroke-linejoin="round"></path><path d="M51.4045 47.7346C51.4045 47.7346 51.4453 47.7443 51.4675 47.7509C51.6675 47.7959 51.8163 47.9639 51.8191 48.1659L51.8555 49.2894C51.8633 49.5318 52.0642 49.7201 52.3065 49.7122L54.2525 49.6493C54.4949 49.6414 54.6832 49.4405 54.6715 49.0807L54.6387 48.0673C54.6321 47.8617 54.7661 47.6883 54.9665 47.634C55.6037 47.448 56.2161 47.1746 56.7888 46.8143C56.9617 46.7057 57.1827 46.7206 57.3306 46.8592L58.1493 47.6266C58.3275 47.7936 58.6027 47.781 58.7661 47.6067L60.0985 46.1852C60.2655 46.0071 60.2529 45.7318 60.0785 45.5684L59.2598 44.801C59.112 44.6624 59.0828 44.4428 59.1799 44.2633C59.5098 43.6682 59.7393 43.0359 59.8802 42.3918C59.9252 42.1919 60.0896 42.0469 60.2914 42.0367L61.3048 42.0039C61.6646 41.9922 61.8491 41.7878 61.8451 41.549L61.7821 39.603C61.7743 39.3607 61.5734 39.1724 61.331 39.1802L60.2075 39.2166C60.0019 39.2232 59.8247 39.0856 59.7707 38.8926C59.5846 38.2554 59.3112 37.6431 58.9509 37.0703C58.8424 36.8974 58.8537 36.6802 58.9958 36.5286L59.6851 35.7932C59.9302 35.5317 59.9177 35.2564 59.7433 35.093L58.3219 33.7606C58.1437 33.5936 57.8684 33.6062 57.705 33.7806L56.9376 34.5993C56.799 34.7472 56.5794 34.7763 56.3999 34.6792C55.8048 34.3493 55.1725 34.1198 54.5284 33.9789C54.3285 33.9339 54.1835 33.7696 54.1733 33.5677L54.1405 32.5543C54.1289 32.1945 53.9244 32.01 53.6856 32.014L51.7397 32.077C51.4973 32.0848 51.309 32.2857 51.3169 32.5281L51.3532 33.6516C51.3599 33.8572 51.2222 34.0344 51.0292 34.0885C51.0074 34.0965 50.9856 34.1046 50.9674 34.1088" stroke="white" stroke-linecap="round" stroke-linejoin="round"></path><path d="M51.8187 44.2918C53.1306 44.7382 54.6419 44.4173 55.6509 43.3408C57.0259 41.8739 56.9515 39.5754 55.4846 38.2004C54.4157 37.1985 52.905 36.9717 51.6352 37.4833" stroke="white" stroke-linecap="round" stroke-linejoin="round"></path></g><defs><linearGradient id="paint0_linear_1576_35255" x1="41.9038" y1="39.7873" x2="42.7787" y2="48.3434" gradientUnits="userSpaceOnUse"><stop offset="0.236106" stop-color="#DA291C"></stop><stop offset="1" stop-color="#FFCD00"></stop></linearGradient><linearGradient id="paint1_linear_1576_35255" x1="41.7445" y1="36.9537" x2="44.3637" y2="62.6052" gradientUnits="userSpaceOnUse"><stop offset="0.236106" stop-color="#DA291C"></stop><stop offset="1" stop-color="#FFCD00"></stop></linearGradient><clipPath id="clip0_1576_35255"><rect width="64" height="64" fill="white"></rect></clipPath></defs></svg> 