<?xml version="1.0" encoding="UTF-8"?> <svg xmlns="http://www.w3.org/2000/svg" width="64" height="64" viewBox="0 0 64 64" fill="none"><path d="M25.4997 55.3572L26.4282 48.8572" stroke="white" stroke-linecap="round" stroke-linejoin="round"></path><path d="M41.2854 55.3572H22.714" stroke="white" stroke-linecap="round" stroke-linejoin="round"></path><path d="M37.5711 48.8572L38.4997 55.3572" stroke="white" stroke-linecap="round" stroke-linejoin="round"></path><path d="M16.3997 11.7144H9.11966C7.39326 11.7144 5.99966 13.0969 5.99966 14.8096V45.762C5.99966 47.4747 7.39326 48.8572 9.11966 48.8572H54.8797C56.6061 48.8572 57.9997 47.4747 57.9997 45.762V14.8096C57.9997 13.0969 56.6061 11.7144 54.8797 11.7144H45.5197" stroke="white" stroke-linecap="round" stroke-linejoin="round"></path><path d="M5.99966 43.2856H57.9997" stroke="white" stroke-linejoin="round"></path><path d="M43.1425 38.6428V32.1428" stroke="white" stroke-linecap="round" stroke-linejoin="round"></path><path d="M47.7854 38.6428V25.6428" stroke="white" stroke-linecap="round" stroke-linejoin="round"></path><path d="M51.4997 38.6428V19.1428" stroke="white" stroke-linecap="round" stroke-linejoin="round"></path><path d="M43.1425 20.0714C43.1425 13.402 37.7406 8 31.0711 8V20.0714H43.1425Z" stroke="black" stroke-linejoin="round"></path><path d="M43.1425 20.0714C43.1425 13.402 37.7406 8 31.0711 8V20.0714H43.1425Z" stroke="url(#paint0_linear_1373_28296)" stroke-linejoin="round"></path><path d="M39.4282 24.2501C39.4282 31.1761 33.8185 36.7858 26.8925 36.7858C19.9665 36.7858 14.3568 31.1761 14.3568 24.2501C14.3568 17.3241 19.9665 11.7144 26.8925 11.7144V24.2501H39.4282Z" stroke="white" stroke-linejoin="round"></path><path d="M26.4282 24.7144L18.0711 33.0715" stroke="white" stroke-linejoin="round"></path><defs><linearGradient id="paint0_linear_1373_28296" x1="35.1114" y1="12.1297" x2="47.6772" y2="23.0586" gradientUnits="userSpaceOnUse"><stop offset="0.236106" stop-color="#DA291C"></stop><stop offset="1" stop-color="#FFCD00"></stop></linearGradient></defs></svg> 