<?xml version="1.0" encoding="UTF-8"?> <svg xmlns="http://www.w3.org/2000/svg" width="64" height="64" viewBox="0 0 64 64" fill="none"><g clip-path="url(#clip0_1373_28309)"><path d="M41.0417 6.4585H22.2917C21.1411 6.4585 20.2083 7.39124 20.2083 8.54183V16.8752C20.2083 18.0258 21.1411 18.9585 22.2917 18.9585H41.0417C42.1923 18.9585 43.125 18.0258 43.125 16.8752V8.54183C43.125 7.39124 42.1923 6.4585 41.0417 6.4585Z" stroke="white" stroke-linejoin="round"></path><path d="M51.4584 52.2917C54.9102 52.2917 57.7084 49.4935 57.7084 46.0417C57.7084 42.59 54.9102 39.7917 51.4584 39.7917C48.0066 39.7917 45.2084 42.59 45.2084 46.0417C45.2084 49.4935 48.0066 52.2917 51.4584 52.2917Z" stroke="white" stroke-linejoin="round"></path><path d="M31.6667 52.2917C35.1185 52.2917 37.9167 49.4935 37.9167 46.0417C37.9167 42.59 35.1185 39.7917 31.6667 39.7917C28.2149 39.7917 25.4167 42.59 25.4167 46.0417C25.4167 49.4935 28.2149 52.2917 31.6667 52.2917Z" stroke="white" stroke-linejoin="round"></path><path d="M25.4167 29.375H16.0417C13.7396 29.375 11.875 31.2396 11.875 33.5417V39.7917" stroke="black" stroke-linecap="round" stroke-linejoin="round"></path><path d="M25.4167 29.375H16.0417C13.7396 29.375 11.875 31.2396 11.875 33.5417V39.7917" stroke="url(#paint0_linear_1373_28309)" stroke-linecap="round" stroke-linejoin="round"></path><path d="M37.9167 29.375H47.2917C49.5938 29.375 51.4584 31.2396 51.4584 33.5417V39.7917" stroke="white" stroke-linecap="round" stroke-linejoin="round"></path><path d="M31.6667 18.9585V23.1252" stroke="white" stroke-linejoin="round"></path><path d="M31.6667 35.625V39.7917" stroke="white" stroke-linejoin="round"></path><path d="M16.0417 39.7917H7.70833C6.55774 39.7917 5.625 40.7245 5.625 41.8751V50.2084C5.625 51.359 6.55774 52.2917 7.70833 52.2917H16.0417C17.1923 52.2917 18.125 51.359 18.125 50.2084V41.8751C18.125 40.7245 17.1923 39.7917 16.0417 39.7917Z" stroke="black" stroke-linejoin="round"></path><path d="M16.0417 39.7917H7.70833C6.55774 39.7917 5.625 40.7245 5.625 41.8751V50.2084C5.625 51.359 6.55774 52.2917 7.70833 52.2917H16.0417C17.1923 52.2917 18.125 51.359 18.125 50.2084V41.8751C18.125 40.7245 17.1923 39.7917 16.0417 39.7917Z" stroke="url(#paint1_linear_1373_28309)" stroke-linejoin="round"></path><path d="M31.6667 52.2917V54.3751C31.6667 56.6772 29.8021 58.5417 27.5 58.5417H16.0417C13.7396 58.5417 11.875 56.6772 11.875 54.3751V52.2917" stroke="white" stroke-linejoin="round"></path><path d="M31.6719 23.1203L25.4185 29.3738L31.6719 35.6273L37.9254 29.3738L31.6719 23.1203Z" stroke="white" stroke-linejoin="round"></path></g><defs><linearGradient id="paint0_linear_1373_28309" x1="16.4074" y1="32.9386" x2="27.2743" y2="45.2254" gradientUnits="userSpaceOnUse"><stop offset="0.236106" stop-color="#DA291C"></stop><stop offset="1" stop-color="#FFCD00"></stop></linearGradient><linearGradient id="paint1_linear_1373_28309" x1="9.80878" y1="44.0681" x2="22.8206" y2="55.385" gradientUnits="userSpaceOnUse"><stop offset="0.236106" stop-color="#DA291C"></stop><stop offset="1" stop-color="#FFCD00"></stop></linearGradient><clipPath id="clip0_1373_28309"><rect width="54.1667" height="54.1667" fill="white" transform="translate(4.58334 5.41675)"></rect></clipPath></defs></svg> 