<?xml version="1.0" encoding="UTF-8"?> <svg xmlns="http://www.w3.org/2000/svg" width="64" height="64" viewBox="0 0 64 64" fill="none"><g clip-path="url(#clip0_1576_34482)"><path fill-rule="evenodd" clip-rule="evenodd" d="M7.24001 32.2899C7.46001 32.4699 7.64001 32.6799 7.70001 32.9499C7.78001 33.3599 7.54001 33.6899 7.31001 34.0099L7.26001 34.0799C6.95001 34.4999 6.84001 34.8299 6.93001 35.0099C7.24001 35.6299 9.52001 35.6399 10.62 35.6499C10.86 35.6499 11.08 35.6499 11.28 35.6499H11.5C11.66 32.5799 14.21 30.1299 17.31 30.1299C20.41 30.1299 22.9 32.5199 23.12 35.5299L42.72 35.4699C42.87 32.3899 45.43 29.9199 48.55 29.9199C51.07 29.9199 53.32 31.5799 54.1 33.9399C54.47 33.7199 54.62 33.5599 54.62 33.5599C54.66 33.5099 54.7 33.4799 54.75 33.4599C55.63 33.0199 56.09 30.7599 55.71 28.7199C55.49 27.4999 55 26.6999 54.44 26.6199C53 26.6499 51.11 26.3699 51.03 26.3499C51.03 26.3499 51.03 26.3499 51.02 26.3499L48.39 25.8599C48.39 25.8599 48.35 25.8599 48.32 25.8399C47.07 25.3999 39.16 23.5499 39.08 23.5299C31.86 21.9899 26.23 23.7499 26.18 23.7699C21.09 25.5499 19.31 27.1799 19.29 27.1999C19.23 27.2599 19.15 27.2999 19.07 27.3099L16.74 27.7499C10.36 29.6199 7.98001 31.5299 7.25001 32.2799L7.24001 32.2899ZM11.26 36.5399H11.25C11.05 36.5399 10.83 36.5399 10.59 36.5399C8.84001 36.5399 6.67001 36.5199 6.11001 35.4099C5.85001 34.8999 5.99001 34.2699 6.52001 33.5499L6.58001 33.4699C6.67001 33.3499 6.79001 33.1899 6.81001 33.1199C6.79001 33.0799 6.69001 32.9699 6.34001 32.7699C6.24001 32.7099 6.16001 32.6099 6.13001 32.4899C6.10001 32.3699 6.13001 32.2499 6.19001 32.1499C6.26001 32.0399 8.02001 29.3899 16.48 26.8999C16.49 26.8999 16.51 26.8999 16.52 26.8899L18.75 26.4599C19.2 26.0799 21.18 24.5699 25.86 22.9299C26.11 22.8499 31.78 21.0699 39.24 22.6599C39.57 22.7399 47.16 24.5199 48.55 24.9799L51.14 25.4599C51.26 25.4799 53.09 25.7499 54.41 25.7199C54.43 25.7199 54.45 25.7199 54.47 25.7199C55.48 25.8199 56.24 26.8499 56.55 28.5499C56.95 30.7099 56.53 33.4499 55.18 34.2099C55.04 34.3499 54.68 34.6499 53.96 34.9899C53.84 35.0499 53.7 35.0499 53.57 34.9899C53.45 34.9299 53.36 34.8199 53.33 34.6899C52.84 32.4399 50.8 30.8199 48.5 30.8199C45.77 30.8199 43.55 33.0399 43.55 35.7699C43.55 35.8199 43.55 35.8599 43.55 35.9099C43.55 36.0299 43.51 36.1499 43.42 36.2299C43.34 36.3199 43.22 36.3699 43.1 36.3699L22.63 36.4399C22.51 36.4399 22.4 36.3899 22.32 36.3099C22.24 36.2299 22.19 36.1099 22.19 35.9999V35.9799C22.19 33.2599 19.98 31.0399 17.26 31.0399C14.54 31.0399 12.33 33.2499 12.33 35.9699C12.33 36.0099 12.33 36.0499 12.33 36.0899C12.33 36.2099 12.29 36.3199 12.21 36.4099C12.13 36.4999 12.01 36.5399 11.89 36.5499H11.22L11.26 36.5399Z" fill="black"></path><path fill-rule="evenodd" clip-rule="evenodd" d="M32.1501 28.77C26.7701 28.77 21.4201 28.03 18.8501 27.3C18.6101 27.23 18.4801 26.99 18.5401 26.75C18.6101 26.51 18.8501 26.38 19.0901 26.44C21.8201 27.22 27.4901 27.96 33.0201 27.87C39.5001 27.77 43.9601 26.56 45.6001 24.46C45.7501 24.27 46.0301 24.23 46.2201 24.38C46.4101 24.53 46.4501 24.81 46.3001 25C44.0801 27.85 38.1001 28.76 32.1501 28.76V28.77Z" fill="black"></path><path fill-rule="evenodd" clip-rule="evenodd" d="M40.85 27.7701C40.66 27.7701 40.48 27.6501 40.42 27.4601L39.16 23.3201C39.09 23.0801 39.22 22.8401 39.46 22.7601C39.7 22.6901 39.94 22.8201 40.02 23.0601L41.28 27.2001C41.35 27.4301 41.22 27.6801 40.98 27.7601C40.94 27.7701 40.89 27.7801 40.85 27.7801V27.7701Z" fill="black"></path><path fill-rule="evenodd" clip-rule="evenodd" d="M36.93 30.0301C36.71 30.0301 36.52 29.8701 36.49 29.6401C36.46 29.4001 36.63 29.1701 36.88 29.1401L39.57 28.8001C39.81 28.7701 40.04 28.9401 40.07 29.1901C40.1 29.4401 39.93 29.6601 39.68 29.6901L36.99 30.0301C36.99 30.0301 36.95 30.0301 36.93 30.0301Z" fill="black"></path><path fill-rule="evenodd" clip-rule="evenodd" d="M54.4601 30.0999C53.5501 30.0999 52.9701 29.7999 52.7501 29.2099C52.3301 28.0899 53.6201 26.4599 54.7001 25.8999C54.9201 25.7899 55.1901 25.8699 55.3001 26.0899C55.4101 26.3099 55.3301 26.5799 55.1101 26.6899C54.2401 27.1299 53.3901 28.3699 53.5901 28.8899C53.7001 29.1799 54.3901 29.3699 55.9801 28.9799C56.2201 28.9199 56.4601 29.0699 56.5201 29.3099C56.5801 29.5499 56.4301 29.7899 56.1901 29.8499C55.5201 30.0199 54.9401 30.0999 54.4601 30.0999Z" fill="black"></path><path fill-rule="evenodd" clip-rule="evenodd" d="M7.25995 33.4301C7.01995 33.4301 6.81995 33.2301 6.81995 32.9901C6.81995 32.7401 7.01995 32.5401 7.25995 32.5401C8.65995 32.5401 9.53995 32.2501 9.82995 31.7201C10.1199 31.1801 9.74995 30.4001 9.57995 30.1401C9.44995 29.9301 9.49995 29.6601 9.70995 29.5201C9.91995 29.3901 10.1899 29.4401 10.3199 29.6501C10.3599 29.7101 11.2099 31.0201 10.6099 32.1401C10.1599 32.9901 9.02995 33.4201 7.25995 33.4301Z" fill="black"></path><path fill-rule="evenodd" clip-rule="evenodd" d="M23.33 28.16C23.14 28.16 22.96 28.04 22.9 27.85L22.01 24.93C21.94 24.69 22.07 24.45 22.31 24.37C22.55 24.3 22.79 24.43 22.87 24.67L23.76 27.59C23.83 27.82 23.7 28.07 23.46 28.15C23.42 28.16 23.37 28.17 23.33 28.17V28.16Z" fill="black"></path><path fill-rule="evenodd" clip-rule="evenodd" d="M17.31 32.68C15.51 32.68 14.05 34.14 14.05 35.94C14.05 37.74 15.51 39.2 17.31 39.2C19.11 39.2 20.57 37.74 20.57 35.94C20.57 34.14 19.11 32.68 17.31 32.68ZM17.31 40.09C15.02 40.09 13.16 38.23 13.16 35.94C13.16 33.65 15.02 31.79 17.31 31.79C19.6 31.79 21.46 33.65 21.46 35.94C21.46 38.23 19.6 40.09 17.31 40.09Z" fill="black"></path><path fill-rule="evenodd" clip-rule="evenodd" d="M17.31 32.68C15.51 32.68 14.05 34.14 14.05 35.94C14.05 37.74 15.51 39.2 17.31 39.2C19.11 39.2 20.57 37.74 20.57 35.94C20.57 34.14 19.11 32.68 17.31 32.68ZM17.31 40.09C15.02 40.09 13.16 38.23 13.16 35.94C13.16 33.65 15.02 31.79 17.31 31.79C19.6 31.79 21.46 33.65 21.46 35.94C21.46 38.23 19.6 40.09 17.31 40.09Z" fill="url(#paint0_linear_1576_34482)"></path><path fill-rule="evenodd" clip-rule="evenodd" d="M17.3101 35.59C17.1101 35.59 16.9501 35.75 16.9501 35.95C16.9501 36.15 17.1101 36.31 17.3101 36.31C17.5101 36.31 17.6701 36.15 17.6701 35.95C17.6701 35.75 17.5101 35.59 17.3101 35.59ZM17.3101 37.2C16.6201 37.2 16.0601 36.64 16.0601 35.95C16.0601 35.26 16.6201 34.7 17.3101 34.7C18.0001 34.7 18.5601 35.26 18.5601 35.95C18.5601 36.64 18.0001 37.2 17.3101 37.2Z" fill="black"></path><path fill-rule="evenodd" clip-rule="evenodd" d="M17.3101 35.59C17.1101 35.59 16.9501 35.75 16.9501 35.95C16.9501 36.15 17.1101 36.31 17.3101 36.31C17.5101 36.31 17.6701 36.15 17.6701 35.95C17.6701 35.75 17.5101 35.59 17.3101 35.59ZM17.3101 37.2C16.6201 37.2 16.0601 36.64 16.0601 35.95C16.0601 35.26 16.6201 34.7 17.3101 34.7C18.0001 34.7 18.5601 35.26 18.5601 35.95C18.5601 36.64 18.0001 37.2 17.3101 37.2Z" fill="url(#paint1_linear_1576_34482)"></path><path fill-rule="evenodd" clip-rule="evenodd" d="M17.31 35.5901C17.06 35.5901 16.87 35.3901 16.87 35.1501V32.2501C16.87 32.0001 17.07 31.8101 17.31 31.8101C17.55 31.8101 17.75 32.0101 17.75 32.2501V35.1501C17.75 35.4001 17.55 35.6001 17.31 35.5901Z" fill="black"></path><path fill-rule="evenodd" clip-rule="evenodd" d="M17.31 35.5901C17.06 35.5901 16.87 35.3901 16.87 35.1501V32.2501C16.87 32.0001 17.07 31.8101 17.31 31.8101C17.55 31.8101 17.75 32.0101 17.75 32.2501V35.1501C17.75 35.4001 17.55 35.6001 17.31 35.5901Z" fill="url(#paint2_linear_1576_34482)"></path><path fill-rule="evenodd" clip-rule="evenodd" d="M18 35.9901C17.85 35.9901 17.7 35.9101 17.61 35.7701C17.49 35.5601 17.56 35.2901 17.77 35.1601L20.29 33.7101C20.5 33.5901 20.77 33.6601 20.9 33.8701C21.02 34.0801 20.95 34.3501 20.74 34.4801L18.22 35.9301C18.15 35.9701 18.07 35.9901 18 35.9901Z" fill="black"></path><path fill-rule="evenodd" clip-rule="evenodd" d="M18 35.9901C17.85 35.9901 17.7 35.9101 17.61 35.7701C17.49 35.5601 17.56 35.2901 17.77 35.1601L20.29 33.7101C20.5 33.5901 20.77 33.6601 20.9 33.8701C21.02 34.0801 20.95 34.3501 20.74 34.4801L18.22 35.9301C18.15 35.9701 18.07 35.9901 18 35.9901Z" fill="url(#paint3_linear_1576_34482)"></path><path fill-rule="evenodd" clip-rule="evenodd" d="M20.52 38.25C20.44 38.25 20.37 38.23 20.3 38.19L17.78 36.74C17.57 36.6199 17.49 36.35 17.62 36.13C17.74 35.92 18.02 35.84 18.23 35.97L20.75 37.42C20.96 37.54 21.04 37.82 20.91 38.03C20.83 38.17 20.68 38.25 20.52 38.25Z" fill="black"></path><path fill-rule="evenodd" clip-rule="evenodd" d="M20.52 38.25C20.44 38.25 20.37 38.23 20.3 38.19L17.78 36.74C17.57 36.6199 17.49 36.35 17.62 36.13C17.74 35.92 18.02 35.84 18.23 35.97L20.75 37.42C20.96 37.54 21.04 37.82 20.91 38.03C20.83 38.17 20.68 38.25 20.52 38.25Z" fill="url(#paint4_linear_1576_34482)"></path><path fill-rule="evenodd" clip-rule="evenodd" d="M17.31 40.1001C17.06 40.1001 16.87 39.9001 16.87 39.6601V36.7601C16.87 36.5101 17.07 36.3201 17.31 36.3201C17.56 36.3201 17.75 36.5201 17.75 36.7601V39.6601C17.75 39.9101 17.55 40.1001 17.31 40.1001Z" fill="black"></path><path fill-rule="evenodd" clip-rule="evenodd" d="M17.31 40.1001C17.06 40.1001 16.87 39.9001 16.87 39.6601V36.7601C16.87 36.5101 17.07 36.3201 17.31 36.3201C17.56 36.3201 17.75 36.5201 17.75 36.7601V39.6601C17.75 39.9101 17.55 40.1001 17.31 40.1001Z" fill="url(#paint5_linear_1576_34482)"></path><path fill-rule="evenodd" clip-rule="evenodd" d="M14.1 38.2501C13.95 38.2501 13.8 38.1701 13.71 38.0301C13.59 37.8201 13.66 37.5501 13.87 37.4201L16.39 35.9701C16.6 35.8501 16.87 35.9201 17 36.1301C17.12 36.3401 17.05 36.6101 16.84 36.7401L14.32 38.1901C14.25 38.2301 14.17 38.2501 14.1 38.2501Z" fill="black"></path><path fill-rule="evenodd" clip-rule="evenodd" d="M14.1 38.2501C13.95 38.2501 13.8 38.1701 13.71 38.0301C13.59 37.8201 13.66 37.5501 13.87 37.4201L16.39 35.9701C16.6 35.8501 16.87 35.9201 17 36.1301C17.12 36.3401 17.05 36.6101 16.84 36.7401L14.32 38.1901C14.25 38.2301 14.17 38.2501 14.1 38.2501Z" fill="url(#paint6_linear_1576_34482)"></path><path fill-rule="evenodd" clip-rule="evenodd" d="M16.6101 35.9899C16.5301 35.9899 16.4601 35.9699 16.3901 35.9299L13.8701 34.4799C13.6601 34.3599 13.5801 34.0799 13.7101 33.8699C13.8301 33.6599 14.1101 33.5799 14.3201 33.7099L16.8401 35.1599C17.0501 35.2799 17.1301 35.5599 17.0001 35.7699C16.9201 35.9099 16.7701 35.9899 16.6101 35.9899Z" fill="black"></path><path fill-rule="evenodd" clip-rule="evenodd" d="M16.6101 35.9899C16.5301 35.9899 16.4601 35.9699 16.3901 35.9299L13.8701 34.4799C13.6601 34.3599 13.5801 34.0799 13.7101 33.8699C13.8301 33.6599 14.1101 33.5799 14.3201 33.7099L16.8401 35.1599C17.0501 35.2799 17.1301 35.5599 17.0001 35.7699C16.9201 35.9099 16.7701 35.9899 16.6101 35.9899Z" fill="url(#paint7_linear_1576_34482)"></path><path fill-rule="evenodd" clip-rule="evenodd" d="M48.54 32.4901C46.74 32.4901 45.28 33.9501 45.28 35.7501C45.28 37.5501 46.74 39.0101 48.54 39.0101C50.34 39.0101 51.8 37.5501 51.8 35.7501C51.8 33.9501 50.34 32.4901 48.54 32.4901ZM48.54 39.9001C46.25 39.9001 44.39 38.0401 44.39 35.7501C44.39 33.4601 46.25 31.6001 48.54 31.6001C50.83 31.6001 52.69 33.4601 52.69 35.7501C52.69 38.0401 50.83 39.9001 48.54 39.9001Z" fill="black"></path><path fill-rule="evenodd" clip-rule="evenodd" d="M48.54 32.4901C46.74 32.4901 45.28 33.9501 45.28 35.7501C45.28 37.5501 46.74 39.0101 48.54 39.0101C50.34 39.0101 51.8 37.5501 51.8 35.7501C51.8 33.9501 50.34 32.4901 48.54 32.4901ZM48.54 39.9001C46.25 39.9001 44.39 38.0401 44.39 35.7501C44.39 33.4601 46.25 31.6001 48.54 31.6001C50.83 31.6001 52.69 33.4601 52.69 35.7501C52.69 38.0401 50.83 39.9001 48.54 39.9001Z" fill="url(#paint8_linear_1576_34482)"></path><path fill-rule="evenodd" clip-rule="evenodd" d="M48.54 35.39C48.34 35.39 48.18 35.55 48.18 35.75C48.18 35.95 48.34 36.11 48.54 36.11C48.74 36.11 48.9 35.95 48.9 35.75C48.9 35.55 48.74 35.39 48.54 35.39ZM48.54 37C47.85 37 47.29 36.44 47.29 35.75C47.29 35.06 47.85 34.5 48.54 34.5C49.23 34.5 49.79 35.06 49.79 35.75C49.79 36.44 49.23 37 48.54 37Z" fill="black"></path><path fill-rule="evenodd" clip-rule="evenodd" d="M48.54 35.39C48.34 35.39 48.18 35.55 48.18 35.75C48.18 35.95 48.34 36.11 48.54 36.11C48.74 36.11 48.9 35.95 48.9 35.75C48.9 35.55 48.74 35.39 48.54 35.39ZM48.54 37C47.85 37 47.29 36.44 47.29 35.75C47.29 35.06 47.85 34.5 48.54 34.5C49.23 34.5 49.79 35.06 49.79 35.75C49.79 36.44 49.23 37 48.54 37Z" fill="url(#paint9_linear_1576_34482)"></path><path fill-rule="evenodd" clip-rule="evenodd" d="M48.54 35.3901C48.29 35.3901 48.1 35.1901 48.1 34.9501V32.0501C48.1 31.8001 48.3 31.6101 48.54 31.6101C48.78 31.6101 48.98 31.8101 48.98 32.0501V34.9501C48.98 35.2001 48.78 35.3901 48.54 35.3901Z" fill="black"></path><path fill-rule="evenodd" clip-rule="evenodd" d="M48.54 35.3901C48.29 35.3901 48.1 35.1901 48.1 34.9501V32.0501C48.1 31.8001 48.3 31.6101 48.54 31.6101C48.78 31.6101 48.98 31.8101 48.98 32.0501V34.9501C48.98 35.2001 48.78 35.3901 48.54 35.3901Z" fill="url(#paint10_linear_1576_34482)"></path><path fill-rule="evenodd" clip-rule="evenodd" d="M49.23 35.7902C49.08 35.7902 48.93 35.7102 48.84 35.5702C48.72 35.3602 48.79 35.0902 49 34.9602L51.52 33.5102C51.73 33.3902 52 33.4602 52.13 33.6702C52.25 33.8802 52.18 34.1502 51.97 34.2802L49.45 35.7302C49.38 35.7702 49.3 35.7902 49.23 35.7902Z" fill="black"></path><path fill-rule="evenodd" clip-rule="evenodd" d="M49.23 35.7902C49.08 35.7902 48.93 35.7102 48.84 35.5702C48.72 35.3602 48.79 35.0902 49 34.9602L51.52 33.5102C51.73 33.3902 52 33.4602 52.13 33.6702C52.25 33.8802 52.18 34.1502 51.97 34.2802L49.45 35.7302C49.38 35.7702 49.3 35.7902 49.23 35.7902Z" fill="url(#paint11_linear_1576_34482)"></path><path fill-rule="evenodd" clip-rule="evenodd" d="M51.75 38.05C51.67 38.05 51.6 38.03 51.53 37.99L49.01 36.54C48.8 36.42 48.72 36.15 48.85 35.93C48.97 35.72 49.25 35.64 49.46 35.77L51.98 37.22C52.19 37.34 52.27 37.62 52.14 37.83C52.06 37.97 51.91 38.05 51.75 38.05Z" fill="black"></path><path fill-rule="evenodd" clip-rule="evenodd" d="M51.75 38.05C51.67 38.05 51.6 38.03 51.53 37.99L49.01 36.54C48.8 36.42 48.72 36.15 48.85 35.93C48.97 35.72 49.25 35.64 49.46 35.77L51.98 37.22C52.19 37.34 52.27 37.62 52.14 37.83C52.06 37.97 51.91 38.05 51.75 38.05Z" fill="url(#paint12_linear_1576_34482)"></path><path fill-rule="evenodd" clip-rule="evenodd" d="M48.54 39.9001C48.29 39.9001 48.1 39.7001 48.1 39.4601V36.5601C48.1 36.3101 48.3 36.1201 48.54 36.1201C48.78 36.1201 48.98 36.3201 48.98 36.5601V39.4601C48.98 39.7101 48.78 39.9001 48.54 39.9001Z" fill="black"></path><path fill-rule="evenodd" clip-rule="evenodd" d="M48.54 39.9001C48.29 39.9001 48.1 39.7001 48.1 39.4601V36.5601C48.1 36.3101 48.3 36.1201 48.54 36.1201C48.78 36.1201 48.98 36.3201 48.98 36.5601V39.4601C48.98 39.7101 48.78 39.9001 48.54 39.9001Z" fill="url(#paint13_linear_1576_34482)"></path><path fill-rule="evenodd" clip-rule="evenodd" d="M45.33 38.0502C45.18 38.0502 45.03 37.9702 44.94 37.8302C44.82 37.6202 44.89 37.3502 45.1 37.2202L47.62 35.7702C47.83 35.6502 48.1 35.7202 48.23 35.9302C48.35 36.1402 48.28 36.4102 48.07 36.5402L45.55 37.9902C45.48 38.0302 45.4 38.0502 45.33 38.0502Z" fill="black"></path><path fill-rule="evenodd" clip-rule="evenodd" d="M45.33 38.0502C45.18 38.0502 45.03 37.9702 44.94 37.8302C44.82 37.6202 44.89 37.3502 45.1 37.2202L47.62 35.7702C47.83 35.6502 48.1 35.7202 48.23 35.9302C48.35 36.1402 48.28 36.4102 48.07 36.5402L45.55 37.9902C45.48 38.0302 45.4 38.0502 45.33 38.0502Z" fill="url(#paint14_linear_1576_34482)"></path><path fill-rule="evenodd" clip-rule="evenodd" d="M47.84 35.79C47.76 35.79 47.69 35.77 47.62 35.73L45.1 34.28C44.89 34.16 44.81 33.89 44.94 33.67C45.06 33.46 45.34 33.38 45.55 33.51L48.07 34.96C48.28 35.08 48.36 35.36 48.23 35.57C48.15 35.71 48 35.79 47.84 35.79Z" fill="black"></path><path fill-rule="evenodd" clip-rule="evenodd" d="M47.84 35.79C47.76 35.79 47.69 35.77 47.62 35.73L45.1 34.28C44.89 34.16 44.81 33.89 44.94 33.67C45.06 33.46 45.34 33.38 45.55 33.51L48.07 34.96C48.28 35.08 48.36 35.36 48.23 35.57C48.15 35.71 48 35.79 47.84 35.79Z" fill="url(#paint15_linear_1576_34482)"></path></g><defs><linearGradient id="paint0_linear_1576_34482" x1="15.9381" y1="34.6295" x2="24.5779" y2="42.144" gradientUnits="userSpaceOnUse"><stop offset="0.236106" stop-color="#DA291C"></stop><stop offset="1" stop-color="#FFCD00"></stop></linearGradient><linearGradient id="paint1_linear_1576_34482" x1="16.8968" y1="35.5552" x2="19.4992" y2="37.8186" gradientUnits="userSpaceOnUse"><stop offset="0.236106" stop-color="#DA291C"></stop><stop offset="1" stop-color="#FFCD00"></stop></linearGradient><linearGradient id="paint2_linear_1576_34482" x1="17.1645" y1="33.1033" x2="18.7101" y2="33.4163" gradientUnits="userSpaceOnUse"><stop offset="0.236106" stop-color="#DA291C"></stop><stop offset="1" stop-color="#FFCD00"></stop></linearGradient><linearGradient id="paint3_linear_1576_34482" x1="18.6919" y1="34.4516" x2="21.0826" y2="37.481" gradientUnits="userSpaceOnUse"><stop offset="0.236106" stop-color="#DA291C"></stop><stop offset="1" stop-color="#FFCD00"></stop></linearGradient><linearGradient id="paint4_linear_1576_34482" x1="18.7003" y1="36.7085" x2="21.0952" y2="39.7453" gradientUnits="userSpaceOnUse"><stop offset="0.236106" stop-color="#DA291C"></stop><stop offset="1" stop-color="#FFCD00"></stop></linearGradient><linearGradient id="paint5_linear_1576_34482" x1="17.1645" y1="37.6132" x2="18.7101" y2="37.9262" gradientUnits="userSpaceOnUse"><stop offset="0.236106" stop-color="#DA291C"></stop><stop offset="1" stop-color="#FFCD00"></stop></linearGradient><linearGradient id="paint6_linear_1576_34482" x1="14.7918" y1="36.7116" x2="17.1825" y2="39.741" gradientUnits="userSpaceOnUse"><stop offset="0.236106" stop-color="#DA291C"></stop><stop offset="1" stop-color="#FFCD00"></stop></linearGradient><linearGradient id="paint7_linear_1576_34482" x1="14.7904" y1="34.4485" x2="17.1853" y2="37.4853" gradientUnits="userSpaceOnUse"><stop offset="0.236106" stop-color="#DA291C"></stop><stop offset="1" stop-color="#FFCD00"></stop></linearGradient><linearGradient id="paint8_linear_1576_34482" x1="47.168" y1="34.4396" x2="55.8079" y2="41.954" gradientUnits="userSpaceOnUse"><stop offset="0.236106" stop-color="#DA291C"></stop><stop offset="1" stop-color="#FFCD00"></stop></linearGradient><linearGradient id="paint9_linear_1576_34482" x1="48.1268" y1="35.3553" x2="50.7292" y2="37.6187" gradientUnits="userSpaceOnUse"><stop offset="0.236106" stop-color="#DA291C"></stop><stop offset="1" stop-color="#FFCD00"></stop></linearGradient><linearGradient id="paint10_linear_1576_34482" x1="48.3945" y1="32.9033" x2="49.9401" y2="33.2162" gradientUnits="userSpaceOnUse"><stop offset="0.236106" stop-color="#DA291C"></stop><stop offset="1" stop-color="#FFCD00"></stop></linearGradient><linearGradient id="paint11_linear_1576_34482" x1="49.9218" y1="34.2517" x2="52.3125" y2="37.2811" gradientUnits="userSpaceOnUse"><stop offset="0.236106" stop-color="#DA291C"></stop><stop offset="1" stop-color="#FFCD00"></stop></linearGradient><linearGradient id="paint12_linear_1576_34482" x1="49.9303" y1="36.5086" x2="52.3252" y2="39.5453" gradientUnits="userSpaceOnUse"><stop offset="0.236106" stop-color="#DA291C"></stop><stop offset="1" stop-color="#FFCD00"></stop></linearGradient><linearGradient id="paint13_linear_1576_34482" x1="48.3945" y1="37.4133" x2="49.9401" y2="37.7262" gradientUnits="userSpaceOnUse"><stop offset="0.236106" stop-color="#DA291C"></stop><stop offset="1" stop-color="#FFCD00"></stop></linearGradient><linearGradient id="paint14_linear_1576_34482" x1="46.0218" y1="36.5117" x2="48.4125" y2="39.5411" gradientUnits="userSpaceOnUse"><stop offset="0.236106" stop-color="#DA291C"></stop><stop offset="1" stop-color="#FFCD00"></stop></linearGradient><linearGradient id="paint15_linear_1576_34482" x1="46.0204" y1="34.2486" x2="48.4152" y2="37.2853" gradientUnits="userSpaceOnUse"><stop offset="0.236106" stop-color="#DA291C"></stop><stop offset="1" stop-color="#FFCD00"></stop></linearGradient><clipPath id="clip0_1576_34482"><rect width="50.72" height="18.1" fill="white" transform="translate(6 22)"></rect></clipPath></defs></svg> 