<?xml version="1.0" encoding="UTF-8"?> <svg xmlns="http://www.w3.org/2000/svg" width="64" height="64" viewBox="0 0 64 64" fill="none"><path d="M46.2749 45.233L17.5635 28.6615L46.2749 12.083" stroke="black" stroke-linecap="round" stroke-linejoin="round"></path><path d="M46.2749 49.4084L17.5635 32.8369" stroke="black" stroke-linecap="round" stroke-linejoin="round"></path><path d="M17.5635 32.8363L46.2749 16.2578" stroke="black" stroke-linecap="round" stroke-linejoin="round"></path><path d="M17.5634 37.4277C21.252 37.4277 24.2421 34.4376 24.2421 30.749C24.2421 27.0605 21.252 24.0703 17.5634 24.0703C13.8749 24.0703 10.8848 27.0605 10.8848 30.749C10.8848 34.4376 13.8749 37.4277 17.5634 37.4277Z" fill="white" stroke="white" stroke-linecap="round" stroke-linejoin="round"></path><path d="M17.5634 37.4277C21.252 37.4277 24.2421 34.4376 24.2421 30.749C24.2421 27.0605 21.252 24.0703 17.5634 24.0703C13.8749 24.0703 10.8848 27.0605 10.8848 30.749C10.8848 34.4376 13.8749 37.4277 17.5634 37.4277Z" stroke="black" stroke-linecap="round" stroke-linejoin="round"></path><path d="M17.5634 37.4277C21.252 37.4277 24.2421 34.4376 24.2421 30.749C24.2421 27.0605 21.252 24.0703 17.5634 24.0703C13.8749 24.0703 10.8848 27.0605 10.8848 30.749C10.8848 34.4376 13.8749 37.4277 17.5634 37.4277Z" stroke="url(#paint0_linear_497_11943)" stroke-linecap="round" stroke-linejoin="round"></path><path d="M46.2749 53.999C49.9634 53.999 52.9536 51.0089 52.9536 47.3203C52.9536 43.6318 49.9634 40.6416 46.2749 40.6416C42.5863 40.6416 39.5962 43.6318 39.5962 47.3203C39.5962 51.0089 42.5863 53.999 46.2749 53.999Z" fill="white" stroke="white" stroke-linecap="round" stroke-linejoin="round"></path><path d="M46.2749 53.999C49.9634 53.999 52.9536 51.0089 52.9536 47.3203C52.9536 43.6318 49.9634 40.6416 46.2749 40.6416C42.5863 40.6416 39.5962 43.6318 39.5962 47.3203C39.5962 51.0089 42.5863 53.999 46.2749 53.999Z" stroke="black" stroke-linecap="round" stroke-linejoin="round"></path><path d="M46.6435 20.8495C50.3321 20.8495 53.3222 17.8594 53.3222 14.1709C53.3222 10.4823 50.3321 7.49219 46.6435 7.49219C42.955 7.49219 39.9648 10.4823 39.9648 14.1709C39.9648 17.8594 42.955 20.8495 46.6435 20.8495Z" fill="white" stroke="white" stroke-linecap="round" stroke-linejoin="round"></path><path d="M46.6435 20.8495C50.3321 20.8495 53.3222 17.8594 53.3222 14.1709C53.3222 10.4823 50.3321 7.49219 46.6435 7.49219C42.955 7.49219 39.9648 10.4823 39.9648 14.1709C39.9648 17.8594 42.955 20.8495 46.6435 20.8495Z" stroke="black" stroke-linecap="round" stroke-linejoin="round"></path><path d="M21.1115 30.749C21.1115 32.7109 19.5253 34.2971 17.5635 34.2971" stroke="black" stroke-linecap="round" stroke-linejoin="round"></path><path d="M21.1115 30.749C21.1115 32.7109 19.5253 34.2971 17.5635 34.2971" stroke="url(#paint1_linear_497_11943)" stroke-linecap="round" stroke-linejoin="round"></path><path d="M49.823 47.3203C49.823 49.2822 48.2298 50.8683 46.2749 50.8683" stroke="black" stroke-linecap="round" stroke-linejoin="round"></path><path d="M50.1984 14.1709C50.1984 16.1328 48.6053 17.7189 46.6504 17.7189" stroke="black" stroke-linecap="round" stroke-linejoin="round"></path><defs><linearGradient id="paint0_linear_497_11943" x1="15.3555" y1="28.6399" x2="29.2598" y2="40.7331" gradientUnits="userSpaceOnUse"><stop offset="0.236106" stop-color="#DA291C"></stop><stop offset="1" stop-color="#FFCD00"></stop></linearGradient><linearGradient id="paint1_linear_497_11943" x1="18.751" y1="31.9628" x2="22.4443" y2="35.1751" gradientUnits="userSpaceOnUse"><stop offset="0.236106" stop-color="#DA291C"></stop><stop offset="1" stop-color="#FFCD00"></stop></linearGradient></defs></svg> 