<?xml version="1.0" encoding="UTF-8"?> <svg xmlns="http://www.w3.org/2000/svg" width="64" height="64" viewBox="0 0 64 64" fill="none"><mask id="path-1-inside-1_1593_32849" fill="white"><path d="M13.9167 31.2999C7.66713 36.901 4.71921 42.2662 6.54692 45.4499C7.37233 46.9239 9.08212 47.7493 11.6173 47.9262C11.8532 49.577 13.2682 50.8151 14.978 50.8151C16.8646 50.8151 18.3975 49.2822 18.3975 47.3955V47.2776C19.6946 46.9828 21.0507 46.6291 22.5246 46.1574C24.2934 54.5884 27.4771 59.5999 31.0736 59.5999C32.0758 59.5999 33.0192 59.2461 33.9625 58.4797C34.4342 58.7745 35.0238 58.8924 35.5544 58.8924C37.441 58.8924 38.974 57.3595 38.974 55.4728C38.974 55.237 38.974 55.0601 38.915 54.7653C38.7381 53.9399 38.3254 53.2914 37.6769 52.7607C38.4433 50.8741 39.1508 48.6337 39.6815 46.1574C41.3912 46.688 43.0421 47.1597 44.6339 47.4545C46.4027 47.8083 47.9946 47.9851 49.3506 47.9851C52.4754 47.9851 54.6568 47.1008 55.6002 45.4499C56.1308 44.5066 56.2487 43.4453 56.0129 42.1483C57.0152 41.5587 57.6637 40.4385 57.6637 39.2004C57.6637 37.3137 56.1308 35.7808 54.2441 35.7808C53.7135 35.7808 53.2418 35.8987 52.7702 36.1345C51.5321 34.5427 49.9991 32.9508 48.1714 31.2999C54.421 25.64 57.31 20.3337 55.4823 17.15C54.8337 16.0298 53.6546 15.2633 51.9448 14.9096C51.9448 14.7916 51.9448 14.6737 51.8858 14.5558C51.5321 12.9639 50.176 11.8437 48.5252 11.8437C46.6975 11.8437 45.2235 13.2587 45.1056 15.0864C43.3369 15.3812 41.4502 15.8529 39.5046 16.5014C37.8537 8.01145 34.67 3 31.0736 3C27.4181 3 24.2344 8.18832 22.4656 16.4425C20.3432 15.735 18.2796 15.2633 16.393 14.9685C16.275 13.1998 14.8011 11.8437 12.9734 11.8437C12.1059 11.8417 11.27 12.1694 10.6351 12.7605C10.0001 13.3517 9.61359 14.162 9.55379 15.0275C8.19775 15.3812 7.1365 16.1477 6.54692 17.15C5.13192 19.5673 6.48796 23.2816 10.3203 27.7035C11.3225 28.8827 12.5607 30.0618 13.9167 31.2999ZM7.54921 44.8603C6.0163 42.2662 9.02317 37.3137 14.7421 32.0664C16.6877 33.7762 18.8692 35.427 21.2275 36.9599C21.4044 39.7899 21.7582 42.4431 22.2298 44.9783C20.8148 45.4499 19.3998 45.8037 18.1027 46.0985C18.1027 46.0985 18.1027 46.0395 18.0438 46.0395C17.9848 45.9216 17.9259 45.7447 17.8669 45.6268C17.8079 45.5678 17.808 45.5089 17.749 45.4499C17.69 45.332 17.6311 45.273 17.5132 45.1551C17.4542 45.0962 17.3952 45.0372 17.3952 44.9783L17.1594 44.7424C17.1005 44.6835 17.0415 44.6245 16.9825 44.6245C16.8646 44.5655 16.8057 44.5066 16.6877 44.4476C16.6288 44.3887 16.5698 44.3887 16.5109 44.3297C16.393 44.2708 16.275 44.2118 16.2161 44.2118C16.1571 44.2118 16.0982 44.1528 16.0392 44.1528C15.9213 44.0939 15.8034 44.0939 15.6855 44.0349C15.6265 44.0349 15.5675 44.0349 15.5086 43.976C15.3317 43.917 15.1548 43.917 14.919 43.917C14.7421 43.917 14.5652 43.917 14.3884 43.976H14.2705C14.0936 44.0349 13.9757 44.0349 13.7988 44.0939C13.7398 44.0939 13.7398 44.0939 13.6809 44.1528C13.504 44.2118 13.3861 44.2708 13.2682 44.3297C13.2092 44.3297 13.2092 44.3887 13.1503 44.3887C13.0323 44.4476 12.8555 44.5655 12.7375 44.6835L12.6786 44.7424L12.3838 45.0372C12.3838 45.0962 12.3248 45.0962 12.3248 45.1551C12.2069 45.273 12.148 45.391 12.089 45.5089C12.03 45.5678 12.03 45.6268 11.9711 45.6268C11.9121 45.7447 11.8532 45.8626 11.7942 46.0395C11.7942 46.0985 11.7353 46.1574 11.7353 46.2164C11.6763 46.3343 11.6173 46.5112 11.6173 46.6291V46.688C10.0844 46.6291 8.31567 46.1574 7.54921 44.8603ZM38.7381 17.9754C39.1508 20.0979 39.4456 22.3973 39.6225 24.7556C38.4433 23.9891 37.2642 23.2816 36.026 22.5741C34.7879 21.8666 33.5498 21.2181 32.3706 20.5696C34.5521 19.5673 36.6746 18.6829 38.7381 17.9754ZM35.4954 23.6354C36.9694 24.4608 38.3844 25.3452 39.7404 26.2885C39.8583 27.9393 39.9173 29.6491 39.9173 31.2999C39.9173 33.0687 39.8583 34.7195 39.7404 36.3114C38.3844 37.1958 36.9694 38.1391 35.4954 38.9645C34.0215 39.7899 32.5475 40.6153 31.0736 41.3228C29.5996 40.6153 28.1256 39.7899 26.6517 38.9645C25.1777 38.1391 23.7627 37.2547 22.4067 36.3114C22.2888 34.6606 22.2298 32.9508 22.2298 31.2999C22.2298 29.5902 22.2888 27.8804 22.4067 26.2885C23.7627 25.4041 25.1777 24.4608 26.6517 23.6354C28.1256 22.81 29.5996 21.9845 31.0736 21.2771C32.5475 21.9845 34.0215 22.751 35.4954 23.6354ZM40.9785 27.1139C42.9242 28.47 44.8108 29.885 46.4027 31.2999C44.7519 32.7149 42.9242 34.1299 40.9785 35.486C41.0375 34.1299 41.0964 32.7149 41.0964 31.2999C41.0964 29.885 41.0375 28.47 40.9785 27.1139ZM39.6815 37.7854C39.5046 40.2026 39.1508 42.502 38.7971 44.6245C36.7335 43.917 34.611 43.0326 32.4296 42.0303C33.6677 41.3818 34.9058 40.7333 36.144 40.0258C37.3231 39.3183 38.5023 38.5518 39.6815 37.7854ZM23.35 44.6245C22.9963 42.502 22.6425 40.2026 22.4656 37.7854C23.6448 38.5518 24.824 39.2593 26.0621 39.9668C27.3002 40.6743 28.5383 41.3228 29.7175 41.9714C27.5361 43.0326 25.4136 43.917 23.35 44.6245ZM26.0621 22.5741C24.824 23.2816 23.6448 23.9891 22.4656 24.7556C22.6425 22.3383 22.9963 20.0389 23.35 17.9754C25.4136 18.6829 27.5361 19.5673 29.7175 20.5696C28.4794 21.2181 27.2413 21.8666 26.0621 22.5741ZM21.1096 35.486C19.164 34.1299 17.3363 32.7149 15.6855 31.2999C17.3363 29.885 19.164 28.47 21.1096 27.1139C21.0507 28.47 20.9917 29.885 20.9917 31.2999C20.9917 32.7149 21.0507 34.1299 21.1096 35.486ZM14.978 49.636C13.7398 49.636 12.7375 48.6337 12.7375 47.3955C12.7375 46.1574 13.7398 45.1551 14.978 45.1551C15.2727 45.1551 15.5675 45.2141 15.8034 45.332C16.4519 45.6268 16.9825 46.2164 17.1594 46.9239C17.1594 47.1008 17.2184 47.2187 17.2184 47.3955C17.2184 48.6337 16.2161 49.636 14.978 49.636ZM37.7948 55.4728C37.7948 56.7109 36.7925 57.7132 35.5544 57.7132C35.0827 57.7132 34.611 57.5364 34.2573 57.3005C33.6677 56.8878 33.3729 56.2393 33.3729 55.4728C33.3729 54.2347 34.3752 53.2324 35.6133 53.2324C35.9671 53.2324 36.3798 53.3503 36.6746 53.5272C37.2642 53.822 37.6769 54.3526 37.7948 55.0012V55.4728ZM36.6156 52.2301H36.5567C36.4387 52.1712 36.3208 52.1712 36.2029 52.1712H36.026C35.8492 52.1712 35.7313 52.1122 35.5544 52.1122C33.6677 52.1122 32.1348 53.6451 32.1348 55.5318C32.1348 55.7087 32.1348 55.8855 32.1938 56.0624V56.1803C32.2527 56.3572 32.2527 56.5341 32.3117 56.7109V56.7699C32.3706 56.9468 32.4296 57.0647 32.5475 57.2416C32.5475 57.3005 32.6065 57.3005 32.6065 57.3595C32.7244 57.5364 32.7833 57.6543 32.9013 57.7722C32.2527 58.2439 31.6042 58.4797 30.9556 58.4797C28.0077 58.4797 25.1188 53.5272 23.5269 45.8626C25.9442 45.0372 28.4204 43.976 30.9556 42.7378C33.4908 43.976 36.026 45.0372 38.3844 45.8626C38.0306 48.221 37.3821 50.4024 36.6156 52.2301ZM56.4845 39.2004C56.4845 40.0847 55.9539 40.9101 55.0696 41.2639C54.8337 41.3818 54.5389 41.4408 54.2441 41.4408C54.0673 41.4408 53.9493 41.4408 53.7725 41.3818C52.7702 41.146 52.0037 40.2616 52.0037 39.2004V38.9056C52.0627 38.257 52.4164 37.7264 52.9471 37.3726C53.3008 37.1368 53.7725 36.9599 54.1852 36.9599C55.4823 36.9599 56.4845 37.9622 56.4845 39.2004ZM51.8858 36.7831C51.8268 36.842 51.8268 36.842 51.8268 36.901L51.7089 37.0189C51.65 37.0779 51.591 37.1368 51.5321 37.2547L51.4731 37.3137C51.4141 37.4316 51.3552 37.5495 51.2962 37.6085C51.2962 37.6085 51.2962 37.6674 51.2373 37.6674C51.1783 37.7854 51.1783 37.8443 51.1193 37.9622C51.1193 38.0212 51.0604 38.0212 51.0604 38.0801C51.0604 38.1391 51.0014 38.257 51.0014 38.316C51.0014 38.3749 51.0014 38.3749 50.9425 38.4339C50.9425 38.4929 50.8835 38.6108 50.8835 38.6697V39.1414C50.8835 41.0281 52.4164 42.561 54.3031 42.561C54.5389 42.561 54.7158 42.561 54.8927 42.502C55.0106 43.3864 54.9516 44.1528 54.5389 44.8014C53.4187 46.747 49.8812 47.2776 44.8108 46.2753C43.2779 45.9805 41.6271 45.5089 39.8583 44.9783C40.33 42.502 40.6837 39.7899 40.8606 36.9599C43.2779 35.3681 45.4004 33.7172 47.2871 32.0664C49.1148 33.6583 50.6477 35.2501 51.8858 36.7831ZM54.5389 17.7396C56.0718 20.3337 53.065 25.3452 47.346 30.5335C45.4004 28.8827 43.2779 27.2318 40.9196 25.64C40.7427 22.8689 40.389 20.1568 39.9173 17.6216C41.8629 16.9731 43.6906 16.5014 45.4004 16.2066V16.2656C45.4594 16.4425 45.5183 16.5604 45.5773 16.7373C45.6362 16.7962 45.6362 16.8552 45.6952 16.9141C45.7541 17.0321 45.8131 17.15 45.8721 17.2089C45.931 17.2679 45.99 17.3268 45.99 17.3858C46.0489 17.5037 46.1669 17.5627 46.2258 17.6216L46.4027 17.7985C46.5206 17.8575 46.5796 17.9164 46.6975 17.9754C46.7564 18.0343 46.8154 18.0343 46.8744 18.0933C46.9923 18.1523 47.1102 18.2112 47.1691 18.2702C47.2281 18.3291 47.2871 18.3291 47.405 18.3881C47.5229 18.4471 47.6408 18.4471 47.7587 18.506C47.8177 18.506 47.8766 18.565 47.9356 18.565C48.1125 18.6239 48.3483 18.6239 48.5252 18.6239C48.761 18.6239 48.9379 18.6239 49.1737 18.565C49.2327 18.565 49.2916 18.506 49.3506 18.506C49.4685 18.4471 49.5864 18.4471 49.7633 18.3881C49.8223 18.3881 49.9402 18.3291 49.9991 18.2702C50.1171 18.2112 50.235 18.1523 50.2939 18.0933C50.3529 18.0343 50.4708 17.9754 50.5298 17.9164C50.5887 17.8575 50.7066 17.7985 50.7656 17.7396C50.8246 17.6806 50.9425 17.6216 51.0014 17.5627L51.1783 17.3858C51.2373 17.3268 51.2962 17.2089 51.3552 17.15C51.4141 17.091 51.4141 17.0321 51.4731 16.9731C51.5321 16.8552 51.591 16.7373 51.65 16.6783C51.65 16.6194 51.7089 16.5604 51.7089 16.5014C51.7679 16.3835 51.8268 16.2656 51.8268 16.1477C53.1829 16.3835 54.0673 16.9141 54.5389 17.7396ZM48.6431 12.9639C49.7044 12.9639 50.5887 13.7304 50.8246 14.7327C50.8835 14.9096 50.8835 15.0864 50.8835 15.2044V15.3223C50.8246 16.5014 49.8223 17.4448 48.6431 17.4448C48.5252 17.4448 48.3483 17.4448 48.2304 17.3858C47.2871 17.2089 46.5206 16.4425 46.4616 15.4402V15.2044C46.4027 13.9662 47.405 12.9639 48.6431 12.9639ZM31.0736 4.17916C33.9625 4.17916 36.9104 9.1317 38.5023 16.7962C36.085 17.6216 33.5498 18.6829 31.0736 19.921C28.5383 18.6829 26.0031 17.6216 23.6448 16.7962C25.2367 9.2496 28.0077 4.17916 31.0736 4.17916ZM13.0323 12.9639C14.2705 12.9639 15.2727 13.9662 15.2727 15.2044V15.3812C15.1548 16.5014 14.2115 17.4448 13.0323 17.4448C12.9144 17.4448 12.7375 17.4448 12.6196 17.3858C11.6763 17.2089 10.9098 16.3835 10.7919 15.3812V15.2044C10.7919 13.9662 11.7942 12.9639 13.0323 12.9639ZM7.54921 17.7396C7.96192 17.0321 8.66942 16.5014 9.73069 16.2066C9.78959 16.3835 9.84859 16.5604 9.96649 16.7373C9.96649 16.7962 10.0255 16.8552 10.0255 16.8552C10.0844 16.9731 10.1434 17.091 10.2613 17.2089C10.3203 17.2679 10.3792 17.3268 10.3792 17.3858C10.4382 17.5037 10.5561 17.5627 10.615 17.6806L10.7919 17.8575C10.9098 17.9164 10.9688 18.0343 11.0867 18.0933C11.1457 18.1523 11.2046 18.1523 11.2636 18.2112C11.3815 18.2702 11.4994 18.3291 11.5584 18.3881C11.6173 18.4471 11.6763 18.4471 11.7942 18.506C11.9121 18.565 12.03 18.565 12.2069 18.6239C12.2659 18.6239 12.3248 18.6829 12.3838 18.6829C12.5607 18.7418 12.7965 18.7418 12.9734 18.7418C13.2092 18.7418 13.3861 18.7418 13.563 18.6829C13.6219 18.6829 13.6809 18.6239 13.7398 18.6239C13.8577 18.565 13.9757 18.565 14.0936 18.506C14.1525 18.506 14.2115 18.4471 14.3294 18.3881C14.4473 18.3291 14.5652 18.2702 14.6242 18.2112C14.6832 18.1523 14.7421 18.0933 14.86 18.0933C14.919 18.0343 15.0369 17.9754 15.0959 17.9164L15.2727 17.7396C15.3317 17.6806 15.3907 17.6216 15.4496 17.5037C15.5086 17.4448 15.5675 17.3858 15.6265 17.2679C15.6855 17.2089 15.7444 17.091 15.8034 17.0321C15.8623 16.9731 15.9213 16.8552 15.9802 16.7962C16.0392 16.6783 16.0392 16.6194 16.0982 16.5014C16.1571 16.4425 16.1571 16.3246 16.2161 16.2656C18.0438 16.5604 20.0484 17.091 22.1709 17.7396C21.6992 20.2158 21.3454 22.8689 21.1686 25.7579C18.7513 27.3497 16.6288 29.0006 14.7421 30.6514C13.3861 29.4722 12.2069 28.2341 11.1457 27.055C7.78504 22.9868 6.48796 19.6852 7.54921 17.7396Z"></path></mask><path d="M13.9167 31.2999C7.66713 36.901 4.71921 42.2662 6.54692 45.4499C7.37233 46.9239 9.08212 47.7493 11.6173 47.9262C11.8532 49.577 13.2682 50.8151 14.978 50.8151C16.8646 50.8151 18.3975 49.2822 18.3975 47.3955V47.2776C19.6946 46.9828 21.0507 46.6291 22.5246 46.1574C24.2934 54.5884 27.4771 59.5999 31.0736 59.5999C32.0758 59.5999 33.0192 59.2461 33.9625 58.4797C34.4342 58.7745 35.0238 58.8924 35.5544 58.8924C37.441 58.8924 38.974 57.3595 38.974 55.4728C38.974 55.237 38.974 55.0601 38.915 54.7653C38.7381 53.9399 38.3254 53.2914 37.6769 52.7607C38.4433 50.8741 39.1508 48.6337 39.6815 46.1574C41.3912 46.688 43.0421 47.1597 44.6339 47.4545C46.4027 47.8083 47.9946 47.9851 49.3506 47.9851C52.4754 47.9851 54.6568 47.1008 55.6002 45.4499C56.1308 44.5066 56.2487 43.4453 56.0129 42.1483C57.0152 41.5587 57.6637 40.4385 57.6637 39.2004C57.6637 37.3137 56.1308 35.7808 54.2441 35.7808C53.7135 35.7808 53.2418 35.8987 52.7702 36.1345C51.5321 34.5427 49.9991 32.9508 48.1714 31.2999C54.421 25.64 57.31 20.3337 55.4823 17.15C54.8337 16.0298 53.6546 15.2633 51.9448 14.9096C51.9448 14.7916 51.9448 14.6737 51.8858 14.5558C51.5321 12.9639 50.176 11.8437 48.5252 11.8437C46.6975 11.8437 45.2235 13.2587 45.1056 15.0864C43.3369 15.3812 41.4502 15.8529 39.5046 16.5014C37.8537 8.01145 34.67 3 31.0736 3C27.4181 3 24.2344 8.18832 22.4656 16.4425C20.3432 15.735 18.2796 15.2633 16.393 14.9685C16.275 13.1998 14.8011 11.8437 12.9734 11.8437C12.1059 11.8417 11.27 12.1694 10.6351 12.7605C10.0001 13.3517 9.61359 14.162 9.55379 15.0275C8.19775 15.3812 7.1365 16.1477 6.54692 17.15C5.13192 19.5673 6.48796 23.2816 10.3203 27.7035C11.3225 28.8827 12.5607 30.0618 13.9167 31.2999ZM7.54921 44.8603C6.0163 42.2662 9.02317 37.3137 14.7421 32.0664C16.6877 33.7762 18.8692 35.427 21.2275 36.9599C21.4044 39.7899 21.7582 42.4431 22.2298 44.9783C20.8148 45.4499 19.3998 45.8037 18.1027 46.0985C18.1027 46.0985 18.1027 46.0395 18.0438 46.0395C17.9848 45.9216 17.9259 45.7447 17.8669 45.6268C17.8079 45.5678 17.808 45.5089 17.749 45.4499C17.69 45.332 17.6311 45.273 17.5132 45.1551C17.4542 45.0962 17.3952 45.0372 17.3952 44.9783L17.1594 44.7424C17.1005 44.6835 17.0415 44.6245 16.9825 44.6245C16.8646 44.5655 16.8057 44.5066 16.6877 44.4476C16.6288 44.3887 16.5698 44.3887 16.5109 44.3297C16.393 44.2708 16.275 44.2118 16.2161 44.2118C16.1571 44.2118 16.0982 44.1528 16.0392 44.1528C15.9213 44.0939 15.8034 44.0939 15.6855 44.0349C15.6265 44.0349 15.5675 44.0349 15.5086 43.976C15.3317 43.917 15.1548 43.917 14.919 43.917C14.7421 43.917 14.5652 43.917 14.3884 43.976H14.2705C14.0936 44.0349 13.9757 44.0349 13.7988 44.0939C13.7398 44.0939 13.7398 44.0939 13.6809 44.1528C13.504 44.2118 13.3861 44.2708 13.2682 44.3297C13.2092 44.3297 13.2092 44.3887 13.1503 44.3887C13.0323 44.4476 12.8555 44.5655 12.7375 44.6835L12.6786 44.7424L12.3838 45.0372C12.3838 45.0962 12.3248 45.0962 12.3248 45.1551C12.2069 45.273 12.148 45.391 12.089 45.5089C12.03 45.5678 12.03 45.6268 11.9711 45.6268C11.9121 45.7447 11.8532 45.8626 11.7942 46.0395C11.7942 46.0985 11.7353 46.1574 11.7353 46.2164C11.6763 46.3343 11.6173 46.5112 11.6173 46.6291V46.688C10.0844 46.6291 8.31567 46.1574 7.54921 44.8603ZM38.7381 17.9754C39.1508 20.0979 39.4456 22.3973 39.6225 24.7556C38.4433 23.9891 37.2642 23.2816 36.026 22.5741C34.7879 21.8666 33.5498 21.2181 32.3706 20.5696C34.5521 19.5673 36.6746 18.6829 38.7381 17.9754ZM35.4954 23.6354C36.9694 24.4608 38.3844 25.3452 39.7404 26.2885C39.8583 27.9393 39.9173 29.6491 39.9173 31.2999C39.9173 33.0687 39.8583 34.7195 39.7404 36.3114C38.3844 37.1958 36.9694 38.1391 35.4954 38.9645C34.0215 39.7899 32.5475 40.6153 31.0736 41.3228C29.5996 40.6153 28.1256 39.7899 26.6517 38.9645C25.1777 38.1391 23.7627 37.2547 22.4067 36.3114C22.2888 34.6606 22.2298 32.9508 22.2298 31.2999C22.2298 29.5902 22.2888 27.8804 22.4067 26.2885C23.7627 25.4041 25.1777 24.4608 26.6517 23.6354C28.1256 22.81 29.5996 21.9845 31.0736 21.2771C32.5475 21.9845 34.0215 22.751 35.4954 23.6354ZM40.9785 27.1139C42.9242 28.47 44.8108 29.885 46.4027 31.2999C44.7519 32.7149 42.9242 34.1299 40.9785 35.486C41.0375 34.1299 41.0964 32.7149 41.0964 31.2999C41.0964 29.885 41.0375 28.47 40.9785 27.1139ZM39.6815 37.7854C39.5046 40.2026 39.1508 42.502 38.7971 44.6245C36.7335 43.917 34.611 43.0326 32.4296 42.0303C33.6677 41.3818 34.9058 40.7333 36.144 40.0258C37.3231 39.3183 38.5023 38.5518 39.6815 37.7854ZM23.35 44.6245C22.9963 42.502 22.6425 40.2026 22.4656 37.7854C23.6448 38.5518 24.824 39.2593 26.0621 39.9668C27.3002 40.6743 28.5383 41.3228 29.7175 41.9714C27.5361 43.0326 25.4136 43.917 23.35 44.6245ZM26.0621 22.5741C24.824 23.2816 23.6448 23.9891 22.4656 24.7556C22.6425 22.3383 22.9963 20.0389 23.35 17.9754C25.4136 18.6829 27.5361 19.5673 29.7175 20.5696C28.4794 21.2181 27.2413 21.8666 26.0621 22.5741ZM21.1096 35.486C19.164 34.1299 17.3363 32.7149 15.6855 31.2999C17.3363 29.885 19.164 28.47 21.1096 27.1139C21.0507 28.47 20.9917 29.885 20.9917 31.2999C20.9917 32.7149 21.0507 34.1299 21.1096 35.486ZM14.978 49.636C13.7398 49.636 12.7375 48.6337 12.7375 47.3955C12.7375 46.1574 13.7398 45.1551 14.978 45.1551C15.2727 45.1551 15.5675 45.2141 15.8034 45.332C16.4519 45.6268 16.9825 46.2164 17.1594 46.9239C17.1594 47.1008 17.2184 47.2187 17.2184 47.3955C17.2184 48.6337 16.2161 49.636 14.978 49.636ZM37.7948 55.4728C37.7948 56.7109 36.7925 57.7132 35.5544 57.7132C35.0827 57.7132 34.611 57.5364 34.2573 57.3005C33.6677 56.8878 33.3729 56.2393 33.3729 55.4728C33.3729 54.2347 34.3752 53.2324 35.6133 53.2324C35.9671 53.2324 36.3798 53.3503 36.6746 53.5272C37.2642 53.822 37.6769 54.3526 37.7948 55.0012V55.4728ZM36.6156 52.2301H36.5567C36.4387 52.1712 36.3208 52.1712 36.2029 52.1712H36.026C35.8492 52.1712 35.7313 52.1122 35.5544 52.1122C33.6677 52.1122 32.1348 53.6451 32.1348 55.5318C32.1348 55.7087 32.1348 55.8855 32.1938 56.0624V56.1803C32.2527 56.3572 32.2527 56.5341 32.3117 56.7109V56.7699C32.3706 56.9468 32.4296 57.0647 32.5475 57.2416C32.5475 57.3005 32.6065 57.3005 32.6065 57.3595C32.7244 57.5364 32.7833 57.6543 32.9013 57.7722C32.2527 58.2439 31.6042 58.4797 30.9556 58.4797C28.0077 58.4797 25.1188 53.5272 23.5269 45.8626C25.9442 45.0372 28.4204 43.976 30.9556 42.7378C33.4908 43.976 36.026 45.0372 38.3844 45.8626C38.0306 48.221 37.3821 50.4024 36.6156 52.2301ZM56.4845 39.2004C56.4845 40.0847 55.9539 40.9101 55.0696 41.2639C54.8337 41.3818 54.5389 41.4408 54.2441 41.4408C54.0673 41.4408 53.9493 41.4408 53.7725 41.3818C52.7702 41.146 52.0037 40.2616 52.0037 39.2004V38.9056C52.0627 38.257 52.4164 37.7264 52.9471 37.3726C53.3008 37.1368 53.7725 36.9599 54.1852 36.9599C55.4823 36.9599 56.4845 37.9622 56.4845 39.2004ZM51.8858 36.7831C51.8268 36.842 51.8268 36.842 51.8268 36.901L51.7089 37.0189C51.65 37.0779 51.591 37.1368 51.5321 37.2547L51.4731 37.3137C51.4141 37.4316 51.3552 37.5495 51.2962 37.6085C51.2962 37.6085 51.2962 37.6674 51.2373 37.6674C51.1783 37.7854 51.1783 37.8443 51.1193 37.9622C51.1193 38.0212 51.0604 38.0212 51.0604 38.0801C51.0604 38.1391 51.0014 38.257 51.0014 38.316C51.0014 38.3749 51.0014 38.3749 50.9425 38.4339C50.9425 38.4929 50.8835 38.6108 50.8835 38.6697V39.1414C50.8835 41.0281 52.4164 42.561 54.3031 42.561C54.5389 42.561 54.7158 42.561 54.8927 42.502C55.0106 43.3864 54.9516 44.1528 54.5389 44.8014C53.4187 46.747 49.8812 47.2776 44.8108 46.2753C43.2779 45.9805 41.6271 45.5089 39.8583 44.9783C40.33 42.502 40.6837 39.7899 40.8606 36.9599C43.2779 35.3681 45.4004 33.7172 47.2871 32.0664C49.1148 33.6583 50.6477 35.2501 51.8858 36.7831ZM54.5389 17.7396C56.0718 20.3337 53.065 25.3452 47.346 30.5335C45.4004 28.8827 43.2779 27.2318 40.9196 25.64C40.7427 22.8689 40.389 20.1568 39.9173 17.6216C41.8629 16.9731 43.6906 16.5014 45.4004 16.2066V16.2656C45.4594 16.4425 45.5183 16.5604 45.5773 16.7373C45.6362 16.7962 45.6362 16.8552 45.6952 16.9141C45.7541 17.0321 45.8131 17.15 45.8721 17.2089C45.931 17.2679 45.99 17.3268 45.99 17.3858C46.0489 17.5037 46.1669 17.5627 46.2258 17.6216L46.4027 17.7985C46.5206 17.8575 46.5796 17.9164 46.6975 17.9754C46.7564 18.0343 46.8154 18.0343 46.8744 18.0933C46.9923 18.1523 47.1102 18.2112 47.1691 18.2702C47.2281 18.3291 47.2871 18.3291 47.405 18.3881C47.5229 18.4471 47.6408 18.4471 47.7587 18.506C47.8177 18.506 47.8766 18.565 47.9356 18.565C48.1125 18.6239 48.3483 18.6239 48.5252 18.6239C48.761 18.6239 48.9379 18.6239 49.1737 18.565C49.2327 18.565 49.2916 18.506 49.3506 18.506C49.4685 18.4471 49.5864 18.4471 49.7633 18.3881C49.8223 18.3881 49.9402 18.3291 49.9991 18.2702C50.1171 18.2112 50.235 18.1523 50.2939 18.0933C50.3529 18.0343 50.4708 17.9754 50.5298 17.9164C50.5887 17.8575 50.7066 17.7985 50.7656 17.7396C50.8246 17.6806 50.9425 17.6216 51.0014 17.5627L51.1783 17.3858C51.2373 17.3268 51.2962 17.2089 51.3552 17.15C51.4141 17.091 51.4141 17.0321 51.4731 16.9731C51.5321 16.8552 51.591 16.7373 51.65 16.6783C51.65 16.6194 51.7089 16.5604 51.7089 16.5014C51.7679 16.3835 51.8268 16.2656 51.8268 16.1477C53.1829 16.3835 54.0673 16.9141 54.5389 17.7396ZM48.6431 12.9639C49.7044 12.9639 50.5887 13.7304 50.8246 14.7327C50.8835 14.9096 50.8835 15.0864 50.8835 15.2044V15.3223C50.8246 16.5014 49.8223 17.4448 48.6431 17.4448C48.5252 17.4448 48.3483 17.4448 48.2304 17.3858C47.2871 17.2089 46.5206 16.4425 46.4616 15.4402V15.2044C46.4027 13.9662 47.405 12.9639 48.6431 12.9639ZM31.0736 4.17916C33.9625 4.17916 36.9104 9.1317 38.5023 16.7962C36.085 17.6216 33.5498 18.6829 31.0736 19.921C28.5383 18.6829 26.0031 17.6216 23.6448 16.7962C25.2367 9.2496 28.0077 4.17916 31.0736 4.17916ZM13.0323 12.9639C14.2705 12.9639 15.2727 13.9662 15.2727 15.2044V15.3812C15.1548 16.5014 14.2115 17.4448 13.0323 17.4448C12.9144 17.4448 12.7375 17.4448 12.6196 17.3858C11.6763 17.2089 10.9098 16.3835 10.7919 15.3812V15.2044C10.7919 13.9662 11.7942 12.9639 13.0323 12.9639ZM7.54921 17.7396C7.96192 17.0321 8.66942 16.5014 9.73069 16.2066C9.78959 16.3835 9.84859 16.5604 9.96649 16.7373C9.96649 16.7962 10.0255 16.8552 10.0255 16.8552C10.0844 16.9731 10.1434 17.091 10.2613 17.2089C10.3203 17.2679 10.3792 17.3268 10.3792 17.3858C10.4382 17.5037 10.5561 17.5627 10.615 17.6806L10.7919 17.8575C10.9098 17.9164 10.9688 18.0343 11.0867 18.0933C11.1457 18.1523 11.2046 18.1523 11.2636 18.2112C11.3815 18.2702 11.4994 18.3291 11.5584 18.3881C11.6173 18.4471 11.6763 18.4471 11.7942 18.506C11.9121 18.565 12.03 18.565 12.2069 18.6239C12.2659 18.6239 12.3248 18.6829 12.3838 18.6829C12.5607 18.7418 12.7965 18.7418 12.9734 18.7418C13.2092 18.7418 13.3861 18.7418 13.563 18.6829C13.6219 18.6829 13.6809 18.6239 13.7398 18.6239C13.8577 18.565 13.9757 18.565 14.0936 18.506C14.1525 18.506 14.2115 18.4471 14.3294 18.3881C14.4473 18.3291 14.5652 18.2702 14.6242 18.2112C14.6832 18.1523 14.7421 18.0933 14.86 18.0933C14.919 18.0343 15.0369 17.9754 15.0959 17.9164L15.2727 17.7396C15.3317 17.6806 15.3907 17.6216 15.4496 17.5037C15.5086 17.4448 15.5675 17.3858 15.6265 17.2679C15.6855 17.2089 15.7444 17.091 15.8034 17.0321C15.8623 16.9731 15.9213 16.8552 15.9802 16.7962C16.0392 16.6783 16.0392 16.6194 16.0982 16.5014C16.1571 16.4425 16.1571 16.3246 16.2161 16.2656C18.0438 16.5604 20.0484 17.091 22.1709 17.7396C21.6992 20.2158 21.3454 22.8689 21.1686 25.7579C18.7513 27.3497 16.6288 29.0006 14.7421 30.6514C13.3861 29.4722 12.2069 28.2341 11.1457 27.055C7.78504 22.9868 6.48796 19.6852 7.54921 17.7396Z" fill="black" stroke="white" stroke-width="2" mask="url(#path-1-inside-1_1593_32849)"></path><path d="M31.6822 35.372C33.9815 35.372 35.8682 33.4854 35.8682 31.186C35.8682 28.8866 33.9815 27 31.6822 27C29.3828 27 27.4961 28.8866 27.4961 31.186C27.4961 33.4854 29.3828 35.372 31.6822 35.372ZM31.6822 28.1791C33.333 28.1791 34.689 29.5352 34.689 31.186C34.689 32.8368 33.333 34.1929 31.6822 34.1929C30.0313 34.1929 28.6753 32.8368 28.6753 31.186C28.6753 29.5352 30.0313 28.1791 31.6822 28.1791Z" fill="url(#paint0_linear_1593_32849)"></path><defs><linearGradient id="paint0_linear_1593_32849" x1="30.2983" y1="29.8641" x2="39.0132" y2="37.4438" gradientUnits="userSpaceOnUse"><stop offset="0.236106" stop-color="#DA291C"></stop><stop offset="1" stop-color="#FFCD00"></stop></linearGradient></defs></svg> 