<?xml version="1.0" encoding="UTF-8"?> <svg xmlns="http://www.w3.org/2000/svg" width="64" height="64" viewBox="0 0 64 64" fill="none"><path d="M39.2 18.0001H24.5C24.3 18.0001 24.2 17.9001 24.1 17.7001L22.7 13.0001C22.6 12.8001 22.7 12.6001 22.9 12.6001C24.2 12.0001 27.1 10.8001 28.8 10.4001C29 8.9001 30.3 7.6001 31.9 7.6001H32C33.6 7.6001 34.9 8.8001 35.1 10.4001C36.7 10.8001 39.7 12.0001 41 12.6001C41.2 12.7001 41.3 12.9001 41.2 13.0001L39.8 17.7001C39.5 17.9001 39.4 18.0001 39.2 18.0001ZM24.8 17.3001H39L40.3 13.2001C38.7 12.5001 35.9 11.4001 34.6 11.1001C34.4 11.1001 34.3 10.9001 34.3 10.7001C34.3 9.4001 33.3 8.4001 32 8.4001H31.9C30.6 8.4001 29.6 9.4001 29.6 10.7001C29.6 10.9001 29.5 11.0001 29.3 11.1001C28 11.4001 25.3 12.4001 23.6 13.2001L24.8 17.3001Z" fill="black"></path><path d="M31.8999 12.3003C31.0999 12.3003 30.3999 11.6003 30.3999 10.8003C30.3999 10.0003 31.0999 9.30029 31.8999 9.30029C32.6999 9.30029 33.3999 10.0003 33.3999 10.8003C33.3999 11.6003 32.6999 12.3003 31.8999 12.3003ZM31.8999 10.1003C31.4999 10.1003 31.1999 10.4003 31.1999 10.8003C31.1999 11.2003 31.4999 11.5003 31.8999 11.5003C32.2999 11.5003 32.5999 11.2003 32.5999 10.8003C32.5999 10.4003 32.2999 10.1003 31.8999 10.1003Z" fill="black"></path><path d="M41.0999 54.1001H16.2999C16.0999 54.1001 15.8999 53.9001 15.8999 53.7001V16.5001C15.8999 16.3001 16.0999 16.1001 16.2999 16.1001H24.1999C24.3999 16.1001 24.5999 16.3001 24.5999 16.5001C24.5999 16.7001 24.3999 16.9001 24.1999 16.9001H16.6999V53.3001H40.9999L47.0999 47.2001V16.9001H39.5999C39.3999 16.9001 39.1999 16.7001 39.1999 16.5001C39.1999 16.3001 39.3999 16.1001 39.5999 16.1001H47.4999C47.6999 16.1001 47.8999 16.3001 47.8999 16.5001V47.4001C47.8999 47.5001 47.8999 47.6001 47.7999 47.7001L41.3999 54.0001C41.2999 54.1001 41.1999 54.1001 41.0999 54.1001Z" fill="black"></path><path d="M41.0999 54.1001H40.9999C40.8999 54.0001 40.7999 53.9001 40.7999 53.8001V47.5001C40.7999 47.3001 40.9999 47.1001 41.1999 47.1001H47.4999C47.6999 47.1001 47.7999 47.2001 47.7999 47.3001C47.8999 47.4001 47.7999 47.6001 47.6999 47.7001L41.3999 54.0001C41.2999 54.1001 41.1999 54.1001 41.0999 54.1001ZM41.4999 47.8001V52.8001L46.4999 47.8001H41.4999Z" fill="black"></path><path d="M44.4316 23H18.5684C18.2842 23 18 22.75 18 22.5C18 22.25 18.2842 22 18.5684 22H44.4316C44.7158 22 45 22.25 45 22.5C45 22.75 44.7158 23 44.4316 23Z" fill="black"></path><path d="M44.4316 27H18.5684C18.2842 27 18 26.75 18 26.5C18 26.25 18.2842 26 18.5684 26H44.4316C44.7158 26 45 26.25 45 26.5C45 26.75 44.7158 27 44.4316 27Z" fill="black"></path><path d="M44.4316 32H18.5684C18.2842 32 18 31.75 18 31.5C18 31.25 18.2842 31 18.5684 31H44.4316C44.7158 31 45 31.25 45 31.5C45 31.75 44.7158 32 44.4316 32Z" fill="black"></path><path d="M44.7263 37H32.2737C32.1368 37 32 36.75 32 36.5C32 36.25 32.1368 36 32.2737 36H44.7263C44.8632 36 45 36.25 45 36.5C45 36.75 44.8632 37 44.7263 37Z" fill="black"></path><path d="M44.7263 42H32.2737C32.1368 42 32 41.75 32 41.5C32 41.25 32.1368 41 32.2737 41H44.7263C44.8632 41 45 41.25 45 41.5C45 41.75 44.8632 42 44.7263 42Z" fill="black"></path><path d="M23.0444 49.8068V38.5568H24.9535V49.8068H23.0444ZM18.3739 45.1364V43.2273H29.6239V45.1364H18.3739Z" fill="black"></path><path d="M23.0444 49.8068V38.5568H24.9535V49.8068H23.0444ZM18.3739 45.1364V43.2273H29.6239V45.1364H18.3739Z" fill="url(#paint0_linear_1576_34381)"></path><defs><linearGradient id="paint0_linear_1576_34381" x1="21.3552" y1="39.1579" x2="39.6654" y2="53.3136" gradientUnits="userSpaceOnUse"><stop offset="0.236106" stop-color="#DA291C"></stop><stop offset="1" stop-color="#FFCD00"></stop></linearGradient></defs></svg> 