<?xml version="1.0" encoding="UTF-8"?> <svg xmlns="http://www.w3.org/2000/svg" width="64" height="64" viewBox="0 0 64 64" fill="none"><path d="M50.0894 54.8986L50.0894 9.39165C50.0894 8.62306 49.4677 8 48.7007 8L15.5891 8C14.8221 8 14.2003 8.62306 14.2003 9.39165L14.2003 54.8986C14.2003 55.6672 14.8221 56.2903 15.5891 56.2903L48.7007 56.2903C49.4677 56.2903 50.0894 55.6672 50.0894 54.8986Z" stroke="#253130" stroke-linejoin="round"></path><path d="M14.2204 43.5667L49.7524 43.5666" stroke="#253130" stroke-miterlimit="10"></path><path d="M43.3046 50.0479L45.348 50.0479" stroke="#253130" stroke-miterlimit="10"></path><path d="M39.2376 50.0479L41.281 50.0479" stroke="#253130" stroke-miterlimit="10"></path><path d="M23.0489 50.0479L25.0924 50.0479" stroke="#253130" stroke-miterlimit="10"></path><path d="M18.962 50.0479L21.0054 50.0479" stroke="#253130" stroke-miterlimit="10"></path><path d="M32.1549 47.7415C33.4246 47.7415 34.4761 48.7753 34.4761 50.0675C34.4761 51.3598 33.4445 52.3936 32.1549 52.3936C30.8654 52.3936 29.8337 51.3598 29.8337 50.0675C29.8337 48.7753 30.8654 47.7415 32.1549 47.7415Z" stroke="#253130" stroke-miterlimit="10"></path><path d="M41.6704 36.8136L44 30.7327L38.2084 17.8499H35.1023L29.3214 30.7327L31.6834 36.8136" stroke="black" stroke-miterlimit="10"></path><path d="M41.6704 36.8136L44 30.7327L38.2084 17.8499H35.1023L29.3214 30.7327L31.6834 36.8136" stroke="url(#paint0_linear_1533_32989)" stroke-miterlimit="10"></path><path d="M38.6182 30.7327C38.6182 31.809 37.7446 32.6807 36.6661 32.6807C35.5876 32.6807 34.714 31.809 34.714 30.7327C34.714 29.6564 35.5876 28.7847 36.6661 28.7847C37.7446 28.7847 38.6182 29.6564 38.6182 30.7327Z" stroke="black" stroke-miterlimit="10"></path><path d="M38.6182 30.7327C38.6182 31.809 37.7446 32.6807 36.6661 32.6807C35.5876 32.6807 34.714 31.809 34.714 30.7327C34.714 29.6564 35.5876 28.7847 36.6661 28.7847C37.7446 28.7847 38.6182 29.6564 38.6182 30.7327Z" stroke="url(#paint1_linear_1533_32989)" stroke-miterlimit="10"></path><path d="M36.6661 28.7847V17.8499" stroke="black" stroke-miterlimit="10"></path><path d="M36.6661 28.7847V17.8499" stroke="url(#paint2_linear_1533_32989)" stroke-miterlimit="10"></path><path d="M42.1018 38.783H31.2196C30.6803 38.783 30.2489 38.3525 30.2489 37.8143C30.2489 37.2762 30.6803 36.8457 31.2196 36.8457H42.1018C42.6411 36.8457 43.0725 37.2762 43.0725 37.8143C43.0725 38.3525 42.6411 38.783 42.1018 38.783Z" stroke="black" stroke-miterlimit="10"></path><path d="M42.1018 38.783H31.2196C30.6803 38.783 30.2489 38.3525 30.2489 37.8143C30.2489 37.2762 30.6803 36.8457 31.2196 36.8457H42.1018C42.6411 36.8457 43.0725 37.2762 43.0725 37.8143C43.0725 38.3525 42.6411 38.783 42.1018 38.783Z" stroke="url(#paint3_linear_1533_32989)" stroke-miterlimit="10"></path><path d="M41.6812 38.697V43.6478" stroke="black" stroke-miterlimit="10"></path><path d="M41.6812 38.697V43.6478" stroke="url(#paint4_linear_1533_32989)" stroke-miterlimit="10"></path><path d="M31.7265 38.697V43.6478" stroke="black" stroke-miterlimit="10"></path><path d="M31.7265 38.697V43.6478" stroke="url(#paint5_linear_1533_32989)" stroke-miterlimit="10"></path><path d="M26.2045 43.6481L26.5604 29.3876L23.7131 19.303H22.1277L19 29.3876L19.4314 43.6481" stroke="url(#paint6_linear_1533_32989)" stroke-miterlimit="10"></path><path d="M26.5604 29.3875H19" stroke="url(#paint7_linear_1533_32989)" stroke-miterlimit="10"></path><path d="M26.5604 32.4333H19" stroke="url(#paint8_linear_1533_32989)" stroke-miterlimit="10"></path><path d="M22.8827 19.3029V17.2903" stroke="#171D24" stroke-miterlimit="10"></path><defs><linearGradient id="paint0_linear_1533_32989" x1="34.2344" y1="24.3375" x2="52.7024" y2="36.7703" gradientUnits="userSpaceOnUse"><stop offset="0.236106" stop-color="#DA291C"></stop><stop offset="1" stop-color="#FFCD00"></stop></linearGradient><linearGradient id="paint1_linear_1533_32989" x1="36.0207" y1="30.1175" x2="40.0775" y2="33.6533" gradientUnits="userSpaceOnUse"><stop offset="0.236106" stop-color="#DA291C"></stop><stop offset="1" stop-color="#FFCD00"></stop></linearGradient><linearGradient id="paint2_linear_1533_32989" x1="37.0008" y1="21.5907" x2="38.8177" y2="21.7352" gradientUnits="userSpaceOnUse"><stop offset="0.236106" stop-color="#DA291C"></stop><stop offset="1" stop-color="#FFCD00"></stop></linearGradient><linearGradient id="paint3_linear_1533_32989" x1="34.541" y1="37.5085" x2="35.2277" y2="41.4617" gradientUnits="userSpaceOnUse"><stop offset="0.236106" stop-color="#DA291C"></stop><stop offset="1" stop-color="#FFCD00"></stop></linearGradient><linearGradient id="paint4_linear_1533_32989" x1="42.0159" y1="40.3907" x2="43.7895" y2="40.7023" gradientUnits="userSpaceOnUse"><stop offset="0.236106" stop-color="#DA291C"></stop><stop offset="1" stop-color="#FFCD00"></stop></linearGradient><linearGradient id="paint5_linear_1533_32989" x1="32.0612" y1="40.3907" x2="33.8348" y2="40.7023" gradientUnits="userSpaceOnUse"><stop offset="0.236106" stop-color="#DA291C"></stop><stop offset="1" stop-color="#FFCD00"></stop></linearGradient><linearGradient id="paint6_linear_1533_32989" x1="22.7802" y1="19.303" x2="22.7802" y2="43.6481" gradientUnits="userSpaceOnUse"><stop stop-color="#282828"></stop><stop offset="1" stop-color="#030303"></stop></linearGradient><linearGradient id="paint7_linear_1533_32989" x1="22.7802" y1="29.3875" x2="22.7802" y2="30.3875" gradientUnits="userSpaceOnUse"><stop stop-color="#282828"></stop><stop offset="1" stop-color="#030303"></stop></linearGradient><linearGradient id="paint8_linear_1533_32989" x1="22.7802" y1="32.4333" x2="22.7802" y2="33.4333" gradientUnits="userSpaceOnUse"><stop stop-color="#282828"></stop><stop offset="1" stop-color="#030303"></stop></linearGradient></defs></svg> 