<?xml version="1.0" encoding="UTF-8"?> <svg xmlns="http://www.w3.org/2000/svg" width="64" height="64" viewBox="0 0 64 64" fill="none"><path d="M6.04627 38.2982C5.43875 38.152 5 37.612 5 36.9819V31.0193C5 30.3893 5.4275 29.8493 6.04627 29.703C6.04627 29.703 10.7939 28.6005 10.7376 28.6118C11.2664 26.5305 13.1677 22.7729 13.1677 22.7729C13.1339 22.7279 10.6139 18.689 10.6139 18.689C10.2876 18.1603 10.3664 17.4627 10.8051 17.024L15.024 12.8051C15.4627 12.3664 16.1603 12.2876 16.689 12.6139C16.689 12.6139 20.7391 15.1339 20.7729 15.1677C20.7729 15.1677 24.5304 13.2664 26.6117 12.7376C26.6117 12.7939 27.703 8.04627 27.703 8.04627C27.8493 7.43876 28.3893 7 29.0193 7H34.9819C35.612 7 36.152 7.42751 36.2982 8.04627C36.2982 8.04627 37.3895 12.6926 37.3895 12.7376C37.3895 12.7376 41.4396 14.0877 43.2284 15.1677C43.1834 15.2014 47.3122 12.6139 47.3122 12.6139C47.841 12.2876 48.5385 12.3664 48.9773 12.8051L53.1961 17.024C53.6349 17.4627 53.7136 18.1603 53.3874 18.689C53.3874 18.689 50.8673 22.7391 50.8336 22.7729C50.8336 22.7729 52.7349 26.5305 53.2636 28.6118C53.2074 28.6118 57.955 29.703 57.955 29.703C58.5625 29.8493 58.99 30.3893 58.99 31.0193V36.9819C58.99 37.612 58.5625 38.152 57.955 38.2982C57.955 38.2982 53.3086 39.3895 53.2636 39.3895C53.2636 39.3895 51.9136 43.4396 50.8336 45.2284C50.7998 45.1834 53.3874 49.3122 53.3874 49.3122C53.7136 49.841 53.6349 50.5385 53.1961 50.9773L48.9773 55.1961C48.5385 55.6349 47.841 55.7136 47.3122 55.3874C47.3122 55.3874 43.2621 52.8673 43.2284 52.8336C43.2284 52.8336 39.4708 54.7349 37.3895 55.2636C37.3895 55.2074 36.2982 59.955 36.2982 59.955C36.152 60.5625 35.612 60.99 34.9819 60.99H29.0193C28.3893 60.99 27.8493 60.5625 27.703 59.955C27.703 59.955 26.6117 55.3086 26.6117 55.2636C26.6117 55.2636 22.5616 53.9136 20.7729 52.8336C20.8179 52.7998 16.689 55.3874 16.689 55.3874C16.1603 55.7136 15.4627 55.6349 15.024 55.1961L10.8051 50.9773C10.3664 50.5385 10.2876 49.841 10.6139 49.3122C10.6139 49.3122 13.1339 45.2621 13.1677 45.2284C13.1677 45.2284 11.2664 41.4708 10.7376 39.3895C10.7939 39.3895 6.04627 38.2982 6.04627 38.2982Z" stroke="white" stroke-linecap="round" stroke-linejoin="round"></path><path d="M37.6437 31.6791C37.6437 27.3764 35.4119 23.5993 32.0427 21.4308C31.7411 21.2383 31.362 21.2383 31.0661 21.4308C27.6998 23.5965 25.4651 27.3764 25.4651 31.6791C25.4651 33.3566 25.8069 34.9507 26.4216 36.4041C26.5623 36.7344 26.8783 36.9527 27.2373 36.9556L35.8715 36.9556C36.2277 36.9556 36.5494 36.7373 36.6872 36.4041C37.3019 34.9507 37.6437 33.3566 37.6437 31.6791V31.6791Z" stroke="black" stroke-linecap="round" stroke-linejoin="round"></path><path d="M37.6437 31.6791C37.6437 27.3764 35.4119 23.5993 32.0427 21.4308C31.7411 21.2383 31.362 21.2383 31.0661 21.4308C27.6998 23.5965 25.4651 27.3764 25.4651 31.6791C25.4651 33.3566 25.8069 34.9507 26.4216 36.4041C26.5623 36.7344 26.8783 36.9527 27.2373 36.9556L35.8715 36.9556C36.2277 36.9556 36.5494 36.7373 36.6872 36.4041C37.3019 34.9507 37.6437 33.3566 37.6437 31.6791V31.6791Z" stroke="url(#paint0_linear_1549_34693)" stroke-linecap="round" stroke-linejoin="round"></path><path d="M40.3379 35.1947C40.3379 33.2071 39.2206 31.4636 37.5833 30.5674C37.6178 30.9351 37.6408 31.3027 37.6408 31.6819C37.6408 33.5718 37.2042 35.3584 36.4373 36.9526L40.3379 36.9526L40.3379 35.1947V35.1947Z" stroke="black" stroke-linecap="round" stroke-linejoin="round"></path><path d="M40.3379 35.1947C40.3379 33.2071 39.2206 31.4636 37.5833 30.5674C37.6178 30.9351 37.6408 31.3027 37.6408 31.6819C37.6408 33.5718 37.2042 35.3584 36.4373 36.9526L40.3379 36.9526L40.3379 35.1947V35.1947Z" stroke="url(#paint1_linear_1549_34693)" stroke-linecap="round" stroke-linejoin="round"></path><path d="M25.4652 31.6792C25.4652 31.3058 25.4882 30.9324 25.5226 30.5647C23.8854 31.4609 22.7681 33.2044 22.7681 35.192V36.9499L26.6687 36.9499C25.8989 35.3529 25.4652 33.5692 25.4652 31.6792V31.6792Z" stroke="black" stroke-linecap="round" stroke-linejoin="round"></path><path d="M25.4652 31.6792C25.4652 31.3058 25.4882 30.9324 25.5226 30.5647C23.8854 31.4609 22.7681 33.2044 22.7681 35.192V36.9499L26.6687 36.9499C25.8989 35.3529 25.4652 33.5692 25.4652 31.6792V31.6792Z" stroke="url(#paint2_linear_1549_34693)" stroke-linecap="round" stroke-linejoin="round"></path><path d="M27.1599 36.9525C27.5736 37.8084 28.0992 38.6041 28.711 39.3193H34.3982C35.01 38.6041 35.5356 37.8084 35.9492 36.9525H27.1599Z" stroke="black" stroke-linecap="round" stroke-linejoin="round"></path><path d="M27.1599 36.9525C27.5736 37.8084 28.0992 38.6041 28.711 39.3193H34.3982C35.01 38.6041 35.5356 37.8084 35.9492 36.9525H27.1599Z" stroke="url(#paint3_linear_1549_34693)" stroke-linecap="round" stroke-linejoin="round"></path><path d="M28.6939 40.9535L28.6951 42.5742L28.7357 42.5742L28.7346 40.9534L28.6939 40.9535Z" stroke="white" stroke-linecap="round" stroke-linejoin="round"></path><path d="M34.3747 40.9417L34.3735 42.5625L34.4142 42.5625L34.4153 40.9418L34.3747 40.9417Z" stroke="white" stroke-linecap="round" stroke-linejoin="round"></path><path d="M31.531 42.567V44.9961H31.5716V42.567H31.531Z" stroke="white" stroke-linecap="round" stroke-linejoin="round"></path><path d="M34.3728 44.1812L34.3722 44.5874L34.4128 44.5875L34.4134 44.1813L34.3728 44.1812Z" stroke="white" stroke-linecap="round" stroke-linejoin="round"></path><path d="M28.6899 44.1802V44.5864H28.7306V44.1802H28.6899Z" stroke="white" stroke-linecap="round" stroke-linejoin="round"></path><path d="M31.5318 46.616L31.5323 47.4243L31.573 47.4243L31.5724 46.6159L31.5318 46.616Z" stroke="white" stroke-linecap="round" stroke-linejoin="round"></path><path d="M32.7666 33.7127L30.3366 33.7127L30.3395 29.6656L29.1216 29.6656L31.5315 26.8307L33.9816 29.6656L32.7695 29.6656L32.7666 33.7127Z" stroke="black" stroke-linecap="round" stroke-linejoin="round"></path><path d="M32.7666 33.7127L30.3366 33.7127L30.3395 29.6656L29.1216 29.6656L31.5315 26.8307L33.9816 29.6656L32.7695 29.6656L32.7666 33.7127Z" stroke="url(#paint4_linear_1549_34693)" stroke-linecap="round" stroke-linejoin="round"></path><defs><linearGradient id="paint0_linear_1549_34693" x1="28.1479" y1="31.1688" x2="48.6658" y2="29.7382" gradientUnits="userSpaceOnUse"><stop offset="0.236106" stop-color="#DA291C"></stop><stop offset="1" stop-color="#FFCD00"></stop></linearGradient><linearGradient id="paint1_linear_1549_34693" x1="36.6919" y1="34.5856" x2="44.726" y2="33.4134" gradientUnits="userSpaceOnUse"><stop offset="0.236106" stop-color="#DA291C"></stop><stop offset="1" stop-color="#FFCD00"></stop></linearGradient><linearGradient id="paint2_linear_1549_34693" x1="23.6714" y1="34.7941" x2="31.9646" y2="34.8554" gradientUnits="userSpaceOnUse"><stop offset="0.236106" stop-color="#DA291C"></stop><stop offset="1" stop-color="#FFCD00"></stop></linearGradient><linearGradient id="paint3_linear_1549_34693" x1="30.0024" y1="37.3959" x2="39.3496" y2="36.7447" gradientUnits="userSpaceOnUse"><stop offset="0.236106" stop-color="#DA291C"></stop><stop offset="1" stop-color="#FFCD00"></stop></linearGradient><linearGradient id="paint4_linear_1549_34693" x1="30.2332" y1="30.9059" x2="38.1087" y2="30.3378" gradientUnits="userSpaceOnUse"><stop offset="0.236106" stop-color="#DA291C"></stop><stop offset="1" stop-color="#FFCD00"></stop></linearGradient></defs></svg> 