<?xml version="1.0" encoding="UTF-8"?> <svg xmlns="http://www.w3.org/2000/svg" width="64" height="64" viewBox="0 0 64 64" fill="none"><path d="M56.4953 18.0733H47.5218C45.593 18.1203 44.0229 19.7727 44.0229 21.7309C44.0229 21.7662 44.0229 21.8367 44.0229 21.9426L44.6639 30.5868C44.7698 31.7923 46.1634 32.8154 47.4806 33.1036L48.3156 44.4175C48.3686 45.129 48.9801 45.7053 49.6799 45.7053H54.3431C55.0428 45.7053 55.6544 45.129 55.7014 44.4175L56.5364 33.0977C57.8595 32.8096 59.2473 31.7805 59.3531 30.5691L60 21.7838C60 21.7838 60 21.7603 60 21.7485C60 19.7668 58.424 18.1203 56.4835 18.0674L56.4953 18.0733Z" fill="white"></path><path d="M52.0203 16.6919C53.8667 16.6919 55.3662 15.1924 55.3662 13.346C55.3662 11.4995 53.8667 10 52.0203 10C50.1738 10 48.6743 11.4995 48.6743 13.346C48.6743 15.1924 50.1738 16.6919 52.0203 16.6919Z" fill="white"></path><path d="M59.5298 21.7546L58.8829 30.5399C58.7947 31.5866 57.3775 32.498 56.2426 32.6627C56.1897 32.6686 56.1426 32.6745 56.0956 32.6804L55.2312 44.3823C55.1959 44.841 54.8078 45.2174 54.355 45.2174H49.6918C49.2449 45.2174 48.8509 44.841 48.8156 44.3823L47.9512 32.6804C47.9042 32.6804 47.8512 32.6686 47.8042 32.6627C46.6693 32.498 45.258 31.5866 45.1639 30.5458L44.5229 21.9074C44.5229 21.8369 44.5229 21.784 44.5229 21.7604C44.5229 20.0375 45.8813 18.6085 47.5455 18.5674H56.5072C58.1831 18.6085 59.5356 20.0375 59.5356 21.7546H59.5298Z" stroke="#2E2D2C" stroke-linecap="round" stroke-linejoin="round"></path><path d="M52.0205 16.203C50.4445 16.203 49.1626 14.9211 49.1626 13.3452C49.1626 11.7692 50.4445 10.4873 52.0205 10.4873C53.5964 10.4873 54.8784 11.7692 54.8784 13.3452C54.8784 14.9211 53.5964 16.203 52.0205 16.203Z" stroke="#2E2D2C" stroke-linecap="round" stroke-linejoin="round"></path><path d="M52.0205 31.8623V44.8521" stroke="#2E2D2C" stroke-linecap="round" stroke-linejoin="round"></path><path d="M47.9513 32.6804L47.228 22.9248" stroke="#2E2D2C" stroke-linecap="round" stroke-linejoin="round"></path><path d="M56.0957 32.6804L56.819 22.9248" stroke="#2E2D2C" stroke-linecap="round" stroke-linejoin="round"></path><path d="M15.4723 18.0733H6.49885C4.57007 18.1203 3 19.7727 3 21.7309C3 21.7662 3 21.8367 3 21.9426L3.64096 30.5868C3.74681 31.7923 5.14047 32.8154 6.45768 33.1036L7.29269 44.4175C7.34561 45.129 7.95718 45.7053 8.65695 45.7053H13.3201C14.0199 45.7053 14.6314 45.129 14.6785 44.4175L15.5135 33.0977C16.8366 32.8096 18.2244 31.7805 18.3302 30.5691L18.9771 21.7838C18.9771 21.7838 18.9771 21.7603 18.9771 21.7485C18.9771 19.7668 17.4011 18.1203 15.4606 18.0674L15.4723 18.0733Z" fill="white"></path><path d="M10.9973 16.6919C12.8438 16.6919 14.3433 15.1924 14.3433 13.346C14.3433 11.4995 12.8438 10 10.9973 10C9.15087 10 7.65137 11.4995 7.65137 13.346C7.65137 15.1924 9.15087 16.6919 10.9973 16.6919Z" fill="white"></path><path d="M18.5068 21.7546L17.8599 30.5399C17.7717 31.5866 16.3546 32.498 15.2196 32.6627C15.1667 32.6686 15.1197 32.6745 15.0726 32.6804L14.2082 44.3823C14.1729 44.841 13.7848 45.2174 13.332 45.2174H8.66888C8.22197 45.2174 7.82797 44.841 7.79269 44.3823L6.92827 32.6804C6.88122 32.6804 6.8283 32.6686 6.78126 32.6627C5.64634 32.498 4.23505 31.5866 4.14096 30.5458L3.5 21.9074C3.5 21.8369 3.5 21.784 3.5 21.7604C3.5 20.0375 4.85836 18.6085 6.52252 18.5674H15.4843C17.1602 18.6085 18.5127 20.0375 18.5127 21.7546H18.5068Z" stroke="#2E2D2C" stroke-linecap="round" stroke-linejoin="round"></path><path d="M10.9975 16.203C9.42159 16.203 8.13965 14.9211 8.13965 13.3452C8.13965 11.7692 9.42159 10.4873 10.9975 10.4873C12.5735 10.4873 13.8554 11.7692 13.8554 13.3452C13.8554 14.9211 12.5735 16.203 10.9975 16.203Z" stroke="#2E2D2C" stroke-linecap="round" stroke-linejoin="round"></path><path d="M10.9976 31.8623V44.8521" stroke="#2E2D2C" stroke-linecap="round" stroke-linejoin="round"></path><path d="M6.92836 32.6804L6.20508 22.9248" stroke="#2E2D2C" stroke-linecap="round" stroke-linejoin="round"></path><path d="M15.0728 32.6804L15.796 22.9248" stroke="#2E2D2C" stroke-linecap="round" stroke-linejoin="round"></path><path d="M45.7799 23.4541L45.7807 23.4509C46.5683 23.509 47.2671 24.2053 47.2844 25.0956L46.6475 33.7445C46.6348 33.7717 46.5802 33.8762 46.394 34.0337C46.1227 34.2633 45.7438 34.4485 45.3955 34.5244L43.9364 34.8421L43.8265 36.3314L43.0332 47.0861H39.5532L38.7599 36.3372L38.6501 34.8494L37.1927 34.5306C36.8441 34.4544 36.4629 34.2689 36.1898 34.0392C36.009 33.8872 35.9527 33.786 35.9384 33.757L35.3076 25.2494V25.2491V25.2486V25.2481V25.2476V25.2471V25.2466V25.2461V25.2455V25.245V25.2445V25.244V25.2435V25.243V25.2425V25.242V25.2415V25.241V25.2405V25.24V25.2395V25.239V25.2385V25.238V25.2375V25.237V25.2365V25.236V25.2355V25.235V25.2346V25.2341V25.2336V25.2331V25.2326V25.2321V25.2316V25.2311V25.2306V25.2302V25.2297V25.2292V25.2287V25.2282V25.2278V25.2273V25.2268V25.2263V25.2258V25.2254V25.2249V25.2244V25.2239V25.2235V25.223V25.2225V25.2221V25.2216V25.2211V25.2207V25.2202V25.2197V25.2193V25.2188V25.2183V25.2179V25.2174V25.2169V25.2165V25.216V25.2156V25.2151V25.2146V25.2142V25.2137V25.2133V25.2128V25.2124V25.2119V25.2115V25.211V25.2106V25.2101V25.2097V25.2092V25.2088V25.2083V25.2079V25.2074V25.207V25.2065V25.2061V25.2057V25.2052V25.2048V25.2043V25.2039V25.2035V25.203V25.2026V25.2022V25.2017V25.2013V25.2009V25.2004V25.2V25.1996V25.1991V25.1987V25.1983V25.1979V25.1974V25.197V25.1966V25.1962V25.1957V25.1953V25.1949V25.1945V25.1941V25.1936V25.1932V25.1928V25.1924V25.192V25.1916V25.1911V25.1907V25.1903V25.1899V25.1895V25.1891V25.1887V25.1883V25.1879V25.1875V25.187V25.1866V25.1862V25.1858V25.1854V25.185V25.1846V25.1842V25.1838V25.1834V25.183V25.1826V25.1822V25.1818V25.1814V25.1811V25.1807V25.1803V25.1799V25.1795V25.1791V25.1787V25.1783V25.1779V25.1775V25.1772V25.1768V25.1764V25.176V25.1756V25.1752V25.1749V25.1745V25.1741V25.1737V25.1734V25.173V25.1726V25.1722V25.1718V25.1715V25.1711V25.1707V25.1704V25.17V25.1696V25.1693V25.1689V25.1685V25.1682V25.1678V25.1674V25.1671V25.1667V25.1663V25.166V25.1656V25.1653V25.1649V25.1645V25.1642V25.1638V25.1635V25.1631V25.1628V25.1624V25.162V25.1617V25.1613V25.161V25.1606V25.1603V25.16V25.1596V25.1593V25.1589V25.1586V25.1582V25.1579V25.1575V25.1572V25.1569V25.1565V25.1562V25.1558V25.1555V25.1552V25.1548V25.1545V25.1542V25.1538V25.1535V25.1532V25.1528V25.1525V25.1522V25.1519V25.1515V25.1512V25.1509V25.1505V25.1502V25.1499V25.1496V25.1493V25.1489V25.1486V25.1483V25.148V25.1477V25.1473V25.147V25.1467V25.1464V25.1461V25.1458V25.1455V25.1451V25.1448V25.1445V25.1442V25.1439V25.1436V25.1433V25.143V25.1427V25.1424V25.1421V25.1418V25.1415V25.1412V25.1409V25.1406V25.1403V25.14V25.1397V25.1394V25.1391V25.1388V25.1385V25.1382V25.1379V25.1376V25.1373V25.137V25.1368V25.1365V25.1362V25.1359V25.1356V25.1353V25.135V25.1348V25.1345V25.1342V25.1339V25.1336V25.1334V25.1331V25.1328V25.1325V25.1322V25.132V25.1317V25.1314V25.1312V25.1309V25.1306V25.1303V25.1301V25.1298V25.1295V25.1293V25.129V25.1287V25.1285V25.1282V25.1279V25.1277V25.1274V25.1272V25.1269V25.1266V25.1264V25.1261V25.1259V25.1256V25.1254V25.1251V25.1249V25.1246V25.1243V25.1241V25.1238V25.1236V25.1234V25.1231V25.1229V25.1226V25.1224V25.1221V25.1219V25.1216V25.1214V25.1212V25.1209V25.1207V25.1204V25.1202V25.12V25.1197V25.1195V25.1193V25.119V25.1188V25.1186V25.1183V25.1181V25.1179V25.1176V25.1174V25.1172V25.117V25.1167V25.1165V25.1163V25.1161V25.1158V25.1156V25.1154V25.1152V25.1149V25.1147V25.1145V25.1143V25.1141V25.1139V25.1137V25.1134V25.1132V25.113V25.1128V25.1126V25.1124V25.1122V25.112V25.1118C35.3076 24.205 36.0409 23.4846 36.8362 23.4541H45.7799Z" fill="white" stroke="white" stroke-width="4"></path><path d="M42.6509 16.7268C42.6509 17.4687 42.0468 18.0728 41.3049 18.0728C40.5631 18.0728 39.959 17.4687 39.959 16.7268C39.959 15.9849 40.5631 15.3809 41.3049 15.3809C42.0468 15.3809 42.6509 15.9849 42.6509 16.7268Z" fill="white" stroke="white" stroke-width="4"></path><path d="M48.8144 25.1354L48.1676 33.9207C48.0793 34.9674 46.6622 35.8789 45.5273 36.0436C45.4743 36.0494 45.4273 36.0553 45.3802 36.0612L44.5158 47.7632C44.4806 48.2219 44.0924 48.5982 43.6396 48.5982H38.9765C38.5296 48.5982 38.1356 48.2219 38.1003 47.7632L37.2359 36.0612C37.1888 36.0612 37.1359 36.0494 37.0889 36.0436C35.954 35.8789 34.5427 34.9675 34.4486 33.9266L33.8076 25.2883C33.8076 25.2177 33.8076 25.1648 33.8076 25.1413C33.8076 23.4183 35.166 21.9894 36.8301 21.9482H45.7919C47.4678 21.9894 48.8203 23.4183 48.8203 25.1354H48.8144Z" stroke="white" stroke-width="4" stroke-linecap="round" stroke-linejoin="round"></path><path d="M41.3052 19.5839C39.7292 19.5839 38.4473 18.302 38.4473 16.726C38.4473 15.1501 39.7292 13.8682 41.3052 13.8682C42.8811 13.8682 44.163 15.1501 44.163 16.726C44.163 18.302 42.8811 19.5839 41.3052 19.5839Z" stroke="white" stroke-width="4" stroke-linecap="round" stroke-linejoin="round"></path><path d="M41.3052 35.2432V48.233" stroke="white" stroke-width="4" stroke-linecap="round" stroke-linejoin="round"></path><path d="M37.236 36.0613L36.5127 26.3057" stroke="white" stroke-width="4" stroke-linecap="round" stroke-linejoin="round"></path><path d="M45.3804 36.0613L46.1036 26.3057" stroke="white" stroke-width="4" stroke-linecap="round" stroke-linejoin="round"></path><path d="M26.4723 23.4541L26.4731 23.4509C27.2607 23.509 27.9594 24.2053 27.9767 25.0956L27.3399 33.7445C27.3272 33.7717 27.2726 33.8762 27.0864 34.0337C26.8151 34.2633 26.4362 34.4485 26.0879 34.5244L24.6288 34.8421L24.5189 36.3314L23.7256 47.0861H20.2456L19.4523 36.3372L19.3425 34.8494L17.8851 34.5306C17.5365 34.4544 17.1553 34.2689 16.8821 34.0392C16.7014 33.8872 16.6451 33.786 16.6308 33.757L16 25.2494V25.2491V25.2486V25.2481V25.2476V25.2471V25.2466V25.2461V25.2455V25.245V25.2445V25.244V25.2435V25.243V25.2425V25.242V25.2415V25.241V25.2405V25.24V25.2395V25.239V25.2385V25.238V25.2375V25.237V25.2365V25.236V25.2355V25.235V25.2346V25.2341V25.2336V25.2331V25.2326V25.2321V25.2316V25.2311V25.2306V25.2302V25.2297V25.2292V25.2287V25.2282V25.2278V25.2273V25.2268V25.2263V25.2258V25.2254V25.2249V25.2244V25.2239V25.2235V25.223V25.2225V25.2221V25.2216V25.2211V25.2207V25.2202V25.2197V25.2193V25.2188V25.2183V25.2179V25.2174V25.2169V25.2165V25.216V25.2156V25.2151V25.2146V25.2142V25.2137V25.2133V25.2128V25.2124V25.2119V25.2115V25.211V25.2106V25.2101V25.2097V25.2092V25.2088V25.2083V25.2079V25.2074V25.207V25.2065V25.2061V25.2057V25.2052V25.2048V25.2043V25.2039V25.2035V25.203V25.2026V25.2022V25.2017V25.2013V25.2009V25.2004V25.2V25.1996V25.1991V25.1987V25.1983V25.1979V25.1974V25.197V25.1966V25.1962V25.1957V25.1953V25.1949V25.1945V25.1941V25.1936V25.1932V25.1928V25.1924V25.192V25.1916V25.1911V25.1907V25.1903V25.1899V25.1895V25.1891V25.1887V25.1883V25.1879V25.1875V25.187V25.1866V25.1862V25.1858V25.1854V25.185V25.1846V25.1842V25.1838V25.1834V25.183V25.1826V25.1822V25.1818V25.1814V25.1811V25.1807V25.1803V25.1799V25.1795V25.1791V25.1787V25.1783V25.1779V25.1775V25.1772V25.1768V25.1764V25.176V25.1756V25.1752V25.1749V25.1745V25.1741V25.1737V25.1734V25.173V25.1726V25.1722V25.1718V25.1715V25.1711V25.1707V25.1704V25.17V25.1696V25.1693V25.1689V25.1685V25.1682V25.1678V25.1674V25.1671V25.1667V25.1663V25.166V25.1656V25.1653V25.1649V25.1645V25.1642V25.1638V25.1635V25.1631V25.1628V25.1624V25.162V25.1617V25.1613V25.161V25.1606V25.1603V25.16V25.1596V25.1593V25.1589V25.1586V25.1582V25.1579V25.1575V25.1572V25.1569V25.1565V25.1562V25.1558V25.1555V25.1552V25.1548V25.1545V25.1542V25.1538V25.1535V25.1532V25.1528V25.1525V25.1522V25.1519V25.1515V25.1512V25.1509V25.1505V25.1502V25.1499V25.1496V25.1493V25.1489V25.1486V25.1483V25.148V25.1477V25.1473V25.147V25.1467V25.1464V25.1461V25.1458V25.1455V25.1451V25.1448V25.1445V25.1442V25.1439V25.1436V25.1433V25.143V25.1427V25.1424V25.1421V25.1418V25.1415V25.1412V25.1409V25.1406V25.1403V25.14V25.1397V25.1394V25.1391V25.1388V25.1385V25.1382V25.1379V25.1376V25.1373V25.137V25.1368V25.1365V25.1362V25.1359V25.1356V25.1353V25.135V25.1348V25.1345V25.1342V25.1339V25.1336V25.1334V25.1331V25.1328V25.1325V25.1322V25.132V25.1317V25.1314V25.1312V25.1309V25.1306V25.1303V25.1301V25.1298V25.1295V25.1293V25.129V25.1287V25.1285V25.1282V25.1279V25.1277V25.1274V25.1272V25.1269V25.1266V25.1264V25.1261V25.1259V25.1256V25.1254V25.1251V25.1249V25.1246V25.1243V25.1241V25.1238V25.1236V25.1234V25.1231V25.1229V25.1226V25.1224V25.1221V25.1219V25.1216V25.1214V25.1212V25.1209V25.1207V25.1204V25.1202V25.12V25.1197V25.1195V25.1193V25.119V25.1188V25.1186V25.1183V25.1181V25.1179V25.1176V25.1174V25.1172V25.117V25.1167V25.1165V25.1163V25.1161V25.1158V25.1156V25.1154V25.1152V25.1149V25.1147V25.1145V25.1143V25.1141V25.1139V25.1137V25.1134V25.1132V25.113V25.1128V25.1126V25.1124V25.1122V25.112V25.1118C16 24.205 16.7333 23.4846 17.5286 23.4541H26.4723Z" fill="white" stroke="white" stroke-width="4"></path><path d="M23.3433 16.7268C23.3433 17.4687 22.7392 18.0728 21.9973 18.0728C21.2554 18.0728 20.6514 17.4687 20.6514 16.7268C20.6514 15.9849 21.2554 15.3809 21.9973 15.3809C22.7392 15.3809 23.3433 15.9849 23.3433 16.7268Z" fill="white" stroke="white" stroke-width="4"></path><path d="M29.5068 25.1354L28.8599 33.9207C28.7717 34.9674 27.3546 35.8789 26.2196 36.0436C26.1667 36.0494 26.1197 36.0553 26.0726 36.0612L25.2082 47.7632C25.1729 48.2219 24.7848 48.5982 24.332 48.5982H19.6689C19.222 48.5982 18.828 48.2219 18.7927 47.7632L17.9283 36.0612C17.8812 36.0612 17.8283 36.0494 17.7813 36.0436C16.6463 35.8789 15.235 34.9675 15.141 33.9266L14.5 25.2883C14.5 25.2177 14.5 25.1648 14.5 25.1413C14.5 23.4183 15.8584 21.9894 17.5225 21.9482H26.4843C28.1602 21.9894 29.5127 23.4183 29.5127 25.1354H29.5068Z" stroke="white" stroke-width="4" stroke-linecap="round" stroke-linejoin="round"></path><path d="M21.9975 19.5839C20.4216 19.5839 19.1396 18.302 19.1396 16.726C19.1396 15.1501 20.4216 13.8682 21.9975 13.8682C23.5735 13.8682 24.8554 15.1501 24.8554 16.726C24.8554 18.302 23.5735 19.5839 21.9975 19.5839Z" stroke="white" stroke-width="4" stroke-linecap="round" stroke-linejoin="round"></path><path d="M21.9976 35.2432V48.233" stroke="white" stroke-width="4" stroke-linecap="round" stroke-linejoin="round"></path><path d="M17.9284 36.0613L17.2051 26.3057" stroke="white" stroke-width="4" stroke-linecap="round" stroke-linejoin="round"></path><path d="M26.0728 36.0613L26.796 26.3057" stroke="white" stroke-width="4" stroke-linecap="round" stroke-linejoin="round"></path><path d="M14.149 25.1362C14.149 25.1362 14.149 25.1597 14.149 25.1715L14.7958 33.9568C14.9017 35.174 16.2954 36.2031 17.6126 36.4854L18.4476 47.8051C18.5005 48.5167 19.1121 49.0929 19.806 49.0929H24.4691C25.1689 49.0929 25.7804 48.5167 25.8275 47.8051L26.6625 36.4912C27.9797 36.2031 29.3734 35.1799 29.4792 33.9745L30.1202 25.3303C30.1202 25.2244 30.1202 25.1597 30.1202 25.1186C30.1202 23.1604 28.5501 21.508 26.6213 21.4609H17.6478C15.7014 21.508 14.1255 23.1604 14.1255 25.1421L14.149 25.1362Z" fill="white"></path><path d="M25.4922 16.7268C25.4922 14.8804 23.9927 13.3809 22.1462 13.3809C20.2998 13.3809 18.8003 14.8804 18.8003 16.7268C18.8003 18.5733 20.2998 20.0728 22.1462 20.0728C23.9927 20.0728 25.4922 18.5733 25.4922 16.7268Z" fill="white"></path><path d="M14.6431 25.1354L15.2899 33.9207C15.3781 34.9674 16.7953 35.8789 17.9302 36.0436C17.9832 36.0494 18.0302 36.0553 18.0772 36.0612L18.9417 47.7632C18.9769 48.2219 19.3651 48.5982 19.8178 48.5982H24.481C24.9279 48.5982 25.3219 48.2219 25.3572 47.7632L26.2216 36.0612C26.2687 36.0612 26.3216 36.0494 26.3686 36.0436C27.5035 35.8789 28.9148 34.9675 29.0089 33.9266L29.6499 25.2883C29.6499 25.2177 29.6499 25.1648 29.6499 25.1413C29.6499 23.4183 28.2915 21.9894 26.6274 21.9482H17.6656C15.9897 21.9894 14.6372 23.4183 14.6372 25.1354H14.6431Z" stroke="#2E2D2C" stroke-linecap="round" stroke-linejoin="round"></path><path d="M22.1464 19.5839C23.7224 19.5839 25.0043 18.302 25.0043 16.726C25.0043 15.1501 23.7224 13.8682 22.1464 13.8682C20.5705 13.8682 19.2886 15.1501 19.2886 16.726C19.2886 18.302 20.5705 19.5839 22.1464 19.5839Z" stroke="#2E2D2C" stroke-linecap="round" stroke-linejoin="round"></path><path d="M22.1523 35.2432V48.233" stroke="#2E2D2C" stroke-linecap="round" stroke-linejoin="round"></path><path d="M26.2217 36.0613L26.945 26.3057" stroke="#2E2D2C" stroke-linecap="round" stroke-linejoin="round"></path><path d="M18.0773 36.0613L17.354 26.3057" stroke="#2E2D2C" stroke-linecap="round" stroke-linejoin="round"></path><path d="M45.7799 21.4541H36.8065C34.8777 21.5012 33.3076 23.1536 33.3076 25.1118C33.3076 25.147 33.3076 25.2176 33.3076 25.3234L33.9486 33.9676C34.0544 35.1731 35.4481 36.1963 36.7653 36.4844L37.6003 47.7983C37.6532 48.5099 38.2648 49.0861 38.9646 49.0861H43.6277C44.3275 49.0861 44.9391 48.5099 44.9861 47.7983L45.8211 36.4786C47.1442 36.1904 48.532 35.1613 48.6378 33.95L49.2847 25.1647C49.2847 25.1647 49.2847 25.1411 49.2847 25.1294C49.2847 23.1477 47.7087 21.5012 45.7682 21.4482L45.7799 21.4541Z" fill="white"></path><path d="M41.3049 20.0728C43.1514 20.0728 44.6509 18.5733 44.6509 16.7268C44.6509 14.8804 43.1514 13.3809 41.3049 13.3809C39.4585 13.3809 37.959 14.8804 37.959 16.7268C37.959 18.5733 39.4585 20.0728 41.3049 20.0728Z" fill="white"></path><path d="M48.8144 25.1354L48.1676 33.9207C48.0793 34.9674 46.6622 35.8789 45.5273 36.0436C45.4743 36.0494 45.4273 36.0553 45.3802 36.0612L44.5158 47.7632C44.4806 48.2219 44.0924 48.5982 43.6396 48.5982H38.9765C38.5296 48.5982 38.1356 48.2219 38.1003 47.7632L37.2359 36.0612C37.1888 36.0612 37.1359 36.0494 37.0889 36.0436C35.954 35.8789 34.5427 34.9675 34.4486 33.9266L33.8076 25.2883C33.8076 25.2177 33.8076 25.1648 33.8076 25.1413C33.8076 23.4183 35.166 21.9894 36.8301 21.9482H45.7919C47.4678 21.9894 48.8203 23.4183 48.8203 25.1354H48.8144Z" stroke="#2E2D2C" stroke-linecap="round" stroke-linejoin="round"></path><path d="M41.3052 19.5839C39.7292 19.5839 38.4473 18.302 38.4473 16.726C38.4473 15.1501 39.7292 13.8682 41.3052 13.8682C42.8811 13.8682 44.163 15.1501 44.163 16.726C44.163 18.302 42.8811 19.5839 41.3052 19.5839Z" stroke="#2E2D2C" stroke-linecap="round" stroke-linejoin="round"></path><path d="M41.3052 35.2432V48.233" stroke="#2E2D2C" stroke-linecap="round" stroke-linejoin="round"></path><path d="M37.236 36.0613L36.5127 26.3057" stroke="#2E2D2C" stroke-linecap="round" stroke-linejoin="round"></path><path d="M45.3804 36.0613L46.1036 26.3057" stroke="#2E2D2C" stroke-linecap="round" stroke-linejoin="round"></path><path d="M29.397 54.2914C28.4738 54.2914 27.6623 53.527 27.5976 52.592L26.7861 41.5898C25.4453 41.1899 24.0693 40.1255 23.9458 38.7672L23.299 30.1171C23.2931 29.976 23.299 29.8995 23.299 29.8525C23.299 27.665 25.0631 25.8244 27.2271 25.7715H36.2124C38.3999 25.8244 40.1699 27.6709 40.1699 29.8937V29.9701L39.523 38.7437C39.4054 40.1197 38.0235 41.1899 36.6828 41.5898L35.8713 52.592C35.8066 53.527 34.9951 54.2914 34.0719 54.2914H29.4087H29.397Z" fill="white"></path><path d="M36.2064 26.2131C38.1528 26.2602 39.7288 27.9126 39.7288 29.8943C39.7288 29.906 39.7288 29.9178 39.7288 29.9295L39.0819 38.7149C38.9761 39.9321 37.5824 40.9612 36.2652 41.2434L35.4302 52.5632C35.3773 53.2747 34.7657 53.851 34.0718 53.851H29.4086C28.7089 53.851 28.0973 53.2747 28.0444 52.5632L27.2094 41.2493C25.8922 40.9612 24.4985 39.938 24.3927 38.7325L23.7517 30.0883C23.7517 29.9824 23.7517 29.9178 23.7517 29.8766C23.7517 27.9184 25.3218 26.266 27.2505 26.219H36.224M36.2358 25.3369H27.2505C24.8337 25.3957 22.8814 27.4245 22.8696 29.859C22.8696 29.9119 22.8696 30.006 22.8696 30.1353L23.5165 38.7972C23.6458 40.2614 24.9925 41.4139 26.3802 41.9196L27.1741 52.6279C27.2623 53.8098 28.2443 54.7331 29.4145 54.7331H34.0777C35.2302 54.7331 36.2358 53.7863 36.3181 52.6279L37.112 41.9196C38.5056 41.4139 39.8464 40.2555 39.9757 38.7913L40.6226 29.9942C40.6226 29.9942 40.6226 29.9354 40.6226 29.8943C40.6226 27.4362 38.6585 25.3957 36.2417 25.3311H36.2299L36.2358 25.3369Z" fill="white"></path><path d="M31.7257 25.4788C29.5264 25.4788 27.7329 23.6911 27.7329 21.4859C27.7329 19.2808 29.5264 17.4932 31.7257 17.4932C33.925 17.4932 35.7185 19.2808 35.7185 21.4859C35.7185 23.6911 33.925 25.4788 31.7257 25.4788Z" fill="white"></path><path d="M31.7256 18.1394C33.572 18.1394 35.0715 19.6389 35.0715 21.4853C35.0715 23.3318 33.572 24.8313 31.7256 24.8313C29.8791 24.8313 28.3796 23.3318 28.3796 21.4853C28.3796 19.6389 29.8791 18.1394 31.7256 18.1394ZM31.7256 16.8457C29.1676 16.8457 27.0859 18.9273 27.0859 21.4853C27.0859 24.0433 29.1676 26.125 31.7256 26.125C34.2835 26.125 36.3652 24.0433 36.3652 21.4853C36.3652 18.9273 34.2835 16.8457 31.7256 16.8457Z" fill="white"></path><path d="M39.2348 29.8952L38.588 38.6805C38.4998 39.7272 37.0826 40.6387 35.9477 40.8034C35.8947 40.8092 35.8477 40.8151 35.8007 40.821L34.9362 52.523C34.901 52.9817 34.5129 53.358 34.0601 53.358H29.3969C28.95 53.358 28.556 52.9817 28.5207 52.523L27.6563 40.821C27.6093 40.821 27.5563 40.8092 27.5093 40.8034C26.3744 40.6328 24.9631 39.7272 24.869 38.6864L24.228 30.0481C24.228 29.9775 24.228 29.9246 24.228 29.9011C24.228 28.1781 25.5864 26.7492 27.2506 26.708H36.2123C37.8882 26.7492 39.2407 28.1781 39.2407 29.8952H39.2348Z" stroke="#2E2D2C" stroke-linecap="round" stroke-linejoin="round"></path><path d="M31.7255 24.3437C30.1496 24.3437 28.8677 23.0617 28.8677 21.4858C28.8677 19.9098 30.1496 18.6279 31.7255 18.6279C33.3015 18.6279 34.5834 19.9098 34.5834 21.4858C34.5834 23.0617 33.3015 24.3437 31.7255 24.3437Z" stroke="#2E2D2C" stroke-linecap="round" stroke-linejoin="round"></path><path d="M31.7256 39.9971V52.9927" stroke="#2E2D2C" stroke-linecap="round" stroke-linejoin="round"></path><path d="M27.6564 40.821L26.9331 31.0596" stroke="#2E2D2C" stroke-linecap="round" stroke-linejoin="round"></path><path d="M35.8008 40.821L36.5241 31.0596" stroke="#2E2D2C" stroke-linecap="round" stroke-linejoin="round"></path><path d="M39.2348 29.8942L38.588 38.6796C38.4998 39.7263 37.0826 40.6377 35.9477 40.8024C35.8947 40.8083 35.8477 40.8141 35.8007 40.82L34.9362 52.522C34.901 52.9807 34.5129 53.357 34.0601 53.357H29.3969C28.95 53.357 28.556 52.9807 28.5207 52.522L27.6563 40.82C27.6093 40.82 27.5563 40.8083 27.5093 40.8024C26.3744 40.6318 24.9631 39.7262 24.869 38.6854L24.228 30.0471C24.228 29.9765 24.228 29.9236 24.228 29.9001C24.228 28.1771 25.5864 26.7482 27.2506 26.707H36.2123C37.8882 26.7482 39.2407 28.1772 39.2407 29.8942H39.2348Z" stroke="black" stroke-linecap="round" stroke-linejoin="round"></path><path d="M39.2348 29.8942L38.588 38.6796C38.4998 39.7263 37.0826 40.6377 35.9477 40.8024C35.8947 40.8083 35.8477 40.8141 35.8007 40.82L34.9362 52.522C34.901 52.9807 34.5129 53.357 34.0601 53.357H29.3969C28.95 53.357 28.556 52.9807 28.5207 52.522L27.6563 40.82C27.6093 40.82 27.5563 40.8083 27.5093 40.8024C26.3744 40.6318 24.9631 39.7262 24.869 38.6854L24.228 30.0471C24.228 29.9765 24.228 29.9236 24.228 29.9001C24.228 28.1771 25.5864 26.7482 27.2506 26.707H36.2123C37.8882 26.7482 39.2407 28.1772 39.2407 29.8942H39.2348Z" stroke="url(#paint0_linear_497_11640)" stroke-linecap="round" stroke-linejoin="round"></path><path d="M31.7255 24.3427C30.1496 24.3427 28.8677 23.0608 28.8677 21.4848C28.8677 19.9089 30.1496 18.627 31.7255 18.627C33.3015 18.627 34.5834 19.9089 34.5834 21.4848C34.5834 23.0608 33.3015 24.3427 31.7255 24.3427Z" stroke="black" stroke-linecap="round" stroke-linejoin="round"></path><path d="M31.7255 24.3427C30.1496 24.3427 28.8677 23.0608 28.8677 21.4848C28.8677 19.9089 30.1496 18.627 31.7255 18.627C33.3015 18.627 34.5834 19.9089 34.5834 21.4848C34.5834 23.0608 33.3015 24.3427 31.7255 24.3427Z" stroke="url(#paint1_linear_497_11640)" stroke-linecap="round" stroke-linejoin="round"></path><path d="M31.7256 39.9961V52.9918" stroke="black" stroke-linecap="round" stroke-linejoin="round"></path><path d="M31.7256 39.9961V52.9918" stroke="url(#paint2_linear_497_11640)" stroke-linecap="round" stroke-linejoin="round"></path><path d="M27.6564 40.82L26.9331 31.0586" stroke="black" stroke-linecap="round" stroke-linejoin="round"></path><path d="M27.6564 40.82L26.9331 31.0586" stroke="url(#paint3_linear_497_11640)" stroke-linecap="round" stroke-linejoin="round"></path><path d="M35.8008 40.82L36.5241 31.0586" stroke="black" stroke-linecap="round" stroke-linejoin="round"></path><path d="M35.8008 40.82L36.5241 31.0586" stroke="url(#paint4_linear_497_11640)" stroke-linecap="round" stroke-linejoin="round"></path><defs><linearGradient id="paint0_linear_497_11640" x1="29.2528" y1="35.8241" x2="51.388" y2="46.6693" gradientUnits="userSpaceOnUse"><stop offset="0.236106" stop-color="#DA291C"></stop><stop offset="1" stop-color="#FFCD00"></stop></linearGradient><linearGradient id="paint1_linear_497_11640" x1="30.7808" y1="20.5823" x2="36.7306" y2="25.7571" gradientUnits="userSpaceOnUse"><stop offset="0.236106" stop-color="#DA291C"></stop><stop offset="1" stop-color="#FFCD00"></stop></linearGradient><linearGradient id="paint2_linear_497_11640" x1="32.0603" y1="44.442" x2="33.8805" y2="44.5638" gradientUnits="userSpaceOnUse"><stop offset="0.236106" stop-color="#DA291C"></stop><stop offset="1" stop-color="#FFCD00"></stop></linearGradient><linearGradient id="paint3_linear_497_11640" x1="27.1752" y1="34.398" x2="28.4922" y2="34.4829" gradientUnits="userSpaceOnUse"><stop offset="0.236106" stop-color="#DA291C"></stop><stop offset="1" stop-color="#FFCD00"></stop></linearGradient><linearGradient id="paint4_linear_497_11640" x1="36.0429" y1="34.398" x2="37.3599" y2="34.4829" gradientUnits="userSpaceOnUse"><stop offset="0.236106" stop-color="#DA291C"></stop><stop offset="1" stop-color="#FFCD00"></stop></linearGradient></defs></svg> 