<?xml version="1.0" encoding="UTF-8"?> <svg xmlns="http://www.w3.org/2000/svg" width="64" height="64" viewBox="0 0 64 64" fill="none"><path d="M13.0253 36.682C13.0253 36.682 12.4629 32.6316 12.0714 29.8838C11.7297 27.4848 10.427 26.5594 8.81114 26.3103C8.27724 26.2249 7.80028 26.6733 7.81452 27.2143L8.22741 40.882C8.24165 41.2877 8.40537 41.6721 8.69011 41.9569L18.0581 51.3249" stroke="#2E2D2C" stroke-linecap="round" stroke-linejoin="round"></path><path d="M25.6251 52.1369C26.1163 47.7803 25.5112 45.3244 23.6034 43.4095C22.0089 41.815 20.9696 41.1529 18.6916 40.7045L15.7659 37.7788C15.3459 37.3588 13.9008 36.2482 11.9788 37.6292C11.5731 37.9211 11.5375 38.5262 11.8934 38.8821L17.4103 44.399" stroke="#2E2D2C" stroke-linecap="round" stroke-linejoin="round"></path><path d="M27.9459 56.3296V51.7168H14.8477V56.3296" fill="white"></path><path d="M27.9459 56.3296V51.7168H14.8477V56.3296" stroke="#2E2D2C" stroke-linecap="round" stroke-linejoin="round"></path><path d="M33.8684 56.3296V51.7168H46.9665V56.3296" fill="white"></path><path d="M33.8684 56.3296V51.7168H46.9665V56.3296" stroke="#2E2D2C" stroke-linecap="round" stroke-linejoin="round"></path><path d="M27.9459 56.3296V51.7168H14.8477V56.3296" fill="white"></path><path d="M27.9459 56.3296V51.7168H14.8477V56.3296" stroke="white" stroke-linecap="round" stroke-linejoin="round"></path><path d="M27.9459 56.3296V51.7168H14.8477V56.3296" stroke="#2E2D2C" stroke-linecap="round" stroke-linejoin="round"></path><path d="M25.0059 54.8562C25.0059 55.326 24.6215 55.7104 24.1517 55.7104C23.6818 55.7104 23.2974 55.326 23.2974 54.8562C23.2974 54.3864 23.6818 54.002 24.1517 54.002C24.6215 54.002 25.0059 54.3864 25.0059 54.8562Z" fill="#2E2D2C"></path><path d="M48.7889 36.682C48.7889 36.682 49.3513 32.6316 49.7428 29.8838C50.0845 27.4848 51.3872 26.5594 53.0031 26.3103C53.537 26.2249 54.0139 26.6733 53.9997 27.2143L53.5868 40.882C53.5726 41.2877 53.4089 41.6721 53.1241 41.9569L43.7561 51.3249" stroke="#2E2D2C" stroke-linecap="round" stroke-linejoin="round"></path><path d="M36.1891 52.1369C35.6979 47.7803 36.3029 45.3244 38.2107 43.4095C39.8053 41.815 40.8446 41.1529 43.1225 40.7045L46.0483 37.7788C46.4683 37.3588 47.9133 36.2482 49.8353 37.6292C50.2411 37.9211 50.2767 38.5262 49.9208 38.8821L44.4039 44.399" stroke="#2E2D2C" stroke-linecap="round" stroke-linejoin="round"></path><path d="M33.8684 56.3296V51.7168H46.9665V56.3296" fill="white"></path><path d="M33.8684 56.3296V51.7168H46.9665V56.3296" stroke="white" stroke-linecap="round" stroke-linejoin="round"></path><path d="M33.8684 56.3296V51.7168H46.9665V56.3296" stroke="#2E2D2C" stroke-linecap="round" stroke-linejoin="round"></path><path d="M36.8083 54.8562C36.8083 55.326 37.1928 55.7104 37.6626 55.7104C38.1324 55.7104 38.5168 55.326 38.5168 54.8562C38.5168 54.3864 38.1324 54.002 37.6626 54.002C37.1928 54.002 36.8083 54.3864 36.8083 54.8562Z" fill="#2E2D2C"></path><path d="M22.8347 11.9946C24.2299 11.9946 25.3618 10.8627 25.3618 9.46751C25.3618 8.07227 24.2299 6.94043 22.8347 6.94043C21.4395 6.94043 20.3076 8.07227 20.3076 9.46751C20.3076 10.8627 21.4395 11.9946 22.8347 11.9946Z" fill="white" stroke="#2E2D2C" stroke-linecap="round" stroke-linejoin="round"></path><path d="M24.7496 36.9877C24.7496 36.9877 24.7923 36.9664 24.7923 36.945L25.5682 26.4523C25.6109 26.4523 25.6466 26.4452 25.6964 26.438C26.6503 26.2957 28.0597 25.7903 28.1452 24.6584L28.6862 17.4046C28.6862 17.3405 28.6862 17.3049 28.6862 17.2765C28.6862 15.8314 27.3123 14.6284 25.9171 14.5928H19.1971C17.7877 14.6284 16.6487 15.8314 16.6487 17.2765L17.1897 24.6584C17.2609 25.7974 18.706 26.3028 19.6598 26.4452C19.7026 26.4452 19.7453 26.4594 19.788 26.4594L20.5639 36.9308C20.5639 36.9308 20.5995 36.9949 20.6351 36.9949" stroke="#2E2D2C" stroke-linecap="round" stroke-linejoin="round"></path><path d="M39.6416 11.9946C41.0368 11.9946 42.1687 10.8627 42.1687 9.46751C42.1687 8.07227 41.0368 6.94043 39.6416 6.94043C38.2464 6.94043 37.1145 8.07227 37.1145 9.46751C37.1145 10.8627 38.2464 11.9946 39.6416 11.9946Z" fill="white" stroke="#2E2D2C" stroke-linecap="round" stroke-linejoin="round"></path><path d="M41.5992 37.3442L42.3751 26.8087C42.4178 26.8087 42.4534 26.8016 42.5032 26.7945C43.4571 26.6521 44.8666 26.1467 44.952 25.0149L45.493 17.761C45.493 17.697 45.493 17.6614 45.493 17.6329C45.493 16.1878 44.1192 14.9848 42.7239 14.9492H36.004C34.5945 14.9848 33.4556 16.1878 33.4556 17.6329L33.9966 25.0149C34.0678 26.1538 35.5128 26.6592 36.4667 26.8016C36.5094 26.8016 36.5521 26.8158 36.5949 26.8158L37.3708 37.3513" stroke="#2E2D2C" stroke-linecap="round" stroke-linejoin="round"></path><path d="M31.2346 16.8637C32.6299 16.8637 33.7617 15.7319 33.7617 14.3367C33.7617 12.9414 32.6299 11.8096 31.2346 11.8096C29.8394 11.8096 28.7075 12.9414 28.7075 14.3367C28.7075 15.7319 29.8394 16.8637 31.2346 16.8637Z" fill="white" stroke="white" stroke-linecap="round" stroke-linejoin="round"></path><path d="M25.0557 22.1453L25.5967 29.5273C25.6679 30.6662 27.113 31.1717 28.0668 31.314C28.1096 31.314 28.1523 31.3283 28.195 31.3283L28.9709 41.8637H33.1709C33.1709 41.8637 33.1922 41.8566 33.1922 41.8424L33.9681 31.3283C34.0108 31.3283 34.0464 31.3211 34.0963 31.314C35.0502 31.1717 36.4596 30.6662 36.545 29.5344L37.0861 22.2806C37.0861 22.2165 37.0861 22.1809 37.0861 22.1524C37.0861 20.7074 35.7122 19.5043 34.3169 19.4688H27.597C26.1875 19.5043 25.0486 20.7074 25.0486 22.1524L25.0557 22.1453Z" fill="white" stroke="white" stroke-linecap="round" stroke-linejoin="round"></path><path d="M31.2346 16.8637C32.6299 16.8637 33.7617 15.7319 33.7617 14.3367C33.7617 12.9414 32.6299 11.8096 31.2346 11.8096C29.8394 11.8096 28.7075 12.9414 28.7075 14.3367C28.7075 15.7319 29.8394 16.8637 31.2346 16.8637Z" stroke="black" stroke-linecap="round" stroke-linejoin="round"></path><path d="M31.2346 16.8637C32.6299 16.8637 33.7617 15.7319 33.7617 14.3367C33.7617 12.9414 32.6299 11.8096 31.2346 11.8096C29.8394 11.8096 28.7075 12.9414 28.7075 14.3367C28.7075 15.7319 29.8394 16.8637 31.2346 16.8637Z" stroke="url(#paint0_linear_506_12078)" stroke-linecap="round" stroke-linejoin="round"></path><path d="M33.1709 41.8637C33.1709 41.8637 33.1922 41.8566 33.1922 41.8424L33.9681 31.3283C34.0108 31.3283 34.0464 31.3211 34.0963 31.314C35.0502 31.1717 36.4596 30.6662 36.545 29.5344L37.0861 22.2806C37.0861 22.2165 37.0861 22.1809 37.0861 22.1524C37.0861 20.7074 35.7122 19.5043 34.3169 19.4688H27.597C26.1875 19.5043 25.0486 20.7074 25.0486 22.1524L25.5896 29.5344C25.6608 30.6734 27.1058 31.1788 28.0597 31.3212C28.1024 31.3212 28.1452 31.3354 28.1879 31.3354L28.9638 41.8709" stroke="black" stroke-linecap="round" stroke-linejoin="round"></path><path d="M33.1709 41.8637C33.1709 41.8637 33.1922 41.8566 33.1922 41.8424L33.9681 31.3283C34.0108 31.3283 34.0464 31.3211 34.0963 31.314C35.0502 31.1717 36.4596 30.6662 36.545 29.5344L37.0861 22.2806C37.0861 22.2165 37.0861 22.1809 37.0861 22.1524C37.0861 20.7074 35.7122 19.5043 34.3169 19.4688H27.597C26.1875 19.5043 25.0486 20.7074 25.0486 22.1524L25.5896 29.5344C25.6608 30.6734 27.1058 31.1788 28.0597 31.3212C28.1024 31.3212 28.1452 31.3354 28.1879 31.3354L28.9638 41.8709" stroke="url(#paint1_linear_506_12078)" stroke-linecap="round" stroke-linejoin="round"></path><defs><linearGradient id="paint0_linear_506_12078" x1="30.3992" y1="13.5386" x2="35.6603" y2="18.1145" gradientUnits="userSpaceOnUse"><stop offset="0.236106" stop-color="#DA291C"></stop><stop offset="1" stop-color="#FFCD00"></stop></linearGradient><linearGradient id="paint1_linear_506_12078" x1="29.0776" y1="27.1326" x2="47.1413" y2="35.5746" gradientUnits="userSpaceOnUse"><stop offset="0.236106" stop-color="#DA291C"></stop><stop offset="1" stop-color="#FFCD00"></stop></linearGradient></defs></svg> 