<?xml version="1.0" encoding="UTF-8"?> <svg xmlns="http://www.w3.org/2000/svg" xmlns:xlink="http://www.w3.org/1999/xlink" width="75" height="75" viewBox="0 0 75 75"><defs><radialGradient id="radial-gradient" cx="0.501" cy="0.5" r="0.501" gradientUnits="objectBoundingBox"><stop offset="0" stop-color="#797979"></stop><stop offset="1" stop-color="#4c4c4c"></stop></radialGradient><clipPath id="clip-icon-browser-stack"><rect width="75" height="75"></rect></clipPath></defs><g id="icon-browser-stack" clip-path="url(#clip-icon-browser-stack)"><rect width="75" height="75" fill="rgba(255,255,255,0)"></rect><g id="browserstack" transform="translate(4.13 3.476)"><circle id="Ellipse_3969" data-name="Ellipse 3969" cx="33.058" cy="33.058" r="33.058" transform="translate(0.348 1.002)" fill="#f5bb60"></circle><circle id="Ellipse_3970" data-name="Ellipse 3970" cx="29.759" cy="29.759" r="29.759" transform="translate(0.276 0.93)" fill="#e86f32"></circle><circle id="Ellipse_3971" data-name="Ellipse 3971" cx="25.815" cy="25.815" r="25.815" transform="translate(8.164 0.93)" fill="#e53d42"></circle><circle id="Ellipse_3972" data-name="Ellipse 3972" cx="23.736" cy="23.736" r="23.736" transform="translate(12.323 5.089)" fill="#bfd141"></circle><circle id="Ellipse_3973" data-name="Ellipse 3973" cx="22.015" cy="22.015" r="22.015" transform="translate(12.323 8.531)" fill="#6db64c"></circle><circle id="Ellipse_3974" data-name="Ellipse 3974" cx="18.501" cy="18.501" r="18.501" transform="translate(12.323 8.603)" fill="#afdbe7"></circle><circle id="Ellipse_3975" data-name="Ellipse 3975" cx="15.489" cy="15.489" r="15.489" transform="translate(18.347 8.531)" fill="#57badf"></circle><circle id="Ellipse_3976" data-name="Ellipse 3976" cx="13.625" cy="13.625" r="13.625" transform="translate(22.148 12.332)" fill="#02b2d6"></circle><circle id="Ellipse_3977" data-name="Ellipse 3977" cx="11.617" cy="11.617" r="11.617" transform="translate(22.148 16.276)" fill="url(#radial-gradient)"></circle><circle id="Ellipse_3978" data-name="Ellipse 3978" cx="11.617" cy="11.617" r="11.617" transform="translate(22.148 16.276)" fill="#231f20"></circle><path id="Path_37829" data-name="Path 37829" d="M137.992,79.995c1.152.517,2.74-.523,3.548-2.323s.528-3.678-.623-4.194-2.74.523-3.548,2.323S136.84,79.478,137.992,79.995Z" transform="translate(-101.176 -53.624)" fill="#fff"></path></g></g></svg> 