<?xml version="1.0" encoding="UTF-8"?> <svg xmlns="http://www.w3.org/2000/svg" width="64" height="64" viewBox="0 0 64 64" fill="none"><g clip-path="url(#clip0_1494_32946)"><path d="M47.5 27.5999H46.2V18.9999C46.2 16.3999 44 14.1999 41.4 14.2999C40.6 12.9999 39.9 11.4999 39.9 9.9999C39.9 7.3999 37.6 5.3999 34.7 5.3999H25.7C22.9 5.3999 20.5 7.3999 20.5 9.9999C20.6 11.4999 19.8 12.9999 19 14.2999C16.4 14.1999 14.2 16.3999 14.2 18.9999V45.0999C14.2 47.6999 16.4 49.8999 19 49.7999C19.8 51.0999 20.5 52.5999 20.5 54.0999C20.5 56.6999 22.8 58.6999 25.7 58.6999H34.7C37.5 58.6999 39.9 56.6999 39.9 54.0999C39.8 52.5999 40.6 51.0999 41.4 49.7999C44 49.8999 46.2 47.6999 46.2 45.0999V36.4999H47.5C48.7 36.4999 49.7 35.4999 49.7 34.2999V29.7999C49.7 28.4999 48.8 27.5999 47.5 27.5999Z" stroke="black" stroke-miterlimit="10"></path><path d="M26.7 29.4999C28 30.5999 29.7 31.9999 29.7 31.9999C30 32.2999 30.5 32.2999 30.8 31.9999L35.2 28.2999C36.5 27.1999 37.5 25.2999 37.3 23.6999C37 20.0999 32.7 18.5999 30.2 20.8999C27.8 18.4999 23.4 20.1999 23.2 23.6999C23.1 24.9999 23.6 26.3999 24.5 27.4999" stroke="black" stroke-miterlimit="10" stroke-linecap="round"></path><path d="M26.7 29.4999C28 30.5999 29.7 31.9999 29.7 31.9999C30 32.2999 30.5 32.2999 30.8 31.9999L35.2 28.2999C36.5 27.1999 37.5 25.2999 37.3 23.6999C37 20.0999 32.7 18.5999 30.2 20.8999C27.8 18.4999 23.4 20.1999 23.2 23.6999C23.1 24.9999 23.6 26.3999 24.5 27.4999" stroke="url(#paint0_linear_1494_32946)" stroke-miterlimit="10" stroke-linecap="round"></path><path d="M19.1 14.3H41.4" stroke="black" stroke-miterlimit="10"></path><path d="M46.2 27.6001V36.4001" stroke="black" stroke-miterlimit="10"></path><path d="M19.1 49.7H41.4" stroke="black" stroke-miterlimit="10"></path><path d="M22.5 41.6999H25.6L27.4 36.3999L30.4 44.6999L32.3 38.6999L34 41.6999H37.9" stroke="black" stroke-miterlimit="10" stroke-linecap="round" stroke-linejoin="round"></path></g><defs><linearGradient id="paint0_linear_1494_32946" x1="27.9195" y1="24.0375" x2="40.9993" y2="36.9615" gradientUnits="userSpaceOnUse"><stop offset="0.236106" stop-color="#DA291C"></stop><stop offset="1" stop-color="#FFCD00"></stop></linearGradient><clipPath id="clip0_1494_32946"><rect width="64" height="64" fill="white"></rect></clipPath></defs></svg> 