<?xml version="1.0" encoding="UTF-8"?> <svg xmlns="http://www.w3.org/2000/svg" width="64" height="64" viewBox="0 0 64 64" fill="none"><g clip-path="url(#clip0_1576_35734)"><path d="M45.99 40H47.99C51.86 40 54.99 36.87 54.99 33C54.99 29.13 51.86 26 47.99 26C47.25 26 46.53 26.12 45.86 26.33C45.94 25.9 45.99 25.45 45.99 25C45.99 21.13 42.86 18 38.99 18C37.24 18 35.65 18.65 34.42 19.71C33.06 15.81 29.35 13 24.99 13C19.47 13 14.99 17.48 14.99 23C14.99 24.05 15.16 25.07 15.46 26.02C11.85 26.3 9 29.31 9 32.99C9 36.86 12.13 39.99 16 39.99H17" stroke="white" stroke-miterlimit="10"></path><path d="M34.4399 19.7002C34.6999 20.4302 34.8699 21.2002 34.9499 22.0002" stroke="white" stroke-miterlimit="10"></path><path d="M45.86 26.3301C45.7 27.1501 45.4 27.9201 44.99 28.6001" stroke="white" stroke-miterlimit="10"></path><path d="M15.45 26.0202C16.32 25.9502 17.2 26.0502 18.05 26.3102" stroke="white" stroke-miterlimit="10"></path><path d="M43.99 38H22.99V52H43.99V38Z" stroke="black" stroke-miterlimit="10"></path><path d="M43.99 38H22.99V52H43.99V38Z" stroke="url(#paint0_linear_1576_35734)" stroke-miterlimit="10"></path><path d="M40.99 36V34H29.99L27.99 32H18.99V49L21.99 52H22.99" stroke="white" stroke-miterlimit="10"></path><path d="M32.5222 47.4034V41.7784H33.4767V47.4034H32.5222ZM30.187 45.0682V44.1136H35.812V45.0682H30.187Z" fill="white"></path></g><defs><linearGradient id="paint0_linear_1576_35734" x1="30.0187" y1="42.7895" x2="44.2288" y2="61.3281" gradientUnits="userSpaceOnUse"><stop offset="0.236106" stop-color="#DA291C"></stop><stop offset="1" stop-color="#FFCD00"></stop></linearGradient><clipPath id="clip0_1576_35734"><rect width="64" height="64" fill="white"></rect></clipPath></defs></svg> 