<?xml version="1.0" encoding="UTF-8"?> <svg xmlns="http://www.w3.org/2000/svg" width="64" height="64" viewBox="0 0 64 64" fill="none"><g clip-path="url(#clip0_506_11974)"><path d="M49.3596 10.3266C50.3401 11.2985 51.3205 12.2704 52.3009 13.2338C52.5823 13.5152 52.6334 13.8221 52.4374 14.1716C51.312 16.1922 50.1866 18.2213 49.0698 20.2418C48.8993 20.5487 48.652 20.6937 48.294 20.6851C47.3902 20.6851 46.478 20.6766 45.5743 20.6851C45.4038 20.6851 45.1907 20.7448 45.0798 20.8556C41.6014 24.317 38.1315 27.7954 34.6616 31.2653C34.6361 31.2909 34.6105 31.3335 34.5679 31.3932C34.6361 31.4784 34.7043 31.5637 34.781 31.6404C36.1366 32.996 37.4921 34.343 38.8391 35.7071C39.0267 35.8947 39.1716 35.9373 39.4274 35.835C45.2077 33.6439 51.4654 37.2843 52.4459 43.3971C53.307 48.7426 49.3852 53.8835 44.0056 54.4632C38.7795 55.0259 34.1586 51.5219 33.3146 46.3384C33.0418 44.6589 33.2379 43.0135 33.8261 41.4107C33.8773 41.2657 33.8858 41.0185 33.8006 40.9332C32.3598 39.4583 30.9019 38.009 29.4867 36.5852C28.8984 37.182 28.3187 37.7532 27.7048 38.3756C27.8157 38.4864 28.0032 38.6825 28.1908 38.8701C28.6256 39.3049 29.0774 39.7397 29.5037 40.183C29.8362 40.524 29.8447 40.8821 29.5208 41.2146C28.8472 41.9051 28.1822 42.6042 27.4661 43.2522C27.2956 43.4056 26.929 43.4483 26.6818 43.3971C26.1446 43.2778 25.6246 43.0731 24.9767 42.86C25.1642 43.4397 25.3006 43.9172 25.4797 44.3775C25.6672 44.8379 25.5649 45.1875 25.2154 45.537C22.7856 47.9497 20.3729 50.388 17.9431 52.8008C16.3318 54.395 14.4135 54.9492 12.2395 54.2671C10.0996 53.5936 8.82079 52.0676 8.39452 49.8595C8.31779 49.1348 8.31779 48.5806 8.38599 48.1288C8.58208 46.7903 9.23854 45.7161 10.1934 44.7782C12.555 42.4423 14.908 40.0892 17.244 37.7191C17.6532 37.3014 18.0369 37.1735 18.5825 37.4122C19.0003 37.5998 19.4606 37.7021 20.0063 37.8726C19.8017 37.2502 19.6482 36.7387 19.4692 36.2442C19.3242 35.852 19.4095 35.5536 19.6994 35.2723C20.2961 34.6926 20.8844 34.0958 21.4727 33.5075C22.0098 32.9704 22.2996 32.9704 22.8453 33.5246C23.408 34.0872 23.9792 34.6585 24.5077 35.1956C25.1216 34.5817 26.264 33.3796 26.2384 33.354C24.0047 31.1118 21.754 28.8782 19.5288 26.6274C19.3242 26.4228 19.1537 26.4995 18.9491 26.5592C14.4903 27.8466 9.87796 25.2804 8.63323 20.8045C8.51387 20.3612 8.42862 19.9178 8.33484 19.466C8.33484 18.8862 8.33484 18.315 8.33484 17.7353C8.4542 17.2323 8.54798 16.7293 8.68439 16.2348C8.90605 15.4505 9.46873 15.3055 10.057 15.8853C10.8669 16.6867 11.6513 17.5051 12.4782 18.2895C12.6146 18.4259 12.8875 18.5111 13.075 18.4855C13.9446 18.3747 14.8057 18.2042 15.6668 18.0678C15.9396 18.0252 16.0504 17.9143 16.0931 17.6415C16.2209 16.7719 16.3915 15.9108 16.5108 15.0498C16.5364 14.8622 16.4511 14.5894 16.3147 14.453C15.5219 13.6175 14.6949 12.8161 13.885 12.0061C13.3478 11.4605 13.4843 10.8893 14.2174 10.6762C14.7205 10.5312 15.2405 10.4289 15.7606 10.3096C16.3403 10.3096 16.9115 10.3096 17.4912 10.3096C17.5595 10.3351 17.6191 10.3692 17.6873 10.3863C22.8453 11.1365 25.9912 15.9961 24.5504 21.0176C24.4736 21.2734 24.5504 21.4098 24.7124 21.5718C26.8864 23.7373 29.0519 25.9027 31.2173 28.0768C31.2941 28.1535 31.3793 28.2302 31.4816 28.3155C31.5498 28.2558 31.6095 28.2217 31.6607 28.1705C35.1135 24.7177 38.5663 21.2734 42.0021 17.812C42.1129 17.7012 42.1812 17.4881 42.1897 17.3261C42.2067 16.465 42.2153 15.5954 42.1897 14.7343C42.1726 14.2569 42.3517 13.9585 42.7694 13.7283C44.466 12.8075 46.1455 11.8612 47.825 10.9234C48.1746 10.7273 48.5071 10.5142 48.8481 10.3096C49.0186 10.3096 49.1977 10.3096 49.3682 10.3096L49.3596 10.3266Z" stroke="black" stroke-miterlimit="10"></path><path d="M47.7227 44.906C47.7227 45.5369 47.7142 46.1678 47.7227 46.8072C47.7313 47.1994 47.5778 47.4636 47.2282 47.6342C45.9153 48.2821 44.6194 48.9556 43.2895 49.578C43.0593 49.6888 42.6841 49.6718 42.4454 49.5609C41.1325 48.9471 39.8451 48.2736 38.5407 47.6342C38.1912 47.4636 38.0292 47.2079 38.0377 46.8157C38.0463 45.5198 38.0463 44.2239 38.0377 42.9366C38.0377 42.5444 38.2082 42.2972 38.5493 42.1267C39.8366 41.4958 41.124 40.8564 42.4028 40.1999C42.7268 40.0379 43.0166 40.0294 43.3406 40.1999C44.6194 40.8478 45.9068 41.4958 47.1941 42.1267C47.5607 42.3057 47.7313 42.57 47.7227 42.9792C47.7057 43.6272 47.7227 44.2751 47.7227 44.923V44.906Z" stroke="black" stroke-miterlimit="10"></path><path d="M47.7227 44.906C47.7227 45.5369 47.7142 46.1678 47.7227 46.8072C47.7313 47.1994 47.5778 47.4636 47.2282 47.6342C45.9153 48.2821 44.6194 48.9556 43.2895 49.578C43.0593 49.6888 42.6841 49.6718 42.4454 49.5609C41.1325 48.9471 39.8451 48.2736 38.5407 47.6342C38.1912 47.4636 38.0292 47.2079 38.0377 46.8157C38.0463 45.5198 38.0463 44.2239 38.0377 42.9366C38.0377 42.5444 38.2082 42.2972 38.5493 42.1267C39.8366 41.4958 41.124 40.8564 42.4028 40.1999C42.7268 40.0379 43.0166 40.0294 43.3406 40.1999C44.6194 40.8478 45.9068 41.4958 47.1941 42.1267C47.5607 42.3057 47.7313 42.57 47.7227 42.9792C47.7057 43.6272 47.7227 44.2751 47.7227 44.923V44.906Z" stroke="url(#paint0_linear_506_11974)" stroke-miterlimit="10"></path><path d="M13.7656 50.9846C16.2295 48.5207 18.7445 46.0057 21.2766 43.4736" stroke="black" stroke-linecap="round" stroke-linejoin="round"></path><path d="M11.6257 48.9472C14.1407 46.4321 16.6558 43.9171 19.1708 41.3936" stroke="black" stroke-linecap="round" stroke-linejoin="round"></path><path d="M17.3548 19.875L18.736 21.2561" stroke="black" stroke-linecap="round" stroke-linejoin="round"></path><path d="M27.9776 34.9395L26.119 36.798" stroke="black" stroke-linecap="round" stroke-linejoin="round"></path></g><defs><linearGradient id="paint0_linear_506_11974" x1="41.2792" y1="43.3518" x2="51.2641" y2="52.1339" gradientUnits="userSpaceOnUse"><stop offset="0.236106" stop-color="#DA291C"></stop><stop offset="1" stop-color="#FFCD00"></stop></linearGradient><clipPath id="clip0_506_11974"><rect width="45.1" height="45.1" fill="white" transform="translate(7.90002 9.90039)"></rect></clipPath></defs></svg> 