<?xml version="1.0" encoding="UTF-8"?> <svg xmlns="http://www.w3.org/2000/svg" width="64" height="64" viewBox="0 0 64 64" fill="none"><path d="M25.1099 47.0897L25.0399 47.0297L48.0899 23.9797L52.7599 28.6497L53.4299 9.27969L34.0599 9.94969L38.7299 14.6197L15.6799 37.6697L15.6099 37.5997L38.5899 14.6197L33.8299 9.8597H33.9399L53.5199 9.17969V9.2397L52.8399 28.8697L52.7699 28.7997L48.0899 24.1197L25.1099 47.0897Z" stroke="black" stroke-linecap="round" stroke-linejoin="round"></path><path d="M25.1099 47.0897L25.0399 47.0297L48.0899 23.9797L52.7599 28.6497L53.4299 9.27969L34.0599 9.94969L38.7299 14.6197L15.6799 37.6697L15.6099 37.5997L38.5899 14.6197L33.8299 9.8597H33.9399L53.5199 9.17969V9.2397L52.8399 28.8697L52.7699 28.7997L48.0899 24.1197L25.1099 47.0897Z" stroke="url(#paint0_linear_497_13792)" stroke-linecap="round" stroke-linejoin="round"></path><path d="M53.0797 34.8193L43.2897 35.1793L45.8097 37.6993L34.7197 48.7893L39.1197 53.1793L50.2097 42.0993L52.7197 44.6093L53.0797 34.8193Z" stroke="white" stroke-linecap="round" stroke-linejoin="round"></path><path d="M28.84 10.5801L19.05 10.9401L21.56 13.4501L10.48 24.5401L14.88 28.9401L25.96 17.8501L28.48 20.3701L28.84 10.5801Z" stroke="white" stroke-linecap="round" stroke-linejoin="round"></path><path d="M13.7079 40.4784L11.8071 42.3818L11.8708 42.4454L13.7716 40.542L13.7079 40.4784Z" stroke="white" stroke-linecap="round" stroke-linejoin="round"></path><path d="M21.3282 38.5492L10.856 49.0215L10.9196 49.0851L21.3918 38.6129L21.3282 38.5492Z" stroke="white" stroke-linecap="round" stroke-linejoin="round"></path><path d="M22.2834 43.3297L18.4688 47.1377L18.5323 47.2014L22.347 43.3934L22.2834 43.3297Z" stroke="white" stroke-linecap="round" stroke-linejoin="round"></path><defs><linearGradient id="paint0_linear_497_13792" x1="28.2984" y1="22.1489" x2="67.7607" y2="56.471" gradientUnits="userSpaceOnUse"><stop offset="0.236106" stop-color="#DA291C"></stop><stop offset="1" stop-color="#FFCD00"></stop></linearGradient></defs></svg> 