<?xml version="1.0" encoding="UTF-8"?> <svg xmlns="http://www.w3.org/2000/svg" width="64" height="64" viewBox="0 0 64 64" fill="none"><mask id="mask0_497_13772" style="mask-type:alpha" maskUnits="userSpaceOnUse" x="7" y="7" width="50" height="48"><path d="M56.9998 7.88281H7.97656V54.5828H56.9998V7.88281Z" fill="white"></path></mask><g mask="url(#mask0_497_13772)"><path d="M32.6161 9.65947C32.808 9.65947 32.9785 9.73053 33.0637 9.8442L40.8719 19.862C40.9288 19.9331 40.9288 19.9757 40.9004 20.0254C40.8435 20.1391 40.673 20.2528 40.4243 20.2528H35.6499V55.1161H29.2698V20.2528H24.8008C24.5451 20.2528 24.3746 20.1391 24.3248 20.0254C24.2964 19.9757 24.2964 19.9331 24.3532 19.862L32.1614 9.8442C32.2467 9.73053 32.4243 9.65947 32.609 9.65947M32.609 8.59375C32.1188 8.59375 31.6285 8.7927 31.3159 9.19057L23.5077 19.2083C22.8044 20.1107 23.5504 21.3256 24.8008 21.3256H28.2041V56.1889H36.7156V21.3256H40.4243C41.6748 21.3256 42.4137 20.1107 41.7174 19.2083L33.9092 9.19057C33.5966 8.7927 33.1064 8.59375 32.6161 8.59375H32.609Z" fill="black"></path><path d="M32.6161 9.65947C32.808 9.65947 32.9785 9.73053 33.0637 9.8442L40.8719 19.862C40.9288 19.9331 40.9288 19.9757 40.9004 20.0254C40.8435 20.1391 40.673 20.2528 40.4243 20.2528H35.6499V55.1161H29.2698V20.2528H24.8008C24.5451 20.2528 24.3746 20.1391 24.3248 20.0254C24.2964 19.9757 24.2964 19.9331 24.3532 19.862L32.1614 9.8442C32.2467 9.73053 32.4243 9.65947 32.609 9.65947M32.609 8.59375C32.1188 8.59375 31.6285 8.7927 31.3159 9.19057L23.5077 19.2083C22.8044 20.1107 23.5504 21.3256 24.8008 21.3256H28.2041V56.1889H36.7156V21.3256H40.4243C41.6748 21.3256 42.4137 20.1107 41.7174 19.2083L33.9092 9.19057C33.5966 8.7927 33.1064 8.59375 32.6161 8.59375H32.609Z" fill="url(#paint0_linear_497_13772)"></path><path d="M27.6922 62.3345V45.0769C27.6922 40.6364 25.8023 38.3842 21.9089 38.1994V41.1977C21.9089 42.3557 21.0563 43.2936 20.019 43.2936C19.6282 43.2936 19.2588 43.1586 18.9319 42.9099L8.91418 35.1018C8.40263 34.7039 8.11133 34.0786 8.11133 33.3895C8.11133 32.7003 8.40263 32.0751 8.91418 31.6772L18.9319 23.869C19.2517 23.6203 19.6282 23.4854 20.019 23.4854C21.0634 23.4854 21.9089 24.4232 21.9089 25.5813V28.6221C29.1132 28.8282 37.2695 33.219 37.2695 45.084V62.3416H27.6922V62.3345Z" fill="black"></path><path d="M20.0192 24.0188C20.7225 24.0188 21.3762 24.6654 21.3762 25.5819V29.1485C29.5396 29.1485 36.7368 34.2853 36.7368 45.0846V61.8094H28.2252V45.0846C28.2252 39.685 25.4614 37.6601 21.3762 37.6601V41.1983C21.3762 42.1148 20.7225 42.7614 20.0192 42.7614C19.7634 42.7614 19.5005 42.6761 19.2589 42.4914L9.24116 34.6832C8.44542 34.0651 8.44542 32.7223 9.24116 32.1041L19.2589 24.2959C19.5005 24.1112 19.7634 24.026 20.0192 24.026M20.0192 22.9602C19.5147 22.9602 19.0245 23.1308 18.6053 23.4576L8.58748 31.2658C7.94805 31.7631 7.58572 32.5375 7.57861 33.3972C7.57861 34.2498 7.94805 35.0313 8.58748 35.5287L18.6053 43.3368C19.0245 43.6637 19.5076 43.8342 20.0192 43.8342C21.3549 43.8342 22.4419 42.6548 22.4419 41.2054V38.7827C25.6533 39.1308 27.1595 41.1557 27.1595 45.0846V62.8751H37.8025V45.0846C37.8025 39.7418 36.0902 35.3226 32.8433 32.2889C30.1719 29.7951 26.5058 28.3315 22.4419 28.1112V25.5819C22.4419 24.1325 21.3549 22.9531 20.0192 22.9531V22.9602Z" fill="black"></path><path d="M20.0191 25.084C20.1257 25.084 20.3104 25.2474 20.3104 25.5813V30.2137H21.3761C25.3264 30.2137 28.8859 31.5068 31.3868 33.8442C34.1861 36.4588 35.6639 40.3452 35.6639 45.0841V60.7431H29.2838V45.0841C29.2838 39.6134 26.4703 36.5938 21.369 36.5938H20.3033V41.1977C20.3033 41.5316 20.1115 41.6951 20.012 41.6951C19.9836 41.6951 19.9481 41.6809 19.9125 41.6524L9.89475 33.8442C9.78108 33.759 9.71002 33.5814 9.71002 33.3966C9.71002 33.2119 9.78108 33.0343 9.89475 32.949L19.9125 25.1409C19.9552 25.1124 19.9836 25.0982 20.012 25.0982M20.012 24.0325C19.7562 24.0325 19.4933 24.1178 19.2518 24.3025L9.23401 32.1107C8.43827 32.7288 8.43827 34.0716 9.23401 34.6897L19.2518 42.4979C19.4933 42.6826 19.7562 42.7679 20.012 42.7679C20.7154 42.7679 21.369 42.1213 21.369 41.2048V37.6666C25.4472 37.6666 28.2181 39.6915 28.2181 45.0912V61.8159H36.7297V45.0912C36.7297 34.2919 29.5324 29.155 21.369 29.155V25.5885C21.369 24.6719 20.7154 24.0254 20.012 24.0254V24.0325Z" fill="white"></path><path d="M27.6924 62.3348V45.0772C27.6924 33.2121 35.8487 28.8214 43.053 28.6153V25.5744C43.053 24.4164 43.9056 23.4785 44.9429 23.4785C45.3266 23.4785 45.7031 23.6135 46.0299 23.8622L56.0477 31.6704C56.5593 32.0683 56.8505 32.6935 56.8505 33.3826C56.8505 34.0718 56.5593 34.697 56.0477 35.0949L46.0299 42.9031C45.7102 43.1518 45.3337 43.2867 44.9429 43.2867C43.8985 43.2867 43.053 42.3489 43.053 41.1908V38.1926C39.1667 38.3773 37.2697 40.6296 37.2697 45.0701V62.3276H27.6924V62.3348Z" fill="black"></path><path d="M44.9498 24.0181C45.2056 24.0181 45.4685 24.1034 45.7101 24.2881L55.7279 32.0963C56.5236 32.7144 56.5236 34.0573 55.7279 34.6754L45.7101 42.4836C45.4685 42.6683 45.2056 42.7535 44.9498 42.7535C44.2465 42.7535 43.5928 42.107 43.5928 41.1905V37.6523C39.5147 37.6523 36.7438 39.6772 36.7438 45.0768V61.8016H28.2322V45.0768C28.2322 34.2775 35.4294 29.1407 43.5928 29.1407V25.5741C43.5928 24.6576 44.2465 24.011 44.9498 24.011M44.9498 22.9453C43.6141 22.9453 42.5271 24.1247 42.5271 25.5741V28.1034C38.4561 28.3237 34.7971 29.7873 32.1257 32.2811C28.8859 35.3077 27.1665 39.734 27.1665 45.0768V62.8673H37.8095V45.0768C37.8095 41.155 39.3157 39.123 42.5271 38.7749V41.1976C42.5271 42.647 43.6141 43.8264 44.9498 43.8264C45.4543 43.8264 45.9445 43.6559 46.3637 43.329L56.3815 35.5208C57.0209 35.0235 57.3904 34.2491 57.3904 33.3894C57.3904 32.5368 57.0209 31.7553 56.3815 31.258L46.3637 23.4498C45.9445 23.1229 45.4614 22.9524 44.9498 22.9524V22.9453Z" fill="black"></path><path d="M44.9498 25.0839C44.9498 25.0839 45.0138 25.0981 45.0493 25.1265L55.0671 32.9347C55.1808 33.0199 55.2518 33.1975 55.2518 33.3823C55.2518 33.5741 55.1808 33.7446 55.0671 33.8299L45.0493 41.6381C45.0067 41.6665 44.9782 41.6807 44.9498 41.6807C44.8432 41.6807 44.6585 41.5173 44.6585 41.1834V36.5794H43.5928C38.4916 36.5794 35.678 39.5919 35.678 45.0697V60.7287H29.2979V45.0697C29.2979 40.3379 30.7757 36.4516 33.575 33.8299C36.083 31.4853 39.6354 30.1993 43.5857 30.1993H44.6514V25.567C44.6514 25.233 44.8433 25.0696 44.9427 25.0696M44.9427 24.0039C44.2394 24.0039 43.5857 24.6505 43.5857 25.567V29.1336C35.4223 29.1336 28.2251 34.2704 28.2251 45.0697V61.7944H36.7367V45.0697C36.7367 39.67 39.5004 37.6452 43.5857 37.6452V41.1834C43.5857 42.0999 44.2394 42.7464 44.9427 42.7464C45.1985 42.7464 45.4614 42.6611 45.7029 42.4764L55.7207 34.6682C56.5165 34.0501 56.5165 32.7073 55.7207 32.0892L45.7029 24.281C45.4614 24.0963 45.1985 24.011 44.9427 24.011V24.0039Z" fill="white"></path></g><defs><linearGradient id="paint0_linear_497_13772" x1="29.5118" y1="24.8763" x2="60.1913" y2="35.3878" gradientUnits="userSpaceOnUse"><stop offset="0.236106" stop-color="#DA291C"></stop><stop offset="1" stop-color="#FFCD00"></stop></linearGradient></defs></svg> 