<?xml version="1.0" encoding="UTF-8"?> <svg xmlns="http://www.w3.org/2000/svg" width="1313" height="281.677" viewBox="0 0 1313 281.677"><g id="_1200px-Logo_akeneo" data-name="1200px-Logo_akeneo" transform="translate(-64.616 -149.1)"><path id="Path_12" data-name="Path 12" d="M849.3,303.6c-2.2-22.1-9.7-41.4-29.3-53.9-35.9-22.8-87.2-6.8-103.3,32.4-9.5,23-10,47-3.8,70.9,6.6,25.4,23.1,41.3,48.3,48.1,20.4,5.5,40.9,4.7,61.4.3,19.6-4.2,20.6-6.4,13.5-25.1-1.3-3.6-2.7-4.7-6.7-3.2a105.592,105.592,0,0,1-43.2,5.9c-27.3-1.7-41.7-15.7-44.4-42.8-.4-4.6.3-6.5,5.6-6.4,15.9.4,31.8.2,47.7.2,16.3,0,32.7-.1,49,.1,3.7.1,5.1-1.1,5.2-4.8C849.5,318,850,310.8,849.3,303.6ZM814.7,307c-11.4-.1-22.7,0-34.1,0-11.1,0-22.3-.3-33.4.1-4.8.2-5.4-1.4-4.5-5.6,3.5-16.5,9.7-31,28-35.6,27-6.8,46.5,8.4,48.7,37.4C819.7,307.3,817.3,307,814.7,307Z" transform="translate(1.331)" fill="#fff"></path><path id="Path_13" data-name="Path 13" d="M1196.5,295c-5-26.4-18.7-45.5-45.7-52.9-10.5-2.8-21.3-2.9-32-1.3-27.7,4.1-46.3,19.6-55.6,45.8-6.4,18-7.2,36.6-4.4,55.5,5,33.2,24.4,54,57.3,60.4,18.2,3.6,36.6,2.8,54.8-1.1,19.3-4.2,20.4-6.6,13.5-25.1-1.3-3.6-2.5-4.8-6.6-3.3a108.945,108.945,0,0,1-43.9,5.9c-27.1-1.8-42.1-16.9-43.9-44.1-.3-4.3,1.1-5.2,5-5.1,16.1.2,32.2.1,48.3.1,16.3,0,32.7-.1,49,.1,3.7.1,5.1-1.1,5.3-4.8C1198.1,315.1,1198.4,305,1196.5,295Zm-33.3,12.1c-11.6-.1-23.1-.1-34.7-.1-11.2,0-22.3-.1-33.4.1-3.7.1-5.2-.5-4.3-4.8,3.4-17,9.7-31.7,28.6-36.6,25.9-6.8,47.5,10.1,48.3,37.4C1167.8,306.7,1166.2,307.1,1163.2,307.1Z" transform="translate(2.417)" fill="#fff"></path><path id="Path_14" data-name="Path 14" d="M1374.7,310.6a130.154,130.154,0,0,0-2.5-15.2c-9.3-39.4-42.4-61-83.6-54.5-27.3,4.3-45.7,19.7-54.9,45.8-4.7,13.2-5.8,26.9-5.5,40.8,1.4,49.4,30.3,78.2,77.2,77.1,31.8-.7,56-19,65.2-49.4a110.845,110.845,0,0,0,4.6-32.9C1375.1,318.4,1375.1,314.5,1374.7,310.6Zm-37.4,45.8c-6.1,16.6-18.5,24.1-36.5,23.9-17.3-.3-28.4-8.2-34.8-24.6-4.2-10.7-5.2-22-5.2-31.5,0-13,1-24,5.1-34.5q9.3-24.3,34.8-24.6c18.3-.2,30.5,7.2,36.7,23.7A95.958,95.958,0,0,1,1337.3,356.4Z" transform="translate(2.416)" fill="#fff"></path><path id="Path_15" data-name="Path 15" d="M521.3,392.2V341h-.4c0-17.7.8-35.5-.2-53.1-1.3-23.6-14-38.7-36.1-44.7-19.1-5.2-38.5-3.6-57.7-.1-17.2,3.2-19.1,7.2-12.3,23.7,1.6,3.8,3.3,4.7,7.4,3.5,14.6-4.2,29.4-6.4,44.6-4,15.4,2.4,23.2,10.6,24.5,25.7.9,10.8.9,10.8-10,10.2-1.4-.1-2.9-.2-4.3-.3-17-.9-33.8-.1-49.5,7.6-21.4,10.4-31.6,29.4-28.5,53.1,2.8,21.8,16.4,35.3,40.2,39.9,26.8,5.2,53,1,79.2-4.6C521.9,397,521.3,394.6,521.3,392.2Zm-34-14.3c-12.1,2-24.2,3-36.4,1.2-12.1-1.7-20-8.9-21.6-19.6-2.1-14.3,3.2-25,15-30.1,10.8-4.6,22.2-4.3,33.5-3.6,13.5.9,13.5,1,13.5,14.5v12.3c0,6.8-.2,13.6.1,20.4C491.5,376.1,490.3,377.3,487.3,377.9Z" transform="translate(0.679)" fill="#fff"></path><path id="Path_16" data-name="Path 16" d="M918.3,267.3c4-4.4,7-8.2,10.5-11.6,17-16.7,46.3-21.1,67.4-10.1,17.1,9,22.6,24.9,24.4,42.6,1.6,15.4.6,30.9.7,46.3.1,20.4-.1,40.8.1,61.2.1,4.3-1.4,5.7-5.4,6a163.509,163.509,0,0,1-19.8.1c-4.5-.2-5.7-1.9-5.7-6.4.2-29.3.1-58.5.1-87.8,0-8.3-.8-16.5-3.8-24.3-3.8-9.9-11-15.1-21.6-15.8-20.4-1.4-36.5,10.5-42.5,31.4a83.655,83.655,0,0,0-2.8,23.9c0,24.3-.1,48.6.1,73,0,4.3-1.3,6.1-5.4,6-.2,0-.4.1-.6.1-8,.7-17.6,2.9-23.5-1.7-4.4-3.3-1.2-12.8-1.3-19.5-.1-43.7,0-87.4-.2-131.1,0-5.2,1.6-6.8,6.6-6.9,24.7-.2,19.2-2.2,22.1,19.2A51.826,51.826,0,0,1,918.3,267.3Z" transform="translate(1.691)" fill="#fff"></path><path id="Path_17" data-name="Path 17" d="M599,321.9c-3.2-1.9-2.6.7-2.6,2.3v28.4c0,14.6-.1,29.3.1,43.9,0,3.3-.7,4.8-4.3,5.1a119.876,119.876,0,0,1-21.6.1c-4.1-.3-5-2-5-5.8.2-15.7.1-31.3.1-47,0-55.6.1-111.3-.1-166.9,0-4.7,1.2-6.9,6-6.6.2,0,.4-.1.6-.1,7.8-.7,17.2-2.8,22.9,1.6,4.4,3.4,1.2,12.8,1.3,19.5.1,38.7,0,77.5.2,116.2,0,1.2-3,5.6,2.4,4.2A3.453,3.453,0,0,1,599,321.9Z" transform="translate(0.949)" fill="#fff"></path><path id="Path_18" data-name="Path 18" d="M599,321.9v-5q21-27.9,42.1-55.7c1.5-2,3.4-3.7,4.5-5.9,5.7-12.1,16-14,27.9-12.8,4.5.5,9.1-.2,13.5,1.3.5,2.6-1.6,3.7-2.8,5.1-16.6,21.3-33.3,42.6-50.1,63.7-2.8,3.5-3.1,5.6-.1,9.3,19.6,24.2,38.8,48.7,58.2,73.1,1.4,1.7,2.6,3.5,4.3,5.8-11.1,2.2-21.5,1.8-31.9.5a5.021,5.021,0,0,1-3.5-2.3C640.4,373.2,619.7,347.6,599,321.9Z" transform="translate(1.065)" fill="#fff"></path><path id="Path_19" data-name="Path 19" d="M332.4,244c7.3,15.8,7.3,31.3-1.1,46.7-.4-.1-.9-.2-1.2.1-8.5,10.8-20.4,15.5-33.1,18.8-8.6,2.8-17.5,3.7-26.3,5.2a3.553,3.553,0,0,1-1.1-1.6c-.4-5,1.9-9.7,1.8-14.7.3-4,2.5-7.6,2.8-11.6.8-5.4,2.5-10.8,2.1-16.3,2.2-10.5.8-21.1,1.2-31.6-.1-3.8.5-7.6-.4-11.3a6.8,6.8,0,0,1-.2-2c.3-3.4,2.6-3.9,5.3-3.5a41.35,41.35,0,0,0,15.3-.6c5.8-1.4,9.7,1.9,13.8,5.1,3.2,2.4,6.3,5.3,11,3,1.6-.8,3.1.6,4.1,2h0c1.1,5.8-5.3,5.2-7.4,8.9a8.8,8.8,0,0,0,8.1,1.9C329.2,241.9,331.2,241.5,332.4,244Z" transform="translate(0.399)" fill="#682f8c"></path><path id="Path_20" data-name="Path 20" d="M132.7,392.8c-3-.6-6-1-8.6-2.8,1.4-3.9-.9-7.5-.6-11.5.4-6.5-.9-12.6,3.2-18.9,2.5-3.8,3.1-10,1.3-15.3-2.1-6.3,1.1-11.9,2.4-17.8,6.1-.6,9.1,5,14,6.8a119.344,119.344,0,0,0,18.7,9.9c8.5,4.2,18.2,5.8,25.9,11.7a3.594,3.594,0,0,1,.7,1.8,4.837,4.837,0,0,1-1,3.5c-12.1,13.2-24.3,26.4-42.5,31.5C141.6,392.9,137.1,391.7,132.7,392.8Z" fill="#622985"></path><path id="Path_21" data-name="Path 21" d="M130.4,326.7c.2,3.8.5,7.6-1.6,11.2-1.8,3.1,2.7,6.3.2,9.9-.6.9,2.8.7,4.5,2-2.9,2.5-7.4,4.6-3.9,9.6.2.3-.8,1.9-1.6,2.3-3,1.8-5.3,3.6-2.1,7.2a2.107,2.107,0,0,1,.3,1.7c-2.5,5-1.5,9.9.3,14.9.7,2-.5,3.6-2.4,4.4-7.1-1.6-12.4-6-17.3-11.1a16.024,16.024,0,0,0-4.1-4.9c-10.8-13.1-17.6-28.1-22.1-44.3,0-4.3,3.6-5.5,6.5-6.2,11.8-2.8,23.7-5.4,35.9-3.2,3,.7,5.7,1.9,7.5,4.6A1.844,1.844,0,0,1,130.4,326.7Z" fill="#602983"></path><path id="Path_22" data-name="Path 22" d="M297.8,308.3c6.8-3,14.1-4.7,20.6-8.8,3.9-2.5,6.8-5.8,10.1-8.8.8-.7,1.8-3,2.8,0-.9,2.2-1.7,4.3-2.6,6.5-1.2,1.4-1.5,3.3-2.4,4.8-3.3,8.3-8.1,15.7-12.7,23.3-15.1,24.7-27.5,50.3-30.7,79.4-1.6,7.3.2,14.9-1.9,22.3-7.3-14.6-9.1-30.6-11.5-46.3a15.441,15.441,0,0,1-.5-3.1,20.827,20.827,0,0,0-1-7c-.6-4.4-.9-8.9.3-13.3,3.4-6.4,7.8-12.4,11.8-18.2C286.9,329.3,290.3,317.6,297.8,308.3Z" transform="translate(0.393)" fill="#682b8e"></path><path id="Path_23" data-name="Path 23" d="M270.5,380c2.1,10.4,4,20.8,6.3,31.1,1.1,4.9,2.5,9.8,4.2,15.9,2-8.3-1-15.5,2-22.3,0,7.7,0,15.4-.1,23.2-.1,4.9-2.1,2.4-3.8.8-6.1-6.6-11.7-13.6-18.2-19.8-2-2-4.3-3.8-5.2-6.7-1.5-8.3-6.6-15-10.5-22.2-9.3-17-17.9-34.4-27.4-51.2a38.009,38.009,0,0,0-4.6-6.5c-.9-1.9-.2-3.6.6-5.3,1.2-2.2,2.4-4.3,4.8-5.4a4.089,4.089,0,0,1,2.7-.3c7.6-.5,11.2,3.9,14.3,10.2,9.6,19.6,20.6,38.5,30.7,57.8C267.3,381.3,268.2,383.3,270.5,380Z" fill="#793a9f"></path><path id="Path_24" data-name="Path 24" d="M132.7,392.8c3.3-3.5,7.8-1.3,11.7-2.2a58.065,58.065,0,0,0,24.3-12.8c7.3-6.3,15.3-12.4,20-21.3,4.5-2.5,7.6,1.2,11,2.8a14.612,14.612,0,0,1,5.6,4.6c1.8,4.6-2.3,7.5-3.5,11.2-2.6,8.2-6.9,15.9-14.1,21.4-3,2.3-6.3,1.2-9.5,1.4-2.4.1-4.9.5-7.3-.4A149.165,149.165,0,0,1,132.7,392.8Z" fill="#5e2284"></path><path id="Path_25" data-name="Path 25" d="M326.4,231.6c-.8-.3-1.9-1.1-2.2-.9-6.4,5.1-12.4-.1-15.2-3.2-8.9-10.1-19.8.6-28.9-4.2-1.9-1-2,1.9-2.2,3.4a1.436,1.436,0,0,1-1.8-.5c-1.9-4.3-1.7-9.1-3.1-13.6-.6-3.8-1.9-7.5-1.5-11.5.4-3.2,2.5-4.5,5.5-4.7,6.3-.3,12.6-.2,18.9-1.1,4.1-.6,5.9,3,8.6,5.1C313.1,210,320.7,220.1,326.4,231.6Z" fill="#6a328c"></path><path id="Path_26" data-name="Path 26" d="M171,397.5c1,0,2.1-.4,3.1-.1,9.8,2.8,16.8-3.7,20.2-10,2.3-4.2,7.4-8.5,6.4-14.6-.7-4.1,5.6-4.6,4.2-8.9,2.5-1.7,4.2.3,6,1.4q6.6,4.2,13.2,8.7c2.6,2.5,6.1,4.2,7.3,8-1.5,3.8-3.1,7.5-4.6,11.3-3.5,8.2-5.4,9.1-14.6,7.8C198.3,399.9,184.6,398.7,171,397.5Z" fill="#622588"></path><path id="Path_27" data-name="Path 27" d="M124.2,321.9c-11.4-2.1-22.5.6-33.7,2.3a16.4,16.4,0,0,0-9.9,5.5,91.057,91.057,0,0,1-6.1-22.3c-1.2-8.7.9-11.4,9.6-10.4,5.4.6,11.1-1.8,16.2,1.7a37.546,37.546,0,0,1,7.1,6.1c4.6,4.6,9.7,8.6,14.7,12.7C123.3,318.7,124.9,319.8,124.2,321.9Z" fill="#612b83"></path><path id="Path_28" data-name="Path 28" d="M124.2,321.9l-2.7-3.6c6.9-3.3,14.4-4.4,21.9-5.3,14.2-1.9,28.5-2.6,42.6-4.7,2.9-.4,6.1-1.1,9.1,0a89.587,89.587,0,0,1,17.1,2.7c1.9,1.4,4.4-.3,6.2,1.2-1.3,1.6-2.5,3.3-3.8,4.9-6.5,3-13.6,3.1-20.5,4-18.8,2.5-37.8,3.3-56.6,5.5a11.882,11.882,0,0,1-7.2-.9C128.4,324.4,126.3,323.1,124.2,321.9Z" fill="#8b5ca9"></path><path id="Path_29" data-name="Path 29" d="M304.4,200.6c-4.2-3.3-8.7-4.1-14.1-2.6-4,1.1-8.5.4-12.8.2-2.9-.1-4.8.6-4.7,3.9-2.3,0-2.7-2.2-3.9-3.5-1.8-6.2-2.7-12.6-5.7-18.4-2.6-7.6-6.5-14.6-10.1-21.7-.9-1.8-2.3-3.4-2.1-5.7.3-.9.6-1.8,1.9-1.5C271.8,166,289.4,182,304.4,200.6Z" fill="#6d368e"></path><path id="Path_30" data-name="Path 30" d="M212,401.1c8.5-.2,11.8-2.6,13.9-10.9a24.635,24.635,0,0,1,4.9-9,2.741,2.741,0,0,1,2.9.1c8.2,6.4,16.8,12.4,23.1,20.9,6.3,6.9,12.7,13.9,19,20.8,1.5,1.6,3.5,3,3.2,5.6-15.2-10.2-31.2-18.9-49.1-23.4C224,403.9,218,402.5,212,401.1Z" fill="#65298b"></path><path id="Path_31" data-name="Path 31" d="M195.2,308.2c-4.4.9-8.8,2-13.2,2.5-12.5,1.4-25,2.6-37.5,3.7-7.7.7-15,4.2-22.9,3.8A58.32,58.32,0,0,1,107,305.7c15.6,1.3,30.6-2.8,45.8-5.3,3.9-.6,7.7-.9,11.5.2C174.5,303.2,184.8,305.7,195.2,308.2Z" fill="#8e60aa"></path><path id="Path_32" data-name="Path 32" d="M100.8,300.8c-7.5-3.5-15.4-2.3-23.1-1.4-5.1.6-2.5,5.2-3.3,8-5-17-7.1-34.6-8.7-52.2a5.415,5.415,0,0,1,1-6c4.8,6.5,8,13.5,12.2,19.9,2.7,5.4,6.9,9.8,10.3,14.7a148.654,148.654,0,0,0,10.9,12.9C101.1,298,101.9,299.3,100.8,300.8Z" fill="#652f86"></path><path id="Path_33" data-name="Path 33" d="M218.5,312.1c-2.1-.4-4.5.8-6.2-1.2,7.6,1.9,7.8-5.2,10.9-8.8,4.8-2.8,10.3-2.4,15.5-2.8,7.1-.5,14.2-.9,21.3-2.3,4.3-.8,9-1.5,13,1.4.2,5.1-1.5,9.9-2.5,14.8-3.5,2.9-7.7,1.8-11.7,2-5.1.2-10.1-.2-15.2-.1-7.9,1.3-15-2.8-22.7-3.1A19.268,19.268,0,0,0,218.5,312.1Z" fill="#8d5aad"></path><path id="Path_34" data-name="Path 34" d="M100.8,300.8c-.5-1.2-1.1-2.4-1.6-3.6a5.829,5.829,0,0,1,5.2-2.8c10,.1,19.7-1.7,29.5-3a11.57,11.57,0,0,1,5.5.6c8.3,2.9,16.5,5.8,24.8,8.7-10.1.3-19.6,3.6-29.7,4.6-6.4.6-13.1,1.1-19.3,3.1-3.9,1.3-5.3-2.8-8.3-2.7C104.9,304.1,102.9,302.5,100.8,300.8Z" fill="#9165ac"></path><path id="Path_35" data-name="Path 35" d="M279.1,237.9c-.3,11.1,1.1,22.3-1.2,33.3-.1,4.6-2.3,6.8-7.1,7-13.1.6-26,2.7-39,4.1a66.059,66.059,0,0,1,5-13.7c2.5-3.3,6.1-4.2,9.8-4,8.9.5,17.4-2.6,26.2-2.4,2.3.1,3.3-1.2,3.4-3.4.1-2,0-4.1.1-6.1,0-2.8-.1-5.6,0-8.3,0-2.1-.1-4.3,1.1-6.2A1.151,1.151,0,0,1,279.1,237.9Z" fill="#9766b5"></path><path id="Path_36" data-name="Path 36" d="M273,298.4c-13.5-.3-26.6,2.9-40,3.5-3.3.2-6.5.1-9.8.1a41.113,41.113,0,0,1,5-11.1c1.5-2.3,3.9-2.9,6.4-2.9,8,0,15.9-1.6,24-1.4,3.1.1,6.1-.8,9.1-1.4,2.9-.6,5.8-.8,7.8,2C276.4,291.4,272.7,294.5,273,298.4Z" fill="#915fb0"></path><path id="Path_37" data-name="Path 37" d="M275.5,287.3a14.644,14.644,0,0,0-8.3-.1c-10.2,2.2-20.8,1.7-31.1,2.6-2.7.2-5.4-.1-7.8,1.2a20.517,20.517,0,0,1,3.6-8.6c2.5-2.9,6-1.8,9-2.6,10-2.8,20.3-1.9,30.4-3.2,4-.6,5.5-2.3,6.8-5.2A58.718,58.718,0,0,1,275.5,287.3Z" fill="#9462b2"></path><path id="Path_38" data-name="Path 38" d="M139.4,292.1c-13.2,3.1-26.8,3.3-40.2,5.1-4.6-3.3-7.4-8.2-10.9-12.5a2.929,2.929,0,0,1,1.9-1.4,99.487,99.487,0,0,1,26.1-2.2C124.1,284.8,131.8,288.4,139.4,292.1Z" fill="#956baf"></path><path id="Path_39" data-name="Path 39" d="M277.9,252.6c0,1.4-.1,2.9,0,4.3.6,5.5-.2,7-7.2,7.4-11.3.6-23,.4-34,4.3l3.9-12.3c.8-1,1.4-2.1,2.7-2.3a165.572,165.572,0,0,1,33-2.3C276.9,251.7,277.4,252.3,277.9,252.6Z" fill="#9b6bb8"></path><path id="Path_40" data-name="Path 40" d="M274.3,212.9a32.273,32.273,0,0,1,2.4,13.7c1.6,2.5,1.6,5.5-1.4,5.9-9.8,1.3-19.5,4.2-29.5,2.9A43.687,43.687,0,0,1,248,223c2.1-6.3,5.5-8.2,13.8-7.2C266.4,216.4,270.7,216.5,274.3,212.9Z" fill="#a577c0"></path><path id="Path_41" data-name="Path 41" d="M274.3,212.9c-1.5,5.2-4.3,6.2-12.1,4.7-5.7-1.1-11.1-.7-14.3,5.3.5-4.9,1-9.9,1.5-14.8,1-1.3.7-2.8.6-4.1-.4-4,2-5.5,5.4-5.9a47.815,47.815,0,0,1,15.1.2l2.4,3.9C273.4,205.7,273.8,209.3,274.3,212.9Z" fill="#aa7ec4"></path><path id="Path_42" data-name="Path 42" d="M245.8,235.3a153.192,153.192,0,0,1,26.1-3.6c4-.1,5.2-1.6,4.8-5.2.4.1.8.1,1.1.2v-.1a21.587,21.587,0,0,1,.1,11c0,2.1-.1,4.2-.1,6.3-1.7,1.5-3.8,1.3-5.8,1.3-9.7.1-19.4,1.6-29.1,2.4C244,243.6,244.9,239.4,245.8,235.3Z" fill="#a172bd"></path><path id="Path_43" data-name="Path 43" d="M116.4,281.1c-9.1,3.4-18.8,1.8-28.1,3.7-3.5-4.9-8-9-10.1-14.8,5.9.1,11.5-3,17.6-1.3C102.7,272.8,109.6,277,116.4,281.1Z" fill="#9870b1"></path><path id="Path_44" data-name="Path 44" d="M270.5,198.3c-2.6,2.7-6,1-8.6.9-7.1-.4-11.6,1.4-12.4,8.9.4-7,.7-14,1.1-21,1.8-9.3,3.7-10.3,13.8-7.5C268.3,185.2,268.6,192,270.5,198.3Z" fill="#b085c9"></path><path id="Path_45" data-name="Path 45" d="M243.1,247.7c3.9-4.6,9.6-2.5,14.3-3.2a63.928,63.928,0,0,1,20.5-.5v8.7c-12.4,1.3-25,.7-37.3,3.7A21.849,21.849,0,0,1,243.1,247.7Z" fill="#9e6fba"></path><path id="Path_46" data-name="Path 46" d="M95.8,268.7c-5.9.4-11.4,4.8-17.6,1.3-4.8-5.7-7.7-12.5-11.8-19.4-.3,2.1-.5,3.4-.7,4.7-1.5-2.5-1.1-5.1-.8-8.5C75.6,254.2,85.7,261.4,95.8,268.7Z" fill="#9d77b4"></path><path id="Path_47" data-name="Path 47" d="M264.4,179.6c-1.2,1.5-2.7.2-4,.2-5.2.1-9.4,1-9.7,7.3-.3-12-.6-23.9-.9-35.9,1.3-.5,1.7.4,2.1,1.3C256.1,161.5,261.7,169.9,264.4,179.6Z" fill="#b68dcd"></path><path id="Path_48" data-name="Path 48" d="M332.4,244c-4.1-2-8.8,2.4-12.9-1.1-.9-.8-3.3-.1-3.5-1.9s1.7-2.6,3.1-3.4c2.8-1.6,6.1-2.5,7.2-6.1A37.283,37.283,0,0,1,332.4,244Z" transform="translate(0.469)" fill="#6a328c"></path><path id="Path_49" data-name="Path 49" d="M102.7,374c2.5.7,4,2.2,4.1,4.9C105.1,377.5,103.5,376.1,102.7,374Z" fill="#622985"></path><path id="Path_50" data-name="Path 50" d="M326.3,302c-.1-2,.2-3.9,2.4-4.8A8.473,8.473,0,0,1,326.3,302Z" transform="translate(0.483)" fill="#682f8c"></path><path id="Path_51" data-name="Path 51" d="M251.8,152.5c-.7-.4-1.4-.9-2.1-1.3a15.527,15.527,0,0,1,.4-2.1c1.3.3,2.5.8,2.9,2.3A6.533,6.533,0,0,0,251.8,152.5Z" fill="#9d75b5"></path><path id="Path_52" data-name="Path 52" d="M297.8,308.3a9.03,9.03,0,0,1-1.7,5.8c-3.6,5.4-5.2,12.4-9,17.1-4.8,5.9-5.5,14.3-12.3,18.6-2.6,1.6-.2,7.3-5.5,6.7-2-1.9-1.7-4.5-1.7-6.9-.1-7.8,0-15.5-.1-23.3.2-4.2.2-8.4,3.1-11.9,2.4-3.6,6.2-2,9.4-2.6C285.9,310.7,291.8,309.5,297.8,308.3Z" fill="#65288b"></path><path id="Path_53" data-name="Path 53" d="M270.5,314.5c-.4,3.7-.9,7.4-1.3,11.1-1.4,7.3-.2,14.7-.7,22-.1,2.2.7,4.5-1.5,7.6-9.3-13.6-15.4-28.5-23.8-41.9,9.1,0,18.2,0,27.2-.1A5.7,5.7,0,0,1,270.5,314.5Z" fill="#7f40a5"></path><path id="Path_54" data-name="Path 54" d="M278,237.7c0-3.7-.1-7.3-.1-11,2.6,3.5.8,7.5,1.3,11.2C278.8,237.8,278.4,237.8,278,237.7Z" fill="#6a328c"></path><path id="Path_55" data-name="Path 55" d="M130.4,325.6c24.9-3.8,50.3-3.4,75-8.5,3-.6,6.2-.1,9.3-.2-.4,1.6-.9,3.3-1.3,4.9-.2,3.9-2.7,5.9-5.9,7.4-19,1.7-37.9,4.3-56.9,5.9a11.493,11.493,0,0,1-6.6-.9c-5.2-1.3-8.4-6.1-13.6-7.6Z" fill="#8958a7"></path><path id="Path_56" data-name="Path 56" d="M144,334.3a126.886,126.886,0,0,1,24.3-2.9c13.6-.1,26.6-4.8,40.2-3.3,1.6,4.9-2.9,7.2-4.6,10.7a6.332,6.332,0,0,1-2.6,1.6c-10.5,1.4-21.1,1.6-31.5,4.1a10.006,10.006,0,0,1-7.2-.4A59.269,59.269,0,0,1,144,334.3Z" fill="#8654a5"></path><path id="Path_57" data-name="Path 57" d="M202.3,339.2a15.384,15.384,0,0,1,1.3-1.2c3.2-.6,4.2,1.9,5.5,3.9,5.1,8.2,9.1,17,13.9,25.3,1.4,2.4,2.9,5.1.5,7.9-6.6-3-11.7-8.6-18.6-11.1-5.6-2-9.6-7.4-16.1-7.4v-1.2C193.2,350,196.3,343.4,202.3,339.2Z" fill="#723497"></path><path id="Path_58" data-name="Path 58" d="M202.3,339.2c-4.2,5.7-7.3,12.2-13.6,16.1-8.7-3.7-17.3-7.4-26-11.2C175.7,341.5,188.8,339,202.3,339.2Z" fill="#8350a2"></path><path id="Path_59" data-name="Path 59" d="M243.2,313.3c6.3,3.4,7.5,10.4,10.8,15.8,4.8,7.7,8.5,16,14,24,0-6.8-.1-13.6,0-20.4,0-2.3-.9-5,1.2-7v45.7c1.4,1.9-.3,4.3,1.2,6.2v2.5c-.4,1.9,1.1,4.8-1.3,5.4-2.5.6-2.8-2.5-3.7-4.2-11.6-21.7-23.3-43.3-34.7-65.1a4.959,4.959,0,0,0-4.8-3c-1.8,0-3.8.6-5.2-1.2C228.3,312.4,235.8,312.9,243.2,313.3Z" fill="#7c3da2"></path><path id="Path_60" data-name="Path 60" d="M270.5,377.6c-2.1-1.7-.9-4.1-1.2-6.2C271.3,373.1,270.2,375.5,270.5,377.6Z" fill="#793a9f"></path><path id="Path_61" data-name="Path 61" d="M223.4,375.1c-.1-1.4.2-3.1-.4-4.2-5.6-10.4-11.3-20.7-17.1-31a9.164,9.164,0,0,0-2.4-1.9c.5-3.9,4.5-6,5-9.9,1.6-2.1,3.3-4.1,4.9-6.2,5.8,1.5,6.3,7.3,8.5,11.2,11.4,20.3,22,41,33,61.6a12.713,12.713,0,0,1,1.9,7.6c-9.2-6.4-16.3-15.4-26-21C227.5,380.3,225.7,377.4,223.4,375.1Z" fill="#75379b"></path></g></svg> 