<?xml version="1.0" encoding="UTF-8"?> <svg xmlns="http://www.w3.org/2000/svg" width="64" height="64" viewBox="0 0 64 64" fill="none"><g clip-path="url(#clip0_497_11990)"><path d="M32.0066 9.00013C40.326 9.02949 47.2489 15.1684 48.1863 23.3541C48.5529 26.5514 47.7586 29.5569 46.5629 32.483C44.6061 37.2676 41.8394 41.5997 38.8318 45.7867C37.6326 47.4553 36.3531 49.0669 35.1085 50.7044C35.0037 50.8426 34.892 50.9756 34.782 51.1086C34.5167 51.4316 34.2025 51.5923 33.8237 51.3055C33.4257 51.0032 33.4851 50.656 33.7644 50.2933C34.9007 48.8182 36.0615 47.3621 37.1595 45.8593C40.1741 41.7293 42.9583 37.4594 45.0128 32.768C46.02 30.4672 46.8213 28.106 46.9434 25.5668C47.3013 18.1756 41.5758 11.4028 34.1519 10.4459C26.014 9.39914 18.8205 14.4619 17.2373 22.3626C16.6752 25.1712 17.1046 27.8918 18.049 30.5587C19.6601 35.1119 22.0778 39.2523 24.8794 43.163C27.2202 46.431 29.7653 49.5575 32.2195 52.7461C32.312 52.8653 32.4796 52.9758 32.4918 53.1002C32.5163 53.3714 32.5599 53.7877 32.4133 53.8896C32.2126 54.0295 31.7814 54.0381 31.5615 53.912C31.2577 53.7393 31.0517 53.3921 30.8143 53.1106C26.2252 47.6661 22.0062 41.9728 18.7856 35.6129C17.4258 32.9286 16.2214 30.1632 15.8653 27.1577C15.0867 20.6025 17.5759 15.4396 23.0029 11.6757C25.6684 9.82751 28.7912 8.98804 32.0066 9.00013Z" fill="black"></path><path d="M23.8807 24.8917C23.926 23.7845 24.1739 22.6168 24.7412 21.5217C24.9559 21.1089 25.1619 20.6235 25.7484 20.8861C26.3698 21.1642 26.1412 21.6409 25.9195 22.09C24.4445 25.0713 25.2649 28.4707 27.9374 30.4657C30.1734 32.1343 33.2875 32.2311 35.6668 30.7024C38.0477 29.172 39.226 26.3202 38.5888 23.6256C37.9325 20.8532 35.6929 18.7615 32.8896 18.492C31.8981 18.397 30.8682 18.6043 29.8645 18.7442C29.4002 18.8081 28.976 18.9377 28.8032 18.3659C28.6269 17.7855 29.058 17.6059 29.4962 17.4815C32.6399 16.585 35.4521 17.2121 37.73 19.5215C40.0272 21.8499 40.6608 24.6896 39.5489 27.7556C38.4475 30.7905 36.1765 32.5817 32.9227 32.9773C28.0526 33.568 23.8143 29.7938 23.8807 24.8917Z" fill="black"></path><path d="M23.8807 24.8917C23.926 23.7845 24.1739 22.6168 24.7412 21.5217C24.9559 21.1089 25.1619 20.6235 25.7484 20.8861C26.3698 21.1642 26.1412 21.6409 25.9195 22.09C24.4445 25.0713 25.2649 28.4707 27.9374 30.4657C30.1734 32.1343 33.2875 32.2311 35.6668 30.7024C38.0477 29.172 39.226 26.3202 38.5888 23.6256C37.9325 20.8532 35.6929 18.7615 32.8896 18.492C31.8981 18.397 30.8682 18.6043 29.8645 18.7442C29.4002 18.8081 28.976 18.9377 28.8032 18.3659C28.6269 17.7855 29.058 17.6059 29.4962 17.4815C32.6399 16.585 35.4521 17.2121 37.73 19.5215C40.0272 21.8499 40.6608 24.6896 39.5489 27.7556C38.4475 30.7905 36.1765 32.5817 32.9227 32.9773C28.0526 33.568 23.8143 29.7938 23.8807 24.8917Z" fill="url(#paint0_linear_497_11990)"></path><path d="M26.9111 20.2691C26.761 20.0117 26.4258 19.6663 26.4991 19.5126C26.6492 19.1965 26.9809 18.8614 27.3091 18.7577C27.6861 18.6385 27.9357 18.9754 27.9479 19.3761C27.9602 19.7578 27.4801 20.1828 26.9111 20.2674V20.2691Z" fill="black"></path></g><defs><linearGradient id="paint0_linear_497_11990" x1="29.303" y1="22.5459" x2="45.9389" y2="37.2457" gradientUnits="userSpaceOnUse"><stop offset="0.236106" stop-color="#DA291C"></stop><stop offset="1" stop-color="#FFCD00"></stop></linearGradient><clipPath id="clip0_497_11990"><rect width="32.5532" height="45" fill="white" transform="translate(15.7236 9)"></rect></clipPath></defs></svg> 