<?xml version="1.0" encoding="UTF-8"?> <svg xmlns="http://www.w3.org/2000/svg" width="64" height="64" viewBox="0 0 64 64" fill="none"><g clip-path="url(#clip0_1373_28145)"><path d="M41.673 18.6472C39.7653 18.6472 38.228 17.1596 38.228 15.3335C38.228 13.5074 39.7746 12.0198 41.673 12.0198C43.5715 12.0198 45.118 13.5074 45.118 15.3335C45.118 17.1596 43.5715 18.6472 41.673 18.6472Z" stroke="black" stroke-miterlimit="10"></path><path d="M41.673 18.6472C39.7653 18.6472 38.228 17.1596 38.228 15.3335C38.228 13.5074 39.7746 12.0198 41.673 12.0198C43.5715 12.0198 45.118 13.5074 45.118 15.3335C45.118 17.1596 43.5715 18.6472 41.673 18.6472Z" stroke="url(#paint0_linear_1373_28145)" stroke-miterlimit="10"></path><path d="M42.2842 25.8446C41.9323 26.1119 41.423 26.1119 41.0711 25.8446C40.9785 25.7734 40.8859 25.7021 40.7932 25.6219C39.7746 24.7935 38.83 23.8938 37.9687 22.9139C35.9869 20.6514 34.7737 18.3531 34.7737 16.0816C34.7737 12.4116 37.8668 9.44531 41.673 9.44531C45.4792 9.44531 48.5723 12.4205 48.5723 16.0816C48.5723 18.3531 47.3684 20.6514 45.3773 22.9139C44.5161 23.8938 43.5715 24.7935 42.5528 25.6219C42.4231 25.7288 42.3305 25.8001 42.275 25.8446H42.2842Z" stroke="black" stroke-miterlimit="10"></path><path d="M42.2842 25.8446C41.9323 26.1119 41.423 26.1119 41.0711 25.8446C40.9785 25.7734 40.8859 25.7021 40.7932 25.6219C39.7746 24.7935 38.83 23.8938 37.9687 22.9139C35.9869 20.6514 34.7737 18.3531 34.7737 16.0816C34.7737 12.4116 37.8668 9.44531 41.673 9.44531C45.4792 9.44531 48.5723 12.4205 48.5723 16.0816C48.5723 18.3531 47.3684 20.6514 45.3773 22.9139C44.5161 23.8938 43.5715 24.7935 42.5528 25.6219C42.4231 25.7288 42.3305 25.8001 42.275 25.8446H42.2842Z" stroke="url(#paint1_linear_1373_28145)" stroke-miterlimit="10"></path><path d="M14.4925 43.5892C11.7235 43.5892 9.48239 41.4335 9.48239 38.7701C9.48239 36.1066 11.7235 33.9509 14.4925 33.9509C17.2615 33.9509 19.5026 36.1066 19.5026 38.7701C19.5026 41.4335 17.2615 43.5892 14.4925 43.5892" stroke="white" stroke-miterlimit="10"></path><path d="M15.3815 54.0469C14.8629 54.4389 14.1406 54.4389 13.622 54.0469C13.4831 53.9489 13.3442 53.8331 13.2145 53.7263C11.7328 52.5326 10.3622 51.2142 9.11198 49.789C6.2226 46.5109 4.47231 43.1616 4.47231 39.8657C4.47231 34.5388 8.9638 30.2185 14.5018 30.2185C20.0397 30.2185 24.5312 34.5388 24.5312 39.8657C24.5312 43.1616 22.7809 46.5109 19.8916 49.789C18.6414 51.2053 17.2615 52.5237 15.789 53.7263C15.5945 53.8777 15.4649 53.9846 15.3815 54.0469V54.0469Z" stroke="white" stroke-miterlimit="10"></path><path d="M36.3017 26.0496H34.4496C31.3842 26.0496 28.8931 28.4458 28.8931 31.3943C28.8931 34.3427 31.375 36.7389 34.4496 36.7389H49.2854C54.3974 36.7389 58.5462 40.7297 58.5462 45.6468C58.5462 50.5639 54.3974 54.5546 49.2854 54.5546H19.6323" stroke="white" stroke-miterlimit="10" stroke-linecap="round"></path></g><defs><linearGradient id="paint0_linear_1373_28145" x1="40.5341" y1="14.2871" x2="47.465" y2="20.554" gradientUnits="userSpaceOnUse"><stop offset="0.236106" stop-color="#DA291C"></stop><stop offset="1" stop-color="#FFCD00"></stop></linearGradient><linearGradient id="paint1_linear_1373_28145" x1="39.3921" y1="15.1242" x2="55.9608" y2="27.1029" gradientUnits="userSpaceOnUse"><stop offset="0.236106" stop-color="#DA291C"></stop><stop offset="1" stop-color="#FFCD00"></stop></linearGradient><clipPath id="clip0_1373_28145"><rect width="55" height="46" fill="white" transform="translate(4 9)"></rect></clipPath></defs></svg> 