<?xml version="1.0" encoding="UTF-8"?> <svg xmlns="http://www.w3.org/2000/svg" width="64" height="64" viewBox="0 0 64 64" fill="none"><path d="M41.9041 50.123H47.2324" stroke="white" stroke-linecap="round" stroke-linejoin="round"></path><path d="M53.5743 55.8891L54.4035 44.6334C54.5647 42.2303 52.7604 39.9577 50.3803 39.5738L40.238 37.9461L35.4931 53.3324L33.6658 43.8503C33.5276 43.144 33.6043 42.4069 33.8884 41.7466L35.5391 37.8232" stroke="white" stroke-linecap="round" stroke-linejoin="round"></path><path d="M27.9305 37.8311L29.5812 41.7544C29.8576 42.4224 29.9344 43.1518 29.8039 43.8581L27.9766 53.3402L23.2317 37.9539L13.0893 39.5816C10.7092 39.9655 8.90494 42.2381 9.06617 44.6413L9.88769 55.8969" stroke="white" stroke-linecap="round" stroke-linejoin="round"></path><path d="M26.7482 32.6255L23.2241 37.9539" stroke="white" stroke-linecap="round" stroke-linejoin="round"></path><path d="M36.7217 32.6255L40.2458 37.9539" stroke="white" stroke-linecap="round" stroke-linejoin="round"></path><path d="M31.731 29.923L23.7461 35.7504C23.0551 36.2495 22.1338 35.5815 22.3948 34.7676L25.4736 25.37L17.4657 19.581C16.7747 19.0819 17.1279 17.9917 17.9801 17.9917L27.8691 18.0147L30.9018 8.60941C31.1629 7.79556 32.3068 7.79556 32.5679 8.60941L35.6006 18.0147L45.4896 17.9917C46.3419 17.9917 46.695 19.0819 46.004 19.581L37.9961 25.37L41.0749 34.7676C41.3436 35.5738 40.4146 36.2495 39.7236 35.7504L31.7387 29.923H31.731Z" stroke="black" stroke-linecap="round" stroke-linejoin="round"></path><path d="M31.731 29.923L23.7461 35.7504C23.0551 36.2495 22.1338 35.5815 22.3948 34.7676L25.4736 25.37L17.4657 19.581C16.7747 19.0819 17.1279 17.9917 17.9801 17.9917L27.8691 18.0147L30.9018 8.60941C31.1629 7.79556 32.3068 7.79556 32.5679 8.60941L35.6006 18.0147L45.4896 17.9917C46.3419 17.9917 46.695 19.0819 46.004 19.581L37.9961 25.37L41.0749 34.7676C41.3436 35.5738 40.4146 36.2495 39.7236 35.7504L31.7387 29.923H31.731Z" stroke="url(#paint0_linear_1576_35524)" stroke-linecap="round" stroke-linejoin="round"></path><path d="M31.731 29.923L23.7461 35.7504C23.0551 36.2495 22.1338 35.5815 22.3948 34.7676L25.4736 25.37L17.4657 19.581C16.7747 19.0819 17.1279 17.9917 17.9801 17.9917L27.8691 18.0147L30.9018 8.60941C31.1629 7.79556 32.3068 7.79556 32.5679 8.60941L35.6006 18.0147L45.4896 17.9917C46.3419 17.9917 46.695 19.0819 46.004 19.581L37.9961 25.37L41.0749 34.7676C41.3436 35.5738 40.4146 36.2495 39.7236 35.7504L31.7387 29.923H31.731Z" stroke="black" stroke-linecap="round" stroke-linejoin="round"></path><path d="M31.731 29.923L23.7461 35.7504C23.0551 36.2495 22.1338 35.5815 22.3948 34.7676L25.4736 25.37L17.4657 19.581C16.7747 19.0819 17.1279 17.9917 17.9801 17.9917L27.8691 18.0147L30.9018 8.60941C31.1629 7.79556 32.3068 7.79556 32.5679 8.60941L35.6006 18.0147L45.4896 17.9917C46.3419 17.9917 46.695 19.0819 46.004 19.581L37.9961 25.37L41.0749 34.7676C41.3436 35.5738 40.4146 36.2495 39.7236 35.7504L31.7387 29.923H31.731Z" stroke="url(#paint1_linear_1576_35524)" stroke-linecap="round" stroke-linejoin="round"></path><defs><linearGradient id="paint0_linear_1576_35524" x1="26.8966" y1="17.5517" x2="56.1216" y2="44.196" gradientUnits="userSpaceOnUse"><stop offset="0.236106" stop-color="#DA291C"></stop><stop offset="1" stop-color="#FFCD00"></stop></linearGradient><linearGradient id="paint1_linear_1576_35524" x1="26.8966" y1="17.5517" x2="56.1216" y2="44.196" gradientUnits="userSpaceOnUse"><stop offset="0.236106" stop-color="#DA291C"></stop><stop offset="1" stop-color="#FFCD00"></stop></linearGradient></defs></svg> 