<?xml version="1.0" encoding="UTF-8"?> <svg xmlns="http://www.w3.org/2000/svg" width="49" height="49" viewBox="0 0 49 49" fill="none"><path d="M13.082 12.7948L10.0619 15.0017C9.76395 15.2189 9.36046 14.9272 9.47531 14.5764L10.6393 11.0225C10.6393 11.0225 10.6392 10.9915 10.6268 10.9822L7.59437 8.79083C7.29329 8.57356 7.44848 8.09867 7.81784 8.10178L11.558 8.11109C11.5735 8.11109 11.589 8.10178 11.5921 8.08626L12.7406 4.52612C12.8554 4.17228 13.352 4.17228 13.4669 4.52612L14.6153 8.08626C14.6153 8.08626 14.6339 8.11109 14.6494 8.11109L18.3896 8.10178C18.759 8.10178 18.9142 8.57356 18.6131 8.79083L15.5806 10.9822C15.5806 10.9822 15.562 11.007 15.5682 11.0225L16.7321 14.5764C16.847 14.9272 16.4435 15.222 16.1455 15.0017L13.1255 12.7948C13.1255 12.7948 13.0944 12.7855 13.082 12.7948Z" fill="white" stroke="white" stroke-linecap="round" stroke-linejoin="round"></path><path d="M13.1038 12.7792L9.96888 15.0698C9.69885 15.2685 9.33571 15.0015 9.43814 14.685L10.6455 10.9945L7.49822 8.71932C7.22818 8.52378 7.36785 8.09545 7.69996 8.09545L11.5829 8.10476L12.7748 4.41116C12.8772 4.09146 13.3273 4.09146 13.4297 4.41116L14.6216 8.10476L18.5045 8.09545C18.8397 8.09545 18.9794 8.52378 18.7063 8.71932L15.5589 10.9945L16.7664 14.685C16.8719 15.0015 16.5056 15.2685 16.2356 15.0698L13.1007 12.7792H13.1038Z" stroke="#2E2D2C" stroke-linecap="round" stroke-linejoin="round"></path><path d="M37.7302 12.7948L34.7101 15.0017C34.4121 15.2189 34.0087 14.9272 34.1235 14.5764L35.2875 11.0225C35.2875 11.0225 35.2874 10.9915 35.275 10.9822L32.2426 8.79083C31.9415 8.57356 32.0967 8.09867 32.466 8.10178L36.2062 8.11109C36.2217 8.11109 36.2372 8.10178 36.2403 8.08626L37.3888 4.52612C37.5036 4.17228 38.0002 4.17228 38.1151 4.52612L39.2635 8.08626C39.2635 8.08626 39.2821 8.11109 39.2976 8.11109L43.0378 8.10178C43.4072 8.10178 43.5624 8.57356 43.2613 8.79083L40.2288 10.9822C40.2288 10.9822 40.2102 11.007 40.2164 11.0225L41.3803 14.5764C41.4952 14.9272 41.0917 15.222 40.7937 15.0017L37.7736 12.7948C37.7736 12.7948 37.7426 12.7855 37.7302 12.7948Z" fill="white" stroke="white" stroke-linecap="round" stroke-linejoin="round"></path><path d="M37.752 12.7792L34.6171 15.0698C34.347 15.2685 33.9839 15.0015 34.0863 14.685L35.2937 10.9945L32.1464 8.71932C31.8764 8.52378 32.016 8.09545 32.3482 8.09545L36.2311 8.10476L37.423 4.41116C37.5254 4.09146 37.9755 4.09146 38.0779 4.41116L39.2698 8.10476L43.1527 8.09545C43.4879 8.09545 43.6276 8.52378 43.3545 8.71932L40.2071 10.9945L41.4146 14.685C41.5201 15.0015 41.1538 15.2685 40.8838 15.0698L37.7489 12.7792H37.752Z" stroke="#2E2D2C" stroke-linecap="round" stroke-linejoin="round"></path><path d="M25.3938 14.6103L20.627 18.0935C20.1567 18.4364 19.5199 17.9759 19.7012 17.4223L21.5383 11.813C21.5383 11.813 21.5383 11.764 21.5187 11.7493L16.7324 8.29066C16.2572 7.94773 16.5021 7.19819 17.0851 7.20309L22.9883 7.21779C23.0128 7.21779 23.0374 7.20309 23.0423 7.17859L24.8549 1.55949C25.0361 1.001 25.82 1.001 26.0012 1.55949L27.8138 7.17859C27.8138 7.17859 27.8432 7.21779 27.8677 7.21779L33.771 7.20309C34.3539 7.20309 34.5989 7.94773 34.1237 8.29066L29.3374 11.7493C29.3374 11.7493 29.308 11.7885 29.3178 11.813L31.1549 17.4223C31.3362 17.9759 30.6993 18.4413 30.229 18.0935L25.4623 14.6103C25.4623 14.6103 25.4134 14.5956 25.3938 14.6103Z" fill="white" stroke="white" stroke-linecap="round" stroke-linejoin="round"></path><path d="M25.4282 14.586L20.4802 18.2015C20.054 18.515 19.4808 18.0937 19.6425 17.594L21.5482 11.7691L16.5806 8.1782C16.1544 7.86956 16.3749 7.19351 16.8991 7.19351L23.0277 7.2082L24.9089 1.37844C25.0705 0.873852 25.7809 0.873852 25.9425 1.37844L27.8237 7.2082L33.9523 7.19351C34.4814 7.19351 34.7019 7.86956 34.2708 8.1782L29.3032 11.7691L31.2089 17.594C31.3755 18.0937 30.7974 18.515 30.3712 18.2015L25.4233 14.586H25.4282Z" stroke="black" stroke-linecap="round" stroke-linejoin="round"></path><path d="M25.4282 14.586L20.4802 18.2015C20.054 18.515 19.4808 18.0937 19.6425 17.594L21.5482 11.7691L16.5806 8.1782C16.1544 7.86956 16.3749 7.19351 16.8991 7.19351L23.0277 7.2082L24.9089 1.37844C25.0705 0.873852 25.7809 0.873852 25.9425 1.37844L27.8237 7.2082L33.9523 7.19351C34.4814 7.19351 34.7019 7.86956 34.2708 8.1782L29.3032 11.7691L31.2089 17.594C31.3755 18.0937 30.7974 18.515 30.3712 18.2015L25.4233 14.586H25.4282Z" stroke="url(#paint0_linear_1576_34409)" stroke-linecap="round" stroke-linejoin="round"></path><path d="M17.3921 31.186H5.14603C2.85804 31.2398 1 33.1976 1 35.547L1.95972 47.985" stroke="#2E2D2C" stroke-linecap="round" stroke-linejoin="round"></path><path d="M11.2652 27.9615C13.415 27.9615 15.1732 26.2109 15.1732 24.0535C15.1732 21.896 13.4227 20.1455 11.2652 20.1455C9.10775 20.1455 7.35724 21.896 7.35724 24.0535C7.35724 26.2109 9.10775 27.9615 11.2652 27.9615Z" stroke="#2E2D2C" stroke-linecap="round" stroke-linejoin="round"></path><path d="M5.95988 47.9773L5.15372 37.1362" stroke="#2E2D2C" stroke-linecap="round" stroke-linejoin="round"></path><path d="M31.3196 31.186H43.5657C45.8537 31.2398 47.704 33.1976 47.704 35.547L46.7904 47.985" stroke="#2E2D2C" stroke-linecap="round" stroke-linejoin="round"></path><path d="M37.4465 27.9615C35.2967 27.9615 33.5385 26.2109 33.5385 24.0535C33.5385 21.896 35.289 20.1455 37.4465 20.1455C39.604 20.1455 41.3468 21.896 41.3468 24.0535C41.3468 26.2109 39.5963 27.9615 37.4465 27.9615Z" stroke="#2E2D2C" stroke-linecap="round" stroke-linejoin="round"></path><path d="M42.7826 47.9773L43.5811 37.1362" stroke="#2E2D2C" stroke-linecap="round" stroke-linejoin="round"></path><path d="M14.5206 47.9774L14.0907 42.2498C14.0907 42.15 14.0907 42.0809 14.0907 42.0425C14.0907 39.6854 15.941 37.7353 18.2213 37.6738H30.4674C32.7553 37.7276 34.6057 39.6854 34.6057 42.0348L34.1681 47.9697" stroke="#2E2D2C" stroke-linecap="round" stroke-linejoin="round"></path><path d="M24.3635 34.472C26.5218 34.466 28.2666 32.7115 28.2605 30.5532C28.2545 28.3948 26.5 26.6501 24.3417 26.6561C22.1833 26.6621 20.4385 28.4167 20.4446 30.575C20.4506 32.7333 22.2052 34.4781 24.3635 34.472Z" stroke="#2E2D2C" stroke-linecap="round" stroke-linejoin="round"></path><path d="M18.5438 47.9775L18.1676 42.9102" stroke="#2E2D2C" stroke-linecap="round" stroke-linejoin="round"></path><path d="M24.3559 34.4571C22.2061 34.4571 20.4478 32.7066 20.4478 30.5491C20.4478 28.3917 22.1984 26.6411 24.3559 26.6411C26.5133 26.6411 28.2638 28.3917 28.2638 30.5491C28.2638 32.7066 26.5133 34.4571 24.3559 34.4571Z" stroke="#2E2D2C" stroke-linecap="round" stroke-linejoin="round"></path><path d="M24.3635 34.472C26.5218 34.466 28.2666 32.7115 28.2605 30.5532C28.2545 28.3948 26.5 26.6501 24.3417 26.6561C22.1833 26.6621 20.4385 28.4167 20.4446 30.575C20.4506 32.7333 22.2052 34.4781 24.3635 34.472Z" stroke="#2E2D2C" stroke-linecap="round" stroke-linejoin="round"></path><path d="M30.1449 47.9776L30.5211 42.8335" stroke="#2E2D2C" stroke-linecap="round" stroke-linejoin="round"></path><defs><linearGradient id="paint0_linear_1576_34409" x1="22.4283" y1="6.92161" x2="40.5446" y2="23.4374" gradientUnits="userSpaceOnUse"><stop offset="0.236106" stop-color="#DA291C"></stop><stop offset="1" stop-color="#FFCD00"></stop></linearGradient></defs></svg> 