<?xml version="1.0" encoding="UTF-8"?> <svg xmlns="http://www.w3.org/2000/svg" width="64" height="64" viewBox="0 0 64 64" fill="none"><path d="M41.9042 50.123H47.2326" stroke="#2E2D2C" stroke-linecap="round" stroke-linejoin="round"></path><path d="M53.5745 55.8891L54.4037 44.6334C54.5649 42.2303 52.7606 39.9577 50.3805 39.5738L40.2381 37.9461L35.4933 53.3324L33.6659 43.8503C33.5277 43.144 33.6045 42.4069 33.8886 41.7466L35.5393 37.8232" stroke="#2E2D2C" stroke-linecap="round" stroke-linejoin="round"></path><path d="M27.9306 37.8311L29.5814 41.7544C29.8578 42.4224 29.9345 43.1518 29.804 43.8581L27.9767 53.3402L23.2318 37.9539L13.0895 39.5816C10.7093 39.9655 8.90506 42.2381 9.06629 44.6413L9.88782 55.8969" stroke="#2E2D2C" stroke-linecap="round" stroke-linejoin="round"></path><path d="M26.7482 32.6255L23.2241 37.9539" stroke="#2E2D2C" stroke-linecap="round" stroke-linejoin="round"></path><path d="M36.7217 32.6255L40.2458 37.9539" stroke="#2E2D2C" stroke-linecap="round" stroke-linejoin="round"></path><path d="M31.7311 29.923L23.7462 35.7504C23.0552 36.2495 22.1339 35.5815 22.3949 34.7676L25.4737 25.37L17.4658 19.581C16.7748 19.0819 17.1279 17.9917 17.9802 17.9917L27.8692 18.0147L30.9019 8.60941C31.163 7.79556 32.3069 7.79556 32.568 8.60941L35.6007 18.0147L45.4897 17.9917C46.3419 17.9917 46.6951 19.0819 46.0041 19.581L37.9962 25.37L41.075 34.7676C41.3437 35.5738 40.4147 36.2495 39.7237 35.7504L31.7388 29.923H31.7311Z" fill="white"></path><path d="M31.7311 29.923L23.7462 35.7504C23.0552 36.2495 22.1339 35.5815 22.3949 34.7676L25.4737 25.37L17.4658 19.581C16.7748 19.0819 17.1279 17.9917 17.9802 17.9917L27.8692 18.0147L30.9019 8.60941C31.163 7.79556 32.3069 7.79556 32.568 8.60941L35.6007 18.0147L45.4897 17.9917C46.3419 17.9917 46.6951 19.0819 46.0041 19.581L37.9962 25.37L41.075 34.7676C41.3437 35.5738 40.4147 36.2495 39.7237 35.7504L31.7388 29.923H31.7311Z" stroke="black" stroke-linecap="round" stroke-linejoin="round"></path><path d="M31.7311 29.923L23.7462 35.7504C23.0552 36.2495 22.1339 35.5815 22.3949 34.7676L25.4737 25.37L17.4658 19.581C16.7748 19.0819 17.1279 17.9917 17.9802 17.9917L27.8692 18.0147L30.9019 8.60941C31.163 7.79556 32.3069 7.79556 32.568 8.60941L35.6007 18.0147L45.4897 17.9917C46.3419 17.9917 46.6951 19.0819 46.0041 19.581L37.9962 25.37L41.075 34.7676C41.3437 35.5738 40.4147 36.2495 39.7237 35.7504L31.7388 29.923H31.7311Z" stroke="url(#paint0_linear_1576_34020)" stroke-linecap="round" stroke-linejoin="round"></path><path d="M31.7311 29.923L23.7462 35.7504C23.0552 36.2495 22.1339 35.5815 22.3949 34.7676L25.4737 25.37L17.4658 19.581C16.7748 19.0819 17.1279 17.9917 17.9802 17.9917L27.8692 18.0147L30.9019 8.60941C31.163 7.79556 32.3069 7.79556 32.568 8.60941L35.6007 18.0147L45.4897 17.9917C46.3419 17.9917 46.6951 19.0819 46.0041 19.581L37.9962 25.37L41.075 34.7676C41.3437 35.5738 40.4147 36.2495 39.7237 35.7504L31.7388 29.923H31.7311Z" stroke="black" stroke-linecap="round" stroke-linejoin="round"></path><path d="M31.7311 29.923L23.7462 35.7504C23.0552 36.2495 22.1339 35.5815 22.3949 34.7676L25.4737 25.37L17.4658 19.581C16.7748 19.0819 17.1279 17.9917 17.9802 17.9917L27.8692 18.0147L30.9019 8.60941C31.163 7.79556 32.3069 7.79556 32.568 8.60941L35.6007 18.0147L45.4897 17.9917C46.3419 17.9917 46.6951 19.0819 46.0041 19.581L37.9962 25.37L41.075 34.7676C41.3437 35.5738 40.4147 36.2495 39.7237 35.7504L31.7388 29.923H31.7311Z" stroke="url(#paint1_linear_1576_34020)" stroke-linecap="round" stroke-linejoin="round"></path><defs><linearGradient id="paint0_linear_1576_34020" x1="26.8967" y1="17.5517" x2="56.1217" y2="44.196" gradientUnits="userSpaceOnUse"><stop offset="0.236106" stop-color="#DA291C"></stop><stop offset="1" stop-color="#FFCD00"></stop></linearGradient><linearGradient id="paint1_linear_1576_34020" x1="26.8967" y1="17.5517" x2="56.1217" y2="44.196" gradientUnits="userSpaceOnUse"><stop offset="0.236106" stop-color="#DA291C"></stop><stop offset="1" stop-color="#FFCD00"></stop></linearGradient></defs></svg> 