<?xml version="1.0" encoding="UTF-8"?> <svg xmlns="http://www.w3.org/2000/svg" width="49" height="49" viewBox="0 0 49 49" fill="none"><path d="M13.1038 12.7792L9.96888 15.0698C9.69885 15.2685 9.33571 15.0015 9.43814 14.685L10.6455 10.9945L7.49822 8.71932C7.22818 8.52378 7.36785 8.09545 7.69996 8.09545L11.5829 8.10476L12.7748 4.41116C12.8772 4.09146 13.3273 4.09146 13.4297 4.41116L14.6216 8.10476L18.5045 8.09545C18.8397 8.09545 18.9794 8.52378 18.7063 8.71932L15.5589 10.9945L16.7664 14.685C16.8719 15.0015 16.5056 15.2685 16.2356 15.0698L13.1007 12.7792H13.1038Z" stroke="white" stroke-linecap="round" stroke-linejoin="round"></path><path d="M37.752 12.7792L34.6171 15.0698C34.347 15.2685 33.9839 15.0015 34.0863 14.685L35.2937 10.9945L32.1464 8.71932C31.8764 8.52378 32.016 8.09545 32.3482 8.09545L36.2311 8.10476L37.423 4.41116C37.5254 4.09146 37.9755 4.09146 38.0779 4.41116L39.2698 8.10476L43.1527 8.09545C43.4879 8.09545 43.6276 8.52378 43.3545 8.71932L40.2071 10.9945L41.4146 14.685C41.5201 15.0015 41.1538 15.2685 40.8838 15.0698L37.7489 12.7792H37.752Z" stroke="white" stroke-linecap="round" stroke-linejoin="round"></path><path d="M25.4282 14.586L20.4802 18.2015C20.054 18.515 19.4808 18.0937 19.6425 17.594L21.5482 11.7691L16.5806 8.1782C16.1544 7.86956 16.3749 7.19351 16.8991 7.19351L23.0277 7.2082L24.9089 1.37844C25.0705 0.873852 25.7809 0.873852 25.9425 1.37844L27.8237 7.2082L33.9523 7.19351C34.4814 7.19351 34.7019 7.86956 34.2708 8.1782L29.3032 11.7691L31.2089 17.594C31.3755 18.0937 30.7974 18.515 30.3712 18.2015L25.4233 14.586H25.4282Z" stroke="black" stroke-linecap="round" stroke-linejoin="round"></path><path d="M25.4282 14.586L20.4802 18.2015C20.054 18.515 19.4808 18.0937 19.6425 17.594L21.5482 11.7691L16.5806 8.1782C16.1544 7.86956 16.3749 7.19351 16.8991 7.19351L23.0277 7.2082L24.9089 1.37844C25.0705 0.873852 25.7809 0.873852 25.9425 1.37844L27.8237 7.2082L33.9523 7.19351C34.4814 7.19351 34.7019 7.86956 34.2708 8.1782L29.3032 11.7691L31.2089 17.594C31.3755 18.0937 30.7974 18.515 30.3712 18.2015L25.4233 14.586H25.4282Z" stroke="url(#paint0_linear_1576_35810)" stroke-linecap="round" stroke-linejoin="round"></path><path d="M17.3921 31.186H5.14603C2.85804 31.2398 1 33.1976 1 35.547L1.95972 47.985" stroke="white" stroke-linecap="round" stroke-linejoin="round"></path><path d="M11.2651 27.9615C13.4149 27.9615 15.1732 26.2109 15.1732 24.0535C15.1732 21.896 13.4226 20.1455 11.2651 20.1455C9.10769 20.1455 7.35718 21.896 7.35718 24.0535C7.35718 26.2109 9.10769 27.9615 11.2651 27.9615Z" stroke="white" stroke-linecap="round" stroke-linejoin="round"></path><path d="M5.95997 47.9773L5.15381 37.1362" stroke="white" stroke-linecap="round" stroke-linejoin="round"></path><path d="M31.3196 31.186H43.5656C45.8536 31.2398 47.704 33.1976 47.704 35.547L46.7903 47.985" stroke="white" stroke-linecap="round" stroke-linejoin="round"></path><path d="M37.4466 27.9615C35.2968 27.9615 33.5386 26.2109 33.5386 24.0535C33.5386 21.896 35.2891 20.1455 37.4466 20.1455C39.6041 20.1455 41.3469 21.896 41.3469 24.0535C41.3469 26.2109 39.5964 27.9615 37.4466 27.9615Z" stroke="white" stroke-linecap="round" stroke-linejoin="round"></path><path d="M42.7825 47.9773L43.5809 37.1362" stroke="white" stroke-linecap="round" stroke-linejoin="round"></path><path d="M14.5205 47.9774L14.0906 42.2498C14.0906 42.15 14.0906 42.0809 14.0906 42.0425C14.0906 39.6854 15.9409 37.7353 18.2212 37.6738H30.4673C32.7553 37.7276 34.6056 39.6854 34.6056 42.0348L34.168 47.9697" stroke="white" stroke-linecap="round" stroke-linejoin="round"></path><path d="M24.3634 34.472C26.5217 34.466 28.2665 32.7115 28.2605 30.5532C28.2544 28.3948 26.4999 26.6501 24.3416 26.6561C22.1833 26.6621 20.4385 28.4167 20.4445 30.575C20.4505 32.7333 22.2051 34.4781 24.3634 34.472Z" stroke="white" stroke-linecap="round" stroke-linejoin="round"></path><path d="M18.5437 47.9775L18.1675 42.9102" stroke="white" stroke-linecap="round" stroke-linejoin="round"></path><path d="M24.3558 34.4571C22.206 34.4571 20.4478 32.7066 20.4478 30.5491C20.4478 28.3917 22.1983 26.6411 24.3558 26.6411C26.5132 26.6411 28.2637 28.3917 28.2637 30.5491C28.2637 32.7066 26.5132 34.4571 24.3558 34.4571Z" stroke="white" stroke-linecap="round" stroke-linejoin="round"></path><path d="M24.3634 34.472C26.5217 34.466 28.2665 32.7115 28.2605 30.5532C28.2544 28.3948 26.4999 26.6501 24.3416 26.6561C22.1833 26.6621 20.4385 28.4167 20.4445 30.575C20.4505 32.7333 22.2051 34.4781 24.3634 34.472Z" stroke="white" stroke-linecap="round" stroke-linejoin="round"></path><path d="M30.145 47.9776L30.5212 42.8335" stroke="white" stroke-linecap="round" stroke-linejoin="round"></path><defs><linearGradient id="paint0_linear_1576_35810" x1="22.4283" y1="6.92161" x2="40.5446" y2="23.4374" gradientUnits="userSpaceOnUse"><stop offset="0.236106" stop-color="#DA291C"></stop><stop offset="1" stop-color="#FFCD00"></stop></linearGradient></defs></svg> 