<?xml version="1.0" encoding="UTF-8"?> <svg xmlns="http://www.w3.org/2000/svg" width="64" height="64" viewBox="0 0 64 64" fill="none"><g clip-path="url(#clip0_1576_34135)"><path d="M32.33 52.66C44.09 52.66 53.66 43.09 53.66 31.33C53.65 19.58 44.08 10.01 32.33 10C20.57 10 11 19.57 11 31.33C11 43.09 20.57 52.66 32.33 52.66ZM32.33 11.09C43.49 11.09 52.58 20.17 52.58 31.34C52.58 36.75 50.46 41.83 46.64 45.65C42.82 49.47 37.74 51.58 32.33 51.59C21.17 51.58 12.09 42.49 12.09 31.33C12.09 20.17 21.17 11.09 32.33 11.09Z" fill="url(#paint0_linear_1576_34135)"></path><path d="M46.67 39.1102C46.8 38.8702 46.9 38.6702 46.98 38.5002C47.08 38.2902 47.18 38.0702 47.31 37.7802C47.39 37.6002 47.47 37.4102 47.53 37.2202C47.58 37.1002 47.64 36.9502 47.68 36.8102C47.86 36.2802 48 35.8102 48.11 35.3702C48.15 35.2102 48.19 35.0502 48.23 34.8602L48.25 34.7602C48.29 34.5602 48.33 34.3502 48.35 34.1802C48.39 33.9802 48.42 33.7902 48.44 33.6302C48.47 33.4402 48.49 33.2302 48.51 32.9702C48.53 32.7402 48.55 32.5202 48.56 32.2502C48.57 31.9902 48.58 31.7102 48.58 31.4202C48.58 31.1302 48.58 30.8602 48.56 30.6402V30.5402C48.55 30.3302 48.53 30.1002 48.51 29.8802C48.49 29.6702 48.47 29.4402 48.44 29.2302C48.42 29.0502 48.39 28.8702 48.36 28.7502V28.7302C48.33 28.5402 48.29 28.3402 48.24 28.0802L48.22 27.9802C48.19 27.8302 48.15 27.6402 48.1 27.4902C47.99 27.0302 47.84 26.5502 47.67 26.0602C47.62 25.9102 47.56 25.7602 47.52 25.6402C47.44 25.4302 47.37 25.2402 47.29 25.0702C47.19 24.8202 47.08 24.5802 46.97 24.3602C46.88 24.1702 46.77 23.9602 46.66 23.7502C46.4 23.2502 46.11 22.7702 45.8 22.3102L45.76 22.2402C45.76 22.2402 45.76 22.2402 45.76 22.2302C45.66 22.0902 45.56 21.9402 45.46 21.8102L45.36 21.6702C45.24 21.5002 45.1 21.3202 44.88 21.0702C44.85 21.0302 44.82 20.9902 44.78 20.9502C44.67 20.8202 44.55 20.6902 44.43 20.5502C44.41 20.5202 44.38 20.5002 44.36 20.4702C44.34 20.4502 44.32 20.4302 44.3 20.4102L44.18 20.2902L45.43 19.0402L44.66 18.2702L43.4 19.5302L43.28 19.4102C43.28 19.4102 43.24 19.3702 43.22 19.3502C43.19 19.3202 43.16 19.2902 43.12 19.2602L43.03 19.1802C42.93 19.1002 42.83 19.0102 42.72 18.9102C42.7 18.9002 42.69 18.8902 42.66 18.8702C42.64 18.8502 42.61 18.8302 42.57 18.7902C42.37 18.6202 42.19 18.4902 42.04 18.3702L41.89 18.2602C41.71 18.1302 41.55 18.0202 41.39 17.9102C40.93 17.6002 40.45 17.3102 39.96 17.0502C39.71 16.9202 39.52 16.8202 39.35 16.7402C39.1 16.6202 38.86 16.5102 38.63 16.4102C38.44 16.3302 38.26 16.2502 38.05 16.1802H38.03C37.9 16.1202 37.78 16.0702 37.66 16.0402C37.11 15.8502 36.64 15.7102 36.22 15.6102C36.05 15.5602 35.89 15.5302 35.68 15.4802L35.61 15.4602C35.39 15.4102 35.18 15.3802 35.02 15.3502H35.01C34.85 15.3102 34.68 15.2902 34.48 15.2602C34.31 15.2302 34.13 15.2202 33.95 15.2002H33.82C33.59 15.1602 33.36 15.1502 33.1 15.1402C32.57 15.1102 32.02 15.1102 31.49 15.1402H31.4C31.18 15.1502 30.95 15.1702 30.73 15.1902C30.54 15.2102 30.31 15.2302 30.06 15.2702C29.9 15.2902 29.72 15.3202 29.59 15.3402H29.58C29.36 15.3802 29.15 15.4102 28.88 15.4702L28.8 15.4902C28.64 15.5302 28.48 15.5602 28.34 15.6002C27.88 15.7102 27.4 15.8502 26.91 16.0302C26.76 16.0802 26.62 16.1302 26.49 16.1802C26.27 16.2602 26.09 16.3402 25.92 16.4102C25.66 16.5202 25.42 16.6302 25.21 16.7302C25.02 16.8202 24.82 16.9202 24.6 17.0402C24.56 17.0602 24.51 17.0902 24.47 17.1102C24.44 17.1302 24.41 17.1502 24.37 17.1602C23.91 17.4102 23.51 17.6502 23.15 17.9002L23.07 17.9502C22.93 18.0402 22.81 18.1302 22.66 18.2402L22.52 18.3402C22.42 18.4102 22.33 18.4802 22.23 18.5602C22.13 18.6402 22.03 18.7202 21.92 18.8202C21.91 18.8302 21.89 18.8502 21.87 18.8702L21.8 18.9202C21.68 19.0202 21.55 19.1302 21.4 19.2702C20.96 19.6702 20.53 20.1002 20.12 20.5502C20 20.6802 19.88 20.8202 19.75 20.9802C19.71 21.0302 19.67 21.0802 19.63 21.1202C19.47 21.3202 19.34 21.4802 19.23 21.6302L19.2 21.6702L19.03 21.9002C18.93 22.0302 18.84 22.1702 18.74 22.3002C18.43 22.7502 18.14 23.2302 17.89 23.7302C17.77 23.9502 17.66 24.1602 17.58 24.3402C17.45 24.6102 17.33 24.8702 17.25 25.0602C17.16 25.2602 17.09 25.4502 17.03 25.6202C16.98 25.7602 16.92 25.9002 16.88 26.0302C16.7 26.5602 16.56 27.0302 16.45 27.4702C16.41 27.6502 16.36 27.8302 16.33 27.9802L16.31 28.0802C16.27 28.2902 16.23 28.5002 16.21 28.6602C16.17 28.8502 16.15 29.0202 16.13 29.1902V29.2102C16.1 29.4002 16.08 29.6202 16.06 29.8602C16.04 30.0702 16.02 30.3002 16.01 30.5802V30.6502C15.99 30.9002 15.98 31.1502 15.98 31.4002C15.98 31.6902 15.98 31.9602 16 32.1902V32.2902C16.01 32.5102 16.03 32.7402 16.05 32.9502C16.07 33.1502 16.09 33.3902 16.12 33.6002C16.14 33.7802 16.17 33.9602 16.2 34.0802V34.1002C16.23 34.3002 16.27 34.5002 16.32 34.7502L16.34 34.8502C16.38 35.0202 16.42 35.1902 16.46 35.3402C16.57 35.7902 16.71 36.2602 16.89 36.7702C16.94 36.9102 16.99 37.0502 17.03 37.1602V37.1802C17.12 37.3902 17.19 37.5802 17.27 37.7502C17.38 38.0102 17.49 38.2502 17.59 38.4602C17.69 38.6802 17.8 38.8802 17.9 39.0702C17.98 39.2202 18.07 39.3802 18.16 39.5502L18.43 40.0202L23.73 36.9702L23.46 36.5102C21.64 33.3602 21.64 29.4502 23.46 26.3002C24.36 24.7502 25.65 23.4602 27.2 22.5602C30.35 20.7802 34.26 20.7802 37.41 22.5602C37.97 22.8902 38.49 23.2702 38.98 23.7002L39.12 23.8202L34.31 28.6302L34.19 28.5502C32.72 27.5802 30.77 27.8702 29.65 29.2402C28.53 30.6102 28.63 32.5802 29.88 33.8202C31.13 35.0702 33.1 35.1702 34.46 34.0502C35.83 32.9302 36.12 30.9802 35.15 29.5102L35.07 29.3902L39.88 24.5802L40 24.7202C42.87 28.0002 43.32 32.7302 41.14 36.5002L40.87 36.9702L46.17 40.0202L46.44 39.5502C46.53 39.4002 46.62 39.2402 46.69 39.0902L46.67 39.1102ZM22.16 36.4502L22.23 36.6002L18.83 38.5602L18.72 38.3602C18.66 38.2502 18.6 38.1402 18.55 38.0202C18.43 37.7902 18.33 37.5502 18.25 37.3502C18.17 37.1702 18.11 37.0102 18.04 36.8302V36.8102C17.99 36.7002 17.95 36.5902 17.9 36.4502C17.73 35.9702 17.6 35.5202 17.5 35.1002C17.48 35.0102 17.45 34.9102 17.43 34.8102C17.42 34.7502 17.4 34.6902 17.39 34.6302L17.37 34.5302C17.33 34.3402 17.3 34.1602 17.26 33.9202C17.23 33.8002 17.22 33.6702 17.2 33.5502V33.4802C17.17 33.3402 17.15 33.1902 17.14 33.0502L17.12 32.8702C17.11 32.7602 17.1 32.6602 17.09 32.5602V32.5402C17.09 32.4702 17.08 32.4002 17.07 32.3302V32.1602V31.9902H21.01V32.1502C21.11 33.6602 21.49 35.1102 22.16 36.4702V36.4502ZM22.16 26.3902C21.49 27.7502 21.1 29.2002 21 30.7102V30.8702H17.06V30.6202C17.07 30.4002 17.09 30.1802 17.11 29.9702C17.13 29.7802 17.15 29.5602 17.18 29.3502V29.3102C17.2 29.1802 17.22 29.0402 17.26 28.8502C17.29 28.6602 17.32 28.4702 17.36 28.3002L17.38 28.2002C17.41 28.0402 17.45 27.8802 17.49 27.7202C17.59 27.3102 17.72 26.8602 17.9 26.3502C17.94 26.2402 17.98 26.1302 18.03 26.0002V25.9702C18.09 25.8202 18.16 25.6602 18.24 25.4602C18.33 25.2502 18.43 25.0202 18.55 24.7802C18.59 24.6902 18.64 24.6002 18.69 24.5102L18.82 24.2602L22.23 26.2202L22.16 26.3702V26.3902ZM26.03 22.0102C24.77 22.8502 23.71 23.9102 22.87 25.1702L22.85 25.2002L22.76 25.3202L19.38 23.3402L19.48 23.1902C19.48 23.1902 19.53 23.1102 19.55 23.0702C19.59 23.0102 19.62 22.9602 19.66 22.9002L19.7 22.8402C19.82 22.6602 19.94 22.4802 20.09 22.2902C20.19 22.1502 20.32 21.9802 20.43 21.8502C20.49 21.7802 20.55 21.7102 20.6 21.6402C20.69 21.5302 20.78 21.4302 20.87 21.3302L20.93 21.2702C21.31 20.8502 21.72 20.4402 22.15 20.0502L22.27 19.9402C22.35 19.8702 22.42 19.8102 22.47 19.7602L22.6 19.6602C22.6 19.6602 22.64 19.6202 22.66 19.6002H22.67C22.85 19.4402 23.01 19.3102 23.18 19.1902C23.35 19.0602 23.52 18.9402 23.69 18.8302L23.78 18.7702C23.84 18.7302 23.9 18.7002 23.95 18.6602C23.99 18.6402 24.03 18.6202 24.06 18.5902L24.21 18.4902L26.18 21.8902L26.04 21.9802L26.03 22.0102ZM31.73 20.1602H31.57C30.06 20.2602 28.61 20.6402 27.25 21.3002L27.1 21.3702L25.13 17.9602L25.4 17.8202C25.49 17.7702 25.58 17.7302 25.68 17.6802C25.87 17.5802 26.08 17.4902 26.35 17.3802C26.51 17.3102 26.67 17.2402 26.88 17.1602L27.11 17.0702C27.11 17.0702 27.19 17.0402 27.24 17.0302C27.71 16.8702 28.15 16.7302 28.59 16.6302C28.76 16.5902 28.93 16.5502 29.15 16.5002C29.33 16.4602 29.51 16.4302 29.77 16.3902C29.87 16.3702 29.97 16.3502 30.08 16.3402L30.21 16.3202C30.41 16.2902 30.62 16.2702 30.82 16.2502C31.04 16.2302 31.26 16.2102 31.43 16.2002H31.73V20.1502V20.1602ZM34.6 31.4102C34.6 32.6902 33.56 33.7302 32.28 33.7302C31 33.7302 29.96 32.6902 29.96 31.4102C29.96 30.1302 31 29.0902 32.28 29.0902C32.62 29.0902 32.97 29.1702 33.28 29.3202L33.5 29.4302L32.7 30.2302L32.6 30.2002C32.49 30.1702 32.38 30.1502 32.28 30.1502C31.59 30.1502 31.02 30.7202 31.02 31.4102C31.02 32.1002 31.59 32.6702 32.28 32.6702C32.97 32.6702 33.54 32.1002 33.54 31.4102C33.54 31.3102 33.52 31.2002 33.49 31.0902L33.46 30.9902L34.26 30.1902L34.37 30.4102C34.52 30.7202 34.6 31.0602 34.6 31.4102ZM37.3 21.3002C35.94 20.6402 34.49 20.2502 32.98 20.1702H32.82V16.2002H33.07C33.29 16.2102 33.51 16.2302 33.72 16.2602C33.93 16.2802 34.14 16.3002 34.37 16.3302H34.42C34.54 16.3502 34.67 16.3702 34.84 16.4102C35.02 16.4402 35.21 16.4702 35.45 16.5202H35.51C35.66 16.5702 35.82 16.6002 35.97 16.6402C36.4 16.7402 36.84 16.8802 37.34 17.0502C37.44 17.0802 37.54 17.1202 37.65 17.1602L37.71 17.1802C37.88 17.2402 38.05 17.3102 38.22 17.3802C38.41 17.4602 38.65 17.5602 38.9 17.6902C38.99 17.7302 39.08 17.7802 39.17 17.8302L39.42 17.9602L37.46 21.3702L37.31 21.3002H37.3ZM39.86 23.0502L39.74 22.9402C39.35 22.5902 38.94 22.2802 38.52 22.0002L38.35 21.8702L40.35 18.5002L40.59 18.6502C40.66 18.6902 40.72 18.7302 40.79 18.7802L40.82 18.8002C41.01 18.9302 41.2 19.0602 41.4 19.2202C41.57 19.3402 41.73 19.4702 41.84 19.5602H41.85C41.85 19.5602 41.92 19.6302 41.95 19.6602L42.04 19.7302C42.13 19.8102 42.22 19.8802 42.31 19.9602L42.41 20.0502C42.41 20.0502 42.45 20.0802 42.46 20.1002C42.47 20.1102 42.49 20.1302 42.5 20.1402L42.63 20.2602L39.84 23.0402L39.86 23.0502ZM41.68 25.1702C41.39 24.7402 41.08 24.3202 40.74 23.9402L40.71 23.8902L40.63 23.7702L43.42 21.0302L43.54 21.1702C43.54 21.1702 43.57 21.2002 43.58 21.2102C43.59 21.2202 43.61 21.2402 43.62 21.2502C43.73 21.3702 43.84 21.5002 43.92 21.6002C43.96 21.6702 44.01 21.7302 44.06 21.7902C44.22 21.9802 44.34 22.1402 44.46 22.3002V22.3202C44.62 22.5202 44.76 22.7202 44.89 22.9002C44.93 22.9502 44.96 23.0102 44.99 23.0602C45.01 23.1002 45.04 23.1402 45.06 23.1802L45.16 23.3302L41.75 25.3002L41.66 25.1602L41.68 25.1702ZM42.38 26.3902L42.31 26.2402L45.72 24.2802L45.83 24.4802C45.89 24.5902 45.95 24.7002 46.01 24.8302C46.11 25.0302 46.21 25.2402 46.31 25.5002C46.39 25.6702 46.45 25.8402 46.52 26.0202C46.56 26.1402 46.61 26.2502 46.65 26.4002C46.82 26.8802 46.95 27.3302 47.05 27.7502C47.07 27.8402 47.09 27.9202 47.11 28.0102C47.13 28.0802 47.14 28.1502 47.16 28.2202L47.18 28.3202C47.22 28.5102 47.25 28.7002 47.29 28.9302C47.32 29.0402 47.33 29.1602 47.35 29.2802V29.3702C47.38 29.5002 47.4 29.6402 47.41 29.7702C47.41 29.8402 47.43 29.9102 47.43 29.9802C47.43 30.0802 47.45 30.1802 47.45 30.2802V30.3202C47.45 30.3902 47.46 30.4602 47.47 30.5302V30.5802V30.8802H43.54V30.7202C43.44 29.2102 43.05 27.7502 42.37 26.4002L42.38 26.3902ZM45.99 38.0302C45.95 38.1102 45.91 38.2002 45.86 38.2802L45.72 38.5502L42.31 36.5902L42.38 36.4402C43.05 35.0802 43.43 33.6302 43.51 32.1202V31.9602H47.47V32.2102C47.46 32.4002 47.44 32.6302 47.42 32.8602C47.41 33.0102 47.39 33.1502 47.37 33.2802L47.34 33.5102C47.32 33.6502 47.3 33.7902 47.26 33.9802C47.24 34.1502 47.2 34.3302 47.16 34.5302L47.14 34.6302C47.11 34.7902 47.07 34.9502 47.03 35.1102C46.93 35.5302 46.8 35.9702 46.62 36.4802C46.59 36.5802 46.55 36.6902 46.5 36.8002L46.48 36.8602C46.42 37.0302 46.35 37.1902 46.28 37.3702C46.2 37.5602 46.1 37.8002 45.97 38.0502L45.99 38.0302Z" fill="url(#paint1_linear_1576_34135)"></path><path d="M24.62 39.3901V43.3401H40.04V39.3901H24.62ZM38.96 42.2601H25.71V40.4801H38.96V42.2601Z" fill="black"></path><path d="M24.62 39.3901V43.3401H40.04V39.3901H24.62ZM38.96 42.2601H25.71V40.4801H38.96V42.2601Z" fill="url(#paint2_linear_1576_34135)"></path></g><defs><linearGradient id="paint0_linear_1576_34135" x1="32.33" y1="10" x2="32.33" y2="52.66" gradientUnits="userSpaceOnUse"><stop stop-color="#282828"></stop><stop offset="1" stop-color="#030303"></stop></linearGradient><linearGradient id="paint1_linear_1576_34135" x1="32.28" y1="15.1177" x2="32.28" y2="40.0202" gradientUnits="userSpaceOnUse"><stop stop-color="#282828"></stop><stop offset="1" stop-color="#030303"></stop></linearGradient><linearGradient id="paint2_linear_1576_34135" x1="29.7811" y1="40.7415" x2="32.0315" y2="48.3823" gradientUnits="userSpaceOnUse"><stop offset="0.236106" stop-color="#DA291C"></stop><stop offset="1" stop-color="#FFCD00"></stop></linearGradient><clipPath id="clip0_1576_34135"><rect width="42.66" height="42.66" fill="white" transform="translate(11 10)"></rect></clipPath></defs></svg> 