<?xml version="1.0" encoding="UTF-8"?> <svg xmlns="http://www.w3.org/2000/svg" width="64" height="64" viewBox="0 0 64 64" fill="none"><g clip-path="url(#clip0_1576_33507)"><path d="M46.9 22.9L42.6 23.4C42 22.6 41.3 22 40.6 21.4L41.1 17.1C41.2 16.4 40.7 15.7 40 15.5L33.3 13.7C32.6 13.5 31.9 13.8 31.6 14.5L29.9 18.5C28.9 18.6 28 18.9 27.1 19.2L23.6 16.6C23 16.2 22.2 16.2 21.7 16.7L16.8 21.6C16.3 22.1 16.2 22.9 16.7 23.5L19.3 27C19 27.9 18.7 28.8 18.6 29.8L14.6 31.5C13.9 31.8 13.6 32.5 13.8 33.2L15.6 39.9C15.8 40.6 16.5 41.1 17.2 41L21.5 40.5C22.1 41.3 22.8 41.9 23.5 42.5L23 46.8C22.9 47.5 23.4 48.2 24.1 48.4L30.8 50.2C31.5 50.4 32.2 50.1 32.5 49.4L34.2 45.4C35.1 45.3 36.1 45 37 44.7L40.5 47.3C41.1 47.7 41.9 47.7 42.4 47.2L47.3 42.3C47.8 41.8 47.9 41 47.4 40.4L44.8 36.9C45.1 36 45.4 35.1 45.5 34.1L49.5 32.4C50.2 32.1 50.5 31.4 50.3 30.7L48.5 24C48.3 23.3 47.6 22.8 46.9 22.9Z" stroke="black" stroke-miterlimit="10"></path><path d="M30.6 40.7001V35.3001C30.6 35.1001 30.5 34.8001 30.2 34.8001C27.1 33.5001 26.8 28.8001 29.7 27.1001V30.8001C29.7 31.1001 30 31.4001 30.3 31.4001H33.5C33.8 31.4001 34.1 31.1001 34.1 30.8001V27.2001C37 28.9001 36.8 33.5001 33.7 34.8001C33.5 34.9001 33.3 35.1001 33.3 35.3001V40.7001" stroke="black" stroke-linejoin="round"></path><path d="M30.6 40.7001V35.3001C30.6 35.1001 30.5 34.8001 30.2 34.8001C27.1 33.5001 26.8 28.8001 29.7 27.1001V30.8001C29.7 31.1001 30 31.4001 30.3 31.4001H33.5C33.8 31.4001 34.1 31.1001 34.1 30.8001V27.2001C37 28.9001 36.8 33.5001 33.7 34.8001C33.5 34.9001 33.3 35.1001 33.3 35.3001V40.7001" stroke="url(#paint0_linear_1576_33507)" stroke-linejoin="round"></path><path d="M29.4 40.0999C24.9 38.6999 22.5 33.8999 23.9 29.3999C27 20.2999 40.3 22.2999 40.5 31.9999C40.5 35.6999 38.1 38.9999 34.6 40.0999" stroke="url(#paint1_linear_1576_33507)" stroke-linejoin="round"></path><path d="M57.2 35.7999C55.3 48.1999 44.8 57.5999 32 57.5999C17.9 57.5999 6.59998 46.1999 6.59998 31.9999C6.59998 17.7999 17.9 6.3999 32 6.3999C45.2 6.3999 56 16.4999 57.3 29.3999" stroke="black" stroke-linejoin="round"></path><path d="M51.4 41.8999C51.6 42.0999 51.9 42.0999 52.1 41.7999L57.1 35.9999L60.2 42.9999C60.3 43.2999 60.6 43.3999 60.9 43.2999C61.2 43.1999 61.3 42.8999 61.2 42.5999L57.8 34.8999C57.7 34.6999 57.6 34.5999 57.4 34.5999C57.2 34.5999 57.1 34.5999 56.9 34.7999L51.4 41.1999C51.3 41.2999 51.3 41.3999 51.3 41.4999C51.2 41.5999 51.3 41.6999 51.4 41.8999Z" fill="black"></path></g><defs><linearGradient id="paint0_linear_1576_33507" x1="30.5235" y1="31.7527" x2="42.4934" y2="38.2331" gradientUnits="userSpaceOnUse"><stop offset="0.236106" stop-color="#DA291C"></stop><stop offset="1" stop-color="#FFCD00"></stop></linearGradient><linearGradient id="paint1_linear_1576_33507" x1="32.0009" y1="23.5452" x2="32.0009" y2="40.0999" gradientUnits="userSpaceOnUse"><stop stop-color="#282828"></stop><stop offset="1" stop-color="#030303"></stop></linearGradient><clipPath id="clip0_1576_33507"><rect width="64" height="64" fill="white"></rect></clipPath></defs></svg> 