<?xml version="1.0" encoding="UTF-8"?> <svg xmlns="http://www.w3.org/2000/svg" xmlns:xlink="http://www.w3.org/1999/xlink" version="1.1" id="Layer_1" x="0px" y="0px" viewBox="0 0 64 64" style="enable-background:new 0 0 64 64;" xml:space="preserve"> <style type="text/css"> .st0{fill-rule:evenodd;clip-rule:evenodd;fill:#4285F4;} .st1{fill-rule:evenodd;clip-rule:evenodd;fill:#669DF6;} </style> <symbol id="A" viewBox="-39.4 -40 78.9 80"> <g> <path class="st0" d="M2,1.6v-17.7l0,0c1.9-0.9,2.9-3.1,2.4-5.1S2.1-24.8,0-24.8s-4,1.5-4.4,3.5S-3.9-17-2-16.1V1.6h-17.1V-9.7 c1.9-1,2.8-3.1,2.3-5.1s-2.3-3.5-4.4-3.5c-2.1,0-3.9,1.5-4.4,3.5c-0.5,2,0.5,4.1,2.3,5.1V1.6h-0.9c-6.1,0-11.7-3.7-14-9.4 s-1.1-12.2,3.1-16.6s10.8-5.8,16.5-3.6C-15.2-35.3-7.9-40,0.2-40s15.5,4.6,19,11.9c1.6-0.5,3.3-0.8,4.9-0.8l0,0 c8.5,0,15.3,6.9,15.3,15.3S32.6,1.7,24.1,1.7h-1V-9.7c1.9-1,2.8-3.1,2.3-5.1s-2.3-3.5-4.4-3.5s-3.9,1.4-4.4,3.5s0.5,4.2,2.3,5.1 V1.6H2z"></path> <path class="st1" d="M-19.1,13.5c3.7,0.9,6.3,4.2,6.2,8c0,4.6-3.7,8.3-8.3,8.3c-4,0-7.4-2.9-8.1-6.9c-0.7-4.2,1.9-8.3,6.1-9.4V1.6 h4L-19.1,13.5z M-21.2,25.5c2.2,0,4-1.8,4-4s-1.8-4-4-4s-4,1.8-4,4S-23.5,25.5-21.2,25.5z M23.1,13.5c4.4,1.2,7,5.7,5.9,10.2 c-1,3.6-4.2,6.1-8,6.1c-4.6,0-8.3-3.7-8.3-8.3c0-3.7,2.5-7,6.1-8V1.7h4.2L23.1,13.5z M21,25.5c2,0.1,3.7-1.3,4.1-3.2 s-0.7-3.9-2.6-4.6c-1.5-0.5-3.1-0.1-4.2,1s-1.4,2.8-0.9,4.2S19.4,25.4,21,25.5L21,25.5z M2,23.8L2,23.8c4.4,1.1,7.1,5.6,6,10 C7,37.4,3.7,40,0,40c-4.6,0-8.2-3.7-8.2-8.3c0-3.8,2.6-7,6.2-8v-22h4.2L2,23.8z M-0.2,35.8c1.8,0,3.3-1.2,3.8-2.9S3.5,29.4,2,28.4 s-3.4-0.9-4.8,0.2s-1.8,3-1.2,4.6C-3.3,34.8-1.8,35.7-0.2,35.8L-0.2,35.8z"></path> </g> </symbol> <g> <use xlink:href="#A" width="78.9" height="80" x="-39.4" y="-40" transform="matrix(0.7562 0 0 0.7562 32 32)" style="overflow:visible;"></use> </g> </svg> 