<?xml version="1.0" encoding="UTF-8"?> <svg xmlns="http://www.w3.org/2000/svg" xmlns:xlink="http://www.w3.org/1999/xlink" version="1.1" id="Layer_1" x="0px" y="0px" viewBox="0 0 64 64" style="enable-background:new 0 0 64 64;" xml:space="preserve"> <style type="text/css"> .st0{fill-rule:evenodd;clip-rule:evenodd;fill:#006DD6;} </style> <symbol id="A" viewBox="-40 -40 80 80"> <g> <path class="st0" d="M-14.2-27.7c0-4.3,3.5-7.8,7.8-7.8s7.8,3.5,7.8,7.8s-3.5,7.8-7.8,7.8S-14.2-23.4-14.2-27.7z M2-2.6 c0-5.1,4.1-9.3,9.2-9.3s9.2,4.1,9.2,9.3s-4.1,9.3-9.2,9.3S2,2.5,2-2.6z M19.5,25c0-4,3.2-7.3,7.2-7.3S34,20.9,34,25 s-3.2,7.3-7.2,7.3S19.5,29,19.5,25z M-8.2,19.9c0-3.5,2.8-6.3,6.2-6.3s6.2,2.8,6.2,6.3S1.5,26.2-2,26.2S-8.2,23.4-8.2,19.9z M-33.5,0.9c0-3.5,2.8-6.3,6.2-6.3S-21-2.6-21,0.9s-2.8,6.3-6.2,6.3S-33.5,4.4-33.5,0.9z"></path> <path class="st0" d="M-5.1-29.2L12.5-4L9.3-1.7L-8.4-26.9L-5.1-29.2z"></path> <path class="st0" d="M12.8-4l15.6,27.4l-3.5,2L9.3-2L12.8-4z"></path> <path class="st0" d="M10.7-4.8l0.3,4l-38.1,3.2l-0.3-4L10.7-4.8z"></path> <path class="st0" d="M9.3-3.8l3.4,2.1L-0.7,20.6l-3.4-2.1L9.3-3.8z M38.8-40H18.5c-0.8,0-1.2,0.5-1.2,1.5v7.3 c0,0.8,0.5,1.3,1.2,1.3H30v11.3c0,0.8,0.5,1.3,1.5,1.3h7.2c0.8,0,1.2-0.5,1.2-1.3v-20.1C40-39.5,39.5-40,38.8-40z M-38.8,40h20.2 c0.8,0,1.2-0.5,1.2-1.5v-7.3c0-0.8-0.5-1.3-1.2-1.3H-30V18.7c0-0.8-0.5-1.3-1.5-1.3h-7.2c-0.8,0-1.2,0.5-1.2,1.3v20.1 C-40,39.5-39.5,40-38.8,40z"></path> </g> </symbol> <use xlink:href="#A" width="80" height="80" x="-40" y="-40" transform="matrix(0.7492 0 0 0.7492 32 32)" style="overflow:visible;"></use> </svg> 