<?xml version="1.0" encoding="UTF-8"?> <svg xmlns:sodipodi="http://sodipodi.sourceforge.net/DTD/sodipodi-0.dtd" xmlns:svg="http://www.w3.org/2000/svg" xmlns:rdf="http://www.w3.org/1999/02/22-rdf-syntax-ns#" xmlns:inkscape="http://www.inkscape.org/namespaces/inkscape" xmlns:cc="http://creativecommons.org/ns#" xmlns:dc="http://purl.org/dc/elements/1.1/" xmlns="http://www.w3.org/2000/svg" xmlns:xlink="http://www.w3.org/1999/xlink" version="1.1" id="svg2" sodipodi:docname="javascript.svg" x="0px" y="0px" viewBox="0 0 64 64" style="enable-background:new 0 0 64 64;" xml:space="preserve"> <style type="text/css"> .st0{fill:#D6BA32;} .st1{fill:#FFDA3E;} .st2{fill:#EBEBEB;} </style> <g> <g id="g3768" transform="matrix(1.25,0,0,1.25,-2.5065195,174.1722)"> <path id="path3770" inkscape:connector-curvature="0" class="st0" d="M7.1-136.9c4.6-0.2,9.2,0.1,13.7,0c5.1-0.2,10.1,0,15.2,0 c4,0,8,0,12,0c-1.3,13.9-2.5,27.8-3.7,41.8c-5.4,1.5-10.8,3-16.1,4.6c-0.7,0.3-1.4,0-2.1-0.2c-5.1-1.5-10.2-2.9-15.3-4.3 C9.5-109,8.3-123,7.1-136.9 M27.7-133.3c-0.2,6.9,0,13.7-0.1,20.6c0.1,6.3-0.1,12.6,0.1,18.8c4.5-1.1,9-2.4,13.4-3.7 c1.1-11.9,2.2-23.8,3.1-35.8C38.7-133.3,33.2-133.3,27.7-133.3 M21.9-106.5c-2.7-0.7-5.3-1.6-8-2.1c-0.1,1.6-0.1,3.2,0.1,4.8 c3.9,1,7.8,2.2,11.7,3.2c0-9.1,0-18.2,0-27.3c-1.3,0-2.6-0.1-3.9-0.1C21.9-120.8,22-113.6,21.9-106.5L21.9-106.5z"></path> </g> <g id="g3796" transform="matrix(1.25,0,0,1.25,-2.5065195,174.1722)"> <path id="path3798" inkscape:connector-curvature="0" class="st1" d="M27.7-133.3c5.5,0,11-0.1,16.6,0c-0.9,11.9-2,23.9-3.1,35.8 c-4.5,1.3-8.9,2.6-13.4,3.7c-0.2-6.3,0-12.6-0.1-18.8C27.7-119.5,27.5-126.4,27.7-133.3 M29.2-127.9c0,5.9,0,11.8,0,17.7 c2.7-0.4,5.4-0.9,8.1-1.4c0,1.4-0.1,2.8-0.2,4.1c-2.6,0.7-5.2,1.4-7.9,2.1c0,1.6,0,3.2,0,4.8c3.3-0.7,6.6-1.7,9.9-2.5 c0.4-0.2,1.2-0.2,1.2-0.8c0.4-4.3,0.6-8.5,1-12.8c-2.7,0.2-5.4,0.7-8.2,0.9c0-2.4,0-4.8,0-7.2c2.9,0,5.7,0,8.6,0 c0.2-1.6,0.3-3.2,0.5-4.8C37.9-128,33.6-128,29.2-127.9L29.2-127.9z"></path> </g> <path id="path3806" inkscape:connector-curvature="0" class="st2" d="M24.9,41.1c0.1-9-0.1-18,0.1-26.9c1.6,0,3.2,0.1,4.8,0.1 c0,11.4,0,22.7,0,34.1c-4.9-1.2-9.7-2.8-14.7-4c-0.2-2-0.3-4-0.2-6C18.3,39.1,21.6,40.2,24.9,41.1z"></path> </g> </svg> 