<?xml version="1.0" encoding="UTF-8"?> <svg xmlns="http://www.w3.org/2000/svg" width="72" height="73" viewBox="0 0 72 73" fill="none"><path d="M28.0922 53.3144C28.0922 53.3144 25.746 54.6797 29.7642 55.1404C34.6329 55.6966 37.1209 55.6168 42.4848 54.6029C42.4848 54.6029 43.8978 55.4864 45.8676 56.2522C33.839 61.4054 18.6457 55.9535 28.0922 53.3144ZM26.6216 46.5886C26.6216 46.5886 23.9893 48.5372 28.011 48.9536C33.212 49.4906 37.3183 49.5344 44.4274 48.1661C44.4274 48.1661 45.4084 49.1628 46.9533 49.7071C32.4131 53.9596 16.2182 50.0418 26.6216 46.5886V46.5886Z" fill="#0074BD"></path><path d="M39.0114 35.178C41.9769 38.5913 38.2338 41.6601 38.2338 41.6601C38.2338 41.6601 45.7588 37.7762 42.3037 32.9105C39.0754 28.375 36.6007 26.1222 49.999 18.3516C49.999 18.3521 28.9674 23.6032 39.0114 35.178V35.178Z" fill="#EA2D2E"></path><path d="M54.9194 58.2902C54.9194 58.2902 56.6563 59.7224 53.0058 60.8294C46.0649 62.932 24.1114 63.5659 18.0142 60.9135C15.8235 59.9597 19.9332 58.6372 21.2262 58.3581C22.5743 58.0662 23.3441 58.1194 23.3441 58.1194C20.9063 56.4031 7.58769 61.4909 16.58 62.9502C41.1012 66.9251 61.2789 61.1601 54.9194 58.2902V58.2902ZM29.2218 39.619C29.2218 39.619 18.056 42.2714 25.268 43.2356C28.3137 43.6432 34.3824 43.5497 40.0391 43.0752C44.6607 42.6869 49.2986 41.8575 49.2986 41.8575C49.2986 41.8575 47.6705 42.5559 46.4912 43.3602C35.1502 46.3433 13.2469 44.9539 19.5533 41.9043C24.8846 39.3257 29.2218 39.619 29.2218 39.619V39.619ZM49.2523 50.8148C60.7799 44.8264 55.4495 39.0712 51.729 39.8464C50.8195 40.0359 50.4114 40.2008 50.4114 40.2008C50.4114 40.2008 50.7501 39.6697 51.3958 39.4414C58.7555 36.8549 64.4147 47.0717 49.022 51.1185C49.022 51.1175 49.1987 50.9576 49.2523 50.8148V50.8148Z" fill="#0074BD"></path><path d="M42.3036 5.80225C42.3036 5.80225 48.6863 12.1889 36.2482 22.0065C26.2735 29.8845 33.9738 34.3752 36.2448 39.5082C30.4217 34.2551 26.1505 29.63 29.0155 25.3258C33.2227 19.0091 44.8782 15.9452 42.3036 5.80225V5.80225Z" fill="#EA2D2E"></path><path d="M30.3548 67.0471C41.4172 67.7544 58.4095 66.6534 58.8116 61.4185C58.8116 61.4185 58.0384 63.403 49.6683 64.9775C40.2252 66.7552 28.5761 66.548 21.6692 65.4076C21.6692 65.4081 23.0842 66.5795 30.3548 67.0471V67.0471Z" fill="#0074BD"></path></svg> 