<?xml version="1.0" encoding="UTF-8"?> <svg xmlns="http://www.w3.org/2000/svg" xmlns:xlink="http://www.w3.org/1999/xlink" version="1.1" id="Layer_1" x="0px" y="0px" viewBox="0 0 180 60" style="enable-background:new 0 0 180 60;" xml:space="preserve"> <style type="text/css"> .st0{fill-rule:evenodd;clip-rule:evenodd;fill:#D33833;} .st1{fill:#EF3D3A;} .st2{fill:#231F20;} .st3{fill-rule:evenodd;clip-rule:evenodd;fill:#F0D6B7;} .st4{fill-rule:evenodd;clip-rule:evenodd;fill:#335061;} .st5{fill-rule:evenodd;clip-rule:evenodd;fill:#6D6B6D;} .st6{fill-rule:evenodd;clip-rule:evenodd;fill:#DCD9D8;} .st7{fill-rule:evenodd;clip-rule:evenodd;fill:#F7E4CD;} .st8{fill:#F7E4CD;} .st9{fill-rule:evenodd;clip-rule:evenodd;fill:#49728B;} .st10{fill-rule:evenodd;clip-rule:evenodd;fill:#FFFFFF;} .st11{fill:#FFFFFF;} .st12{fill:none;stroke:#D33833;stroke-width:0.6162;stroke-miterlimit:5;} .st13{fill-rule:evenodd;clip-rule:evenodd;fill:#EF3D3A;} .st14{fill-rule:evenodd;clip-rule:evenodd;fill:#231F20;} .st15{fill-rule:evenodd;clip-rule:evenodd;fill:#81B0C4;} .st16{fill-rule:evenodd;clip-rule:evenodd;fill:#1D1919;} </style> <path class="st0" d="M39.4,29c0,10.5-8.3,19.1-18.6,19.1S2.1,39.5,2.1,29S10.5,9.9,20.8,9.9S39.4,18.5,39.4,29"></path> <path class="st1" d="M2.9,33.7c0,0-1.3-19.9,17-20.4l-1.3-2.1l-9.9,3.3l-2.8,3.3l-2.5,4.8L1.9,28l0.4,3.7"></path> <path class="st2" d="M8,16c-3.3,3.3-5.3,8-5.3,13.1s2,9.7,5.3,13.1s7.8,5.4,12.8,5.4s9.5-2.1,12.8-5.4c3.3-3.3,5.3-8,5.3-13.1 s-2-9.7-5.3-13.1s-7.8-5.4-12.8-5.4C15.8,10.6,11.3,12.6,8,16L8,16z M7.2,42.9c-3.5-3.6-5.6-8.5-5.6-13.9s2.1-10.3,5.6-13.9 s8.3-5.8,13.6-5.8s10.1,2.2,13.6,5.8S40,23.6,40,29.1s-2.1,10.3-5.6,13.9s-8.3,5.8-13.6,5.8S10.7,46.5,7.2,42.9"></path> <g> <path class="st3" d="M28.6,29.1l-2.8,0.4l-3.8,0.4L19.5,30L17,29.9l-1.8-0.6l-1.6-1.8L12.3,24L12,23.2l-1.7-0.6l-1-1.6l-0.7-2.3 l0.8-2.1l1.8-0.6l1.5,0.7l0.7,1.6l0.9-0.1l0.3-0.4l-0.3-1.6L14.2,14l0.4-2.8l0-1.6l1.3-2.1l2.3-1.6l4-1.7l4.4,0.6l3.8,2.8l1.8,2.8 l1.1,2.1l0.3,5.1L32.7,22l-1.6,3.9L29.7,28"></path> <path class="st4" d="M26.2,41.4L16,41.8v1.7l0.9,6L16.5,50l-7.1-2.4l-0.5-0.9l-0.7-8l-1.6-4.8l-0.4-1.1l5.7-3.9l1.8-0.7l1.6,1.9 l1.3,1.2l1.6,0.5l0.7,0.2l0.9,3.7l0.6,0.8l1.6-0.6L20.8,38l6.2,2.9L26.2,41.4"></path> <path class="st5" d="M9.4,16.6l1.8-0.6l1.5,0.7l0.7,1.6l0.9-0.1l0.2-0.9l-0.4-1.6l0.4-3.9l-0.4-2.1l1.3-1.5l2.8-2.2l-0.8-1.1 l-3.9,1.9L11.9,8l-0.9,2l-1.4,1.9l-0.4,2.3L9.4,16.6"></path> <path class="st6" d="M12.3,9.9c0,0,1.1-2.6,5.3-3.9s0.2-0.9,0.2-0.9l-4.6,1.8l-1.8,1.8l-0.8,1.4L12.3,9.9 M10.2,16.1 c0,0-1.5-5,4.2-5.7l-0.2-0.9l-3.9,0.9l-1.1,3.7l0.3,2.4L10.2,16.1"></path> <path class="st7" d="M12.4,22.7l0.9-0.9c0,0,0.4,0,0.5,0.5c0.1,0.5,0.3,5,3.3,7.4c0.3,0.2-2.3-0.3-2.3-0.3l-2.3-3.5 M25.5,21.4 c0,0,0.2-2.2,0.7-2c0.6,0.2,0.6,0.7,0.6,0.7S25.4,21,25.5,21.4"></path> </g> <path class="st8" d="M31.4,13.5c0,0-1.2,0.2-1.3,1.3c-0.1,1,1.3,0.2,1.5,0.1 M22.8,13.5c0,0-1.6,0.2-1.6,1.2s1.8,0.9,2.3,0.5"></path> <g> <path class="st7" d="M13.1,18.2c0,0-2.7-1.6-3-0.1c-0.3,1.6-0.9,2.7,0.4,4.3l-0.9-0.3l-0.9-2.2l-0.3-2.1l1.6-1.7l1.8,0.1l1.1,0.9 L13.1,18.2 M14.4,13.7c0,0,1.2-6.2,7.3-7.5c5-1,7.7,0.2,8.7,1.3c0,0-4.5-5.3-8.7-3.7s-7.4,4.6-7.3,6.5L14.4,13.7 M30.9,8.3 c0,0-2.1-0.1-2.1,1.8c0,0,0,0.3,0.1,0.6c0,0,1.6-1.8,2.6-0.9 M21.9,10.8c0,0-0.3-2.8-2.8-1.2c-1.6,1.1-1.4,2.6-1.1,2.8 c0.3,0.3,0.2,0.9,0.4,0.5c0.2-0.4,0.1-1.7,0.9-2C20.1,10.6,21.4,10.2,21.9,10.8"></path> <path class="st9" d="M15.2,30l-6.7,3c0,0,2.8,11,1.3,14.4l-1-0.3l-0.1-4.2l-1.8-8l-0.8-2.2l6.9-4.7L15.2,30 M15.9,36.1l0.9,1.2v4.3 h-1.1l-0.1-3.3c0-0.3,0.1-1.6,0.1-1.6 M15.9,42.2l-3.2,0.1l0.9,0.6l2.3,0.3"></path> <g> <path class="st4" d="M26.8,41.4l2.6-0.1l0.6,6.5l-2.7,0.4L26.8,41.4"></path> <path class="st4" d="M27.5,41.4l4-0.2l1.6-4.3c0-0.2,1.4-6,1.4-6l-3.2-3.3L30.7,27L29,28.7v6.6L27.5,41.4"></path> </g> <path class="st9" d="M29.3,40.9l-2.5,0.5l0.3,2c0.9,0.4,2.5-0.7,2.5-0.7 M29.4,28.5l5,3.7l0.1-1.7L30.7,27L29.4,28.5"></path> <path class="st10" d="M18.4,55.4l-1.5-6l-0.7-4.4L16,41.8l6.7-0.3h4.1l-0.4,7.4l0.6,5.8L27,55.7l-5.4,0.4L18.4,55.4"></path> <path class="st6" d="M25.9,41.4c0,0-0.4,7.4,0.7,12.6c0,0-2.1,1.3-5.3,1.7l6-0.2l0.7-0.4l-0.9-11.6L27,40.9"></path> <path class="st10" d="M30.2,47.3l2.8-0.8l5.3-0.3l0.8-2.4l-1.4-4.2L36,39.5l-2.3,0.7l-2.2,1.1L30.4,41l-0.9,0.3"></path> <path class="st6" d="M30.2,45.9c0,0,1.8-0.9,2.1-0.8l-0.8-3.9l0.9-0.4l0.6,4.1l4.3,0.2c0,0,0.9-1.6,0.6-3.3l0.8,2.3l0.1,1.3 l-1.1,1.7l-1.3,0.3l-2.1-0.1l-0.7-0.9l-2.5,0.4l-0.8,0.3"></path> </g> <path class="st11" d="M27.4,40.9l-1.6-4l-1.6-2.3c0,0,0.4-1,0.9-1h1.6l1.6,0.6l-0.1,2.6L27.4,40.9"></path> <path class="st6" d="M27.7,39.5c0,0-2-3.8-2-4.4c0,0,0.4-0.9,0.9-0.6c0.5,0.2,1.6,0.8,1.6,0.8v-1.3l-2.4-0.5l-1.6,0.2l2.8,6.5 l0.6,0.1"></path> <path class="st11" d="M19,30.2l-2-0.2l-1.8-0.6V30l0.9,1l2.8,1.3"></path> <g> <path class="st6" d="M15.8,30.4c0,0,2.2,0.9,2.9,0.7l0.1,0.9l-2-0.4l-1.2-0.9L15.8,30.4"></path> <path class="st0" d="M30.2,33.8c-1.2,0-2.3-0.2-3.2-0.4c0.1-0.4-0.1-0.8,0-1.1c0.3-0.2,0.7-0.2,1.1-0.2c-0.3-0.2-0.8-0.2-1.2-0.1 c0-0.3-0.1-0.4-0.2-0.7c0.7-0.2,2.3-1.8,3.2-1.3c0.4,0.3,0.6,1.7,0.6,2.4C30.5,32.9,30.5,33.5,30.2,33.8"></path> </g> <path class="st12" d="M30.2,33.8c-1.2,0-2.3-0.2-3.2-0.4c0.1-0.4-0.1-0.8,0-1.1c0.3-0.2,0.7-0.2,1.1-0.2c-0.3-0.2-0.8-0.2-1.2-0.1 c0-0.3-0.1-0.4-0.2-0.7c0.7-0.2,2.3-1.8,3.2-1.3c0.4,0.3,0.6,1.7,0.6,2.4C30.5,32.9,30.5,33.5,30.2,33.8L30.2,33.8z"></path> <path class="st0" d="M24.5,31.8l0,0.3c-0.4,0.2-1,0.2-1.4,0.5c0.5,0,1,0.1,1.5,0.4l0,0.7c-0.7,0.5-1.3,1.2-2.1,1.6 c-0.4,0.2-1.7,0.7-2.1,0.7c-0.2-0.1-0.3-0.3-0.3-0.6c-0.2-0.6-0.6-1.5-0.7-2.4c-0.1-1.1-0.2-2.9,1-2.7c1,0.2,2.1,0.6,2.8,1 C23.5,31.5,23.8,31.8,24.5,31.8"></path> <path class="st12" d="M24.5,31.8l0,0.3c-0.4,0.2-1,0.2-1.4,0.5c0.5,0,1,0.1,1.5,0.4l0,0.7c-0.7,0.5-1.3,1.2-2.1,1.6 c-0.4,0.2-1.7,0.7-2.1,0.7c-0.2-0.1-0.3-0.3-0.3-0.6c-0.2-0.6-0.6-1.5-0.7-2.4c-0.1-1.1-0.2-2.9,1-2.7c1,0.2,2.1,0.6,2.8,1 C23.5,31.5,23.8,31.8,24.5,31.8L24.5,31.8z"></path> <path class="st0" d="M25.1,33.2c-0.1-0.6-0.2-0.8-0.2-1.3C26.6,30.8,26.9,33.7,25.1,33.2"></path> <path class="st12" d="M25.1,33.2c-0.1-0.6-0.2-0.8-0.2-1.3C26.6,30.8,26.9,33.7,25.1,33.2z"></path> <path class="st13" d="M27.5,33.6c0,0-0.5-0.7-0.1-0.9c0.4-0.2,0.7,0,0.9-0.3c0.2-0.3,0-0.6,0.1-1c0.1-0.4,0.4-0.5,0.8-0.6 c0.4-0.1,1.3-0.2,1.5,0.1l-0.4-1.3l-0.9-0.3l-2.7,1.6l-0.1,0.8v1.6 M20,36l-0.3-3.3c-0.2-1.7,0.4-1.4,1.8-1.4c0.2,0,1.3,0.3,1.4,0.4 c0.4,0.8-0.6,0.6,0.4,1.2c0.9,0.5,2.6-0.3,2.2-1.4c-0.2-0.2-1.1-0.1-1.4-0.2l-1.7-0.9c-0.7-0.4-2.3-0.9-3.1-0.4 c-1.9,1.3,0.1,4.5,0.8,5.9"></path> <path class="st14" d="M21.9,10.8c-1.9-0.5-2.9,0.8-3.5,2.1c-0.5-0.1-0.3-0.8-0.2-1.2c0.3-1,1.7-2.2,2.9-2 C21.6,9.8,22.2,10.2,21.9,10.8 M31.3,13L31.3,13c0.5,0.9,0.9,1.9,1.5,2.7c-0.4,0.9-2.8,1.6-2.8,0.1c0.5-0.2,1.4,0,1.9-0.3 C31.6,14.7,31.2,14.1,31.3,13 M22.9,13.1c0.4,0.8,0.6,1.6,1.1,2.1c0.3,0.3,0.8,0.6,0.5,1.3c-0.1,0.2-0.5,0.5-0.7,0.6 c-0.9,0.3-3.1,0.1-2.3-1.1c0.8,0,1.8,0.5,2.4-0.1C23.3,15.3,22.6,13.9,22.9,13.1 M30.9,20.8c-1.4,0.9-2.9,1.9-5.2,1.6 c-0.5-0.4-0.7-1.4-0.2-2c0.2,0.4,0.1,1.2,0.8,1.3c1.3,0.2,2.8-0.8,3.7-1.1c0.6-1,0-1.3-0.6-2c-1.1-1.3-2.5-2.9-2.4-4.8 c0.4-0.3,0.5,0.5,0.5,0.6c0.6,1.3,1.9,3,3,4.1c0.3,0.3,0.7,0.5,0.7,0.7C31.4,19.8,30.9,20.4,30.9,20.8 M12.7,19.8 c-0.4-0.2-0.5-1.3-1-1.4c-0.7,0-0.6,1.4-0.6,2.3c-0.5-0.5-0.6-1.9-0.2-2.6c-0.4-0.2-0.6,0.2-0.8,0.4C10.2,16.3,13.1,17.5,12.7,19.8 M31.8,21.7c-0.6,1.2-1.6,2.6-3.5,2.6c0-0.4-0.1-1,0-1.2C29.8,22.9,30.7,22.2,31.8,21.7 M22.7,22.5c1.2,0.6,3.4,0.7,5.1,0.7 c0.1,0.4,0.1,0.8,0.1,1.2C25.8,24.5,23.3,24,22.7,22.5 M22.5,23.7c0.8,2.1,3.7,1.9,6.1,1.8c-0.1,0.3-0.3,0.6-0.6,0.7 c-0.8,0.3-2.9,0.6-4,0c-0.7-0.4-1.1-1.2-1.5-1.7C22.4,24.3,21.5,23.7,22.5,23.7"></path> <path class="st15" d="M30.9,35.3l-3.1,4.9c0.5-1.4,0.7-3.8,0.8-5.7C29.6,34,30.4,34.6,30.9,35.3"></path> <path class="st14" d="M36.1,41.3c-1.1,0.2-1.9,1.3-2.9,1.2C33.8,41.7,34.8,41.3,36.1,41.3 M36.6,43c-0.9,0.1-1.9,0.2-2.9,0.2 C34.2,42.5,35.8,42.8,36.6,43 M36.9,44.5c-1,0-2.3,0-3.2-0.1C34.3,43.8,36.3,44.2,36.9,44.5"></path> <path class="st6" d="M29,48.6c0.1,1.3,0.6,2.5,0.6,3.9c-0.6,0.2-0.9,0.4-1.6,0.4l-0.2-4.1C28.1,48.8,28.7,48.5,29,48.6"></path> <path class="st3" d="M27.3,29.9c-0.5,0.3-0.9,0.7-1.4,1.1c-1.1,0.1-1.7-0.1-2.5-0.7c0,0,0.1,0,0.1-0.1C24.7,30.8,26.2,30,27.3,29.9"></path> <path class="st15" d="M21.3,37.8c0.3-1.4,1.6-2.1,2.7-2.8c1.2,1.5,1.9,3.4,2.6,5.2C24.8,39.6,22.9,38.7,21.3,37.8"></path> <path class="st14" d="M27.8,48.7c0,1.1,0.1,2.9,0.2,4.1c0.7,0,1.1-0.2,1.6-0.4c0.1-1.4-0.4-2.7-0.6-3.9 C28.7,48.5,28.1,48.8,27.8,48.7L27.8,48.7z M16.1,42.4c0.5,4.5,1.2,8.3,2.5,12.3c2.9,0.9,6.4,1,9,0.2c-0.5-2.3-0.3-5-0.5-7.4 c-0.2-1.8-0.1-3.6-0.4-5.5C23.6,41.3,19.2,41.8,16.1,42.4L16.1,42.4z M27.4,42c0,1.9,0.1,3.9,0.2,5.8c0.7-0.1,1.3-0.2,1.9-0.3 c-0.2-1.9-0.2-4-0.7-5.6C28.4,41.8,27.9,41.8,27.4,42L27.4,42z M31.2,41.7c-0.3-0.1-0.8,0-1.1,0c0.2,1.6,0.5,3.3,0.7,5 c0.5,0,0.8-0.2,1.3-0.3C32.1,44.9,31.9,42.9,31.2,41.7L31.2,41.7z M36.9,46.9c1.1-0.3,1.8-1.6,1.5-3c-0.2-0.9-0.6-2.7-1-3.3 c-0.3-0.4-1.1-1-1.7-0.6c-1,0.7-2.9,0.9-3.6,1.7c0.4,1.3,0.5,3,0.7,4.6c1.3,0.1,2.9-0.4,3.9,0.1c-0.7,0.2-1.7,0.2-2.4,0.6 C34.9,47.1,36.1,47.1,36.9,46.9L36.9,46.9z M26.6,40.1c-0.8-1.8-1.5-3.7-2.6-5.2c-1.1,0.8-2.4,1.5-2.7,2.8 C22.9,38.7,24.8,39.6,26.6,40.1z M28.5,34.5c-0.1,1.8-0.3,4.2-0.8,5.7c1.2-1.5,2.1-3.2,3.1-4.9C30.4,34.6,29.6,34,28.5,34.5 L28.5,34.5z M26.4,33.7c-0.4,0-0.8,0.5-1.4,0.3c-0.1,0.1-0.3,0.3-0.4,0.4c1.3,1.5,1.8,3.7,2.8,5.5c0.5-1.7,0.5-3.6,0.6-5.5 C27.3,34.5,26.9,33.8,26.4,33.7z M25,31.9c0,0.5,0.1,0.7,0.2,1.3C26.9,33.7,26.6,30.8,25,31.9z M23.1,31.2c-0.7-0.4-1.9-0.8-2.8-1 c-1.2-0.2-1.1,1.6-1,2.7c0,0.9,0.5,1.8,0.7,2.4c0.1,0.3,0.1,0.6,0.3,0.6c0.4,0.1,1.8-0.4,2.1-0.7c0.8-0.4,1.4-1.1,2.1-1.6l0-0.7 c-0.5-0.2-1-0.4-1.5-0.4c0.4-0.2,1-0.2,1.4-0.5l0-0.3C23.8,31.8,23.5,31.5,23.1,31.2L23.1,31.2z M16,29.9c-0.6,0.6,1.7,1.5,2.5,1.5 c0-0.4,0.2-0.8,0.2-1.1C17.7,30.3,16.6,30.4,16,29.9z M23.5,30.2C23.5,30.3,23.5,30.3,23.5,30.2c0.7,0.7,1.3,0.8,2.4,0.8 c0.5-0.4,0.9-0.8,1.4-1.1C26.2,30,24.7,30.8,23.5,30.2L23.5,30.2z M30.5,32.3c0-0.7-0.2-2.1-0.6-2.4c-0.9-0.5-2.5,1.1-3.2,1.3 c0.1,0.2,0.2,0.4,0.2,0.7c0.4-0.1,0.9,0,1.2,0.1c-0.4,0-0.8,0-1.1,0.2c-0.1,0.3,0,0.7,0,1.1c1,0.3,2,0.4,3.2,0.4 C30.4,33.5,30.5,32.9,30.5,32.3L30.5,32.3z M14.9,30.6c-0.2-0.1-1.5-1.8-1.7-1.8c-2.4,0.9-4.6,2.5-6.5,4.1c1.9,4,2.6,9,2.8,13.8 c2.2,1,4.1,2.5,7,2.6c-0.3-2.4-0.6-4.5-0.8-6.8c-0.7-0.3-1.8,0-2.5-0.1c0-0.8,1.1-0.4,1.1-0.9c0.1-0.4-0.6-0.5-0.4-1.1 c0.5,0.2,0.8,0.6,1.4,0.8c0.5-1.1,0-3.2,0.1-4.1c0-0.2,0.1-1,0.5-0.9c0.4,0.1,0,2.2,0,3.1c0,0.8-0.1,1.6,0.2,2.2 c2.9-0.4,5.8-0.6,8.8-0.7c-0.7-0.3-1.5-0.6-2.3-1.1c-0.5-0.3-2-0.8-2.1-1.3c-0.2-0.7,0.6-1.1,0.7-1.7c-1.4,0.8-1.7-0.7-2-1.8 c-0.3-1-0.5-1.7-0.6-2.3C17.3,31.9,16,31.3,14.9,30.6L14.9,30.6z M29.3,29c2-1,2.3,3.6,1.6,5c0.1,0.4,0.5,0.6,0.7,1 c-1.1,2-2.3,3.8-3.4,5.7c0.8-0.5,2-0.1,3-0.5c0.4-0.1,0.6-1,0.9-1.6c0.7-1.8,1.5-4.1,1.9-5.8c0.1-0.4,0.3-1.2,0.2-1.6 c-0.1-0.6-0.9-1.1-1.4-1.5c-0.8-0.7-1.3-1.3-2.1-2C30.2,28.3,29.5,28.6,29.3,29L29.3,29z M10.4,11.5c-0.9,1-0.7,3-0.6,4.3 c1.7-1.1,3.9,0.1,3.9,1.9c0.8,0,0.3-1,0.2-1.6c-0.5-2.1,0.8-4.3,0.1-6.2C12.5,10,11.3,10.6,10.4,11.5L10.4,11.5z M17.2,5.5 c-2.1,0.6-4.8,2.1-5.7,4.1c0.7-0.1,1.1-0.4,1.8-0.5c0.3,0,0.6,0.1,0.9,0c0.6-0.1,1.1-1.4,1.5-1.9c0.4-0.5,0.9-0.7,1.3-1.1 C17.1,6,17.5,6,17.5,5.7C17.4,5.6,17.3,5.5,17.2,5.5L17.2,5.5z M28.2,6.1c-2.2-1.2-5.9-2.2-8.3-1C18,6,15.5,7.6,14.6,9.6 c0.8,1.9-0.2,3.7-0.3,5.6c0,1,0.5,1.9,0.5,3.1c-0.3,0.5-1.1,0.5-1.7,0.5c-0.2-1-0.5-2.1-1.6-2.2c-1.4-0.2-2.5,1-2.6,2.3 c-0.1,1.5,1.1,3.9,2.8,3.7c0.7-0.1,0.8-0.7,1.5-0.7c0.4,0.8-0.6,1-0.7,1.6c0,0.1,0.1,0.7,0.1,1c0.3,1.3,1,2.9,1.7,3.9 c0.9,1.2,2.6,1.4,4.4,1.5c0.3-0.7,1.5-0.6,2.3-0.5c-0.9-0.4-1.8-1.3-2.5-2.1c-0.8-0.9-1.7-1.9-1.7-3.1c1.6,2.2,2.9,4.1,5.7,5 c2.2,0.7,4.7-0.3,6.4-1.5c0.7-0.5,1.1-1.3,1.6-2c1.8-2.6,2.7-6.4,2.5-10.1c-0.1-1.5-0.1-3-0.6-4c-0.5-1.1-2.3-2-3.4-1 c-0.2-1,0.9-1.7,2.1-1.3C30.4,8.2,29.5,6.8,28.2,6.1L28.2,6.1z M32.3,40.1c1.7-0.9,4.9-2.3,6,0c0.4,0.9,0.9,2.3,1.1,3.2 c0.3,1.2-0.3,3.8-1.6,4.3c-1.1,0.4-2.4,0.3-3.8,0.1c-0.2-0.1-0.3-0.4-0.5-0.6c-1,0-1.9,0.1-2.6,0.4c0.1,0.7-0.4,0.8-0.9,1 c-0.3,1.3,0.7,3.1,0.4,4.3c-0.2,0.9-1.2,1-2,1.2c0,0.5,0,0.9,0.1,1.3c-0.2,0.7-1,1-1.7,1.1c-2.5,0.3-6.3,0.4-8.7-0.4 c-0.7-1.6-1.2-3.7-1.8-5.5c-2.3,0.3-4.2-1-6-1.8c-0.6-0.3-1.5-0.4-1.7-0.9c-0.2-0.5-0.1-1.4-0.2-2.3c-0.1-2.2-0.3-4.3-0.8-6.6 c-0.3-1-0.7-1.9-1-2.9c-0.3-0.9-0.8-2-0.9-2.9c-0.2-1.3,1.1-1.4,1.9-2c1.2-0.9,2.2-1.4,3.6-2.2c0.4-0.2,1.6-0.8,1.7-1.1 c0.3-0.6-0.5-1.3-0.7-1.8c-0.3-0.7-0.5-1.3-0.5-2c-1.1-0.2-2-0.9-2.5-1.6c-0.9-1.3-1.5-3.6-0.7-5.4c0.1-0.1,0.3-0.4,0.4-0.6 c0.1-0.4-0.2-1-0.2-1.4c-0.1-2.3,0.4-4.3,1.9-5c0.6-2.5,2.9-3.3,5-4.6c0.8-0.5,1.7-0.8,2.6-1.1c3.2-1.2,8.2-1,10.9,1.1 c1.1,0.9,3,2.7,3.6,4c1.7,3.5,1.6,9.3,0.4,13.5c-0.2,0.6-0.4,1.4-0.7,2.1c-0.2,0.5-0.9,1.4-0.9,1.9c0.1,0.4,1.6,1.6,1.9,1.9 c0.6,0.6,1.7,1.3,1.8,2c0.1,0.8-0.3,1.8-0.6,2.6C33.9,35.6,33.2,37.9,32.3,40.1"></path> <path class="st7" d="M20.8,23c0.1-0.1,0.6-0.3,1.3,0c0,0-0.9,0.1-0.8,1.6L21,24.6C21,24.6,20.6,23.3,20.8,23"></path> <path class="st16" d="M27.1,35.2c0,0.2-0.2,0.4-0.4,0.4s-0.4-0.2-0.4-0.4c0-0.2,0.2-0.4,0.4-0.4l0,0C26.9,34.8,27.1,35,27.1,35.2 M27.4,37c0,0.2-0.2,0.4-0.4,0.4c-0.2,0-0.4-0.2-0.4-0.4c0-0.2,0.2-0.4,0.4-0.4l0,0C27.3,36.7,27.4,36.8,27.4,37"></path> <path class="st11" d="M48.7,46.6v-3.5h1.9c0.1,0.9,0.3,1.6,0.7,2.1c0.4,0.4,1,0.7,1.7,0.7c1,0,1.6-0.4,2-1.1 c0.4-0.7,0.6-2.1,0.6-4.2V20.7h-3.2v-1.8h11.9v1.8h-2.9v19.9c0,2.4-0.6,4.2-1.8,5.3c-1.2,1.1-3.2,1.7-5.8,1.7 c-0.8,0-1.7-0.1-2.5-0.3C50.4,47.2,49.5,46.9,48.7,46.6L48.7,46.6z M77.7,32.3c0-2.1-0.2-3.6-0.6-4.4c-0.4-0.8-1.1-1.3-2-1.3 c-0.9,0-1.6,0.4-2,1.2c-0.4,0.8-0.6,2.2-0.6,4.2v0.3L77.7,32.3L77.7,32.3z M83.5,34H72.6v0.1c0,2.1,0.3,3.5,0.9,4.5 c0.6,0.9,1.6,1.4,3,1.4c1.1,0,2.1-0.3,2.8-0.9c0.7-0.6,1.2-1.5,1.4-2.7h2.5c-0.4,1.8-1.3,3.1-2.6,4c-1.3,0.8-3.1,1.3-5.4,1.3 c-2.8,0-4.9-0.7-6.3-2.2c-1.5-1.5-2.2-3.5-2.2-6.2c0-2.6,0.8-4.7,2.3-6.2c1.5-1.5,3.6-2.2,6.3-2.2c2.6,0,4.7,0.8,6.1,2.3 C82.7,28.8,83.4,31.1,83.5,34L83.5,34z M86,41.2v-1.8h2.3V27.1H86v-1.8h7.6v2.2c0.6-0.9,1.4-1.6,2.2-2.1c0.8-0.4,1.9-0.6,3.1-0.6 c1.8,0,3.1,0.5,4,1.6c0.9,1,1.4,2.6,1.4,4.6v8.3h2.3v1.8H97v-1.8H99V31c0-1.3-0.2-2.3-0.5-2.8c-0.3-0.5-0.9-0.8-1.8-0.8 c-1.1,0-1.9,0.4-2.4,1.2c-0.5,0.8-0.7,2-0.7,3.7v7.1h1.9v1.8L86,41.2L86,41.2z M117.8,41.2h-9.6v-1.8h2.3V19.7h-2.3v-1.8h7.6v15 l6.4-5.8h-1.9v-1.8h7.3v1.8h-3l-4.1,3.7l6.7,8.6h1.7v1.8h-9.1v-1.8h1.9l-4.4-5.7l-1.5,1.3v4.4h2L117.8,41.2L117.8,41.2z M131.3,20.8 c0-0.8,0.3-1.5,0.8-2c0.6-0.6,1.2-0.8,2.1-0.8c0.8,0,1.5,0.3,2,0.8c0.6,0.5,0.8,1.2,0.8,2c0,0.8-0.3,1.5-0.8,2 c-0.5,0.5-1.2,0.8-2,0.8c-0.8,0-1.5-0.3-2.1-0.8C131.6,22.3,131.3,21.6,131.3,20.8z M137.1,39.4h2.3v1.8h-9.8v-1.8h2.3V27.1h-2.3 v-1.8h7.6L137.1,39.4L137.1,39.4z M141.2,41.2v-1.8h2.3V27.1h-2.3v-1.8h7.6v2.2c0.6-0.9,1.4-1.6,2.2-2.1c0.8-0.4,1.9-0.6,3.1-0.6 c1.8,0,3.1,0.5,4,1.6c0.9,1,1.4,2.6,1.4,4.6v8.3h2.3v1.8h-9.5v-1.8h1.9V31c0-1.3-0.2-2.3-0.5-2.8c-0.3-0.5-0.9-0.8-1.8-0.8 c-1.1,0-1.9,0.4-2.4,1.2c-0.5,0.8-0.7,2-0.7,3.7v7.1h1.9v1.8L141.2,41.2L141.2,41.2z M163.9,40.8v-4.4h1.7c0.1,1.2,0.6,2.1,1.3,2.7 c0.7,0.6,1.8,0.9,3.1,0.9c1.1,0,1.9-0.2,2.5-0.6c0.6-0.4,0.9-0.9,0.9-1.6c0-0.6-0.2-1.1-0.6-1.5c-0.4-0.3-1.1-0.7-2.1-0.9l-2.2-0.6 c-1.6-0.4-2.8-1-3.6-1.8c-0.7-0.8-1.1-1.8-1.1-3.1c0-1.7,0.6-3,1.8-3.8c1.2-0.8,3-1.3,5.5-1.3c0.9,0,1.9,0.1,3,0.2 c1.1,0.1,2.2,0.4,3.5,0.7v4h-1.7c-0.1-1.1-0.5-1.9-1.2-2.5c-0.7-0.5-1.7-0.8-2.9-0.8c-1.1,0-1.9,0.2-2.5,0.5 c-0.5,0.3-0.8,0.8-0.8,1.5c0,0.5,0.2,1,0.5,1.3c0.3,0.3,0.9,0.6,1.7,0.8l2.2,0.6c2.1,0.5,3.5,1.2,4.3,2c0.8,0.8,1.2,1.9,1.2,3.2 c0,1.8-0.6,3.1-1.9,4c-1.3,0.8-3.3,1.3-6,1.3c-1,0-2-0.1-3.1-0.2C166.3,41.3,165.1,41.1,163.9,40.8L163.9,40.8z"></path> </svg> 