<?xml version="1.0" encoding="UTF-8"?> <svg xmlns="http://www.w3.org/2000/svg" xmlns:xlink="http://www.w3.org/1999/xlink" version="1.1" id="Layer_1" x="0px" y="0px" viewBox="0 0 180 60" style="enable-background:new 0 0 180 60;" xml:space="preserve"> <style type="text/css"> .st0{fill-rule:evenodd;clip-rule:evenodd;fill:#D33833;} .st1{fill:#EF3D3A;} .st2{fill:#231F20;} .st3{fill-rule:evenodd;clip-rule:evenodd;fill:#F0D6B7;} .st4{fill-rule:evenodd;clip-rule:evenodd;fill:#335061;} .st5{fill-rule:evenodd;clip-rule:evenodd;fill:#6D6B6D;} .st6{fill-rule:evenodd;clip-rule:evenodd;fill:#DCD9D8;} .st7{fill-rule:evenodd;clip-rule:evenodd;fill:#F7E4CD;} .st8{fill:#F7E4CD;} .st9{fill-rule:evenodd;clip-rule:evenodd;fill:#49728B;} .st10{fill-rule:evenodd;clip-rule:evenodd;fill:#FFFFFF;} .st11{fill:#FFFFFF;} .st12{fill:none;stroke:#D33833;stroke-width:0.6162;stroke-miterlimit:5;} .st13{fill-rule:evenodd;clip-rule:evenodd;fill:#EF3D3A;} .st14{fill-rule:evenodd;clip-rule:evenodd;fill:#231F20;} .st15{fill-rule:evenodd;clip-rule:evenodd;fill:#81B0C4;} .st16{fill-rule:evenodd;clip-rule:evenodd;fill:#1D1919;} </style> <g transform="matrix(1.25 0 0 -1.25 10 66.89757)"> <path class="st0" d="M23.5,30.3c0-8.4-6.7-15.2-14.9-15.2S-6.3,21.9-6.3,30.3S0.4,45.6,8.6,45.6S23.5,38.8,23.5,30.3"></path> <path class="st1" d="M-5.7,26.6c0,0-1.1,15.9,13.6,16.4l-1,1.7l-8-2.7l-2.3-2.6l-2-3.8l-1.1-4.4l0.3-3"></path> <path class="st2" d="M-1.6,40.7c-2.6-2.7-4.2-6.4-4.2-10.5s1.6-7.8,4.2-10.5s6.2-4.3,10.2-4.3s7.6,1.7,10.2,4.3s4.2,6.4,4.2,10.5 s-1.6,7.8-4.2,10.5s-6.2,4.3-10.2,4.3S1,43.4-1.6,40.7L-1.6,40.7z M-2.3,19.2C-5,22-6.8,25.9-6.8,30.3s1.7,8.3,4.5,11.1 S4.4,46,8.6,46s8.1-1.8,10.9-4.6S24,34.6,24,30.3s-1.7-8.3-4.5-11.1s-6.6-4.6-10.9-4.6S0.5,16.3-2.3,19.2"></path> <g> <path class="st3" d="M14.9,30.2l-2.3-0.3l-3.1-0.3l-2-0.1l-1.9,0.1L4.2,30l-1.3,1.4l-1,2.9L1.6,35l-1.4,0.5l-0.8,1.3l-0.6,1.9 l0.6,1.6L1,40.8l1.2-0.6l0.6-1.2L3.4,39l0.2,0.3l-0.2,1.3l-0.1,1.6l0.3,2.3l0,1.3l1,1.7l1.8,1.3l3.2,1.4l3.5-0.5l3.1-2.2l1.4-2.3 l0.9-1.6l0.2-4.1l-0.7-3.5l-1.2-3.1l-1.2-1.6"></path> <path class="st4" d="M13,20.4l-8.1-0.3v-1.4l0.7-4.8l-0.3-0.4l-5.7,1.9l-0.4,0.7l-0.6,6.4l-1.3,3.9l-0.3,0.9l4.5,3.1L2.9,31 l1.2-1.5l1.1-1l1.2-0.4L7,28l0.7-3l0.5-0.6l1.3,0.5l-0.9-1.8l4.9-2.3L13,20.4"></path> <path class="st5" d="M-0.5,40.2L1,40.8l1.2-0.6l0.6-1.2L3.4,39l0.2,0.7L3.2,41l0.3,3.1l-0.3,1.7l1,1.2l2.2,1.8l-0.6,0.9l-3.1-1.5 l-1.3-1l-0.7-1.6L-0.4,44l-0.3-1.8L-0.5,40.2"></path> <path class="st6" d="M1.8,45.6c0,0,0.9,2.1,4.3,3.1c3.4,1,0.2,0.7,0.2,0.7L2.6,48l-1.4-1.4l-0.6-1.1L1.8,45.6 M0.1,40.6 c0,0-1.2,4,3.4,4.5l-0.2,0.7l-3.1-0.7l-0.9-3l0.2-1.9L0.1,40.6"></path> <path class="st7" d="M1.9,35.4l0.7,0.7c0,0,0.3,0,0.4-0.4c0.1-0.4,0.2-4,2.7-5.9C6,29.6,3.9,30,3.9,30l-1.8,2.8 M12.4,36.4 c0,0,0.1,1.7,0.6,1.6s0.5-0.6,0.5-0.6S12.3,36.7,12.4,36.4"></path> </g> <path class="st8" d="M17.1,42.7c0,0-0.9-0.2-1-1c-0.1-0.8,1-0.2,1.2-0.1 M10.2,42.7c0,0-1.2-0.2-1.2-1s1.4-0.7,1.8-0.4"></path> <g> <path class="st7" d="M2.5,39c0,0-2.2,1.3-2.4,0.1s-0.7-2.2,0.3-3.5l-0.7,0.2L-1,37.6l-0.2,1.7l1.3,1.4l1.5-0.1l0.9-0.7L2.5,39 M3.5,42.6c0,0,1,5,5.8,6c4,0.8,6.1-0.2,6.9-1.1c0,0-3.6,4.3-7,3c-3.4-1.3-5.9-3.7-5.8-5.2L3.5,42.6 M16.7,46.9 c0,0-1.6,0.1-1.7-1.4c0,0,0-0.2,0.1-0.5c0,0,1.3,1.5,2.1,0.7 M9.5,44.9c0,0-0.3,2.3-2.2,0.9c-1.2-0.9-1.1-2-0.9-2.3 c0.2-0.2,0.2-0.7,0.3-0.4c0.2,0.3,0.1,1.3,0.7,1.6C8.1,45.1,9.1,45.4,9.5,44.9"></path> <path class="st9" d="M4.2,29.5l-5.3-2.4c0,0,2.2-8.8,1.1-11.5l-0.8,0.3L-1,19.2l-1.5,6.4l-0.6,1.8l5.6,3.8L4.2,29.5 M4.7,24.6 l0.8-0.9v-3.4H4.6L4.4,23c0,0.3,0.1,1.3,0.1,1.3 M4.7,19.8l-2.6-0.1l0.7-0.5l1.8-0.3"></path> <g> <path class="st4" d="M13.5,20.4l2.1,0.1l0.5-5.2l-2.2-0.3L13.5,20.4"></path> <path class="st4" d="M14,20.4l3.2,0.2l1.3,3.5c0,0.2,1.1,4.8,1.1,4.8l-2.6,2.7l-0.5,0.5l-1.4-1.4v-5.3L14,20.4"></path> </g> <path class="st9" d="M15.5,20.8l-2-0.4l0.3-1.6c0.7-0.3,2,0.6,2,0.6 M15.5,30.7l4-3l0.1,1.4l-3,2.8L15.5,30.7"></path> <path class="st10" d="M6.7,9.2l-1.2,4.8l-0.6,3.5l-0.1,2.6l5.3,0.3h3.3l-0.3-6l0.5-4.6l-0.1-0.9L9.3,8.6L6.7,9.2"></path> <path class="st6" d="M12.7,20.4c0,0-0.3-5.9,0.6-10.1c0,0-1.7-1.1-4.2-1.4l4.8,0.2l0.6,0.3l-0.7,9.3l-0.2,2"></path> <path class="st10" d="M16.2,15.6l2.2,0.6l4.2,0.2l0.6,1.9l-1.1,3.4L20.8,22L19,21.4l-1.7-0.9l-0.9,0.2l-0.7-0.3"></path> <path class="st6" d="M16.1,16.8c0,0,1.5,0.7,1.7,0.6l-0.6,3.1l0.7,0.3l0.5-3.3l3.5-0.2c0,0,0.7,1.3,0.5,2.7l0.6-1.8l0.1-1 l-0.9-1.4l-1-0.2l-1.7,0.1l-0.6,0.7l-2-0.3l-0.6-0.2"></path> </g> <path class="st11" d="M13.9,20.8L12.7,24l-1.3,1.9c0,0,0.3,0.8,0.7,0.8h1.3l1.2-0.5l-0.1-2.1L13.9,20.8"></path> <path class="st6" d="M14.2,21.9c0,0-1.6,3.1-1.6,3.5c0,0,0.3,0.7,0.7,0.5c0.4-0.2,1.2-0.6,1.2-0.6v1.1l-1.9,0.4l-1.3-0.2l2.2-5.2 l0.5-0.1"></path> <path class="st11" d="M7.2,29.4l-1.6,0.2L4.2,30v-0.5l0.7-0.8l2.3-1"></path> <g> <path class="st6" d="M4.7,29.2c0,0,1.8-0.7,2.3-0.6L7.1,28l-1.6,0.3l-1,0.7L4.7,29.2"></path> <path class="st0" d="M16.2,26.5c-1,0-1.8,0.1-2.6,0.4c0.1,0.3,0,0.6,0,0.8c0.2,0.2,0.6,0.2,0.9,0.2c-0.3,0.1-0.7,0.2-1,0.1 c0,0.2-0.1,0.4-0.2,0.5c0.5,0.2,1.8,1.5,2.5,1c0.3-0.2,0.5-1.3,0.5-1.9C16.4,27.2,16.4,26.7,16.2,26.5"></path> </g> <path class="st12" d="M16.2,26.5c-1,0-1.8,0.1-2.6,0.4c0.1,0.3,0,0.6,0,0.8c0.2,0.2,0.6,0.2,0.9,0.2c-0.3,0.1-0.7,0.2-1,0.1 c0,0.2-0.1,0.4-0.2,0.5c0.5,0.2,1.8,1.5,2.5,1c0.3-0.2,0.5-1.3,0.5-1.9C16.4,27.2,16.4,26.7,16.2,26.5L16.2,26.5z"></path> <path class="st0" d="M11.6,28l0-0.2c-0.3-0.2-0.8-0.2-1.1-0.4c0.4,0,0.8-0.1,1.2-0.3l0-0.6c-0.6-0.4-1.1-0.9-1.7-1.3 c-0.3-0.2-1.4-0.6-1.7-0.5c-0.2,0-0.2,0.3-0.3,0.5c-0.2,0.5-0.5,1.2-0.6,1.9c0,0.9-0.1,2.4,0.8,2.2c0.8-0.1,1.7-0.5,2.2-0.8 C10.8,28.3,11,28.1,11.6,28"></path> <path class="st12" d="M11.6,28l0-0.2c-0.3-0.2-0.8-0.2-1.1-0.4c0.4,0,0.8-0.1,1.2-0.3l0-0.6c-0.6-0.4-1.1-0.9-1.7-1.3 c-0.3-0.2-1.4-0.6-1.7-0.5c-0.2,0-0.2,0.3-0.3,0.5c-0.2,0.5-0.5,1.2-0.6,1.9c0,0.9-0.1,2.4,0.8,2.2c0.8-0.1,1.7-0.5,2.2-0.8 C10.8,28.3,11,28.1,11.6,28L11.6,28z"></path> <path class="st0" d="M12.1,27c-0.1,0.5-0.2,0.6-0.1,1C13.2,28.9,13.5,26.6,12.1,27"></path> <path class="st12" d="M12.1,27c-0.1,0.5-0.2,0.6-0.1,1C13.2,28.9,13.5,26.6,12.1,27z"></path> <path class="st13" d="M14,26.6c0,0-0.4,0.6-0.1,0.7c0.3,0.2,0.6,0,0.7,0.3c0.2,0.3,0,0.5,0.1,0.8c0.1,0.3,0.3,0.4,0.6,0.5 s1.1,0.2,1.2-0.1l-0.3,1L15.5,30l-2.2-1.2l-0.1-0.6v-1.3 M8,24.7l-0.2,2.7c-0.1,1.3,0.3,1.1,1.5,1.1c0.2,0,1.1-0.2,1.1-0.3 c0.3-0.6-0.5-0.5,0.4-1c0.7-0.4,2,0.2,1.7,1.1c-0.2,0.2-0.9,0.1-1.1,0.2L10,29.2c-0.6,0.3-1.9,0.7-2.5,0.3c-1.5-1,0.1-3.6,0.6-4.7"></path> <path class="st14" d="M9.5,44.9c-1.5,0.4-2.3-0.6-2.8-1.7c-0.4,0.1-0.3,0.7-0.1,1c0.3,0.8,1.4,1.8,2.3,1.6 C9.3,45.7,9.8,45.3,9.5,44.9 M17,43.1L17,43.1c0.4-0.7,0.7-1.5,1.2-2.1c-0.3-0.7-2.2-1.3-2.2-0.1c0.4,0.2,1.1,0,1.5,0.3 C17.3,41.7,17,42.2,17,43.1 M10.3,43.1c0.3-0.6,0.4-1.2,0.9-1.7c0.2-0.2,0.6-0.5,0.4-1c0-0.1-0.4-0.4-0.6-0.5 c-0.7-0.2-2.5,0-1.9,0.9c0.6,0,1.4-0.4,1.9,0C10.7,41.3,10.1,42.4,10.3,43.1 M16.8,36.9c-1.1-0.7-2.3-1.5-4.2-1.3 c-0.4,0.3-0.5,1.1-0.2,1.6c0.2-0.3,0.1-1,0.6-1.1c1-0.2,2.2,0.6,3,0.9c0.5,0.8,0,1.1-0.5,1.6c-0.8,1-2,2.3-1.9,3.8 C14,42.7,14,42,14,41.9c0.4-1,1.6-2.4,2.4-3.2c0.2-0.2,0.5-0.4,0.6-0.6C17.1,37.7,16.7,37.2,16.8,36.9 M2.1,37.6 c-0.3,0.2-0.4,1.1-0.8,1.1c-0.6,0-0.5-1.1-0.5-1.8c-0.4,0.4-0.5,1.5-0.2,2.1c-0.3,0.2-0.5-0.2-0.7-0.3C0.2,40.4,2.5,39.5,2.1,37.6 M17.5,36.2c-0.5-1-1.2-2.1-2.8-2.1c0,0.3-0.1,0.8,0,1C15.9,35.2,16.6,35.8,17.5,36.2 M10.2,35.5c1-0.5,2.7-0.6,4.1-0.5 c0.1-0.3,0.1-0.6,0.1-1C12.6,33.9,10.6,34.3,10.2,35.5 M10,34.6c0.7-1.7,3-1.5,4.9-1.4c-0.1-0.2-0.3-0.5-0.5-0.6 c-0.6-0.3-2.3-0.4-3.2,0c-0.5,0.3-0.9,0.9-1.2,1.3C9.9,34.1,9.2,34.6,10,34.6"></path> <path class="st15" d="M16.7,25.3l-2.5-3.9c0.4,1.1,0.6,3.1,0.6,4.5C15.6,26.3,16.3,25.8,16.7,25.3"></path> <path class="st14" d="M20.9,20.5c-0.9-0.2-1.5-1-2.4-1C19,20.2,19.8,20.4,20.9,20.5 M21.3,19.1C20.6,19,19.7,18.9,19,19 C19.4,19.5,20.7,19.3,21.3,19.1 M21.5,17.9c-0.8,0-1.8,0-2.6,0.1C19.4,18.5,21,18.2,21.5,17.9"></path> <path class="st6" d="M15.2,14.7c0.1-1,0.5-2,0.5-3.1c-0.4-0.1-0.7-0.3-1.3-0.3l-0.1,3.3C14.5,14.5,14.9,14.7,15.2,14.7"></path> <path class="st3" d="M13.9,29.6c-0.4-0.3-0.7-0.6-1.1-0.9c-0.9,0-1.3,0.1-2,0.6c0,0,0.1,0,0.1,0.1C11.8,28.9,12.9,29.5,13.9,29.6"></path> <path class="st15" d="M9,23.3c0.3,1.1,1.2,1.7,2.1,2.3c0.9-1.2,1.5-2.7,2.1-4.2C11.8,21.8,10.3,22.6,9,23.3"></path> <path class="st14" d="M14.2,14.5c0-0.9,0.1-2.3,0.1-3.3c0.6,0,0.9,0.1,1.3,0.3c0.1,1.1-0.4,2.1-0.5,3.1 C14.9,14.7,14.5,14.5,14.2,14.5L14.2,14.5z M4.9,19.6c0.4-3.6,1-6.7,2-9.9C9.2,9.1,12,9,14.1,9.6c-0.4,1.8-0.2,4-0.4,5.9 c-0.2,1.4-0.1,2.9-0.3,4.4C10.9,20.5,7.4,20.1,4.9,19.6L4.9,19.6z M13.9,19.9c0-1.6,0.1-3.1,0.2-4.6c0.6,0.1,1,0.1,1.6,0.3 c-0.2,1.5-0.2,3.2-0.5,4.5C14.7,20.1,14.4,20.1,13.9,19.9L13.9,19.9z M17,20.2c-0.3,0.1-0.6,0-0.9,0c0.1-1.3,0.4-2.7,0.5-4 c0.4,0,0.7,0.2,1,0.3C17.6,17.6,17.5,19.2,17,20.2L17,20.2z M21.5,16c0.9,0.2,1.4,1.3,1.2,2.4c-0.2,0.7-0.5,2.2-0.8,2.6 c-0.2,0.4-0.9,0.8-1.4,0.5c-0.8-0.5-2.3-0.7-2.9-1.3c0.3-1,0.4-2.4,0.5-3.7c1-0.1,2.3,0.3,3.2-0.1c-0.6-0.2-1.4-0.2-1.9-0.5 C19.9,15.8,20.9,15.8,21.5,16L21.5,16z M13.3,21.4c-0.6,1.5-1.2,3-2.1,4.2C10.3,25,9.3,24.4,9,23.3C10.3,22.6,11.8,21.8,13.3,21.4z M14.8,25.9c-0.1-1.5-0.2-3.4-0.6-4.5c0.9,1.2,1.7,2.6,2.5,3.9C16.3,25.8,15.6,26.3,14.8,25.9L14.8,25.9z M13.1,26.6 c-0.4,0-0.7-0.4-1.1-0.2c-0.1-0.1-0.2-0.2-0.3-0.4c1-1.2,1.5-3,2.3-4.4c0.4,1.4,0.4,2.9,0.5,4.4C13.8,26,13.5,26.5,13.1,26.6z M12,28c0-0.4,0.1-0.6,0.1-1C13.5,26.6,13.2,28.9,12,28z M10.4,28.5c-0.6,0.3-1.5,0.7-2.2,0.8c-0.9,0.2-0.9-1.3-0.8-2.2 c0-0.7,0.4-1.4,0.6-1.9C8,25.1,8,24.8,8.2,24.8c0.3-0.1,1.4,0.4,1.7,0.5c0.6,0.4,1.2,0.9,1.7,1.3l0,0.6c-0.4,0.2-0.8,0.3-1.2,0.3 c0.3,0.2,0.8,0.2,1.1,0.4l0,0.2C11,28.1,10.8,28.3,10.4,28.5L10.4,28.5z M4.8,29.6c-0.5-0.5,1.4-1.2,2-1.2c0,0.3,0.2,0.6,0.1,0.8 C6.2,29.3,5.3,29.2,4.8,29.6z M10.8,29.3C10.8,29.3,10.8,29.3,10.8,29.3c0.6-0.6,1-0.7,1.9-0.6c0.4,0.3,0.7,0.6,1.1,0.9 C12.9,29.5,11.8,28.9,10.8,29.3L10.8,29.3z M16.4,27.6c0,0.6-0.2,1.7-0.5,1.9c-0.7,0.4-2-0.8-2.5-1c0.1-0.2,0.2-0.3,0.2-0.5 c0.3,0.1,0.7,0,1-0.1c-0.3,0-0.7,0-0.9-0.2c-0.1-0.2,0-0.5,0-0.8c0.8-0.2,1.6-0.3,2.6-0.4C16.4,26.7,16.4,27.2,16.4,27.6L16.4,27.6 z M3.9,29.1c-0.2,0.1-1.2,1.5-1.3,1.4c-1.9-0.7-3.7-2-5.2-3.3c1.5-3.2,2.1-7.2,2.2-11c1.7-0.8,3.2-2,5.6-2.1 c-0.3,1.9-0.5,3.6-0.7,5.4c-0.6,0.2-1.4,0-2,0.1c0,0.7,0.8,0.3,0.9,0.7c0.1,0.3-0.5,0.4-0.3,0.9c0.4-0.2,0.7-0.5,1.1-0.6 c0.4,0.9,0,2.5,0.1,3.3c0,0.1,0.1,0.8,0.4,0.7c0.3-0.1,0-1.7,0-2.5c0-0.7-0.1-1.3,0.2-1.7c2.3,0.3,4.7,0.5,7,0.6 c-0.5,0.2-1.2,0.4-1.9,0.8c-0.4,0.2-1.6,0.7-1.7,1c-0.2,0.6,0.5,0.9,0.6,1.4c-1.1-0.6-1.4,0.6-1.6,1.5c-0.2,0.8-0.4,1.4-0.4,1.8 C5.8,28,4.8,28.5,3.9,29.1L3.9,29.1z M15.4,30.3c1.6,0.8,1.9-2.9,1.2-4c0.1-0.3,0.4-0.5,0.6-0.8c-0.9-1.6-1.9-3-2.8-4.6 c0.7,0.4,1.6,0.1,2.4,0.4c0.3,0.1,0.5,0.8,0.7,1.3c0.6,1.4,1.2,3.3,1.5,4.6c0.1,0.3,0.2,1,0.2,1.3c-0.1,0.5-0.7,0.9-1.1,1.2 c-0.6,0.6-1,1.1-1.7,1.6C16.2,30.9,15.6,30.6,15.4,30.3L15.4,30.3z M0.4,44.3c-0.8-0.8-0.6-2.4-0.5-3.5C1.2,41.7,3,40.7,3,39.3 c0.6,0,0.2,0.8,0.1,1.3c-0.4,1.7,0.6,3.5,0,5C2,45.5,1,45.1,0.4,44.3L0.4,44.3z M5.7,49.1c-1.7-0.5-3.9-1.7-4.6-3.2 c0.5,0.1,0.9,0.4,1.4,0.4c0.2,0,0.5-0.1,0.7,0c0.5,0.1,0.9,1.1,1.2,1.5c0.3,0.4,0.7,0.5,1,0.9C5.7,48.7,6,48.7,6,49 C5.9,49,5.8,49.1,5.7,49.1L5.7,49.1z M14.6,48.6c-1.8,1-4.7,1.7-6.6,0.8c-1.5-0.8-3.6-2-4.3-3.6c0.7-1.5-0.2-2.9-0.2-4.5 c0-0.8,0.4-1.5,0.4-2.4c-0.2-0.4-0.9-0.4-1.4-0.4c-0.2,0.8-0.4,1.7-1.3,1.8c-1.2,0.1-2-0.8-2.1-1.8c-0.1-1.2,0.9-3.1,2.3-3 c0.5,0.1,0.7,0.6,1.2,0.6c0.3-0.6-0.5-0.8-0.6-1.3c0-0.1,0.1-0.6,0.1-0.8c0.2-1,0.8-2.4,1.3-3.1c0.7-1,2.1-1.1,3.5-1.2 C7.4,30.2,8.3,30.2,9,30c-0.8,0.3-1.5,1-2,1.7c-0.7,0.7-1.3,1.5-1.4,2.5c1.3-1.7,2.3-3.3,4.6-4c1.7-0.6,3.8,0.3,5.1,1.2 c0.6,0.4,0.9,1,1.3,1.6c1.5,2.1,2.2,5.1,2,8c-0.1,1.2-0.1,2.4-0.5,3.2c-0.4,0.8-1.9,1.6-2.7,0.8c-0.2,0.8,0.7,1.3,1.7,1 C16.3,47,15.6,48.1,14.6,48.6L14.6,48.6z M17.9,21.4c1.4,0.7,4,1.8,4.8,0c0.3-0.7,0.7-1.8,0.9-2.5c0.2-1-0.3-3.1-1.3-3.4 c-0.9-0.3-1.9-0.3-3-0.1c-0.1,0.1-0.3,0.3-0.4,0.5c-0.8,0-1.5,0-2.1-0.4c0.1-0.6-0.3-0.7-0.7-0.8c-0.3-1.1,0.5-2.5,0.3-3.4 c-0.1-0.7-1-0.8-1.6-0.9c0-0.4,0-0.7,0.1-1c-0.1-0.5-0.8-0.8-1.4-0.9c-2-0.2-5-0.3-7,0.3c-0.5,1.3-1,2.9-1.4,4.4 c-1.9-0.2-3.4,0.8-4.8,1.5c-0.5,0.2-1.2,0.4-1.4,0.8c-0.2,0.4-0.1,1.1-0.2,1.8c-0.1,1.8-0.2,3.5-0.7,5.3c-0.2,0.8-0.6,1.5-0.8,2.3 c-0.2,0.7-0.6,1.6-0.8,2.3c-0.2,1.1,0.8,1.1,1.5,1.6c1,0.7,1.8,1.1,2.9,1.8c0.3,0.2,1.3,0.7,1.4,0.9c0.2,0.4-0.4,1.1-0.5,1.4 c-0.3,0.6-0.4,1-0.4,1.6c-0.9,0.1-1.6,0.7-2,1.3c-0.7,1-1.2,2.9-0.6,4.3c0,0.1,0.3,0.3,0.3,0.5c0.1,0.3-0.1,0.8-0.1,1.1 c-0.1,1.8,0.3,3.4,1.6,4c0.5,2,2.3,2.7,4,3.7C5,49.7,5.7,50,6.5,50.2c2.6,1,6.6,0.8,8.7-0.9c0.9-0.7,2.4-2.1,2.9-3.2 c1.4-2.8,1.3-7.4,0.3-10.8c-0.1-0.5-0.3-1.1-0.6-1.7c-0.2-0.4-0.8-1.1-0.7-1.5c0.1-0.3,1.3-1.3,1.6-1.5c0.5-0.5,1.4-1.1,1.5-1.6 c0.1-0.6-0.3-1.5-0.4-2C19.1,25,18.5,23.2,17.9,21.4"></path> <path class="st7" d="M8.7,35.1c0.1,0.1,0.5,0.3,1.1,0c0,0-0.7-0.1-0.6-1.3l-0.3,0.1C8.8,33.9,8.5,34.9,8.7,35.1"></path> <path class="st16" d="M13.6,25.3c0-0.2-0.1-0.3-0.3-0.3c-0.2,0-0.3,0.1-0.3,0.3s0.1,0.3,0.3,0.3l0,0C13.5,25.6,13.6,25.5,13.6,25.3 M14,23.9c0-0.2-0.1-0.3-0.3-0.3c-0.2,0-0.3,0.1-0.3,0.3s0.1,0.3,0.3,0.3l0,0C13.8,24.2,14,24.1,14,23.9"></path> <path d="M30.9,16.2V19h1.6c0-0.8,0.2-1.3,0.5-1.7c0.3-0.4,0.8-0.5,1.4-0.5c0.8,0,1.3,0.3,1.6,0.9c0.3,0.6,0.5,1.7,0.5,3.3V37h-2.6 v1.4h9.5V37h-2.3V21c0-1.9-0.5-3.4-1.5-4.3c-1-0.9-2.5-1.3-4.7-1.3c-0.7,0-1.3,0.1-2,0.2C32.3,15.8,31.6,16,30.9,16.2L30.9,16.2z M54.2,27.7c0,1.7-0.2,2.9-0.5,3.5c-0.3,0.7-0.8,1-1.6,1c-0.7,0-1.2-0.3-1.6-1c-0.3-0.7-0.5-1.8-0.5-3.3v-0.2L54.2,27.7L54.2,27.7z M58.8,26.3h-8.8v-0.1c0-1.6,0.2-2.8,0.7-3.6c0.5-0.7,1.3-1.1,2.4-1.1c0.9,0,1.7,0.2,2.2,0.7c0.6,0.5,0.9,1.2,1.1,2.1h2 c-0.3-1.4-1-2.5-2-3.2c-1-0.7-2.5-1-4.3-1c-2.2,0-3.9,0.6-5.1,1.7c-1.2,1.2-1.8,2.8-1.8,5c0,2.1,0.6,3.8,1.8,4.9 c1.2,1.2,2.9,1.8,5,1.8c2.1,0,3.7-0.6,4.9-1.9C58.1,30.5,58.7,28.7,58.8,26.3L58.8,26.3z M60.8,20.5V22h1.8v9.8h-1.8v1.4h6.1v-1.8 c0.5,0.8,1.1,1.3,1.7,1.6c0.7,0.3,1.5,0.5,2.5,0.5c1.4,0,2.5-0.4,3.2-1.3c0.7-0.8,1.1-2.1,1.1-3.7V22h1.8v-1.4h-7.6V22h1.5v6.8 c0,1.1-0.1,1.8-0.4,2.2c-0.3,0.4-0.8,0.6-1.4,0.6c-0.9,0-1.5-0.3-1.9-0.9c-0.4-0.6-0.6-1.6-0.6-3V22h1.6v-1.5L60.8,20.5L60.8,20.5z M86.3,20.5h-7.7V22h1.8v15.8h-1.8v1.4h6.1v-12l5.1,4.6h-1.5v1.4h5.8v-1.4h-2.4l-3.3-2.9l5.4-6.9h1.4v-1.4h-7.3V22h1.5l-3.5,4.5 l-1.2-1.1V22h1.6L86.3,20.5L86.3,20.5z M97,36.9c0,0.6,0.2,1.2,0.7,1.6c0.4,0.4,1,0.7,1.6,0.7c0.6,0,1.2-0.2,1.6-0.7 c0.4-0.4,0.7-1,0.7-1.6c0-0.6-0.2-1.2-0.7-1.6c-0.4-0.4-1-0.7-1.6-0.7c-0.6,0-1.2,0.2-1.6,0.7C97.3,35.7,97,36.2,97,36.9z M101.7,22h1.8v-1.5h-7.9V22h1.8v9.8h-1.8v1.4h6.1L101.7,22L101.7,22z M105,20.5V22h1.8v9.8H105v1.4h6.1v-1.8 c0.5,0.8,1.1,1.3,1.7,1.6c0.7,0.3,1.5,0.5,2.5,0.5c1.4,0,2.5-0.4,3.2-1.3c0.7-0.8,1.1-2.1,1.1-3.7V22h1.8v-1.4h-7.6V22h1.5v6.8 c0,1.1-0.1,1.8-0.4,2.2c-0.3,0.4-0.8,0.6-1.4,0.6c-0.9,0-1.5-0.3-1.9-0.9c-0.4-0.6-0.6-1.6-0.6-3V22h1.6v-1.5L105,20.5L105,20.5z M123.1,20.9v3.6h1.4c0.1-1,0.5-1.7,1.1-2.2c0.6-0.5,1.4-0.7,2.4-0.7c0.9,0,1.5,0.1,2,0.4c0.5,0.3,0.7,0.7,0.7,1.3 c0,0.5-0.1,0.9-0.4,1.2c-0.3,0.3-0.9,0.5-1.7,0.7l-1.7,0.4c-1.3,0.3-2.3,0.8-2.9,1.4c-0.6,0.6-0.9,1.4-0.9,2.5 c0,1.4,0.5,2.4,1.4,3.1c1,0.7,2.4,1,4.4,1c0.8,0,1.5-0.1,2.4-0.2c0.9-0.1,1.8-0.3,2.8-0.6v-3.2h-1.4c-0.1,0.9-0.4,1.5-0.9,2 c-0.5,0.4-1.3,0.7-2.3,0.7c-0.9,0-1.5-0.1-2-0.4c-0.4-0.3-0.7-0.7-0.7-1.2c0-0.4,0.1-0.8,0.4-1c0.3-0.2,0.7-0.5,1.4-0.6l1.7-0.4 c1.7-0.4,2.8-0.9,3.5-1.6c0.6-0.6,1-1.5,1-2.6c0-1.4-0.5-2.5-1.5-3.2c-1-0.7-2.6-1-4.8-1c-0.8,0-1.6,0.1-2.5,0.2 C125,20.5,124.1,20.7,123.1,20.9L123.1,20.9z"></path> </g> </svg> 