<?xml version="1.0" encoding="UTF-8"?> <svg xmlns:sodipodi="http://sodipodi.sourceforge.net/DTD/sodipodi-0.dtd" xmlns:rdf="http://www.w3.org/1999/02/22-rdf-syntax-ns#" xmlns:dc="http://purl.org/dc/elements/1.1/" xmlns:svg="http://www.w3.org/2000/svg" xmlns:inkscape="http://www.inkscape.org/namespaces/inkscape" xmlns:cc="http://creativecommons.org/ns#" xmlns="http://www.w3.org/2000/svg" xmlns:xlink="http://www.w3.org/1999/xlink" version="1.1" id="svg2" sodipodi:docname="logo.svg" x="0px" y="0px" viewBox="0 0 180 60" style="enable-background:new 0 0 180 60;" xml:space="preserve"> <style type="text/css"> .st0{fill:url(#path3212_00000168802066819124721830000008483024468565416100_);} .st1{fill:none;} .st2{fill:#BE202E;} .st3{opacity:0.35;fill:#BE202E;enable-background:new ;} .st4{fill:url(#path3239_00000156584874570001701280000009421404415334208160_);} .st5{fill:url(#path3250_00000121989154002733314010000013941244561927372935_);} .st6{fill:url(#path3261_00000052802143193872247380000012710774780929904261_);} .st7{fill:url(#path3272_00000153692272767484829280000002379180252058017462_);} .st8{fill:url(#path3283_00000008830355278656422920000007718112759480412052_);} .st9{fill:url(#path3294_00000110460737055127597850000011705138927138052276_);} .st10{fill:url(#path3309_00000074436109099605236830000010361612904216850057_);} .st11{fill:url(#path3324_00000148643580118892209720000015802417607674993333_);} .st12{fill:url(#path3339_00000001657246670787948020000006252397271043042715_);} .st13{fill:#D22128;stroke:#D22128;stroke-width:1.2288;stroke-linejoin:round;} .st14{fill:url(#path3720_00000160173285656075743800000010368345431752963985_);stroke:url(#path3720_00000026881965741568565760000009757515679605520063_);stroke-width:1.2288;stroke-linejoin:round;} .st15{fill:url(#path3879_00000031181919475160511660000007319102973411297715_);} .st16{fill:url(#path3881_00000151533637015949250680000000657330764446510231_);} .st17{fill:#D22128;} </style> <g id="layer1" transform="translate(-433.58814,-211.85279)" inkscape:groupmode="layer" inkscape:label="Ebene 1"> <g id="g3347" transform="matrix(0.61056696,0,0,0.61056696,-671.81995,122.75139)"> </g> <g id="g3349" transform="matrix(0.61056696,0,0,0.61056696,-671.81995,122.75139)"> </g> <g id="g3351" transform="matrix(0.61056696,0,0,0.61056696,-671.81995,122.75139)"> </g> <g id="g3353" transform="matrix(0.61056696,0,0,0.61056696,-671.81995,122.75139)"> </g> <g id="g3355" transform="matrix(0.61056696,0,0,0.61056696,-671.81995,122.75139)"> </g> <g id="g3357" transform="matrix(0.61056696,0,0,0.61056696,-671.81995,122.75139)"> </g> <g id="g3203" transform="matrix(0.16486497,0,0,0.16486497,427.12543,209.04631)"> <linearGradient id="path3212_00000062150318305147128670000007853834046217314966_" gradientUnits="userSpaceOnUse" x1="-81876.5312" y1="-21561.5059" x2="-81828.3984" y2="-21617.7871" gradientTransform="matrix(6.967194e-02 -0.1494 -0.1494 -6.967194e-02 2693.7886 -13678.5098)"> <stop offset="0" style="stop-color:#F69923"></stop> <stop offset="0.3123" style="stop-color:#F79A23"></stop> <stop offset="0.8383" style="stop-color:#E97826"></stop> </linearGradient> <path id="path3212" inkscape:connector-curvature="0" style="fill:url(#path3212_00000062150318305147128670000007853834046217314966_);" d=" M227.5,30.2c-5.3,3.2-14.3,12.1-24.8,25l9.7,18.4c6.8-9.8,13.8-18.6,20.8-26.1c0.5-0.6,0.8-0.9,0.8-0.9c-0.3,0.3-0.6,0.6-0.8,0.9 C230.9,50,224,58,213.6,74c10-0.5,25.3-2.5,37.9-4.7c3.8-20.9-3.6-30.4-3.6-30.4S238.5,23.7,227.5,30.2z"></path> <path id="path3214" inkscape:connector-curvature="0" class="st1" d="M210.9,135.1c0.1,0,0.1,0,0.2-0.1l-1.4,0.1 c-0.1,0.1-0.2,0.1-0.3,0.1C210,135.2,210.5,135.2,210.9,135.1z"></path> <path id="path3216" inkscape:connector-curvature="0" class="st1" d="M201,168c-0.8,0.2-1.6,0.3-2.4,0.4 C199.4,168.3,200.2,168.2,201,168z"></path> <path id="path3218" inkscape:connector-curvature="0" class="st1" d="M133.4,241.9c0.1-0.3,0.2-0.6,0.3-0.8 c2.2-5.7,4.3-11.1,6.4-16.5c2.4-6,4.7-11.8,7-17.5c2.4-5.9,4.8-11.7,7.2-17.2c2.5-5.9,4.9-11.5,7.3-16.9c2-4.4,3.9-8.7,5.8-12.8 c0.6-1.4,1.3-2.7,1.9-4.1c1.3-2.7,2.5-5.3,3.7-7.8c1.1-2.4,2.2-4.6,3.3-6.9c0.4-0.8,0.8-1.5,1.1-2.2c0.1-0.1,0.1-0.3,0.2-0.4 l-1.2,0.1l-1-1.8c-0.1,0.2-0.2,0.4-0.3,0.6c-1.7,3.4-3.4,6.8-5.1,10.3c-1,2-1.9,4-2.9,6c-2.7,5.6-5.3,11.2-7.8,16.9 c-2.6,5.7-5.2,11.5-7.6,17.2c-2.5,5.7-4.8,11.3-7.2,17c-2.4,5.7-4.6,11.3-6.9,16.9c-2.4,5.9-4.6,11.6-6.8,17.4 c-0.5,1.3-1,2.6-1.5,3.9c-1.8,4.6-3.5,9.2-5.2,13.7l1.5,3l1.3-0.1c0.1-0.1,0.1-0.3,0.1-0.4C129.1,253.3,131.3,247.5,133.4,241.9z"></path> <path id="path3220" inkscape:connector-curvature="0" class="st1" d="M197.9,168.5L197.9,168.5L197.9,168.5L197.9,168.5z"></path> <path id="path3222" inkscape:connector-curvature="0" class="st2" d="M194.7,184.6c-1.3,0.3-2.5,0.4-3.8,0.6l0,0 c0.6-0.1,1.3-0.2,2-0.3C193.5,184.9,194.1,184.7,194.7,184.6z"></path> <path id="path3224" inkscape:connector-curvature="0" class="st3" d="M194.7,184.6c-1.3,0.3-2.5,0.4-3.8,0.6l0,0 c0.6-0.1,1.3-0.2,2-0.3C193.5,184.9,194.1,184.7,194.7,184.6z"></path> <path id="path3226" inkscape:connector-curvature="0" class="st2" d="M198,168.5L198,168.5C197.9,168.5,197.9,168.5,198,168.5 c0.2,0,0.4-0.1,0.6-0.1c0.8-0.1,1.7-0.3,2.4-0.4C200,168.2,199,168.3,198,168.5L198,168.5L198,168.5z"></path> <path id="path3228" inkscape:connector-curvature="0" class="st3" d="M198,168.5L198,168.5C197.9,168.5,197.9,168.5,198,168.5 c0.2,0,0.4-0.1,0.6-0.1c0.8-0.1,1.7-0.3,2.4-0.4C200,168.2,199,168.3,198,168.5L198,168.5L198,168.5z"></path> <linearGradient id="path3239_00000139281149487404923880000013826508155828196797_" gradientUnits="userSpaceOnUse" x1="-84037.1562" y1="-21522.918" x2="-83693.7656" y2="-21522.918" gradientTransform="matrix(6.967194e-02 -0.1494 -0.1494 -6.967194e-02 2693.7886 -13678.5098)"> <stop offset="0.3233" style="stop-color:#9E2064"></stop> <stop offset="0.6302" style="stop-color:#C92037"></stop> <stop offset="0.7514" style="stop-color:#CD2335"></stop> <stop offset="1" style="stop-color:#E97826"></stop> </linearGradient> <path id="path3239" inkscape:connector-curvature="0" style="fill:url(#path3239_00000139281149487404923880000013826508155828196797_);" d=" M183.6,121.1c3-5.5,6-10.9,9-16.2c3.1-5.5,6.3-10.8,9.5-15.9c0.2-0.3,0.4-0.6,0.6-0.9c3.2-5,6.4-9.9,9.6-14.5l-9.7-18.3 c-0.7,0.9-1.5,1.8-2.2,2.7c-2.8,3.5-5.7,7.3-8.7,11.3c-3.4,4.5-6.8,9.3-10.4,14.3c-3.2,4.6-6.6,9.5-9.9,14.6 c-2.8,4.3-5.6,8.7-8.4,13.2c-0.1,0.2-0.2,0.3-0.3,0.5l12.7,25C178.1,131.6,180.9,126.3,183.6,121.1z"></path> <linearGradient id="path3250_00000092418935585965098800000016837284888619002521_" gradientUnits="userSpaceOnUse" x1="-83785.7266" y1="-21732.2422" x2="-83581.0938" y2="-21732.2422" gradientTransform="matrix(6.967194e-02 -0.1494 -0.1494 -6.967194e-02 2693.7886 -13678.5098)"> <stop offset="0" style="stop-color:#282662"></stop> <stop offset="9.548389e-02" style="stop-color:#662E8D"></stop> <stop offset="0.7882" style="stop-color:#9F2064"></stop> <stop offset="0.9487" style="stop-color:#CD2032"></stop> </linearGradient> <path id="path3250" inkscape:connector-curvature="0" style="fill:url(#path3250_00000092418935585965098800000016837284888619002521_);" d=" M125.9,262.2c-1.7,4.6-3.4,9.3-5,14.1c0,0.1-0.1,0.1-0.1,0.2c-0.3,0.7-0.5,1.3-0.7,2c-1.1,3.2-2.1,6.2-4.4,12.8 c3.8,1.7,6.7,6.2,9.5,11.3c-0.3-5.3-2.5-10.2-6.6-14.1c18.4,0.8,34.3-3.8,42.4-17.3c0.7-1.2,1.4-2.5,2-3.8 c-3.8,4.7-8.3,6.7-17.1,6.2H146h0.1c12.8-5.7,19.2-11.3,24.9-20.4c1.3-2.2,2.7-4.5,4-7.1c-11.2,11.5-24.2,14.8-37.9,12.3 l-10.2,1.1C126.5,260.4,126.2,261.3,125.9,262.2z"></path> <linearGradient id="path3261_00000127038971740473050200000005534093755349618349_" gradientUnits="userSpaceOnUse" x1="-83920.1719" y1="-21503.6797" x2="-83576.7812" y2="-21503.6797" gradientTransform="matrix(6.967194e-02 -0.1494 -0.1494 -6.967194e-02 2693.7886 -13678.5098)"> <stop offset="0.3233" style="stop-color:#9E2064"></stop> <stop offset="0.6302" style="stop-color:#C92037"></stop> <stop offset="0.7514" style="stop-color:#CD2335"></stop> <stop offset="1" style="stop-color:#E97826"></stop> </linearGradient> <path id="path3261" inkscape:connector-curvature="0" style="fill:url(#path3261_00000127038971740473050200000005534093755349618349_);" d=" M130.7,239.2c2.2-5.7,4.5-11.5,6.8-17.4c2.2-5.6,4.5-11.2,6.9-16.9s4.8-11.3,7.2-17c2.5-5.8,5-11.5,7.6-17.2 c2.5-5.7,5.2-11.3,7.8-16.9c1-2,1.9-4,2.9-6c1.7-3.4,3.4-6.9,5.1-10.3c0.1-0.2,0.2-0.4,0.3-0.6l-12.5-24.9c-0.2,0.3-0.4,0.7-0.6,1 c-2.9,4.8-5.9,9.7-8.8,14.8c-2.9,5.1-5.8,10.2-8.6,15.5c-2.4,4.5-4.6,8.9-6.9,13.4c-0.4,0.9-0.9,1.8-1.3,2.7 c-2.7,5.7-5.3,11.2-7.5,16.5c-2.5,6-4.8,11.7-6.7,17.1c-1.3,3.6-2.5,7-3.6,10.3c-0.9,2.8-1.7,5.7-2.5,8.5 c-1.9,6.6-3.5,13.2-4.8,19.9l12.7,25.1c1.7-4.5,3.4-9,5.2-13.7C129.7,241.8,130.2,240.5,130.7,239.2z"></path> <linearGradient id="path3272_00000163762263084890284360000009048063517645774469_" gradientUnits="userSpaceOnUse" x1="-83768.2656" y1="-21532.2148" x2="-83587.7969" y2="-21532.2148" gradientTransform="matrix(6.967194e-02 -0.1494 -0.1494 -6.967194e-02 2693.7886 -13678.5098)"> <stop offset="0" style="stop-color:#282662"></stop> <stop offset="9.548389e-02" style="stop-color:#662E8D"></stop> <stop offset="0.7882" style="stop-color:#9F2064"></stop> <stop offset="0.9487" style="stop-color:#CD2032"></stop> </linearGradient> <path id="path3272" inkscape:connector-curvature="0" style="fill:url(#path3272_00000163762263084890284360000009048063517645774469_);" d=" M111.1,232.5c-1.6,8-2.7,16-3.3,24.1c0,0.3-0.1,0.6-0.1,0.8c-3.9-6.4-14.6-12.6-14.6-12.5c7.6,11.1,13.4,22,14.3,32.8 c-4.1,0.8-9.7-0.4-16.1-2.7c6.7,6.2,11.8,7.9,13.7,8.3c-6.2,0.4-12.6,4.6-19.1,9.5c9.5-3.9,17.2-5.4,22.7-4.1 c-8.7,24.6-17.4,51.9-26.2,80.7c2.7-0.8,4.3-2.6,5.2-5c1.5-5.2,11.9-39.6,28.1-84.7c0.4-1.3,1-2.5,1.4-3.9 c0.1-0.4,0.3-0.7,0.4-1.1c1.7-4.7,3.5-9.5,5.3-14.5c0.4-1.1,0.8-2.2,1.3-3.4v-0.1l-12.7-25.1C111.2,231.9,111.1,232.2,111.1,232.5 L111.1,232.5z"></path> <linearGradient id="path3283_00000105414563853502169810000005188997338940879759_" gradientUnits="userSpaceOnUse" x1="-83920.1719" y1="-21719.2305" x2="-83576.7812" y2="-21719.2305" gradientTransform="matrix(6.967194e-02 -0.1494 -0.1494 -6.967194e-02 2693.7886 -13678.5098)"> <stop offset="0.3233" style="stop-color:#9E2064"></stop> <stop offset="0.6302" style="stop-color:#C92037"></stop> <stop offset="0.7514" style="stop-color:#CD2335"></stop> <stop offset="1" style="stop-color:#E97826"></stop> </linearGradient> <path id="path3283" inkscape:connector-curvature="0" style="fill:url(#path3283_00000105414563853502169810000005188997338940879759_);" d=" M177.4,139c-0.4,0.8-0.7,1.5-1.1,2.2c-1.1,2.3-2.2,4.6-3.3,6.9c-1.2,2.5-2.4,5.2-3.7,7.8c-0.6,1.3-1.3,2.7-1.9,4.1 c-1.9,4.1-3.8,8.4-5.8,12.8c-2.4,5.4-4.8,11-7.3,16.9c-2.4,5.5-4.8,11.3-7.2,17.2c-2.3,5.7-4.6,11.5-7,17.5 c-2.1,5.3-4.2,10.9-6.4,16.5c-0.1,0.3-0.2,0.6-0.3,0.8c-2.1,5.6-4.3,11.4-6.4,17.3c-0.1,0.1-0.1,0.3-0.1,0.4l10.2-1.1 c-0.2-0.1-0.4-0.1-0.6-0.1c12.3-1.5,28.6-10.7,39.1-22c4.8-5.2,9.2-11.3,13.3-18.5c3.1-5.3,5.9-11.3,8.6-17.9 c2.4-5.7,4.6-12,6.8-18.7c-2.8,1.5-6,2.5-9.6,3.3c-0.6,0.1-1.3,0.3-1.9,0.4c-0.6,0.1-1.3,0.2-2,0.3l0,0l0,0l0,0 c11.5-4.4,18.6-12.9,23.9-23.3c-3,2-7.9,4.7-13.7,6c-0.8,0.2-1.6,0.3-2.4,0.4c-0.2,0-0.4,0.1-0.6,0.1l0,0l0,0l0,0l0,0l0,0 c3.9-1.7,7.3-3.5,10.2-5.7c0.6-0.4,1.2-1,1.8-1.5c0.9-0.8,1.7-1.6,2.5-2.4c0.5-0.6,1-1.1,1.5-1.7c1.1-1.3,2.2-2.8,3.2-4.4 c0.3-0.5,0.6-1,0.9-1.5c0.4-0.8,0.8-1.5,1.1-2.2c1.6-3.2,2.9-6,3.9-8.6c0.5-1.3,1-2.4,1.3-3.5c0.1-0.4,0.3-0.8,0.4-1.3 c0.4-1.2,0.8-2.3,1-3.2c0.4-1.4,0.6-2.5,0.8-3.4l0,0l0,0c-0.4,0.3-0.8,0.6-1.3,0.9c-3.4,2-9.4,3.9-14.1,4.8l9.4-1l-9.4,1 c-0.1,0-0.1,0-0.2,0.1c-0.4,0.1-1,0.1-1.5,0.3c0.1-0.1,0.2-0.1,0.3-0.1l-32.2,3.5C177.5,138.9,177.4,139,177.4,139z"></path> <linearGradient id="path3294_00000021104957786440823610000005744159325408739979_" gradientUnits="userSpaceOnUse" x1="-84049.3828" y1="-21708.7812" x2="-83705.9844" y2="-21708.7812" gradientTransform="matrix(6.967194e-02 -0.1494 -0.1494 -6.967194e-02 2693.7886 -13678.5098)"> <stop offset="0.3233" style="stop-color:#9E2064"></stop> <stop offset="0.6302" style="stop-color:#C92037"></stop> <stop offset="0.7514" style="stop-color:#CD2335"></stop> <stop offset="1" style="stop-color:#E97826"></stop> </linearGradient> <path id="path3294" inkscape:connector-curvature="0" style="fill:url(#path3294_00000021104957786440823610000005744159325408739979_);" d=" M213.6,74c-2.9,4.4-6,9.4-9.4,15c-0.2,0.3-0.4,0.6-0.5,0.9c-2.9,4.9-6,10.2-9.2,16.2c-2.8,5.1-5.7,10.5-8.8,16.4 c-2.7,5.1-5.3,10.5-8.2,16.2l32.2-3.5c9.4-4.3,13.6-8.2,17.6-13.9c1.1-1.5,2.2-3.2,3.2-4.9c3.3-5.2,6.6-10.8,9.4-16.5 c2.8-5.5,5.3-10.9,7.1-15.7c1.2-3.1,2.2-6,2.9-8.5c0.6-2.2,1-4.3,1.4-6.4C239,71.5,223.6,73.5,213.6,74z"></path> <path id="path3296" inkscape:connector-curvature="0" class="st2" d="M192.8,185c-0.6,0.1-1.3,0.2-2,0.3l0,0 C191.5,185.2,192.1,185,192.8,185z"></path> <path id="path3298" inkscape:connector-curvature="0" class="st3" d="M192.8,185c-0.6,0.1-1.3,0.2-2,0.3l0,0 C191.5,185.2,192.1,185,192.8,185z"></path> <linearGradient id="path3309_00000154407610036123284680000006429409754713559445_" gradientUnits="userSpaceOnUse" x1="-83920.1719" y1="-21783.7891" x2="-83576.7812" y2="-21783.7891" gradientTransform="matrix(6.967194e-02 -0.1494 -0.1494 -6.967194e-02 2693.7886 -13678.5098)"> <stop offset="0.3233" style="stop-color:#9E2064"></stop> <stop offset="0.6302" style="stop-color:#C92037"></stop> <stop offset="0.7514" style="stop-color:#CD2335"></stop> <stop offset="1" style="stop-color:#E97826"></stop> </linearGradient> <path id="path3309" inkscape:connector-curvature="0" style="fill:url(#path3309_00000154407610036123284680000006429409754713559445_);" d=" M192.8,185c-0.6,0.1-1.3,0.2-2,0.3l0,0C191.5,185.2,192.1,185,192.8,185z"></path> <path id="path3311" inkscape:connector-curvature="0" class="st2" d="M197.9,168.5c0.2,0,0.4-0.1,0.6-0.1 C198.4,168.4,198.2,168.5,197.9,168.5L197.9,168.5z"></path> <path id="path3313" inkscape:connector-curvature="0" class="st3" d="M197.9,168.5c0.2,0,0.4-0.1,0.6-0.1 C198.4,168.4,198.2,168.5,197.9,168.5L197.9,168.5z"></path> <linearGradient id="path3324_00000106147997364851914390000006148194741835172779_" gradientUnits="userSpaceOnUse" x1="-83920.1719" y1="-21776.2109" x2="-83576.7812" y2="-21776.2109" gradientTransform="matrix(6.967194e-02 -0.1494 -0.1494 -6.967194e-02 2693.7886 -13678.5098)"> <stop offset="0.3233" style="stop-color:#9E2064"></stop> <stop offset="0.6302" style="stop-color:#C92037"></stop> <stop offset="0.7514" style="stop-color:#CD2335"></stop> <stop offset="1" style="stop-color:#E97826"></stop> </linearGradient> <path id="path3324" inkscape:connector-curvature="0" style="fill:url(#path3324_00000106147997364851914390000006148194741835172779_);" d=" M197.9,168.5c0.2,0,0.4-0.1,0.6-0.1C198.4,168.4,198.2,168.5,197.9,168.5L197.9,168.5z"></path> <path id="path3326" inkscape:connector-curvature="0" class="st2" d="M198,168.5L198,168.5L198,168.5L198,168.5L198,168.5 L198,168.5z"></path> <path id="path3328" inkscape:connector-curvature="0" class="st3" d="M198,168.5L198,168.5L198,168.5L198,168.5L198,168.5 L198,168.5z"></path> <linearGradient id="path3339_00000045598647766631009180000012785280746714693812_" gradientUnits="userSpaceOnUse" x1="-82520.0859" y1="-21774.8926" x2="-82520.0859" y2="-21774.8926" gradientTransform="matrix(6.967194e-02 -0.1494 -0.1494 -6.967194e-02 2693.7886 -13678.5098)"> <stop offset="0.3233" style="stop-color:#9E2064"></stop> <stop offset="0.6302" style="stop-color:#C92037"></stop> <stop offset="0.7514" style="stop-color:#CD2335"></stop> <stop offset="1" style="stop-color:#E97826"></stop> </linearGradient> <path id="path3339" inkscape:connector-curvature="0" style="fill:url(#path3339_00000045598647766631009180000012785280746714693812_);" d=" M198,168.5L198,168.5L198,168.5L198,168.5L198,168.5L198,168.5z"></path> </g> <path id="path3718" inkscape:connector-curvature="0" class="st13" d="M470.9,268.4c-0.9,0-1.7,0-2.3-0.1c-0.7-0.1-1.2-0.2-1.7-0.3 v-5.3c0.5,0.1,1,0.2,1.6,0.3c0.5,0.1,1.1,0.1,1.8,0.1c0.6,0,1.2-0.1,1.7-0.2c0.5-0.1,1-0.4,1.4-0.7c0.4-0.3,0.7-0.8,0.9-1.3 c0.2-0.6,0.3-1.3,0.3-2.1v-29h6.3v28.8c0,1.7-0.3,3.2-0.8,4.4c-0.5,1.2-1.2,2.3-2.1,3.1c-0.9,0.8-1.9,1.4-3.2,1.8 S472.4,268.4,470.9,268.4"></path> <linearGradient id="path3720_00000114769995972174140620000000736291429805033620_" gradientUnits="userSpaceOnUse" x1="-35.9326" y1="1435.6118" x2="-35.2963" y2="1435.6118" gradientTransform="matrix(167.1251 0 0 -47.6275 6489.6963 68619.4453)"> <stop offset="0" style="stop-color:#000000"></stop> <stop offset="1" style="stop-color:#000000"></stop> </linearGradient> <linearGradient id="path3720_00000145016941327197683100000013190786442262710917_" gradientUnits="userSpaceOnUse" x1="-36.0329" y1="1435.6118" x2="-35.1961" y2="1435.6118" gradientTransform="matrix(167.1251 0 0 -47.6275 6489.6963 68619.4453)"> <stop offset="0" style="stop-color:#000000"></stop> <stop offset="1" style="stop-color:#000000"></stop> </linearGradient> <path id="path3720" inkscape:connector-curvature="0" style="fill:url(#path3720_00000114769995972174140620000000736291429805033620_);stroke:url(#path3720_00000145016941327197683100000013190786442262710917_);stroke-width:1.2288;stroke-linejoin:round;" d=" M484.5,229.8v29.9h5.7v-13.9c0-0.4,0-0.8,0-1.3c0-0.5,0-1,0-1.5c0-0.5,0-1-0.1-1.6c0-0.5,0-1.1-0.1-1.6c-0.1-1.2-0.1-2.4-0.2-3.6 h0.2l6.6,23.5h5.8l7.1-23.4h0.2c0,1.2-0.1,2.4-0.1,3.6c0,0.5,0,1-0.1,1.5c0,0.5,0,1,0,1.5c0,0.5,0,1,0,1.4c0,0.4,0,0.9,0,1.2v14.2 h5.9v-29.9h-8.6l-6.9,22.9h-0.1l-6.5-22.9L484.5,229.8L484.5,229.8z M543.8,231.9l-1.8,4.8l-3.4,2.1v2.6h3v11 c0,1.5,0.2,2.7,0.5,3.7c0.4,1,0.9,1.7,1.5,2.3c0.6,0.6,1.4,1,2.2,1.2c0.9,0.2,1.8,0.3,2.8,0.3c1,0,2-0.1,2.8-0.3 c0.9-0.2,1.6-0.4,2.2-0.7v-4.6c-0.6,0.2-1.1,0.4-1.7,0.5c-0.5,0.1-1.1,0.2-1.7,0.2c-0.7,0-1.3-0.2-1.7-0.6c-0.4-0.4-0.7-1.1-0.7-2 v-11h5.6v-4.7h-5.6v-4.9L543.8,231.9L543.8,231.9z M527.8,236.4c-1.6,0-3,0.3-4.3,0.8c-1.3,0.5-2.4,1.3-3.3,2.3 c-0.9,1-1.6,2.2-2.1,3.7c-0.5,1.5-0.8,3.2-0.8,5.3c0,2,0.3,3.7,0.8,5.2c0.6,1.5,1.3,2.7,2.3,3.6c1,1,2.2,1.7,3.6,2.1 c1.4,0.5,2.9,0.7,4.5,0.7c0.8,0,1.6,0,2.3-0.1c0.7-0.1,1.4-0.1,2-0.3s1.2-0.3,1.7-0.5c0.6-0.2,1.1-0.4,1.7-0.7v-4.8 c-0.6,0.3-1.2,0.6-1.8,0.8c-0.6,0.2-1.2,0.4-1.7,0.6c-0.6,0.1-1.2,0.3-1.8,0.4c-0.6,0.1-1.3,0.1-2,0.1c-0.8,0-1.6-0.1-2.2-0.4 c-0.6-0.3-1.2-0.6-1.7-1.1c-0.4-0.5-0.8-1.1-1.1-1.8c-0.2-0.7-0.4-1.5-0.4-2.4h13.9v-3c0-1.7-0.2-3.1-0.7-4.4 c-0.5-1.3-1.1-2.4-2-3.3c-0.8-0.9-1.9-1.6-3.1-2C530.7,236.6,529.3,236.4,527.8,236.4L527.8,236.4z M565.4,236.4 c-1.6,0-3,0.3-4.3,0.8c-1.3,0.5-2.4,1.3-3.3,2.3c-0.9,1-1.6,2.2-2.1,3.7c-0.5,1.5-0.8,3.2-0.8,5.3c0,2,0.3,3.7,0.8,5.2 c0.6,1.5,1.3,2.7,2.3,3.6c1,1,2.2,1.7,3.6,2.1c1.4,0.5,2.9,0.7,4.5,0.7c0.8,0,1.6,0,2.3-0.1c0.7-0.1,1.4-0.1,2-0.3 c0.6-0.1,1.2-0.3,1.7-0.5c0.6-0.2,1.1-0.4,1.7-0.7v-4.8c-0.6,0.3-1.2,0.6-1.8,0.8c-0.6,0.2-1.2,0.4-1.7,0.6 c-0.6,0.1-1.2,0.3-1.8,0.4c-0.6,0.1-1.3,0.1-2,0.1c-0.8,0-1.6-0.1-2.2-0.4c-0.6-0.3-1.2-0.6-1.7-1.1c-0.4-0.5-0.8-1.1-1.1-1.8 c-0.2-0.7-0.4-1.5-0.4-2.4h13.9v-3c0-1.7-0.2-3.1-0.7-4.4c-0.5-1.3-1.1-2.4-2-3.3c-0.8-0.9-1.9-1.6-3.1-2 C568.2,236.6,566.9,236.4,565.4,236.4L565.4,236.4z M588.8,236.4c-0.8,0-1.4,0.1-2,0.3c-0.6,0.2-1.1,0.4-1.6,0.8 c-0.5,0.3-0.9,0.7-1.3,1.2c-0.4,0.5-0.7,1-1.1,1.6h-0.3l-0.9-3.4h-4.7v22.9h6.2V248c0-1.1,0.1-2,0.4-2.7c0.3-0.7,0.6-1.3,1.1-1.8 c0.5-0.5,1.1-0.8,1.7-1c0.7-0.2,1.4-0.3,2.2-0.3c0.1,0,0.3,0,0.5,0c0.2,0,0.4,0,0.6,0c0.2,0,0.4,0,0.6,0.1c0.2,0,0.3,0.1,0.4,0.1 v-5.9c-0.1,0-0.2,0-0.4-0.1c-0.1,0-0.3-0.1-0.5-0.1c-0.2,0-0.4,0-0.6,0C589.2,236.4,589,236.4,588.8,236.4L588.8,236.4z M527.8,240.8c0.7,0,1.2,0.1,1.7,0.4c0.5,0.2,0.9,0.6,1.2,1c0.3,0.4,0.6,0.9,0.7,1.5c0.2,0.6,0.3,1.2,0.3,1.9h-8 c0.1-1.7,0.5-2.9,1.2-3.7C525.8,241.2,526.7,240.8,527.8,240.8L527.8,240.8z M565.4,240.8c0.7,0,1.2,0.1,1.7,0.4 c0.5,0.2,0.9,0.6,1.2,1c0.3,0.4,0.6,0.9,0.7,1.5c0.2,0.6,0.3,1.2,0.3,1.9h-8c0.1-1.7,0.5-2.9,1.2-3.7 C563.4,241.2,564.3,240.8,565.4,240.8L565.4,240.8z"></path> <g id="text3756" transform="matrix(0.40958848,0,0,0.40958848,409.7852,177.21243)"> <linearGradient id="path3879_00000044153642951713167570000001311341062077520022_" gradientUnits="userSpaceOnUse" x1="-964.7054" y1="2853.4543" x2="-964.0691" y2="2853.4543" gradientTransform="matrix(7.3489 0 0 -10.3111 7539.4009 29558.4492)"> <stop offset="0" style="stop-color:#4D4D4D"></stop> <stop offset="1" style="stop-color:#4D4D4D"></stop> </linearGradient> <path id="path3879" inkscape:connector-curvature="0" style="fill:url(#path3879_00000044153642951713167570000001311341062077520022_);" d=" M457.2,144.3h-3.4v-13.2h-4v-2.8h11.4v2.8h-4V144.3"></path> <linearGradient id="path3881_00000065048689860014849440000010681435585841090453_" gradientUnits="userSpaceOnUse" x1="-1005.3115" y1="2853.4546" x2="-1004.6752" y2="2853.4546" gradientTransform="matrix(10.5932 0 0 -10.3111 11113.1592 29558.4688)"> <stop offset="0" style="stop-color:#4D4D4D"></stop> <stop offset="1" style="stop-color:#4D4D4D"></stop> </linearGradient> <path id="path3881" inkscape:connector-curvature="0" style="fill:url(#path3881_00000065048689860014849440000010681435585841090453_);" d=" M470.2,144.3l-3.5-12.6h-0.1c0,0.7,0.1,1.3,0.1,2c0,0.3,0,0.5,0,0.8c0,0.3,0,0.6,0,0.8c0,0.3,0,0.5,0,0.8c0,0.3,0,0.5,0,0.7v7.5 h-3v-16h4.6l3.5,12.2h0.1l3.7-12.2h4.6v16H477v-7.6c0-0.2,0-0.4,0-0.6c0-0.2,0-0.5,0-0.8c0-0.3,0-0.5,0-0.8c0-0.3,0-0.5,0-0.8 c0-0.6,0.1-1.3,0.1-1.9h-0.1l-3.8,12.5H470.2"></path> </g> <g id="g8126" transform="matrix(0.14276681,0,0,0.14276681,453.68012,190.16516)"> <g id="g8128"> <path id="path8130" inkscape:connector-curvature="0" class="st17" d="M146.8,245.1l31.4-75h6l31.4,75h-7.9l-9.7-23.4h-33.7 l-9.6,23.4C154.6,245.1,146.8,245.1,146.8,245.1z M181.2,178.8l-15.4,37h30.4C196.2,215.8,181.2,178.8,181.2,178.8z"></path> <path id="path8132" inkscape:connector-curvature="0" class="st17" d="M223.6,245.1v-75h31.1c12.9,0,22.1,11.9,22.1,23.5 c0,12.2-8.7,23.7-21.5,23.7h-24.4v27.7H223.6z M230.9,210.8h24c8.8,0,14.6-8.1,14.6-17.2c0-9.4-6.9-17-15.2-17h-23.4V210.8z"></path> <path id="path8134" inkscape:connector-curvature="0" class="st17" d="M272.7,245.1l31.4-75h6l31.4,75h-8l-9.7-23.4H290 l-9.6,23.4H272.7z M307.1,178.8l-15.4,37h30.4C322.1,215.8,307.1,178.8,307.1,178.8z"></path> <path id="path8136" inkscape:connector-curvature="0" class="st17" d="M376.8,169.7c13.3,0,23,6.7,27.7,16.4l-5.9,3.6 c-4.8-9.9-14.1-13.3-22.1-13.3c-17.9,0-27.7,16-27.7,31.1c0,16.5,12.2,31.6,28.1,31.6c8.5,0,18.4-4.2,23.1-13.9l6.1,3.2 c-4.8,11.2-18.1,17.4-29.7,17.4c-20.6,0-35.1-19.7-35.1-38.6C341.3,189,354.2,169.7,376.8,169.7z"></path> <path id="path8138" inkscape:connector-curvature="0" class="st17" d="M475.4,170.1v75H468V210h-44.4v35.1h-7.3v-75h7.3v33.3H468 v-33.3H475.4z"></path> <path id="path8140" inkscape:connector-curvature="0" class="st17" d="M542.7,238.5v6.6h-50.3v-75h49.4v6.6h-42.1v27h36.7v6.2 h-36.7v28.6H542.7z"></path> </g> </g> <g id="g8326" transform="translate(132.42046,222.12974)"> </g> <g id="g8328" transform="translate(132.42046,222.12974)"> </g> <g id="g8330" transform="translate(132.42046,222.12974)"> </g> <g id="g8332" transform="translate(132.42046,222.12974)"> </g> <g id="g8334" transform="translate(132.42046,222.12974)"> </g> <g id="g8336" transform="translate(132.42046,222.12974)"> </g> </g> </svg> 