<?xml version="1.0" encoding="UTF-8"?> <svg xmlns:sodipodi="http://sodipodi.sourceforge.net/DTD/sodipodi-0.dtd" xmlns:rdf="http://www.w3.org/1999/02/22-rdf-syntax-ns#" xmlns:dc="http://purl.org/dc/elements/1.1/" xmlns:svg="http://www.w3.org/2000/svg" xmlns:inkscape="http://www.inkscape.org/namespaces/inkscape" xmlns:cc="http://creativecommons.org/ns#" xmlns="http://www.w3.org/2000/svg" xmlns:xlink="http://www.w3.org/1999/xlink" version="1.1" id="svg2" sodipodi:docname="logo.svg" x="0px" y="0px" viewBox="0 0 180 60" style="enable-background:new 0 0 180 60;" xml:space="preserve"> <style type="text/css"> .st0{fill:url(#path3212_00000041272647444213820380000008988279506729500595_);} .st1{fill:none;} .st2{fill:#BE202E;} .st3{opacity:0.35;fill:#BE202E;enable-background:new ;} .st4{fill:url(#path3239_00000035503293217690069420000001903042535097557407_);} .st5{fill:url(#path3250_00000064330905013529916120000000120579083036297356_);} .st6{fill:url(#path3261_00000148640608377208606400000008037619805547384749_);} .st7{fill:url(#path3272_00000007399603986912936730000017194941820748347034_);} .st8{fill:url(#path3283_00000170253207734074726840000011140939946227684741_);} .st9{fill:url(#path3294_00000036228210360607374600000015243501142569139330_);} .st10{fill:url(#path3309_00000050651793504549138080000017764745904684625336_);} .st11{fill:url(#path3324_00000111159302496909810670000015821705984907439748_);} .st12{fill:url(#path3339_00000100350713995151696990000017891836099814161032_);} .st13{fill:#D22128;stroke:#D22128;stroke-width:1.2288;stroke-linejoin:round;} .st14{fill:#FFFFFF;} .st15{fill:#D22128;} </style> <g id="g3347" transform="matrix(0.61056696,0,0,0.61056696,-671.81995,122.75139)"> </g> <g id="g3349" transform="matrix(0.61056696,0,0,0.61056696,-671.81995,122.75139)"> </g> <g id="g3351" transform="matrix(0.61056696,0,0,0.61056696,-671.81995,122.75139)"> </g> <g id="g3353" transform="matrix(0.61056696,0,0,0.61056696,-671.81995,122.75139)"> </g> <g id="g3355" transform="matrix(0.61056696,0,0,0.61056696,-671.81995,122.75139)"> </g> <g id="g3357" transform="matrix(0.61056696,0,0,0.61056696,-671.81995,122.75139)"> </g> <g id="g3203" transform="matrix(0.16486497,0,0,0.16486497,427.12543,209.04631)"> <linearGradient id="path3212_00000013901992512865267470000002411318663820337311_" gradientUnits="userSpaceOnUse" x1="-84506.4844" y1="-22846.5137" x2="-84458.3516" y2="-22902.7949" gradientTransform="matrix(6.967194e-02 -0.1494 -0.1494 -6.967194e-02 55.0621 -15446.0068)"> <stop offset="0" style="stop-color:#F69923"></stop> <stop offset="0.3123" style="stop-color:#F79A23"></stop> <stop offset="0.8383" style="stop-color:#E97826"></stop> </linearGradient> <path id="path3212" inkscape:connector-curvature="0" style="fill:url(#path3212_00000013901992512865267470000002411318663820337311_);" d=" M-2402.5-1254.8c-5.3,3.2-14.3,12.1-24.8,25l9.7,18.4c6.8-9.8,13.8-18.6,20.8-26.1c0.5-0.6,0.8-0.9,0.8-0.9 c-0.3,0.3-0.6,0.6-0.8,0.9c-2.3,2.5-9.2,10.5-19.5,26.5c10-0.5,25.3-2.5,37.9-4.7c3.8-20.9-3.6-30.4-3.6-30.4 S-2391.5-1261.3-2402.5-1254.8z"></path> <path id="path3214" inkscape:connector-curvature="0" class="st1" d="M-2419-1149.9c0.1,0,0.1,0,0.2-0.1l-1.4,0.1 c-0.1,0.1-0.2,0.1-0.3,0.1C-2420-1149.8-2419.5-1149.8-2419-1149.9z"></path> <path id="path3216" inkscape:connector-curvature="0" class="st1" d="M-2429-1117c-0.8,0.2-1.6,0.3-2.4,0.4 C-2430.6-1116.7-2429.7-1116.8-2429-1117z"></path> <path id="path3218" inkscape:connector-curvature="0" class="st1" d="M-2496.5-1043.1c0.1-0.3,0.2-0.6,0.3-0.8 c2.2-5.7,4.3-11.1,6.4-16.5c2.4-6,4.7-11.8,7-17.5c2.4-5.9,4.8-11.7,7.2-17.2c2.5-5.9,4.9-11.5,7.3-16.9c2-4.4,3.9-8.7,5.8-12.8 c0.6-1.4,1.3-2.7,1.9-4.1c1.3-2.7,2.5-5.3,3.7-7.8c1.1-2.4,2.2-4.6,3.3-6.9c0.4-0.8,0.8-1.5,1.1-2.2c0.1-0.1,0.1-0.3,0.2-0.4 l-1.2,0.1l-1-1.8c-0.1,0.2-0.2,0.4-0.3,0.6c-1.7,3.4-3.4,6.8-5.1,10.3c-1,2-1.9,4-2.9,6c-2.7,5.6-5.3,11.2-7.8,16.9 c-2.6,5.7-5.2,11.5-7.6,17.2c-2.5,5.7-4.8,11.3-7.2,17c-2.4,5.7-4.6,11.3-6.9,16.9c-2.4,5.9-4.6,11.6-6.8,17.4 c-0.5,1.3-1,2.6-1.5,3.9c-1.8,4.6-3.5,9.2-5.2,13.7l1.5,3l1.3-0.1c0.1-0.1,0.1-0.3,0.1-0.4 C-2500.8-1031.7-2498.6-1037.5-2496.5-1043.1z"></path> <path id="path3220" inkscape:connector-curvature="0" class="st1" d="M-2432-1116.5L-2432-1116.5L-2432-1116.5L-2432-1116.5z"></path> <path id="path3222" inkscape:connector-curvature="0" class="st2" d="M-2435.3-1100.4c-1.3,0.3-2.5,0.4-3.8,0.6l0,0 c0.6-0.1,1.3-0.2,2-0.3C-2436.5-1100.2-2435.8-1100.3-2435.3-1100.4z"></path> <path id="path3224" inkscape:connector-curvature="0" class="st3" d="M-2435.3-1100.4c-1.3,0.3-2.5,0.4-3.8,0.6l0,0 c0.6-0.1,1.3-0.2,2-0.3C-2436.5-1100.2-2435.8-1100.3-2435.3-1100.4z"></path> <path id="path3226" inkscape:connector-curvature="0" class="st2" d="M-2432-1116.5L-2432-1116.5 C-2432-1116.5-2432-1116.5-2432-1116.5c0.2,0,0.4-0.1,0.6-0.1c0.8-0.1,1.7-0.3,2.4-0.4C-2429.9-1116.8-2430.9-1116.7-2432-1116.5 L-2432-1116.5L-2432-1116.5z"></path> <path id="path3228" inkscape:connector-curvature="0" class="st3" d="M-2432-1116.5L-2432-1116.5 C-2432-1116.5-2432-1116.5-2432-1116.5c0.2,0,0.4-0.1,0.6-0.1c0.8-0.1,1.7-0.3,2.4-0.4C-2429.9-1116.8-2430.9-1116.7-2432-1116.5 L-2432-1116.5L-2432-1116.5z"></path> <linearGradient id="path3239_00000115503512750355750220000000076918564722229138_" gradientUnits="userSpaceOnUse" x1="-86667.1172" y1="-22807.9258" x2="-86323.7188" y2="-22807.9258" gradientTransform="matrix(6.967194e-02 -0.1494 -0.1494 -6.967194e-02 55.0621 -15446.0068)"> <stop offset="0.3233" style="stop-color:#9E2064"></stop> <stop offset="0.6302" style="stop-color:#C92037"></stop> <stop offset="0.7514" style="stop-color:#CD2335"></stop> <stop offset="1" style="stop-color:#E97826"></stop> </linearGradient> <path id="path3239" inkscape:connector-curvature="0" style="fill:url(#path3239_00000115503512750355750220000000076918564722229138_);" d=" M-2446.3-1163.9c3-5.5,6-10.9,9-16.2c3.1-5.5,6.3-10.8,9.5-15.9c0.2-0.3,0.4-0.6,0.6-0.9c3.2-5,6.4-9.9,9.6-14.5l-9.7-18.3 c-0.7,0.9-1.5,1.8-2.2,2.7c-2.8,3.5-5.7,7.3-8.7,11.3c-3.4,4.5-6.8,9.3-10.4,14.3c-3.2,4.6-6.6,9.5-9.9,14.6 c-2.8,4.3-5.6,8.7-8.4,13.2c-0.1,0.2-0.2,0.3-0.3,0.5l12.7,25C-2451.8-1153.4-2449.1-1158.7-2446.3-1163.9z"></path> <linearGradient id="path3250_00000132799074770278878300000000040061881049202570_" gradientUnits="userSpaceOnUse" x1="-86415.6875" y1="-23017.25" x2="-86211.0547" y2="-23017.25" gradientTransform="matrix(6.967194e-02 -0.1494 -0.1494 -6.967194e-02 55.0621 -15446.0068)"> <stop offset="0" style="stop-color:#282662"></stop> <stop offset="9.548389e-02" style="stop-color:#662E8D"></stop> <stop offset="0.7882" style="stop-color:#9F2064"></stop> <stop offset="0.9487" style="stop-color:#CD2032"></stop> </linearGradient> <path id="path3250" inkscape:connector-curvature="0" style="fill:url(#path3250_00000132799074770278878300000000040061881049202570_);" d=" M-2504.1-1022.8c-1.7,4.6-3.4,9.3-5,14.1c0,0.1-0.1,0.1-0.1,0.2c-0.3,0.7-0.5,1.3-0.7,2c-1.1,3.2-2.1,6.2-4.4,12.8 c3.8,1.7,6.7,6.2,9.5,11.3c-0.3-5.3-2.5-10.2-6.6-14.1c18.4,0.8,34.3-3.8,42.4-17.3c0.7-1.2,1.4-2.5,2-3.8 c-3.8,4.7-8.3,6.7-17.1,6.2h-0.1h0.1c12.8-5.7,19.2-11.3,24.9-20.4c1.3-2.2,2.7-4.5,4-7.1c-11.2,11.5-24.2,14.8-37.9,12.3 l-10.2,1.1C-2503.4-1024.6-2503.7-1023.7-2504.1-1022.8z"></path> <linearGradient id="path3261_00000131332968765893170570000000848432859891053482_" gradientUnits="userSpaceOnUse" x1="-86550.1328" y1="-22788.6875" x2="-86206.7344" y2="-22788.6875" gradientTransform="matrix(6.967194e-02 -0.1494 -0.1494 -6.967194e-02 55.0621 -15446.0068)"> <stop offset="0.3233" style="stop-color:#9E2064"></stop> <stop offset="0.6302" style="stop-color:#C92037"></stop> <stop offset="0.7514" style="stop-color:#CD2335"></stop> <stop offset="1" style="stop-color:#E97826"></stop> </linearGradient> <path id="path3261" inkscape:connector-curvature="0" style="fill:url(#path3261_00000131332968765893170570000000848432859891053482_);" d=" M-2499.3-1045.8c2.2-5.7,4.5-11.5,6.8-17.4c2.2-5.6,4.5-11.2,6.9-16.9s4.8-11.3,7.2-17c2.5-5.8,5-11.5,7.6-17.2 c2.5-5.7,5.2-11.3,7.8-16.9c1-2,1.9-4,2.9-6c1.7-3.4,3.4-6.9,5.1-10.3c0.1-0.2,0.2-0.4,0.3-0.6l-12.5-24.9c-0.2,0.3-0.4,0.7-0.6,1 c-2.9,4.8-5.9,9.7-8.8,14.8c-2.9,5.1-5.8,10.2-8.6,15.5c-2.4,4.5-4.6,8.9-6.9,13.4c-0.4,0.9-0.9,1.8-1.3,2.7 c-2.7,5.7-5.3,11.2-7.5,16.5c-2.5,6-4.8,11.7-6.7,17.1c-1.3,3.6-2.5,7-3.6,10.3c-0.9,2.8-1.7,5.7-2.5,8.5 c-1.9,6.6-3.5,13.2-4.8,19.9l12.7,25.1c1.7-4.5,3.4-9,5.2-13.7C-2500.3-1043.2-2499.8-1044.5-2499.3-1045.8z"></path> <linearGradient id="path3272_00000019658930876155654740000010784840529360770474_" gradientUnits="userSpaceOnUse" x1="-86398.2188" y1="-22817.2227" x2="-86217.7578" y2="-22817.2227" gradientTransform="matrix(6.967194e-02 -0.1494 -0.1494 -6.967194e-02 55.0621 -15446.0068)"> <stop offset="0" style="stop-color:#282662"></stop> <stop offset="9.548389e-02" style="stop-color:#662E8D"></stop> <stop offset="0.7882" style="stop-color:#9F2064"></stop> <stop offset="0.9487" style="stop-color:#CD2032"></stop> </linearGradient> <path id="path3272" inkscape:connector-curvature="0" style="fill:url(#path3272_00000019658930876155654740000010784840529360770474_);" d=" M-2518.9-1052.5c-1.6,8-2.7,16-3.3,24.1c0,0.3-0.1,0.6-0.1,0.8c-3.9-6.4-14.6-12.6-14.6-12.5c7.6,11.1,13.4,22,14.3,32.8 c-4.1,0.8-9.7-0.4-16.1-2.7c6.7,6.2,11.8,7.9,13.7,8.3c-6.2,0.4-12.6,4.6-19.1,9.5c9.5-3.9,17.2-5.4,22.7-4.1 c-8.7,24.6-17.4,51.9-26.2,80.7c2.7-0.8,4.3-2.6,5.2-5c1.5-5.2,11.9-39.6,28.1-84.7c0.4-1.3,1-2.5,1.4-3.9c0.1-0.4,0.3-0.7,0.4-1.1 c1.7-4.7,3.5-9.5,5.3-14.5c0.4-1.1,0.8-2.2,1.3-3.4v-0.1l-12.7-25.1C-2518.8-1053.1-2518.8-1052.8-2518.9-1052.5L-2518.9-1052.5z"></path> <linearGradient id="path3283_00000131348677654131333240000009711771700985658029_" gradientUnits="userSpaceOnUse" x1="-86550.1328" y1="-23004.2363" x2="-86206.7344" y2="-23004.2363" gradientTransform="matrix(6.967194e-02 -0.1494 -0.1494 -6.967194e-02 55.0621 -15446.0068)"> <stop offset="0.3233" style="stop-color:#9E2064"></stop> <stop offset="0.6302" style="stop-color:#C92037"></stop> <stop offset="0.7514" style="stop-color:#CD2335"></stop> <stop offset="1" style="stop-color:#E97826"></stop> </linearGradient> <path id="path3283" inkscape:connector-curvature="0" style="fill:url(#path3283_00000131348677654131333240000009711771700985658029_);" d=" M-2452.6-1146c-0.4,0.8-0.7,1.5-1.1,2.2c-1.1,2.3-2.2,4.6-3.3,6.9c-1.2,2.5-2.4,5.2-3.7,7.8c-0.6,1.3-1.3,2.7-1.9,4.1 c-1.9,4.1-3.8,8.4-5.8,12.8c-2.4,5.4-4.8,11-7.3,16.9c-2.4,5.5-4.8,11.3-7.2,17.2c-2.3,5.7-4.6,11.5-7,17.5 c-2.1,5.3-4.2,10.9-6.4,16.5c-0.1,0.3-0.2,0.6-0.3,0.8c-2.1,5.6-4.3,11.4-6.4,17.3c-0.1,0.1-0.1,0.3-0.1,0.4l10.2-1.1 c-0.2-0.1-0.4-0.1-0.6-0.1c12.3-1.5,28.6-10.7,39.1-22c4.8-5.2,9.2-11.3,13.3-18.5c3.1-5.3,5.9-11.3,8.6-17.9 c2.4-5.7,4.6-12,6.8-18.7c-2.8,1.5-6,2.5-9.6,3.3c-0.6,0.1-1.3,0.3-1.9,0.4c-0.6,0.1-1.3,0.2-2,0.3l0,0l0,0l0,0 c11.5-4.4,18.6-12.9,23.9-23.3c-3,2-7.9,4.7-13.7,6c-0.8,0.2-1.6,0.3-2.4,0.4c-0.2,0-0.4,0.1-0.6,0.1l0,0l0,0l0,0l0,0l0,0 c3.9-1.7,7.3-3.5,10.2-5.7c0.6-0.4,1.2-1,1.8-1.5c0.9-0.8,1.7-1.6,2.5-2.4c0.5-0.6,1-1.1,1.5-1.7c1.1-1.3,2.2-2.8,3.2-4.4 c0.3-0.5,0.6-1,0.9-1.5c0.4-0.8,0.8-1.5,1.1-2.2c1.6-3.2,2.9-6,3.9-8.6c0.5-1.3,1-2.4,1.3-3.5c0.1-0.4,0.3-0.8,0.4-1.3 c0.4-1.2,0.8-2.3,1-3.2c0.4-1.4,0.6-2.5,0.8-3.4l0,0l0,0c-0.4,0.3-0.8,0.6-1.3,0.9c-3.4,2-9.4,3.9-14.1,4.8l9.4-1l-9.4,1 c-0.1,0-0.1,0-0.2,0.1c-0.4,0.1-1,0.1-1.5,0.3c0.1-0.1,0.2-0.1,0.3-0.1l-32.2,3.5C-2452.5-1146.2-2452.5-1146-2452.6-1146z"></path> <linearGradient id="path3294_00000062890204044441283290000014735788076374804363_" gradientUnits="userSpaceOnUse" x1="-86679.3359" y1="-22993.7891" x2="-86335.9453" y2="-22993.7891" gradientTransform="matrix(6.967194e-02 -0.1494 -0.1494 -6.967194e-02 55.0621 -15446.0068)"> <stop offset="0.3233" style="stop-color:#9E2064"></stop> <stop offset="0.6302" style="stop-color:#C92037"></stop> <stop offset="0.7514" style="stop-color:#CD2335"></stop> <stop offset="1" style="stop-color:#E97826"></stop> </linearGradient> <path id="path3294" inkscape:connector-curvature="0" style="fill:url(#path3294_00000062890204044441283290000014735788076374804363_);" d=" M-2416.3-1211c-2.9,4.4-6,9.4-9.4,15c-0.2,0.3-0.4,0.6-0.5,0.9c-2.9,4.9-6,10.2-9.2,16.2c-2.8,5.1-5.7,10.5-8.8,16.4 c-2.7,5.1-5.3,10.5-8.2,16.2l32.2-3.5c9.4-4.3,13.6-8.2,17.6-13.9c1.1-1.5,2.2-3.2,3.2-4.9c3.3-5.2,6.6-10.8,9.4-16.5 c2.8-5.5,5.3-10.9,7.1-15.7c1.2-3.1,2.2-6,2.9-8.5c0.6-2.2,1-4.3,1.4-6.4C-2391-1213.5-2406.3-1211.5-2416.3-1211z"></path> <path id="path3296" inkscape:connector-curvature="0" class="st2" d="M-2437.1-1100c-0.6,0.1-1.3,0.2-2,0.3l0,0 C-2438.5-1099.8-2437.8-1100-2437.1-1100z"></path> <path id="path3298" inkscape:connector-curvature="0" class="st3" d="M-2437.1-1100c-0.6,0.1-1.3,0.2-2,0.3l0,0 C-2438.5-1099.8-2437.8-1100-2437.1-1100z"></path> <linearGradient id="path3309_00000078744195099916794010000008795664700601642920_" gradientUnits="userSpaceOnUse" x1="-86550.1328" y1="-23068.7969" x2="-86206.7344" y2="-23068.7969" gradientTransform="matrix(6.967194e-02 -0.1494 -0.1494 -6.967194e-02 55.0621 -15446.0068)"> <stop offset="0.3233" style="stop-color:#9E2064"></stop> <stop offset="0.6302" style="stop-color:#C92037"></stop> <stop offset="0.7514" style="stop-color:#CD2335"></stop> <stop offset="1" style="stop-color:#E97826"></stop> </linearGradient> <path id="path3309" inkscape:connector-curvature="0" style="fill:url(#path3309_00000078744195099916794010000008795664700601642920_);" d=" M-2437.1-1100c-0.6,0.1-1.3,0.2-2,0.3l0,0C-2438.5-1099.8-2437.8-1100-2437.1-1100z"></path> <path id="path3311" inkscape:connector-curvature="0" class="st2" d="M-2432-1116.5c0.2,0,0.4-0.1,0.6-0.1 C-2431.6-1116.6-2431.8-1116.5-2432-1116.5L-2432-1116.5z"></path> <path id="path3313" inkscape:connector-curvature="0" class="st3" d="M-2432-1116.5c0.2,0,0.4-0.1,0.6-0.1 C-2431.6-1116.6-2431.8-1116.5-2432-1116.5L-2432-1116.5z"></path> <linearGradient id="path3324_00000173150808218837663380000006326627145955926190_" gradientUnits="userSpaceOnUse" x1="-86550.1328" y1="-23061.2188" x2="-86206.7344" y2="-23061.2188" gradientTransform="matrix(6.967194e-02 -0.1494 -0.1494 -6.967194e-02 55.0621 -15446.0068)"> <stop offset="0.3233" style="stop-color:#9E2064"></stop> <stop offset="0.6302" style="stop-color:#C92037"></stop> <stop offset="0.7514" style="stop-color:#CD2335"></stop> <stop offset="1" style="stop-color:#E97826"></stop> </linearGradient> <path id="path3324" inkscape:connector-curvature="0" style="fill:url(#path3324_00000173150808218837663380000006326627145955926190_);" d=" M-2432-1116.5c0.2,0,0.4-0.1,0.6-0.1C-2431.6-1116.6-2431.8-1116.5-2432-1116.5L-2432-1116.5z"></path> <path id="path3326" inkscape:connector-curvature="0" class="st2" d="M-2432-1116.5L-2432-1116.5L-2432-1116.5L-2432-1116.5 L-2432-1116.5L-2432-1116.5z"></path> <path id="path3328" inkscape:connector-curvature="0" class="st3" d="M-2432-1116.5L-2432-1116.5L-2432-1116.5L-2432-1116.5 L-2432-1116.5L-2432-1116.5z"></path> <linearGradient id="path3339_00000019680443352758550190000013648847251651873947_" gradientUnits="userSpaceOnUse" x1="-85150.0469" y1="-23059.9004" x2="-85150.0469" y2="-23059.9004" gradientTransform="matrix(6.967194e-02 -0.1494 -0.1494 -6.967194e-02 55.0621 -15446.0068)"> <stop offset="0.3233" style="stop-color:#9E2064"></stop> <stop offset="0.6302" style="stop-color:#C92037"></stop> <stop offset="0.7514" style="stop-color:#CD2335"></stop> <stop offset="1" style="stop-color:#E97826"></stop> </linearGradient> <path id="path3339" inkscape:connector-curvature="0" style="fill:url(#path3339_00000019680443352758550190000013648847251651873947_);" d=" M-2432-1116.5L-2432-1116.5L-2432-1116.5L-2432-1116.5L-2432-1116.5L-2432-1116.5z"></path> </g> <path id="path3718" inkscape:connector-curvature="0" class="st13" d="M37.3,56.6c-0.9,0-1.7,0-2.3-0.1c-0.7-0.1-1.2-0.2-1.7-0.3 v-5.3c0.5,0.1,1,0.2,1.6,0.3c0.5,0.1,1.1,0.1,1.8,0.1c0.6,0,1.2-0.1,1.7-0.2c0.5-0.1,1-0.4,1.4-0.7c0.4-0.3,0.7-0.8,0.9-1.3 c0.2-0.6,0.3-1.3,0.3-2.1v-29h6.3v28.8c0,1.7-0.3,3.2-0.8,4.4c-0.5,1.2-1.2,2.3-2.1,3.1c-0.9,0.8-1.9,1.4-3.2,1.8 C40.2,56.4,38.8,56.6,37.3,56.6"></path> <path id="path3720" inkscape:connector-curvature="0" class="st14" d="M50.9,17.9v29.9h5.7V33.9c0-0.4,0-0.8,0-1.3c0-0.5,0-1,0-1.5 c0-0.5,0-1-0.1-1.6c0-0.5,0-1.1-0.1-1.6c-0.1-1.2-0.1-2.4-0.2-3.6h0.2l6.6,23.5h5.8l7.1-23.4H76c0,1.2-0.1,2.4-0.1,3.6 c0,0.5,0,1-0.1,1.5c0,0.5,0,1,0,1.5c0,0.5,0,1,0,1.4c0,0.4,0,0.9,0,1.2v14.2h5.9V17.9H73l-6.9,22.9H66l-6.5-22.9L50.9,17.9 L50.9,17.9z M110.2,20.1l-1.8,4.8L105,27v2.6h3v11c0,1.5,0.2,2.7,0.5,3.7c0.4,1,0.9,1.7,1.5,2.3c0.6,0.6,1.4,1,2.2,1.2 c0.9,0.2,1.8,0.3,2.8,0.3c1,0,2-0.1,2.8-0.3c0.9-0.2,1.6-0.4,2.2-0.7v-4.6c-0.6,0.2-1.1,0.4-1.7,0.5c-0.5,0.1-1.1,0.2-1.7,0.2 c-0.7,0-1.3-0.2-1.7-0.6c-0.4-0.4-0.7-1.1-0.7-2v-11h5.6v-4.7h-5.6v-4.9L110.2,20.1L110.2,20.1z M94.2,24.5c-1.6,0-3,0.3-4.3,0.8 c-1.3,0.5-2.4,1.3-3.3,2.3c-0.9,1-1.6,2.2-2.1,3.7c-0.5,1.5-0.8,3.2-0.8,5.3c0,2,0.3,3.7,0.8,5.2c0.6,1.5,1.3,2.7,2.3,3.6 c1,1,2.2,1.7,3.6,2.1c1.4,0.5,2.9,0.7,4.5,0.7c0.8,0,1.6,0,2.3-0.1c0.7-0.1,1.4-0.1,2-0.3c0.6-0.1,1.2-0.3,1.7-0.5 c0.6-0.2,1.1-0.4,1.7-0.7v-4.8c-0.6,0.3-1.2,0.6-1.8,0.8c-0.6,0.2-1.2,0.4-1.7,0.6c-0.6,0.1-1.2,0.3-1.8,0.4c-0.6,0.1-1.3,0.1-2,0.1 c-0.8,0-1.6-0.1-2.2-0.4c-0.6-0.3-1.2-0.6-1.7-1.1c-0.4-0.5-0.8-1.1-1.1-1.8c-0.2-0.7-0.4-1.5-0.4-2.4h13.9v-3 c0-1.7-0.2-3.1-0.7-4.4c-0.4-1.3-1.1-2.4-2-3.3c-0.8-0.9-1.9-1.6-3.1-2C97.1,24.7,95.7,24.5,94.2,24.5L94.2,24.5z M131.8,24.5 c-1.6,0-3,0.3-4.3,0.8c-1.3,0.5-2.4,1.3-3.3,2.3c-0.9,1-1.6,2.2-2.1,3.7c-0.5,1.5-0.8,3.2-0.8,5.3c0,2,0.3,3.7,0.8,5.2 c0.6,1.5,1.3,2.7,2.3,3.6c1,1,2.2,1.7,3.6,2.1c1.4,0.5,2.9,0.7,4.5,0.7c0.8,0,1.6,0,2.3-0.1c0.7-0.1,1.4-0.1,2-0.3 c0.6-0.1,1.2-0.3,1.7-0.5c0.6-0.2,1.1-0.4,1.7-0.7v-4.8c-0.6,0.3-1.2,0.6-1.8,0.8c-0.6,0.2-1.2,0.4-1.7,0.6 c-0.6,0.1-1.2,0.3-1.8,0.4c-0.6,0.1-1.3,0.1-2,0.1c-0.8,0-1.6-0.1-2.2-0.4c-0.6-0.3-1.2-0.6-1.7-1.1c-0.4-0.5-0.8-1.1-1.1-1.8 c-0.2-0.7-0.4-1.5-0.4-2.4h13.9v-3c0-1.7-0.2-3.1-0.7-4.4c-0.4-1.3-1.1-2.4-2-3.3c-0.8-0.9-1.9-1.6-3.1-2 C134.6,24.7,133.3,24.5,131.8,24.5L131.8,24.5z M155.2,24.5c-0.8,0-1.4,0.1-2,0.3c-0.6,0.2-1.1,0.4-1.6,0.8 c-0.5,0.3-0.9,0.7-1.3,1.2c-0.4,0.5-0.7,1-1.1,1.6h-0.3l-0.9-3.4h-4.7v22.9h6.2V36.2c0-1.1,0.1-2,0.4-2.7c0.3-0.7,0.6-1.3,1.1-1.8 c0.5-0.5,1.1-0.8,1.7-1c0.7-0.2,1.4-0.3,2.2-0.3c0.1,0,0.3,0,0.5,0c0.2,0,0.4,0,0.6,0c0.2,0,0.4,0,0.6,0.1c0.2,0,0.3,0.1,0.4,0.1 v-5.9c-0.1,0-0.2,0-0.4-0.1c-0.1,0-0.3-0.1-0.5-0.1c-0.2,0-0.4,0-0.6,0C155.6,24.5,155.4,24.5,155.2,24.5L155.2,24.5z M94.3,28.9 c0.7,0,1.2,0.1,1.7,0.4c0.5,0.2,0.9,0.6,1.2,1c0.3,0.4,0.6,0.9,0.7,1.5c0.2,0.6,0.3,1.2,0.3,1.9h-8c0.1-1.7,0.5-2.9,1.2-3.7 C92.2,29.3,93.2,28.9,94.3,28.9L94.3,28.9z M131.8,28.9c0.7,0,1.2,0.1,1.7,0.4c0.5,0.2,0.9,0.6,1.2,1c0.3,0.4,0.6,0.9,0.7,1.5 c0.2,0.6,0.3,1.2,0.3,1.9h-8c0.1-1.7,0.5-2.9,1.2-3.7C129.8,29.3,130.7,28.9,131.8,28.9L131.8,28.9z"></path> <g id="text3756" transform="matrix(0.40958848,0,0,0.40958848,409.7852,177.21243)"> <path id="path3879" inkscape:connector-curvature="0" class="st14" d="M-601.4-373h-3.4v-13.2h-4v-2.8h11.4v2.8h-4V-373"></path> <path id="path3881" inkscape:connector-curvature="0" class="st14" d="M-588.4-373l-3.5-12.6h-0.1c0,0.7,0.1,1.3,0.1,2 c0,0.3,0,0.5,0,0.8c0,0.3,0,0.6,0,0.8c0,0.3,0,0.5,0,0.8c0,0.3,0,0.5,0,0.7v7.5h-3v-16h4.6l3.5,12.2h0.1l3.7-12.2h4.6v16h-3.2v-7.6 c0-0.2,0-0.4,0-0.6c0-0.2,0-0.5,0-0.8c0-0.3,0-0.5,0-0.8c0-0.3,0-0.5,0-0.8c0-0.6,0.1-1.3,0.1-1.9h-0.1l-3.8,12.5H-588.4"></path> </g> <g id="g8126" transform="matrix(0.14276681,0,0,0.14276681,453.68012,190.16516)"> <g id="g8128"> <path id="path8130" inkscape:connector-curvature="0" class="st15" d="M-2890.3-1238.8l31.4-75h6l31.4,75h-7.9l-9.7-23.4h-33.7 l-9.6,23.4C-2882.5-1238.8-2890.3-1238.8-2890.3-1238.8z M-2855.9-1305.1l-15.4,37h30.4 C-2840.8-1268.1-2855.9-1305.1-2855.9-1305.1z"></path> <path id="path8132" inkscape:connector-curvature="0" class="st15" d="M-2813.5-1238.8v-75h31.1c12.9,0,22.1,11.9,22.1,23.5 c0,12.2-8.7,23.7-21.5,23.7h-24.4v27.7H-2813.5z M-2806.2-1273.1h24c8.8,0,14.6-8.1,14.6-17.2c0-9.4-6.9-17-15.2-17h-23.4V-1273.1 z"></path> <path id="path8134" inkscape:connector-curvature="0" class="st15" d="M-2764.4-1238.8l31.4-75h6l31.4,75h-8l-9.7-23.4h-33.7 l-9.6,23.4H-2764.4z M-2729.9-1305.1l-15.4,37h30.4C-2714.9-1268.1-2729.9-1305.1-2729.9-1305.1z"></path> <path id="path8136" inkscape:connector-curvature="0" class="st15" d="M-2660.2-1314.2c13.3,0,23,6.7,27.7,16.4l-5.9,3.6 c-4.8-9.9-14.1-13.3-22.1-13.3c-17.9,0-27.7,16-27.7,31.1c0,16.5,12.2,31.6,28.1,31.6c8.5,0,18.4-4.2,23.1-13.9l6.1,3.2 c-4.8,11.2-18.1,17.4-29.7,17.4c-20.6,0-35.1-19.7-35.1-38.6C-2695.8-1294.9-2682.8-1314.2-2660.2-1314.2z"></path> <path id="path8138" inkscape:connector-curvature="0" class="st15" d="M-2561.6-1313.8v75h-7.4v-35.1h-44.4v35.1h-7.3v-75h7.3 v33.3h44.4v-33.3H-2561.6z"></path> <path id="path8140" inkscape:connector-curvature="0" class="st15" d="M-2494.4-1245.4v6.6h-50.3v-75h49.4v6.6h-42.1v27h36.7v6.2 h-36.7v28.6H-2494.4z"></path> </g> </g> <g id="g8326" transform="translate(132.42046,222.12974)"> </g> <g id="g8328" transform="translate(132.42046,222.12974)"> </g> <g id="g8330" transform="translate(132.42046,222.12974)"> </g> <g id="g8332" transform="translate(132.42046,222.12974)"> </g> <g id="g8334" transform="translate(132.42046,222.12974)"> </g> <g id="g8336" transform="translate(132.42046,222.12974)"> </g> </svg> 