<?xml version="1.0" encoding="UTF-8"?> <svg xmlns="http://www.w3.org/2000/svg" xmlns:xlink="http://www.w3.org/1999/xlink" version="1.1" id="Layer_1" x="0px" y="0px" viewBox="0 0 64 64" style="enable-background:new 0 0 64 64;" xml:space="preserve"> <style type="text/css"> .st0{fill:#FFFFFF;} .st1{fill:#ED1C24;} </style> <g> <path class="st0" d="M2.3,15c0-0.8,0.7-1.4,1.4-1.4c0,0,0,0,0,0h7.9c0.8,0,1.4,0.6,1.4,1.4c0,0,0,0,0,0v17.3c0,0.8,0.3,0.9,0.7,0.2 l10.5-17.7c0.5-0.7,1.3-1.2,2.2-1.2h8c0.8,0,1.1,0.5,0.6,1.2L24.4,30c-0.5,0.7-0.5,1.6-0.2,2.5l12.2,27.8c0.2,0.4,0.1,0.9-0.3,1.2 c-0.2,0.1-0.4,0.1-0.5,0.1h-8.3c-0.8,0-1.6-0.5-2-1.2l-7.5-19.5c-0.3-0.7-0.9-0.8-1.3-0.2l-2.5,3.5c-0.5,0.8-0.8,1.7-0.8,2.6v13.6 c0,0.8-0.7,1.4-1.4,1.4c0,0,0,0,0,0H3.8c-0.8,0-1.4-0.6-1.4-1.4c0,0,0,0,0,0V15z"></path> <path class="st1" d="M58.9,24.5c0.7,0.6,1.8,0.5,2.4-0.2c0.2-0.2,0.3-0.5,0.4-0.8V4.3c0-1.1-0.9-2-2-2l0,0H40.5 c-0.9,0.2-1.5,1-1.4,2c0,0.3,0.1,0.5,0.3,0.7L58.9,24.5z"></path> </g> </svg> 