<?xml version="1.0" encoding="UTF-8"?> <svg xmlns="http://www.w3.org/2000/svg" xmlns:xlink="http://www.w3.org/1999/xlink" version="1.1" id="Layer_1" x="0px" y="0px" viewBox="0 0 180 60" style="enable-background:new 0 0 180 60;" xml:space="preserve"> <style type="text/css"> .st0{fill:#010101;} .st1{fill:#FFFFFF;} .st2{fill:#4A4D50;} </style> <g> <path class="st0" d="M82.4-42.5L80-47.6h-7.7l-2.4,5.1h-2.2l7.6-16.2h1.9l7.5,16.2H82.4z M79.3-49.3l-2.2-5 c-0.3-0.6-0.6-1.4-0.9-2.3c-0.2,0.7-0.5,1.5-0.8,2.3l-2.3,5H79.3z"></path> <path class="st0" d="M102.1-54.2c0,1.6-0.5,2.5-1.7,3.4c-1.1,0.9-2.7,1.3-4.8,1.3h-5v6.7h-1.9v-16.1H96 C100.1-58.9,102.1-57.4,102.1-54.2z M90.6-51.1h4.8c1.7,0,2.9-0.3,3.6-0.8c0.7-0.5,1.1-1,1.1-2.2c0-1.1-0.3-1.5-1-2 c-0.7-0.5-1.8-0.8-3.3-0.8h-5.2L90.6-51.1L90.6-51.1z"></path> <path class="st0" d="M123.2-50.5c0,2.6-0.7,4.6-2.3,6.1c-1.5,1.5-3.6,2.2-6.3,2.2c-2.7,0-4.8-0.7-6.3-2.2c-1.5-1.5-2.2-3.5-2.2-6.2 s0.7-4.7,2.2-6.1c1.5-1.5,3.6-2.2,6.4-2.2c2.7,0,4.8,0.7,6.3,2.2C122.4-55.2,123.2-53.1,123.2-50.5z M108.4-50.5 c0,2.2,0.5,3.9,1.6,5c1.1,1.1,2.6,1.7,4.7,1.7c2.1,0,3.6-0.6,4.7-1.7c1-1.1,1.6-2.8,1.6-5c0-2.2-0.5-3.8-1.6-4.9 c-1-1.1-2.6-1.7-4.6-1.7c-2.1,0-3.6,0.6-4.7,1.7C108.9-54.4,108.4-52.7,108.4-50.5z"></path> <path class="st0" d="M176.1-50.5c0,2.6-0.7,4.6-2.3,6.1c-1.5,1.5-3.6,2.2-6.3,2.2c-2.7,0-4.8-0.7-6.3-2.2s-2.2-3.5-2.2-6.2 s0.7-4.7,2.2-6.1c1.5-1.5,3.6-2.2,6.4-2.2c2.7,0,4.8,0.7,6.3,2.2C175.4-55.2,176.1-53.1,176.1-50.5z M161.3-50.5 c0,2.2,0.5,3.9,1.6,5c1.1,1.1,2.6,1.7,4.7,1.7c2.1,0,3.6-0.6,4.7-1.7c1-1.1,1.6-2.8,1.6-5c0-2.2-0.5-3.8-1.6-4.9 c-1-1.1-2.6-1.7-4.6-1.7c-2.1,0-3.6,0.6-4.7,1.7C161.9-54.4,161.3-52.7,161.3-50.5z"></path> <path class="st0" d="M128.2-42.5v-16.1h1.9v14.5h10.6v1.7H128.2z"></path> <path class="st0" d="M143.6-42.5v-16.1h1.9v14.5h10.6v1.7H143.6z"></path> <g> <path class="st0" d="M45.6-64.6c-1.5-4.9-5.2-8.8-10-10.4c-1.6-0.6-3.4-0.9-5.2-0.9c-1.8,0-3.6,0.3-5.2,0.9 c-4.8,1.7-8.6,5.6-10.1,10.4c-0.4,1.5-0.7,3-0.7,4.6c0,8.8,7.1,15.9,15.9,15.9s15.9-7.1,15.9-15.9C46.3-61.6,46.1-63.2,45.6-64.6z M30.4-47c-7.2,0-13.1-5.9-13.1-13.1c0-3.3,1.2-6.3,3.2-8.6c2.4-2.7,5.9-4.5,9.9-4.5c3.9,0,7.5,1.8,9.9,4.5c2,2.3,3.2,5.3,3.2,8.6 C43.5-52.8,37.6-47,30.4-47z"></path> </g> <g> <polygon class="st0" points="15.5,-30.7 12.6,-31.8 30.4,-75.9 48.7,-32.4 45.8,-31.3 30.4,-67.8 "></polygon> </g> <g> <path class="st0" d="M30.4-23.5C15.8-23.5,3.9-35.4,3.9-50s11.9-26.5,26.5-26.5S56.9-64.6,56.9-50C56.9-35.3,45-23.5,30.4-23.5z M30.4-73.8C17.3-73.8,6.6-63.1,6.6-50s10.7,23.8,23.8,23.8S54.1-36.9,54.1-50S43.5-73.8,30.4-73.8z"></path> </g> </g> <g> <path class="st0" d="M270.2-75.9v51.2h-41.9c-14.2,0-25.6-11.4-25.6-25.6s11.4-25.6,25.6-25.6h0.1l0,0 C228.3-75.9,270.2-75.9,270.2-75.9z"></path> <g> <path class="st0" d="M351.7-24.2v-1c13.8,0,25.1-11.3,25.1-25.1s-11.3-25.1-25.1-25.1v-1c14.4,0,26.1,11.7,26.1,26.1 S366.1-24.2,351.7-24.2z"></path> </g> <g> <path class="st1" d="M219.6-40.2v-20.5h11.7c2,0,3.8,0.3,5.2,0.8c1.5,0.6,2.7,1.3,3.5,2.4c0.8,1,1.3,2.3,1.3,3.8s-0.4,2.7-1.3,3.7 c-0.9,1-2.1,1.8-3.6,2.3s-3.3,0.7-5.4,0.7h-6.9v-4.3h5.5c0.9,0,1.6-0.1,2.2-0.2c0.6-0.1,1.1-0.4,1.4-0.8c0.3-0.4,0.5-0.8,0.5-1.4 c0-0.6-0.1-1-0.5-1.5c-0.3-0.4-0.8-0.7-1.4-0.8c-0.6-0.1-1.3-0.3-2.2-0.3h-2.6v16.1L219.6-40.2L219.6-40.2z M235.4-49.6l6.7,9.4 h-8l-6.6-9.4H235.4z"></path> <path class="st1" d="M250.7-55.6l2.9,4.8l3.1-4.8h7.2l-5.5,7.7l16.7,23.8h-7.2l-14.5-20.9l-3.3,4.9H243l5.8-7.7l-5.4-7.7 L250.7-55.6L250.7-55.6z"></path> </g> <g> <path class="st0" d="M291.6-52.1l-3.1,0.4c-0.1-0.3-0.1-0.6-0.3-0.9c-0.1-0.3-0.4-0.5-0.7-0.7c-0.3-0.1-0.7-0.2-1.3-0.2 c-0.7,0-1.4,0.1-1.9,0.5c-0.5,0.3-0.9,0.7-1,1.3c-0.1,0.4,0,0.7,0.3,1c0.2,0.2,0.7,0.4,1.4,0.6l2.4,0.5c1.3,0.3,2.2,0.7,2.8,1.4 c0.6,0.7,0.7,1.5,0.6,2.6c-0.1,0.9-0.5,1.6-1.2,2.3c-0.6,0.7-1.4,1.2-2.4,1.5s-2.1,0.6-3.2,0.6c-1.8,0-3.2-0.4-4.1-1.1 s-1.4-1.8-1.4-3.1l3.3-0.3c0.1,0.7,0.3,1.1,0.7,1.5c0.4,0.3,1,0.5,1.7,0.5c0.8,0,1.5-0.1,2.1-0.5s0.9-0.8,1-1.3 c0.1-0.4,0-0.7-0.3-1c-0.2-0.2-0.7-0.4-1.3-0.6l-2.4-0.5c-1.3-0.3-2.3-0.8-2.8-1.5c-0.6-0.7-0.7-1.5-0.6-2.7 c0.1-0.9,0.5-1.6,1.1-2.2c0.6-0.7,1.3-1.1,2.2-1.5s1.9-0.5,3-0.5c1.7,0,3,0.4,3.8,1C291.1-54.3,291.5-53.3,291.6-52.1z"></path> <path class="st0" d="M299.2-41.4c-1.4,0-2.6-0.3-3.5-1c-1-0.6-1.6-1.5-2-2.6s-0.4-2.4-0.2-3.9c0.2-1.5,0.7-2.7,1.5-3.8 s1.6-1.9,2.7-2.6c1.1-0.6,2.4-0.9,3.8-0.9c1.4,0,2.6,0.3,3.5,1c1,0.6,1.5,1.5,2,2.7c0.4,1.2,0.4,2.4,0.2,3.9 c-0.2,1.5-0.7,2.7-1.5,3.8c-0.7,1.1-1.6,1.9-2.8,2.5C301.9-41.7,300.6-41.4,299.2-41.4z M299.5-44c0.8,0,1.5-0.2,2.1-0.7 c0.6-0.4,1.1-1,1.5-1.7c0.4-0.7,0.7-1.5,0.8-2.4c0.1-0.9,0.1-1.6,0-2.4c-0.1-0.7-0.4-1.3-0.8-1.7c-0.4-0.4-1-0.6-1.8-0.6 c-0.8,0-1.5,0.2-2.1,0.7c-0.6,0.4-1.1,1-1.5,1.7c-0.4,0.7-0.7,1.5-0.8,2.4c-0.1,0.9-0.1,1.6,0,2.3c0.1,0.7,0.4,1.3,0.8,1.6 C298.2-44.2,298.8-44,299.5-44z"></path> <path class="st0" d="M319-47.6l1.4-8.3h3.4l-2.4,14.3h-3.2l0.4-2.5h-0.1c-0.4,0.8-1.1,1.5-1.9,2c-0.8,0.5-1.8,0.7-2.9,0.7 c-1,0-1.7-0.2-2.4-0.7c-0.7-0.4-1.1-1-1.4-1.8c-0.3-0.8-0.3-1.8-0.1-2.9l1.5-9.1h3.4l-1.4,8.6c-0.1,0.9,0,1.6,0.4,2.1 c0.4,0.5,1,0.8,1.8,0.8c0.5,0,1-0.1,1.5-0.4c0.5-0.2,1-0.6,1.3-1.1C318.6-46.3,318.8-46.9,319-47.6z"></path> <path class="st0" d="M324.8-41.6l2.4-14.3h3.2l-0.4,2.4h0.1c0.4-0.8,1-1.5,1.6-1.9c0.7-0.4,1.5-0.7,2.3-0.7c0.2,0,0.4,0,0.6,0 s0.4,0.1,0.6,0.1l-0.5,3.1c-0.1-0.1-0.4-0.1-0.7-0.1c-0.3-0.1-0.6-0.1-0.9-0.1c-0.6,0-1.2,0.1-1.7,0.4c-0.5,0.3-1,0.7-1.3,1.1 c-0.4,0.4-0.6,1-0.7,1.6l-1.4,8.4L324.8-41.6L324.8-41.6z"></path> <path class="st0" d="M340.8-41.4c-1.4,0-2.6-0.3-3.5-1c-0.9-0.6-1.5-1.5-1.9-2.6s-0.4-2.4-0.1-3.8c0.2-1.5,0.7-2.7,1.5-3.8 c0.7-1.1,1.7-2,2.8-2.6s2.4-1,3.8-1c1.2,0,2.1,0.2,2.9,0.7c0.8,0.4,1.5,1,1.8,1.8s0.6,1.7,0.4,2.7h-3.2c0-0.7-0.2-1.3-0.7-1.7 c-0.4-0.4-1-0.7-1.8-0.7c-0.7,0-1.3,0.1-1.9,0.6c-0.6,0.4-1.1,0.9-1.5,1.5c-0.4,0.7-0.7,1.5-0.8,2.5c-0.1,1-0.1,1.8,0,2.5 c0.1,0.7,0.5,1.3,1,1.6c0.4,0.4,1,0.6,1.8,0.6c0.5,0,1-0.1,1.4-0.3c0.4-0.2,0.8-0.4,1.1-0.8s0.6-0.8,0.7-1.3h3.2 c-0.3,1-0.7,1.9-1.3,2.7c-0.7,0.8-1.5,1.4-2.4,1.8C343.1-41.6,342-41.4,340.8-41.4z"></path> <path class="st0" d="M356-41.4c-1.4,0-2.6-0.3-3.5-0.9c-1-0.6-1.6-1.5-2-2.6s-0.4-2.4-0.2-3.9c0.2-1.5,0.7-2.7,1.5-3.9 c0.7-1.1,1.7-2,2.8-2.6s2.4-1,3.7-1c0.9,0,1.7,0.1,2.4,0.4s1.3,0.7,1.8,1.3c0.5,0.6,0.9,1.3,1,2.2c0.2,0.9,0.1,2,0,3.2l-0.1,1 h-11.7l0.4-2.3h8.5c0.1-0.7,0.1-1.3-0.1-1.7c-0.1-0.5-0.5-0.9-1-1.2c-0.4-0.3-1-0.4-1.6-0.4c-0.7,0-1.3,0.1-1.8,0.5 s-1,0.8-1.5,1.3c-0.4,0.5-0.7,1.1-0.7,1.7l-0.4,2.1c-0.1,0.9-0.1,1.6,0.1,2.2c0.2,0.6,0.5,1,1,1.3c0.5,0.3,1.1,0.4,1.8,0.4 c0.5,0,1-0.1,1.4-0.2c0.4-0.1,0.8-0.4,1.1-0.6c0.4-0.3,0.6-0.6,0.8-1l3.1,0.4c-0.4,0.8-0.8,1.5-1.5,2.1c-0.7,0.6-1.5,1.1-2.4,1.4 C358.1-41.5,357.1-41.4,356-41.4z"></path> </g> </g> <g> <path class="st0" d="M542-44.6c0-3.6,0-7.2,0-10.8c1.1,0,2.2,0,3.3,0s2.2,0,3.3,0c2.4,0,3.7,2,2.8,4.2c0,0.1-0.1,0.2-0.1,0.3 c1,0.8,1.6,1.8,1.5,3.1c-0.1,1.6-1.4,3.1-3.1,3.2C547.2-44.6,544.7-44.6,542-44.6z M544-46.6c1.8,0,3.4,0,5.1,0 c1.1,0,1.7-0.6,1.7-1.5c0-0.9-0.6-1.5-1.7-1.5c-1.3,0-2.6,0-3.9,0c-0.4,0-0.8,0-1.2,0C544-48.5,544-47.6,544-46.6z M544-51.5 c1.6,0,3.2,0,4.8,0c0.6,0,1-0.5,1-1c0-0.5-0.4-0.9-1.1-0.9c-0.5,0-1.1,0-1.6,0c-1.1,0-2.1,0-3.2,0C544-52.8,544-52.2,544-51.5z"></path> <path class="st0" d="M528.1-55.3c0,0.6,0,1.2,0,1.9c-0.3,0-0.5,0-0.7,0c-2.2,0-4.4,0.1-6.6,0c-1.5-0.1-1.7,0.7-1.5,1.9 c2.3,0,4.5,0,6.8,0c0,0.7,0,1.3,0,1.9c-2.3,0-4.6,0-6.9,0c0,0.8-0.1,1.5,0,2.2c0.1,0.6,0.5,0.8,1.1,0.8c2.3,0,4.6,0,6.9,0 c0.2,0,0.5,0,0.8,0c0,0.7,0,1.3,0,2c-0.4,0-0.8,0-1.2,0c-2.1,0-4.3,0-6.4,0c-2.1,0-3.2-1.2-3.2-3.2c0-1.6,0-3.1,0-4.7 c0-1.6,1.2-2.9,2.8-2.9c2.5,0,5.1,0,7.6,0C527.8-55.4,527.9-55.4,528.1-55.3z"></path> <path class="st0" d="M529.7-44.6c0-3.6,0-7.1,0-10.8c0.5,0,1.1,0,1.6,0c1.4,0,2.8,0,4.2,0c2.7,0.1,4.9,2.5,4.9,5.3 c0.1,2.8-2.1,5.3-4.8,5.5C533.7-44.5,531.7-44.6,529.7-44.6z M531.6-46.5c1.2,0,2.3,0,3.4,0c1.9,0,3.4-1.5,3.4-3.4 c0-1.9-1.5-3.4-3.4-3.5c-1,0-2,0-3,0c-0.2,0-0.3,0.1-0.4,0.1C531.6-51.1,531.6-48.9,531.6-46.5z"></path> <path class="st0" d="M414-50.7c0-1.4,0-2.6,0-3.8c0-0.2,0.2-0.5,0.4-0.6c1.9-1.5,3.7-3.1,5.6-4.6c0.7-0.5,1.4-0.6,2.2-0.3 c0.7,0.3,1.2,0.9,1.2,1.7c0.1,2.5,0,5,0,7.6c-1.2,0-2.3,0-3.5,0c0-0.5,0-1,0-1.5c0-0.6,0.1-1.2,0-1.7c0-0.3-0.2-0.6-0.4-0.7 s-0.6,0-0.8,0.2c-1.4,1.1-2.8,2.3-4.2,3.4C414.4-51,414.3-50.9,414-50.7z"></path> <path class="st0" d="M412.8-50.6c-1.5-1.2-2.8-2.3-4.2-3.4c-0.2-0.2-0.4-0.4-0.6-0.5c-0.2-0.1-0.6-0.2-0.8-0.1 c-0.2,0.1-0.4,0.5-0.4,0.7c-0.1,0.9,0,1.9,0,2.9c0,0.1,0,0.2,0,0.4c-1.2,0-2.3,0-3.5,0c0-0.2,0-0.4,0-0.6c0-2.2,0-4.4,0-6.6 c0-0.9,0.4-1.7,1.2-2.1c0.9-0.4,1.7-0.3,2.4,0.4c1.8,1.4,3.5,2.9,5.3,4.3c0.4,0.3,0.6,0.7,0.6,1.3 C412.7-52.9,412.8-51.9,412.8-50.6z"></path> <path class="st0" d="M452.7-55.4c0.6,0,1.3,0,1.9,0c0,1.3,0,2.5,0,3.8c2.3,0,4.6,0,6.9,0c0-1.3,0-2.5,0-3.8c0.7,0,1.3,0,1.9,0 c0,3.6,0,7.1,0,10.7c-0.6,0-1.2,0-1.9,0c0-1.6,0-3.2,0-4.8c-2.3,0-4.6,0-6.9,0c0,1.6,0,3.2,0,4.8c-0.7,0-1.3,0-1.9,0 C452.7-48.2,452.7-51.8,452.7-55.4z"></path> <path class="st0" d="M403.2-49.3c1.2,0,2.3,0,3.5,0c0,1,0,2,0,2.9c0,0.4,0,0.9,0.4,1c0.3,0.1,0.7-0.1,1-0.3c1.5-1.2,3-2.4,4.6-3.7 c0,0.9-0.1,1.7,0,2.4c0.2,1.3-0.3,2.1-1.4,2.8c-1.6,1.1-3.1,2.4-4.6,3.7c-0.7,0.6-1.6,0.8-2.4,0.4c-0.9-0.4-1.2-1.2-1.2-2.1 c0-2.2,0-4.3,0-6.5C403.2-48.9,403.2-49.1,403.2-49.3z"></path> <path class="st0" d="M434.1-51.3c1.8-1.4,3.6-2.7,5.4-4.1c0,3.7,0,7.2,0,10.8c-0.6,0-1.3,0-1.9,0c0-2.2,0-4.4,0-6.8 c-1.2,0.9-2.3,1.8-3.5,2.6c-1.1-0.8-2.2-1.7-3.4-2.6c0,2.3,0,4.5,0,6.8c-0.7,0-1.3,0-2,0c0-3.6,0-7.1,0-10.8 C430.6-54,432.3-52.7,434.1-51.3z"></path> <path class="st0" d="M476.3-44.6c0-3.6,0-7.2,0-10.7c0.6,0,1.2,0,1.9,0c0,2.2,0,4.4,0,6.8c1.2-0.9,2.3-1.8,3.5-2.6 c1.1,0.8,2.2,1.7,3.4,2.6c0-2.3,0-4.5,0-6.7c0.7,0,1.3,0,2,0c0,3.6,0,7.1,0,10.7c-1.8-1.4-3.6-2.7-5.4-4.1 C480-47.4,478.2-46,476.3-44.6z"></path> <path class="st0" d="M504.9-55.4c1.8,1.4,3.6,2.7,5.4,4.1c1.8-1.4,3.5-2.7,5.4-4.1c0,3.6,0,7.2,0,10.8c-0.6,0-1.2,0-1.9,0 c0-2.2,0-4.4,0-6.8c-1.2,0.9-2.3,1.8-3.5,2.6c-1.1-0.8-2.2-1.7-3.4-2.6c0,2.3,0,4.5,0,6.8c-0.7,0-1.3,0-2,0 C504.9-48.2,504.9-51.7,504.9-55.4z"></path> <path class="st0" d="M414-49.4c1.4,1.1,2.6,2.1,3.9,3.2c0.3,0.2,0.5,0.5,0.8,0.7c0.6,0.5,1.2,0.2,1.3-0.6c0.1-0.9,0-1.8,0-2.7 c0-0.2,0-0.3,0.1-0.5c1.1,0,2.3,0,3.4,0c0,0.4,0,0.8,0,1.2c0,2,0,3.9,0,5.9c0,0.9-0.3,1.7-1.2,2.1c-0.9,0.4-1.7,0.3-2.4-0.3 c-1.8-1.5-3.6-2.9-5.5-4.4c-0.2-0.2-0.4-0.4-0.4-0.6C414-46.7,414-48,414-49.4z"></path> <path class="st0" d="M489-55.4c0.6,0,1.3,0,1.9,0c0,1.8,0,3.5,0,5.4c1.2-1.1,2.2-2,3.3-2.9c0.8-0.7,1.5-1.4,2.3-2.1 c0.3-0.2,0.7-0.4,1-0.4c0.7-0.1,1.4,0,2.3,0c-1.6,1.5-3.2,2.9-4.7,4.3c1.5,2.1,3.1,4.2,4.7,6.5c-0.8,0-1.6,0-2.3,0 c-0.2,0-0.4-0.2-0.5-0.4c-1.1-1.5-2.2-3.1-3.4-4.7c-0.9,0.8-1.8,1.6-2.6,2.4c-0.1,0.1-0.1,0.4-0.1,0.6c0,0.7,0,1.4,0,2.1 c-0.7,0-1.3,0-1.9,0C489-48.2,489-51.8,489-55.4z"></path> <path class="st0" d="M446-44.6c-3.1-0.1-5.4-2.5-5.4-5.6c0.1-3,2.5-5.3,5.6-5.2c2.9,0.1,5.3,2.5,5.3,5.5 C451.5-46.9,449-44.5,446-44.6z M446.1-53.4c-1.9,0-3.5,1.5-3.5,3.4c0,1.9,1.5,3.4,3.4,3.4c1.9,0,3.5-1.5,3.5-3.5 C449.5-51.9,448-53.4,446.1-53.4z"></path> <path class="st0" d="M554-55.4c0.7,0,1.3,0,2,0c0,0.7,0,1.5,0,2.2c0,1.1,0,2.2,0,3.2c0,1.9,1.6,3.4,3.5,3.4c1.9,0,3.4-1.5,3.4-3.4 c0-1.8,0-3.5,0-5.4c0.7,0,1.3,0,1.9,0c0,2.1,0,4.2,0,6.3c0,0.1-0.1,0.2-0.1,0.3c-0.6,2.7-3.1,4.5-5.9,4.2c-2.6-0.3-4.7-2.5-4.8-5.2 C554-51.7,554-53.5,554-55.4z"></path> <path class="st0" d="M470-55.4c1.9,3.6,3.7,7.2,5.5,10.8c-0.7,0-1.4,0.1-2,0c-0.2,0-0.4-0.3-0.5-0.5c-0.3-0.7-0.7-0.9-1.5-0.9 c-1.2,0.1-2.5,0-3.7,0c-0.4,0-0.6,0.1-0.7,0.5c-0.2,0.9-0.8,1.1-1.7,1c-0.3-0.1-0.6,0-1.1,0C466.3-48.2,468.1-51.8,470-55.4z M470-51.1c-0.5,1.1-1.1,2.1-1.6,3.1c1.1,0,2.1,0,3.2,0C471-49.1,470.5-50,470-51.1z"></path> <path class="st0" d="M571.4-51.6c0.9-1.1,1.7-2.2,2.5-3.2c0.3-0.5,0.7-0.7,1.3-0.6c0.5,0.1,1,0,1.7,0c-0.6,0.8-1.1,1.4-1.6,2 c-0.7,0.9-1.3,1.8-2.1,2.6c-0.7,0.7-0.9,1.5-0.8,2.5c0.1,1.2,0,2.4,0,3.6c-0.7,0-1.3,0-2,0c0-0.7-0.1-1.5,0-2.2 c0.3-2-0.3-3.6-1.7-5c-1-1.1-1.8-2.3-2.8-3.6c0.9,0,1.6,0,2.3,0c0.2,0,0.4,0.3,0.5,0.4C569.6-53.9,570.5-52.8,571.4-51.6z"></path> </g> <g> <g> <path class="st0" d="M23.9,57.5c-0.3,0.1-0.7,0.3-1.3,0.3c-1.5,0-2.5-0.9-2.5-2.6c0-1.6,1.1-2.7,2.7-2.7c0.6,0,1,0.1,1.2,0.2 l-0.1,0.5c-0.3-0.1-0.6-0.2-1-0.2c-1.2,0-2,0.8-2,2.1c0,1.3,0.7,2.1,2,2.1c0.4,0,0.8-0.1,1.1-0.2L23.9,57.5z"></path> <path class="st0" d="M28,56.1l-0.5,1.6h-0.7l1.8-5.1h0.7l1.8,5.1h-0.7l-0.6-1.6H28z M29.7,55.6l-0.5-1.5c-0.1-0.3-0.2-0.6-0.3-0.9 l0,0c-0.1,0.3-0.1,0.6-0.3,0.9l-0.5,1.5L29.7,55.6L29.7,55.6z"></path> <path class="st0" d="M34.3,52.7c0.3-0.1,0.8-0.1,1.3-0.1c0.7,0,1.2,0.1,1.5,0.4c0.3,0.2,0.4,0.6,0.4,1c0,0.7-0.4,1.1-1,1.3v0 c0.4,0.1,0.6,0.5,0.7,1c0.1,0.7,0.3,1.2,0.4,1.4h-0.7c-0.1-0.1-0.2-0.6-0.3-1.2c-0.1-0.7-0.4-1-1-1h-0.7v2.2h-0.7V52.7z M34.9,55 h0.7c0.7,0,1.2-0.4,1.2-1c0-0.7-0.5-0.9-1.2-1c-0.3,0-0.6,0-0.6,0.1V55z"></path> <path class="st0" d="M40.8,52.7c0.4-0.1,0.9-0.1,1.4-0.1c0.9,0,1.6,0.2,2.1,0.6c0.4,0.4,0.7,1,0.7,1.8s-0.3,1.5-0.7,2 c-0.5,0.5-1.3,0.7-2.3,0.7c-0.5,0-0.9,0-1.2-0.1C40.8,57.7,40.8,52.7,40.8,52.7z M41.4,57.2c0.1,0,0.4,0,0.7,0 c1.4,0,2.2-0.8,2.2-2.2c0-1.2-0.7-2-2.1-2c-0.3,0-0.6,0-0.8,0.1L41.4,57.2L41.4,57.2z"></path> <path class="st0" d="M48.9,52.6v5.1h-0.7v-5.1H48.9z"></path> <path class="st0" d="M56.8,55.1c0,1.8-1.1,2.7-2.4,2.7c-1.3,0-2.3-1-2.3-2.6c0-1.6,1-2.7,2.4-2.7C56,52.5,56.8,53.6,56.8,55.1z M52.9,55.2c0,1.1,0.6,2.1,1.6,2.1s1.6-1,1.6-2.1c0-1-0.5-2.1-1.6-2.1S52.9,54.1,52.9,55.2z"></path> <path class="st0" d="M60.1,52.6h0.7v4.5H63v0.6h-2.8L60.1,52.6L60.1,52.6z"></path> <path class="st0" d="M70.2,55.1c0,1.8-1.1,2.7-2.4,2.7c-1.3,0-2.3-1-2.3-2.6c0-1.6,1-2.7,2.4-2.7C69.3,52.5,70.2,53.6,70.2,55.1z M66.2,55.2c0,1.1,0.6,2.1,1.6,2.1c1,0,1.6-1,1.6-2.1c0-1-0.5-2.1-1.6-2.1C66.8,53.1,66.2,54.1,66.2,55.2z"></path> <path class="st0" d="M77.4,57.5c-0.3,0.1-0.9,0.3-1.6,0.3c-0.8,0-1.4-0.2-1.9-0.7c-0.4-0.4-0.7-1.1-0.7-1.9c0-1.5,1-2.6,2.8-2.6 c0.6,0,1,0.1,1.3,0.2l-0.1,0.5c-0.3-0.1-0.6-0.2-1.1-0.2c-1.2,0-2.1,0.8-2.1,2.1c0,1.3,0.8,2.1,2,2.1c0.4,0,0.7-0.1,0.9-0.1v-1.5 h-1V55h1.7L77.4,57.5L77.4,57.5z"></path> <path class="st0" d="M81.9,57.7v-2.2l-1.6-2.9h0.7l0.7,1.4c0.2,0.4,0.3,0.7,0.5,1l0,0c0.1-0.3,0.3-0.7,0.5-1l0.7-1.4h0.7l-1.7,2.9 v2.2H81.9z"></path> <path class="st0" d="M94.9,57.5c-0.3,0.1-0.7,0.3-1.3,0.3c-1.5,0-2.5-0.9-2.5-2.6c0-1.6,1.1-2.7,2.7-2.7c0.6,0,1,0.1,1.2,0.2 l-0.1,0.5c-0.3-0.1-0.6-0.2-1-0.2c-1.2,0-2,0.8-2,2.1c0,1.3,0.7,2.1,2,2.1c0.4,0,0.8-0.1,1.1-0.2L94.9,57.5z"></path> <path class="st0" d="M100.8,55.3h-2v1.8h2.2v0.6h-2.9v-5.1h2.8v0.6h-2.1v1.6h2L100.8,55.3L100.8,55.3z"></path> <path class="st0" d="M104.3,57.7v-5.1h0.7l1.6,2.6c0.4,0.6,0.7,1.2,0.9,1.7l0,0c-0.1-0.7-0.1-1.3-0.1-2.1v-2.1h0.6v5.1h-0.7 l-1.6-2.6c-0.4-0.6-0.7-1.2-1-1.7h0c0,0.6,0,1.3,0,2.1v2.2L104.3,57.7L104.3,57.7z"></path> <path class="st0" d="M112.7,53.2h-1.6v-0.6h3.8v0.6h-1.6v4.5h-0.7L112.7,53.2L112.7,53.2z"></path> <path class="st0" d="M120.6,55.3h-2v1.8h2.2v0.6h-2.9v-5.1h2.8v0.6h-2.1v1.6h2L120.6,55.3L120.6,55.3z"></path> <path class="st0" d="M124.1,52.7c0.3-0.1,0.8-0.1,1.3-0.1c0.7,0,1.2,0.1,1.5,0.4c0.3,0.2,0.4,0.6,0.4,1c0,0.7-0.4,1.1-1,1.3v0 c0.4,0.1,0.6,0.5,0.7,1c0.1,0.7,0.3,1.2,0.4,1.4h-0.7c-0.1-0.1-0.2-0.6-0.3-1.2c-0.1-0.7-0.4-1-1-1h-0.7v2.2h-0.7V52.7z M124.8,55 h0.7c0.7,0,1.2-0.4,1.2-1c0-0.7-0.5-0.9-1.2-1c-0.3,0-0.6,0-0.6,0.1L124.8,55L124.8,55z"></path> <path class="st0" d="M130.5,56.9c0.3,0.2,0.7,0.3,1.2,0.3c0.7,0,1.1-0.4,1.1-0.9s-0.3-0.7-1-1c-0.8-0.3-1.3-0.7-1.3-1.5 c0-0.8,0.7-1.4,1.6-1.4c0.5,0,0.9,0.1,1.1,0.3l-0.2,0.5c-0.1-0.1-0.5-0.3-1-0.3c-0.7,0-1,0.4-1,0.8c0,0.5,0.3,0.7,1,1 c0.9,0.3,1.3,0.7,1.3,1.5c0,0.8-0.6,1.5-1.8,1.5c-0.5,0-1-0.1-1.3-0.3L130.5,56.9z"></path> <path class="st0" d="M141.5,52.6v5.1h-0.7v-5.1H141.5z"></path> <path class="st0" d="M145,57.7v-5.1h0.7l1.6,2.6c0.4,0.6,0.7,1.2,0.9,1.7l0,0c-0.1-0.7-0.1-1.3-0.1-2.1v-2.1h0.6v5.1h-0.7 l-1.6-2.6c-0.4-0.6-0.7-1.2-1-1.7h0c0,0.6,0,1.3,0,2.1v2.2L145,57.7L145,57.7z"></path> <path class="st0" d="M156,57.5c-0.3,0.1-0.7,0.3-1.3,0.3c-1.5,0-2.5-0.9-2.5-2.6c0-1.6,1.1-2.7,2.7-2.7c0.6,0,1,0.1,1.2,0.2 l-0.1,0.5c-0.3-0.1-0.6-0.2-1-0.2c-1.2,0-2,0.8-2,2.1c0,1.3,0.7,2.1,2,2.1c0.4,0,0.8-0.1,1.1-0.2L156,57.5z"></path> <path class="st0" d="M159,57.3c0-0.3,0.2-0.5,0.4-0.5c0.3,0,0.4,0.2,0.4,0.5c0,0.3-0.2,0.5-0.4,0.5C159.2,57.8,159,57.6,159,57.3z "></path> </g> <g> <polygon class="st0" points="63.6,48.2 49.2,48.2 38.6,30.5 34,36.1 34,48.2 20.4,48.2 20.4,2.2 34,2.2 34,21.1 48.1,2.4 63.4,2.4 47.8,22.3 "></polygon> <polygon class="st0" points="159.6,2.5 159.6,48.2 147,48.2 147,30.5 130.8,30.5 130.8,48.2 118.2,48.2 118.2,2.5 130.8,2.5 130.8,19.4 147,19.4 147,2.5 "></polygon> <polygon class="st0" points="112.3,2.8 112.3,48.2 99.8,48.2 99.8,26.8 89.2,35.5 78.6,26.9 78.6,48.2 66.1,48.2 66.1,2.6 89.3,20.7 "></polygon> </g> </g> <g id="Layer_2_00000114035131433610371970000011608648442928006801_"> <g id="Layer_1-2"> <polygon class="st0" points="318.5,29.2 310.4,29.2 310.4,22.2 308.2,22.2 308.2,38.2 310.4,38.2 310.4,31.3 318.5,31.3 318.5,38.2 320.7,38.2 320.7,22.2 318.5,22.2 "></polygon> <path class="st0" d="M329.1,25c-4,0-6.5,2.7-6.5,6.7V32c0,4,2.2,6.5,6.4,6.5c3.2,0,5.4-1.5,6.1-4.2h-2.4c-0.5,1.5-1.8,2.3-3.7,2.3 c-2.7,0-4.2-1.6-4.4-4.2h10.5v-1C335.3,28,333.4,25,329.1,25z M324.8,30.8c0.3-2.5,1.9-4,4.3-4s3.8,1.6,4,4H324.8z"></path> <path class="st0" d="M343.4,25c-3.6,0-5.8,2-6,4.8h2.2c0.1-1.8,1.4-3.1,3.9-3.1c2.3,0,3.3,1,3.3,2.3c0,1.2-1.3,1.4-3.5,1.7 c-2.6,0.4-3.7,0.6-4.7,1.3c-1.1,0.7-1.7,1.8-1.7,3.1c0,2.1,1.4,3.4,4.2,3.4c2.9,0,4.8-1.6,5.7-3.5l0.2,3.2h1.8l0-8.8 C348.9,26.8,347.2,25,343.4,25z M346.9,32.1c0,2.2-2.1,4.7-5,4.7c-1.7,0-2.5-0.8-2.5-2c0-0.7,0.3-1.3,0.9-1.7 c0.7-0.5,1.6-0.7,3.5-1c1.4-0.2,2.5-0.5,3.1-1V32.1z"></path> <polygon class="st0" points="351.7,29.8 351.7,38.2 353.9,38.2 353.9,29.7 353.9,21.5 351.7,21.5 "></polygon> <path class="st0" d="M360.2,22.2h-1.7c0,0.5-0.1,1.7-0.2,2.1c-0.2,0.8-0.3,1-1.1,1.1c-0.3,0.1-1.2,0.1-1.6,0.1v1.9h2.5v6 c0,3.8,0.9,5,4.4,5h1.5v-2.1h-1c-2.3,0-2.8-0.5-2.8-3.2v-5.6h3.8v-2h-3.8L360.2,22.2z"></path> <path class="st0" d="M372.9,25c-2.3,0-3.9,1.2-4.7,2.9v-6.5h-2.1v16.7h2.1v-6.8c0-2.7,1.4-4.5,3.9-4.5c2.5,0,3.5,1.7,3.5,4v7.3 h2.2v-7.8C377.9,27.1,376.2,25,372.9,25z"></path> <path class="st0" d="M213.9,29.8c1.5-0.6,2.3-1.7,2.3-3.5v0c0-2.8-2.1-4.2-6.8-4.2h-7.2v16h7.7c4.5,0,6.7-1.5,6.7-4.7 C216.6,31.4,215.7,30.3,213.9,29.8z M206.6,25.5h2.8c1.7,0,2.3,0.4,2.3,1.4v0c0,1-0.7,1.4-2.2,1.4h-2.9V25.5z M211.9,32.9 c0,1-0.6,1.5-2.7,1.5h-2.6v-3h2.6C211.3,31.4,211.9,31.8,211.9,32.9L211.9,32.9z"></path> <path class="st0" d="M222.7,22l-6.2,16h4.6l1-2.8h6l1,2.8h4.6l-6.3-16H222.7z M223.3,31.8l1.8-5.1l1.8,5.1H223.3z"></path> <path class="st0" d="M243.2,30.5c0,2.7-0.7,3.6-2.5,3.6c-1.7,0-2.5-1-2.5-3.6V22h-4.7v8.6c0,5.4,2.3,7.8,7.2,7.8 c4.5,0,7.2-2.4,7.2-7.8V22h-4.7V30.5z"></path> <path class="st0" d="M257.9,28.1c-2.5-0.4-3.8-0.6-3.8-1.6c0-0.8,0.6-1.4,2.2-1.4c1.7,0,2.6,0.5,2.7,1.9v0h4.6v0 c-0.4-3.6-2.8-5.4-7.3-5.4c-4.4,0-6.8,2.1-6.8,5.1c0,3.4,2.5,4.3,5.7,4.8c2.7,0.4,4,0.6,4,1.8c0,0.9-0.7,1.5-2.3,1.5 c-1.9,0-2.9-0.7-3-2.2v-0.1h-4.8v0c0.3,3.8,2.2,5.9,7.7,5.9c4.7,0,7.1-2.2,7.1-5.4C263.9,29.6,261.2,28.6,257.9,28.1z"></path> <path class="st0" d="M276,31.4c-0.2,1.8-1.1,2.9-3,2.9c-2.1,0-3.2-1.2-3.2-3.8v-0.9c0-2.7,1.1-3.9,3.2-3.9c1.9,0,2.8,1,3,2.7v0.1 h4.9v-0.3c-0.3-4.4-3.3-6.6-7.8-6.6c-4.8,0-7.9,2.7-7.9,7.8v1.3c0,5.2,2.9,7.7,7.8,7.7s7.7-2.2,8-6.9v-0.3H276V31.4z"></path> <polygon class="st0" points="297.2,28 297.2,22 292.7,22 292.7,28 292.7,28 287.2,28 287.2,22 282.6,22 282.6,38 287.2,38 287.2,32.2 292.7,32.2 292.7,32.2 292.7,32.2 292.7,38 297.2,38 297.2,32.2 297.2,32.2 297.2,32.2 302.7,32.2 302.7,28 "></polygon> <rect x="292.7" y="28" class="st2" width="4.5" height="4.2"></rect> </g> </g> <g> <path id="path107" class="st0" d="M493.5,26c-1.4,0-2.1,0.8-2.1,0.8v-0.6h-1.9v8.7h1.9v-6.5c0,0,0.5-0.8,1.7-0.8 c1.3,0,1.7,0.8,1.7,2.4v5h1.9v-5C496.7,27,495.5,26,493.5,26z"></path> <path id="path109" class="st0" d="M504.9,26.2H502v1.6h1v7.2h1.9V26.2L504.9,26.2L504.9,26.2z"></path> <path id="path111" class="st0" d="M503.9,24.8c0.7,0,1.2-0.6,1.2-1.3c0-0.7-0.5-1.3-1.2-1.3s-1.2,0.6-1.2,1.3 C502.7,24.3,503.2,24.8,503.9,24.8z"></path> <path id="path113" class="st0" d="M460,26.2h-2.9v1.6h1v7.2h1.9V26.2L460,26.2L460,26.2z"></path> <path id="path115" class="st0" d="M459,24.8c0.7,0,1.2-0.6,1.2-1.3c0-0.7-0.5-1.3-1.2-1.3s-1.2,0.6-1.2,1.3 C457.7,24.3,458.3,24.8,459,24.8z"></path> <path id="path117" class="st0" d="M529,26c-1.2,0-3.9,0.8-3.9,4.6c0,3.4,2.5,4.5,3.9,4.5c2.2,0,3.2-1.7,3.2-1.7l-1.2-1.1 c0,0-0.7,1.2-2,1.2c-1.1,0-2-1.3-2-3c0-1.7,0.7-2.9,2-2.9c0.7,0,1.3,0.3,2,1l1.2-1.1C532.3,27.5,531.2,26,529,26z"></path> <path id="path119" class="st0" d="M465.8,33.5c-1.2,0-2.1-1.2-2.1-3c0-1.8,0.8-2.9,2.1-3c1.3,0,2.1,1.2,2.1,3 C467.9,32.3,467,33.5,465.8,33.5z M465.8,26c-2.4,0-4,1.9-4,4.5c0,2.7,1.6,4.6,4,4.6c2.4,0,4-1.9,4-4.6 C469.8,27.9,468.1,26,465.8,26z"></path> <path id="path121" class="st0" d="M481.9,29.7c0.2-1.3,0.7-2.1,1.8-2.1c1.5,0,1.9,1.2,2,2.1C485.4,29.7,482.1,29.7,481.9,29.7z M483.8,26c-2.4,0-3.9,1.8-3.9,4.6c0,2.7,1.6,4.5,3.9,4.5c2.1,0,3.1-1.2,3.1-1.2l-1.1-1.1c-0.6,0.5-1.3,0.7-2,0.7 c-1.1,0-1.8-0.9-2-2.2c0.2,0,5.7,0,5.7,0s0.1-0.6,0.1-0.9C487.6,27.7,486.1,26,483.8,26z"></path> <path id="path123" class="st0" d="M517.9,29.7c0.2-1.3,0.8-2.1,1.8-2.1c1.4,0,1.8,1.2,1.9,2.1H517.9z M519.9,26 c-2.4,0-3.9,1.8-3.9,4.6c0,2.6,1.6,4.5,3.9,4.5c2.1,0,3.1-1.2,3.1-1.2l-1.1-1.1c-0.6,0.5-1.3,0.7-2,0.7c-1,0-1.8-0.9-2-2.2h5.7 c0,0,0.1-0.6,0.1-0.9C523.6,27.7,522.2,26,519.9,26z"></path> <path id="path125" class="st0" d="M512.4,33.3c-0.3,0.1-0.7,0.2-1.1,0.2c-1.5,0-2.8-0.9-2.8-3c0-1.8,1.1-3,2.7-3 c0.5,0,0.8,0,1.1,0.1V33.3L512.4,33.3z M512.4,21.9v4.2c-0.3,0-0.7-0.1-1.2-0.1c-2.7,0-4.6,2-4.6,4.7c0,2.5,1.5,4.5,5,4.5 c1.1,0,2.3-0.4,2.7-0.7V21.9H512.4z"></path> <path id="path127" class="st0" d="M455.8,30.2c0-2.9-1.8-4.2-3.9-4.2c-0.7,0-1.2,0.1-1.7,0.3v-4.4h-1.9v12.5 c0.5,0.3,1.6,0.7,2.7,0.7C453.9,35.1,455.8,33.3,455.8,30.2z M453.9,30.4c0,1.7-1,3.1-2.6,3.1c-0.5,0-0.8,0-1.1-0.2v-5.4 c0.2-0.1,0.7-0.4,1.4-0.4C453.3,27.6,453.9,28.8,453.9,30.4z"></path> <path id="path129" class="st0" d="M474.8,37.7c-1.5,0-2.4-0.5-2.4-1.3c0-0.9,0.9-1.4,2.4-1.4c1.4,0,2.4,0.5,2.4,1.3 C477.2,37.2,476.3,37.7,474.8,37.7z M474.7,27.5c1,0,1.6,0.7,1.6,1.9c0,1.1-0.6,1.9-1.6,1.9c-1,0-1.6-0.7-1.6-1.9 C473.2,28.2,473.8,27.5,474.7,27.5z M474.8,33.5c-0.4,0-1.1,0.1-1.2,0.1c-0.3-0.2-0.5-0.8-0.3-1.2c0.4,0.2,1,0.3,1.5,0.3 c2.1,0,3.4-1.4,3.4-3.4c0-0.7-0.3-1.6-0.7-1.8l1.1,0.1V26c0,0-3.7,0-3.8,0c-1,0-1.8,0.3-2.4,0.9c-0.6,0.6-1,1.5-1,2.5 c0,0.9,0.3,1.6,0.7,2.2l0,0c-0.3,0.4-0.5,0.9-0.4,1.5c0,0.4,0.1,0.7,0.3,1c-1.1,0.5-1.6,1.4-1.6,2.3l0,0l0,0c0,0.8,0.4,1.5,1.2,2.1 c0.8,0.5,1.9,0.8,3.2,0.8c1.3,0,2.4-0.3,3.2-0.8c0.8-0.5,1.2-1.2,1.2-2C479.2,34.7,477.4,33.5,474.8,33.5z"></path> <g id="path131"> <polygon class="st0" points="439.8,58.1 438.8,58.1 438.8,19.5 443.3,16.5 555.4,16.5 555.4,17.5 443.6,17.5 439.8,20 "></polygon> </g> <path id="path135" class="st0" d="M543.4,40.9c0.4,0,0.7,0,0.7-0.5c0-0.4-0.3-0.4-0.6-0.4h-0.6v0.8H543.4z M542.8,42.5h-0.5v-2.9 h1.1c0.7,0,1,0.2,1,0.8c0,0.5-0.3,0.7-0.7,0.8l0.8,1.3h-0.5l-0.7-1.2h-0.5L542.8,42.5L542.8,42.5z M543.3,38.9c-1.1,0-2,0.9-2,2.1 c0,1.2,0.8,2.1,2,2.1c1.1,0,2-0.9,2-2.1C545.4,39.7,544.5,38.9,543.3,38.9z M543.3,43.6c-1.5,0-2.6-1.1-2.6-2.6 c0-1.6,1.2-2.6,2.6-2.6s2.6,1,2.6,2.6C545.9,42.6,544.7,43.6,543.3,43.6z"></path> <g id="path3536"> <polygon class="st0" points="534.6,42.7 423.7,42.7 423.7,41.7 534.3,41.7 538.1,39.2 538.1,1.9 539,1.9 539,39.7 "></polygon> </g> </g> </svg> 