<?xml version="1.0" encoding="UTF-8"?> <svg xmlns="http://www.w3.org/2000/svg" xmlns:xlink="http://www.w3.org/1999/xlink" version="1.1" id="Layer_1" x="0px" y="0px" viewBox="0 0 180 60" style="enable-background:new 0 0 180 60;" xml:space="preserve"> <style type="text/css"> .st0{fill-rule:evenodd;clip-rule:evenodd;fill:#010101;} .st1{fill:#010101;} </style> <g id="layer1" transform="translate(-587.143,-206.77389)"> <g id="g3205" transform="translate(1.0015003,1.0002492)"> <path id="path2396" class="st0" d="M589.1,263.9h9.5v-20.8l10.6,11.7h13.4l-15.7-17.1l13.8-15.7h-13.1l-8.9,10v-10.9h-9.5v42.7 H589.1z"></path> <path id="path2398" class="st1" d="M636,221.3c-9.2,0-16.7,7.5-16.7,16.7c0,9.2,7.5,16.7,16.7,16.7c9.2,0,16.7-7.5,16.7-16.7 C652.7,228.8,645.2,221.3,636,221.3z M636,232.8c2.9,0,5.2,2.4,5.2,5.2s-2.4,5.2-5.2,5.2s-5.2-2.4-5.2-5.2S633.1,232.8,636,232.8z "></path> <path id="path3175" class="st1" d="M673.1,221.6c-9.2,0-16.7,7.5-16.7,16.7c0,9.2,7.5,16.7,16.7,16.7c9.2,0,16.7-7.5,16.7-16.7 C689.8,229,682.4,221.6,673.1,221.6z M673.1,230.9c4.1,0,7.4,3.3,7.4,7.4c0,4.1-3.3,7.4-7.4,7.4s-7.4-3.3-7.4-7.4 C665.7,234.2,669.1,230.9,673.1,230.9z"></path> <path id="path3183" class="st1" d="M718.9,207.7v17.6c-2.7-1.8-5.8-3.6-9.2-3.6c-7.9,0-16.6,5.5-16.6,16.9 c0,8.9,7.6,16.2,16.6,16.2c9.8,0,16.9-8.7,16.9-16.2v-30.9h-7.7V207.7z M709.4,229.1c5,0,9.1,4.1,9.1,9.1c0,5-4.1,9.1-9.1,9.1 c-5,0-9.1-4.1-9.1-9.1C700.3,233.3,704.4,229.1,709.4,229.1z"></path> <path id="path3188" class="st1" d="M746.5,221.4c-9.2,0-16.7,7.5-16.7,16.7c0,9.2,7.5,16.7,16.7,16.7c9.2,0,16.7-7.5,16.7-16.7 C763.2,228.9,755.7,221.4,746.5,221.4z M746.5,226.6c6.5,0,11.7,5.2,11.7,11.7c0,6.5-5.2,11.7-11.7,11.7 c-6.5,0-11.7-5.2-11.7-11.7C734.8,231.7,740.1,226.6,746.5,226.6z"></path> </g> </g> </svg> 