<?xml version="1.0" encoding="UTF-8"?> <svg xmlns="http://www.w3.org/2000/svg" xmlns:xlink="http://www.w3.org/1999/xlink" version="1.1" id="Layer_1" x="0px" y="0px" viewBox="0 0 180 60" style="enable-background:new 0 0 180 60;" xml:space="preserve"> <style type="text/css"> .st0{fill:#FFFFFF;} </style> <g> <path id="path5474" class="st0" d="M33.2,32.1c0,0-7,0-7.6,0C14.5,32.3,15,22.8,15,22.8v-8.2H1.8v13.1c0,1.8,1.7,17.6,18.1,17.6 c9.8,0,13.2,0,13.2,0L33.2,32.1"></path> <path id="path5476" class="st0" d="M16.4,14.7V22c0,0-1.1,8.9,8.5,8.8c1.3,0,8.3,0,8.3,0V25h-3.7c0,0-7.1,0.9-7-4.6 c0-0.7,0-5.8,0-5.8h-6.1"></path> <path id="path5478" class="st0" d="M24,14.7v4.8c0,0-0.5,4.3,5.1,4.2c0.6,0,4.1,0,4.1,0v-4.3h-2.3c0,0-2.8,0.2-2.7-2.9 c0-1,0-1.8,0-1.8L24,14.7"></path> <path id="path5480" class="st0" d="M29.7,14.7h3.5V18c0,0-3.5,0.5-3.5-1.4C29.7,15.2,29.7,14.7,29.7,14.7"></path> <path id="path5482" class="st0" d="M170.7,30.8c-3.7-0.8-7.3-1.1-7.3-3.4c0-1.8,2.1-2.1,3.6-2.1c2.3,0,4.2,0.7,4.4,3.1h6.1 c-0.5-5.6-5.2-7.3-10.4-7.3c-2.4,0-4.8,0.4-6.7,1.3l0.2-0.7H154l-4.3,15.5h-0.1l-4-15.5h-6.3l-3.9,15.5h-0.1L131,21.7h-6.8l0.2,0.6 c-2-0.9-4.6-1.2-7-1.2c-0.3,0-0.5,0-0.7,0c-4.6,0.1-9.1,1.7-10.1,6.2V14.7h-6.5v12.2c-1.7-4-5.2-5.8-8.5-5.8 c-0.8,0-1.5,0.1-2.2,0.2c-2.1,0.4-4,1.5-5.1,3.2h-0.1v-9.8h-6.5v11.7c-2-3.3-5.7-5.3-10.4-5.3c-7.4,0-12.1,4.8-12.1,12.1 c0,1.8,0.3,3.4,0.8,4.8c-2,0-4.6,0-6.6,0c-5.3,0-5.2-2.5-5.2-4.5V14.6h-6.5c0,0,0.1,18.6,0,22.2c0,7.2,5.7,7.4,10.6,7.4h11v-1.7 c2,1.6,4.7,2.5,7.9,2.5c4.7,0,8.4-2,10.4-5.3v4.7h6.1v-2.9h0.1c1.1,2,3.1,3,5.5,3.4C90,45,90.8,45,91.5,45c3.3,0,6.7-1.8,8.5-5.8 v5.2h6.5v-2.6c1.3,2.2,4,3.2,7.1,3.2c1,0,2-0.1,3.1-0.3c1.8-0.4,3.5-1.2,4.8-2.5c0,0.8,0.2,1.5,0.4,2.2h6.6c-0.6-0.9-0.8-3-0.8-5.1 v-6.9l3.9,11.9h6.7l4-15.3h0.1l4.2,15.3h6.7l4.3-13.5c1.3,2,4,2.8,6.7,3.4c4.6,1,7.3,1.6,7.3,3.5c0,2.2-2.4,2.9-4.3,2.9 c-2.5,0-4.9-1.1-4.9-3.8h-6.1c0.3,6,5.6,8,11,8c5.3,0,10.7-1.9,10.7-7.9C178.2,33,174.4,31.6,170.7,30.8L170.7,30.8z M67.5,40.4 c-4.4,0-5.7-3.6-5.7-7.3c0-3.6,1.3-7.3,5.7-7.3c4.3,0,5.7,3.7,5.7,7.3C73.1,36.7,71.8,40.4,67.5,40.4z M89.6,40.4L89.6,40.4 c-3.8,0-5.5-3.5-5.5-7.3c0-3.9,1.7-7.3,5.5-7.3l0,0c3.8,0,5.5,3.5,5.5,7.3C95,36.9,93.4,40.4,89.6,40.4z M121.4,35.7 c0,1.3-0.2,4.9-4.6,5.2c-0.2,0-0.4,0-0.7,0c-2.1,0-3.9-0.6-3.9-2.9c0-2.3,1.8-3,3.8-3.4c0.3,0,0.5-0.1,0.8-0.1 c1.8-0.3,3.6-0.4,4.6-1.2L121.4,35.7L121.4,35.7z M116.8,31c-0.9,0.1-2,0.2-3.1,0.4c-2.8,0.4-5.7,1.1-7.1,3.3v-6h6.3 c0.2-2.3,1.6-3.4,3.9-3.5c0.1,0,0.3,0,0.4,0c2.3,0,4.2,0.4,4.2,3.1C121.4,30.3,119.5,30.7,116.8,31z"></path> </g> </svg> 