<?xml version="1.0" encoding="UTF-8"?> <svg xmlns="http://www.w3.org/2000/svg" width="213.693" height="37.209" viewBox="0 0 213.693 37.209"><g id="layer1" transform="translate(-1147.556 -653.508)"><path id="path5474" d="M1185.56,674.63h-9.192c-13.522.266-12.815-11.224-12.815-11.224v-9.9h-16v15.865c0,2.209,2.077,21.344,21.962,21.344h16.042V674.63" fill="red"></path><path id="path5476" d="M1165.23,653.508v8.837s-1.326,10.783,10.3,10.694h10.032v-6.981h-4.464s-8.617,1.1-8.528-5.524v-7.026h-7.336" fill="#ff7f00"></path><path id="path5478" d="M1174.42,653.508v5.877s-.663,5.214,6.187,5.038h4.95v-5.17h-2.785a3.137,3.137,0,0,1-3.314-3.535v-2.21h-5.038" fill="#ff7f00"></path><path id="path5480" d="M1181.31,653.508h4.243v4.11s-4.243.663-4.243-1.679v-2.431" fill="#ff7f00"></path><path id="path5482" d="M1352.19,673.04c-4.462-1.016-8.838-1.369-8.838-4.109,0-2.209,2.563-2.563,4.332-2.563,2.783,0,5.124.795,5.346,3.756h7.424c-.618-6.8-6.319-8.838-12.551-8.838a18.5,18.5,0,0,0-8.086,1.591l.266-.84h-8l-5.214,18.737h-.132l-4.861-18.737h-7.6l-4.728,18.781h-.089l-5.214-18.781h-8.265l.266.708a21.489,21.489,0,0,0-8.439-1.458,5.661,5.661,0,0,0-.884.044c-5.569.177-11,2.077-12.285,7.556V653.508h-7.822v14.8a11.206,11.206,0,0,0-10.3-7.026,13.491,13.491,0,0,0-2.695.266,9.774,9.774,0,0,0-6.231,3.844h-.133V653.508h-7.821v14.185c-2.386-4.021-6.85-6.408-12.55-6.408-8.926,0-14.715,5.79-14.715,14.626a16.34,16.34,0,0,0,1.016,5.834h-7.953c-6.408,0-6.32-3.005-6.32-5.436v-22.8h-7.866s.089,22.582,0,26.956c0,8.751,6.85,9.016,12.86,9.016H1217.5v-2.033a15.161,15.161,0,0,0,9.589,3.006c5.7,0,10.164-2.387,12.55-6.409V689.7h7.424v-3.535h.133c1.325,2.387,3.711,3.668,6.628,4.109a17.572,17.572,0,0,0,2.695.178,11.205,11.205,0,0,0,10.3-7.027V689.7h7.822v-3.182c1.635,2.651,4.86,3.934,8.573,3.934a17.752,17.752,0,0,0,3.712-.4A11.125,11.125,0,0,0,1292.8,687a10.792,10.792,0,0,0,.53,2.7h7.954c-.707-1.1-1.017-3.624-1.017-6.143v-8.309l4.729,14.451h8.087l4.861-18.561h.087l5.038,18.561h8.087l5.259-16.307c1.547,2.432,4.817,3.447,8.131,4.153,5.612,1.194,8.882,1.989,8.882,4.287,0,2.7-2.872,3.535-5.169,3.535-3.05,0-5.922-1.326-5.966-4.64h-7.424c.354,7.291,6.761,9.723,13.39,9.723,6.451,0,12.991-2.343,12.991-9.635,0-5.125-4.507-6.76-9.059-7.776Zm-125.1,11.666c-5.3,0-6.894-4.418-6.894-8.794,0-4.418,1.59-8.881,6.894-8.881,5.259,0,6.85,4.463,6.85,8.881C1233.938,680.288,1232.347,684.706,1227.089,684.706Zm26.779,0h-.044c-4.6,0-6.628-4.242-6.628-8.794,0-4.684,2.032-8.881,6.628-8.881h.044c4.6,0,6.629,4.2,6.629,8.881C1260.5,680.507,1258.464,684.706,1253.868,684.706Zm38.622-5.7c0,1.591-.221,5.922-5.567,6.318-.266,0-.53.045-.8.045-2.52,0-4.773-.706-4.773-3.535,0-2.783,2.21-3.579,4.6-4.064.309-.045.664-.089.973-.134,2.164-.309,4.419-.485,5.567-1.457v2.827Zm-5.567-5.7c-1.149.134-2.431.267-3.712.487-3.4.442-6.85,1.325-8.573,4.021v-7.248h7.6c.266-2.828,1.989-4.065,4.685-4.2h.485c2.739,0,5.082.53,5.082,3.756C1292.49,672.421,1290.1,672.908,1286.923,673.3Z" fill="#fff"></path></g></svg> 