<?xml version="1.0" encoding="UTF-8"?> <svg xmlns="http://www.w3.org/2000/svg" xmlns:xlink="http://www.w3.org/1999/xlink" version="1.1" id="Layer_1" x="0px" y="0px" viewBox="0 0 180 60" style="enable-background:new 0 0 180 60;" xml:space="preserve"> <style type="text/css"> .st0{fill:#FFFFFF;} </style> <g> <path class="st0" d="M177.5,23.7v-3.3h-8.8v16.8h8.8v-3.6h-4.9v-3.3h4.4v-3.1h-3.9v-3.6L177.5,23.7L177.5,23.7z M143.2,23.7v-3.3 h-8.8v16.8h8.8v-3.6h-4.9v-3.3h4.4v-3.1h-3.9v-3.6L143.2,23.7L143.2,23.7z M131.3,20.4H126l-2.2,8.4l-1.5-8.4h-5.6L114,37.2h4.1 l1.4-11.3l3.3,11.3h2.8l2.3-11.4l1.5,11.4h4.3L131.3,20.4z M110.7,20.4h-5.2l-2.2,8.4l-1.6-8.4h-5.6l-2.7,16.8h4.1L99,26l3.2,11.3 h2.9l2.3-11.4l1.4,11.4h4.3L110.7,20.4z M86.5,20.4c-3.9,0-7,3.8-7,8.4s3.1,8.4,7,8.4s7-3.8,7-8.4S90.4,20.4,86.5,20.4z M86.5,34.1 c-1.7,0-3-2.3-3-5.2c0-2.8,1.4-5.1,3-5.1c1.7,0,3,2.3,3,5.1C89.5,31.8,88.1,34.1,86.5,34.1z M162,25.4c0.4-0.4,1-0.8,1.5-1 c0.6-0.2,1.2-0.3,1.8-0.3h1.8v-3.6h-2.5c-2.1,0-4.1,0.9-5.6,2.4s-2.3,3.5-2.3,5.6c0,1.2,0.2,2.3,0.7,3.4c0.4,1.1,1.1,2.1,1.9,2.9 c0.8,0.8,1.8,1.5,2.9,1.9c1.1,0.4,2.2,0.7,3.4,0.7h1.6v-4.1h-1.9c-0.6,0-1.2-0.1-1.7-0.3s-1-0.5-1.4-1c-0.4-0.4-0.8-0.9-1-1.5 c-0.2-0.5-0.3-1.1-0.3-1.7s0.1-1.2,0.4-1.8C161.2,26.3,161.6,25.8,162,25.4z M75.9,33.1c-0.6,0-1.2-0.1-1.7-0.3s-1-0.5-1.4-1 c-0.4-0.4-0.8-0.9-1-1.5c-0.2-0.5-0.3-1.1-0.3-1.7s0.1-1.2,0.4-1.8c0.2-0.6,0.6-1.1,1-1.5s1-0.8,1.5-1c0.6-0.2,1.2-0.3,1.8-0.3H78 v-3.6h-2.4c-2.1,0-4.1,0.9-5.6,2.4s-2.3,3.5-2.3,5.6c0,1.2,0.2,2.3,0.7,3.4c0.4,1.1,1.1,2.1,1.9,2.9c0.8,0.8,1.8,1.5,2.9,1.9 s2.2,0.7,3.4,0.7h1.5v-4.1h-2.2V33.1z"></path> <path class="st0" d="M153.5,29.4c0.7,0,1.3-0.3,1.8-0.8s0.8-1.1,0.8-1.8v-1.5c0-1.3-0.5-2.5-1.4-3.5c-0.9-0.9-2.2-1.4-3.5-1.4h-6.4 v16.8h4v-7.9l4.3,7.9h4.4L153.5,29.4z M151.7,27.3c-0.4,0.4-0.9,0.6-1.5,0.7h-1.5v-4.1h1.6c0.3,0,0.5,0,0.8,0.1 c0.2,0.1,0.5,0.2,0.7,0.4c0.2,0.2,0.3,0.4,0.4,0.7c0.1,0.2,0.2,0.5,0.1,0.8C152.3,26.4,152.1,26.9,151.7,27.3z"></path> <path class="st0" d="M53.9,23.9c0.3,0.7,0.4,1.4,0.4,2.2c0,0.6,0,1.2-0.2,1.8c-0.2,1.4-0.9,2.6-1.8,3.5c-0.2,0.3-0.5,0.5-0.9,0.6 c-0.3,0.1-0.7,0.2-1.1,0.1c-0.6-0.1-1-0.6-1.4-1.6c-0.3-0.7-0.4-1.4-0.4-2.2c0-0.6,0-1.2,0.2-1.8c0.2-1,0.7-2,1.3-2.8 c0.8-1.2,1.6-1.6,2.5-1.5C53.1,22.5,53.6,23,53.9,23.9z"></path> <path class="st0" d="M39,23.9c-0.4-0.9-0.8-1.4-1.4-1.5c-0.9-0.2-1.7,0.3-2.5,1.5c-0.6,0.9-1,1.8-1.3,2.9c-0.1,0.6-0.2,1.2-0.2,1.7 c0,0.8,0.2,1.5,0.4,2.2c0.4,0.9,0.8,1.4,1.4,1.5c0.4,0,0.7,0,1.1-0.1c0.3-0.1,0.6-0.3,0.9-0.6c1-1,1.6-2.2,1.8-3.5l0,0 c0.1-0.6,0.2-1.2,0.2-1.8C39.4,25.3,39.2,24.6,39,23.9z M39,23.9c-0.4-0.9-0.8-1.4-1.4-1.5c-0.9-0.2-1.7,0.3-2.5,1.5 c-0.6,0.9-1,1.8-1.3,2.9c-0.1,0.6-0.2,1.2-0.2,1.7c0,0.8,0.2,1.5,0.4,2.2c0.4,0.9,0.8,1.4,1.4,1.5c0.4,0,0.7,0,1.1-0.1 c0.3-0.1,0.6-0.3,0.9-0.6c1-1,1.6-2.2,1.8-3.5l0,0c0.1-0.6,0.2-1.2,0.2-1.8C39.4,25.3,39.2,24.6,39,23.9z M59.7,14.1 c-1-1-2.4-1.6-3.9-1.6H8c-0.7,0-1.4,0.1-2.1,0.4c-0.7,0.3-1.3,0.7-1.8,1.2s-0.9,1.1-1.2,1.8c-0.3,0.7-0.4,1.4-0.4,2.1v18.3 c0,1.5,0.6,2.8,1.6,3.9c1,1,2.4,1.6,3.9,1.6h22.7L41,47.5l-2.4-5.8h17.2c1.5,0,2.8-0.6,3.9-1.6c1-1,1.6-2.4,1.6-3.9V18 C61.3,16.5,60.7,15.1,59.7,14.1z M26.9,36.5c0.1,0.5,0,1.1-0.3,1.6c-0.1,0.2-0.3,0.5-0.5,0.6s-0.5,0.2-0.8,0.3 c-0.4,0-0.7-0.1-1-0.2c-0.3-0.2-0.6-0.4-0.8-0.7c-2.2-2.3-4-5.7-5.3-10.2c-1.6,3.1-2.7,5.3-3.4,6.9c-1.4,2.7-2.6,4.1-3.6,4.2 c-0.7,0-1.2-0.5-1.7-1.7C8.3,34.2,7,28.1,5.6,19.2c-0.1-0.3,0-0.6,0-0.8c0.1-0.3,0.2-0.5,0.4-0.8c0-0.3,0.2-0.5,0.5-0.6 s0.5-0.2,0.8-0.2s0.5,0,0.8,0s0.5,0.2,0.7,0.3c0.2,0.2,0.4,0.4,0.5,0.6s0.2,0.5,0.2,0.8c0.8,5,1.5,9.2,2.4,12.7l5.2-10 c0.1-0.4,0.4-0.7,0.7-1c0.3-0.2,0.7-0.4,1.1-0.5c1-0.1,1.7,0.6,2,2c0.5,2.8,1.2,5.5,2.3,8.2c0.6-6.1,1.7-10.5,3.2-13.1 c0.1-0.3,0.4-0.6,0.6-0.8c0.3-0.2,0.6-0.3,0.9-0.3c0.5,0,1.1,0.1,1.5,0.5c0.2,0.2,0.4,0.4,0.5,0.6s0.2,0.5,0.2,0.8 c0,0.4-0.1,0.8-0.2,1.1c-0.9,1.7-1.7,4.6-2.3,8.6C27,30.4,26.8,33.4,26.9,36.5z M41.5,32.7c-1.4,2.4-3.3,3.6-5.6,3.6 c-0.4,0-0.9,0-1.3-0.2c-0.8-0.1-1.6-0.5-2.2-0.9c-0.7-0.5-1.2-1.1-1.6-1.8c-0.8-1.5-1.2-3.1-1.1-4.7c0-2.4,0.6-4.7,1.9-6.7 c1.4-2.4,3.3-3.6,5.6-3.6c0.4,0,0.9,0,1.3,0.1c0.8,0.2,1.6,0.5,2.2,1c0.7,0.5,1.2,1.1,1.6,1.8c0.8,1.4,1.2,3.1,1.2,4.7 C43.4,28.3,42.8,30.7,41.5,32.7z M56.5,32.7c-1.4,2.4-3.3,3.6-5.6,3.6c-0.4,0-0.9,0-1.3-0.2c-0.8-0.1-1.6-0.5-2.2-0.9 c-0.7-0.5-1.2-1.1-1.6-1.8c-0.8-1.5-1.2-3.1-1.2-4.7c0-2.4,0.6-4.7,1.9-6.7c1.5-2.4,3.3-3.6,5.6-3.6c0.4,0,0.9,0,1.3,0.1 c0.8,0.2,1.6,0.5,2.2,1c0.7,0.5,1.2,1.1,1.6,1.8l0,0c0.8,1.4,1.2,3.1,1.1,4.7C58.4,28.3,57.7,30.7,56.5,32.7z M37.5,22.4 c-0.9-0.2-1.7,0.3-2.5,1.5c-0.6,0.9-1,1.8-1.3,2.9c-0.1,0.6-0.2,1.2-0.2,1.7c0,0.8,0.2,1.5,0.4,2.2c0.4,0.9,0.8,1.4,1.4,1.5 c0.4,0,0.7,0,1.1-0.1c0.3-0.1,0.6-0.3,0.9-0.6c1-1,1.6-2.2,1.8-3.5l0,0c0.1-0.6,0.2-1.2,0.2-1.8c0-0.7-0.2-1.5-0.4-2.2 C38.6,23,38.1,22.5,37.5,22.4z"></path> </g> </svg> 