<?xml version="1.0" encoding="UTF-8"?> <svg xmlns="http://www.w3.org/2000/svg" xmlns:xlink="http://www.w3.org/1999/xlink" version="1.1" id="Layer_1" x="0px" y="0px" viewBox="0 0 597.5 214" style="enable-background:new 0 0 597.5 214;" xml:space="preserve"> <style type="text/css"> .st0{fill:#FFFFFF;} .st1{fill:#C9CEE4;} </style> <g> <path class="st0" d="M63.9,64.9l12.5,4.5c-1.9,7.8-5.1,13.6-9.6,17.4s-10.1,5.7-17,5.7c-8.5,0-15.4-3.3-20.9-9.8S20.7,67.3,20.7,56 c0-11.9,2.7-21.2,8.2-27.8s12.7-9.9,21.6-9.9c7.8,0,14.2,2.6,19,7.8c2.9,3.1,5.1,7.5,6.5,13.2l-12.8,3.4c-0.8-3.7-2.3-6.7-4.7-8.8 s-5.3-3.2-8.7-3.2c-4.7,0-8.6,1.9-11.5,5.7c-2.9,3.8-4.4,10-4.4,18.5c0,9.1,1.5,15.5,4.4,19.4c2.9,3.8,6.7,5.8,11.3,5.8 c3.4,0,6.4-1.2,8.8-3.7C61.1,74,62.8,70.1,63.9,64.9z"></path> <path class="st0" d="M145.1,91.2h-14l-5.6-16.3H99.9l-5.3,16.3H81l24.9-71.7h13.6L145.1,91.2z M121.3,62.9l-8.8-26.6l-8.6,26.6 H121.3z"></path> <path class="st1" d="M209.5,91.2h-14l-5.6-16.3h-25.5l-5.3,16.3h-13.7l24.9-71.7h13.6L209.5,91.2z M185.7,62.9l-8.8-26.6l-8.6,26.6 H185.7z"></path> <path class="st1" d="M216.1,91.2V19.5h19.3L247,68.4l11.5-48.9h19.3v71.7h-12V34.8l-12.7,56.4h-12.4l-12.6-56.4v56.4H216.1z"></path> <path class="st1" d="M290.6,93V21.3h20.7c7.8,0,13,0.4,15.3,1.1c3.7,1.1,6.7,3.4,9.2,7s3.7,8.3,3.7,14c0,4.4-0.7,8.1-2.1,11.1 s-3.2,5.4-5.4,7.1c-2.2,1.7-4.4,2.8-6.7,3.4c-3.1,0.7-7.5,1-13.4,1h-8.4v27H290.6z M303.5,33.4v20.3h7.1c5.1,0,8.5-0.4,10.2-1.1 c1.7-0.7,3.1-1.9,4-3.5c1-1.6,1.5-3.5,1.5-5.6c0-2.6-0.7-4.8-2-6.5c-1.4-1.7-3.1-2.8-5.2-3.2c-1.5-0.3-4.6-0.5-9.3-0.5L303.5,33.4 L303.5,33.4z"></path> <path class="st0" d="M80.6,194.5h-14L61,178.2H35.5l-5.3,16.3H16.6l24.9-71.7h13.6L80.6,194.5z M56.9,166.1l-8.8-26.6l-8.6,26.6 H56.9z"></path> <path class="st0" d="M128.3,168.1l12.5,4.5c-1.9,7.8-5.1,13.6-9.6,17.4c-4.5,3.8-10.1,5.7-17,5.7c-8.5,0-15.4-3.3-20.9-9.8 s-8.2-15.4-8.2-26.7c0-11.9,2.7-21.2,8.2-27.8c5.5-6.6,12.7-9.9,21.6-9.9c7.8,0,14.2,2.6,19,7.8c2.9,3.1,5.1,7.5,6.5,13.2 l-12.8,3.4c-0.8-3.7-2.3-6.7-4.7-8.8c-2.4-2.2-5.3-3.2-8.7-3.2c-4.7,0-8.6,1.9-11.5,5.7s-4.4,10-4.4,18.5c0,9.1,1.5,15.5,4.4,19.4 c2.9,3.8,6.7,5.8,11.3,5.8c3.4,0,6.4-1.2,8.8-3.7C125.5,177.2,127.3,173.4,128.3,168.1z"></path> <path class="st1" d="M192.8,168.1l12.5,4.5c-1.9,7.8-5.1,13.6-9.6,17.4c-4.5,3.8-10.1,5.7-17,5.7c-8.5,0-15.4-3.3-20.9-9.8 s-8.2-15.4-8.2-26.7c0-11.9,2.7-21.2,8.2-27.8c5.5-6.6,12.7-9.9,21.6-9.9c7.8,0,14.2,2.6,19,7.8c2.9,3.1,5.1,7.5,6.5,13.2 l-12.8,3.4c-0.8-3.7-2.3-6.7-4.7-8.8s-5.3-3.2-8.7-3.2c-4.7,0-8.6,1.9-11.5,5.7s-4.4,10-4.4,18.5c0,9.1,1.5,15.5,4.4,19.4 c2.9,3.8,6.7,5.8,11.3,5.8c3.4,0,6.4-1.2,8.8-3.7C189.9,177.2,191.7,173.4,192.8,168.1z"></path> <path class="st1" d="M216.4,194.5v-71.7h12.9V151h25.3v-28.2h12.9v71.7h-12.9v-31.3h-25.3v31.3H216.4z"></path> <path class="st1" d="M338.3,194.5h-14l-5.6-16.3h-25.5l-5.3,16.3h-13.7l24.9-71.7h13.6L338.3,194.5z M314.6,166.1l-8.8-26.6 l-8.6,26.6H314.6z"></path> </g> <g> <polygon class="st1" points="394,201.4 394,160.8 468.5,160.8 "></polygon> <polygon class="st1" points="516.2,160.3 492,182.9 492,94 516.2,71.4 "></polygon> <polygon class="st0" points="580.9,52.6 580.9,160.9 515.5,160.9 515.5,73.1 468.5,73.1 468.5,160.9 394,160.9 394,52.6 487.4,12.6 "></polygon> <polygon class="st1" points="580.9,201.4 492,201.4 492,182.4 515.5,160.9 580.9,160.9 "></polygon> </g> </svg> 