<?xml version="1.0" encoding="UTF-8"?> <svg xmlns="http://www.w3.org/2000/svg" width="174" height="40" viewBox="0 0 174 40" fill="none"><path d="M51.3602 23.2147C50.9922 22.6995 50.5071 22.279 49.9449 21.9878C49.3826 21.6966 48.7593 21.5431 48.1262 21.5397C46.9218 21.583 45.7812 22.0919 44.9445 22.9592C44.1078 23.8265 43.6402 24.9846 43.6402 26.1897C43.6402 27.3949 44.1078 28.553 44.9445 29.4203C45.7812 30.2876 46.9218 30.7965 48.1262 30.8397C49.1886 30.838 50.2181 30.4712 51.0422 29.8007C51.0783 29.7613 51.0989 29.7101 51.1002 29.6567V28.2127C51.0971 28.1679 51.0779 28.1256 51.0461 28.0938C51.0143 28.062 50.9721 28.0428 50.9272 28.0397H47.6062C47.5757 28.0401 47.5455 28.0344 47.5173 28.023C47.4891 28.0115 47.4635 27.9945 47.4419 27.973C47.4204 27.9514 47.4034 27.9258 47.3919 27.8976C47.3805 27.8694 47.3748 27.8392 47.3752 27.8087V25.6437C47.3748 25.6133 47.3805 25.5831 47.3919 25.5548C47.4034 25.5266 47.4204 25.501 47.4419 25.4795C47.4635 25.458 47.4891 25.4409 47.5173 25.4295C47.5455 25.418 47.5757 25.4123 47.6062 25.4127H53.5822V22.2127L51.6462 23.2727C51.5912 23.3307 51.4462 23.3017 51.3602 23.2147ZM23.3552 24.7147H26.9062C27.1139 24.7413 27.3249 24.7229 27.5249 24.6607C27.7249 24.5986 27.9092 24.4942 28.0653 24.3546C28.2214 24.215 28.3456 24.0434 28.4296 23.8516C28.5137 23.6598 28.5554 23.4521 28.5522 23.2427C28.553 23.0341 28.5096 22.8276 28.4247 22.6369C28.3399 22.4463 28.2156 22.2758 28.0601 22.1367C27.9046 21.9976 27.7213 21.893 27.5224 21.83C27.3235 21.7669 27.1135 21.7467 26.9062 21.7707H23.3552C23.3247 21.7703 23.2945 21.776 23.2663 21.7875C23.2381 21.7989 23.2125 21.816 23.1909 21.8375C23.1694 21.859 23.1524 21.8846 23.1409 21.9128C23.1295 21.9411 23.1238 21.9713 23.1242 22.0017V24.5427C23.14 24.592 23.1707 24.6352 23.2121 24.6663C23.2535 24.6975 23.3034 24.7151 23.3552 24.7167V24.7147ZM37.8192 33.0587C37.8192 33.1118 37.7981 33.1626 37.7606 33.2001C37.7231 33.2376 37.6722 33.2587 37.6192 33.2587H34.9902C34.9371 33.2587 34.8863 33.2376 34.8488 33.2001C34.8112 33.1626 34.7902 33.1118 34.7902 33.0587V19.2847C34.7902 19.2317 34.8112 19.1808 34.8488 19.1433C34.8863 19.1058 34.9371 19.0847 34.9902 19.0847H37.6172C37.6702 19.0847 37.7211 19.1058 37.7586 19.1433C37.7961 19.1808 37.8172 19.2317 37.8172 19.2847L37.8192 33.0587ZM52.8612 0.084725L26.9062 19.0847H27.5702C30.2552 19.0847 31.6412 20.8167 31.6412 22.6937C31.6679 23.3179 31.5131 23.9365 31.1953 24.4745C30.8776 25.0125 30.4107 25.4468 29.8512 25.7247C29.8135 25.7429 29.7818 25.7713 29.7595 25.8066C29.7373 25.842 29.7255 25.8829 29.7255 25.9247C29.7255 25.9665 29.7373 26.0074 29.7595 26.0428C29.7818 26.0782 29.8135 26.1066 29.8512 26.1247C30.4797 26.4096 31.0097 26.8741 31.3746 27.4598C31.7394 28.0455 31.9226 28.726 31.9012 29.4157C31.9012 31.5517 30.5152 33.2557 27.8012 33.2557H20.3522C20.3217 33.2561 20.2915 33.2504 20.2633 33.239C20.2351 33.2275 20.2095 33.2105 20.1879 33.189C20.1664 33.1674 20.1494 33.1418 20.1379 33.1136C20.1265 33.0854 20.1208 33.0552 20.1212 33.0247V24.0457L0.864176 38.1417C0.783302 38.2023 0.723556 38.2868 0.693413 38.3832C0.663269 38.4797 0.66426 38.5831 0.696245 38.679C0.72823 38.7748 0.789583 38.8582 0.871601 38.9172C0.953619 38.9762 1.05214 39.0079 1.15318 39.0077H53.1212C53.1821 39.0085 53.2425 38.9972 53.2989 38.9742C53.3553 38.9513 53.4066 38.9173 53.4497 38.8742C53.4927 38.8312 53.5267 38.7799 53.5496 38.7235C53.5726 38.6671 53.584 38.6066 53.5832 38.5457V31.4147C52.1061 32.798 50.1496 33.5538 48.1262 33.5227C47.147 33.5483 46.1726 33.3775 45.2605 33.0205C44.3484 32.6634 43.5171 32.1273 42.8155 31.4438C42.1139 30.7603 41.5563 29.9432 41.1756 29.0408C40.7948 28.1383 40.5987 27.1687 40.5987 26.1892C40.5987 25.2097 40.7948 24.2402 41.1756 23.3377C41.5563 22.4352 42.1139 21.6181 42.8155 20.9346C43.5171 20.2511 44.3484 19.715 45.2605 19.358C46.1726 19.0009 47.147 18.8302 48.1262 18.8557C49.1801 18.8215 50.2267 19.0425 51.1769 19.4999C52.127 19.9573 52.9525 20.6376 53.5832 21.4827V0.493737C53.59 0.406896 53.5719 0.319917 53.531 0.243004C53.4901 0.166092 53.4281 0.102436 53.3523 0.0595023C53.2765 0.0165684 53.1901 -0.00386611 53.1031 0.000603339C53.0161 0.00507279 52.9322 0.0342498 52.8612 0.084725ZM23.3552 30.6067H27.0222C27.2501 30.6393 27.4823 30.6214 27.7025 30.5542C27.9227 30.487 28.1254 30.3722 28.2962 30.2178C28.4671 30.0635 28.6018 29.8735 28.691 29.6613C28.7802 29.449 28.8215 29.2197 28.8122 28.9897C28.8143 28.7618 28.768 28.536 28.6764 28.3272C28.5848 28.1185 28.45 27.9315 28.2808 27.7787C28.1117 27.6258 27.912 27.5107 27.695 27.4407C27.4781 27.3707 27.2487 27.3475 27.0222 27.3727H23.3552C23.3247 27.3723 23.2945 27.378 23.2663 27.3895C23.2381 27.401 23.2125 27.418 23.1909 27.4395C23.1694 27.461 23.1524 27.4867 23.1409 27.5149C23.1295 27.5431 23.1238 27.5733 23.1242 27.6037V30.3757C23.1532 30.5197 23.2392 30.6067 23.3552 30.6067ZM68.6832 30.1737L67.0662 29.3367C67.042 29.3215 67.0148 29.3116 66.9864 29.3077C66.9581 29.3039 66.9293 29.3062 66.9019 29.3144C66.8745 29.3226 66.8492 29.3367 66.8277 29.3555C66.8061 29.3744 66.7889 29.3977 66.7772 29.4237C66.4177 29.9826 65.9276 30.4455 65.3492 30.7726C64.7707 31.0996 64.1214 31.2809 63.4572 31.3007C60.7462 31.2987 58.7462 29.1337 58.7462 26.1847C58.7462 23.1847 60.7382 21.0747 63.4522 21.0747C64.1184 21.0849 64.7714 21.2621 65.3514 21.59C65.9315 21.918 66.42 22.3861 66.7722 22.9517C66.7847 22.9772 66.8023 22.9997 66.8239 23.018C66.8455 23.0364 66.8706 23.05 66.8977 23.0582C66.9248 23.0664 66.9534 23.0688 66.9815 23.0655C67.0096 23.0621 67.0367 23.053 67.0612 23.0387L68.6782 22.1727C68.7077 22.1568 68.7336 22.1349 68.7542 22.1084C68.7747 22.0819 68.7896 22.0514 68.7978 22.0189C68.806 21.9863 68.8073 21.9525 68.8017 21.9194C68.7961 21.8863 68.7836 21.8547 68.7652 21.8267C68.2172 20.9052 67.4334 20.1465 66.4946 19.6289C65.5558 19.1112 64.4959 18.8533 63.4242 18.8817C61.5049 18.9205 59.6773 19.7102 58.3337 21.0813C56.9901 22.4524 56.2375 24.2955 56.2375 26.2152C56.2375 28.1349 56.9901 29.9781 58.3337 31.3492C59.6773 32.7202 61.5049 33.5099 63.4242 33.5487C64.4966 33.5623 65.5538 33.2949 66.4908 32.7731C67.4278 32.2514 68.2119 31.4935 68.7652 30.5747C68.8562 30.4037 68.8272 30.2307 68.6822 30.1727L68.6832 30.1737ZM77.1422 31.2997C74.3702 31.2997 72.6092 29.1057 72.6092 26.1897C72.6092 23.2737 74.3702 21.0797 77.1422 21.0797C79.8852 21.0797 81.6752 23.2737 81.6752 26.1897C81.6742 29.0757 79.8842 31.2987 77.1462 31.2987L77.1422 31.2997ZM75.2072 19.0847C73.6892 19.5185 72.3632 20.4541 71.4456 21.7387C70.5281 23.0234 70.0732 24.5812 70.1552 26.1577C70.1552 30.3727 73.0422 33.4907 77.1422 33.4907C78.7548 33.5231 80.3263 32.9802 81.5749 31.9591C82.8236 30.9381 83.6678 29.5057 83.9562 27.9187C85.0522 22.5507 80.3462 17.7297 75.2072 19.0847ZM101.107 19.0847H97.9892C97.9228 19.085 97.8578 19.1039 97.8016 19.1392C97.7453 19.1746 97.7002 19.225 97.6712 19.2847L93.9182 29.0147L90.1362 19.2847C90.1072 19.225 90.062 19.1746 90.0058 19.1392C89.9496 19.1039 89.8846 19.085 89.8182 19.0847H86.7002C86.6553 19.0878 86.613 19.107 86.5812 19.1388C86.5494 19.1706 86.5302 19.2128 86.5272 19.2577V33.0847C86.5302 33.1296 86.5494 33.1719 86.5812 33.2037C86.613 33.2355 86.6553 33.2547 86.7002 33.2577H88.8362C88.8811 33.2547 88.9233 33.2355 88.9551 33.2037C88.9869 33.1719 89.0061 33.1296 89.0092 33.0847V22.3197L93.3402 33.1757C93.3692 33.2337 93.3982 33.2627 93.4552 33.2627H94.3552C94.4132 33.2627 94.4422 33.2337 94.4702 33.1757L98.7702 22.3197V33.0847C98.7732 33.1296 98.7924 33.1719 98.8242 33.2037C98.856 33.2355 98.8983 33.2547 98.9432 33.2577H101.079C101.124 33.2547 101.166 33.2355 101.198 33.2037C101.23 33.1719 101.249 33.1296 101.252 33.0847V19.2597C101.257 19.2382 101.256 19.2159 101.251 19.1945C101.246 19.1731 101.236 19.1533 101.221 19.1364C101.207 19.1195 101.189 19.1061 101.169 19.0971C101.149 19.0882 101.127 19.0839 101.105 19.0847H101.107ZM132.836 19.0847H123.655C123.621 19.0846 123.587 19.0912 123.556 19.1043C123.524 19.1173 123.495 19.1364 123.471 19.1606C123.447 19.1848 123.428 19.2135 123.415 19.2451C123.402 19.2767 123.395 19.3106 123.395 19.3447V33.0007C123.395 33.0349 123.402 33.0688 123.415 33.1004C123.428 33.132 123.447 33.1607 123.471 33.1849C123.495 33.2091 123.524 33.2282 123.556 33.2412C123.587 33.2542 123.621 33.2609 123.655 33.2607H132.836C132.87 33.2609 132.904 33.2542 132.936 33.2412C132.967 33.2282 132.996 33.2091 133.02 33.1849C133.044 33.1607 133.064 33.132 133.077 33.1004C133.09 33.0688 133.096 33.0349 133.096 33.0007V31.3267C133.096 31.2925 133.09 31.2587 133.077 31.2271C133.064 31.1955 133.044 31.1668 133.02 31.1426C132.996 31.1184 132.967 31.0993 132.936 31.0863C132.904 31.0732 132.87 31.0666 132.836 31.0667H126.136C126.102 31.0669 126.068 31.0602 126.037 31.0472C126.005 31.0342 125.976 31.0151 125.952 30.9909C125.928 30.9667 125.909 30.938 125.896 30.9064C125.883 30.8748 125.876 30.8409 125.876 30.8067V27.3707C125.876 27.3366 125.883 27.3027 125.896 27.2711C125.909 27.2395 125.928 27.2108 125.952 27.1866C125.976 27.1624 126.005 27.1433 126.037 27.1303C126.068 27.1172 126.102 27.1106 126.136 27.1107H132.69C132.724 27.1109 132.758 27.1042 132.79 27.0912C132.821 27.0782 132.85 27.059 132.874 27.0349C132.898 27.0107 132.918 26.982 132.931 26.9504C132.944 26.9188 132.95 26.8849 132.95 26.8507V25.1757C132.95 25.1415 132.944 25.1077 132.931 25.0761C132.918 25.0445 132.898 25.0158 132.874 24.9916C132.85 24.9674 132.821 24.9483 132.79 24.9352C132.758 24.9222 132.724 24.9156 132.69 24.9157H126.136C126.102 24.9158 126.068 24.9092 126.037 24.8962C126.005 24.8832 125.976 24.8641 125.952 24.8399C125.928 24.8157 125.909 24.787 125.896 24.7554C125.883 24.7238 125.876 24.6899 125.876 24.6557V21.5087C125.876 21.4746 125.883 21.4407 125.896 21.4091C125.909 21.3775 125.928 21.3488 125.952 21.3246C125.976 21.3004 126.005 21.2813 126.037 21.2683C126.068 21.2552 126.102 21.2486 126.136 21.2487H132.836C132.87 21.2489 132.904 21.2422 132.936 21.2292C132.967 21.2162 132.996 21.197 133.02 21.1729C133.044 21.1487 133.064 21.12 133.077 21.0884C133.09 21.0568 133.096 21.0229 133.096 20.9887V19.3137C133.09 19.2495 133.059 19.1901 133.01 19.1476C132.962 19.1051 132.899 19.0826 132.834 19.0847H132.836ZM142.508 25.7847H139.361C139.327 25.7849 139.293 25.7782 139.262 25.7652C139.23 25.7522 139.201 25.733 139.177 25.7089C139.153 25.6847 139.134 25.656 139.121 25.6244C139.108 25.5928 139.101 25.5589 139.101 25.5247V21.5407C139.101 21.5065 139.108 21.4727 139.121 21.4411C139.134 21.4095 139.153 21.3807 139.177 21.3566C139.201 21.3324 139.23 21.3133 139.262 21.3002C139.293 21.2872 139.327 21.2806 139.361 21.2807H142.508C142.82 21.2545 143.133 21.2931 143.429 21.3942C143.725 21.4954 143.996 21.6568 144.226 21.8683C144.456 22.0798 144.64 22.3367 144.766 22.6229C144.891 22.9091 144.956 23.2182 144.956 23.5307C144.956 23.8433 144.891 24.1524 144.766 24.4385C144.64 24.7247 144.456 24.9817 144.226 25.1932C143.996 25.4046 143.725 25.5661 143.429 25.6672C143.133 25.7684 142.82 25.807 142.508 25.7807V25.7847ZM144.471 27.6037C145.37 27.3767 146.162 26.8428 146.71 26.0943C147.258 25.3458 147.527 24.4296 147.471 23.5037C147.492 22.897 147.384 22.2927 147.155 21.7305C146.925 21.1683 146.58 20.6608 146.142 20.2412C145.703 19.8215 145.181 19.4992 144.609 19.2952C144.037 19.0913 143.428 19.0104 142.823 19.0577H136.876C136.842 19.0576 136.808 19.0642 136.777 19.0772C136.745 19.0903 136.716 19.1094 136.692 19.1336C136.668 19.1578 136.649 19.1865 136.636 19.2181C136.623 19.2497 136.616 19.2835 136.616 19.3177V32.9737C136.616 33.0079 136.623 33.0418 136.636 33.0734C136.649 33.105 136.668 33.1337 136.692 33.1579C136.716 33.182 136.745 33.2012 136.777 33.2142C136.808 33.2272 136.842 33.2339 136.876 33.2337H138.839C138.873 33.2339 138.907 33.2272 138.939 33.2142C138.97 33.2012 138.999 33.182 139.023 33.1579C139.047 33.1337 139.067 33.105 139.08 33.0734C139.093 33.0418 139.099 33.0079 139.099 32.9737V28.2097C139.099 28.1755 139.106 28.1417 139.119 28.1101C139.132 28.0785 139.151 28.0498 139.175 28.0256C139.199 28.0014 139.228 27.9823 139.26 27.9692C139.291 27.9562 139.325 27.9496 139.359 27.9497H141.438C141.527 27.9578 141.609 27.9989 141.669 28.0647L144.646 33.0847C144.669 33.1246 144.703 33.1569 144.744 33.1775C144.785 33.1982 144.832 33.2062 144.877 33.2007H147.158C147.202 33.2014 147.245 33.1899 147.283 33.1676C147.321 33.1453 147.352 33.113 147.373 33.0742C147.393 33.0355 147.403 32.9918 147.4 32.948C147.398 32.9041 147.383 32.8618 147.358 32.8257C146.694 31.7867 144.904 28.8997 144.327 27.9467C144.209 27.8347 144.296 27.6617 144.469 27.6037H144.471ZM166.962 21.2807H173.662C173.696 21.2809 173.73 21.2742 173.762 21.2612C173.793 21.2482 173.822 21.229 173.846 21.2049C173.87 21.1807 173.89 21.152 173.903 21.1204C173.916 21.0888 173.922 21.0549 173.922 21.0207V19.3457C173.922 19.3116 173.916 19.2777 173.903 19.2461C173.89 19.2145 173.87 19.1858 173.846 19.1616C173.822 19.1374 173.793 19.1183 173.762 19.1053C173.73 19.0922 173.696 19.0856 173.662 19.0857H164.481C164.447 19.0856 164.413 19.0922 164.382 19.1053C164.35 19.1183 164.321 19.1374 164.297 19.1616C164.273 19.1858 164.254 19.2145 164.241 19.2461C164.228 19.2777 164.221 19.3116 164.221 19.3457V33.0017C164.221 33.0359 164.228 33.0698 164.241 33.1014C164.254 33.133 164.273 33.1617 164.297 33.1859C164.321 33.21 164.35 33.2292 164.382 33.2422C164.413 33.2552 164.447 33.2619 164.481 33.2617H173.662C173.696 33.2619 173.73 33.2552 173.762 33.2422C173.793 33.2292 173.822 33.21 173.846 33.1859C173.87 33.1617 173.89 33.133 173.903 33.1014C173.916 33.0698 173.922 33.0359 173.922 33.0017V31.3267C173.922 31.2925 173.916 31.2587 173.903 31.2271C173.89 31.1955 173.87 31.1668 173.846 31.1426C173.822 31.1184 173.793 31.0993 173.762 31.0863C173.73 31.0732 173.696 31.0666 173.662 31.0667H166.962C166.928 31.0669 166.894 31.0602 166.863 31.0472C166.831 31.0342 166.802 31.0151 166.778 30.9909C166.754 30.9667 166.735 30.938 166.722 30.9064C166.709 30.8748 166.702 30.8409 166.702 30.8067V27.3707C166.702 27.3366 166.709 27.3027 166.722 27.2711C166.735 27.2395 166.754 27.2108 166.778 27.1866C166.802 27.1624 166.831 27.1433 166.863 27.1303C166.894 27.1172 166.928 27.1106 166.962 27.1107H173.516C173.55 27.1109 173.584 27.1042 173.616 27.0912C173.647 27.0782 173.676 27.059 173.7 27.0349C173.724 27.0107 173.744 26.982 173.757 26.9504C173.77 26.9188 173.776 26.8849 173.776 26.8507V25.1757C173.776 25.1415 173.77 25.1077 173.757 25.0761C173.744 25.0445 173.724 25.0158 173.7 24.9916C173.676 24.9674 173.647 24.9483 173.616 24.9352C173.584 24.9222 173.55 24.9156 173.516 24.9157H166.962C166.928 24.9158 166.894 24.9092 166.863 24.8962C166.831 24.8832 166.802 24.8641 166.778 24.8399C166.754 24.8157 166.735 24.787 166.722 24.7554C166.709 24.7238 166.702 24.6899 166.702 24.6557V21.5087C166.71 21.4461 166.74 21.3885 166.788 21.3471C166.836 21.3058 166.897 21.2835 166.96 21.2847L166.962 21.2807ZM161.707 30.1157L160.09 29.2787C160.066 29.2635 160.039 29.2536 160.01 29.2497C159.982 29.2459 159.953 29.2482 159.926 29.2564C159.898 29.2647 159.873 29.2787 159.852 29.2975C159.83 29.3164 159.813 29.3397 159.801 29.3657C159.442 29.9246 158.952 30.3875 158.373 30.7145C157.795 31.0416 157.145 31.2229 156.481 31.2427C153.767 31.2427 151.775 29.0777 151.775 26.1327C151.775 23.1327 153.767 21.0227 156.481 21.0227C157.147 21.0329 157.8 21.2101 158.38 21.538C158.96 21.866 159.449 22.3341 159.801 22.8997C159.814 22.9252 159.831 22.9477 159.853 22.966C159.874 22.9844 159.9 22.998 159.927 23.0062C159.954 23.0144 159.982 23.0168 160.01 23.0135C160.039 23.0101 160.066 23.001 160.09 22.9867L161.707 22.1207C161.737 22.1048 161.763 22.0829 161.783 22.0564C161.804 22.0299 161.819 21.9994 161.827 21.9669C161.835 21.9343 161.836 21.9005 161.831 21.8674C161.825 21.8343 161.813 21.8027 161.794 21.7747C161.246 20.8532 160.462 20.0945 159.524 19.5769C158.585 19.0592 157.525 18.8013 156.453 18.8297C154.534 18.8685 152.706 19.6582 151.363 21.0293C150.019 22.4004 149.267 24.2435 149.267 26.1632C149.267 28.0829 150.019 29.9261 151.363 31.2972C152.706 32.6682 154.534 33.4579 156.453 33.4967C157.526 33.5103 158.583 33.2429 159.52 32.7211C160.457 32.1994 161.241 31.4415 161.794 30.5227C161.835 30.4566 161.848 30.3772 161.832 30.3013C161.815 30.2254 161.77 30.1588 161.705 30.1157H161.707ZM119.438 19.0847H116.32C116.254 19.085 116.189 19.1039 116.133 19.1392C116.076 19.1746 116.031 19.225 116.002 19.2847L112.249 29.0147L108.467 19.2847C108.438 19.225 108.393 19.1746 108.337 19.1392C108.281 19.1039 108.216 19.085 108.149 19.0847H105.031C104.986 19.0878 104.944 19.107 104.912 19.1388C104.88 19.1706 104.861 19.2128 104.858 19.2577V33.0847C104.861 33.1296 104.88 33.1719 104.912 33.2037C104.944 33.2355 104.986 33.2547 105.031 33.2577H107.167C107.212 33.2547 107.254 33.2355 107.286 33.2037C107.318 33.1719 107.337 33.1296 107.34 33.0847V22.3197L111.671 33.1757C111.7 33.2337 111.729 33.2627 111.786 33.2627H112.681C112.739 33.2627 112.768 33.2337 112.796 33.1757L117.096 22.3197V33.0847C117.099 33.1296 117.118 33.1719 117.15 33.2037C117.182 33.2355 117.224 33.2547 117.269 33.2577H119.405C119.45 33.2547 119.492 33.2355 119.524 33.2037C119.556 33.1719 119.575 33.1296 119.578 33.0847V19.2597C119.582 19.2182 119.569 19.1767 119.543 19.1441C119.517 19.1115 119.48 19.0902 119.438 19.0847Z" fill="#34313F"></path></svg> 