<?xml version="1.0" encoding="UTF-8"?> <svg xmlns="http://www.w3.org/2000/svg" xmlns:xlink="http://www.w3.org/1999/xlink" width="300" height="108" viewBox="0 0 300 108"><defs><clipPath id="clip-logo-wifi-white"><rect width="300" height="108"></rect></clipPath></defs><g id="logo-wifi-white" clip-path="url(#clip-logo-wifi-white)"><rect width="300" height="108" fill="rgba(0,0,0,0)"></rect><path id="ecf4886e2849827cf35beec5e23a9f8a" d="M125.423,33.245a4.536,4.536,0,0,0,0,9.068h.009a4.536,4.536,0,0,0,0-9.068Zm-4.534,31.734V65.1a4.534,4.534,0,1,0,9.068,0V49.737a4.534,4.534,0,1,0-9.068,0V64.979ZM110.314,33.245a4.536,4.536,0,0,1,0,9.068H93.689v6.045h10.575a4.536,4.536,0,0,1,0,9.068H93.685v7.681a4.534,4.534,0,1,1-9.068,0V37.758a4.513,4.513,0,0,1,4.513-4.513h21.184Zm34.752,9.064V60.441a24.179,24.179,0,0,1-24.177,24.177h-9.068a51.63,51.63,0,0,1-78.517.068l-.06-.068H24.176A24.179,24.179,0,0,1,0,60.441V42.309A24.179,24.179,0,0,1,24.176,18.132h9.068a51.63,51.63,0,0,1,78.517-.069l.06.069h9.068a24.179,24.179,0,0,1,24.177,24.177ZM61.956,33.245a4.536,4.536,0,0,0,0,9.068h0a4.536,4.536,0,0,0,0-9.068h-.009ZM57.422,64.979a4.536,4.536,0,0,0,9.068,0V49.862a4.536,4.536,0,0,0-9.068,0V64.979Zm-13.6.5,7.052-25.689a4.485,4.485,0,0,0,.458-2,4.57,4.57,0,0,0-9.017-1.053l0,.03-3.023,11.08-3.023-11.08a4.725,4.725,0,0,0-9.06-.03l-.009.034-3.023,11.08-3.023-11.08a4.555,4.555,0,0,0-8.961,1.156,4.511,4.511,0,0,0,.411,1.892l-.013-.03,7.052,25.689a4.573,4.573,0,0,0,9.064.021l0-.026,3.023-10.575L34.751,65.48a4.552,4.552,0,0,0,9.064.021v-.017Zm77.066-41.3H89.1A13.541,13.541,0,0,0,75.553,37.719V65.056A13.554,13.554,0,0,1,63.009,78.573l-.043,0h58A18.059,18.059,0,0,0,139.03,60.518V42.228a18.059,18.059,0,0,0-18.059-18.059h-.077Z" transform="translate(77.467 2.625)" fill="#fff"></path></g></svg> 