<?xml version="1.0" encoding="UTF-8"?> <svg xmlns="http://www.w3.org/2000/svg" xmlns:xlink="http://www.w3.org/1999/xlink" version="1.1" id="Layer_1" x="0px" y="0px" viewBox="0 0 180 49" style="enable-background:new 0 0 180 49;" xml:space="preserve"> <style type="text/css"> .st0{fill:#FFFFFF;} .st1{fill:#00A3E0;} </style> <g> <path id="Path_37638" class="st0" d="M61.1,30.1l4.1-2.4c0.7,1.8,2.4,3,4.4,2.9c2.3,0,2.8-0.9,2.8-1.7c0-1.3-1.2-1.8-4.3-2.6 s-6.1-2.3-6.1-6.3s3.4-6.3,7-6.3c3.3-0.1,6.3,1.7,7.6,4.7l-4,2.3c-0.5-1.5-2-2.5-3.6-2.4c-1.5,0-2.2,0.7-2.2,1.6 c0,1,0.5,1.6,3.7,2.6c3.1,1,6.7,2,6.7,6.5c0,4-3.2,6.4-7.7,6.4C65,35.2,62.2,33.1,61.1,30.1z M78.2,16.2c0-1.5,1.2-2.7,2.7-2.7 c1.5,0,2.7,1.2,2.7,2.7s-1.2,2.7-2.7,2.7l0,0l0,0C79.4,18.9,78.2,17.7,78.2,16.2L78.2,16.2z M78.6,20.2h4.5v14.9h-4.5V20.2z M100.6,20.2v14.1c0,5-3.9,7.1-7.9,7.1c-3.1,0-5.7-1.2-7.1-3.6l3.8-2.2c0.6,1.3,2,2,3.4,1.9c2.1,0,3.4-1.1,3.4-3.2V33 c-1.1,1.3-2.7,2-4.3,1.9c-4.2-0.1-7.5-3.6-7.3-7.8c0.1-4,3.3-7.2,7.3-7.3c1.7-0.1,3.3,0.6,4.3,1.9v-1.5L100.6,20.2z M96.2,27.4 c0.1-2-1.5-3.7-3.4-3.8c-2-0.1-3.7,1.5-3.8,3.4s1.5,3.7,3.4,3.8c0.1,0,0.1,0,0.2,0c1.9,0.1,3.5-1.3,3.6-3.1 C96.2,27.6,96.2,27.5,96.2,27.4z M117.2,26v9.1h-4.5v-8.5c0.1-1.4-0.8-2.6-2.2-2.7c-0.1,0-0.3,0-0.4,0c-1.6,0-2.8,1-2.8,3.1v8.1 h-4.5V20.2h4.5v1.4c1-1.3,2.6-1.9,4.3-1.8C114.6,19.8,117.2,21.9,117.2,26L117.2,26z M119.1,16.2c0-1.5,1.2-2.7,2.7-2.7 c1.5,0,2.7,1.2,2.7,2.7s-1.2,2.7-2.7,2.7l0,0l0,0C120.3,18.9,119.1,17.7,119.1,16.2z M119.5,20.2h4.5v14.9h-4.5L119.5,20.2z M132.2,20.2h2.9v4.3h-2.9v10.6h-4.5V24.5h-2v-4.3h2c0-4.2,2.3-6.7,7.2-6.4v4.3C133.3,18,132.2,18.5,132.2,20.2L132.2,20.2z M152.1,20.2L147,34.7c-1.7,4.7-4.3,6.6-8.5,6.4v-4.2c2.1,0,3.1-0.7,3.7-2.5l-5.9-14.2h4.9l3.3,9.1l2.8-9.1L152.1,20.2z M167.7,14.3v20.8h-4.5v-1.4c-1.1,1.2-2.8,1.9-4.4,1.8c-3.9,0-7.1-3.4-7.1-7.9s3.2-7.9,7.1-7.9c1.7-0.1,3.3,0.6,4.4,1.8v-7.4 L167.7,14.3z M163.3,27.7c0-2-1.7-3.5-3.6-3.5s-3.5,1.7-3.5,3.6c0,1.9,1.6,3.5,3.6,3.5c1.9,0.1,3.5-1.4,3.6-3.3 C163.3,27.9,163.3,27.8,163.3,27.7L163.3,27.7z"></path> <path id="Path_37639" class="st1" d="M12.3,24.8C12.3,24.8,12.3,24.9,12.3,24.8l5,8.8c0,0,0,0,0,0.1l5.2,8.8 c0.2,0.3,0.5,0.5,0.8,0.4h20.4c0.3,0,0.6-0.2,0.8-0.4v0l5.1-8.8l5.1-8.7c0.1-0.3,0.1-0.6,0-0.9L44.4,6.4c0,0,0-0.1,0-0.1l0,0 c0,0,0,0,0,0l0,0l0,0c0,0,0,0,0,0s0,0,0,0C44.1,6.1,44,6.1,44,6.1c-0.1,0-0.1,0-0.2,0H23.3c-0.3,0-0.6,0.2-0.8,0.4L12.3,24.1v0 c0,0,0,0,0,0v0c0,0,0,0,0,0V24.8 M38,32.5h-8.2l4.1-7.1h8.2L38,32.5z M24.3,24.5l4.1-7.1l4.1,7.1l-4.1,7.1L24.3,24.5z M34,23.6 l-4.1-7.1H38l4.1,7.1H34z M38,14.8h-8.2L34,7.7h8.2L38,14.8z M23.7,7.7h8.2l-4.3,7.5l0,0l-4.8,8.4h-8.2L23.7,7.7z M22.7,25.4 l4.1,7.1h-8.2l-4-7.1H22.7z M23.7,41.3l-4.1-7.1H38l4.1,7.1H23.7z M43.6,40.4l-4.1-7.1l4.1-7.1l4.1,7.1L43.6,40.4z M48.8,31.6 l-9.2-15.9l4.1-7.1l9.2,15.9L48.8,31.6z"></path> </g> </svg> 