<?xml version="1.0" encoding="UTF-8"?> <svg xmlns="http://www.w3.org/2000/svg" width="179" height="64" viewBox="0 0 179 64" fill="none"><path d="M79.3393 35.6223H77.3593C76.7714 35.6264 76.1886 35.5136 75.6446 35.2906C75.1007 35.0675 74.6065 34.7385 74.1908 34.3228C73.7751 33.9071 73.4461 33.4129 73.2231 32.869C73 32.325 72.8872 31.7422 72.8913 31.1543C72.8888 30.5442 73.0071 29.9397 73.2394 29.3757C73.4717 28.8116 73.8134 28.2991 74.2448 27.8677C74.6761 27.4363 75.1886 27.0946 75.7527 26.8624C76.3168 26.6301 76.9213 26.5118 77.5313 26.5143H79.3313V22.9053H76.9303C74.8142 22.9158 72.7878 23.7611 71.2915 25.2574C69.7951 26.7537 68.9499 28.7802 68.9393 30.8963C68.9376 32.059 69.1654 33.2105 69.6095 34.285C70.0537 35.3595 70.7055 36.3358 71.5276 37.158C72.3498 37.9801 73.3261 38.6319 74.4006 39.0761C75.4751 39.5202 76.6267 39.748 77.7893 39.7463H79.3393V35.6223ZM168.526 35.6223H166.547C165.959 35.6264 165.377 35.5136 164.833 35.2906C164.289 35.0675 163.795 34.7385 163.379 34.3228C162.963 33.9071 162.634 33.4129 162.411 32.869C162.188 32.325 162.075 31.7422 162.079 31.1543C162.077 30.5442 162.195 29.9397 162.427 29.3757C162.66 28.8116 163.001 28.2991 163.433 27.8677C163.864 27.4363 164.377 27.0946 164.941 26.8624C165.505 26.6301 166.109 26.5118 166.719 26.5143H168.519V22.9053H166.031C163.915 22.9155 161.888 23.7607 160.392 25.257C158.895 26.7534 158.05 28.78 158.039 30.8963C158.038 32.059 158.265 33.2105 158.71 34.285C159.154 35.3595 159.805 36.3358 160.628 37.158C161.45 37.9801 162.426 38.6319 163.501 39.0761C164.575 39.5202 165.727 39.748 166.889 39.7463H168.439V35.6223H168.526ZM87.9283 22.9053C84.0613 22.9053 80.9683 26.6863 80.9683 31.3253C80.9683 35.9643 84.0613 39.7453 87.9283 39.7453C91.7953 39.7453 94.8883 35.9643 94.8883 31.3253C94.8883 26.6863 91.7943 22.9053 87.9283 22.9053ZM87.9283 36.5673C86.2103 36.5673 84.9213 34.2473 84.9213 31.4123C84.9213 28.5773 86.2963 26.2573 87.9283 26.2573C89.6463 26.2563 90.9393 28.5763 90.9393 31.4113C90.9393 34.2463 89.5603 36.5673 87.9283 36.5673ZM94.8883 39.7463L97.5513 22.9053H103.139L104.769 31.3253L106.917 22.9053H112.072L114.564 39.7463H110.264L108.893 28.3183L106.573 39.7463H103.652L100.472 28.4903L99.0123 39.7463H94.8883ZM115.509 39.7463L118.172 22.9053H123.757L125.304 31.3253L127.452 22.9053H132.693L135.185 39.7463H130.885L129.428 28.3183L127.108 39.7463H124.273L121.008 28.4903L119.633 39.7463H115.509ZM135.873 39.7463V22.9053H144.639V26.1703H140.255V29.7793H144.122V32.8723H139.739V36.1373H144.639V39.7463H135.873ZM170.156 39.7463V22.9053H178.92V26.1703H174.539V29.7793H178.406V32.8723H174.024V36.1373H178.924V39.7463H170.156Z" fill="black"></path><path d="M154.948 31.9273C155.631 31.9254 156.286 31.6532 156.769 31.1702C157.252 30.6871 157.524 30.0324 157.526 29.3493V27.8053C157.526 26.5061 157.01 25.26 156.092 24.3412C155.173 23.4223 153.928 22.9058 152.628 22.9053H146.27V39.7463H150.222V31.8463L154.522 39.7463H158.9L154.948 31.9273ZM151.597 30.4663H150.136V26.3423H151.77C152.031 26.3381 152.29 26.3863 152.531 26.4842C152.773 26.582 152.992 26.7274 153.177 26.9118C153.361 27.0961 153.506 27.3156 153.604 27.5572C153.702 27.7989 153.75 28.0577 153.745 28.3183C153.722 28.8806 153.488 29.4136 153.091 29.8115C152.693 30.2094 152.16 30.4432 151.597 30.4663Z" fill="black"></path><path d="M9.37742 15H57.2415C58.6951 15 60.0892 15.5774 61.117 16.6053C62.1449 17.6331 62.7223 19.0272 62.7223 20.4808V38.7504C62.7223 40.204 62.1449 41.5981 61.117 42.6259C60.0892 43.6538 58.6951 44.2312 57.2415 44.2312H40.0745L42.4304 50L32.067 44.2312H9.40065C7.94705 44.2312 6.55299 43.6538 5.52514 42.6259C4.49729 41.5981 3.91985 40.204 3.91985 38.7504V20.4808C3.91679 19.7621 4.0557 19.05 4.3286 18.3851C4.6015 17.7203 5.00301 17.1159 5.5101 16.6067C6.01719 16.0974 6.61986 15.6934 7.28352 15.4176C7.94718 15.1419 8.65877 15 9.37742 15V15Z" fill="#7F54B3"></path><path d="M7.26871 19.9908C7.44716 19.7611 7.67539 19.5749 7.93622 19.4462C8.19704 19.3174 8.48368 19.2496 8.77454 19.2476C9.02794 19.1982 9.28916 19.2055 9.53937 19.2692C9.78958 19.3329 10.0226 19.4512 10.2215 19.6158C10.4204 19.7804 10.5804 19.987 10.6899 20.2208C10.7993 20.4547 10.8555 20.7099 10.8545 20.9681C11.5976 25.9639 12.4027 30.1947 13.2697 33.6603L18.5043 23.6936C18.6487 23.3167 18.8909 22.9851 19.206 22.733C19.5212 22.4809 19.8978 22.3174 20.2972 22.2593C21.3488 22.1878 21.9944 22.8566 22.2573 24.2668C22.753 27.0575 23.5132 29.7948 24.5276 32.4415C25.1469 26.3724 26.1998 21.9905 27.6861 19.296C27.8286 18.9935 28.0511 18.7358 28.3294 18.5504C28.6077 18.3651 28.9313 18.2593 29.2653 18.2444C29.8107 18.1993 30.3518 18.3712 30.7711 18.7228C30.9853 18.8836 31.1624 19.0884 31.2906 19.3235C31.4188 19.5586 31.4951 19.8185 31.5143 20.0856C31.5466 20.483 31.4637 20.8813 31.2755 21.2328C30.3466 22.9542 29.5783 25.846 28.9532 29.8609C28.419 32.8645 28.1948 35.9151 28.2843 38.9646C28.3426 39.5076 28.243 40.056 27.9973 40.5438C27.8794 40.7852 27.7004 40.9915 27.4781 41.1424C27.2559 41.2933 26.998 41.3835 26.7302 41.404C26.3692 41.4079 26.0119 41.3304 25.685 41.1773C25.358 41.0242 25.0698 40.7994 24.8416 40.5196C22.619 38.2487 20.8583 34.8546 19.5596 30.3374C18.0058 33.3968 16.8586 35.6913 16.1179 37.2209C14.7077 39.9223 13.5168 41.3083 12.5089 41.3799C11.8633 41.4272 11.3143 40.8782 10.8368 39.731C9.61616 36.6035 8.29922 30.5585 6.88598 21.596C6.8341 21.3166 6.84136 21.0293 6.90728 20.7529C6.9732 20.4764 7.09632 20.2168 7.26871 19.9908V19.9908ZM58.634 23.7438C58.2423 23.0267 57.6958 22.4058 57.0343 21.9262C56.3728 21.4466 55.6128 21.1202 54.8095 20.9708C54.3852 20.8786 53.9525 20.8307 53.5183 20.8278C51.2238 20.8278 49.3594 22.0224 47.9009 24.4135C46.6591 26.4408 46.013 28.7767 46.0365 31.154C45.9896 32.8069 46.3864 34.4422 47.1856 35.8898C47.5772 36.6068 48.1235 37.2276 48.7849 37.7072C49.4462 38.1868 50.206 38.5132 51.0092 38.6627C51.4335 38.7553 51.8662 38.8036 52.3004 38.8067C54.6228 38.8067 56.4807 37.612 57.9178 35.2209C59.1568 33.1835 59.8025 30.8408 59.7822 28.4563C59.8464 26.8103 59.4487 25.1792 58.634 23.7475V23.7438ZM55.6224 30.3644C55.4129 31.7083 54.7757 32.9488 53.8053 33.9018C53.5656 34.1726 53.2653 34.3831 52.9289 34.5159C52.5925 34.6488 52.2295 34.7003 51.8694 34.6663C51.2953 34.5465 50.8178 34.0449 50.4593 33.1131C50.1834 32.4209 50.0376 31.6836 50.0292 30.9385C50.0233 30.3527 50.0793 29.7679 50.1964 29.1939C50.4205 28.1713 50.85 27.2048 51.4588 26.3532C52.2475 25.1818 53.0845 24.7043 53.9447 24.8669C54.5188 24.9867 54.9962 25.4883 55.3548 26.4201C55.6306 27.1124 55.7764 27.8496 55.7849 28.5947C55.7917 29.1873 55.7356 29.779 55.6177 30.3597L55.6224 30.3644ZM43.6714 23.7475C43.2769 23.0326 42.7297 22.4135 42.0686 21.9342C41.4076 21.455 40.649 21.1273 39.8469 20.9746C39.4226 20.8823 38.9899 20.8344 38.5557 20.8315C36.2612 20.8315 34.3968 22.0261 32.9383 24.4172C31.6966 26.4445 31.0505 28.7804 31.0739 31.1577C31.027 32.8095 31.4231 34.4437 32.2212 35.8907C32.6131 36.6077 33.1597 37.2285 33.8214 37.708C34.4831 38.1874 35.2432 38.5136 36.0466 38.6627C36.4709 38.7553 36.9036 38.8036 37.3379 38.8067C39.6602 38.8067 41.5181 37.612 42.9552 35.2209C44.1943 33.1836 44.84 30.8408 44.8196 28.4563C44.8727 26.8116 44.4761 25.1835 43.6724 23.7475H43.6714ZM40.6356 30.3681C40.4261 31.712 39.7889 32.9525 38.8186 33.9055C38.5788 34.1763 38.2785 34.3867 37.9421 34.5195C37.6058 34.6524 37.2428 34.7039 36.8827 34.6701C36.3095 34.5502 35.8311 34.0486 35.4725 33.1168C35.1969 32.4245 35.0511 31.6873 35.0424 30.9422C35.0366 30.3564 35.0926 29.7716 35.2096 29.1976C35.4346 28.1733 35.8657 27.2055 36.4767 26.3532C37.2654 25.1818 38.1024 24.7043 38.9626 24.8669C39.5367 24.9867 40.0142 25.4883 40.3727 26.4201C40.6486 27.1123 40.7944 27.8496 40.8028 28.5947C40.8216 29.1878 40.7654 29.7808 40.6356 30.3597V30.3681Z" fill="white"></path></svg> 