<?xml version="1.0" encoding="UTF-8"?> <svg xmlns="http://www.w3.org/2000/svg" xmlns:xlink="http://www.w3.org/1999/xlink" width="64" height="64" viewBox="0 0 64 64"><defs><clipPath id="clip-path"><rect id="Rectangle_7" data-name="Rectangle 7" width="64" height="64" fill="#fff"></rect></clipPath><linearGradient id="linear-gradient" x1="0.703" y1="1.118" x2="1.92" y2="0.701" gradientUnits="objectBoundingBox"><stop offset="0.138" stop-color="#41873f"></stop><stop offset="0.403" stop-color="#54a044"></stop><stop offset="0.714" stop-color="#66b848"></stop><stop offset="0.908" stop-color="#6cc04a"></stop></linearGradient><linearGradient id="linear-gradient-2" x1="-0.044" y1="1.029" x2="1.015" y2="1.029" gradientUnits="objectBoundingBox"><stop offset="0.092" stop-color="#6cc04a"></stop><stop offset="0.286" stop-color="#66b848"></stop><stop offset="0.597" stop-color="#54a044"></stop><stop offset="0.862" stop-color="#41873f"></stop></linearGradient><linearGradient id="linear-gradient-3" x1="-1.039" y1="1.526" x2="1.008" y2="1.526" xlink:href="#linear-gradient-2"></linearGradient></defs><g id="logo-Node" clip-path="url(#clip-path)"><path id="Path_31" data-name="Path 31" d="M31.65,52.519a1.279,1.279,0,0,1-.613-.16L29.1,51.206c-.292-.16-.146-.219-.058-.248a3.535,3.535,0,0,0,.875-.394.134.134,0,0,1,.146.015l1.488.89a.185.185,0,0,0,.175,0l5.821-3.37a.168.168,0,0,0,.088-.16V41.213a.168.168,0,0,0-.088-.16L31.723,37.7a.185.185,0,0,0-.175,0l-5.821,3.355a.183.183,0,0,0-.087.16v6.725a.183.183,0,0,0,.087.16l1.59.919c.861.438,1.4-.073,1.4-.583V41.8a.177.177,0,0,1,.175-.175h.744a.177.177,0,0,1,.175.175v6.638a1.618,1.618,0,0,1-1.721,1.823,2.5,2.5,0,0,1-1.342-.365l-1.532-.875a1.231,1.231,0,0,1-.613-1.065V41.228a1.231,1.231,0,0,1,.613-1.065l5.821-3.37a1.3,1.3,0,0,1,1.225,0l5.821,3.37a1.231,1.231,0,0,1,.613,1.065v6.725a1.231,1.231,0,0,1-.613,1.065l-5.821,3.37A1.492,1.492,0,0,1,31.65,52.519Zm1.794-4.624c-2.553,0-3.078-1.167-3.078-2.159a.177.177,0,0,1,.175-.175H31.3a.15.15,0,0,1,.16.146c.117.773.452,1.153,2,1.153,1.225,0,1.751-.277,1.751-.934,0-.379-.146-.656-2.057-.846-1.59-.16-2.582-.511-2.582-1.78,0-1.182.992-1.882,2.655-1.882,1.867,0,2.786.642,2.9,2.042a.236.236,0,0,1-.044.131.181.181,0,0,1-.117.058h-.758a.171.171,0,0,1-.16-.131c-.175-.8-.627-1.065-1.824-1.065-1.342,0-1.5.467-1.5.817,0,.423.19.554,2,.788s2.64.569,2.64,1.823C36.347,47.165,35.3,47.894,33.444,47.894Z" fill="#539e43" fill-rule="evenodd"></path><path id="Path_32" data-name="Path 32" d="M13.59,26.217a.742.742,0,0,0-.379-.642L7.025,22.015a.9.9,0,0,0-.336-.1H6.631a.694.694,0,0,0-.336.1L.11,25.575a.742.742,0,0,0-.379.642l.015,9.57a.363.363,0,0,0,.19.321.331.331,0,0,0,.365,0l3.676-2.1a.742.742,0,0,0,.379-.642V28.886a.742.742,0,0,1,.379-.642l1.561-.9a.707.707,0,0,1,.379-.1.627.627,0,0,1,.365.1l1.561.9a.742.742,0,0,1,.379.642v4.479a.742.742,0,0,0,.379.642l3.676,2.1a.356.356,0,0,0,.379,0,.363.363,0,0,0,.19-.321l-.015-9.57Z" fill="#fff" fill-rule="evenodd"></path><path id="Path_33" data-name="Path 33" d="M43.32,13.044a.4.4,0,0,0-.365,0,.38.38,0,0,0-.19.321v9.482a.263.263,0,0,1-.394.233l-1.546-.89a.752.752,0,0,0-.744,0L33.9,25.764a.742.742,0,0,0-.379.642V33.54a.742.742,0,0,0,.379.642l6.185,3.574a.752.752,0,0,0,.744,0l6.185-3.574a.742.742,0,0,0,.379-.642V15.757a.748.748,0,0,0-.379-.656L43.32,13.044Zm-.569,18.147a.168.168,0,0,1-.088.161l-2.115,1.225a.216.216,0,0,1-.19,0l-2.115-1.225a.183.183,0,0,1-.087-.161V28.741a.167.167,0,0,1,.087-.161l2.115-1.225a.216.216,0,0,1,.19,0l2.115,1.225a.183.183,0,0,1,.088.161v2.451Z" fill="#fff" fill-rule="evenodd"></path><path id="Path_34" data-name="Path 34" d="M63.9,28.683a.729.729,0,0,0,.365-.642V26.3a.76.76,0,0,0-.365-.642L57.762,22.1a.752.752,0,0,0-.744,0l-6.185,3.574a.742.742,0,0,0-.379.642v7.134a.742.742,0,0,0,.379.642l6.142,3.5a.725.725,0,0,0,.729,0l3.72-2.072a.366.366,0,0,0,0-.642l-6.215-3.574a.38.38,0,0,1-.19-.321V28.756a.362.362,0,0,1,.19-.321l1.94-1.109a.356.356,0,0,1,.379,0l1.94,1.109a.38.38,0,0,1,.19.321v1.751a.362.362,0,0,0,.19.321.356.356,0,0,0,.379,0L63.9,28.683Z" fill="#fff" fill-rule="evenodd"></path><path id="Path_35" data-name="Path 35" d="M57.3,28.347a.132.132,0,0,1,.146,0l1.182.686a.153.153,0,0,1,.073.131v1.371a.153.153,0,0,1-.073.131l-1.182.686a.132.132,0,0,1-.146,0l-1.182-.686a.153.153,0,0,1-.073-.131V29.164a.153.153,0,0,1,.073-.131l1.182-.686Z" fill="#539e43" fill-rule="evenodd"></path><path id="Path_36" data-name="Path 36" d="M23.933,22.133a.752.752,0,0,0-.744,0l-6.142,3.545a.729.729,0,0,0-.365.642v7.1a.76.76,0,0,0,.365.642l6.142,3.545a.752.752,0,0,0,.744,0l6.142-3.545a.729.729,0,0,0,.365-.642v-7.1a.76.76,0,0,0-.365-.642l-6.142-3.545Z" fill="#fff" fill-rule="evenodd"></path><path id="Path_37" data-name="Path 37" d="M23.933,22.133a.752.752,0,0,0-.744,0l-6.142,3.545a.729.729,0,0,0-.365.642v7.1a.76.76,0,0,0,.365.642l6.142,3.545a.752.752,0,0,0,.744,0l6.142-3.545a.729.729,0,0,0,.365-.642v-7.1a.76.76,0,0,0-.365-.642l-6.142-3.545Z" fill="#fff" fill-rule="evenodd"></path><g id="Group_3" data-name="Group 3"><path id="Path_38" data-name="Path 38" d="M30.089,25.677l-6.171-3.545a1.011,1.011,0,0,0-.19-.073L16.814,33.905a.767.767,0,0,0,.2.175l6.171,3.545a.712.712,0,0,0,.569.073l6.492-11.875a.764.764,0,0,0-.16-.146Z" fill-rule="evenodd" fill="url(#linear-gradient)"></path></g><g id="Group_4" data-name="Group 4"><path id="Path_39" data-name="Path 39" d="M30.1,34.066a.829.829,0,0,0,.365-.467L23.7,22.045a.741.741,0,0,0-.525.087l-6.127,3.53,6.608,12.05a1.015,1.015,0,0,0,.277-.088L30.1,34.066Z" fill-rule="evenodd" fill="url(#linear-gradient-2)"></path><path id="Path_40" data-name="Path 40" d="M30.1,34.065,23.947,37.61a.881.881,0,0,1-.277.088l.117.219,6.827-3.953v-.088l-.175-.292a.678.678,0,0,1-.335.481Z" fill-rule="evenodd" fill="url(#linear-gradient-3)"></path><path id="Path_41" data-name="Path 41" d="M30.1,34.065,23.947,37.61a.881.881,0,0,1-.277.088l.117.219,6.827-3.953v-.088l-.175-.292a.678.678,0,0,1-.335.481Z" fill="#fff" fill-rule="evenodd"></path></g></g></svg> 