<?xml version="1.0" encoding="UTF-8"?> <svg xmlns="http://www.w3.org/2000/svg" xmlns:xlink="http://www.w3.org/1999/xlink" version="1.1" id="Layer_1" x="0px" y="0px" viewBox="0 0 180 60" style="enable-background:new 0 0 180 60;" xml:space="preserve"> <style type="text/css"> .st0{fill:#FFFFFF;} </style> <path class="st0" d="M54.4,33.2C54,32.7,53.5,32.3,53,32c-0.6-0.3-1.2-0.4-1.8-0.4c-1.2,0-2.3,0.6-3.2,1.4c-0.8,0.9-1.3,2-1.3,3.2 s0.5,2.4,1.3,3.2s2,1.4,3.2,1.4c1.1,0,2.1-0.4,2.9-1l0.1-0.1v-1.4c0,0,0-0.1-0.1-0.1L54,38.1h-3.3h-0.1c0,0-0.1,0-0.1-0.1 c0,0,0,0,0-0.1v-0.1v-2.2v-0.1v-0.1c0,0,0,0,0.1,0h0.1h6v-3.2l-1.9,1.1C54.6,33.3,54.4,33.3,54.4,33.2z M26.4,34.7H30 c0.2,0,0.4,0,0.6-0.1s0.4-0.2,0.5-0.3c0.2-0.1,0.3-0.3,0.4-0.5s0.1-0.4,0.1-0.6c0-0.2,0-0.4-0.1-0.6c-0.1-0.2-0.2-0.4-0.4-0.5 c-0.2-0.1-0.3-0.2-0.5-0.3c-0.2-0.1-0.4-0.1-0.6-0.1h-3.6h-0.1h-0.1c0,0,0,0-0.1,0.1v0.1v2.5c0,0,0,0.1,0.1,0.1 C26.3,34.7,26.3,34.7,26.4,34.7L26.4,34.7z M40.8,43.1C40.8,43.2,40.8,43.2,40.8,43.1l-0.2,0.2H38c-0.1,0-0.1,0-0.1-0.1l-0.1-0.1 V29.3c0-0.1,0-0.1,0.1-0.1l0.1-0.1h2.6c0.1,0,0.1,0,0.1,0.1l0.1,0.1L40.8,43.1z M55.9,10.1l-26,19h0.7c2.7,0,4.1,1.7,4.1,3.6 c0,0.6-0.1,1.2-0.4,1.8c-0.3,0.5-0.8,1-1.3,1.3c0,0-0.1,0-0.1,0.1V36v0.1l0.1,0.1c0.6,0.3,1.2,0.7,1.5,1.3c0.4,0.6,0.5,1.3,0.5,2 c0,2.1-1.4,3.8-4.1,3.8h-7.4h-0.1h-0.1c0,0,0,0-0.1-0.1v-0.1v-9l-19.3,14c-0.1,0.1-0.1,0.1-0.2,0.2c0,0.1,0,0.2,0,0.3 s0.1,0.2,0.2,0.2C4,49,4.1,49,4.2,49h52c0.1,0,0.1,0,0.2,0c0.1,0,0.1-0.1,0.2-0.1c0,0,0.1-0.1,0.1-0.2c0-0.1,0-0.1,0-0.2v-7.1 c-1.5,1.4-3.4,2.1-5.5,2.1c-1,0-2-0.1-2.9-0.5s-1.7-0.9-2.4-1.6c-0.7-0.7-1.3-1.5-1.6-2.4c-0.4-0.9-0.6-1.9-0.6-2.9s0.2-1.9,0.6-2.9 c0.4-0.9,0.9-1.7,1.6-2.4c0.7-0.7,1.5-1.2,2.4-1.6s1.9-0.5,2.9-0.5c1.1,0,2.1,0.2,3.1,0.6c1,0.5,1.8,1.1,2.4,2v-21 c0-0.1,0-0.2-0.1-0.3c0-0.1-0.1-0.1-0.2-0.2c-0.1,0-0.2-0.1-0.2-0.1C56,10,55.9,10,55.9,10.1z M26.4,40.6H30c0.2,0,0.5,0,0.7-0.1 s0.4-0.2,0.6-0.3c0.2-0.2,0.3-0.3,0.4-0.6c0.1-0.2,0.1-0.4,0.1-0.7c0-0.2,0-0.5-0.1-0.7s-0.2-0.4-0.4-0.5c-0.2-0.2-0.4-0.3-0.6-0.3 c-0.2-0.1-0.4-0.1-0.7-0.1h-3.7h-0.1h-0.1c0,0,0,0-0.1,0.1v0.1v2.8C26.2,40.5,26.2,40.6,26.4,40.6z M71.7,40.2l-1.6-0.8H70h-0.1 h-0.1c0,0,0,0-0.1,0.1c-0.4,0.6-0.8,1-1.4,1.3s-1.2,0.5-1.9,0.5c-2.7,0-4.7-2.2-4.7-5.1c0-3,2-5.1,4.7-5.1c0.7,0,1.3,0.2,1.9,0.5 s1.1,0.8,1.4,1.4c0,0,0,0,0.1,0.1c0,0,0,0,0.1,0H70h0.1l1.6-0.9c0,0,0.1,0,0.1-0.1V32v-0.1v-0.1c-0.5-0.9-1.3-1.7-2.3-2.2 c-0.9-0.5-2-0.8-3.1-0.7c-1.9,0-3.7,0.8-5.1,2.2c-1.3,1.4-2.1,3.2-2.1,5.1s0.8,3.8,2.1,5.1c1.3,1.4,3.2,2.2,5.1,2.2 c1.1,0,2.1-0.3,3.1-0.8c0.9-0.5,1.7-1.3,2.3-2.2C71.9,40.4,71.8,40.2,71.7,40.2L71.7,40.2z M80.1,41.3c-2.8,0-4.5-2.2-4.5-5.1 c0-2.9,1.8-5.1,4.5-5.1s4.5,2.2,4.5,5.1C84.7,39.1,82.9,41.3,80.1,41.3L80.1,41.3z M78.2,29.1c-1.5,0.4-2.8,1.4-3.8,2.7 c-0.9,1.3-1.4,2.8-1.3,4.4c0,4.2,2.9,7.3,7,7.3c1.6,0,3.2-0.5,4.4-1.5c1.2-1,2.1-2.5,2.4-4C88.1,32.6,83.3,27.7,78.2,29.1z M104.1,29.1H101c-0.1,0-0.1,0-0.2,0.1c-0.1,0-0.1,0.1-0.1,0.1L96.9,39l-3.8-9.7c0-0.1-0.1-0.1-0.1-0.1c-0.1,0-0.1-0.1-0.2-0.1h-3.1 c0,0-0.1,0-0.1,0.1l-0.1,0.1v13.8c0,0,0,0.1,0.1,0.1s0.1,0.1,0.1,0.1h2.1c0,0,0.1,0,0.1-0.1s0.1-0.1,0.1-0.1V32.3l4.3,10.9 c0,0.1,0.1,0.1,0.1,0.1h0.9c0.1,0,0.1,0,0.1-0.1l4.3-10.9v10.8c0,0,0,0.1,0.1,0.1l0.1,0.1h2.1c0,0,0.1,0,0.1-0.1l0.1-0.1V29.3 C104.2,29.3,104.2,29.3,104.1,29.1C104.2,29.1,104.2,29.2,104.1,29.1C104.2,29.1,104.2,29.1,104.1,29.1L104.1,29.1L104.1,29.1z M135.8,29.1h-9.2h-0.1c0,0-0.1,0-0.1,0.1c0,0,0,0.1-0.1,0.1v0.1V43v0.1c0,0,0,0.1,0.1,0.1c0,0,0.1,0,0.1,0.1h0.1h9.2h0.1 c0,0,0.1,0,0.1-0.1c0,0,0-0.1,0.1-0.1V43v-1.7v-0.1c0,0,0-0.1-0.1-0.1s-0.1,0-0.1-0.1h-0.1h-6.7H129c0,0-0.1,0-0.1-0.1 c0,0,0-0.1-0.1-0.1v-0.1v-3.4v-0.1c0,0,0-0.1,0.1-0.1c0,0,0.1,0,0.1-0.1h0.1h6.6h0.1c0,0,0.1,0,0.1-0.1c0,0,0-0.1,0.1-0.1 s0-0.1,0-0.1V35v-0.1c0,0,0-0.1-0.1-0.1c0,0-0.1,0-0.1-0.1h-0.1h-6.6H129c0,0-0.1,0-0.1-0.1c0,0,0-0.1-0.1-0.1s0-0.1,0-0.1v-3.1 v-0.1c0,0,0-0.1,0.1-0.1c0,0,0.1,0,0.1-0.1h0.1h6.7h0.1c0,0,0.1,0,0.1-0.1c0,0,0-0.1,0.1-0.1v-0.1V29c0-0.1,0-0.1-0.1-0.2 C136,29.1,135.9,29.1,135.8,29.1L135.8,29.1z M145.5,35.8h-3.1h-0.1c0,0-0.1,0-0.1-0.1c0,0,0-0.1-0.1-0.1v-0.1v-4v-0.1 c0,0,0-0.1,0.1-0.1c0,0,0.1,0,0.1-0.1h0.1h3.1c0.3,0,0.6,0,0.9,0.1c0.3,0.1,0.6,0.3,0.8,0.5s0.4,0.5,0.5,0.8s0.2,0.6,0.2,0.9 c0,0.3-0.1,0.6-0.2,0.9c-0.1,0.3-0.3,0.5-0.5,0.8c-0.2,0.2-0.5,0.4-0.8,0.5C146.1,35.8,145.8,35.8,145.5,35.8L145.5,35.8z M147.5,37.6c0.9-0.2,1.7-0.8,2.2-1.5s0.8-1.7,0.8-2.6c0-0.6-0.1-1.2-0.3-1.8c-0.2-0.6-0.6-1.1-1-1.5s-1-0.7-1.5-0.9 c-0.6-0.2-1.2-0.3-1.8-0.2H140h-0.1c0,0-0.1,0-0.1,0.1s0,0.1-0.1,0.1v0.1V43v0.1c0,0,0,0.1,0.1,0.1c0,0,0.1,0,0.1,0.1h0.1h2h0.1 c0,0,0.1,0,0.1-0.1c0,0,0-0.1,0.1-0.1V43v-4.8v-0.1c0,0,0-0.1,0.1-0.1s0.1,0,0.1-0.1h0.1h2.1c0.1,0,0.2,0,0.2,0.1l3,5l0.1,0.1h0.1 h2.3h0.1l0.1-0.1v-0.1v-0.1c-0.7-1-2.5-3.9-3-4.9C147.2,37.8,147.3,37.7,147.5,37.6L147.5,37.6z M170,31.3h6.7h0.1 c0,0,0.1,0,0.1-0.1c0,0,0-0.1,0.1-0.1V31v-1.7v-0.1c0,0,0-0.1-0.1-0.1c0,0-0.1,0-0.1-0.1h-0.1h-9.2h-0.1c0,0-0.1,0-0.1,0.1 s0,0.1-0.1,0.1v0.1V43v0.1c0,0,0,0.1,0.1,0.1c0,0,0.1,0,0.1,0.1h0.1h9.2h0.1c0,0,0.1,0,0.1-0.1c0,0,0-0.1,0.1-0.1V43v-1.7v-0.1 c0,0,0-0.1-0.1-0.1c0,0-0.1,0-0.1-0.1h-0.1H170h-0.1c0,0-0.1,0-0.1-0.1s0-0.1-0.1-0.1v-0.1v-3.4v-0.1c0,0,0-0.1,0.1-0.1 s0.1,0,0.1-0.1h0.1h6.6h0.1c0,0,0.1,0,0.1-0.1c0,0,0-0.1,0.1-0.1s0-0.1,0-0.1V35v-0.1c0,0,0-0.1-0.1-0.1s-0.1,0-0.1-0.1h-0.1H170 h-0.1c0,0-0.1,0-0.1-0.1c0,0,0-0.1-0.1-0.1s0-0.1,0-0.1v-3.1c0-0.1,0-0.1,0.1-0.2C169.8,31.3,169.9,31.3,170,31.3L170,31.3z M164.7,40.1l-1.6-0.8H163h-0.1h-0.1c0,0,0,0-0.1,0.1c-0.4,0.6-0.8,1-1.4,1.3c-0.6,0.3-1.2,0.5-1.9,0.5c-2.7,0-4.7-2.2-4.7-5.1 c0-3,2-5.1,4.7-5.1c0.7,0,1.3,0.2,1.9,0.5c0.6,0.3,1.1,0.8,1.4,1.4c0,0,0,0,0.1,0.1c0,0,0,0,0.1,0h0.1h0.1l1.6-0.9 c0,0,0.1,0,0.1-0.1v-0.1v-0.1v-0.1c-0.5-0.9-1.3-1.7-2.3-2.2c-0.9-0.5-2-0.8-3.1-0.7c-1.9,0-3.7,0.8-5.1,2.2 c-1.3,1.4-2.1,3.2-2.1,5.1s0.8,3.8,2.1,5.1c1.3,1.4,3.2,2.2,5.1,2.2c1.1,0,2.1-0.3,3.1-0.8c0.9-0.5,1.7-1.3,2.3-2.2 c0-0.1,0.1-0.1,0-0.2C164.8,40.2,164.8,40.2,164.7,40.1L164.7,40.1z M122.4,29.1h-3.1c-0.1,0-0.1,0-0.2,0.1c-0.1,0-0.1,0.1-0.1,0.1 l-3.8,9.7l-3.8-9.7c0-0.1-0.1-0.1-0.1-0.1c-0.1,0-0.1-0.1-0.2-0.1H108c0,0-0.1,0-0.1,0.1l-0.1,0.1v13.8c0,0,0,0.1,0.1,0.1l0.1,0.1 h2.1c0,0,0.1,0,0.1-0.1l0.1-0.1V32.3l4.3,10.9c0,0.1,0.1,0.1,0.1,0.1h0.9c0.1,0,0.1,0,0.1-0.1l4.3-10.9v10.8c0,0,0,0.1,0.1,0.1 l0.1,0.1h2.1c0,0,0.1,0,0.1-0.1l0.1-0.1V29.3L122.4,29.1C122.5,29.2,122.5,29.1,122.4,29.1z"></path> </svg> 