<?xml version="1.0" encoding="UTF-8"?> <svg xmlns="http://www.w3.org/2000/svg" xmlns:xlink="http://www.w3.org/1999/xlink" width="300" height="108" viewBox="0 0 300 108"><defs><clipPath id="clip-logo-ionic-white"><rect width="300" height="108"></rect></clipPath></defs><g id="logo-ionic-white" clip-path="url(#clip-logo-ionic-white)"><rect width="300" height="108" fill="rgba(0,0,0,0)"></rect><g id="ionicframework-ar21" transform="translate(15.86 0.736)"><g id="g12" transform="translate(7.14 12.14)"><path id="path4" d="M37.569,53.5A18.744,18.744,0,1,0,56.313,72.239,18.745,18.745,0,0,0,37.569,53.5Z" transform="translate(3.611 -31.003)" fill="#3880ff"></path><g id="g8" transform="translate(59.476 7.05)"><circle id="circle6" cx="8.561" cy="8.561" r="8.561" fill="#3880ff"></circle></g><path id="path10" d="M87.74,68l-.336-.783-.56.671A13.053,13.053,0,0,1,81.7,71.414l-.56.224.224.56a32.828,32.828,0,0,1,2.574,12.869A33.6,33.6,0,1,1,64.744,54.685l.5.224.224-.56a12.776,12.776,0,0,1,3.8-4.98l.671-.56-.783-.392A41.3,41.3,0,1,0,87.74,68Z" transform="translate(-9.184 -43.83)" fill="#3880ff"></path></g><g id="g27" transform="translate(110.593 34.577)"><g id="g16" transform="translate(0 0.895)"><rect id="rect14" width="8.672" height="35.809" fill="#3880ff"></rect></g><g id="g20" transform="translate(93.606 0.895)"><rect id="rect18" width="8.672" height="35.809" fill="#3880ff"></rect></g><path id="path22" d="M96.456,53.5a18.785,18.785,0,0,0-11.862,4.7h0l-.56-3.861H76.817V90.144H85.49V68.491c0-4.252,5.763-7.721,10.015-7.721,4.14,0,7.386,4.028,7.386,8.84V90.144h8.672V70.449C111.507,61.049,107.423,53.5,96.456,53.5Z" transform="translate(-22.881 -53.44)" fill="#3880ff"></path><path id="path24" d="M118.137,83.685c-6.546,0-10.854-5.092-10.854-11.414s4.308-11.414,10.854-11.414c5.539,0,8.952,5.371,8.952,5.371l6.267-4.2a19.013,19.013,0,0,0-6.77-6.211,15.969,15.969,0,0,0-8.169-2.35c-10.855,0-19.135,8.169-19.191,18.744.056,10.575,8.337,18.744,19.191,18.744a15.97,15.97,0,0,0,8.169-2.35,19.013,19.013,0,0,0,6.77-6.211l-6.267-4.2C127.089,78.258,123.732,83.685,118.137,83.685Z" transform="translate(6.858 -53.472)" fill="#3880ff"></path><path id="path3000_1_" d="M77.769,53.5A18.744,18.744,0,1,0,96.513,72.3C96.513,59.874,86.777,53.5,77.769,53.5Zm.112,7.386c5.371,0,10.463,4.364,10.463,11.414,0,6.882-5.092,11.358-10.519,11.358-5.931,0-10.631-4.812-10.631-11.414,0-6.546,4.644-11.358,10.687-11.358Z" transform="translate(-46.493 -53.44)" fill="#3880ff"></path></g></g></g></svg> 