<?xml version="1.0" encoding="UTF-8"?> <svg xmlns="http://www.w3.org/2000/svg" xmlns:xlink="http://www.w3.org/1999/xlink" width="180" height="49" viewBox="0 0 180 49"><defs><clipPath id="clip-logo-signifyd"><rect width="180" height="49"></rect></clipPath></defs><g id="logo-signifyd" clip-path="url(#clip-logo-signifyd)"><rect width="180" height="49" fill="rgba(255,255,255,0)"></rect><g id="Signifyd" transform="translate(-22 -126.951)"><path id="Path_37638" data-name="Path 37638" d="M283.1,206.4l4.12-2.366a4.378,4.378,0,0,0,4.353,2.895c2.261,0,2.81-.887,2.81-1.69,0-1.268-1.2-1.8-4.31-2.641s-6.127-2.345-6.127-6.339,3.381-6.339,6.973-6.339a8.056,8.056,0,0,1,7.606,4.712l-4.014,2.345a3.645,3.645,0,0,0-3.592-2.43c-1.5,0-2.219.74-2.219,1.564,0,.951.507,1.585,3.74,2.6,3.148.951,6.677,2.049,6.677,6.465,0,4.014-3.212,6.4-7.733,6.4C287.072,211.536,284.283,209.465,283.1,206.4Zm17.114-13.839a2.662,2.662,0,1,1,2.662,2.662h0A2.706,2.706,0,0,1,300.214,192.562Zm.444,3.993h4.458V211.43h-4.458Zm21.953,0v14.135c0,4.986-3.888,7.1-7.86,7.1-3.085,0-5.684-1.162-7.057-3.592l3.8-2.2a3.368,3.368,0,0,0,3.381,1.88c2.092,0,3.359-1.078,3.359-3.19v-1.373a5.252,5.252,0,0,1-4.331,1.944,7.557,7.557,0,0,1,0-15.107,5.224,5.224,0,0,1,4.331,1.944v-1.542Zm-4.331,7.12a3.6,3.6,0,1,0-3.592,3.444,3.369,3.369,0,0,0,3.592-3.444Zm20.939-1.395v9.128H334.76v-8.473a2.475,2.475,0,0,0-2.6-2.726c-1.648,0-2.768.951-2.768,3.064v8.135h-4.458V196.556h4.458v1.395a5.092,5.092,0,0,1,4.268-1.817C336.662,196.133,339.218,198.267,339.218,202.282Zm1.88-9.719a2.662,2.662,0,1,1,2.662,2.662h0a2.706,2.706,0,0,1-2.662-2.662Zm.444,3.993H346V211.43h-4.458Zm12.741,0h2.895v4.289h-2.895V211.43h-4.458V200.845h-1.986v-4.289h1.986c0-4.162,2.282-6.656,7.226-6.36v4.289c-1.669-.169-2.768.338-2.768,2.071Zm19.84,0-5.092,14.431c-1.669,4.733-4.31,6.613-8.473,6.4v-4.162c2.092,0,3.064-.655,3.719-2.472l-5.916-14.22h4.9l3.3,9.107,2.789-9.107ZM389.78,190.6v20.812h-4.458v-1.395a5.629,5.629,0,0,1-4.437,1.817c-3.888,0-7.1-3.423-7.1-7.86s3.212-7.86,7.1-7.86a5.591,5.591,0,0,1,4.437,1.817v-7.353Zm-4.458,13.375a3.551,3.551,0,1,0-3.55,3.634A3.416,3.416,0,0,0,385.322,203.972Z" transform="translate(-199.623 -48.833)" fill="#003057"></path><path id="Path_37639" data-name="Path 37639" d="M52.2,172.926a.021.021,0,0,0,.021.021l5.008,8.768c0,.021.021.042.021.085l5.155,8.832a.871.871,0,0,0,.782.444H83.576a.922.922,0,0,0,.782-.444v-.021l5.113-8.832,5.092-8.726a1.007,1.007,0,0,0,0-.887L84.337,154.5a.161.161,0,0,1-.042-.106l-.021-.021a.021.021,0,0,0-.021-.021l-.021-.021-.021-.021c-.021,0-.021-.021-.042-.021s-.021-.021-.042-.021c-.127-.106-.169-.127-.232-.127a.5.5,0,0,0-.169-.042H63.208a.922.922,0,0,0-.782.444L52.242,172.186v.021a.021.021,0,0,1-.021.021v.021a.021.021,0,0,1-.021.021v.613m25.756,7.67H69.8l4.1-7.078h8.156ZM64.2,172.609l4.1-7.057,4.078,7.057L68.3,179.666Zm9.7-.909-4.1-7.057h8.177l4.1,7.057Zm4.078-8.811H69.8l4.1-7.057h8.177Zm-14.3-7.057h8.156l-4.31,7.48-.021.021L62.659,171.7H54.5ZM62.659,173.5l4.078,7.057h-8.2L54.5,173.5Zm1.014,15.889-4.12-7.057h18.4l4.1,7.057Zm19.9-.887-4.1-7.057,4.1-7.057,4.078,7.057Zm5.113-8.832-9.17-15.91,4.057-7.057,9.17,15.91Z" transform="translate(-17.509 -20.597)" fill="#00a3e0"></path><rect id="Rectangle_3877" data-name="Rectangle 3877" width="165" height="48" transform="translate(30 127.951)" fill="none"></rect></g></g></svg> 