<?xml version="1.0" encoding="UTF-8"?> <svg xmlns="http://www.w3.org/2000/svg" xmlns:xlink="http://www.w3.org/1999/xlink" width="160" height="80" viewBox="0 0 160 80"><defs><clipPath id="clip-logo-fastaff"><rect width="160" height="80"></rect></clipPath></defs><g id="logo-fastaff" clip-path="url(#clip-logo-fastaff)"><rect width="160" height="80" fill="rgba(255,255,255,0)"></rect><g id="fastaff-travel-nursing-logo-vector" transform="translate(139.314 -176.669)"><path id="Path_44343" data-name="Path 44343" d="M-2.7,213.885h-9.93v9.73H-17.4V199.569H.234V204H-12.635v5.455H-2.7Zm18.992-6.836H11.924V208.9A5.968,5.968,0,0,0,6.958,206.6,7.446,7.446,0,0,0,1.192,209.1,8.969,8.969,0,0,0-1.1,215.355a8.832,8.832,0,0,0,2.293,6.257,7.578,7.578,0,0,0,5.767,2.471,6.153,6.153,0,0,0,4.965-2.293v1.848h4.364V207.05Zm-8.55,3.674a3.881,3.881,0,0,1,3.073,1.291,5.056,5.056,0,0,1,0,6.546,4,4,0,0,1-3.073,1.291A3.99,3.99,0,0,1,4.6,218.561a5.056,5.056,0,0,1,0-6.546,4.143,4.143,0,0,1,3.139-1.291m25.182-2.538a15.388,15.388,0,0,0-6.947-1.581,8.327,8.327,0,0,0-5.166,1.447,4.912,4.912,0,0,0-1.893,4.03c0,2.828,1.937,4.52,5.767,5.077l1.336.2a5.118,5.118,0,0,1,2.137.557,1,1,0,0,1,.646.935c0,1.046-1.046,1.536-3.073,1.536a9.932,9.932,0,0,1-5.655-1.648l-1.781,3.384a12.785,12.785,0,0,0,7.392,1.937,8.941,8.941,0,0,0,5.611-1.536,4.954,4.954,0,0,0,2.026-4.119c0-2.739-1.893-4.364-5.611-4.965l-1.492-.2c-.445-.089-.846-.156-1.091-.2a6.054,6.054,0,0,1-.846-.245,1.675,1.675,0,0,1-.6-.4.792.792,0,0,1-.2-.6,1.194,1.194,0,0,1,.646-1.091,3.74,3.74,0,0,1,1.893-.4,12.426,12.426,0,0,1,5.321,1.336Zm14.25,2.783v-4.03H41.158v-4.965H36.683v4.965H33.454V210.9h3.228v6.457a7.176,7.176,0,0,0,1.581,4.965,6.077,6.077,0,0,0,4.676,1.692,9.438,9.438,0,0,0,5.522-1.737l-1.648-3.518a6.179,6.179,0,0,1-3.139,1.091,2.434,2.434,0,0,1-1.781-.69,2.894,2.894,0,0,1-.69-2.137v-6.056H47.17Zm18.636-3.919H61.442V208.9a5.968,5.968,0,0,0-4.965-2.293A7.446,7.446,0,0,0,50.71,209.1a8.969,8.969,0,0,0-2.293,6.257,8.832,8.832,0,0,0,2.293,6.257,7.578,7.578,0,0,0,5.767,2.471,6.153,6.153,0,0,0,4.965-2.293v1.848h4.364Zm-8.55,3.674a3.881,3.881,0,0,1,3.073,1.291,5.056,5.056,0,0,1,0,6.546,4.381,4.381,0,0,1-6.212,0,5.056,5.056,0,0,1,0-6.546,4.143,4.143,0,0,1,3.139-1.291m20.707.245v-3.963H72.8v-1.982c0-1.536.646-2.338,1.937-2.338a5.469,5.469,0,0,1,2.828.8l1.781-3.473a9.132,9.132,0,0,0-5.121-1.492,5.7,5.7,0,0,0-4.431,1.737,6.738,6.738,0,0,0-1.536,4.72v18.659h4.475V210.969h5.232Zm12.58-3.986H85.422V205c0-1.536.646-2.338,1.937-2.338a5.469,5.469,0,0,1,2.828.8l1.781-3.473a9.132,9.132,0,0,0-5.121-1.492,5.7,5.7,0,0,0-4.431,1.737,6.738,6.738,0,0,0-1.536,4.72v2.026H77.741v3.963H80.88v12.669h4.475V210.946h5.166v-3.963Z" transform="translate(-84.497 0)" fill="#293967"></path><path id="Path_44344" data-name="Path 44344" d="M229.152,332.735h-1.714v4.409h-.623v-4.409H225.1v-.6h4.052Zm1.87.935a1.207,1.207,0,0,0-.557.134,1.443,1.443,0,0,0-.445.378v-.445h-.579v3.407h.579v-1.893a1.082,1.082,0,0,1,.245-.735.824.824,0,0,1,.646-.267,1.171,1.171,0,0,1,.579.134l.134-.579a1.146,1.146,0,0,0-.6-.134m4.52.089h-.579v.468a1.464,1.464,0,0,0-1.2-.534,1.58,1.58,0,0,0-1.2.512,1.889,1.889,0,0,0,0,2.538,1.629,1.629,0,0,0,1.2.49,1.525,1.525,0,0,0,1.2-.534v.445h.579Zm-1.714.468a1.1,1.1,0,0,1,.846.356,1.3,1.3,0,0,1,0,1.737,1.14,1.14,0,0,1-.846.356,1.1,1.1,0,0,1-.846-.356,1.248,1.248,0,0,1-.334-.868,1.338,1.338,0,0,1,.312-.868,1.11,1.11,0,0,1,.868-.356m5.967-.468h-.623l-1.136,2.805-1.136-2.805h-.646l1.425,3.407h.69Zm2.115-.089a1.562,1.562,0,0,0-1.2.49,1.787,1.787,0,0,0-.468,1.269,1.729,1.729,0,0,0,.49,1.291,1.628,1.628,0,0,0,1.247.49,2.052,2.052,0,0,0,1.4-.512l-.312-.4a1.541,1.541,0,0,1-1.046.4,1.182,1.182,0,0,1-.779-.267,1.136,1.136,0,0,1-.379-.779h2.672v-.223a1.875,1.875,0,0,0-.445-1.269,1.668,1.668,0,0,0-1.18-.49m-.022.534a.958.958,0,0,1,.69.267,1.256,1.256,0,0,1,.334.712h-2.071a1.152,1.152,0,0,1,.356-.712.889.889,0,0,1,.69-.267m3.184-2.2h-.579v5.143h.579Zm7.459.134h-.623v3.941l-3.028-3.941h-.557v5.01h.623V333.2l3.028,3.941h.579v-5.01Zm4.409,1.625h-.579v1.915a.891.891,0,0,1-.957,1,.964.964,0,0,1-.69-.245.979.979,0,0,1-.267-.757v-1.915h-.579v1.982a1.627,1.627,0,0,0,.134.668,1.263,1.263,0,0,0,.334.468,2.1,2.1,0,0,0,.49.267,1.706,1.706,0,0,0,.6.089,1.66,1.66,0,0,0,.579-.089,1.728,1.728,0,0,0,.49-.267.908.908,0,0,0,.334-.468,1.627,1.627,0,0,0,.134-.668v-1.982Zm2.783-.089a1.207,1.207,0,0,0-.557.134,1.443,1.443,0,0,0-.445.378v-.445h-.579v3.407h.579v-1.893a1.082,1.082,0,0,1,.245-.735.824.824,0,0,1,.646-.267,1.171,1.171,0,0,1,.579.134l.134-.579a1.2,1.2,0,0,0-.6-.134m3.9.379a2.327,2.327,0,0,0-1.358-.356,1.534,1.534,0,0,0-1,.289.909.909,0,0,0-.379.757c0,.534.379.868,1.136.957l.4.045c.468.067.69.223.69.468a.436.436,0,0,1-.245.379,1.363,1.363,0,0,1-.668.134,1.8,1.8,0,0,1-1.158-.356l-.267.445a2.36,2.36,0,0,0,1.425.445,1.764,1.764,0,0,0,1.091-.289.913.913,0,0,0,.4-.779c0-.534-.378-.868-1.158-.957l-.4-.045a.909.909,0,0,1-.49-.156.324.324,0,0,1-.156-.289.466.466,0,0,1,.2-.379,1.031,1.031,0,0,1,.557-.134,1.875,1.875,0,0,1,.6.089,2.011,2.011,0,0,1,.49.223Zm1.6-.289h-.579v3.407h.579Zm-.312-1.625a.423.423,0,0,0-.289.111.369.369,0,0,0-.111.289.469.469,0,0,0,.111.289.369.369,0,0,0,.289.111.423.423,0,0,0,.289-.111.369.369,0,0,0,.111-.289.423.423,0,0,0-.111-.289.384.384,0,0,0-.289-.111m3.228,1.536a1.494,1.494,0,0,0-.623.134,1.063,1.063,0,0,0-.49.4v-.445h-.579v3.407h.579v-1.915a.925.925,0,0,1,.289-.735,1.011,1.011,0,0,1,.712-.267.889.889,0,0,1,.69.267,1.082,1.082,0,0,1,.245.735v1.915h.579V335.05a1.276,1.276,0,0,0-.4-.98,1.26,1.26,0,0,0-1-.4m4.052,0a1.562,1.562,0,0,0-1.2.49,1.749,1.749,0,0,0-.49,1.247,1.712,1.712,0,0,0,.49,1.269,1.562,1.562,0,0,0,1.2.49,1.42,1.42,0,0,0,1.18-.534v.289a1.108,1.108,0,0,1-.334.868,1.274,1.274,0,0,1-.891.312,2.12,2.12,0,0,1-1.18-.379l-.245.468a1.747,1.747,0,0,0,.646.312,2.279,2.279,0,0,0,.779.111,1.823,1.823,0,0,0,1.314-.468,1.645,1.645,0,0,0,.49-1.269v-3.162h-.579v.468a1.5,1.5,0,0,0-1.18-.512m.067.557a1.108,1.108,0,0,1,.824.334,1.239,1.239,0,0,1,0,1.692,1.108,1.108,0,0,1-.824.334,1.074,1.074,0,0,1-.824-.334,1.141,1.141,0,0,1-.312-.846,1.238,1.238,0,0,1,.312-.846,1.074,1.074,0,0,1,.824-.334" transform="translate(-273.004 -103.776)" fill="#666a78"></path><path id="Path_44345" data-name="Path 44345" d="M-106.885,241.583h-5.032V221.5h5.032Zm-12.6-20.083.022,20.083h3.785V221.5Zm-3.785,0H-126.1v20.083h2.828Z" transform="translate(0 -17.879)" fill="#e99748"></path></g></g></svg> 