<?xml version="1.0" encoding="UTF-8"?> <svg xmlns="http://www.w3.org/2000/svg" xmlns:xlink="http://www.w3.org/1999/xlink" width="180" height="49" viewBox="0 0 180 49"><defs><clipPath id="clip-logo-synchrony"><rect width="180" height="49"></rect></clipPath></defs><g id="logo-synchrony" clip-path="url(#clip-logo-synchrony)"><rect width="180" height="49" fill="rgba(255,255,255,0)"></rect><g id="synchrony-bank-logo-vector" transform="translate(-21.867 -256.958)"><path id="Path_37636" data-name="Path 37636" d="M43.563,299.116H36.721V263.8h6.813Zm-10.05-17.658H26.7v17.658h6.813ZM53.584,263.8H46.771v17.658h6.813Zm0,0" fill="#fbc600"></path><path id="Path_37637" data-name="Path 37637" d="M189.959,287.2v9.51h-2.186v-9.539c0-2.9-1.192-4.23-3.719-4.23a4.382,4.382,0,0,0-4.6,4.429v9.34h-2.186V281.1h2.186v1.7a6.633,6.633,0,0,1,4.741-1.93c3.719-.028,5.763,2.243,5.763,6.331Zm25.891-6.359a6.519,6.519,0,0,0-4.741,1.93V274.2h-2.186v22.484h2.186v-9.34a4.367,4.367,0,0,1,4.6-4.429c2.527,0,3.719,1.334,3.719,4.23v9.539h2.186V287.2c.028-4.088-2.044-6.359-5.763-6.359Zm32.505,7.921v.227c0,4.514-3.208,7.949-7.495,7.949a7.6,7.6,0,0,1-7.466-7.921v-.227c0-4.514,3.236-7.921,7.523-7.921,4.315,0,7.438,3.321,7.438,7.892Zm-2.214.227v-.227c0-3.435-2.158-5.82-5.224-5.82s-5.309,2.47-5.309,5.848v.227c0,3.378,2.214,5.82,5.28,5.82,3.094,0,5.252-2.413,5.252-5.848Zm11.583-8.148a6.519,6.519,0,0,0-4.741,1.93v-1.7H250.8v15.614h2.186v-9.34a4.367,4.367,0,0,1,4.6-4.429c2.527,0,3.719,1.334,3.719,4.23v9.539h2.186V287.2c.028-4.088-2.044-6.359-5.763-6.359Zm-58.112,14c-3.066,0-5.28-2.441-5.28-5.82v-.227c0-3.407,2.243-5.848,5.309-5.848a4.958,4.958,0,0,1,4.656,3.009h2.356a7.176,7.176,0,0,0-7.012-5.053c-4.287,0-7.523,3.407-7.523,7.921v.227a7.638,7.638,0,0,0,7.466,7.921,7.419,7.419,0,0,0,7.3-5.962h-2.271a5.06,5.06,0,0,1-5,3.833Zm32.136-14a6.519,6.519,0,0,0-4.741,1.93v-1.7H224.82v15.614h2.186v-9.34a4.367,4.367,0,0,1,4.6-4.429,4.783,4.783,0,0,1,1.533.227v-2.186a11.488,11.488,0,0,0-1.391-.114Zm-76.905,6.813c-3.492-.568-4.088-1.192-4.088-2.47,0-1.363,1.419-2.271,3.435-2.271,2.129,0,3.322.766,3.662,2.441l.028.085h2.271l-.057-.312c-.454-2.754-2.555-4.258-5.876-4.258s-5.706,1.817-5.706,4.315c0,3.265,2.782,4,5.848,4.514,2.9.511,3.8.908,3.8,2.64,0,1.59-1.419,2.555-3.634,2.555-3.038,0-3.974-1.59-4.2-3.009H148c.284,3.123,2.782,5.053,6.529,5.053,3.492,0,5.933-1.93,5.933-4.656,0-3.407-2.64-4.116-5.621-4.627Zm121.845-6.586L271.946,293.9,266.41,281.07h-2.271l6.615,15.557-2.072,6.1h2.3l7.949-21.661h-2.243Zm-103.477,0L168.468,293.9l-5.536-12.832h-2.271l6.615,15.557-2.072,6.1h2.3l7.949-21.661h-2.243Zm107.565-4.258h-.568V276.5h1.448v.312h-.568v1.59h-.341v-1.59Zm1.533.568h0l-.028,1.022h-.341v-1.93l.085-.028.88,1.334h.028l.88-1.334.085.028v1.93h-.341V277.38h-.028l-.6.852h-.085Zm0,0" transform="translate(-86.864 -7.448)" fill="#3b3c39"></path></g></g></svg> 