<?xml version="1.0" encoding="UTF-8"?> <svg xmlns="http://www.w3.org/2000/svg" xmlns:xlink="http://www.w3.org/1999/xlink" width="180" height="49" viewBox="0 0 180 49"><defs><clipPath id="clip-logo-stripe"><rect width="180" height="49"></rect></clipPath></defs><g id="logo-stripe" clip-path="url(#clip-logo-stripe)"><rect width="180" height="49" fill="rgba(255,255,255,0)"></rect><path id="acae11179ce6f38fd6ebad97526fb7bc" d="M40.56,15.034h5.995v20.8H40.56ZM15.143,29.772c0-7.185-9.127-5.891-9.127-8.611l0,.007c0-.939.781-1.3,2.032-1.319A13.258,13.258,0,0,1,13.993,21.4V15.722a15.767,15.767,0,0,0-5.927-1.1C3.225,14.622,0,17.173,0,21.437c0,6.679,9.073,5.594,9.073,8.475,0,1.111-.953,1.48-2.286,1.48A14.945,14.945,0,0,1,.254,29.464V34.9a16.451,16.451,0,0,0,6.518,1.369C11.732,36.262,15.143,34.115,15.143,29.772Zm25.4-16.566,5.995-1.29V7L40.542,8.29ZM59.01,14.629a6.665,6.665,0,0,0-4.676,1.888l-.308-1.494H48.769v27.81l5.966-1.279.014-6.816a6.646,6.646,0,0,0,4.221,1.523c4.275,0,8.17-3.15,8.17-10.807.014-7.009-3.934-10.825-8.131-10.825Zm-1.423,16.63a3.547,3.547,0,0,1-2.809-1.14l-.039-8.962a3.572,3.572,0,0,1,2.849-1.2c2.175,0,3.68,2.472,3.68,5.622.018,3.247-1.462,5.676-3.68,5.676Zm19.784-16.63c-5.672,0-9.127,4.873-9.127,11.015,0,7.263,4.071,10.621,9.879,10.621A13.254,13.254,0,0,0,84.735,34.7V30.166A12.523,12.523,0,0,1,78.876,31.5c-2.326,0-4.368-.828-4.637-3.651H85.918c.025-.312.079-1.577.079-2.157h0c0-6.181-2.956-11.058-8.629-11.058ZM74.186,23.4c0-2.716,1.656-3.856,3.146-3.856,1.466,0,3.024,1.143,3.024,3.856ZM26.7,20.169V15.034H22.174l-.014-5.228-5.823,1.251-.025,19.336c0,3.573,2.662,5.88,6.2,5.88a9.227,9.227,0,0,0,4.2-.8v-4.59c-.767.312-4.529,1.426-4.529-2.132V20.165H26.7Zm12.416.408v-5.54a4.055,4.055,0,0,0-4.984,1.777l-.366-1.777h-5.16v20.8h5.956v-14a4.217,4.217,0,0,1,4.554-1.261Z" transform="translate(47 -0.417)" fill="#646fde"></path></g></svg> 