<?xml version="1.0" encoding="UTF-8"?> <svg xmlns="http://www.w3.org/2000/svg" xmlns:xlink="http://www.w3.org/1999/xlink" version="1.1" id="Layer_1" x="0px" y="0px" viewBox="0 0 180 60" style="enable-background:new 0 0 180 60;" xml:space="preserve"> <style type="text/css"> .st0{fill:#FFFFFF;} </style> <g> <path class="st0" d="M28.9,20.1v28.2L26.1,50l-2.8-1.7V20.1l-7.2,4.4v24.1l10,6.1l10.1-6.1V24.5L28.9,20.1z M26.1,5.2l-21,12.7V42 l5.4,3.2V21.1L26,11.7l15.5,9.4h0.1v24.1L47,42V17.9L26.1,5.2z"></path> <path class="st0" d="M79.2,41.2l-1.4-18.5l-7.3,18.6H68l-7.3-18.6l-1.4,18.5h-3L58.2,18h3.9l7.2,19l7.2-19h3.9l1.8,23.2H79.2z M94.4,33c-5.9,0.6-7.2,2.2-7.2,3.8c0,0.3,0,0.6,0.2,0.9c0.1,0.3,0.3,0.5,0.5,0.7s0.5,0.4,0.8,0.4C89,39,89.3,39,89.6,39 c0.9,0,1.8-0.3,2.6-0.6c0.8-0.4,1.6-0.9,2.2-1.6C94.4,36.8,94.4,33,94.4,33z M95,41.2L94.6,39c-0.7,0.8-1.6,1.4-2.6,1.8 c-1,0.4-2,0.6-3.1,0.6c-2.9,0-4.7-1.7-4.7-4.5c0-4,3.4-5.6,10.1-6.3v-0.7c0-2-1.2-2.7-3.1-2.7c-1.9,0.1-3.8,0.5-5.5,1.4L85.3,26 c2-0.9,4.1-1.3,6.2-1.3c3.9,0,5.8,1.6,5.8,5.1V41L95,41.2L95,41.2z M106.4,27c-0.4,0-0.9,0.1-1.3,0.3c-0.4,0.2-0.8,0.4-1.1,0.8 c-0.3,0.3-0.5,0.7-0.7,1.1c-0.1,0.4-0.2,0.9-0.2,1.3s0.1,0.9,0.2,1.3c0.2,0.4,0.4,0.8,0.7,1.1c0.3,0.3,0.7,0.6,1.1,0.7 c0.4,0.2,0.8,0.2,1.3,0.2c0.9,0,1.7-0.4,2.3-1.1c0.6-0.6,0.9-1.5,0.9-2.3s-0.3-1.7-0.9-2.3S107.2,27,106.4,27 M102,42.9 c0,1.3,1.6,2.2,4.8,2.2s4.9-1.1,4.9-2.4c0-1-0.7-1.6-3-2l-1.9-0.3c-0.9-0.2-1.3-0.3-2-0.4C102.8,40.9,102,41.8,102,42.9 M114.6,24.9l0.4,2.7l-3.1,0.3c0.4,0.8,0.7,1.6,0.6,2.5c0,3.4-2.9,5.5-6.2,5.5c-0.4,0-0.8,0-1.2-0.1c-0.5,0.3-0.8,0.7-0.8,1 c0,0.6,0.6,0.7,3.4,1.2l1.1,0.2c3.4,0.6,5.5,1.7,5.5,4.2c0,3.4-3.7,4.9-7.8,4.9S99,46,99,43.2c0-1.6,1.1-2.9,3.4-4.1 c-0.3-0.2-0.5-0.4-0.7-0.7s-0.3-0.6-0.3-1c0-0.8,0.6-1.5,1.7-2.2c-0.9-0.4-1.7-1.1-2.2-1.9c-0.5-0.8-0.8-1.8-0.8-2.8 c0-3.5,2.9-5.6,6.2-5.6c1.5,0,3,0.4,4.1,1.3L114.6,24.9L114.6,24.9z M122,27.1c-1.8,0-3.4,1.3-3.9,4.1h7.7 C125.4,28.6,124.3,27.1,122,27.1 M128.8,33.5h-10.9c0.1,3.7,1.9,5.5,4.7,5.5c2.1,0,4.2-0.9,5.8-2.3l0.4,2.7 c-1.8,1.4-4.1,2.2-6.4,2.1c-4.2,0-7.4-2.5-7.4-8.4c0-5.1,3-8.3,7.1-8.3c4.7,0,6.8,3.6,6.8,8L128.8,33.5L128.8,33.5z M141.5,41.2 v-11c0-1.6-0.7-2.8-2.5-2.8c-1.6,0-3.2,1-4.6,2.6v11.1h-3v-16h2.4l0.4,2.3c1.5-1.6,3.5-2.5,5.7-2.7c3,0,4.6,1.8,4.6,4.7v11.7 L141.5,41.2L141.5,41.2z M153.3,41.4c-2.8,0-4.7-1-4.7-4.2v-9.6h-2.4v-2.5h2.4v-5.3l2.9-0.4v5.8h3.5l0.4,2.5h-3.9v9 c0,1.3,0.5,2.1,2.2,2.1c0.5,0,0.9,0,1.4-0.1l0.4,2.6C154.8,41.4,154,41.4,153.3,41.4 M163.2,27.3c-2.9,0-4.3,2.5-4.3,5.9 c0,3.3,1.5,5.9,4.3,5.9c3,0,4.4-2.5,4.4-5.9C167.6,29.9,166.1,27.3,163.2,27.3z M163.2,41.5c-4.3,0-7.4-3.1-7.4-8.3 s3.1-8.4,7.4-8.4c4.3,0,7.5,3.1,7.5,8.4S167.5,41.5,163.2,41.5 M172.8,24.6h-0.3v0.7h0.3c0.3,0,0.4-0.1,0.4-0.3 S173,24.6,172.8,24.6 M173.4,26.6l-0.7-1h-0.2v1h-0.4v-2.3h0.7c0.5,0,0.8,0.2,0.8,0.7c0,0.1,0,0.3-0.1,0.4s-0.2,0.2-0.3,0.2 l0.7,0.9L173.4,26.6z M172.8,23.6c-0.4,0-0.7,0.1-1.1,0.3c-0.3,0.2-0.6,0.5-0.7,0.8c-0.2,0.3-0.2,0.7-0.1,1.1 c0.1,0.4,0.2,0.7,0.5,1s0.6,0.5,0.9,0.5c0.4,0.1,0.7,0,1.1-0.1c0.3-0.1,0.6-0.4,0.8-0.7c0.2-0.3,0.3-0.7,0.3-1c0-0.2,0-0.5-0.1-0.7 s-0.2-0.4-0.4-0.6s-0.4-0.3-0.6-0.4C173.3,23.6,173,23.6,172.8,23.6z M172.8,27.5c-0.3,0-0.5,0-0.8-0.1s-0.5-0.3-0.7-0.5 s-0.3-0.4-0.4-0.7c-0.1-0.3-0.1-0.5-0.1-0.8c0-0.4,0.1-0.8,0.4-1.1c0.2-0.3,0.6-0.6,0.9-0.7c0.4-0.1,0.8-0.2,1.2-0.1s0.8,0.3,1,0.6 c0.3,0.3,0.5,0.7,0.5,1c0.1,0.4,0,0.8-0.1,1.2c-0.2,0.4-0.4,0.7-0.8,0.9C173.6,27.4,173.2,27.5,172.8,27.5z"></path> </g> </svg> 