<?xml version="1.0" encoding="UTF-8"?> <svg xmlns="http://www.w3.org/2000/svg" xmlns:xlink="http://www.w3.org/1999/xlink" version="1.1" id="Layer_1" x="0px" y="0px" viewBox="0 0 180 49" style="enable-background:new 0 0 180 49;" xml:space="preserve"> <style type="text/css"> .st0{fill:#FBC600;} .st1{fill:#FFFFFF;} </style> <g> <path id="Path_37636" class="st0" d="M21.7,42.2h-6.8V6.8h6.8L21.7,42.2z M11.6,24.5H4.8v17.7h6.8V24.5z M31.7,6.8h-6.8v17.7h6.8 V6.8z"></path> <path id="Path_37637" class="st1" d="M81.2,22.8v9.5H79v-9.5c0-2.9-1.2-4.2-3.7-4.2c-2.4-0.1-4.5,1.7-4.6,4.2c0,0.1,0,0.2,0,0.3 v9.3h-2.2V16.7h2.2v1.7c1.3-1.3,3-1.9,4.7-1.9C79.2,16.4,81.2,18.7,81.2,22.8L81.2,22.8z M107.1,16.4c-1.8,0-3.5,0.7-4.7,1.9V9.8 h-2.2v22.5h2.2v-9.3c0-2.4,1.9-4.4,4.3-4.4c0.1,0,0.2,0,0.3,0c2.5,0,3.7,1.3,3.7,4.2v9.5h2.2v-9.5 C112.9,18.7,110.8,16.4,107.1,16.4L107.1,16.4z M139.6,24.4v0.2c0,4.5-3.2,7.9-7.5,7.9c-4.2-0.1-7.5-3.5-7.5-7.7c0-0.1,0-0.1,0-0.2 v-0.2c0-4.5,3.2-7.9,7.5-7.9C136.5,16.5,139.6,19.8,139.6,24.4L139.6,24.4z M137.4,24.6v-0.2c0-3.4-2.2-5.8-5.2-5.8 s-5.3,2.5-5.3,5.8v0.2c0,3.4,2.2,5.8,5.3,5.8C135.3,30.4,137.4,28,137.4,24.6L137.4,24.6z M149,16.4c-1.8,0-3.5,0.7-4.7,1.9v-1.7 h-2.2v15.6h2.2v-9.3c0-2.4,1.9-4.4,4.3-4.4c0.1,0,0.2,0,0.3,0c2.5,0,3.7,1.3,3.7,4.2v9.5h2.2v-9.5C154.8,18.7,152.7,16.4,149,16.4 L149,16.4z M90.9,30.4c-3.1,0-5.3-2.4-5.3-5.8v-0.2c0-3.4,2.2-5.8,5.3-5.8c2,0,3.9,1.2,4.7,3h2.4c-0.9-3.1-3.8-5.1-7-5.1 c-4.3,0-7.5,3.4-7.5,7.9v0.2c-0.2,4.2,3.1,7.8,7.3,7.9c0,0,0.1,0,0.1,0c3.5,0,6.6-2.5,7.3-6h-2.3C95.3,28.9,93.2,30.5,90.9,30.4 L90.9,30.4z M123,16.4c-1.8,0-3.5,0.7-4.7,1.9v-1.7h-2.2v15.6h2.2v-9.3c0-2.4,1.9-4.4,4.3-4.4c0.1,0,0.2,0,0.3,0 c0.5,0,1,0.1,1.5,0.2v-2.2C123.9,16.5,123.5,16.4,123,16.4L123,16.4z M46.1,23.2c-3.5-0.6-4.1-1.2-4.1-2.5c0-1.4,1.4-2.3,3.4-2.3 c2.1,0,3.3,0.8,3.7,2.4l0,0.1h2.3l-0.1-0.3c-0.5-2.8-2.6-4.3-5.9-4.3s-5.7,1.8-5.7,4.3c0,3.3,2.8,4,5.8,4.5 c2.9,0.5,3.8,0.9,3.8,2.6c0,1.6-1.4,2.6-3.6,2.6c-3,0-4-1.6-4.2-3h-2.3c0.3,3.1,2.8,5.1,6.5,5.1c3.5,0,5.9-1.9,5.9-4.7 C51.7,24.5,49.1,23.8,46.1,23.2L46.1,23.2z M168,16.7l-4.7,12.8l-5.5-12.8h-2.3l6.6,15.6l-2.1,6.1h2.3l7.9-21.7L168,16.7L168,16.7z M64.5,16.7l-4.7,12.8l-5.5-12.8h-2.3l6.6,15.6l-2.1,6.1h2.3l7.9-21.7L64.5,16.7L64.5,16.7z M172,12.4h-0.6v-0.3h1.4v0.3h-0.6V14 H172L172,12.4L172,12.4z M173.6,13L173.6,13l0,1h-0.3v-1.9l0.1,0l0.9,1.3h0l0.9-1.3l0.1,0V14h-0.3v-1h0l-0.6,0.9h-0.1L173.6,13z"></path> </g> </svg> 