<?xml version="1.0" encoding="UTF-8"?> <svg xmlns="http://www.w3.org/2000/svg" xmlns:xlink="http://www.w3.org/1999/xlink" version="1.1" id="Layer_1" x="0px" y="0px" viewBox="0 0 180 60" style="enable-background:new 0 0 180 60;" xml:space="preserve"> <style type="text/css"> .st0{fill:#FFFFFF;} </style> <g> <path class="st0" d="M40.5,15.5c0-0.1-0.1-0.2-0.1-0.3c-0.1-0.1-0.2-0.1-0.3-0.1l-4-0.3L33.2,12c-0.2-0.1-0.3-0.2-0.5-0.2 s-0.4,0-0.5,0l-1.5,0.4c-0.9-2.4-2.4-4.7-5.2-4.7c-0.1,0-0.1,0-0.2,0c-0.3-0.4-0.7-0.8-1.1-1c-0.5-0.2-0.9-0.4-1.5-0.4 c-6.4,0-9.4,7.6-10.4,11.5c-2.5,0.7-4.2,1.3-4.5,1.3c-1.4,0.4-1.4,0.5-1.6,1.7c-0.1,1-3.8,27.8-3.8,27.8l28.2,5.1l15.2-3.2l0,0 L40.5,15.5z M24.4,9.7c0.5,1.3,0.7,2.7,0.6,4.1v0.3l-4.9,1.5C21.1,12,22.8,10.3,24.4,9.7z M22.5,8c0.3,0,0.6,0.1,0.8,0.3 c-2,0.9-4.2,3.2-5.2,7.9l-3.9,1.2C15.4,13.7,17.9,8,22.5,8z M23.6,28.2c-1.1-0.6-2.4-0.9-3.7-0.9c-3,0-3.1,1.9-3.1,2.3 c0,2.6,6.7,3.5,6.7,9.5c0,4.7-3,7.8-7,7.8c-1.4,0-2.7-0.2-4-0.7s-2.4-1.3-3.3-2.3l1.3-4.3c0,0,2.5,2.2,4.7,2.2c0.3,0,0.5,0,0.8-0.1 c0.2-0.1,0.5-0.2,0.6-0.4c0.2-0.2,0.3-0.4,0.4-0.6c0.1-0.2,0.2-0.5,0.1-0.8c0-3.3-5.5-3.5-5.5-9c0-4.6,3.3-9.1,10-9.1 c1.3-0.1,2.6,0.2,3.8,0.7L23.6,28.2z M26.7,13.6v-0.5c0-1.3-0.2-2.5-0.6-3.7c1.4,0.2,2.4,1.7,3,3.5L26.7,13.6z"></path> <path class="st0" d="M40.1,15.4l-4-0.3l-2.9-2.8c-0.1-0.1-0.3-0.2-0.4-0.2l-2.1,41.5L46,50.5c0,0-5.4-34.5-5.4-34.8 c0-0.1-0.1-0.2-0.1-0.3C40.3,15.4,40.2,15.4,40.1,15.4L40.1,15.4z"></path> <path class="st0" d="M171.3,22.8l-3.7,9.5c-0.2,0.4-0.4,0.8-0.6,1.2c-0.2,0.4-0.4,0.8-0.5,1.2c-0.3,0.8-0.6,1.7-0.8,2.5 c0-0.5-0.1-1-0.2-1.4c-0.2-1.2-0.3-2-0.5-3.5l-1-9.5h-6.4l3.7,19.5c0,0.1,0,0.2,0,0.3c0,0.2,0,0.4-0.2,0.5c-0.3,0.6-0.6,1.1-1,1.6 c-0.3,0.3-0.5,0.6-0.8,0.9c-0.3,0.3-0.6,0.6-0.9,0.8c-0.2,0.1-0.3,0.2-0.5,0.4c-1.1,0.7-2.3,1.2-3.5,1.7l1.7,5.1l0,0 c0.3-0.1,0.5-0.2,0.8-0.3c1.9-0.7,3.7-1.7,5.2-3c2.9-2.7,5.3-6.6,8-11.9l7.4-15.7L171.3,22.8L171.3,22.8z M157.5,12.5 c-0.4,0-0.8-0.1-1.2,0h-0.2l0,0c-2.1,0-4.1,0.7-5.8,2.1c-1.9,1.9-3.1,4.3-3.5,7l-0.2,1.2h-2.9l-0.8,4.1h2.9l-3.3,16.5h5.8l3.3-16.5 h4.1l0.8-4.1h-4.1l0.6-1.4c0.1-1.1,0.5-2.3,1.3-3.1c0,0,0-0.1,0.1-0.1c0.6-0.6,1.3-1,2.2-1c0.6,0,1.2,0.2,1.7,0.4 c0,0,0.1,0,0.1,0.1l1.2-4.7C158.9,12.7,158.2,12.6,157.5,12.5z M142.7,16.4c-0.1-0.7-0.4-1.4-0.9-1.9c-0.6-0.6-1.4-1-2.2-1 c-0.5,0-1,0.1-1.4,0.3s-0.8,0.5-1.2,0.8c-0.3,0.3-0.6,0.8-0.7,1.2c-0.2,0.4-0.2,0.9-0.2,1.4c0,1.9,1.2,3.5,2.9,3.5h0.1 c1-0.1,1.8-0.5,2.5-1.2s1.1-1.7,1.1-2.7C142.7,16.7,142.7,16.6,142.7,16.4z M135.3,22.8l-4.1,20.6h6.2l4.1-20.6 C141.5,22.8,135.3,22.8,135.3,22.8z M124.5,21.6L124.5,21.6c-1.3,0-2.6,0.3-3.7,0.9c-1,0.5-1.8,1.2-2.5,2c-0.1,0.1-0.2,0.2-0.3,0.3 l0.3-1.8l0.1-0.3h-5.3c-0.2,2.1-0.8,5-1.2,7.4l-4.1,21.4h6.2l1.7-8.2h0.2c0.3,0,0.7,0.2,1.2,0.3c0.5,0.2,1.1,0.3,1.6,0.3 c0.1,0,0.2,0,0.3,0c7,0,11.7-7.2,11.7-14.6C130.6,25.5,128.8,21.6,124.5,21.6z M118.8,39.7c-0.4,0-0.9,0-1.3-0.2 c-0.4-0.1-0.8-0.4-1.2-0.7l1-5.8c0.6-3.7,2.7-6.2,4.7-6.2c1.8,0,2.5,1.7,2.5,3.3C124.6,34.1,122.1,39.7,118.8,39.7z M109.1,28 c-0.1-0.5-0.3-1-0.5-1.5c-1.1-2.5-3.4-4.5-6.9-4.6c-0.1,0-0.3,0-0.4,0h-0.1c-7.3,0.1-11.9,6.4-11.9,13.8c0,4.7,2.9,8.5,8.2,8.5 c7.2,0,11.9-6.4,11.9-13.8C109.3,29.6,109.3,28.8,109.1,28z M98,39.7c-2.1,0-2.9-1.6-2.9-3.9c0-2.6,1-6.4,2.9-8.2 c0.1-0.1,0.3-0.3,0.5-0.4c0.5-0.4,1-0.6,1.6-0.6c2.3,0,2.9,1.8,2.9,3.7C103,33.9,101.3,39.7,98,39.7z M82.4,22 c-1.2,0-2.4,0.3-3.5,0.8s-2.1,1.3-2.8,2.3v-0.2L78.2,13l0.1-0.5h-6l-5.9,30.7h6.1l2.1-10.3c0.5-2.2,1.3-3.9,2.3-4.9 c0.8-0.8,1.6-1.2,2.4-1.2c0.5,0,1,0.2,1.3,0.5c0.4,0.4,0.6,1.1,0.6,1.7c0,0.8,0,1.7-0.2,2.5l-2.3,11.9h6L87,31.3 c0.2-1.2,0.4-2.5,0.4-3.7C87.3,24,85.5,22,82.4,22z M66.3,43.4v-0.2l0,0V43.4z M61.4,26.5c1.3,0,2.5,0.3,3.7,0.8l1.4-4.3 c-1.6-0.8-3.4-1.1-5.2-1c-5.2,0-8.8,2.9-8.8,7.2c0,1.5,0.6,2.9,1.7,3.9c0.6,0.6,1.4,1.2,2.2,1.7c0.2,0.1,0.4,0.2,0.6,0.4 c0.3,0.2,0.5,0.4,0.8,0.5c0.8,0.6,1.1,1.3,1.1,2c0,1.2-1,2.1-2.7,2.1c-1.7,0.1-3.4-0.3-4.9-1.2l-1.4,4.3l0,0 c0.2,0.1,0.4,0.2,0.7,0.3c0.4,0.2,0.9,0.4,1.4,0.5l0,0c0.5,0.1,0.9,0.3,1.4,0.4c0.8,0.2,1.7,0.2,2.5,0.2c5.4,0.2,9.3-2.7,9.3-7.4 c0-2.5-2.1-4.3-4.3-5.8c-1.4-0.8-2.3-1.4-2.3-2.5C58.5,27.3,59.7,26.5,61.4,26.5z"></path> <path class="st0" d="M171.3,22.8l-3.7,9.5c-0.2,0.4-0.4,0.8-0.6,1.2c-0.2,0.4-0.4,0.8-0.5,1.2c-0.3,0.8-0.6,1.7-0.8,2.5 c0-0.5-0.1-1-0.2-1.4c-0.1-1.2-0.3-2.2-0.5-3.8l-1-9.3l-4.1,4.5l1.4,14.8c0,0.2,0,0.3,0,0.5s-0.1,0.4-0.2,0.5 c-0.3,0.6-0.6,1.1-1,1.6c-0.3,0.3-0.5,0.6-0.8,0.9c-0.3,0.3-0.6,0.6-0.9,0.8c-0.2,0.1-0.3,0.2-0.5,0.4c-1.1,0.7-2.3,1.2-3.5,1.7 l1.7,5.1c0.3-0.1,0.5-0.2,0.8-0.2c1.9-0.7,3.7-1.7,5.2-3c2.9-2.7,5.3-6.6,8-11.9l7.4-15.7L171.3,22.8L171.3,22.8z M157.5,12.5 c-0.4-0.1-0.9-0.1-1.3,0h-0.1l-9.3,9.1l-0.2,1.2h-2.9l-0.8,4.1h2.9l-3.3,16.5h5.8l3.3-16.5h4.1l0.8-4.1h-4.1l0.4-1.2 c0.1-1.2,0.6-2.5,1.5-3.3c0,0,0-0.1,0.1-0.1c0.5-0.5,1.2-0.8,1.9-0.8c0.6,0,1.3,0.2,1.9,0.4l0.1-0.2l1.2-4.5 C158.8,12.8,158.1,12.6,157.5,12.5z M142.7,16.4c0-0.3-0.1-0.6-0.2-0.9c-0.1-0.4-0.4-0.8-0.7-1.1s-0.6-0.5-1-0.7s-0.8-0.2-1.2-0.2 l-3.3,3.7c0,1.8,1.2,3.4,2.8,3.5h0.1c0.5,0,1-0.1,1.4-0.4c0.4-0.2,0.8-0.5,1.2-0.9c0.3-0.4,0.6-0.8,0.7-1.2c0.2-0.5,0.2-1,0.2-1.4 C142.7,16.7,142.7,16.6,142.7,16.4z M135.3,27.7l-4.1,15.7h6.2l4.1-20.6L135.3,27.7z M124.6,21.6L124.6,21.6 c-1.3,0-2.5,0.3-3.6,0.9s-2.1,1.4-2.8,2.4l0.1-0.3l0.3-1.7l-0.3,0.3l-6.3,6.7l-4.1,21.8h6l1.7-8.2h0.2c0.3,0,0.7,0.2,1.2,0.3 c0.5,0.2,1,0.3,1.6,0.3c0.2,0,0.3,0,0.5,0c7,0,11.7-7.2,11.7-14.6C130.8,25.5,128.9,21.6,124.6,21.6z M117.5,39.5 c-0.4-0.1-0.8-0.4-1.2-0.7l1-5.8c0.6-3.7,2.7-6.2,4.7-6.2c1.8,0,2.5,1.7,2.5,3.3c0,3.9-2.5,9.5-5.8,9.5 C118.4,39.7,117.9,39.7,117.5,39.5z M109.1,28c-0.1-0.5-0.3-1-0.5-1.5c-1.1-2.5-3.4-4.4-6.9-4.6c-0.1,0-0.3,0-0.4,0h-0.1l0,0 l-12,13.9c0,4.7,2.9,8.5,8.2,8.5c7.2,0,11.9-6.4,11.9-13.8C109.3,29.6,109.3,28.8,109.1,28z M98,39.7c-2.1,0-2.9-1.6-2.9-3.9 c0-2.6,1-6.4,2.9-8.2c0.1-0.1,0.3-0.3,0.5-0.4c0.5-0.4,1-0.6,1.6-0.6c2.3,0,2.9,1.8,2.9,3.7C103,33.9,101.3,39.7,98,39.7z M82.4,22 c-1.2,0-2.4,0.3-3.5,0.8s-2.1,1.3-2.8,2.3l2.3-12.2L78.2,13l-6.5,5.9l-5.3,24.3h6.1l2.1-10.3c0.5-2.2,1.3-3.9,2.3-4.9 c0.8-0.8,1.6-1.3,2.4-1.3c0.6,0,1,0.2,1.3,0.5c0.4,0.4,0.6,1.1,0.6,1.7c0,0.8,0,1.7-0.2,2.5l-2.3,11.9h6L87,31.2 c0.2-1.2,0.4-2.5,0.4-3.7C87.3,24,85.5,22,82.4,22z M66.3,43.4v-0.2l0,0V43.4z M61.4,26.5c1.3,0,2.5,0.3,3.7,0.8l1.4-4.3 c-1.6-0.8-3.4-1.1-5.2-1l-8.8,7.2c0,1.5,0.6,2.9,1.7,3.9c0.6,0.6,1.4,1.2,2.2,1.6c0.2,0.1,0.4,0.2,0.6,0.4c0.3,0.2,0.5,0.4,0.8,0.5 c0.8,0.6,1.1,1.3,1.1,2c0,1.2-1,2.1-2.7,2.1c-1.7,0.1-3.4-0.3-4.9-1.2l-1.4,4.3c0.2,0.1,0.4,0.2,0.7,0.3c0.4,0.2,0.9,0.4,1.4,0.5 l0,0c0.5,0.1,0.9,0.3,1.4,0.4c0.8,0.2,1.7,0.2,2.5,0.2c5.4,0.2,9.3-2.7,9.3-7.4c0-2.5-2.1-4.3-4.3-5.8c-1.4-0.8-2.3-1.4-2.3-2.5 C58.5,27.3,59.7,26.5,61.4,26.5z"></path> </g> </svg> 