<?xml version="1.0" encoding="UTF-8"?> <svg xmlns="http://www.w3.org/2000/svg" xmlns:xlink="http://www.w3.org/1999/xlink" width="180" height="49" viewBox="0 0 180 49"><defs><clipPath id="clip-logo-klevu"><rect width="180" height="49"></rect></clipPath></defs><g id="logo-klevu" clip-path="url(#clip-logo-klevu)"><rect width="180" height="49" fill="rgba(255,255,255,0)"></rect><g id="Klevu" transform="translate(-57.847 -178.086)"><path id="Path_37629" data-name="Path 37629" d="M221.3,190.2v10.831h.739L234.7,190.2h4.965l-14.642,11.778L241.048,215.3H236.06L221.3,202.925V215.3H218V190.2Z" transform="translate(-119.225 -0.154)" fill="#0e4664"></path><path id="Path_37630" data-name="Path 37630" d="M338.8,215.3V190.2h3.349v22.309h16.4V215.3Z" transform="translate(-212.127 -0.154)" fill="#0e4664"></path><path id="Path_37631" data-name="Path 37631" d="M465.123,190.2v2.517H448.449v8.106H463.83v2.54H451.751l-3.3-1.871v11.016h16.674V215.3H445.1V190.2Z" transform="translate(-293.878 -0.154)" fill="#0e4664"></path><path id="Path_37632" data-name="Path 37632" d="M696.249,190v17.205a4.611,4.611,0,0,0,1.663,3.626,5.778,5.778,0,0,0,4,1.5h6.282a5.835,5.835,0,0,0,4.019-1.5,4.761,4.761,0,0,0,1.663-3.626V190h3.3v17.806a7.194,7.194,0,0,1-2.425,5.219,8,8,0,0,1-5.681,2.125h-8.037a8.436,8.436,0,0,1-5.774-2.125,6.792,6.792,0,0,1-2.356-5.219V190Z" transform="translate(-484.45 0)" fill="#0e4664"></path><path id="Path_37633" data-name="Path 37633" d="M63.163,240.65a1.2,1.2,0,0,0,.3,1.617,1.156,1.156,0,0,0,1.617-.3l8.545-12.379,8.522,12.379a1.163,1.163,0,1,0,1.917-1.316l-9.469-13.764-.947-1.386-.947,1.386Z" transform="translate(0 -27.302)" fill="#98c341"></path><path id="Path_37634" data-name="Path 37634" d="M75.263,201.131a1.2,1.2,0,0,0,.3,1.617,1.177,1.177,0,0,0,1.617-.3l5.774-8.337,5.727,8.291a1.153,1.153,0,0,0,2.009-1.132.7.7,0,0,0-.115-.162l-6.7-9.723L82.931,190l-.947,1.386Z" transform="translate(-9.306)" fill="#98c341"></path><path id="Path_37635" data-name="Path 37635" d="M577.1,190l-10.3,22.1L556.572,190H552.9l11.64,25.15h4.55L580.752,190Z" transform="translate(-376.783 0)" fill="#0e4664"></path></g></g></svg> 