<?xml version="1.0" encoding="UTF-8"?> <svg xmlns="http://www.w3.org/2000/svg" xmlns:xlink="http://www.w3.org/1999/xlink" width="989" height="300" viewBox="0 0 989 300"><defs><clipPath id="clip-logo-workolpolis-white"><rect width="989" height="300"></rect></clipPath></defs><g id="logo-workolpolis-white" clip-path="url(#clip-logo-workolpolis-white)"><rect width="989" height="300" fill="rgba(255,255,255,0)"></rect><g id="Workopolis_logo" transform="translate(-414 1)"><path id="Path_44420" data-name="Path 44420" d="M941.934,390.433h-22.7l-17.766-17.766H885.619v17.766H869.5V314.5h37.246a28.984,28.984,0,0,1,13.787,54.531ZM919.71,343.583a13,13,0,0,0-12.964-12.964H885.688v25.86h21.058a12.9,12.9,0,0,0,12.964-12.9" transform="translate(-154.365 -133.636)" fill="#387c2b"></path><path id="Path_44421" data-name="Path 44421" d="M1014.019,390.433H997.9V314.5h16.119v32.307l32.307-32.307h22.7l-36.354,36.354,39.51,39.578h-22.5l-35.668-35.463Z" transform="translate(-194.691 -133.636)" fill="#387c2b"></path><path id="Path_44422" data-name="Path 44422" d="M1318.229,343.583a29.187,29.187,0,0,1-29.083,29.083h-21.127v17.766H1251.9V314.5h37.246a29.187,29.187,0,0,1,29.083,29.083m-16.119,0a13,13,0,0,0-12.964-12.964h-21.127v25.86h21.127a12.9,12.9,0,0,0,12.964-12.9" transform="translate(-274.465 -133.636)" fill="#387c2b"></path><path id="Path_44423" data-name="Path 44423" d="M1511.4,314.5h16.188v59.813h32.239v16.119H1511.4Z" transform="translate(-355.966 -133.636)" fill="#387c2b"></path><path id="Path_44424" data-name="Path 44424" d="M1698.256,391.225a57.92,57.92,0,0,1-31.553-8.986l2.332-13.376c10.289,4.8,19.892,7.545,28.055,7.545,6.859,0,14.267-1.921,14.267-8.163,0-12.072-45.957-7.545-45.957-33.268,0-12.484,12.964-22.979,29.495-22.979,11.181,0,22.087,3.224,32.719,9.877l-5.693,12.072c-7.545-3.91-17.148-7.134-24.694-7.134-8.986,0-13.239,2.881-13.239,7.408,0,11.181,45.82,8.574,45.82,32.307,0,15.845-14.953,24.694-31.553,24.694" transform="translate(-404.332 -132.851)" fill="#387c2b"></path><rect id="Rectangle_4145" data-name="Rectangle 4145" width="15.982" height="75.933" transform="translate(1225.125 180.864)" fill="#387c2b"></rect><path id="Path_44425" data-name="Path 44425" d="M648.957,314.5l-21.058,45-17.56-37.658h-3.567L589.212,359.5l-21.127-45H550.8l36.629,75.933h3.361l17.766-36.766,17.7,36.766h3.224L666.242,314.5Z" transform="translate(-54.271 -133.636)" fill="#387c2b"></path><path id="Path_44426" data-name="Path 44426" d="M795.573,322.167a38.872,38.872,0,0,0-28.4-11.867A39.406,39.406,0,0,0,738.5,322.029a38.247,38.247,0,0,0-12,28.123c0,12.347,4.459,22.5,13.17,30.181a40.853,40.853,0,0,0,55.766-1.3,39.994,39.994,0,0,0,.137-56.864M766.764,374.64c-6.173,0-11.524-2.264-16.325-6.859-4.733-4.6-7.065-10.289-7.065-17.423a23.119,23.119,0,0,1,6.859-17.011,23.847,23.847,0,0,1,33.611,0,24.865,24.865,0,0,1-.137,34.3,22.463,22.463,0,0,1-16.943,7" transform="translate(-109.453 -132.317)" fill="#387c2b"></path><path id="Path_44427" data-name="Path 44427" d="M1437.273,322.167a38.872,38.872,0,0,0-28.4-11.867,39.406,39.406,0,0,0-28.672,11.729,38.246,38.246,0,0,0-12,28.123c0,12.347,4.458,22.5,13.17,30.181a40.853,40.853,0,0,0,55.766-1.3,39.994,39.994,0,0,0,.137-56.864M1408.4,374.64a22.577,22.577,0,0,1-16.325-6.859c-4.8-4.6-7.065-10.289-7.065-17.423a23.119,23.119,0,0,1,6.859-17.011,23.847,23.847,0,0,1,33.611,0,24.865,24.865,0,0,1-.137,34.3,22.463,22.463,0,0,1-16.943,7" transform="translate(-310.991 -132.317)" fill="#387c2b"></path><path id="Path_44428" data-name="Path 44428" d="M1179.373,322.167a38.872,38.872,0,0,0-28.4-11.867,39.406,39.406,0,0,0-28.672,11.729,38.246,38.246,0,0,0-12,28.123c0,12.347,4.459,22.5,13.239,30.181a40.853,40.853,0,0,0,55.766-1.3,38.238,38.238,0,0,0,11.935-28.4,38.914,38.914,0,0,0-11.867-28.466M1150.5,374.64a22.577,22.577,0,0,1-16.325-6.859c-4.733-4.6-7.065-10.289-7.065-17.423a23.12,23.12,0,0,1,6.859-17.011,23.847,23.847,0,0,1,33.611,0,24.865,24.865,0,0,1-.137,34.3,22.463,22.463,0,0,1-16.943,7" transform="translate(-229.993 -132.317)" fill="#387c2b"></path><g id="Group_2895" data-name="Group 2895" transform="translate(732.078 6.912)"><path id="Path_44429" data-name="Path 44429" d="M906.067,216.5H894.2v39.167c3.841-1.509,7.751-2.881,11.867-4.253V216.5Z" transform="translate(-894.2 -109.769)" fill="#00a94f"></path><path id="Path_44430" data-name="Path 44430" d="M923.367,230.467V161.6H911.5v72.572C915.341,232.868,919.32,231.634,923.367,230.467Z" transform="translate(-899.633 -92.527)" fill="#7ac143"></path><path id="Path_44431" data-name="Path 44431" d="M970,234.35V201.7H946.2v38.069C953.814,237.78,961.771,236,970,234.35Z" transform="translate(-910.532 -105.121)" fill="#c1d82f"></path><path id="Path_44432" data-name="Path 44432" d="M992.767,224.989V179.1H980.9v48.084C984.81,226.429,988.72,225.675,992.767,224.989Z" transform="translate(-921.43 -98.023)" fill="#7ac143"></path><path id="Path_44433" data-name="Path 44433" d="M1022,210.361V144.1H998.2V214C1005.951,212.625,1013.839,211.458,1022,210.361Z" transform="translate(-926.863 -87.031)" fill="#439539"></path><path id="Path_44434" data-name="Path 44434" d="M1305.067,225.831V182H1293.2v41.842C1297.178,224.459,1301.157,225.145,1305.067,225.831Z" transform="translate(-1019.513 -98.934)" fill="#7ac143"></path><path id="Path_44435" data-name="Path 44435" d="M1200.935,216.687V178H1189v38.138C1193.047,216.344,1197.025,216.549,1200.935,216.687Z" transform="translate(-986.788 -97.677)" fill="#00a94f"></path><path id="Path_44436" data-name="Path 44436" d="M1264.9,218.3V169.6h-23.8v46.095C1249.194,216.449,1257.151,217.341,1264.9,218.3Z" transform="translate(-1003.151 -95.039)" fill="#c1d82f"></path><path id="Path_44437" data-name="Path 44437" d="M1351.7,240.135V203.3h-23.8v31.416C1336.131,236.362,1344.088,238.145,1351.7,240.135Z" transform="translate(-1030.412 -105.623)" fill="#00a94f"></path><path id="Path_44438" data-name="Path 44438" d="M1409.167,255.461V216.5H1397.3v34.708C1401.347,252.58,1405.325,254.02,1409.167,255.461Z" transform="translate(-1052.208 -109.769)" fill="#387c2b"></path><path id="Path_44439" data-name="Path 44439" d="M1062.167,218.276V177.6H1050.3v41.842C1054.21,219.03,1058.188,218.687,1062.167,218.276Z" transform="translate(-943.226 -97.552)" fill="#7ac143"></path><path id="Path_44440" data-name="Path 44440" d="M1114.266,219.535V188.6H1102.4v31.484C1106.31,219.878,1110.22,219.673,1114.266,219.535Z" transform="translate(-959.589 -101.007)" fill="#00a94f"></path><path id="Path_44441" data-name="Path 44441" d="M1149.21,207.692c3.91,0,7.751.069,11.592.069V152.2H1137v55.56C1141.047,207.76,1145.094,207.692,1149.21,207.692Z" transform="translate(-970.456 -89.574)" fill="#c1d82f"></path><path id="Path_44442" data-name="Path 44442" d="M940.767,232.954V180H928.9v56.246C932.741,235.08,936.651,233.983,940.767,232.954Z" transform="translate(-905.098 -98.306)" fill="#439539"></path><path id="Path_44443" data-name="Path 44443" d="M1044.835,198.845V111.8H1032.9v88.417C1036.81,199.736,1040.788,199.256,1044.835,198.845Z" transform="translate(-937.761 -76.886)" fill="#00b1b0"></path><path id="Path_44444" data-name="Path 44444" d="M1091.4,212.861V165.6h-23.8v48.975C1075.42,213.821,1083.376,213.272,1091.4,212.861Z" transform="translate(-948.66 -93.783)" fill="#387c2b"></path><path id="Path_44445" data-name="Path 44445" d="M1131.567,132.2H1119.7v69.691c3.91-.137,7.888-.274,11.867-.343Z" transform="translate(-965.023 -83.293)" fill="#0081c6"></path><path id="Path_44446" data-name="Path 44446" d="M1183.635,194.787V109.8H1171.7v84.713C1175.678,194.581,1179.657,194.65,1183.635,194.787Z" transform="translate(-981.354 -76.258)" fill="#35bdb2"></path><path id="Path_44447" data-name="Path 44447" d="M1218.367,180.664V60.9H1206.5V179.909C1210.479,180.115,1214.388,180.389,1218.367,180.664Z" transform="translate(-992.284 -60.9)" fill="#7ac143"></path><path id="Path_44448" data-name="Path 44448" d="M1235.667,210.9V154.1H1223.8v55.835C1227.778,210.209,1231.757,210.552,1235.667,210.9Z" transform="translate(-997.717 -90.171)" fill="#387c2b"></path><path id="Path_44449" data-name="Path 44449" d="M1287.767,208.452V133H1275.9v73.806C1279.878,207.355,1283.857,207.9,1287.767,208.452Z" transform="translate(-1014.08 -83.544)" fill="#00a4e4"></path><path id="Path_44450" data-name="Path 44450" d="M1322.467,203.089V102.6H1310.6v98.294C1314.578,201.58,1318.557,202.334,1322.467,203.089Z" transform="translate(-1024.978 -73.997)" fill="#439539"></path><path id="Path_44451" data-name="Path 44451" d="M1374.467,236.637V181.9H1362.6v51.445C1366.647,234.442,1370.625,235.54,1374.467,236.637Z" transform="translate(-1041.31 -98.902)" fill="#7ac143"></path><path id="Path_44452" data-name="Path 44452" d="M1391.835,232.552V157.1H1379.9v71.68C1384.016,230.083,1387.925,231.318,1391.835,232.552Z" transform="translate(-1046.743 -91.113)" fill="#00a94f"></path></g><rect id="Rectangle_4146" data-name="Rectangle 4146" width="1062" height="572" transform="translate(378 -111)" fill="none"></rect></g></g></svg> 