<?xml version="1.0" encoding="UTF-8"?> <svg xmlns="http://www.w3.org/2000/svg" xmlns:xlink="http://www.w3.org/1999/xlink" width="180" height="49" viewBox="0 0 180 49"><defs><clipPath id="clip-logo-medallia"><rect width="180" height="49"></rect></clipPath></defs><g id="logo-medallia" clip-path="url(#clip-logo-medallia)"><rect width="180" height="49" fill="rgba(255,255,255,0)"></rect><g id="medallia-inc-logo-vector" transform="translate(-19.65 -253.07)"><path id="Fill-8" d="M512.5,263.376l4.387,4.442,4.359-4.359-4.359-4.359Z" transform="translate(-351.633 0)" fill="#4050c6"></path><path id="Path_37640" data-name="Path 37640" d="M54.1,269.676l-10.787,14.18-10.787-14.18H26.9v32.085h6.18V280.684l10.014,12.553h.331l10.1-12.663v21.188H59.7V269.676Zm96.585,32.057h6.1V267.8l-6.1,1.848Zm-11.311,0h6.1V267.8l-6.1,1.848Zm-35.864-5.242-.248.083a10.43,10.43,0,0,1-2.786.469h-.193a5.457,5.457,0,0,1-3.393-.966c-1.462-1.131-2.179-3.173-2.179-6.125,0-4.552,2.152-7.283,5.766-7.283a8.871,8.871,0,0,1,2.842.524l.221.083v13.215Zm0-18.567-.441-.11a15.194,15.194,0,0,0-3.752-.469,11.068,11.068,0,0,0-7.366,2.51c-2.455,2.179-3.724,5.711-3.724,10.456,0,4.331,1.186,7.532,3.5,9.518,1.9,1.655,4.58,2.483,7.918,2.483a28.546,28.546,0,0,0,9.739-1.931l.166-.055V268.048l-6.014,1.655v8.221Zm58.4,23.808h6.1V277.014l-6.1,1.848Zm-33.988-5.9s-1.517,1.959-5.131,1.959c-2.207,0-3.614-1.214-3.614-3.228,0-2.621,2.648-3.559,5.1-3.559a17.308,17.308,0,0,1,3.669.331v4.5Zm-4.69-18.567A17.129,17.129,0,0,0,115.623,279v4.993h.055a17.107,17.107,0,0,1,7.283-1.6c1.959,0,3.311.414,4.111,1.269.828.883.828,2.621.8,3.669a18.941,18.941,0,0,0-4.111-.469c-6.952,0-10.759,3.007-10.759,7.752s3.973,7.642,8.414,7.642a11.852,11.852,0,0,0,6.9-1.931v1.324h5.849V286.67c0-8.442-6.235-9.408-10.925-9.408Zm62.956,18.567s-1.517,1.959-5.131,1.959c-2.207,0-3.614-1.214-3.614-3.228,0-2.621,2.648-3.559,5.1-3.559a17.308,17.308,0,0,1,3.669.331v4.5Zm-4.718-18.567A17.129,17.129,0,0,0,173.861,279v4.993h.055a17.107,17.107,0,0,1,7.283-1.6c1.959,0,3.311.414,4.111,1.269.828.883.828,2.621.8,3.669a18.941,18.941,0,0,0-4.111-.469c-6.952,0-10.759,3.007-10.759,7.752s3.973,7.642,8.414,7.642a11.852,11.852,0,0,0,6.9-1.931v1.324H192.4V286.67c.028-8.442-6.235-9.408-10.925-9.408ZM69.689,287.636a5.949,5.949,0,0,1,.579-2.621,5.158,5.158,0,0,1,4.635-2.676,4.633,4.633,0,0,1,4.414,2.7,6.51,6.51,0,0,1,.469,2.593Zm15.5,1.793c0-4.359-1.048-7.532-3.145-9.49A10.2,10.2,0,0,0,74.9,277.29a11.494,11.494,0,0,0-7.476,2.648c-2.566,2.207-3.862,5.573-3.862,9.959,0,11.228,8.387,12.442,12,12.442a21.035,21.035,0,0,0,8.083-1.848v-5.076a14.286,14.286,0,0,1-7.09,1.9,7.168,7.168,0,0,1-6.014-3.007,5.953,5.953,0,0,1-.91-2.345H85.111s.083-1.49.083-2.538Z" transform="translate(0 -6.3)" fill="#364045"></path></g></g></svg> 