<?xml version="1.0" encoding="UTF-8"?> <svg xmlns="http://www.w3.org/2000/svg" width="175" height="48" viewBox="0 0 175 48" fill="none"><path d="M38.051 9.22C38.0319 9.11698 37.9791 9.02324 37.9009 8.95353C37.8227 8.88383 37.7235 8.84213 37.619 8.835L33.641 8.551L30.717 5.763C30.5593 5.66152 30.3807 5.59694 30.1946 5.57409C30.0085 5.55123 29.8196 5.57069 29.642 5.631L28.166 6.067C27.285 3.638 25.73 1.4 22.994 1.4C22.918 1.4 22.842 1.4 22.763 1.408C22.4686 0.993956 22.084 0.652116 21.6384 0.408227C21.1927 0.164338 20.6975 0.0247584 20.19 0C13.818 0 10.773 7.634 9.82 11.515C7.343 12.249 5.585 12.772 5.361 12.841C3.977 13.255 3.934 13.297 3.753 14.541C3.615 15.486 0 42.288 0 42.288L28.181 47.349L43.451 44.188L38.051 9.22ZM26.609 6.531L24.225 7.237V6.744C24.2517 5.49017 24.0588 4.24133 23.655 3.054C25.067 3.226 26.006 4.763 26.609 6.531ZM21.909 3.356C22.3851 4.67341 22.603 6.07017 22.551 7.47V7.734L17.629 9.2C18.578 5.692 20.355 4 21.909 3.36V3.356ZM20.015 1.638C20.3075 1.64304 20.5919 1.73493 20.832 1.902C18.79 2.823 16.601 5.142 15.677 9.774L11.784 10.93C12.867 7.4 15.438 1.638 20.015 1.638Z" fill="#95BF46"></path><path d="M37.6241 9.05917L33.6441 8.77617L30.7191 6.00517C30.6041 5.90598 30.4619 5.84362 30.3111 5.82617L28.1801 47.3522L43.4441 44.2062C43.4441 44.2062 38.0871 9.67917 38.0541 9.44117C38.0352 9.33861 37.9826 9.24527 37.9048 9.17591C37.8269 9.10655 37.7281 9.06512 37.6241 9.05817V9.05917Z" fill="#5E8E3E"></path><path d="M22.997 16.2258L21.115 21.8258C19.9711 21.2655 18.7176 20.9647 17.444 20.9448C14.479 20.9448 14.331 22.8058 14.331 23.2738C14.331 25.8308 21 26.8108 21 32.8038C21 37.5188 18.011 40.5528 13.979 40.5528C12.6178 40.5886 11.2643 40.3392 10.0052 39.8209C8.74614 39.3025 7.6094 38.5265 6.66797 37.5428L7.96297 33.2628C7.96297 33.2628 10.506 35.4448 12.651 35.4448C12.9077 35.4559 13.164 35.4144 13.4042 35.3231C13.6444 35.2317 13.8635 35.0924 14.0481 34.9136C14.2326 34.7347 14.3788 34.5201 14.4776 34.2829C14.5765 34.0457 14.6259 33.7908 14.623 33.5338C14.623 30.1968 9.15297 30.0478 9.15297 24.5658C9.15297 19.9518 12.466 15.4868 19.153 15.4868C20.4751 15.4207 21.7936 15.6742 22.997 16.2258Z" fill="white"></path><path d="M48.7931 32.1174C50.2819 33.0081 52.0012 33.4379 53.7341 33.3524C55.3811 33.3524 56.4101 32.5284 56.4101 31.2934C56.4101 30.2644 55.7921 29.4404 53.9391 28.4114C51.6761 27.1764 50.0281 25.3234 50.0281 22.8524C50.0281 18.5284 53.7341 15.6464 58.8811 15.6464C60.6555 15.5585 62.4241 15.9124 64.0281 16.6764L62.5871 21.0004C61.4246 20.4646 60.161 20.1836 58.8811 20.1764C57.2341 20.1764 55.9991 21.0004 55.9991 22.2354C55.9991 23.2644 56.8231 23.8824 58.2641 24.7064C60.5291 26.1474 62.5881 28.0004 62.5881 30.4714C62.5881 35.2064 58.6761 38.0894 53.3231 37.8834C51.2391 37.9495 49.1761 37.4513 47.3521 36.4414L48.7931 32.1174ZM63.8221 37.0584L69.7931 6.17637H75.7641L73.4991 18.5294V18.7354C74.2694 17.782 75.2411 17.0108 76.3444 16.477C77.4477 15.9431 78.6554 15.6598 79.8811 15.6474C82.9691 15.6474 84.8221 17.7064 84.8221 21.2064C84.7755 22.4501 84.6378 23.6888 84.41 24.9124L82.146 37.0584H76.1751L78.4401 25.1174C78.6107 24.3054 78.6799 23.4754 78.646 22.6464C78.646 21.4114 78.0281 20.3814 76.7931 20.3814C74.9401 20.3814 72.8811 22.6464 72.0581 26.5574L69.9991 36.8524H63.8231L63.8221 37.0584ZM106.852 24.0884C106.852 31.5004 102.117 37.8824 94.911 37.8824C89.558 37.8824 86.6761 34.1764 86.6761 29.4414C86.6761 22.0294 91.4111 15.6474 98.8231 15.6474C104.176 15.6474 106.852 19.7654 106.852 24.0884ZM92.646 29.4414C92.646 31.7064 93.4701 33.3534 95.528 33.3534C98.822 33.3534 100.469 27.5884 100.469 23.8824C100.469 22.0294 99.8511 20.1764 97.5871 20.1764C94.4991 20.3824 92.646 25.9414 92.646 29.4414ZM105.205 45.2944L109.323 23.8824C109.735 21.4114 110.352 18.5294 110.558 16.4704H115.911L115.499 18.5294C116.243 17.5321 117.205 16.7172 118.31 16.1465C119.416 15.5758 120.637 15.2642 121.881 15.2354C126.205 15.2354 128.057 19.1474 128.057 23.0594C128.057 30.4714 123.322 37.6774 116.322 37.6774C115.293 37.8834 113.851 37.0594 113.234 37.0594H113.028L111.381 45.2944H105.205ZM113.852 32.5294C114.186 32.8281 114.577 33.0553 115.002 33.197C115.427 33.3387 115.877 33.3919 116.323 33.3534C119.617 33.3534 122.088 27.7944 122.088 23.8824C122.088 22.2354 121.47 20.5884 119.617 20.5884C117.558 20.5884 115.499 23.0594 114.882 26.7644L113.852 32.5294ZM128.676 37.0584L132.794 16.4704H138.97L134.852 37.0584H128.676ZM136.5 14.4114C134.853 14.4114 133.618 12.7644 133.618 10.9114C133.593 10.4354 133.665 9.95934 133.829 9.51198C133.994 9.06462 134.247 8.65528 134.574 8.30877C134.902 7.96227 135.296 7.68581 135.733 7.49614C136.17 7.30648 136.641 7.20756 137.118 7.20537C137.963 7.23642 138.762 7.59995 139.34 8.21686C139.918 8.83376 140.23 9.65411 140.206 10.4994C140.183 11.4949 139.791 12.4463 139.106 13.1691C138.421 13.8918 137.492 14.3346 136.499 14.4114H136.5ZM140 37.0584L143.294 20.5874H140.411L141.235 16.4694H144.117L144.323 15.2344C144.675 12.5755 145.907 10.111 147.823 8.23437C149.49 6.8329 151.617 6.09959 153.793 6.17637C154.905 6.15598 156.014 6.29472 157.087 6.58837L155.852 11.3234C155.26 11.0888 154.635 10.9497 153.999 10.9114C151.94 10.9114 150.705 12.9704 150.499 15.0294L149.881 16.4704H153.999L153.175 20.5884H149.057L145.764 37.0584H140ZM161.618 16.4704L162.647 25.9414C162.853 28.0004 163.059 28.8234 163.265 30.8824C163.642 29.1548 164.266 27.4907 165.118 25.9414L168.824 16.4704H175L167.588 32.1174C164.912 37.4704 162.441 41.3824 159.559 44.0584C157.856 45.6112 155.81 46.7398 153.588 47.3524L151.941 42.2054C153.165 41.7876 154.339 41.2352 155.441 40.5584C156.852 39.6412 157.99 38.361 158.735 36.8524C158.941 36.6464 158.941 36.4404 158.941 36.0284L155.235 16.4694L161.618 16.4704Z" fill="black"></path><path d="M58.8811 15.647C60.6554 15.5588 62.424 15.9124 64.0281 16.676L62.5871 21C61.4246 20.4642 60.161 20.1832 58.8811 20.176C57.2341 20.176 55.9991 21 55.9991 22.235C55.9991 23.264 56.8231 23.882 58.2641 24.706C60.5291 26.147 62.5881 28 62.5881 30.471C62.5881 35.206 58.6761 38.089 53.3231 37.883C51.2391 37.9492 49.1761 37.4509 47.3521 36.441L48.7931 32.117C50.2819 33.0077 52.0012 33.4375 53.7341 33.352C55.3811 33.352 56.4101 32.528 56.4101 31.293C56.4101 30.264 55.7921 29.44 53.9391 28.411C51.6761 27.176 50.0281 25.323 50.0281 22.852M63.8231 37.058L69.1761 12.558L75.7641 6.587L73.4991 18.735C74.2694 17.7817 75.2411 17.0105 76.3444 16.4766C77.4477 15.9428 78.6554 15.6595 79.8811 15.647C82.9691 15.647 84.8221 17.706 84.8221 21.206C84.7755 22.4497 84.6378 23.6884 84.41 24.912L82.146 37.058H76.1751L78.4401 25.117C78.6107 24.305 78.6799 23.475 78.646 22.646C78.646 21.411 78.0281 20.381 76.7931 20.381C74.9401 20.381 72.8811 22.646 72.0581 26.557L69.9991 36.852H63.8231V37.058ZM98.6171 15.647C104.176 15.647 106.852 19.765 106.852 24.088C106.852 31.5 102.117 37.882 94.911 37.882C89.558 37.882 86.6761 34.176 86.6761 29.441M92.647 29.441C92.647 31.706 93.4711 33.353 95.529 33.353C98.823 33.353 100.47 27.588 100.47 23.882C100.47 22.029 99.8521 20.176 97.5881 20.176C94.4991 20.382 92.646 25.941 92.646 29.441H92.647ZM116.117 16.47L115.705 18.529C116.449 17.5317 117.411 16.7168 118.516 16.1461C119.622 15.5754 120.843 15.2639 122.087 15.235C126.411 15.235 128.263 19.147 128.263 23.059C128.263 30.471 123.528 37.677 116.528 37.677C115.293 37.883 113.852 37.059 113.234 37.059H113.028L111.381 45.294H105.411L109.529 23.471M113.852 32.529C114.186 32.8277 114.577 33.0549 115.002 33.1966C115.427 33.3383 115.877 33.3916 116.323 33.353C119.617 33.353 122.088 27.794 122.088 23.882C122.088 22.235 121.47 20.588 119.617 20.588C117.558 20.588 115.499 23.059 114.882 26.764L113.852 32.529ZM128.676 37.058L132.794 21.411L138.97 16.47L134.852 37.058H128.676ZM137.117 7.205C137.541 7.20376 137.96 7.28972 138.349 7.45753C138.738 7.62534 139.088 7.8714 139.377 8.18039C139.667 8.48939 139.89 8.8547 140.032 9.2536C140.175 9.65249 140.234 10.0764 140.205 10.499C140.232 10.9858 140.164 11.4731 140.003 11.9333C139.841 12.3934 139.591 12.8173 139.266 13.1806C138.941 13.544 138.548 13.8397 138.108 14.0508C137.669 14.2619 137.192 14.3843 136.705 14.411C135.058 14.411 133.823 12.764 133.823 10.911M153.587 6.176C154.72 6.09771 155.854 6.31045 156.881 6.794L155.646 11.529C155.054 11.2944 154.429 11.1553 153.793 11.117C151.734 11.117 150.499 13.176 150.293 15.235L149.881 16.47H153.999L153.175 20.588H149.057L145.764 37.058H139.999L143.293 20.587H140.411L141.235 16.469H144.117L144.323 15.234M161.617 16.469L162.646 25.734C162.852 27.793 163.058 28.822 163.264 30.881C163.641 29.1534 164.265 27.4893 165.117 25.94L168.823 16.469H174.999L167.587 32.116C164.911 37.469 162.44 41.381 159.558 44.057C157.855 45.6098 155.809 46.7385 153.587 47.351L151.94 42.204C153.164 41.7862 154.338 41.2338 155.44 40.557C156.851 39.6398 157.989 38.3596 158.734 36.851C158.921 36.5426 158.994 36.1785 158.94 35.822L157.499 20.998L161.617 16.469Z" fill="black"></path></svg> 