<?xml version="1.0" encoding="UTF-8"?> <svg xmlns="http://www.w3.org/2000/svg" xmlns:xlink="http://www.w3.org/1999/xlink" version="1.1" id="Layer_1" x="0px" y="0px" viewBox="0 0 294 80" style="enable-background:new 0 0 294 80;" xml:space="preserve"> <style type="text/css"> .st0{fill:#0071CE;} .st1{fill:#DC8327;} .st2{fill:#F4B21B;} .st3{fill:#F2D864;} .st4{fill-rule:evenodd;clip-rule:evenodd;fill:#FFFFFF;} </style> <path id="Path_37613" class="st0" d="M76.5,60.7c-0.5,0-1.1-0.2-1.5-0.7c-0.5-0.3-0.8-0.8-0.8-1.3c-0.2-0.7,0-1.1,0.3-1.6 c0.3-0.5,0.7-0.8,1.3-1.1c1.1-0.3,2.1-0.8,2.9-1.5c1-0.7,1.8-1.4,2.4-2.3c0.7-0.9,1.1-1.9,1.5-2.9c0.4-1.1,0.7-2.2,0.7-3.4 c0-1.5-0.3-2.9-1-4.4c-0.7-1.3-1.6-2.6-2.8-3.6c-1.1-1-2.4-1.8-3.9-2.3c-1.5-0.3-2.9-0.5-4.6-0.3l-2.3,0.3l-0.3-2.3 c-0.7-4.4-2.8-8.7-5.9-11.8c-3.3-3.1-7.3-5.1-11.9-5.7c-4.4-0.5-9,0.5-12.7,2.8c-3.9,2.3-7,5.7-8.7,10l-0.7,1.3L27.2,30 c-3.1,0-6,1.1-8.3,3.1c-2.3,1.8-3.9,4.6-4.6,7.5c-0.7,2.9-0.2,6,1.1,8.8c1.5,2.6,3.6,4.9,6.4,6c0.7,0.3,1,0.8,1.3,1.5 c0.2,0.5,0.2,1.1-0.2,1.8c-0.2,0.5-0.7,1-1.3,1.1c-0.5,0.2-1.1,0.2-1.8,0c-3.6-1.6-6.5-4.4-8.5-8c-1.8-3.4-2.4-7.5-1.8-11.4 c0.7-3.9,2.4-7.5,5.4-10.3s6.5-4.4,10.6-4.9c2.1-4.7,5.9-8.7,10.4-11.1c4.6-2.6,9.8-3.6,15-3.1c5.1,0.7,10,2.8,13.9,6.2 s6.7,8,7.8,13.1c3.8,0.2,7.2,1.5,10,3.9c2.8,2.4,4.6,5.7,5.2,9.3c0.5,3.6-0.3,7.3-2.3,10.4c-1.8,3.1-4.9,5.4-8.3,6.5 c-0.1,0-0.2,0.1-0.2,0.2c-0.1,0-0.2,0-0.2,0c-0.1,0-0.2,0-0.3,0C76.6,60.7,76.6,60.7,76.5,60.7L76.5,60.7z"></path> <path id="Path_37614" class="st1" d="M40.2,61.9c0,0,0,0.1,0,0.2l0,0c0,0.1,0,0.2,0,0.2s0,0.1,0,0.2l0,0l0,0c0,0.1,0,0.2,0,0.2 s-0.1,0-0.2,0l0,0c0,0-0.1,0-0.2,0l0,0H28.3c-0.3,0-0.7-0.1-1-0.2c-0.3-0.1-0.6-0.3-0.8-0.5c-0.3-0.3-0.5-0.7-0.7-1 c-0.1-0.3-0.2-0.7-0.2-1V38.9h-1.6c-0.1,0-0.2,0-0.3,0c0-0.1,0-0.2,0-0.2c-0.1-0.1-0.1-0.2,0-0.3c0-0.1,0.1-0.2,0.2-0.2l7.7-5.4 c0.1,0,0.2,0,0.2,0s0.1,0,0.2,0l0,0c0.1,0,0.2,0,0.2,0l7.7,5.4c0.1,0,0.2,0,0.2,0s0,0.1,0,0.2c0.1,0,0.2,0,0.2,0c0,0.1,0,0.2,0,0.2 s0,0.1,0,0.2c-0.1,0-0.2,0.1-0.2,0.2c0,0-0.1,0-0.2,0c0,0-0.1,0-0.2,0h-1.6v21.1c0,0.2,0.1,0.5,0.2,0.8c0.1,0.2,0.3,0.4,0.5,0.5 c0.1,0.2,0.3,0.4,0.7,0.5c0.2,0.1,0.4,0.2,0.7,0.2c0,0,0,0,0,0c0,0,0.1,0,0.2,0l0,0l0,0C40.1,61.9,40.1,61.9,40.2,61.9z"></path> <path id="Path_37615" class="st2" d="M56.9,61.9c0,0,0,0.1,0,0.2c0.1,0,0.2,0,0.2,0c0,0.1,0,0.2,0,0.2s0,0.1,0,0.2l0,0 c-0.1,0-0.2,0-0.2,0c0,0.1,0,0.2,0,0.2l0,0c-0.1,0-0.2,0-0.2,0l0,0c0,0-0.1,0-0.2,0H45c-0.3,0-0.7-0.1-1-0.2 c-0.3-0.1-0.6-0.3-0.8-0.5c-0.2-0.3-0.4-0.7-0.7-1c-0.1-0.3-0.2-0.7-0.2-1V43.6h-1.6c-0.1,0-0.2,0-0.2,0c-0.1-0.1-0.2-0.2-0.2-0.3 c0,0,0-0.1,0-0.2c0-0.1,0.1-0.2,0.2-0.2l7.8-5.4c0,0,0-0.1,0-0.2c0.1,0,0.2,0,0.2,0s0.1,0,0.2,0c0,0.1,0,0.2,0,0.2l7.8,5.2 c0.1,0.1,0.2,0.2,0.2,0.3c0,0,0,0.1,0,0.2c0,0.1-0.1,0.2-0.2,0.3c0,0-0.1,0-0.2,0h-1.6v16.3c0,0.2,0.1,0.5,0.2,0.8 c0.1,0.2,0.2,0.4,0.3,0.5c0.2,0.2,0.4,0.4,0.7,0.5c0.2,0.1,0.4,0.2,0.7,0.2c0,0,0.1,0,0.2,0l0,0l0,0l0,0 C56.8,61.9,56.9,61.9,56.9,61.9z"></path> <path id="Path_37616" class="st3" d="M73.5,61.9c0,0,0.1,0.1,0.2,0.2c0,0,0,0,0,0c0,0.1,0,0.2,0,0.2c0,0,0,0.1,0,0.2c0,0,0,0,0,0 c0,0,0,0,0,0c-0.1,0.1-0.2,0.2-0.2,0.2l0,0l0,0c-0.1,0-0.2,0-0.2,0c0,0,0,0,0,0H61.8c-0.4,0-0.8-0.1-1.1-0.2 c-0.3-0.1-0.6-0.3-0.8-0.5c-0.2-0.3-0.4-0.7-0.5-1c-0.2-0.3-0.3-0.7-0.3-1V48.3h-1.5c-0.1,0-0.2,0-0.3,0C57.1,48.2,57,48.1,57,48 c0,0,0-0.1,0-0.2s0.1-0.2,0.2-0.3l7.8-5.2c0-0.1,0-0.2,0-0.2c0.1,0,0.2,0,0.2,0c0.1,0,0.2,0,0.2,0s0.1,0.1,0.2,0.2l7.7,5.2 c0,0,0,0.1,0,0.2c0.1,0,0.2,0,0.2,0s0,0.1,0,0.2c0,0,0,0.1,0,0.2c0,0,0,0.1,0,0.2l0,0c-0.1,0.1-0.2,0.2-0.2,0.2c-0.1,0-0.2,0-0.2,0 h-1.6v11.6c0,0.2,0.1,0.5,0.2,0.8c0.1,0.2,0.2,0.4,0.3,0.5c0.2,0.2,0.4,0.4,0.7,0.5s0.5,0.2,0.8,0.2l0,0l0,0l0,0l0,0L73.5,61.9 C73.5,61.9,73.5,61.9,73.5,61.9z"></path> <path id="Path_37617" class="st4" d="M149,44.7c0.2,0.3,0.4,0.6,0.5,0.8c0.2,0.3,0.4,0.6,0.5,0.8c0.1,0.3,0.2,0.7,0.3,1 c0.1,0.3,0.2,0.7,0.3,1c0.1,0.3,0.2,0.7,0.2,1c0.1,0.3,0.2,0.7,0.2,1s0,0.7,0,1c0,0.3,0,0.6,0,0.8c0,0.3,0,0.6,0,0.8 c-0.1,0.2-0.2,0.5-0.2,0.8c0,0.2-0.1,0.5-0.2,0.8c0,0.2-0.1,0.4-0.2,0.7s-0.2,0.5-0.3,0.8c0,0.2-0.1,0.4-0.2,0.7 c-0.1,0.2-0.2,0.4-0.3,0.7c-0.2,0.2-0.4,0.4-0.5,0.7c-0.1,0.1-0.3,0.3-0.5,0.5c-0.1,0.2-0.3,0.4-0.5,0.5c-0.1,0.2-0.3,0.4-0.5,0.5 c-0.2,0.2-0.4,0.4-0.7,0.5c-0.2,0.2-0.4,0.4-0.7,0.5c-0.2,0.1-0.5,0.2-0.8,0.3c-0.2,0.1-0.4,0.2-0.7,0.2c-0.7,0.2-1.3,0.4-2,0.5 c-0.7,0.1-1.3,0.2-2,0.2s-1.3-0.1-2-0.2s-1.3-0.3-2-0.5c-0.3,0-0.6-0.1-0.8-0.2s-0.4-0.2-0.7-0.3c-0.3-0.1-0.6-0.3-0.8-0.5 c-0.2-0.1-0.4-0.3-0.7-0.5c-0.1-0.1-0.3-0.3-0.5-0.5c-0.2-0.1-0.4-0.3-0.5-0.5c-0.1-0.2-0.3-0.4-0.5-0.5c-0.1-0.2-0.2-0.4-0.3-0.7 s-0.2-0.4-0.3-0.7c-0.1-0.2-0.2-0.4-0.3-0.7c-0.1-0.3-0.2-0.6-0.2-0.8c-0.1-0.2-0.2-0.4-0.3-0.7c0-0.3-0.1-0.6-0.2-0.8 c0-0.2,0-0.5,0-0.8c0-0.2-0.1-0.5-0.2-0.8c0-0.2,0-0.5,0-0.8c0-0.3,0.1-0.7,0.2-1c0-0.3,0-0.7,0-1c0.1-0.3,0.2-0.7,0.3-1 c0-0.3,0.1-0.7,0.2-1c0.1-0.3,0.2-0.7,0.3-1c0.2-0.2,0.4-0.5,0.5-0.8c0.2-0.2,0.4-0.5,0.5-0.8c0.2-0.2,0.4-0.4,0.7-0.7 c0.2-0.2,0.4-0.4,0.7-0.7c0.2-0.2,0.5-0.4,0.8-0.7c0.2-0.1,0.5-0.3,0.8-0.5c0.2-0.1,0.5-0.2,0.8-0.3c0.7-0.3,1.4-0.5,2.1-0.7 c0.8-0.1,1.5-0.2,2.3-0.2c0.8,0,1.5,0.1,2.1,0.2c0.8,0.1,1.5,0.3,2.1,0.7c0.3,0.1,0.7,0.2,1,0.3c0.2,0.2,0.5,0.4,0.8,0.5 c0.2,0.2,0.4,0.4,0.7,0.7c0.2,0.2,0.4,0.4,0.7,0.7S148.7,44.5,149,44.7L149,44.7z M145.9,53.2c0.1-0.2,0.2-0.4,0.2-0.7s0-0.4,0-0.7 c0-0.2,0-0.4,0-0.7c0-0.2,0-0.4,0-0.7c0-0.2,0-0.4,0-0.7s-0.1-0.4-0.2-0.7c0-0.2,0-0.4,0-0.7c-0.1-0.2-0.2-0.4-0.2-0.5 c-0.1-0.2-0.2-0.4-0.3-0.7c0-0.1-0.1-0.3-0.2-0.5c-0.1-0.2-0.2-0.4-0.3-0.5c-0.1-0.2-0.2-0.4-0.3-0.5c-0.1-0.1-0.3-0.2-0.5-0.3 c-0.1-0.1-0.2-0.2-0.3-0.3c-0.2-0.1-0.4-0.2-0.5-0.3c-0.2-0.1-0.4-0.2-0.7-0.3c-0.1,0-0.3-0.1-0.5-0.2c-0.2,0-0.4,0-0.7,0 c-0.2,0-0.4,0-0.5,0c-0.2,0-0.4,0-0.7,0c-0.2,0-0.4,0-0.7,0c-0.1,0.1-0.3,0.2-0.5,0.2c-0.2,0.1-0.4,0.2-0.5,0.3 c-0.2,0.1-0.4,0.2-0.5,0.3c-0.2,0.1-0.4,0.2-0.5,0.3c-0.1,0.1-0.2,0.2-0.3,0.3c-0.2,0.1-0.3,0.3-0.3,0.5c-0.1,0.1-0.2,0.3-0.3,0.5 s-0.2,0.4-0.3,0.5c-0.1,0.2-0.2,0.4-0.2,0.7c-0.1,0.1-0.2,0.3-0.2,0.5c-0.1,0.2-0.2,0.4-0.2,0.7c0,0.2-0.1,0.4-0.2,0.7 c0,0.2,0,0.4,0,0.7s0,0.4,0,0.7s0,0.4,0,0.7c0,0.2,0,0.4,0,0.7c0.1,0.2,0.2,0.4,0.2,0.7c0,0.2,0.1,0.4,0.2,0.7 c0,0.2,0.1,0.4,0.2,0.5c0,0.2,0.1,0.4,0.2,0.7c0.1,0.1,0.2,0.3,0.2,0.5c0.1,0.2,0.2,0.4,0.3,0.5c0.1,0.2,0.2,0.4,0.3,0.5 s0.3,0.2,0.5,0.3c0.1,0.2,0.2,0.4,0.3,0.5c0.2,0.1,0.4,0.2,0.5,0.3c0.4,0.1,0.8,0.2,1.1,0.3c0.4,0.1,0.9,0.2,1.3,0.2 c0.4,0,0.8-0.1,1.1-0.2c0.4-0.1,0.8-0.2,1.1-0.3c0.2-0.1,0.4-0.2,0.5-0.3c0.1-0.1,0.3-0.3,0.5-0.5c0.1-0.1,0.2-0.2,0.3-0.3 c0.1-0.1,0.2-0.3,0.3-0.5c0.1-0.1,0.2-0.3,0.3-0.5c0.1-0.2,0.2-0.4,0.2-0.5c0.1-0.2,0.2-0.4,0.3-0.7c0-0.1,0.1-0.3,0.2-0.5 C145.9,53.7,145.9,53.4,145.9,53.2L145.9,53.2z M162.8,61.2c-0.2,0.1-0.5,0.2-0.8,0.2c-0.2,0.1-0.4,0.2-0.7,0.2s-0.4,0-0.7,0 s-0.4,0-0.7,0c-0.2,0-0.4-0.1-0.7-0.2c-0.1,0-0.3,0-0.5,0c-0.2-0.1-0.4-0.2-0.7-0.2c-0.2-0.1-0.4-0.2-0.5-0.2 c-0.2-0.1-0.4-0.2-0.7-0.3c-0.1-0.1-0.3-0.2-0.5-0.3c-0.2-0.1-0.4-0.2-0.5-0.3c-0.1-0.2-0.3-0.4-0.5-0.5c-0.1-0.2-0.2-0.4-0.3-0.5 c-0.2-0.2-0.4-0.4-0.5-0.7c-0.1-0.1-0.2-0.3-0.2-0.5c-0.1-0.3-0.2-0.6-0.3-0.8c-0.1-0.3-0.2-0.6-0.2-0.8c-0.1-0.3-0.2-0.7-0.2-1 c0-0.2,0-0.5,0-0.8V43.6c0-0.1,0-0.2,0-0.3s0-0.2,0-0.3s0.1-0.2,0.2-0.3c0-0.1,0-0.2,0-0.3c0.1-0.1,0.2-0.2,0.2-0.2 c0.1-0.1,0.2-0.2,0.2-0.3c0.1,0,0.2-0.1,0.2-0.2c0.1-0.1,0.2-0.2,0.3-0.2c0.2-0.1,0.4-0.2,0.7-0.3c0.2,0,0.5,0,0.8,0 c0.2,0,0.5,0,0.8,0c0.2,0.1,0.4,0.2,0.7,0.3c0.1,0,0.2,0.1,0.2,0.2c0.1,0.1,0.2,0.2,0.3,0.2c0,0.1,0.1,0.2,0.2,0.3c0,0,0,0.1,0,0.2 c0.1,0.1,0.2,0.2,0.2,0.3c0,0.1,0,0.2,0,0.3c0.1,0.1,0.2,0.2,0.2,0.3s0,0.2,0,0.3v9.8c0,0.2,0,0.4,0,0.5c0,0.2,0,0.4,0,0.7 c0.1,0.2,0.2,0.4,0.2,0.5c0.1,0.2,0.2,0.4,0.2,0.5c0.1,0.2,0.2,0.4,0.3,0.5c0,0.2,0.1,0.4,0.3,0.5c0.1,0.1,0.2,0.2,0.3,0.3 c0.1,0.1,0.2,0.2,0.3,0.3c0.2,0.1,0.4,0.2,0.5,0.2c0.2,0.1,0.4,0.2,0.7,0.3c0.2,0,0.4,0,0.5,0c0.2,0,0.4,0,0.7,0c0.1,0,0.2,0,0.3,0 c0.2,0,0.4,0,0.5,0s0.2-0.1,0.3-0.2c0.2,0,0.4-0.1,0.5-0.2c0.1,0,0.2-0.1,0.3-0.2c0.2,0,0.4-0.1,0.5-0.2s0.2-0.2,0.3-0.3 s0.2-0.2,0.3-0.2c0.1-0.1,0.2-0.2,0.3-0.3c0.1-0.2,0.2-0.4,0.3-0.5s0.2-0.2,0.3-0.3c0-0.1,0.1-0.3,0.2-0.5c0.1-0.1,0.2-0.3,0.2-0.5 c0.1-0.1,0.2-0.3,0.2-0.5c0-0.1,0-0.3,0-0.5c0-0.2,0-0.4,0-0.5v-9.3c0-0.1,0.1-0.2,0.2-0.3c0-0.1,0-0.2,0-0.3s0-0.2,0-0.3 c0-0.1,0.1-0.2,0.2-0.3c0-0.1,0.1-0.2,0.2-0.2c0-0.1,0.1-0.2,0.2-0.3c0,0,0.1-0.1,0.2-0.2c0-0.1,0.1-0.2,0.2-0.2 c0.2-0.1,0.5-0.2,0.8-0.3c0.2,0,0.4,0,0.7,0c0.3,0,0.6,0,0.8,0c0.2,0.1,0.4,0.2,0.7,0.3c0.1,0,0.2,0.1,0.3,0.2 c0.1,0.1,0.2,0.2,0.2,0.2c0.1,0.1,0.2,0.2,0.2,0.3c0.1,0,0.2,0.1,0.2,0.2s0,0.2,0,0.3c0.1,0.1,0.2,0.2,0.2,0.3c0,0.1,0,0.2,0,0.3 c0,0.1,0,0.2,0,0.3v15.5c0,0.1,0,0.2,0,0.3c0,0.1,0,0.2,0,0.3c0,0.1-0.1,0.2-0.2,0.3c0,0.1,0,0.2,0,0.3c-0.1,0.1-0.2,0.2-0.2,0.3 c0,0-0.1,0.1-0.2,0.2c-0.1,0-0.2,0.1-0.2,0.2c-0.1,0.1-0.2,0.2-0.2,0.2c-0.2,0.1-0.4,0.2-0.7,0.2c-0.2,0.1-0.4,0.2-0.7,0.2 c-0.2,0-0.4-0.1-0.7-0.2c-0.2,0-0.4-0.1-0.7-0.2c0,0-0.1-0.1-0.2-0.2c-0.1,0-0.2-0.1-0.2-0.2c-0.1-0.1-0.2-0.2-0.2-0.2 c0-0.1-0.1-0.2-0.2-0.3c0-0.1,0-0.2,0-0.3c-0.1-0.1-0.2-0.2-0.2-0.3s0-0.2,0-0.3c0-0.1,0-0.2,0-0.3v-0.8l-0.2-0.3h-0.5l-0.2,0.2 c-0.1,0.2-0.2,0.4-0.3,0.5c-0.2,0.1-0.4,0.3-0.5,0.5c-0.1,0.1-0.3,0.2-0.5,0.3c-0.1,0.2-0.2,0.4-0.3,0.5c-0.2,0.1-0.4,0.2-0.5,0.3 c-0.2,0.1-0.4,0.2-0.7,0.3c-0.1,0.1-0.3,0.2-0.5,0.3c-0.2,0.1-0.4,0.2-0.5,0.2C163.3,61.2,163.1,61.2,162.8,61.2L162.8,61.2z M126.6,34c0.1,0,0.2,0.1,0.3,0.2c0,0.1,0.1,0.2,0.2,0.2c0,0.1,0.1,0.2,0.2,0.3c0,0.1,0.1,0.2,0.2,0.3c0,0.1,0,0.2,0,0.3 s0,0.2,0,0.3c0.1,0.1,0.2,0.2,0.2,0.3v23.2c0,0.1-0.1,0.2-0.2,0.3c0,0.1,0,0.2,0,0.3c0,0.1,0,0.2,0,0.3c-0.1,0.1-0.2,0.2-0.2,0.3 c-0.1,0.1-0.2,0.2-0.2,0.3c-0.1,0.1-0.2,0.2-0.2,0.2c-0.1,0.1-0.2,0.2-0.3,0.2c-0.1,0.1-0.2,0.2-0.2,0.2c-0.1,0.1-0.2,0.2-0.3,0.2 c-0.1,0-0.2,0-0.3,0c-0.1,0.1-0.2,0.2-0.3,0.2s-0.2,0-0.3,0s-0.2,0-0.3,0s-0.2-0.1-0.3-0.2c-0.1,0-0.2,0-0.3,0s-0.2-0.1-0.3-0.2 c-0.1,0-0.2-0.1-0.3-0.2c-0.1,0-0.2-0.1-0.2-0.2c-0.1,0-0.2-0.1-0.2-0.2c-0.1-0.1-0.2-0.2-0.2-0.3c-0.1-0.1-0.2-0.2-0.2-0.3 c-0.1-0.1-0.2-0.2-0.2-0.3s0-0.2,0-0.3c0-0.1,0-0.2,0-0.3V35.9c0-0.1,0-0.2,0-0.3s0-0.2,0-0.3s0.1-0.2,0.2-0.3 c0-0.1,0.1-0.2,0.2-0.3c0-0.1,0.1-0.2,0.2-0.3c0,0,0.1-0.1,0.2-0.2c0-0.1,0.1-0.2,0.2-0.2c0.1-0.1,0.2-0.2,0.3-0.2s0.2-0.1,0.3-0.2 c0.1,0,0.2,0,0.3,0c0.1,0,0.2-0.1,0.3-0.2c0.1,0,0.2,0,0.3,0s0.2,0,0.3,0c0.1,0.1,0.2,0.2,0.3,0.2s0.2,0,0.3,0 c0.1,0.1,0.2,0.2,0.3,0.2S126.6,33.9,126.6,34z M284.6,42.8c0,0.1,0,0.2,0,0.2c0.1,0.1,0.2,0.2,0.2,0.2c0,0.1,0,0.2,0,0.2 c0,0.1,0,0.2,0,0.2c0,0.1,0,0.2,0,0.2c-0.1,0.1-0.2,0.2-0.2,0.2c0,0.1,0,0.2,0,0.2c-0.1,0.3-0.2,0.7-0.3,1l-6.5,18.4 c0,0.2-0.1,0.4-0.2,0.7c-0.1,0.2-0.2,0.4-0.3,0.7c0,0.2-0.1,0.4-0.2,0.7s-0.2,0.4-0.3,0.7c-0.1,0.1-0.2,0.3-0.3,0.5 c-0.1,0.1-0.2,0.2-0.3,0.3c-0.1,0.2-0.2,0.4-0.3,0.5s-0.2,0.2-0.3,0.3c-0.1,0.1-0.2,0.2-0.3,0.3c-0.1,0.1-0.2,0.2-0.3,0.3 c-0.2,0.1-0.4,0.2-0.5,0.2c-0.1,0.1-0.3,0.2-0.5,0.3c-0.1,0-0.3,0.1-0.5,0.2c-0.1,0-0.3,0-0.5,0s-0.4,0.1-0.7,0.2 c-0.1,0-0.3,0-0.5,0c-0.1,0-0.3,0-0.5,0c-0.1,0-0.3-0.1-0.5-0.2c-0.1,0-0.3,0-0.5,0c-0.1-0.1-0.2-0.2-0.3-0.2 c-0.1-0.1-0.2-0.2-0.3-0.2c-0.1-0.1-0.2-0.2-0.3-0.2c0-0.1-0.1-0.2-0.2-0.3c-0.1,0-0.2-0.1-0.2-0.2c-0.1-0.1-0.2-0.2-0.2-0.3 c-0.1-0.1-0.2-0.2-0.2-0.2c0-0.1,0-0.2,0-0.3c0-0.1,0-0.2,0-0.3s0-0.2,0-0.2c0-0.1,0-0.2,0-0.3c0-0.1,0.1-0.2,0.2-0.3 c0,0,0-0.1,0-0.2c0.1-0.1,0.2-0.2,0.2-0.2c0.1-0.1,0.2-0.2,0.2-0.2c0.1-0.1,0.2-0.2,0.3-0.2c0-0.1,0.1-0.2,0.2-0.2 c0.1,0,0.2-0.1,0.3-0.2c0.1,0,0.2,0,0.3,0c0,0,0.1,0,0.2,0c0.1,0,0.2,0,0.3,0h0.8c0,0,0.1,0,0.2,0c0,0,0.1,0,0.2,0 c0,0,0.1-0.1,0.2-0.2c0,0,0.1,0,0.2,0s0.2,0,0.2,0c0.1-0.1,0.2-0.2,0.3-0.2c0.1-0.1,0.2-0.2,0.2-0.2c0.1-0.1,0.2-0.2,0.2-0.2 c0.1-0.1,0.2-0.2,0.3-0.3c0-0.1,0.1-0.3,0.2-0.5c0-0.1,0.1-0.2,0.2-0.3c0-0.1,0-0.2,0-0.3v-0.2l-5.9-16.8c-0.1-0.4-0.2-0.8-0.3-1.1 c0,0-0.1-0.1-0.2-0.2c0,0,0-0.1,0-0.2c0-0.1,0-0.2,0-0.2c0-0.1-0.1-0.2-0.2-0.2c0-0.1,0-0.2,0-0.2c0-0.1,0-0.2,0-0.2 c0-0.1,0-0.2,0-0.2s0-0.1,0-0.2s0-0.2,0-0.3s0.1-0.2,0.2-0.3c0-0.1,0-0.2,0-0.2c0.1-0.1,0.2-0.2,0.2-0.3c0-0.1,0.1-0.2,0.2-0.3 c0.1,0,0.2-0.1,0.2-0.2c0.1-0.1,0.2-0.2,0.3-0.2c0-0.1,0.1-0.2,0.2-0.2c0.1-0.1,0.2-0.2,0.3-0.2c0.1,0,0.2-0.1,0.3-0.2 c0.1,0,0.2,0,0.3,0c0,0,0.1,0,0.2,0c0.2,0,0.4,0,0.5,0c0.1,0,0.3,0.1,0.5,0.2c0.1,0,0.2,0.1,0.3,0.2c0.1,0,0.2,0.1,0.3,0.2 c0.1,0.1,0.2,0.2,0.3,0.3c0.1,0.1,0.2,0.2,0.3,0.3c0.1,0.1,0.2,0.2,0.2,0.3c0,0.1,0.1,0.2,0.2,0.3l3.6,13.2l0.2,0.3h0.7l3.4-13.1 c0-0.1,0.1-0.2,0.2-0.3c0-0.1,0-0.2,0-0.3c0.1-0.1,0.2-0.2,0.2-0.3c0.1-0.1,0.2-0.2,0.2-0.3c0.1,0,0.2-0.1,0.2-0.2 c0.1-0.1,0.2-0.2,0.2-0.2c0.1-0.1,0.2-0.2,0.2-0.2c0.1-0.1,0.2-0.2,0.3-0.2c0.1-0.1,0.2-0.2,0.2-0.2c0.1,0,0.2-0.1,0.3-0.2 c0.1,0,0.2,0,0.3,0c0.1,0,0.2,0,0.2,0c0.1,0,0.2,0,0.3,0c0.1,0,0.2,0,0.3,0c0.1,0,0.2,0.1,0.3,0.2c0.1,0,0.2,0.1,0.3,0.2 c0.1,0,0.2,0,0.2,0c0.1,0.1,0.2,0.2,0.2,0.2c0.1,0.1,0.2,0.2,0.3,0.2c0,0.1,0.1,0.2,0.2,0.2c0,0.1,0,0.2,0,0.2 c0.1,0.1,0.2,0.2,0.2,0.2c0,0.1,0.1,0.2,0.2,0.2C284.6,42.6,284.6,42.7,284.6,42.8C284.6,42.8,284.6,42.8,284.6,42.8L284.6,42.8z M248.6,59.3c0.1,0,0.2,0.1,0.2,0.2l0,0c0,0.1,0,0.2,0,0.2c0,0.1,0,0.2,0,0.2c0,0.1,0,0.2,0,0.2c0,0.1-0.1,0.2-0.2,0.3 c0,0.1,0,0.2,0,0.2c0,0.1-0.1,0.2-0.2,0.3c0,0-0.1,0.1-0.2,0.2c0,0-0.1,0.1-0.2,0.2c-0.1,0-0.2,0.1-0.2,0.2c-0.1,0-0.2,0-0.3,0 c0,0.1-0.1,0.2-0.2,0.2s-0.2,0-0.3,0c-0.1,0.1-0.2,0.2-0.3,0.2c0,0-0.1,0-0.2,0c-0.2,0-0.4,0-0.5,0c-0.1,0-0.3-0.1-0.5-0.2 c-0.1,0-0.2,0-0.3,0c-0.2-0.1-0.4-0.2-0.5-0.3c-0.1,0-0.2-0.1-0.2-0.2c-0.1,0-0.2-0.1-0.3-0.2c-0.1-0.1-0.2-0.2-0.2-0.3 c-0.1-0.1-0.2-0.2-0.2-0.3c-0.1-0.1-0.2-0.2-0.2-0.3c0-0.1-0.1-0.2-0.2-0.3c0-0.1,0-0.3,0-0.5c0-0.1,0-0.2,0-0.3v-1l-0.7,0.8 c-0.2,0.1-0.4,0.3-0.7,0.5c-0.1,0.1-0.3,0.3-0.5,0.5c-0.2,0.1-0.4,0.2-0.5,0.3c-0.2,0.2-0.4,0.4-0.7,0.5c-0.1,0-0.2,0.1-0.3,0.2 c-0.1,0-0.2,0.1-0.2,0.2c-0.1,0-0.2,0.1-0.3,0.2c-0.1,0-0.2,0-0.3,0c0,0.1-0.1,0.2-0.2,0.2h-0.3c-0.1,0.1-0.2,0.2-0.3,0.2 c-0.2,0.1-0.4,0.2-0.5,0.2c-0.2,0-0.4,0.1-0.7,0.2c-0.2,0-0.4,0-0.7,0c-0.2,0.1-0.4,0.2-0.7,0.2c-0.2,0-0.4,0-0.7,0h-0.2 c-0.2,0-0.4,0-0.5,0c-0.2,0-0.4-0.1-0.7-0.2c-0.1,0-0.3,0-0.5,0c-0.2-0.1-0.4-0.2-0.5-0.2c-0.2-0.1-0.4-0.2-0.7-0.3 c-0.1,0-0.3-0.1-0.5-0.2c-0.1-0.1-0.2-0.2-0.3-0.3c-0.2-0.1-0.4-0.2-0.5-0.3c-0.1-0.1-0.3-0.2-0.5-0.3c-0.1-0.1-0.2-0.3-0.3-0.5 c-0.1-0.1-0.2-0.2-0.3-0.3c-0.1-0.2-0.2-0.4-0.2-0.5c-0.1-0.2-0.2-0.4-0.3-0.7c0-0.1-0.1-0.3-0.2-0.5c0-0.2,0-0.4,0-0.5 c0-0.2,0-0.4,0-0.7c0-0.2,0-0.4,0-0.7c0-0.2,0-0.5,0-0.8c0.1-0.2,0.2-0.4,0.3-0.7c0-0.2,0.1-0.4,0.2-0.7c0.1-0.1,0.2-0.3,0.3-0.5 c0.1-0.1,0.2-0.3,0.3-0.5c0.2-0.1,0.4-0.2,0.5-0.3s0.3-0.2,0.5-0.3c0.1-0.1,0.3-0.2,0.5-0.3s0.4-0.2,0.7-0.3 c0.2-0.1,0.4-0.2,0.7-0.3c0.1,0,0.3-0.1,0.5-0.2c0.3,0,0.6-0.1,0.8-0.2c0.2,0,0.4-0.1,0.7-0.2c0.3,0,0.6-0.1,0.8-0.2 c0.2,0,0.5,0,0.8,0l3.4-0.5c0.1,0,0.2,0,0.3,0c0.1,0,0.2,0,0.3,0s0.2-0.1,0.3-0.2c0.1,0,0.2,0,0.3,0c0.1-0.1,0.2-0.2,0.3-0.2 c0,0,0.1-0.1,0.2-0.2c0.1-0.1,0.2-0.2,0.3-0.2c0.1-0.1,0.2-0.2,0.2-0.3c0.1-0.1,0.2-0.2,0.2-0.3c0.1-0.1,0.2-0.2,0.2-0.3 c0.1-0.1,0.2-0.2,0.2-0.3c0-0.2,0-0.4,0-0.5c0-0.1,0-0.2,0-0.3c-0.1-0.2-0.2-0.4-0.2-0.5c-0.1-0.1-0.2-0.2-0.2-0.3 c-0.1-0.2-0.2-0.4-0.3-0.5c-0.1,0-0.2-0.1-0.3-0.2c-0.1-0.1-0.2-0.2-0.3-0.3c-0.1,0-0.2-0.1-0.3-0.2c-0.2,0-0.4-0.1-0.5-0.2 c-0.1,0-0.3-0.1-0.5-0.2c-0.1,0-0.3,0-0.5,0c-0.1,0-0.3,0-0.5,0c-0.1,0-0.3,0-0.5,0c0,0-0.1,0-0.2,0c-0.1,0-0.2,0-0.2,0 c-0.1,0-0.2,0-0.3,0c-0.1,0-0.2,0-0.2,0h-0.2c-0.1,0-0.2,0-0.2,0c-0.1,0-0.2,0.1-0.3,0.2c0,0-0.1,0-0.2,0c-0.1,0-0.2,0-0.3,0 c0,0-0.1,0.1-0.2,0.2c-0.1,0-0.2,0.1-0.3,0.2c-0.2,0-0.4,0.1-0.5,0.2s-0.2,0.2-0.3,0.2c-0.1,0.1-0.2,0.2-0.3,0.3 c-0.1,0-0.2,0.1-0.3,0.2c-0.1,0.1-0.2,0.2-0.2,0.3c-0.1,0-0.2,0.1-0.3,0.2c-0.1,0.1-0.2,0.2-0.2,0.3c-0.1,0-0.2,0.1-0.3,0.2 c0,0-0.1,0.1-0.2,0.2c-0.1,0-0.2,0.1-0.2,0.2c-0.1,0-0.2,0.1-0.3,0.2c0,0-0.1,0.1-0.2,0.2c-0.1,0-0.2,0-0.2,0c-0.1,0-0.2,0-0.3,0 c-0.1,0.1-0.2,0.2-0.2,0.2c-0.1,0-0.2-0.1-0.3-0.2c-0.1,0-0.2,0-0.3,0c-0.1,0-0.2,0-0.2,0c-0.1-0.1-0.2-0.2-0.3-0.2 c-0.1,0-0.2-0.1-0.2-0.2c-0.1,0-0.2-0.1-0.2-0.2c-0.1,0-0.2-0.1-0.2-0.2c-0.1,0-0.2-0.1-0.2-0.2c-0.1-0.1-0.2-0.2-0.2-0.2 c0-0.1,0-0.2,0-0.3c0,0-0.1-0.1-0.2-0.2c0-0.1,0-0.2,0-0.2c0-0.2,0.1-0.4,0.2-0.5c0-0.1,0-0.2,0-0.3c0.1-0.1,0.2-0.3,0.2-0.5 c0.1-0.1,0.2-0.2,0.3-0.3c0.1-0.1,0.2-0.2,0.3-0.3c0.1-0.2,0.2-0.4,0.3-0.5c0.1-0.1,0.3-0.2,0.5-0.3c0.1-0.1,0.2-0.2,0.3-0.3 c0.2-0.1,0.4-0.2,0.7-0.3s0.4-0.2,0.7-0.3s0.5-0.2,0.8-0.3c0.2-0.1,0.4-0.2,0.7-0.2c0.1,0,0.2-0.1,0.3-0.2c0.1,0,0.2,0,0.3,0 c0.1,0,0.2-0.1,0.3-0.2c0.1,0,0.2,0,0.3,0h0.3c0.4-0.1,0.9-0.2,1.5-0.2h0.2c0.1,0,0.3,0,0.5,0c0.3,0,0.6,0,0.8,0c0.3,0,0.7,0,1,0 c0.3,0.1,0.7,0.2,1,0.2c0.2,0,0.5,0.1,0.8,0.2c0.2,0,0.4,0.1,0.7,0.2c0.3,0.1,0.6,0.2,0.8,0.2c0.2,0.1,0.4,0.2,0.7,0.3 s0.4,0.2,0.7,0.3s0.4,0.2,0.5,0.3c0.2,0.1,0.4,0.2,0.5,0.3c0.1,0.2,0.2,0.4,0.3,0.5c0.2,0.2,0.4,0.4,0.5,0.5 c0.1,0.2,0.2,0.4,0.2,0.7c0.1,0.1,0.2,0.3,0.2,0.5c0.1,0.2,0.2,0.4,0.2,0.7c0,0.2,0,0.4,0,0.7V56c0,0.1,0,0.2,0,0.3 c0,0.1,0,0.3,0,0.5c0.1,0.1,0.2,0.2,0.2,0.3c0,0.1,0,0.2,0,0.3c0,0.1,0,0.2,0,0.3c0,0.1,0,0.2,0,0.2c0.1,0.1,0.2,0.2,0.2,0.3 s0,0.2,0,0.3L248.6,59.3z M243.2,50.9l-0.7,0.7c0,0,0,0.1,0,0.2c-0.1,0-0.2,0-0.2,0c-0.1,0.1-0.2,0.2-0.2,0.2c-0.1,0-0.2,0-0.2,0 c-0.1,0.1-0.2,0.2-0.3,0.2c0,0-0.1,0-0.2,0c-0.1,0-0.2,0.1-0.2,0.2c-0.1,0-0.2,0-0.3,0c-0.2,0-0.4,0.1-0.7,0.2l-2.1,0.3 c-0.1,0-0.3,0-0.5,0s-0.4,0.1-0.5,0.2c-0.2,0-0.4,0.1-0.5,0.2c-0.2,0-0.4,0.1-0.5,0.2c-0.2,0-0.4,0.1-0.5,0.2s-0.2,0.2-0.3,0.2 c-0.1,0.1-0.2,0.2-0.3,0.3c-0.1,0.1-0.2,0.2-0.3,0.3c-0.1,0.1-0.2,0.2-0.2,0.3c-0.1,0.2-0.2,0.4-0.2,0.5c-0.1,0.1-0.2,0.2-0.2,0.3 c0,0.2,0,0.4,0,0.5c0,0.1,0,0.2,0,0.3c0,0.1,0.1,0.3,0.2,0.5c0,0.1,0.1,0.2,0.2,0.3c0,0.1,0.1,0.2,0.2,0.3c0.1,0.1,0.2,0.2,0.2,0.2 c0.1,0.1,0.2,0.2,0.3,0.3c0.1,0.1,0.2,0.2,0.3,0.2c0.1,0.1,0.2,0.2,0.3,0.3c0.2,0,0.4,0.1,0.5,0.2c0.1,0,0.3,0,0.5,0 c0.1,0,0.3,0.1,0.5,0.2c0.1,0,0.3,0,0.5,0c0,0,0.1,0,0.2,0s0.2,0,0.3,0c0.1-0.1,0.2-0.2,0.3-0.2c0,0,0.1,0,0.2,0h0.2 c0.1,0,0.2,0,0.3,0c0.1-0.1,0.2-0.2,0.2-0.2c0.1,0,0.2,0,0.3,0c0,0,0.1-0.1,0.2-0.2c0.2,0,0.4-0.1,0.5-0.2c0.1,0,0.3-0.1,0.5-0.2 c0.1-0.1,0.2-0.2,0.3-0.3c0.1-0.1,0.3-0.2,0.5-0.3c0.1-0.1,0.2-0.2,0.3-0.3c0-0.1,0.1-0.2,0.2-0.3c0.1-0.1,0.2-0.2,0.3-0.3 c0.1-0.1,0.2-0.2,0.2-0.3c0.1-0.2,0.2-0.4,0.2-0.5c0.1-0.1,0.2-0.2,0.2-0.3c0-0.2,0-0.4,0-0.5c0-0.1,0-0.3,0-0.5L243.2,50.9 L243.2,50.9z M105,38.7c-0.2,0.1-0.4,0.3-0.7,0.5c-0.2,0.1-0.4,0.3-0.5,0.5c-0.2,0.2-0.4,0.4-0.7,0.5c-0.1,0.3-0.3,0.6-0.5,0.8 c-0.1,0.2-0.2,0.5-0.3,0.8c-0.2,0.2-0.4,0.4-0.5,0.7c-0.1,0.3-0.2,0.6-0.3,0.8c0,0.4-0.1,0.8-0.2,1.1c-0.1,0.3-0.2,0.7-0.2,1 c-0.1,0.3-0.2,0.7-0.2,1c0,0.4,0,0.8,0,1.1c0,0.3,0,0.7,0,1c0,0.2,0,0.5,0,0.8c0.1,0.3,0.2,0.7,0.2,1c0.1,0.3,0.2,0.7,0.2,1 c0.1,0.2,0.2,0.5,0.3,0.8c0.1,0.2,0.2,0.5,0.3,0.8c0.1,0.2,0.2,0.4,0.3,0.7c0.1,0.3,0.3,0.6,0.5,0.8c0.1,0.2,0.3,0.4,0.5,0.7 c0.1,0.2,0.3,0.4,0.5,0.5c0.2,0.2,0.4,0.4,0.7,0.7c0.2,0.1,0.5,0.2,0.8,0.3c0.2,0.2,0.5,0.3,0.8,0.3c0.3,0.1,0.7,0.2,1,0.3 c0.3,0.1,0.6,0.2,0.8,0.2c0.3,0,0.7,0,1,0c0.2,0,0.4,0,0.7,0c0.2,0,0.4,0,0.5,0c0.2-0.1,0.4-0.2,0.7-0.2c0.1-0.1,0.3-0.2,0.5-0.2 c0.1-0.1,0.3-0.2,0.5-0.3c0.1,0,0.2-0.1,0.3-0.2s0.3-0.2,0.5-0.3c0.1-0.1,0.2-0.2,0.3-0.3c0.1-0.1,0.2-0.2,0.3-0.3 c0.1-0.1,0.2-0.2,0.3-0.3c0-0.1,0.1-0.2,0.2-0.3c0.1-0.1,0.2-0.2,0.3-0.3c0.3-0.4,0.6-0.9,0.8-1.3c0.1-0.1,0.2-0.2,0.3-0.2 c0-0.1,0.1-0.2,0.2-0.3s0.2-0.2,0.2-0.2c0.1-0.1,0.2-0.2,0.3-0.2c0.1-0.1,0.2-0.2,0.3-0.2c0-0.1,0.1-0.2,0.2-0.2s0.2,0,0.3,0 s0.2,0,0.3,0c0.1,0,0.2,0,0.3,0s0.2,0,0.3,0s0.2,0.1,0.3,0.2c0.1,0,0.2,0,0.3,0c0.1,0.1,0.2,0.2,0.3,0.2c0,0,0.1,0.1,0.2,0.2 c0.1,0.1,0.2,0.2,0.3,0.2c0,0.1,0.1,0.2,0.2,0.3c0,0,0.1,0.1,0.2,0.2c0,0.1,0.1,0.2,0.2,0.3c0,0,0,0.1,0,0.2c0,0.1,0,0.2,0,0.3 c0,0.2,0,0.4,0,0.7c-0.1,0.3-0.2,0.6-0.2,0.8c-0.1,0.2-0.2,0.4-0.3,0.7c-0.1,0.2-0.2,0.4-0.3,0.7s-0.3,0.4-0.5,0.7 c-0.1,0.2-0.3,0.4-0.5,0.7c-0.2,0.2-0.4,0.4-0.7,0.7c-0.1,0.1-0.3,0.3-0.7,0.5c-0.2,0.2-0.4,0.4-0.7,0.5c-0.3,0.2-0.6,0.4-0.8,0.5 c-0.3,0.1-0.7,0.3-1,0.5c-0.2,0.1-0.5,0.2-0.8,0.3c-0.3,0.1-0.7,0.2-1,0.2c-0.4,0.1-0.8,0.2-1.1,0.3c-0.3,0-0.7,0-1,0 c-0.4,0.1-0.8,0.2-1.1,0.2c-0.7,0-1.3-0.1-1.8-0.2c-0.7,0-1.3-0.1-2-0.3c-0.5-0.1-1.1-0.3-1.8-0.5c-0.5-0.2-1.1-0.4-1.6-0.7 c-0.5-0.3-1-0.7-1.5-1c-0.4-0.3-0.8-0.7-1.1-1c-0.4-0.4-0.8-0.9-1.1-1.3c-0.3-0.4-0.6-0.9-0.8-1.5c-0.3-0.7-0.6-1.3-0.8-2 c-0.2-0.5-0.4-1.2-0.5-2c-0.1-0.7-0.2-1.3-0.3-2c0-0.7,0-1.3,0-2c0-0.4,0-0.8,0-1.1c0-0.3,0.1-0.7,0.2-1.1c0-0.3,0.1-0.7,0.2-1.1 c0-0.3,0.1-0.7,0.2-1s0.2-0.7,0.3-1c0.1-0.3,0.2-0.7,0.3-1c0.2-0.3,0.4-0.7,0.5-1c0.2-0.3,0.4-0.7,0.5-1c0.2-0.3,0.4-0.6,0.7-0.8 c0.1-0.3,0.3-0.6,0.5-0.8c0.2-0.2,0.5-0.5,0.8-0.8c0.2-0.2,0.4-0.4,0.7-0.7c0.3-0.2,0.6-0.4,0.8-0.7c0.3-0.2,0.7-0.4,1-0.5 c0.3-0.2,0.7-0.4,1-0.5c0.3-0.1,0.7-0.2,1-0.3c0.3-0.2,0.7-0.3,1.1-0.3c0.3-0.1,0.7-0.2,1.1-0.3c0.4,0,0.8-0.1,1.1-0.2 c0.4,0,0.9,0,1.3,0c0.3,0,0.7,0,1,0c0.3,0,0.7,0.1,1,0.2c0.3,0,0.7,0.1,1,0.2c0.2,0,0.5,0.1,0.8,0.2s0.6,0.2,0.8,0.2 c0.3,0.1,0.6,0.2,0.8,0.3s0.4,0.2,0.7,0.3c0.3,0.1,0.6,0.3,0.8,0.5c0.2,0.1,0.4,0.2,0.7,0.3c0.1,0.1,0.3,0.2,0.5,0.3 c0.2,0.2,0.4,0.4,0.5,0.5c0.2,0.1,0.4,0.3,0.5,0.5c0.2,0.1,0.4,0.3,0.5,0.5c0.1,0.1,0.2,0.2,0.3,0.3c0.1,0.2,0.2,0.4,0.3,0.5 c0.1,0.2,0.2,0.4,0.2,0.5c0.1,0.1,0.2,0.3,0.3,0.5c0,0.1,0,0.2,0,0.3c0.1,0.1,0.2,0.3,0.2,0.5c0,0.1,0,0.2,0,0.3c0,0.2,0,0.4,0,0.5 c0,0.2-0.1,0.4-0.2,0.5c0,0.2-0.1,0.4-0.2,0.5c-0.1,0.1-0.2,0.2-0.3,0.3s-0.2,0.2-0.3,0.3c-0.1,0.1-0.3,0.2-0.5,0.2 c-0.1,0.1-0.3,0.2-0.5,0.2c-0.1,0-0.3,0-0.5,0c-0.1,0-0.2,0-0.3,0c-0.1,0-0.2,0-0.3,0s-0.2-0.1-0.3-0.2c-0.1,0-0.2-0.1-0.3-0.2 c-0.1,0-0.2-0.1-0.2-0.2c-0.1,0-0.2-0.1-0.3-0.2s-0.2-0.2-0.2-0.2c-0.1-0.1-0.2-0.2-0.2-0.3c-0.3-0.3-0.7-0.7-1-1.1 c0-0.1-0.1-0.2-0.2-0.3c-0.1-0.1-0.2-0.2-0.3-0.3c-0.1-0.1-0.2-0.2-0.3-0.3s-0.2-0.2-0.3-0.3c-0.1-0.1-0.2-0.2-0.3-0.3 c-0.1-0.1-0.2-0.2-0.3-0.2c-0.2-0.1-0.4-0.2-0.5-0.3c-0.1-0.1-0.3-0.2-0.5-0.2c-0.2-0.1-0.4-0.2-0.7-0.2c-0.1-0.1-0.3-0.2-0.5-0.2 c-0.2,0-0.4,0-0.7,0c-0.2-0.1-0.4-0.2-0.7-0.2c-0.3,0-0.6,0.1-0.8,0.2c-0.2,0-0.5,0.1-0.8,0.2c-0.2,0-0.4,0.1-0.7,0.2 c-0.2,0.1-0.5,0.2-0.8,0.3C105.5,38.5,105.3,38.6,105,38.7L105,38.7z M194.5,59.3c0,0.1,0,0.2,0,0.3c0,0.2,0,0.4,0,0.5 c-0.1,0.1-0.2,0.3-0.2,0.5c-0.1,0.1-0.2,0.2-0.3,0.3c-0.2,0.2-0.5,0.4-0.8,0.5c-0.2,0.1-0.5,0.2-0.8,0.2c-0.2,0-0.5-0.1-0.8-0.2 c-0.3-0.1-0.6-0.3-0.8-0.5c-0.1-0.1-0.2-0.2-0.2-0.3c-0.1-0.1-0.2-0.3-0.2-0.5c-0.1-0.1-0.2-0.3-0.2-0.5c0-0.1,0-0.2,0-0.3v-1 l-0.2-0.3h-0.7v0.2c-0.1,0.2-0.2,0.4-0.3,0.5c0,0.2-0.1,0.4-0.2,0.5c-0.1,0.2-0.2,0.4-0.3,0.5c-0.2,0.1-0.4,0.3-0.5,0.5 c-0.1,0.1-0.2,0.2-0.3,0.3c-0.2,0.1-0.4,0.2-0.5,0.3c-0.2,0-0.4,0.1-0.5,0.2c-0.2,0.1-0.4,0.2-0.5,0.2c-0.1,0.1-0.2,0.2-0.3,0.2 s-0.2,0-0.3,0c-0.1,0-0.2,0.1-0.3,0.2c-0.1,0-0.2,0-0.3,0c-0.3,0-0.7,0.1-1.1,0.2c-0.3,0-0.7-0.1-1.1-0.2c-0.3,0-0.7-0.1-1-0.2 c-0.4-0.1-0.8-0.2-1.1-0.3c-0.2-0.1-0.5-0.2-0.8-0.3c-0.2-0.2-0.4-0.4-0.7-0.5c-0.2-0.2-0.4-0.4-0.7-0.5c-0.2-0.2-0.4-0.4-0.5-0.7 c-0.2-0.2-0.4-0.4-0.7-0.7c-0.2-0.3-0.4-0.6-0.5-0.8c-0.2-0.3-0.4-0.6-0.5-0.8c-0.1-0.3-0.2-0.6-0.3-0.8c-0.2-0.7-0.4-1.3-0.5-2 c-0.1-0.7-0.2-1.3-0.2-2s0-1.3,0-2c0.1-0.7,0.2-1.3,0.3-2c0-0.2,0.1-0.4,0.2-0.7c0.1-0.2,0.2-0.4,0.2-0.7c0.1-0.2,0.2-0.4,0.3-0.7 c0.1-0.2,0.2-0.4,0.3-0.7c0.1-0.2,0.2-0.4,0.3-0.7c0.1-0.2,0.2-0.4,0.3-0.7c0.2-0.1,0.4-0.3,0.5-0.5c0.1-0.2,0.3-0.4,0.5-0.5 c0.2-0.2,0.4-0.4,0.5-0.5c0.2-0.1,0.4-0.2,0.7-0.3c0.1-0.1,0.3-0.2,0.5-0.3s0.4-0.2,0.7-0.3s0.5-0.2,0.8-0.3c0.2,0,0.4-0.1,0.7-0.2 c0.3,0,0.6,0,0.8,0s0.5,0,0.8,0c0.2,0,0.5,0,0.8,0h0.3l0,0c0,0,0.1,0,0.2,0c0,0,0,0,0,0c0,0,0,0,0,0l0.2,0.2c0.2,0,0.4,0,0.7,0v0.2 c0.1,0,0.2,0,0.2,0c0.1,0,0.2,0,0.2,0c0.1,0.1,0.2,0.2,0.3,0.2c0,0,0.1,0,0.2,0c0,0.1,0.1,0.2,0.2,0.2c0.2,0.1,0.4,0.2,0.7,0.3 c0.1,0.2,0.3,0.4,0.5,0.5c0.2,0.2,0.4,0.4,0.5,0.5c0.2,0.2,0.4,0.4,0.5,0.7l0.2,0.2h0.7v-8c0-0.1,0-0.2,0-0.3c0-0.1,0-0.2,0-0.3 s0.1-0.2,0.2-0.3c0-0.1,0.1-0.2,0.2-0.3c0-0.1,0-0.2,0-0.3c0.1-0.1,0.2-0.2,0.3-0.2c0-0.1,0.1-0.2,0.2-0.2c0.1-0.1,0.2-0.2,0.2-0.2 c0.2-0.1,0.4-0.2,0.7-0.2c0.2-0.1,0.4-0.2,0.7-0.2c0.3,0,0.6,0.1,0.8,0.2c0.2,0,0.4,0.1,0.5,0.2c0.1,0,0.2,0.1,0.3,0.2 c0.1,0,0.2,0.1,0.2,0.2c0.1,0,0.2,0.1,0.2,0.2c0.1,0.1,0.2,0.2,0.2,0.3c0.1,0.1,0.2,0.2,0.2,0.3c0.1,0.1,0.2,0.2,0.2,0.3 c0,0.1,0,0.2,0,0.3c0,0.1,0,0.2,0,0.3V59.3L194.5,59.3z M189.8,53.7c0-0.2,0.1-0.4,0.2-0.7c0-0.1,0-0.3,0-0.5s0-0.4,0-0.7 c0-0.2,0-0.4,0-0.7c0-0.1,0-0.3,0-0.5s0-0.4,0-0.7c0-0.1,0-0.3,0-0.5c-0.1-0.2-0.2-0.4-0.2-0.7c0-0.1-0.1-0.3-0.2-0.5 c0-0.2-0.1-0.4-0.2-0.5c0-0.2-0.1-0.4-0.2-0.5c-0.1-0.2-0.2-0.4-0.3-0.7c-0.1-0.1-0.2-0.2-0.3-0.3c-0.1-0.2-0.2-0.4-0.3-0.5 c-0.1-0.1-0.2-0.2-0.3-0.3c-0.2-0.2-0.4-0.3-0.5-0.3c-0.1-0.1-0.2-0.2-0.2-0.2c0,0-0.1,0-0.2,0c0-0.1,0-0.2,0-0.2 c-0.1,0-0.2,0-0.2,0l0,0c-0.1,0-0.2,0-0.2,0c0,0,0,0,0,0c0,0,0,0,0,0l-0.2-0.2l0,0c0,0-0.1,0-0.2,0l0,0c0,0-0.1,0-0.2,0 c0,0-0.1-0.1-0.2-0.2H186c0,0-0.1,0-0.2,0c-0.1,0-0.2,0-0.3,0h-0.2c-0.1,0-0.2,0-0.3,0s-0.3,0-0.5,0c-0.1,0-0.3,0-0.5,0 c-0.1,0.1-0.3,0.2-0.5,0.2c-0.2,0.1-0.4,0.2-0.5,0.2c-0.1,0.1-0.2,0.2-0.3,0.3c-0.2,0.1-0.4,0.2-0.5,0.3c-0.1,0-0.2,0.1-0.3,0.2 s-0.2,0.3-0.3,0.5c0,0.1-0.1,0.2-0.2,0.3s-0.2,0.2-0.3,0.3c0,0.1-0.1,0.3-0.2,0.5c0,0.1-0.1,0.2-0.2,0.3c0,0.2-0.1,0.4-0.2,0.5 c0,0.1-0.1,0.3-0.2,0.5c0,0.1,0,0.2,0,0.3c0,0.2-0.1,0.4-0.2,0.5c0,0.1,0,0.3,0,0.5c0,0.1,0,0.2,0,0.3c0,0.2,0,0.4,0,0.5 c0,0.1,0,0.2,0,0.3c0,0.2,0,0.4,0,0.7c0,0.2,0,0.4,0,0.7c0,0.2,0.1,0.4,0.2,0.7c0,0.2,0,0.4,0,0.5c0.1,0.2,0.2,0.4,0.2,0.7 c0.1,0.1,0.2,0.3,0.3,0.5c0,0.2,0.1,0.4,0.2,0.5c0.1,0.2,0.2,0.4,0.3,0.5s0.2,0.3,0.3,0.5c0.1,0.1,0.2,0.2,0.3,0.3 c0.1,0.1,0.2,0.2,0.3,0.3c0.2,0.1,0.4,0.2,0.5,0.3c0.2,0.1,0.4,0.2,0.5,0.2c0.2,0.1,0.4,0.2,0.7,0.3c0.1,0,0.3,0,0.5,0s0.4,0,0.5,0 s0.2,0,0.3,0h0.2c0.1,0,0.2,0,0.2,0c0.1,0,0.2,0,0.3,0h0.2c0,0,0.1,0,0.2,0c0.1-0.1,0.2-0.2,0.3-0.2s0.2,0,0.2,0 c0.1-0.1,0.2-0.2,0.2-0.2c0.1,0,0.2,0,0.2,0s0.1-0.1,0.2-0.2l0,0c0.2-0.1,0.4-0.2,0.5-0.3c0.2-0.1,0.4-0.2,0.5-0.3 c0.1-0.1,0.2-0.2,0.3-0.3c0.1-0.2,0.2-0.4,0.3-0.5c0.1-0.2,0.2-0.4,0.3-0.5c0-0.2,0.1-0.4,0.2-0.5c0.1-0.2,0.2-0.4,0.2-0.5 C189.7,54.1,189.8,53.9,189.8,53.7L189.8,53.7z M264.4,45.1c-0.1,0.1-0.2,0.2-0.2,0.3c-0.1,0-0.2,0.1-0.3,0.2c-0.1,0-0.2,0-0.2,0 c-0.1,0.1-0.2,0.2-0.3,0.2c-0.1,0-0.2,0.1-0.3,0.2c-0.1,0-0.2,0-0.3,0c-0.1,0-0.2,0-0.3,0h-1c-0.2,0-0.4,0-0.7,0 c-0.1,0-0.3,0.1-0.5,0.2c-0.2,0-0.4,0.1-0.5,0.2c-0.2,0.1-0.4,0.2-0.5,0.3c-0.1,0.1-0.3,0.3-0.5,0.5c-0.1,0.1-0.2,0.3-0.3,0.5 c-0.1,0.2-0.2,0.4-0.3,0.7c-0.1,0.1-0.2,0.3-0.2,0.5c-0.1,0.3-0.2,0.7-0.2,1c-0.1,0.3-0.2,0.7-0.2,1c0,0.3-0.1,0.7-0.2,1 c0,0.3,0,0.7,0,1v6.5c0,0.1,0,0.2,0,0.3c0,0.1,0,0.2,0,0.3s0,0.2,0,0.3c-0.1,0.1-0.2,0.2-0.2,0.2c0,0.1-0.1,0.2-0.2,0.3 c0,0.1-0.1,0.2-0.2,0.2c0,0.1-0.1,0.2-0.2,0.3c-0.1,0-0.2,0.1-0.2,0.2c-0.1,0-0.2,0.1-0.3,0.2c-0.2,0-0.4,0-0.5,0 c-0.1,0-0.2,0.1-0.3,0.2c-0.1,0-0.2,0-0.3,0c-0.2,0-0.4,0-0.5,0c-0.1-0.1-0.2-0.2-0.3-0.2c-0.1,0-0.2,0-0.3,0 c-0.2-0.1-0.4-0.2-0.5-0.2c0-0.1-0.1-0.2-0.2-0.2c-0.1-0.1-0.2-0.2-0.2-0.3c-0.1,0-0.2-0.1-0.2-0.2c-0.1-0.1-0.2-0.2-0.2-0.3 c0,0-0.1-0.1-0.2-0.2c0-0.1,0-0.2,0-0.3c0-0.1,0-0.2,0-0.3s0-0.2,0-0.3V43.3c0-0.1,0-0.2,0-0.3s0-0.2,0-0.3c0,0,0.1-0.1,0.2-0.2 c0-0.1,0-0.2,0-0.3c0.1-0.1,0.2-0.2,0.2-0.3c0.1,0,0.2-0.1,0.2-0.2c0.1,0,0.2-0.1,0.3-0.2c0,0,0.1-0.1,0.2-0.2 c0.2,0,0.4-0.1,0.5-0.2c0.2,0,0.4,0,0.7,0s0.4,0,0.5,0c0.2,0.1,0.4,0.2,0.7,0.2c0,0.1,0.1,0.2,0.2,0.2c0.1,0.1,0.2,0.2,0.2,0.2 c0.1,0.1,0.2,0.2,0.2,0.2c0.1,0.1,0.2,0.2,0.2,0.3c0.1,0.1,0.2,0.2,0.2,0.3c0,0,0.1,0.1,0.2,0.2c0,0.1,0,0.2,0,0.3s0,0.2,0,0.3v2.3 l0.2,0.3h0.7v-0.3c0.1-0.1,0.2-0.2,0.2-0.3c0-0.2,0.1-0.4,0.2-0.5c0-0.1,0.1-0.3,0.2-0.5c0-0.1,0.1-0.2,0.2-0.3 c0-0.1,0.1-0.2,0.2-0.3c0.1-0.2,0.2-0.4,0.2-0.5c0.1-0.1,0.2-0.2,0.3-0.3c0-0.1,0.1-0.2,0.2-0.3c0.1-0.1,0.2-0.2,0.3-0.3 c0.1-0.1,0.2-0.2,0.3-0.2c0.1-0.1,0.2-0.2,0.3-0.3c0.1,0,0.2-0.1,0.3-0.2c0.1-0.1,0.2-0.2,0.3-0.2c0.1,0,0.2-0.1,0.3-0.2 c0.2,0,0.4,0,0.5,0c0.1,0,0.2,0,0.3,0c0.2,0,0.4,0,0.5,0c0.1,0,0.2,0,0.3,0c0.1,0,0.2,0.1,0.3,0.2c0.1,0,0.2,0.1,0.3,0.2 c0.1,0,0.2,0.1,0.3,0.2c0.1,0,0.2,0.1,0.2,0.2c0.1,0,0.2,0.1,0.3,0.2c0,0.1,0.1,0.2,0.2,0.3c0,0.1,0.1,0.2,0.2,0.2 c0,0.1,0,0.2,0,0.3c0.1,0.1,0.2,0.2,0.2,0.3s0,0.2,0,0.3c0,0.1,0,0.2,0,0.3c0,0.2,0,0.4,0,0.5c-0.1,0.1-0.2,0.2-0.2,0.3 c-0.1,0.1-0.2,0.2-0.2,0.3C264.4,45,264.4,45.1,264.4,45.1L264.4,45.1z M224.6,43.1c0.2,0.1,0.4,0.3,0.5,0.5 c0.1,0.1,0.2,0.3,0.3,0.5c0.1,0.2,0.2,0.4,0.3,0.7c0.1,0.2,0.2,0.5,0.2,0.8c0.1,0.2,0.2,0.5,0.2,0.8c0.1,0.3,0.2,0.6,0.2,0.8 c0,0.3,0,0.7,0,1v10.9c0,0.1,0,0.2,0,0.3c0,0.1,0,0.2,0,0.3c0,0.1,0,0.2,0,0.3c-0.1,0.1-0.2,0.2-0.2,0.3c0,0-0.1,0.1-0.2,0.2 c0,0.1-0.1,0.2-0.2,0.2c0,0.1-0.1,0.2-0.2,0.3c-0.1,0-0.2,0.1-0.2,0.2c-0.2,0.1-0.5,0.2-0.8,0.2c-0.2,0.1-0.5,0.2-0.8,0.2 c-0.2,0-0.4-0.1-0.7-0.2c-0.3,0-0.6-0.1-0.8-0.2c0-0.1-0.1-0.2-0.2-0.2c-0.1-0.1-0.2-0.2-0.2-0.3c-0.1,0-0.2-0.1-0.2-0.2 c-0.1-0.1-0.2-0.2-0.2-0.3c0,0-0.1-0.1-0.2-0.2c0-0.1,0-0.2,0-0.3c0-0.1,0-0.2,0-0.3s0-0.2,0-0.3v-9.8c0-0.2,0-0.4,0-0.7 c-0.1-0.2-0.2-0.4-0.2-0.5c0-0.2-0.1-0.4-0.2-0.7c0-0.1-0.1-0.3-0.2-0.5c-0.1-0.1-0.2-0.3-0.2-0.5c-0.1-0.1-0.2-0.2-0.3-0.3 s-0.2-0.2-0.3-0.3c-0.2-0.1-0.4-0.2-0.5-0.3c-0.2-0.1-0.4-0.2-0.5-0.3c-0.2-0.1-0.4-0.2-0.7-0.2c-0.1,0-0.3-0.1-0.5-0.2 c-0.2,0-0.4,0-0.7,0c-0.1,0-0.2,0-0.3,0s-0.3,0.1-0.5,0.2c-0.1,0-0.2,0-0.3,0c-0.1,0.1-0.3,0.2-0.5,0.2c-0.1,0.1-0.2,0.2-0.3,0.2 c-0.1,0.1-0.2,0.2-0.3,0.3c-0.2,0-0.4,0.1-0.5,0.2c-0.1,0.1-0.2,0.2-0.3,0.3s-0.2,0.2-0.3,0.3c-0.1,0.1-0.2,0.2-0.3,0.3 c0,0.1-0.1,0.3-0.2,0.5c-0.1,0.1-0.2,0.2-0.3,0.3c0,0.2-0.1,0.4-0.2,0.5c0,0.2-0.1,0.4-0.2,0.5c0,0.2,0,0.4,0,0.7c0,0.1,0,0.3,0,0.5 v9.3c0,0.1,0,0.2,0,0.3c0,0.1,0,0.2,0,0.3c-0.1,0.1-0.2,0.2-0.2,0.3c0,0.1,0,0.2,0,0.3c-0.1,0-0.2,0.1-0.2,0.2 c-0.1,0.1-0.2,0.2-0.2,0.2c-0.1,0.1-0.2,0.2-0.2,0.3c-0.1,0-0.2,0.1-0.3,0.2c-0.2,0.1-0.4,0.2-0.7,0.2c-0.3,0.1-0.6,0.2-0.8,0.2 s-0.5-0.1-0.8-0.2c-0.2,0-0.4-0.1-0.7-0.2c-0.1-0.1-0.2-0.2-0.3-0.2c0-0.1-0.1-0.2-0.2-0.3c0,0-0.1-0.1-0.2-0.2 c0-0.1-0.1-0.2-0.2-0.2c0-0.1,0-0.2,0-0.3c0-0.1-0.1-0.2-0.2-0.3c0-0.1,0-0.2,0-0.3s0-0.2,0-0.3V43.6c0-0.1,0-0.3,0-0.5 c0-0.1,0-0.2,0-0.3c0.1-0.1,0.2-0.2,0.2-0.3s0.1-0.2,0.2-0.3c0,0,0-0.1,0-0.2c0.1-0.1,0.2-0.2,0.2-0.2c0.1-0.1,0.2-0.2,0.2-0.3 c0.1,0,0.2,0,0.3,0c0.2-0.1,0.4-0.2,0.5-0.3c0.2,0,0.4,0,0.7,0c0.2,0,0.4,0,0.7,0c0.2,0.1,0.4,0.2,0.7,0.3c0.1,0,0.2,0,0.2,0 c0.1,0.1,0.2,0.2,0.2,0.3c0.1,0,0.2,0.1,0.2,0.2c0.1,0.1,0.2,0.2,0.2,0.2c0,0.1,0.1,0.2,0.2,0.3c0,0.1,0,0.2,0,0.3 c0,0.1,0,0.2,0,0.3c0.1,0.2,0.2,0.4,0.2,0.5v0.7v0.3h0.7v-0.2c0.1-0.1,0.3-0.2,0.5-0.3c0.1-0.2,0.2-0.4,0.3-0.5 c0.2-0.2,0.4-0.4,0.5-0.5c0.1-0.1,0.3-0.2,0.5-0.3c0.1-0.2,0.3-0.4,0.5-0.5c0.1-0.1,0.3-0.2,0.5-0.3c0.2,0,0.4-0.1,0.5-0.2 c0.2-0.1,0.4-0.2,0.7-0.3c0.3-0.1,0.7-0.2,1.1-0.3c0.4,0,0.9,0,1.3,0s0.9,0,1.3,0c0.4,0.1,0.9,0.2,1.3,0.3c0.2,0,0.4,0.1,0.7,0.2 c0.1,0.1,0.3,0.2,0.5,0.3c0.2,0,0.4,0.1,0.5,0.3c0.2,0.1,0.4,0.2,0.5,0.3C224.3,42.7,224.4,42.9,224.6,43.1L224.6,43.1z M203,41.6 c0.1,0,0.2,0.1,0.2,0.2c0.1,0.1,0.2,0.2,0.2,0.2c0,0.1,0.1,0.2,0.2,0.3c0,0.1,0,0.2,0,0.3c0.1,0.1,0.2,0.2,0.2,0.3 c0,0.1,0,0.2,0,0.3c0,0.1,0,0.2,0,0.3v15.5c0,0.1,0,0.2,0,0.3c0,0.1,0,0.2,0,0.3c0,0.1-0.1,0.2-0.2,0.3c0,0.1,0,0.2,0,0.3 c-0.1,0-0.2,0.1-0.2,0.2c0,0.1-0.1,0.2-0.2,0.2c0,0.1-0.1,0.2-0.2,0.3c-0.1,0-0.2,0.1-0.3,0.2c-0.1,0-0.2,0.1-0.3,0.2 c-0.1,0-0.2,0-0.3,0s-0.2,0.1-0.3,0.2c-0.2,0-0.4,0-0.5,0s-0.2,0-0.3,0c-0.1-0.1-0.2-0.2-0.3-0.2c-0.2,0-0.4,0-0.5,0 c-0.1-0.1-0.2-0.2-0.3-0.2c-0.1-0.1-0.2-0.2-0.2-0.2c-0.1-0.1-0.2-0.2-0.2-0.3c-0.1,0-0.2-0.1-0.2-0.2c-0.1-0.1-0.2-0.2-0.2-0.2 c-0.1-0.1-0.2-0.2-0.2-0.3s0-0.2,0-0.3s-0.1-0.2-0.2-0.3c0-0.1,0-0.2,0-0.3V43.6c0-0.1,0-0.2,0-0.3c0.1-0.1,0.2-0.2,0.2-0.3 s0-0.2,0-0.3s0.1-0.2,0.2-0.3c0-0.1,0.1-0.2,0.2-0.3c0,0,0.1-0.1,0.2-0.2c0-0.1,0.1-0.2,0.2-0.2c0-0.1,0.1-0.2,0.2-0.2 c0.2-0.1,0.5-0.2,0.8-0.3c0.2,0,0.4,0,0.7,0c0.3,0,0.6,0,0.8,0c0.2,0.1,0.4,0.2,0.7,0.3C202.8,41.5,202.9,41.5,203,41.6L203,41.6z M202.7,34c0.1,0.1,0.2,0.2,0.3,0.3c0.1,0,0.2,0.1,0.2,0.2c0.1,0.1,0.2,0.2,0.2,0.3c0.7,1,0.3,2.3-0.7,3.1c-0.8,0.8-2.3,0.7-3.1-0.2 c-1-1-1-2.3-0.3-3.3c0.8-1,2.1-1.3,3.3-0.7C202.6,33.9,202.7,34,202.7,34L202.7,34z"></path> </svg> 