<?xml version="1.0" encoding="UTF-8"?> <svg xmlns="http://www.w3.org/2000/svg" width="64" height="64" viewBox="0 0 64 64" fill="none"><path d="M51.332 23.1783C50.7096 22.9656 50.0647 22.7643 49.4006 22.574C49.5097 22.1317 49.6099 21.6952 49.699 21.2661C51.1611 14.2199 50.2051 8.5434 46.9408 6.67446C43.8107 4.8824 38.6917 6.75091 33.5218 11.2179C33.0246 11.6474 32.5261 12.1022 32.0278 12.5788C31.6957 12.2635 31.3642 11.9587 31.0336 11.6672C25.6153 6.89087 20.1844 4.87805 16.9233 6.7524C13.7962 8.54966 12.8701 13.8861 14.1862 20.5638C14.3133 21.2088 14.4619 21.8675 14.6299 22.5372C13.8612 22.7538 13.1192 22.9848 12.4092 23.2305C6.05687 25.4293 2 28.8753 2 32.4498C2 36.1416 6.35506 39.8445 12.9715 42.0897C13.4936 42.2669 14.0354 42.4344 14.5938 42.5935C14.4125 43.3178 14.2549 44.0276 14.1226 44.7199C12.8677 51.2817 13.8477 56.4921 16.9664 58.278C20.1878 60.1223 25.5942 58.2266 30.8586 53.6578C31.2747 53.2967 31.6923 52.9137 32.1106 52.5122C32.6529 53.0306 33.1942 53.5212 33.7327 53.9814C38.8319 58.338 43.8683 60.0972 46.9841 58.3063C50.2023 56.4567 51.2482 50.8595 49.8904 44.0496C49.7867 43.5295 49.666 42.9982 49.5304 42.4574C49.9101 42.346 50.2828 42.2309 50.6463 42.1113C57.5247 39.8487 62 36.1909 62 32.4498C62 28.8624 57.8123 25.3931 51.332 23.1783ZM49.8402 39.6958C49.5121 39.8036 49.1754 39.9079 48.8324 40.0089C48.0731 37.6222 47.0482 35.0843 45.7941 32.4622C46.9909 29.9026 47.9761 27.3971 48.7142 25.0259C49.328 25.2022 49.9237 25.3882 50.4977 25.5845C56.05 27.4822 59.4368 30.2879 59.4368 32.4498C59.4368 34.7526 55.7792 37.742 49.8402 39.6958ZM47.3759 44.5438C47.9763 47.5551 48.0621 50.2776 47.6643 52.4059C47.307 54.3183 46.5883 55.5933 45.6998 56.104C43.8089 57.1906 39.7653 55.7781 35.4043 52.0524C34.9044 51.6253 34.4008 51.1692 33.8957 50.6865C35.5863 48.8508 37.276 46.7167 38.9251 44.3465C41.8256 44.091 44.566 43.6732 47.0511 43.1029C47.1735 43.593 47.2822 44.0738 47.3759 44.5438ZM22.4554 55.9162C20.6079 56.564 19.1366 56.5825 18.2471 56.0733C16.3546 54.9896 15.5678 50.8062 16.641 45.1945C16.7639 44.5518 16.9102 43.8916 17.0789 43.2168C19.5367 43.7564 22.257 44.1447 25.1645 44.3788C26.8247 46.698 28.5632 48.8298 30.3151 50.6964C29.9324 51.0633 29.5511 51.4126 29.172 51.7417C26.8441 53.7619 24.5112 55.1953 22.4554 55.9162ZM13.8005 39.6817C10.8748 38.6889 8.45868 37.3986 6.80255 35.9906C5.31441 34.7253 4.56307 33.4691 4.56307 32.4498C4.56307 30.2807 7.82034 27.514 13.2529 25.6335C13.9121 25.4053 14.6021 25.1903 15.3182 24.9883C16.069 27.413 17.0539 29.9482 18.2424 32.5117C17.0385 35.1134 16.0396 37.6889 15.2814 40.1421C14.7709 39.9964 14.2764 39.8431 13.8005 39.6817ZM16.7017 20.0751C15.5741 14.3538 16.3229 10.0378 18.2074 8.95481C20.2147 7.80106 24.6534 9.44606 29.3316 13.5702C29.6307 13.8338 29.9309 14.1097 30.2319 14.3952C28.4887 16.2536 26.7661 18.3694 25.1206 20.675C22.2988 20.9346 19.5976 21.3518 17.1141 21.9103C16.958 21.2868 16.8197 20.6741 16.7017 20.0751ZM42.5829 26.42C41.9892 25.4019 41.3797 24.4078 40.7584 23.4409C42.6728 23.6812 44.5069 24.0002 46.2294 24.3905C45.7123 26.0359 45.0677 27.7563 44.309 29.5199C43.7648 28.494 43.1891 27.4597 42.5829 26.42ZM32.0286 16.2138C33.2109 17.4855 34.3949 18.9053 35.5594 20.4457C34.3859 20.3907 33.1979 20.3621 32 20.3621C30.8135 20.3621 29.6342 20.39 28.4679 20.4441C29.6336 18.918 30.8279 17.5001 32.0286 16.2138ZM21.4067 26.4376C20.8136 27.4586 20.2487 28.4874 19.713 29.518C18.9665 27.7605 18.328 26.0323 17.8064 24.3635C19.5183 23.9832 21.3438 23.6722 23.246 23.4365C22.6159 24.4123 22.0014 25.4137 21.4067 26.4374V26.4376ZM23.3008 41.6447C21.3355 41.427 19.4825 41.132 17.771 40.7622C18.301 39.0636 18.9536 37.2985 19.7158 35.5031C20.2529 36.533 20.8202 37.5622 21.4168 38.5854H21.4169C22.0247 39.6278 22.6544 40.6489 23.3008 41.6447ZM32.0995 48.8652C30.8847 47.5639 29.673 46.1244 28.4895 44.576C29.6383 44.6207 30.8096 44.6436 32 44.6436C33.223 44.6436 34.4319 44.6163 35.6219 44.5637C34.4535 46.14 33.2738 47.5817 32.0995 48.8652ZM44.3335 35.4116C45.1354 37.2264 45.8115 38.9823 46.3483 40.6519C44.6086 41.0459 42.7303 41.3633 40.7513 41.5991C41.3742 40.6191 41.989 39.608 42.5932 38.5679C43.2044 37.5157 43.7848 36.4618 44.3335 35.4116ZM40.3729 37.2966C39.435 38.9112 38.4721 40.4525 37.4946 41.9073C35.7142 42.0337 33.8748 42.0988 32 42.0988C30.1328 42.0988 28.3166 42.0412 26.5677 41.9285C25.5507 40.4546 24.5669 38.9087 23.635 37.3105H23.6352C22.7057 35.7166 21.8502 34.1092 21.0751 32.5109C21.85 30.9088 22.7032 29.2997 23.6274 27.7087L23.6272 27.709C24.5537 26.1137 25.5289 24.5754 26.5365 23.1106C28.3209 22.9767 30.1507 22.9068 31.9999 22.9068H32C33.8576 22.9068 35.6897 22.9773 37.4736 23.1123C38.4657 24.5664 39.4343 26.0997 40.3645 27.6952C41.3053 29.3086 42.1695 30.907 42.9511 32.4747C42.1719 34.0694 41.3096 35.6839 40.3729 37.2966ZM45.6605 8.8791C47.6697 10.0295 48.451 14.6688 47.1887 20.7525C47.1081 21.1407 47.0175 21.5361 46.919 21.9368C44.4297 21.3665 41.7266 20.9422 38.8966 20.6786C37.2479 18.3476 35.5394 16.2286 33.8246 14.394C34.2856 13.9536 34.746 13.5337 35.2045 13.1375C39.6341 9.31023 43.7742 7.79915 45.6605 8.8791ZM32 27.1305C34.959 27.1305 37.3578 29.512 37.3578 32.4498C37.3578 35.3876 34.959 37.7692 32 37.7692C29.041 37.7692 26.6422 35.3876 26.6422 32.4498C26.6422 29.512 29.041 27.1305 32 27.1305Z" fill="#00D8FF"></path></svg> 