<?xml version="1.0" encoding="UTF-8"?> <svg xmlns="http://www.w3.org/2000/svg" xmlns:xlink="http://www.w3.org/1999/xlink" version="1.1" id="Layer_1" x="0px" y="0px" viewBox="0 0 180 49" style="enable-background:new 0 0 180 49;" xml:space="preserve"> <style type="text/css"> .st0{fill:#4050C6;} .st1{fill:#FFFFFF;} </style> <path id="Fill-8" class="st0" d="M141.2,10.3l4.4,4.4l4.4-4.4L145.6,6L141.2,10.3z"></path> <path id="Path_37640" class="st1" d="M34.4,10.3L23.7,24.5L12.9,10.3H7.2v32.1h6.2V21.3l10,12.6h0.3l10.1-12.7v21.2h6.2V10.3H34.4z M131,42.4h6.1V8.4l-6.1,1.8V42.4z M119.7,42.4h6.1V8.4l-6.1,1.8V42.4z M83.9,37.1l-0.2,0.1c-0.9,0.3-1.8,0.4-2.8,0.5h-0.2 c-1.2,0.1-2.4-0.3-3.4-1c-1.5-1.1-2.2-3.2-2.2-6.1c0-4.6,2.2-7.3,5.8-7.3c1,0,1.9,0.2,2.8,0.5l0.2,0.1L83.9,37.1L83.9,37.1z M83.9,18.6l-0.4-0.1c-1.2-0.3-2.5-0.5-3.8-0.5c-2.7-0.1-5.3,0.8-7.4,2.5c-2.5,2.2-3.7,5.7-3.7,10.5c0,4.3,1.2,7.5,3.5,9.5 c1.9,1.7,4.6,2.5,7.9,2.5c3.3-0.1,6.6-0.7,9.7-1.9l0.2-0.1V8.7l-6,1.7L83.9,18.6L83.9,18.6z M142.3,42.4h6.1V17.6l-6.1,1.8V42.4z M108.3,36.5c0,0-1.5,2-5.1,2c-2.2,0-3.6-1.2-3.6-3.2c0-2.6,2.6-3.6,5.1-3.6c1.2,0,2.5,0.1,3.7,0.3L108.3,36.5L108.3,36.5z M103.6,17.9c-2.6,0-5.2,0.6-7.6,1.7v5H96c2.3-1.1,4.8-1.6,7.3-1.6c2,0,3.3,0.4,4.1,1.3c0.8,0.9,0.8,2.6,0.8,3.7 c-1.3-0.3-2.7-0.5-4.1-0.5c-7,0-10.8,3-10.8,7.8s4,7.6,8.4,7.6c2.4,0.1,4.9-0.6,6.9-1.9v1.3h5.8v-15 C114.5,18.9,108.3,17.9,103.6,17.9L103.6,17.9z M166.5,36.5c0,0-1.5,2-5.1,2c-2.2,0-3.6-1.2-3.6-3.2c0-2.6,2.6-3.6,5.1-3.6 c1.2,0,2.5,0.1,3.7,0.3L166.5,36.5L166.5,36.5z M161.8,17.9c-2.6,0-5.2,0.6-7.6,1.7v5h0.1c2.3-1.1,4.8-1.6,7.3-1.6 c2,0,3.3,0.4,4.1,1.3c0.8,0.9,0.8,2.6,0.8,3.7c-1.3-0.3-2.7-0.5-4.1-0.5c-7,0-10.8,3-10.8,7.8s4,7.6,8.4,7.6 c2.4,0.1,4.9-0.6,6.9-1.9v1.3h5.8v-15C172.8,18.9,166.5,17.9,161.8,17.9L161.8,17.9z M50,28.3c0-0.9,0.2-1.8,0.6-2.6 c0.9-1.7,2.7-2.7,4.6-2.7c1.9-0.1,3.6,1,4.4,2.7c0.3,0.8,0.5,1.7,0.5,2.6L50,28.3z M65.5,30.1c0-4.4-1-7.5-3.1-9.5 c-1.9-1.8-4.5-2.7-7.1-2.6c-2.7,0-5.4,0.9-7.5,2.6c-2.6,2.2-3.9,5.6-3.9,10c0,11.2,8.4,12.4,12,12.4c2.8-0.1,5.5-0.7,8.1-1.8V36 c-2.2,1.2-4.6,1.9-7.1,1.9c-2.4,0.1-4.6-1.1-6-3c-0.5-0.7-0.8-1.5-0.9-2.3h15.5C65.5,32.6,65.5,31.1,65.5,30.1L65.5,30.1z"></path> </svg> 