<?xml version="1.0" encoding="UTF-8"?> <svg xmlns="http://www.w3.org/2000/svg" version="1.2" viewBox="0 0 180 49" width="294" height="80"><title>logo-cloudinary-svg</title><defs><clipPath id="cp1"><path d="m0 0h180v49h-180z"></path></clipPath></defs><style> .s0 { opacity: 0;fill: #ffffff } .s1 { fill: #0071ce } .s2 { fill: #dc8327 } .s3 { fill: #f4b21b } .s4 { fill: #f2d864 } .s5 { fill: #0e2f5a } </style><g id="Clip-Path: logo-cloudinary" clip-path="url(#cp1)"><g id="logo-cloudinary"><path id="Layer" class="s0" d="m0 0h180v49h-180z"></path><g id="Cloudinary-Logo.wine"><path id="Path_37613" class="s1" d="m46.8 37.2c-0.3 0-0.7-0.1-0.9-0.4-0.3-0.2-0.5-0.5-0.5-0.8-0.1-0.4 0-0.7 0.2-1 0.2-0.3 0.4-0.5 0.8-0.7q1-0.3 1.8-0.9 0.9-0.6 1.5-1.4 0.6-0.8 0.9-1.8 0.4-1 0.4-2.1c0-0.9-0.2-1.8-0.6-2.7-0.4-0.8-1-1.6-1.7-2.2-0.7-0.6-1.5-1.1-2.4-1.4-0.9-0.2-1.8-0.3-2.8-0.2l-1.4 0.2-0.2-1.4c-0.4-2.7-1.7-5.3-3.6-7.2-2-1.9-4.5-3.1-7.3-3.5-2.7-0.3-5.5 0.3-7.8 1.7-2.4 1.4-4.3 3.5-5.3 6.1l-0.4 0.8-0.9 0.1c-1.9 0-3.7 0.7-5.1 1.9-1.4 1.1-2.4 2.8-2.8 4.6-0.4 1.8-0.1 3.7 0.7 5.4 0.9 1.6 2.2 3 3.9 3.7 0.4 0.2 0.6 0.5 0.8 0.9 0.1 0.3 0.1 0.7-0.1 1.1-0.1 0.3-0.4 0.6-0.8 0.7-0.3 0.1-0.7 0.1-1.1 0-2.2-1-4-2.7-5.2-4.9-1.1-2.1-1.5-4.6-1.1-7 0.4-2.4 1.5-4.6 3.3-6.3 1.8-1.7 4-2.7 6.5-3 1.3-2.9 3.6-5.3 6.4-6.8 2.8-1.6 6-2.2 9.2-1.9 3.1 0.4 6.1 1.7 8.5 3.8 2.4 2.1 4.1 4.9 4.8 8 2.3 0.1 4.4 0.9 6.1 2.4 1.7 1.5 2.8 3.5 3.2 5.7 0.3 2.2-0.2 4.5-1.4 6.4-1.1 1.9-3 3.3-5.1 4q-0.1 0-0.1 0.1-0.1 0-0.1 0-0.1 0-0.2 0 0 0-0.1 0z"></path><path id="Path_37614" class="s2" d="m24.6 37.9q0 0 0 0.1 0 0 0 0 0 0.1 0 0.1 0 0 0 0.1 0 0 0 0 0 0 0 0 0 0.1 0 0.1 0 0-0.1 0 0 0 0 0 0 0-0.1 0 0 0 0 0h-7.1q-0.3 0-0.6-0.1-0.3-0.1-0.5-0.3-0.3-0.3-0.4-0.6-0.1-0.3-0.1-0.6v-12.9h-1q-0.1 0-0.2 0 0-0.1 0-0.1-0.1-0.1 0-0.2 0-0.1 0.1-0.1l4.7-3.3q0.1 0 0.1 0 0 0 0.1 0 0 0 0 0 0.1 0 0.1 0l4.7 3.3q0.1 0 0.1 0 0 0 0 0.1 0.1 0 0.1 0 0 0.1 0 0.1 0 0 0 0.1-0.1 0-0.1 0.1 0 0-0.1 0 0 0-0.1 0h-1v12.9q0 0.2 0.1 0.5 0.1 0.2 0.3 0.3 0.1 0.2 0.4 0.3 0.2 0.1 0.4 0.1 0 0 0 0 0 0 0.1 0 0 0 0 0 0 0 0 0 0 0 0.1 0z"></path><path id="Path_37615" class="s3" d="m34.8 37.9q0 0 0 0.1 0.1 0 0.1 0 0 0.1 0 0.1 0 0 0 0.1 0 0 0 0-0.1 0-0.1 0 0 0.1 0 0.1 0 0 0 0-0.1 0-0.1 0 0 0 0 0 0 0-0.1 0h-7.1q-0.3 0-0.6-0.1-0.3-0.1-0.5-0.3-0.2-0.3-0.4-0.6-0.1-0.3-0.1-0.6v-10h-1q-0.1 0-0.1 0-0.1-0.1-0.1-0.2 0 0 0-0.1 0-0.1 0.1-0.1l4.8-3.3q0 0 0-0.1 0.1 0 0.1 0 0 0 0.1 0 0 0.1 0 0.1l4.8 3.2q0.1 0.1 0.1 0.2 0 0 0 0.1 0 0.1-0.1 0.2 0 0-0.1 0h-1v10q0 0.2 0.1 0.5 0.1 0.2 0.2 0.3 0.2 0.2 0.4 0.3 0.2 0.1 0.4 0.1 0 0 0.1 0 0 0 0 0 0 0 0 0 0 0 0 0 0.1 0 0.1 0z"></path><path id="Path_37616" class="s4" d="m45 37.9q0 0 0.1 0.1 0 0 0 0 0 0.1 0 0.1 0 0 0 0.1 0 0 0 0 0 0 0 0-0.1 0.1-0.1 0.1 0 0 0 0 0 0 0 0-0.1 0-0.1 0 0 0 0 0h-7.1q-0.4 0-0.7-0.1-0.3-0.1-0.5-0.3-0.2-0.3-0.3-0.6-0.2-0.3-0.2-0.6v-7.1h-0.9q-0.1 0-0.2 0-0.1-0.1-0.1-0.2 0 0 0-0.1 0-0.1 0.1-0.2l4.8-3.2q0-0.1 0-0.1 0.1 0 0.1 0 0.1 0 0.1 0 0 0 0.1 0.1l4.7 3.2q0 0 0 0.1 0.1 0 0.1 0 0 0 0 0.1 0 0 0 0.1 0 0 0 0.1 0 0 0 0-0.1 0.1-0.1 0.1-0.1 0-0.1 0h-1v7.1q0 0.2 0.1 0.5 0.1 0.2 0.2 0.3 0.2 0.2 0.4 0.3 0.2 0.1 0.5 0.1 0 0 0 0 0 0 0 0 0 0 0 0 0 0 0 0h0.1q0 0 0 0z"></path><path id="Path_37617" fill-rule="evenodd" class="s5" d="m91.2 27.4q0.2 0.3 0.3 0.5 0.2 0.3 0.3 0.5 0.1 0.3 0.2 0.6 0.1 0.3 0.2 0.6 0.1 0.3 0.1 0.6 0.1 0.3 0.1 0.6 0 0.3 0 0.6 0 0.3 0 0.5 0 0.3 0 0.5-0.1 0.2-0.1 0.5 0 0.2-0.1 0.5 0 0.2-0.1 0.4-0.1 0.2-0.2 0.5 0 0.2-0.1 0.4-0.1 0.2-0.2 0.4-0.2 0.2-0.3 0.4-0.1 0.1-0.3 0.3-0.1 0.2-0.3 0.3-0.1 0.2-0.3 0.3-0.2 0.2-0.4 0.3-0.2 0.2-0.4 0.3-0.2 0.1-0.5 0.2-0.2 0.1-0.4 0.1-0.6 0.2-1.2 0.3-0.6 0.1-1.2 0.1-0.6 0-1.2-0.1-0.6-0.1-1.2-0.3-0.3 0-0.5-0.1-0.2-0.1-0.4-0.2-0.3-0.1-0.5-0.3-0.2-0.1-0.4-0.3-0.1-0.1-0.3-0.3-0.2-0.1-0.3-0.3-0.1-0.2-0.3-0.3-0.1-0.2-0.2-0.4-0.1-0.2-0.2-0.4-0.1-0.2-0.2-0.4-0.1-0.3-0.1-0.5-0.1-0.2-0.2-0.4 0-0.3-0.1-0.5 0-0.2 0-0.5 0-0.2-0.1-0.5 0-0.2 0-0.5 0-0.3 0.1-0.6 0-0.3 0-0.6 0.1-0.3 0.2-0.6 0-0.3 0.1-0.6 0.1-0.3 0.2-0.6 0.2-0.2 0.3-0.5 0.2-0.2 0.3-0.5 0.2-0.2 0.4-0.4 0.2-0.2 0.4-0.4 0.2-0.2 0.5-0.4 0.2-0.1 0.5-0.3 0.2-0.1 0.5-0.2 0.6-0.3 1.3-0.4 0.7-0.1 1.4-0.1 0.7 0 1.3 0.1 0.7 0.1 1.3 0.4 0.3 0.1 0.6 0.2 0.2 0.2 0.5 0.3 0.2 0.2 0.4 0.4 0.2 0.2 0.4 0.4 0.2 0.2 0.4 0.4zm-1.9 5.2q0.1-0.2 0.1-0.4 0-0.2 0-0.4 0-0.2 0-0.4 0-0.2 0-0.4 0-0.2 0-0.4 0-0.2-0.1-0.4 0-0.2 0-0.4-0.1-0.2-0.1-0.3-0.1-0.2-0.2-0.4 0-0.1-0.1-0.3-0.1-0.2-0.2-0.3-0.1-0.2-0.2-0.3-0.1-0.1-0.3-0.2-0.1-0.1-0.2-0.2-0.2-0.1-0.3-0.2-0.2-0.1-0.4-0.2-0.1 0-0.3-0.1-0.2 0-0.4 0-0.2 0-0.3 0-0.2 0-0.4 0-0.2 0-0.4 0-0.1 0.1-0.3 0.1-0.2 0.1-0.3 0.2-0.2 0.1-0.3 0.2-0.2 0.1-0.3 0.2-0.1 0.1-0.2 0.2-0.2 0.1-0.2 0.3-0.1 0.1-0.2 0.3-0.1 0.2-0.2 0.3-0.1 0.2-0.1 0.4-0.1 0.1-0.1 0.3-0.1 0.2-0.1 0.4 0 0.2-0.1 0.4 0 0.2 0 0.4 0 0.2 0 0.4 0 0.2 0 0.4 0 0.2 0 0.4 0.1 0.2 0.1 0.4 0 0.2 0.1 0.4 0 0.2 0.1 0.3 0 0.2 0.1 0.4 0.1 0.1 0.1 0.3 0.1 0.2 0.2 0.3 0.1 0.2 0.2 0.3 0.1 0.1 0.3 0.2 0.1 0.2 0.2 0.3 0.2 0.1 0.3 0.2 0.4 0.1 0.7 0.2 0.4 0.1 0.8 0.1 0.4 0 0.7-0.1 0.4-0.1 0.7-0.2 0.2-0.1 0.3-0.2 0.1-0.1 0.3-0.3 0.1-0.1 0.2-0.2 0.1-0.1 0.2-0.3 0.1-0.1 0.2-0.3 0.1-0.2 0.1-0.3 0.1-0.2 0.2-0.4 0-0.1 0.1-0.3 0-0.2 0-0.4zm10.4 4.9q-0.2 0.1-0.5 0.1-0.2 0.1-0.4 0.1-0.2 0-0.4 0-0.2 0-0.4 0-0.2 0-0.4-0.1-0.1 0-0.3 0-0.2-0.1-0.4-0.1-0.2-0.1-0.3-0.1-0.2-0.1-0.4-0.2-0.1-0.1-0.3-0.2-0.2-0.1-0.3-0.2-0.1-0.2-0.3-0.3-0.1-0.2-0.2-0.3-0.2-0.2-0.3-0.4-0.1-0.1-0.1-0.3-0.1-0.3-0.2-0.5-0.1-0.3-0.1-0.5-0.1-0.3-0.1-0.6 0-0.2 0-0.5v-6.7q0-0.1 0-0.2 0-0.1 0-0.2 0-0.1 0.1-0.2 0-0.1 0-0.2 0.1-0.1 0.1-0.1 0.1-0.1 0.1-0.2 0.1 0 0.1-0.1 0.1-0.1 0.2-0.1 0.2-0.1 0.4-0.2 0.2 0 0.5 0 0.2 0 0.5 0 0.2 0.1 0.4 0.2 0.1 0 0.1 0.1 0.1 0.1 0.2 0.1 0 0.1 0.1 0.2 0 0 0 0.1 0.1 0.1 0.1 0.2 0 0.1 0 0.2 0.1 0.1 0.1 0.2 0 0.1 0 0.2v6q0 0.2 0 0.3 0 0.2 0 0.4 0.1 0.2 0.1 0.3 0.1 0.2 0.1 0.3 0.1 0.2 0.2 0.3 0 0.2 0.2 0.3 0.1 0.1 0.2 0.2 0.1 0.1 0.2 0.2 0.2 0.1 0.3 0.1 0.2 0.1 0.4 0.2 0.2 0 0.3 0 0.2 0 0.4 0 0.1 0 0.2 0 0.2 0 0.3 0 0.1 0 0.2-0.1 0.2 0 0.3-0.1 0.1 0 0.2-0.1 0.2 0 0.3-0.1 0.1-0.1 0.2-0.2 0.1-0.1 0.2-0.1 0.1-0.1 0.2-0.2 0.1-0.2 0.2-0.3 0.1-0.1 0.2-0.2 0-0.1 0.1-0.3 0.1-0.1 0.1-0.3 0.1-0.1 0.1-0.3 0-0.1 0-0.3 0-0.2 0-0.3v-5.7q0-0.1 0.1-0.2 0-0.1 0-0.2 0-0.1 0-0.2 0-0.1 0.1-0.2 0-0.1 0.1-0.1 0-0.1 0.1-0.2 0 0 0.1-0.1 0-0.1 0.1-0.1 0.2-0.1 0.5-0.2 0.2 0 0.4 0 0.3 0 0.5 0 0.2 0.1 0.4 0.2 0.1 0 0.2 0.1 0.1 0.1 0.1 0.1 0.1 0.1 0.1 0.2 0.1 0 0.1 0.1 0 0.1 0 0.2 0.1 0.1 0.1 0.2 0 0.1 0 0.2 0 0.1 0 0.2v9.5q0 0.1 0 0.2 0 0.1 0 0.2 0 0.1-0.1 0.2 0 0.1 0 0.2-0.1 0.1-0.1 0.2 0 0-0.1 0.1-0.1 0-0.1 0.1-0.1 0.1-0.1 0.1-0.2 0.1-0.4 0.1-0.2 0.1-0.4 0.1-0.2 0-0.4-0.1-0.2 0-0.4-0.1 0 0-0.1-0.1-0.1 0-0.1-0.1-0.1-0.1-0.1-0.1 0-0.1-0.1-0.2 0-0.1 0-0.2-0.1-0.1-0.1-0.2 0-0.1 0-0.2 0-0.1 0-0.2v-0.5l-0.1-0.2h-0.3l-0.1 0.1q-0.1 0.2-0.2 0.3-0.2 0.1-0.3 0.3-0.1 0.1-0.3 0.2-0.1 0.2-0.2 0.3-0.2 0.1-0.3 0.2-0.2 0.1-0.4 0.2-0.1 0.1-0.3 0.2-0.2 0.1-0.3 0.1-0.2 0.1-0.4 0.1zm-22.2-16.7q0.1 0 0.2 0.1 0 0.1 0.1 0.1 0 0.1 0.1 0.2 0 0.1 0.1 0.2 0 0.1 0 0.2 0 0.1 0 0.2 0.1 0.1 0.1 0.2v14.2q0 0.1-0.1 0.2 0 0.1 0 0.2 0 0.1 0 0.2-0.1 0.1-0.1 0.2-0.1 0.1-0.1 0.2-0.1 0.1-0.1 0.1-0.1 0.1-0.2 0.1-0.1 0.1-0.1 0.1-0.1 0.1-0.2 0.1-0.1 0-0.2 0-0.1 0.1-0.2 0.1-0.1 0-0.2 0-0.1 0-0.2 0-0.1 0-0.2-0.1-0.1 0-0.2 0-0.1 0-0.2-0.1-0.1 0-0.2-0.1-0.1 0-0.1-0.1-0.1 0-0.1-0.1-0.1-0.1-0.1-0.2-0.1-0.1-0.1-0.2-0.1-0.1-0.1-0.2 0-0.1 0-0.2 0-0.1 0-0.2v-14.2q0-0.1 0-0.2 0-0.1 0-0.2 0-0.1 0.1-0.2 0-0.1 0.1-0.2 0-0.1 0.1-0.2 0 0 0.1-0.1 0-0.1 0.1-0.1 0.1-0.1 0.2-0.1 0.1 0 0.2-0.1 0.1 0 0.2 0 0.1 0 0.2-0.1 0.1 0 0.2 0 0.1 0 0.2 0 0.1 0.1 0.2 0.1 0.1 0 0.2 0 0.1 0.1 0.2 0.1 0.1 0 0.1 0.1zm96.8 5.4q0 0.1 0 0.1 0.1 0.1 0.1 0.1 0 0.1 0 0.1 0 0.1 0 0.1 0 0.1 0 0.1-0.1 0.1-0.1 0.1 0 0.1 0 0.1-0.1 0.3-0.2 0.6l-4 11.3q0 0.2-0.1 0.4-0.1 0.2-0.2 0.4 0 0.2-0.1 0.4-0.1 0.2-0.2 0.4-0.1 0.1-0.2 0.3-0.1 0.1-0.2 0.2-0.1 0.2-0.2 0.3-0.1 0.1-0.2 0.2-0.1 0.1-0.2 0.2-0.1 0.1-0.2 0.2-0.2 0.1-0.3 0.1-0.1 0.1-0.3 0.2-0.1 0-0.3 0.1-0.1 0-0.3 0-0.2 0-0.4 0.1-0.1 0-0.3 0-0.1 0-0.3 0-0.1 0-0.3-0.1-0.1 0-0.3 0-0.1-0.1-0.2-0.1-0.1-0.1-0.2-0.1-0.1-0.1-0.2-0.1 0-0.1-0.1-0.2-0.1 0-0.1-0.1-0.1-0.1-0.1-0.2-0.1-0.1-0.1-0.1 0-0.1 0-0.2 0-0.1 0-0.2 0-0.1 0-0.1 0-0.1 0-0.2 0-0.1 0.1-0.2 0 0 0-0.1 0.1-0.1 0.1-0.1 0.1-0.1 0.1-0.1 0.1-0.1 0.2-0.1 0-0.1 0.1-0.1 0.1 0 0.2-0.1 0.1 0 0.2 0 0 0 0.1 0 0.1 0 0.2 0h0.5q0 0 0.1 0 0 0 0.1 0 0 0 0.1-0.1 0 0 0.1 0 0.1 0 0.1 0 0.1-0.1 0.2-0.1 0.1-0.1 0.1-0.1 0.1-0.1 0.1-0.1 0.1-0.1 0.2-0.2 0-0.1 0.1-0.3 0-0.1 0.1-0.2 0-0.1 0-0.2v-0.1l-3.6-10.3q-0.1-0.4-0.2-0.7 0 0-0.1-0.1 0 0 0-0.1 0-0.1 0-0.1 0-0.1-0.1-0.1 0-0.1 0-0.1 0-0.1 0-0.1 0-0.1 0-0.1 0 0 0-0.1 0-0.1 0-0.2 0-0.1 0.1-0.2 0-0.1 0-0.1 0.1-0.1 0.1-0.2 0-0.1 0.1-0.2 0.1 0 0.1-0.1 0.1-0.1 0.2-0.1 0-0.1 0.1-0.1 0.1-0.1 0.2-0.1 0.1 0 0.2-0.1 0.1 0 0.2 0 0 0 0.1 0 0.2 0 0.3 0 0.1 0 0.3 0.1 0.1 0 0.2 0.1 0.1 0 0.2 0.1 0.1 0.1 0.2 0.2 0.1 0.1 0.2 0.2 0.1 0.1 0.1 0.2 0 0.1 0.1 0.2l2.2 8.1 0.1 0.2h0.4l2.1-8q0-0.1 0.1-0.2 0-0.1 0-0.2 0.1-0.1 0.1-0.2 0.1-0.1 0.1-0.2 0.1 0 0.1-0.1 0.1-0.1 0.1-0.1 0.1-0.1 0.1-0.1 0.1-0.1 0.2-0.1 0.1-0.1 0.1-0.1 0.1 0 0.2-0.1 0.1 0 0.2 0 0.1 0 0.1 0 0.1 0 0.2 0 0.1 0 0.2 0 0.1 0 0.2 0.1 0.1 0 0.2 0.1 0.1 0 0.1 0 0.1 0.1 0.1 0.1 0.1 0.1 0.2 0.1 0 0.1 0.1 0.1 0 0.1 0 0.1 0.1 0.1 0.1 0.1 0 0.1 0.1 0.1 0 0.1 0 0.2 0 0 0 0zm-22.1 10.1q0.1 0 0.1 0.1 0 0 0 0 0 0.1 0 0.1 0 0.1 0 0.1 0 0.1 0 0.1 0 0.1-0.1 0.2 0 0.1 0 0.1 0 0.1-0.1 0.2 0 0-0.1 0.1 0 0-0.1 0.1-0.1 0-0.1 0.1-0.1 0-0.2 0 0 0.1-0.1 0.1-0.1 0-0.2 0-0.1 0.1-0.2 0.1 0 0-0.1 0-0.2 0-0.3 0-0.1 0-0.3-0.1-0.1 0-0.2 0-0.2-0.1-0.3-0.2-0.1 0-0.1-0.1-0.1 0-0.2-0.1-0.1-0.1-0.1-0.2-0.1-0.1-0.1-0.2-0.1-0.1-0.1-0.2 0-0.1-0.1-0.2 0-0.1 0-0.3 0-0.1 0-0.2v-0.6l-0.4 0.5q-0.2 0.1-0.4 0.3-0.1 0.1-0.3 0.3-0.2 0.1-0.3 0.2-0.2 0.2-0.4 0.3-0.1 0-0.2 0.1-0.1 0-0.1 0.1-0.1 0-0.2 0.1-0.1 0-0.2 0 0 0.1-0.1 0.1h-0.2q-0.1 0.1-0.2 0.1-0.2 0.1-0.3 0.1-0.2 0-0.4 0.1-0.2 0-0.4 0-0.2 0.1-0.4 0.1-0.2 0-0.4 0h-0.1q-0.2 0-0.3 0-0.2 0-0.4-0.1-0.1 0-0.3 0-0.2-0.1-0.3-0.1-0.2-0.1-0.4-0.2-0.1 0-0.3-0.1-0.1-0.1-0.2-0.2-0.2-0.1-0.3-0.2-0.1-0.1-0.3-0.2-0.1-0.1-0.2-0.3-0.1-0.1-0.2-0.2-0.1-0.2-0.1-0.3-0.1-0.2-0.2-0.4 0-0.1-0.1-0.3 0-0.2 0-0.3 0-0.2 0-0.4 0-0.2 0-0.4 0-0.2 0-0.5 0.1-0.2 0.2-0.4 0-0.2 0.1-0.4 0.1-0.1 0.2-0.3 0.1-0.1 0.2-0.3 0.2-0.1 0.3-0.2 0.1-0.1 0.3-0.2 0.1-0.1 0.3-0.2 0.2-0.1 0.4-0.2 0.2-0.1 0.4-0.2 0.1 0 0.3-0.1 0.3 0 0.5-0.1 0.2 0 0.4-0.1 0.3 0 0.5-0.1 0.2 0 0.5 0l2.1-0.3q0.1 0 0.2 0 0.1 0 0.2 0 0.1 0 0.2-0.1 0.1 0 0.2 0 0.1-0.1 0.2-0.1 0 0 0.1-0.1 0.1-0.1 0.2-0.1 0.1-0.1 0.1-0.2 0.1-0.1 0.1-0.2 0.1-0.1 0.1-0.2 0.1-0.1 0.1-0.2 0-0.2 0-0.3 0-0.1 0-0.2-0.1-0.2-0.1-0.3-0.1-0.1-0.1-0.2-0.1-0.2-0.2-0.3-0.1 0-0.2-0.1-0.1-0.1-0.2-0.2-0.1 0-0.2-0.1-0.2 0-0.3-0.1-0.1 0-0.3-0.1-0.1 0-0.3 0-0.1 0-0.3 0-0.1 0-0.3 0 0 0-0.1 0-0.1 0-0.1 0-0.1 0-0.2 0-0.1 0-0.1 0h-0.1q-0.1 0-0.1 0-0.1 0-0.2 0.1 0 0-0.1 0-0.1 0-0.2 0 0 0-0.1 0.1-0.1 0-0.2 0.1-0.2 0-0.3 0.1-0.1 0.1-0.2 0.1-0.1 0.1-0.2 0.2-0.1 0-0.2 0.1-0.1 0.1-0.1 0.2-0.1 0-0.2 0.1-0.1 0.1-0.1 0.2-0.1 0-0.2 0.1 0 0-0.1 0.1-0.1 0-0.1 0.1-0.1 0-0.2 0.1 0 0-0.1 0.1-0.1 0-0.1 0-0.1 0-0.2 0-0.1 0.1-0.1 0.1-0.1 0-0.2-0.1-0.1 0-0.2 0-0.1 0-0.1 0-0.1-0.1-0.2-0.1-0.1 0-0.1-0.1-0.1 0-0.1-0.1-0.1 0-0.1-0.1-0.1 0-0.1-0.1-0.1-0.1-0.1-0.1 0-0.1 0-0.2 0 0-0.1-0.1 0-0.1 0-0.1 0-0.2 0.1-0.3 0-0.1 0-0.2 0.1-0.1 0.1-0.3 0.1-0.1 0.2-0.2 0.1-0.1 0.2-0.2 0.1-0.2 0.2-0.3 0.1-0.1 0.3-0.2 0.1-0.1 0.2-0.2 0.2-0.1 0.4-0.2 0.2-0.1 0.4-0.2 0.2-0.1 0.5-0.2 0.2-0.1 0.4-0.1 0.1 0 0.2-0.1 0.1 0 0.2 0 0.1 0 0.2-0.1 0.1 0 0.2 0h0.2q0.4-0.1 0.9-0.1h0.1q0.1 0 0.3 0 0.3 0 0.5 0 0.3 0 0.6 0 0.3 0.1 0.6 0.1 0.2 0 0.5 0.1 0.2 0 0.4 0.1 0.3 0.1 0.5 0.1 0.2 0.1 0.4 0.2 0.2 0.1 0.4 0.2 0.2 0.1 0.3 0.2 0.2 0.1 0.3 0.2 0.1 0.2 0.2 0.3 0.2 0.2 0.3 0.3 0.1 0.2 0.1 0.4 0.1 0.1 0.1 0.3 0.1 0.2 0.1 0.4 0 0.2 0 0.4v5.8q0 0.1 0 0.2 0 0.1 0 0.3 0.1 0.1 0.1 0.2 0 0.1 0 0.2 0 0.1 0 0.2 0 0.1 0 0.1 0.1 0.1 0.1 0.2 0 0.1 0 0.2zm-3.3-5.1l-0.4 0.4q0 0 0 0.1-0.1 0-0.1 0-0.1 0.1-0.1 0.1-0.1 0-0.1 0-0.1 0.1-0.2 0.1 0 0-0.1 0-0.1 0-0.1 0.1-0.1 0-0.2 0-0.2 0-0.4 0.1l-1.3 0.2q-0.1 0-0.3 0-0.2 0-0.3 0.1-0.2 0-0.3 0.1-0.2 0-0.3 0.1-0.2 0-0.3 0.1-0.1 0.1-0.2 0.1-0.1 0.1-0.2 0.2-0.1 0.1-0.2 0.2-0.1 0.1-0.1 0.2-0.1 0.2-0.1 0.3-0.1 0.1-0.1 0.2 0 0.2 0 0.3 0 0.1 0 0.2 0 0.1 0.1 0.3 0 0.1 0.1 0.2 0 0.1 0.1 0.2 0.1 0.1 0.1 0.1 0.1 0.1 0.2 0.2 0.1 0.1 0.2 0.1 0.1 0.1 0.2 0.2 0.2 0 0.3 0.1 0.1 0 0.3 0 0.1 0 0.3 0.1 0.1 0 0.3 0 0 0 0.1 0 0.1 0 0.2 0 0.1-0.1 0.2-0.1 0 0 0.1 0h0.1q0.1 0 0.2 0 0.1-0.1 0.1-0.1 0.1 0 0.2 0 0 0 0.1-0.1 0.2 0 0.3-0.1 0.1 0 0.3-0.1 0.1-0.1 0.2-0.2 0.1-0.1 0.3-0.2 0.1-0.1 0.2-0.2 0-0.1 0.1-0.2 0.1-0.1 0.2-0.2 0.1-0.1 0.1-0.2 0.1-0.2 0.1-0.3 0.1-0.1 0.1-0.2 0-0.2 0-0.3 0-0.1 0-0.3c0 0 0-1.9 0-1.9zm-84.6-7.5q-0.2 0.1-0.4 0.3-0.2 0.1-0.3 0.3-0.2 0.2-0.4 0.3-0.1 0.3-0.3 0.5-0.1 0.2-0.2 0.5-0.2 0.2-0.3 0.4-0.1 0.3-0.2 0.5 0 0.4-0.1 0.7-0.1 0.3-0.1 0.6-0.1 0.3-0.1 0.6 0 0.4 0 0.7 0 0.3 0 0.6 0 0.2 0 0.5 0.1 0.3 0.1 0.6 0.1 0.3 0.1 0.6 0.1 0.2 0.2 0.5 0.1 0.2 0.2 0.5 0.1 0.2 0.2 0.4 0.1 0.3 0.3 0.5 0.1 0.2 0.3 0.4 0.1 0.2 0.3 0.3 0.2 0.2 0.4 0.4 0.2 0.1 0.5 0.2 0.2 0.2 0.5 0.2 0.3 0.1 0.6 0.2 0.3 0.1 0.5 0.1 0.3 0 0.6 0 0.2 0 0.4 0 0.2 0 0.3 0 0.2-0.1 0.4-0.1 0.1-0.1 0.3-0.1 0.1-0.1 0.3-0.2 0.1 0 0.2-0.1 0.1-0.1 0.3-0.2 0.1-0.1 0.2-0.2 0.1-0.1 0.2-0.2 0.1-0.1 0.2-0.2 0-0.1 0.1-0.2 0.1-0.1 0.2-0.2 0.3-0.4 0.5-0.8 0.1-0.1 0.2-0.1 0-0.1 0.1-0.2 0.1-0.1 0.1-0.1 0.1-0.1 0.2-0.1 0.1-0.1 0.2-0.1 0-0.1 0.1-0.1 0.1 0 0.2 0 0.1 0 0.2 0 0.1 0 0.2 0 0.1 0 0.2 0 0.1 0 0.2 0.1 0.1 0 0.2 0 0.1 0.1 0.2 0.1 0 0 0.1 0.1 0.1 0.1 0.2 0.1 0 0.1 0.1 0.2 0 0 0.1 0.1 0 0.1 0.1 0.2 0 0 0 0.1 0 0.1 0 0.2 0 0.2 0 0.4-0.1 0.3-0.1 0.5-0.1 0.2-0.2 0.4-0.1 0.2-0.2 0.4-0.1 0.2-0.3 0.4-0.1 0.2-0.3 0.4-0.2 0.2-0.4 0.4-0.1 0.1-0.4 0.3-0.2 0.2-0.4 0.3-0.3 0.2-0.5 0.3-0.3 0.1-0.6 0.3-0.2 0.1-0.5 0.2-0.3 0.1-0.6 0.1-0.4 0.1-0.7 0.2-0.3 0-0.6 0-0.4 0.1-0.7 0.1-0.6 0-1.1-0.1-0.6 0-1.2-0.2-0.5-0.1-1.1-0.3-0.5-0.2-1-0.4-0.5-0.3-0.9-0.6-0.4-0.3-0.7-0.6-0.4-0.4-0.7-0.8-0.3-0.4-0.5-0.9-0.3-0.6-0.5-1.2-0.2-0.5-0.3-1.2-0.1-0.6-0.2-1.2 0-0.6 0-1.2 0-0.4 0-0.7 0-0.3 0.1-0.7 0-0.3 0.1-0.7 0-0.3 0.1-0.6 0.1-0.3 0.2-0.6 0.1-0.3 0.2-0.6 0.2-0.3 0.3-0.6 0.2-0.3 0.3-0.6 0.2-0.3 0.4-0.5 0.1-0.3 0.3-0.5 0.2-0.2 0.5-0.5 0.2-0.2 0.4-0.4 0.3-0.2 0.5-0.4 0.3-0.2 0.6-0.3 0.3-0.2 0.6-0.3 0.3-0.1 0.6-0.2 0.3-0.2 0.7-0.2 0.3-0.1 0.7-0.2 0.4 0 0.7-0.1 0.4 0 0.8 0 0.3 0 0.6 0 0.3 0 0.6 0.1 0.3 0 0.6 0.1 0.2 0 0.5 0.1 0.3 0.1 0.5 0.1 0.3 0.1 0.5 0.2 0.2 0.1 0.4 0.2 0.3 0.1 0.5 0.3 0.2 0.1 0.4 0.2 0.1 0.1 0.3 0.2 0.2 0.2 0.3 0.3 0.2 0.1 0.3 0.3 0.2 0.1 0.3 0.3 0.1 0.1 0.2 0.2 0.1 0.2 0.2 0.3 0.1 0.2 0.1 0.3 0.1 0.1 0.2 0.3 0 0.1 0 0.2 0.1 0.1 0.1 0.3 0 0.1 0 0.2 0 0.2 0 0.3 0 0.2-0.1 0.3 0 0.2-0.1 0.3-0.1 0.1-0.2 0.2-0.1 0.1-0.2 0.2-0.1 0.1-0.3 0.1-0.1 0.1-0.3 0.1-0.1 0-0.3 0-0.1 0-0.2 0-0.1 0-0.2 0-0.1 0-0.2-0.1-0.1 0-0.2-0.1-0.1 0-0.1-0.1-0.1 0-0.2-0.1-0.1-0.1-0.1-0.1-0.1-0.1-0.1-0.2-0.3-0.3-0.6-0.7 0-0.1-0.1-0.2-0.1-0.1-0.2-0.2-0.1-0.1-0.2-0.2-0.1-0.1-0.2-0.2-0.1-0.1-0.2-0.2-0.1-0.1-0.2-0.1-0.2-0.1-0.3-0.2-0.1-0.1-0.3-0.1-0.2-0.1-0.4-0.1-0.1-0.1-0.3-0.1-0.2 0-0.4 0-0.2-0.1-0.4-0.1-0.3 0-0.5 0.1-0.2 0-0.5 0.1-0.2 0-0.4 0.1-0.2 0.1-0.5 0.2-0.2 0.1-0.4 0.2zm54.8 12.6q0 0.1 0 0.2 0 0.2 0 0.3-0.1 0.1-0.1 0.3-0.1 0.1-0.2 0.2-0.2 0.2-0.5 0.3-0.2 0.1-0.5 0.1-0.2 0-0.5-0.1-0.3-0.1-0.5-0.3-0.1-0.1-0.1-0.2-0.1-0.1-0.1-0.3-0.1-0.1-0.1-0.3 0-0.1 0-0.2v-0.6l-0.1-0.2h-0.4v0.1q-0.1 0.2-0.2 0.3 0 0.2-0.1 0.3-0.1 0.2-0.2 0.3-0.2 0.1-0.3 0.3-0.1 0.1-0.2 0.2-0.2 0.1-0.3 0.2-0.2 0-0.3 0.1-0.2 0.1-0.3 0.1-0.1 0.1-0.2 0.1-0.1 0-0.2 0-0.1 0-0.2 0.1-0.1 0-0.2 0-0.3 0-0.7 0.1-0.3 0-0.7-0.1-0.3 0-0.6-0.1-0.4-0.1-0.7-0.2-0.2-0.1-0.5-0.2-0.2-0.2-0.4-0.3-0.2-0.2-0.4-0.3-0.2-0.2-0.3-0.4-0.2-0.2-0.4-0.4-0.2-0.3-0.3-0.5-0.2-0.3-0.3-0.5-0.1-0.3-0.2-0.5-0.2-0.6-0.3-1.2-0.1-0.6-0.1-1.2 0-0.6 0-1.2 0.1-0.6 0.2-1.2 0-0.2 0.1-0.4 0.1-0.2 0.1-0.4 0.1-0.2 0.2-0.4 0.1-0.2 0.2-0.4 0.1-0.2 0.2-0.4 0.1-0.2 0.2-0.4 0.2-0.1 0.3-0.3 0.1-0.2 0.3-0.3 0.2-0.2 0.3-0.3 0.2-0.1 0.4-0.2 0.1-0.1 0.3-0.2 0.2-0.1 0.4-0.2 0.2-0.1 0.5-0.2 0.2 0 0.4-0.1 0.3 0 0.5 0 0.2 0 0.5 0 0.2 0 0.5 0h0.2q0 0 0 0 0 0 0.1 0 0 0 0 0 0 0 0 0l0.1 0.1q0.2 0 0.4 0v0.1q0.1 0 0.1 0 0.1 0 0.1 0 0.1 0.1 0.2 0.1 0 0 0.1 0 0 0.1 0.1 0.1 0.2 0.1 0.4 0.2 0.1 0.2 0.3 0.3 0.2 0.2 0.3 0.3 0.2 0.2 0.3 0.4l0.1 0.1h0.4v-4.9q0-0.1 0-0.2 0-0.1 0-0.2 0-0.1 0.1-0.2 0-0.1 0.1-0.2 0-0.1 0-0.2 0.1-0.1 0.2-0.1 0-0.1 0.1-0.1 0.1-0.1 0.1-0.1 0.2-0.1 0.4-0.1 0.2-0.1 0.4-0.1 0.3 0 0.5 0.1 0.2 0 0.3 0.1 0.1 0 0.2 0.1 0.1 0 0.1 0.1 0.1 0 0.1 0.1 0.1 0.1 0.1 0.2 0.1 0.1 0.1 0.2 0.1 0.1 0.1 0.2 0 0.1 0 0.2 0 0.1 0 0.2c0 0 0 14.3 0 14.3zm-2.9-3.4q0-0.2 0.1-0.4 0-0.1 0-0.3 0-0.2 0-0.4 0-0.2 0-0.4 0-0.1 0-0.3 0-0.2 0-0.4 0-0.1 0-0.3-0.1-0.2-0.1-0.4 0-0.1-0.1-0.3 0-0.2-0.1-0.3 0-0.2-0.1-0.3-0.1-0.2-0.2-0.4-0.1-0.1-0.2-0.2-0.1-0.2-0.2-0.3-0.1-0.1-0.2-0.2-0.2-0.2-0.3-0.2-0.1-0.1-0.1-0.1 0 0-0.1 0 0-0.1 0-0.1-0.1 0-0.1 0 0 0 0 0-0.1 0-0.1 0 0 0 0 0 0 0 0 0l-0.1-0.1q0 0 0 0 0 0-0.1 0 0 0 0 0 0 0-0.1 0 0 0-0.1-0.1h-0.1q0 0-0.1 0-0.1 0-0.2 0h-0.1q-0.1 0-0.2 0-0.1 0-0.3 0-0.1 0-0.3 0-0.1 0.1-0.3 0.1-0.2 0.1-0.3 0.1-0.1 0.1-0.2 0.2-0.2 0.1-0.3 0.2-0.1 0-0.2 0.1-0.1 0.1-0.2 0.3 0 0.1-0.1 0.2-0.1 0.1-0.2 0.2 0 0.1-0.1 0.3 0 0.1-0.1 0.2 0 0.2-0.1 0.3 0 0.1-0.1 0.3 0 0.1 0 0.2 0 0.2-0.1 0.3 0 0.1 0 0.3 0 0.1 0 0.2 0 0.2 0 0.3 0 0.1 0 0.2 0 0.2 0 0.4 0 0.2 0 0.4 0 0.2 0.1 0.4 0 0.2 0 0.3 0.1 0.2 0.1 0.4 0.1 0.1 0.2 0.3 0 0.2 0.1 0.3 0.1 0.2 0.2 0.3 0.1 0.1 0.2 0.3 0.1 0.1 0.2 0.2 0.1 0.1 0.2 0.2 0.2 0.1 0.3 0.2 0.2 0.1 0.3 0.1 0.2 0.1 0.4 0.2 0.1 0 0.3 0 0.2 0 0.3 0 0.1 0 0.2 0h0.1q0.1 0 0.1 0 0.1 0 0.2 0h0.1q0 0 0.1 0 0.1-0.1 0.2-0.1 0.1 0 0.1 0 0.1-0.1 0.1-0.1 0.1 0 0.1 0 0 0 0.1-0.1 0 0 0 0 0.2-0.1 0.3-0.2 0.2-0.1 0.3-0.2 0.1-0.1 0.2-0.2 0.1-0.2 0.2-0.3 0.1-0.2 0.2-0.3 0-0.2 0.1-0.3 0.1-0.2 0.1-0.3 0.1-0.2 0.1-0.4zm45.7-5.3q-0.1 0.1-0.1 0.2-0.1 0-0.2 0.1-0.1 0-0.1 0-0.1 0.1-0.2 0.1-0.1 0-0.2 0.1-0.1 0-0.2 0-0.1 0-0.2 0h-0.6q-0.2 0-0.4 0-0.1 0-0.3 0.1-0.2 0-0.3 0.1-0.2 0.1-0.3 0.2-0.1 0.1-0.3 0.3-0.1 0.1-0.2 0.3-0.1 0.2-0.2 0.4-0.1 0.1-0.1 0.3-0.1 0.3-0.1 0.6-0.1 0.3-0.1 0.6 0 0.3-0.1 0.6 0 0.3 0 0.6v4q0 0.1 0 0.2 0 0.1 0 0.2 0 0.1 0 0.2-0.1 0.1-0.1 0.1 0 0.1-0.1 0.2 0 0.1-0.1 0.1 0 0.1-0.1 0.2-0.1 0-0.1 0.1-0.1 0-0.2 0.1-0.2 0-0.3 0-0.1 0-0.2 0.1-0.1 0-0.2 0-0.2 0-0.3 0-0.1-0.1-0.2-0.1-0.1 0-0.2 0-0.2-0.1-0.3-0.1 0-0.1-0.1-0.1-0.1-0.1-0.1-0.2-0.1 0-0.1-0.1-0.1-0.1-0.1-0.2 0 0-0.1-0.1 0-0.1 0-0.2 0-0.1 0-0.2 0-0.1 0-0.2v-9.7q0-0.1 0-0.2 0-0.1 0-0.2 0 0 0.1-0.1 0-0.1 0-0.2 0.1-0.1 0.1-0.2 0.1 0 0.1-0.1 0.1 0 0.2-0.1 0 0 0.1-0.1 0.2 0 0.3-0.1 0.2 0 0.4 0 0.2 0 0.3 0 0.2 0.1 0.4 0.1 0 0.1 0.1 0.1 0.1 0.1 0.1 0.1 0.1 0.1 0.1 0.1 0.1 0.1 0.1 0.2 0.1 0.1 0.1 0.2 0 0 0.1 0.1 0 0.1 0 0.2 0 0.1 0 0.2v1.4l0.1 0.2h0.4v-0.2q0.1-0.1 0.1-0.2 0-0.2 0.1-0.3 0-0.1 0.1-0.3 0-0.1 0.1-0.2 0-0.1 0.1-0.2 0.1-0.2 0.1-0.3 0.1-0.1 0.2-0.2 0-0.1 0.1-0.2 0.1-0.1 0.2-0.2 0.1-0.1 0.2-0.1 0.1-0.1 0.2-0.2 0.1 0 0.2-0.1 0.1-0.1 0.2-0.1 0.1 0 0.2-0.1 0.2 0 0.3 0 0.1 0 0.2 0 0.2 0 0.3 0 0.1 0 0.2 0 0.1 0 0.2 0.1 0.1 0 0.2 0.1 0.1 0 0.2 0.1 0.1 0 0.1 0.1 0.1 0 0.2 0.1 0 0.1 0.1 0.2 0 0.1 0.1 0.1 0 0.1 0 0.2 0.1 0.1 0.1 0.2 0 0.1 0 0.2 0 0.1 0 0.2 0 0.2 0 0.3-0.1 0.1-0.1 0.2-0.1 0.1-0.1 0.2-0.1 0.1-0.1 0.1zm-24.4-1.2q0.2 0.1 0.3 0.3 0.1 0.1 0.2 0.3 0.1 0.2 0.2 0.4 0.1 0.2 0.1 0.5 0.1 0.2 0.1 0.5 0.1 0.3 0.1 0.5 0 0.3 0 0.6v6.7q0 0.1 0 0.2 0 0.1 0 0.2 0 0.1 0 0.2-0.1 0.1-0.1 0.2 0 0-0.1 0.1 0 0.1-0.1 0.1 0 0.1-0.1 0.2-0.1 0-0.1 0.1-0.2 0.1-0.5 0.1-0.2 0.1-0.5 0.1-0.2 0-0.4-0.1-0.3 0-0.5-0.1 0-0.1-0.1-0.1-0.1-0.1-0.1-0.2-0.1 0-0.1-0.1-0.1-0.1-0.1-0.2 0 0-0.1-0.1 0-0.1 0-0.2 0-0.1 0-0.2 0-0.1 0-0.2v-6q0-0.2 0-0.4-0.1-0.2-0.1-0.3 0-0.2-0.1-0.4 0-0.1-0.1-0.3-0.1-0.1-0.1-0.3-0.1-0.1-0.2-0.2-0.1-0.1-0.2-0.2-0.2-0.1-0.3-0.2-0.2-0.1-0.3-0.2-0.2-0.1-0.4-0.1-0.1 0-0.3-0.1-0.2 0-0.4 0-0.1 0-0.2 0-0.1 0-0.3 0.1-0.1 0-0.2 0-0.1 0.1-0.3 0.1-0.1 0.1-0.2 0.1-0.1 0.1-0.2 0.2-0.2 0-0.3 0.1-0.1 0.1-0.2 0.2-0.1 0.1-0.2 0.2-0.1 0.1-0.2 0.2 0 0.1-0.1 0.3-0.1 0.1-0.2 0.2 0 0.2-0.1 0.3 0 0.2-0.1 0.3 0 0.2 0 0.4 0 0.1 0 0.3v5.7q0 0.1 0 0.2 0 0.1 0 0.2-0.1 0.1-0.1 0.2 0 0.1 0 0.2-0.1 0-0.1 0.1-0.1 0.1-0.1 0.1-0.1 0.1-0.1 0.2-0.1 0-0.2 0.1-0.2 0.1-0.4 0.1-0.3 0.1-0.5 0.1-0.2 0-0.5-0.1-0.2 0-0.4-0.1-0.1-0.1-0.2-0.1 0-0.1-0.1-0.2 0 0-0.1-0.1 0-0.1-0.1-0.1 0-0.1 0-0.2 0-0.1-0.1-0.2 0-0.1 0-0.2 0-0.1 0-0.2v-9.5q0-0.1 0-0.3 0-0.1 0-0.2 0.1-0.1 0.1-0.2 0-0.1 0.1-0.2 0 0 0-0.1 0.1-0.1 0.1-0.1 0.1-0.1 0.1-0.2 0.1 0 0.2 0 0.2-0.1 0.3-0.2 0.2 0 0.4 0 0.2 0 0.4 0 0.2 0.1 0.4 0.2 0.1 0 0.1 0 0.1 0.1 0.1 0.2 0.1 0 0.1 0.1 0.1 0.1 0.1 0.1 0 0.1 0.1 0.2 0 0.1 0 0.2 0 0.1 0 0.2 0.1 0.2 0.1 0.3v0.4 0.2h0.4v-0.1q0.1-0.1 0.3-0.2 0.1-0.2 0.2-0.3 0.2-0.2 0.3-0.3 0.1-0.1 0.3-0.2 0.1-0.2 0.3-0.3 0.1-0.1 0.3-0.2 0.2 0 0.3-0.1 0.2-0.1 0.4-0.2 0.3-0.1 0.7-0.2 0.4 0 0.8 0 0.4 0 0.8 0 0.4 0.1 0.8 0.2 0.2 0 0.4 0.1 0.1 0.1 0.3 0.2 0.2 0 0.3 0.2 0.2 0.1 0.3 0.2 0.2 0.1 0.3 0.3zm-13.2-0.9q0.1 0 0.1 0.1 0.1 0.1 0.1 0.1 0 0.1 0.1 0.2 0 0.1 0 0.2 0.1 0.1 0.1 0.2 0 0.1 0 0.2 0 0.1 0 0.2v9.5q0 0.1 0 0.2 0 0.1 0 0.2 0 0.1-0.1 0.2 0 0.1 0 0.2-0.1 0-0.1 0.1 0 0.1-0.1 0.1 0 0.1-0.1 0.2-0.1 0-0.2 0.1-0.1 0-0.2 0.1-0.1 0-0.2 0-0.1 0-0.2 0.1-0.2 0-0.3 0-0.1 0-0.2 0-0.1-0.1-0.2-0.1-0.2 0-0.3 0-0.1-0.1-0.2-0.1-0.1-0.1-0.1-0.1-0.1-0.1-0.1-0.2-0.1 0-0.1-0.1-0.1-0.1-0.1-0.1-0.1-0.1-0.1-0.2 0-0.1 0-0.2 0-0.1-0.1-0.2 0-0.1 0-0.2v-9.5q0-0.1 0-0.2 0.1-0.1 0.1-0.2 0-0.1 0-0.2 0-0.1 0.1-0.2 0-0.1 0.1-0.2 0 0 0.1-0.1 0-0.1 0.1-0.1 0-0.1 0.1-0.1 0.2-0.1 0.5-0.2 0.2 0 0.4 0 0.3 0 0.5 0 0.2 0.1 0.4 0.2 0.1 0 0.2 0.1zm-0.2-4.7q0.1 0.1 0.2 0.2 0.1 0 0.1 0.1 0.1 0.1 0.1 0.2c0.4 0.6 0.2 1.4-0.4 1.9-0.5 0.5-1.4 0.4-1.9-0.1-0.6-0.6-0.6-1.4-0.2-2 0.5-0.6 1.3-0.8 2-0.4q0.1 0.1 0.1 0.1z"></path></g></g></g></svg> 