<?xml version="1.0" encoding="UTF-8"?> <svg xmlns="http://www.w3.org/2000/svg" xmlns:xlink="http://www.w3.org/1999/xlink" width="180" height="49" viewBox="0 0 180 49"><defs><clipPath id="clip-logo-google-tag-partner"><rect width="180" height="49"></rect></clipPath></defs><g id="logo-google-tag-partner" clip-path="url(#clip-logo-google-tag-partner)"><rect width="180" height="49" fill="rgba(255,255,255,0)"></rect><g id="forwarderlogo_140_GoogleTagManager" transform="translate(5.009 10.317)"><path id="Path_37641" data-name="Path 37641" d="M305.332,60.146q-.9,2.243-1.789,4.485-.762,1.921-1.526,3.841h-1.095q-1.643-4.137-3.283-8.256c-.028-.038-.046-.084-.093-.111-.083,0-.084.053-.061.117.065,2.741.018,5.481.034,8.244h-1.251V57.877H298.1l3.317,8.53.093.009,3.314-8.542h1.862V68.458H305.4V61.551a7.393,7.393,0,0,0,.012-1.412c0-.049,0,.021-.025-.019C305.379,60.1,305.347,60.121,305.332,60.146Zm-80.212-.9-.974.855c-.3-.176-.56-.5-.926-.711a4.2,4.2,0,0,0-6.082,2.721,4.331,4.331,0,0,0,1.835,4.7,4.208,4.208,0,0,0,5.09-.427,3.714,3.714,0,0,0,1.045-2.364H221.24a4.8,4.8,0,0,1-.034-1.194h5.146a5.085,5.085,0,0,1-1.321,4.382,5.165,5.165,0,0,1-4.827,1.4,5.357,5.357,0,0,1-4.4-4.284,5.589,5.589,0,0,1,2.512-5.93,5.654,5.654,0,0,1,6.638.64C225.009,59.1,225.048,59.162,225.12,59.246Zm92.523,9.223h-1.219V60.923h1.17c.133.3.007.618.089.947.241-.205.424-.443.668-.626a3.062,3.062,0,0,1,3.757.121,2.832,2.832,0,0,1,.811,2.148c.015,1.6.009,3.2.009,4.8a.818.818,0,0,1-.034.157h-1.2a.673.673,0,0,1-.065-.443c-.012-1.477,0-2.955-.037-4.432a1.563,1.563,0,0,0-1.182-1.662,1.969,1.969,0,0,0-2.191.764,3.041,3.041,0,0,0-.524,1.81c-.01,1.182,0,2.364,0,3.546A.847.847,0,0,1,317.643,68.47Zm-44.783,0h-1.312V59.116h-2.955V57.887h7.165V59.1h-2.9Zm80.951-7.606v1.3c-.232.074-.4-.071-.582-.114a2.043,2.043,0,0,0-2.411,1.723,10.5,10.5,0,0,0-.069,1.841v2.837H349.47V60.931h1.182a9.264,9.264,0,0,1,.069.977c1.1-1.164,2.129-1.507,3.089-1.039Zm-98.218,7.607h-1.222v-10.6h1.222Zm35.16-7.19c0-.118.037-.248-.062-.349a3.456,3.456,0,0,0-1.2.027v.95a2.37,2.37,0,0,1-.182-.165,3.324,3.324,0,0,0-4.778-.148,4.539,4.539,0,0,0-.712,5.171,3.366,3.366,0,0,0,5.518.767.09.09,0,0,1,.148-.028,6.092,6.092,0,0,1-.021.968,2.391,2.391,0,0,1-4.6.777l-1.173.49a2.043,2.043,0,0,0,.461.9,3.481,3.481,0,0,0,2.866,1.259,3.583,3.583,0,0,0,2.955-1.232,3.863,3.863,0,0,0,.768-2.523C290.771,65.862,290.756,63.574,290.753,61.285Zm-1.486,4.593a2.349,2.349,0,0,1-2.13,1.556,2.284,2.284,0,0,1-2.235-1.445,3.278,3.278,0,0,1,.065-2.819,2.334,2.334,0,0,1,4.317.288,3.409,3.409,0,0,1,.2,1.266A3.538,3.538,0,0,1,289.267,65.879Zm-36.74-4.629c0-.106.03-.222-.061-.324h-1.209v1.009a3.344,3.344,0,0,0-5.251.015,4.406,4.406,0,0,0-.57,4.407,3.385,3.385,0,0,0,3.884,2.216,3.047,3.047,0,0,0,1.921-1.16c.174,1.618-.284,2.683-1.33,3.1a2.729,2.729,0,0,1-1.625.13,2.261,2.261,0,0,1-1.625-1.4l-1.161.492a1.442,1.442,0,0,0,.257.622,3.405,3.405,0,0,0,3.017,1.538,3.6,3.6,0,0,0,3-1.225,3.709,3.709,0,0,0,.761-2.45C252.527,65.9,252.527,63.583,252.527,61.25Zm-1.547,4.772a2.283,2.283,0,0,1-2.33,1.405,2.382,2.382,0,0,1-2.113-1.829,3.3,3.3,0,0,1-.1-.886,2.733,2.733,0,0,1,.977-2.352,2.293,2.293,0,0,1,3.5.78,3.216,3.216,0,0,1,.059,2.882Zm88.36-5.088h-1.2V61.9c-.074-.049-.1-.056-.111-.074a3.329,3.329,0,0,0-5.127.084,4.68,4.68,0,0,0-.436,4.844,3.376,3.376,0,0,0,5.6.706l.058.013c.148,1.955-.511,2.749-1.432,3.083-1.273.464-2.188.093-3.206-1.285l-1.117.468a1.17,1.17,0,0,0,.239.616,3.346,3.346,0,0,0,2.825,1.541,3.68,3.68,0,0,0,3.185-1.2,3.756,3.756,0,0,0,.773-2.519c.015-2.29,0-4.58,0-6.87A.613.613,0,0,0,339.34,60.934Zm-1.21,3.722a2.644,2.644,0,0,1-1.423,2.554,2.39,2.39,0,0,1-3.388-2.031,3.523,3.523,0,0,1,.23-1.881,2.355,2.355,0,0,1,4.493.516A2.981,2.981,0,0,1,338.13,64.655Zm9.856.3a2.661,2.661,0,0,0,.044-.344,5.249,5.249,0,0,0-.027-.591,3.4,3.4,0,0,0-2.089-3.061,3.493,3.493,0,0,0-3.784.516,4.09,4.09,0,0,0-1.374,3.646,3.76,3.76,0,0,0,5.252,3.333,3.3,3.3,0,0,0,1.867-1.757l-1.079-.517c-1.13,1.33-2.129,1.658-3.3,1.111a2.472,2.472,0,0,1-1.392-2.337Zm-3.521-3.1a2.109,2.109,0,0,1,2.129,1.981h-4.4a2.27,2.27,0,0,1,2.274-1.98Zm-83.2,3.1h2.955a2.448,2.448,0,0,0,.024-.985,3.554,3.554,0,0,0-5.367-2.841,4.1,4.1,0,0,0-1.814,4.453,3.654,3.654,0,0,0,4.284,3.111,3.533,3.533,0,0,0,2.788-1.986l-1.09-.53c-1.071,1.343-2.187,1.687-3.38,1.081a2.4,2.4,0,0,1-1.294-2.3Zm-.591-3.1a2.09,2.09,0,0,1,2.156,1.984H258.46a2.244,2.244,0,0,1,2.213-1.98ZM282.1,63.563a2.639,2.639,0,0,0-1.182-2.331,3.9,3.9,0,0,0-3.085-.452,3.043,3.043,0,0,0-1.989,1.33,3.272,3.272,0,0,0,.974.739c1.08-1.025,2.166-1.271,3.138-.709a1.715,1.715,0,0,1,.861,1.881,1.32,1.32,0,0,1-.171-.041,5.23,5.23,0,0,0-3.042-.217,2.48,2.48,0,0,0-1.559,3.958,3.163,3.163,0,0,0,4.457.148c.1-.106.174-.257.341-.319.081.324-.027.634.074.925H282.1c0-1.666.013-3.289,0-4.909Zm-3.81,3.989a1.376,1.376,0,0,1-1.3-1.879,1.477,1.477,0,0,1,1.083-.864,3.751,3.751,0,0,1,2.583.3,1.48,1.48,0,0,1,.207.148,2.432,2.432,0,0,1-2.569,2.3Zm36.385-4.211a2.473,2.473,0,0,0-.979-1.975,4,4,0,0,0-4.735.148,1.372,1.372,0,0,0-.513.669c.312.232.615.459.935.7,1.1-1.068,2.216-1.316,3.2-.739A1.68,1.68,0,0,1,313.394,64c-.068-.018-.139-.033-.205-.056a5.23,5.23,0,0,0-3.009-.189,2.478,2.478,0,0,0-1.57,3.92,3.151,3.151,0,0,0,4.018.569,6.956,6.956,0,0,0,.8-.715c.095.337-.016.65.08.926h1.182C314.681,66.734,314.7,65.038,314.67,63.342Zm-4.23,4.109a1.316,1.316,0,0,1-.411-2.355,3.288,3.288,0,0,1,3.4.177A2.353,2.353,0,0,1,310.441,67.45Zm20.308-3.636a4.707,4.707,0,0,0-.025-.663,2.614,2.614,0,0,0-.985-1.794,4.022,4.022,0,0,0-4.536,0,2.022,2.022,0,0,0-.717.817l.929.7c1.358-1.111,2.3-1.3,3.265-.688a1.689,1.689,0,0,1,.771,1.841,5.193,5.193,0,0,0-3.2-.263,2.422,2.422,0,0,0-1.975,1.729,2.367,2.367,0,0,0,.761,2.574,3.229,3.229,0,0,0,3.6.21,3.9,3.9,0,0,0,.835-.768c.12.35,0,.666.09.951h1.192C330.75,66.889,330.75,65.355,330.749,63.815Zm-4.2,3.646a1.331,1.331,0,0,1-.173-2.531,3.57,3.57,0,0,1,3.113.267A2.348,2.348,0,0,1,326.544,67.461Zm-91.255-2.981a3.893,3.893,0,1,0-7.784.179l.024.4a3.851,3.851,0,0,0,5.67,3.237A3.811,3.811,0,0,0,235.289,64.479Zm-1.82,1.958a2.512,2.512,0,0,1-2.769.987,2.692,2.692,0,0,1-1.894-2.464V64.7a2.726,2.726,0,0,1,1.242-2.447,2.486,2.486,0,0,1,3.459.765A3.184,3.184,0,0,1,233.469,66.437Zm6.771-5.778a4.032,4.032,0,1,0,3.852,4.106A3.842,3.842,0,0,0,240.24,60.659Zm-.164,6.855A2.413,2.413,0,0,1,238.1,66.4a3.154,3.154,0,0,1,.1-3.556,2.559,2.559,0,0,1,2.671-.886,2.674,2.674,0,0,1,1.873,2.246c.019.183.027.368.035.482A2.641,2.641,0,0,1,240.076,67.514Z" transform="translate(-183.828 -49.104)" fill="#757575"></path><path id="Path_37642" data-name="Path 37642" d="M0,0H28.366V28.366H0Z" fill="none"></path><path id="Path_37643" data-name="Path 37643" d="M85.273,94.3,80.76,89.9,90.453,80l4.673,4.58Z" transform="translate(-68.829 -68.181)" fill="#8ab4f8"></path><path id="Path_37644" data-name="Path 37644" d="M23.293,18.592,18.8,14,8.962,23.74a3.25,3.25,0,0,0,0,4.592l9.686,9.749,4.58-4.284-7.38-7.761Z" transform="translate(-6.829 -11.932)" fill="#4285f4"></path><path id="Path_37645" data-name="Path 37645" d="M89.3,18.7,79.553,8.947a3.25,3.25,0,1,0-4.6,4.6l9.751,9.751a3.25,3.25,0,1,0,4.6-4.6Z" transform="translate(-63.072 -6.814)" fill="#8ab4f8"></path><ellipse id="Ellipse_3964" data-name="Ellipse 3964" cx="2.5" cy="3" rx="2.5" ry="3" transform="translate(11.982 21)" fill="#246fdb"></ellipse></g></g></svg> 