<?xml version="1.0" encoding="UTF-8"?> <svg xmlns="http://www.w3.org/2000/svg" width="170" height="50" viewBox="0 0 170 50" fill="none"><path d="M23.75 14.866V43.1L20.974 44.8L18.2 43.089V14.889L11 19.317V43.462L20.972 49.562L31.029 43.417V19.3L23.75 14.866ZM20.974 0L0 12.706V36.855L5.447 40.064V15.914L20.978 6.47L36.524 15.9L36.588 15.936L36.58 40.026L41.974 36.853V12.706L20.974 0Z" fill="#F37B20"></path><path d="M74.005 35.9412L72.557 17.4792L65.227 36.0422H62.838L55.508 17.4792L54.096 35.9412H51.137L52.986 12.7412H56.886L64.117 31.7762L71.346 12.7412H75.214L77.03 35.9412H74.005ZM89.239 27.8022C83.319 28.3742 82.077 29.9872 82.077 31.6362C82.0665 31.9423 82.123 32.247 82.2427 32.5289C82.3624 32.8109 82.5424 33.0632 82.7699 33.2682C82.9974 33.4733 83.267 33.6261 83.5599 33.7159C83.8527 33.8057 84.1616 33.8304 84.465 33.7882C85.3708 33.7497 86.2598 33.5305 87.0796 33.1434C87.8995 32.7563 88.6337 32.2092 89.239 31.5342V27.8022ZM89.81 35.9412L89.474 33.7892C88.76 34.578 87.8879 35.2074 86.9144 35.6364C85.9408 36.0655 84.8878 36.2845 83.824 36.2792C80.933 36.2792 79.117 34.5302 79.117 31.8052C79.117 27.8052 82.545 26.2252 89.239 25.5172V24.8442C89.239 22.8262 88.029 22.1202 86.177 22.1202C84.2516 22.1872 82.3616 22.657 80.629 23.4992L80.229 20.9102C82.188 20.0362 84.3069 19.5779 86.452 19.5642C90.352 19.5642 92.235 21.1442 92.235 24.7102V35.9422H89.814L89.81 35.9412ZM101.21 21.7492C100.76 21.7453 100.314 21.8351 99.9008 22.0127C99.4874 22.1904 99.1155 22.4522 98.8087 22.7813C98.5019 23.1105 98.267 23.4999 98.1188 23.9248C97.9706 24.3496 97.9124 24.8007 97.948 25.2492C97.9277 25.6844 97.998 26.1191 98.1544 26.5258C98.3107 26.9324 98.5498 27.3022 98.8563 27.6118C99.1629 27.9214 99.5304 28.164 99.9355 28.3243C100.341 28.4846 100.775 28.5592 101.21 28.5432C102.08 28.4984 102.9 28.1211 103.5 27.4892C104.1 26.8574 104.435 26.0192 104.435 25.1477C104.435 24.2762 104.1 23.4381 103.5 22.8062C102.9 22.1743 102.08 21.797 101.21 21.7522M96.84 37.6932C96.84 38.9712 98.488 39.9122 101.614 39.9122C104.74 39.9122 106.489 38.8362 106.489 37.4912C106.489 36.5152 105.751 35.8442 103.465 35.4412L101.546 35.1032C100.673 34.9362 100.203 34.8352 99.564 34.7032C97.68 35.6442 96.84 36.5852 96.84 37.6962M109.416 19.6712L109.853 22.3602L106.793 22.6602C107.228 23.4165 107.45 24.2768 107.434 25.1492C107.434 28.5812 104.54 30.6632 101.278 30.6632C100.873 30.6634 100.468 30.63 100.068 30.5632C99.597 30.8632 99.268 31.2382 99.268 31.5402C99.268 32.1112 99.838 32.2472 102.661 32.7512L103.805 32.9512C107.205 33.5562 109.321 34.6312 109.321 37.1212C109.321 40.4852 105.655 42.0652 101.486 42.0652C97.317 42.0652 93.986 40.7542 93.986 37.9302C93.986 36.2812 95.129 35.0032 97.386 33.7932C97.091 33.619 96.8444 33.3737 96.6685 33.0797C96.4926 32.7858 96.3931 32.4525 96.379 32.1102C96.379 31.3352 96.979 30.5632 98.059 29.9252C97.1549 29.4996 96.3921 28.8232 95.8615 27.9765C95.3309 27.1298 95.0547 26.1484 95.066 25.1492C95.066 21.6862 97.959 19.5682 101.221 19.5682C102.713 19.5323 104.172 20.0068 105.357 20.9132L109.426 19.6702L109.416 19.6712ZM116.816 21.9232C114.967 21.9232 113.385 23.2352 112.916 25.9912H120.65C120.283 23.4022 119.139 21.9232 116.818 21.9232M123.679 28.2452H112.779C112.879 31.9792 114.659 33.7282 117.452 33.7282C119.582 33.6848 121.625 32.8721 123.203 31.4402L123.639 34.1302C121.814 35.5734 119.543 36.3336 117.217 36.2792C113.048 36.2792 109.785 33.7562 109.785 27.8722C109.785 22.7272 112.813 19.5722 116.848 19.5722C121.521 19.5722 123.675 23.1722 123.675 27.6082V28.2472L123.679 28.2452ZM136.289 35.9452V25.0112C136.289 23.3642 135.583 22.2542 133.834 22.2542C132.254 22.2542 130.639 23.2992 129.194 24.8442V35.9442H126.201V19.8992H128.588L128.958 22.2192C130.451 20.6511 132.48 19.7025 134.641 19.5622C137.666 19.5622 139.284 21.3782 139.284 24.2702V35.9402H136.289V35.9452ZM148.126 36.2142C145.3 36.2142 143.452 35.2072 143.452 31.9752V22.4232H141.029V19.9002H143.452V14.5532L146.38 14.1172V19.8992H149.84L150.246 22.4222H146.381V31.4342C146.381 32.7472 146.917 33.5532 148.599 33.5532C149.061 33.5602 149.522 33.5267 149.978 33.4532L150.383 36.0052C149.64 36.1529 148.884 36.2223 148.127 36.2122M158.048 22.0872C155.154 22.0872 153.708 24.5752 153.708 27.9392C153.708 31.2392 155.221 33.7912 158.048 33.7912C161.007 33.7912 162.485 31.3012 162.485 27.9392C162.485 24.6392 160.939 22.0872 158.048 22.0872ZM158.048 36.2792C153.776 36.2792 150.681 33.2192 150.681 27.9392C150.681 22.6592 153.775 19.5672 158.048 19.5672C162.348 19.5672 165.512 22.6572 165.512 27.9392C165.512 33.2212 162.347 36.2792 158.043 36.2792M167.618 19.3482H167.318V20.0302H167.605C167.865 20.0302 168.028 19.9222 168.028 19.6892C168.028 19.4562 167.883 19.3482 167.622 19.3482M168.233 21.3322L167.543 20.3442H167.319V21.2962H166.919V18.9882H167.619C168.107 18.9882 168.429 19.2312 168.429 19.6612C168.436 19.8053 168.394 19.9474 168.308 20.0638C168.223 20.1802 168.1 20.2636 167.961 20.3002L168.627 21.2432L168.233 21.3322ZM167.633 18.3682C167.264 18.349 166.898 18.4408 166.582 18.6318C166.265 18.8227 166.014 19.1041 165.859 19.4395C165.704 19.7749 165.654 20.149 165.713 20.5135C165.773 20.878 165.941 21.2162 166.195 21.4844C166.449 21.7526 166.778 21.9386 167.138 22.0182C167.499 22.0979 167.875 22.0676 168.219 21.9313C168.562 21.795 168.857 21.559 169.065 21.2536C169.272 20.9483 169.384 20.5876 169.385 20.2182C169.406 19.9782 169.377 19.7365 169.297 19.5089C169.218 19.2813 169.092 19.0732 168.926 18.8983C168.76 18.7233 168.559 18.5856 168.336 18.4942C168.114 18.4028 167.874 18.3599 167.633 18.3682ZM167.633 22.3022C167.358 22.3139 167.084 22.2676 166.828 22.1663C166.573 22.0651 166.341 21.9112 166.149 21.7147C165.957 21.5181 165.808 21.2833 165.712 21.0255C165.617 20.7677 165.576 20.4926 165.594 20.2182C165.603 19.817 165.73 19.4273 165.959 19.0979C166.189 18.7686 166.51 18.5143 166.883 18.3668C167.257 18.2194 167.665 18.1853 168.058 18.269C168.45 18.3527 168.809 18.5504 169.09 18.8372C169.371 19.1241 169.56 19.4874 169.635 19.8817C169.711 20.2759 169.668 20.6836 169.512 21.0535C169.356 21.4235 169.095 21.7393 168.761 21.9615C168.427 22.1836 168.034 22.3021 167.633 22.3022Z" fill="#171113"></path></svg> 