<?xml version="1.0" encoding="UTF-8"?> <svg xmlns="http://www.w3.org/2000/svg" xmlns:xlink="http://www.w3.org/1999/xlink" width="180" height="49" viewBox="0 0 180 49"><defs><clipPath id="clip-path"><path id="Path_37474" data-name="Path 37474" d="M.473.38H142.419V42.267H.473Z" transform="translate(-0.473 -0.38)"></path></clipPath><clipPath id="clip-logo-mulesoft"><rect width="180" height="49"></rect></clipPath></defs><g id="logo-mulesoft" clip-path="url(#clip-logo-mulesoft)"><rect width="180" height="49" fill="rgba(255,255,255,0)"></rect><g id="mulesoft-ar21" transform="translate(10.75 -9.834)"><g id="Group_1611" data-name="Group 1611" transform="translate(5 13.391)"><g id="Group_1610" data-name="Group 1610" transform="translate(0 0)" clip-path="url(#clip-path)"><path id="Path_37473" data-name="Path 37473" d="M21.5,40.647a19.194,19.194,0,1,1,19.188-19.2A19.187,19.187,0,0,1,21.5,40.647ZM21.49.38A20.944,20.944,0,1,0,42.53,21.33,21.006,21.006,0,0,0,21.49.38Z" transform="translate(-0.475 -0.38)" fill="#00a1df"></path></g></g><path id="Path_37475" data-name="Path 37475" d="M19.593,42.172a9.616,9.616,0,0,1-5.377-8.758,9.835,9.835,0,0,1,1.658-5.519l6.919,10.314H26.98L33.9,27.895a9.868,9.868,0,0,1,1.658,5.519,9.736,9.736,0,0,1-4.741,8.448l1.334,5.1a15.75,15.75,0,0,0,.828-27.544l-8.032,12.4L17,19.371a15.748,15.748,0,0,0,1.3,27.868ZM69.576,23.944H66.894L61.83,34.955,56.66,23.943h-2.7v17.7h2.695V29.813l4.171,8.629h1.995l4.068-8.629V41.64h2.682ZM79.667,36.72a2.509,2.509,0,0,1-2.6,2.812c-1.412,0-2.54-.842-2.54-2.812V29.037H71.984v8.07a4.632,4.632,0,0,0,1.27,3.563,4.415,4.415,0,0,0,3.109,1.14A4.487,4.487,0,0,0,79.718,40.4v1.27h2.489V29.062h-2.54Zm7.5,1.294V23.944H84.628V38.155a3.218,3.218,0,0,0,3.459,3.485h1.567V39.476H88.539c-1.024,0-1.387-.5-1.387-1.463Zm5.75-3.7a4.022,4.022,0,0,1,.324-1.71,2.644,2.644,0,0,1,2.513-1.594A2.607,2.607,0,0,1,98.244,32.6a4.013,4.013,0,0,1,.349,1.71Zm2.837-5.416c-3.225,0-5.337,2.358-5.337,6.438,0,4.794,2.513,6.465,5.674,6.465a5.874,5.874,0,0,0,4.716-1.97l-1.633-1.516a3.794,3.794,0,0,1-3.058,1.295c-2.06,0-3.213-1.362-3.213-3.524h8.175V34.967c.013-3.589-1.942-6.078-5.325-6.078Zm17.852,4.069a5.855,5.855,0,0,0-3.3-1.321l-2.009-.3a4.063,4.063,0,0,1-1.982-.816,2.159,2.159,0,0,1-.673-1.646c0-1.567,1.14-2.759,3.225-2.759a5.2,5.2,0,0,1,3.848,1.362l1.71-1.685a7.471,7.471,0,0,0-5.493-2.009c-3.679,0-5.92,2.112-5.92,5.2a4.422,4.422,0,0,0,1.295,3.382,5.982,5.982,0,0,0,3.354,1.412l2.086.3a3.016,3.016,0,0,1,1.942.752,2.4,2.4,0,0,1,.7,1.841c0,1.71-1.349,2.707-3.653,2.707a5.879,5.879,0,0,1-4.522-1.685l-1.787,1.763a8.023,8.023,0,0,0,6.271,2.333c3.707,0,6.361-1.942,6.361-5.2a4.7,4.7,0,0,0-1.45-3.628Zm10,5.829a2.591,2.591,0,0,1-1.866.739,2.511,2.511,0,0,1-1.841-.739c-.777-.764-.868-2.086-.868-3.459s.1-2.682.868-3.459a2.519,2.519,0,0,1,1.841-.725,2.571,2.571,0,0,1,1.866.725c.764.764.868,2.086.868,3.459S124.375,38.015,123.61,38.792Zm-1.866-9.9a5.086,5.086,0,0,0-3.758,1.49c-1.192,1.243-1.49,2.837-1.49,4.949,0,2.137.3,3.732,1.49,4.974a5.039,5.039,0,0,0,3.758,1.49,5.146,5.146,0,0,0,3.783-1.49c1.192-1.243,1.49-2.837,1.49-4.974,0-2.112-.3-3.707-1.49-4.949a5.148,5.148,0,0,0-3.783-1.49Zm7.827-1.567v1.942h-1.437V31.21h1.437V41.65h2.54V31.21h2.513V29.268H132.11V27.455c0-.92.441-1.463,1.387-1.463h1.115V23.816h-1.594a3.287,3.287,0,0,0-3.446,3.51Zm10.6-1.891h-2.54v3.821h-1.437V31.2h1.437v6.931a3.283,3.283,0,0,0,3.459,3.51H142.6V39.475h-1.049a1.275,1.275,0,0,1-1.387-1.463V31.2H142.6V29.243h-2.436Z" transform="translate(1.097 1.56)" fill="#00a1df"></path></g></g></svg> 