<?xml version="1.0" encoding="UTF-8"?> <svg xmlns="http://www.w3.org/2000/svg" xmlns:xlink="http://www.w3.org/1999/xlink" version="1.1" id="Layer_1" x="0px" y="0px" viewBox="0 0 64 64" style="enable-background:new 0 0 64 64;" xml:space="preserve"> <style type="text/css"> .st0{fill:#FFFFFF;} </style> <g> <path class="st0" d="M58.8,36.3c-0.4-0.6-1-1-1.6-1.3c-0.7-0.3-1.3-0.4-2-0.4c-1.3,0-2.6,0.7-3.5,1.6c-0.9,1-1.4,2.2-1.4,3.5 c0,1.3,0.6,2.7,1.4,3.5s2.2,1.6,3.5,1.6c1.2,0,2.3-0.4,3.2-1.1l0.1-0.1v-1.6c0,0,0-0.1-0.1-0.1l-0.1-0.1h-3.7h-0.1 c0,0-0.1,0-0.1-0.1c0,0,0,0,0-0.1v-0.1v-2.4v-0.1v-0.1c0,0,0,0,0.1,0h0.1h6.7v-3.5l-2.1,1.2C59.1,36.4,58.8,36.4,58.8,36.3z"></path> <path class="st0" d="M27.8,37.9h4c0.2,0,0.4,0,0.7-0.1c0.2-0.1,0.4-0.2,0.6-0.3c0.2-0.1,0.3-0.3,0.4-0.6s0.1-0.4,0.1-0.7 c0-0.2,0-0.4-0.1-0.7c-0.1-0.2-0.2-0.4-0.4-0.6c-0.2-0.1-0.3-0.2-0.6-0.3c-0.2-0.1-0.4-0.1-0.7-0.1h-4h-0.1h-0.1c0,0,0,0-0.1,0.1 v0.1v2.8c0,0,0,0.1,0.1,0.1C27.7,37.9,27.7,37.9,27.8,37.9L27.8,37.9z"></path> <path class="st0" d="M49.4,33.6c0.8-0.8,1.7-1.3,2.7-1.8c1-0.4,2.1-0.6,3.2-0.6c1.2,0,2.3,0.2,3.4,0.7c1.1,0.6,2,1.2,2.7,2.2V10.9 c0-0.1,0-0.2-0.1-0.3c0-0.1-0.1-0.1-0.2-0.2c-0.1,0-0.2-0.1-0.2-0.1c-0.2,0.3-0.3,0.3-0.3,0.4L31.7,31.7h0.8c3,0,4.5,1.9,4.5,4 c0,0.7-0.1,1.3-0.4,2c-0.3,0.6-0.9,1.1-1.4,1.4c0,0-0.1,0-0.1,0.1v0.2l0.1,0.1c0.7,0.3,1.3,0.8,1.7,1.4c0.4,0.7,0.6,1.4,0.6,2.2 c0,2.3-1.6,4.2-4.5,4.2h-8.4c0,0,0,0-0.1-0.1V37.3L2.8,52.8c-0.1,0.1-0.1,0.1-0.2,0.2v0.3c0,0.1,0.1,0.2,0.2,0.2 c0.1,0.2,0.2,0.2,0.3,0.2h57.7c0.1,0,0.1,0,0.2,0c0.1,0,0.1-0.1,0.2-0.1c0,0,0.1-0.1,0.1-0.2c0-0.1,0-0.1,0-0.2v-7.9 c-1.7,1.6-3.8,2.3-6.1,2.3c-1.1,0-2.2-0.1-3.2-0.6c-1-0.4-1.9-1-2.7-1.8c-0.8-0.8-1.4-1.7-1.8-2.7c-0.4-1-0.7-2.1-0.7-3.2 s0.2-2.1,0.7-3.2C48.1,35.3,48.6,34.4,49.4,33.6z M43.8,47.2l-0.2,0.2h-2.9c-0.1,0-0.1,0-0.1-0.1l-0.1-0.1V31.9 c0-0.1,0-0.1,0.1-0.1l0.1-0.1h2.9c0.1,0,0.1,0,0.1,0.1l0.1,0.1V47.2z"></path> <path class="st0" d="M27.8,44.5h4c0.2,0,0.6,0,0.8-0.1s0.4-0.2,0.7-0.3c0.2-0.2,0.3-0.3,0.4-0.7c0.1-0.2,0.1-0.4,0.1-0.8 c0-0.2,0-0.6-0.1-0.8c-0.1-0.2-0.2-0.4-0.4-0.6c-0.2-0.2-0.4-0.3-0.7-0.3c-0.2-0.1-0.4-0.1-0.8-0.1h-4.1h-0.1h-0.1c0,0,0,0-0.1,0.1 V41v3.1C27.6,44.4,27.6,44.5,27.8,44.5z"></path> </g> </svg> 