<?xml version="1.0" encoding="UTF-8"?> <svg xmlns:inkscape="http://www.inkscape.org/namespaces/inkscape" xmlns:sodipodi="http://sodipodi.sourceforge.net/DTD/sodipodi-0.dtd" xmlns:svg="http://www.w3.org/2000/svg" xmlns="http://www.w3.org/2000/svg" xmlns:xlink="http://www.w3.org/1999/xlink" version="1.1" id="svg2" inkscape:version="1.1.1 (3bf5ae0d25, 2021-09-20)" sodipodi:docname="LoRaWAN-logo-WO.svg" x="0px" y="0px" viewBox="0 0 514.2 165.8" style="enable-background:new 0 0 514.2 165.8;" xml:space="preserve"> <style type="text/css"> .st0{fill:#009FE3;} .st1{fill-rule:evenodd;clip-rule:evenodd;fill:#009FE3;} </style> <g id="g1074"> <polyline id="polyline4" points="0,110.9 0,35.7 18.8,35.7 18.8,95.1 48.2,95.1 48.2,110.9 0,110.9 "></polyline> <path id="path6" d="M143.8,49.6v20.3H161c6.7,0,10.1-3.4,10.1-10.1c0-6.8-3.3-10.1-10.1-10.1h-17.2V49.6z M125,110.9V35.7h37.6 c18.2,0,27.3,8.2,27.3,24.7c0,4.9-1.4,9.1-4.2,12.7s-6.6,6.2-11.3,7.6l17.2,30.2h-21l-14.8-27.1h-12v27.1H125"></path> <path id="path8" d="M232.4,87.5v-3.9l-11.1,3.2c-5.3,1.5-7.9,3.9-7.9,7.3c0,4.2,2.6,6.3,7.7,6.3c3.4,0,6.1-1.1,8.2-3.3 C231.3,94.8,232.4,91.6,232.4,87.5 M248.2,69.5v29.7c0,5.3,0.5,9.2,1.5,11.7h-15.2c-0.6-1.8-0.9-3.7-1-5.8h-0.2 c-1.3,2.1-3.8,3.9-7.3,5.3c-3.2,1.3-6.4,2-9.6,2c-5.6,0-10-1.4-13.4-4.3c-3.6-3-5.4-7.2-5.4-12.4c0-6.4,2.6-11.3,7.7-14.6 c4.4-2.8,11.4-4.9,21.1-6.2l6-0.8v-4.7c0-4-2.6-6-7.8-6c-2.7,0-4.7,0.6-6,1.7s-2.2,3.1-2.6,5.8h-16c0.3-11.8,8.1-17.6,23.2-17.6 c8.2,0,14.3,1.1,18.3,3.4C246,59.2,248.2,63.5,248.2,69.5"></path> <path id="path10" d="M84,65.8c-4.5,0-7.9,1.6-10.2,4.9c-2.1,3-3.2,7-3.2,12.1s1.1,9.1,3.2,12.1c2.3,3.3,5.7,4.9,10.2,4.9 c9,0,13.4-5.9,13.4-17.7c0-4.8-1.1-8.7-3.2-11.6C91.9,67.4,88.5,65.8,84,65.8 M84,53.2c9,0,16.2,2.6,21.7,7.8s8.2,12.5,8.2,21.8 s-2.7,16.6-8.2,21.8c-5.5,5.2-12.7,7.8-21.7,7.8s-16.2-2.6-21.7-7.8c-5.5-5.2-8.2-12.5-8.2-21.8s2.7-16.6,8.2-21.8 C67.9,55.8,75.1,53.2,84,53.2"></path> <path id="path12" class="st0" d="M83.5,42c8.2,0,15.9,2.4,22.3,6.6L109,44c-7.4-4.8-16.1-7.6-25.5-7.6c-9,0-17.4,2.6-24.6,7 l3.2,4.6C68.4,44.1,75.7,42,83.5,42"></path> <path id="path14" class="st0" d="M48.9,29l4.3,6.1c8.8-5.6,19.2-8.8,30.3-8.8c11.6,0,22.3,3.5,31.3,9.4l4.3-6.1 c-10.2-6.8-22.5-10.8-35.6-10.8C70.8,18.8,58.9,22.6,48.9,29"></path> <path id="path16" class="st0" d="M83.5,10.3c15,0,28.9,4.5,40.6,12.3l5.4-7.7c-13.1-8.9-29-14-46-14c-16.5,0-32,4.9-44.9,13.3 l5.4,7.7C55.4,14.6,68.9,10.3,83.5,10.3"></path> <path id="path18" class="st0" d="M84.6,123.8c-8.2,0-15.9-2.4-22.3-6.6l-3.2,4.6c7.4,4.8,16.1,7.6,25.6,7.6c9,0,17.4-2.6,24.6-7 l-3.2-4.6C99.7,121.7,92.4,123.8,84.6,123.8"></path> <path id="path20" class="st0" d="M119.2,136.8l-4.3-6.1c-8.8,5.6-19.2,8.8-30.3,8.8c-11.6,0-22.3-3.5-31.3-9.4l-4.3,6.1 C59.2,143,71.4,147,84.6,147C97.3,147,109.2,143.2,119.2,136.8"></path> <path id="path22" class="st0" d="M84.6,155.5c-15,0-28.9-4.5-40.6-12.3l-5.4,7.7c13.1,8.8,29,14,46,14c16.5,0,32-4.9,44.9-13.3 l-5.4-7.7C112.7,151.2,99.1,155.5,84.6,155.5"></path> <path id="path24" class="st1" d="M259.7,35.3H278v42.3l29.2-42.3c0,0,9.7,0,14.6,0c0,14,0,42.3,0,42.3L351,35.3h21.9l-51.1,75.1 h-18.3V73.9L278,110.4h-18.2L259.7,35.3L259.7,35.3z"></path> <polygon id="polygon26" class="st1" points="483.8,35.3 483.8,110.4 464.3,110.4 438,71 438,110.4 420,110.4 420,35.3 438.7,35.3 465.6,76.6 465.6,35.3 "></polygon> <path id="path28" class="st1" d="M406.7,35.3v75.1h-17.8V99.6h-24.7l-7.5,10.9h-20.9l52.4-75.1h18.5L406.7,35.3z M374.8,84.1h14.1 V63.4L374.8,84.1z"></path> </g> <g id="g36"> <g id="g34"> <path id="path32" d="M514.2,46.3c0,5.7-4.5,10.2-10.3,10.2s-10.3-4.5-10.3-10.2c0-5.6,4.6-10,10.3-10 C509.7,36.2,514.2,40.7,514.2,46.3z M496.1,46.3c0,4.5,3.3,8,7.8,8c4.4,0,7.7-3.6,7.7-8c0-4.5-3.2-8.1-7.7-8.1 S496.1,41.8,496.1,46.3z M502.3,51.5H500v-10c0.9-0.2,2.2-0.3,3.9-0.3c1.9,0,2.8,0.3,3.5,0.7c0.6,0.4,1,1.2,1,2.2 c0,1.1-0.9,2-2.1,2.3v0.1c1,0.4,1.5,1.1,1.8,2.4c0.3,1.5,0.5,2.1,0.7,2.5h-2.5c-0.3-0.4-0.5-1.3-0.8-2.4c-0.2-1.1-0.8-1.6-2.1-1.6 h-1.1L502.3,51.5z M502.4,45.8h1.1c1.3,0,2.3-0.4,2.3-1.5c0-0.9-0.7-1.5-2.1-1.5c-0.6,0-1,0.1-1.3,0.1V45.8z"></path> </g> </g> </svg> 