<?xml version="1.0" encoding="UTF-8"?> <svg xmlns="http://www.w3.org/2000/svg" xmlns:xlink="http://www.w3.org/1999/xlink" version="1.1" id="Layer_1" x="0px" y="0px" viewBox="0 0 64 64" style="enable-background:new 0 0 64 64;" xml:space="preserve"> <style type="text/css"> .st0{fill-rule:evenodd;clip-rule:evenodd;fill:#59B4D9;} .st1{fill-rule:evenodd;clip-rule:evenodd;fill:#B8D432;} .st2{fill-rule:evenodd;clip-rule:evenodd;fill:#7FBA00;} .st3{opacity:0.25;fill-rule:evenodd;clip-rule:evenodd;fill:#FFFFFF;enable-background:new ;} </style> <symbol id="A" viewBox="-40 -40 80 80"> <g> <path class="st0" d="M38.8,31.4L13.4-11.7v-17.5h0.5c3,0,5.5-2.4,5.5-5.4S16.9-40,13.9-40h-27.7c-3,0-5.5,2.4-5.5,5.4 s2.5,5.4,5.5,5.4h0.5v17.5l-25.4,43.1c-2.8,4.7-0.5,8.6,5.1,8.6h67.5C39.3,40,41.6,36.1,38.8,31.4z"></path> <path class="st1" d="M-17.9,12.8l-10.5,17.8h56.7L17.9,12.8H-17.9z"></path> <path class="st2" d="M1.3,20.1c2.8,0,5.1-2.2,5.1-5c0-0.8-0.2-1.5-0.5-2.2h-9.2c-0.3,0.7-0.5,1.4-0.5,2.2 C-3.8,17.8-1.5,20.1,1.3,20.1L1.3,20.1z M5.2,23.9c0-1.4,1.1-2.5,2.5-2.5s2.5,1.1,2.5,2.5c0,1.4-1.1,2.5-2.5,2.5 S5.2,25.3,5.2,23.9z"></path> <path class="st3" d="M-38.8,31.4l25.4-43.1v-17.5h-0.5c-3,0-5.5-2.4-5.5-5.4s2.5-5.4,5.5-5.4h11.9v28.1L-15.3,40h-18.4 C-39.3,40-41.6,36.1-38.8,31.4z"></path> </g> </symbol> <g> <use xlink:href="#A" width="80" height="80" x="-40" y="-40" transform="matrix(0.7516 0 0 0.7516 32 32)" style="overflow:visible;"></use> </g> </svg> 