<?xml version="1.0" encoding="UTF-8"?> <svg xmlns="http://www.w3.org/2000/svg" xmlns:xlink="http://www.w3.org/1999/xlink" version="1.1" id="Layer_1" x="0px" y="0px" viewBox="0 0 64 64" style="enable-background:new 0 0 64 64;" xml:space="preserve"> <style type="text/css"> .st0{fill-rule:evenodd;clip-rule:evenodd;fill:#0078D7;} </style> <symbol id="A" viewBox="-40 -40 80 80"> <path class="st0" d="M10.2,23.9c3.3,1.4,4.8,5.1,3.4,8.3s-5.2,4.7-8.4,3.3s-4.8-5.1-3.4-8.3S7,22.6,10.2,23.9 c-3.3-1.4-4.8-5.1-3.4-8.3s5.2-4.7,8.4-3.3s4.8,5.1,3.4,8.3S13.5,25.3,10.2,23.9L10.2,23.9z M1.3,20c2.8,0,5.1-2.3,5.1-5 c0-0.8-0.2-1.5-0.5-2.2h12l10.5,17.8h-56.7l10.5-17.8h14.6c-0.3,0.7-0.5,1.4-0.5,2.2C-3.8,17.8-1.5,20,1.3,20L1.3,20z M38.8,31.4 L13.4-11.8v-17.5h0.5c3,0,5.5-2.4,5.5-5.4S16.9-40,13.9-40h-27.7c-3.1,0-5.5,2.4-5.5,5.4s2.4,5.4,5.5,5.4h0.4v17.5l-25.4,43.1 c-2.8,4.7-0.5,8.6,5.1,8.6h67.5C39.3,40,41.6,36.1,38.8,31.4L38.8,31.4z"></path> </symbol> <use xlink:href="#A" width="80" height="80" x="-40" y="-40" transform="matrix(0.7412 0 0 0.7412 32 32)" style="overflow:visible;"></use> </svg> 