<?xml version="1.0" encoding="UTF-8"?> <svg xmlns="http://www.w3.org/2000/svg" width="64" height="64" viewBox="0 0 64 64" fill="none"><path d="M25.11 47.0897L25.04 47.0297L48.09 23.9797L52.76 28.6497L53.43 9.27969L34.06 9.94969L38.73 14.6197L15.68 37.6697L15.61 37.5997L38.59 14.6197L33.83 9.8597H33.94L53.52 9.17969V9.2397L52.84 28.8697L52.77 28.7997L48.09 24.1197L25.11 47.0897Z" stroke="black" stroke-linecap="round" stroke-linejoin="round"></path><path d="M25.11 47.0897L25.04 47.0297L48.09 23.9797L52.76 28.6497L53.43 9.27969L34.06 9.94969L38.73 14.6197L15.68 37.6697L15.61 37.5997L38.59 14.6197L33.83 9.8597H33.94L53.52 9.17969V9.2397L52.84 28.8697L52.77 28.7997L48.09 24.1197L25.11 47.0897Z" stroke="url(#paint0_linear_526_10288)" stroke-linecap="round" stroke-linejoin="round"></path><path d="M53.08 34.8193L43.29 35.1793L45.81 37.6993L34.72 48.7893L39.12 53.1793L50.21 42.0993L52.72 44.6093L53.08 34.8193Z" stroke="white" stroke-linecap="round" stroke-linejoin="round"></path><path d="M28.84 10.5801L19.05 10.9401L21.56 13.4501L10.48 24.5401L14.88 28.9401L25.96 17.8501L28.48 20.3701L28.84 10.5801Z" stroke="white" stroke-linecap="round" stroke-linejoin="round"></path><path d="M13.7079 40.4784L11.8071 42.3818L11.8707 42.4454L13.7715 40.542L13.7079 40.4784Z" stroke="white" stroke-linecap="round" stroke-linejoin="round"></path><path d="M21.3281 38.5492L10.8559 49.0215L10.9195 49.0851L21.3918 38.6129L21.3281 38.5492Z" stroke="white" stroke-linecap="round" stroke-linejoin="round"></path><path d="M22.2835 43.3297L18.4689 47.1377L18.5325 47.2014L22.3471 43.3934L22.2835 43.3297Z" stroke="white" stroke-linecap="round" stroke-linejoin="round"></path><defs><linearGradient id="paint0_linear_526_10288" x1="28.2985" y1="22.1489" x2="67.7609" y2="56.471" gradientUnits="userSpaceOnUse"><stop offset="0.236106" stop-color="#DA291C"></stop><stop offset="1" stop-color="#FFCD00"></stop></linearGradient></defs></svg> 