<?xml version="1.0" encoding="UTF-8"?> <svg xmlns="http://www.w3.org/2000/svg" xmlns:xlink="http://www.w3.org/1999/xlink" version="1.1" id="Layer_1" x="0px" y="0px" viewBox="0 0 64 64" style="enable-background:new 0 0 64 64;" xml:space="preserve"> <style type="text/css"> .st0{fill:url(#SVGID_1_);} .st1{fill:url(#SVGID_00000075127124497681536770000012022264149533572746_);} .st2{fill:#14559A;} .st3{fill:url(#SVGID_00000155105985316405214730000013117785922907745185_);} .st4{fill:#3092C4;} .st5{fill:#1969BC;} .st6{fill:url(#SVGID_00000027580738454640128880000005152587387417426587_);} .st7{fill:url(#SVGID_00000145760852196542489640000014883205636598471861_);} .st8{fill:url(#SVGID_00000028324228849950518660000008601684689909405107_);} .st9{fill:#2B74B1;} .st10{fill:#125A9E;} .st11{fill:url(#SVGID_00000029016956510280085320000005831171504473673142_);} .st12{fill:url(#SVGID_00000023977182665947696470000001207495026625532345_);} .st13{fill:#0D82CA;} .st14{fill:url(#SVGID_00000075861847497945240780000013305560618980691385_);} .st15{fill:#127BCA;} .st16{fill:url(#SVGID_00000030459695918259284470000016298204382132585653_);} .st17{fill:url(#SVGID_00000142155253999134795400000003444330453978016698_);} .st18{fill:#05A1E6;} .st19{fill:url(#SVGID_00000056395343189668186000000008203786207976372612_);} .st20{fill:url(#SVGID_00000014601494622302917780000001509426209728156811_);} .st21{fill:url(#SVGID_00000115509555396087736780000008929347846505661828_);} .st22{fill:#079AE1;} .st23{fill:#1E5CB3;} .st24{fill:#1D60B5;} .st25{fill:#175FAB;} .st26{fill:url(#SVGID_00000114064409151114353870000008358447911774119850_);} .st27{fill:#7DCBEC;} .st28{fill:#5EC5ED;} .st29{fill:url(#SVGID_00000089556642567238517770000014578089944714027934_);} .st30{fill:url(#SVGID_00000086655554834895604940000015478627329166317955_);} .st31{fill:url(#SVGID_00000020397173785021007980000007347855873612503228_);} </style> <g transform="translate(26.734177, 116.658228)"> <path d="M25.6-83.1c0-0.1,0-0.2-0.1-0.2c-0.1-0.1-0.2-0.1-0.3-0.1H25v0.6h0.3C25.5-82.8,25.6-82.9,25.6-83.1L25.6-83.1z M25.9-81.9 h-0.3l-0.2-0.4c-0.1-0.2-0.2-0.3-0.3-0.3H25v0.7h-0.2v-1.8h0.5c0.2,0,0.4,0,0.5,0.1c0.1,0.1,0.1,0.2,0.1,0.3c0,0.1,0,0.2-0.1,0.3 c-0.1,0.1-0.2,0.1-0.3,0.2v0c0.1,0,0.2,0.1,0.3,0.3L25.9-81.9L25.9-81.9z M26.5-82.7c0-0.3-0.1-0.6-0.4-0.9 c-0.2-0.2-0.5-0.3-0.9-0.3c-0.4,0-0.6,0.1-0.9,0.4c-0.2,0.2-0.3,0.5-0.3,0.9c0,0.4,0.1,0.6,0.4,0.9c0.2,0.2,0.5,0.3,0.9,0.3 c0.3,0,0.6-0.1,0.9-0.4C26.4-82.1,26.5-82.4,26.5-82.7L26.5-82.7z M26.6-82.7c0,0.4-0.1,0.7-0.4,1c-0.3,0.3-0.6,0.4-1,0.4 c-0.4,0-0.7-0.1-1-0.4c-0.3-0.3-0.4-0.6-0.4-1c0-0.4,0.1-0.7,0.4-1c0.3-0.3,0.6-0.4,1-0.4c0.4,0,0.7,0.1,1,0.4 C26.5-83.5,26.6-83.1,26.6-82.7L26.6-82.7z"></path> <path d="M-11-77.8h-0.9v-4.9c0-0.4,0-0.9,0.1-1.4h0c-0.1,0.3-0.2,0.6-0.2,0.7l-2.5,5.6H-15l-2.5-5.6c-0.1-0.2-0.1-0.4-0.2-0.7h0 c0,0.3,0,0.8,0,1.4v4.9h-0.8v-7.3h1.1l2.2,5.1c0.2,0.4,0.3,0.7,0.3,0.9h0c0.1-0.4,0.3-0.7,0.3-0.9l2.3-5.1h1.1L-11-77.8L-11-77.8z"></path> <path d="M-8.4-77.8h-0.8V-83h0.8V-77.8L-8.4-77.8z M-8.3-84.9c0,0.2-0.1,0.3-0.2,0.4c-0.1,0.1-0.2,0.2-0.4,0.2 c-0.1,0-0.3-0.1-0.4-0.2c-0.1-0.1-0.2-0.2-0.2-0.4c0-0.2,0.1-0.3,0.2-0.4c0.1-0.1,0.2-0.2,0.4-0.2c0.2,0,0.3,0.1,0.4,0.2 C-8.3-85.2-8.3-85-8.3-84.9L-8.3-84.9z"></path> <path d="M-3.2-78.1c-0.4,0.2-0.9,0.4-1.4,0.4c-0.7,0-1.3-0.2-1.8-0.7c-0.4-0.5-0.7-1.1-0.7-1.9c0-0.9,0.2-1.5,0.7-2.1 c0.5-0.5,1.1-0.8,2-0.8c0.5,0,0.9,0.1,1.2,0.3v0.9c-0.4-0.3-0.8-0.4-1.2-0.4c-0.5,0-1,0.2-1.3,0.6c-0.3,0.4-0.5,0.9-0.5,1.5 c0,0.6,0.2,1.1,0.5,1.4c0.3,0.4,0.7,0.5,1.3,0.5c0.5,0,0.9-0.1,1.3-0.4V-78.1L-3.2-78.1z"></path> <path d="M0.7-82.2c-0.1-0.1-0.4-0.2-0.6-0.2c-0.3,0-0.6,0.2-0.9,0.5c-0.3,0.3-0.4,0.8-0.4,1.4v2.7H-2V-83h0.8v1.1h0 c0.1-0.4,0.3-0.7,0.6-0.9c0.2-0.2,0.5-0.3,0.8-0.3c0.2,0,0.4,0,0.5,0.1L0.7-82.2L0.7-82.2z"></path> <path d="M5.4-80.4c0-0.7-0.2-1.2-0.5-1.5c-0.3-0.3-0.7-0.5-1.2-0.5c-0.5,0-0.9,0.2-1.2,0.5C2.1-81.6,2-81.1,2-80.4 c0,0.6,0.2,1.1,0.5,1.5c0.3,0.4,0.7,0.5,1.3,0.5c0.5,0,1-0.2,1.3-0.5C5.2-79.3,5.4-79.8,5.4-80.4 M6.2-80.5c0,0.8-0.2,1.5-0.7,2 c-0.5,0.5-1.1,0.8-1.9,0.8c-0.8,0-1.4-0.3-1.9-0.8c-0.4-0.5-0.7-1.1-0.7-1.9c0-0.9,0.3-1.6,0.8-2.1c0.5-0.5,1.1-0.7,1.9-0.7 c0.8,0,1.4,0.2,1.8,0.7C6-82,6.2-81.3,6.2-80.5"></path> <path d="M10.4-79.2c0,0.4-0.2,0.8-0.5,1.1c-0.3,0.3-0.8,0.5-1.4,0.5c-0.5,0-0.9-0.1-1.3-0.3v-0.9c0.4,0.3,0.9,0.5,1.4,0.5 c0.7,0,1-0.2,1-0.7c0-0.2-0.1-0.4-0.2-0.5c-0.1-0.1-0.4-0.3-0.9-0.5c-0.4-0.2-0.7-0.4-0.9-0.6c-0.2-0.2-0.3-0.6-0.3-0.9 c0-0.4,0.2-0.8,0.5-1.1C8-83,8.5-83.2,9-83.2c0.4,0,0.8,0.1,1.1,0.2v0.8c-0.3-0.2-0.7-0.4-1.2-0.4c-0.3,0-0.5,0.1-0.7,0.2 C8.1-82.1,8-81.9,8-81.7c0,0.2,0.1,0.4,0.2,0.5c0.1,0.1,0.4,0.3,0.8,0.4c0.4,0.2,0.8,0.4,1,0.6C10.2-79.9,10.4-79.6,10.4-79.2"></path> <path d="M15.5-80.4c0-0.7-0.2-1.2-0.5-1.5c-0.3-0.3-0.7-0.5-1.2-0.5c-0.5,0-0.9,0.2-1.2,0.5c-0.3,0.4-0.5,0.9-0.5,1.5 c0,0.6,0.2,1.1,0.5,1.5c0.3,0.4,0.7,0.5,1.3,0.5c0.5,0,1-0.2,1.3-0.5C15.3-79.3,15.5-79.8,15.5-80.4 M16.3-80.5 c0,0.8-0.2,1.5-0.7,2c-0.5,0.5-1.1,0.8-1.9,0.8c-0.8,0-1.4-0.3-1.9-0.8c-0.4-0.5-0.7-1.1-0.7-1.9c0-0.9,0.3-1.6,0.8-2.1 c0.5-0.5,1.1-0.7,1.9-0.7c0.8,0,1.4,0.2,1.8,0.7C16.1-82,16.3-81.3,16.3-80.5"></path> <path d="M20-84.8c-0.2-0.1-0.3-0.1-0.6-0.1c-0.6,0-0.9,0.4-0.9,1.1v0.8h1.2v0.7h-1.2v4.5h-0.8v-4.5h-0.9V-83h0.9v-0.8 c0-0.6,0.2-1,0.5-1.3c0.3-0.3,0.7-0.4,1.1-0.4c0.3,0,0.5,0,0.6,0.1V-84.8L20-84.8z"></path> <path d="M23.3-77.9c-0.2,0.1-0.5,0.2-0.8,0.2c-0.9,0-1.4-0.5-1.4-1.5v-3.1h-0.9V-83h0.9v-1.3c0.3-0.1,0.5-0.2,0.8-0.3v1.5h1.3v0.7 H22v2.9c0,0.3,0.1,0.6,0.2,0.7c0.1,0.1,0.3,0.2,0.6,0.2c0.2,0,0.4-0.1,0.5-0.2V-77.9L23.3-77.9z"></path> </g> <g transform="translate(0.000000, 160.405063)"> <path d="M5-101.3c0,0.4-0.1,0.8-0.4,1.1c-0.3,0.3-0.6,0.4-1.1,0.4c-0.4,0-0.8-0.1-1-0.4c-0.3-0.3-0.4-0.7-0.4-1.1 c0-0.4,0.1-0.8,0.4-1.1c0.3-0.3,0.6-0.4,1-0.4c0.4,0,0.8,0.1,1.1,0.4C4.8-102,5-101.7,5-101.3"></path> <path d="M23.6-100.1h-2.7l-9.9-15.2c-0.2-0.4-0.4-0.8-0.6-1.2h-0.1c0.1,0.4,0.1,1.3,0.1,2.6v13.8H8.2v-19.1h2.9l9.6,15 c0.4,0.6,0.6,1,0.8,1.3h0.1c-0.1-0.5-0.1-1.5-0.1-2.8v-13.5h2.2L23.6-100.1L23.6-100.1z"></path> <path d="M38-100.1H27.9v-19.1h9.7v2h-7.4v6.4H37v2h-6.9v6.7H38V-100.1L38-100.1z"></path> <path d="M53.3-117.2h-5.5v17.1h-2.2v-17.1h-5.5v-2h13.2V-117.2L53.3-117.2z"></path> </g> <g transform="translate(0.810127, 0.000000)"> <linearGradient id="SVGID_1_" gradientUnits="userSpaceOnUse" x1="-520.5281" y1="1236.5985" x2="-520.5281" y2="1236.2471" gradientTransform="matrix(45.6076 0 0 -81.335 23767.4824 100582.4688)"> <stop offset="0" style="stop-color:#0994DC"></stop> <stop offset="0.35" style="stop-color:#66CEF5"></stop> <stop offset="0.35" style="stop-color:#66CEF5"></stop> <stop offset="0.8462" style="stop-color:#127BCA"></stop> <stop offset="0.8462" style="stop-color:#127BCA"></stop> <stop offset="1" style="stop-color:#127BCA"></stop> </linearGradient> <path class="st0" d="M22.1,8.2c2.2,6.6,3,18.4,9.3,18.4l0,0c0.5,0,1,0,1.5-0.1l0,0c-5.7-1.3-6.4-13-9.9-19l0,0 C22.6,7.7,22.3,8,22.1,8.2"></path> <linearGradient id="SVGID_00000126319057092801340090000006046369904423782789_" gradientUnits="userSpaceOnUse" x1="-521.0641" y1="1236.9331" x2="-521.0641" y2="1236.5818" gradientTransform="matrix(47.8692 0 0 -83.4083 24971.4297 103173.4688)"> <stop offset="0" style="stop-color:#0E76BC"></stop> <stop offset="0.36" style="stop-color:#36AEE8"></stop> <stop offset="0.36" style="stop-color:#36AEE8"></stop> <stop offset="0.8462" style="stop-color:#00ADEF"></stop> <stop offset="0.8462" style="stop-color:#00ADEF"></stop> <stop offset="1" style="stop-color:#00ADEF"></stop> </linearGradient> <path style="fill:url(#SVGID_00000126319057092801340090000006046369904423782789_);" d="M22.9,7.5c3.5,6,4.2,17.7,9.9,19l0,0 c0.5-0.1,0.9-0.2,1.4-0.4l0,0C29,23.6,27.6,12.3,23.6,6.8l0,0C23.4,7,23.1,7.2,22.9,7.5"></path> <path class="st2" d="M27.9,3.9c-0.5,0-1,0-1.5,0.1c-1.3,0.2-2.6,0.8-3.9,1.6c0.4,0.4,0.7,0.8,1,1.2c1.3-1.1,2.7-1.9,4-2.4 c0.5-0.2,1-0.3,1.5-0.4C28.7,3.9,28.3,3.9,27.9,3.9"></path> <linearGradient id="SVGID_00000054224079846853047300000002652212101080112060_" gradientUnits="userSpaceOnUse" x1="-520.9929" y1="1236.6949" x2="-520.9929" y2="1236.9708" gradientTransform="matrix(45.4522 0 0 -84.5 23714.707 104526.7031)"> <stop offset="0" style="stop-color:#1C63B7"></stop> <stop offset="0.5" style="stop-color:#33BDF2"></stop> <stop offset="1" style="stop-color:#33BDF2;stop-opacity:0.4196"></stop> </linearGradient> <path style="fill:url(#SVGID_00000054224079846853047300000002652212101080112060_);" d="M38.2,23.8c0.5-0.4,1.1-0.9,1.6-1.4 c-2.2-6.6-3-18.5-9.3-18.5c-0.5,0-0.9,0-1.4,0.1C34.9,5.5,35.6,18.1,38.2,23.8"></path> <path class="st4" d="M29.1,4c-0.4-0.1-0.7-0.1-1.1-0.1l2.5,0C30,3.9,29.5,3.9,29.1,4"></path> <path class="st5" d="M38.1,25.2c-0.2-0.2-0.5-0.5-0.7-0.8c-1.1,0.8-2.1,1.3-3.2,1.7c0.4,0.2,0.8,0.3,1.2,0.4c0.3,0.1,0.7,0.1,1,0.1 c1.2,0,2.1-0.1,2.9-0.5C38.9,25.9,38.5,25.6,38.1,25.2"></path> <linearGradient id="SVGID_00000019657032355906331930000009931151969021985700_" gradientUnits="userSpaceOnUse" x1="-520.791" y1="1237.3473" x2="-520.791" y2="1236.9958" gradientTransform="matrix(45.0105 0 0 -86.5982 23473.9688 107152.1328)"> <stop offset="0" style="stop-color:#166AB8"></stop> <stop offset="0.4" style="stop-color:#36AEE8"></stop> <stop offset="0.4" style="stop-color:#36AEE8"></stop> <stop offset="0.8462" style="stop-color:#0798DD"></stop> <stop offset="0.8462" style="stop-color:#0798DD"></stop> <stop offset="1" style="stop-color:#0798DD"></stop> </linearGradient> <path style="fill:url(#SVGID_00000019657032355906331930000009931151969021985700_);" d="M27.6,4.4c5.2,2.7,5.6,15,9.8,20l0,0 c0.3-0.2,0.6-0.4,0.8-0.6l0,0C35.6,18.1,34.9,5.5,29.1,4l0,0C28.6,4.1,28.1,4.2,27.6,4.4"></path> <linearGradient id="SVGID_00000183215148352187353690000007859072620355244455_" gradientUnits="userSpaceOnUse" x1="-522.834" y1="1238.1776" x2="-522.834" y2="1237.8263" gradientTransform="matrix(58.3509 0 0 -92.0822 30538.3203 114014.3516)"> <stop offset="0" style="stop-color:#124379"></stop> <stop offset="0.39" style="stop-color:#1487CB"></stop> <stop offset="0.39" style="stop-color:#1487CB"></stop> <stop offset="0.7802" style="stop-color:#165197"></stop> <stop offset="0.7802" style="stop-color:#165197"></stop> <stop offset="1" style="stop-color:#165197"></stop> </linearGradient> <path style="fill:url(#SVGID_00000183215148352187353690000007859072620355244455_);" d="M23.6,6.8c4,5.4,5.4,16.8,10.6,19.3l0,0 c1.1-0.4,2.1-0.9,3.2-1.7l0,0c-4.1-5-4.6-17.3-9.8-20l0,0C26.3,4.9,24.9,5.7,23.6,6.8"></path> <linearGradient id="SVGID_00000145017091380838044000000004591746015660758205_" gradientUnits="userSpaceOnUse" x1="-506.1724" y1="1212.7772" x2="-505.9368" y2="1212.7772" gradientTransform="matrix(19.4176 0 0 -30.9219 9846.1416 37511.4805)"> <stop offset="0" style="stop-color:#33BDF2;stop-opacity:0.698"></stop> <stop offset="1" style="stop-color:#1DACD8"></stop> </linearGradient> <path style="fill:url(#SVGID_00000145017091380838044000000004591746015660758205_);" d="M19.5,8.1c-0.6,1.4-1.3,3.3-2,5.7 c1.5-2.2,3.1-4,4.6-5.5c-0.2-0.6-0.4-1.2-0.7-1.8C20.8,7,20.1,7.5,19.5,8.1"></path> <path class="st9" d="M21.9,6.1c-0.2,0.1-0.4,0.3-0.6,0.4c0.2,0.5,0.5,1.1,0.7,1.8c0.3-0.3,0.5-0.5,0.8-0.8 C22.6,7,22.3,6.5,21.9,6.1"></path> <path class="st10" d="M22.6,5.6c-0.2,0.1-0.4,0.3-0.7,0.4c0.3,0.4,0.7,0.9,0.9,1.4c0.2-0.2,0.5-0.4,0.7-0.6C23.3,6.4,23,6,22.6,5.6 "></path> <linearGradient id="SVGID_00000093153115781696726320000016316587839810101389_" gradientUnits="userSpaceOnUse" x1="-525.6737" y1="1238.7341" x2="-525.6737" y2="1238.9644" gradientTransform="matrix(79.1425 0 0 -98.6787 41654.9688 122262.0312)"> <stop offset="0" style="stop-color:#136AB4"></stop> <stop offset="0.6" style="stop-color:#59CAF5;stop-opacity:0.549"></stop> <stop offset="1" style="stop-color:#59CAF5;stop-opacity:0.2353"></stop> </linearGradient> <path style="fill:url(#SVGID_00000093153115781696726320000016316587839810101389_);" d="M58,3.4C55,14.7,48.9,23.8,43.8,26.1h0 c-0.1,0-0.2,0.1-0.3,0.1c0,0,0,0,0,0c0,0-0.1,0-0.1,0c0,0,0,0,0,0c0,0-0.1,0-0.1,0c0,0,0,0-0.1,0c0,0,0,0-0.1,0c0,0,0,0-0.1,0 c0,0,0,0-0.1,0c0,0-0.1,0-0.1,0c0,0,0,0,0,0c0,0,0,0-0.1,0c0,0,0,0-0.1,0c0,0-0.1,0-0.1,0c0,0-0.1,0-0.1,0c0.2,0.1,0.5,0.1,0.7,0.1 c4.9,0,9.8-8.7,17.9-23.2L58,3.4L58,3.4z"></path> <linearGradient id="SVGID_00000152257146030909405140000006424606829402759044_" gradientUnits="userSpaceOnUse" x1="-523.4364" y1="1238.9144" x2="-523.2007" y2="1238.9144" gradientTransform="matrix(72.0226 0 0 -99.1613 37700.4922 122867.8828)"> <stop offset="0" style="stop-color:#05A1E6;stop-opacity:0.2471"></stop> <stop offset="1" style="stop-color:#05A1E6"></stop> </linearGradient> <path style="fill:url(#SVGID_00000152257146030909405140000006424606829402759044_);" d="M16.4,4.3C16.4,4.3,16.4,4.3,16.4,4.3 C16.4,4.3,16.4,4.3,16.4,4.3L16.4,4.3c0.1,0,0.1,0,0.1,0c0,0,0,0,0,0c0,0,0,0,0,0c0,0,0.1,0,0.1,0h0c0.1,0,0.1,0,0.2-0.1 c0,0,0,0,0,0c0,0,0.1,0,0.1,0c0,0,0,0,0,0c0,0,0.1,0,0.1,0c0,0,0,0,0,0c0.1,0,0.2,0,0.3-0.1c0,0,0,0,0,0c0,0,0.1,0,0.1,0 c0,0,0,0,0,0c0,0,0.1,0,0.1,0h0c0.1,0,0.1,0,0.2,0h0c0,0,0,0,0.1,0c0,0,0,0,0,0c0,0,0,0,0.1,0c0,0,0,0,0,0c0.1,0,0.1,0,0.2,0 c-0.2,0-0.3,0-0.5,0c-5.5,0-13,10.2-16.5,23.4h0.7c1.1-1.9,2.1-3.8,3-5.5C7.3,12.4,12.1,6,16.4,4.3"></path> <path class="st13" d="M19.5,8.1c0.6-0.6,1.2-1.1,1.9-1.6c-0.1-0.3-0.3-0.6-0.4-0.9C20.4,6.2,20,7,19.5,8.1"></path> <path class="st13" d="M20,4.4c0.4,0.3,0.7,0.7,1,1.2c0.1-0.1,0.2-0.2,0.3-0.3C20.8,4.9,20.4,4.6,20,4.4C19.9,4.4,19.9,4.4,20,4.4 C20,4.4,20,4.4,20,4.4"></path> <linearGradient id="SVGID_00000032621335341277999890000009420467228515770807_" gradientUnits="userSpaceOnUse" x1="-520.1047" y1="1234.6517" x2="-520.1047" y2="1234.9668" gradientTransform="matrix(49.0511 0 0 -73.8222 25522.3672 91170.6797)"> <stop offset="0" style="stop-color:#318ED5"></stop> <stop offset="1" style="stop-color:#38A7E4"></stop> </linearGradient> <path style="fill:url(#SVGID_00000032621335341277999890000009420467228515770807_);" d="M4.9,21.7c5-9.6,7.4-15.7,11.6-17.4l0,0 C12.1,6,7.3,12.4,4.9,21.7"></path> <path class="st15" d="M21.2,5.3c-0.1,0.1-0.2,0.2-0.3,0.3c0.2,0.3,0.3,0.5,0.4,0.9c0.2-0.1,0.4-0.3,0.6-0.4 C21.7,5.8,21.5,5.5,21.2,5.3"></path> <linearGradient id="SVGID_00000140702976595383130000000010236436238974223273_" gradientUnits="userSpaceOnUse" x1="-519.4374" y1="1230.5736" x2="-519.4374" y2="1230.9694" gradientTransform="matrix(45.6036 0 0 -57.1283 23700.3223 70326.6641)"> <stop offset="0" style="stop-color:#05A1E6"></stop> <stop offset="1" style="stop-color:#05A1E6;stop-opacity:0.549"></stop> </linearGradient> <path style="fill:url(#SVGID_00000140702976595383130000000010236436238974223273_);" d="M7.1,27.2L7.1,27.2 C7.1,27.2,7.1,27.2,7.1,27.2l-0.1,0c0,0-0.1,0-0.1,0h0c-0.1,0-0.1,0-0.2,0h0c5.1-0.1,7.4-2.7,8.5-6.4c0.9-2.8,1.6-5.1,2.2-7.1 c-2.1,3-4.3,6.5-6.4,10.5C10.1,26.2,8.5,27,7.1,27.2"></path> <linearGradient id="SVGID_00000016072718552534570010000006452195899530243225_" gradientUnits="userSpaceOnUse" x1="-520.9442" y1="1236.2987" x2="-520.9442" y2="1236.5343" gradientTransform="matrix(52.5191 0 0 -81.0936 27372.8594 100283.0859)"> <stop offset="0" style="stop-color:#1959A6"></stop> <stop offset="0.5" style="stop-color:#05A1E6"></stop> <stop offset="0.5" style="stop-color:#05A1E6"></stop> <stop offset="0.9176" style="stop-color:#7EC5EA"></stop> <stop offset="1" style="stop-color:#7EC5EA"></stop> </linearGradient> <path style="fill:url(#SVGID_00000016072718552534570010000006452195899530243225_);" d="M7.1,27.2L7.1,27.2c1.3-0.2,2.9-1,4-2.9 l0,0c2.1-4,4.3-7.5,6.4-10.5l0,0c0.8-2.4,1.4-4.3,2-5.7l0,0C15.3,12.1,11.1,18.8,7.1,27.2"></path> <path class="st18" d="M4.9,21.7c-0.9,1.7-1.9,3.6-3,5.5h1.9C4.1,25.3,4.4,23.5,4.9,21.7"></path> <linearGradient id="SVGID_00000114768528620580831700000011248295142858727820_" gradientUnits="userSpaceOnUse" x1="-523.4765" y1="1238.7917" x2="-523.5268" y2="1239.0011" gradientTransform="matrix(72.6768 0 0 -99.0047 38058.6719 122672.1484)"> <stop offset="0" style="stop-color:#165096"></stop> <stop offset="1" style="stop-color:#0D82CA"></stop> </linearGradient> <path style="fill:url(#SVGID_00000114768528620580831700000011248295142858727820_);" d="M18,3.9C18,3.9,18,3.9,18,3.9L18,3.9 c-0.1,0-0.1,0-0.1,0l0,0c0,0,0,0,0,0l0,0c0,0-0.1,0-0.1,0l0,0c0,0,0,0,0,0l0,0c-0.1,0-0.1,0-0.2,0l0,0h0l0,0c0,0-0.1,0-0.1,0l0,0 c0,0,0,0,0,0l0,0c0,0-0.1,0-0.1,0l0,0c0,0,0,0,0,0l0,0c-0.1,0-0.2,0-0.3,0.1l0,0c0,0,0,0,0,0l0,0c0,0-0.1,0-0.1,0l0,0c0,0,0,0,0,0 l0,0c0,0-0.1,0-0.1,0l0,0c0,0,0,0,0,0l0,0c-0.1,0-0.1,0-0.2,0.1l0,0l0,0l0,0c0,0-0.1,0-0.1,0l0,0c0,0,0,0,0,0l0,0c0,0-0.1,0-0.1,0 l0,0c0,0,0,0,0,0l0,0C12.3,6,9.9,12.1,4.9,21.7l0,0c-0.4,1.7-0.8,3.6-1.1,5.5l0,0h0.3c0.8,0,1,0,1.8,0l0,0h0h0.1h0h0h0h0h0h0h0.1 h0.1h0.1h0h0.2l0,0c0.1,0,0.1,0,0.2,0l0,0h0l0,0c0,0,0.1,0,0.1,0l0,0h0l0,0c0,0,0.1,0,0.1,0l0,0c3.9-8.4,8.2-15.1,12.4-19.1l0,0 C20,7,20.4,6.2,20.9,5.6l0,0c-0.3-0.5-0.6-0.9-1-1.2l0,0c0,0,0,0,0,0l0,0c0,0,0,0-0.1,0l0,0c0,0,0,0-0.1,0l0,0c0,0,0,0-0.1,0l0,0 c0,0,0,0-0.1,0l0,0c0,0,0,0-0.1,0l0,0c0,0-0.1,0-0.1,0l0,0c0,0,0,0,0,0l0,0c0,0-0.1,0-0.1,0l0,0c0,0,0,0,0,0l0,0c0,0-0.1,0-0.1,0 l0,0h0l0,0c0,0-0.1,0-0.1,0l0,0c0,0,0,0,0,0l0,0c0,0-0.1,0-0.1,0l0,0c0,0,0,0,0,0l0,0c-0.1,0-0.2,0-0.3-0.1l0,0c0,0,0,0,0,0l0,0 c0,0-0.1,0-0.1,0l0,0c0,0,0,0,0,0l0,0c0,0-0.1,0-0.1,0l0,0h0l0,0c0,0-0.1,0-0.1,0l0,0C18.2,3.9,18.1,3.9,18,3.9"></path> <linearGradient id="SVGID_00000013882119567593868350000012402070874755209602_" gradientUnits="userSpaceOnUse" x1="-518.7265" y1="1230.0809" x2="-518.7265" y2="1230.2701" gradientTransform="matrix(32.7663 0 0 -57.2261 17044.7031 70407.0234)"> <stop offset="0" style="stop-color:#05A1E6"></stop> <stop offset="0.8736" style="stop-color:#0495D6"></stop> <stop offset="1" style="stop-color:#0495D6"></stop> </linearGradient> <path style="fill:url(#SVGID_00000013882119567593868350000012402070874755209602_);" d="M46.5,9.6c-1,3.1-1.7,5.6-2.4,7.7l0,0 c2.6-3.6,5.2-8.2,7.7-13.5l0,0C48.9,4.8,47.4,6.9,46.5,9.6"></path> <linearGradient id="SVGID_00000072988557290407413760000009846185937613417140_" gradientUnits="userSpaceOnUse" x1="-524.1338" y1="1238.6726" x2="-524.2068" y2="1238.4133" gradientTransform="matrix(60.2691 0 0 -96.3231 31642.1348 119315.1875)"> <stop offset="0" style="stop-color:#38A7E4;stop-opacity:0.3294"></stop> <stop offset="0.9615" style="stop-color:#0E88D3"></stop> <stop offset="0.9615" style="stop-color:#0E88D3"></stop> <stop offset="1" style="stop-color:#0E88D3"></stop> </linearGradient> <path style="fill:url(#SVGID_00000072988557290407413760000009846185937613417140_);" d="M44.2,25.9c-0.1,0.1-0.3,0.1-0.4,0.2 C48.9,23.8,55,14.7,58,3.4h-0.6C50.6,15.4,48.5,23.5,44.2,25.9"></path> <path class="st22" d="M40.8,24.9c1.1-1.4,2-3.7,3.3-7.5c-1.4,2-2.9,3.7-4.3,5c0,0,0,0,0,0C40.1,23.4,40.4,24.2,40.8,24.9"></path> <path class="st5" d="M40.8,24.9c-0.4,0.5-0.8,0.8-1.2,1.1c-0.1,0.1-0.2,0.1-0.3,0.2c0.5,0.3,1,0.4,1.6,0.5l0,0c0.1,0,0.2,0,0.3,0h0 c0,0,0.1,0,0.1,0h0h0.1h0.1h0h0.1c0,0,0,0,0,0c0,0,0.1,0,0.1,0h0h0c0,0,0.1,0,0.1,0h0c0,0,0,0,0,0c0,0,0.1,0,0.1,0h0 c0,0,0.1,0,0.1,0h0h0c0.1,0,0.2,0,0.2-0.1C41.9,26.3,41.3,25.7,40.8,24.9"></path> <path class="st23" d="M31.4,26.6c0.5,0,1,0,1.5-0.1c0.5-0.1,0.9-0.2,1.4-0.4c0.4,0.2,0.8,0.3,1.2,0.4c0.3,0.1,0.7,0.1,1,0.1H31.4 L31.4,26.6z"></path> <path class="st23" d="M36.4,26.6c1.2,0,2.1-0.1,2.9-0.5c0.5,0.3,1,0.4,1.6,0.5l0,0c0.1,0,0.2,0,0.3,0h0c0,0,0.1,0,0.1,0h0h0.1 L36.4,26.6L36.4,26.6z"></path> <path class="st24" d="M41.4,26.6h0.1h0h0.1c0,0,0,0,0,0c0,0,0.1,0,0.1,0h0h0c0,0,0.1,0,0.1,0h0c0,0,0,0,0,0c0,0,0.1,0,0.1,0 c0,0,0,0,0,0c0,0,0.1,0,0.1,0h0h0c0.1,0,0.2,0,0.2-0.1l0,0c0.2,0.1,0.5,0.1,0.7,0.1L41.4,26.6L41.4,26.6z"></path> <path class="st25" d="M39.8,22.4L39.8,22.4c-0.5,0.5-1.1,1-1.6,1.4c-0.3,0.2-0.6,0.4-0.8,0.6c0.2,0.3,0.5,0.5,0.7,0.8 c0.4,0.4,0.8,0.7,1.2,0.9c0.1,0,0.2-0.1,0.3-0.2c0.4-0.3,0.9-0.6,1.2-1.1C40.4,24.2,40.1,23.4,39.8,22.4"></path> <linearGradient id="SVGID_00000144308086013725543480000004774667477393821360_" gradientUnits="userSpaceOnUse" x1="-524.9625" y1="1238.8882" x2="-524.9625" y2="1238.6475" gradientTransform="matrix(70.2816 0 0 -98.1105 36944.2852 121551.1953)"> <stop offset="0" style="stop-color:#168CD4"></stop> <stop offset="0.5" style="stop-color:#1C87CC"></stop> <stop offset="1" style="stop-color:#154B8D"></stop> </linearGradient> <path style="fill:url(#SVGID_00000144308086013725543480000004774667477393821360_);" d="M55.5,3.4H53h-0.2l0,0h-0.2l0,0h0 c-0.2,0-0.3,0-0.5,0l0,0c-0.1,0.2-0.1,0.3-0.2,0.5l0,0c-2.5,5.3-5.1,9.8-7.7,13.5l0,0c-1.2,3.8-2.2,6.1-3.3,7.5l0,0 c0.5,0.8,1,1.4,1.7,1.6l0,0c0,0,0,0,0.1,0l0,0h0l0,0c0,0,0,0,0,0l0,0c0,0,0.1,0,0.1,0l0,0c0,0,0,0,0,0l0,0c0,0,0.1,0,0.1,0l0,0 c0,0,0,0,0,0l0,0c0,0,0.1,0,0.1,0l0,0c0,0,0,0,0.1,0l0,0c0,0,0,0,0.1,0l0,0c0,0,0,0,0.1,0l0,0c0,0,0,0,0.1,0l0,0c0,0,0.1,0,0.1,0 l0,0c0,0,0,0,0,0l0,0c0,0,0.1,0,0.1,0l0,0c0,0,0,0,0,0l0,0c0.1,0,0.2-0.1,0.3-0.1l0,0h0l0,0c0.1-0.1,0.3-0.1,0.4-0.2l0,0 c4.3-2.4,6.5-10.5,13.2-22.5l0,0L55.5,3.4L55.5,3.4z"></path> <path class="st27" d="M18.2,3.9C18.2,3.9,18.2,3.9,18.2,3.9c0.1,0,0.1,0,0.1,0h0c0,0,0.1,0,0.1,0c0,0,0,0,0,0c0,0,0.1,0,0.1,0 c0,0,0,0,0,0C18.8,4,18.9,4,19,4c0,0,0,0,0,0c0,0,0.1,0,0.1,0c0,0,0,0,0,0c0,0,0.1,0,0.1,0c0,0,0,0,0,0c0,0,0.1,0,0.1,0 c0,0,0,0,0,0c0,0,0.1,0,0.1,0c0,0,0,0,0,0c0,0,0.1,0,0.1,0c0,0,0,0,0.1,0c0,0,0,0,0.1,0c0,0,0,0,0.1,0c0,0,0,0,0.1,0 c0.5,0.2,0.9,0.5,1.3,0.9c0.2-0.2,0.3-0.3,0.5-0.4c-0.9-0.6-1.9-1-3.1-1C18.5,3.9,18.4,3.9,18.2,3.9"></path> <path class="st28" d="M21.2,5.3c0.2,0.2,0.5,0.5,0.7,0.8c0.2-0.2,0.4-0.3,0.7-0.4c-0.3-0.3-0.6-0.5-0.9-0.8 C21.5,5,21.4,5.1,21.2,5.3"></path> <linearGradient id="SVGID_00000157285205880504207910000000742747116197327254_" gradientUnits="userSpaceOnUse" x1="-516.0538" y1="1529.0386" x2="-515.8862" y2="1529.5697" gradientTransform="matrix(32.4594 0 0 4.2491 16769.8027 -6494.2705)"> <stop offset="0" style="stop-color:#97D6EE"></stop> <stop offset="0.7033" style="stop-color:#55C1EA"></stop> <stop offset="1" style="stop-color:#55C1EA"></stop> </linearGradient> <path style="fill:url(#SVGID_00000157285205880504207910000000742747116197327254_);" d="M18.2,3.9c0.1,0,0.3,0,0.4,0 c1.2,0,2.2,0.4,3.1,1c0.9-0.7,2.1-1,3.7-1h-7.6C17.9,3.9,18.1,3.9,18.2,3.9"></path> <linearGradient id="SVGID_00000073722742149369575580000006051387924535776695_" gradientUnits="userSpaceOnUse" x1="-513.2374" y1="1408.7888" x2="-513.0751" y2="1408.5287" gradientTransform="matrix(26.4722 0 0 7.484 13608.6602 -10537.8984)"> <stop offset="0" style="stop-color:#7ACCEC"></stop> <stop offset="1" style="stop-color:#3FB7ED"></stop> </linearGradient> <path style="fill:url(#SVGID_00000073722742149369575580000006051387924535776695_);" d="M25.4,3.9c-1.6,0-2.7,0.3-3.7,1 c0.3,0.2,0.6,0.5,0.9,0.8c1.3-0.8,2.6-1.4,3.9-1.6c0.5-0.1,1-0.1,1.5-0.1H25.4L25.4,3.9z"></path> <linearGradient id="SVGID_00000105408188911985760480000011995424692759259575_" gradientUnits="userSpaceOnUse" x1="-522.8896" y1="1236.2488" x2="-522.8896" y2="1235.9623" gradientTransform="matrix(52.0449 0 0 -80.6355 27259.6387 99690.1953)"> <stop offset="0" style="stop-color:#1DA7E7"></stop> <stop offset="1" style="stop-color:#37ABE7;stop-opacity:0"></stop> </linearGradient> <path style="fill:url(#SVGID_00000105408188911985760480000011995424692759259575_);" d="M44.1,17.4c0.7-2.1,1.5-4.6,2.4-7.7 c0.9-2.8,2.4-4.9,5.3-5.8C51.9,3.7,52,3.6,52,3.4c-4.7,0.3-6.9,2.7-8,6.2c-1.9,6.2-3.1,10.2-4.2,12.8C41.2,21,42.7,19.3,44.1,17.4"></path> <path d="M51,25h-0.5v1.7h-0.2V25h-0.5v-0.2H51V25L51,25z"></path> <path d="M53.2,26.6H53v-1.2c0-0.1,0-0.2,0-0.4l0,0c0,0.1,0,0.1-0.1,0.2l-0.6,1.4h-0.1l-0.6-1.4c0,0,0-0.1-0.1-0.2h0 c0,0.1,0,0.2,0,0.4v1.2h-0.2v-1.9h0.3l0.6,1.3c0,0.1,0.1,0.2,0.1,0.2h0c0-0.1,0.1-0.2,0.1-0.2l0.6-1.3h0.3L53.2,26.6L53.2,26.6z"></path> </g> </svg> 