<?xml version="1.0" encoding="UTF-8"?> <svg xmlns="http://www.w3.org/2000/svg" xmlns:xlink="http://www.w3.org/1999/xlink" version="1.1" id="Layer_1" x="0px" y="0px" viewBox="0 0 64 64" style="enable-background:new 0 0 64 64;" xml:space="preserve"> <style type="text/css"> .st0{fill:#FFFFFF;} .st1{fill:url(#SVGID_1_);} .st2{fill:url(#SVGID_00000052798601799261450570000005577783867353301670_);} .st3{fill:#14559A;} .st4{fill:url(#SVGID_00000069398274222826890280000001695478263160669843_);} .st5{fill:#3092C4;} .st6{fill:#1969BC;} .st7{fill:url(#SVGID_00000142142942526726062150000007867228039905838513_);} .st8{fill:url(#SVGID_00000123438059464024775370000005889141407781001151_);} .st9{fill:url(#SVGID_00000177480417769345546990000014279264552096401084_);} .st10{fill:#2B74B1;} .st11{fill:#125A9E;} .st12{fill:url(#SVGID_00000084527020674926138570000004849592177072860816_);} .st13{fill:url(#SVGID_00000092433929536779622050000002215616360719034784_);} .st14{fill:#0D82CA;} .st15{fill:url(#SVGID_00000050661312970811868750000017037219635219680146_);} .st16{fill:#127BCA;} .st17{fill:url(#SVGID_00000051375432939549812010000004047908354546557346_);} .st18{fill:url(#SVGID_00000065767111615238022160000007232338339829133714_);} .st19{fill:#05A1E6;} .st20{fill:url(#SVGID_00000013192023370567497340000000413280087215616407_);} .st21{fill:url(#SVGID_00000121265851933333498320000000140806921212975528_);} .st22{fill:url(#SVGID_00000051376565407821627020000013793513904655968949_);} .st23{fill:#079AE1;} .st24{fill:#1E5CB3;} .st25{fill:#1D60B5;} .st26{fill:#175FAB;} .st27{fill:url(#SVGID_00000143601119363863086460000007774508752978215816_);} .st28{fill:#7DCBEC;} .st29{fill:#5EC5ED;} .st30{fill:url(#SVGID_00000121979693842820928230000003856302872525660586_);} .st31{fill:url(#SVGID_00000092414502911251190210000015446808156427753648_);} .st32{fill:url(#SVGID_00000080909512928118633180000007885010339870593171_);} </style> <g transform="translate(26.734177, 116.658228)"> <path class="st0" d="M25.6-83.1c0-0.1,0-0.2-0.1-0.2c-0.1-0.1-0.2-0.1-0.3-0.1H25v0.6h0.3C25.5-82.8,25.6-82.9,25.6-83.1L25.6-83.1 z M25.9-81.9h-0.3l-0.2-0.4c-0.1-0.2-0.2-0.3-0.3-0.3H25v0.7h-0.2v-1.8h0.5c0.2,0,0.4,0,0.5,0.1c0.1,0.1,0.1,0.2,0.1,0.3 c0,0.1,0,0.2-0.1,0.3c-0.1,0.1-0.2,0.1-0.3,0.2v0c0.1,0,0.2,0.1,0.3,0.3L25.9-81.9L25.9-81.9z M26.5-82.7c0-0.3-0.1-0.6-0.4-0.9 c-0.2-0.2-0.5-0.3-0.9-0.3c-0.4,0-0.6,0.1-0.9,0.4c-0.2,0.2-0.3,0.5-0.3,0.9c0,0.4,0.1,0.6,0.4,0.9c0.2,0.2,0.5,0.3,0.9,0.3 c0.3,0,0.6-0.1,0.9-0.4C26.4-82.1,26.5-82.4,26.5-82.7L26.5-82.7z M26.6-82.7c0,0.4-0.1,0.7-0.4,1c-0.3,0.3-0.6,0.4-1,0.4 c-0.4,0-0.7-0.1-1-0.4c-0.3-0.3-0.4-0.6-0.4-1c0-0.4,0.1-0.7,0.4-1c0.3-0.3,0.6-0.4,1-0.4c0.4,0,0.7,0.1,1,0.4 C26.5-83.5,26.6-83.1,26.6-82.7L26.6-82.7z"></path> <path class="st0" d="M-11-77.8h-0.9v-4.9c0-0.4,0-0.9,0.1-1.4h0c-0.1,0.3-0.2,0.6-0.2,0.7l-2.5,5.6H-15l-2.5-5.6 c-0.1-0.2-0.1-0.4-0.2-0.7h0c0,0.3,0,0.8,0,1.4v4.9h-0.8v-7.3h1.1l2.2,5.1c0.2,0.4,0.3,0.7,0.3,0.9h0c0.1-0.4,0.3-0.7,0.3-0.9 l2.3-5.1h1.1L-11-77.8L-11-77.8z"></path> <path class="st0" d="M-8.4-77.8h-0.8V-83h0.8V-77.8L-8.4-77.8z M-8.3-84.9c0,0.2-0.1,0.3-0.2,0.4c-0.1,0.1-0.2,0.2-0.4,0.2 c-0.1,0-0.3-0.1-0.4-0.2c-0.1-0.1-0.2-0.2-0.2-0.4c0-0.2,0.1-0.3,0.2-0.4c0.1-0.1,0.2-0.2,0.4-0.2c0.2,0,0.3,0.1,0.4,0.2 C-8.3-85.2-8.3-85-8.3-84.9L-8.3-84.9z"></path> <path class="st0" d="M-3.2-78.1c-0.4,0.2-0.9,0.4-1.4,0.4c-0.7,0-1.3-0.2-1.8-0.7c-0.4-0.5-0.7-1.1-0.7-1.9c0-0.9,0.2-1.5,0.7-2.1 c0.5-0.5,1.1-0.8,2-0.8c0.5,0,0.9,0.1,1.2,0.3v0.9c-0.4-0.3-0.8-0.4-1.2-0.4c-0.5,0-1,0.2-1.3,0.6c-0.3,0.4-0.5,0.9-0.5,1.5 c0,0.6,0.2,1.1,0.5,1.4c0.3,0.4,0.7,0.5,1.3,0.5c0.5,0,0.9-0.1,1.3-0.4V-78.1L-3.2-78.1z"></path> <path class="st0" d="M0.7-82.2c-0.1-0.1-0.4-0.2-0.6-0.2c-0.3,0-0.6,0.2-0.9,0.5c-0.3,0.3-0.4,0.8-0.4,1.4v2.7H-2V-83h0.8v1.1h0 c0.1-0.4,0.3-0.7,0.6-0.9c0.2-0.2,0.5-0.3,0.8-0.3c0.2,0,0.4,0,0.5,0.1L0.7-82.2L0.7-82.2z"></path> <path class="st0" d="M5.4-80.4c0-0.7-0.2-1.2-0.5-1.5c-0.3-0.3-0.7-0.5-1.2-0.5c-0.5,0-0.9,0.2-1.2,0.5C2.1-81.6,2-81.1,2-80.4 c0,0.6,0.2,1.1,0.5,1.5c0.3,0.4,0.7,0.5,1.3,0.5c0.5,0,1-0.2,1.3-0.5C5.2-79.3,5.4-79.8,5.4-80.4 M6.2-80.5c0,0.8-0.2,1.5-0.7,2 c-0.5,0.5-1.1,0.8-1.9,0.8c-0.8,0-1.4-0.3-1.9-0.8c-0.4-0.5-0.7-1.1-0.7-1.9c0-0.9,0.3-1.6,0.8-2.1c0.5-0.5,1.1-0.7,1.9-0.7 c0.8,0,1.4,0.2,1.8,0.7C6-82,6.2-81.3,6.2-80.5"></path> <path class="st0" d="M10.4-79.2c0,0.4-0.2,0.8-0.5,1.1c-0.3,0.3-0.8,0.5-1.4,0.5c-0.5,0-0.9-0.1-1.3-0.3v-0.9 c0.4,0.3,0.9,0.5,1.4,0.5c0.7,0,1-0.2,1-0.7c0-0.2-0.1-0.4-0.2-0.5c-0.1-0.1-0.4-0.3-0.9-0.5c-0.4-0.2-0.7-0.4-0.9-0.6 c-0.2-0.2-0.3-0.6-0.3-0.9c0-0.4,0.2-0.8,0.5-1.1C8-83,8.5-83.2,9-83.2c0.4,0,0.8,0.1,1.1,0.2v0.8c-0.3-0.2-0.7-0.4-1.2-0.4 c-0.3,0-0.5,0.1-0.7,0.2C8.1-82.1,8-81.9,8-81.7c0,0.2,0.1,0.4,0.2,0.5c0.1,0.1,0.4,0.3,0.8,0.4c0.4,0.2,0.8,0.4,1,0.6 C10.2-79.9,10.4-79.6,10.4-79.2"></path> <path class="st0" d="M15.5-80.4c0-0.7-0.2-1.2-0.5-1.5c-0.3-0.3-0.7-0.5-1.2-0.5c-0.5,0-0.9,0.2-1.2,0.5c-0.3,0.4-0.5,0.9-0.5,1.5 c0,0.6,0.2,1.1,0.5,1.5c0.3,0.4,0.7,0.5,1.3,0.5c0.5,0,1-0.2,1.3-0.5C15.3-79.3,15.5-79.8,15.5-80.4 M16.3-80.5 c0,0.8-0.2,1.5-0.7,2c-0.5,0.5-1.1,0.8-1.9,0.8c-0.8,0-1.4-0.3-1.9-0.8c-0.4-0.5-0.7-1.1-0.7-1.9c0-0.9,0.3-1.6,0.8-2.1 c0.5-0.5,1.1-0.7,1.9-0.7c0.8,0,1.4,0.2,1.8,0.7C16.1-82,16.3-81.3,16.3-80.5"></path> <path class="st0" d="M20-84.8c-0.2-0.1-0.3-0.1-0.6-0.1c-0.6,0-0.9,0.4-0.9,1.1v0.8h1.2v0.7h-1.2v4.5h-0.8v-4.5h-0.9V-83h0.9v-0.8 c0-0.6,0.2-1,0.5-1.3c0.3-0.3,0.7-0.4,1.1-0.4c0.3,0,0.5,0,0.6,0.1V-84.8L20-84.8z"></path> <path class="st0" d="M23.3-77.9c-0.2,0.1-0.5,0.2-0.8,0.2c-0.9,0-1.4-0.5-1.4-1.5v-3.1h-0.9V-83h0.9v-1.3c0.3-0.1,0.5-0.2,0.8-0.3 v1.5h1.3v0.7H22v2.9c0,0.3,0.1,0.6,0.2,0.7c0.1,0.1,0.3,0.2,0.6,0.2c0.2,0,0.4-0.1,0.5-0.2V-77.9L23.3-77.9z"></path> </g> <g transform="translate(0.000000, 160.405063)"> <path class="st0" d="M5-101.3c0,0.4-0.1,0.8-0.4,1.1c-0.3,0.3-0.6,0.4-1.1,0.4c-0.4,0-0.8-0.1-1-0.4c-0.3-0.3-0.4-0.7-0.4-1.1 c0-0.4,0.1-0.8,0.4-1.1c0.3-0.3,0.6-0.4,1-0.4c0.4,0,0.8,0.1,1.1,0.4C4.8-102,5-101.7,5-101.3"></path> <path class="st0" d="M23.6-100.1h-2.7l-9.9-15.2c-0.2-0.4-0.4-0.8-0.6-1.2h-0.1c0.1,0.4,0.1,1.3,0.1,2.6v13.8H8.2v-19.1h2.9l9.6,15 c0.4,0.6,0.6,1,0.8,1.3h0.1c-0.1-0.5-0.1-1.5-0.1-2.8v-13.5h2.2L23.6-100.1L23.6-100.1z"></path> <path class="st0" d="M38-100.1H27.9v-19.1h9.7v2h-7.4v6.4H37v2h-6.9v6.7H38V-100.1L38-100.1z"></path> <path class="st0" d="M53.3-117.2h-5.5v17.1h-2.2v-17.1h-5.5v-2h13.2V-117.2L53.3-117.2z"></path> </g> <linearGradient id="SVGID_1_" gradientUnits="userSpaceOnUse" x1="-519.718" y1="1236.5985" x2="-519.718" y2="1236.2471" gradientTransform="matrix(45.6076 0 0 -81.335 23731.3438 100582.4688)"> <stop offset="0" style="stop-color:#0994DC"></stop> <stop offset="0.35" style="stop-color:#66CEF5"></stop> <stop offset="0.35" style="stop-color:#66CEF5"></stop> <stop offset="0.8462" style="stop-color:#127BCA"></stop> <stop offset="0.8462" style="stop-color:#127BCA"></stop> <stop offset="1" style="stop-color:#127BCA"></stop> </linearGradient> <path class="st1" d="M22.9,8.2c2.2,6.6,3,18.4,9.3,18.4l0,0c0.5,0,1,0,1.5-0.1l0,0c-5.7-1.3-6.4-13-9.9-19l0,0 C23.4,7.7,23.1,8,22.9,8.2"></path> <linearGradient id="SVGID_00000106852186557566784460000008811638190730727829_" gradientUnits="userSpaceOnUse" x1="-520.254" y1="1236.9331" x2="-520.254" y2="1236.5818" gradientTransform="matrix(47.8692 0 0 -83.4083 24933.459 103173.4688)"> <stop offset="0" style="stop-color:#0E76BC"></stop> <stop offset="0.36" style="stop-color:#36AEE8"></stop> <stop offset="0.36" style="stop-color:#36AEE8"></stop> <stop offset="0.8462" style="stop-color:#00ADEF"></stop> <stop offset="0.8462" style="stop-color:#00ADEF"></stop> <stop offset="1" style="stop-color:#00ADEF"></stop> </linearGradient> <path style="fill:url(#SVGID_00000106852186557566784460000008811638190730727829_);" d="M23.7,7.5c3.5,6,4.2,17.7,9.9,19l0,0 c0.5-0.1,0.9-0.2,1.4-0.4l0,0c-5.2-2.5-6.6-13.8-10.6-19.3l0,0C24.2,7,23.9,7.2,23.7,7.5"></path> <path class="st3" d="M28.7,3.9c-0.5,0-1,0-1.5,0.1c-1.3,0.2-2.6,0.8-3.9,1.6c0.4,0.4,0.7,0.8,1,1.2c1.3-1.1,2.7-1.9,4-2.4 c0.5-0.2,1-0.3,1.5-0.4C29.5,3.9,29.1,3.9,28.7,3.9"></path> <linearGradient id="SVGID_00000073681148546558514110000012756751902229075840_" gradientUnits="userSpaceOnUse" x1="-520.1828" y1="1236.6949" x2="-520.1828" y2="1236.9708" gradientTransform="matrix(45.4522 0 0 -84.5 23678.6953 104526.7031)"> <stop offset="0" style="stop-color:#1C63B7"></stop> <stop offset="0.5" style="stop-color:#33BDF2"></stop> <stop offset="1" style="stop-color:#33BDF2;stop-opacity:0.4196"></stop> </linearGradient> <path style="fill:url(#SVGID_00000073681148546558514110000012756751902229075840_);" d="M39,23.8c0.5-0.4,1.1-0.9,1.6-1.4 c-2.2-6.6-3-18.5-9.3-18.5c-0.5,0-0.9,0-1.4,0.1C35.7,5.5,36.4,18.1,39,23.8"></path> <path class="st5" d="M29.9,4c-0.4-0.1-0.7-0.1-1.1-0.1l2.5,0C30.8,3.9,30.3,3.9,29.9,4"></path> <path class="st6" d="M38.9,25.2c-0.2-0.2-0.5-0.5-0.7-0.8c-1.1,0.8-2.1,1.3-3.2,1.7c0.4,0.2,0.8,0.3,1.2,0.4c0.3,0.1,0.7,0.1,1,0.1 c1.2,0,2.1-0.1,2.9-0.5C39.7,25.9,39.3,25.6,38.9,25.2"></path> <linearGradient id="SVGID_00000042700673706725175290000002515633605435472563_" gradientUnits="userSpaceOnUse" x1="-519.9809" y1="1237.3473" x2="-519.9809" y2="1236.9958" gradientTransform="matrix(45.0105 0 0 -86.5982 23438.3145 107152.1328)"> <stop offset="0" style="stop-color:#166AB8"></stop> <stop offset="0.4" style="stop-color:#36AEE8"></stop> <stop offset="0.4" style="stop-color:#36AEE8"></stop> <stop offset="0.8462" style="stop-color:#0798DD"></stop> <stop offset="0.8462" style="stop-color:#0798DD"></stop> <stop offset="1" style="stop-color:#0798DD"></stop> </linearGradient> <path style="fill:url(#SVGID_00000042700673706725175290000002515633605435472563_);" d="M28.4,4.4c5.2,2.7,5.6,15,9.8,20l0,0 c0.3-0.2,0.6-0.4,0.8-0.6l0,0C36.4,18.1,35.7,5.5,29.9,4l0,0C29.4,4.1,28.9,4.2,28.4,4.4"></path> <linearGradient id="SVGID_00000067208081854339057820000011686552306769968787_" gradientUnits="userSpaceOnUse" x1="-522.0238" y1="1238.1776" x2="-522.0238" y2="1237.8263" gradientTransform="matrix(58.3509 0 0 -92.0822 30491.8574 114014.3516)"> <stop offset="0" style="stop-color:#124379"></stop> <stop offset="0.39" style="stop-color:#1487CB"></stop> <stop offset="0.39" style="stop-color:#1487CB"></stop> <stop offset="0.7802" style="stop-color:#165197"></stop> <stop offset="0.7802" style="stop-color:#165197"></stop> <stop offset="1" style="stop-color:#165197"></stop> </linearGradient> <path style="fill:url(#SVGID_00000067208081854339057820000011686552306769968787_);" d="M24.4,6.8c4,5.4,5.4,16.8,10.6,19.3l0,0 c1.1-0.4,2.1-0.9,3.2-1.7l0,0c-4.1-5-4.6-17.3-9.8-20l0,0C27.1,4.9,25.8,5.7,24.4,6.8"></path> <linearGradient id="SVGID_00000080902430535820441930000015784296922659588781_" gradientUnits="userSpaceOnUse" x1="-505.3622" y1="1212.7772" x2="-505.1266" y2="1212.7772" gradientTransform="matrix(19.4176 0 0 -30.9219 9831.2207 37511.4805)"> <stop offset="0" style="stop-color:#33BDF2;stop-opacity:0.698"></stop> <stop offset="1" style="stop-color:#1DACD8"></stop> </linearGradient> <path style="fill:url(#SVGID_00000080902430535820441930000015784296922659588781_);" d="M20.3,8.1c-0.6,1.4-1.3,3.3-2,5.7 c1.5-2.2,3.1-4,4.6-5.5c-0.2-0.6-0.4-1.2-0.7-1.8C21.6,7,21,7.5,20.3,8.1"></path> <path class="st10" d="M22.8,6.1c-0.2,0.1-0.4,0.3-0.6,0.4c0.2,0.5,0.5,1.1,0.7,1.8c0.3-0.3,0.5-0.5,0.8-0.8 C23.4,7,23.1,6.5,22.8,6.1"></path> <path class="st11" d="M23.4,5.6c-0.2,0.1-0.4,0.3-0.7,0.4c0.3,0.4,0.7,0.9,0.9,1.4c0.2-0.2,0.5-0.4,0.7-0.6 C24.1,6.4,23.8,6,23.4,5.6"></path> <linearGradient id="SVGID_00000141446480626100099790000012529416545243080587_" gradientUnits="userSpaceOnUse" x1="-524.8636" y1="1238.7341" x2="-524.8636" y2="1238.9644" gradientTransform="matrix(79.1425 0 0 -98.6787 41591.6641 122262.0312)"> <stop offset="0" style="stop-color:#136AB4"></stop> <stop offset="0.6" style="stop-color:#59CAF5;stop-opacity:0.549"></stop> <stop offset="1" style="stop-color:#59CAF5;stop-opacity:0.2353"></stop> </linearGradient> <path style="fill:url(#SVGID_00000141446480626100099790000012529416545243080587_);" d="M58.8,3.4c-2.9,11.3-9.1,20.4-14.2,22.7h0 c-0.1,0-0.2,0.1-0.3,0.1c0,0,0,0,0,0c0,0-0.1,0-0.1,0c0,0,0,0,0,0c0,0-0.1,0-0.1,0c0,0,0,0-0.1,0c0,0,0,0-0.1,0c0,0,0,0-0.1,0 c0,0,0,0-0.1,0c0,0-0.1,0-0.1,0c0,0,0,0,0,0c0,0,0,0-0.1,0c0,0,0,0-0.1,0c0,0-0.1,0-0.1,0c0,0-0.1,0-0.1,0c0.2,0.1,0.5,0.1,0.7,0.1 c4.9,0,9.8-8.7,17.9-23.2L58.8,3.4L58.8,3.4z"></path> <linearGradient id="SVGID_00000061447140725315798480000005975973597087767178_" gradientUnits="userSpaceOnUse" x1="-522.6262" y1="1238.9144" x2="-522.3906" y2="1238.9144" gradientTransform="matrix(72.0226 0 0 -99.1613 37642.957 122867.8828)"> <stop offset="0" style="stop-color:#05A1E6;stop-opacity:0.2471"></stop> <stop offset="1" style="stop-color:#05A1E6"></stop> </linearGradient> <path style="fill:url(#SVGID_00000061447140725315798480000005975973597087767178_);" d="M17.2,4.3C17.2,4.3,17.2,4.3,17.2,4.3 C17.3,4.3,17.3,4.3,17.2,4.3L17.2,4.3c0.1,0,0.1,0,0.1,0c0,0,0,0,0,0c0,0,0,0,0,0c0,0,0.1,0,0.1,0h0c0.1,0,0.1,0,0.2-0.1 c0,0,0,0,0,0c0,0,0.1,0,0.1,0c0,0,0,0,0,0c0,0,0.1,0,0.1,0c0,0,0,0,0,0c0.1,0,0.2,0,0.3-0.1c0,0,0,0,0,0c0,0,0.1,0,0.1,0 c0,0,0,0,0,0c0,0,0.1,0,0.1,0h0c0.1,0,0.1,0,0.2,0h0c0,0,0,0,0.1,0c0,0,0,0,0,0c0,0,0,0,0.1,0c0,0,0,0,0,0c0.1,0,0.1,0,0.2,0 c-0.2,0-0.3,0-0.5,0C13,3.9,5.5,14,2.1,27.2h0.7c1.1-1.9,2.1-3.8,3-5.5C8.1,12.4,12.9,6,17.2,4.3"></path> <path class="st14" d="M20.3,8.1C21,7.5,21.6,7,22.2,6.5c-0.1-0.3-0.3-0.6-0.4-0.9C21.3,6.2,20.8,7,20.3,8.1"></path> <path class="st14" d="M20.8,4.4c0.4,0.3,0.7,0.7,1,1.2c0.1-0.1,0.2-0.2,0.3-0.3C21.6,4.9,21.2,4.6,20.8,4.4 C20.7,4.4,20.7,4.4,20.8,4.4C20.8,4.4,20.8,4.4,20.8,4.4"></path> <linearGradient id="SVGID_00000129909504520816343960000008923980998236909247_" gradientUnits="userSpaceOnUse" x1="-519.2946" y1="1234.6517" x2="-519.2946" y2="1234.9668" gradientTransform="matrix(49.0511 0 0 -73.8222 25483.4395 91170.6797)"> <stop offset="0" style="stop-color:#318ED5"></stop> <stop offset="1" style="stop-color:#38A7E4"></stop> </linearGradient> <path style="fill:url(#SVGID_00000129909504520816343960000008923980998236909247_);" d="M5.7,21.7c5-9.6,7.4-15.7,11.6-17.4l0,0 C12.9,6,8.1,12.4,5.7,21.7"></path> <path class="st16" d="M22,5.3c-0.1,0.1-0.2,0.2-0.3,0.3c0.2,0.3,0.3,0.5,0.4,0.9c0.2-0.1,0.4-0.3,0.6-0.4C22.5,5.8,22.3,5.5,22,5.3"></path> <linearGradient id="SVGID_00000126307680849109317920000017590934506111683243_" gradientUnits="userSpaceOnUse" x1="-518.6273" y1="1230.5736" x2="-518.6273" y2="1230.9694" gradientTransform="matrix(45.6036 0 0 -57.1283 23664.1875 70326.6641)"> <stop offset="0" style="stop-color:#05A1E6"></stop> <stop offset="1" style="stop-color:#05A1E6;stop-opacity:0.549"></stop> </linearGradient> <path style="fill:url(#SVGID_00000126307680849109317920000017590934506111683243_);" d="M8,27.2L8,27.2C7.9,27.2,7.9,27.2,8,27.2 l-0.1,0c0,0-0.1,0-0.1,0h0c-0.1,0-0.1,0-0.2,0h0c5.1-0.1,7.4-2.7,8.5-6.4c0.9-2.8,1.6-5.1,2.2-7.1c-2.1,3-4.3,6.5-6.4,10.5 C10.9,26.2,9.3,27,8,27.2"></path> <linearGradient id="SVGID_00000183952587042286222420000010759983180984705168_" gradientUnits="userSpaceOnUse" x1="-520.134" y1="1236.2987" x2="-520.134" y2="1236.5343" gradientTransform="matrix(52.5191 0 0 -81.0936 27331.123 100283.0859)"> <stop offset="0" style="stop-color:#1959A6"></stop> <stop offset="0.5" style="stop-color:#05A1E6"></stop> <stop offset="0.5" style="stop-color:#05A1E6"></stop> <stop offset="0.9176" style="stop-color:#7EC5EA"></stop> <stop offset="1" style="stop-color:#7EC5EA"></stop> </linearGradient> <path style="fill:url(#SVGID_00000183952587042286222420000010759983180984705168_);" d="M8,27.2L8,27.2c1.3-0.2,2.9-1,4-2.9l0,0 c2.1-4,4.3-7.5,6.4-10.5l0,0c0.8-2.4,1.4-4.3,2-5.7l0,0C16.1,12.1,11.9,18.8,8,27.2"></path> <path class="st19" d="M5.7,21.7c-0.9,1.7-1.9,3.6-3,5.5h1.9C4.9,25.3,5.2,23.5,5.7,21.7"></path> <linearGradient id="SVGID_00000111880463000898160370000009982812412347969721_" gradientUnits="userSpaceOnUse" x1="-522.6664" y1="1238.7917" x2="-522.7167" y2="1239.0011" gradientTransform="matrix(72.6768 0 0 -99.0047 38000.6016 122672.1484)"> <stop offset="0" style="stop-color:#165096"></stop> <stop offset="1" style="stop-color:#0D82CA"></stop> </linearGradient> <path style="fill:url(#SVGID_00000111880463000898160370000009982812412347969721_);" d="M18.9,3.9C18.8,3.9,18.8,3.9,18.9,3.9 L18.9,3.9c-0.1,0-0.1,0-0.1,0l0,0c0,0,0,0,0,0l0,0c0,0-0.1,0-0.1,0l0,0c0,0,0,0,0,0l0,0c-0.1,0-0.1,0-0.2,0l0,0h0l0,0 c0,0-0.1,0-0.1,0l0,0c0,0,0,0,0,0l0,0c0,0-0.1,0-0.1,0l0,0c0,0,0,0,0,0l0,0c-0.1,0-0.2,0-0.3,0.1l0,0c0,0,0,0,0,0l0,0 c0,0-0.1,0-0.1,0l0,0c0,0,0,0,0,0l0,0c0,0-0.1,0-0.1,0l0,0c0,0,0,0,0,0l0,0c-0.1,0-0.1,0-0.2,0.1l0,0l0,0l0,0c0,0-0.1,0-0.1,0l0,0 c0,0,0,0,0,0l0,0c0,0-0.1,0-0.1,0l0,0c0,0,0,0,0,0l0,0C13.1,6,10.7,12.1,5.7,21.7l0,0c-0.4,1.7-0.8,3.6-1.1,5.5l0,0h0.3 c0.8,0,1,0,1.8,0l0,0h0h0.1h0h0h0h0h0h0h0.1h0.1h0.1h0h0.2l0,0c0.1,0,0.1,0,0.2,0l0,0h0l0,0c0,0,0.1,0,0.1,0l0,0h0l0,0 c0,0,0.1,0,0.1,0l0,0c3.9-8.4,8.2-15.1,12.4-19.1l0,0c0.5-1.1,0.9-1.9,1.4-2.5l0,0c-0.3-0.5-0.6-0.9-1-1.2l0,0c0,0,0,0,0,0l0,0 c0,0,0,0-0.1,0l0,0c0,0,0,0-0.1,0l0,0c0,0,0,0-0.1,0l0,0c0,0,0,0-0.1,0l0,0c0,0,0,0-0.1,0l0,0c0,0-0.1,0-0.1,0l0,0c0,0,0,0,0,0l0,0 c0,0-0.1,0-0.1,0l0,0c0,0,0,0,0,0l0,0c0,0-0.1,0-0.1,0l0,0h0l0,0c0,0-0.1,0-0.1,0l0,0c0,0,0,0,0,0l0,0c0,0-0.1,0-0.1,0l0,0 c0,0,0,0,0,0l0,0c-0.1,0-0.2,0-0.3-0.1l0,0c0,0,0,0,0,0l0,0c0,0-0.1,0-0.1,0l0,0c0,0,0,0,0,0l0,0c0,0-0.1,0-0.1,0l0,0h0l0,0 c0,0-0.1,0-0.1,0l0,0C19,3.9,18.9,3.9,18.9,3.9"></path> <linearGradient id="SVGID_00000093168720948722012490000004162603821555733656_" gradientUnits="userSpaceOnUse" x1="-517.9164" y1="1230.0809" x2="-517.9164" y2="1230.2701" gradientTransform="matrix(32.7663 0 0 -57.2261 17018.9688 70407.0234)"> <stop offset="0" style="stop-color:#05A1E6"></stop> <stop offset="0.8736" style="stop-color:#0495D6"></stop> <stop offset="1" style="stop-color:#0495D6"></stop> </linearGradient> <path style="fill:url(#SVGID_00000093168720948722012490000004162603821555733656_);" d="M47.3,9.6c-1,3.1-1.7,5.6-2.4,7.7l0,0 c2.6-3.6,5.2-8.2,7.7-13.5l0,0C49.7,4.8,48.2,6.9,47.3,9.6"></path> <linearGradient id="SVGID_00000183237185223882254430000018003449740066126526_" gradientUnits="userSpaceOnUse" x1="-523.3237" y1="1238.6726" x2="-523.3967" y2="1238.4133" gradientTransform="matrix(60.2691 0 0 -96.3231 31594.1191 119315.1875)"> <stop offset="0" style="stop-color:#38A7E4;stop-opacity:0.3294"></stop> <stop offset="0.9615" style="stop-color:#0E88D3"></stop> <stop offset="0.9615" style="stop-color:#0E88D3"></stop> <stop offset="1" style="stop-color:#0E88D3"></stop> </linearGradient> <path style="fill:url(#SVGID_00000183237185223882254430000018003449740066126526_);" d="M45,25.9c-0.1,0.1-0.3,0.1-0.4,0.2 c5.1-2.3,11.3-11.4,14.2-22.7h-0.6C51.5,15.4,49.3,23.5,45,25.9"></path> <path class="st23" d="M41.6,24.9c1.1-1.4,2-3.7,3.3-7.5c-1.4,2-2.9,3.7-4.3,5c0,0,0,0,0,0C40.9,23.4,41.2,24.2,41.6,24.9"></path> <path class="st6" d="M41.6,24.9c-0.4,0.5-0.8,0.8-1.2,1.1c-0.1,0.1-0.2,0.1-0.3,0.2c0.5,0.3,1,0.4,1.6,0.5l0,0c0.1,0,0.2,0,0.3,0h0 c0,0,0.1,0,0.1,0h0h0.1h0.1h0h0.1c0,0,0,0,0,0c0,0,0.1,0,0.1,0h0h0c0,0,0.1,0,0.1,0h0c0,0,0,0,0,0c0,0,0.1,0,0.1,0h0 c0,0,0.1,0,0.1,0h0h0c0.1,0,0.2,0,0.2-0.1C42.7,26.3,42.1,25.7,41.6,24.9"></path> <path class="st24" d="M32.2,26.6c0.5,0,1,0,1.5-0.1c0.5-0.1,0.9-0.2,1.4-0.4c0.4,0.2,0.8,0.3,1.2,0.4c0.3,0.1,0.7,0.1,1,0.1H32.2 L32.2,26.6z"></path> <path class="st24" d="M37.2,26.6c1.2,0,2.1-0.1,2.9-0.5c0.5,0.3,1,0.4,1.6,0.5l0,0c0.1,0,0.2,0,0.3,0h0c0,0,0.1,0,0.1,0h0h0.1 L37.2,26.6L37.2,26.6z"></path> <path class="st25" d="M42.2,26.6h0.1h0h0.1c0,0,0,0,0,0c0,0,0.1,0,0.1,0h0h0c0,0,0.1,0,0.1,0h0c0,0,0,0,0,0c0,0,0.1,0,0.1,0 c0,0,0,0,0,0c0,0,0.1,0,0.1,0h0h0c0.1,0,0.2,0,0.2-0.1l0,0c0.2,0.1,0.5,0.1,0.7,0.1L42.2,26.6L42.2,26.6z"></path> <path class="st26" d="M40.6,22.4L40.6,22.4c-0.5,0.5-1.1,1-1.6,1.4c-0.3,0.2-0.6,0.4-0.8,0.6c0.2,0.3,0.5,0.5,0.7,0.8 c0.4,0.4,0.8,0.7,1.2,0.9c0.1,0,0.2-0.1,0.3-0.2c0.4-0.3,0.9-0.6,1.2-1.1C41.2,24.2,40.9,23.4,40.6,22.4"></path> <linearGradient id="SVGID_00000177468937020551148480000007684630437730619051_" gradientUnits="userSpaceOnUse" x1="-524.1524" y1="1238.8882" x2="-524.1524" y2="1238.6475" gradientTransform="matrix(70.2816 0 0 -98.1105 36888.1562 121551.1953)"> <stop offset="0" style="stop-color:#168CD4"></stop> <stop offset="0.5" style="stop-color:#1C87CC"></stop> <stop offset="1" style="stop-color:#154B8D"></stop> </linearGradient> <path style="fill:url(#SVGID_00000177468937020551148480000007684630437730619051_);" d="M56.3,3.4h-2.5h-0.2l0,0h-0.2l0,0h0 c-0.2,0-0.3,0-0.5,0l0,0c-0.1,0.2-0.1,0.3-0.2,0.5l0,0c-2.5,5.3-5.1,9.8-7.7,13.5l0,0c-1.2,3.8-2.2,6.1-3.3,7.5l0,0 c0.5,0.8,1,1.4,1.7,1.6l0,0c0,0,0,0,0.1,0l0,0h0l0,0c0,0,0,0,0,0l0,0c0,0,0.1,0,0.1,0l0,0c0,0,0,0,0,0l0,0c0,0,0.1,0,0.1,0l0,0 c0,0,0,0,0,0l0,0c0,0,0.1,0,0.1,0l0,0c0,0,0,0,0.1,0l0,0c0,0,0,0,0.1,0l0,0c0,0,0,0,0.1,0l0,0c0,0,0,0,0.1,0l0,0c0,0,0.1,0,0.1,0 l0,0c0,0,0,0,0,0l0,0c0,0,0.1,0,0.1,0l0,0c0,0,0,0,0,0l0,0c0.1,0,0.2-0.1,0.3-0.1l0,0h0l0,0c0.1-0.1,0.3-0.1,0.4-0.2l0,0 c4.3-2.4,6.5-10.5,13.2-22.5l0,0L56.3,3.4L56.3,3.4z"></path> <path class="st28" d="M19,3.9C19,3.9,19.1,3.9,19,3.9c0.1,0,0.1,0,0.1,0h0c0,0,0.1,0,0.1,0c0,0,0,0,0,0c0,0,0.1,0,0.1,0c0,0,0,0,0,0 c0.1,0,0.2,0,0.3,0.1c0,0,0,0,0,0c0,0,0.1,0,0.1,0c0,0,0,0,0,0c0,0,0.1,0,0.1,0c0,0,0,0,0,0c0,0,0.1,0,0.1,0c0,0,0,0,0,0 c0,0,0.1,0,0.1,0c0,0,0,0,0,0c0,0,0.1,0,0.1,0c0,0,0,0,0.1,0c0,0,0,0,0.1,0c0,0,0,0,0.1,0c0,0,0,0,0.1,0c0.5,0.2,0.9,0.5,1.3,0.9 c0.2-0.2,0.3-0.3,0.5-0.4c-0.9-0.6-1.9-1-3.1-1C19.3,3.9,19.2,3.9,19,3.9"></path> <path class="st29" d="M22,5.3c0.2,0.2,0.5,0.5,0.7,0.8c0.2-0.2,0.4-0.3,0.7-0.4c-0.3-0.3-0.6-0.5-0.9-0.8C22.3,5,22.2,5.1,22,5.3"></path> <linearGradient id="SVGID_00000021084061573541351920000012682794572395154623_" gradientUnits="userSpaceOnUse" x1="-515.2437" y1="1529.0386" x2="-515.0761" y2="1529.5697" gradientTransform="matrix(32.4594 0 0 4.2491 16744.3164 -6494.2705)"> <stop offset="0" style="stop-color:#97D6EE"></stop> <stop offset="0.7033" style="stop-color:#55C1EA"></stop> <stop offset="1" style="stop-color:#55C1EA"></stop> </linearGradient> <path style="fill:url(#SVGID_00000021084061573541351920000012682794572395154623_);" d="M19,3.9c0.1,0,0.3,0,0.4,0 c1.2,0,2.2,0.4,3.1,1c0.9-0.7,2.1-1,3.7-1h-7.6C18.7,3.9,18.9,3.9,19,3.9"></path> <linearGradient id="SVGID_00000115499817262783686110000011304478166251829921_" gradientUnits="userSpaceOnUse" x1="-512.4273" y1="1408.7888" x2="-512.265" y2="1408.5287" gradientTransform="matrix(26.4722 0 0 7.484 13588.0244 -10537.8984)"> <stop offset="0" style="stop-color:#7ACCEC"></stop> <stop offset="1" style="stop-color:#3FB7ED"></stop> </linearGradient> <path style="fill:url(#SVGID_00000115499817262783686110000011304478166251829921_);" d="M26.2,3.9c-1.6,0-2.7,0.3-3.7,1 c0.3,0.2,0.6,0.5,0.9,0.8C24.7,4.8,26,4.3,27.3,4c0.5-0.1,1-0.1,1.5-0.1H26.2L26.2,3.9z"></path> <linearGradient id="SVGID_00000178171843339681214380000008845637154203227542_" gradientUnits="userSpaceOnUse" x1="-522.0795" y1="1236.2488" x2="-522.0795" y2="1235.9623" gradientTransform="matrix(52.0449 0 0 -80.6355 27218.2852 99690.1953)"> <stop offset="0" style="stop-color:#1DA7E7"></stop> <stop offset="1" style="stop-color:#37ABE7;stop-opacity:0"></stop> </linearGradient> <path style="fill:url(#SVGID_00000178171843339681214380000008845637154203227542_);" d="M44.9,17.4c0.7-2.1,1.5-4.6,2.4-7.7 c0.9-2.8,2.4-4.9,5.3-5.8c0.1-0.2,0.1-0.3,0.2-0.5c-4.7,0.3-6.9,2.7-8,6.2c-1.9,6.2-3.1,10.2-4.2,12.8C42,21,43.5,19.3,44.9,17.4"></path> <path class="st0" d="M51.8,25h-0.5v1.7h-0.2V25h-0.5v-0.2h1.3V25L51.8,25z"></path> <path class="st0" d="M54,26.6h-0.2v-1.2c0-0.1,0-0.2,0-0.4l0,0c0,0.1,0,0.1-0.1,0.2l-0.6,1.4H53l-0.6-1.4c0,0,0-0.1-0.1-0.2h0 c0,0.1,0,0.2,0,0.4v1.2h-0.2v-1.9h0.3l0.6,1.3c0,0.1,0.1,0.2,0.1,0.2h0c0-0.1,0.1-0.2,0.1-0.2l0.6-1.3H54L54,26.6L54,26.6z"></path> </svg> 