<?xml version="1.0" encoding="UTF-8"?> <svg xmlns="http://www.w3.org/2000/svg" xmlns:xlink="http://www.w3.org/1999/xlink" version="1.1" id="Layer_1" x="0px" y="0px" viewBox="0 0 180 60" style="enable-background:new 0 0 180 60;" xml:space="preserve"> <style type="text/css"> .st0{fill:#010101;} .st1{fill:#FFFFFF;} .st2{fill:#4A4D50;} </style> <g> <path class="st0" d="M-317.6,37.5l-2.4-5.1h-7.7l-2.4,5.1h-2.2l7.6-16.2h1.9l7.5,16.2H-317.6z M-320.7,30.7l-2.2-5 c-0.3-0.6-0.6-1.4-0.9-2.3c-0.2,0.7-0.5,1.5-0.8,2.3l-2.3,5H-320.7z"></path> <path class="st0" d="M-297.9,25.8c0,1.6-0.5,2.5-1.7,3.4c-1.1,0.9-2.7,1.3-4.8,1.3h-5v6.7h-1.9V21.1h7.3 C-299.9,21.1-297.9,22.6-297.9,25.8z M-309.4,28.9h4.8c1.7,0,2.9-0.3,3.6-0.8c0.7-0.5,1.1-1,1.1-2.2c0-1.1-0.3-1.5-1-2 c-0.7-0.5-1.8-0.8-3.3-0.8h-5.2L-309.4,28.9L-309.4,28.9z"></path> <path class="st0" d="M-276.8,29.5c0,2.6-0.7,4.6-2.3,6.1c-1.5,1.5-3.6,2.2-6.3,2.2c-2.7,0-4.8-0.7-6.3-2.2s-2.2-3.5-2.2-6.2 s0.7-4.7,2.2-6.1s3.6-2.2,6.4-2.2c2.7,0,4.8,0.7,6.3,2.2C-277.6,24.8-276.8,26.9-276.8,29.5z M-291.6,29.5c0,2.2,0.5,3.9,1.6,5 c1.1,1.1,2.6,1.7,4.7,1.7c2.1,0,3.6-0.6,4.7-1.7c1-1.1,1.6-2.8,1.6-5c0-2.2-0.5-3.8-1.6-4.9c-1-1.1-2.6-1.7-4.6-1.7 c-2.1,0-3.6,0.6-4.7,1.7C-291.1,25.6-291.6,27.3-291.6,29.5z"></path> <path class="st0" d="M-223.9,29.5c0,2.6-0.7,4.6-2.3,6.1c-1.5,1.5-3.6,2.2-6.3,2.2c-2.7,0-4.8-0.7-6.3-2.2s-2.2-3.5-2.2-6.2 s0.7-4.7,2.2-6.1s3.6-2.2,6.4-2.2c2.7,0,4.8,0.7,6.3,2.2C-224.6,24.8-223.9,26.9-223.9,29.5z M-238.7,29.5c0,2.2,0.5,3.9,1.6,5 c1.1,1.1,2.6,1.7,4.7,1.7c2.1,0,3.6-0.6,4.7-1.7c1-1.1,1.6-2.8,1.6-5c0-2.2-0.5-3.8-1.6-4.9c-1-1.1-2.6-1.7-4.6-1.7 c-2.1,0-3.6,0.6-4.7,1.7C-238.1,25.6-238.7,27.3-238.7,29.5z"></path> <path class="st0" d="M-271.8,37.5V21.4h1.9v14.5h10.6v1.7H-271.8z"></path> <path class="st0" d="M-256.4,37.5V21.4h1.9v14.5h10.6v1.7H-256.4z"></path> <g> <path class="st0" d="M-354.4,15.4c-1.5-4.9-5.2-8.8-10-10.4c-1.6-0.6-3.4-0.9-5.2-0.9c-1.8,0-3.6,0.3-5.2,0.9 c-4.8,1.7-8.6,5.6-10.1,10.4c-0.4,1.5-0.7,3-0.7,4.6c0,8.8,7.1,15.9,15.9,15.9c8.8,0,15.9-7.1,15.9-15.9 C-353.7,18.4-353.9,16.8-354.4,15.4z M-369.6,33c-7.2,0-13.1-5.9-13.1-13.1c0-3.3,1.2-6.3,3.2-8.6c2.4-2.7,5.9-4.5,9.9-4.5 c3.9,0,7.5,1.8,9.9,4.5c2,2.3,3.2,5.3,3.2,8.6C-356.5,27.2-362.4,33-369.6,33z"></path> </g> <g> <polygon class="st0" points="-384.5,49.3 -387.4,48.2 -369.6,4.1 -351.3,47.6 -354.2,48.7 -369.6,12.2 "></polygon> </g> <g> <path class="st0" d="M-369.6,56.5c-14.6,0-26.5-11.9-26.5-26.5s11.9-26.5,26.5-26.5c14.6,0,26.5,11.9,26.5,26.5 C-343.1,44.7-355,56.5-369.6,56.5z M-369.6,6.2c-13.1,0-23.8,10.7-23.8,23.8s10.7,23.8,23.8,23.8s23.8-10.7,23.8-23.8 S-356.5,6.2-369.6,6.2z"></path> </g> </g> <g> <path class="st0" d="M-129.8,4.1v51.2h-41.9c-14.2,0-25.6-11.4-25.6-25.6s11.4-25.6,25.6-25.6h0.1l0,0 C-171.7,4.1-129.8,4.1-129.8,4.1z"></path> <g> <path class="st0" d="M-48.3,55.8v-1c13.8,0,25.1-11.3,25.1-25.1S-34.4,4.6-48.3,4.6v-1c14.4,0,26.1,11.7,26.1,26.1 S-33.9,55.8-48.3,55.8z"></path> </g> <g> <path class="st1" d="M-180.4,39.8V19.3h11.7c2,0,3.8,0.3,5.2,0.8c1.5,0.6,2.7,1.3,3.5,2.4c0.8,1,1.3,2.3,1.3,3.8s-0.4,2.7-1.3,3.7 c-0.9,1-2.1,1.8-3.6,2.3s-3.3,0.7-5.4,0.7h-6.9v-4.3h5.5c0.9,0,1.6-0.1,2.2-0.2c0.6-0.1,1.1-0.4,1.4-0.8c0.3-0.4,0.5-0.8,0.5-1.4 s-0.1-1-0.5-1.5c-0.3-0.4-0.8-0.7-1.4-0.8c-0.6-0.1-1.3-0.3-2.2-0.3h-2.6v16.1L-180.4,39.8L-180.4,39.8z M-164.6,30.4l6.7,9.4h-8 l-6.6-9.4H-164.6z"></path> <path class="st1" d="M-149.3,24.4l2.9,4.8l3.1-4.8h7.2l-5.5,7.7l16.7,23.8h-7.2l-14.5-20.9l-3.3,4.9h-7.3l5.8-7.7l-5.4-7.7 L-149.3,24.4L-149.3,24.4z"></path> </g> <g> <path class="st0" d="M-108.4,27.9l-3.1,0.4c-0.1-0.3-0.1-0.6-0.3-0.9s-0.4-0.5-0.7-0.7c-0.3-0.1-0.7-0.2-1.3-0.2 c-0.7,0-1.4,0.1-1.9,0.5c-0.5,0.3-0.9,0.7-1,1.3c-0.1,0.4,0,0.7,0.3,1c0.2,0.2,0.7,0.4,1.4,0.6l2.4,0.5c1.3,0.3,2.2,0.7,2.8,1.4 c0.6,0.7,0.7,1.5,0.6,2.6c-0.1,0.9-0.5,1.6-1.2,2.3c-0.6,0.7-1.4,1.2-2.4,1.5c-1,0.4-2.1,0.6-3.2,0.6c-1.8,0-3.2-0.4-4.1-1.1 c-1-0.7-1.4-1.8-1.4-3.1l3.3-0.3c0.1,0.7,0.3,1.1,0.7,1.5c0.4,0.3,1,0.5,1.7,0.5c0.8,0,1.5-0.1,2.1-0.5c0.6-0.4,0.9-0.8,1-1.3 c0.1-0.4,0-0.7-0.3-1c-0.2-0.2-0.7-0.4-1.3-0.6l-2.4-0.5c-1.3-0.3-2.3-0.8-2.8-1.5c-0.6-0.7-0.7-1.5-0.6-2.7 c0.1-0.9,0.5-1.6,1.1-2.2c0.6-0.7,1.3-1.1,2.2-1.5c0.9-0.4,1.9-0.5,3-0.5c1.7,0,3,0.4,3.8,1C-108.9,25.7-108.5,26.7-108.4,27.9z"></path> <path class="st0" d="M-100.8,38.6c-1.4,0-2.6-0.3-3.5-1c-1-0.6-1.6-1.5-2-2.6s-0.4-2.4-0.2-3.9c0.2-1.5,0.7-2.7,1.5-3.8 c0.7-1.1,1.6-1.9,2.7-2.6c1.1-0.6,2.4-0.9,3.8-0.9c1.4,0,2.6,0.3,3.5,1c1,0.6,1.5,1.5,2,2.7c0.4,1.2,0.4,2.4,0.2,3.9 c-0.2,1.5-0.7,2.7-1.5,3.8c-0.7,1.1-1.6,1.9-2.8,2.5C-98.1,38.3-99.4,38.6-100.8,38.6z M-100.5,36c0.8,0,1.5-0.2,2.1-0.7 c0.6-0.4,1.1-1,1.5-1.7c0.4-0.7,0.7-1.5,0.8-2.4c0.1-0.9,0.1-1.6,0-2.4c-0.1-0.7-0.4-1.3-0.8-1.7c-0.4-0.4-1-0.6-1.8-0.6 c-0.8,0-1.5,0.2-2.1,0.7c-0.6,0.4-1.1,1-1.5,1.7c-0.4,0.7-0.7,1.5-0.8,2.4c-0.1,0.9-0.1,1.6,0,2.3c0.1,0.7,0.4,1.3,0.8,1.6 C-101.8,35.8-101.2,36-100.5,36z"></path> <path class="st0" d="M-81,32.4l1.4-8.3h3.4l-2.4,14.3h-3.2l0.4-2.5h-0.1c-0.4,0.8-1.1,1.5-1.9,2c-0.8,0.5-1.8,0.7-2.9,0.7 c-1,0-1.7-0.2-2.4-0.7c-0.7-0.4-1.1-1-1.4-1.8c-0.3-0.8-0.3-1.8-0.1-2.9l1.5-9.1h3.4l-1.4,8.6c-0.1,0.9,0,1.6,0.4,2.1 c0.4,0.5,1,0.8,1.8,0.8c0.5,0,1-0.1,1.5-0.4c0.5-0.2,1-0.6,1.3-1.1C-81.4,33.7-81.2,33.1-81,32.4z"></path> <path class="st0" d="M-75.2,38.4l2.4-14.3h3.2l-0.4,2.4h0.1c0.4-0.8,1-1.5,1.6-1.9c0.7-0.4,1.5-0.7,2.3-0.7c0.2,0,0.4,0,0.6,0 c0.2,0,0.4,0.1,0.6,0.1l-0.5,3.1c-0.1-0.1-0.4-0.1-0.7-0.1c-0.3-0.1-0.6-0.1-0.9-0.1c-0.6,0-1.2,0.1-1.7,0.4 c-0.5,0.3-1,0.7-1.3,1.1c-0.4,0.4-0.6,1-0.7,1.6l-1.4,8.4L-75.2,38.4L-75.2,38.4z"></path> <path class="st0" d="M-59.2,38.6c-1.4,0-2.6-0.3-3.5-1c-0.9-0.6-1.5-1.5-1.9-2.6s-0.4-2.4-0.1-3.8c0.2-1.5,0.7-2.7,1.5-3.8 s1.7-2,2.8-2.6c1.1-0.6,2.4-1,3.8-1c1.2,0,2.1,0.2,2.9,0.7c0.8,0.4,1.5,1,1.8,1.8s0.6,1.7,0.4,2.7h-3.2c0-0.7-0.2-1.3-0.7-1.7 c-0.4-0.4-1-0.7-1.8-0.7c-0.7,0-1.3,0.1-1.9,0.6c-0.6,0.4-1.1,0.9-1.5,1.5s-0.7,1.5-0.8,2.5c-0.1,1-0.1,1.8,0,2.5 c0.1,0.7,0.5,1.3,1,1.6c0.4,0.4,1,0.6,1.8,0.6c0.5,0,1-0.1,1.4-0.3c0.4-0.2,0.8-0.4,1.1-0.8s0.6-0.8,0.7-1.3h3.2 c-0.3,1-0.7,1.9-1.3,2.7c-0.7,0.8-1.5,1.4-2.4,1.8C-56.9,38.4-58,38.6-59.2,38.6z"></path> <path class="st0" d="M-44,38.6c-1.4,0-2.6-0.3-3.5-0.9c-1-0.6-1.6-1.5-2-2.6s-0.4-2.4-0.2-3.9c0.2-1.5,0.7-2.7,1.5-3.9 c0.7-1.1,1.7-2,2.8-2.6s2.4-1,3.7-1c0.9,0,1.7,0.1,2.4,0.4c0.7,0.3,1.3,0.7,1.8,1.3s0.9,1.3,1,2.2c0.2,0.9,0.1,2,0,3.2l-0.1,1 h-11.7l0.4-2.3h8.5c0.1-0.7,0.1-1.3-0.1-1.7c-0.1-0.5-0.5-0.9-1-1.2c-0.4-0.3-1-0.4-1.6-0.4s-1.3,0.1-1.8,0.5 c-0.6,0.4-1,0.8-1.5,1.3c-0.4,0.5-0.7,1.1-0.7,1.7l-0.4,2.1c-0.1,0.9-0.1,1.6,0.1,2.2c0.2,0.6,0.5,1,1,1.3 c0.5,0.3,1.1,0.4,1.8,0.4c0.5,0,1-0.1,1.4-0.2c0.4-0.1,0.8-0.4,1.1-0.6c0.4-0.3,0.6-0.6,0.8-1l3.1,0.4c-0.4,0.8-0.8,1.5-1.5,2.1 s-1.5,1.1-2.4,1.4C-41.9,38.5-42.9,38.6-44,38.6z"></path> </g> </g> <g> <path class="st0" d="M142,35.4c0-3.6,0-7.2,0-10.8c1.1,0,2.2,0,3.3,0c1.1,0,2.2,0,3.3,0c2.4,0,3.7,2,2.8,4.2c0,0.1-0.1,0.2-0.1,0.3 c1,0.8,1.6,1.8,1.5,3.1c-0.1,1.6-1.4,3.1-3.1,3.2C147.2,35.4,144.7,35.4,142,35.4z M144,33.4c1.8,0,3.4,0,5.1,0 c1.1,0,1.7-0.6,1.7-1.5c0-0.9-0.6-1.5-1.7-1.5c-1.3,0-2.6,0-3.9,0c-0.4,0-0.8,0-1.2,0C144,31.5,144,32.4,144,33.4z M144,28.5 c1.6,0,3.2,0,4.8,0c0.6,0,1-0.5,1-1s-0.4-0.9-1.1-0.9c-0.5,0-1.1,0-1.6,0c-1.1,0-2.1,0-3.2,0C144,27.2,144,27.8,144,28.5z"></path> <path class="st0" d="M128.1,24.7c0,0.6,0,1.2,0,1.9c-0.3,0-0.5,0-0.7,0c-2.2,0-4.4,0.1-6.6,0c-1.5-0.1-1.7,0.7-1.5,1.9 c2.3,0,4.5,0,6.8,0c0,0.7,0,1.3,0,1.9c-2.3,0-4.6,0-6.9,0c0,0.8-0.1,1.5,0,2.2c0.1,0.6,0.5,0.8,1.1,0.8c2.3,0,4.6,0,6.9,0 c0.2,0,0.5,0,0.8,0c0,0.7,0,1.3,0,2c-0.4,0-0.8,0-1.2,0c-2.1,0-4.3,0-6.4,0c-2.1,0-3.2-1.2-3.2-3.2c0-1.6,0-3.1,0-4.7 c0-1.6,1.2-2.9,2.8-2.9c2.5,0,5.1,0,7.6,0C127.8,24.6,127.9,24.6,128.1,24.7z"></path> <path class="st0" d="M129.7,35.4c0-3.6,0-7.1,0-10.8c0.5,0,1.1,0,1.6,0c1.4,0,2.8,0,4.2,0c2.7,0.1,4.9,2.5,4.9,5.3 c0.1,2.8-2.1,5.3-4.8,5.5C133.7,35.5,131.7,35.4,129.7,35.4z M131.6,33.5c1.2,0,2.3,0,3.4,0c1.9,0,3.4-1.5,3.4-3.4 c0-1.9-1.5-3.4-3.4-3.5c-1,0-2,0-3,0c-0.2,0-0.3,0.1-0.4,0.1C131.6,28.9,131.6,31.1,131.6,33.5z"></path> <path class="st0" d="M14,29.3c0-1.4,0-2.6,0-3.8c0-0.2,0.2-0.5,0.4-0.6c1.9-1.5,3.7-3.1,5.6-4.6c0.7-0.5,1.4-0.6,2.2-0.3 c0.7,0.3,1.2,0.9,1.2,1.7c0.1,2.5,0,5,0,7.6c-1.2,0-2.3,0-3.5,0c0-0.5,0-1,0-1.5c0-0.6,0.1-1.2,0-1.7c0-0.3-0.2-0.6-0.4-0.7 c-0.2-0.1-0.6,0-0.8,0.2c-1.4,1.1-2.8,2.3-4.2,3.4C14.4,29,14.3,29.1,14,29.3z"></path> <path class="st0" d="M12.8,29.4c-1.5-1.2-2.8-2.3-4.2-3.4c-0.2-0.2-0.4-0.4-0.6-0.5c-0.2-0.1-0.6-0.2-0.8-0.1 c-0.2,0.1-0.4,0.5-0.4,0.7c-0.1,0.9,0,1.9,0,2.9c0,0.1,0,0.2,0,0.4c-1.2,0-2.3,0-3.5,0c0-0.2,0-0.4,0-0.6c0-2.2,0-4.4,0-6.6 c0-0.9,0.4-1.7,1.2-2.1c0.9-0.4,1.7-0.3,2.4,0.4c1.8,1.4,3.5,2.9,5.3,4.3c0.4,0.3,0.6,0.7,0.6,1.3C12.7,27.1,12.8,28.1,12.8,29.4z"></path> <path class="st0" d="M52.7,24.6c0.6,0,1.3,0,1.9,0c0,1.3,0,2.5,0,3.8c2.3,0,4.6,0,6.9,0c0-1.3,0-2.5,0-3.8c0.7,0,1.3,0,1.9,0 c0,3.6,0,7.1,0,10.7c-0.6,0-1.2,0-1.9,0c0-1.6,0-3.2,0-4.8c-2.3,0-4.6,0-6.9,0c0,1.6,0,3.2,0,4.8c-0.7,0-1.3,0-1.9,0 C52.7,31.8,52.7,28.2,52.7,24.6z"></path> <path class="st0" d="M3.2,30.7c1.2,0,2.3,0,3.5,0c0,1,0,2,0,2.9c0,0.4,0,0.9,0.4,1c0.3,0.1,0.7-0.1,1-0.3c1.5-1.2,3-2.4,4.6-3.7 c0,0.9-0.1,1.7,0,2.4c0.2,1.3-0.3,2.1-1.4,2.8c-1.6,1.1-3.1,2.4-4.6,3.7c-0.7,0.6-1.6,0.8-2.4,0.4c-0.9-0.4-1.2-1.2-1.2-2.1 c0-2.2,0-4.3,0-6.5C3.2,31.1,3.2,30.9,3.2,30.7z"></path> <path class="st0" d="M34.1,28.7c1.8-1.4,3.6-2.7,5.4-4.1c0,3.7,0,7.2,0,10.8c-0.6,0-1.3,0-1.9,0c0-2.2,0-4.4,0-6.8 c-1.2,0.9-2.3,1.8-3.5,2.6c-1.1-0.8-2.2-1.7-3.4-2.6c0,2.3,0,4.5,0,6.8c-0.7,0-1.3,0-2,0c0-3.6,0-7.1,0-10.8 C30.6,26,32.3,27.3,34.1,28.7z"></path> <path class="st0" d="M76.3,35.4c0-3.6,0-7.2,0-10.7c0.6,0,1.2,0,1.9,0c0,2.2,0,4.4,0,6.8c1.2-0.9,2.3-1.8,3.5-2.6 c1.1,0.8,2.2,1.7,3.4,2.6c0-2.3,0-4.5,0-6.7c0.7,0,1.3,0,2,0c0,3.6,0,7.1,0,10.7c-1.8-1.4-3.6-2.7-5.4-4.1 C80,32.6,78.2,34,76.3,35.4z"></path> <path class="st0" d="M104.9,24.6c1.8,1.4,3.6,2.7,5.4,4.1c1.8-1.4,3.5-2.7,5.4-4.1c0,3.6,0,7.2,0,10.8c-0.6,0-1.2,0-1.9,0 c0-2.2,0-4.4,0-6.8c-1.2,0.9-2.3,1.8-3.5,2.6c-1.1-0.8-2.2-1.7-3.4-2.6c0,2.3,0,4.5,0,6.8c-0.7,0-1.3,0-2,0 C104.9,31.8,104.9,28.3,104.9,24.6z"></path> <path class="st0" d="M14,30.6c1.4,1.1,2.6,2.1,3.9,3.2c0.3,0.2,0.5,0.5,0.8,0.7c0.6,0.5,1.2,0.2,1.3-0.6c0.1-0.9,0-1.8,0-2.7 c0-0.2,0-0.3,0.1-0.5c1.1,0,2.3,0,3.4,0c0,0.4,0,0.8,0,1.2c0,2,0,3.9,0,5.9c0,0.9-0.3,1.7-1.2,2.1c-0.9,0.4-1.7,0.3-2.4-0.3 c-1.8-1.5-3.6-2.9-5.5-4.4c-0.2-0.2-0.4-0.4-0.4-0.6C14,33.3,14,32,14,30.6z"></path> <path class="st0" d="M89,24.6c0.6,0,1.3,0,1.9,0c0,1.8,0,3.5,0,5.4c1.2-1.1,2.2-2,3.3-2.9c0.8-0.7,1.5-1.4,2.3-2.1 c0.3-0.2,0.7-0.4,1-0.4c0.7-0.1,1.4,0,2.3,0c-1.6,1.5-3.2,2.9-4.7,4.3c1.5,2.1,3.1,4.2,4.7,6.5c-0.8,0-1.6,0-2.3,0 c-0.2,0-0.4-0.2-0.5-0.4c-1.1-1.5-2.2-3.1-3.4-4.7c-0.9,0.8-1.8,1.6-2.6,2.4c-0.1,0.1-0.1,0.4-0.1,0.6c0,0.7,0,1.4,0,2.1 c-0.7,0-1.3,0-1.9,0C89,31.8,89,28.2,89,24.6z"></path> <path class="st0" d="M46,35.4c-3.1-0.1-5.4-2.5-5.4-5.6c0.1-3,2.5-5.3,5.6-5.2c2.9,0.1,5.3,2.5,5.3,5.5C51.5,33.1,49,35.5,46,35.4z M46.1,26.6c-1.9,0-3.5,1.5-3.5,3.4c0,1.9,1.5,3.4,3.4,3.4c1.9,0,3.5-1.5,3.5-3.5C49.5,28.1,48,26.6,46.1,26.6z"></path> <path class="st0" d="M154,24.6c0.7,0,1.3,0,2,0c0,0.7,0,1.5,0,2.2c0,1.1,0,2.2,0,3.2c0,1.9,1.6,3.4,3.5,3.4c1.9,0,3.4-1.5,3.4-3.4 c0-1.8,0-3.5,0-5.4c0.7,0,1.3,0,1.9,0c0,2.1,0,4.2,0,6.3c0,0.1-0.1,0.2-0.1,0.3c-0.6,2.7-3.1,4.5-5.9,4.2c-2.6-0.3-4.7-2.5-4.8-5.2 C154,28.3,154,26.5,154,24.6z"></path> <path class="st0" d="M70,24.6c1.9,3.6,3.7,7.2,5.5,10.8c-0.7,0-1.4,0.1-2,0c-0.2,0-0.4-0.3-0.5-0.5c-0.3-0.7-0.7-0.9-1.5-0.9 c-1.2,0.1-2.5,0-3.7,0c-0.4,0-0.6,0.1-0.7,0.5c-0.2,0.9-0.8,1.1-1.7,1c-0.3-0.1-0.6,0-1.1,0C66.3,31.8,68.1,28.2,70,24.6z M70,28.9 c-0.5,1.1-1.1,2.1-1.6,3.1c1.1,0,2.1,0,3.2,0C71,30.9,70.5,30,70,28.9z"></path> <path class="st0" d="M171.4,28.4c0.9-1.1,1.7-2.2,2.5-3.2c0.3-0.5,0.7-0.7,1.3-0.6c0.5,0.1,1,0,1.7,0c-0.6,0.8-1.1,1.4-1.6,2 c-0.7,0.9-1.3,1.8-2.1,2.6c-0.7,0.7-0.9,1.5-0.8,2.5c0.1,1.2,0,2.4,0,3.6c-0.7,0-1.3,0-2,0c0-0.7-0.1-1.5,0-2.2 c0.3-2-0.3-3.6-1.7-5c-1-1.1-1.8-2.3-2.8-3.6c0.9,0,1.6,0,2.3,0c0.2,0,0.4,0.3,0.5,0.4C169.6,26.1,170.5,27.2,171.4,28.4z"></path> </g> <g> <g> <path class="st0" d="M-376.1,137.5c-0.3,0.1-0.7,0.3-1.3,0.3c-1.5,0-2.5-0.9-2.5-2.6c0-1.6,1.1-2.7,2.7-2.7c0.6,0,1,0.1,1.2,0.2 l-0.1,0.5c-0.3-0.1-0.6-0.2-1-0.2c-1.2,0-2,0.8-2,2.1c0,1.3,0.7,2.1,2,2.1c0.4,0,0.8-0.1,1.1-0.2L-376.1,137.5z"></path> <path class="st0" d="M-372,136.1l-0.5,1.6h-0.7l1.8-5.1h0.7l1.8,5.1h-0.7l-0.6-1.6H-372z M-370.3,135.6l-0.5-1.5 c-0.1-0.3-0.2-0.6-0.3-0.9l0,0c-0.1,0.3-0.1,0.6-0.3,0.9l-0.5,1.5L-370.3,135.6L-370.3,135.6z"></path> <path class="st0" d="M-365.7,132.7c0.3-0.1,0.8-0.1,1.3-0.1c0.7,0,1.2,0.1,1.5,0.4c0.3,0.2,0.4,0.6,0.4,1c0,0.7-0.4,1.1-1,1.3v0 c0.4,0.1,0.6,0.5,0.7,1c0.1,0.7,0.3,1.2,0.4,1.4h-0.7c-0.1-0.1-0.2-0.6-0.3-1.2c-0.1-0.7-0.4-1-1-1h-0.7v2.2h-0.7V132.7z M-365.1,135h0.7c0.7,0,1.2-0.4,1.2-1c0-0.7-0.5-0.9-1.2-1c-0.3,0-0.6,0-0.6,0.1V135z"></path> <path class="st0" d="M-359.2,132.7c0.4-0.1,0.9-0.1,1.4-0.1c0.9,0,1.6,0.2,2.1,0.6s0.7,1,0.7,1.8s-0.3,1.5-0.7,2 c-0.5,0.5-1.3,0.7-2.3,0.7c-0.5,0-0.9,0-1.2-0.1C-359.2,137.7-359.2,132.7-359.2,132.7z M-358.6,137.2c0.1,0,0.4,0,0.7,0 c1.4,0,2.2-0.8,2.2-2.2c0-1.2-0.7-2-2.1-2c-0.3,0-0.6,0-0.8,0.1L-358.6,137.2L-358.6,137.2z"></path> <path class="st0" d="M-351.1,132.6v5.1h-0.7v-5.1H-351.1z"></path> <path class="st0" d="M-343.2,135.1c0,1.8-1.1,2.7-2.4,2.7c-1.3,0-2.3-1-2.3-2.6c0-1.6,1-2.7,2.4-2.7 C-344,132.5-343.2,133.6-343.2,135.1z M-347.1,135.2c0,1.1,0.6,2.1,1.6,2.1s1.6-1,1.6-2.1c0-1-0.5-2.1-1.6-2.1 S-347.1,134.1-347.1,135.2z"></path> <path class="st0" d="M-339.9,132.6h0.7v4.5h2.2v0.6h-2.8L-339.9,132.6L-339.9,132.6z"></path> <path class="st0" d="M-329.8,135.1c0,1.8-1.1,2.7-2.4,2.7c-1.3,0-2.3-1-2.3-2.6c0-1.6,1-2.7,2.4-2.7 C-330.7,132.5-329.8,133.6-329.8,135.1z M-333.8,135.2c0,1.1,0.6,2.1,1.6,2.1s1.6-1,1.6-2.1c0-1-0.5-2.1-1.6-2.1 C-333.2,133.1-333.8,134.1-333.8,135.2z"></path> <path class="st0" d="M-322.6,137.5c-0.3,0.1-0.9,0.3-1.6,0.3c-0.8,0-1.4-0.2-1.9-0.7c-0.4-0.4-0.7-1.1-0.7-1.9 c0-1.5,1-2.6,2.8-2.6c0.6,0,1,0.1,1.3,0.2l-0.1,0.5c-0.3-0.1-0.6-0.2-1.1-0.2c-1.2,0-2.1,0.8-2.1,2.1c0,1.3,0.8,2.1,2,2.1 c0.4,0,0.7-0.1,0.9-0.1v-1.5h-1V135h1.7L-322.6,137.5L-322.6,137.5z"></path> <path class="st0" d="M-318.1,137.7v-2.2l-1.6-2.9h0.7l0.7,1.4c0.2,0.4,0.3,0.7,0.5,1l0,0c0.1-0.3,0.3-0.7,0.5-1l0.7-1.4h0.7 l-1.7,2.9v2.2H-318.1z"></path> <path class="st0" d="M-305.1,137.5c-0.3,0.1-0.7,0.3-1.3,0.3c-1.5,0-2.5-0.9-2.5-2.6c0-1.6,1.1-2.7,2.7-2.7c0.6,0,1,0.1,1.2,0.2 l-0.1,0.5c-0.3-0.1-0.6-0.2-1-0.2c-1.2,0-2,0.8-2,2.1c0,1.3,0.7,2.1,2,2.1c0.4,0,0.8-0.1,1.1-0.2L-305.1,137.5z"></path> <path class="st0" d="M-299.2,135.3h-2v1.8h2.2v0.6h-2.9v-5.1h2.8v0.6h-2.1v1.6h2V135.3L-299.2,135.3z"></path> <path class="st0" d="M-295.7,137.7v-5.1h0.7l1.6,2.6c0.4,0.6,0.7,1.2,0.9,1.7l0,0c-0.1-0.7-0.1-1.3-0.1-2.1v-2.1h0.6v5.1h-0.7 l-1.6-2.6c-0.4-0.6-0.7-1.2-1-1.7h0c0,0.6,0,1.3,0,2.1v2.2L-295.7,137.7L-295.7,137.7z"></path> <path class="st0" d="M-287.3,133.2h-1.6v-0.6h3.8v0.6h-1.6v4.5h-0.7L-287.3,133.2L-287.3,133.2z"></path> <path class="st0" d="M-279.4,135.3h-2v1.8h2.2v0.6h-2.9v-5.1h2.8v0.6h-2.1v1.6h2V135.3L-279.4,135.3z"></path> <path class="st0" d="M-275.9,132.7c0.3-0.1,0.8-0.1,1.3-0.1c0.7,0,1.2,0.1,1.5,0.4c0.3,0.2,0.4,0.6,0.4,1c0,0.7-0.4,1.1-1,1.3v0 c0.4,0.1,0.6,0.5,0.7,1c0.1,0.7,0.3,1.2,0.4,1.4h-0.7c-0.1-0.1-0.2-0.6-0.3-1.2c-0.1-0.7-0.4-1-1-1h-0.7v2.2h-0.7V132.7z M-275.2,135h0.7c0.7,0,1.2-0.4,1.2-1c0-0.7-0.5-0.9-1.2-1c-0.3,0-0.6,0-0.6,0.1L-275.2,135L-275.2,135z"></path> <path class="st0" d="M-269.5,136.9c0.3,0.2,0.7,0.3,1.2,0.3c0.7,0,1.1-0.4,1.1-0.9c0-0.5-0.3-0.7-1-1c-0.8-0.3-1.3-0.7-1.3-1.5 c0-0.8,0.7-1.4,1.6-1.4c0.5,0,0.9,0.1,1.1,0.3l-0.2,0.5c-0.1-0.1-0.5-0.3-1-0.3c-0.7,0-1,0.4-1,0.8c0,0.5,0.3,0.7,1,1 c0.9,0.3,1.3,0.7,1.3,1.5c0,0.8-0.6,1.5-1.8,1.5c-0.5,0-1-0.1-1.3-0.3L-269.5,136.9z"></path> <path class="st0" d="M-258.5,132.6v5.1h-0.7v-5.1H-258.5z"></path> <path class="st0" d="M-255,137.7v-5.1h0.7l1.6,2.6c0.4,0.6,0.7,1.2,0.9,1.7l0,0c-0.1-0.7-0.1-1.3-0.1-2.1v-2.1h0.6v5.1h-0.7 l-1.6-2.6c-0.4-0.6-0.7-1.2-1-1.7h0c0,0.6,0,1.3,0,2.1v2.2L-255,137.7L-255,137.7z"></path> <path class="st0" d="M-244,137.5c-0.3,0.1-0.7,0.3-1.3,0.3c-1.5,0-2.5-0.9-2.5-2.6c0-1.6,1.1-2.7,2.7-2.7c0.6,0,1,0.1,1.2,0.2 l-0.1,0.5c-0.3-0.1-0.6-0.2-1-0.2c-1.2,0-2,0.8-2,2.1c0,1.3,0.7,2.1,2,2.1c0.4,0,0.8-0.1,1.1-0.2L-244,137.5z"></path> <path class="st0" d="M-241,137.3c0-0.3,0.2-0.5,0.4-0.5c0.3,0,0.4,0.2,0.4,0.5c0,0.3-0.2,0.5-0.4,0.5 C-240.8,137.8-241,137.6-241,137.3z"></path> </g> <g> <polygon class="st0" points="-336.4,128.2 -350.8,128.2 -361.4,110.5 -366,116.1 -366,128.2 -379.6,128.2 -379.6,82.2 -366,82.2 -366,101.1 -351.9,82.4 -336.6,82.4 -352.2,102.3 "></polygon> <polygon class="st0" points="-240.4,82.5 -240.4,128.2 -253,128.2 -253,110.5 -269.2,110.5 -269.2,128.2 -281.8,128.2 -281.8,82.5 -269.2,82.5 -269.2,99.4 -253,99.4 -253,82.5 "></polygon> <polygon class="st0" points="-287.7,82.8 -287.7,128.2 -300.2,128.2 -300.2,106.8 -310.8,115.5 -321.4,106.9 -321.4,128.2 -333.9,128.2 -333.9,82.6 -310.7,100.7 "></polygon> </g> </g> <g id="Layer_2_00000114035131433610371970000011608648442928006801_"> <g id="Layer_1-2"> <polygon class="st0" points="-81.5,109.2 -89.6,109.2 -89.6,102.2 -91.8,102.2 -91.8,118.2 -89.6,118.2 -89.6,111.3 -81.5,111.3 -81.5,118.2 -79.3,118.2 -79.3,102.2 -81.5,102.2 "></polygon> <path class="st0" d="M-70.9,105c-4,0-6.5,2.7-6.5,6.7v0.3c0,4,2.2,6.5,6.4,6.5c3.2,0,5.4-1.5,6.1-4.2h-2.4 c-0.5,1.5-1.8,2.3-3.7,2.3c-2.7,0-4.2-1.6-4.4-4.2h10.5v-1C-64.7,108-66.6,105-70.9,105z M-75.2,110.8c0.3-2.5,1.9-4,4.3-4 c2.5,0,3.8,1.6,4,4H-75.2z"></path> <path class="st0" d="M-56.6,105c-3.6,0-5.8,2-6,4.8h2.2c0.1-1.8,1.4-3.1,3.9-3.1c2.3,0,3.3,1,3.3,2.3c0,1.2-1.3,1.4-3.5,1.7 c-2.6,0.4-3.7,0.6-4.7,1.3c-1.1,0.7-1.7,1.8-1.7,3.1c0,2.1,1.4,3.4,4.2,3.4c2.9,0,4.8-1.6,5.7-3.5l0.2,3.2h1.8l0-8.8 C-51.1,106.8-52.8,105-56.6,105z M-53.1,112.1c0,2.2-2.1,4.7-5,4.7c-1.7,0-2.5-0.8-2.5-2c0-0.7,0.3-1.3,0.9-1.7 c0.7-0.5,1.6-0.7,3.5-1c1.4-0.2,2.5-0.5,3.1-1V112.1z"></path> <polygon class="st0" points="-48.3,109.8 -48.3,118.2 -46.1,118.2 -46.1,109.7 -46.1,101.5 -48.3,101.5 "></polygon> <path class="st0" d="M-39.8,102.2h-1.7c0,0.5-0.1,1.7-0.2,2.1c-0.2,0.8-0.3,1-1.1,1.1c-0.3,0.1-1.2,0.1-1.6,0.1v1.9h2.5v6 c0,3.8,0.9,5,4.4,5h1.5v-2.1h-1c-2.3,0-2.8-0.5-2.8-3.2v-5.6h3.8v-2h-3.8L-39.8,102.2z"></path> <path class="st0" d="M-27.1,105c-2.3,0-3.9,1.2-4.7,2.9v-6.5h-2.1v16.7h2.1v-6.8c0-2.7,1.4-4.5,3.9-4.5c2.5,0,3.5,1.7,3.5,4v7.3 h2.2v-7.8C-22.1,107.1-23.8,105-27.1,105z"></path> <path class="st0" d="M-186.1,109.8c1.5-0.6,2.3-1.7,2.3-3.5v0c0-2.8-2.1-4.2-6.8-4.2h-7.2v16h7.7c4.5,0,6.7-1.5,6.7-4.7 C-183.4,111.4-184.3,110.3-186.1,109.8z M-193.4,105.5h2.8c1.7,0,2.3,0.4,2.3,1.4v0c0,1-0.7,1.4-2.2,1.4h-2.9V105.5z M-188.1,112.9c0,1-0.6,1.5-2.7,1.5h-2.6v-3h2.6C-188.7,111.4-188.1,111.8-188.1,112.9L-188.1,112.9z"></path> <path class="st0" d="M-177.3,102l-6.2,16h4.6l1-2.8h6l1,2.8h4.6l-6.3-16H-177.3z M-176.7,111.8l1.8-5.1l1.8,5.1H-176.7z"></path> <path class="st0" d="M-156.8,110.5c0,2.7-0.7,3.6-2.5,3.6c-1.7,0-2.5-1-2.5-3.6V102h-4.7v8.6c0,5.4,2.3,7.8,7.2,7.8 c4.5,0,7.2-2.4,7.2-7.8V102h-4.7V110.5z"></path> <path class="st0" d="M-142.1,108.1c-2.5-0.4-3.8-0.6-3.8-1.6c0-0.8,0.6-1.4,2.2-1.4c1.7,0,2.6,0.5,2.7,1.9v0h4.6v0 c-0.4-3.6-2.8-5.4-7.3-5.4c-4.4,0-6.8,2.1-6.8,5.1c0,3.4,2.5,4.3,5.7,4.8c2.7,0.4,4,0.6,4,1.8c0,0.9-0.7,1.5-2.3,1.5 c-1.9,0-2.9-0.7-3-2.2v-0.1h-4.8v0c0.3,3.8,2.2,5.9,7.7,5.9c4.7,0,7.1-2.2,7.1-5.4C-136.1,109.6-138.8,108.6-142.1,108.1z"></path> <path class="st0" d="M-124,111.4c-0.2,1.8-1.1,2.9-3,2.9c-2.1,0-3.2-1.2-3.2-3.8v-0.9c0-2.7,1.1-3.9,3.2-3.9c1.9,0,2.8,1,3,2.7 v0.1h4.9v-0.3c-0.3-4.4-3.3-6.6-7.8-6.6c-4.8,0-7.9,2.7-7.9,7.8v1.3c0,5.2,2.9,7.7,7.8,7.7c4.9,0,7.7-2.2,8-6.9v-0.3h-4.9V111.4z"></path> <polygon class="st0" points="-102.8,108 -102.8,102 -107.3,102 -107.3,108 -107.3,108 -112.8,108 -112.8,102 -117.4,102 -117.4,118 -112.8,118 -112.8,112.2 -107.3,112.2 -107.3,112.2 -107.3,112.2 -107.3,118 -102.8,118 -102.8,112.2 -102.8,112.2 -102.8,112.2 -97.3,112.2 -97.3,108 "></polygon> <rect x="-107.3" y="108" class="st2" width="4.5" height="4.2"></rect> </g> </g> <g> <path id="path107" class="st0" d="M93.5,106c-1.4,0-2.1,0.8-2.1,0.8v-0.6h-1.9v8.7h1.9v-6.5c0,0,0.5-0.8,1.7-0.8 c1.3,0,1.7,0.8,1.7,2.4v5h1.9v-5C96.7,107,95.5,106,93.5,106z"></path> <path id="path109" class="st0" d="M104.9,106.2H102v1.6h1v7.2h1.9V106.2L104.9,106.2L104.9,106.2z"></path> <path id="path111" class="st0" d="M103.9,104.8c0.7,0,1.2-0.6,1.2-1.3s-0.5-1.3-1.2-1.3c-0.7,0-1.2,0.6-1.2,1.3 S103.2,104.8,103.9,104.8z"></path> <path id="path113" class="st0" d="M60,106.2h-2.9v1.6h1v7.2H60V106.2L60,106.2L60,106.2z"></path> <path id="path115" class="st0" d="M59,104.8c0.7,0,1.2-0.6,1.2-1.3s-0.5-1.3-1.2-1.3c-0.7,0-1.2,0.6-1.2,1.3 C57.7,104.3,58.3,104.8,59,104.8z"></path> <path id="path117" class="st0" d="M129,106c-1.2,0-3.9,0.8-3.9,4.6c0,3.4,2.5,4.5,3.9,4.5c2.2,0,3.2-1.7,3.2-1.7l-1.2-1.1 c0,0-0.7,1.2-2,1.2c-1.1,0-2-1.3-2-3c0-1.7,0.7-2.9,2-2.9c0.7,0,1.3,0.3,2,1l1.2-1.1C132.3,107.5,131.2,106,129,106z"></path> <path id="path119" class="st0" d="M65.8,113.5c-1.2,0-2.1-1.2-2.1-3c0-1.8,0.8-2.9,2.1-3c1.3,0,2.1,1.2,2.1,3 C67.9,112.3,67,113.5,65.8,113.5z M65.8,106c-2.4,0-4,1.9-4,4.5c0,2.7,1.6,4.6,4,4.6c2.4,0,4-1.9,4-4.6 C69.8,107.9,68.1,106,65.8,106z"></path> <path id="path121" class="st0" d="M81.9,109.7c0.2-1.3,0.7-2.1,1.8-2.1c1.5,0,1.9,1.2,2,2.1C85.4,109.7,82.1,109.7,81.9,109.7z M83.8,106c-2.4,0-3.9,1.8-3.9,4.6c0,2.7,1.6,4.5,3.9,4.5c2.1,0,3.1-1.2,3.1-1.2l-1.1-1.1c-0.6,0.5-1.3,0.7-2,0.7 c-1.1,0-1.8-0.9-2-2.2c0.2,0,5.7,0,5.7,0s0.1-0.6,0.1-0.9C87.6,107.7,86.1,106,83.8,106z"></path> <path id="path123" class="st0" d="M117.9,109.7c0.2-1.3,0.8-2.1,1.8-2.1c1.4,0,1.8,1.2,1.9,2.1H117.9z M119.9,106 c-2.4,0-3.9,1.8-3.9,4.6c0,2.6,1.6,4.5,3.9,4.5c2.1,0,3.1-1.2,3.1-1.2l-1.1-1.1c-0.6,0.5-1.3,0.7-2,0.7c-1,0-1.8-0.9-2-2.2h5.7 c0,0,0.1-0.6,0.1-0.9C123.6,107.7,122.2,106,119.9,106z"></path> <path id="path125" class="st0" d="M112.4,113.3c-0.3,0.1-0.7,0.2-1.1,0.2c-1.5,0-2.8-0.9-2.8-3c0-1.8,1.1-3,2.7-3 c0.5,0,0.8,0,1.1,0.1L112.4,113.3L112.4,113.3z M112.4,101.9v4.2c-0.3,0-0.7-0.1-1.2-0.1c-2.7,0-4.6,2-4.6,4.7c0,2.5,1.5,4.5,5,4.5 c1.1,0,2.3-0.4,2.7-0.7v-12.5H112.4z"></path> <path id="path127" class="st0" d="M55.8,110.2c0-2.9-1.8-4.2-3.9-4.2c-0.7,0-1.2,0.1-1.7,0.3v-4.4h-1.9v12.5 c0.5,0.3,1.6,0.7,2.7,0.7C53.9,115.1,55.8,113.3,55.8,110.2z M53.9,110.4c0,1.7-1,3.1-2.6,3.1c-0.5,0-0.8,0-1.1-0.2v-5.4 c0.2-0.1,0.7-0.4,1.4-0.4C53.3,107.6,53.9,108.8,53.9,110.4z"></path> <path id="path129" class="st0" d="M74.8,117.7c-1.5,0-2.4-0.5-2.4-1.3c0-0.9,0.9-1.4,2.4-1.4c1.4,0,2.4,0.5,2.4,1.3 C77.2,117.2,76.3,117.7,74.8,117.7z M74.7,107.5c1,0,1.6,0.7,1.6,1.9c0,1.1-0.6,1.9-1.6,1.9c-1,0-1.6-0.7-1.6-1.9 C73.2,108.2,73.8,107.5,74.7,107.5z M74.8,113.5c-0.4,0-1.1,0.1-1.2,0.1c-0.3-0.2-0.5-0.8-0.3-1.2c0.4,0.2,1,0.3,1.5,0.3 c2.1,0,3.4-1.4,3.4-3.4c0-0.7-0.3-1.6-0.7-1.8l1.1,0.1V106c0,0-3.7,0-3.8,0c-1,0-1.8,0.3-2.4,0.9c-0.6,0.6-1,1.5-1,2.5 c0,0.9,0.3,1.6,0.7,2.2l0,0c-0.3,0.4-0.5,0.9-0.4,1.5c0,0.4,0.1,0.7,0.3,1c-1.1,0.5-1.6,1.4-1.6,2.3l0,0l0,0c0,0.8,0.4,1.5,1.2,2.1 c0.8,0.5,1.9,0.8,3.2,0.8c1.3,0,2.4-0.3,3.2-0.8c0.8-0.5,1.2-1.2,1.2-2C79.2,114.7,77.4,113.5,74.8,113.5z"></path> <g id="path131"> <polygon class="st0" points="39.8,138.1 38.8,138.1 38.8,99.5 43.3,96.5 155.4,96.5 155.4,97.5 43.6,97.5 39.8,100 "></polygon> </g> <path id="path135" class="st0" d="M143.4,120.9c0.4,0,0.7,0,0.7-0.5c0-0.4-0.3-0.4-0.6-0.4h-0.6v0.8H143.4z M142.8,122.5h-0.5v-2.9 h1.1c0.7,0,1,0.2,1,0.8c0,0.5-0.3,0.7-0.7,0.8l0.8,1.3h-0.5l-0.7-1.2h-0.5L142.8,122.5L142.8,122.5z M143.3,118.9 c-1.1,0-2,0.9-2,2.1c0,1.2,0.8,2.1,2,2.1c1.1,0,2-0.9,2-2.1C145.4,119.7,144.5,118.9,143.3,118.9z M143.3,123.6 c-1.5,0-2.6-1.1-2.6-2.6c0-1.6,1.2-2.6,2.6-2.6c1.4,0,2.6,1,2.6,2.6C145.9,122.6,144.7,123.6,143.3,123.6z"></path> <g id="path3536"> <polygon class="st0" points="134.6,122.7 23.7,122.7 23.7,121.7 134.3,121.7 138.1,119.2 138.1,81.9 139,81.9 139,119.7 "></polygon> </g> </g> </svg> 