<?xml version="1.0" encoding="UTF-8"?> <svg xmlns="http://www.w3.org/2000/svg" xmlns:xlink="http://www.w3.org/1999/xlink" version="1.1" id="katman_1" x="0px" y="0px" viewBox="0 0 1190.6 841.9" style="enable-background:new 0 0 1190.6 841.9;" xml:space="preserve"> <style type="text/css"> .st0{fill:#FFFFFF;} </style> <g> <g id="logo-mark"> <path class="st0" d="M325.8,421.5c0-15.4-12.2-28.9-32.8-38.5c1.9-21.8-3.9-39.8-17.3-47.5s-30.8-3.9-48.8,9 c-0.6-0.6-1.3-0.6-1.9-1.3c-18-12.2-35.3-14.8-48.2-7.7c-13.5,7.7-18.6,25.7-16.7,47.5c-20.6,9.6-32.8,23.1-32.8,38.5 s12.2,28.9,32.8,38.5c0,0.6,0,1.3,0,1.9c-1.3,21.8,4.5,37.9,17.3,45c4.5,2.6,10.3,3.9,15.4,3.9c10.3,0,22.5-4.5,34-12.8 c12.2,8.4,23.8,12.8,34,12.8c5.1,0,10.9-1.3,15.4-3.9c12.8-7.1,18.6-23.1,17.3-45c0-0.6,0-1.3,0-1.9 C313.6,451.1,325.8,436.9,325.8,421.5z M260.9,342.5c3.2,0,7.1,0.6,10.3,2.6c8.4,4.5,12.8,17.3,12.2,33.4c-9-3.2-18-5.1-27.6-6.4 c-6.4-7.7-12.8-14.8-19.9-20.5C244.8,345.7,253.8,342.5,260.9,342.5z M171.6,390c5.8-1.9,11.6-3.9,17.3-5.1 c-2.6,3.2-5.1,7.1-7.1,10.9c-1.9,3.9-4.5,7.7-5.8,11.6C174.2,401.6,172.3,395.8,171.6,390z M249.3,461.3 c-7.7,0.6-15.4,1.3-22.5,1.3c-7.1,0-15.4-0.6-22.5-1.3c-5.1-0.6-10.3-1.3-15.4-2.6c-5.8-1.3-11.6-3.2-17.3-5.1 c0.6-6.4,2.6-12.2,3.9-17.3c1.9-5.1,3.2-9.6,5.8-14.8c3.2-7.1,6.4-14.1,10.3-20.5c3.9-6.4,7.7-12.8,12.8-19.3 c3.2-4.5,6.4-8.4,9.6-12.2c3.9-4.5,8.4-8.4,12.8-12.2c4.5,3.9,9,7.7,12.8,12.2c3.2,3.9,6.4,7.7,9.6,12.2c4.5,5.8,9,12.2,12.8,19.3 c3.9,6.4,7.1,13.5,10.3,20.5c1.9,5.1,3.9,9.6,5.1,14.8c1.9,5.8,3.2,11.6,3.9,17.3c-5.8,1.9-11.6,3.9-17.3,5.1 C259.6,459.4,254.5,460.7,249.3,461.3z M226.9,473.5c4.5,0,9,0,12.8-0.6c-3.9,4.5-8.4,8.4-12.8,12.2c-4.5-3.9-9-7.7-12.8-12.2 C217.9,472.9,222.4,473.5,226.9,473.5z M277.6,407.4c-1.9-3.9-3.9-7.7-5.8-11.6s-4.5-7.7-7.1-10.9c5.8,1.3,11.6,3.2,17.3,5.1 C280.8,395.8,279.5,401.6,277.6,407.4L277.6,407.4z M182.6,345.1c3.2-1.9,6.4-2.6,10.3-2.6c7.1,0,16.1,3.2,25.1,9 c-7.1,6.4-13.5,12.8-19.9,20.5c-9.6,1.3-18.6,3.2-27.6,6.4C169.7,361.8,174.2,349.6,182.6,345.1z M138.2,421.5 c0-10.3,9-19.9,23.1-27c1.9,9,4.5,18,7.7,27c-3.2,9-6.4,18-7.7,27C146.6,441.4,138.2,431.2,138.2,421.5L138.2,421.5z M192.2,500.5 c-3.2,0-7.1-0.6-10.3-2.6c-8.4-5.1-12.8-17.3-12.2-33.4c9,3.2,18,5.1,27.6,7.1c5.8,7.7,12.2,14.1,19.9,20.5 C208.2,498,199.9,500.5,192.2,500.5z M271.2,498c-8.4,4.5-21.2,2.6-35.3-6.4c7.1-6.4,13.5-12.8,19.9-20.5 c9.6-1.3,18.6-3.9,27.6-7.1C283.4,481.2,279.5,493.5,271.2,498L271.2,498z M291.7,449.1c-1.9-9-4.5-18.6-7.7-27 c3.2-9,6.4-18,7.7-27c14.1,7.1,23.1,16.7,23.1,27C314.9,431.2,306.5,441.4,291.7,449.1L291.7,449.1z"></path> <path class="st0" d="M226.9,388.8c-12.8,16.7-21.8,36-27,55.9l27-14.8l27,14.8c-2.6-10.3-6.4-20.5-10.9-30.2 C237.8,406.1,232.6,397.1,226.9,388.8z"></path> </g> <g id="logo-type"> <path class="st0" d="M381.6,455.6v-68.1h13.5l1.9,8.4c7.7-5.8,15.4-8.4,23.8-8.4s14.8,3.2,18.6,9.6c9-6.4,16.7-9.6,24.4-9.6 c14.8,0,21.8,9,21.8,26.3v42.4h-17.3v-43c0-7.7-3.2-11.6-9.6-11.6c-5.1,0-10.3,3.2-16.1,9v45.6h-17.3v-43c0-7.7-3.2-11.6-9.6-11.6 c-5.8,0-10.9,3.2-16.1,9v45.6L381.6,455.6z"></path> <path class="st0" d="M496,421.5c0-23.1,11.6-34.7,34.7-34.7c23.1,0,34.7,11.6,34.7,34.7s-11.6,34.7-34.7,34.7 C507.5,456.2,496.6,444.6,496,421.5z M530.6,442.7c11.6,0,17.3-7.1,17.3-21.2s-5.8-21.2-17.3-21.2s-17.3,7.1-17.3,21.2 S519.1,442.7,530.6,442.7L530.6,442.7z"></path> <path class="st0" d="M640.5,387.5v68.7H627l-1.9-9c-8.3,5.8-16.7,9-25,9c-16.1,0-23.8-8.4-23.8-25.7v-43h17.3v43 c0,7.7,3.8,11.6,10.9,11.6c5.8,0,12.2-3.2,18.6-9v-45.6H640.5z"></path> <path class="st0" d="M658.4,452.4v-14.1c7.7,3.2,16.7,4.5,26.3,4.5c7.7,0,10.9-2.6,10.9-7.1c0-4.5-2.6-6.4-7.7-6.4h-12.2 c-14.1,0-21.2-7.1-21.2-21.2s10.3-21.8,30.2-21.8c8.3,0,16.7,1.3,24.4,3.9v14.1c-7.7-3.2-16.1-4.5-25-4.5 c-9.6,0-14.1,2.6-14.1,7.1c0,4.5,2.6,6.4,8.3,6.4h10.9c15.4,0,23.1,7.1,23.1,21.2s-9.6,21.8-28.9,21.8 C674.5,456.2,666.2,454.9,658.4,452.4z"></path> <path class="st0" d="M786.9,428.6h-45c0,9,7.7,14.1,22.5,14.1c7.1,0,14.1-0.6,20.5-1.9v12.8c-5.8,1.3-14.1,1.9-23.1,1.9 c-25,0-37.2-11.6-37.2-35.3c0-22.5,11.6-33.4,34-33.4C781.1,387.5,790.7,401,786.9,428.6z M741.9,415.7h28.9 c0.6-9.6-3.8-14.8-13.5-14.8C747.7,401,742.6,406.1,741.9,415.7z"></path> <path class="st0" d="M801.7,456.2v-72.6c0-16.7,10.3-25,30.8-25c5.1,0,10.3,0.6,15.4,2.6v13.5c-4.5-1.9-9.6-2.6-15.4-2.6 c-9,0-13.5,4.5-13.5,14.8h20.5v13.5H819v54.6L801.7,456.2z"></path> <path class="st0" d="M873.6,362.4v93.1h-17.3v-93.1H873.6z"></path> <path class="st0" d="M885.8,421.5c0-23.1,11.6-34.7,34.7-34.7s34.7,11.6,34.7,34.7s-11.6,34.7-34.7,34.7 C897.3,456.2,886.4,444.6,885.8,421.5z M920.5,442.7c11.6,0,17.3-7.1,17.3-21.2s-5.8-21.2-17.3-21.2s-17.3,7.1-17.3,21.2 S908.9,442.7,920.5,442.7z"></path> <path class="st0" d="M960.9,387.5h17.3l10.3,46.2l15.4-46.2h14.8l16.7,46.2l9-46.2h18l-18.6,68.7h-16.1l-16.1-47.5l-16.1,47.5 h-16.7L960.9,387.5z"></path> </g> </g> </svg> 