<?xml version="1.0" encoding="UTF-8"?> <svg xmlns="http://www.w3.org/2000/svg" xmlns:xlink="http://www.w3.org/1999/xlink" version="1.0" id="katman_1" x="0px" y="0px" viewBox="0 0 1190.55 841.89" style="enable-background:new 0 0 1190.55 841.89;" xml:space="preserve"> <g> <g id="logo-mark"> <path d="M325.77,421.52c0-15.41-12.2-28.9-32.75-38.53c1.93-21.84-3.85-39.82-17.34-47.53c-13.49-7.71-30.83-3.85-48.81,8.99 c-0.64-0.64-1.28-0.64-1.93-1.28c-17.98-12.2-35.32-14.77-48.17-7.71c-13.49,7.71-18.62,25.69-16.7,47.53 c-20.55,9.63-32.75,23.12-32.75,38.53s12.2,28.9,32.75,38.53c0,0.64,0,1.28,0,1.93c-1.28,21.84,4.5,37.89,17.34,44.96 c4.5,2.57,10.28,3.85,15.41,3.85c10.28,0,22.48-4.5,34.04-12.84c12.2,8.35,23.76,12.84,34.04,12.84c5.14,0,10.92-1.28,15.41-3.85 c12.84-7.06,18.62-23.12,17.34-44.96c0-0.64,0-1.28,0-1.93C313.56,451.07,325.77,436.94,325.77,421.52z M260.9,342.53 c3.21,0,7.06,0.64,10.28,2.57c8.35,4.5,12.84,17.34,12.2,33.4c-8.99-3.21-17.98-5.14-27.62-6.42 c-6.42-7.71-12.84-14.77-19.91-20.55C244.84,345.74,253.84,342.53,260.9,342.53z M171.63,390.05c5.78-1.93,11.56-3.85,17.34-5.14 c-2.57,3.21-5.14,7.06-7.06,10.92c-1.93,3.85-4.5,7.71-5.78,11.56C174.2,401.61,172.27,395.83,171.63,390.05z M249.34,461.34 c-7.71,0.64-15.41,1.28-22.48,1.28c-7.06,0-15.41-0.64-22.48-1.28c-5.14-0.64-10.28-1.28-15.41-2.57 c-5.78-1.28-11.56-3.21-17.34-5.14c0.64-6.42,2.57-12.2,3.85-17.34c1.93-5.14,3.21-9.63,5.78-14.77 c3.21-7.06,6.42-14.13,10.28-20.55c3.85-6.42,7.71-12.84,12.84-19.27c3.21-4.5,6.42-8.35,9.63-12.2c3.85-4.5,8.35-8.35,12.84-12.2 c4.5,3.85,8.99,7.71,12.84,12.2c3.21,3.85,6.42,7.71,9.63,12.2c4.5,5.78,8.99,12.2,12.84,19.27c3.85,6.42,7.06,13.49,10.28,20.55 c1.93,5.14,3.85,9.63,5.14,14.77c1.93,5.78,3.21,11.56,3.85,17.34c-5.78,1.93-11.56,3.85-17.34,5.14 C259.62,459.41,254.48,460.7,249.34,461.34z M226.86,473.54c4.5,0,8.99,0,12.84-0.64c-3.85,4.5-8.35,8.35-12.84,12.2 c-4.5-3.85-8.99-7.71-12.84-12.2C217.87,472.9,222.37,473.54,226.86,473.54z M277.6,407.39c-1.93-3.85-3.85-7.71-5.78-11.56 c-1.93-3.85-4.5-7.71-7.06-10.92c5.78,1.28,11.56,3.21,17.34,5.14C280.81,395.83,279.52,401.61,277.6,407.39L277.6,407.39z M182.55,345.1c3.21-1.93,6.42-2.57,10.28-2.57c7.06,0,16.06,3.21,25.05,8.99c-7.06,6.42-13.49,12.84-19.91,20.55 c-9.63,1.28-18.62,3.21-27.62,6.42C169.7,361.8,174.2,349.59,182.55,345.1z M138.23,421.52c0-10.28,8.99-19.91,23.12-26.97 c1.93,8.99,4.5,17.98,7.71,26.97c-3.21,8.99-6.42,17.98-7.71,26.97C146.58,441.43,138.23,431.16,138.23,421.52L138.23,421.52z M192.18,500.52c-3.21,0-7.06-0.64-10.28-2.57c-8.35-5.14-12.84-17.34-12.2-33.4c8.99,3.21,17.98,5.14,27.62,7.06 c5.78,7.71,12.2,14.13,19.91,20.55C208.24,497.95,199.89,500.52,192.18,500.52z M271.18,497.95c-8.35,4.5-21.19,2.57-35.32-6.42 c7.06-6.42,13.49-12.84,19.91-20.55c9.63-1.28,18.62-3.85,27.62-7.06C283.38,481.25,279.52,493.45,271.18,497.95L271.18,497.95z M291.73,449.14c-1.93-8.99-4.5-18.62-7.71-26.97c3.21-8.99,6.42-17.98,7.71-26.97c14.13,7.06,23.12,16.7,23.12,26.97 C314.85,431.16,306.5,441.43,291.73,449.14L291.73,449.14z"></path> <path d="M226.86,388.77c-12.84,16.7-21.84,35.96-26.97,55.87l26.97-14.77l26.97,14.77c-2.57-10.28-6.42-20.55-10.92-30.18 C237.78,406.11,232.64,397.12,226.86,388.77z"></path> </g> <g id="logo-type"> <path d="M381.64,455.56v-68.08h13.49l1.93,8.35c7.71-5.78,15.41-8.35,23.76-8.35s14.77,3.21,18.62,9.63 c8.99-6.42,16.7-9.63,24.4-9.63c14.77,0,21.84,8.99,21.84,26.33v42.39h-17.34v-43.03c0-7.71-3.21-11.56-9.63-11.56 c-5.14,0-10.28,3.21-16.06,8.99v45.6h-17.34v-43.03c0-7.71-3.21-11.56-9.63-11.56c-5.78,0-10.92,3.21-16.06,8.99v45.6 L381.64,455.56z"></path> <path d="M495.96,421.52c0-23.12,11.56-34.68,34.68-34.68c23.12,0,34.68,11.56,34.68,34.68s-11.56,34.68-34.68,34.68 C507.52,456.2,496.6,444.64,495.96,421.52z M530.64,442.72c11.56,0,17.34-7.06,17.34-21.19c0-14.13-5.78-21.19-17.34-21.19 c-11.56,0-17.34,7.06-17.34,21.19S519.08,442.72,530.64,442.72L530.64,442.72z"></path> <path d="M640.46,387.49v68.72h-13.49l-1.93-8.99c-8.35,5.78-16.7,8.99-25.05,8.99c-16.06,0-23.76-8.35-23.76-25.69v-43.03h17.34 v43.03c0,7.71,3.85,11.56,10.92,11.56c5.78,0,12.2-3.21,18.62-8.99v-45.6H640.46z"></path> <path d="M658.44,452.35v-14.13c7.71,3.21,16.7,4.5,26.33,4.5c7.71,0,10.92-2.57,10.92-7.06c0-4.5-2.57-6.42-7.71-6.42h-12.2 c-14.13,0-21.19-7.06-21.19-21.19c0-14.13,10.28-21.84,30.18-21.84c8.35,0,16.7,1.28,24.4,3.85v14.13 c-7.71-3.21-16.06-4.5-25.05-4.5c-9.63,0-14.13,2.57-14.13,7.06c0,4.5,2.57,6.42,8.35,6.42h10.92c15.41,0,23.12,7.06,23.12,21.19 s-9.63,21.84-28.9,21.84C674.5,456.2,666.15,454.92,658.44,452.35z"></path> <path d="M786.89,428.59h-44.96c0,8.99,7.71,14.13,22.48,14.13c7.06,0,14.13-0.64,20.55-1.93v12.84 c-5.78,1.28-14.13,1.93-23.12,1.93c-25.05,0-37.25-11.56-37.25-35.32c0-22.48,11.56-33.4,34.04-33.4 C781.11,387.49,790.74,400.97,786.89,428.59z M741.93,415.74h28.9c0.64-9.63-3.85-14.77-13.49-14.77 C747.71,400.97,742.57,406.11,741.93,415.74z"></path> <path d="M801.66,456.2v-72.57c0-16.7,10.28-25.05,30.83-25.05c5.14,0,10.28,0.64,15.41,2.57v13.49c-4.5-1.93-9.63-2.57-15.41-2.57 c-8.99,0-13.49,4.5-13.49,14.77h20.55v13.49H819v54.59L801.66,456.2z"></path> <path d="M873.59,362.44v93.12h-17.34v-93.12H873.59z"></path> <path d="M885.79,421.52c0-23.12,11.56-34.68,34.68-34.68s34.68,11.56,34.68,34.68s-11.56,34.68-34.68,34.68 C897.35,456.2,886.43,444.64,885.79,421.52z M920.47,442.72c11.56,0,17.34-7.06,17.34-21.19c0-14.13-5.78-21.19-17.34-21.19 s-17.34,7.06-17.34,21.19S908.91,442.72,920.47,442.72z"></path> <path d="M960.93,387.49h17.34l10.28,46.24l15.41-46.24h14.77l16.7,46.24l8.99-46.24h17.98l-18.62,68.72h-16.06l-16.06-47.53 l-16.06,47.53h-16.7L960.93,387.49z"></path> </g> </g> </svg> 