<?xml version="1.0" encoding="UTF-8"?> <svg xmlns="http://www.w3.org/2000/svg" width="67" height="67" viewBox="0 0 67 67" fill="none"><path d="M33.3653 64.4087C27.2928 64.4107 21.356 62.612 16.3058 59.24C11.2556 55.8679 7.31872 51.0741 4.99305 45.4646C2.66738 39.8551 2.05737 33.6819 3.24015 27.7257C4.42293 21.7695 7.34539 16.2978 11.6379 12.0025C15.9305 7.70729 21.4004 4.7814 27.3558 3.59489C33.3113 2.40837 39.4848 3.01451 45.0958 5.33667C50.7067 7.65882 55.5031 11.5927 58.8783 16.6408C62.2535 21.6889 64.0559 27.6245 64.0577 33.697C64.0604 37.7292 63.2685 41.7225 61.7273 45.4486C60.186 49.1747 57.9257 52.5606 55.0753 55.4127C52.225 58.2648 48.8405 60.5273 45.1154 62.0709C41.3903 63.6145 37.3975 64.4088 33.3653 64.4087ZM33.343 4.7388e-05C26.7246 0.0310588 20.2636 2.02187 14.7755 5.72124C9.28735 9.42061 5.018 14.6628 2.50621 20.7861C-0.0055817 26.9095 -0.647246 33.6397 0.662191 40.1274C1.97163 46.6152 5.17348 52.5696 9.86369 57.2394C14.5539 61.9092 20.5223 65.085 27.0156 66.3661C33.509 67.6472 40.2364 66.9762 46.3487 64.4377C52.4611 61.8992 57.6845 57.607 61.3599 52.1028C65.0353 46.5985 66.9979 40.1289 67 33.5104C66.9761 24.6049 63.4177 16.0731 57.1068 9.78961C50.7959 3.50617 42.2486 -0.0148987 33.343 4.7388e-05Z" fill="#00A1DF"></path><path d="M24.8276 48.5362C22.2157 47.2537 20.0211 45.2565 18.4987 42.7767C16.9764 40.2968 16.1887 37.436 16.2272 34.5264C16.2098 31.3848 17.1335 28.3099 18.8793 25.6979L29.9467 42.1969H36.6429L47.7088 25.6935C49.4517 28.3068 50.3751 31.3808 50.3609 34.522C50.3887 37.238 49.703 39.9138 48.3722 42.2816C47.0414 44.6495 45.1123 46.6265 42.7778 48.0149L44.9116 56.18C48.9104 54.1197 52.2846 51.0262 54.6837 47.2211C57.0829 43.4159 58.4195 39.0378 58.5548 34.5415C58.69 30.0452 57.619 25.5946 55.4529 21.6521C53.2868 17.7096 50.1046 14.419 46.2369 12.122L33.3896 31.9513L20.6621 12.0391C16.6952 14.3598 13.4387 17.7215 11.2454 21.7603C9.05212 25.7991 8.00557 30.361 8.2191 34.952C8.43264 39.5429 9.89811 43.988 12.4568 47.8057C15.0156 51.6235 18.57 54.6685 22.7353 56.611L24.8276 48.5362Z" fill="#00A1DF"></path></svg> 