<?xml version="1.0" encoding="UTF-8"?> <svg xmlns="http://www.w3.org/2000/svg" xmlns:xlink="http://www.w3.org/1999/xlink" version="1.1" id="Layer_1" x="0px" y="0px" viewBox="0 0 64 64" style="enable-background:new 0 0 64 64;" xml:space="preserve"> <style type="text/css"> .st0{fill-rule:evenodd;clip-rule:evenodd;fill:#00678C;} .st1{fill-rule:evenodd;clip-rule:evenodd;fill:#CE8B2C;} </style> <g transform="matrix(.037376 0 0 .037376 1.069994 -1.319339)"> <path class="st0" d="M17,1237.5h53.5v-212l83.6,184.8c9.5,22.2,23.1,30.4,49.4,30.4s39.1-8.2,48.9-30.4l83.1-184.8v212h53.9v-212 c0-20.6-8.2-30.5-25.5-35.8c-40.7-12.3-67.9-1.6-80.3,25.9l-81.9,182.7l-79-182.7C110.7,988,83.1,977.3,42,989.7 c-16.9,5.4-25.1,15.2-25.1,35.8L17,1237.5L17,1237.5z M433.9,1065h53.9v116.5c-0.4,6.6,2.1,21.4,31.4,21.8 c15.2,0.4,116.1,0,116.9,0v-139.1H690v190.6c0,46.9-58.1,57.2-85.2,57.6H435.2v-35.8h170c34.6-3.7,30.5-21,30.5-26.8v-14h-114 c-53.1-0.4-87.3-23.9-87.7-50.6L433.9,1065L433.9,1065z M1590.5,930c-32.9-0.8-58.4,2.5-79.9,11.5c-6.2,2.5-16.1,2.5-16.9,10.3 c3.3,3.3,3.7,8.6,6.6,13.2c4.9,8.2,13.6,19.3,21.4,25.1c8.7,6.6,17.3,13.2,26.3,18.9c16.1,9.9,34.2,15.6,49.8,25.5 c9.1,5.8,18.1,13.2,27.2,19.4c4.6,3.3,7.4,8.7,13.2,10.7v-1.2c-2.9-3.7-3.7-9-6.6-13.2c-4.1-4.1-8.2-7.8-12.4-11.9 c-11.9-16.1-26.8-30.1-42.8-41.6c-13.2-9.1-42-21.4-47.3-36.6l-0.8-0.8c9-0.8,19.7-4.1,28.4-6.6c14-3.7,26.8-2.9,41.1-6.6 c6.6-1.7,13.2-3.7,19.8-5.8v-3.7c-7.4-7.4-12.8-17.3-20.6-24.3c-21-18.1-44-35.8-67.9-50.6c-12.8-8.2-29.2-13.6-42.8-20.6 c-5-2.5-13.2-3.7-16.1-7.8c-7.4-9-11.5-21-16.9-31.7c-11.9-22.6-23.5-47.7-33.7-71.6c-7.4-16.1-11.9-32.1-21-46.9 c-42.4-70-88.5-112.4-159.3-153.9c-15.2-8.6-33.3-12.4-52.6-16.9l-30.9-1.7c-6.6-2.9-13.2-10.7-18.9-14.4 c-23.5-14.8-84-46.9-101.3-4.5c-11.1,26.8,16.5,53.1,25.8,66.7c7,9.5,16.1,20.2,21,30.9c2.8,7,3.7,14.4,6.6,21.8 c6.6,18.1,12.8,38.3,21.4,55.2c4.6,8.6,9.5,17.7,15.2,25.5c3.3,4.5,9.1,6.6,10.3,14c-5.8,8.2-6.2,20.6-9.5,30.9 c-14.8,46.5-9.1,104.1,11.9,138.3c6.6,10.3,22.1,32.9,43.2,24.3c18.5-7.4,14.4-30.9,19.7-51.4c1.2-4.9,0.4-8.2,2.9-11.5v0.8 l16.9,34.2c12.8,20.2,35,41.2,53.5,55.2c9.9,7.4,17.7,20.2,30,24.7v-1.2h-0.8c-2.5-3.7-6.2-5.4-9.5-8.2 c-7.4-7.4-15.6-16.5-21.4-24.7c-17.3-23-32.5-48.6-46.1-74.9c-6.6-12.8-12.4-26.8-17.7-39.5c-2.5-4.9-2.5-12.4-6.6-14.8 c-6.2,9-15.2,16.9-19.8,28c-7.8,17.7-8.6,39.5-11.5,62.1c-1.7,0.4-0.9,0-1.7,0.8c-13.2-3.3-17.7-16.9-22.6-28.4 c-12.3-29.2-14.4-76.1-3.7-109.9c2.9-8.6,15.2-35.8,10.3-44c-2.5-7.8-10.7-12.3-15.2-18.5c-5.4-7.8-11.1-17.7-14.8-26.3 c-9.9-23.1-14.8-48.6-25.5-71.6c-5-10.7-13.6-21.8-20.6-31.7c-7.8-11.1-16.4-18.9-22.6-32.1c-2.1-4.5-4.9-11.9-1.6-16.9 c0.8-3.3,2.5-4.5,5.7-5.4c5.4-4.5,20.6,1.2,25.9,3.7c15.2,6.2,28,11.9,40.7,20.6c5.8,4.1,11.9,11.9,19.4,14h8.7 c13.2,2.9,28,0.8,40.3,4.5c21.8,7,41.6,17.3,59.3,28.4c53.9,34.2,98.4,82.7,128.4,140.8c4.9,9.5,7,18.1,11.5,28 c8.7,20.2,19.4,40.7,28,60.5c8.7,19.3,16.9,39.1,29.2,55.2c6.2,8.6,30.9,13.2,42,17.7c8.2,3.7,21,7,28.4,11.5 c14,8.6,28,18.5,41.1,28C1568.6,911.5,1589.2,921.8,1590.5,930L1590.5,930z M1170.7,572.3c-5.7-0.1-11.4,0.6-16.9,2.1v0.8h0.8 c3.3,6.6,9.1,11.1,13.2,16.9l9.5,19.8l0.8-0.8c5.8-4.1,8.7-10.7,8.7-20.6c-2.5-2.9-2.9-5.8-4.9-8.6 C1179.4,577.7,1174,575.6,1170.7,572.3L1170.7,572.3z"></path> <path class="st1" d="M731.1,1237.5h154.8c18.1,0,35.4-3.7,49.4-10.3c23.5-10.7,34.6-25.1,34.6-44v-39.5c0-15.2-12.8-29.6-38.3-39.5 c-13.2-4.9-29.6-7.8-45.7-7.8h-65c-21.8,0-32.1-6.6-35-21c-0.4-1.6-0.4-3.3-0.4-4.9v-24.3c0-1.2,0-2.9,0.4-4.5 c2.9-11.1,8.6-14,27.7-16.1h158.5v-35.8H821.3c-21.8,0-33.3,1.2-43.6,4.5c-31.7,9.9-45.7,25.5-45.7,53.1v31.3 c0,24.3,27.2,44.9,73.3,49.8c4.9,0.4,10.3,0.4,15.6,0.4h55.6c2.1,0,4.1,0,5.7,0.4c16.9,1.6,24.3,4.5,29.2,10.7 c3.3,3.3,4.1,6.2,4.1,9.9v31.3c0,3.7-2.5,8.7-7.4,12.8s-12.8,7-23.1,7.4c-2.1,0-3.3,0.4-5.4,0.4H731.1V1237.5z M1304.8,1175.3 c0,36.6,27.7,57.2,82.7,61.3c5.4,0.4,10.3,0.8,15.6,0.8h139.9v-35.8H1402c-31.3,0-43.2-7.8-43.2-26.8V989.7h-54v185.6 L1304.8,1175.3z M1003.9,1177v-127.6c0-32.5,23-52.3,67.9-58.4c4.9-0.4,9.9-0.8,14.4-0.8h102.1c5.4,0,9.9,0.4,15.2,0.8 c44.9,6.2,67.5,25.9,67.5,58.4V1177c0,26.3-9.5,40.3-31.7,49.8l52.7,47.7h-62.1l-42.8-38.7l-43.2,2.5h-57.6 c-10.6-0.1-21.1-1.4-31.3-4.1C1020.8,1224.7,1003.9,1206.6,1003.9,1177z M1062,1174.1c0,1.6,0.9,3.3,1.2,5.4 c2.9,14.8,16.9,23,38.3,23h48.6l-44.4-40.3h62.1l39.1,35.4c7.4-4.1,11.9-9.9,13.6-17.3c0.4-1.6,0.4-3.7,0.4-5.4v-122.2 c0-1.6,0-3.3-0.4-4.9c-2.9-14-16.9-21.8-37.9-21.8h-81.1c-23.9,0-39.5,10.3-39.5,26.7L1062,1174.1z"></path> </g> </svg> 