<?xml version="1.0" encoding="UTF-8"?> <svg xmlns="http://www.w3.org/2000/svg" xmlns:xlink="http://www.w3.org/1999/xlink" version="1.1" id="Layer_1" x="0px" y="0px" viewBox="0 0 180 60" style="enable-background:new 0 0 180 60;" xml:space="preserve"> <style type="text/css"> .st0{fill:#FFFFFF;} .st1{fill:#0C1724;} </style> <g> <path d="M25,25.5c0.1-1.6,0.2-3.3,0.3-4.9c0.1-2.5,0-5.1,0.1-7.6c0.1-2.2,0.9-2.9,3.2-2.8c0.5,0,1,0,1.4,0c2.7,0.1,4.1,1.2,4.4,3.9 c0.2,1.6,0.2,3.3,0.2,5c0.1,5.9,0.1,11.8,0.1,17.6c0,0.9,0,1.8-0.2,2.7C34,41.2,32.9,42.1,31,42c-4.2-0.1-7.7-1.2-9.8-5.5 c-1.1-2.3-2.9-4.3-4.4-6.5c-0.7-1.1-1.4-2.2-2.2-3.3c-0.3-0.4-0.8-0.6-1.2-0.9c-0.2,0.4-0.7,0.8-0.7,1.3c-0.2,2-0.2,4-0.3,6 c-0.1,1.4-0.4,2.8-0.5,4.2c0,0.5,0,1.1,0.1,1.5c0.5,1.4,0,2.5-1.4,2.7c-1.5,0.2-3.1,0.3-4.6,0c-1.6-0.3-2.6-1.3-2.6-3.2 c0-1.4-0.1-2.7-0.2-4.1c-0.1-1.8,0.1-3.4,1.6-4.7c1-0.9,0.7-1.9,0.2-3.2c-0.9-2-1.6-4.2-1.8-6.4c-0.3-2.3,0.1-4.6,0.2-6.9 c0.1-2.3,0.5-2.7,2.7-2.8c1.2-0.1,2.3-0.4,3.5-0.7c1.8-0.5,2.9,0,3.6,1.7c0.6,1.4,1.2,2.6,2.8,3.3c0.7,0.3,1.3,1.2,1.8,2 c1.6,2.3,3.1,4.6,4.7,6.9c0.6,0.8,1.3,1.5,1.9,2.2C24.5,25.7,24.7,25.6,25,25.5z"></path> <path d="M72,28.3c0.1-1.5,0-3.2,0.5-4.8c1.5-5.1,7.6-7.2,12.7-4.4c0.4,0.2,0.8,0.5,1.2,0.8c0.9,0.6,1.5,0.6,2.4-0.2 c1.6-1.5,5.1-1.6,6.8-0.3c1.4,1,1.5,3.2,0.7,5.6c-0.4,1-0.5,2.2-0.4,3.3c0.2,2.7,0.6,5.3,0.8,8c0.2,2.1,0.4,4.1,0.4,6.2 c-0.1,3.3-3.5,7.4-6.7,8.3c-0.5,0.1-1.2,0.1-1.7-0.1c-2.1-0.9-4.1-0.6-6.3-0.1c-1.9,0.4-4,0.4-5.9,0c-2.3-0.5-3.9-2.2-4.6-4.6 c-0.6-1.9,0.7-3.4,2.7-2.9c2.4,0.7,4.9,1.4,7.2,2.4c1.8,0.8,3.4,0.9,4.9-0.3c1.5-1.3,1.6-3.1,1.4-4.9c-0.1-1.1-0.8-1.4-1.8-1 c-0.7,0.3-1.4,0.7-2,1.1c-3.4,1.8-7.3,0.6-9.1-2.8c-0.8-1.5-1.9-2.8-2.4-4.3C72.1,31.6,72.2,30,72,28.3z M88.4,30.1 c-0.6-1.7-0.9-3.1-1.6-4.3c-1.7-2.5-4.8-2.3-6.2,0.4c-1.2,2.2-1.1,4.6,0.1,6.9c1,1.9,3.8,2.3,5.4,0.8 C87.2,32.9,87.7,31.4,88.4,30.1z"></path> <path d="M40.7,35.4c0-0.3,0-0.6,0-0.9c-0.4-3.7,2.3-5.2,5.2-4.8c1.6,0.2,2.9-0.2,4.2-1c0.9-0.6,2.1-0.8,3.1-1.1 c1.1-0.3,2.4-0.4,3.4-0.8c1.2-0.5,1.5-1.7,1.2-2.9c-0.3-1.2-1.3-1.4-2.4-1.2c-2.4,0.4-4.6,0.8-6.5,2.7c-1.2,1.2-6.2,0.4-7.2-0.9 c-0.8-1-0.7-2.6,0.6-3.5c2.5-1.8,5.2-3.1,8.4-2.8c1.9,0.1,3.9,0.2,5.8-0.1c5.1-0.7,10.2,5.1,8.6,9.2c-0.5,1.2,0.1,2.7,0.2,4.1 c0.1,0.8,0.2,1.5,0.2,2.3c0,1.5-0.1,3,0,4.4c0.2,1.9-0.7,3.1-2.6,3c-2-0.1-4.2,0.9-5.9-1c-0.2-0.2-0.9,0-1.3,0.1 c-2.8,0.7-5.6,1.8-8.4,2C42.6,42.6,40.7,40.4,40.7,35.4z M52.5,37.4c1.5-0.7,3.6-1.5,5.6-2.5c0.3-0.1,0.5-1.2,0.3-1.3 c-1-0.7-2-1.6-3.2-1.9c-1.1-0.3-2.3,0.1-3.5,0.2c-2.1,0.2-3,1.1-2.9,3.1C48.8,36.5,49.9,37.4,52.5,37.4z"></path> <path d="M116.7,28.4c0.6-1.9,0.6-4.2,3.2-5.1c1-0.4,1.7-1.6,2.4-2.5c0.8-1.1,1.6-1.8,3.1-1.8c2.9,0.1,5.9,0.1,8.8,0.2 c4.9,0.2,7.6,2.3,9.1,7c1.5,4.4,0.1,10.1-3,12.8c-1.3,1.1-2.6,1.8-4.4,1.3c-0.7-0.2-1.7,0.2-2.4,0.7c-1.1,0.8-2.2,1.1-3.5,0.7 c-0.5-0.2-1.1-0.3-1.6-0.2c-3.8,0.5-6.5-1.7-9.2-3.9c-0.3-0.3-0.7-0.6-0.8-0.9C117.8,34,117.3,31.3,116.7,28.4z M125.3,29.9 c0.6,1.8,0.8,3.2,1.4,4.4c0.8,1.6,2.4,2.1,4.1,1.9c1.6-0.2,2.9-1.1,3.4-2.6c0.8-2.6,0.9-5.3-0.6-7.8c-1.4-2.4-4.3-2.9-6.1-0.7 C126.4,26.6,125.9,28.4,125.3,29.9z"></path> <path d="M159.5,17.7c2.2,0.4,4.3,0.6,6.4,1.1c0.9,0.2,1.9,0.8,2.5,1.6c0.6,0.7,0.9,1.8,0.8,2.7c-0.1,0.5-1.2,1-1.9,1.2 c-2.1,0.7-4,0.5-6-0.6c-1-0.6-2.4-0.7-3.6-0.7c-0.6,0-1.4,0.9-1.6,1.5c-0.1,0.4,0.8,1.4,1.3,1.5c1.9,0.5,3.8,1,5.7,1.2 c2.9,0.3,5.3,1.7,7.2,3.6c2.4,2.3,0.7,8.1-2.6,9.1c-3.4,1-7,2-10.5,2.1c-2.4,0.1-4.9-1-7.3-1.9c-1.3-0.5-2.2-1.8-1.9-3.3 c0.3-1.6,1.7-1.7,3-1.9c2.3-0.4,4.4-0.2,6.2,1.6c1.3,1.3,3.2,1.3,4.8,0.4c0.5-0.3,1.1-1,1.1-1.6c0-0.5-0.6-1.2-1.2-1.5 c-1.5-0.8-3-1.5-4.5-2c-1-0.4-2.2-0.5-3.3-0.4c-3,0.1-5.1-1.2-6.1-3.9c-0.9-2.5,0.1-5.6,2.1-7.2C153,18.2,156.1,17.8,159.5,17.7z"></path> <path d="M111.4,24c0.2,4.6,0.4,9.2,0.5,13.8c0.1,2.2-0.7,3.5-2.3,4c-1.9,0.6-4.6,0-5.5-1.5c-1.3-2-1.8-4.1-0.7-6.4 c0.4-1,0.6-2.2,0.5-3.3c-0.2-2.2-0.7-4.4-1-6.7c-0.1-0.8-0.2-1.7-0.1-2.5c0.2-1.9,1.2-2.8,3.1-2.9c0.1,0,0.1,0,0.2,0 C111.1,18.4,111.7,19.1,111.4,24z"></path> <path d="M10.9,46.3c3.1-0.2,6.3-0.5,9.4-0.7c1.1-0.1,2.3-0.1,3.4-0.1c2.5,0.2,5,0.4,7.5,0.6c0.1,0,0.2,0,0.4,0 c1.3,0.1,2.8,0.2,3,1.9c0.2,1.2-1.3,2.2-3.1,2.3c-1,0-2-0.1-3-0.1c-3.9,0-7.8,0.1-11.7,0.1c-4.2,0-8.4-0.1-12.7-0.3 c-0.6,0-1.6-0.6-1.7-1.1c-0.1-0.7,0.2-1.8,0.7-2.2c0.9-0.6,2.2-0.9,3.3-1c1.5-0.1,3.1,0.2,4.6,0.3C10.9,46.2,10.9,46.3,10.9,46.3z"></path> <path d="M107.5,15.5c-0.5,0-1.1,0-1.6,0c-1.7-0.2-2.6-1.2-2.6-2.8c0-1.9,1.2-3.1,2.9-3.2c0.6,0,1.2-0.1,1.8,0.1 c1,0.3,2.4,0.5,2.7,1.1c0.4,1.1,0.4,2.7-0.1,3.7c-0.4,0.8-1.9,1-2.9,1.5C107.6,15.7,107.6,15.6,107.5,15.5z"></path> <path class="st0" d="M88.4,30.1c-0.7,1.3-1.3,2.8-2.3,3.8c-1.6,1.6-4.4,1.1-5.4-0.8c-1.2-2.2-1.3-4.6-0.1-6.9 c1.4-2.7,4.5-2.9,6.2-0.4C87.6,27,87.8,28.4,88.4,30.1z"></path> <path class="st0" d="M52.5,37.4c-2.5,0-3.7-0.9-3.7-2.5c0-2,0.8-2.9,2.9-3.1c1.2-0.1,2.4-0.5,3.5-0.2c1.2,0.3,2.2,1.1,3.2,1.9 c0.2,0.1,0,1.2-0.3,1.3C56,35.8,54,36.7,52.5,37.4z"></path> <path class="st0" d="M125.3,29.9c0.7-1.5,1.2-3.3,2.2-4.7c1.8-2.2,4.6-1.7,6.1,0.7c1.5,2.5,1.4,5.1,0.6,7.8 c-0.5,1.5-1.7,2.4-3.4,2.6c-1.7,0.2-3.3-0.4-4.1-1.9C126,33.1,125.8,31.7,125.3,29.9z"></path> <g> <path class="st1" d="M173.1,9.2c-2.7,0-4.7,2.2-4.7,4.9s2,4.9,4.7,4.9s4.7-2.2,4.7-4.9S175.8,9.2,173.1,9.2z M173.1,18.2 c-2.2,0-3.9-1.8-3.9-4.1s1.6-4.1,3.9-4.1c2,0,3.9,1.8,3.9,4.1C177,16.4,175.2,18.2,173.1,18.2z"></path> <path class="st1" d="M174.8,15.6c-0.2-0.8-0.4-1.2-0.8-1.4l0,0c0.6-0.2,1-0.6,1-1.2c0-0.4-0.2-0.8-0.4-1.2 c-0.4-0.2-0.8-0.4-1.6-0.4c-0.6,0-1,0-1.4,0.2V17h0.8v-2.2h0.6c0.6,0,1,0.2,1.2,1c0.2,0.6,0.2,1.2,0.4,1.4h1 C175.2,16.8,175,16.4,174.8,15.6z M172.7,13.9h-0.6v-1.8c0.2,0,0.4,0,0.6,0c1,0,1.2,0.4,1.2,1C174.2,13.7,173.6,13.9,172.7,13.9z"></path> </g> </g> </svg> 