<?xml version="1.0" encoding="UTF-8"?> <svg xmlns="http://www.w3.org/2000/svg" width="117" height="34" viewBox="0 0 117 34" fill="none"><path d="M107.506 33.8265C107.223 33.8265 106.942 33.7524 106.695 33.6081L104.111 32.0792C103.725 31.8637 103.913 31.7867 104.041 31.7428C104.555 31.5634 104.66 31.5215 105.209 31.2114C105.266 31.1792 105.341 31.1909 105.401 31.226L107.385 32.4049C107.457 32.4448 107.56 32.4448 107.625 32.4049L115.364 27.9382C115.437 27.8973 115.483 27.8144 115.483 27.7286V18.7972C115.483 18.7095 115.437 18.6285 115.363 18.5837L107.627 14.1209C107.555 14.08 107.46 14.08 107.388 14.1209L99.653 18.5847C99.5789 18.6285 99.5311 18.7124 99.5311 18.7972V27.7286C99.5311 27.8144 99.5789 27.8953 99.653 27.9353L101.773 29.1609C102.923 29.7352 103.628 29.0585 103.628 28.378V19.5587C103.628 19.4349 103.729 19.3364 103.852 19.3364H104.834C104.956 19.3364 105.058 19.4349 105.058 19.5587V28.378C105.058 29.9127 104.222 30.7931 102.766 30.7931C102.319 30.7931 101.967 30.7931 100.984 30.3095L98.9548 29.1414C98.4527 28.8509 98.1436 28.3087 98.1436 27.7296V18.7982C98.1436 18.218 98.4527 17.6769 98.9548 17.3883L106.694 12.9158C107.183 12.6398 107.834 12.6398 108.319 12.9158L116.058 17.3883C116.559 17.6779 116.87 18.219 116.87 18.7982V27.7296C116.87 28.3097 116.559 28.8489 116.058 29.1414L108.319 33.609C108.073 33.7524 107.794 33.8265 107.506 33.8265ZM109.898 27.673C106.509 27.673 105.801 26.1178 105.801 24.8142C105.801 24.6913 105.901 24.5909 106.025 24.5909H107.025C107.137 24.5909 107.23 24.6709 107.248 24.7801C107.398 25.799 107.849 26.3128 109.898 26.3128C111.527 26.3128 112.221 25.9443 112.221 25.0784C112.221 24.5792 112.024 24.2097 109.491 23.961C107.373 23.7514 106.064 23.2843 106.064 21.5888C106.064 20.0277 107.38 19.0956 109.586 19.0956C112.065 19.0956 113.292 19.9565 113.447 21.8033C113.453 21.8657 113.43 21.9271 113.388 21.9749C113.345 22.0188 113.287 22.046 113.225 22.046H112.219C112.115 22.046 112.023 21.9729 112.002 21.8715C111.76 20.799 111.175 20.4567 109.585 20.4567C107.805 20.4567 107.599 21.0778 107.599 21.541C107.599 22.1036 107.842 22.2674 110.246 22.5852C112.624 22.9002 113.754 23.3448 113.754 25.017C113.755 26.7067 112.349 27.673 109.898 27.673Z" fill="#83CD29"></path><path d="M91.5709 21.815C91.876 21.6365 92.0642 21.3109 92.0642 20.9569V18.6617C92.0642 18.3087 91.877 17.9831 91.5709 17.8046L83.4156 13.0698C83.1085 12.8914 82.7302 12.8904 82.4221 13.0679L74.2161 17.8056C73.91 17.9831 73.7208 18.3097 73.7208 18.6636V28.1371C73.7208 28.493 73.9119 28.8226 74.222 28.9991L82.3762 33.6451C82.6765 33.8177 83.0451 33.8187 83.3484 33.651L88.2801 30.9092C88.4371 30.8214 88.5346 30.6576 88.5356 30.4802C88.5365 30.3008 88.441 30.135 88.2859 30.0463L80.0293 25.3076C79.8743 25.2188 79.7797 25.055 79.7797 24.8786V21.9086C79.7797 21.7311 79.8743 21.5683 80.0274 21.4805L82.5985 19.9985C82.7506 19.9098 82.9398 19.9098 83.0929 19.9985L85.6641 21.4805C85.8181 21.5693 85.9127 21.7321 85.9127 21.9086V24.2448C85.9127 24.4232 86.0073 24.587 86.1604 24.6748C86.3144 24.7635 86.5036 24.7635 86.6576 24.6738L91.5709 21.815Z" fill="#404137"></path><path d="M82.7975 21.3703C82.8569 21.3372 82.9291 21.3372 82.9876 21.3703L84.5623 22.2801C84.6208 22.3142 84.6569 22.3776 84.6569 22.4448V24.2633C84.6569 24.3315 84.6208 24.3939 84.5623 24.4281L82.9876 25.3368C82.9291 25.3709 82.856 25.3709 82.7975 25.3368L81.2237 24.4281C81.1643 24.3939 81.1282 24.3315 81.1282 24.2633V22.4448C81.1282 22.3776 81.1643 22.3142 81.2237 22.2801L82.7975 21.3703Z" fill="#83CD29"></path><path d="M61.4431 25.1535C61.4431 25.2412 61.3963 25.3231 61.3193 25.368L58.5014 26.9924C58.4244 27.0372 58.3298 27.0372 58.2537 26.9924L55.4359 25.368C55.3589 25.3231 55.312 25.2412 55.312 25.1535V21.8988C55.312 21.811 55.3598 21.7281 55.4359 21.6833L58.2537 20.0569C58.3308 20.0111 58.4254 20.0111 58.5024 20.0569L61.3212 21.6833C61.3973 21.7281 61.4441 21.811 61.4441 21.8988L61.4431 25.1535ZM62.2046 1.05438C62.0515 0.96955 61.8643 0.971501 61.7122 1.06023C61.5611 1.14993 61.4675 1.31179 61.4675 1.4873V14.0799C61.4675 14.2028 61.4012 14.3178 61.2949 14.3802C61.1876 14.4417 61.055 14.4417 60.9478 14.3802L58.8924 13.1956C58.5862 13.0191 58.2089 13.0191 57.9027 13.1956L49.6949 17.9323C49.3877 18.1098 49.1986 18.4374 49.1986 18.7913V28.2677C49.1986 28.6217 49.3877 28.9483 49.6939 29.1268L57.9018 33.8664C58.2079 34.0439 58.5862 34.0439 58.8934 33.8664L67.1032 29.1268C67.4094 28.9483 67.5985 28.6217 67.5985 28.2677V4.64545C67.5985 4.28663 67.4035 3.95512 67.0905 3.77961L62.2046 1.05438Z" fill="#404137"></path><path d="M33.3181 13.0171C33.6243 12.8397 34.0026 12.8397 34.3087 13.0171L42.5166 17.7529C42.8228 17.9303 43.0119 18.258 43.0119 18.6119V28.0912C43.0119 28.4452 42.8228 28.7728 42.5166 28.9502L34.3097 33.6899C34.0035 33.8664 33.6252 33.8664 33.3181 33.6899L25.1131 28.9502C24.807 28.7728 24.6178 28.4452 24.6178 28.0912V18.6109C24.6178 18.258 24.807 17.9303 25.1131 17.7529L33.3181 13.0171Z" fill="#83CD29"></path><path d="M18.3922 18.533C18.3922 18.1761 18.205 17.8485 17.8969 17.672L9.6919 12.9499C9.55149 12.868 9.39646 12.8261 9.23948 12.8202H9.15465C8.99864 12.8261 8.84264 12.868 8.70223 12.9499L0.496296 17.672C0.191108 17.8485 0 18.1761 0 18.533L0.0175508 31.2475C0.0175508 31.425 0.11018 31.5898 0.265211 31.6756C0.417317 31.7672 0.6055 31.7672 0.757606 31.6756L5.63281 28.8831C5.94092 28.6997 6.1291 28.377 6.1291 28.0231V22.0831C6.1291 21.7282 6.31631 21.4016 6.62345 21.2241L8.70028 20.0287C8.85434 19.938 9.02399 19.8951 9.1956 19.8951C9.36526 19.8951 9.53882 19.938 9.68995 20.0287L11.7648 21.2241C12.072 21.4016 12.2611 21.7282 12.2611 22.0831V28.0231C12.2611 28.377 12.4513 28.7017 12.7574 28.8831L17.6326 31.6756C17.7857 31.7672 17.9768 31.7672 18.1279 31.6756C18.2791 31.5888 18.3737 31.424 18.3737 31.2475L18.3922 18.533Z" fill="#404137"></path></svg> 