<?xml version="1.0" encoding="UTF-8"?> <svg xmlns:svg="http://www.w3.org/2000/svg" xmlns="http://www.w3.org/2000/svg" xmlns:xlink="http://www.w3.org/1999/xlink" version="1.1" id="svg63728" x="0px" y="0px" viewBox="0 0 617.6 245.6" style="enable-background:new 0 0 617.6 245.6;" xml:space="preserve"> <style type="text/css"> .st0{fill:#8BAED9;} .st1{fill:#8F833E;} .st2{fill:#7D963D;} .st3{fill:#C9D121;} .st4{fill:#E8B410;} </style> <g id="layer1" transform="translate(-8209.368,2574.252)"> <g id="g94366" transform="translate(17.75014,17.74984)"> <path id="path93967" class="st0" d="M8558.5-2574.2h-11.7l-43.5,69.8l-43.5-69.8h-11.9v210h11.9l43.5-69.8l43.5,69.8h11.9 l-0.2-0.2V-2574.2z"></path> <path id="path93969" class="st1" d="M8447.8-2574.2h-64.6l64.5,105l-64.5,105h64.6V-2574.2z"></path> <path id="path93971" class="st2" d="M8623.1-2574.2h-64.6v209.9l0.2,0.2l64.5,0l-64.5-105L8623.1-2574.2z"></path> <path id="path93973" class="st3" d="M8731.3-2489.5c0,12.5-5.8,26.8-21,26.8h-87v-59.4h81.5c19.5,0,26.5,8.1,26.5,22.3V-2489.5z M8715.1-2574.2h-92.1l-64.5,105l64.5,105l0,0v-46.4H8732c45.8,0,59.5-35.9,59.5-67.2v-24.7 C8791.5-2543.6,8776.6-2574.2,8715.1-2574.2"></path> <path id="path93975" class="st4" d="M8447.7-2469.2l-64.5-105v0v126.9l-109.3-126.9h-64.6v210.1l64.6,0l-0.1-126.9l109.3,126.9 L8447.7-2469.2z"></path> </g> </g> </svg> 