<?xml version="1.0" encoding="UTF-8"?> <svg xmlns:sodipodi="http://sodipodi.sourceforge.net/DTD/sodipodi-0.dtd" xmlns:svg="http://www.w3.org/2000/svg" xmlns:rdf="http://www.w3.org/1999/02/22-rdf-syntax-ns#" xmlns:inkscape="http://www.inkscape.org/namespaces/inkscape" xmlns:cc="http://creativecommons.org/ns#" xmlns:dc="http://purl.org/dc/elements/1.1/" xmlns="http://www.w3.org/2000/svg" xmlns:xlink="http://www.w3.org/1999/xlink" version="1.1" id="svg26" sodipodi:docname="apple_objectivec-ar21.svg" x="0px" y="0px" viewBox="0 0 64 64" style="enable-background:new 0 0 64 64;" xml:space="preserve"> <style type="text/css"> .st0{fill:#F1592A;} </style> <g id="Layer_2_00000058586907681295734470000000551853150406940082_" transform="matrix(0.65762897,0,0,0.65762897,34.875476,4.8752901)"> <g id="Layer_1-2"> <path id="path8" inkscape:connector-curvature="0" class="st0" d="M-4.5,85.5c-23.8,0-43.9-20.1-44.1-44 c-0.1-11.7,4.5-22.8,12.7-31.1C-27.6,1.9-16.2-2.9-4.4-3l0,0c11.6,0,22.8,4.6,31,12.9C35,18,39.7,29.2,39.8,40.8 c0.1,24.4-19.5,44.4-44,44.6H-4.5z M-4.4-0.7C-15.6-0.6-26.3,4-34.2,12c-7.8,7.8-12.2,18.4-12.1,29.4C-46.1,64.1-27,83.1-4.5,83.1 h0.3C19,82.9,37.6,64,37.5,40.8c-0.1-11-4.6-21.6-12.5-29.3C17.2,3.7,6.7-0.7-4.4-0.7z"></path> <path id="path10" inkscape:connector-curvature="0" class="st0" d="M-38.7,54.2V28.3h6.3v2.3h-3.3v21.2h3.3v2.3L-38.7,54.2z"></path> <path id="path12" inkscape:connector-curvature="0" class="st0" d="M-17.3,41c0,4.7-2.9,7.4-6.7,7.4s-6.5-3-6.5-7.2 c0-4.3,2.7-7.4,6.7-7.4S-17.3,37.1-17.3,41z M-27.8,41.2c0,2.9,1.4,5.1,3.9,5.1S-20,44-20,41.1c0-2.7-1.3-5.1-3.9-5.1 S-27.8,38.4-27.8,41.2L-27.8,41.2z"></path> <path id="path14" inkscape:connector-curvature="0" class="st0" d="M-15.2,34.4c1.2-0.2,2.5-0.3,3.7-0.3c1.4-0.1,2.8,0.2,4,0.9 c0.9,0.5,1.5,1.6,1.5,2.6c0,1.4-1,2.6-2.3,3l0,0c1.7,0.3,2.8,1.8,2.8,3.5c0,1.1-0.5,2.2-1.4,2.9c-1,0.9-2.7,1.3-5.2,1.3 c-1.1,0-2.1-0.1-3.1-0.2L-15.2,34.4z M-12.6,39.9h1.3c1.8,0,2.8-0.8,2.8-2c0-1.2-1-1.9-2.6-1.9c-0.5,0-1,0-1.5,0.1L-12.6,39.9z M-12.6,46.4c0.4,0,0.9,0.1,1.4,0.1c1.6,0,3.1-0.6,3.1-2.3s-1.4-2.3-3.2-2.3h-1.3V46.4z"></path> <path id="path16" inkscape:connector-curvature="0" class="st0" d="M-0.4,34.2h2.6v9.1c0,3.9-1.9,5.2-4.6,5.2 c-0.7,0-1.5-0.1-2.2-0.4l0.3-2.1c0.5,0.2,1,0.2,1.6,0.3c1.5,0,2.3-0.7,2.3-3.1L-0.4,34.2z"></path> <path id="path18" inkscape:connector-curvature="0" class="st0" d="M9.5,41.8v1.8H4.1v-1.8H9.5z"></path> <path id="path20" inkscape:connector-curvature="0" class="st0" d="M21.9,47.8c-1.2,0.5-2.4,0.7-3.6,0.6c-4.5,0-7.2-2.8-7.2-7.1 c-0.2-3.9,2.8-7.2,6.7-7.4c0.3,0,0.5,0,0.8,0c1.2,0,2.4,0.2,3.5,0.6l-0.6,2c-0.9-0.4-1.8-0.6-2.8-0.5c-2.9,0-4.9,1.8-4.9,5.2 c0,3.1,1.8,5.1,4.9,5.1c1,0,1.9-0.2,2.8-0.5L21.9,47.8z"></path> <path id="path22" inkscape:connector-curvature="0" class="st0" d="M29.9,28.3v25.9h-6.3v-2.3H27V30.6h-3.3v-2.3H29.9z"></path> </g> </g> </svg> 