<?xml version="1.0" encoding="UTF-8"?> <svg xmlns="http://www.w3.org/2000/svg" width="64" height="64" viewBox="0 0 64 64" fill="none"><g clip-path="url(#clip0_1653_32911)"><path d="M31.5 41.3648C36.8241 41.3648 41.1402 37.0487 41.1402 31.7246C41.1402 26.4005 36.8241 22.0845 31.5 22.0845C26.1759 22.0845 21.8599 26.4005 21.8599 31.7246C21.8599 37.0487 26.1759 41.3648 31.5 41.3648Z" stroke="black" stroke-miterlimit="10"></path><path d="M31.5 50.8052V40.9277" stroke="black" stroke-miterlimit="10"></path><path d="M31.5 55.3754C32.8448 55.3754 33.935 54.2852 33.935 52.9404C33.935 51.5956 32.8448 50.5054 31.5 50.5054C30.1551 50.5054 29.0649 51.5956 29.0649 52.9404C29.0649 54.2852 30.1551 55.3754 31.5 55.3754Z" stroke="black" stroke-miterlimit="10"></path><path d="M31.5 12.1948V22.0847" stroke="black" stroke-miterlimit="10"></path><path d="M31.5 12.5067C32.8448 12.5067 33.935 11.4166 33.935 10.0717C33.935 8.72691 32.8448 7.63672 31.5 7.63672C30.1551 7.63672 29.0649 8.72691 29.0649 10.0717C29.0649 11.4166 30.1551 12.5067 31.5 12.5067Z" stroke="black" stroke-miterlimit="10"></path><path d="M12.1947 31.5H22.0846" stroke="black" stroke-miterlimit="10"></path><path d="M10.0719 33.935C11.4167 33.935 12.5069 32.8448 12.5069 31.5C12.5069 30.1551 11.4167 29.0649 10.0719 29.0649C8.72703 29.0649 7.63684 30.1551 7.63684 31.5C7.63684 32.8448 8.72703 33.935 10.0719 33.935Z" stroke="black" stroke-miterlimit="10"></path><path d="M50.8053 31.5H40.9279" stroke="black" stroke-miterlimit="10"></path><path d="M52.9406 33.935C54.2855 33.935 55.3756 32.8448 55.3756 31.5C55.3756 30.1551 54.2855 29.0649 52.9406 29.0649C51.5958 29.0649 50.5056 30.1551 50.5056 31.5C50.5056 32.8448 51.5958 33.935 52.9406 33.935Z" stroke="black" stroke-miterlimit="10"></path><path d="M17.814 45.1234L24.8193 38.1431" stroke="black" stroke-miterlimit="10"></path><path d="M16.3031 49.057C17.6479 49.057 18.7381 47.9668 18.7381 46.622C18.7381 45.2772 17.6479 44.187 16.3031 44.187C14.9582 44.187 13.868 45.2772 13.868 46.622C13.868 47.9668 14.9582 49.057 16.3031 49.057Z" stroke="black" stroke-miterlimit="10"></path><path d="M45.186 17.8887L38.1807 24.8566" stroke="black" stroke-miterlimit="10"></path><path d="M46.697 18.8256C48.0418 18.8256 49.132 17.7354 49.132 16.3906C49.132 15.0458 48.0418 13.9556 46.697 13.9556C45.3522 13.9556 44.262 15.0458 44.262 16.3906C44.262 17.7354 45.3522 18.8256 46.697 18.8256Z" stroke="black" stroke-miterlimit="10"></path><path d="M17.8889 17.814L24.8568 24.8193" stroke="black" stroke-miterlimit="10"></path><path d="M16.3905 18.7382C17.7353 18.7382 18.8255 17.648 18.8255 16.3032C18.8255 14.9584 17.7353 13.8682 16.3905 13.8682C15.0456 13.8682 13.9554 14.9584 13.9554 16.3032C13.9554 17.648 15.0456 18.7382 16.3905 18.7382Z" stroke="black" stroke-miterlimit="10"></path><path d="M45.1236 45.186L38.1432 38.1807" stroke="black" stroke-miterlimit="10"></path><path d="M46.622 49.1322C47.9668 49.1322 49.057 48.042 49.057 46.6972C49.057 45.3524 47.9668 44.2622 46.622 44.2622C45.2772 44.2622 44.187 45.3524 44.187 46.6972C44.187 48.042 45.2772 49.1322 46.622 49.1322Z" stroke="black" stroke-miterlimit="10"></path><path d="M31.5 37.7811C34.8449 37.7811 37.5564 35.0696 37.5564 31.7248C37.5564 28.38 34.8449 25.6685 31.5 25.6685C28.1552 25.6685 25.4437 28.38 25.4437 31.7248C25.4437 35.0696 28.1552 37.7811 31.5 37.7811Z" stroke="black" stroke-miterlimit="10"></path><path d="M31.5 37.7811C34.8449 37.7811 37.5564 35.0696 37.5564 31.7248C37.5564 28.38 34.8449 25.6685 31.5 25.6685C28.1552 25.6685 25.4437 28.38 25.4437 31.7248C25.4437 35.0696 28.1552 37.7811 31.5 37.7811Z" stroke="url(#paint0_linear_1653_32911)" stroke-miterlimit="10"></path></g><defs><linearGradient id="paint0_linear_1653_32911" x1="29.4979" y1="29.8123" x2="42.1065" y2="40.7785" gradientUnits="userSpaceOnUse"><stop offset="0.236106" stop-color="#DA291C"></stop><stop offset="1" stop-color="#FFCD00"></stop></linearGradient><clipPath id="clip0_1653_32911"><rect width="49" height="49" fill="white" transform="translate(7 7)"></rect></clipPath></defs></svg> 