<?xml version="1.0" encoding="UTF-8"?> <svg xmlns:svg="http://www.w3.org/2000/svg" xmlns="http://www.w3.org/2000/svg" xmlns:xlink="http://www.w3.org/1999/xlink" version="1.1" id="svg45453" x="0px" y="0px" viewBox="0 0 180 60" style="enable-background:new 0 0 180 60;" xml:space="preserve"> <style type="text/css"> .st0{fill:#C22133;} .st1{fill:#DB212E;} .st2{fill:#EB2126;} .st3{fill:#AD213B;} .st4{fill:#BA2133;} </style> <g> <path id="path44560" class="st0" d="M120.9,16.1c-0.7-1.4-1.5-2.8-2.4-4.1l-9.9,3.6c1.2,1.2,2.1,2.5,2.9,3.9L120.9,16.1z M77,27.1 l-9.9,3.6c0.1,1.6,0.4,3.2,0.8,4.7l9.4-3.4C77,30.4,76.9,28.7,77,27.1"></path> <path id="path44564" class="st1" d="M99.1,13.3c2.1,1,3.9,2.3,5.4,3.8l9.9-3.6c-2.8-3.9-6.5-7.1-11.1-9.2 C89.1-2.4,72.1,3.8,65.5,18c-2.1,4.6-2.9,9.5-2.6,14.2l9.9-3.6c0.2-2.2,0.7-4.3,1.7-6.4C78.8,13,89.9,9,99.1,13.3"></path> <path id="path44572" class="st1" d="M109.7,31.4c-0.2,2.2-0.7,4.3-1.7,6.4C103.7,47,92.7,51,83.5,46.7c-2.1-1-3.9-2.3-5.4-3.8 l-9.9,3.6c2.7,3.9,6.5,7.1,11.1,9.2c14.2,6.6,31.2,0.5,37.8-13.8c2.1-4.6,2.9-9.5,2.6-14.2L109.7,31.4L109.7,31.4z"></path> <path id="path44576" class="st2" d="M112.1,19.3l-9.4,3.4c1.8,3.1,2.6,6.8,2.3,10.4l9.9-3.6C114.6,26,113.7,22.5,112.1,19.3 M68.5,35.2l-9.4,3.4c0.9,3.4,2.4,6.7,4.4,9.6l9.9-3.6C70.9,42,69.2,38.7,68.5,35.2"></path> <path id="path44584" class="st3" d="M119.5,13.5c-0.3-0.5-0.6-1-1-1.5l-9.9,3.6c0.4,0.4,0.8,0.9,1.2,1.4L119.5,13.5z M77,29.1 c0-0.7,0-1.3,0-2l-9.9,3.6c0.1,0.6,0.1,1.3,0.2,1.9L77,29.1L77,29.1z"></path> <path id="path44588" class="st4" d="M119.6,27.8l-9.9,3.6c-0.1,1.4-0.4,2.9-0.8,4.3l10.8-3.9C119.7,30.4,119.7,29.1,119.6,27.8 M68.2,46.5c0.8,1.1,1.6,2.1,2.5,3.1l10.8-3.9c-1.3-0.8-2.4-1.7-3.4-2.7L68.2,46.5z"></path> </g> </svg> 