<?xml version="1.0" encoding="UTF-8"?> <svg xmlns="http://www.w3.org/2000/svg" xmlns:xlink="http://www.w3.org/1999/xlink" version="1.1" id="Layer_1" x="0px" y="0px" viewBox="0 0 180 60" style="enable-background:new 0 0 180 60;" xml:space="preserve"> <style type="text/css"> .st0{fill:#FFFFFF;} </style> <g> <path class="st0" d="M91.5,1.3c1,0.2,2,0.3,3,0.5c7.3,2,12,6.5,13.7,13.9c0.7,3.1,0.3,6.1-0.9,9.1c-2.8,6.8-7,12.4-12.7,17 c-0.8,0.6-1.7,1.1-2.6,1.6c-1.2,0.6-2.5,0.7-3.7,0S85.8,42,84.7,41c-5-4.3-8.9-9.5-11.6-15.6C69.2,16.7,73.6,8.1,80,4.1 c2.5-1.6,5.3-2.5,8.2-2.8c0.1,0,0.3-0.1,0.4-0.1C89.6,1.3,90.5,1.3,91.5,1.3z M98.4,6.6c-0.1,0.1-0.1,0.2-0.2,0.3 c-2.3,3.6-4.6,7.1-6.9,10.7c-0.7,1-1.8,1-2.4,0C86.6,14,84.3,10.5,82,6.9c-0.1-0.1-0.1-0.2-0.2-0.3c-0.1,0.1-0.2,0.1-0.4,0.2 c-5.2,3.4-8.7,10.4-5.5,17.6c2.6,5.8,6.4,10.7,11.2,14.8c0.6,0.5,1.3,0.9,2,1.3c0.6,0.4,1.3,0.4,1.9,0c0.5-0.3,1-0.6,1.4-0.9 c5.1-4.2,9.1-9.2,11.8-15.3c1.2-2.7,1.6-5.5,0.9-8.4C104.2,11.9,101.9,8.9,98.4,6.6z M84.5,6.1c0.1,0.4,0.3,0.6,0.8,0.6 c3.2,0,6.3,0,9.5,0c0.5,0,0.6-0.2,0.7-0.6C91.8,6.1,88.2,6.1,84.5,6.1z M85.8,8c0.2,0.5,0.4,0.6,0.9,0.6c2.3,0,4.6,0,6.9,0 c0.5,0,0.7-0.2,0.8-0.6C91.4,8,88.6,8,85.8,8z M87,9.9c0.1,0.5,0.4,0.6,0.8,0.6c1.5,0,3,0,4.5,0c0.4,0,0.6-0.2,0.7-0.6 C91,9.9,89,9.9,87,9.9z M93.9,4.8c-2.6-0.7-5.2-0.7-7.8,0C88.7,4.8,91.3,4.8,93.9,4.8z M91.8,11.9c-1.2,0-2.4,0-3.6,0 c0.1,0.4,0.4,0.6,0.9,0.6c0.6,0,1.3,0,1.9,0C91.4,12.5,91.7,12.3,91.8,11.9z M90,14.7c0.2-0.4,0.4-0.6,0.6-0.9c-0.4,0-0.8,0-1.2,0 C89.6,14.1,89.8,14.4,90,14.7z"></path> <path class="st0" d="M117.5,55.5c-0.1,0.2-0.1,0.3-0.2,0.5c-0.5,1-1.4,1.3-2.8,0.8c0,0.6,0,1.2,0,1.8c-0.4,0-0.8,0-1.2,0 c0-1.9,0-3.8,0-5.8c0.4,0,0.9-0.3,1.1,0.4c1.2-1,2.7-0.3,3.1,1.2C117.5,54.8,117.5,55.1,117.5,55.5z M116.2,55 c0-0.6-0.3-1.1-0.8-1.1s-0.8,0.4-0.9,1c0,0.6,0.3,1,0.9,1C115.9,55.9,116.2,55.6,116.2,55z"></path> <path class="st0" d="M107.8,51.2c0.5,0,0.9,0,1.4,0c0,0.2,0,0.4,0,0.5c0,0.9,0,1.9,0,2.8c0,0.5,0.1,1,0.7,1.2 c0.7,0.3,1.4-0.2,1.4-1c0-1,0-1.9,0-2.9c0-0.2,0-0.4,0-0.6c0.5,0,0.9,0,1.3,0c0,1.4,0.1,2.7,0,4c-0.1,1.2-1.1,1.8-2.5,1.8 c-1.2,0-2.1-0.8-2.2-2c0-0.2,0-0.4,0-0.6C107.8,53.4,107.8,52.3,107.8,51.2z"></path> <path class="st0" d="M77.3,55.9c0.2,0,0.4,0.1,0.6,0.1c0.4,0,0.8,0,1.2,0.1c0.5,0.1,0.9,0.4,1,0.9s-0.1,1-0.5,1.3 c-0.7,0.5-2,0.5-2.8,0c-0.7-0.5-0.8-1-0.2-1.6c-0.5-0.7-0.5-1,0.2-1.6c-0.5-0.4-0.7-1-0.4-1.6c0.3-0.7,0.9-0.9,1.5-0.9 c0.2,0,0.4,0,0.5,0.1c0.5,0.2,1,0.1,1.3-0.4c0.2,0.3,0.4,0.5,0.6,0.8c-0.2,0.1-0.4,0.3-0.6,0.4c0.3,1.3-0.3,2-1.6,2 c-0.3,0-0.5,0-0.8,0C77.3,55.7,77.3,55.8,77.3,55.9z M78.1,54.7c0.3,0,0.6-0.2,0.6-0.5s-0.2-0.5-0.5-0.5s-0.6,0.1-0.6,0.5 C77.5,54.5,77.8,54.7,78.1,54.7z M77.3,57.3c0.3,0.4,0.8,0.6,1.2,0.3c0.1-0.1,0.2-0.2,0.2-0.3S78.6,57,78.5,57 C78.1,56.9,77.7,56.8,77.3,57.3z"></path> <path class="st0" d="M93.7,55.1c0,0.6,0,1.2,0,1.8c-0.4,0-0.8,0-1.3,0c0-1.9,0-3.8,0-5.8c1,0.1,2.1,0,3.1,0.2c0.9,0.2,1.3,1,1.2,2 c0,0.9-0.6,1.5-1.4,1.7C94.8,55.1,94.2,55.1,93.7,55.1z M93.7,53.9c0.6-0.1,1.2,0.2,1.6-0.4c0.1-0.2,0.1-0.6,0-0.8 c-0.4-0.5-1-0.2-1.6-0.3C93.7,52.9,93.7,53.4,93.7,53.9z"></path> <path class="st0" d="M63.8,55.1c0,0.6,0,1.2,0,1.8c-0.4,0-0.8,0-1.3,0c0-1.9,0-3.8,0-5.7c1,0,2-0.1,2.9,0s1.4,0.9,1.4,1.9 s-0.5,1.6-1.5,1.8C64.9,55.1,64.3,55.1,63.8,55.1z M63.8,52.4c0,0.5,0,1,0,1.5c0.6-0.1,1.2,0.2,1.6-0.4c0.1-0.2,0.1-0.6,0-0.8 C65,52.2,64.3,52.5,63.8,52.4z"></path> <path class="st0" d="M103.6,51.1c0.4,0,0.8,0,1.2,0c0,1,0,1.9,0,2.8l0.1,0.1c0.7-0.8,1.3-1.6,2.6-1.1c-0.3,0.4-0.7,0.7-1,1.1 c-0.6,0.7-0.6,0.4-0.1,1.1c0.4,0.6,0.8,1.1,1.2,1.8c-0.6-0.1-1.1,0.2-1.5-0.2s-0.6-0.9-0.9-1.3c-0.5,0.4-0.1,1-0.3,1.5 c-0.4,0-0.8,0-1.2,0C103.6,55,103.6,53.1,103.6,51.1z"></path> <path class="st0" d="M84.7,57c-0.4-0.1-1,0.3-1.2-0.4c-0.3,0.2-0.7,0.4-1,0.5c-1,0.2-1.9-0.4-1.9-1.5c-0.1-0.9,0-1.7,0-2.7 c0.4,0,0.8,0,1.3,0c0,0.5,0,1,0,1.4c0,0.3,0,0.6,0,0.9c0.1,0.4,0.3,0.7,0.8,0.7s0.7-0.3,0.7-0.7c0-0.5,0-1,0-1.5c0-0.2,0-0.5,0-0.8 c0.4,0,0.8,0,1.3,0C84.7,54.2,84.7,55.6,84.7,57z"></path> <path class="st0" d="M71,55.3c-0.9,0-1.9,0-2.8,0c0.1,0.7,0.8,1,1.4,0.6s0.6-0.4,1.4-0.3c0,0.9-1,1.5-2.2,1.4s-2-1.1-1.9-2.3 c0.1-1.3,1.2-2.1,2.5-1.9C70.5,53,71.2,54,71,55.3z M69.8,54.4c-0.2-0.5-0.6-0.6-1-0.6c-0.3,0-0.6,0.2-0.6,0.6 C68.8,54.4,69.3,54.4,69.8,54.4z"></path> <path class="st0" d="M71.5,57c0-1.4,0-2.7,0-4c0.7-0.2,1-0.1,1.2,0.3c0.4-0.2,0.7-0.4,1.1-0.5c1-0.2,1.8,0.5,2,1.6 c0,0.1,0,0.3,0,0.4c0,0.7,0,1.4,0,2.1c-0.4,0-0.9,0-1.3,0c0-0.5,0-1.1,0-1.6c0-0.2,0-0.5,0-0.7C74.3,54.2,74,54,73.6,54 s-0.7,0.2-0.7,0.7s0,1,0,1.5c0,0.3,0,0.6,0,0.9C72.4,57,72,57,71.5,57z"></path> <path class="st0" d="M87.5,57c0-1.4,0-2.7,0-4c0.7-0.2,1-0.1,1.2,0.3c0.4-0.2,0.7-0.4,1.1-0.5c0.9-0.2,1.7,0.3,1.8,1.3 c0.1,0.9,0,1.9,0,2.9c-0.4,0-0.8,0-1.3,0c0-0.7,0-1.4,0-2.1c0-0.4-0.1-0.7-0.5-0.9c-0.5-0.2-1,0.2-1.1,0.8c0,0.5,0,1,0,1.5 c0,0.2,0,0.4,0,0.6C88.4,57,88,57,87.5,57z"></path> <path class="st0" d="M103.1,54.4c-0.5-0.1-1.1,0.2-1.5-0.4c-0.1-0.1-0.4-0.2-0.6-0.2c-0.5,0-0.7,0.4-0.8,0.8 c-0.1,0.5,0,0.9,0.4,1.2c0.4,0.2,0.7,0.1,1.1-0.1c0.4-0.2,0.9-0.2,1.3-0.3c-0.1,1.1-0.9,1.7-2.1,1.7s-2.1-0.9-2.1-2.1 c0-1.2,0.9-2.2,2.1-2.2C102.1,52.7,103,53.4,103.1,54.4z"></path> <path class="st0" d="M85.5,52.9c0.4,0,0.8,0,1.2,0c0,1.4,0,2.7,0,4.1c-0.4,0-0.8,0-1.2,0C85.5,55.6,85.5,54.2,85.5,52.9z"></path> <path class="st0" d="M98.4,52.9c0,1.4,0,2.7,0,4.1c-0.4,0-0.8,0-1.2,0c0-1.3,0-2.7,0-4.1C97.5,52.9,97.9,52.9,98.4,52.9z"></path> <path class="st0" d="M97.7,50.9c0.4,0,0.8,0.4,0.8,0.8c0,0.4-0.4,0.8-0.8,0.8s-0.8-0.4-0.8-0.8C96.9,51.3,97.3,50.9,97.7,50.9z"></path> <path class="st0" d="M86.1,50.9c0.4,0,0.8,0.3,0.8,0.8c0,0.4-0.3,0.8-0.8,0.8c-0.4,0-0.8-0.4-0.8-0.8 C85.3,51.3,85.7,50.9,86.1,50.9z"></path> <path class="st0" d="M89.9,30.3c-0.2-0.2-0.5-0.3-0.6-0.4c-1.3-1.6-2.5-3.2-3.8-4.7c-0.3-0.3-0.2-0.6,0.2-0.8 c1.3-0.7,2.5-1.4,3.8-2.1c0.3-0.1,0.7-0.1,1,0c1.3,0.6,2.5,1.3,3.7,2c0.5,0.2,0.5,0.4,0.2,0.8c-1.2,1.6-2.5,3.1-3.8,4.7 C90.4,30,90.1,30.1,89.9,30.3z"></path> <path class="st0" d="M83.4,19.4c0,0.9-0.7,1.6-1.5,1.6c-0.9,0-1.6-0.7-1.6-1.5c0-0.9,0.7-1.5,1.5-1.5 C82.7,17.9,83.4,18.5,83.4,19.4z"></path> <path class="st0" d="M97.7,18.6c0.7,0,1.3,0.2,1.8,0.7c0.1,0.1,0.3,0.5,0.2,0.6c-0.1,0.1-0.4,0.3-0.6,0.2c-0.9-0.2-1.8-0.2-2.8,0 c-0.2,0-0.6-0.1-0.6-0.2c-0.1-0.2,0-0.5,0.2-0.7C96.4,18.8,97,18.6,97.7,18.6z"></path> </g> </svg> 