<?xml version="1.0" encoding="UTF-8"?> <svg xmlns="http://www.w3.org/2000/svg" width="92" height="55" viewBox="0 0 92 55" fill="none"><path d="M45.833 0.581055C20.705 0.581055 0.333008 12.6696 0.333008 27.5811C0.333008 42.4925 20.705 54.5811 45.833 54.5811C70.961 54.5811 91.333 42.4925 91.333 27.5811C91.333 12.6696 70.961 0.581055 45.833 0.581055ZM33.9937 32.8413C32.9078 34.0308 31.702 34.5218 30.3741 35.0276C29.0463 35.5343 27.3564 35.4296 25.3016 35.4296H20.6447L19.354 44.1503H13.9166L18.7686 14.5001H29.225C32.3708 14.5001 34.6654 15.5596 36.108 17.493C37.5506 19.4264 37.984 22.1708 37.4091 25.6355C37.1715 27.063 36.7716 28.3903 36.2071 29.5728C35.6418 30.7562 34.9037 31.8611 33.9937 32.8413ZM49.8651 35.4296L52.0107 22.8545C52.255 21.3824 52.1656 20.2888 51.7419 19.7543C51.3174 19.2188 50.4147 18.8604 49.0347 18.8604H44.7226L41.9439 35.4296H36.5489L41.401 6.6515H46.796L45.5061 14.5001H50.312C53.3364 14.5001 55.4217 15.2108 56.5694 16.4457C57.717 17.6805 58.0611 19.3723 57.6024 22.1385L55.345 35.4296H49.8651ZM79.8482 25.6817C79.6113 27.1093 79.2106 28.4139 78.6469 29.5955C78.0823 30.7789 77.345 31.8611 76.4342 32.8413C75.3484 34.0308 74.1418 34.5218 72.8147 35.0276C71.4875 35.5343 69.7962 35.4296 67.7414 35.4296H63.0845L61.7946 44.1503H56.3571L61.2085 14.5001H71.6655C74.8114 14.5001 77.106 15.5596 78.5478 17.493C79.9889 19.4264 80.4231 22.2179 79.8482 25.6817ZM69.6048 18.8604H65.8803L63.8493 31.0693H67.1575C69.3486 31.0693 70.9826 30.8164 72.055 29.8484C73.129 28.8822 73.8521 27.3822 74.2282 25.121C74.5887 22.9486 74.4249 21.2542 73.7367 20.3612C73.0478 19.4682 71.6708 18.8604 69.6048 18.8604ZM27.165 18.8604H23.4397L21.4088 31.0693H24.7163C26.9081 31.0693 28.5413 30.8164 29.6145 29.8484C30.6877 28.8822 31.4116 27.3822 31.7869 25.121C32.1474 22.9486 31.9836 21.2542 31.2954 20.3612C30.6073 19.4682 29.231 18.8604 27.165 18.8604Z" fill="#6181B6"></path></svg> 