<?xml version="1.0" encoding="UTF-8"?> <svg xmlns="http://www.w3.org/2000/svg" width="64" height="64" viewBox="0 0 64 64" fill="none"><g clip-path="url(#clip0_1576_35487)"><path d="M52.79 28.4302C53 29.6702 53.11 30.9402 53.11 32.2402C53.11 44.5702 43.11 54.5702 30.78 54.5702C18.45 54.5702 8.45996 44.5702 8.45996 32.2402C8.45996 19.9102 18.45 9.91016 30.79 9.91016C35.14 9.91016 39.19 11.1502 42.62 13.3002" stroke="white" stroke-linecap="round" stroke-linejoin="round"></path><path d="M49.1699 35.9803C49.4199 36.0903 49.7199 35.9703 49.8199 35.7103L52.7899 28.6603L57.9199 34.3303C58.1099 34.5303 58.4199 34.5503 58.6299 34.3703C58.8299 34.1803 58.8499 33.8703 58.6699 33.6603L53.0099 27.4103C52.8999 27.2803 52.7199 27.2203 52.5599 27.2503C52.3899 27.2803 52.2499 27.3903 52.1799 27.5503L48.9099 35.3203C48.8699 35.4103 48.8599 35.5103 48.8799 35.6003C48.9099 35.7603 49.0199 35.9103 49.1799 35.9803H49.1699Z" fill="white"></path><path d="M30.79 46.3299C38.5716 46.3299 44.88 40.0216 44.88 32.2399C44.88 24.4582 38.5716 18.1499 30.79 18.1499C23.0083 18.1499 16.7 24.4582 16.7 32.2399C16.7 40.0216 23.0083 46.3299 30.79 46.3299Z" stroke="white" stroke-linecap="round" stroke-linejoin="round"></path><path d="M29.3599 34.3302H25.6499V30.9702H29.3599" stroke="black" stroke-linecap="round" stroke-linejoin="round"></path><path d="M29.3599 34.3302H25.6499V30.9702H29.3599" stroke="url(#paint0_linear_1576_35487)" stroke-linecap="round" stroke-linejoin="round"></path><path d="M32.73 30.9702H36.44V34.3302H32.73" stroke="black" stroke-linecap="round" stroke-linejoin="round"></path><path d="M32.73 30.9702H36.44V34.3302H32.73" stroke="url(#paint1_linear_1576_35487)" stroke-linecap="round" stroke-linejoin="round"></path><path d="M29.3601 30.97V27.25H32.7301V30.97" stroke="black" stroke-linecap="round" stroke-linejoin="round"></path><path d="M29.3601 30.97V27.25H32.7301V30.97" stroke="url(#paint2_linear_1576_35487)" stroke-linecap="round" stroke-linejoin="round"></path><path d="M32.7301 34.3301V38.0401H29.3601V34.3301" stroke="black" stroke-linecap="round" stroke-linejoin="round"></path><path d="M32.7301 34.3301V38.0401H29.3601V34.3301" stroke="url(#paint3_linear_1576_35487)" stroke-linecap="round" stroke-linejoin="round"></path><path d="M52.2201 9.09L49.3 9.75L48.6301 12.67L47.9701 9.75L45.05 9.09L47.9701 8.43L48.6301 5.5L49.3 8.43L52.2201 9.09Z" stroke="white" stroke-linecap="round" stroke-linejoin="round"></path><path d="M13.67 54.57L10.75 55.23L10.09 58.16L9.43 55.23L6.5 54.57L9.43 53.91L10.09 50.98L10.75 53.91L13.67 54.57Z" stroke="white" stroke-linecap="round" stroke-linejoin="round"></path></g><defs><linearGradient id="paint0_linear_1576_35487" x1="26.8916" y1="32.1197" x2="30.4205" y2="35.5085" gradientUnits="userSpaceOnUse"><stop offset="0.236106" stop-color="#DA291C"></stop><stop offset="1" stop-color="#FFCD00"></stop></linearGradient><linearGradient id="paint1_linear_1576_35487" x1="33.9717" y1="32.1197" x2="37.5005" y2="35.5085" gradientUnits="userSpaceOnUse"><stop offset="0.236106" stop-color="#DA291C"></stop><stop offset="1" stop-color="#FFCD00"></stop></linearGradient><linearGradient id="paint2_linear_1576_35487" x1="30.4881" y1="28.5226" x2="34.2896" y2="31.5179" gradientUnits="userSpaceOnUse"><stop offset="0.236106" stop-color="#DA291C"></stop><stop offset="1" stop-color="#FFCD00"></stop></linearGradient><linearGradient id="paint3_linear_1576_35487" x1="30.4881" y1="35.5993" x2="34.2818" y2="38.5965" gradientUnits="userSpaceOnUse"><stop offset="0.236106" stop-color="#DA291C"></stop><stop offset="1" stop-color="#FFCD00"></stop></linearGradient><clipPath id="clip0_1576_35487"><rect width="52.8" height="53.66" fill="white" transform="translate(6 5)"></rect></clipPath></defs></svg> 