<?xml version="1.0" encoding="UTF-8"?> <svg xmlns="http://www.w3.org/2000/svg" xmlns:xlink="http://www.w3.org/1999/xlink" version="1.1" id="Layer_1" x="0px" y="0px" viewBox="0 0 180 60" style="enable-background:new 0 0 180 60;" xml:space="preserve"> <style type="text/css"> .st0{fill:#F15B6C;} .st1{fill:#1F212B;} .st2{fill:#FEFDEF;} </style> <path class="st0" d="M106.2,57.3H73.8c-6.1,0-11.1-5-11.1-11.1V13.8c0-6.1,5-11.1,11.1-11.1h32.4c6.1,0,11.1,5,11.1,11.1v32.4 C117.3,52.3,112.3,57.3,106.2,57.3z"></path> <path class="st1" d="M104.1,53.9H75.9c-5.4,0-9.8-4.4-9.8-9.8V15.9c0-5.4,4.4-9.8,9.8-9.8h28.2c0.3,0,0.6,0,0.9,0 c0.2,0,0.4,0.2,0.4,0.5c0,0.2-0.2,0.4-0.5,0.4c-0.3,0-0.5,0-0.8,0H75.9c-4.9,0-9,4-9,9v28.2c0,4.9,4,9,9,9h28.2c4.9,0,9-4,9-9V29.6 c0-0.2,0.2-0.4,0.4-0.4s0.4,0.2,0.4,0.4v14.5C113.9,49.5,109.5,53.9,104.1,53.9z M113.5,21.5c-0.2,0-0.4-0.2-0.4-0.4v-1.7 c0-0.2,0.2-0.4,0.4-0.4s0.4,0.2,0.4,0.4V21C113.9,21.3,113.7,21.5,113.5,21.5z M113.5,27.4c-0.2,0-0.4-0.2-0.4-0.4v-3.4 c0-0.2,0.2-0.4,0.4-0.4s0.4,0.2,0.4,0.4V27C113.9,27.2,113.7,27.4,113.5,27.4z"></path> <path class="st1" d="M106.2,58.2H73.8c-6.6,0-12-5.4-12-12V13.8c0-6.6,5.4-12,12-12h32.4c6.6,0,12,5.4,12,12v32.4 C118.2,52.8,112.8,58.2,106.2,58.2z M73.8,3.5c-5.6,0-10.2,4.6-10.2,10.2v32.4c0,5.6,4.6,10.2,10.2,10.2h32.4 c5.6,0,10.2-4.6,10.2-10.2V13.8c0-5.6-4.6-10.2-10.2-10.2H73.8z"></path> <path class="st2" d="M100.2,28.6c-2.7,0.5-6.4,0.7-10.2,0.7c-3.8,0-7.5-0.3-10.2-0.7c-3.1-0.5-4.6-1.3-5-2.3 c-0.1,0.2-0.1,0.4-0.1,0.6v6.1c0,1.4,1.5,2.3,5.2,2.9c2.7,0.5,6.4,0.7,10.2,0.7c3.8,0,7.5-0.3,10.2-0.7c3.6-0.6,5.2-1.5,5.2-2.9 v-6.1c0-0.2,0-0.4-0.1-0.6C104.8,27.4,103.3,28.1,100.2,28.6"></path> <path class="st2" d="M100.2,38.5c-2.7,0.5-6.4,0.7-10.2,0.7c-3.8,0-7.5-0.3-10.2-0.7c-3.1-0.5-4.6-1.3-5-2.3 c-0.1,0.2-0.1,0.4-0.1,0.6v6.1c0,1.4,1.5,2.3,5.2,2.9c2.7,0.5,6.4,0.7,10.2,0.7c3.8,0,7.5-0.3,10.2-0.7c3.6-0.6,5.2-1.5,5.2-2.9 v-6.1c0-0.2,0-0.4-0.1-0.6C104.8,37.2,103.3,37.9,100.2,38.5"></path> <path class="st2" d="M100.2,14.1c-2.7-0.5-6.4-0.7-10.2-0.7c-3.8,0-7.5,0.3-10.2,0.7c-3.6,0.6-5.2,1.5-5.2,2.9v6.1 c0,1.4,1.5,2.3,5.2,2.9c2.7,0.5,6.4,0.7,10.2,0.7c3.8,0,7.5-0.3,10.2-0.7c3.6-0.6,5.2-1.5,5.2-2.9v-6.1 C105.4,15.7,103.8,14.8,100.2,14.1z M90,14.6c7.8,0,14.1,1.1,14.1,2.5c0,1.4-6.3,2.5-14.1,2.5c-7.8,0-14.1-1.1-14.1-2.5 S82.2,14.6,90,14.6z"></path> <path class="st0" d="M95.3,22.8c-0.4,0-0.7-0.3-0.7-0.7c0-0.4,0.3-0.8,0.7-0.8c1.9-0.1,3.6-0.3,5-0.6c0.5-0.1,1.2-0.2,1.9-0.4 c0.4-0.1,0.8,0.1,0.9,0.5c0.1,0.4-0.1,0.8-0.5,0.9c-0.8,0.2-1.5,0.3-2.1,0.4C99.1,22.4,97.3,22.6,95.3,22.8 C95.4,22.8,95.3,22.8,95.3,22.8z"></path> <path class="st0" d="M95.3,32.6c-0.4,0-0.7-0.3-0.7-0.7c0-0.4,0.3-0.8,0.7-0.8c1.9-0.1,3.6-0.3,5-0.6c0.5-0.1,1.2-0.2,1.9-0.4 c0.4-0.1,0.8,0.1,0.9,0.5c0.1,0.4-0.1,0.8-0.5,0.9c-0.8,0.2-1.5,0.3-2.1,0.4C99.1,32.3,97.3,32.5,95.3,32.6 C95.4,32.6,95.3,32.6,95.3,32.6z"></path> <path class="st0" d="M95.3,42.4c-0.4,0-0.7-0.3-0.7-0.7c0-0.4,0.3-0.8,0.7-0.8c1.9-0.1,3.6-0.3,5-0.6c0.5-0.1,1.2-0.2,1.9-0.4 c0.4-0.1,0.8,0.1,0.9,0.5c0.1,0.4-0.1,0.8-0.5,0.9c-0.8,0.2-1.5,0.3-2.1,0.4C99.1,42.1,97.3,42.3,95.3,42.4 C95.4,42.4,95.3,42.4,95.3,42.4z"></path> </svg> 