<?xml version="1.0" encoding="UTF-8"?> <svg xmlns="http://www.w3.org/2000/svg" xmlns:xlink="http://www.w3.org/1999/xlink" version="1.1" id="Layer_1" x="0px" y="0px" viewBox="0 0 64 64" style="enable-background:new 0 0 64 64;" xml:space="preserve"> <style type="text/css"> .st0{fill-rule:evenodd;clip-rule:evenodd;fill:url(#Rectangle_00000111170109769550747340000014912207111684056470_);} .st1{filter:url(#filter-4);} .st2{fill-rule:evenodd;clip-rule:evenodd;} .st3{fill-rule:evenodd;clip-rule:evenodd;fill:url(#path-3_00000054227576897282589630000008882536561737302950_);} .st4{fill-rule:evenodd;clip-rule:evenodd;fill:url(#Combined-Shape_00000106844517935782248590000014192212259185060249_);} </style> <filter filterUnits="objectBoundingBox" height="116.9%" id="filter-4" width="136.5%" x="-9.1%" y="-6.3%"> <feOffset dx="20" dy="10" in="SourceAlpha" result="shadowOffsetOuter1"></feOffset> <feGaussianBlur in="shadowOffsetOuter1" result="shadowBlurOuter1" stdDeviation="10"></feGaussianBlur> <feColorMatrix in="shadowBlurOuter1" type="matrix" values="0 0 0 0 0 0 0 0 0 0 0 0 0 0 0 0 0 0 0.0530211976 0"> </feColorMatrix> </filter> <g id="PBI-Logo"> <g id="Group" transform="translate(77.500000, 0.000000)"> <linearGradient id="Rectangle_00000023276906207302084960000000397985361476731284_" gradientUnits="userSpaceOnUse" x1="-606.4003" y1="1249.1163" x2="-606.4003" y2="1249.0201" gradientTransform="matrix(219 0 0 -630 132768.5 786945)"> <stop offset="0" style="stop-color:#EBBB14"></stop> <stop offset="1" style="stop-color:#B25400"></stop> </linearGradient> <path id="Rectangle" style="fill-rule:evenodd;clip-rule:evenodd;fill:url(#Rectangle_00000023276906207302084960000000397985361476731284_);" d=" M-41.2,1.7h16.1c1.4,0,2.5,1.1,2.5,2.5v55.6c0,1.4-1.1,2.5-2.5,2.5h-16.1c-1.4,0-2.5-1.1-2.5-2.5V4.2C-43.7,2.8-42.6,1.7-41.2,1.7 z"></path> <g id="Combined-Shape"> <g class="st1"> <path id="path-3_00000169517355440460962720000012366769707927720594_" class="st2" d="M-35.1,59.8v2.5h-2.5h-16.1 c-1.4,0-2.5-1.1-2.5-2.5V19.3c0-1.4,1.1-2.5,2.5-2.5h16.1c1.4,0,2.5,1.1,2.5,2.5V59.8z"></path> </g> <g> <linearGradient id="path-3_00000168833387224693496220000011295039571618341037_" gradientUnits="userSpaceOnUse" x1="-605.868" y1="1248.7911" x2="-605.868" y2="1248.6948" gradientTransform="matrix(219 0 0 -473 132639.5 590695)"> <stop offset="0" style="stop-color:#F9E583"></stop> <stop offset="1" style="stop-color:#DE9800"></stop> </linearGradient> <path id="path-3_00000096024544467730881290000017900001320253119645_" style="fill-rule:evenodd;clip-rule:evenodd;fill:url(#path-3_00000168833387224693496220000011295039571618341037_);" d=" M-35.1,59.8v2.5h-2.5h-16.1c-1.4,0-2.5-1.1-2.5-2.5V19.3c0-1.4,1.1-2.5,2.5-2.5h16.1c1.4,0,2.5,1.1,2.5,2.5V59.8z"></path> </g> </g> <linearGradient id="Combined-Shape_00000013903922166574068450000007899882543917985460_" gradientUnits="userSpaceOnUse" x1="-605.3439" y1="1248.1365" x2="-605.3439" y2="1248.0403" gradientTransform="matrix(219 0 0 -315 132512.5 393195.0312)"> <stop offset="0" style="stop-color:#F9E68B"></stop> <stop offset="1" style="stop-color:#F3CD32"></stop> </linearGradient> <path id="Combined-Shape_00000106841693983155359510000003922501794378752658_" style="fill-rule:evenodd;clip-rule:evenodd;fill:url(#Combined-Shape_00000013903922166574068450000007899882543917985460_);" d=" M-47.3,59.8v2.5h-2.5h-16.1c-1.4,0-2.5-1.1-2.5-2.5V34.5c0-1.4,1.1-2.5,2.5-2.5h16.1c1.4,0,2.5,1.1,2.5,2.5V59.8z"></path> </g> </g> </svg> 