<?xml version="1.0" encoding="UTF-8"?> <svg xmlns="http://www.w3.org/2000/svg" xmlns:xlink="http://www.w3.org/1999/xlink" version="1.1" id="Layer_1" x="0px" y="0px" viewBox="0 0 180 60" style="enable-background:new 0 0 180 60;" xml:space="preserve"> <style type="text/css"> .st0{fill:#040404;} .st1{fill:#FFA61A;} </style> <g transform="matrix(10.7039 0 0 -10.6064 -416.69 8243.21)"> <path class="st0" d="M43.9,771.7h-0.6v2.6h0.6v-0.2c0.1,0.1,0.3,0.2,0.5,0.2c0.6,0,0.9-0.5,0.9-1c0-0.5-0.3-1-0.9-1 c-0.2,0-0.4,0.1-0.5,0.2V771.7z M43.9,773.1c0.1-0.1,0.2-0.2,0.3-0.2c0.3,0,0.5,0.2,0.5,0.5c0,0.3-0.2,0.5-0.5,0.5 c-0.2,0-0.3-0.1-0.4-0.2V773.1z"></path> <path class="st0" d="M47.2,772.5h-0.6v0.1c-0.1-0.1-0.3-0.2-0.5-0.2c-0.4,0-0.7,0.3-0.7,0.7v1.3h0.5v-1.2c0-0.2,0.1-0.3,0.3-0.3 c0.2,0,0.3,0.1,0.3,0.3v1.2h0.6V772.5z"></path> <path class="st0" d="M48.1,771.7h-0.5v2.6h0.5v-0.2c0.1,0.1,0.3,0.2,0.5,0.2c0.6,0,0.9-0.5,0.9-1c0-0.5-0.3-1-0.9-1 c-0.2,0-0.4,0.1-0.5,0.2V771.7z M48.1,773.1c0.1-0.1,0.2-0.2,0.4-0.2c0.3,0,0.5,0.2,0.5,0.5c0,0.3-0.2,0.5-0.5,0.5 c-0.2,0-0.3-0.1-0.4-0.2V773.1z"></path> <path class="st0" d="M50.2,771.7h-0.5v2.6h0.5v-0.2c0.1,0.1,0.3,0.2,0.5,0.2c0.6,0,0.9-0.5,0.9-1c0-0.5-0.3-1-0.9-1 c-0.2,0-0.4,0.1-0.5,0.2V771.7z M50.2,773.1c0.1-0.1,0.2-0.2,0.4-0.2c0.3,0,0.5,0.2,0.5,0.5c0,0.3-0.2,0.5-0.5,0.5 c-0.2,0-0.3-0.1-0.4-0.2V773.1z"></path> <path class="st0" d="M53.5,773c-0.1-0.4-0.4-0.7-0.9-0.7c-0.6,0-0.9,0.4-0.9,1c0,0.6,0.4,1,0.9,1c0.6,0,0.9-0.4,0.9-1v-0.2h-1.3 c0-0.3,0.2-0.5,0.4-0.5c0.2,0,0.3,0.1,0.4,0.2H53.5z M52.2,773.6h0.7c0,0.1-0.1,0.4-0.3,0.4C52.4,774,52.2,773.9,52.2,773.6"></path> <path class="st0" d="M53.8,773.9h-0.3v0.4h0.3v0.5h0.5v-0.5h0.4v-0.4h-0.4v-0.8c0-0.2,0.1-0.2,0.2-0.2c0.1,0,0.2,0,0.2,0.1v-0.5 c-0.1,0-0.2-0.1-0.3-0.1c-0.4,0-0.6,0.2-0.6,0.6V773.9z"></path> <path class="st1" d="M42.5,775.5h-1.2v-1.2h1.2V775.5z"></path> <path class="st1" d="M40.7,773.3h-0.4v0.4h0.4V773.3z M41.1,774.1h-1.2v-1.2h1.2V774.1z"></path> <path class="st1" d="M41.4,775.2l-0.7,0.7l0.3,0.3l0.7-0.7L41.4,775.2z"></path> <path class="st1" d="M41.1,773.9l-0.3,0.3l0.6,0.6l0.3-0.3L41.1,773.9z"></path> <path class="st1" d="M40.7,776.2h-0.4v0.4h0.4V776.2z M41.1,777h-1.2v-1.2h1.2V777z"></path> </g> </svg> 