<?xml version="1.0" encoding="UTF-8"?> <svg xmlns="http://www.w3.org/2000/svg" xmlns:xlink="http://www.w3.org/1999/xlink" version="1.1" id="Layer_1" x="0px" y="0px" viewBox="0 0 180 60" style="enable-background:new 0 0 180 60;" xml:space="preserve"> <style type="text/css"> .st0{fill:#FFFFFF;} .st1{fill:#FFA61A;} </style> <path class="st0" d="M53.2,57.9h-6.3V30h6.3v1.8c0.8-1.1,2.8-2.1,5-2.1c6,0,9.3,4.9,9.3,10.7c0,5.8-3.3,10.6-9.3,10.6 c-2.2,0-4.3-1.1-5.1-2.1V57.9z M53.2,43.7c0.8,1.4,2.1,2.4,3.7,2.4c3.1,0,4.9-2.5,4.9-5.7c0-3.3-1.7-5.8-4.8-5.8c-1.7,0-3,1-3.8,2.4 V43.7z"></path> <path class="st0" d="M88.4,50.2h-6.3v-1.5c-0.8,1.3-3,2.3-5.4,2.3c-4.6,0-7.1-3-7.1-7.5V30h5.5v12.3c0,2.1,1.1,3.6,3.3,3.6 c1.8,0,3.7-1.1,3.7-2.8V30h6.3V50.2z"></path> <path class="st0" d="M97.8,57.9h-5.5V30h5.5v1.8c0.8-1.1,2.9-2.1,5.1-2.1c6,0,9.4,4.9,9.4,10.7c0,5.8-3.4,10.6-9.4,10.6 c-2.2,0-4.3-1.1-5.1-2.1V57.9z M97.8,43.7c0.8,1.4,2.1,2.4,3.8,2.4c3.1,0,4.9-2.5,4.9-5.7c0-3.3-1.8-5.8-4.9-5.8c-1.7,0-3,1-3.8,2.4 V43.7z"></path> <path class="st0" d="M120.6,57.9h-5.5V30h5.5v1.8c0.8-1.1,2.9-2.1,5.1-2.1c6,0,9.4,4.9,9.4,10.7c0,5.8-3.4,10.6-9.4,10.6 c-2.2,0-4.3-1.1-5.1-2.1V57.9z M120.6,43.7c0.8,1.4,2.2,2.4,3.8,2.4c3.1,0,4.9-2.5,4.9-5.7c0-3.3-1.8-5.8-4.9-5.8 c-1.7,0-3.1,1-3.8,2.4V43.7z"></path> <path class="st0" d="M155.5,44c-0.7,3.9-4,7.1-9.1,7.1c-6,0-10-4.4-10-10.7c0-6.2,4.2-10.7,10-10.7c6,0,9.4,4.1,9.4,10.1v1.9h-13.9 c0.2,3.1,1.9,4.9,4.5,4.9c1.9,0,3.4-1,3.8-2.6H155.5z M142.1,37.8h8c0-1.6-1.3-3.8-3.7-3.8C144.2,33.9,142.6,35.4,142.1,37.8"></path> <path class="st0" d="M159.7,34.7h-3.1V30h3.1v-5.4h5.5V30h4.7v4.7h-4.7v9c0,1.6,0.8,2.3,2.3,2.3c0.9,0,1.6-0.3,2.4-0.7v5 c-0.8,0.4-2,0.6-3.5,0.6c-4.2,0-6.7-2.1-6.7-6.6V34.7z"></path> <path class="st1" d="M38.3,17.6H25.8V30h12.5V17.6z"></path> <path class="st1" d="M18.7,40.9h-3.9V37h3.9V40.9z M23.4,32.3H10.1v13.2h13.3V32.3z"></path> <path class="st1" d="M26,20.7l-7.9-7.8l3.1-3l7.9,7.8L26,20.7z"></path> <path class="st1" d="M23.3,35.3l-3.1-3l6.3-6.2l3.1,3L23.3,35.3z"></path> <path class="st1" d="M18.7,10.6h-3.9V6.7h3.9V10.6z M23.4,2.1H10.1v13.2h13.3V2.1z"></path> </svg> 