<?xml version="1.0" encoding="UTF-8"?> <svg xmlns="http://www.w3.org/2000/svg" width="64" height="64" viewBox="0 0 64 64" fill="none"><path d="M32.1123 57.9999V52.4912" stroke="black" stroke-linecap="round" stroke-linejoin="round"></path><path d="M32.1123 8.23193V18.9859" stroke="black" stroke-linecap="round" stroke-linejoin="round"></path><path d="M44.5562 54.6711L40.101 46.9458" stroke="black" stroke-linecap="round" stroke-linejoin="round"></path><path d="M19.6759 11.5679L22.9313 17.2082" stroke="black" stroke-linecap="round" stroke-linejoin="round"></path><path d="M53.6641 45.5635L45.8291 41.0352" stroke="black" stroke-linecap="round" stroke-linejoin="round"></path><path d="M10.568 20.6753L14.6281 23.0163" stroke="black" stroke-linecap="round" stroke-linejoin="round"></path><path d="M57 33.1196H51.1768" stroke="black" stroke-linecap="round" stroke-linejoin="round"></path><path d="M13.3552 33.1196H7.23206" stroke="black" stroke-linecap="round" stroke-linejoin="round"></path><path d="M18.5566 40.9399L10.568 45.5634" stroke="black" stroke-linecap="round" stroke-linejoin="round"></path><path d="M53.6641 20.6753L49.7942 22.9139" stroke="black" stroke-linecap="round" stroke-linejoin="round"></path><path d="M44.5561 11.5679L41.308 17.1936" stroke="black" stroke-linecap="round" stroke-linejoin="round"></path><path d="M19.6759 54.6715L24.175 46.873" stroke="black" stroke-linecap="round" stroke-linejoin="round"></path><path d="M31.6511 38.0909V27.1818H32.35V38.0909H31.6511ZM34.0034 30.4545C33.9522 30.0227 33.7449 29.6875 33.3812 29.4489C33.0176 29.2102 32.5716 29.0909 32.0431 29.0909C31.6568 29.0909 31.3187 29.1534 31.0289 29.2784C30.742 29.4034 30.5176 29.5753 30.3556 29.794C30.1966 30.0128 30.117 30.2614 30.117 30.5398C30.117 30.7727 30.1724 30.973 30.2832 31.1406C30.3968 31.3054 30.5417 31.4432 30.7179 31.554C30.894 31.6619 31.0787 31.7514 31.2718 31.8224C31.465 31.8906 31.6426 31.946 31.8045 31.9886L32.6909 32.2273C32.9181 32.2869 33.171 32.3693 33.4494 32.4744C33.7306 32.5795 33.9991 32.723 34.2548 32.9048C34.5133 33.0838 34.7264 33.3139 34.894 33.5952C35.0616 33.8764 35.1454 34.2216 35.1454 34.6307C35.1454 35.1023 35.0218 35.5284 34.7747 35.9091C34.5304 36.2898 34.1724 36.5923 33.7008 36.8168C33.2321 37.0412 32.6625 37.1534 31.992 37.1534C31.367 37.1534 30.8258 37.0526 30.3684 36.8509C29.9139 36.6491 29.5559 36.3679 29.2946 36.0071C29.036 35.6463 28.8897 35.2273 28.8556 34.75H29.9466C29.975 35.0795 30.0858 35.3523 30.2789 35.5682C30.475 35.7812 30.7221 35.9403 31.0204 36.0455C31.3216 36.1477 31.6454 36.1989 31.992 36.1989C32.3954 36.1989 32.7576 36.1335 33.0787 36.0028C33.3997 35.8693 33.6539 35.6847 33.8414 35.4489C34.0289 35.2102 34.1227 34.9318 34.1227 34.6136C34.1227 34.3239 34.0417 34.0881 33.8798 33.9062C33.7179 33.7244 33.5048 33.5767 33.2406 33.4631C32.9764 33.3494 32.6909 33.25 32.3841 33.1648L31.3102 32.858C30.6284 32.6619 30.0886 32.3821 29.6909 32.0185C29.2931 31.6548 29.0943 31.179 29.0943 30.5909C29.0943 30.1023 29.2264 29.6761 29.4906 29.3125C29.7576 28.946 30.1156 28.6619 30.5645 28.4602C31.0162 28.2557 31.5204 28.1534 32.0772 28.1534C32.6397 28.1534 33.1397 28.2543 33.5772 28.456C34.0147 28.6548 34.3613 28.9276 34.617 29.2741C34.8755 29.6207 35.0119 30.0142 35.0261 30.4545H34.0034Z" fill="black"></path><path d="M31.6511 38.0909V27.1818H32.35V38.0909H31.6511ZM34.0034 30.4545C33.9522 30.0227 33.7449 29.6875 33.3812 29.4489C33.0176 29.2102 32.5716 29.0909 32.0431 29.0909C31.6568 29.0909 31.3187 29.1534 31.0289 29.2784C30.742 29.4034 30.5176 29.5753 30.3556 29.794C30.1966 30.0128 30.117 30.2614 30.117 30.5398C30.117 30.7727 30.1724 30.973 30.2832 31.1406C30.3968 31.3054 30.5417 31.4432 30.7179 31.554C30.894 31.6619 31.0787 31.7514 31.2718 31.8224C31.465 31.8906 31.6426 31.946 31.8045 31.9886L32.6909 32.2273C32.9181 32.2869 33.171 32.3693 33.4494 32.4744C33.7306 32.5795 33.9991 32.723 34.2548 32.9048C34.5133 33.0838 34.7264 33.3139 34.894 33.5952C35.0616 33.8764 35.1454 34.2216 35.1454 34.6307C35.1454 35.1023 35.0218 35.5284 34.7747 35.9091C34.5304 36.2898 34.1724 36.5923 33.7008 36.8168C33.2321 37.0412 32.6625 37.1534 31.992 37.1534C31.367 37.1534 30.8258 37.0526 30.3684 36.8509C29.9139 36.6491 29.5559 36.3679 29.2946 36.0071C29.036 35.6463 28.8897 35.2273 28.8556 34.75H29.9466C29.975 35.0795 30.0858 35.3523 30.2789 35.5682C30.475 35.7812 30.7221 35.9403 31.0204 36.0455C31.3216 36.1477 31.6454 36.1989 31.992 36.1989C32.3954 36.1989 32.7576 36.1335 33.0787 36.0028C33.3997 35.8693 33.6539 35.6847 33.8414 35.4489C34.0289 35.2102 34.1227 34.9318 34.1227 34.6136C34.1227 34.3239 34.0417 34.0881 33.8798 33.9062C33.7179 33.7244 33.5048 33.5767 33.2406 33.4631C32.9764 33.3494 32.6909 33.25 32.3841 33.1648L31.3102 32.858C30.6284 32.6619 30.0886 32.3821 29.6909 32.0185C29.2931 31.6548 29.0943 31.179 29.0943 30.5909C29.0943 30.1023 29.2264 29.6761 29.4906 29.3125C29.7576 28.946 30.1156 28.6619 30.5645 28.4602C31.0162 28.2557 31.5204 28.1534 32.0772 28.1534C32.6397 28.1534 33.1397 28.2543 33.5772 28.456C34.0147 28.6548 34.3613 28.9276 34.617 29.2741C34.8755 29.6207 35.0119 30.0142 35.0261 30.4545H34.0034Z" fill="url(#paint0_linear_1576_33793)"></path><defs><linearGradient id="paint0_linear_1576_33793" x1="30.6776" y1="30.1579" x2="43.4031" y2="35.077" gradientUnits="userSpaceOnUse"><stop offset="0.236106" stop-color="#DA291C"></stop><stop offset="1" stop-color="#FFCD00"></stop></linearGradient></defs></svg> 