<?xml version="1.0" encoding="UTF-8"?> <svg xmlns="http://www.w3.org/2000/svg" width="69" height="68" viewBox="0 0 69 68" fill="none"><path d="M34.2586 0.865234C17.1609 0.865234 18.2285 8.27982 18.2285 8.27982L18.2475 15.9615H34.5635V18.2678H11.767C11.767 18.2678 0.826172 17.027 0.826172 34.2785C0.826172 51.5304 10.3756 50.9186 10.3756 50.9186H16.0747V42.913C16.0747 42.913 15.7674 33.3636 25.4716 33.3636H41.6542C41.6542 33.3636 50.7461 33.5105 50.7461 24.5766V9.80493C50.7461 9.80493 52.1269 0.865234 34.2586 0.865234ZM25.262 6.03105C25.6475 6.0307 26.0294 6.10639 26.3857 6.25377C26.7419 6.40116 27.0657 6.61735 27.3383 6.88999C27.6109 7.16262 27.8271 7.48633 27.9745 7.84261C28.1219 8.19889 28.1976 8.58073 28.1972 8.96629C28.1976 9.35185 28.1219 9.73369 27.9745 10.09C27.8271 10.4462 27.6109 10.77 27.3383 11.0426C27.0657 11.3152 26.7419 11.5314 26.3857 11.6788C26.0294 11.8262 25.6475 11.9019 25.262 11.9015C24.8764 11.9019 24.4946 11.8262 24.1383 11.6788C23.782 11.5314 23.4583 11.3152 23.1857 11.0426C22.9131 10.77 22.6969 10.4462 22.5495 10.09C22.4021 9.73369 22.3264 9.35185 22.3267 8.96629C22.3264 8.58073 22.4021 8.19889 22.5495 7.84261C22.6969 7.48633 22.9131 7.16262 23.1857 6.88999C23.4583 6.61735 23.782 6.40116 24.1383 6.25377C24.4946 6.10639 24.8764 6.0307 25.262 6.03105Z" fill="url(#paint0_linear_1236_21681)"></path><path d="M34.7449 67.8647C51.8426 67.8647 50.775 60.4501 50.775 60.4501L50.756 52.7686H34.4397V50.4623H57.2363C57.2363 50.4623 68.1771 51.7032 68.1771 34.4512C68.1771 17.1994 58.6277 17.8113 58.6277 17.8113H52.9286V25.8166C52.9286 25.8166 53.2358 35.366 43.5316 35.366H27.349C27.349 35.366 18.2572 35.2191 18.2572 44.1533V58.9252C18.2572 58.9252 16.8766 67.8647 34.7446 67.8647H34.7449ZM43.7415 62.6994C43.356 62.6997 42.9741 62.624 42.6179 62.4766C42.2616 62.3293 41.9379 62.1131 41.6652 61.8404C41.3926 61.5678 41.1764 61.2441 41.029 60.8878C40.8816 60.5315 40.8059 60.1497 40.8063 59.7641C40.8059 59.3785 40.8816 58.9967 41.0289 58.6404C41.1763 58.2841 41.3925 57.9603 41.6651 57.6876C41.9378 57.415 42.2615 57.1988 42.6178 57.0514C42.9741 56.904 43.356 56.8283 43.7415 56.8286C44.1271 56.8283 44.5089 56.904 44.8652 57.0513C45.2215 57.1987 45.5452 57.4149 45.8178 57.6876C46.0905 57.9602 46.3067 58.2839 46.454 58.6402C46.6014 58.9965 46.6771 59.3783 46.6768 59.7639C46.6771 60.1494 46.6014 60.5313 46.454 60.8875C46.3067 61.2438 46.0905 61.5675 45.8178 61.8402C45.5452 62.1128 45.2215 62.329 44.8652 62.4764C44.5089 62.6238 44.1271 62.6994 43.7415 62.6991V62.6994Z" fill="url(#paint1_linear_1236_21681)"></path><defs><linearGradient id="paint0_linear_1236_21681" x1="7.2985" y1="6.89148" x2="40.6752" y2="39.9352" gradientUnits="userSpaceOnUse"><stop stop-color="#387EB8"></stop><stop offset="1" stop-color="#366994"></stop></linearGradient><linearGradient id="paint1_linear_1236_21681" x1="27.7858" y1="28.1096" x2="63.6286" y2="61.9929" gradientUnits="userSpaceOnUse"><stop stop-color="#FFE052"></stop><stop offset="1" stop-color="#FFC331"></stop></linearGradient></defs></svg> 