<?xml version="1.0" encoding="UTF-8"?> <svg xmlns:sodipodi="http://sodipodi.sourceforge.net/DTD/sodipodi-0.dtd" xmlns:svg="http://www.w3.org/2000/svg" xmlns:inkscape="http://www.inkscape.org/namespaces/inkscape" xmlns="http://www.w3.org/2000/svg" xmlns:xlink="http://www.w3.org/1999/xlink" version="1.1" id="svg354" sodipodi:docname="Qlik Logo.svg" x="0px" y="0px" viewBox="0 0 64 64" style="enable-background:new 0 0 64 64;" xml:space="preserve"> <style type="text/css"> .st0{fill:#009C4D;} .st1{fill:#54565B;} </style> <g> <g id="g72" transform="translate(580.8813,18.7189)"> <path id="path74" class="st0" d="M-519.9,33.5l-7.8-6.5c2.7-4.3,4.3-9.4,4.3-14.9c0-15.4-12.5-27.9-27.9-27.9 s-27.9,12.5-27.9,27.9c0,15.4,12.5,27.9,27.9,27.9c6,0,11.5-1.9,16-5.1l8.3,7c0,0,1.2,1,2.3-0.2l4.9-5.9 C-519.7,35.8-518.7,34.6-519.9,33.5 M-534.2,12.1c0,9.5-7.7,17.1-17.1,17.1c-9.5,0-17.1-7.7-17.1-17.1c0-9.5,7.7-17.1,17.1-17.1 C-541.9-5-534.2,2.7-534.2,12.1"></path> </g> <g id="g76" transform="translate(567.7498,25.3576)"> <path id="path78" class="st1" d="M-549.2,5.5c0-6.1,4.9-11,11-11s11,4.9,11,11s-4.9,11-11,11C-544.2,16.5-549.2,11.6-549.2,5.5"></path> </g> <g id="g80" transform="translate(579.4229,31.4499)"> <path id="path82" class="st1" d="M-523.2-20.3c0-1.7,1.4-3,3-3c1.7,0,3,1.4,3,3s-1.4,3-3,3C-521.8-17.2-523.2-18.6-523.2-20.3 M-520.2-22.9c-1.4,0-2.5,1.2-2.5,2.6c0,1.5,1.1,2.6,2.5,2.6s2.5-1.2,2.5-2.6C-517.6-21.7-518.7-22.9-520.2-22.9 M-520.9-18.4 h-0.4v-3.7h1.3c0.6,0,1.1,0.3,1.1,1c0,0.6-0.3,1-0.9,1l1,1.6h-0.5l-1-1.6h-0.7V-18.4z M-520.9-20.4h0.8c0.5,0,0.8-0.1,0.8-0.7 c0-0.5-0.4-0.7-0.8-0.7h-0.8V-20.4z"></path> </g> </g> </svg> 