<?xml version="1.0" encoding="UTF-8"?> <svg xmlns="http://www.w3.org/2000/svg" xmlns:xlink="http://www.w3.org/1999/xlink" version="1.1" id="Layer_1" x="0px" y="0px" viewBox="0 0 264.1 223.5" style="enable-background:new 0 0 264.1 223.5;" xml:space="preserve"> <style type="text/css"> .st0{fill:#FFFFFF;} .st1{fill:url(#SVGID_1_);} .st2{fill:url(#SVGID_00000082328420884579781610000007651142459677164673_);} .st3{fill:url(#SVGID_00000024695702879639955280000018239764197755653811_);} .st4{fill:url(#SVGID_00000091719801006069590650000001931725787905946776_);} </style> <g> <polygon class="st0" points="172.8,164.5 202.2,164.5 232.5,112.1 201.5,58.6 172.8,58.6 130.6,79.4 101.4,112.7 132.9,148.7 "></polygon> <radialGradient id="SVGID_1_" cx="104.1346" cy="111.3645" r="96.9075" gradientUnits="userSpaceOnUse"> <stop offset="0.2384" style="stop-color:#EE7878"></stop> <stop offset="1" style="stop-color:#E10E0D"></stop> </radialGradient> <path class="st1" d="M59.7,41.8c0,0,20.8,38.7,28,40.8c0,0,3.2,3.7,9.1-5.3c0,0,25.6-34.7,30-51c0,0,13.5-8.1,34,3.5 c0,0,16.6,9.1,14.9,28.9c0,0-34.9,21.4-61.8,53.9c0,0,33.5,32.1,62,48c0,0,6,21.2-13.1,31.7c0,0-17.5,9.3-35,6l-33.5-54.8 c0,0-6-5.8-10.3,1.4l-24.2,38.2c0,0-34.3-4.6-27-36.7c0,0,29.8-25.3,35.9-32.1c0,0,2.3-2.3-1.2-4.6c0,0-19.7-21.4-34.7-29.6 C32.6,80.1,26.7,49.8,59.7,41.8z"></path> <linearGradient id="SVGID_00000168817942718104891480000017481955993358389139_" gradientUnits="userSpaceOnUse" x1="123.0044" y1="84.4151" x2="172.9395" y2="11.5506"> <stop offset="0" style="stop-color:#FFFFFF;stop-opacity:0"></stop> <stop offset="0.8391" style="stop-color:#FFFFFF"></stop> </linearGradient> <path style="fill:url(#SVGID_00000168817942718104891480000017481955993358389139_);" d="M101.2,76.9c0,0,25.7-32.3,29.2-45.6 c0,0,11-6.5,27.7,2.8c0,0,13.5,7.4,12.1,23.5c0,0-37.7,22.2-47.4,39.5L101.2,76.9z"></path> <linearGradient id="SVGID_00000004509175238822506560000006507360222971076234_" gradientUnits="userSpaceOnUse" x1="89.6546" y1="102.8231" x2="26.0526" y2="41.7223"> <stop offset="0" style="stop-color:#720000"></stop> <stop offset="1" style="stop-color:#E21716"></stop> </linearGradient> <path style="fill:url(#SVGID_00000004509175238822506560000006507360222971076234_);" d="M78.8,73.3c0,0,4.4,24-8.9,38.8 c0,0-27-28.1-37.1-31.8c0,0-6.4-30.1,27-38.5L78.8,73.3z"></path> <linearGradient id="SVGID_00000176012377389485878400000000749087194878589332_" gradientUnits="userSpaceOnUse" x1="173.0373" y1="199.9902" x2="79.8169" y2="110.4358"> <stop offset="0" style="stop-color:#E21716"></stop> <stop offset="1" style="stop-color:#720000"></stop> </linearGradient> <path style="fill:url(#SVGID_00000176012377389485878400000000749087194878589332_);" d="M100.3,153.6c0,0,19.2,31.4,27.3,44.8 c0,0,20.1,6.4,37.9-7.8c0,0,14.4-9.8,10.4-29.8c0,0-17.4-7.5-62.2-48.1C113.8,112.7,96.6,126.3,100.3,153.6z"></path> <g> <g> <path d="M141.9,132.6V87H159c3.5,0,6.4,0.6,8.8,1.8s4.2,2.9,5.4,5.1c1.2,2.2,1.8,4.7,1.8,7.6c0,2.9-0.6,5.5-1.9,7.6 c-1.2,2.1-3.1,3.8-5.5,5c-2.4,1.2-5.4,1.7-8.9,1.7h-12.2v-6.9h11.1c2,0,3.7-0.3,5-0.9c1.3-0.6,2.3-1.4,2.9-2.5 c0.6-1.1,0.9-2.5,0.9-4.1c0-1.6-0.3-3-1-4.1c-0.6-1.1-1.6-2-2.9-2.6c-1.3-0.6-3-0.9-5.1-0.9h-7.6v38.7H141.9z M165.4,111.9 l11.3,20.6h-9.2l-11.1-20.6H165.4z"></path> <path d="M188.9,98.4l6.9,12.6l7-12.6h8.5L201,115.5l10.5,17.1H203l-7.2-12.3l-7.2,12.3h-8.5l10.4-17.1l-10.1-17.1H188.9z"></path> </g> </g> </g> </svg> 