<?xml version="1.0" encoding="UTF-8"?> <svg xmlns="http://www.w3.org/2000/svg" width="70" height="64" viewBox="0 0 70 64" fill="none"><path d="M35 38.3192C38.5202 38.3192 41.3738 35.4656 41.3738 31.9454C41.3738 28.4252 38.5202 25.5716 35 25.5716C31.4799 25.5716 28.6262 28.4252 28.6262 31.9454C28.6262 35.4656 31.4799 38.3192 35 38.3192Z" fill="#61DAFB"></path><path d="M59.2093 21.4342C57.9792 20.9869 56.6933 20.5397 55.3514 20.1483C55.6869 18.8064 55.9665 17.4646 56.1901 16.1786C57.3642 8.79844 56.0783 3.59875 52.5 1.58597C51.4377 0.970959 50.2636 0.691406 48.9217 0.691406C45.008 0.691406 40.0319 3.59875 35 8.46297C29.9681 3.59875 24.992 0.691406 21.0783 0.691406C19.7364 0.691406 18.5623 0.970959 17.5 1.58597C13.9217 3.65466 12.6358 8.85435 13.8099 16.1786C14.0335 17.4646 14.3131 18.8064 14.6486 20.1483C13.3067 20.5397 12.0208 20.931 10.7907 21.4342C3.80192 24.1179 0 27.808 0 31.9454C0 36.0828 3.85783 39.7729 10.7907 42.4566C12.0208 42.9039 13.3067 43.3512 14.6486 43.7425C14.3131 45.0844 14.0335 46.4262 13.8099 47.7122C12.6358 55.0924 13.9217 60.292 17.5 62.3048C18.5623 62.9198 19.7364 63.1994 21.0783 63.1994C25.0479 63.1994 30.024 60.292 35 55.4278C40.0319 60.292 45.008 63.1994 48.9217 63.1994C50.2636 63.1994 51.4377 62.9198 52.5 62.3048C56.0783 60.2361 57.3642 55.0365 56.1901 47.7122C55.9665 46.4262 55.6869 45.0844 55.3514 43.7425C56.6933 43.3512 57.9792 42.9598 59.2093 42.4566C66.1981 39.7729 70 36.0828 70 31.9454C70 27.808 66.1981 24.1179 59.2093 21.4342ZM50.9345 4.3815C53.2268 5.72336 54.0096 9.86074 53.0591 15.7313C52.8914 16.9055 52.6118 18.1355 52.2764 19.4214C49.369 18.7505 46.2939 18.3032 43.0511 18.0237C41.1502 15.34 39.1933 12.9358 37.2364 10.7553C41.3738 6.67383 45.5671 3.87831 48.9776 3.87831C49.7045 3.87831 50.3754 4.04604 50.9345 4.3815ZM44.6725 37.5365C43.6661 39.3256 42.492 41.1147 41.262 42.9039C39.1933 43.0716 37.1246 43.1275 35 43.1275C32.8195 43.1275 30.7508 43.0716 28.738 42.9039C27.508 41.1147 26.3898 39.3256 25.3834 37.5365C24.3211 35.6914 23.3147 33.7905 22.4201 31.9454C23.3147 30.1004 24.3211 28.1994 25.3834 26.3543C26.3898 24.5652 27.5639 22.7761 28.7939 20.9869C30.8626 20.8192 32.9313 20.7633 35.0559 20.7633C37.2364 20.7633 39.3051 20.8192 41.3179 20.9869C42.5479 22.7761 43.6661 24.5652 44.6725 26.3543C45.7348 28.1994 46.7412 30.1004 47.6358 31.9454C46.6853 33.7905 45.7348 35.6355 44.6725 37.5365ZM49.3131 35.6914C50.1518 37.6483 50.8227 39.5492 51.4377 41.4502C49.5367 41.8975 47.524 42.2329 45.3994 42.5125C46.0703 41.4502 46.7971 40.332 47.4121 39.1579C48.0831 37.9837 48.6981 36.8096 49.3131 35.6914ZM35 50.8432C33.6581 49.3895 32.3722 47.824 31.1422 46.2026C32.4281 46.2585 33.7141 46.3144 35 46.3144C36.2859 46.3144 37.5719 46.2585 38.8578 46.2026C37.6278 47.824 36.3419 49.3895 35 50.8432ZM24.6006 42.4566C22.476 42.177 20.4633 41.8416 18.5623 41.3943C19.1773 39.5492 19.8482 37.5924 20.6869 35.6355C21.3019 36.7537 21.9169 37.9278 22.5879 39.046C23.2588 40.2761 23.9297 41.3384 24.6006 42.4566ZM20.6869 28.1994C19.8482 26.2425 19.1773 24.3416 18.5623 22.4406C20.4633 21.9933 22.476 21.6579 24.6006 21.3783C23.9297 22.4406 23.2029 23.5588 22.5879 24.7329C21.9169 25.9071 21.3019 27.0812 20.6869 28.1994ZM35 13.0476C36.3419 14.5013 37.6278 16.0668 38.8578 17.6882C37.5719 17.6323 36.2859 17.5764 35 17.5764C33.7141 17.5764 32.4281 17.6323 31.1422 17.6882C32.3722 16.0668 33.6581 14.5013 35 13.0476ZM47.4121 24.7889L45.3994 21.4342C47.524 21.7138 49.5367 22.0492 51.4377 22.4965C50.8227 24.3416 50.1518 26.2984 49.3131 28.2553C48.6981 27.0812 48.0831 25.9071 47.4121 24.7889ZM16.9409 15.7313C15.9904 9.86074 16.7732 5.72336 19.0655 4.3815C19.6246 4.04604 20.2955 3.87831 21.0224 3.87831C24.377 3.87831 28.5703 6.61792 32.7636 10.7553C30.8067 12.8799 28.8498 15.34 26.9489 18.0237C23.7061 18.3032 20.631 18.8064 17.7236 19.4214C17.3882 18.1355 17.1645 16.9055 16.9409 15.7313ZM3.13099 31.9454C3.13099 29.3176 6.31789 26.5221 11.9089 24.4534C13.0272 24.0061 14.2572 23.6147 15.4872 23.2793C16.3818 26.0748 17.5 29.0381 18.8419 32.0013C17.5 34.9646 16.3259 37.8719 15.4872 40.6674C7.77157 38.431 3.13099 35.0764 3.13099 31.9454ZM19.0655 59.5093C16.7732 58.1674 15.9904 54.0301 16.9409 48.1595C17.1086 46.9853 17.3882 45.7553 17.7236 44.4694C20.631 45.1403 23.7061 45.5876 26.9489 45.8671C28.8498 48.5508 30.8067 50.955 32.7636 53.1355C28.6262 57.217 24.4329 60.0125 21.0224 60.0125C20.2955 60.0125 19.6246 59.8448 19.0655 59.5093ZM53.0591 48.1595C54.0096 54.0301 53.2268 58.1674 50.9345 59.5093C50.3754 59.8448 49.7045 60.0125 48.9776 60.0125C45.623 60.0125 41.4297 57.2729 37.2364 53.1355C39.1933 51.0109 41.1502 48.5508 43.0511 45.8671C46.2939 45.5876 49.369 45.0844 52.2764 44.4694C52.6118 45.7553 52.8355 46.9853 53.0591 48.1595ZM58.0911 39.4374C56.9728 39.8847 55.7428 40.2761 54.5128 40.6115C53.6182 37.816 52.5 34.8528 51.1581 31.8895C52.5 28.9262 53.6741 26.0189 54.5128 23.2234C62.2284 25.4598 66.869 28.8144 66.869 31.9454C66.869 34.5732 63.6262 37.3687 58.0911 39.4374Z" fill="#61DAFB"></path></svg> 