<?xml version="1.0" encoding="UTF-8"?> <svg xmlns="http://www.w3.org/2000/svg" xmlns:xlink="http://www.w3.org/1999/xlink" version="1.1" id="Layer_1" x="0px" y="0px" viewBox="0 0 64 64" style="enable-background:new 0 0 64 64;" xml:space="preserve"> <style type="text/css"> .st0{fill:#61DAFB;} </style> <g> <g> <circle class="st0" cx="32" cy="32" r="5.4"></circle> </g> <g> <g> <path class="st0" d="M32,44.3C15.1,44.3,1.9,38.9,1.9,32c0-6.9,13.2-12.3,30.1-12.3c16.9,0,30.1,5.4,30.1,12.3 C62.1,38.9,48.9,44.3,32,44.3z M32,22.3c-16.2,0-27.5,5.1-27.5,9.7c0,4.6,11.3,9.7,27.5,9.7c16.2,0,27.5-5.1,27.5-9.7 C59.5,27.4,48.2,22.3,32,22.3z"></path> </g> <g> <path class="st0" d="M44,58.8c-2.7,0-5.9-1.5-9.4-4.3c-4.6-3.8-9.4-9.6-13.3-16.4c-3.9-6.8-6.6-13.8-7.6-19.7 c-1-6.3,0.1-10.8,3.2-12.5c6-3.4,17.3,5.3,25.7,19.9l0,0c3.9,6.8,6.6,13.8,7.6,19.7c1,6.3-0.1,10.8-3.2,12.5 C46.2,58.6,45.1,58.8,44,58.8z M20,7.8c-0.7,0-1.2,0.1-1.7,0.4c-2,1.2-2.7,4.8-1.9,9.9c0.9,5.6,3.5,12.3,7.2,18.8 s8.3,12.1,12.7,15.7c4,3.3,7.5,4.5,9.5,3.3c2-1.2,2.7-4.8,1.9-9.9c-0.9-5.6-3.5-12.3-7.2-18.8l0,0C33.3,14.8,24.7,7.8,20,7.8z"></path> </g> <g> <path class="st0" d="M20,58.8c-1.1,0-2.1-0.3-3-0.8c-3-1.8-4.2-6.2-3.2-12.5c0.9-5.9,3.6-12.9,7.6-19.7 C29.8,11.2,41.1,2.5,47.1,5.9c6,3.4,4,17.6-4.4,32.2l0,0c-3.9,6.8-8.6,12.6-13.3,16.4C25.9,57.4,22.6,58.8,20,58.8z M44,7.8 c-4.7,0-13.3,7.1-20.4,19.4c-3.8,6.5-6.3,13.2-7.2,18.8c-0.8,5.1-0.1,8.7,1.9,9.9c2,1.2,5.5,0,9.5-3.3c4.4-3.6,8.9-9.1,12.7-15.7 c8.1-14,9.3-26.4,5.4-28.6C45.3,7.9,44.7,7.8,44,7.8z"></path> </g> </g> </g> </svg> 