<?xml version="1.0" encoding="UTF-8"?> <svg xmlns="http://www.w3.org/2000/svg" width="64" height="64" viewBox="0 0 64 64" fill="none"><g clip-path="url(#clip0_1576_35499)"><path d="M48.8299 29.13L41.4899 22.56C41.1699 22.31 40.7299 22.31 40.4199 22.56L33.0499 27.3L27.4099 21.73" stroke="black" stroke-linecap="round" stroke-linejoin="round"></path><path d="M48.8299 29.13L41.4899 22.56C41.1699 22.31 40.7299 22.31 40.4199 22.56L33.0499 27.3L27.4099 21.73" stroke="url(#paint0_linear_1576_35499)" stroke-linecap="round" stroke-linejoin="round"></path><path d="M49.0799 23.8701L48.0899 23.9601L48.5399 28.8701L43.6099 28.9701L43.6299 29.9701L49.6299 29.8501L49.0799 23.8701Z" fill="black"></path><path d="M49.0799 23.8701L48.0899 23.9601L48.5399 28.8701L43.6099 28.9701L43.6299 29.9701L49.6299 29.8501L49.0799 23.8701Z" fill="url(#paint1_linear_1576_35499)"></path><path d="M6.5 11.5V53.31H57.63" stroke="url(#paint2_linear_1576_35499)" stroke-linecap="round" stroke-linejoin="round"></path><path d="M21.33 30.6802H14.53V53.3002H21.33V30.6802Z" stroke="url(#paint3_linear_1576_35499)" stroke-linecap="round" stroke-linejoin="round"></path><path d="M35.1701 35.27H28.3701V53.31H35.1701V35.27Z" stroke="url(#paint4_linear_1576_35499)" stroke-linecap="round" stroke-linejoin="round"></path><path d="M48.9201 40.7002H42.1201V53.3102H48.9201V40.7002Z" stroke="url(#paint5_linear_1576_35499)" stroke-linecap="round" stroke-linejoin="round"></path></g><defs><linearGradient id="paint0_linear_1576_35499" x1="34.5792" y1="24.2616" x2="39.9163" y2="37.6979" gradientUnits="userSpaceOnUse"><stop offset="0.236106" stop-color="#DA291C"></stop><stop offset="1" stop-color="#FFCD00"></stop></linearGradient><linearGradient id="paint1_linear_1576_35499" x1="45.6248" y1="25.957" x2="51.9624" y2="31.3968" gradientUnits="userSpaceOnUse"><stop offset="0.236106" stop-color="#DA291C"></stop><stop offset="1" stop-color="#FFCD00"></stop></linearGradient><linearGradient id="paint2_linear_1576_35499" x1="32.065" y1="11.5" x2="32.065" y2="53.31" gradientUnits="userSpaceOnUse"><stop stop-color="white"></stop><stop offset="1" stop-color="white"></stop></linearGradient><linearGradient id="paint3_linear_1576_35499" x1="17.93" y1="30.6802" x2="17.93" y2="53.3002" gradientUnits="userSpaceOnUse"><stop stop-color="white"></stop><stop offset="1" stop-color="white"></stop></linearGradient><linearGradient id="paint4_linear_1576_35499" x1="31.7701" y1="35.27" x2="31.7701" y2="53.31" gradientUnits="userSpaceOnUse"><stop stop-color="white"></stop><stop offset="1" stop-color="white"></stop></linearGradient><linearGradient id="paint5_linear_1576_35499" x1="45.5201" y1="40.7002" x2="45.5201" y2="53.3102" gradientUnits="userSpaceOnUse"><stop stop-color="white"></stop><stop offset="1" stop-color="white"></stop></linearGradient><clipPath id="clip0_1576_35499"><rect width="52.13" height="42.81" fill="white" transform="translate(6 11)"></rect></clipPath></defs></svg> 