<?xml version="1.0" encoding="UTF-8"?> <svg xmlns:dc="http://purl.org/dc/elements/1.1/" xmlns:cc="http://creativecommons.org/ns#" xmlns:rdf="http://www.w3.org/1999/02/22-rdf-syntax-ns#" xmlns:svg="http://www.w3.org/2000/svg" xmlns="http://www.w3.org/2000/svg" xmlns:sodipodi="http://sodipodi.sourceforge.net/DTD/sodipodi-0.dtd" xmlns:inkscape="http://www.inkscape.org/namespaces/inkscape" viewBox="0 0 1289.6 236.16" height="236.16" width="1289.6" id="svg10" sodipodi:docname="REMAX_logo_traced_single.svg" inkscape:version="0.92.2 2405546, 2018-03-11"><metadata></metadata><defs id="defs14"></defs><g inkscape:groupmode="layer" id="layer1" inkscape:label="Traced" style="display:inline"><g id="g4693"><path inkscape:connector-curvature="0" id="path104" d="M 0.640625,8.2089844 V 121.86523 235.51953 h 25.279297 25.279297 v -37.13086 -37.13281 l 14.8125,0.17187 14.810547,0.17188 21.744144,36.96094 21.74218,36.95898 h 29.01563 29.01562 l -25.27929,-41.99609 c -13.90372,-23.09863 -25.19389,-42.03468 -25.08985,-42.08008 8.5579,-3.73193 17.3791,-9.62528 23.53516,-15.72266 9.51812,-9.42739 15.18688,-20.15738 18.34961,-34.73047 1.61092,-7.422564 1.61732,-26.633506 0.0117,-34.656246 C 167.51548,34.596235 146.21057,16.004646 109.11328,9.8300781 103.64097,8.9192544 95.366964,8.7268157 51.679688,8.4882812 Z M 51.199219,52.480469 h 20.74414 c 21.972711,0 26.449744,0.42165 33.812501,3.1875 4.81223,1.807729 10.52092,6.189387 13.13672,10.082031 3.63273,5.405991 4.78145,9.297916 5.125,17.371094 0.50632,11.897754 -1.74564,18.628106 -8.48828,25.365236 -4.57734,4.5736 -8.70214,6.90201 -15.48242,8.74023 -4.505935,1.22162 -7.155514,1.38669 -26.447271,1.64844 -11.792,0.15999 -21.655921,0.0698 -21.919921,-0.19922 -0.264,-0.26907 -0.480469,-15.27246 -0.480469,-33.341796 z" style="fill:#dc1c2e;fill-opacity:1;stroke-width:0.63999999"></path><path inkscape:connector-curvature="0" id="path100" d="M 229.76,121.92 V 8.32 H 306.88 384 V 30.4 52.48 H 332.16 280.32 V 75.84 99.2 h 45.44 45.44 v 22.08 22.08 H 325.76 280.32 V 167.68 192 h 33.92 c 18.656,0 33.92,0.13782 33.92,0.30626 0,0.28602 -15.21553,29.30667 -20.38973,38.88946 l -2.33027,4.31572 -47.84,0.004 -47.84,0.004 z" style="fill:#dc1c2e;fill-opacity:1;stroke-width:0.63999999"></path><path inkscape:connector-curvature="0" id="path98" d="M 378.43013,234.72619 C 378.61264,234.28278 405.52887,183.232 438.24399,121.28 L 497.72602,8.64 528.61386,8.4738106 c 24.63657,-0.1325549 30.82089,-0.00301 30.55704,0.64 C 558.98896,9.5572147 532.06521,60.608 499.34034,122.56 l -59.49977,112.64 -30.87113,0.16619 c -24.62357,0.13256 -30.80398,0.003 -30.53931,-0.64 z" style="fill:#003da5;fill-opacity:1;stroke-width:0.63999999"></path><path inkscape:connector-curvature="0" id="path96" d="M 560.64,171.50013 V 107.48026 L 586.64092,58.220131 C 600.94143,31.127059 612.8407,8.96 613.08376,8.96 c 0.24305,0 3.04853,3.672 6.23442,8.16 5.44167,7.665791 32.44553,45.830848 41.66076,58.88 2.2994,3.256 4.35175,5.908755 4.5609,5.895014 C 665.74893,81.881254 677.44,65.324979 691.52,45.103252 l 25.6,-36.7667733 26.4,-0.00824 26.4,-0.00824 V 121.92 235.52 h -24.64 -24.64 v -70.4 c 0,-38.72 -0.216,-70.388564 -0.48,-70.374587 -0.264,0.01395 -12.56525,15.865977 -27.33606,35.226677 -19.36416,25.38136 -27.1641,35.1492 -27.96026,35.01459 -0.60736,-0.10267 -13.14611,-15.87217 -27.86395,-35.04332 L 610.24,95.08672 610.07718,165.30336 609.91436,235.52 H 585.27718 560.64 Z" style="fill:#dc1c2e;fill-opacity:1;stroke-width:0.63999999"></path><path inkscape:connector-curvature="0" id="path94" d="m 894.875,7.0390625 -0.69922,1.7617187 c -0.38528,0.9680001 -9.89841,26.3825158 -21.13867,56.4785158 -11.24032,30.096 -30.11235,80.582283 -41.9375,112.191403 -11.82515,31.60914 -21.5,57.60091 -21.5,57.75977 0,0.15888 11.44745,0.2862 25.43945,0.2832 l 25.44141,-0.004 2.66406,-7.51563 c 1.46599,-4.13305 5.32327,-15.07445 8.57031,-24.31445 l 5.9043,-16.79883 h 40.23047 c 22.12698,0 40.23047,0.0741 40.23047,0.16602 0,0.45557 17.16388,47.92951 17.42187,48.1875 0.1648,0.16488 11.98537,0.22481 26.26755,0.13281 l 25.9668,-0.16797 -17.2285,-46.08008 c -9.4755,-25.344 -28.67176,-76.68008 -42.65819,-114.080078 L 942.41992,7.0390625 H 918.64844 Z M 917.74023,74.71875 c 0.35258,-0.41808 24.41118,67.53275 24.35938,68.80078 -0.0108,0.264 -10.96384,0.48047 -24.33984,0.48047 -13.376,0 -24.32604,-0.21647 -24.33204,-0.48047 -0.0172,-0.72191 23.84376,-68.245024 24.3125,-68.80078 z" style="fill:#dc1c2e;fill-opacity:1;stroke-width:0.63999999"></path><path inkscape:connector-curvature="0" id="path90" d="m 1053.0522,226.72666 c 64.824,-106.14317 65.0728,-106.56263 64.0873,-108.0667 C 1114.9702,115.34922 1050.88,8.9300544 1050.88,8.6387955 1050.88,8.4634579 1063.7763,8.32 1079.5385,8.32 h 28.6586 l 19.6019,35.660156 c 10.781,19.613085 19.8467,35.741738 20.1458,35.84145 0.2992,0.09971 9.4322,-15.73136 20.2956,-35.180156 10.8635,-19.448797 19.951,-35.5805169 20.1945,-35.848266 0.2435,-0.2677485 13.0125,-0.4117485 28.3756,-0.32 L 1244.7434,8.64 1225.5145,40 c -10.5759,17.248 -25.5886,41.728 -33.3617,54.4 -7.7731,12.672 -14.4157,23.50414 -14.7614,24.07142 -0.6494,1.06551 0.5808,3.23193 18.1301,31.92858 3.7671,6.16 16.5807,27.184 28.4746,46.72 11.8939,19.536 22.0515,36.17096 22.5725,36.96657 l 0.9472,1.44658 -29.0041,-0.16658 -29.0041,-0.16657 -20.9327,-37.41963 c -11.5129,-20.5808 -21.1823,-37.50283 -21.4873,-37.60452 -0.3051,-0.1017 -2.3519,3.05714 -4.5483,7.01963 -2.1964,3.96248 -11.7205,20.88452 -21.1646,37.60452 l -17.1711,30.4 -28.2648,0.16666 -28.2649,0.16666 z" style="fill:#dc1c2e;fill-opacity:1;stroke-width:0.63999999"></path><g id="g4682"><path sodipodi:type="inkscape:offset" inkscape:radius="0.065492637" inkscape:original="M 1271.9473 0.78515625 C 1267.7119 0.83070275 1263.4855 2.5320872 1260.1367 5.8808594 C 1251.9698 14.04777 1255.3441 29.041865 1266.2168 32.902344 C 1270.0334 34.257463 1275.3258 34.124794 1278.7207 32.589844 C 1289.7128 27.619931 1292.3121 13.854803 1283.8125 5.6269531 C 1280.428 2.3505899 1276.1826 0.73960979 1271.9473 0.78515625 z M 1272.4961 3.2128906 C 1277.3865 3.2741026 1282.0189 6.1136941 1284.6035 11.140625 C 1286.5773 14.979734 1286.0731 21.915578 1283.5566 25.546875 C 1282.5296 27.028939 1280.5167 28.914339 1279.084 29.738281 C 1274.1675 32.565758 1269.1194 32.311928 1264.4043 28.998047 C 1255.8076 22.956009 1256.5808 9.945418 1265.8359 4.9082031 C 1267.9978 3.7315503 1270.2732 3.1850671 1272.4961 3.2128906 z " style="fill:#dc1c2e;fill-opacity:1;stroke-width:0.63999999" id="path4676" d="m 1271.9473,0.71875 c -4.2525,0.04573 -8.497,1.7548229 -11.8575,5.1152344 -8.2016,8.2016296 -4.8136,23.2539186 6.1055,27.1308596 3.8359,1.361957 9.1359,1.23044 12.5527,-0.314453 11.03,-4.987019 13.64,-18.812433 5.1094,-27.0703129 -3.3964,-3.2879375 -7.6578,-4.90705819 -11.9101,-4.8613281 z m 0.5488,2.5605469 c 4.8656,0.060901 9.4742,2.8830756 12.0488,7.8906251 0.9786,1.903274 1.3475,4.587477 1.1543,7.246094 -0.1932,2.658617 -0.9489,5.292463 -2.1972,7.09375 -1.019,1.470507 -3.033,3.356242 -4.4512,4.171875 -4.8983,2.816973 -9.911,2.565812 -14.6094,-0.736329 -8.559,-6.015542 -7.7891,-18.9651576 1.4258,-23.9804682 2.1524,-1.1714991 4.4173,-1.7132291 6.6289,-1.6855469 z"></path><path style="fill:#dc1c2e;fill-opacity:1;stroke-width:0.63999999" d="m 1265.9199,8.3203125 v 9.2792965 9.28125 h 3.1992 v -7.68164 h 2.2266 c 2.5603,0 3.7789,1.447466 4.4512,5.28125 0.1778,1.013847 0.4741,2.415969 0.9285,2.411434 l 1.1066,-0.01104 1.3684,-5e-6 c 0.199,-0.173207 0.045,-0.692822 -0.08,-1.121088 -0.1787,-0.616 -0.6381,-2.334003 -1.0215,-3.81836 -0.3833,-1.484334 -0.4713,-2.472829 -1.2551,-3.093906 -0.4383,-0.347317 -1.2487,-0.905005 -1.1578,-1.179402 0.091,-0.274398 0.4995,-0.407933 1.2821,-1.023567 2.3964,-1.885097 2.427,-5.13991 0.064,-6.9980466 -1.3593,-1.0692307 -2.6008,-1.3261719 -6.4004,-1.3261719 z m 3.1992,1.9199215 h 2.2403 c 2.3046,0 4.8008,1.777513 4.8008,3.419922 0,0.473444 -0.5263,1.337366 -1.17,1.919922 -0.6437,0.582556 -2.2291,1.060547 -3.5214,1.060547 h -2.3497 v -3.201172 z" id="path4672" inkscape:connector-curvature="0" sodipodi:nodetypes="cccccscscccsssccsccssssccc"></path></g></g></g></svg> 