<?xml version="1.0" encoding="UTF-8"?> <svg xmlns="http://www.w3.org/2000/svg" xmlns:xlink="http://www.w3.org/1999/xlink" version="1.1" id="Layer_1" x="0px" y="0px" viewBox="0 0 180 60" style="enable-background:new 0 0 180 60;" xml:space="preserve"> <style type="text/css"> .st0{fill:#090909;} .st1{fill:#199C37;} </style> <g> <path class="st0" d="M62,27.3C62,11.9,76.3-0.6,93.2,1.8c5.6,0.8,10.4,3.3,14.6,7c1,0.9,0.9,1.4,0,2.2C97.3,21.7,86.8,32.3,76.3,43 c-1.6,1.7-3.3,3.3-4.9,5c-0.7,0.7-1.2,0.8-2,0C64.6,42.5,62.1,36.2,62,27.3z M96.7,6.4c-0.5-0.1-0.8,0.1-1,0.4 c-1.6,1.6-3.2,3.3-4.9,4.9c-0.7,0.7-0.2,0.8,0.3,1.1c1.9,1.1,3.8,2.2,5.4,3.7c0.5,0.4,0.8,0.6,1.3,0c1.8-1.8,3.6-3.6,5.4-5.5 c0.3-0.3,0.7-0.6,0.2-1C101.4,8.5,99.1,7.3,96.7,6.4z M72.9,30.4c-1.9,1.8-3.7,3.5-5.4,5.1C67,36,66.7,36.4,67,37.1 c0.9,2.1,1.9,4.2,3.2,6.1c0.5,0.7,0.8,0.6,1.3,0.1c1.7-1.8,3.5-3.6,5.2-5.3c0.4-0.4,0.7-0.7,0.2-1.3C75.3,34.7,74.1,32.5,72.9,30.4 z M94.7,19.6c-0.2-0.2-0.4-0.4-0.5-0.6c-1.8-1.5-3.8-2.7-5.9-3.7c-0.6-0.3-1-0.1-1.4,0.3c-1.1,1.2-2.3,2.4-3.5,3.5 c-0.7,0.6-0.5,1,0,1.6c1.5,1.5,3,2.9,4.4,4.4c0.5,0.6,0.9,0.5,1.4,0c1.6-1.6,3.2-3.2,4.8-4.8C94.3,20.2,94.5,19.9,94.7,19.6z M80.4,22.6c-0.2,0.1-0.4,0.2-0.5,0.3c-1.3,1.3-2.7,2.7-4,4c-0.4,0.4-0.3,0.8-0.1,1.1c1,2,2.1,4,3.5,5.8c0.5,0.7,0.9,0.7,1.5,0.1 c1.5-1.6,3.1-3.3,4.7-4.8c0.5-0.5,0.6-0.9,0.1-1.4c-1.5-1.5-3-3-4.5-4.5C80.8,22.9,80.6,22.8,80.4,22.6z M65.8,31.9 c1.8-1.8,3.3-3.4,4.9-4.9c0.4-0.4,0.5-0.8,0.3-1.3c-1-3.1-1.6-6.3-1.7-9.5C66.2,20.9,65.3,26,65.8,31.9z M76.3,8.9 c3.6,0.3,6.6,0.7,9.6,1.7c0.4,0.1,0.8,0.2,1.2-0.2c1.6-1.6,3.2-3.2,5-5.1C86.3,4.8,81.3,5.6,76.3,8.9z M72.9,15 c0.1,3.1,0.5,5.7,1.3,8.5c1.2-1.2,2.1-2.2,3-3.1c0.3-0.3,0.5-0.6,0.1-1C75.9,18,74.6,16.6,72.9,15z M75.7,12.7 c1.2,1.6,2.7,2.9,4,4.2c0.3,0.3,0.6,0.3,0.9,0c1-1,2-2.1,3.1-3.2C81,13,78.5,12.4,75.7,12.7z"></path> <path class="st1" d="M118,31.2c0,13.3-8.6,24.1-21.7,26.8c-9,1.8-17.1-0.8-23.9-7.1c-0.9-0.8-0.8-1.4,0-2.2 c12-12.2,24-24.4,36-36.6c1.2-1.2,1.8-0.7,2.7,0.3C115.5,17.4,118,24.1,118,31.2z M107.2,29.5c1.9-1.8,3.6-3.5,5.4-5.1 c0.5-0.5,0.7-1,0.4-1.6c-0.9-2.1-1.8-4.2-3.2-6.1c-0.5-0.7-0.8-0.6-1.4-0.1c-1.7,1.8-3.4,3.5-5.1,5.2c-0.5,0.5-0.7,0.9-0.2,1.5 C104.8,25.2,106.1,27.4,107.2,29.5z M89.5,47.8c0.1-0.5-0.2-0.6-0.5-0.7c-1.9-1.1-3.8-2.4-5.5-3.9c-0.6-0.6-1-0.3-1.5,0.2 c-1.6,1.7-3.3,3.4-5,5.1c-0.8,0.8-0.5,1.2,0.2,1.7c1.7,1.2,3.4,2.1,5.3,2.9c0.9,0.4,1.5,0.3,2.2-0.4c1.4-1.5,2.8-2.9,4.2-4.3 C89.2,48.2,89.4,48,89.5,47.8z M97.3,39.8c-0.2-0.2-0.3-0.4-0.4-0.6c-1.5-1.6-3.1-3.1-4.6-4.7c-0.6-0.6-1-0.3-1.5,0.2 c-1.5,1.5-3,3.1-4.5,4.6c-0.7,0.6-0.7,1.1,0,1.7c1.7,1.4,3.5,2.4,5.4,3.4c0.5,0.3,1,0.4,1.5-0.1c1.2-1.3,2.5-2.5,3.7-3.8 C97.1,40.2,97.2,40,97.3,39.8z M104.5,32.3c0-0.1,0-0.3-0.1-0.4c-1-2.2-2.2-4.3-3.8-6.2c-0.5-0.7-0.9-0.2-1.3,0.2 c-1.1,1.1-2.2,2.2-3.2,3.3c-2.2,2.3-2.2,2.3,0,4.5c1.2,1.2,2.2,3.3,3.6,3.3c1.5,0,2.5-2.1,3.7-3.3C103.9,33.3,104.5,33,104.5,32.3z M110.9,43.5c3-4.7,3.9-9.7,3.4-15.4c-1.8,1.8-3.4,3.4-5.1,5c-0.3,0.3-0.3,0.8-0.1,1.2C110.2,37.2,110.5,40.4,110.9,43.5z M103.3,51.1c-3.1-0.3-6.1-0.7-8.9-1.8c-0.4-0.2-0.9-0.3-1.3,0.1c-1.6,1.6-3.2,3.3-5,5.1C93.8,55.2,98.8,54.1,103.3,51.1z M106.1,36.7c-0.2-0.1-0.4-0.3-0.5-0.4c-0.9,1-1.7,2.1-2.6,3.1c-0.3,0.4-0.5,0.7-0.1,1.1c1.3,1.3,2.6,2.7,4.2,4.3 C107.3,41.7,106.7,39.2,106.1,36.7z M104.3,47.3c0.1-0.2,0.3-0.4,0.4-0.6c-0.7-0.6-1.5-1.1-2.2-1.7c-2.7-2.7-2.7-2.7-5.2,0.2 c-0.7,0.7-0.6,1,0.4,1.2C99.8,46.8,102,47.2,104.3,47.3z"></path> </g> </svg> 