<?xml version="1.0" encoding="UTF-8"?> <svg xmlns="http://www.w3.org/2000/svg" xmlns:xlink="http://www.w3.org/1999/xlink" version="1.1" id="Layer_1" x="0px" y="0px" viewBox="0 0 180 60" style="enable-background:new 0 0 180 60;" xml:space="preserve"> <style type="text/css"> .st0{fill:#010101;} .st1{fill:#FFFFFF;} .st2{fill:#4A4D50;} </style> <g> <path class="st0" d="M-117.6,37.5l-2.4-5.1h-7.7l-2.4,5.1h-2.2l7.6-16.2h1.9l7.5,16.2H-117.6z M-120.7,30.7l-2.2-5 c-0.3-0.6-0.6-1.4-0.9-2.3c-0.2,0.7-0.5,1.5-0.8,2.3l-2.3,5H-120.7z"></path> <path class="st0" d="M-97.9,25.8c0,1.6-0.5,2.5-1.7,3.4c-1.1,0.9-2.7,1.3-4.8,1.3h-5v6.7h-1.9V21.1h7.3 C-99.9,21.1-97.9,22.6-97.9,25.8z M-109.4,28.9h4.8c1.7,0,2.9-0.3,3.6-0.8c0.7-0.5,1.1-1,1.1-2.2c0-1.1-0.3-1.5-1-2 c-0.7-0.5-1.8-0.8-3.3-0.8h-5.2L-109.4,28.9L-109.4,28.9z"></path> <path class="st0" d="M-76.8,29.5c0,2.6-0.7,4.6-2.3,6.1c-1.5,1.5-3.6,2.2-6.3,2.2c-2.7,0-4.8-0.7-6.3-2.2c-1.5-1.5-2.2-3.5-2.2-6.2 s0.7-4.7,2.2-6.1s3.6-2.2,6.4-2.2c2.7,0,4.8,0.7,6.3,2.2C-77.6,24.8-76.8,26.9-76.8,29.5z M-91.6,29.5c0,2.2,0.5,3.9,1.6,5 c1.1,1.1,2.6,1.7,4.7,1.7c2.1,0,3.6-0.6,4.7-1.7c1-1.1,1.6-2.8,1.6-5c0-2.2-0.5-3.8-1.6-4.9c-1-1.1-2.6-1.7-4.6-1.7 c-2.1,0-3.6,0.6-4.7,1.7C-91.1,25.6-91.6,27.3-91.6,29.5z"></path> <path class="st0" d="M-23.9,29.5c0,2.6-0.7,4.6-2.3,6.1c-1.5,1.5-3.6,2.2-6.3,2.2c-2.7,0-4.8-0.7-6.3-2.2c-1.5-1.5-2.2-3.5-2.2-6.2 s0.7-4.7,2.2-6.1s3.6-2.2,6.4-2.2c2.7,0,4.8,0.7,6.3,2.2C-24.6,24.8-23.9,26.9-23.9,29.5z M-38.7,29.5c0,2.2,0.5,3.9,1.6,5 c1.1,1.1,2.6,1.7,4.7,1.7c2.1,0,3.6-0.6,4.7-1.7c1-1.1,1.6-2.8,1.6-5c0-2.2-0.5-3.8-1.6-4.9c-1-1.1-2.6-1.7-4.6-1.7 c-2.1,0-3.6,0.6-4.7,1.7C-38.1,25.6-38.7,27.3-38.7,29.5z"></path> <path class="st0" d="M-71.8,37.5V21.4h1.9v14.5h10.6v1.7H-71.8z"></path> <path class="st0" d="M-56.4,37.5V21.4h1.9v14.5h10.6v1.7H-56.4z"></path> <g> <path class="st0" d="M-154.4,15.4c-1.5-4.9-5.2-8.8-10-10.4c-1.6-0.6-3.4-0.9-5.2-0.9c-1.8,0-3.6,0.3-5.2,0.9 c-4.8,1.7-8.6,5.6-10.1,10.4c-0.4,1.5-0.7,3-0.7,4.6c0,8.8,7.1,15.9,15.9,15.9c8.8,0,15.9-7.1,15.9-15.9 C-153.7,18.4-153.9,16.8-154.4,15.4z M-169.6,33c-7.2,0-13.1-5.9-13.1-13.1c0-3.3,1.2-6.3,3.2-8.6c2.4-2.7,5.9-4.5,9.9-4.5 c3.9,0,7.5,1.8,9.9,4.5c2,2.3,3.2,5.3,3.2,8.6C-156.5,27.2-162.4,33-169.6,33z"></path> </g> <g> <polygon class="st0" points="-184.5,49.3 -187.4,48.2 -169.6,4.1 -151.3,47.6 -154.2,48.7 -169.6,12.2 "></polygon> </g> <g> <path class="st0" d="M-169.6,56.5c-14.6,0-26.5-11.9-26.5-26.5s11.9-26.5,26.5-26.5c14.6,0,26.5,11.9,26.5,26.5 C-143.1,44.7-155,56.5-169.6,56.5z M-169.6,6.2c-13.1,0-23.8,10.7-23.8,23.8s10.7,23.8,23.8,23.8s23.8-10.7,23.8-23.8 S-156.5,6.2-169.6,6.2z"></path> </g> </g> <g> <path class="st0" d="M70.2,4.1v51.2H28.3c-14.2,0-25.6-11.4-25.6-25.6S14.1,4.1,28.3,4.1h0.1l0,0C28.3,4.1,70.2,4.1,70.2,4.1z"></path> <g> <path class="st0" d="M151.7,55.8v-1c13.8,0,25.1-11.3,25.1-25.1S165.6,4.6,151.7,4.6v-1c14.4,0,26.1,11.7,26.1,26.1 S166.1,55.8,151.7,55.8z"></path> </g> <g> <path class="st1" d="M19.6,39.8V19.3h11.7c2,0,3.8,0.3,5.2,0.8c1.5,0.6,2.7,1.3,3.5,2.4c0.8,1,1.3,2.3,1.3,3.8S40.8,29,40,29.9 c-0.9,1-2.1,1.8-3.6,2.3c-1.5,0.5-3.3,0.7-5.4,0.7h-6.9v-4.3h5.5c0.9,0,1.6-0.1,2.2-0.2c0.6-0.1,1.1-0.4,1.4-0.8 c0.3-0.4,0.5-0.8,0.5-1.4s-0.1-1-0.5-1.5c-0.3-0.4-0.8-0.7-1.4-0.8c-0.6-0.1-1.3-0.3-2.2-0.3h-2.6v16.1L19.6,39.8L19.6,39.8z M35.4,30.4l6.7,9.4h-8l-6.6-9.4H35.4z"></path> <path class="st1" d="M50.7,24.4l2.9,4.8l3.1-4.8H64l-5.5,7.7l16.7,23.8h-7.2L53.6,34.9l-3.3,4.9H43l5.8-7.7l-5.4-7.7L50.7,24.4 L50.7,24.4z"></path> </g> <g> <path class="st0" d="M91.6,27.9l-3.1,0.4c-0.1-0.3-0.1-0.6-0.3-0.9s-0.4-0.5-0.7-0.7c-0.3-0.1-0.7-0.2-1.3-0.2 c-0.7,0-1.4,0.1-1.9,0.5c-0.5,0.3-0.9,0.7-1,1.3c-0.1,0.4,0,0.7,0.3,1c0.2,0.2,0.7,0.4,1.4,0.6l2.4,0.5c1.3,0.3,2.2,0.7,2.8,1.4 c0.6,0.7,0.7,1.5,0.6,2.6c-0.1,0.9-0.5,1.6-1.2,2.3c-0.6,0.7-1.4,1.2-2.4,1.5c-1,0.4-2.1,0.6-3.2,0.6c-1.8,0-3.2-0.4-4.1-1.1 c-1-0.7-1.4-1.8-1.4-3.1l3.3-0.3c0.1,0.7,0.3,1.1,0.7,1.5c0.4,0.3,1,0.5,1.7,0.5c0.8,0,1.5-0.1,2.1-0.5c0.6-0.4,0.9-0.8,1-1.3 c0.1-0.4,0-0.7-0.3-1c-0.2-0.2-0.7-0.4-1.3-0.6l-2.4-0.5c-1.3-0.3-2.3-0.8-2.8-1.5c-0.6-0.7-0.7-1.5-0.6-2.7 c0.1-0.9,0.5-1.6,1.1-2.2c0.6-0.7,1.3-1.1,2.2-1.5c0.9-0.4,1.9-0.5,3-0.5c1.7,0,3,0.4,3.8,1C91.1,25.7,91.5,26.7,91.6,27.9z"></path> <path class="st0" d="M99.2,38.6c-1.4,0-2.6-0.3-3.5-1c-1-0.6-1.6-1.5-2-2.6s-0.4-2.4-0.2-3.9c0.2-1.5,0.7-2.7,1.5-3.8 c0.7-1.1,1.6-1.9,2.7-2.6c1.1-0.6,2.4-0.9,3.8-0.9c1.4,0,2.6,0.3,3.5,1c1,0.6,1.5,1.5,2,2.7c0.4,1.2,0.4,2.4,0.2,3.9 c-0.2,1.5-0.7,2.7-1.5,3.8c-0.7,1.1-1.6,1.9-2.8,2.5C101.9,38.3,100.6,38.6,99.2,38.6z M99.5,36c0.8,0,1.5-0.2,2.1-0.7 c0.6-0.4,1.1-1,1.5-1.7c0.4-0.7,0.7-1.5,0.8-2.4c0.1-0.9,0.1-1.6,0-2.4c-0.1-0.7-0.4-1.3-0.8-1.7c-0.4-0.4-1-0.6-1.8-0.6 c-0.8,0-1.5,0.2-2.1,0.7c-0.6,0.4-1.1,1-1.5,1.7c-0.4,0.7-0.7,1.5-0.8,2.4c-0.1,0.9-0.1,1.6,0,2.3c0.1,0.7,0.4,1.3,0.8,1.6 C98.2,35.8,98.8,36,99.5,36z"></path> <path class="st0" d="M119,32.4l1.4-8.3h3.4l-2.4,14.3h-3.2l0.4-2.5h-0.1c-0.4,0.8-1.1,1.5-1.9,2c-0.8,0.5-1.8,0.7-2.9,0.7 c-1,0-1.7-0.2-2.4-0.7c-0.7-0.4-1.1-1-1.4-1.8c-0.3-0.8-0.3-1.8-0.1-2.9l1.5-9.1h3.4l-1.4,8.6c-0.1,0.9,0,1.6,0.4,2.1 c0.4,0.5,1,0.8,1.8,0.8c0.5,0,1-0.1,1.5-0.4c0.5-0.2,1-0.6,1.3-1.1C118.6,33.7,118.8,33.1,119,32.4z"></path> <path class="st0" d="M124.8,38.4l2.4-14.3h3.2l-0.4,2.4h0.1c0.4-0.8,1-1.5,1.6-1.9c0.7-0.4,1.5-0.7,2.3-0.7c0.2,0,0.4,0,0.6,0 s0.4,0.1,0.6,0.1l-0.5,3.1c-0.1-0.1-0.4-0.1-0.7-0.1c-0.3-0.1-0.6-0.1-0.9-0.1c-0.6,0-1.2,0.1-1.7,0.4c-0.5,0.3-1,0.7-1.3,1.1 c-0.4,0.4-0.6,1-0.7,1.6l-1.4,8.4L124.8,38.4L124.8,38.4z"></path> <path class="st0" d="M140.8,38.6c-1.4,0-2.6-0.3-3.5-1c-0.9-0.6-1.5-1.5-1.9-2.6s-0.4-2.4-0.1-3.8c0.2-1.5,0.7-2.7,1.5-3.8 s1.7-2,2.8-2.6s2.4-1,3.8-1c1.2,0,2.1,0.2,2.9,0.7c0.8,0.4,1.5,1,1.8,1.8s0.6,1.7,0.4,2.7h-3.2c0-0.7-0.2-1.3-0.7-1.7 c-0.4-0.4-1-0.7-1.8-0.7c-0.7,0-1.3,0.1-1.9,0.6c-0.6,0.4-1.1,0.9-1.5,1.5s-0.7,1.5-0.8,2.5c-0.1,1-0.1,1.8,0,2.5 c0.1,0.7,0.5,1.3,1,1.6c0.4,0.4,1,0.6,1.8,0.6c0.5,0,1-0.1,1.4-0.3c0.4-0.2,0.8-0.4,1.1-0.8c0.3-0.4,0.6-0.8,0.7-1.3h3.2 c-0.3,1-0.7,1.9-1.3,2.7c-0.7,0.8-1.5,1.4-2.4,1.8C143.1,38.4,142,38.6,140.8,38.6z"></path> <path class="st0" d="M156,38.6c-1.4,0-2.6-0.3-3.5-0.9c-1-0.6-1.6-1.5-2-2.6s-0.4-2.4-0.2-3.9c0.2-1.5,0.7-2.7,1.5-3.9 c0.7-1.1,1.7-2,2.8-2.6s2.4-1,3.7-1c0.9,0,1.7,0.1,2.4,0.4c0.7,0.3,1.3,0.7,1.8,1.3c0.5,0.6,0.9,1.3,1,2.2c0.2,0.9,0.1,2,0,3.2 l-0.1,1h-11.7l0.4-2.3h8.5c0.1-0.7,0.1-1.3-0.1-1.7c-0.1-0.5-0.5-0.9-1-1.2c-0.4-0.3-1-0.4-1.6-0.4c-0.7,0-1.3,0.1-1.8,0.5 c-0.6,0.4-1,0.8-1.5,1.3c-0.4,0.5-0.7,1.1-0.7,1.7l-0.4,2.1c-0.1,0.9-0.1,1.6,0.1,2.2c0.2,0.6,0.5,1,1,1.3 c0.5,0.3,1.1,0.4,1.8,0.4c0.5,0,1-0.1,1.4-0.2c0.4-0.1,0.8-0.4,1.1-0.6c0.4-0.3,0.6-0.6,0.8-1l3.1,0.4c-0.4,0.8-0.8,1.5-1.5,2.1 c-0.7,0.6-1.5,1.1-2.4,1.4C158.1,38.5,157.1,38.6,156,38.6z"></path> </g> </g> <g> <path class="st0" d="M342,35.4c0-3.6,0-7.2,0-10.8c1.1,0,2.2,0,3.3,0c1.1,0,2.2,0,3.3,0c2.4,0,3.7,2,2.8,4.2c0,0.1-0.1,0.2-0.1,0.3 c1,0.8,1.6,1.8,1.5,3.1c-0.1,1.6-1.4,3.1-3.1,3.2C347.2,35.4,344.7,35.4,342,35.4z M344,33.4c1.8,0,3.4,0,5.1,0 c1.1,0,1.7-0.6,1.7-1.5c0-0.9-0.6-1.5-1.7-1.5c-1.3,0-2.6,0-3.9,0c-0.4,0-0.8,0-1.2,0C344,31.5,344,32.4,344,33.4z M344,28.5 c1.6,0,3.2,0,4.8,0c0.6,0,1-0.5,1-1s-0.4-0.9-1.1-0.9c-0.5,0-1.1,0-1.6,0c-1.1,0-2.1,0-3.2,0C344,27.2,344,27.8,344,28.5z"></path> <path class="st0" d="M328.1,24.7c0,0.6,0,1.2,0,1.9c-0.3,0-0.5,0-0.7,0c-2.2,0-4.4,0.1-6.6,0c-1.5-0.1-1.7,0.7-1.5,1.9 c2.3,0,4.5,0,6.8,0c0,0.7,0,1.3,0,1.9c-2.3,0-4.6,0-6.9,0c0,0.8-0.1,1.5,0,2.2c0.1,0.6,0.5,0.8,1.1,0.8c2.3,0,4.6,0,6.9,0 c0.2,0,0.5,0,0.8,0c0,0.7,0,1.3,0,2c-0.4,0-0.8,0-1.2,0c-2.1,0-4.3,0-6.4,0c-2.1,0-3.2-1.2-3.2-3.2c0-1.6,0-3.1,0-4.7 c0-1.6,1.2-2.9,2.8-2.9c2.5,0,5.1,0,7.6,0C327.8,24.6,327.9,24.6,328.1,24.7z"></path> <path class="st0" d="M329.7,35.4c0-3.6,0-7.1,0-10.8c0.5,0,1.1,0,1.6,0c1.4,0,2.8,0,4.2,0c2.7,0.1,4.9,2.5,4.9,5.3 c0.1,2.8-2.1,5.3-4.8,5.5C333.7,35.5,331.7,35.4,329.7,35.4z M331.6,33.5c1.2,0,2.3,0,3.4,0c1.9,0,3.4-1.5,3.4-3.4 c0-1.9-1.5-3.4-3.4-3.5c-1,0-2,0-3,0c-0.2,0-0.3,0.1-0.4,0.1C331.6,28.9,331.6,31.1,331.6,33.5z"></path> <path class="st0" d="M214,29.3c0-1.4,0-2.6,0-3.8c0-0.2,0.2-0.5,0.4-0.6c1.9-1.5,3.7-3.1,5.6-4.6c0.7-0.5,1.4-0.6,2.2-0.3 c0.7,0.3,1.2,0.9,1.2,1.7c0.1,2.5,0,5,0,7.6c-1.2,0-2.3,0-3.5,0c0-0.5,0-1,0-1.5c0-0.6,0.1-1.2,0-1.7c0-0.3-0.2-0.6-0.4-0.7 c-0.2-0.1-0.6,0-0.8,0.2c-1.4,1.1-2.8,2.3-4.2,3.4C214.4,29,214.3,29.1,214,29.3z"></path> <path class="st0" d="M212.8,29.4c-1.5-1.2-2.8-2.3-4.2-3.4c-0.2-0.2-0.4-0.4-0.6-0.5c-0.2-0.1-0.6-0.2-0.8-0.1 c-0.2,0.1-0.4,0.5-0.4,0.7c-0.1,0.9,0,1.9,0,2.9c0,0.1,0,0.2,0,0.4c-1.2,0-2.3,0-3.5,0c0-0.2,0-0.4,0-0.6c0-2.2,0-4.4,0-6.6 c0-0.9,0.4-1.7,1.2-2.1c0.9-0.4,1.7-0.3,2.4,0.4c1.8,1.4,3.5,2.9,5.3,4.3c0.4,0.3,0.6,0.7,0.6,1.3 C212.7,27.1,212.8,28.1,212.8,29.4z"></path> <path class="st0" d="M252.7,24.6c0.6,0,1.3,0,1.9,0c0,1.3,0,2.5,0,3.8c2.3,0,4.6,0,6.9,0c0-1.3,0-2.5,0-3.8c0.7,0,1.3,0,1.9,0 c0,3.6,0,7.1,0,10.7c-0.6,0-1.2,0-1.9,0c0-1.6,0-3.2,0-4.8c-2.3,0-4.6,0-6.9,0c0,1.6,0,3.2,0,4.8c-0.7,0-1.3,0-1.9,0 C252.7,31.8,252.7,28.2,252.7,24.6z"></path> <path class="st0" d="M203.2,30.7c1.2,0,2.3,0,3.5,0c0,1,0,2,0,2.9c0,0.4,0,0.9,0.4,1c0.3,0.1,0.7-0.1,1-0.3c1.5-1.2,3-2.4,4.6-3.7 c0,0.9-0.1,1.7,0,2.4c0.2,1.3-0.3,2.1-1.4,2.8c-1.6,1.1-3.1,2.4-4.6,3.7c-0.7,0.6-1.6,0.8-2.4,0.4c-0.9-0.4-1.2-1.2-1.2-2.1 c0-2.2,0-4.3,0-6.5C203.2,31.1,203.2,30.9,203.2,30.7z"></path> <path class="st0" d="M234.1,28.7c1.8-1.4,3.6-2.7,5.4-4.1c0,3.7,0,7.2,0,10.8c-0.6,0-1.3,0-1.9,0c0-2.2,0-4.4,0-6.8 c-1.2,0.9-2.3,1.8-3.5,2.6c-1.1-0.8-2.2-1.7-3.4-2.6c0,2.3,0,4.5,0,6.8c-0.7,0-1.3,0-2,0c0-3.6,0-7.1,0-10.8 C230.6,26,232.3,27.3,234.1,28.7z"></path> <path class="st0" d="M276.3,35.4c0-3.6,0-7.2,0-10.7c0.6,0,1.2,0,1.9,0c0,2.2,0,4.4,0,6.8c1.2-0.9,2.3-1.8,3.5-2.6 c1.1,0.8,2.2,1.7,3.4,2.6c0-2.3,0-4.5,0-6.7c0.7,0,1.3,0,2,0c0,3.6,0,7.1,0,10.7c-1.8-1.4-3.6-2.7-5.4-4.1 C280,32.6,278.2,34,276.3,35.4z"></path> <path class="st0" d="M304.9,24.6c1.8,1.4,3.6,2.7,5.4,4.1c1.8-1.4,3.5-2.7,5.4-4.1c0,3.6,0,7.2,0,10.8c-0.6,0-1.2,0-1.9,0 c0-2.2,0-4.4,0-6.8c-1.2,0.9-2.3,1.8-3.5,2.6c-1.1-0.8-2.2-1.7-3.4-2.6c0,2.3,0,4.5,0,6.8c-0.7,0-1.3,0-2,0 C304.9,31.8,304.9,28.3,304.9,24.6z"></path> <path class="st0" d="M214,30.6c1.4,1.1,2.6,2.1,3.9,3.2c0.3,0.2,0.5,0.5,0.8,0.7c0.6,0.5,1.2,0.2,1.3-0.6c0.1-0.9,0-1.8,0-2.7 c0-0.2,0-0.3,0.1-0.5c1.1,0,2.3,0,3.4,0c0,0.4,0,0.8,0,1.2c0,2,0,3.9,0,5.9c0,0.9-0.3,1.7-1.2,2.1c-0.9,0.4-1.7,0.3-2.4-0.3 c-1.8-1.5-3.6-2.9-5.5-4.4c-0.2-0.2-0.4-0.4-0.4-0.6C214,33.3,214,32,214,30.6z"></path> <path class="st0" d="M289,24.6c0.6,0,1.3,0,1.9,0c0,1.8,0,3.5,0,5.4c1.2-1.1,2.2-2,3.3-2.9c0.8-0.7,1.5-1.4,2.3-2.1 c0.3-0.2,0.7-0.4,1-0.4c0.7-0.1,1.4,0,2.3,0c-1.6,1.5-3.2,2.9-4.7,4.3c1.5,2.1,3.1,4.2,4.7,6.5c-0.8,0-1.6,0-2.3,0 c-0.2,0-0.4-0.2-0.5-0.4c-1.1-1.5-2.2-3.1-3.4-4.7c-0.9,0.8-1.8,1.6-2.6,2.4c-0.1,0.1-0.1,0.4-0.1,0.6c0,0.7,0,1.4,0,2.1 c-0.7,0-1.3,0-1.9,0C289,31.8,289,28.2,289,24.6z"></path> <path class="st0" d="M246,35.4c-3.1-0.1-5.4-2.5-5.4-5.6c0.1-3,2.5-5.3,5.6-5.2c2.9,0.1,5.3,2.5,5.3,5.5 C251.5,33.1,249,35.5,246,35.4z M246.1,26.6c-1.9,0-3.5,1.5-3.5,3.4c0,1.9,1.5,3.4,3.4,3.4c1.9,0,3.5-1.5,3.5-3.5 C249.5,28.1,248,26.6,246.1,26.6z"></path> <path class="st0" d="M354,24.6c0.7,0,1.3,0,2,0c0,0.7,0,1.5,0,2.2c0,1.1,0,2.2,0,3.2c0,1.9,1.6,3.4,3.5,3.4c1.9,0,3.4-1.5,3.4-3.4 c0-1.8,0-3.5,0-5.4c0.7,0,1.3,0,1.9,0c0,2.1,0,4.2,0,6.3c0,0.1-0.1,0.2-0.1,0.3c-0.6,2.7-3.1,4.5-5.9,4.2c-2.6-0.3-4.7-2.5-4.8-5.2 C354,28.3,354,26.5,354,24.6z"></path> <path class="st0" d="M270,24.6c1.9,3.6,3.7,7.2,5.5,10.8c-0.7,0-1.4,0.1-2,0c-0.2,0-0.4-0.3-0.5-0.5c-0.3-0.7-0.7-0.9-1.5-0.9 c-1.2,0.1-2.5,0-3.7,0c-0.4,0-0.6,0.1-0.7,0.5c-0.2,0.9-0.8,1.1-1.7,1c-0.3-0.1-0.6,0-1.1,0C266.3,31.8,268.1,28.2,270,24.6z M270,28.9c-0.5,1.1-1.1,2.1-1.6,3.1c1.1,0,2.1,0,3.2,0C271,30.9,270.5,30,270,28.9z"></path> <path class="st0" d="M371.4,28.4c0.9-1.1,1.7-2.2,2.5-3.2c0.3-0.5,0.7-0.7,1.3-0.6c0.5,0.1,1,0,1.7,0c-0.6,0.8-1.1,1.4-1.6,2 c-0.7,0.9-1.3,1.8-2.1,2.6c-0.7,0.7-0.9,1.5-0.8,2.5c0.1,1.2,0,2.4,0,3.6c-0.7,0-1.3,0-2,0c0-0.7-0.1-1.5,0-2.2 c0.3-2-0.3-3.6-1.7-5c-1-1.1-1.8-2.3-2.8-3.6c0.9,0,1.6,0,2.3,0c0.2,0,0.4,0.3,0.5,0.4C369.6,26.1,370.5,27.2,371.4,28.4z"></path> </g> <g> <g> <path class="st0" d="M-176.1,137.5c-0.3,0.1-0.7,0.3-1.3,0.3c-1.5,0-2.5-0.9-2.5-2.6c0-1.6,1.1-2.7,2.7-2.7c0.6,0,1,0.1,1.2,0.2 l-0.1,0.5c-0.3-0.1-0.6-0.2-1-0.2c-1.2,0-2,0.8-2,2.1c0,1.3,0.7,2.1,2,2.1c0.4,0,0.8-0.1,1.1-0.2L-176.1,137.5z"></path> <path class="st0" d="M-172,136.1l-0.5,1.6h-0.7l1.8-5.1h0.7l1.8,5.1h-0.7l-0.6-1.6H-172z M-170.3,135.6l-0.5-1.5 c-0.1-0.3-0.2-0.6-0.3-0.9l0,0c-0.1,0.3-0.1,0.6-0.3,0.9l-0.5,1.5L-170.3,135.6L-170.3,135.6z"></path> <path class="st0" d="M-165.7,132.7c0.3-0.1,0.8-0.1,1.3-0.1c0.7,0,1.2,0.1,1.5,0.4c0.3,0.2,0.4,0.6,0.4,1c0,0.7-0.4,1.1-1,1.3v0 c0.4,0.1,0.6,0.5,0.7,1c0.1,0.7,0.3,1.2,0.4,1.4h-0.7c-0.1-0.1-0.2-0.6-0.3-1.2c-0.1-0.7-0.4-1-1-1h-0.7v2.2h-0.7V132.7z M-165.1,135h0.7c0.7,0,1.2-0.4,1.2-1c0-0.7-0.5-0.9-1.2-1c-0.3,0-0.6,0-0.6,0.1V135z"></path> <path class="st0" d="M-159.2,132.7c0.4-0.1,0.9-0.1,1.4-0.1c0.9,0,1.6,0.2,2.1,0.6c0.4,0.4,0.7,1,0.7,1.8s-0.3,1.5-0.7,2 c-0.5,0.5-1.3,0.7-2.3,0.7c-0.5,0-0.9,0-1.2-0.1C-159.2,137.7-159.2,132.7-159.2,132.7z M-158.6,137.2c0.1,0,0.4,0,0.7,0 c1.4,0,2.2-0.8,2.2-2.2c0-1.2-0.7-2-2.1-2c-0.3,0-0.6,0-0.8,0.1L-158.6,137.2L-158.6,137.2z"></path> <path class="st0" d="M-151.1,132.6v5.1h-0.7v-5.1H-151.1z"></path> <path class="st0" d="M-143.2,135.1c0,1.8-1.1,2.7-2.4,2.7c-1.3,0-2.3-1-2.3-2.6c0-1.6,1-2.7,2.4-2.7 C-144,132.5-143.2,133.6-143.2,135.1z M-147.1,135.2c0,1.1,0.6,2.1,1.6,2.1s1.6-1,1.6-2.1c0-1-0.5-2.1-1.6-2.1 C-146.6,133.1-147.1,134.1-147.1,135.2z"></path> <path class="st0" d="M-139.9,132.6h0.7v4.5h2.2v0.6h-2.8L-139.9,132.6L-139.9,132.6z"></path> <path class="st0" d="M-129.8,135.1c0,1.8-1.1,2.7-2.4,2.7c-1.3,0-2.3-1-2.3-2.6c0-1.6,1-2.7,2.4-2.7 C-130.7,132.5-129.8,133.6-129.8,135.1z M-133.8,135.2c0,1.1,0.6,2.1,1.6,2.1s1.6-1,1.6-2.1c0-1-0.5-2.1-1.6-2.1 C-133.2,133.1-133.8,134.1-133.8,135.2z"></path> <path class="st0" d="M-122.6,137.5c-0.3,0.1-0.9,0.3-1.6,0.3c-0.8,0-1.4-0.2-1.9-0.7c-0.4-0.4-0.7-1.1-0.7-1.9 c0-1.5,1-2.6,2.8-2.6c0.6,0,1,0.1,1.3,0.2l-0.1,0.5c-0.3-0.1-0.6-0.2-1.1-0.2c-1.2,0-2.1,0.8-2.1,2.1c0,1.3,0.8,2.1,2,2.1 c0.4,0,0.7-0.1,0.9-0.1v-1.5h-1V135h1.7L-122.6,137.5L-122.6,137.5z"></path> <path class="st0" d="M-118.1,137.7v-2.2l-1.6-2.9h0.7l0.7,1.4c0.2,0.4,0.3,0.7,0.5,1l0,0c0.1-0.3,0.3-0.7,0.5-1l0.7-1.4h0.7 l-1.7,2.9v2.2H-118.1z"></path> <path class="st0" d="M-105.1,137.5c-0.3,0.1-0.7,0.3-1.3,0.3c-1.5,0-2.5-0.9-2.5-2.6c0-1.6,1.1-2.7,2.7-2.7c0.6,0,1,0.1,1.2,0.2 l-0.1,0.5c-0.3-0.1-0.6-0.2-1-0.2c-1.2,0-2,0.8-2,2.1c0,1.3,0.7,2.1,2,2.1c0.4,0,0.8-0.1,1.1-0.2L-105.1,137.5z"></path> <path class="st0" d="M-99.2,135.3h-2v1.8h2.2v0.6h-2.9v-5.1h2.8v0.6h-2.1v1.6h2L-99.2,135.3L-99.2,135.3z"></path> <path class="st0" d="M-95.7,137.7v-5.1h0.7l1.6,2.6c0.4,0.6,0.7,1.2,0.9,1.7l0,0c-0.1-0.7-0.1-1.3-0.1-2.1v-2.1h0.6v5.1h-0.7 l-1.6-2.6c-0.4-0.6-0.7-1.2-1-1.7h0c0,0.6,0,1.3,0,2.1v2.2L-95.7,137.7L-95.7,137.7z"></path> <path class="st0" d="M-87.3,133.2h-1.6v-0.6h3.8v0.6h-1.6v4.5h-0.7L-87.3,133.2L-87.3,133.2z"></path> <path class="st0" d="M-79.4,135.3h-2v1.8h2.2v0.6h-2.9v-5.1h2.8v0.6h-2.1v1.6h2L-79.4,135.3L-79.4,135.3z"></path> <path class="st0" d="M-75.9,132.7c0.3-0.1,0.8-0.1,1.3-0.1c0.7,0,1.2,0.1,1.5,0.4c0.3,0.2,0.4,0.6,0.4,1c0,0.7-0.4,1.1-1,1.3v0 c0.4,0.1,0.6,0.5,0.7,1c0.1,0.7,0.3,1.2,0.4,1.4h-0.7c-0.1-0.1-0.2-0.6-0.3-1.2c-0.1-0.7-0.4-1-1-1h-0.7v2.2h-0.7V132.7z M-75.2,135h0.7c0.7,0,1.2-0.4,1.2-1c0-0.7-0.5-0.9-1.2-1c-0.3,0-0.6,0-0.6,0.1L-75.2,135L-75.2,135z"></path> <path class="st0" d="M-69.5,136.9c0.3,0.2,0.7,0.3,1.2,0.3c0.7,0,1.1-0.4,1.1-0.9c0-0.5-0.3-0.7-1-1c-0.8-0.3-1.3-0.7-1.3-1.5 c0-0.8,0.7-1.4,1.6-1.4c0.5,0,0.9,0.1,1.1,0.3l-0.2,0.5c-0.1-0.1-0.5-0.3-1-0.3c-0.7,0-1,0.4-1,0.8c0,0.5,0.3,0.7,1,1 c0.9,0.3,1.3,0.7,1.3,1.5c0,0.8-0.6,1.5-1.8,1.5c-0.5,0-1-0.1-1.3-0.3L-69.5,136.9z"></path> <path class="st0" d="M-58.5,132.6v5.1h-0.7v-5.1H-58.5z"></path> <path class="st0" d="M-55,137.7v-5.1h0.7l1.6,2.6c0.4,0.6,0.7,1.2,0.9,1.7l0,0c-0.1-0.7-0.1-1.3-0.1-2.1v-2.1h0.6v5.1h-0.7 l-1.6-2.6c-0.4-0.6-0.7-1.2-1-1.7h0c0,0.6,0,1.3,0,2.1v2.2L-55,137.7L-55,137.7z"></path> <path class="st0" d="M-44,137.5c-0.3,0.1-0.7,0.3-1.3,0.3c-1.5,0-2.5-0.9-2.5-2.6c0-1.6,1.1-2.7,2.7-2.7c0.6,0,1,0.1,1.2,0.2 l-0.1,0.5c-0.3-0.1-0.6-0.2-1-0.2c-1.2,0-2,0.8-2,2.1c0,1.3,0.7,2.1,2,2.1c0.4,0,0.8-0.1,1.1-0.2L-44,137.5z"></path> <path class="st0" d="M-41,137.3c0-0.3,0.2-0.5,0.4-0.5s0.4,0.2,0.4,0.5c0,0.3-0.2,0.5-0.4,0.5S-41,137.6-41,137.3z"></path> </g> <g> <polygon class="st0" points="-136.4,128.2 -150.8,128.2 -161.4,110.5 -166,116.1 -166,128.2 -179.6,128.2 -179.6,82.2 -166,82.2 -166,101.1 -151.9,82.4 -136.6,82.4 -152.2,102.3 "></polygon> <polygon class="st0" points="-40.4,82.5 -40.4,128.2 -53,128.2 -53,110.5 -69.2,110.5 -69.2,128.2 -81.8,128.2 -81.8,82.5 -69.2,82.5 -69.2,99.4 -53,99.4 -53,82.5 "></polygon> <polygon class="st0" points="-87.7,82.8 -87.7,128.2 -100.2,128.2 -100.2,106.8 -110.8,115.5 -121.4,106.9 -121.4,128.2 -133.9,128.2 -133.9,82.6 -110.7,100.7 "></polygon> </g> </g> <g id="Layer_2_00000114035131433610371970000011608648442928006801_"> <g id="Layer_1-2"> <polygon class="st0" points="118.5,109.2 110.4,109.2 110.4,102.2 108.2,102.2 108.2,118.2 110.4,118.2 110.4,111.3 118.5,111.3 118.5,118.2 120.7,118.2 120.7,102.2 118.5,102.2 "></polygon> <path class="st0" d="M129.1,105c-4,0-6.5,2.7-6.5,6.7v0.3c0,4,2.2,6.5,6.4,6.5c3.2,0,5.4-1.5,6.1-4.2h-2.4 c-0.5,1.5-1.8,2.3-3.7,2.3c-2.7,0-4.2-1.6-4.4-4.2h10.5v-1C135.3,108,133.4,105,129.1,105z M124.8,110.8c0.3-2.5,1.9-4,4.3-4 s3.8,1.6,4,4H124.8z"></path> <path class="st0" d="M143.4,105c-3.6,0-5.8,2-6,4.8h2.2c0.1-1.8,1.4-3.1,3.9-3.1c2.3,0,3.3,1,3.3,2.3c0,1.2-1.3,1.4-3.5,1.7 c-2.6,0.4-3.7,0.6-4.7,1.3c-1.1,0.7-1.7,1.8-1.7,3.1c0,2.1,1.4,3.4,4.2,3.4c2.9,0,4.8-1.6,5.7-3.5l0.2,3.2h1.8l0-8.8 C148.9,106.8,147.2,105,143.4,105z M146.9,112.1c0,2.2-2.1,4.7-5,4.7c-1.7,0-2.5-0.8-2.5-2c0-0.7,0.3-1.3,0.9-1.7 c0.7-0.5,1.6-0.7,3.5-1c1.4-0.2,2.5-0.5,3.1-1V112.1z"></path> <polygon class="st0" points="151.7,109.8 151.7,118.2 153.9,118.2 153.9,109.7 153.9,101.5 151.7,101.5 "></polygon> <path class="st0" d="M160.2,102.2h-1.7c0,0.5-0.1,1.7-0.2,2.1c-0.2,0.8-0.3,1-1.1,1.1c-0.3,0.1-1.2,0.1-1.6,0.1v1.9h2.5v6 c0,3.8,0.9,5,4.4,5h1.5v-2.1h-1c-2.3,0-2.8-0.5-2.8-3.2v-5.6h3.8v-2h-3.8L160.2,102.2z"></path> <path class="st0" d="M172.9,105c-2.3,0-3.9,1.2-4.7,2.9v-6.5h-2.1v16.7h2.1v-6.8c0-2.7,1.4-4.5,3.9-4.5c2.5,0,3.5,1.7,3.5,4v7.3 h2.2v-7.8C177.9,107.1,176.2,105,172.9,105z"></path> <path class="st0" d="M13.9,109.8c1.5-0.6,2.3-1.7,2.3-3.5v0c0-2.8-2.1-4.2-6.8-4.2H2.1v16h7.7c4.5,0,6.7-1.5,6.7-4.7 C16.6,111.4,15.7,110.3,13.9,109.8z M6.6,105.5h2.8c1.7,0,2.3,0.4,2.3,1.4v0c0,1-0.7,1.4-2.2,1.4H6.6V105.5z M11.9,112.9 c0,1-0.6,1.5-2.7,1.5H6.6v-3h2.6C11.3,111.4,11.9,111.8,11.9,112.9L11.9,112.9z"></path> <path class="st0" d="M22.7,102l-6.2,16h4.6l1-2.8h6l1,2.8h4.6l-6.3-16H22.7z M23.3,111.8l1.8-5.1l1.8,5.1H23.3z"></path> <path class="st0" d="M43.2,110.5c0,2.7-0.7,3.6-2.5,3.6c-1.7,0-2.5-1-2.5-3.6V102h-4.7v8.6c0,5.4,2.3,7.8,7.2,7.8 c4.5,0,7.2-2.4,7.2-7.8V102h-4.7V110.5z"></path> <path class="st0" d="M57.9,108.1c-2.5-0.4-3.8-0.6-3.8-1.6c0-0.8,0.6-1.4,2.2-1.4c1.7,0,2.6,0.5,2.7,1.9v0h4.6v0 c-0.4-3.6-2.8-5.4-7.3-5.4c-4.4,0-6.8,2.1-6.8,5.1c0,3.4,2.5,4.3,5.7,4.8c2.7,0.4,4,0.6,4,1.8c0,0.9-0.7,1.5-2.3,1.5 c-1.9,0-2.9-0.7-3-2.2v-0.1h-4.8v0c0.3,3.8,2.2,5.9,7.7,5.9c4.7,0,7.1-2.2,7.1-5.4C63.9,109.6,61.2,108.6,57.9,108.1z"></path> <path class="st0" d="M76,111.4c-0.2,1.8-1.1,2.9-3,2.9c-2.1,0-3.2-1.2-3.2-3.8v-0.9c0-2.7,1.1-3.9,3.2-3.9c1.9,0,2.8,1,3,2.7v0.1 h4.9v-0.3c-0.3-4.4-3.3-6.6-7.8-6.6c-4.8,0-7.9,2.7-7.9,7.8v1.3c0,5.2,2.9,7.7,7.8,7.7s7.7-2.2,8-6.9v-0.3H76V111.4z"></path> <polygon class="st0" points="97.2,108 97.2,102 92.7,102 92.7,108 92.7,108 87.2,108 87.2,102 82.6,102 82.6,118 87.2,118 87.2,112.2 92.7,112.2 92.7,112.2 92.7,112.2 92.7,118 97.2,118 97.2,112.2 97.2,112.2 97.2,112.2 102.7,112.2 102.7,108 "></polygon> <rect x="92.7" y="108" class="st2" width="4.5" height="4.2"></rect> </g> </g> <g> <path id="path107" class="st0" d="M293.5,106c-1.4,0-2.1,0.8-2.1,0.8v-0.6h-1.9v8.7h1.9v-6.5c0,0,0.5-0.8,1.7-0.8 c1.3,0,1.7,0.8,1.7,2.4v5h1.9v-5C296.7,107,295.5,106,293.5,106z"></path> <path id="path109" class="st0" d="M304.9,106.2H302v1.6h1v7.2h1.9V106.2L304.9,106.2L304.9,106.2z"></path> <path id="path111" class="st0" d="M303.9,104.8c0.7,0,1.2-0.6,1.2-1.3s-0.5-1.3-1.2-1.3s-1.2,0.6-1.2,1.3S303.2,104.8,303.9,104.8z "></path> <path id="path113" class="st0" d="M260,106.2h-2.9v1.6h1v7.2h1.9V106.2L260,106.2L260,106.2z"></path> <path id="path115" class="st0" d="M259,104.8c0.7,0,1.2-0.6,1.2-1.3s-0.5-1.3-1.2-1.3s-1.2,0.6-1.2,1.3 C257.7,104.3,258.3,104.8,259,104.8z"></path> <path id="path117" class="st0" d="M329,106c-1.2,0-3.9,0.8-3.9,4.6c0,3.4,2.5,4.5,3.9,4.5c2.2,0,3.2-1.7,3.2-1.7l-1.2-1.1 c0,0-0.7,1.2-2,1.2c-1.1,0-2-1.3-2-3c0-1.7,0.7-2.9,2-2.9c0.7,0,1.3,0.3,2,1l1.2-1.1C332.3,107.5,331.2,106,329,106z"></path> <path id="path119" class="st0" d="M265.8,113.5c-1.2,0-2.1-1.2-2.1-3c0-1.8,0.8-2.9,2.1-3c1.3,0,2.1,1.2,2.1,3 C267.9,112.3,267,113.5,265.8,113.5z M265.8,106c-2.4,0-4,1.9-4,4.5c0,2.7,1.6,4.6,4,4.6c2.4,0,4-1.9,4-4.6 C269.8,107.9,268.1,106,265.8,106z"></path> <path id="path121" class="st0" d="M281.9,109.7c0.2-1.3,0.7-2.1,1.8-2.1c1.5,0,1.9,1.2,2,2.1C285.4,109.7,282.1,109.7,281.9,109.7z M283.8,106c-2.4,0-3.9,1.8-3.9,4.6c0,2.7,1.6,4.5,3.9,4.5c2.1,0,3.1-1.2,3.1-1.2l-1.1-1.1c-0.6,0.5-1.3,0.7-2,0.7 c-1.1,0-1.8-0.9-2-2.2c0.2,0,5.7,0,5.7,0s0.1-0.6,0.1-0.9C287.6,107.7,286.1,106,283.8,106z"></path> <path id="path123" class="st0" d="M317.9,109.7c0.2-1.3,0.8-2.1,1.8-2.1c1.4,0,1.8,1.2,1.9,2.1H317.9z M319.9,106 c-2.4,0-3.9,1.8-3.9,4.6c0,2.6,1.6,4.5,3.9,4.5c2.1,0,3.1-1.2,3.1-1.2l-1.1-1.1c-0.6,0.5-1.3,0.7-2,0.7c-1,0-1.8-0.9-2-2.2h5.7 c0,0,0.1-0.6,0.1-0.9C323.6,107.7,322.2,106,319.9,106z"></path> <path id="path125" class="st0" d="M312.4,113.3c-0.3,0.1-0.7,0.2-1.1,0.2c-1.5,0-2.8-0.9-2.8-3c0-1.8,1.1-3,2.7-3 c0.5,0,0.8,0,1.1,0.1V113.3L312.4,113.3z M312.4,101.9v4.2c-0.3,0-0.7-0.1-1.2-0.1c-2.7,0-4.6,2-4.6,4.7c0,2.5,1.5,4.5,5,4.5 c1.1,0,2.3-0.4,2.7-0.7v-12.5H312.4z"></path> <path id="path127" class="st0" d="M255.8,110.2c0-2.9-1.8-4.2-3.9-4.2c-0.7,0-1.2,0.1-1.7,0.3v-4.4h-1.9v12.5 c0.5,0.3,1.6,0.7,2.7,0.7C253.9,115.1,255.8,113.3,255.8,110.2z M253.9,110.4c0,1.7-1,3.1-2.6,3.1c-0.5,0-0.8,0-1.1-0.2v-5.4 c0.2-0.1,0.7-0.4,1.4-0.4C253.3,107.6,253.9,108.8,253.9,110.4z"></path> <path id="path129" class="st0" d="M274.8,117.7c-1.5,0-2.4-0.5-2.4-1.3c0-0.9,0.9-1.4,2.4-1.4c1.4,0,2.4,0.5,2.4,1.3 C277.2,117.2,276.3,117.7,274.8,117.7z M274.7,107.5c1,0,1.6,0.7,1.6,1.9c0,1.1-0.6,1.9-1.6,1.9c-1,0-1.6-0.7-1.6-1.9 C273.2,108.2,273.8,107.5,274.7,107.5z M274.8,113.5c-0.4,0-1.1,0.1-1.2,0.1c-0.3-0.2-0.5-0.8-0.3-1.2c0.4,0.2,1,0.3,1.5,0.3 c2.1,0,3.4-1.4,3.4-3.4c0-0.7-0.3-1.6-0.7-1.8l1.1,0.1V106c0,0-3.7,0-3.8,0c-1,0-1.8,0.3-2.4,0.9c-0.6,0.6-1,1.5-1,2.5 c0,0.9,0.3,1.6,0.7,2.2l0,0c-0.3,0.4-0.5,0.9-0.4,1.5c0,0.4,0.1,0.7,0.3,1c-1.1,0.5-1.6,1.4-1.6,2.3l0,0l0,0c0,0.8,0.4,1.5,1.2,2.1 c0.8,0.5,1.9,0.8,3.2,0.8c1.3,0,2.4-0.3,3.2-0.8c0.8-0.5,1.2-1.2,1.2-2C279.2,114.7,277.4,113.5,274.8,113.5z"></path> <g id="path131"> <polygon class="st0" points="239.8,138.1 238.8,138.1 238.8,99.5 243.3,96.5 355.4,96.5 355.4,97.5 243.6,97.5 239.8,100 "></polygon> </g> <path id="path135" class="st0" d="M343.4,120.9c0.4,0,0.7,0,0.7-0.5c0-0.4-0.3-0.4-0.6-0.4h-0.6v0.8H343.4z M342.8,122.5h-0.5v-2.9 h1.1c0.7,0,1,0.2,1,0.8c0,0.5-0.3,0.7-0.7,0.8l0.8,1.3h-0.5l-0.7-1.2h-0.5L342.8,122.5L342.8,122.5z M343.3,118.9 c-1.1,0-2,0.9-2,2.1c0,1.2,0.8,2.1,2,2.1c1.1,0,2-0.9,2-2.1C345.4,119.7,344.5,118.9,343.3,118.9z M343.3,123.6 c-1.5,0-2.6-1.1-2.6-2.6c0-1.6,1.2-2.6,2.6-2.6c1.4,0,2.6,1,2.6,2.6C345.9,122.6,344.7,123.6,343.3,123.6z"></path> <g id="path3536"> <polygon class="st0" points="334.6,122.7 223.7,122.7 223.7,121.7 334.3,121.7 338.1,119.2 338.1,81.9 339,81.9 339,119.7 "></polygon> </g> </g> </svg> 