<?xml version="1.0" encoding="UTF-8"?> <svg xmlns="http://www.w3.org/2000/svg" xmlns:xlink="http://www.w3.org/1999/xlink" version="1.1" id="Layer_1" x="0px" y="0px" viewBox="0 0 180 60" style="enable-background:new 0 0 180 60;" xml:space="preserve"> <g> <g> <path d="M22.4,40.9c0,1.2-0.2,2.2-0.6,3s-0.9,1.6-1.5,2.2c-1,1-2.1,1.6-3.5,2s-2.8,0.6-4.4,0.6c-1.3,0-2.7-0.2-3.9-0.6 C7.2,47.7,6,47,5,46.1c-0.8-0.7-1.4-1.5-1.9-2.5s-0.7-2.1-0.7-3.3H7c0,0.6,0.1,1.2,0.4,1.7c0.2,0.5,0.6,1,0.9,1.3 c0.5,0.6,1.2,0.9,2,1.1c0.8,0.2,1.5,0.3,2.2,0.3c0.9,0,1.7-0.1,2.5-0.3s1.4-0.6,1.9-1c0.3-0.3,0.5-0.6,0.7-1s0.3-0.8,0.3-1.4 c0-0.9-0.3-1.6-0.9-2c-0.6-0.5-1.3-0.8-2-0.9c-0.8-0.2-1.8-0.3-2.8-0.4c-1-0.1-1.9-0.2-2.7-0.3c-0.9-0.1-1.7-0.4-2.4-0.7 c-0.8-0.4-1.4-0.8-2-1.4c-0.6-0.6-1-1.3-1.4-2.1s-0.5-1.7-0.5-2.7s0.2-1.9,0.6-2.7c0.4-0.8,0.9-1.5,1.6-2.2 c0.8-0.8,1.9-1.5,3.2-1.9c1.3-0.5,2.7-0.7,4.1-0.7c1.3,0,2.6,0.2,3.9,0.6c1.2,0.4,2.3,1,3.1,1.8c0.8,0.7,1.3,1.5,1.8,2.4 s0.7,1.9,0.7,2.9h-4.6c0-0.4-0.1-0.9-0.3-1.3c-0.2-0.4-0.4-0.8-0.8-1.1c-0.4-0.4-1-0.8-1.7-1s-1.4-0.4-2.1-0.4s-1.4,0.1-2.2,0.3 c-0.7,0.2-1.4,0.6-1.9,1.1c-0.3,0.3-0.5,0.6-0.6,0.9c-0.1,0.3-0.2,0.7-0.2,1.2c0,0.8,0.2,1.4,0.7,1.9c0.5,0.4,1.1,0.7,1.8,0.8 c0.8,0.1,1.7,0.2,2.7,0.3s1.9,0.2,2.7,0.3c0.9,0.1,1.8,0.4,2.7,0.8c0.8,0.4,1.5,0.8,2.2,1.4c0.6,0.6,1.1,1.3,1.5,2.2 C22.2,38.9,22.4,39.9,22.4,40.9"></path> </g> <g> <path d="M42,48.4l-1.8-2c-1,0.9-2.1,1.5-3.3,2c-1.2,0.4-2.5,0.6-3.7,0.6c-1.1,0-2.2-0.2-3.2-0.5c-1-0.4-1.9-0.8-2.6-1.5 c-0.8-0.6-1.3-1.4-1.8-2.4c-0.4-0.9-0.7-2-0.7-3.2c0-1.5,0.4-2.9,1.2-4c0.8-1.1,1.9-2,3.2-2.9c-0.4-0.4-0.8-0.8-1.1-1.3 c-0.3-0.4-0.6-0.8-0.8-1.3c-0.2-0.4-0.4-0.9-0.6-1.3c-0.1-0.5-0.2-1-0.2-1.6c0-1,0.2-1.9,0.6-2.6c0.4-0.8,0.8-1.4,1.5-2 c0.6-0.6,1.3-1,2.2-1.3c0.8-0.3,1.7-0.4,2.7-0.4c0.9,0,1.8,0.1,2.6,0.4s1.5,0.7,2.2,1.2c0.6,0.5,1.1,1.2,1.5,1.9 c0.4,0.8,0.6,1.6,0.6,2.6c0,0.8-0.1,1.5-0.4,2.2c-0.2,0.6-0.6,1.2-1,1.8c-0.4,0.5-0.9,1-1.5,1.5c-0.6,0.4-1.2,0.9-1.9,1.3l4.3,4.7 c0.2-0.4,0.4-0.8,0.4-1.4c0.1-0.5,0.1-1.1,0.2-1.7c0.1-0.6,0.1-1.1,0.1-1.6v-1.4h6.4v3.5h-2.9c-0.1,1-0.2,2-0.4,2.9 s-0.6,1.8-1.1,2.7l4.6,5C47.3,48.4,42,48.4,42,48.4z M31.9,37.4c-0.4,0.3-0.8,0.5-1.2,0.7s-0.7,0.5-0.9,0.8 c-0.3,0.3-0.5,0.6-0.6,1C29,40.3,29,40.8,29,41.3c0,0.6,0.1,1.2,0.4,1.7c0.2,0.5,0.6,0.9,1,1.2s0.9,0.6,1.4,0.7 c0.5,0.2,1.1,0.2,1.7,0.2c0.8,0,1.5-0.1,2.2-0.3s1.4-0.6,1.9-1.2L31.9,37.4z M36.3,29.3c0-0.9-0.3-1.5-0.8-2s-1.2-0.7-2-0.7 c-0.7,0-1.4,0.2-1.9,0.6c-0.6,0.4-0.8,1.1-0.8,2c0,0.4,0.1,0.8,0.2,1.1c0.1,0.4,0.4,0.7,0.6,1s0.5,0.6,0.8,0.9 c0.3,0.3,0.6,0.6,0.8,0.8c0.4-0.2,0.8-0.4,1.1-0.6c0.4-0.2,0.7-0.5,1-0.8s0.6-0.6,0.7-1C36.2,30.2,36.3,29.8,36.3,29.3"></path> </g> <g> <path d="M69.1,31.4c0,1.2-0.2,2.3-0.6,3.3s-0.9,1.8-1.7,2.5c-0.7,0.7-1.7,1.3-2.7,1.6c-1.1,0.4-2.4,0.6-3.8,0.6H55v8.9h-4.5V23.5 h9.7c1.4,0,2.7,0.2,3.8,0.6s2,0.9,2.7,1.6s1.3,1.5,1.7,2.5C69,29.2,69.1,30.2,69.1,31.4 M64.6,31.5c0-1.2-0.4-2.2-1.1-2.9 c-0.7-0.8-1.8-1.1-3.3-1.1h-5.1v8h5.1c1.5,0,2.6-0.4,3.3-1.1C64.2,33.6,64.6,32.7,64.6,31.5"></path> </g> <g> <path d="M95.8,48.3l-0.5-2.7c-0.2,0.4-0.5,0.7-0.8,1.1c-0.4,0.4-0.8,0.7-1.4,1c-0.5,0.3-1.2,0.6-1.8,0.8s-1.4,0.3-2.2,0.3 c-1.5,0-2.8-0.2-4.1-0.6c-1.3-0.4-2.4-1.1-3.4-2.2c-0.6-0.7-1.2-1.4-1.6-2.1c-0.4-0.8-0.7-1.5-1-2.4c-0.2-0.8-0.4-1.7-0.5-2.7 c-0.1-0.9-0.1-1.9-0.1-2.9s0-2,0.1-2.9s0.2-1.8,0.5-2.6c0.2-0.8,0.6-1.6,1-2.4s1-1.5,1.6-2.1c1-1,2.1-1.7,3.4-2.2s2.7-0.7,4-0.7 c1.5,0,2.9,0.3,4.2,0.8c1.3,0.5,2.3,1.2,3.2,2.1c0.6,0.6,1.1,1.3,1.5,2.2c0.4,0.8,0.7,1.8,0.7,2.9H94c-0.1-0.5-0.2-0.9-0.4-1.3 c-0.2-0.4-0.4-0.7-0.7-1c-0.9-1-2.2-1.5-4-1.5c-0.7,0-1.5,0.1-2.2,0.4c-0.8,0.3-1.4,0.7-1.9,1.3c-0.4,0.4-0.8,1-1,1.5 c-0.3,0.6-0.5,1.2-0.6,1.8s-0.2,1.3-0.3,2c0,0.6-0.1,1.3-0.1,1.8c0,0.6,0,1.2,0.1,1.8c0.1,0.7,0.1,1.3,0.3,2 c0.1,0.6,0.4,1.3,0.6,1.9c0.3,0.6,0.6,1.1,1,1.5c0.5,0.5,1.1,0.9,1.8,1.2c0.7,0.3,1.5,0.4,2.2,0.4c0.8,0,1.5-0.1,2.2-0.4 c0.6-0.3,1.1-0.6,1.5-1.1c0.7-0.7,1.1-1.4,1.3-2.2c0.2-0.8,0.3-1.7,0.3-2.6h-5.8v-3.8h10.3v13.6C98.7,48.3,95.8,48.3,95.8,48.3z"></path> </g> <g> <path d="M109.7,48.3c-0.4,0.1-0.8,0.1-1,0.2c-0.2,0-0.5,0.1-1,0.1c-1.5,0-2.7-0.4-3.6-1.2s-1.4-2-1.4-3.8V23h4.4v19.9 c0,0.5,0.1,1,0.3,1.3c0.2,0.3,0.7,0.5,1.4,0.5c0.2,0,0.3,0,0.4,0s0.2,0,0.3,0C109.7,44.6,109.7,48.3,109.7,48.3z"></path> </g> <g> <path d="M128.3,39.2c0,1.5-0.2,2.8-0.6,3.9c-0.4,1.1-0.9,2-1.6,2.9c-0.6,0.8-1.5,1.4-2.6,2s-2.4,0.8-3.8,0.8s-2.7-0.3-3.8-0.8 s-2-1.2-2.6-2c-0.7-0.9-1.2-1.8-1.6-2.9c-0.4-1.1-0.6-2.3-0.6-3.9s0.2-2.8,0.6-3.9c0.4-1.1,0.9-2,1.6-2.9c0.6-0.8,1.5-1.4,2.6-2 s2.4-0.8,3.8-0.8s2.7,0.3,3.8,0.8s2,1.2,2.6,2c0.7,0.9,1.2,1.8,1.6,2.9S128.3,37.7,128.3,39.2 M123.8,39.2c0-0.9-0.1-1.7-0.2-2.5 c-0.2-0.8-0.5-1.5-1.1-2.1c-0.3-0.3-0.7-0.6-1.2-0.8s-1-0.3-1.6-0.3s-1.1,0.1-1.6,0.3s-0.8,0.5-1.2,0.8c-0.5,0.6-0.9,1.3-1.1,2.1 s-0.2,1.6-0.2,2.5s0.1,1.7,0.2,2.5c0.2,0.8,0.5,1.5,1.1,2.1c0.3,0.3,0.7,0.6,1.2,0.8s1,0.3,1.6,0.3s1.1-0.1,1.6-0.3 s0.8-0.5,1.2-0.8c0.5-0.6,0.9-1.3,1.1-2.1C123.7,40.9,123.8,40.1,123.8,39.2"></path> </g> <g> <path d="M148.5,39.3c0,1.7-0.3,3.3-0.8,4.6s-1.3,2.5-2.5,3.4c-0.6,0.5-1.2,0.8-2,1.1c-0.7,0.3-1.6,0.4-2.5,0.4c-1,0-2-0.2-2.9-0.6 s-1.7-1-2.2-1.8l-0.3,2h-3.8V23h4.4v8.4c0.4-0.5,1.1-0.9,1.9-1.3c0.8-0.4,1.8-0.5,2.9-0.5c0.9,0,1.8,0.1,2.5,0.4s1.4,0.6,2,1.1 C147.4,32.9,148.5,35.6,148.5,39.3 M144,39.2c0-0.8-0.1-1.6-0.2-2.4c-0.1-0.8-0.5-1.5-0.9-2.1c-0.3-0.4-0.7-0.7-1.2-1 s-1.1-0.4-1.7-0.4c-0.9,0-1.6,0.2-2.1,0.6c-0.5,0.4-1,0.8-1.3,1.4c-0.3,0.6-0.5,1.2-0.6,1.9s-0.1,1.4-0.1,2c0,0.9,0.1,1.8,0.3,2.7 s0.6,1.7,1.3,2.2c0.3,0.3,0.7,0.5,1.1,0.7c0.4,0.2,0.9,0.2,1.5,0.2c0.7,0,1.3-0.1,1.7-0.4c0.5-0.3,0.9-0.6,1.2-1 c0.5-0.6,0.8-1.3,0.9-2.1C144,40.8,144,40,144,39.2"></path> </g> <g> <path d="M167.9,48.1c-0.4,0.2-0.7,0.3-1,0.4c-0.3,0.1-0.7,0.1-1.2,0.1c-1,0-1.7-0.3-2.2-0.8s-0.8-1.1-0.9-1.8 c-0.4,0.8-1.1,1.4-2.1,1.9s-2.1,0.8-3.4,0.8c-1.1,0-2.1-0.1-2.9-0.5c-0.8-0.3-1.5-0.7-2-1.3s-1-1.1-1.3-1.8s-0.4-1.4-0.4-2.2 c0-0.9,0.1-1.6,0.5-2.3c0.3-0.7,0.8-1.3,1.3-1.8s1.2-0.9,2-1.1c0.8-0.3,1.5-0.4,2.4-0.5l5.4-0.4v-1.2c0-0.9-0.2-1.6-0.6-2.1 c-0.4-0.5-1.2-0.8-2.5-0.8c-1,0-1.8,0.2-2.4,0.7c-0.6,0.4-0.9,1.1-0.9,1.9h-4.2c0.1-1,0.3-1.9,0.7-2.7s1-1.4,1.6-1.8 c0.7-0.5,1.5-0.8,2.4-1.1c0.9-0.2,1.8-0.4,2.9-0.4c1.6,0,3,0.3,4.2,0.8s2.1,1.5,2.7,2.9c0.2,0.6,0.4,1.2,0.4,1.8 c0.1,0.6,0.1,1.3,0.1,1.9v6.8c0,0.4,0.1,0.7,0.2,0.9s0.4,0.3,0.8,0.3c0.2,0,0.3,0,0.4,0c0.1,0,0.1,0,0.2,0L167.9,48.1L167.9,48.1z M162.1,40.2l-4.6,0.4c-0.7,0.1-1.3,0.3-1.8,0.7s-0.8,1-0.8,1.7s0.3,1.3,0.8,1.7s1.1,0.6,1.8,0.6c1.4,0,2.5-0.4,3.4-1.1 c0.9-0.7,1.3-1.8,1.3-3.1C162.1,41.1,162.1,40.2,162.1,40.2z"></path> </g> <g> <path d="M177.6,48.3c-0.4,0.1-0.8,0.1-1,0.2c-0.2,0-0.5,0.1-1,0.1c-1.5,0-2.7-0.4-3.6-1.2c-0.9-0.8-1.4-2-1.4-3.8V23h4.4v19.9 c0,0.5,0.1,1,0.3,1.3s0.7,0.5,1.4,0.5c0.2,0,0.3,0,0.4,0c0.1,0,0.2,0,0.3,0L177.6,48.3L177.6,48.3z"></path> </g> <g> <rect x="2.5" y="11" width="175.1" height="4"></rect> </g> </g> </svg> 