<?xml version="1.0" encoding="UTF-8"?> <svg xmlns:rdf="http://www.w3.org/1999/02/22-rdf-syntax-ns#" xmlns:cc="http://creativecommons.org/ns#" xmlns:dc="http://purl.org/dc/elements/1.1/" xmlns="http://www.w3.org/2000/svg" xmlns:xlink="http://www.w3.org/1999/xlink" version="1.1" id="Layer_1" x="0px" y="0px" viewBox="0 0 64 64" style="enable-background:new 0 0 64 64;" xml:space="preserve"> <style type="text/css"> .st0{filter:url(#Adobe_OpacityMaskFilter);} .st1{fill-rule:evenodd;clip-rule:evenodd;fill:#FFFFFF;} .st2{mask:url(#b_00000050663372230850924740000011940173052978315444_);fill-rule:evenodd;clip-rule:evenodd;fill:#00A1E0;} .st3{fill-rule:evenodd;clip-rule:evenodd;fill:#FFFFFE;} </style> <defs> <filter id="Adobe_OpacityMaskFilter" filterUnits="userSpaceOnUse" x="1.1" y="10.4" width="61.7" height="43.2"> <feColorMatrix type="matrix" values="1 0 0 0 0 0 1 0 0 0 0 0 1 0 0 0 0 0 1 0"></feColorMatrix> </filter> </defs> <mask maskUnits="userSpaceOnUse" x="1.1" y="10.4" width="61.7" height="43.2" id="b_00000050663372230850924740000011940173052978315444_"> <g class="st0"> <path id="a_00000085931657960915723970000015727932706369074098_" class="st1" d="M1.2,10.4h61.7v43.1H1.2L1.2,10.4z"></path> </g> </mask> <path class="st2" d="M26.8,15.1c2-2.1,4.8-3.4,7.8-3.4c4.1,0,7.6,2.3,9.5,5.6c1.7-0.8,3.5-1.1,5.4-1.1c7.4,0,13.3,6,13.3,13.4 s-6,13.4-13.3,13.4c-0.9,0-1.8-0.1-2.6-0.3c-1.7,3-4.9,5-8.5,5c-1.5,0-2.9-0.3-4.3-1c-1.7,4-5.6,6.8-10.2,6.8c-4.8,0-8.8-3-10.4-7.3 c-0.7,0.1-1.4,0.2-2.1,0.2c-5.7,0-10.3-4.7-10.3-10.4c0-3.9,2.1-7.2,5.1-9c-0.7-1.5-1-3.1-1-4.8c0-6.6,5.4-12,12-12 C21.2,10.4,24.6,12.2,26.8,15.1"></path> <path class="st3" d="M14.4,31.8L14.4,31.8c0,1.1-0.8,1.8-2.1,1.8c-0.6,0-1.2-0.1-1.8-0.4c-0.1-0.1-0.2-0.1-0.3-0.2c0,0-0.1,0,0-0.1 l0.2-0.7c0-0.1,0.1-0.1,0.2-0.1c0.1,0,0.1,0.1,0.2,0.1c0.7,0.5,1.4,0.5,1.6,0.5c0.5,0,0.9-0.3,0.9-0.7v0c0-0.4-0.5-0.6-1.1-0.8 l-0.1,0c-0.8-0.2-1.7-0.6-1.7-1.6v0c0-1,0.8-1.7,2-1.7h0.1c0.7,0,1.3,0.2,1.8,0.5c0,0,0.1,0.1,0.1,0.1c0,0.1-0.2,0.6-0.3,0.7 c0,0.1-0.2,0-0.2,0c-0.4-0.2-1.1-0.4-1.6-0.4c-0.5,0-0.8,0.3-0.8,0.6v0c0,0.4,0.5,0.6,1.2,0.8l0.1,0C13.5,30.4,14.4,30.8,14.4,31.8z "></path> <path class="st3" d="M19.7,29.8c0-0.7-0.2-1.2-0.6-1.6c-0.4-0.3-0.9-0.5-1.6-0.5c-0.3,0-0.7,0-1,0.1c0,0-0.8,0.1-1.1,0.4 c0,0-0.1,0,0,0.1l0.2,0.7c0,0.1,0.1,0.1,0.1,0.1s0,0,0.1,0c0.7-0.4,1.6-0.4,1.6-0.4c0.4,0,0.7,0.1,0.9,0.2c0.2,0.2,0.3,0.4,0.3,0.9 V30c-0.3,0-0.6-0.1-0.6-0.1l0,0c-0.1,0-0.3,0-0.5,0c-0.3,0-0.6,0-0.9,0.1c-0.3,0.1-0.5,0.2-0.8,0.4c-0.2,0.1-0.4,0.3-0.5,0.6 c-0.1,0.2-0.2,0.5-0.2,0.8c0,0.3,0,0.6,0.2,0.8c0.1,0.2,0.3,0.4,0.5,0.6c0.2,0.1,0.4,0.2,0.7,0.3c0.3,0.1,0.6,0.1,1,0.1 c0.4,0,0.7,0,1.1-0.1c0.3,0,0.6-0.1,0.9-0.2c0.1,0,0.3-0.1,0.3-0.1c0.1,0,0.1-0.1,0.1-0.1L19.7,29.8z M18.5,32.5c0,0-0.5,0.1-1,0.1 c-0.7,0-1-0.2-1-0.2c-0.1-0.1-0.2-0.1-0.2-0.2c-0.1-0.1-0.1-0.3-0.1-0.5c0-0.3,0.1-0.5,0.3-0.7c0,0,0.3-0.3,1-0.3c0.3,0,0.7,0,1,0.1 V32.5z"></path> <path class="st3" d="M27.8,29.3L27.8,29.3c-0.1-0.3-0.3-0.7-0.5-0.8c-0.2-0.2-0.5-0.4-0.7-0.5c-0.3-0.1-0.7-0.2-1-0.2 c-0.4,0-0.9,0.1-1.2,0.2c-0.3,0.2-0.6,0.4-0.8,0.6c-0.2,0.3-0.4,0.6-0.5,0.9c-0.1,0.4-0.2,0.7-0.2,1.1c0,0.4,0.1,0.8,0.2,1.1 c0.1,0.3,0.3,0.7,0.5,0.9c0.2,0.3,0.5,0.5,0.9,0.6c0.4,0.1,0.8,0.2,1.3,0.2c1,0,1.6-0.2,1.8-0.4c0,0,0.1-0.1,0-0.2l-0.2-0.7 c0-0.1-0.1-0.1-0.1-0.1c-0.3,0.1-0.6,0.3-1.5,0.3c-0.6,0-1-0.2-1.2-0.4c-0.3-0.3-0.4-0.7-0.4-1.2h3.6c0,0,0.1,0,0.1-0.1 C27.9,30.8,28,30.1,27.8,29.3z M24.2,30.1c0.1-0.3,0.2-0.6,0.3-0.8c0.2-0.3,0.5-0.5,1-0.5c0.5,0,0.8,0.2,1,0.5 c0.1,0.2,0.2,0.5,0.2,0.8H24.2z"></path> <path class="st3" d="M32.9,31.8L32.9,31.8c0,1.1-0.8,1.8-2.1,1.8c-0.6,0-1.2-0.1-1.8-0.4c-0.1-0.1-0.2-0.1-0.4-0.2c0,0-0.1,0,0-0.1 h0l0.2-0.7c0-0.1,0.1-0.1,0.2-0.1c0.1,0,0.1,0.1,0.2,0.1c0.7,0.5,1.4,0.5,1.6,0.5c0.6,0,0.9-0.3,0.9-0.7v0c0-0.4-0.5-0.6-1.1-0.8 l-0.1,0c-0.8-0.2-1.7-0.6-1.7-1.6v0c0-1,0.8-1.7,2-1.7h0.1c0.7,0,1.3,0.2,1.8,0.5c0,0,0.1,0.1,0.1,0.2c0,0.1-0.2,0.6-0.3,0.7 c0,0.1-0.2,0-0.2,0c-0.4-0.2-1.1-0.4-1.6-0.4c-0.5,0-0.8,0.3-0.8,0.6v0c0,0.4,0.5,0.6,1.2,0.8l0.1,0C32,30.4,32.9,30.8,32.9,31.8z"></path> <path class="st3" d="M42.4,29.5c-0.1-0.4-0.3-0.7-0.5-0.9c-0.2-0.3-0.5-0.5-0.8-0.6c-0.3-0.1-0.7-0.2-1.1-0.2s-0.8,0.1-1.1,0.2 c-0.3,0.2-0.6,0.4-0.8,0.6c-0.2,0.3-0.4,0.6-0.5,0.9c-0.1,0.3-0.2,0.7-0.2,1.1c0,0.4,0,0.8,0.2,1.1c0.1,0.4,0.3,0.7,0.5,0.9 c0.2,0.3,0.5,0.5,0.8,0.6c0.3,0.1,0.7,0.2,1.1,0.2s0.8-0.1,1.1-0.2c0.3-0.1,0.6-0.4,0.8-0.6c0.2-0.3,0.4-0.6,0.5-0.9 c0.1-0.3,0.2-0.7,0.2-1.1C42.5,30.3,42.5,29.9,42.4,29.5z M41,32.1c-0.2,0.3-0.6,0.5-1,0.5c-0.5,0-0.8-0.2-1-0.5 c-0.2-0.3-0.3-0.8-0.3-1.4c0-0.6,0.1-1.1,0.3-1.4c0.2-0.3,0.5-0.5,1-0.5c0.5,0,0.8,0.2,1,0.5c0.2,0.3,0.3,0.8,0.3,1.4 C41.3,31.3,41.2,31.8,41,32.1z"></path> <path class="st3" d="M46.8,28c0,0.1-0.2,0.6-0.3,0.8c0,0.1-0.1,0.1-0.1,0.1c0,0-0.2,0-0.4,0c-0.2,0-0.3,0-0.5,0.1 c-0.2,0-0.3,0.1-0.4,0.3c-0.1,0.1-0.2,0.3-0.3,0.5c-0.1,0.2-0.1,0.6-0.1,0.9v2.7c0,0.1,0,0.1-0.1,0.1h-0.9c-0.1,0-0.1,0-0.1-0.1V28 c0-0.1,0-0.1,0.1-0.1h0.9c0.1,0,0.1,0,0.1,0.1v0.4c0.1-0.2,0.4-0.3,0.6-0.4c0.2-0.1,0.5-0.2,0.9-0.1c0.2,0,0.5,0.1,0.6,0.1 C46.7,27.9,46.8,28,46.8,28z"></path> <path class="st3" d="M51.3,33.2c0,0.1,0,0.1,0,0.1c-0.4,0.1-1,0.3-1.5,0.3c-0.9,0-1.6-0.3-2.1-0.8c-0.5-0.5-0.7-1.2-0.7-2.1 c0-0.4,0.1-0.8,0.2-1.1c0.1-0.4,0.3-0.7,0.5-0.9c0.2-0.3,0.5-0.5,0.9-0.6c0.3-0.1,0.7-0.2,1.2-0.2c0.3,0,0.6,0,0.8,0 c0.2,0,0.6,0.1,0.7,0.2c0,0,0.1,0.1,0.1,0.1c-0.1,0.3-0.2,0.5-0.3,0.7c0,0.1-0.1,0.1-0.1,0.1c-0.4-0.1-0.7-0.2-1.1-0.2 c-0.5,0-0.9,0.2-1.2,0.5c-0.3,0.3-0.4,0.8-0.4,1.4c0,0.7,0.2,1.1,0.5,1.4c0.3,0.3,0.7,0.5,1.2,0.5c0.2,0,0.4,0,0.6,0 c0.2,0,0.3-0.1,0.5-0.1c0,0,0.1,0,0.1,0.1L51.3,33.2z"></path> <path class="st3" d="M56.5,29.3L56.5,29.3c-0.1-0.3-0.3-0.7-0.5-0.8c-0.2-0.2-0.5-0.4-0.7-0.5c-0.3-0.1-0.7-0.2-1-0.2 c-0.4,0-0.8,0.1-1.2,0.2c-0.3,0.2-0.6,0.4-0.8,0.6c-0.2,0.3-0.4,0.6-0.5,0.9c-0.1,0.4-0.2,0.7-0.2,1.1c0,0.4,0.1,0.8,0.2,1.1 c0.1,0.3,0.3,0.7,0.5,0.9c0.2,0.3,0.5,0.5,0.9,0.6c0.4,0.1,0.8,0.2,1.3,0.2c1,0,1.6-0.2,1.8-0.4c0,0,0.1-0.1,0-0.2l-0.2-0.7 c0-0.1-0.1-0.1-0.1-0.1c-0.3,0.1-0.6,0.3-1.5,0.3c-0.6,0-1-0.2-1.2-0.4c-0.3-0.3-0.4-0.7-0.4-1.2h3.6c0,0,0.1,0,0.1-0.1 C56.6,30.8,56.7,30.1,56.5,29.3z M52.9,30.1c0.1-0.3,0.1-0.6,0.3-0.8c0.2-0.3,0.5-0.5,1-0.5c0.5,0,0.8,0.2,1,0.5 c0.2,0.2,0.2,0.5,0.2,0.8H52.9z"></path> <path class="st3" d="M22,25.7v7.6c0,0.1,0,0.1-0.1,0.1h-1c-0.1,0-0.1,0-0.1-0.1v-7.6c0-0.1,0-0.1,0.1-0.1h1C22,25.6,22,25.6,22,25.7 z"></path> <path class="st3" d="M38,25.7l-0.3,0.8c0,0.1,0,0.1-0.2,0.1c0,0-0.1,0-0.2-0.1c-0.1,0-0.2,0-0.3,0c-0.1,0-0.3,0-0.4,0.1 s-0.2,0.1-0.3,0.2c-0.1,0.1-0.2,0.2-0.2,0.4c-0.1,0.4-0.2,0.8-0.2,0.8h1.1c0.1,0,0.1,0,0.1,0.1l-0.1,0.7c0,0.1-0.1,0.1-0.1,0.1h-1.2 L35,33.4c-0.1,0.5-0.2,0.9-0.3,1.2c-0.1,0.3-0.3,0.6-0.5,0.8c-0.2,0.2-0.4,0.4-0.7,0.5C33.3,36,33,36,32.7,36c-0.2,0-0.3,0-0.5,0 c-0.2,0-0.2-0.1-0.3-0.1c0,0-0.1-0.1,0-0.1c0-0.1,0.2-0.7,0.3-0.7c0-0.1,0.1-0.1,0.1-0.1c0.1,0,0.1,0,0.2,0.1c0.1,0,0.2,0,0.3,0 c0.2,0,0.3,0,0.4-0.1c0.2-0.1,0.2-0.1,0.3-0.2s0.2-0.3,0.2-0.5c0.1-0.2,0.2-0.5,0.2-0.9l0.8-4.5h-0.8c-0.1,0-0.1-0.1-0.1-0.1 l0.1-0.7c0-0.1,0.1-0.1,0.1-0.1h0.8l0-0.2c0.1-0.7,0.4-1.3,0.7-1.6c0.3-0.4,0.9-0.5,1.5-0.5c0.2,0,0.3,0,0.5,0c0.1,0,0.2,0,0.3,0.1 C38,25.6,38.1,25.6,38,25.7z"></path> </svg> 