<?xml version="1.0" encoding="UTF-8"?> <svg xmlns="http://www.w3.org/2000/svg" width="64" height="64" viewBox="0 0 64 64" fill="none"><path d="M19.9999 47.614C14.9076 44.5421 11.2154 39.4612 10.0768 33.5002M20.9878 11.0002C24.0595 9.35995 27.5827 8.42773 31.3283 8.42773C35.4164 8.42773 39.2396 9.53823 42.4999 11.4678M52.5798 33.5002C51.4412 39.4612 47.749 44.5421 42.6567 47.614" stroke="black" stroke-linecap="round" stroke-linejoin="round"></path><path d="M19.9999 47.614C14.9076 44.5421 11.2154 39.4612 10.0768 33.5002M20.9878 11.0002C24.0595 9.35995 27.5827 8.42773 31.3283 8.42773C35.4164 8.42773 39.2396 9.53823 42.4999 11.4678M52.5798 33.5002C51.4412 39.4612 47.749 44.5421 42.6567 47.614" stroke="url(#paint0_linear_526_10250)" stroke-linecap="round" stroke-linejoin="round"></path><path d="M18.0798 13.1028C18.0798 15.3734 16.1948 17.2183 13.8748 17.2183C11.5548 17.2183 9.6698 15.3734 9.6698 13.1028C9.6698 10.8322 11.5548 8.9873 13.8748 8.9873C16.1948 8.9873 18.0798 10.8322 18.0798 13.1028Z" stroke="white" stroke-linecap="round" stroke-linejoin="round"></path><path d="M22.6893 30.4911V24.2694C22.6893 22.4245 21.163 20.9307 19.278 20.9307H8.464C6.579 20.9307 5.05267 22.4245 5.05267 24.2694V30.4911" stroke="white" stroke-linecap="square" stroke-linejoin="bevel"></path><path d="M9.76135 26.2705V30.4906" stroke="white" stroke-linecap="round" stroke-linejoin="bevel"></path><path d="M17.9883 30.4906V26.2705" stroke="white" stroke-linecap="round" stroke-linejoin="bevel"></path><path d="M53.3302 13.1028C53.3302 15.3734 51.4452 17.2183 49.1252 17.2183C46.8052 17.2183 44.9202 15.3734 44.9202 13.1028C44.9202 10.8322 46.8052 8.9873 49.1252 8.9873C51.4452 8.9873 53.3302 10.8322 53.3302 13.1028Z" stroke="white" stroke-linecap="round" stroke-linejoin="round"></path><path d="M57.9473 30.4911V24.2694C57.9473 22.4245 56.421 20.9307 54.536 20.9307H43.7144C41.8294 20.9307 40.303 22.4245 40.303 24.2694V30.4911" stroke="white" stroke-linecap="square" stroke-linejoin="bevel"></path><path d="M45.0193 26.2705V30.4906" stroke="white" stroke-linecap="round" stroke-linejoin="bevel"></path><path d="M53.2463 30.4906V26.2705" stroke="white" stroke-linecap="round" stroke-linejoin="bevel"></path><path d="M35.7775 37.6243C35.7775 39.8949 33.8925 41.7398 31.5725 41.7398C29.2525 41.7398 27.3675 39.8949 27.3675 37.6243C27.3675 35.3537 29.2525 33.5088 31.5725 33.5088C33.8925 33.5088 35.7775 35.3537 35.7775 37.6243Z" stroke="white" stroke-linecap="round" stroke-linejoin="round"></path><path d="M40.3947 55.0116V48.7899C40.3947 46.945 38.8683 45.4512 36.9833 45.4512H26.1617C24.2767 45.4512 22.7504 46.945 22.7504 48.7899V55.0116" stroke="white" stroke-linecap="square" stroke-linejoin="bevel"></path><path d="M27.459 50.792V55.012" stroke="white" stroke-linecap="round" stroke-linejoin="round"></path><path d="M35.6859 55.012V50.792" stroke="white" stroke-linecap="round" stroke-linejoin="round"></path><path d="M9.76135 27.4658V30.4908" stroke="white" stroke-linecap="square" stroke-linejoin="bevel"></path><path d="M17.9882 30.4908V27.4658" stroke="white" stroke-linecap="square" stroke-linejoin="bevel"></path><path d="M45.0194 27.4658V30.4908" stroke="white" stroke-linecap="square" stroke-linejoin="bevel"></path><path d="M53.2463 30.4908V27.4658" stroke="white" stroke-linecap="square" stroke-linejoin="bevel"></path><path d="M27.459 51.9873V55.0123" stroke="white" stroke-linecap="square" stroke-linejoin="bevel"></path><path d="M35.6859 55.0123V51.9873" stroke="white" stroke-linecap="square" stroke-linejoin="bevel"></path><defs><linearGradient id="paint0_linear_526_10250" x1="24.3026" y1="21.8336" x2="65.4214" y2="60.6233" gradientUnits="userSpaceOnUse"><stop offset="0.236106" stop-color="#DA291C"></stop><stop offset="1" stop-color="#FFCD00"></stop></linearGradient></defs></svg> 