<?xml version="1.0" encoding="UTF-8"?> <svg xmlns="http://www.w3.org/2000/svg" width="64" height="64" viewBox="0 0 64 64" fill="none"><path d="M19.9999 47.614C14.9076 44.5421 11.2154 39.4612 10.0768 33.5002M20.9878 11.0002C24.0595 9.35995 27.5827 8.42773 31.3283 8.42773C35.4164 8.42773 39.2396 9.53823 42.4999 11.4678M52.5798 33.5002C51.4412 39.4612 47.749 44.5421 42.6567 47.614" stroke="black" stroke-linecap="round" stroke-linejoin="round"></path><path d="M19.9999 47.614C14.9076 44.5421 11.2154 39.4612 10.0768 33.5002M20.9878 11.0002C24.0595 9.35995 27.5827 8.42773 31.3283 8.42773C35.4164 8.42773 39.2396 9.53823 42.4999 11.4678M52.5798 33.5002C51.4412 39.4612 47.749 44.5421 42.6567 47.614" stroke="url(#paint0_linear_526_10119)" stroke-linecap="round" stroke-linejoin="round"></path><path d="M18.0797 13.1028C18.0797 15.3734 16.1947 17.2183 13.8747 17.2183C11.5547 17.2183 9.66968 15.3734 9.66968 13.1028C9.66968 10.8322 11.5547 8.9873 13.8747 8.9873C16.1947 8.9873 18.0797 10.8322 18.0797 13.1028Z" stroke="black" stroke-linecap="round" stroke-linejoin="round"></path><path d="M22.6893 30.4911V24.2694C22.6893 22.4245 21.1629 20.9307 19.2779 20.9307H8.46394C6.57894 20.9307 5.05261 22.4245 5.05261 24.2694V30.4911" stroke="black" stroke-linecap="square" stroke-linejoin="bevel"></path><path d="M9.76135 26.2705V30.4906" stroke="black" stroke-linecap="round" stroke-linejoin="bevel"></path><path d="M17.9882 30.4906V26.2705" stroke="black" stroke-linecap="round" stroke-linejoin="bevel"></path><path d="M53.3303 13.1028C53.3303 15.3734 51.4453 17.2183 49.1253 17.2183C46.8053 17.2183 44.9203 15.3734 44.9203 13.1028C44.9203 10.8322 46.8053 8.9873 49.1253 8.9873C51.4453 8.9873 53.3303 10.8322 53.3303 13.1028Z" stroke="black" stroke-linecap="round" stroke-linejoin="round"></path><path d="M57.9474 30.4911V24.2694C57.9474 22.4245 56.4211 20.9307 54.5361 20.9307H43.7144C41.8294 20.9307 40.3031 22.4245 40.3031 24.2694V30.4911" stroke="black" stroke-linecap="square" stroke-linejoin="bevel"></path><path d="M45.0194 26.2705V30.4906" stroke="black" stroke-linecap="round" stroke-linejoin="bevel"></path><path d="M53.2463 30.4906V26.2705" stroke="black" stroke-linecap="round" stroke-linejoin="bevel"></path><path d="M35.7775 37.6243C35.7775 39.8949 33.8925 41.7398 31.5724 41.7398C29.2524 41.7398 27.3674 39.8949 27.3674 37.6243C27.3674 35.3537 29.2524 33.5088 31.5724 33.5088C33.8925 33.5088 35.7775 35.3537 35.7775 37.6243Z" stroke="black" stroke-linecap="round" stroke-linejoin="round"></path><path d="M40.3947 55.0116V48.7899C40.3947 46.945 38.8683 45.4512 36.9833 45.4512H26.1617C24.2767 45.4512 22.7504 46.945 22.7504 48.7899V55.0116" stroke="black" stroke-linecap="square" stroke-linejoin="bevel"></path><path d="M27.4591 50.792V55.012" stroke="black" stroke-linecap="round" stroke-linejoin="round"></path><path d="M35.6859 55.012V50.792" stroke="black" stroke-linecap="round" stroke-linejoin="round"></path><path d="M9.76135 27.4658V30.4908" stroke="black" stroke-linecap="square" stroke-linejoin="bevel"></path><path d="M17.9883 30.4908V27.4658" stroke="black" stroke-linecap="square" stroke-linejoin="bevel"></path><path d="M45.0194 27.4658V30.4908" stroke="black" stroke-linecap="square" stroke-linejoin="bevel"></path><path d="M53.2463 30.4908V27.4658" stroke="black" stroke-linecap="square" stroke-linejoin="bevel"></path><path d="M27.4591 51.9873V55.0123" stroke="black" stroke-linecap="square" stroke-linejoin="bevel"></path><path d="M35.6859 55.0123V51.9873" stroke="black" stroke-linecap="square" stroke-linejoin="bevel"></path><defs><linearGradient id="paint0_linear_526_10119" x1="24.3026" y1="21.8336" x2="65.4214" y2="60.6233" gradientUnits="userSpaceOnUse"><stop offset="0.236106" stop-color="#DA291C"></stop><stop offset="1" stop-color="#FFCD00"></stop></linearGradient></defs></svg> 