<?xml version="1.0" encoding="UTF-8"?> <svg xmlns="http://www.w3.org/2000/svg" xmlns:xlink="http://www.w3.org/1999/xlink" version="1.1" id="Layer_1" x="0px" y="0px" width="24px" height="24px" viewBox="0 0 24 24" overflow="visible" xml:space="preserve"> <g> <g transform="translate(4.000000, 1.000000)"> <path fill="#85A4E6" d="M8,0l-9,4v6c0,5.6,3.8,10.7,9,12c5.2-1.3,9-6.4,9-12V4L8,0z M8,11h7c-0.5,4.1-3.3,7.8-7,8.9V11l-7,0V5.3 l7-3.1V11z"></path> <path fill="#5C85DE" d="M8,0v22c5.2-1.3,9-6.4,9-12V4L8,0z M15,11c-0.5,4.1-3.3,7.8-7,8.9V11L15,11z"></path> <path fill-rule="evenodd" fill="#3367D6" d="M17,11h-2c0,0,0,0.3-0.1,0.6L17,11z"></path> <polygon fill-rule="evenodd" fill="#3367D6" points="-1,11 1,11 1,10.4 "></polygon> </g> </g> </svg> 