<?xml version="1.0" encoding="UTF-8"?> <svg xmlns="http://www.w3.org/2000/svg" xmlns:xlink="http://www.w3.org/1999/xlink" version="1.1" id="Layer_1" x="0px" y="0px" viewBox="0 0 180 60" style="enable-background:new 0 0 180 60;" xml:space="preserve"> <style type="text/css"> .st0{fill:#43AF2A;} </style> <g> <path class="st0" d="M116.6,58.2c-17.8,0-35.5,0-53.3,0c-0.2-0.1-0.3-0.3-0.3-0.6c0-18.4,0-36.8,0-55.2c0,0,0-0.1,0-0.1 c0-0.2,0.1-0.4,0.3-0.4c0.1,0,0.2,0,0.2,0c16.2,0,32.4,0,48.7,0c0.1,0,0.1,0,0.2,0c0.3,0.1,0.3,0.4,0.1,0.7c-2,2.7-3.9,5.3-5.9,8 c-2.7,3.6-5.3,7.3-8,10.9c-0.2,0.3-0.6,0.4-0.9,0.1c-0.6-0.7-1.2-1.4-1.8-2c-1-1.1-2.1-2.3-3.1-3.4c-0.3-0.3-0.6-0.3-0.9,0 c-0.9,1.2-1.9,2.5-2.8,3.7c-0.2,0.3-0.2,0.5,0,0.8c2.9,3,5.8,6,8.8,9c0.3,0.3,0.6,0.3,0.9,0c1.2-1.4,2.5-2.8,3.7-4.2 c2.5-2.8,5-5.6,7.4-8.3c1.7-1.9,3.3-3.7,5-5.6c0.4-0.4,0.8-0.9,1.2-1.3c0.1-0.2,0.3-0.2,0.4-0.1c0.2,0.1,0.2,0.2,0.2,0.4 c0,0.1,0,0.1,0,0.2c0,15.7,0,31.5,0,47.2C116.9,57.9,116.9,58.1,116.6,58.2z M77.8,52c0.5,0,1.1,0,1.7-0.1c0.5,0,1-0.1,1.4-0.2 c1.2-0.2,2.3-0.6,3.3-1.2c0.7-0.4,1.2-0.9,1.7-1.5c0.4-0.5,0.7-1,1-1.6c0.3-0.7,0.5-1.5,0.5-2.3c0-0.4,0-0.7,0-1.1 c0-0.5-0.1-1-0.2-1.5c-0.3-1.2-1-2.1-1.9-2.9c-0.5-0.4-1.1-0.8-1.7-1.1c-1-0.5-2.1-0.8-3.2-1.1c-0.8-0.2-1.5-0.4-2.3-0.6 c-0.5-0.1-1-0.2-1.5-0.4c-0.6-0.2-1.1-0.4-1.6-0.7c-0.6-0.4-0.9-0.9-0.8-1.7c0.1-0.6,0.4-1,0.9-1.4c0.6-0.4,1.2-0.5,1.9-0.6 c0.4,0,0.8,0,1.3,0c0.5,0,1.1,0.1,1.6,0.2c0.9,0.2,1.7,0.5,2.5,0.9c0.5,0.3,1,0.6,1.5,1c0.3,0.2,0.6,0.2,0.8-0.1 c0.1-0.1,0.1-0.2,0.2-0.3c0.6-0.8,1.3-1.7,1.9-2.5c0.2-0.3,0.2-0.5,0-0.7c-0.1-0.1-0.2-0.2-0.3-0.2c-0.8-0.6-1.7-1.2-2.7-1.6 c-1.1-0.5-2.2-0.8-3.4-1C79.7,28,79.1,28,78.5,28c-0.5,0-1.1,0-1.6,0.1c-0.6,0-1.3,0.1-1.9,0.3c-1.1,0.3-2.2,0.7-3.2,1.4 c-1,0.7-1.7,1.6-2.2,2.6C69.2,33.2,69,34.1,69,35c0,0.3,0,0.7,0.1,1c0.1,0.7,0.3,1.3,0.6,1.9c0.4,0.8,1,1.4,1.7,1.9 c0.5,0.4,1.1,0.7,1.7,1c0.8,0.4,1.7,0.7,2.6,0.9c0.8,0.2,1.7,0.4,2.5,0.6c0.5,0.1,1.1,0.3,1.6,0.4c0.7,0.2,1.4,0.5,2,0.9 c0.5,0.4,0.7,0.9,0.7,1.5c0,0.3-0.1,0.6-0.3,0.9c-0.4,0.7-1,1-1.7,1.3c-0.8,0.3-1.6,0.3-2.4,0.3c-0.5,0-1.1-0.1-1.6-0.2 c-1-0.2-2-0.5-2.9-1c-0.8-0.4-1.5-0.9-2.1-1.5c-0.3-0.2-0.6-0.2-0.8,0.1c-0.7,1-1.4,2-2.1,2.9c-0.2,0.2-0.1,0.5,0.1,0.7 c1.7,1.5,3.6,2.4,5.7,3c0.8,0.2,1.5,0.3,2.3,0.4C77,52,77.3,52,77.8,52z M100.8,44.4c1.5,0,3,0,4.5,0c0.5,0,1,0,1.5,0 c0.3,0,0.5-0.2,0.5-0.5c0-0.7,0-1.5-0.1-2.2c-0.2-1.5-0.6-2.9-1.5-4.2c-0.7-1.1-1.7-2-2.8-2.7c-1.8-1-3.7-1.2-5.6-1 c-1.6,0.2-3,0.8-4.3,1.8c-1.3,1.1-2.3,2.4-2.8,4c-0.5,1.5-0.6,3.1-0.4,4.6c0.3,1.9,1.1,3.6,2.5,5c1.3,1.3,2.8,2.1,4.6,2.4 c1.3,0.2,2.7,0.2,4,0c1.7-0.2,3.3-0.9,4.8-1.9c0.3-0.2,0.3-0.4,0.1-0.7c-0.5-0.7-0.9-1.4-1.4-2.1c-0.2-0.3-0.4-0.3-0.7-0.1 c-0.7,0.5-1.5,0.9-2.4,1.1c-1,0.3-2,0.4-3,0.2c-1.9-0.3-3.4-1.8-3.8-3.6c-0.1-0.3,0-0.3,0.3-0.3C96.8,44.4,98.8,44.4,100.8,44.4z"></path> <path class="st0" d="M98.7,41.3c-1.3,0-2.6,0-4,0c-0.3,0-0.3,0-0.3-0.3c0.2-1,0.7-1.9,1.5-2.6c0.7-0.6,1.6-0.9,2.5-0.9 c0.6,0,1.2,0,1.7,0.2c1.5,0.5,2.4,1.6,2.7,3.2c0,0.1,0,0.2,0,0.3c0,0.1,0,0.2-0.2,0.2c0,0-0.1,0-0.1,0 C101.3,41.3,100,41.3,98.7,41.3z"></path> </g> </svg> 