<?xml version="1.0" encoding="UTF-8"?> <svg xmlns="http://www.w3.org/2000/svg" xmlns:xlink="http://www.w3.org/1999/xlink" version="1.1" id="Layer_1" x="0px" y="0px" viewBox="0 0 64 64" style="enable-background:new 0 0 64 64;" xml:space="preserve"> <style type="text/css"> .st0{fill-rule:evenodd;clip-rule:evenodd;fill:#0072C6;} .st1{fill-rule:evenodd;clip-rule:evenodd;fill:#B8D432;} .st2{fill-rule:evenodd;clip-rule:evenodd;fill:#59B4D9;} </style> <symbol id="A" viewBox="-40 -40 80 80"> <g> <path class="st0" d="M-38.7-40c-0.8,0-1.3,0.5-1.3,1.3v16c0,0.8,0.5,1.3,1.3,1.3h8c0.8,0,1.3-0.5,1.3-1.3v-6.6h58.7v6.7 c0,0.8,0.5,1.3,1.6,1.3h7.7c0.8,0,1.3-0.5,1.3-1.3v-8v-8c0.2-1-0.3-1.4-1.1-1.4l0,0H-38.7z M38.7,40c0.8,0,1.3-0.5,1.3-1.3V23 c0-0.8-0.5-1.3-1.3-1.3H31c-0.8,0-1.3,0.5-1.3,1.3v6.4h-59v-6.7c0-0.8-0.5-1.3-1.6-1.3h-7.8c-0.8,0-1.3,0.5-1.3,1.6v15.7 c0,0.8,0.5,1.3,1.3,1.3H38.7z M-1.6-12.3l3.4-2.1l16.7,26.7l-3.4,2.1L-1.6-12.3z"></path> <path class="st0" d="M-17.9,12.3l16.7-26.7l3.4,2.1l-16.7,26.7L-17.9,12.3z"></path> </g> <path class="st1" d="M-8.6-13.3c0-4.8,3.9-8.6,8.6-8.6s8.6,3.9,8.6,8.6S4.8-4.6,0-4.6S-8.6-8.5-8.6-13.3z"></path> <path class="st2" d="M-25.3,13.3c0-4.8,3.8-8.6,8.6-8.6c0,0,0,0,0,0c4.8,0,8.6,3.9,8.6,8.6s-3.9,8.6-8.6,8.6c0,0,0,0,0,0 C-21.4,21.9-25.3,18.1-25.3,13.3C-25.3,13.3-25.3,13.3-25.3,13.3z M8,13.3c0-4.8,3.9-8.6,8.6-8.6s8.6,3.9,8.6,8.6c0,0,0,0,0,0 c0,4.8-3.9,8.6-8.6,8.6S8,18.1,8,13.3C8,13.3,8,13.3,8,13.3z"></path> </symbol> <g> <use xlink:href="#A" width="80" height="80" x="-40" y="-40" transform="matrix(0.7416 0 0 0.7416 32 32)" style="overflow:visible;"></use> </g> </svg> 