<?xml version="1.0" encoding="UTF-8"?> <svg xmlns="http://www.w3.org/2000/svg" xmlns:xlink="http://www.w3.org/1999/xlink" version="1.1" id="Layer_1" x="0px" y="0px" viewBox="0 0 64 64" style="enable-background:new 0 0 64 64;" xml:space="preserve"> <style type="text/css"> .st0{fill:#1982DA;} </style> <g> <path class="st0" d="M62.5,32.4c-0.1,8.7-3.5,16.1-9.9,22.1c-1,0.9-2.1,1.7-3.2,2.6c-0.3,0-0.5-0.2-0.6-0.4 c-2.9-2.9-5.7-5.8-8.6-8.7c-0.6-0.6-1.2-1.1-1.9-1.7c0.8-0.2,1.3-0.2,1.8-0.3c7.1-1.3,12.1-8.3,11.2-15.4 c-0.9-7.2-6.7-12.3-14-12.4c-2.6,0-5.3,0-7.9,0c-1,0-2.3,0.4-2.9-0.2c-0.7-0.6-0.1-1.9-0.2-2.9c0,0,0-0.1,0-0.1 c-0.1-0.4,0.2-0.9-0.3-1.1c-0.5-0.2-0.8,0.2-1.1,0.5c-2.7,2.7-5.4,5.4-8.1,8.1c-0.7,0.7-1.4,1.5-2.2,2.2c-0.4,0.3-0.5,0.7-0.3,1.2 c0.2,0.4,0.5,0.7,1,0.7c0.3,0,0.7,0,1,0c6.8,0,13.6,0,20.4,0c0.7,0,1.3,0,2,0.2c2.6,0.5,4.4,2.9,4.3,5.8c-0.1,2.4-2.1,4.6-4.6,4.9 c-2.4,0.3-4.9,0.1-7.3,0.1c-0.9,0-1.4,0.3-1.7,1.2c-0.8,2.2-1.7,4.3-2.6,6.5c-0.3,0.7-0.2,1.1,0.3,1.6c1.4,1.3,2.9,2.7,4.2,4 c3.2,3.1,6.3,6.3,9.5,9.4c0.2,0.2,0.7,0.4,0.5,0.9c-4.1,1.1-8.3,1.6-12.5,1.1c-7.5-0.9-13.9-4.1-19-9.6c-4.2-4.5-6.8-9.8-7.8-15.8 c-1.3-8.5,0.5-16.3,5.7-23.2c5-6.7,11.8-10.7,20.1-11.8c10.8-1.4,20,2,27.3,10.1C60.2,17.7,62.7,24.7,62.5,32.4z"></path> </g> </svg> 