<?xml version="1.0" encoding="UTF-8"?> <svg xmlns="http://www.w3.org/2000/svg" xmlns:xlink="http://www.w3.org/1999/xlink" version="1.1" id="Layer_1" x="0px" y="0px" viewBox="0 0 64 64" style="enable-background:new 0 0 64 64;" xml:space="preserve"> <style type="text/css"> .st0{fill:#EB1F1F;} </style> <g> <path class="st0" d="M30.6,45.9c2.4-0.3,4.6-1,6.7-2.2c5.1-2.9,8-7.7,8.3-13.7v-0.5h7.1c-0.4-3.6-1.8-6.9-3.8-9.7l-7.2,4.6 c2.2,3.5,2.5,7.2,0.8,11.1C40.5,40,35.8,44,30.6,45.9"></path> <path class="st0" d="M52.8,30.5h-6.1c-0.4,6.1-3.6,11.3-8.8,14.1c-3,1.6-6.4,2.5-9.9,2.5c-2.7,0-5.4-0.5-8-1.5 c3.2,1.9,6.7,3,10.3,3h0.1c6.6,0,12.5-3.5,15.9-9.4l0.3-0.5l4.1,2.6c1.5-2.9,2.3-6,2.3-9.4C52.9,31.5,52.8,31,52.8,30.5"></path> <path class="st0" d="M30.4,49.8L30.4,49.8c-6.6,0-12.8-3.3-17.2-8.9c3.3,7.1,10.5,12,18.9,12c7.7,0,14.5-4.2,18.1-10.5l-3.2-2 C43.3,46.2,37.2,49.8,30.4,49.8"></path> <path class="st0" d="M32,54c-12.1,0-22-9.8-22-22c0-12.1,9.8-22,22-22s22,9.8,22,22C54,44.1,44.1,54,32,54 M32,1.8 C15.3,1.8,1.8,15.3,1.8,32S15.3,62.2,32,62.2S62.2,48.7,62.2,32S48.7,1.8,32,1.8"></path> </g> </svg> 