<?xml version="1.0" encoding="UTF-8"?> <svg xmlns="http://www.w3.org/2000/svg" xmlns:xlink="http://www.w3.org/1999/xlink" version="1.1" id="Layer_1" x="0px" y="0px" viewBox="0 0 180 60" style="enable-background:new 0 0 180 60;" xml:space="preserve"> <style type="text/css"> .st0{fill:#FFFFFF;} .st1{fill:#AEAEAE;} </style> <g> <path class="st0" d="M85.4,41v0.4c0,0-1.2-0.1-2.3,1.3C83.1,42.5,83.5,41.1,85.4,41z"></path> <path class="st0" d="M76.3,30.1c0,0.2,0,0.3,0,0.5c0,0.5,0.1,0.9,0.5,0.7c0.1-0.1,0.2-0.2,0.3-0.3c0-0.1,0.1-0.2,0.1-0.3 C77,30.3,76.6,30.1,76.3,30.1z M97.5,18.4c0,0-1.8-3.2-2.9-5c0,0-1.2-2.2-0.1-3.4c0.2-0.2,0.7-0.2,0.9-0.1c0.7,0.2,1.2,0.7,1.7,1 c0.2,0.1,0.5,0.2,0.7,0.1s0.3-0.4,0.2-0.7c0,0,0,0,0,0c0,0.1,0,0.2,0,0.2c-0.1,0.3-0.3,0.2-0.5,0c-0.6-0.5-2.2-2.4-3.4-0.6 c0,0-1.2,1.6-1.2,4.7v0.1c0.1,2.6,0.4,5.1,0.8,7.6c0.3,1.6,0.7,3.1,1.2,4.6c0.4,1.6,1,3.1,1,4.6c0,2-0.6,4.2-1.9,5.8 c-1.7,2.2-4.6,2.5-6.9,1.5c0-0.2-0.1-0.4-0.1-0.5c-0.1-0.3-0.1-0.7-0.3-1c-0.4-0.6-1.3-0.7-1.8-0.2c-0.3-0.8-0.5-1.9-1.3-2.3 c0,0-0.1,0-0.1,0c-0.5-1.4-0.7-2.9-0.8-4.4c-0.1-2.5,0.8-4.9,2-7c1.1-1.8,2.2-3.6,3.3-5.4c1-1.7,2.1-3.4,3.1-5.2 c2.1-4.6-0.7-5.5-0.7-5.5c-0.6-0.2-0.8-0.5-0.8-0.5c-1.1-1.1,0.7-2.4,0.7-2.4c2-1.3,3.1,0.7,3.1,0.7c0.8,2.1,2.4,2,2.4,2l0.1,0.1 c0.7,1,1.5,1.9,2,2.9c0,0,0,0,0,0c-0.2-0.5-0.5-0.9-0.7-1.2c-0.3-0.5-0.6-1-0.9-1.4c-0.2-0.4-0.5-0.8-0.5-1.3 c0-0.4,0.2-0.7,0.2-1.1V4.4c-0.1-0.7-0.5-1.4-1-1.9c-0.3-0.3-0.7-0.6-1.1-0.8c-0.2-0.3-0.9-0.6-1.5-0.6c0,0-3.9-0.6-5.5,3.1 c-0.8,2-0.6,4.2-1.3,6.2c0,0-0.3,0.8-1.6,2.4c0,0-0.8,1.2-1.5,2.3c0,0-2.3,3.3-2.9,4.7c-0.8,1.7-2,3.1-2.6,5 c-0.4,1.2-0.6,2.4-0.7,3.6c0,0.3,0,0.5,0,0.8c0.4,0.1,0.9,0.2,1.3,0.5c0-0.1,0-0.1,0-0.2c0,0,0.1-0.2,0.2-0.5 c0.4-1.1,1.5-3.8,3.4-5.6c0,0,1-0.3-0.3,1.5c0,0-1.4,2.2-1.3,6v0c0,0.5,0,1,0.1,1.6c0,0,0,0.1,0,0.1c0,0,0,0.1,0,0.1 c0,0.2,0.1,0.5,0.1,0.8c0,0,0,0.1,0,0.1c0,0,0,0.1,0,0.1c0,0,0,0.1,0,0.1c0,0,0-0.1,0-0.1l1,0.2l-0.2,2.6c0,0.1,0.1,0.2,0.1,0.3v0 c0.2,0.4,0.3,0.8,0.5,1.3c0,0.1,0.1,0.2,0.1,0.2c0,0-0.4-0.1-0.8,0.1h0c0,0-0.1,0-0.2,0.1l-0.1,1.4c-0.1-0.2-0.1-0.4-0.2-0.5 c0-0.1,0-0.1-0.1-0.2c0,0.2,0,0.4,0.2,0.7c0,0,0,0.1,0,0.1c0,0.1,0.1,0.3,0.1,0.4v0c0.2,0.6,0.5,1.1,0.7,1.7c0,0,0.1,0.1,0.1,0.2 c0,0.1,0.1,0.1,0.1,0.2c0.7,1.2,1.6,2.1,3,2.3c0.3,0.1,0.6,0.1,1,0.1c0.9,0,1.1-1,1.2-1.7c0,0,0.1-0.2,0.4-0.5 c0.5-0.6,1.6-1.6,3.4-1.7c0,0,1.6-0.2-0.3,1.5c0,0-1.5,1.1-1.7,1.9c0,0,1.1-0.1,1.1-0.2c0.8,0,1.6,0,2.4,0.2 c0.4,0.1,0.8,0.2,1.2,0.2c0.3,0,0.7-0.2,0.9-0.4c0.3-0.3,0.5-0.5,0.9-0.5c0.4,0,0.7,0.1,1.1,0.1c0.5,0.1,1,0.2,1.6,0.2 c0.2,0,1.3-0.1,1-0.5c-0.2-0.3-0.7-0.6-1-0.8c0,0-1.7-0.9-1.8-3.3c0,0-0.1-1.1,0.8-3.2c0,0,2.1-3.2,0.6-8.3c0,0-0.7-2.4-0.4-2.9 c0,0,1.3,1.7,1.6,4.5c0,0,0.1,1.9-0.3,2.8c0,0-0.3,0.6,0.3,0.4c0,0,0.2,0,0.4-0.2c0.1,0,0.1-0.1,0.2-0.2c0.2-0.2,0.3-0.4,0.5-0.7 c0.2-0.4,0.5-1,0.6-1.8c0,0,0-0.1,0.1-0.3v0c0-0.1,0-0.1,0-0.2v0c0,0,0-0.1,0-0.1C100.4,27.7,100.5,23.9,97.5,18.4z M86.6,42.7 c-0.1,0.5-0.1,0.7-0.3,1c-0.4,0.8-1.5,0.7-2.4,0.2c-0.6-0.3-1.1-0.7-1.5-1.2c-0.3-0.4-0.6-0.8-0.9-1.4l0.3-3c0.1,0,0.2,0,0.3,0 c0-0.4-0.1-1.2-0.1-1.7s0-0.9,0.2-1.2c0.4-0.5,0.9-0.5,1.4-0.2c0.1,0,0.1,0.1,0.2,0.1c0.5,0.3,0.7,1,0.9,1.6 c0.1,0.2,0.1,0.3,0.2,0.5c0,0,0.1-0.1,0.1-0.1c0.4-0.3,1.2-0.3,1.5,0.1c0.2,0.3,0.2,0.7,0.2,1c0,0,0,0.1,0,0.2 C86.9,40.1,86.9,41.5,86.6,42.7z M92.5,5.8c-0.1-0.1-0.2-0.2-0.4-0.3c-0.1-0.1-0.2-0.1-0.3-0.1c-0.1,0-0.2,0-0.3,0.1 c-0.1,0.2,0,0.3,0.2,0.4C91.8,6,92,6,92.2,6.1c0.1,0,0.3,0.1,0.4,0V6C92.6,5.8,92.6,5.8,92.5,5.8z"></path> <path class="st1" d="M87.1,38.8c-0.1-0.1-0.2-0.1-0.4-0.2c0,0,0-0.1,0-0.2c0-0.3,0-0.7-0.2-1c-0.3-0.5-1-0.4-1.5-0.1 c-0.1-0.1-0.2-0.2-0.3-0.4c-0.2-0.6-0.5-1.2-0.9-1.6c-0.1-0.2-0.2-0.4-0.3-0.7c0,0,0.1,0,0.1,0c0.8,0.4,1,1.5,1.3,2.3 c0.5-0.5,1.4-0.4,1.8,0.2c0.2,0.3,0.2,0.7,0.3,1C87,38.5,87.1,38.7,87.1,38.8z"></path> <path class="st1" d="M92.6,6L92.6,6c-0.1,0.2-0.3,0.1-0.4,0.1C92,6,91.8,6,91.7,5.9c-0.2-0.1-0.3-0.2-0.2-0.4 c0.1-0.1,0.2-0.1,0.3-0.1c0.1,0,0.2,0,0.3,0.1c0.2,0.1,0.3,0.2,0.4,0.3C92.6,5.8,92.6,5.8,92.6,6z"></path> <path class="st0" d="M92.6,6L92.6,6c-0.1,0.2-0.3,0.1-0.4,0.1C92,6,91.8,6,91.7,5.9c-0.2-0.1-0.3-0.2-0.2-0.4 c0.1-0.1,0.2-0.1,0.3-0.1c0.1,0,0.2,0,0.3,0.1c0.2,0.1,0.3,0.2,0.4,0.3C92.6,5.8,92.6,5.8,92.6,6z"></path> <path class="st0" d="M108.3,18c0,0-0.3,0.4-0.8-0.3c0,0.1-0.5-0.2,0-0.3C107.5,17.4,108.4,17.3,108.3,18z"></path> <path class="st0" d="M117.9,32C117.9,32,117.8,32,117.9,32c-0.1-0.1-0.2-0.2-0.2-0.2c-0.5-0.7-0.7-1.5-0.9-2.3 c-0.4-1.2-0.8-2.5-1.5-3.7c0,0,0,0,0,0c0,0,0,0,0,0c0,0,0-0.1,0-0.1c-0.6-0.9-1.3-1.7-2.2-2.4c-0.2-0.1-0.3-0.3-0.5-0.4 c0,0-0.1-0.1-0.1-0.1c0,0,0,0,0,0c0,0,0,0,0,0c-0.1-0.1-0.1-0.2-0.2-0.3c0-0.1-0.1-0.2-0.1-0.3c-0.3-0.8-0.1-1.7,0.4-2.5 c0.2-0.3,0.4-0.7,0.6-1.1c0,0,0,0,0-0.1c0,0,0.1-0.1,0.1-0.1c0,0,0,0,0-0.1c0,0-0.1-0.1-0.2-0.1c-0.5-0.4-1.1-0.9-1.6-1.3 c-0.7-0.6-1.4-1.1-2-1.7c-0.2-0.1-0.4-0.3-0.6-0.5c-0.1-0.1-0.2-0.1-0.2-0.2c0,0,0,0-0.1-0.1c0,0,0,0-0.1,0c-0.1,0-0.1,0-0.2,0.1 c0,0,0,0,0,0c0,0-0.1,0-0.1,0.1c0,0-0.9,0.5-2.2,2.4c0,0-0.3,0.2-0.7,0.3c0,0,0,0,0,0c0,0-0.1,0-0.2,0c0,0,0,0,0,0h0 c-0.2,0-0.3-0.1-0.5-0.2l-1-0.8c0,0-0.4-0.2-0.6,0c0,0,0,0,0,0h0l0,0c0,0,0,0,0,0c0,0,0,0,0,0.1c0,0,0,0.1,0,0.1c0,0.1,0,0.2,0,0.2 c0,0,0,0.1,0,0.1c0,0,0,0,0-0.1c0,0,0-0.1,0-0.1c0.1-0.2,0.1-0.2,0.2-0.2c0.1,0,0.1,0,0.2,0c0,0,0,0,0,0.1l1,0.7 c0.2,0.1,0.4,0.2,0.6,0.2h0l1.2-0.2c0.2-0.1,0.4-0.2,0.7-0.3c0,0,0.8-0.3,1.5-0.3s1.2,0.3,1.5,0.8c0,0.1,0.7,1.4-0.6,2.3 c-0.2,0.1-1.8,0.9-1.8,2.9c0,0.2-0.1,2.3,2,6.3c0,0.1,2.3,3.9,2.3,7.1c0,0.2,0,0.5,0,0.7c-0.2,0-0.4,0-0.6,0.1c0,0,0,0-0.1,0 c0,0,0,0,0,0c-0.1,0-0.1,0.1-0.1,0.1c0,0-0.1,0.1-0.1,0.1c0,0,0,0,0,0c0,0-0.1,0.1-0.1,0.1c0,0.1-0.1,0.1-0.1,0.2v0 c0,0,0,0.1,0,0.2c0,0.1,0,0.1-0.1,0.2c0,0,0,0.1,0,0.1c0,0.2,0,0.3,0,0.5v0.3c-0.2-0.2-0.5-0.4-0.8-0.3c0,0-0.1,0-0.1,0 c0,0,0,0,0,0c0,0-0.1,0-0.1,0.1c0,0,0,0,0,0l0,0c0,0-0.1,0-0.1,0.1c0,0,0,0,0,0.1c0,0-0.1,0.1-0.1,0.1c0,0,0,0.1,0,0.1 c0,0,0,0.1,0,0.1c-0.1,0.2-0.1,0.6-0.1,1c0,0,0,0,0,0c0,0,0,0,0,0c0,0,0,0,0,0c0,0,0,0-0.1,0c-0.1,0-0.2,0.1-0.3,0.1 c-0.2,0-0.5,0.1-0.7,0.1c-0.2,0.1-0.3,0.1-0.4,0.1c-0.2,0-0.3,0-0.5,0c-0.1,0-0.2,0-0.3,0c-0.1,0-0.3-0.1-0.4-0.1 c-0.2-0.1-0.3-0.1-0.5-0.2c0,0,0,0-0.1,0c-0.2-0.1-0.3-0.2-0.5-0.2c-0.2-0.1-0.4-0.3-0.6-0.5c-2.6-2.2-1.3-6.1-0.5-8.6 c0.5-1.7,0.8-3.5,1-5.2c0.1-1.1,0.1-2.2,0.2-3.3v-1.7c0-0.6-0.3-0.9-0.5-1.1c-0.1-0.1-0.2-0.1-0.2-0.1c-0.1,0-0.1-0.1-0.2-0.1 c0.1,0.1,0.2,0.2,0.3,0.2l0.1,0.2c0,0.1,0,0.1,0.1,0.1l0,0c0.1,0.3,0.2,0.7,0.2,1v0c0,0,0,0.1,0,0.2c0,0.1,0,0.2,0,0.3 c0,0.1,0,0.2-0.1,0.3c0,0.1,0,0.2-0.1,0.3c-0.1,0.3-0.2,0.5-0.3,0.8c0,0.1-0.1,0.2-0.1,0.3c0,0.1-0.1,0.2-0.1,0.3 c-0.1,0.2-0.2,0.3-0.3,0.5c0,0.1-0.1,0.2-0.1,0.2c0,0.1-0.1,0.1-0.1,0.2c-0.1,0.2-0.2,0.3-0.2,0.4c0,0.1-0.1,0.2-0.2,0.2 c-0.2,0.3-0.4,0.5-0.5,0.9c0,0,0,0,0,0c-0.7,1.2-1.5,2.5-2.4,3.5v0c-0.1,0.1-0.3,0.3-0.4,0.4c-0.5,0.4-0.8,0.8-1,1.3 c-0.1,0.3-0.1,0.7,0.1,1.1l0,0.1l0,0.1l0,0.1c0-0.1,2.6-2.8,3.4-2.5c0.2,0.1,0.3,0.3,0.2,0.5c0,0,0,0,0,0.1c0,0.1,0,0.2-0.1,0.2 c0,0,0,0,0,0c0,0.1-0.1,0.2-0.1,0.3c0,0-1,1.7-1.3,3.8c0,0.1,0,0.3,0,0.4c0,0.1,0,0.2,0,0.3c0,0.2,0,0.3,0,0.5c0,0.5,0.1,1,0.2,1.6 c0.1,0.3,0.2,0.6,0.3,0.9c0.2,0.6,0.5,1.2,0.8,1.8c0.1,0.1,0.2,0.3,0.3,0.5c0,0.1,0.1,0.2,0.1,0.2c0.1,0.5-0.5,0.9-0.8,1.1 c-0.3,0.2-0.5,0.4-0.8,0.6c-0.2,0.1-1,1.1-0.7,1.3h0.2c0.4,0,0.7-0.2,1.1-0.2c0.3,0,0.6,0.1,0.9,0.2c0.3,0.1,0.5,0.3,0.8,0.3 c0.5,0.1,1.1-0.2,1.5-0.6c0.1,0,0.1-0.1,0.2-0.1c0.1,0,0.1-0.1,0.2-0.1c0.5-0.1,1.1,0,1.5,0.1c0,0,0.2,0,0.3,0c0.2,0,0.3,0,0.3-0.1 c0,0,0,0,0,0l0,0c0-0.1-0.2-0.2-0.5-0.4c0,0-0.9-0.7-1.1-1c0,0,0,0,0-0.1c0,0-0.4-1.3,1.4-0.1c0,0,1.6,1.4,2.5,1.8c0,0,0.1,0,0.1,0 c0,0,0.1,0,0.1,0c0.1,0,0.2,0.1,0.3,0.1c-0.1-0.1-0.2-0.2-0.2-0.3c-0.4-0.6-0.6-1.4-0.7-1.8c0-0.2-0.1-0.4-0.1-0.5 c0-0.2-0.1-0.3-0.1-0.5c0-0.2,0-0.3,0-0.4c0,0,0,0,0-0.1c0,0,0,0,0,0v-0.1c0-0.5,0.1-0.8,0.2-1c0,0,0-0.1,0.1-0.1l0.1-0.1 c0,0,0,0,0,0c0,0,0,0,0,0c0.1-0.1,0.2-0.1,0.3-0.1c0,0,0,0,0.1,0c0.1,0,0.1,0,0.2,0.1c0,0,0,0,0.1,0c0.2,0.1,0.4,0.2,0.5,0.3v-0.4 c0-1.5,0.7-1.7,1-1.7h0.1c0,0,0,0.1,0,0.1c0.2,0,0.3,0,0.3,0c0,0,0,0,0,0c0,0,0,0,0,0c0,0,0.1,0,0.1,0c0,0,0,0,0,0 c0.3,0.2,0.7,0.8,0.5,2.1v0.2h0.1c0.1-0.2,0.4-0.6,0.8-0.7l0,0c0,0,0.1,0,0.1,0h0.1c0.1,0,0.1,0,0.1,0c0.1,0,0.2,0.1,0.2,0.2l0-0.1 l0.1-0.2l0,0l0.3-0.6c0,0,0.7-1.1,0.6-3.1c0-1.1-0.3-1.9-0.5-2.5c0,0,0-0.1,0-0.1c0,0,0,0,0,0c-0.3-0.7-0.6-1-0.6-1 c-0.2-0.2-0.4-0.5-0.6-0.7c0,0,0,0,0,0c-0.6-0.9-0.9-2-0.9-2c-0.5-1.4,0.7,0.3,0.7,0.3c2.4,4.1,4.3,4,4.3,4c0.2,0,1,0,1.1-0.2 c0,0,0,0,0,0C118.5,32.5,118.2,32.2,117.9,32z M109.5,38.4c0.4,0,0.8,0.4,0.8,0.4v-0.1C110.1,38.5,109.8,38.3,109.5,38.4z M110.6,41.7C110.5,41.8,110.6,41.8,110.6,41.7L110.6,41.7z M110.6,41.7c1.4-0.4,2-0.1,2-0.2l0.1-0.4 C111.6,41,110.6,41.7,110.6,41.7z M110.6,41.7c1.4-0.4,2-0.1,2-0.2l0.1-0.4C111.6,41,110.6,41.7,110.6,41.7z M110.6,41.7 C110.5,41.8,110.6,41.8,110.6,41.7L110.6,41.7z M109.5,38.4c0.4,0,0.8,0.4,0.8,0.4v-0.1C110.1,38.5,109.8,38.3,109.5,38.4z M110.6,41.7C110.5,41.8,110.6,41.8,110.6,41.7L110.6,41.7z M110.6,41.7c1.4-0.4,2-0.1,2-0.2l0.1-0.4 C111.6,41,110.6,41.7,110.6,41.7z M110.6,41.7c1.4-0.4,2-0.1,2-0.2l0.1-0.4C111.6,41,110.6,41.7,110.6,41.7z M110.6,41.7 C110.5,41.8,110.6,41.8,110.6,41.7L110.6,41.7z M109.5,38.4c0.4,0,0.8,0.4,0.8,0.4v-0.1C110.1,38.5,109.8,38.3,109.5,38.4z M110.6,41.7C110.5,41.8,110.6,41.8,110.6,41.7L110.6,41.7z M110.6,41.7c1.4-0.4,2-0.1,2-0.2l0.1-0.4 C111.6,41,110.6,41.7,110.6,41.7z M110.6,41.7c1.4-0.4,2-0.1,2-0.2l0.1-0.4C111.6,41,110.6,41.7,110.6,41.7z M110.6,41.7 C110.5,41.8,110.6,41.8,110.6,41.7L110.6,41.7z M109.5,38.4c0.4,0,0.8,0.4,0.8,0.4v-0.1C110.1,38.5,109.8,38.3,109.5,38.4z M110.6,41.7C110.5,41.8,110.6,41.8,110.6,41.7L110.6,41.7z M110.6,41.7c1.4-0.4,2-0.1,2-0.2l0.1-0.4 C111.6,41,110.6,41.7,110.6,41.7z M110.6,41.7c1.4-0.4,2-0.1,2-0.2l0.1-0.4C111.6,41,110.6,41.7,110.6,41.7z M110.6,41.7 C110.5,41.8,110.6,41.8,110.6,41.7L110.6,41.7z M109.5,38.4c0.4,0,0.8,0.4,0.8,0.4v-0.1C110.1,38.5,109.8,38.3,109.5,38.4z M110.6,41.7C110.5,41.8,110.6,41.8,110.6,41.7L110.6,41.7z M110.6,41.7c1.4-0.4,2-0.1,2-0.2l0.1-0.4 C111.6,41,110.6,41.7,110.6,41.7z M110.6,41.7c1.4-0.4,2-0.1,2-0.2l0.1-0.4C111.6,41,110.6,41.7,110.6,41.7z M110.6,41.7 C110.5,41.8,110.6,41.8,110.6,41.7L110.6,41.7z M109.5,38.4c0.4,0,0.8,0.4,0.8,0.4v-0.1C110.1,38.5,109.8,38.3,109.5,38.4z M110.6,41.7C110.5,41.8,110.6,41.8,110.6,41.7L110.6,41.7z M110.6,41.7c1.4-0.4,2-0.1,2-0.2l0.1-0.4 C111.6,41,110.6,41.7,110.6,41.7z M110.6,41.7c1.4-0.4,2-0.1,2-0.2l0.1-0.4C111.6,41,110.6,41.7,110.6,41.7z M110.6,41.7 C110.5,41.8,110.6,41.8,110.6,41.7L110.6,41.7z M109.5,38.4c0.4,0,0.8,0.4,0.8,0.4v-0.1C110.1,38.5,109.8,38.3,109.5,38.4z M110.6,41.7C110.5,41.8,110.6,41.8,110.6,41.7L110.6,41.7z M110.6,41.7c1.4-0.4,2-0.1,2-0.2l0.1-0.4 C111.6,41,110.6,41.7,110.6,41.7z M110.6,41.7c1.4-0.4,2-0.1,2-0.2l0.1-0.4C111.6,41,110.6,41.7,110.6,41.7z M110.6,41.7 C110.5,41.8,110.6,41.8,110.6,41.7L110.6,41.7z M109.5,38.4c0.4,0,0.8,0.4,0.8,0.4v-0.1C110.1,38.5,109.8,38.3,109.5,38.4z M110.6,41.7C110.5,41.8,110.6,41.8,110.6,41.7L110.6,41.7z M110.6,41.7c1.4-0.4,2-0.1,2-0.2l0.1-0.4 C111.6,41,110.6,41.7,110.6,41.7z M110.6,41.7c1.4-0.4,2-0.1,2-0.2l0.1-0.4C111.6,41,110.6,41.7,110.6,41.7z M110.6,41.7 C110.5,41.8,110.6,41.8,110.6,41.7L110.6,41.7z M109.5,38.4c0.4,0,0.8,0.4,0.8,0.4v-0.1C110.1,38.5,109.8,38.3,109.5,38.4z M110.6,41.7C110.5,41.8,110.6,41.8,110.6,41.7L110.6,41.7z M110.6,41.7c1.4-0.4,2-0.1,2-0.2l0.1-0.4 C111.6,41,110.6,41.7,110.6,41.7z M110.6,41.7c1.4-0.4,2-0.1,2-0.2l0.1-0.4C111.6,41,110.6,41.7,110.6,41.7z M110.6,41.7 C110.5,41.8,110.6,41.8,110.6,41.7L110.6,41.7z M109.5,38.4c0.4,0,0.8,0.4,0.8,0.4v-0.1C110.1,38.5,109.8,38.3,109.5,38.4z M110.6,41.7C110.5,41.8,110.6,41.8,110.6,41.7L110.6,41.7z M110.6,41.7c1.4-0.4,2-0.1,2-0.2l0.1-0.4 C111.6,41,110.6,41.7,110.6,41.7z M110.6,41.7c1.4-0.4,2-0.1,2-0.2l0.1-0.4C111.6,41,110.6,41.7,110.6,41.7z M110.6,41.7 C110.5,41.8,110.6,41.8,110.6,41.7L110.6,41.7z M109.5,38.4c0.4,0,0.8,0.4,0.8,0.4v-0.1C110.1,38.5,109.8,38.3,109.5,38.4z M110.6,41.7C110.5,41.8,110.6,41.8,110.6,41.7L110.6,41.7z M110.6,41.7c1.4-0.4,2-0.1,2-0.2l0.1-0.4 C111.6,41,110.6,41.7,110.6,41.7z M110.6,41.7c1.4-0.4,2-0.1,2-0.2l0.1-0.4C111.6,41,110.6,41.7,110.6,41.7z M110.6,41.7 C110.5,41.8,110.6,41.8,110.6,41.7L110.6,41.7z M109.5,38.4c0.4,0,0.8,0.4,0.8,0.4v-0.1C110.1,38.5,109.8,38.3,109.5,38.4z M110.5,39.1L110.5,39.1L110.5,39.1L110.5,39.1z M110.6,41.7C110.5,41.8,110.6,41.8,110.6,41.7L110.6,41.7z M110.6,41.7 c1.4-0.4,2-0.1,2-0.2l0.1-0.4C111.6,41,110.6,41.7,110.6,41.7z M109.5,38.4c0.4,0,0.8,0.4,0.8,0.4v-0.1 C110.1,38.5,109.8,38.3,109.5,38.4z M109.5,38.4c0.4,0,0.8,0.4,0.8,0.4v-0.1C110.1,38.5,109.8,38.3,109.5,38.4z M109.5,38.4 c0.4,0,0.8,0.4,0.8,0.4v-0.1C110.1,38.5,109.8,38.3,109.5,38.4z M110.5,39.1L110.5,39.1L110.5,39.1L110.5,39.1z M110.6,41.7 C110.5,41.8,110.6,41.8,110.6,41.7L110.6,41.7z M110.6,41.7c1.4-0.4,2-0.1,2-0.2l0.1-0.4C111.6,41,110.6,41.7,110.6,41.7z M110.6,41.7c1.4-0.4,2-0.1,2-0.2l0.1-0.4C111.6,41,110.6,41.7,110.6,41.7z M110.6,41.7C110.5,41.8,110.6,41.8,110.6,41.7 L110.6,41.7z M110.5,39.1L110.5,39.1L110.5,39.1L110.5,39.1z M109.5,38.4c0.4,0,0.8,0.4,0.8,0.4v-0.1 C110.1,38.5,109.8,38.3,109.5,38.4z M110.6,41.7C110.5,41.8,110.6,41.8,110.6,41.7L110.6,41.7z M110.6,41.7c1.4-0.4,2-0.1,2-0.2 l0.1-0.4C111.6,41,110.6,41.7,110.6,41.7z M110.6,41.7c1.4-0.4,2-0.1,2-0.2l0.1-0.4C111.6,41,110.6,41.7,110.6,41.7z M110.6,41.7 C110.5,41.8,110.6,41.8,110.6,41.7L110.6,41.7z M109.5,38.4c0.4,0,0.8,0.4,0.8,0.4v-0.1C110.1,38.5,109.8,38.3,109.5,38.4z M110.6,41.7C110.5,41.8,110.6,41.8,110.6,41.7L110.6,41.7z M110.6,41.7c1.4-0.4,2-0.1,2-0.2l0.1-0.4 C111.6,41,110.6,41.7,110.6,41.7z M110.6,41.7c1.4-0.4,2-0.1,2-0.2l0.1-0.4C111.6,41,110.6,41.7,110.6,41.7z M110.6,41.7 C110.5,41.8,110.6,41.8,110.6,41.7L110.6,41.7z M109.5,38.4c0.4,0,0.8,0.4,0.8,0.4v-0.1C110.1,38.5,109.8,38.3,109.5,38.4z M110.6,41.7C110.5,41.8,110.6,41.8,110.6,41.7L110.6,41.7z M110.6,41.7c1.4-0.4,2-0.1,2-0.2l0.1-0.4 C111.6,41,110.6,41.7,110.6,41.7z M110.6,41.7c1.4-0.4,2-0.1,2-0.2l0.1-0.4C111.6,41,110.6,41.7,110.6,41.7z M110.6,41.7 C110.5,41.8,110.6,41.8,110.6,41.7L110.6,41.7z M109.5,38.4c0.4,0,0.8,0.4,0.8,0.4v-0.1C110.1,38.5,109.8,38.3,109.5,38.4z M110.6,41.7C110.5,41.8,110.6,41.8,110.6,41.7L110.6,41.7z M110.6,41.7c1.4-0.4,2-0.1,2-0.2l0.1-0.4 C111.6,41,110.6,41.7,110.6,41.7z M110.6,41.7c1.4-0.4,2-0.1,2-0.2l0.1-0.4C111.6,41,110.6,41.7,110.6,41.7z M110.6,41.7 C110.5,41.8,110.6,41.8,110.6,41.7L110.6,41.7z M109.5,38.4c0.4,0,0.8,0.4,0.8,0.4v-0.1C110.1,38.5,109.8,38.3,109.5,38.4z M110.6,41.7C110.5,41.8,110.6,41.8,110.6,41.7L110.6,41.7z M110.6,41.7c1.4-0.4,2-0.1,2-0.2l0.1-0.4 C111.6,41,110.6,41.7,110.6,41.7z M110.6,41.7c1.4-0.4,2-0.1,2-0.2l0.1-0.4C111.6,41,110.6,41.7,110.6,41.7z M110.6,41.7 C110.5,41.8,110.6,41.8,110.6,41.7L110.6,41.7z M109.5,38.4c0.4,0,0.8,0.4,0.8,0.4v-0.1C110.1,38.5,109.8,38.3,109.5,38.4z M110.6,41.7C110.5,41.8,110.6,41.8,110.6,41.7L110.6,41.7z M110.6,41.7c1.4-0.4,2-0.1,2-0.2l0.1-0.4 C111.6,41,110.6,41.7,110.6,41.7z M110.6,41.7c1.4-0.4,2-0.1,2-0.2l0.1-0.4C111.6,41,110.6,41.7,110.6,41.7z M110.6,41.7 C110.5,41.8,110.6,41.8,110.6,41.7L110.6,41.7z M109.5,38.4c0.4,0,0.8,0.4,0.8,0.4v-0.1C110.1,38.5,109.8,38.3,109.5,38.4z M110.6,41.7C110.5,41.8,110.6,41.8,110.6,41.7L110.6,41.7z M110.6,41.7c1.4-0.4,2-0.1,2-0.2l0.1-0.4 C111.6,41,110.6,41.7,110.6,41.7z M110.6,41.7c1.4-0.4,2-0.1,2-0.2l0.1-0.4C111.6,41,110.6,41.7,110.6,41.7z M110.6,41.7 C110.5,41.8,110.6,41.8,110.6,41.7L110.6,41.7z M109.5,38.4c0.4,0,0.8,0.4,0.8,0.4v-0.1C110.1,38.5,109.8,38.3,109.5,38.4z M110.6,41.7C110.5,41.8,110.6,41.8,110.6,41.7L110.6,41.7z M110.6,41.7c1.4-0.4,2-0.1,2-0.2l0.1-0.4 C111.6,41,110.6,41.7,110.6,41.7z M110.6,41.7c1.4-0.4,2-0.1,2-0.2l0.1-0.4C111.6,41,110.6,41.7,110.6,41.7z M110.6,41.7 C110.5,41.8,110.6,41.8,110.6,41.7L110.6,41.7z M109.5,38.4c0.4,0,0.8,0.4,0.8,0.4v-0.1C110.1,38.5,109.8,38.3,109.5,38.4z M110.6,41.7C110.5,41.8,110.6,41.8,110.6,41.7L110.6,41.7z M110.6,41.7c1.4-0.4,2-0.1,2-0.2l0.1-0.4 C111.6,41,110.6,41.7,110.6,41.7z M110.6,41.7c1.4-0.4,2-0.1,2-0.2l0.1-0.4C111.6,41,110.6,41.7,110.6,41.7z M110.6,41.7 C110.5,41.8,110.6,41.8,110.6,41.7L110.6,41.7z M109.5,38.4c0.4,0,0.8,0.4,0.8,0.4v-0.1C110.1,38.5,109.8,38.3,109.5,38.4z M110.6,41.7C110.5,41.8,110.6,41.8,110.6,41.7L110.6,41.7z M110.6,41.7c1.4-0.4,2-0.1,2-0.2l0.1-0.4 C111.6,41,110.6,41.7,110.6,41.7z M110.6,41.7c1.4-0.4,2-0.1,2-0.2l0.1-0.4C111.6,41,110.6,41.7,110.6,41.7z M110.6,41.7 C110.5,41.8,110.6,41.8,110.6,41.7L110.6,41.7z M109.5,38.4c0.4,0,0.8,0.4,0.8,0.4v-0.1C110.1,38.5,109.8,38.3,109.5,38.4z M110.6,41.7C110.5,41.8,110.6,41.8,110.6,41.7L110.6,41.7z M110.6,41.7c1.4-0.4,2-0.1,2-0.2l0.1-0.4 C111.6,41,110.6,41.7,110.6,41.7z M110.6,41.7c1.4-0.4,2-0.1,2-0.2l0.1-0.4C111.6,41,110.6,41.7,110.6,41.7z M110.6,41.7 C110.5,41.8,110.6,41.8,110.6,41.7L110.6,41.7z"></path> <g> <path class="st0" d="M108.6,14.4C108.6,14.4,108.6,14.4,108.6,14.4c0-0.1,0.1-0.1,0.2-0.1C108.7,14.3,108.6,14.3,108.6,14.4 c-0.1-0.1-0.1-0.1-0.2-0.1c-0.1,0-0.1,0-0.2,0c0,0,0,0,0,0c-0.1,0-0.1,0-0.2,0.1c0,0,0,0,0,0c0,0-0.6,0.3-1.5,1.5 c0,0-0.1,0.1-0.1,0.1c-0.2,0.2-0.4,0.5-0.6,0.8c0,0-0.4,0.2-0.8,0.3c0,0,0,0,0,0h-0.1c-0.1,0-0.2,0-0.3,0c-0.1,0-0.1,0-0.2-0.1 l0.2,0.2c0,0,0,0,0,0l0,0c0,0,0.1,0.1,0.1,0.1l1.2-0.2c0,0,0-0.1,0.1-0.1c0-0.1,0.1-0.1,0.1-0.2c1.2-1.7,2-2.1,2-2.1 c0.1,0,0.2-0.1,0.3-0.1c0,0,0.1,0,0.1,0c0.1,0,0.1,0,0.2,0c0,0,0.1,0,0.1,0C108.8,14.5,108.7,14.5,108.6,14.4z M102.9,17.3 C102.9,17.2,102.9,17.2,102.9,17.3c0,0,0,0.1,0,0.1c0,0,0,0,0.1,0.1c0,0.1,0,0.1,0.1,0.2C103,17.5,102.9,17.4,102.9,17.3z M104.7,19.9c0-0.1-0.1-0.2-0.1-0.3c0,0,0,0,0,0v-0.1c-0.1-0.1-0.2-0.1-0.2-0.1c-0.1,0-0.1-0.1-0.2-0.1c-0.1-0.1-0.2-0.1-0.3-0.2 c-0.1-0.1-0.2-0.2-0.2-0.3c0,0,0,0,0,0c-0.3-0.3-0.5-0.7-0.6-1c0,0,0,0,0,0.1c0,0.1,0.1,0.2,0.1,0.3c0.1,0.1,0.1,0.3,0.2,0.4 c0.1,0.2,0.2,0.3,0.3,0.5c0,0,0,0,0,0c0.2,0.3,0.5,0.7,0.9,0.9v0.1c0,0.1,0,0.1,0,0.1c0.1,0.2,0.2,0.5,0.2,0.8c0,0,0-0.1,0-0.1 C104.8,20.4,104.8,20.1,104.7,19.9z M103.7,16.5L103.7,16.5l0.6,0.5c0,0,0.1,0.1,0.1,0.1L103.7,16.5z M107.1,43.4 c-0.1,0-0.1-0.1-0.2-0.1h-0.1c-0.4-0.1-1-0.2-1.5,0c-0.1,0-0.1,0-0.2,0.1c-0.1,0-0.1,0.1-0.2,0.1c-0.3,0.2-0.8,0.6-1.4,0.5 c-0.2,0-0.3-0.1-0.5-0.2c-0.1,0-0.2-0.1-0.3-0.1c-0.3-0.1-0.6-0.2-1-0.2c-0.2,0-0.4,0.1-0.5-0.1c-0.2,0-0.3,0.1-0.5,0.1h-0.1 c0-0.3,0.6-0.9,0.8-1.1c0.3-0.2,0.5-0.4,0.8-0.6c0.6-0.5,0.9-0.9,0.8-1.3c-0.1-0.2-0.2-0.3-0.3-0.5c-0.1-0.1-0.2-0.1-0.2-0.2 c-0.3-0.5-0.6-1.1-0.8-1.7V38c-0.1-0.2-0.2-0.5-0.3-0.8c-0.1-0.5-0.2-1-0.2-1.5c0-2.5,1.4-4.9,1.4-4.9v-0.1 c0.1-0.2,0.3-0.6,0.2-0.9c-0.1-0.1-0.2-0.2-0.3-0.2c-0.6-0.2-2.2,1.1-3,1.9c-0.2,0.2-0.4,0.4-0.5,0.5c0,0,0,0,0,0l-0.1-0.2 c-0.1-0.2-0.1-0.4-0.1-0.6c-0.1,0.3-0.1,0.6,0.1,1c0,0,0,0,0,0.1l0.1,0.3l0.1,0.1l0.1-0.1c0.3-0.4,2.5-2.6,3.3-2.6 c0,0,0.1,0,0.1,0c0,0,0.1,0,0.1,0.1c0,0,0,0.1,0,0.1c0,0,0,0,0,0.1c0,0.1,0,0.1-0.1,0.2c0,0,0,0,0,0c0,0.1-0.1,0.2-0.1,0.3 c0,0.1,0,0.1,0,0.1c-0.1,0.1-1,1.7-1.3,3.7c0,0.1,0,0.3,0,0.4c0,0.1,0,0.2,0,0.3c0,0.2,0,0.3,0,0.5c0,0.6,0,1.2,0.2,1.8 c0.1,0.2,0.2,0.5,0.3,0.8v0.1c0.2,0.6,0.5,1.2,0.8,1.8c0.1,0,0.1,0.1,0.2,0.2c0,0,0.1,0,0.1,0.1c0.1,0.1,0.2,0.2,0.2,0.3 c0,0.3-0.2,0.6-0.8,1c-0.3,0.2-0.5,0.4-0.8,0.6c0,0-0.8,0.8-0.8,1.2c0,0,0,0.1,0,0.1c0,0.1,0,0.1,0.1,0.1c0,0.1,0.1,0.1,0.2,0.1 c0.2,0,0.3-0.1,0.5-0.1c0.2-0.1,0.4-0.1,0.6-0.1s0.5,0.1,0.8,0.2c0,0,0.1,0.1,0.2,0.1c0.1,0.1,0.3,0.2,0.5,0.2c0.1,0,0.1,0,0.2,0 c0.6,0,1.1-0.4,1.5-0.2c0.4-0.3,1.2-0.2,1.7-0.1h0.1c0.4,0.1,0.6,0,0.7-0.1C107.5,43.7,107.4,43.6,107.1,43.4z M113.2,18.3 c0,0-0.1-0.1-0.1-0.1c0,0-0.1-0.1-0.2-0.1c0,0,0,0,0,0.1c0,0,0,0.1-0.1,0.1c0,0,0,0,0,0.1c-0.2,0.3-0.4,0.7-0.5,1v0.1 c-0.5,0.8-0.6,1.8-0.3,2.6c0,0.1,0.1,0.2,0.1,0.3c0.1,0.1,0.1,0.2,0.2,0.3c-0.3-0.8-0.2-1.7,0.2-2.5v-0.1c0.4-0.5,0.7-1.1,0.8-1.8 c0,0,0,0,0,0c0-0.1,0-0.1,0-0.2c0,0,0,0,0,0v0c0-0.1,0-0.1,0-0.2C113.4,18,113.4,18.2,113.2,18.3z M113.4,42.2 c-0.4,0.9-1.3,1.8-2.3,1.8c-0.2,0-0.3,0-0.4-0.1c-0.2-0.1-0.4-0.2-0.5-0.3c-0.1-0.1-0.2-0.2-0.2-0.3c0,0-0.1,0-0.1,0c0,0,0,0,0,0 c0,0-0.1,0-0.1,0c0,0,0,0-0.1,0c-0.9-0.4-2.4-1.7-2.4-1.7c-0.7-0.4-1.1-0.6-1.4-0.4c-0.2,0.2-0.1,0.6-0.1,0.7c0,0.1,0,0.1,0.1,0.2 c0,0,0-0.1,0-0.1c0-0.1,0-0.1,0.1-0.2c0.1-0.1,0.4-0.2,1.2,0.4c0.1,0.1,1.8,1.6,2.7,1.9c0.3,0.1,0.5,0.1,0.8,0.2 c0.2,0,0.4,0.1,0.6,0h0.1c0.3,0,0.7-0.1,1-0.4c1.3-1,1.6-2.7,1.7-3.8C113.9,40.9,113.5,42,113.4,42.2z M115.2,35.3 c-0.1-1.4-0.4-2.3-0.7-2.9c0,0,0-0.1,0-0.1c0,0,0,0,0,0c-0.2-0.4-0.4-0.6-0.4-0.6c0,0,0,0-0.1-0.1c0.3,0.5,0.8,1.5,0.9,3.2 c0.1,2-0.6,3.1-0.6,3.1l-0.3,0.6l-0.1,0.2l0,0c0.1,0,0.2,0.1,0.2,0.2c0.1,0.1,0.1,0.2,0.1,0.4l0.1-0.2l0.1-0.2l0,0l0.2-0.3 C114.6,38.4,115.3,37.3,115.2,35.3z M116.8,29.9c-0.3-1-0.6-2.1-1.1-3.1c0.4,0.8,0.6,1.7,0.9,2.6c0.1,0.4,0.2,0.8,0.5,1.3 C117,30.4,116.9,30.2,116.8,29.9z M118.4,32.7c0,0-0.1-0.1-0.1-0.1c0,0.1-0.4,0.1-0.9,0.1h-0.1c0,0-1.8,0.1-4.2-3.9 c-0.7-1-0.8-0.9-0.9-0.9c-0.1,0.1-0.1,0.3,0,0.7c0,0,0.3,1.5,1.3,2.5c-0.1-0.2-0.2-0.3-0.3-0.5c0,0,0,0,0,0 c-0.5-0.8-0.7-1.6-0.7-1.6c-0.1-0.2-0.1-0.3-0.1-0.4c0.1,0.2,0.4,0.5,0.6,0.8c2.5,4.1,4.3,4,4.4,4h0.1c0.5,0,1,0,1.1-0.2 C118.7,33.1,118.6,32.9,118.4,32.7z M103.3,16.2L103.3,16.2L103.3,16.2c-0.1,0-0.3-0.1-0.4,0c0,0,0,0,0,0h0c0,0,0,0,0,0 c0,0,0,0,0,0c0,0,0,0,0,0.1c0,0,0,0.1,0,0.1c0,0.1,0,0.1,0,0.2c0.1-0.2,0.1-0.2,0.2-0.2c0.1,0,0.1,0,0.2,0c0.1,0,0.2,0,0.3,0 c0.1,0,0.1,0,0.2,0L103.3,16.2z M104.8,20.8c0,0,0,0.1,0,0.2c0,0.1,0,0.2,0,0.3c0,0.1,0,0.2-0.1,0.3c0,0.1,0,0.2-0.1,0.3 c-0.1,0.3-0.2,0.5-0.3,0.8c0,0.1-0.1,0.2-0.1,0.3c0,0.1-0.1,0.2-0.1,0.3c-0.1,0.2-0.2,0.3-0.3,0.5c0,0.1-0.1,0.2-0.1,0.2 c0,0.1-0.1,0.1-0.1,0.2c-0.1,0.2-0.2,0.3-0.2,0.4c0,0.1-0.1,0.2-0.2,0.2c-0.1,0.3-0.3,0.6-0.5,0.9c0,0,0,0,0,0 c-0.1,0.1-0.1,0.2-0.2,0.3c-0.7,1.1-1.4,2.2-2.2,3.1c-0.2,0.2-0.3,0.4-0.5,0.5c-0.7,0.6-1,1-1,1.8c0-0.1,0.1-0.3,0.1-0.4 c0.2-0.4,0.5-0.7,0.9-1c0.2-0.1,0.3-0.3,0.5-0.5v0c0.8-0.9,1.6-2,2.2-3.1c0.3-0.4,0.5-0.8,0.8-1.2C104,23.8,104.9,22.2,104.8,20.8 z M107.4,43.3L107.4,43.3c0,0-0.2-0.1-0.5-0.3c-0.1-0.1-0.8-0.6-1.1-1c0,0.1,0,0.2,0,0.2c0.1,0.2,0.7,0.8,1.1,1.1L107.4,43.3 C107.4,43.3,107.4,43.3,107.4,43.3z M113.7,31.3c-0.1-0.1-0.1-0.1-0.2-0.2c0.1,0.2,0.2,0.4,0.4,0.5 C113.8,31.4,113.7,31.3,113.7,31.3z M115.3,25.8C115.3,25.8,115.3,25.8,115.3,25.8C115.2,25.8,115.2,25.8,115.3,25.8 c-0.1-0.1-0.1-0.1-0.1-0.1c-0.5-0.9-1.2-1.8-2.2-2.4c-0.2-0.1-0.3-0.3-0.5-0.4c0,0-0.1-0.1-0.1-0.1c0,0,0,0,0,0 c0.2,0.4,0.4,0.7,0.8,1c1.1,0.8,1.8,1.7,2.4,2.8C115.5,26.3,115.4,26.1,115.3,25.8z M117.9,32C117.9,32,117.8,32,117.9,32 c-0.1-0.1-0.2-0.2-0.2-0.2c-0.2-0.2-0.4-0.5-0.5-0.8c0.2,0.4,0.4,0.8,0.7,1.2c0,0.1,0.1,0.1,0.2,0.2c0.1,0.1,0.1,0.1,0.2,0.2 C118.4,32.5,118,32.2,117.9,32z"></path> </g> <path class="st1" d="M108.4,14.3c0,0-0.1,0-0.2,0.1c0,0,0,0,0,0c-0.2-0.2-0.3-0.4-0.5-0.6c0,0-0.1-0.1-0.1-0.1l-0.2-0.2 c-0.1-0.1-0.3-0.2-0.4-0.3l-0.4-0.2h-0.1c-0.2,0.1-0.4,0.2-0.6,0.3c0.2-0.2,0.4-0.4,0.7-0.4h0.1c0.1,0,0.2,0,0.2,0.1 c0,0,0.1,0.1,0.1,0.1c0.2,0.1,0.3,0.2,0.4,0.4c0,0,0,0,0,0c0,0,0.1,0.1,0.1,0.1c0.1,0,0.2,0.1,0.2,0.2c0.1,0.1,0.2,0.2,0.2,0.3 l0.1,0.1L108.4,14.3z"></path> <path class="st0" d="M108.5,14.3C108.5,14.3,108.5,14.3,108.5,14.3c0.1,0,0.2,0,0.2,0C108.7,14.3,108.6,14.3,108.5,14.3z M108.5,14.3C108.5,14.3,108.5,14.3,108.5,14.3c0.1,0,0.2,0,0.2,0C108.7,14.3,108.6,14.3,108.5,14.3z M108.5,14.3 C108.5,14.3,108.5,14.3,108.5,14.3c0.1,0,0.2,0,0.2,0C108.7,14.3,108.6,14.3,108.5,14.3z M108.5,14.3 C108.5,14.3,108.5,14.3,108.5,14.3c0.1,0,0.2,0,0.2,0C108.7,14.3,108.6,14.3,108.5,14.3z M108.5,14.3 C108.5,14.3,108.5,14.3,108.5,14.3c0.1,0,0.2,0,0.2,0C108.7,14.3,108.6,14.3,108.5,14.3z M108.5,14.3 C108.5,14.3,108.5,14.3,108.5,14.3c0.1,0,0.2,0,0.2,0C108.7,14.3,108.6,14.3,108.5,14.3z M108.5,14.3 C108.5,14.3,108.5,14.3,108.5,14.3c0.1,0,0.2,0,0.2,0C108.7,14.3,108.6,14.3,108.5,14.3z M108.5,14.3 C108.5,14.3,108.5,14.3,108.5,14.3c0.1,0,0.2,0,0.2,0C108.7,14.3,108.6,14.3,108.5,14.3z M108.5,14.3 C108.5,14.3,108.5,14.3,108.5,14.3c0.1,0,0.2,0,0.2,0C108.7,14.3,108.6,14.3,108.5,14.3z M108.5,14.3 C108.5,14.3,108.5,14.3,108.5,14.3c0.1,0,0.2,0,0.2,0C108.7,14.3,108.6,14.3,108.5,14.3z M108.5,14.3 C108.5,14.3,108.5,14.3,108.5,14.3c0.1,0,0.2,0,0.2,0C108.7,14.3,108.6,14.3,108.5,14.3z M108.5,14.3 C108.5,14.3,108.5,14.3,108.5,14.3c0.1,0,0.2,0,0.2,0C108.7,14.3,108.6,14.3,108.5,14.3z M108.5,14.3 C108.5,14.3,108.5,14.3,108.5,14.3c0.1,0,0.2,0,0.2,0C108.7,14.3,108.6,14.3,108.5,14.3z M108.5,14.3 C108.5,14.3,108.5,14.3,108.5,14.3c0.1,0,0.2,0,0.2,0C108.7,14.3,108.6,14.3,108.5,14.3z M113.5,15.8c-0.1-0.3-0.2-0.6-0.3-0.9 c-0.2-0.3-0.4-0.6-0.7-0.8c-0.9-0.7-2.1-1-3.2-0.7c-0.5,0.1-1,0.2-1.5,0c-0.4-0.2-0.7-0.7-1.2-0.8c-0.5-0.1-0.9,0.3-1.1,0.7 c0,0-0.3,0.4-0.2,1c0,0,0.1,0.9,0.8,1.5l0,0c0.1,0.1,0.1,0.1,0.2,0.2c0,0,0.1,0,0.1-0.1c0,0,0.1-0.1,0.1-0.1 c-0.5-0.5-1.2-1.5-0.8-2.2c0.1-0.1,0.1-0.2,0.2-0.2c0,0,0,0,0,0c0.2-0.2,0.4-0.3,0.6-0.3h0.1c0.1,0,0.3,0.1,0.4,0.2 c0.1,0.1,0.3,0.2,0.4,0.3l0.2,0.2c0,0,0.1,0.1,0.1,0.1c0.2,0.2,0.3,0.4,0.5,0.6c0,0,0,0,0,0c0,0,0,0,0,0c0,0,0,0,0.1,0.1l0.2,0.2 c0.2,0.2,0.4,0.4,0.6,0.5c1.3,1.1,2.5,2.1,3.7,3.2c0,0,0.1,0.1,0.2,0.1c0.1,0.1,0.1,0.1,0.2,0.2c0.1-0.1,0.2-0.2,0.2-0.4 c0,0,0,0,0,0c0.2-0.3,0.3-0.7,0.3-1C113.7,16.8,113.6,16.3,113.5,15.8z M107.8,13.5c0.2,0.1,0.3,0.1,0.5,0.1c0.3,0,0.5-0.1,0.8-0.1 h0.1c-0.3,0.1-0.6,0.2-0.9,0.2C108.1,13.7,108,13.7,107.8,13.5C107.8,13.6,107.8,13.6,107.8,13.5C107.7,13.5,107.7,13.5,107.8,13.5 l-0.2-0.1C107.7,13.4,107.8,13.5,107.8,13.5z M113.5,17.8c0,0.2-0.1,0.3-0.2,0.5c0,0-0.1-0.1-0.1-0.1c0,0-0.1-0.1-0.2-0.1 c-0.5-0.4-1.1-0.9-1.6-1.3c-0.7-0.6-1.4-1.1-2-1.7c-0.2-0.1-0.4-0.3-0.6-0.5c-0.1-0.1-0.2-0.1-0.2-0.2c0,0,0,0-0.1-0.1 c0.1,0,0.2,0,0.2-0.1c-0.1,0-0.2,0-0.2,0c-0.1-0.1-0.2-0.2-0.3-0.3c-0.1-0.1-0.1-0.1-0.2-0.2h0.4c0.3,0,0.5-0.1,0.8-0.1 c0.1,0,0.1,0,0.2,0c0.2-0.2,0.4-0.2,0.7-0.2c0.8,0,1.6,0.3,2.3,0.8c0.1,0,0.1,0.1,0.2,0.2c0,0,0.1,0.1,0.1,0.1 c0.1,0.1,0.2,0.3,0.3,0.4c0.1,0.3,0.2,0.5,0.3,0.8c0.1,0.5,0.2,0.9,0.2,1.4C113.5,17.4,113.5,17.6,113.5,17.8z M108.5,14.3 C108.5,14.3,108.5,14.3,108.5,14.3c0.1,0,0.2,0,0.2,0C108.7,14.3,108.6,14.3,108.5,14.3z M108.5,14.3 C108.5,14.3,108.5,14.3,108.5,14.3c0.1,0,0.2,0,0.2,0C108.7,14.3,108.6,14.3,108.5,14.3z M108.5,14.3 C108.5,14.3,108.5,14.3,108.5,14.3c0.1,0,0.2,0,0.2,0C108.7,14.3,108.6,14.3,108.5,14.3z M108.5,14.3 C108.5,14.3,108.5,14.3,108.5,14.3c0.1,0,0.2,0,0.2,0C108.7,14.3,108.6,14.3,108.5,14.3z M108.5,14.3 C108.5,14.3,108.5,14.3,108.5,14.3c0.1,0,0.2,0,0.2,0C108.7,14.3,108.6,14.3,108.5,14.3z M108.5,14.3 C108.5,14.3,108.5,14.3,108.5,14.3c0.1,0,0.2,0,0.2,0C108.7,14.3,108.6,14.3,108.5,14.3z M108.5,14.3 C108.5,14.3,108.5,14.3,108.5,14.3c0.1,0,0.2,0,0.2,0C108.7,14.3,108.6,14.3,108.5,14.3z M108.5,14.3 C108.5,14.3,108.5,14.3,108.5,14.3c0.1,0,0.2,0,0.2,0C108.7,14.3,108.6,14.3,108.5,14.3z M108.5,14.3 C108.5,14.3,108.5,14.3,108.5,14.3c0.1,0,0.2,0,0.2,0C108.7,14.3,108.6,14.3,108.5,14.3z M108.5,14.3 C108.5,14.3,108.5,14.3,108.5,14.3c0.1,0,0.2,0,0.2,0C108.7,14.3,108.6,14.3,108.5,14.3z M108.5,14.3 C108.5,14.3,108.5,14.3,108.5,14.3c0.1,0,0.2,0,0.2,0C108.7,14.3,108.6,14.3,108.5,14.3z M108.5,14.3 C108.5,14.3,108.5,14.3,108.5,14.3c0.1,0,0.2,0,0.2,0C108.7,14.3,108.6,14.3,108.5,14.3z M108.5,14.3 C108.5,14.3,108.5,14.3,108.5,14.3c0.1,0,0.2,0,0.2,0C108.7,14.3,108.6,14.3,108.5,14.3z M108.5,14.3 C108.5,14.3,108.5,14.3,108.5,14.3c0.1,0,0.2,0,0.2,0C108.7,14.3,108.6,14.3,108.5,14.3z"></path> <path class="st1" d="M113.1,18.2c0,0-0.1-0.1-0.2-0.1c-0.5-0.4-1.1-0.9-1.6-1.3c-0.7-0.6-1.4-1.1-2-1.7c-0.2-0.1-0.4-0.3-0.6-0.5 c-0.1-0.1-0.2-0.1-0.2-0.2c0,0,0,0-0.1-0.1c0.1,0,0.2,0,0.2-0.1c-0.1,0-0.2,0-0.2,0c-0.1-0.1-0.2-0.2-0.3-0.3 c-0.1-0.1-0.1-0.1-0.2-0.2h0.4c0.3,0,0.5-0.1,0.8-0.1c0.1,0,0.1,0,0.2,0c0.2-0.2,0.4-0.2,0.7-0.2c0.8,0,1.6,0.3,2.3,0.8 c0.1,0,0.1,0.1,0.2,0.2c-0.1-0.1-0.2-0.2-0.3-0.2c-0.3-0.3-0.7-0.5-1.2-0.6c-0.2,0-0.3-0.1-0.5-0.1c-0.1,0-0.2,0-0.3-0.1 c-0.1,0-0.2,0-0.3,0c-0.2,0-0.5,0.1-0.7,0.1h-0.1c-0.3,0.1-0.6,0.2-0.9,0.2c-0.2,0-0.3,0-0.5-0.1c0,0,0,0,0,0c0,0,0.1,0.1,0.1,0.1 c0.1,0.1,0.2,0.2,0.2,0.3c0.2,0.1,0.3,0.2,0.3,0.3c0,0,0,0,0,0c0,0,0,0,0,0.1c0.1,0.1,0.2,0.1,0.2,0.2c0.2,0.2,0.3,0.4,0.5,0.5 c0.6,0.6,1.3,1.1,2,1.7c0.5,0.4,1.1,0.9,1.6,1.4C113,18.2,113,18.3,113.1,18.2c0,0.1,0,0.1,0.1,0.2c0,0,0,0,0-0.1 C113.2,18.3,113.2,18.3,113.1,18.2z M106.2,15.6C106.2,15.6,106.2,15.6,106.2,15.6c-0.1-0.2-0.2-0.4-0.4-0.6c0,0,0,0,0-0.1 c0.1,0.3,0.3,0.6,0.5,0.8C106.3,15.8,106.2,15.7,106.2,15.6z M106.3,12.7c-0.1,0-0.2,0.1-0.2,0.1c-0.1,0-0.1,0.1-0.2,0.1 c-0.2,0.1-0.3,0.3-0.3,0.5C105.8,13.1,106.2,12.9,106.3,12.7C106.4,12.7,106.4,12.7,106.3,12.7z M106.4,12.7 C106.4,12.7,106.4,12.7,106.4,12.7C106.5,12.7,106.5,12.7,106.4,12.7L106.4,12.7z M106.4,12.7C106.4,12.7,106.4,12.7,106.4,12.7 L106.4,12.7C106.4,12.7,106.4,12.7,106.4,12.7C106.4,12.7,106.4,12.7,106.4,12.7L106.4,12.7z"></path> <path class="st0" d="M113.3,18.4C113.3,18.4,113.3,18.4,113.3,18.4c-0.1-0.1-0.1-0.1-0.2-0.2c0,0-0.1-0.1-0.2-0.1 c-0.5-0.4-1.1-0.9-1.6-1.3c-0.7-0.6-1.4-1.1-2-1.7c-0.2-0.1-0.4-0.3-0.6-0.5c-0.1-0.1-0.2-0.1-0.2-0.2c0,0,0,0-0.1-0.1c0,0,0,0,0,0 c-0.1-0.1-0.2-0.2-0.3-0.3c-0.1-0.1-0.1-0.1-0.2-0.2h0.4c0.3,0,0.5-0.1,0.8-0.1c0.1,0,0.1,0,0.2,0c0.2-0.2,0.4-0.2,0.7-0.2 c0.8,0,1.6,0.3,2.3,0.8c0.1,0,0.1,0.1,0.2,0.2c0,0,0.1,0.1,0.1,0.1c0.2,0.2,0.3,0.3,0.4,0.5c0.1,0.3,0.2,0.5,0.3,0.8 c0,0.2,0.1,0.5,0.1,0.7c0-0.3-0.1-0.5-0.1-0.8c-0.1-0.3-0.2-0.6-0.3-0.8c-0.2-0.3-0.4-0.6-0.7-0.8c-0.4-0.3-0.8-0.5-1.3-0.6 c-0.2,0-0.3-0.1-0.5-0.1c-0.1,0-0.2,0-0.3-0.1c-0.1,0-0.2,0-0.3,0c-0.3,0-0.5,0-0.8,0.1s-0.6,0.2-0.9,0.2c-0.2,0-0.3,0-0.5-0.1 c0,0,0,0,0,0c-0.1,0-0.2-0.1-0.2-0.2c0,0,0,0,0,0c-0.2-0.1-0.3-0.2-0.4-0.4c0,0-0.1,0-0.1-0.1c-0.1-0.1-0.2-0.1-0.3-0.2 c0-0.1,0-0.1-0.1-0.1c0,0,0,0-0.1,0c0,0,0,0,0,0s0,0,0,0l0,0c0,0,0,0,0,0v0h0c0,0,0,0,0,0c-0.1,0-0.2,0.1-0.2,0.1 c-0.1,0-0.1,0.1-0.2,0.1c-0.2,0.2-0.4,0.4-0.4,0.6c0,0-0.2,0.3-0.1,0.9c0,0,0.1,0.9,0.7,1.4l0,0c0.1,0.1,0.2,0.2,0.3,0.2 c0,0,0,0,0,0l0.1-0.1c0,0,0,0,0,0c0,0,0,0,0-0.1c-0.1-0.1-0.1-0.2-0.2-0.3c0,0,0,0,0,0c-0.1-0.2-0.2-0.3-0.3-0.5 c-0.3-0.5-0.4-1-0.1-1.5c0.1-0.1,0.1-0.2,0.2-0.2c0,0,0,0,0,0c0.2-0.2,0.4-0.3,0.6-0.3h0.1l0.4,0.2c0.1,0.1,0.3,0.2,0.4,0.3 l0.2,0.2c0,0,0.1,0.1,0.1,0.1c0.2,0.2,0.3,0.4,0.5,0.6c0,0,0,0,0,0c0,0,0,0,0,0c0,0,0.1,0.1,0.1,0.1l0.2,0.2 c0.2,0.2,0.4,0.4,0.6,0.5c1.2,1,2.5,2.1,3.7,3.1c0.1,0,0.1,0.1,0.2,0.1c0.1,0,0.1,0.1,0.2,0.1c0.1-0.2,0.2-0.3,0.3-0.5c0,0,0,0,0,0 c0,0,0.1-0.1,0.1-0.2c0,0,0,0.1-0.1,0.1C113.4,18.2,113.4,18.3,113.3,18.4z"></path> <path class="st1" d="M108.3,18c0,0-0.3,0.4-0.8-0.3c0,0.1-0.5-0.2,0-0.3C107.5,17.4,108.4,17.3,108.3,18z"></path> <polygon class="st1" points="110.5,39.1 110.5,39.1 110.5,39.1 "></polygon> <path class="st1" d="M111.9,36.8C111.9,36.8,111.9,36.8,111.9,36.8c0,0.1,0,0.1,0,0.2v0c0,0,0,0,0,0c0,0-0.1,0-0.3,0c0,0,0,0,0-0.1 h-0.1c-0.3,0-1,0.2-1,1.7V39c-0.1-0.1-0.3-0.2-0.5-0.3c0,0,0,0-0.1,0c-0.1,0-0.1,0-0.2-0.1c0,0,0,0-0.1,0c-0.1,0-0.2,0-0.3,0.1 c0,0,0,0,0,0c0,0,0,0,0,0l-0.1,0.1c0,0,0,0.1-0.1,0.1c-0.1,0.2-0.2,0.5-0.2,1V40c0,0,0,0,0,0c0,0,0,0,0,0c0,0-0.1,0-0.2,0 c0,0,0,0,0,0c0,0,0,0,0,0c0,0,0,0,0,0c0-0.5,0-0.8,0.1-1c0,0,0-0.1,0-0.1c0,0,0-0.1,0-0.1c0,0,0-0.1,0.1-0.1c0,0,0,0,0-0.1 c0,0,0.1-0.1,0.1-0.1l0,0c0,0,0,0,0,0c0,0,0.1,0,0.1-0.1c0,0,0,0,0,0c0,0,0.1,0,0.1,0c0.3-0.1,0.6,0.1,0.8,0.3v-0.3 c0-0.2,0-0.3,0-0.5c0,0,0-0.1,0-0.1c0-0.1,0-0.1,0.1-0.2c0-0.1,0-0.1,0-0.2v0c0-0.1,0.1-0.1,0.1-0.2c0,0,0.1-0.1,0.1-0.1 c0,0,0,0,0,0c0,0,0.1-0.1,0.1-0.1c0,0,0.1-0.1,0.1-0.1c0,0,0,0,0,0c0,0,0,0,0.1,0c0.2-0.1,0.4-0.2,0.6-0.1c0-0.2,0-0.5,0-0.7 c0-3.2-2.3-7-2.3-7.1c-2.1-4-2-6.1-2-6.3c0-2,1.6-2.8,1.8-2.9c1.3-0.9,0.6-2.2,0.6-2.3c-0.3-0.5-0.8-0.8-1.5-0.8s-1.5,0.3-1.5,0.3 c-0.3,0.1-0.5,0.2-0.7,0.3l-1.2,0.2h0c-0.2,0-0.4-0.1-0.6-0.2l-1-0.7c0,0,0-0.1,0-0.1c0,0-0.1,0-0.2,0c-0.1,0-0.1,0-0.2,0.2 c0,0,0,0.1,0,0.1c0,0,0,0,0,0.1c0,0,0-0.1,0-0.1c0,0,0,0.1-0.1,0.2c-0.1-0.3,0-0.5,0-0.5c0,0,0,0,0.1,0c0,0,0,0,0,0c0,0,0,0,0,0 c0,0,0,0,0.1,0c0.1,0,0.3,0.1,0.3,0.1l0.2,0.2l0.8,0.6c0.1,0.1,0.2,0.1,0.3,0.2c0,0,0,0,0,0c0.1,0,0.1,0,0.2,0h0.1c0,0,0,0,0.1,0 c0.1,0,0.5,0,1-0.2c0.2-0.1,0.4-0.2,0.7-0.3c0,0,0.8-0.4,1.6-0.4c0.7,0,1.3,0.3,1.6,0.8c0,0.1,0.8,1.5-0.6,2.4c0,0-1.8,0.8-1.8,2.8 c0,0,0,0.1,0,0.4c0,0.1,0,0.2,0,0.3c0.1,0.9,0.5,2.8,2,5.5C109.6,28.8,112.5,33.4,111.9,36.8z"></path> <path class="st0" d="M106.7,40.4c-0.1,0-0.2,0-0.3,0c-0.1,0-0.3-0.1-0.4-0.1c-0.2-0.1-0.3-0.1-0.5-0.2c0,0,0,0-0.1,0 c-0.2-0.1-0.3-0.2-0.5-0.2c-0.3-0.1-0.5-0.3-0.7-0.5c-2.6-2.2-1.4-6-0.5-8.7c0.6-1.6,0.8-3.4,1-5.1s0.1-3.3,0.2-5 c0-0.5-0.2-0.8-0.4-1c0,0,0,0-0.1-0.1c-0.1-0.1-0.1-0.1-0.1-0.1c-0.4-0.2-0.7-0.6-1-1c-0.1-0.1-0.2-0.3-0.2-0.4 c0-0.1-0.1-0.2-0.1-0.3c0,0,0-0.1,0-0.1c0-0.1-0.1-0.1-0.1-0.2c0-0.1-0.1-0.1-0.1-0.2c0,0,0-0.1,0-0.1c0,0,0,0,0,0 c0-0.1,0-0.2,0-0.2c0,0,0-0.1,0-0.1c0,0,0,0.1,0,0.1c0,0,0.3,1.1,1,1.9c0,0,0,0,0,0c0.2,0.2,0.3,0.3,0.5,0.4 c0.1,0.1,0.3,0.2,0.5,0.4l0,0c0,0,0.1,0.1,0.1,0.1c0.1,0.2,0.2,0.4,0.2,0.7v1.7c-0.1,1.1-0.1,2.2-0.2,3.3c-0.2,1.6-0.5,3.5-1,5.2 c-0.8,2.5-2,6.4,0.5,8.5c0.8,0.7,1.9,1.1,2.8,1.1h0.2C107,40.4,106.9,40.4,106.7,40.4z M106,17.2l-1.2,0.2h0.2 C105.2,17.4,105.5,17.3,106,17.2z M109,40L109,40c-0.1,0-0.1,0-0.2,0.1c0,0,0,0,0,0c0,0,0,0,0,0c0,0,0,0,0,0c0,0,0,0,0,0 c0,0,0,0-0.1,0c-0.1,0-0.2,0.1-0.3,0.1c-0.3,0.1-0.6,0.1-0.9,0.2h0.2c0.4-0.1,0.8-0.1,1.2-0.2c0,0,0,0,0,0c0.1,0,0.1,0,0.2,0 C109,40.1,109,40.1,109,40C109,40.1,109,40.1,109,40C109,40,109,40,109,40z M110.5,39.1L110.5,39.1L110.5,39.1L110.5,39.1z M109.6,28.6c-1.4-2.7-1.8-4.5-2-5.4c0-0.1,0-0.2,0-0.3c0-0.3,0-0.4,0-0.4c0-1.9,2.3-2.4,2.3-2.4c1.5-1,0.1-2.8,0.1-2.8 c-0.4-0.7-1-0.9-1.7-0.9c-0.8,0-1.6,0.4-1.6,0.4c-0.2,0.1-0.4,0.1-0.5,0.2c-0.5,0.2-0.8,0.3-1,0.3c0,0,0,0,0,0c0,0,0,0-0.1,0H105 c0,0,0,0,0,0h-0.1c-0.1,0-0.2,0-0.3,0c-0.1,0-0.1-0.1-0.2-0.2l-1-0.8c0,0,0,0-0.1,0h0c-0.1,0-0.2,0-0.3,0c0,0,0,0-0.1,0 c0,0,0,0,0,0h0l0,0c-0.2,0.1-0.3,0.2-0.1,0.7c0,0,0,0,0,0c0-0.1,0-0.1,0.1-0.2c0,0,0,0,0,0c0.1-0.2,0.1-0.2,0.2-0.2 c0.1,0,0.1,0,0.2,0c0,0,0,0,0,0.1l1,0.7c0.2,0.1,0.4,0.2,0.6,0.2h0.2c0.2,0,0.5-0.1,1-0.2c0.2-0.1,0.4-0.2,0.7-0.3 c0,0,0.8-0.3,1.5-0.3s1.2,0.3,1.5,0.8c0,0.1,0.7,1.4-0.6,2.3c-0.2,0.1-1.8,0.9-1.8,2.9c0,0.2-0.1,2.3,2,6.3c0,0.1,2.3,3.9,2.3,7.1 c0,0.2,0,0.5,0,0.7c0,0,0,0,0,0.1c0,0,0,0.1,0,0.1c0,0,0,0.1,0,0.1c0.2,0,0.3,0,0.3,0c0,0,0,0,0,0c0,0,0,0,0,0s0,0,0,0 c0,0,0-0.1,0-0.1c0,0,0,0,0,0C112.5,33.3,109.6,28.6,109.6,28.6z M110.5,39.1L110.5,39.1L110.5,39.1L110.5,39.1z"></path> <path class="st0" d="M108.3,18c0,0-0.3,0.4-0.8-0.3c0,0.1-0.5-0.2,0-0.3C107.5,17.4,108.4,17.3,108.3,18z"></path> <path class="st0" d="M110.6,41.7C110.6,41.8,110.5,41.8,110.6,41.7L110.6,41.7z"></path> <path class="st0" d="M112.7,41.1l-0.1,0.4c0,0.1-0.6-0.2-2,0.2C110.6,41.7,111.6,41,112.7,41.1z"></path> <path class="st0" d="M110.5,39.1L110.5,39.1L110.5,39.1L110.5,39.1z M110.5,39.1L110.5,39.1L110.5,39.1L110.5,39.1z M110.5,39.1 L110.5,39.1L110.5,39.1L110.5,39.1z M110.5,39.1L110.5,39.1L110.5,39.1L110.5,39.1z M110.5,39.1L110.5,39.1L110.5,39.1L110.5,39.1z M110.5,39.1L110.5,39.1L110.5,39.1L110.5,39.1z M110.5,39.1L110.5,39.1L110.5,39.1L110.5,39.1z M110.5,39.1L110.5,39.1L110.5,39.1 L110.5,39.1z M114.3,38.9C114.2,38.9,114.2,38.8,114.3,38.9c-0.1-0.2-0.1-0.2-0.2-0.3c0,0,0,0-0.1-0.1h0c0,0-0.1,0-0.1,0 c0,0,0,0,0,0c0,0,0,0-0.1,0c0,0,0,0-0.1,0h0c-0.1,0-0.2,0-0.3,0c0,0-0.1,0-0.2,0.1c0,0-0.1,0-0.2,0.1c-0.1,0.1-0.2,0.2-0.3,0.2 c-0.1,0.1-0.1,0.1-0.2,0.2v0c0,0,0,0,0,0s0,0,0-0.1c0-0.1,0-0.3,0-0.4c0-0.1,0-0.2,0-0.2c0-0.1,0-0.1,0-0.2v0c0,0,0-0.1,0-0.2 c-0.1-0.4-0.3-0.9-0.7-1.1c0,0,0,0,0,0c0,0-0.1-0.1-0.2-0.1c0,0,0,0-0.1,0c-0.1,0-0.4,0-0.6,0.1c0,0,0,0-0.1,0c0,0,0,0,0,0 c-0.1,0-0.1,0.1-0.1,0.1c0,0-0.1,0.1-0.1,0.1c0,0,0,0,0,0c0,0-0.1,0.1-0.1,0.1c0,0.1-0.1,0.1-0.1,0.2v0c0,0,0,0.1,0,0.2 c0,0.1,0,0.1-0.1,0.2c0,0,0,0.1,0,0.1c0,0.2,0,0.3,0,0.5v0.4c0,0-0.5-0.4-0.8-0.4c0,0-0.1,0-0.1,0c0,0,0,0,0,0c0,0-0.1,0-0.1,0.1 c0,0,0,0,0,0l0,0c0,0-0.1,0-0.1,0.1c0,0,0,0,0,0.1c0,0-0.1,0.1-0.1,0.1c0,0,0,0.1,0,0.1c0,0,0,0.1,0,0.1c-0.1,0.2-0.1,0.6-0.1,1 v0.1c0,0.4,0.1,0.8,0.2,1.3c0.2,0.6,0.3,1.2,0.7,1.8c0.1,0.1,0.1,0.1,0.2,0.2c0.2,0.3,0.5,0.5,0.9,0.6c0.1,0,0.2,0.1,0.3,0.1 c0,0,0,0,0,0c0.1,0,0.1,0,0.2,0h0c0.1,0,0.3,0,0.4,0c0.1,0,0.2,0,0.3-0.1c0,0,0,0,0,0c0.1,0,0.1-0.1,0.2-0.1c0.1,0,0.2-0.1,0.3-0.2 c0.1-0.1,0.2-0.1,0.2-0.2c1.1-1,1.5-3,1.6-4.3C114.3,39.2,114.3,39,114.3,38.9z M111.1,44c-0.2,0-0.3,0-0.4-0.1 c-0.2-0.1-0.4-0.2-0.5-0.3c-0.1-0.1-0.2-0.2-0.2-0.3c-0.4-0.6-0.6-1.4-0.7-1.8c0-0.2-0.1-0.4-0.1-0.5c0-0.2-0.1-0.3-0.1-0.5 c0-0.2,0-0.3,0-0.4c0,0,0,0,0-0.1c0,0,0,0,0,0v-0.1c0-0.5,0.1-0.8,0.2-1c0,0,0-0.1,0.1-0.1l0.1-0.1c0,0,0,0,0,0c0,0,0,0,0,0 c0.1-0.1,0.2-0.1,0.3-0.1c0,0,0,0,0.1,0c0.1,0,0.1,0,0.2,0.1c0,0,0,0,0.1,0c0.2,0.1,0.4,0.2,0.5,0.3v-0.4c0-1.5,0.7-1.7,1-1.7h0.1 c0,0,0,0.1,0,0.1c0.2,0,0.3,0,0.3,0c0,0,0,0,0,0c0,0,0,0,0,0c0,0,0.1,0,0.1,0c0,0,0,0,0,0c0.3,0.2,0.7,0.8,0.5,2.1v0.2h0.1 c0.1-0.2,0.4-0.6,0.8-0.7l0,0c0,0,0.1,0,0.1,0h0.1c0.1,0,0.1,0,0.1,0c0.1,0,0.2,0.1,0.2,0.2c0.1,0.1,0.1,0.2,0.1,0.4 c0,0.2,0,0.3,0,0.5c0,0,0,0.1,0,0.1c-0.1,0.9-0.5,2-0.6,2.2C113,43.1,112.1,44,111.1,44z M110.5,39.1L110.5,39.1L110.5,39.1 L110.5,39.1z M110.5,39.1L110.5,39.1L110.5,39.1L110.5,39.1z M110.5,39.1L110.5,39.1L110.5,39.1L110.5,39.1z M110.5,39.1 L110.5,39.1L110.5,39.1L110.5,39.1z M110.5,39.1L110.5,39.1L110.5,39.1L110.5,39.1z M110.5,39.1L110.5,39.1L110.5,39.1L110.5,39.1z M110.5,39.1L110.5,39.1L110.5,39.1L110.5,39.1z M110.5,39.1L110.5,39.1L110.5,39.1L110.5,39.1z M110.5,39.1L110.5,39.1L110.5,39.1 L110.5,39.1z"></path> <g> <path class="st0" d="M110.5,39.1L110.5,39.1L110.5,39.1L110.5,39.1z M110.5,39.1L110.5,39.1L110.5,39.1L110.5,39.1z M110.5,39.1 L110.5,39.1L110.5,39.1L110.5,39.1z M110.5,39.1L110.5,39.1L110.5,39.1L110.5,39.1z M110.5,39.1L110.5,39.1L110.5,39.1L110.5,39.1 z M110.5,39.1L110.5,39.1L110.5,39.1L110.5,39.1z M110.5,39.1L110.5,39.1L110.5,39.1L110.5,39.1z M110.5,39.1L110.5,39.1 L110.5,39.1L110.5,39.1z M110.5,39.1L110.5,39.1L110.5,39.1L110.5,39.1z M110.5,39.1L110.5,39.1L110.5,39.1L110.5,39.1z M110.5,39.1L110.5,39.1L110.5,39.1L110.5,39.1z M110.5,39.1L110.5,39.1L110.5,39.1L110.5,39.1z M110.5,39.1L110.5,39.1 L110.5,39.1L110.5,39.1z M110.5,39.1L110.5,39.1L110.5,39.1L110.5,39.1z M110.5,39.1L110.5,39.1L110.5,39.1L110.5,39.1z M110.5,39.1L110.5,39.1L110.5,39.1L110.5,39.1z M110.5,39.1L110.5,39.1L110.5,39.1L110.5,39.1z M110.5,39.1L110.5,39.1 L110.5,39.1L110.5,39.1z M110.5,39.1L110.5,39.1L110.5,39.1L110.5,39.1z M114.3,38.9C114.3,38.9,114.3,38.9,114.3,38.9 c0-0.2-0.1-0.2-0.2-0.3c0,0,0,0-0.1,0h0c0,0-0.1,0-0.1,0c0,0,0,0,0,0c0,0,0,0-0.1,0c0,0,0,0-0.1,0h0c-0.1,0-0.2,0-0.3,0 c0,0-0.1,0-0.2,0.1c0,0-0.1,0-0.2,0.1c-0.1,0.1-0.2,0.2-0.3,0.3v0c0.1-0.6,0-1.8-0.9-2c0,0,0,0,0,0c0,0,0,0-0.1,0 c0,0-0.1-0.1-0.2-0.1c-0.2,0-0.4,0-0.6,0.1c0,0,0,0-0.1,0c0,0,0,0,0,0c-0.1,0-0.1,0.1-0.1,0.1c0,0-0.1,0.1-0.1,0.1c0,0,0,0,0,0 c0,0-0.1,0.1-0.1,0.1c0,0.1-0.1,0.1-0.1,0.2v0c0,0,0,0.1,0,0.2c0,0.1,0,0.1-0.1,0.2c0,0,0,0.1,0,0.1c0,0.2,0,0.3,0,0.5v0.3 c-0.2-0.2-0.5-0.4-0.8-0.3c0,0-0.1,0-0.1,0c0,0,0,0,0,0c0,0-0.1,0-0.1,0.1c0,0,0,0,0,0l0,0c0,0-0.1,0-0.1,0.1c0,0,0,0,0,0.1 c0,0-0.1,0.1-0.1,0.1c0,0,0,0.1,0,0.1c0,0,0,0.1,0,0.1c-0.1,0.2-0.1,0.6-0.1,1v0.1c0,0.4,0.1,0.9,0.2,1.4c0.2,0.5,0.3,1.1,0.6,1.6 c0,0.1,0.1,0.2,0.1,0.2c0.2,0.3,0.5,0.6,0.9,0.7c0,0,0.1,0,0.1,0c0.2,0.1,0.4,0.1,0.6,0.1c0.4,0,0.9-0.2,1.3-0.4 c1.3-0.9,1.8-3.2,1.8-4.5C114.4,39.3,114.4,39.1,114.3,38.9z M112.5,43.8c-0.1,0.1-0.2,0.1-0.3,0.2c-0.1,0-0.1,0.1-0.2,0.1 c0,0,0,0,0,0c-0.1,0-0.2,0.1-0.3,0.1c-0.1,0-0.2,0-0.4,0c-0.1,0-0.1,0-0.1,0c0,0-0.1,0-0.1,0c0,0,0,0,0,0c-0.1,0-0.2,0-0.3-0.1 c-0.3-0.1-0.6-0.3-0.8-0.6c-0.1-0.1-0.1-0.1-0.1-0.2c-0.3-0.5-0.4-1.2-0.6-1.7c0-0.2-0.1-0.4-0.1-0.6c0-0.2-0.1-0.3-0.1-0.5 c0-0.2,0-0.3,0-0.4c0,0,0,0,0-0.1c0,0,0,0,0,0v-0.1c0-0.5,0.1-0.8,0.2-1c0,0,0-0.1,0.1-0.1l0.1-0.1c0,0,0,0,0,0c0,0,0,0,0,0 c0-0.1,0.1-0.1,0.2-0.1h0.1c0,0,0,0,0.1,0c0.1,0,0.1,0,0.2,0.1c0,0,0,0,0.1,0c0.2,0.1,0.4,0.2,0.4,0.2l0.1,0.1v-0.4 c0-1.5,0.7-1.7,1-1.7h0.1c0,0,0,0.1,0,0.1c0.2,0,0.3,0,0.3,0c0,0,0,0,0,0c0,0,0,0,0,0c0,0,0.1,0,0.1,0c0,0,0,0,0,0 c0.4,0.2,0.5,0.5,0.6,0.9c0,0.1,0,0.1,0,0.2v0c0,0.1,0,0.1,0,0.2c0,0.1,0,0.2,0,0.2c0,0.2,0,0.3,0,0.4v0.1c0,0.1,0,0.1,0,0.1 l0,0.2h0c0.1-0.2,0.4-0.6,0.8-0.7l0,0c0,0,0,0,0,0h0.4c0,0,0.1,0.1,0.2,0.1c0.1,0.1,0.1,0.1,0.1,0.2c0,0,0,0,0,0.1 c0.1,0.1,0.1,0.2,0.1,0.4c0,1.1-0.4,3.1-1.5,4.1C112.7,43.7,112.6,43.7,112.5,43.8z M110.5,39.1L110.5,39.1L110.5,39.1L110.5,39.1 z M110.5,39.1L110.5,39.1L110.5,39.1L110.5,39.1z M110.5,39.1L110.5,39.1L110.5,39.1L110.5,39.1z M110.5,39.1L110.5,39.1 L110.5,39.1L110.5,39.1z M110.5,39.1L110.5,39.1L110.5,39.1L110.5,39.1z M110.5,39.1L110.5,39.1L110.5,39.1L110.5,39.1z M110.5,39.1L110.5,39.1L110.5,39.1L110.5,39.1z M110.5,39.1L110.5,39.1L110.5,39.1L110.5,39.1z M110.5,39.1L110.5,39.1 L110.5,39.1L110.5,39.1z M110.5,39.1L110.5,39.1L110.5,39.1L110.5,39.1z M110.5,39.1L110.5,39.1L110.5,39.1L110.5,39.1z M110.5,39.1L110.5,39.1L110.5,39.1L110.5,39.1z M110.5,39.1L110.5,39.1L110.5,39.1L110.5,39.1z M110.5,39.1L110.5,39.1 L110.5,39.1L110.5,39.1z M110.5,39.1L110.5,39.1L110.5,39.1L110.5,39.1z M110.5,39.1L110.5,39.1L110.5,39.1L110.5,39.1z M110.5,39.1L110.5,39.1L110.5,39.1L110.5,39.1z M110.5,39.1L110.5,39.1L110.5,39.1L110.5,39.1z M110.5,39.1L110.5,39.1 L110.5,39.1L110.5,39.1z M110.5,39.1L110.5,39.1L110.5,39.1L110.5,39.1z M110.5,39.1L110.5,39.1L110.5,39.1L110.5,39.1z"></path> </g> <path class="st1" d="M110.6,41.7C110.6,41.8,110.5,41.8,110.6,41.7L110.6,41.7z"></path> <path class="st1" d="M109,40.1c0,0.1,0,0.3,0,0.4C109,40.4,109,40.2,109,40.1L109,40.1c-0.1-0.7,0-1,0.2-1.2 c-0.1,0.2-0.2,0.5-0.2,1L109,40.1C109,40,109,40,109,40.1C109,40.1,109,40.1,109,40.1z"></path> <polygon class="st1" points="110.5,39.1 110.5,39.1 110.5,39.1 "></polygon> <path class="st1" d="M111.9,37.1C111.9,37,111.9,37,111.9,37.1C111.9,37,111.8,37,111.9,37.1c-0.1,0-0.1-0.1-0.1-0.1 c0,0-0.1,0-0.3,0c0,0,0,0,0-0.1c0,0,0,0,0,0S111.7,36.9,111.9,37.1C111.8,37,111.9,37,111.9,37.1C111.9,37,111.9,37,111.9,37.1z"></path> <path class="st1" d="M112.7,41.1l-0.1,0.4c0,0.1-0.6-0.2-2,0.2C110.6,41.7,111.6,41,112.7,41.1z"></path> <path class="st0" d="M83.1,42.7c0-0.2,0.4-1.6,2.3-1.7v0.4C85.4,41.4,84.2,41.3,83.1,42.7z"></path> <path class="st0" d="M87.1,38.8c0-0.2-0.1-0.4-0.1-0.5c-0.1-0.3-0.1-0.7-0.3-1c-0.4-0.6-1.3-0.7-1.8-0.2c-0.3-0.8-0.5-1.9-1.3-2.3 c0,0-0.1,0-0.1,0c-0.5-0.2-1-0.1-1.4,0.2c-0.1,0-0.1,0.1-0.2,0.2c0,0,0,0-0.1,0.1c0,0,0,0,0,0.1c-0.3,0.4-0.4,0.9-0.3,1.3 c0,0.2,0.1,0.5,0.1,0.8v0c0,0.2,0,0.5,0,0.7c0,0,0,0-0.1,0c-0.1,0-0.2,0-0.2,0c-0.2,0-0.4,0-0.6,0c0,0,0,0,0,0 c-0.1,0-0.1,0-0.1,0.1c-0.1,0.1-0.2,0.2-0.3,0.3c-0.1,0.2-0.1,0.4-0.1,0.6c0-0.3,0.1-0.5,0.3-0.7l-0.1,1.4v0c0,0.1,0.1,0.2,0.1,0.4 v0c0.2,0.6,0.5,1.2,0.7,1.7c0,0.1,0.1,0.1,0.1,0.2c0,0.1,0.1,0.1,0.1,0.2c0.2,0.4,0.4,0.7,0.7,0.9c0.4,0.6,1,1,1.7,1.3 c0.2,0.1,0.4,0.2,0.6,0.2c0.8,0.2,1.8,0.2,2.1-0.5c0.3-0.4,0.3-0.7,0.4-1.2c0-0.1,0-0.3,0.1-0.4C87.2,41.3,87.2,40,87.1,38.8z M83.9,43.9c-0.6-0.3-1.1-0.7-1.5-1.2c-0.3-0.4-0.6-0.8-0.9-1.4l0.3-3c0.1,0,0.2,0,0.3,0c0-0.4-0.1-1.2-0.1-1.7s0-0.9,0.2-1.2 c0.4-0.5,0.9-0.5,1.4-0.2c0.1,0,0.1,0.1,0.2,0.1c0.5,0.3,0.7,1,0.9,1.6c0.1,0.2,0.1,0.3,0.2,0.5c0,0,0.1-0.1,0.1-0.1 c0.4-0.3,1.2-0.3,1.5,0.1c0.2,0.3,0.2,0.7,0.2,1c0,0,0,0.1,0,0.2c0.2,1.4,0.2,2.8-0.1,4c-0.1,0.5-0.1,0.7-0.3,1 C85.9,44.5,84.8,44.4,83.9,43.9z"></path> <path class="st1" d="M81.6,38.3c0.1,0,0.1,0,0.2,0l-0.3,3c0-0.1-0.1-0.2-0.1-0.2c0-0.1-0.1-0.1-0.1-0.2c-0.2-0.5-0.4-1-0.6-1.5 c-0.1-0.2-0.1-0.6,0-0.8C80.8,38.4,81.2,38.3,81.6,38.3L81.6,38.3z"></path> <path class="st1" d="M85.4,41v0.4c0,0-1.2-0.1-2.3,1.3C83.1,42.5,83.5,41.1,85.4,41z"></path> <path class="st0" d="M85.4,41v0.4c0,0-1.2-0.1-2.3,1.3C83.1,42.5,83.5,41.1,85.4,41z"></path> <path class="st0" d="M80,32.7l-0.3,0L79,32.5c0,0,0,0.1,0,0.1c0,0.2,0,0.5,0,0.7c0,0,0,0.1,0,0.1c0,0,0,0.1,0,0.1 c0,0.2,0,0.4-0.1,0.6L78,34.1c0-0.2,0.1-0.4,0.1-0.6c0,0,0-0.1,0-0.1v-0.1c0-0.3,0-0.5,0-0.7c0,0,0-0.1,0-0.1l-0.2,0L75.6,32 l-1.3-0.2l0,0l-0.1,0h0l0,0c0,0,0,0.1,0,0.1v0c0,0,0,0,0,0l-0.2,0c0,0,0,0.1,0,0.1c0,0.1,0,0.1,0.1,0.2L73.4,32l-0.8-0.2 c0,0,0,0,0,0c0,0,0,0,0,0h-0.2c0,0,0,0,0,0l-0.1,0h0L72,31.6l-0.7-0.2c0,0,0,0,0,0l0,0L68.9,31c-0.1,0.7-0.2,1.9-0.3,2.6 c0,0.3-0.1,0.7-0.1,1c-0.2,1.4-0.4,2.8-0.8,4.2c-0.1,0.3-1.1,4.1-1.3,4.1c0.1,0,0.3,0,0.4,0c0.1,0,0.2,0,0.3,0 c0.2,0,0.5,0.1,0.7,0.1c0.3,0,0.7,0.1,1.1,0.1c0.3,0,0.7,0.1,1,0.1c0,0,0.1,0,0.1,0c0.3,0,0.7,0.1,1,0.1c0.1,0,0.1,0,0.2,0 c0.3,0,0.5,0.1,0.8,0.1c0.2,0,0.5,0.1,0.8,0.1c0.1,0,0.2,0,0.3,0c0.2,0,0.5,0.1,0.7,0.1c0.2,0,0.3,0,0.5,0.1 c3.6,0.5,6.8,0.9,6.8,0.9l0.2-2.6l0-0.1l0.1-1v0l0.2-2.8l0.3-3.2l0.1-1.6V33L80,32.7z M78.3,34.8l0.9,0.1l0.5,0.1l0.1-0.5 c0-0.2,0.1-0.4,0.1-0.6c0,0,0,0,0,0c0,0,0-0.1,0-0.1l1,0.2l-0.2,2.6l-0.1,1.6c-0.1,0.1-0.2,0.2-0.3,0.3c-0.1,0.2-0.1,0.4-0.1,0.6 c0-0.3,0.1-0.5,0.3-0.7l-0.1,1.4c-0.1-0.2-0.1-0.4-0.2-0.5c0-0.1,0-0.1-0.1-0.2c0,0.2,0,0.4,0.2,0.7c0,0,0,0.1,0,0.1L80,43.7 l-12.3-1.6c1-1.7,2-8.9,2.2-9.9l4.3,0.7c0,0.2,0.1,0.5,0.2,0.6c0,0.1,0.1,0.1,0.1,0.2c0.2,0.2,0.6,0.3,0.9,0.2 c0.3-0.1,0.6-0.2,0.9-0.4c0.1-0.1,0.2-0.2,0.2-0.3h0l1.4,0.2c0,0.2,0,0.4-0.1,0.7l-0.1,0.6L78.3,34.8z"></path> <g> <path class="st0" d="M72.4,31.7l0.2,0c0,0,0,0,0,0H72.4z M78.1,32.4c0,0,0-0.1,0-0.1l-0.2,0l-2.3-0.4l-1.2-0.2h0l-0.1,0h0 c0,0,0,0.1,0,0.1l0,0c0,0,0,0.1,0,0.1v0c0,0,0,0,0,0h0l0.1,0l1.3,0.2l2.3,0.3l0.2,0C78.1,32.5,78.1,32.5,78.1,32.4z M80,32.6 l-0.3,0L79,32.4c0,0,0,0.1,0,0.1c0,0,0,0.1,0,0.1l0.7,0.1l0.3,0l1.9,0.3v0.4l-0.1,1.8l-0.2,2.1v0l-0.1,0.7l0,0.2l-0.2,2.6l-0.1,1 l0,0.1L81,44.7c-0.6-0.1-3.5-0.4-6.7-0.8c-0.2,0-0.3,0-0.5-0.1c-0.2,0-0.5-0.1-0.7-0.1c-0.1,0-0.2,0-0.3,0c-0.3,0-0.5-0.1-0.8-0.1 c-0.3,0-0.5-0.1-0.8-0.1c-0.1,0-0.1,0-0.2,0c-0.3,0-0.7-0.1-1-0.1c0,0-0.1,0-0.1,0c-0.3,0-0.7-0.1-1-0.1c-0.4,0-0.7-0.1-1.1-0.1 c-0.2,0-0.5-0.1-0.7-0.1c-0.1,0-0.2,0-0.3,0c-0.1,0-0.2,0-0.3,0c0.1-0.3,0.3-0.8,0.6-1.8c0.3-1,0.6-2.1,0.6-2.2 c0.3-1.4,0.6-2.8,0.8-4.3c0-0.3,0.1-0.6,0.1-0.9c0-0.2,0.1-0.5,0.1-0.8c0.1-0.6,0.2-1.3,0.2-1.7l2.3,0.3l0.8,0.1l0.2,0L72,31.6 l-0.7-0.2c0,0,0,0,0,0l0.2,0c0,0,0-0.1,0-0.1l-0.2,0l0,0l-2.5-0.4V31c0,0.5-0.1,1.2-0.2,1.8c0,0.3-0.1,0.6-0.1,0.8 c0,0.4-0.1,0.8-0.1,1.1v0c-0.2,1.5-0.4,2.8-0.8,4.1c-0.1,0.5-0.3,1.4-0.6,2.3s-0.5,1.6-0.6,1.7V43c4.5,0.5,14.6,1.9,14.8,1.9 l0.2-2.5l0-0.1l0.1-0.9l0.3-3l0.3-3.4l0.1-1.5v-0.6L80,32.6z"></path> </g> <path class="st1" d="M81,33.8l-1.1-0.2l-0.1,0L79,33.5c0,0,0,0.1,0,0.1c0,0.2,0,0.4-0.1,0.6L78,34.1c0-0.2,0.1-0.4,0.1-0.6 c0,0,0-0.1,0-0.1l-0.2,0l-1.4-0.2l-0.2,0L76,33l-1.8-0.3l-0.1,0L72,32.4l-2.2-0.3c0,0-1.1,8.6-2.2,10.1l12.6,1.7l0.3-3.6v0l0-0.1v0 l0.2-1.8l0-0.2l0.1-1.3v0L81,33.8L81,33.8z M80.7,36.5l-0.1,1.6c-0.1,0.1-0.2,0.2-0.3,0.3c-0.1,0.2-0.1,0.4-0.1,0.6 c0-0.3,0.1-0.5,0.3-0.7l-0.1,1.4c-0.1-0.2-0.1-0.4-0.2-0.5c0-0.1,0-0.1-0.1-0.2c0,0.2,0,0.4,0.2,0.7c0,0,0,0.1,0,0.1L80,43.7 l-12.3-1.6c1-1.7,2-8.9,2.2-9.9l4.3,0.7c0,0.2,0.1,0.5,0.2,0.6c0,0.1,0.1,0.1,0.1,0.2c0.2,0.2,0.6,0.3,0.9,0.2 c0.3-0.1,0.6-0.2,0.9-0.4c0.1-0.1,0.2-0.2,0.2-0.3h0l1.4,0.2c0,0.2,0,0.4-0.1,0.7l-0.1,0.6l0.6,0.1l0.9,0.1l0.5,0.1l0.1-0.5 c0-0.2,0.1-0.4,0.1-0.6c0,0,0,0,0,0c0,0,0-0.1,0-0.1l1,0.2L80.7,36.5z"></path> <g> <path class="st0" d="M79.9,33.5L79.9,33.5L79,33.4c0,0,0,0.1,0,0.1c0,0,0,0.1,0,0.1l0.9,0.1l0,0l1,0.2l-0.2,2.6l-0.1,1.6l0,0.3 l-0.1,1.4v0l0,0.1L80,43.7l-12.3-1.6c1-1.7,2-8.9,2.2-9.9l4.3,0.7l2.3,0.3h0l1.4,0.2l0.2,0c0,0,0-0.1,0-0.1v-0.1l-0.2,0l-2-0.3 l-1.7-0.2l-0.1,0L72,32.4L69.6,32v0.1c0,0.1-1.1,8.6-2.2,10l-0.1,0.1l12.9,1.7l0.3-3.6v0l0-0.1v0l0.1-1.8l0-0.2l0.1-1.3v0l0.2-3 l0-0.1L79.9,33.5z"></path> </g> <path class="st0" d="M110.6,41.7C110.6,41.8,110.5,41.8,110.6,41.7L110.6,41.7z"></path> <path class="st0" d="M112.7,41.1l-0.1,0.4c0,0.1-0.6-0.2-2,0.2C110.6,41.7,111.6,41,112.7,41.1z"></path> <path class="st0" d="M77.2,30.6c0,0.1-0.1,0.2-0.1,0.3c0.1,0.1,0.2,0.2,0.3,0.2c0.2,0.3,0.4,0.6,0.5,1.2l0.2,0 C78,31.5,77.7,30.9,77.2,30.6z M77.2,30.6c0,0.1-0.1,0.2-0.1,0.3c0.1,0.1,0.2,0.2,0.3,0.2c0.2,0.3,0.4,0.6,0.5,1.2l0.2,0 C78,31.5,77.7,30.9,77.2,30.6z M79.9,33.7L79,33.6c0,0.2,0,0.4-0.1,0.6L78,34.1c0-0.2,0.1-0.4,0.1-0.6c0,0,0-0.1,0-0.1v-0.1 c0-0.3,0-0.5,0-0.7c0,0,0-0.1,0-0.1c0,0,0-0.1,0-0.1c-0.1-0.8-0.4-1.3-0.8-1.7c0,0.1-0.1,0.2-0.1,0.3c0.1,0.1,0.2,0.2,0.3,0.2 c0.2,0.3,0.4,0.6,0.5,1.2c0,0,0,0.1,0,0.1c0,0,0,0.1,0,0.2c0,0.2,0,0.4,0,0.7c0,0,0,0.1,0,0.1c0,0,0,0.1,0,0.1c0,0.2,0,0.4-0.1,0.7 l-0.1,0.6l0.6,0.1l0.9,0.1l0.5,0.1l0.1-0.5c0-0.2,0.1-0.4,0.1-0.6c0,0,0,0,0,0C79.9,33.8,79.9,33.8,79.9,33.7z M79.9,33.7 c0,0,0-0.1,0-0.1c0,0,0-0.1,0-0.1c-0.1-0.3-0.1-0.5-0.1-0.8L79,32.7c0,0.2,0,0.5,0,0.7c0,0,0,0.1,0,0.1c0,0,0,0.1,0,0.1 c0,0.2,0,0.4-0.1,0.6L78,34.1c0-0.2,0.1-0.4,0.1-0.6c0,0,0-0.1,0-0.1v-0.1c0-0.3,0-0.5,0-0.7c0,0,0-0.1,0-0.1c0,0,0-0.1,0-0.1 c-0.1-0.8-0.4-1.3-0.8-1.7c-0.3-0.3-0.6-0.4-1-0.5c-0.6-0.2-1.2-0.1-1.8,0.2c-0.2,0.1-0.4,0.3-0.6,0.5c0,0,0,0-0.1,0.1c0,0,0,0,0,0 v0c0,0,0.1,0.1,0.1,0.1c0.1,0.2,0.2,0.4,0.3,0.6c0,0,0,0.1,0,0.1l0,0c0,0,0,0.1,0,0.1c0,0,0-0.1,0-0.1c0,0,0,0,0-0.1c0,0,0,0,0,0 c0.1-0.4,0.4-0.7,0.8-0.9c0.3-0.2,0.6-0.3,0.9-0.3c0.1,0,0.2,0,0.3,0c0.3,0,0.6,0.1,0.8,0.3c0.1,0.1,0.2,0.2,0.3,0.2 c0.2,0.3,0.4,0.6,0.5,1.2c0,0,0,0.1,0,0.1c0,0,0,0.1,0,0.2c0,0.2,0,0.4,0,0.7c0,0,0,0.1,0,0.1c0,0,0,0.1,0,0.1c0,0.2,0,0.4-0.1,0.7 l-0.1,0.6l0.6,0.1l0.9,0.1l0.5,0.1l0.1-0.5c0-0.2,0.1-0.4,0.1-0.6c0,0,0,0,0,0C79.9,33.8,79.9,33.8,79.9,33.7z M79.9,33.7 c0,0,0-0.1,0-0.1c0,0,0-0.1,0-0.1c-0.1-0.3-0.1-0.5-0.1-0.8L79,32.7c0,0.2,0,0.5,0,0.7c0,0,0,0.1,0,0.1c0,0,0,0.1,0,0.1 c0,0.2,0,0.4-0.1,0.6L78,34.1c0-0.2,0.1-0.4,0.1-0.6c0,0,0-0.1,0-0.1v-0.1c0-0.3,0-0.5,0-0.7c0,0,0-0.1,0-0.1c0,0,0-0.1,0-0.1 c-0.1-0.8-0.4-1.3-0.8-1.7c-0.3-0.3-0.6-0.4-1-0.5c-0.6-0.2-1.2-0.1-1.8,0.2c-0.2,0.1-0.4,0.3-0.6,0.5c0,0,0,0-0.1,0.1c0,0,0,0,0,0 v0c0,0,0.1,0.1,0.1,0.1c0.1,0.2,0.2,0.4,0.3,0.6c0,0,0,0.1,0,0.1l0,0c0,0,0,0.1,0,0.1c0,0,0-0.1,0-0.1c0,0,0,0,0-0.1c0,0,0,0,0,0 c0.1-0.4,0.4-0.7,0.8-0.9c0.3-0.2,0.6-0.3,0.9-0.3c0.1,0,0.2,0,0.3,0c0.3,0,0.6,0.1,0.8,0.3c0.1,0.1,0.2,0.2,0.3,0.2 c0.2,0.3,0.4,0.6,0.5,1.2c0,0,0,0.1,0,0.1c0,0,0,0.1,0,0.2c0,0.2,0,0.4,0,0.7c0,0,0,0.1,0,0.1c0,0,0,0.1,0,0.1c0,0.2,0,0.4-0.1,0.7 l-0.1,0.6l0.6,0.1l0.9,0.1l0.5,0.1l0.1-0.5c0-0.2,0.1-0.4,0.1-0.6c0,0,0,0,0,0C79.9,33.8,79.9,33.8,79.9,33.7z M74.1,32 C74.1,32,74.1,32,74.1,32c0,0.2,0.1,0.2,0.1,0.3L73.4,32l-0.8-0.2c0,0,0,0,0,0c0,0,0,0,0,0h-0.2c0,0,0,0,0,0l-0.1,0h0L72,31.6 c0,0,0,0,0,0c0,0,0,0,0,0c0,0.1,0,0.1,0,0.2v0.6l0.6,0.1l0.9,0.1l0.6,0.1l0,0l0-0.1l0-0.2l0-0.1l0-0.1l0-0.1c0,0,0-0.1,0-0.1 c0,0,0-0.1,0-0.1L74.1,32z M79.9,33.7c0,0,0-0.1,0-0.1c0,0,0-0.1,0-0.1c-0.1-0.3-0.1-0.5-0.1-0.8L79,32.7c0,0.2,0,0.5,0,0.7 c0,0,0,0.1,0,0.1c0,0,0,0.1,0,0.1c0,0.2,0,0.4-0.1,0.6L78,34.1c0-0.2,0.1-0.4,0.1-0.6c0,0,0-0.1,0-0.1v-0.1c0-0.3,0-0.5,0-0.7 c0,0,0-0.1,0-0.1c0,0,0-0.1,0-0.1c-0.1-0.8-0.4-1.3-0.8-1.7c-0.3-0.3-0.6-0.4-1-0.5c-0.6-0.2-1.2-0.1-1.8,0.2 c-0.2,0.1-0.4,0.3-0.6,0.5c0,0,0,0-0.1,0.1c0,0,0,0.1,0.1,0.1c0.1,0.3,0.2,0.5,0.3,0.7h0c0,0,0,0.1,0,0.1c0,0,0,0,0,0 c0,0,0,0.1,0,0.1c0,0,0-0.1,0-0.1c0,0,0,0,0-0.1c0,0,0,0,0,0c0.1-0.4,0.4-0.7,0.8-0.9c0.3-0.2,0.6-0.3,0.9-0.3c0.1,0,0.2,0,0.3,0 c0.3,0,0.6,0.1,0.8,0.3c0.1,0.1,0.2,0.2,0.3,0.2c0.2,0.3,0.4,0.6,0.5,1.2c0,0,0,0.1,0,0.1c0,0,0,0.1,0,0.2c0,0.2,0,0.4,0,0.7 c0,0,0,0.1,0,0.1c0,0,0,0.1,0,0.1c0,0.2,0,0.4-0.1,0.7l-0.1,0.6l0.6,0.1l0.9,0.1l0.5,0.1l0.1-0.5c0-0.2,0.1-0.4,0.1-0.6 c0,0,0,0,0,0C79.9,33.8,79.9,33.8,79.9,33.7z M79.9,33.7c0,0,0-0.1,0-0.1c0,0,0-0.1,0-0.1c-0.1-0.3-0.1-0.5-0.1-0.8L79,32.7 c0,0.2,0,0.5,0,0.7c0,0,0,0.1,0,0.1c0,0,0,0.1,0,0.1c0,0.2,0,0.4-0.1,0.6L78,34.1c0-0.2,0.1-0.4,0.1-0.6c0,0,0-0.1,0-0.1v-0.1 c0-0.3,0-0.5,0-0.7c0,0,0-0.1,0-0.1c0,0,0-0.1,0-0.1c-0.1-0.8-0.4-1.3-0.8-1.7c-0.3-0.3-0.6-0.4-1-0.5c-0.6-0.2-1.2-0.1-1.8,0.2 c-0.2,0.1-0.4,0.3-0.6,0.5c0,0,0,0-0.1,0.1c0,0,0,0.1,0.1,0.1c0.1,0.3,0.2,0.5,0.3,0.7h0c0,0,0,0.1,0,0.1c0,0,0,0,0,0 c0,0,0,0.1,0,0.1c0,0,0-0.1,0-0.1c0,0,0,0,0-0.1c0,0,0,0,0,0c0.1-0.4,0.4-0.7,0.8-0.9c0.3-0.2,0.6-0.3,0.9-0.3c0.1,0,0.2,0,0.3,0 c0.3,0,0.6,0.1,0.8,0.3c0.1,0.1,0.2,0.2,0.3,0.2c0.2,0.3,0.4,0.6,0.5,1.2c0,0,0,0.1,0,0.1c0,0,0,0.1,0,0.2c0,0.2,0,0.4,0,0.7 c0,0,0,0.1,0,0.1c0,0,0,0.1,0,0.1c0,0.2,0,0.4-0.1,0.7l-0.1,0.6l0.6,0.1l0.9,0.1l0.5,0.1l0.1-0.5c0-0.2,0.1-0.4,0.1-0.6 c0,0,0,0,0,0C79.9,33.8,79.9,33.8,79.9,33.7z M79.9,33.7c0,0,0-0.1,0-0.1c0,0,0-0.1,0-0.1c-0.1-0.3-0.1-0.5-0.1-0.8L79,32.7 c0,0.2,0,0.5,0,0.7c0,0,0,0.1,0,0.1c0,0,0,0.1,0,0.1c0,0.2,0,0.4-0.1,0.6L78,34.1c0-0.2,0.1-0.4,0.1-0.6c0,0,0-0.1,0-0.1v-0.1 c0-0.3,0-0.5,0-0.7c0,0,0-0.1,0-0.1c0,0,0-0.1,0-0.1c-0.1-0.8-0.4-1.3-0.8-1.7c-0.3-0.3-0.6-0.4-1-0.5c-0.6-0.2-1.2-0.1-1.8,0.2 c-0.2,0.1-0.4,0.3-0.6,0.5c0,0,0,0-0.1,0.1c0,0,0,0.1,0.1,0.1c0.1,0.3,0.2,0.5,0.3,0.7h0c0,0,0,0.1,0,0.1c0,0,0,0,0,0 c0,0,0,0.1,0,0.1c0,0,0-0.1,0-0.1c0,0,0,0,0-0.1c0,0,0,0,0,0c0.1-0.4,0.4-0.7,0.8-0.9c0.3-0.2,0.6-0.3,0.9-0.3c0.1,0,0.2,0,0.3,0 c0.3,0,0.6,0.1,0.8,0.3c0.1,0.1,0.2,0.2,0.3,0.2c0.2,0.3,0.4,0.6,0.5,1.2c0,0,0,0.1,0,0.1c0,0,0,0.1,0,0.2c0,0.2,0,0.4,0,0.7 c0,0,0,0.1,0,0.1c0,0,0,0.1,0,0.1c0,0.2,0,0.4-0.1,0.7l-0.1,0.6l0.6,0.1l0.9,0.1l0.5,0.1l0.1-0.5c0-0.2,0.1-0.4,0.1-0.6 c0,0,0,0,0,0C79.9,33.8,79.9,33.8,79.9,33.7z M79.9,33.7c0,0,0-0.1,0-0.1c0,0,0-0.1,0-0.1c-0.1-0.3-0.1-0.5-0.1-0.8L79,32.7 c0,0.2,0,0.5,0,0.7c0,0,0,0.1,0,0.1c0,0,0,0.1,0,0.1c0,0.2,0,0.4-0.1,0.6L78,34.1c0-0.2,0.1-0.4,0.1-0.6c0,0,0-0.1,0-0.1v-0.1 c0-0.3,0-0.5,0-0.7c0,0,0-0.1,0-0.1c0,0,0-0.1,0-0.1c-0.1-0.8-0.4-1.3-0.8-1.7c-0.3-0.3-0.6-0.4-1-0.5c-0.6-0.2-1.2-0.1-1.8,0.2 c-0.2,0.1-0.4,0.3-0.6,0.5c0,0,0,0-0.1,0.1c0,0,0,0.1,0.1,0.1c0.1,0.3,0.2,0.5,0.3,0.7h0c0,0,0,0.1,0,0.1c0,0,0,0,0,0 c0,0,0,0.1,0,0.1c0,0,0-0.1,0-0.1c0,0,0,0,0-0.1c0,0,0,0,0,0c0.1-0.4,0.4-0.7,0.8-0.9c0.3-0.2,0.6-0.3,0.9-0.3c0.1,0,0.2,0,0.3,0 c0.3,0,0.6,0.1,0.8,0.3c0.1,0.1,0.2,0.2,0.3,0.2c0.2,0.3,0.4,0.6,0.5,1.2c0,0,0,0.1,0,0.1c0,0,0,0.1,0,0.2c0,0.2,0,0.4,0,0.7 c0,0,0,0.1,0,0.1c0,0,0,0.1,0,0.1c0,0.2,0,0.4-0.1,0.7l-0.1,0.6l0.6,0.1l0.9,0.1l0.5,0.1l0.1-0.5c0-0.2,0.1-0.4,0.1-0.6 c0,0,0,0,0,0C79.9,33.8,79.9,33.8,79.9,33.7z M79.9,33.7c0,0,0-0.1,0-0.1c0,0,0-0.1,0-0.1c-0.1-0.3-0.1-0.5-0.1-0.8L79,32.7 c0,0.2,0,0.5,0,0.7c0,0,0,0.1,0,0.1c0,0,0,0.1,0,0.1c0,0.2,0,0.4-0.1,0.6L78,34.1c0-0.2,0.1-0.4,0.1-0.6c0,0,0-0.1,0-0.1v-0.1 c0-0.3,0-0.5,0-0.7c0,0,0-0.1,0-0.1c0,0,0-0.1,0-0.1c-0.1-0.8-0.4-1.3-0.8-1.7c-0.3-0.3-0.6-0.4-1-0.5c-0.6-0.2-1.2-0.1-1.8,0.2 c-0.2,0.1-0.4,0.3-0.6,0.5c0,0,0,0-0.1,0.1c0,0,0,0.1,0.1,0.1c0.1,0.3,0.2,0.5,0.3,0.7h0c0,0,0,0.1,0,0.1c0,0,0,0,0,0 c0,0,0,0.1,0,0.1c0,0,0-0.1,0-0.1c0,0,0,0,0-0.1c0,0,0,0,0,0c0.1-0.4,0.4-0.7,0.8-0.9c0.3-0.2,0.6-0.3,0.9-0.3c0.1,0,0.2,0,0.3,0 c0.3,0,0.6,0.1,0.8,0.3c0.1,0.1,0.2,0.2,0.3,0.2c0.2,0.3,0.4,0.6,0.5,1.2c0,0,0,0.1,0,0.1c0,0,0,0.1,0,0.2c0,0.2,0,0.4,0,0.7 c0,0,0,0.1,0,0.1c0,0,0,0.1,0,0.1c0,0.2,0,0.4-0.1,0.7l-0.1,0.6l0.6,0.1l0.9,0.1l0.5,0.1l0.1-0.5c0-0.2,0.1-0.4,0.1-0.6 c0,0,0,0,0,0C79.9,33.8,79.9,33.8,79.9,33.7z M79.9,33.7c0,0,0-0.1,0-0.1c0,0,0-0.1,0-0.1c-0.1-0.3-0.1-0.5-0.1-0.8L79,32.7 c0,0.2,0,0.5,0,0.7c0,0,0,0.1,0,0.1c0,0,0,0.1,0,0.1c0,0.2,0,0.4-0.1,0.6L78,34.1c0-0.2,0.1-0.4,0.1-0.6c0,0,0-0.1,0-0.1v-0.1 c0-0.3,0-0.5,0-0.7c0,0,0-0.1,0-0.1c0,0,0-0.1,0-0.1c-0.1-0.8-0.4-1.3-0.8-1.7c-0.3-0.3-0.6-0.4-1-0.5c-0.6-0.2-1.2-0.1-1.8,0.2 c-0.2,0.1-0.4,0.3-0.6,0.5c0,0,0,0-0.1,0.1c0,0,0,0.1,0.1,0.1c0.1,0.3,0.2,0.5,0.3,0.7h0c0,0,0,0.1,0,0.1c0,0,0,0,0,0 c0,0,0,0.1,0,0.1c0,0,0-0.1,0-0.1c0,0,0,0,0-0.1c0,0,0,0,0,0c0.1-0.4,0.4-0.7,0.8-0.9c0.3-0.2,0.6-0.3,0.9-0.3c0.1,0,0.2,0,0.3,0 c0.3,0,0.6,0.1,0.8,0.3c0.1,0.1,0.2,0.2,0.3,0.2c0.2,0.3,0.4,0.6,0.5,1.2c0,0,0,0.1,0,0.1c0,0,0,0.1,0,0.2c0,0.2,0,0.4,0,0.7 c0,0,0,0.1,0,0.1c0,0,0,0.1,0,0.1c0,0.2,0,0.4-0.1,0.7l-0.1,0.6l0.6,0.1l0.9,0.1l0.5,0.1l0.1-0.5c0-0.2,0.1-0.4,0.1-0.6 c0,0,0,0,0,0C79.9,33.8,79.9,33.8,79.9,33.7z M79.9,33.7c0,0,0-0.1,0-0.1c0,0,0-0.1,0-0.1c-0.1-0.3-0.1-0.5-0.1-0.8L79,32.7 c0,0.2,0,0.5,0,0.7c0,0,0,0.1,0,0.1c0,0,0,0.1,0,0.1c0,0.2,0,0.4-0.1,0.6L78,34.1c0-0.2,0.1-0.4,0.1-0.6c0,0,0-0.1,0-0.1v-0.1 c0-0.3,0-0.5,0-0.7c0,0,0-0.1,0-0.1c0,0,0-0.1,0-0.1c-0.1-0.8-0.4-1.3-0.8-1.7c-0.3-0.3-0.6-0.4-1-0.5c-0.6-0.2-1.2-0.1-1.8,0.2 c-0.2,0.1-0.4,0.3-0.6,0.5c0,0,0,0-0.1,0.1c0,0,0,0.1,0.1,0.1c0.1,0.3,0.2,0.5,0.3,0.7h0c0,0,0,0.1,0,0.1c0,0,0,0,0,0 c0,0,0,0.1,0,0.1c0,0,0-0.1,0-0.1c0,0,0,0,0-0.1c0,0,0,0,0,0c0.1-0.4,0.4-0.7,0.8-0.9c0.3-0.2,0.6-0.3,0.9-0.3c0.1,0,0.2,0,0.3,0 c0.3,0,0.6,0.1,0.8,0.3c0.1,0.1,0.2,0.2,0.3,0.2c0.2,0.3,0.4,0.6,0.5,1.2c0,0,0,0.1,0,0.1c0,0,0,0.1,0,0.2c0,0.2,0,0.4,0,0.7 c0,0,0,0.1,0,0.1c0,0,0,0.1,0,0.1c0,0.2,0,0.4-0.1,0.7l-0.1,0.6l0.6,0.1l0.9,0.1l0.5,0.1l0.1-0.5c0-0.2,0.1-0.4,0.1-0.6 c0,0,0,0,0,0C79.9,33.8,79.9,33.8,79.9,33.7z M80,32.7v-0.1c0-0.7-0.2-1.2-0.4-1.6v0c-0.2-0.4-0.4-0.7-0.6-0.9 c-0.4-0.4-0.8-0.8-1.2-1c-0.5-0.3-1-0.5-1.5-0.5c-0.2,0-0.3,0-0.5,0c-0.2,0-0.4,0-0.6,0c-0.1,0-0.1,0-0.2,0c-0.1,0-0.1,0-0.2,0 c0,0,0,0,0,0c-0.1,0-0.2,0-0.3,0.1c-0.3,0.1-0.7,0.3-1,0.5c0,0-0.1,0.1-0.1,0.1c-0.1,0.1-0.2,0.2-0.3,0.2l0,0 c-0.1,0-0.1,0.1-0.2,0.2v0c0,0-0.1,0.1-0.1,0.1c0,0.1,0.1,0.1,0.1,0.2V30l0.3,0.3c0,0,0,0,0,0c0.1,0.1,0.1,0.2,0.2,0.2 c0.2,0.2,0.2,0.3,0.3,0.4v0c0,0,0.1,0.1,0.1,0.1c0.1,0.2,0.2,0.4,0.3,0.6c0,0,0,0.1,0,0.1l0,0c0,0,0,0.1,0,0.1c0,0,0-0.1,0-0.1 c0,0,0,0,0-0.1c0,0,0,0,0,0c0.1-0.4,0.4-0.7,0.8-0.9c0.3-0.2,0.6-0.3,0.9-0.3c0.1,0,0.2,0,0.3,0c0.3,0,0.6,0.1,0.8,0.3 c0.1,0.1,0.2,0.2,0.3,0.2c0.2,0.3,0.4,0.6,0.5,1.2c0,0,0,0.1,0,0.1c0,0,0,0.1,0,0.2c0,0.2,0,0.4,0,0.7c0,0,0,0.1,0,0.1 c0,0,0,0.1,0,0.1c0,0.2,0,0.4-0.1,0.7l-0.1,0.6l0.6,0.1l0.9,0.1l0.5,0.1l0.1-0.5c0-0.2,0.1-0.4,0.1-0.6c0,0,0,0,0,0 c0,0,0-0.1,0-0.1c0,0,0-0.1,0-0.1c0,0,0-0.1,0-0.1c0-0.2,0-0.5,0-0.7C80,32.8,80,32.7,80,32.7z M78.9,34.2L78,34.1 c0-0.2,0.1-0.4,0.1-0.6c0,0,0-0.1,0-0.1v-0.1c0-0.3,0-0.5,0-0.7c0,0,0-0.1,0-0.1c0,0,0-0.1,0-0.1c-0.1-0.8-0.4-1.3-0.8-1.7 c-0.3-0.3-0.6-0.4-1-0.5c-0.6-0.2-1.2-0.1-1.8,0.2C74.3,30.1,74,30,73.7,30c0,0-0.1,0-0.1,0c0.7-0.7,1.8-1,2.7-0.8 c0.4,0.1,0.9,0.2,1.3,0.5v0c0.8,0.5,1.4,1.4,1.5,2.7c0,0,0,0.1,0,0.1c0,0,0,0.1,0,0.1c0,0.2,0,0.5,0,0.7c0,0,0,0.1,0,0.1 c0,0,0,0.1,0,0.1C79,33.8,78.9,34,78.9,34.2z M79.9,33.7c0,0,0-0.1,0-0.1c0,0,0-0.1,0-0.1c-0.1-0.3-0.1-0.5-0.1-0.8L79,32.7 c0,0.2,0,0.5,0,0.7c0,0,0,0.1,0,0.1c0,0,0,0.1,0,0.1c0,0.2,0,0.4-0.1,0.6L78,34.1c0-0.2,0.1-0.4,0.1-0.6c0,0,0-0.1,0-0.1v-0.1 c0-0.3,0-0.5,0-0.7c0,0,0-0.1,0-0.1c0,0,0-0.1,0-0.1c-0.1-0.8-0.4-1.3-0.8-1.7c-0.3-0.3-0.6-0.4-1-0.5c-0.6-0.2-1.2-0.1-1.8,0.2 c-0.2,0.1-0.4,0.3-0.6,0.5c0,0,0,0-0.1,0.1c0,0,0,0.1,0.1,0.1c0.1,0.3,0.2,0.5,0.3,0.7h0c0,0,0,0.1,0,0.1c0,0,0,0,0,0 c0,0,0,0.1,0,0.1c0,0,0-0.1,0-0.1c0,0,0,0,0-0.1c0,0,0,0,0,0c0.1-0.4,0.4-0.7,0.8-0.9c0.3-0.2,0.6-0.3,0.9-0.3c0.1,0,0.2,0,0.3,0 c0.3,0,0.6,0.1,0.8,0.3c0.1,0.1,0.2,0.2,0.3,0.2c0.2,0.3,0.4,0.6,0.5,1.2c0,0,0,0.1,0,0.1c0,0,0,0.1,0,0.2c0,0.2,0,0.4,0,0.7 c0,0,0,0.1,0,0.1c0,0,0,0.1,0,0.1c0,0.2,0,0.4-0.1,0.7l-0.1,0.6l0.6,0.1l0.9,0.1l0.5,0.1l0.1-0.5c0-0.2,0.1-0.4,0.1-0.6 c0,0,0,0,0,0C79.9,33.8,79.9,33.8,79.9,33.7z M79.9,33.7c0,0,0-0.1,0-0.1c0,0,0-0.1,0-0.1c-0.1-0.3-0.1-0.5-0.1-0.8L79,32.7 c0,0.2,0,0.5,0,0.7c0,0,0,0.1,0,0.1c0,0,0,0.1,0,0.1c0,0.2,0,0.4-0.1,0.6L78,34.1c0-0.2,0.1-0.4,0.1-0.6c0,0,0-0.1,0-0.1v-0.1 c0-0.3,0-0.5,0-0.7c0,0,0-0.1,0-0.1c0,0,0-0.1,0-0.1c-0.1-0.8-0.4-1.3-0.8-1.7c-0.3-0.3-0.6-0.4-1-0.5c-0.6-0.2-1.2-0.1-1.8,0.2 c-0.2,0.1-0.4,0.3-0.6,0.5c0,0,0,0-0.1,0.1c0,0,0,0.1,0.1,0.1c0.1,0.3,0.2,0.5,0.3,0.7h0c0,0,0,0.1,0,0.1c0,0,0,0,0,0 c0,0,0,0.1,0,0.1c0,0,0-0.1,0-0.1c0,0,0,0,0-0.1c0,0,0,0,0,0c0.1-0.4,0.4-0.7,0.8-0.9c0.3-0.2,0.6-0.3,0.9-0.3c0.1,0,0.2,0,0.3,0 c0.3,0,0.6,0.1,0.8,0.3c0.1,0.1,0.2,0.2,0.3,0.2c0.2,0.3,0.4,0.6,0.5,1.2c0,0,0,0.1,0,0.1c0,0,0,0.1,0,0.2c0,0.2,0,0.4,0,0.7 c0,0,0,0.1,0,0.1c0,0,0,0.1,0,0.1c0,0.2,0,0.4-0.1,0.7l-0.1,0.6l0.6,0.1l0.9,0.1l0.5,0.1l0.1-0.5c0-0.2,0.1-0.4,0.1-0.6 c0,0,0,0,0,0C79.9,33.8,79.9,33.8,79.9,33.7z M79.9,33.7c0,0,0-0.1,0-0.1c0,0,0-0.1,0-0.1c-0.1-0.3-0.1-0.5-0.1-0.8L79,32.7 c0,0.2,0,0.5,0,0.7c0,0,0,0.1,0,0.1c0,0,0,0.1,0,0.1c0,0.2,0,0.4-0.1,0.6L78,34.1c0-0.2,0.1-0.4,0.1-0.6c0,0,0-0.1,0-0.1v-0.1 c0-0.3,0-0.5,0-0.7c0,0,0-0.1,0-0.1c0,0,0-0.1,0-0.1c-0.1-0.8-0.4-1.3-0.8-1.7c-0.3-0.3-0.6-0.4-1-0.5c-0.6-0.2-1.2-0.1-1.8,0.2 c-0.2,0.1-0.4,0.3-0.6,0.5c0,0,0,0-0.1,0.1c0,0,0,0.1,0.1,0.1c0.1,0.3,0.2,0.5,0.3,0.7h0c0,0,0,0.1,0,0.1c0,0,0,0,0,0 c0,0,0,0.1,0,0.1c0,0,0-0.1,0-0.1c0,0,0,0,0-0.1c0,0,0,0,0,0c0.1-0.4,0.4-0.7,0.8-0.9c0.3-0.2,0.6-0.3,0.9-0.3c0.1,0,0.2,0,0.3,0 c0.3,0,0.6,0.1,0.8,0.3c0.1,0.1,0.2,0.2,0.3,0.2c0.2,0.3,0.4,0.6,0.5,1.2c0,0,0,0.1,0,0.1c0,0,0,0.1,0,0.2c0,0.2,0,0.4,0,0.7 c0,0,0,0.1,0,0.1c0,0,0,0.1,0,0.1c0,0.2,0,0.4-0.1,0.7l-0.1,0.6l0.6,0.1l0.9,0.1l0.5,0.1l0.1-0.5c0-0.2,0.1-0.4,0.1-0.6 c0,0,0,0,0,0C79.9,33.8,79.9,33.8,79.9,33.7z M79.9,33.7c0,0,0-0.1,0-0.1c0,0,0-0.1,0-0.1c-0.1-0.3-0.1-0.5-0.1-0.8L79,32.7 c0,0.2,0,0.5,0,0.7c0,0,0,0.1,0,0.1c0,0,0,0.1,0,0.1c0,0.2,0,0.4-0.1,0.6L78,34.1c0-0.2,0.1-0.4,0.1-0.6c0,0,0-0.1,0-0.1v-0.1 c0-0.3,0-0.5,0-0.7c0,0,0-0.1,0-0.1c0,0,0-0.1,0-0.1c-0.1-0.8-0.4-1.3-0.8-1.7c-0.3-0.3-0.6-0.4-1-0.5c-0.6-0.2-1.2-0.1-1.8,0.2 c-0.2,0.1-0.4,0.3-0.6,0.5c0,0,0,0-0.1,0.1c0,0,0,0.1,0.1,0.1c0.1,0.3,0.2,0.5,0.3,0.7h0c0,0,0,0.1,0,0.1c0,0,0,0,0,0 c0,0,0,0.1,0,0.1c0,0,0-0.1,0-0.1c0,0,0,0,0-0.1c0,0,0,0,0,0c0.1-0.4,0.4-0.7,0.8-0.9c0.3-0.2,0.6-0.3,0.9-0.3c0.1,0,0.2,0,0.3,0 c0.3,0,0.6,0.1,0.8,0.3c0.1,0.1,0.2,0.2,0.3,0.2c0.2,0.3,0.4,0.6,0.5,1.2c0,0,0,0.1,0,0.1c0,0,0,0.1,0,0.2c0,0.2,0,0.4,0,0.7 c0,0,0,0.1,0,0.1c0,0,0,0.1,0,0.1c0,0.2,0,0.4-0.1,0.7l-0.1,0.6l0.6,0.1l0.9,0.1l0.5,0.1l0.1-0.5c0-0.2,0.1-0.4,0.1-0.6 c0,0,0,0,0,0C79.9,33.8,79.9,33.8,79.9,33.7z M79.9,33.7c0,0,0-0.1,0-0.1c0,0,0-0.1,0-0.1c-0.1-0.3-0.1-0.5-0.1-0.8L79,32.7 c0,0.2,0,0.5,0,0.7c0,0,0,0.1,0,0.1c0,0,0,0.1,0,0.1c0,0.2,0,0.4-0.1,0.6L78,34.1c0-0.2,0.1-0.4,0.1-0.6c0,0,0-0.1,0-0.1v-0.1 c0-0.3,0-0.5,0-0.7c0,0,0-0.1,0-0.1c0,0,0-0.1,0-0.1c-0.1-0.8-0.4-1.3-0.8-1.7c-0.3-0.3-0.6-0.4-1-0.5c-0.6-0.2-1.2-0.1-1.8,0.2 c-0.2,0.1-0.4,0.3-0.6,0.5c0,0,0,0-0.1,0.1c0,0,0,0.1,0.1,0.1c0.1,0.3,0.2,0.5,0.3,0.7h0c0,0,0,0.1,0,0.1c0,0,0,0,0,0 c0,0,0,0.1,0,0.1c0,0,0-0.1,0-0.1c0,0,0,0,0-0.1c0,0,0,0,0,0c0.1-0.4,0.4-0.7,0.8-0.9c0.3-0.2,0.6-0.3,0.9-0.3c0.1,0,0.2,0,0.3,0 c0.3,0,0.6,0.1,0.8,0.3c0.1,0.1,0.2,0.2,0.3,0.2c0.2,0.3,0.4,0.6,0.5,1.2c0,0,0,0.1,0,0.1c0,0,0,0.1,0,0.2c0,0.2,0,0.4,0,0.7 c0,0,0,0.1,0,0.1c0,0,0,0.1,0,0.1c0,0.2,0,0.4-0.1,0.7l-0.1,0.6l0.6,0.1l0.9,0.1l0.5,0.1l0.1-0.5c0-0.2,0.1-0.4,0.1-0.6 c0,0,0,0,0,0C79.9,33.8,79.9,33.8,79.9,33.7z M79.9,33.7c0,0,0-0.1,0-0.1c0,0,0-0.1,0-0.1c-0.1-0.3-0.1-0.5-0.1-0.8L79,32.7 c0,0.2,0,0.5,0,0.7c0,0,0,0.1,0,0.1c0,0,0,0.1,0,0.1c0,0.2,0,0.4-0.1,0.6L78,34.1c0-0.2,0.1-0.4,0.1-0.6c0,0,0-0.1,0-0.1v-0.1 c0-0.3,0-0.5,0-0.7c0,0,0-0.1,0-0.1c0,0,0-0.1,0-0.1c-0.1-0.8-0.4-1.3-0.8-1.7c-0.3-0.3-0.6-0.4-1-0.5c-0.6-0.2-1.2-0.1-1.8,0.2 c-0.2,0.1-0.4,0.3-0.6,0.5c0,0,0,0-0.1,0.1c0,0,0,0.1,0.1,0.1c0.1,0.3,0.2,0.5,0.3,0.7h0c0,0,0,0.1,0,0.1c0,0,0,0,0,0 c0,0,0,0.1,0,0.1c0,0,0-0.1,0-0.1c0,0,0,0,0-0.1c0,0,0,0,0,0c0.1-0.4,0.4-0.7,0.8-0.9c0.3-0.2,0.6-0.3,0.9-0.3c0.1,0,0.2,0,0.3,0 c0.3,0,0.6,0.1,0.8,0.3c0.1,0.1,0.2,0.2,0.3,0.2c0.2,0.3,0.4,0.6,0.5,1.2c0,0,0,0.1,0,0.1c0,0,0,0.1,0,0.2c0,0.2,0,0.4,0,0.7 c0,0,0,0.1,0,0.1c0,0,0,0.1,0,0.1c0,0.2,0,0.4-0.1,0.7l-0.1,0.6l0.6,0.1l0.9,0.1l0.5,0.1l0.1-0.5c0-0.2,0.1-0.4,0.1-0.6 c0,0,0,0,0,0C79.9,33.8,79.9,33.8,79.9,33.7z M79.9,33.7c0,0,0-0.1,0-0.1c0,0,0-0.1,0-0.1c-0.1-0.3-0.1-0.5-0.1-0.8L79,32.7 c0,0.2,0,0.5,0,0.7c0,0,0,0.1,0,0.1c0,0,0,0.1,0,0.1c0,0.2,0,0.4-0.1,0.6L78,34.1c0-0.2,0.1-0.4,0.1-0.6c0,0,0-0.1,0-0.1v-0.1 c0-0.3,0-0.5,0-0.7c0,0,0-0.1,0-0.1c0,0,0-0.1,0-0.1c-0.1-0.8-0.4-1.3-0.8-1.7c-0.3-0.3-0.6-0.4-1-0.5c-0.6-0.2-1.2-0.1-1.8,0.2 c-0.2,0.1-0.4,0.3-0.6,0.5c0,0,0,0-0.1,0.1c0,0,0,0.1,0.1,0.1c0.1,0.3,0.2,0.5,0.3,0.7c0,0,0,0.1,0,0.1l0,0c0,0,0,0.1,0,0.1 c0,0,0-0.1,0-0.1c0,0,0,0,0-0.1c0,0,0,0,0,0c0.1-0.4,0.4-0.7,0.8-0.9c0.3-0.2,0.6-0.3,0.9-0.3c0.1,0,0.2,0,0.3,0 c0.3,0,0.6,0.1,0.8,0.3c0.1,0.1,0.2,0.2,0.3,0.2c0.2,0.3,0.4,0.6,0.5,1.2c0,0,0,0.1,0,0.1c0,0,0,0.1,0,0.2c0,0.2,0,0.4,0,0.7 c0,0,0,0.1,0,0.1c0,0,0,0.1,0,0.1c0,0.2,0,0.4-0.1,0.7l-0.1,0.6l0.6,0.1l0.9,0.1l0.5,0.1l0.1-0.5c0-0.2,0.1-0.4,0.1-0.6 c0,0,0,0,0,0C79.9,33.8,79.9,33.8,79.9,33.7z M79.9,33.7c0,0,0-0.1,0-0.1c0,0,0-0.1,0-0.1c-0.1-0.3-0.1-0.5-0.1-0.8L79,32.7 c0,0.2,0,0.5,0,0.7c0,0,0,0.1,0,0.1c0,0,0,0.1,0,0.1c0,0.2,0,0.4-0.1,0.6L78,34.1c0-0.2,0.1-0.4,0.1-0.6c0,0,0-0.1,0-0.1v-0.1 c0-0.3,0-0.5,0-0.7c0,0,0-0.1,0-0.1c0,0,0-0.1,0-0.1c-0.1-0.8-0.4-1.3-0.8-1.7c-0.3-0.3-0.6-0.4-1-0.5c-0.6-0.2-1.2-0.1-1.8,0.2 c-0.2,0.1-0.4,0.3-0.6,0.5c0,0,0,0-0.1,0.1c0,0,0,0,0,0v0c0,0,0.1,0.1,0.1,0.1c0.1,0.2,0.2,0.4,0.3,0.6c0,0,0,0.1,0,0.1l0,0 c0,0,0,0.1,0,0.1c0,0,0-0.1,0-0.1c0,0,0,0,0-0.1c0,0,0,0,0,0c0.1-0.4,0.4-0.7,0.8-0.9c0.3-0.2,0.6-0.3,0.9-0.3c0.1,0,0.2,0,0.3,0 c0.3,0,0.6,0.1,0.8,0.3c0.1,0.1,0.2,0.2,0.3,0.2c0.2,0.3,0.4,0.6,0.5,1.2c0,0,0,0.1,0,0.1c0,0,0,0.1,0,0.2c0,0.2,0,0.4,0,0.7 c0,0,0,0.1,0,0.1c0,0,0,0.1,0,0.1c0,0.2,0,0.4-0.1,0.7l-0.1,0.6l0.6,0.1l0.9,0.1l0.5,0.1l0.1-0.5c0-0.2,0.1-0.4,0.1-0.6 c0,0,0,0,0,0C79.9,33.8,79.9,33.8,79.9,33.7z M79.9,33.7c0,0,0-0.1,0-0.1c0,0,0-0.1,0-0.1c-0.1-0.3-0.1-0.5-0.1-0.8L79,32.7 c0,0.2,0,0.5,0,0.7c0,0,0,0.1,0,0.1c0,0,0,0.1,0,0.1c0,0.2,0,0.4-0.1,0.6L78,34.1c0-0.2,0.1-0.4,0.1-0.6c0,0,0-0.1,0-0.1v-0.1 c0-0.3,0-0.5,0-0.7c0,0,0-0.1,0-0.1c0,0,0-0.1,0-0.1c-0.1-0.8-0.4-1.3-0.8-1.7c-0.3-0.3-0.6-0.4-1-0.5c-0.6-0.2-1.2-0.1-1.8,0.2 c-0.2,0.1-0.4,0.3-0.6,0.5c0,0,0,0-0.1,0.1c0,0,0,0,0,0v0c0,0,0.1,0.1,0.1,0.1c0.1,0.2,0.2,0.4,0.3,0.6c0,0,0,0.1,0,0.1l0,0 c0,0,0,0.1,0,0.1c0,0,0-0.1,0-0.1c0,0,0,0,0-0.1c0,0,0,0,0,0c0.1-0.4,0.4-0.7,0.8-0.9c0.3-0.2,0.6-0.3,0.9-0.3c0.1,0,0.2,0,0.3,0 c0.3,0,0.6,0.1,0.8,0.3c0.1,0.1,0.2,0.2,0.3,0.2c0.2,0.3,0.4,0.6,0.5,1.2c0,0,0,0.1,0,0.1c0,0,0,0.1,0,0.2c0,0.2,0,0.4,0,0.7 c0,0,0,0.1,0,0.1c0,0,0,0.1,0,0.1c0,0.2,0,0.4-0.1,0.7l-0.1,0.6l0.6,0.1l0.9,0.1l0.5,0.1l0.1-0.5c0-0.2,0.1-0.4,0.1-0.6 c0,0,0,0,0,0C79.9,33.8,79.9,33.8,79.9,33.7z M79.9,33.7L79,33.6c0,0.2,0,0.4-0.1,0.6L78,34.1c0-0.2,0.1-0.4,0.1-0.6 c0,0,0-0.1,0-0.1v-0.1c0-0.3,0-0.5,0-0.7c0,0,0-0.1,0-0.1c0,0,0-0.1,0-0.1c-0.1-0.8-0.4-1.3-0.8-1.7c0,0.1-0.1,0.2-0.1,0.3 c0.1,0.1,0.2,0.2,0.3,0.2c0.2,0.3,0.4,0.6,0.5,1.2c0,0,0,0.1,0,0.1c0,0,0,0.1,0,0.2c0,0.2,0,0.4,0,0.7c0,0,0,0.1,0,0.1 c0,0,0,0.1,0,0.1c0,0.2,0,0.4-0.1,0.7l-0.1,0.6l0.6,0.1l0.9,0.1l0.5,0.1l0.1-0.5c0-0.2,0.1-0.4,0.1-0.6c0,0,0,0,0,0 C79.9,33.8,79.9,33.8,79.9,33.7z M77.2,30.6c0,0.1-0.1,0.2-0.1,0.3c0.1,0.1,0.2,0.2,0.3,0.2c0.2,0.3,0.4,0.6,0.5,1.2l0.2,0 C78,31.5,77.7,30.9,77.2,30.6z"></path> <path class="st1" d="M73.4,32C73.4,32,73.4,32.1,73.4,32l-0.8,0c0-0.1,0-0.1,0-0.2L73.4,32z"></path> <path class="st1" d="M74.5,30.3c-0.2,0.1-0.4,0.3-0.6,0.5c0,0,0,0-0.1,0.1c0,0,0,0,0,0c-0.1-0.2-0.2-0.3-0.3-0.4 c-0.1,0-0.1-0.1-0.2-0.2c0,0,0,0,0,0c0,0,0,0,0-0.1c0,0,0,0,0,0c0-0.1,0.1-0.1,0.2-0.2c0,0,0.1,0,0.1,0C74,30,74.3,30.1,74.5,30.3z "></path> <path class="st0" d="M72,26.6c0,0-0.7-0.3-0.8,0.3c0,0,0.1,0.4,0.7,0C71.9,26.9,72.4,26.8,72,26.6z M72,26.6c0,0-0.7-0.3-0.8,0.3 c0,0,0.1,0.4,0.7,0C71.9,26.9,72.4,26.8,72,26.6z M72,26.6c0,0-0.7-0.3-0.8,0.3c0,0,0.1,0.4,0.7,0C71.9,26.9,72.4,26.8,72,26.6z M72,26.6c0,0-0.7-0.3-0.8,0.3c0,0,0.1,0.4,0.7,0C71.9,26.9,72.4,26.8,72,26.6z M72,26.6c0,0-0.7-0.3-0.8,0.3c0,0,0.1,0.4,0.7,0 C71.9,26.9,72.4,26.8,72,26.6z M72,26.6c0,0-0.7-0.3-0.8,0.3c0,0,0.1,0.4,0.7,0C71.9,26.9,72.4,26.8,72,26.6z M72,26.6 c0,0-0.7-0.3-0.8,0.3c0,0,0.1,0.4,0.7,0C71.9,26.9,72.4,26.8,72,26.6z M76.5,33.1C76.5,33.1,76.5,33.1,76.5,33.1 c-0.1-0.1-0.2-0.1-0.2,0c0,0-0.1,0-0.1,0c-0.1,0-0.2,0-0.2-0.1c0,0-0.1-0.1-0.1-0.1c-0.1-0.1-0.2-0.3-0.2-0.4c0-0.1,0-0.2-0.1-0.3 c0,0,0-0.1,0-0.2c0,0,0-0.1,0-0.1c-0.1-0.2-0.1-0.5-0.2-0.7c-0.1-0.2-0.1-0.3-0.2-0.4c-0.1-0.2-0.3-0.4-0.5-0.5 C74.3,30.1,74,30,73.7,30c0,0-0.1,0-0.1,0s-0.1,0-0.2-0.1c-0.1,0-0.1-0.1-0.2-0.2c0,0-0.1-0.1-0.1-0.1c0,0,0-0.1,0-0.1l0,0 c0,0,0,0,0,0c0-0.2,0.1-0.2,0.2-0.2c0,0,0,0,0.1,0c0.5-0.1,1-0.3,1.4-0.6c0,0,0,0,0,0c0.1,0,0.1-0.1,0.2-0.1 c0.1-0.1,0.3-0.3,0.4-0.5c0,0,0-0.1,0-0.1c0.1-0.1,0.1-0.3,0.2-0.5c0-0.2,0-0.4,0-0.5c0-0.1,0-0.2-0.1-0.3s-0.3,0.1-0.4,0.2 c-0.2,0.3-0.6,0.5-0.9,0.4c-0.4-0.1-0.4-0.6-0.5-1c-0.1-0.8-0.8-1.4-1.5-1.8c-0.7-0.4-1.6-0.4-2.4-0.2c-0.7,0.2-1.2,0.6-1.6,1.1 c-0.2,0.3-0.4,0.6-0.5,0.9c-0.3,1.1,0,2.3,0.7,3.2c0.2,0.3,0.5,0.5,0.7,0.8l0.2,0.3c0,0.2-0.1,0.1-0.3,0.2c-0.5,0-1,0.1-1.4,0.5 c-0.2,0.2-0.4,0.5-0.6,0.8c-0.2,0.4-0.4,0.9-0.5,1.3c-0.1,0.5,0,1.1-0.6,1.4c-0.1,0.1-0.3,0.1-0.4,0.1c-0.1,0.1-0.2,0.2-0.2,0.3 s0.1,0.2,0.2,0.2c0.5,0.3,1.2,0.4,1.8,0.2c0.4-0.1,0.8-0.4,1.1-0.7v0c0,0,0.1-0.1,0.1-0.1c0,0,0,0,0,0c0.1-0.1,0.2-0.2,0.2-0.3 c0.3-0.6,0.3-1.2,0.5-1.9c0.1-0.3,0.2-0.6,0.4-0.7c0.2-0.1,0.4-0.1,0.5-0.1c0.4,0,0.8,0.1,1.1,0.1c0.3,0,0.5,0,0.8,0 c0.1,0,0.2,0,0.3,0h0.1l-0.1,0h0L72,31.6l-0.7-0.2c0,0,0,0,0,0l0.2,0c0,0,0-0.1,0-0.1c0.1-0.3,0.1-0.7,0-1 c-0.1-0.3-0.2-0.5-0.4-0.7c0-0.1-0.1-0.1-0.1-0.2c-0.1-0.1-0.1-0.1-0.2-0.2c-0.7-0.9-1.6-2.1-0.8-3c0.2-0.2,0.3-0.4,0.6-0.5 s0.5-0.2,0.8-0.2c0.1,0,0.1,0,0.2,0c0.2,0,0.3,0.1,0.5,0.1h0c0,0,0,0,0,0c0,0,0,0,0.1,0c0.4,0.2,0.8,0.4,1,0.7 c0,0.1,0.1,0.2,0.2,0.3c0.2,0.3,0.4,0.6,0.7,0.7c0,0,0.1,0,0.1,0c0.1,0,0.2,0,0.3,0c0,0,0,0,0,0c0.1,0,0.2-0.1,0.3-0.1 c0.1,0,0.1-0.1,0.2-0.1c0,0,0,0,0,0l0,0c0,0,0.1,0,0.1-0.1c0,0,0.1-0.1,0.1-0.1c0,0,0,0,0,0c0,0,0,0,0,0c0,0,0.1,0,0.1,0v0.3 c0,0,0,0.8-0.8,1.4c-0.3,0.1-0.7,0.3-1,0.5c-0.1,0-0.3,0-0.3,0c-0.2,0-0.3,0.1-0.4,0.3c-0.1,0.1-0.1,0.2,0,0.3 c0,0.1,0.1,0.1,0.1,0.2V30l0.3,0.3c0,0,0,0,0,0c0.1,0.1,0.1,0.2,0.2,0.2c0.2,0.2,0.2,0.3,0.3,0.4v0c0,0,0.1,0.1,0.1,0.1 c0.1,0.2,0.2,0.4,0.3,0.6c0,0,0,0.1,0,0.1l0,0c0,0,0,0.1,0,0.1v0c0,0,0,0,0,0l-0.2,0c0,0,0,0.1,0,0.1c0,0.1,0,0.1,0.1,0.2v0 c0,0,0,0.1,0,0.1c0,0,0,0.1,0,0.1c0,0.1,0,0.2,0,0.2c0,0,0,0.1,0,0.1c0,0,0,0.1,0,0.1c0,0.2,0.1,0.5,0.2,0.6c0,0.1,0.1,0.1,0.1,0.2 c0.2,0.2,0.6,0.3,0.9,0.2c0.3-0.1,0.6-0.2,0.9-0.4C76.4,33.4,76.5,33.3,76.5,33.1L76.5,33.1C76.5,33.2,76.5,33.2,76.5,33.1z M72,26.6c0,0-0.7-0.3-0.8,0.3c0,0,0.1,0.4,0.7,0C71.9,26.9,72.4,26.8,72,26.6z M72,26.6c0,0-0.7-0.3-0.8,0.3c0,0,0.1,0.4,0.7,0 C71.9,26.9,72.4,26.8,72,26.6z M72,26.6c0,0-0.7-0.3-0.8,0.3c0,0,0.1,0.4,0.7,0C71.9,26.9,72.4,26.8,72,26.6z M72,26.6 c0,0-0.7-0.3-0.8,0.3c0,0,0.1,0.4,0.7,0C71.9,26.9,72.4,26.8,72,26.6z M72,26.6c0,0-0.7-0.3-0.8,0.3c0,0,0.1,0.4,0.7,0 C71.9,26.9,72.4,26.8,72,26.6z M72,26.6c0,0-0.7-0.3-0.8,0.3c0,0,0.1,0.4,0.7,0C71.9,26.9,72.4,26.8,72,26.6z M72,26.6 c0,0-0.7-0.3-0.8,0.3c0,0,0.1,0.4,0.7,0C71.9,26.9,72.4,26.8,72,26.6z M71.6,25.6c0.2,0,0.3,0.1,0.5,0.1 C72,25.6,71.8,25.6,71.6,25.6z M72,26.6c0,0-0.7-0.3-0.8,0.3c0,0,0.1,0.4,0.7,0C71.9,26.9,72.4,26.8,72,26.6z M73.9,31 C73.9,31,73.9,30.9,73.9,31C73.8,30.9,73.8,30.9,73.9,31L73.9,31C73.8,31,73.9,31,73.9,31c0.1,0.3,0.2,0.5,0.3,0.7 C74.1,31.5,74,31.3,73.9,31z M74.3,32C74.3,32,74.3,32,74.3,32C74.3,32,74.3,32,74.3,32C74.2,31.9,74.2,32,74.3,32l-0.2,0 c0,0,0,0.1,0,0.1L74.3,32L74.3,32C74.3,32.1,74.3,32,74.3,32z M72,26.6c0,0-0.7-0.3-0.8,0.3c0,0,0.1,0.4,0.7,0 C71.9,26.9,72.4,26.8,72,26.6z"></path> <path class="st1" d="M71.9,26.9c-0.6,0.4-0.7,0-0.7,0c0.1-0.6,0.8-0.3,0.8-0.3C72.4,26.8,71.9,26.9,71.9,26.9z"></path> <path class="st1" d="M74.1,27.5c-0.3-0.1-0.5-0.4-0.7-0.7c-0.1-0.1-0.2-0.2-0.2-0.3c-0.2-0.3-0.6-0.5-1-0.7c0,0,0,0-0.1,0 c0,0,0.1,0,0.2,0c0.3,0.1,0.8,0.3,1,0.7c0,0.1,0.1,0.2,0.2,0.3c0.1,0.2,0.2,0.3,0.3,0.5C73.9,27.4,74,27.5,74.1,27.5z"></path> <path class="st1" d="M71.5,31.3C71.5,31.3,71.5,31.4,71.5,31.3l-0.2,0.1c0,0,0-0.1,0-0.1c0.1-0.3,0.2-0.6,0.1-1 c-0.1-0.2-0.2-0.4-0.4-0.6c0-0.1-0.1-0.1-0.1-0.2s-0.1-0.1-0.2-0.2c-0.7-0.9-1.6-2.2-0.8-3.1c0.2-0.2,0.4-0.4,0.7-0.5 c-0.2,0.1-0.4,0.2-0.6,0.5c-0.8,0.9,0.1,2.1,0.8,3c0.1,0.1,0.1,0.1,0.2,0.2c0,0.1,0.1,0.1,0.1,0.2c0.2,0.2,0.3,0.4,0.4,0.7 C71.7,30.7,71.6,31,71.5,31.3z"></path> <path class="st1" d="M72.6,31.7C72.6,31.7,72.6,31.7,72.6,31.7C72.6,31.8,72.6,31.8,72.6,31.7l-0.3,0l0,0l0.1,0c0,0,0,0,0,0H72.6z"></path> <path class="st1" d="M74.3,32.3l-0.1,0l0,0v0c0-0.1,0-0.1-0.1-0.2c0,0,0-0.1,0-0.1l0.2,0c0,0,0,0,0,0c0,0,0,0,0,0h0c0,0,0,0,0,0 c0,0,0,0.1,0,0.1C74.3,32.2,74.3,32.2,74.3,32.3z"></path> <path class="st1" d="M75,27.2c-0.1,0.1-0.1,0.1-0.2,0.1C74.8,27.3,74.9,27.3,75,27.2z"></path> <path class="st1" d="M75.2,27c0,0-0.1,0.1-0.1,0.1C75.2,27.1,75.2,27,75.2,27C75.2,27,75.2,27,75.2,27z"></path> <path class="st1" d="M75.5,27.4c0,0,0,0.2-0.1,0.4c0,0,0,0.1,0,0.1c-0.1,0.2-0.2,0.4-0.3,0.6c-0.3,0.3-0.7,0.7-1.4,0.9h-0.3 c0,0-0.1,0-0.1,0l0,0c-0.1,0-0.2,0.1-0.2,0.2v0.3c0-0.1-0.1-0.1-0.1-0.2c-0.1-0.1-0.1-0.2,0-0.3c0.1-0.2,0.2-0.3,0.4-0.3 c0,0,0.2,0,0.3,0c0.3-0.2,0.6-0.4,1-0.5c0.8-0.6,0.8-1.4,0.8-1.4v-0.3l0,0C75.4,27,75.5,27.1,75.5,27.4z"></path> <path class="st0" d="M75.3,26.9C75.3,26.9,75.3,26.9,75.3,26.9C75.3,26.9,75.3,26.9,75.3,26.9c0,0,0.1,0,0.1,0c0-0.1,0-0.1,0-0.1 L75.3,26.9z M75.1,27c-0.1,0.2-0.4,0.4-0.6,0.5c0,0,0,0,0,0c0.1,0,0.2-0.1,0.3-0.1c0.1,0,0.1-0.1,0.2-0.1c0,0,0,0,0,0l0,0 C75.1,27.2,75.1,27.1,75.1,27c0.1,0.1,0.1,0,0.2,0c0,0,0,0,0,0c0,0,0,0,0,0C75.2,27,75.1,27,75.1,27z M75.6,27.3 c0-0.3-0.1-0.4-0.2-0.4l0,0v0.3c0,0,0,0.8-0.8,1.4c-0.2,0.2-0.6,0.4-1,0.5c0,0,0,0,0,0c-0.1,0-0.3,0-0.3,0c-0.2,0-0.3,0.1-0.4,0.3 c-0.1,0.1-0.1,0.2,0,0.3c0,0.1,0.1,0.1,0.1,0.2c0.1,0.1,0.2,0.2,0.3,0.3c0,0,0,0,0,0c0.1,0.1,0.1,0.1,0.2,0.2 c0.2,0.2,0.3,0.3,0.3,0.5c0,0,0,0.1,0.1,0.1c0.1,0.3,0.2,0.5,0.3,0.7h0c0,0,0,0.1,0,0.1c0,0,0,0,0,0c0,0,0,0.1,0,0.1v0c0,0,0,0,0,0 c0,0,0,0,0,0c0,0,0,0.1,0,0.1l0,0l-0.1,0l-0.1,0c0,0.1,0,0.1,0.1,0.2L73.4,32l-0.8-0.2c0,0,0,0,0,0c0,0,0,0,0,0h-0.2c0,0,0,0,0,0 l-0.1,0h0L72,31.6l-0.7-0.2c0,0,0,0,0,0l0.2,0c0,0,0-0.1,0-0.1c0.1-0.3,0.1-0.7,0-1c-0.1-0.3-0.2-0.5-0.4-0.7 c0-0.1-0.1-0.1-0.1-0.2c-0.1-0.1-0.1-0.1-0.2-0.2c-0.7-0.9-1.6-2.1-0.8-3c0.2-0.2,0.3-0.4,0.6-0.5s0.5-0.2,0.8-0.2 c0.1,0,0.1,0,0.2,0c0.2,0,0.4,0,0.5,0.1h0c0,0,0,0,0,0c0,0,0,0,0.1,0c0.4,0.2,0.8,0.4,1,0.7c0,0.1,0.1,0.2,0.2,0.3 c0.2,0.3,0.4,0.6,0.7,0.7l-0.3-0.2c-0.2-0.2-0.3-0.5-0.4-0.7c-0.3-0.3,0-0.6-1-1c-0.3-0.4-0.7-0.2-1-0.2c-0.6,0-1.1,0.2-1.5,0.7 c-1,1.1,0.3,2.6,0.9,3.5c0.2,0.2,0.4,0.5,0.5,0.8c0.1,0.3,0,0.6,0,0.9c0,0,0,0.1,0,0.1c0,0.1,0,0.1,0,0.2c0,0,0,0,0,0.1l0,0.1 l0.2,0.2L72,32l2.2,0.4l0,0l0.2,0c0-0.2,0-0.3-0.1-0.5c0-0.1,0-0.1,0-0.2c0,0,0,0,0-0.1c0,0,0,0,0,0c-0.1-0.3-0.2-0.5-0.3-0.7 c0-0.1-0.1-0.1-0.1-0.2c-0.1-0.1-0.2-0.3-0.3-0.4c-0.1-0.1-0.2-0.2-0.2-0.2c-0.1-0.1-0.2-0.2-0.3-0.3c-0.1-0.1,0-0.2,0-0.3 c0,0,0.1-0.1,0.2-0.1h0.3c0.9-0.3,1.4-0.7,1.6-1c0.4-0.5,0.4-1,0.4-1C75.6,27.4,75.6,27.4,75.6,27.3z"></path> <path class="st0" d="M71.9,26.9c-0.6,0.4-0.7,0-0.7,0c0.1-0.6,0.8-0.3,0.8-0.3C72.4,26.8,71.9,26.9,71.9,26.9z"></path> <path class="st0" d="M42.2,56.9l1.2-0.5c0.1,0.4,0.3,0.7,0.6,0.9s0.7,0.3,1.1,0.3c0.4,0,0.8-0.1,1-0.4c0.3-0.2,0.4-0.6,0.4-1 c0-0.5-0.4-1-1.3-1.4c-0.1-0.1-0.2-0.1-0.3-0.1c-1-0.5-1.7-0.9-2-1.3c-0.3-0.4-0.5-0.9-0.5-1.5c0-0.7,0.3-1.3,0.8-1.8 s1.2-0.7,2-0.7c0.7,0,1.2,0.1,1.7,0.4c0.5,0.3,0.8,0.6,0.9,1.1l-1.2,0.6c-0.2-0.3-0.4-0.5-0.6-0.6s-0.5-0.2-0.8-0.2 c-0.4,0-0.7,0.1-1,0.3c-0.2,0.2-0.3,0.5-0.3,0.8c0,0.5,0.5,1.1,1.5,1.5c0.1,0,0.1,0.1,0.2,0.1c0.9,0.4,1.5,0.8,1.9,1.2 c0.3,0.4,0.5,0.9,0.5,1.5c0,0.9-0.3,1.6-0.8,2.1C46.7,58.7,46,59,45.1,59c-0.8,0-1.4-0.2-1.9-0.5C42.6,58,42.3,57.5,42.2,56.9 L42.2,56.9z"></path> <path class="st0" d="M57.1,54.2c0-0.1,0-0.3-0.1-0.6c0-0.3-0.1-0.5-0.1-0.7c0,0.2-0.1,0.4-0.2,0.6c-0.1,0.2-0.2,0.4-0.3,0.6L54,59 l-2.4-5c-0.1-0.2-0.2-0.4-0.3-0.6c-0.1-0.2-0.1-0.4-0.2-0.6c0,0.2,0,0.4,0,0.6c0,0.2-0.1,0.4-0.1,0.7l-1,4.5h-1.4l2.2-9.5l2.7,5.8 c0,0.1,0.1,0.2,0.2,0.5s0.2,0.5,0.3,0.8c0.1-0.3,0.2-0.6,0.4-1c0-0.1,0.1-0.2,0.1-0.2l2.6-5.8l2.2,9.5h-1.4L57.1,54.2z"></path> <path class="st0" d="M64.6,49.2l-4.4,9.5h1.6l1.1-2.3h3.6l1,2.3H69L64.6,49.2z M63.4,55.1l0.8-2.1c0.1-0.2,0.1-0.3,0.2-0.5 c0.1-0.2,0.2-0.4,0.2-0.6c0.1,0.2,0.1,0.4,0.2,0.6c0.1,0.2,0.1,0.4,0.2,0.5l0.9,2.1H63.4z"></path> <path class="st0" d="M73.4,54.5c0.7,0,1.3-0.3,1.6-0.7c0.3-0.4,0.5-1,0.5-1.7c0-0.4,0-0.8-0.2-1.1c-0.2-0.4-0.4-0.7-0.7-0.9 c-0.3-0.2-0.6-0.3-0.9-0.4c-0.3-0.1-0.8-0.1-1.4-0.1h-2.1v9.1h1.4v-4.1h0.2l3,4.1h1.7L73.4,54.5z M71.7,53.5l0.1-2.7h0.3 c0.7,0,1.2,0.1,1.5,0.3c0.3,0.2,0.4,0.6,0.4,1.1s-0.1,0.8-0.4,1c-0.3,0.2-0.8,0.3-1.6,0.3H71.7z"></path> <polygon class="st0" points="80.5,50.8 80.5,58.7 79,58.7 79,50.8 76.6,50.8 76.6,49.6 82.9,49.6 82.9,50.8 "></polygon> <path class="st0" d="M91.2,51.8c-0.4-0.4-0.9-0.6-1.3-0.8c-0.5-0.2-1-0.3-1.5-0.3c-1,0-1.8,0.3-2.4,1c-0.6,0.6-0.9,1.5-0.9,2.5 s0.3,1.8,0.9,2.4c0.6,0.6,1.4,1,2.3,1c0.5,0,1.1-0.1,1.5-0.3c0.5-0.2,1-0.5,1.4-0.9v1.7c-0.4,0.3-0.8,0.5-1.3,0.6s-1,0.2-1.5,0.2 c-0.7,0-1.3-0.1-1.9-0.3s-1.1-0.6-1.6-1c-0.4-0.4-0.8-1-1-1.5c-0.2-0.6-0.4-1.2-0.4-1.9s0.1-1.3,0.4-1.9c0.2-0.6,0.6-1.1,1-1.5 c0.5-0.5,1-0.8,1.6-1s1.2-0.3,1.9-0.3c0.5,0,1,0.1,1.5,0.2s1,0.4,1.4,0.7L91.2,51.8z"></path> <polygon class="st0" points="93.2,58.7 93.2,49.6 98.3,49.6 98.3,50.8 94.7,50.8 94.7,53.1 98.3,53.1 98.3,54.4 94.7,54.4 94.7,57.4 98.3,57.4 98.3,58.7 "></polygon> <path class="st0" d="M100.4,58.7v-9.5l5.8,5.6c0.2,0.2,0.3,0.3,0.5,0.5s0.3,0.4,0.5,0.6v-6.3h1.4v9.5l-5.9-5.7 c-0.2-0.2-0.3-0.3-0.5-0.5s-0.3-0.3-0.4-0.5v6.3C101.8,58.7,100.4,58.7,100.4,58.7z"></path> <polygon class="st0" points="113.8,50.8 113.8,58.7 112.3,58.7 112.3,50.8 109.8,50.8 109.8,49.6 116.2,49.6 116.2,50.8 "></polygon> <path class="st0" d="M120.7,54.5c0.7,0,1.3-0.3,1.6-0.7c0.3-0.4,0.5-1,0.5-1.7c0-0.4,0-0.8-0.2-1.1c-0.2-0.4-0.4-0.7-0.7-0.9 c-0.3-0.2-0.6-0.3-0.9-0.4c-0.3-0.1-0.8-0.1-1.4-0.1h-2.1v9.1h1.4v-4.1h0.2l3,4.1h1.7L120.7,54.5z M119,53.5v-2.7h0.4 c0.7,0,1.2,0.1,1.5,0.3c0.3,0.2,0.4,0.6,0.4,1.1s-0.1,0.8-0.4,1c-0.3,0.2-0.8,0.3-1.6,0.3H119z"></path> <polygon class="st0" points="124.9,58.7 124.9,49.6 130,49.6 130,50.8 126.4,50.8 126.4,53.1 130,53.1 130,54.4 126.4,54.4 126.4,57.4 130,57.4 130,58.7 "></polygon> <path class="st0" d="M131.4,56.9l1.2-0.5c0.1,0.4,0.3,0.7,0.6,0.9s0.7,0.3,1.1,0.3c0.4,0,0.8-0.1,1-0.4c0.3-0.2,0.4-0.6,0.4-1 c0-0.5-0.4-1-1.3-1.4c-0.1-0.1-0.2-0.1-0.3-0.1c-1-0.5-1.7-0.9-2-1.3c-0.3-0.4-0.5-0.9-0.5-1.5c0-0.7,0.3-1.3,0.8-1.8 s1.2-0.7,2-0.7c0.7,0,1.2,0.1,1.7,0.4c0.5,0.3,0.8,0.6,0.9,1.1l-1.2,0.6c-0.2-0.3-0.4-0.5-0.6-0.6s-0.5-0.2-0.8-0.2 c-0.4,0-0.7,0.1-1,0.3c-0.2,0.2-0.3,0.5-0.3,0.8c0,0.5,0.5,1.1,1.5,1.5c0.1,0,0.1,0.1,0.2,0.1c0.9,0.4,1.5,0.8,1.9,1.2 c0.3,0.4,0.5,0.9,0.5,1.5c0,0.9-0.3,1.6-0.8,2.1s-1.3,0.8-2.2,0.8c-0.8,0-1.4-0.2-1.9-0.5C131.9,58,131.6,57.5,131.4,56.9 L131.4,56.9z"></path> <g> <g> <path class="st0" d="M140.2,49.5c-0.8,0-1.5,0.7-1.5,1.5s0.7,1.5,1.5,1.5s1.5-0.7,1.5-1.5S141,49.5,140.2,49.5z M140.2,52.2 c-0.6,0-1.2-0.6-1.2-1.2s0.5-1.2,1.2-1.2s1.2,0.6,1.2,1.2S140.9,52.2,140.2,52.2z"></path> </g> <g> <path class="st0" d="M140.3,51.1c0.2-0.1,0.3-0.2,0.3-0.4c0-0.1,0-0.2-0.1-0.3c-0.1-0.1-0.2-0.1-0.4-0.1h-0.5v1.5h0.2v-0.6h0.2 c0.2,0,0.3,0.1,0.3,0.3c0,0.1,0.1,0.3,0.1,0.3h0.2c0-0.1-0.1-0.2-0.1-0.4C140.5,51.2,140.4,51.1,140.3,51.1z M140.1,51h-0.2v-0.6 c0,0,0.1,0,0.2,0c0.2,0,0.3,0.1,0.3,0.3S140.3,51,140.1,51z"></path> </g> </g> </g> </svg> 