<?xml version="1.0" encoding="UTF-8"?> <svg xmlns="http://www.w3.org/2000/svg" xmlns:xlink="http://www.w3.org/1999/xlink" version="1.1" id="Layer_1" x="0px" y="0px" viewBox="0 0 180 60" style="enable-background:new 0 0 180 60;" xml:space="preserve"> <style type="text/css"> .st0{fill:#FFFFFF;} </style> <path d="M92.4,1.1c0,0-3.9-0.6-5.5,3.1c-0.8,2-0.6,4.2-1.3,6.2c0,0-0.3,0.8-1.6,2.4c0,0-0.8,1.2-1.5,2.3c0,0-2.3,3.3-2.9,4.7 c-0.8,1.7-2,3.1-2.6,5c-0.5,1.7-0.8,3.4-0.7,5.1c0,0.5-0.1,1.7,0.5,1.3c0.4-0.2,0.7-1.3,0.8-1.7c0,0,1.1-3.8,3.6-6.1 c0,0,1-0.3-0.3,1.5c0,0-3.3,5.3,0.5,13.4c0,0-1.8-0.3-1.1,1.5c0.8,2.4,2.1,5.1,5.1,5c0.9,0,1.1-1,1.2-1.7c0,0,1.1-2.1,3.8-2.2 c0,0,1.6-0.2-0.3,1.5c0,0-1.5,1.1-1.7,1.9c0,0,1.1-0.1,1.1-0.2c0.8,0,1.6,0,2.4,0.2c0.4,0.1,0.8,0.2,1.2,0.2c0.3,0,0.7-0.2,0.9-0.4 c0.3-0.3,0.5-0.5,0.9-0.5s0.7,0.1,1.1,0.1c0.5,0.1,1,0.2,1.6,0.2c0.2,0,1.3-0.1,1-0.5c-0.2-0.3-0.7-0.6-1-0.8c0,0-1.7-0.9-1.8-3.3 c0,0-0.1-1.1,0.8-3.2c0,0,2.1-3.2,0.6-8.3c0,0-0.7-2.4-0.4-2.9c0,0,1.3,1.7,1.6,4.5c0,0,0.1,1.9-0.3,2.8c0,0-0.3,0.6,0.3,0.4 c0,0,1.2-0.4,1.7-2.9c0,0,1.3-4.2-2.6-11.3c0,0-1.8-3.2-2.9-5c0,0-1.2-2.2-0.1-3.4c0.2-0.2,0.7-0.2,0.9-0.1c0.7,0.2,1.2,0.7,1.7,1 c0.2,0.1,0.5,0.2,0.7,0.1c0.2-0.1,0.3-0.4,0.2-0.7c-0.2-0.5-0.5-1-0.8-1.4c-0.3-0.5-0.6-1-0.9-1.4c-0.2-0.4-0.5-0.8-0.5-1.3 c0-0.4,0.2-0.7,0.2-1.1c0-0.2,0-0.5,0-0.7c-0.1-0.7-0.5-1.4-1-1.9c-0.3-0.3-0.7-0.6-1.1-0.8C93.7,1.4,93,1.1,92.4,1.1"></path> <path class="st0" d="M95.9,31.5c0,2-0.6,4.2-1.9,5.8c-2.3,3-7.1,2.6-9.3-0.3c-1.4-1.8-1.9-4.3-2-6.6c-0.1-2.5,0.8-4.9,2-7 c1.1-1.8,2.2-3.6,3.3-5.4c1-1.7,2.1-3.4,3.1-5.2c2.1-4.6-0.7-5.5-0.7-5.5c-0.6-0.2-0.8-0.5-0.8-0.5c-1.1-1.1,0.7-2.4,0.7-2.4 c2-1.3,3.1,0.7,3.1,0.7c0.8,2.1,2.4,2,2.4,2l0.1,0.1c0.7,1,1.5,1.9,2,2.9c0.1,0.1,0.1,0.3,0.1,0.4c-0.1,0.3-0.3,0.2-0.5,0 c-0.6-0.5-2.2-2.4-3.4-0.6c0,0-1.2,1.6-1.2,4.7v0.1c0.1,2.6,0.4,5.1,0.8,7.6c0.3,1.6,0.7,3.1,1.2,4.6C95.3,28.5,95.9,30,95.9,31.5"></path> <path d="M92.5,5.8L92.5,5.8c-0.1-0.1-0.2-0.2-0.4-0.3c-0.1-0.1-0.2-0.1-0.3-0.1c-0.1,0-0.2,0-0.3,0.1c-0.1,0.2,0,0.3,0.2,0.4 C91.8,6,92,6,92.2,6.1c0.1,0,0.3,0.1,0.4,0V6C92.6,5.8,92.6,5.8,92.5,5.8"></path> <path d="M102.4,29.8c0.5,0.2,0.1,0.9,0,1.1c0,0-2,3.4-1.2,6.5c0.1,0.3,0.2,0.6,0.3,0.9c0.2,0.6,0.5,1.2,0.8,1.8 c0.1,0.2,0.4,0.5,0.4,0.7c0.1,0.5-0.5,0.9-0.8,1.1c-0.3,0.2-0.5,0.4-0.8,0.6c-0.2,0.1-1,1.1-0.7,1.3c0,0,0.1,0,0.2,0 c0.4,0,0.7-0.2,1.1-0.2c0.3,0,0.6,0.1,0.9,0.2c0.3,0.1,0.5,0.3,0.8,0.3c0.5,0.1,1.1-0.2,1.5-0.6c0.5-0.4,1.4-0.2,1.9-0.1 c0,0,1.3,0.2,0.1-0.5c0,0-1-0.8-1.1-1.1c0,0-0.4-1.3,1.4-0.1c0,0,1.8,1.6,2.7,1.8c0.8,0.3,1.6,0.4,2.4-0.2c1.3-1,1.7-2.9,1.6-4.4 l0.5-0.9c0,0,0.7-1.1,0.6-3.1c-0.1-2.5-1.2-3.6-1.2-3.6c-1.1-1-1.5-2.7-1.5-2.7c-0.5-1.4,0.7,0.3,0.7,0.3c2.4,4.1,4.3,4,4.3,4 c0.2,0,1,0,1.1-0.2s-0.5-0.7-0.7-0.9c-0.5-0.7-0.9-1.5-1.1-2.3c-0.7-2.3-1.5-4.7-3.6-6.2c-1.3-0.9-1.4-2.4-0.6-3.7 c0.6-0.9,1.1-1.8,0.8-2.9c-0.5-1.9-3.3-3.1-5.1-2.2c0,0-0.9,0.5-2.2,2.4c0,0-0.9,0.6-1.4,0.1l-1-0.8c0,0-1-0.5-0.6,0.8 c0,0,0.5,1.8,1.6,2.4l0.1,0.2c0.7,1.7-0.5,3.8-1.4,5.2c-1,1.5-2.1,3.6-3.4,4.8c-0.8,0.7-1.2,1.3-0.9,2.4l0.1,0.3 C98.8,32.4,101.6,29.5,102.4,29.8"></path> <g> <path d="M103.5,44.3c-0.1,0-0.1,0-0.2,0c-0.2,0-0.4-0.1-0.5-0.2c-0.1,0-0.2-0.1-0.2-0.1c-0.3-0.1-0.6-0.2-0.8-0.2 c-0.2,0-0.4,0-0.6,0.1c-0.2,0-0.3,0.1-0.5,0.1c-0.1,0-0.2,0-0.2-0.1c-0.1,0-0.1-0.1-0.1-0.2c0-0.4,0.8-1.2,0.8-1.2 c0.3-0.2,0.5-0.4,0.8-0.6c0.6-0.4,0.8-0.7,0.8-1c0-0.2-0.1-0.3-0.3-0.4c-0.1-0.1-0.1-0.2-0.2-0.2c-0.3-0.6-0.6-1.2-0.8-1.8v-0.1 c-0.1-0.3-0.2-0.6-0.3-0.8c-0.8-3.1,1.1-6.4,1.2-6.6c0,0,0,0,0-0.1c0.1-0.2,0.3-0.5,0.2-0.7c0-0.1-0.1-0.1-0.1-0.1l0,0 c-0.7-0.2-3.1,2.2-3.4,2.6L99,32.8l-0.1-0.1l0,0l-0.1-0.3c-0.4-1.2,0.2-1.8,0.9-2.5c1-0.9,1.9-2.3,2.7-3.6c0.3-0.4,0.5-0.8,0.8-1.2 c1-1.5,2.1-3.5,1.4-5.1c0,0,0,0,0-0.1v-0.1c-1.1-0.7-1.6-2.4-1.7-2.4c-0.1-0.4-0.1-0.7,0.1-0.9c0.2-0.2,0.6,0,0.7,0l0,0l1,0.8 c0.4,0.4,1.2-0.1,1.3-0.1c1.3-1.9,2.2-2.4,2.2-2.4c0.8-0.4,2-0.4,3,0c1.1,0.5,1.9,1.3,2.2,2.3c0.3,1.1-0.2,2.1-0.8,3v0.1 c-0.6,1.1-0.7,2.6,0.6,3.5c2.2,1.5,3,4,3.6,6.2c0.2,0.7,0.5,1.6,1.1,2.3c0,0.1,0.1,0.1,0.2,0.2c0.3,0.3,0.6,0.6,0.5,0.8 s-0.6,0.2-1.1,0.2h-0.1c-0.1,0-1.9,0.1-4.4-4c-0.2-0.3-0.5-0.6-0.6-0.8c0,0.1,0,0.2,0.1,0.4c0,0,0.5,1.7,1.5,2.7 c0,0,1.1,1.1,1.2,3.6c0.1,2-0.6,3.1-0.7,3.2l-0.5,0.8c0,1-0.1,3.3-1.7,4.5c-0.8,0.6-1.7,0.4-2.5,0.2c-0.9-0.3-2.6-1.8-2.7-1.9 c-0.8-0.6-1.1-0.5-1.2-0.4s-0.1,0.4-0.1,0.5c0.1,0.2,0.7,0.8,1.1,1.1c0.5,0.3,0.6,0.4,0.6,0.6c-0.1,0.1-0.3,0.2-0.7,0.1h-0.1 c-0.5-0.1-1.3-0.2-1.7,0.1C104.6,43.9,104.1,44.3,103.5,44.3z M101.7,43.5L101.7,43.5c0.4,0,0.7,0.1,1,0.2c0.1,0,0.2,0.1,0.3,0.1 c0.2,0.1,0.3,0.2,0.5,0.2c0.6,0.1,1.1-0.3,1.4-0.5c0.5-0.4,1.4-0.3,1.9-0.2h0.1c0.2,0,0.4,0,0.5,0c0,0-0.1-0.1-0.5-0.3 c-0.1-0.1-1.1-0.8-1.2-1.2c0-0.1-0.1-0.5,0.1-0.7c0.3-0.2,0.7,0,1.4,0.4c0,0,1.8,1.6,2.6,1.8c0.8,0.2,1.6,0.4,2.3-0.1 c1.6-1.2,1.6-3.6,1.6-4.4l0,0l0.5-0.9c0,0,0.7-1.1,0.6-3.1c-0.1-2.4-1.1-3.5-1.1-3.5c-1.1-1-1.5-2.7-1.5-2.7 c-0.1-0.4-0.1-0.6,0-0.7c0.1,0,0.2-0.1,0.9,0.9c2.4,4,4.2,3.9,4.2,3.9h0.1c0.5,0,0.9,0,0.9-0.1c0.1-0.1-0.3-0.4-0.4-0.6 c-0.1-0.1-0.2-0.2-0.2-0.2c-0.6-0.7-0.9-1.7-1.1-2.4c-0.7-2.3-1.4-4.7-3.6-6.1c-1.2-0.8-1.5-2.4-0.7-3.8v-0.1 c0.5-0.9,1.1-1.8,0.7-2.8c-0.3-0.9-1-1.7-2.1-2.1c-1-0.4-2.1-0.4-2.9,0c0,0-0.9,0.5-2.2,2.4l0,0l0,0c0,0-0.9,0.6-1.5,0.1l-1-0.8 c-0.1,0-0.3-0.1-0.4,0s-0.1,0.3,0,0.7c0,0,0.5,1.7,1.6,2.3c0.1,0,0.1,0.1,0.1,0.2c0,0,0,0,0,0.1l0,0c0.7,1.7-0.4,3.8-1.4,5.3 c-0.2,0.4-0.5,0.8-0.8,1.2c-0.8,1.3-1.7,2.7-2.7,3.6c-0.8,0.7-1.2,1.2-0.9,2.3l0.1,0.2c0.5-0.6,2.8-2.8,3.6-2.5l0,0 c0.1,0,0.2,0.1,0.3,0.2c0.1,0.3-0.1,0.7-0.2,0.9v0.1l0,0c0,0-2,3.4-1.2,6.4c0.1,0.3,0.2,0.6,0.3,0.8v0.1c0.2,0.6,0.5,1.2,0.8,1.7 c0,0.1,0.1,0.1,0.2,0.2c0.1,0.2,0.2,0.3,0.3,0.5c0.1,0.4-0.2,0.8-0.8,1.3c-0.3,0.2-0.5,0.4-0.8,0.6c-0.2,0.2-0.8,0.8-0.8,1.1l0,0 h0.1c0.2,0,0.3-0.1,0.5-0.1C101.3,43.6,101.5,43.5,101.7,43.5z M104.3,19.5L104.3,19.5L104.3,19.5z"></path> </g> <path class="st0" d="M108.4,14.3l-0.2-0.2l-0.1-0.1c-0.2-0.2-0.3-0.4-0.5-0.5c-0.2-0.2-0.6-0.6-0.9-0.6h-0.1 c-0.3,0.1-0.6,0.3-0.8,0.6c-0.4,0.8,0.3,1.7,0.8,2.2l0.3-0.3c0,0,0.6-0.7,1-0.9C107.8,14.6,108.2,14.4,108.4,14.3"></path> <path d="M106.5,15.8c-0.5-0.5-1.2-1.5-0.8-2.2c0.2-0.3,0.5-0.5,0.8-0.6h0.1c0.3,0,0.7,0.4,0.9,0.6c0.3,0.3,0.5,0.6,0.8,0.9 c0.3,0.3,0.5,0.5,0.8,0.7c1.4,1.2,2.7,2.3,4.1,3.5c0.3-0.4,0.5-0.9,0.5-1.4s-0.1-1-0.2-1.5c-0.1-0.3-0.2-0.6-0.3-0.9 c-0.2-0.3-0.4-0.6-0.7-0.8c-0.9-0.7-2.1-1-3.2-0.7c-0.5,0.1-1,0.2-1.5,0c-0.4-0.2-0.7-0.7-1.2-0.8s-0.9,0.3-1.1,0.7 c0,0-0.3,0.4-0.2,1c0,0,0.1,1.1,1,1.7l0,0C106.4,16,106.5,15.8,106.5,15.8"></path> <path class="st0" d="M113.2,18.4c-0.6-0.5-1.3-1.1-1.9-1.6c-0.7-0.6-1.4-1.1-2-1.7c-0.3-0.2-0.5-0.5-0.8-0.7 c-0.1-0.1-0.2-0.3-0.4-0.4c-0.1-0.2-0.3-0.3-0.4-0.5l-0.1-0.1c0.1,0,0.2,0.1,0.2,0.1c0.2,0.1,0.3,0.1,0.5,0.1c0.3,0,0.5-0.1,0.8-0.1 c0.1,0,0.1,0,0.2,0c0.2,0,0.5-0.1,0.7-0.1c0.8,0,1.7,0.3,2.3,0.8c0.3,0.2,0.5,0.5,0.7,0.8c0.1,0.3,0.2,0.5,0.3,0.8 c0.1,0.5,0.2,0.9,0.2,1.4C113.6,17.6,113.5,18,113.2,18.4 M106.3,15.8c-0.2-0.2-0.4-0.5-0.5-0.8C106,15.3,106.2,15.6,106.3,15.8 M105.6,13.4c0.1-0.3,0.5-0.7,0.9-0.7h0.1c0,0,0,0,0.1,0c0,0,0,0-0.1,0l0,0c-0.1,0-0.1,0-0.2,0C106.2,12.9,105.8,13.1,105.6,13.4 L105.6,13.4"></path> <path d="M110.1,13.5c0.8,0,1.6,0.3,2.3,0.8c0.3,0.2,0.5,0.5,0.7,0.8c0.1,0.3,0.2,0.5,0.3,0.8c0.1,0.5,0.2,0.9,0.2,1.4 s-0.1,0.8-0.3,1.1c-0.6-0.5-1.3-1.1-1.9-1.6c-0.7-0.6-1.4-1.1-2-1.7c-0.3-0.2-0.5-0.5-0.8-0.7c-0.1-0.1-0.2-0.3-0.4-0.4 c-0.1-0.1-0.1-0.1-0.2-0.2c0.1,0,0.2,0,0.4,0c0.3,0,0.5-0.1,0.8-0.1c0.1,0,0.1,0,0.2,0C109.6,13.5,109.8,13.5,110.1,13.5 M106.5,12.7c-0.5,0-0.9,0.5-1,0.8c0,0-0.2,0.3-0.1,0.9c0,0,0.2,1.2,1,1.7l0.1-0.1c-0.4-0.5-1.3-1.6-0.8-2.4 c0.2-0.3,0.5-0.5,0.8-0.6h0.1l0,0c0.3,0,0.8,0.5,1,0.7c0.3,0.3,0.5,0.6,0.8,0.8c0.3,0.3,0.5,0.5,0.8,0.7c1.3,1.1,2.7,2.3,4,3.4 c0.3-0.4,0.4-0.8,0.4-1.3s-0.1-1-0.2-1.5c-0.1-0.3-0.2-0.6-0.3-0.8c-0.2-0.3-0.4-0.6-0.7-0.8c-0.7-0.5-1.5-0.8-2.4-0.8 c-0.3,0-0.5,0-0.8,0.1s-0.6,0.2-0.9,0.2c-0.2,0-0.3,0-0.5-0.1c-0.4-0.2-0.8-0.7-1.2-0.8C106.6,12.7,106.6,12.7,106.5,12.7"></path> <path class="st0" d="M107.2,40.4c-0.9,0-2.1-0.4-2.8-1.1c-2.6-2.2-1.3-6.1-0.5-8.6c0.5-1.7,0.8-3.5,1-5.2c0.1-1.1,0.1-2.2,0.2-3.3 c0-0.6,0-1.1,0-1.7c0-0.9-0.6-1.1-0.7-1.2c-1.1-0.6-1.6-2.3-1.6-2.3c-0.1-0.4-0.1-0.6,0-0.7c0,0,0.1-0.1,0.2-0.1s0.3,0.1,0.3,0.1 l1,0.8c0.2,0.1,0.3,0.2,0.6,0.2h0.1c0,0,0,0,0.1,0c0.2,0,0.8-0.1,1.7-0.5c0,0,0.8-0.4,1.6-0.4c0.7,0,1.3,0.3,1.6,0.8 c0,0.1,0.8,1.5-0.6,2.4c0,0-1.8,0.8-1.8,2.8c0,0.1-0.2,2.1,2,6.3c0,0.1,3.6,5.9,1.9,9.3c-0.6,1.3-1.9,2.1-3.9,2.3 C107.4,40.4,107.3,40.4,107.2,40.4"></path> <path d="M103,16.4c0.1,0,0.2,0,0.2,0.1l1,0.7c0.2,0.1,0.4,0.2,0.6,0.2h0.1h0.1c0.3,0,0.8-0.1,1.7-0.5c0,0,0.8-0.3,1.5-0.3 s1.2,0.3,1.5,0.8c0,0.1,0.7,1.4-0.6,2.3c-0.2,0.1-1.8,0.9-1.8,2.9c0,0.2-0.1,2.3,2,6.3l0,0l0,0c0,0.1,3.5,5.8,1.9,9.2 c-0.6,1.3-1.9,2-3.8,2.3c-0.1,0-0.2,0-0.4,0c-0.9,0-2-0.4-2.8-1.1c-2.5-2.1-1.3-6-0.5-8.5c0.5-1.7,0.8-3.6,1-5.2 c0.1-1.1,0.1-2.2,0.2-3.3c0-0.6,0-1.1,0-1.7c0-0.9-0.6-1.2-0.7-1.3c-1-0.6-1.5-2.3-1.5-2.3C102.9,16.5,102.9,16.4,103,16.4L103,16.4 M103,16.2c-0.2,0-0.5,0.2-0.2,0.8c0,0,0.5,1.8,1.6,2.4c0,0,0.6,0.2,0.6,1.1c-0.1,1.7,0,3.3-0.2,5s-0.4,3.5-1,5.1 c-0.9,2.7-2.1,6.5,0.5,8.7c0.7,0.6,1.9,1.1,2.9,1.1c0.1,0,0.3,0,0.4,0c8.5-1.1,2-11.8,2-11.8c-2.2-4.2-2-6.2-2-6.2 c0-1.9,1.7-2.7,1.7-2.7c1.5-1,0.7-2.5,0.7-2.5c-0.4-0.7-1-0.9-1.7-0.9c-0.8,0-1.6,0.4-1.6,0.4c-0.9,0.4-1.4,0.5-1.6,0.5 c-0.1,0-0.1,0-0.1,0h-0.1c-0.2,0-0.3,0-0.5-0.2l-1-0.8C103.4,16.3,103.2,16.2,103,16.2"></path> <path d="M107.5,17.4c0,0,0.9-0.1,0.8,0.6c0,0-0.3,0.4-0.8-0.3C107.5,17.8,107,17.5,107.5,17.4"></path> <path d="M110.7,44.1c2.6,0.7,3.5-2.9,3.6-4.8c0-0.2,0-0.4-0.1-0.5c-0.1-0.3-0.6-0.5-0.9-0.3c0,0-0.5,0.3-0.7,0.6c0,0,0.3-2-0.9-2.3 c0,0-1.3-0.4-1.4,1.5v0.5c0,0-0.7-0.6-1.1-0.3c0,0-0.8,0.4-0.2,3C109.3,42.5,109.6,43.8,110.7,44.1"></path> <g> <path d="M111.3,44.3c-0.2,0-0.4,0-0.6-0.1c-1.1-0.3-1.4-1.6-1.7-2.6c-0.6-2.5,0.1-3,0.2-3.1c0.4-0.3,0.8,0,1.1,0.2v-0.3 c0-0.7,0.2-1.2,0.6-1.5s0.9-0.2,0.9-0.1c1,0.2,1.1,1.5,1,2.1c0.2-0.2,0.5-0.4,0.5-0.4c0.2-0.1,0.4-0.1,0.6,0s0.4,0.2,0.4,0.4 c0.1,0.2,0.1,0.4,0.1,0.5c0,1.3-0.5,3.6-1.8,4.5C112.2,44.1,111.7,44.3,111.3,44.3z M109.5,38.6c-0.1,0-0.2,0-0.2,0.1l0,0 c0,0-0.7,0.4-0.1,2.9c0.2,0.9,0.5,2.2,1.5,2.5l0,0c0.7,0.2,1.2,0.1,1.8-0.3c1.2-0.9,1.7-3.1,1.7-4.3c0-0.2,0-0.3-0.1-0.5 c0-0.1-0.2-0.2-0.3-0.3c-0.2,0-0.3,0-0.4,0c0,0-0.4,0.3-0.6,0.6l-0.3,0.4l0.1-0.5c0,0,0.3-1.9-0.8-2.2c0,0-0.4-0.1-0.8,0.1 c-0.3,0.2-0.5,0.7-0.5,1.3v0.7l-0.2-0.2C110.3,38.9,109.9,38.6,109.5,38.6z"></path> </g> <path class="st0" d="M111.1,44L111.1,44c-0.2,0-0.3,0-0.4-0.1c-1-0.3-1.3-1.7-1.5-2.4c-0.6-2.3,0-2.7,0.1-2.8s0.2-0.1,0.3-0.1 c0.3,0,0.6,0.3,0.8,0.4v-0.4c0-1.5,0.7-1.7,1-1.7c0.1,0,0.2,0,0.2,0s1.1,0.1,0.9,2.3v0.2h0.1c0.1-0.2,0.4-0.7,0.9-0.7h0.1 c0.2,0,0.3,0.1,0.3,0.2c0.4,0.7-0.4,3-0.5,3.3C113,43.1,112.1,44,111.1,44"></path> <path d="M86.9,43c-0.1,0.5-0.1,0.8-0.4,1.2c-0.4,0.9-1.8,0.7-2.7,0.3c-0.7-0.3-1.3-0.7-1.7-1.3c-0.8-0.9-1.5-2.5-1.9-3.9 c-0.1-0.3-0.1-0.5,0-0.8c0.2-0.5,0.9-0.5,1.4-0.4c0-0.5,0-1-0.1-1.5s0-1,0.3-1.4c0.4-0.5,1.2-0.7,1.8-0.4c0.8,0.4,1,1.5,1.3,2.3 c0.5-0.5,1.4-0.4,1.8,0.2c0.2,0.3,0.2,0.7,0.3,1C87.3,39.8,87.2,41.4,86.9,43"></path> <path class="st0" d="M86.6,42.7c-0.1,0.5-0.1,0.7-0.3,1c-0.4,0.8-1.5,0.7-2.4,0.2c-0.6-0.3-1.1-0.7-1.5-1.2 c-0.7-0.8-1.3-2.1-1.7-3.3c-0.1-0.2-0.1-0.6,0-0.8c0.2-0.3,1-0.3,1.4-0.2c0-0.4-0.1-1.2-0.1-1.7s0-0.9,0.2-1.2 c0.4-0.5,0.9-0.5,1.4-0.2c0.7,0.4,1,1.5,1.3,2.2c0.4-0.4,1.3-0.5,1.6,0c0.2,0.3,0.2,0.7,0.2,1C86.9,40,86.9,41.4,86.6,42.7"></path> <path d="M83.1,42.7c0,0,0.3-1.6,2.3-1.7v0.4C85.4,41.4,84.2,41.3,83.1,42.7"></path> <path d="M82,33.5l-0.9,11.3c0,0-10.1-1.4-14.7-1.9c0.2,0,1.2-3.8,1.3-4.1c0.4-1.7,0.7-3.4,0.9-5.2c0.1-0.7,0.2-1.9,0.3-2.6L82,33 V33.5z"></path> <g> <path d="M81.2,44.9L81.2,44.9c-0.2,0-10.3-1.4-14.8-1.9v-0.2l0,0c0.2-0.2,1-3.1,1.2-4c0.4-1.6,0.7-3.3,0.9-5.2 c0-0.2,0.1-0.5,0.1-0.8c0.1-0.6,0.2-1.3,0.2-1.8v-0.1l13.4,2v0.6L81.2,44.9z M66.5,42.9c4.4,0.5,13.4,1.7,14.5,1.8l0.9-11.2v-0.4 l-13-1.9c0,0.4-0.1,1.1-0.2,1.7c0,0.3-0.1,0.6-0.1,0.8c-0.2,1.9-0.5,3.6-0.9,5.2c0,0.1-0.3,1.2-0.6,2.2 C66.8,42.1,66.6,42.6,66.5,42.9z"></path> </g> <path class="st0" d="M81,33.8l-11.2-1.7c0,0-1.1,8.6-2.2,10.1l12.6,1.7L81,33.8z"></path> <g> <path d="M80.2,43.9l-12.9-1.7l0.1-0.1c1.1-1.4,2.2-9.9,2.2-10V32L81,33.7L80.2,43.9z M67.7,42.1L80,43.7l0.9-9.8l-11-1.7 C69.7,33.2,68.7,40.4,67.7,42.1z"></path> </g> <path d="M110.6,41.7c0,0,1-0.7,2.1-0.6l-0.1,0.4C112.6,41.6,112,41.3,110.6,41.7C110.6,41.8,110.5,41.8,110.6,41.7"></path> <path d="M75.8,28.4c-1.7,0-3.6,1.2-3.8,3.5v0.6l0.6,0.1l0.9,0.1l0.6,0.1l0.1-0.6c0.1-1.1,1-1.7,1.8-1.7l0,0c0.5,0,1,0.2,1.4,0.6 c0.4,0.5,0.7,1.3,0.4,3l-0.1,0.6l0.6,0.1l0.9,0.1l0.5,0.1l0.1-0.5c0.5-2.4-0.2-3.8-0.8-4.5C78,28.9,76.9,28.4,75.8,28.4"></path> <path class="st0" d="M78.9,34.2c1.2-6.2-5.9-6.4-6.3-2.2l0.8,0.1c0.3-3.1,5.6-3.1,4.6,2L78.9,34.2z"></path> <path d="M74.4,33.5c0,0.1,0.1,0.1,0.1,0.2c0.2,0.2,0.6,0.3,0.9,0.2s0.6-0.2,0.9-0.4c0.1-0.1,0.3-0.2,0.2-0.4c-0.1-0.1-0.2,0-0.3,0 c-0.3,0-0.4-0.3-0.5-0.6c-0.1-0.4-0.2-0.9-0.4-1.3c-0.3-0.7-0.9-1.1-1.6-1.2c-0.1,0-0.2,0-0.3-0.1c-0.1,0-0.1-0.1-0.2-0.2 s-0.1-0.2,0-0.3c0-0.2,0.1-0.2,0.2-0.2c0.6-0.1,1.2-0.4,1.6-0.8s0.7-1,0.6-1.6c0-0.1,0-0.2-0.1-0.3c-0.1-0.1-0.3,0.1-0.4,0.2 c-0.2,0.3-0.6,0.5-0.9,0.4c-0.4-0.1-0.4-0.6-0.5-1c-0.1-0.8-0.8-1.4-1.5-1.8s-1.6-0.4-2.4-0.2c-0.7,0.2-1.2,0.6-1.6,1.1 c-0.2,0.3-0.4,0.6-0.5,0.9c-0.3,1.1,0,2.3,0.7,3.2c0.2,0.3,0.5,0.5,0.7,0.8l0.2,0.3c0,0.2-0.1,0.1-0.3,0.2c-0.5,0-1,0.1-1.4,0.5 c-0.2,0.2-0.4,0.5-0.6,0.8c-0.2,0.4-0.4,0.9-0.5,1.3c-0.1,0.5,0,1.1-0.6,1.4c-0.1,0.1-0.3,0.1-0.4,0.1c-0.1,0.1-0.2,0.2-0.2,0.3 s0.1,0.2,0.2,0.2c0.5,0.3,1.2,0.4,1.8,0.2c0.6-0.2,1.1-0.6,1.4-1.1c0.3-0.6,0.3-1.2,0.5-1.9c0.1-0.3,0.2-0.6,0.4-0.7 c0.2-0.1,0.4-0.1,0.5-0.1c1.3,0.1,2.6,0.1,3.9,0.2C74.3,32.5,74.2,33.1,74.4,33.5"></path> <path class="st0" d="M71.3,31.4L71.3,31.4c0.1-0.4,0.2-0.7,0.1-1.1c-0.1-0.2-0.2-0.4-0.4-0.6c0-0.1-0.1-0.1-0.1-0.2 s-0.1-0.1-0.2-0.2c-0.7-0.9-1.6-2.2-0.8-3.1c0.4-0.4,0.9-0.6,1.5-0.6c0.3,0,0.6,0.1,0.9,0.2s0.8,0.3,1,0.7c0,0.1,0.1,0.2,0.2,0.3 c0.2,0.3,0.4,0.7,0.7,0.7l0,0c0.4,0,0.8-0.2,1-0.5c0.1-0.1,0.2-0.1,0.2-0.1l0,0c0,0,0.1,0.1,0.1,0.5c0,0.1-0.1,1.4-1.9,2l0,0h-0.3 c-0.1,0-0.3,0.1-0.3,0.2s0,0.3,0,0.4c0.1,0.1,0.2,0.2,0.3,0.3c0.1,0.1,0.1,0.2,0.2,0.2c0.2,0.2,0.3,0.4,0.4,0.6 c0.2,0.4,0.4,0.8,0.4,1.2L71.3,31.4z"></path> <path d="M71.4,25.6c0.3,0,0.6,0,0.8,0.2c0.4,0.2,0.8,0.4,1,0.7c0,0.1,0.1,0.2,0.2,0.3c0.2,0.3,0.4,0.7,0.8,0.7l0,0 c0.5,0,0.8-0.2,1.1-0.6l0.1-0.1c0,0,0,0.2,0,0.4c0,0,0,1.3-1.8,1.9c-0.1,0-0.3,0-0.3,0c-0.2,0-0.3,0.1-0.4,0.3 c-0.1,0.2,0,0.3,0.1,0.5c0.1,0.1,0.2,0.2,0.3,0.3c0.1,0.1,0.1,0.1,0.2,0.2c0.2,0.2,0.3,0.4,0.4,0.6c0.2,0.4,0.3,0.7,0.4,1.1 l-2.8-0.7c0.1-0.3,0.2-0.7,0-1.1c-0.1-0.3-0.2-0.5-0.4-0.7c0-0.1-0.1-0.1-0.1-0.2c-0.1-0.1-0.1-0.1-0.2-0.2c-0.7-0.9-1.6-2.1-0.8-3 C70.3,25.8,70.8,25.6,71.4,25.6 M71.4,25.4c-0.6,0-1.1,0.2-1.5,0.7c-1,1.1,0.3,2.6,0.9,3.5c0.2,0.2,0.4,0.5,0.5,0.8 c0.1,0.4,0,0.8-0.1,1.2l0.2,0.3l3,0.6c0-0.5-0.2-1.1-0.4-1.5c-0.1-0.2-0.3-0.4-0.4-0.6c-0.2-0.2-0.3-0.3-0.5-0.5 c-0.1-0.2,0-0.4,0.2-0.4h0.3c2-0.6,2-2,2-2c0-0.5-0.1-0.6-0.2-0.6S75.1,27,75.1,27c-0.2,0.3-0.5,0.5-0.9,0.5l0,0 c-0.4,0-0.6-0.7-0.8-0.9c-0.3-0.3,0-0.6-1-1C72.1,25.2,71.7,25.4,71.4,25.4"></path> <path d="M72,26.6c0,0-0.7-0.3-0.8,0.3c0,0,0.1,0.4,0.7,0C71.9,26.9,72.4,26.8,72,26.6"></path> <path d="M42.2,56.9l1.2-0.5c0.1,0.4,0.3,0.7,0.6,0.9s0.7,0.3,1.1,0.3c0.4,0,0.8-0.1,1-0.4c0.3-0.2,0.4-0.6,0.4-1 c0-0.5-0.4-1-1.3-1.4c-0.1-0.1-0.2-0.1-0.3-0.1c-1-0.5-1.7-0.9-2-1.3c-0.3-0.4-0.5-0.9-0.5-1.5c0-0.7,0.3-1.3,0.8-1.8s1.2-0.7,2-0.7 c0.7,0,1.2,0.1,1.7,0.4c0.5,0.3,0.8,0.6,0.9,1.1l-1.2,0.6c-0.2-0.3-0.4-0.5-0.6-0.6s-0.5-0.2-0.8-0.2c-0.4,0-0.7,0.1-1,0.3 c-0.2,0.2-0.3,0.5-0.3,0.8c0,0.5,0.5,1.1,1.5,1.5c0.1,0,0.1,0.1,0.2,0.1c0.9,0.4,1.5,0.8,1.9,1.2c0.3,0.4,0.5,0.9,0.5,1.5 c0,0.9-0.3,1.6-0.8,2.1C46.7,58.7,46,59,45.1,59c-0.8,0-1.4-0.2-1.9-0.5C42.6,58,42.3,57.5,42.2,56.9"></path> <path d="M57.1,54.2c0-0.1,0-0.3-0.1-0.6c0-0.3-0.1-0.5-0.1-0.7c0,0.2-0.1,0.4-0.2,0.6c-0.1,0.2-0.2,0.4-0.3,0.6L54,59l-2.4-5 c-0.1-0.2-0.2-0.4-0.3-0.6c-0.1-0.2-0.1-0.4-0.2-0.6c0,0.2,0,0.4,0,0.6c0,0.2-0.1,0.4-0.1,0.7l-1,4.5h-1.4l2.2-9.5l2.7,5.8 c0,0.1,0.1,0.2,0.2,0.5s0.2,0.5,0.3,0.8c0.1-0.3,0.2-0.6,0.4-1c0-0.1,0.1-0.2,0.1-0.2l2.6-5.8l2.2,9.5h-1.4L57.1,54.2z"></path> <path d="M67.5,58.7l-1-2.3h-3.6l-1.1,2.3h-1.6l4.4-9.5l4.4,9.5H67.5z M63.4,55.1h2.5L65,53c-0.1-0.1-0.1-0.3-0.2-0.5 s-0.1-0.4-0.2-0.6c0,0.2-0.1,0.4-0.2,0.6c-0.1,0.2-0.1,0.3-0.2,0.5L63.4,55.1z"></path> <path d="M71.6,54.6v4.1h-1.4v-9.1h2.1c0.6,0,1.1,0,1.4,0.1s0.6,0.2,0.9,0.4s0.5,0.5,0.7,0.9c0.2,0.3,0.2,0.7,0.2,1.1 c0,0.7-0.2,1.3-0.5,1.7s-0.9,0.7-1.6,0.7l3.1,4.2h-1.7l-3-4.1C71.8,54.6,71.6,54.6,71.6,54.6z M71.7,53.5H72c0.8,0,1.3-0.1,1.6-0.3 c0.3-0.2,0.4-0.5,0.4-1s-0.1-0.9-0.4-1.1s-0.8-0.3-1.5-0.3h-0.3L71.7,53.5L71.7,53.5z"></path> <polygon points="80.5,50.8 80.5,58.7 79,58.7 79,50.8 76.6,50.8 76.6,49.6 82.9,49.6 82.9,50.8 "></polygon> <path d="M91.2,51.8c-0.4-0.4-0.9-0.6-1.3-0.8c-0.5-0.2-1-0.3-1.5-0.3c-1,0-1.8,0.3-2.4,1c-0.6,0.6-0.9,1.5-0.9,2.5s0.3,1.8,0.9,2.4 c0.6,0.6,1.4,1,2.3,1c0.5,0,1.1-0.1,1.5-0.3c0.5-0.2,1-0.5,1.4-0.9v1.7c-0.4,0.3-0.8,0.5-1.3,0.6s-1,0.2-1.5,0.2 c-0.7,0-1.3-0.1-1.9-0.3s-1.1-0.6-1.6-1c-0.4-0.4-0.8-1-1-1.5c-0.2-0.6-0.4-1.2-0.4-1.9s0.1-1.3,0.4-1.9c0.2-0.6,0.6-1.1,1-1.5 c0.5-0.5,1-0.8,1.6-1s1.2-0.3,1.9-0.3c0.5,0,1,0.1,1.5,0.2s1,0.4,1.4,0.7L91.2,51.8z"></path> <polygon points="93.2,58.7 93.2,49.6 98.3,49.6 98.3,50.8 94.7,50.8 94.7,53.1 98.3,53.1 98.3,54.4 94.7,54.4 94.7,57.4 98.3,57.4 98.3,58.7 "></polygon> <path d="M100.4,58.7v-9.5l5.8,5.6c0.2,0.2,0.3,0.3,0.5,0.5s0.3,0.4,0.5,0.6v-6.3h1.4v9.5l-5.9-5.7c-0.2-0.2-0.3-0.3-0.5-0.5 s-0.3-0.3-0.4-0.5v6.3C101.8,58.7,100.4,58.7,100.4,58.7z"></path> <polygon points="113.8,50.8 113.8,58.7 112.3,58.7 112.3,50.8 109.8,50.8 109.8,49.6 116.2,49.6 116.2,50.8 "></polygon> <path d="M118.9,54.6v4.1h-1.4v-9.1h2.1c0.6,0,1.1,0,1.4,0.1s0.6,0.2,0.9,0.4s0.5,0.5,0.7,0.9c0.2,0.3,0.2,0.7,0.2,1.1 c0,0.7-0.2,1.3-0.5,1.7s-0.9,0.7-1.6,0.7l3.1,4.2h-1.7l-3-4.1C119.1,54.6,118.9,54.6,118.9,54.6z M119,53.5h0.3 c0.8,0,1.3-0.1,1.6-0.3c0.3-0.2,0.4-0.5,0.4-1s-0.1-0.9-0.4-1.1s-0.8-0.3-1.5-0.3H119V53.5z"></path> <polygon points="124.9,58.7 124.9,49.6 130,49.6 130,50.8 126.4,50.8 126.4,53.1 130,53.1 130,54.4 126.4,54.4 126.4,57.4 130,57.4 130,58.7 "></polygon> <path d="M131.4,56.9l1.2-0.5c0.1,0.4,0.3,0.7,0.6,0.9s0.7,0.3,1.1,0.3c0.4,0,0.8-0.1,1-0.4c0.3-0.2,0.4-0.6,0.4-1 c0-0.5-0.4-1-1.3-1.4c-0.1-0.1-0.2-0.1-0.3-0.1c-1-0.5-1.7-0.9-2-1.3c-0.3-0.4-0.5-0.9-0.5-1.5c0-0.7,0.3-1.3,0.8-1.8s1.2-0.7,2-0.7 c0.7,0,1.2,0.1,1.7,0.4c0.5,0.3,0.8,0.6,0.9,1.1l-1.2,0.6c-0.2-0.3-0.4-0.5-0.6-0.6s-0.5-0.2-0.8-0.2c-0.4,0-0.7,0.1-1,0.3 c-0.2,0.2-0.3,0.5-0.3,0.8c0,0.5,0.5,1.1,1.5,1.5c0.1,0,0.1,0.1,0.2,0.1c0.9,0.4,1.5,0.8,1.9,1.2c0.3,0.4,0.5,0.9,0.5,1.5 c0,0.9-0.3,1.6-0.8,2.1s-1.3,0.8-2.2,0.8c-0.8,0-1.4-0.2-1.9-0.5C131.9,58,131.6,57.5,131.4,56.9"></path> <path d="M140.2,49.6c0.2,0,0.4,0,0.5,0.1c0.2,0.1,0.3,0.2,0.5,0.3c0.1,0.1,0.2,0.3,0.3,0.4c0.1,0.2,0.1,0.3,0.1,0.5s0,0.4-0.1,0.5 c-0.1,0.2-0.2,0.3-0.3,0.4c-0.1,0.1-0.3,0.2-0.5,0.3s-0.3,0.1-0.5,0.1s-0.4,0-0.5-0.1c-0.2-0.1-0.3-0.2-0.5-0.3 c-0.1-0.1-0.2-0.3-0.3-0.5s-0.1-0.3-0.1-0.5s0-0.4,0.1-0.5c0.1-0.2,0.2-0.3,0.3-0.5c0.1-0.1,0.3-0.2,0.4-0.3 C139.8,49.6,140,49.6,140.2,49.6 M140.2,49.8c-0.2,0-0.3,0-0.5,0.1c-0.1,0.1-0.3,0.1-0.4,0.3c-0.1,0.1-0.2,0.2-0.3,0.4 c-0.1,0.1-0.1,0.3-0.1,0.5s0,0.3,0.1,0.4c0.1,0.1,0.1,0.3,0.3,0.4c0.1,0.1,0.2,0.2,0.4,0.3c0.1,0.1,0.3,0.1,0.4,0.1 c0.2,0,0.3,0,0.5-0.1s0.3-0.1,0.4-0.3c0.1-0.1,0.2-0.2,0.3-0.4c0.1-0.1,0.1-0.3,0.1-0.4c0-0.2,0-0.3-0.1-0.5 c-0.1-0.1-0.1-0.3-0.3-0.4c-0.1-0.1-0.2-0.2-0.4-0.3C140.5,49.8,140.4,49.8,140.2,49.8 M139.6,50.2h0.6c0.2,0,0.4,0,0.5,0.1 s0.2,0.2,0.2,0.3s0,0.2-0.1,0.3s-0.2,0.1-0.3,0.2l0.3,0.7h-0.4l-0.3-0.7h-0.2v0.7h-0.3V50.2L139.6,50.2z M140,50.4v0.5h0.2 c0.1,0,0.2,0,0.3-0.1c0.1,0,0.1-0.1,0.1-0.2c0-0.1,0-0.2-0.1-0.2s-0.2-0.1-0.3-0.1L140,50.4L140,50.4z"></path> <path d="M140.2,52.4c-0.2,0-0.4,0-0.5-0.1c-0.2-0.1-0.3-0.2-0.5-0.3c-0.1-0.1-0.2-0.3-0.3-0.5s-0.1-0.3-0.1-0.5s0-0.4,0.1-0.5 c0.1-0.2,0.2-0.3,0.3-0.5c0.1-0.1,0.3-0.2,0.5-0.3s0.3-0.1,0.5-0.1s0.4,0,0.6,0.1c0.2,0.1,0.3,0.2,0.5,0.3c0.1,0.1,0.2,0.3,0.3,0.5 s0.1,0.3,0.1,0.5s0,0.4-0.1,0.6c-0.1,0.2-0.2,0.3-0.3,0.5c-0.1,0.1-0.3,0.2-0.5,0.3C140.6,52.4,140.4,52.4,140.2,52.4 M140.2,49.6 c-0.2,0-0.4,0-0.5,0.1c-0.2,0.1-0.3,0.2-0.4,0.3c-0.1,0.1-0.2,0.3-0.3,0.4c-0.1,0.2-0.1,0.3-0.1,0.5s0,0.3,0.1,0.5s0.2,0.3,0.3,0.4 c0.1,0.1,0.3,0.2,0.4,0.3c0.3,0.1,0.7,0.1,1,0c0.2-0.1,0.3-0.2,0.4-0.3c0.1-0.1,0.2-0.3,0.3-0.4c0.1-0.2,0.1-0.3,0.1-0.5 s0-0.3-0.1-0.5s-0.2-0.3-0.3-0.4c-0.1-0.1-0.3-0.2-0.4-0.3C140.6,49.7,140.4,49.6,140.2,49.6 M140.2,52.2c-0.2,0-0.3,0-0.5-0.1 s-0.3-0.2-0.4-0.3s-0.2-0.2-0.3-0.4s-0.1-0.3-0.1-0.5s0-0.3,0.1-0.5s0.2-0.3,0.3-0.4c0.1-0.1,0.2-0.2,0.4-0.3c0.3-0.1,0.6-0.1,0.9,0 c0.2,0.1,0.3,0.2,0.4,0.3c0.1,0.1,0.2,0.2,0.3,0.4s0.1,0.3,0.1,0.5s0,0.3-0.1,0.5s-0.2,0.3-0.3,0.4s-0.3,0.2-0.4,0.3 S140.3,52.2,140.2,52.2 M140.2,49.8c-0.2,0-0.3,0-0.4,0.1c-0.1,0.1-0.3,0.1-0.4,0.2c-0.1,0.1-0.2,0.2-0.3,0.4 c-0.1,0.1-0.1,0.3-0.1,0.4c0,0.2,0,0.3,0.1,0.4c0.1,0.1,0.1,0.3,0.2,0.4c0.1,0.1,0.2,0.2,0.4,0.3c0.3,0.1,0.6,0.1,0.9,0 c0.1-0.1,0.3-0.1,0.4-0.2c0.1-0.1,0.2-0.2,0.2-0.4c0.1-0.1,0.1-0.3,0.1-0.4c0-0.2,0-0.3-0.1-0.5c-0.1-0.1-0.1-0.3-0.2-0.4 c-0.1-0.1-0.2-0.2-0.4-0.3C140.5,49.9,140.3,49.8,140.2,49.8 M140.9,51.8h-0.5l-0.3-0.7H140v0.7h-0.4v-1.6h0.6c0.2,0,0.4,0,0.5,0.1 s0.2,0.2,0.2,0.3s0,0.2-0.1,0.3s-0.1,0.1-0.2,0.2L140.9,51.8z M140.5,51.7h0.3l-0.3-0.7l0,0c0.1,0,0.2-0.1,0.2-0.1 c0.1-0.1,0.1-0.2,0.1-0.3s0-0.2-0.2-0.3c-0.1-0.1-0.3-0.1-0.5-0.1h-0.6v1.5h0.3V51h0.3L140.5,51.7z M140.2,50.9h-0.3v-0.6h0.2 c0.1,0,0.2,0,0.3,0.1c0.1,0,0.1,0.1,0.1,0.2c0,0.1,0,0.2-0.1,0.2C140.4,50.9,140.3,50.9,140.2,50.9 M140,50.8h0.2c0.1,0,0.2,0,0.3,0 c0,0,0.1-0.1,0.1-0.2c0-0.1,0-0.1-0.1-0.2c-0.1,0-0.1-0.1-0.3-0.1H140V50.8L140,50.8z"></path> </svg> 