<?xml version="1.0" encoding="UTF-8"?> <svg xmlns="http://www.w3.org/2000/svg" xmlns:xlink="http://www.w3.org/1999/xlink" version="1.1" id="Layer_1" x="0px" y="0px" viewBox="0 0 309.2 110.7" style="enable-background:new 0 0 309.2 110.7;" xml:space="preserve"> <style type="text/css"> .st0{fill:#FCDC00;} .st1{fill:#FFFFFF;} </style> <path class="st0" d="M49.9,15.3c-22.1,0-40,17.9-40,40s17.9,40,40,40s40-17.9,40-40C89.9,33.3,71.9,15.3,49.9,15.3z M35.1,56.1 c0-3.5,1.2-6.7,3.3-9.4c0.5-0.6,1.5-0.7,2.1-0.2s0.7,1.5,0.2,2.1C39,50.7,38,53.3,38,56c0,5.2,3.4,9.6,8.1,11.1L51.7,57l-8.5-0.9 l8.6-15.5l2.6,1.5L48,53.6l8.5,0.9l-7,13.2c0.2,0,0.3,0,0.5,0c6.5,0,11.7-5.2,11.7-11.7c0-2.6-0.9-5.1-2.4-7.1 c-0.5-0.7-0.4-1.6,0.3-2.1s1.6-0.4,2.1,0.3c1.9,2.5,3,5.7,3,8.9c0,8.1-6.6,14.7-14.7,14.7S35.1,64.2,35.1,56.1z"></path> <path class="st1" d="M49.9,13.8C27,13.8,8.4,32.5,8.4,55.3S27,96.8,49.9,96.8s41.5-18.6,41.5-41.5S72.7,13.8,49.9,13.8z M49.9,93.8 c-21.2,0-38.5-17.3-38.5-38.5s17.3-38.5,38.5-38.5s38.5,17.3,38.5,38.5S71.1,93.8,49.9,93.8z"></path> <g> <path class="st1" d="M72.7,56.4c1.1-0.3,2-1,2.5-2c0.6-1,0.7-2.3,0.3-3.4l-2.4-7.2c-0.3-1.1-1-2-2-2.5c-1-0.6-2.3-0.7-3.4-0.3 l-0.4,0.1c-0.2-0.2-0.4-0.5-0.6-0.7l0.2-0.3c0.5-1,0.6-2.2,0.3-3.3c-0.3-1.1-1.1-2-2.1-2.5l-6.8-3.5c-1-0.5-2.2-0.6-3.3-0.3 c-1.1,0.3-2,1.1-2.5,2.1l-0.2,0.3c-0.4,0-0.8-0.1-1.1-0.1l-0.1-0.4c-0.3-1.1-1-2-2-2.5c-1-0.6-2.3-0.7-3.4-0.3L38.3,32 c-1.1,0.3-2,1-2.5,2c-0.6,1-0.7,2.3-0.3,3.4l0.1,0.4c-0.2,0.2-0.5,0.4-0.7,0.7l-0.2-0.1c-0.9-0.5-2.1-0.7-3.2-0.3 c-1.1,0.3-2.1,1.1-2.5,2.2L25.3,47c-1.1,2.1-0.2,4.8,1.9,5.8l0.3,0.1c0,0.4-0.1,0.8-0.1,1.1L27,54.2c-1.1,0.3-2,1-2.5,2 c-0.6,1-0.7,2.3-0.3,3.4l2.4,7.2c0.3,1.1,1,2,2,2.5c1,0.6,2.3,0.7,3.4,0.3l0.4-0.1c0.2,0.2,0.4,0.5,0.6,0.7l-0.2,0.3 c-0.5,1-0.6,2.2-0.3,3.3c0.3,1.1,1.1,2,2.1,2.5l6.7,3.5c0.9,0.6,2.1,0.7,3.3,0.3c1.2-0.3,2.1-1.1,2.5-2.2l0.2-0.3 c0.4,0,0.8,0.1,1.1,0.1l0.1,0.4c0.3,1.1,1,2,2,2.5c0.6,0.3,1.3,0.5,2,0.5c0.5,0,0.9-0.1,1.4-0.2l7.3-2.4c2.2-0.7,3.5-3.1,2.9-5.3 l-0.2-0.5c0.2-0.2,0.5-0.4,0.7-0.7l0.2,0.1c0.9,0.5,2.1,0.7,3.2,0.3c1.1-0.3,2.1-1.1,2.5-2.2l3.5-6.8c1.1-2.2,0.2-4.8-1.9-5.8 l-0.3-0.1c0-0.4,0.1-0.8,0.1-1.1L72.7,56.4z M71.9,53.5l-1.2,0.4L70.5,54c-1,0.5-1.1,1.3-1.1,1.7c0,0.7-0.1,1.5-0.2,2.3v0.2 c0,0.6,0.3,1.2,0.6,1.5l0.2,0.2l1.2,0.6c0.6,0.3,0.9,1.1,0.5,1.8l-3.5,6.8v0.1c-0.1,0.3-0.3,0.5-0.6,0.5c-0.4,0.1-0.7,0.1-0.9,0 l-1.2-0.6c-1.1-0.6-1.9,0.1-2.1,0.3c-0.6,0.6-1.3,1.2-1.8,1.6l-0.1,0.1c-0.2,0.2-0.6,0.7-0.6,1.3c0,0.3,0.1,0.5,0.2,0.8l0.3,0.9 c0.1,0.6-0.2,1.4-0.9,1.6l-7.3,2.4c-0.4,0.1-0.7,0.1-1-0.1c-0.2-0.1-0.4-0.3-0.5-0.7l-0.4-1.2L51.1,76c-0.5-1-1.3-1.1-1.7-1.1 c-0.7,0-1.5-0.1-2.3-0.2h-0.2c-0.6,0-1.2,0.3-1.5,0.6l-0.2,0.2l-0.7,1.3c-0.1,0.3-0.3,0.5-0.6,0.5c-0.4,0.1-0.7,0.1-0.9,0l-7-3.6 c-0.4-0.2-0.6-0.5-0.6-0.7c-0.1-0.3-0.1-0.7,0.1-1l0.5-1c0.6-1.2-0.1-1.9-0.3-2.1c-0.6-0.6-1.2-1.3-1.6-1.8L34,67 c-0.6-0.6-1.5-0.7-2.1-0.4L31,66.9c-0.3,0.1-0.7,0.1-1-0.1c-0.2-0.1-0.4-0.3-0.6-0.8L27,58.7c-0.1-0.4-0.1-0.7,0.1-1 c0.1-0.2,0.3-0.4,0.7-0.5l1.2-0.4l0.2-0.1c1-0.5,1.1-1.3,1.1-1.7c0-0.7,0.1-1.5,0.2-2.3v-0.2c0-0.6-0.3-1.2-0.6-1.5l-0.2-0.2 l-1.2-0.6c-0.6-0.3-0.9-1.1-0.5-1.8l3.5-6.8v-0.1c0.1-0.3,0.3-0.5,0.6-0.5c0.4-0.1,0.7-0.1,0.9,0l1.2,0.6c1.1,0.6,1.9-0.1,2.1-0.3 c0.6-0.6,1.3-1.2,1.8-1.6l0.1-0.1c0.2-0.2,0.4-0.5,0.5-0.8c0.2-0.5,0.1-0.9-0.1-1.3l-0.3-0.9c-0.1-0.4-0.1-0.7,0.1-1 c0.1-0.2,0.3-0.4,0.8-0.6l7.3-2.4c0.4-0.1,0.7-0.1,1,0.1c0.2,0.1,0.4,0.3,0.5,0.7l0.4,1.2l0.1,0.2c0.5,1,1.3,1.1,1.7,1.1 c0.7,0,1.5,0.1,2.3,0.2h0.2c0.6,0,1.2-0.3,1.5-0.6l0.2-0.2l0.6-1.2c0.3-0.6,1.1-0.9,1.8-0.5l6.8,3.5c0.6,0.3,0.9,1.1,0.5,1.8 l-0.5,1C63,41,63.7,41.8,63.9,42c0.6,0.6,1.2,1.3,1.6,1.8l0.1,0.1c0.6,0.6,1.5,0.7,2.1,0.4l0.9-0.3c0.3-0.1,0.7-0.1,1,0.1 c0.2,0.1,0.5,0.3,0.6,0.8l2.4,7.3c0.1,0.3,0.1,0.7-0.1,1C72.4,53.1,72.2,53.4,71.9,53.5z"></path> <path class="st1" d="M64.6,56.1c0,8.1-6.6,14.7-14.7,14.7s-14.7-6.6-14.7-14.7c0-3.5,1.2-6.7,3.3-9.4c0.5-0.6,1.5-0.7,2.1-0.2 s0.7,1.5,0.2,2.1c-1.7,2.1-2.7,4.7-2.7,7.4c0,5.2,3.4,9.6,8.1,11.1L51.7,57l-8.5-0.9l8.6-15.5l2.6,1.5L48,53.6l8.5,0.9l-7,13.2 c0.2,0,0.3,0,0.5,0c6.5,0,11.7-5.2,11.7-11.7c0-2.6-0.9-5.1-2.4-7.1c-0.5-0.7-0.4-1.6,0.3-2.1s1.6-0.4,2.1,0.3 C63.5,49.6,64.6,52.8,64.6,56.1z"></path> </g> <g> <g> <g> <g> <path class="st1" d="M104.4,65c2.3,1.5,5.8,2.6,9.3,2.6c5.3,0,8.4-2.8,8.4-6.8c0-3.8-2.1-5.9-7.5-8C108,50.5,104,47,104,41.4 c0-6.3,5.2-10.9,13-10.9c4.1,0,7.1,0.9,8.9,2l-1.5,4.2c-1.4-0.7-4-1.9-7.6-1.9c-5.4,0-7.5,3.2-7.5,6c0,3.8,2.4,5.6,8,7.7 c6.8,2.6,10.3,5.9,10.3,11.8c0,6.2-4.6,11.5-14,11.5c-3.9,0-8.1-1.2-10.3-2.5L104.4,65z"></path> </g> <g> <path class="st1" d="M160.7,56.7c0,10.7-7.4,15.3-14.3,15.3c-7.9,0-13.8-5.8-13.8-14.9c0-9.6,6.3-15.3,14.3-15.3 C155,41.9,160.7,47.9,160.7,56.7z M137.8,57c0,6.3,3.7,11.1,8.8,11.1c5,0,8.8-4.7,8.8-11.2c0-4.9-2.4-11.1-8.6-11.1 C140.5,45.8,137.8,51.5,137.8,57z"></path> </g> <g> <path class="st1" d="M183.2,71.3l-0.4-3.7h-0.2c-1.6,2.3-4.7,4.3-8.8,4.3c-5.9,0-8.8-4.1-8.8-8.3c0-7,6.2-10.8,17.4-10.7v-0.6 c0-2.4-0.6-6.7-6.6-6.7c-2.7,0-5.4,0.8-7.5,2.1l-1.2-3.5c2.4-1.6,5.9-2.5,9.4-2.5c8.8,0,11,6,11,11.8v10.8 c0,2.5,0.1,4.9,0.5,6.9C188,71.3,183.2,71.3,183.2,71.3z M182.5,56.7c-5.8-0.1-12.3,0.9-12.3,6.5c0,3.4,2.3,5,4.9,5 c3.8,0,6.2-2.4,7-4.8c0.2-0.5,0.3-1.2,0.3-1.7v-5H182.5z"></path> </g> <g> <path class="st1" d="M196,52c0-3.7-0.1-6.7-0.2-9.4h4.7l0.2,4.9h0.1c2.1-3.6,5.6-5.6,10.3-5.6c7,0,12.3,5.9,12.3,14.7 c0,10.4-6.3,15.5-13.1,15.5c-3.8,0-7.1-1.7-8.9-4.5h-0.1v15.7H196V52z M201.2,59.6c0,0.7,0.1,1.5,0.2,2.1 c0.9,3.7,4.1,6.2,7.9,6.2c5.6,0,8.8-4.5,8.8-11.1c0-5.8-3-10.7-8.6-10.7c-3.6,0-6.9,2.5-8,6.5c-0.2,0.6-0.3,1.5-0.3,2.1 L201.2,59.6L201.2,59.6z"></path> </g> <g> <path class="st1" d="M235.3,31.2V55c0,9,4,12.8,9.3,12.8c6,0,9.7-4,9.7-12.8V31.2h5.2v23.5c0,12.4-6.5,17.4-15.2,17.4 c-8.3,0-14.5-4.7-14.5-17.2V31.2H235.3z"></path> </g> <g> <path class="st1" d="M273.8,31.2v40.1h-5.1V31.2H273.8z"></path> </g> </g> <g> <g> <path class="st1" d="M286.6,71.3h-1v-8.5h-2.9v-0.9h7v0.9h-2.9v8.5H286.6z"></path> </g> <g> <path class="st1" d="M295.2,71.3l-3.2-8.4l0,0c0.1,0.6,0.1,1.5,0.1,2.4v6h-1v-9.4h1.7l2.9,7.7l0,0l3-7.7h1.7v9.4h-1v-6.1 c0-0.7,0-1.5,0.1-2.3l0,0l-3.2,8.4C296.3,71.3,295.2,71.3,295.2,71.3z"></path> </g> </g> </g> <g> <path class="st1" d="M103.9,83.6c0-0.4,0-1,0-1.5V75h1.1v3.7l0,0c0.4-0.7,1.1-1.1,2-1.1c1.5,0,2.5,1.2,2.5,3 c0,2.1-1.3,3.2-2.6,3.2c-0.9,0-1.5-0.3-2-1.1l0,0v1L103.9,83.6L103.9,83.6z M105.1,81.2c0,0.1,0,0.3,0,0.4 c0.2,0.7,0.8,1.3,1.6,1.3c1.1,0,1.8-0.9,1.8-2.3c0-1.2-0.6-2.2-1.8-2.2c-0.7,0-1.4,0.5-1.6,1.3c0,0.1-0.1,0.3-0.1,0.4L105.1,81.2 L105.1,81.2z"></path> <path class="st1" d="M111.2,77.7l1.3,3.5c0.1,0.4,0.3,0.9,0.4,1.2l0,0c0.1-0.4,0.2-0.8,0.4-1.2l1.2-3.5h1.1l-1.6,4.2 c-0.8,2-1.3,3.1-2,3.7c-0.5,0.5-1,0.6-1.3,0.7l-0.3-0.9c0.3-0.1,0.6-0.3,0.9-0.5s0.7-0.6,0.9-1.2c0-0.1,0.1-0.2,0.1-0.3 s0-0.1-0.1-0.3l-2.2-5.4L111.2,77.7L111.2,77.7z"></path> <path class="st1" d="M119.1,82.3c0.5,0.3,1.2,0.5,1.9,0.5c1.1,0,1.7-0.6,1.7-1.4s-0.4-1.2-1.6-1.6c-1.3-0.5-2.2-1.2-2.2-2.3 c0-1.3,1.1-2.2,2.7-2.2c0.8,0,1.5,0.2,1.8,0.4l-0.3,0.9c-0.3-0.1-0.8-0.4-1.6-0.4c-1.1,0-1.6,0.7-1.6,1.2c0,0.8,0.5,1.1,1.6,1.6 c1.4,0.5,2.1,1.2,2.1,2.4c0,1.3-0.9,2.4-2.9,2.4c-0.8,0-1.7-0.2-2.1-0.5L119.1,82.3z"></path> <path class="st1" d="M133.1,80c-0.1-1.1-0.1-2.5-0.1-3.6l0,0c-0.3,1-0.6,2-1,3.1l-1.5,4h-0.8l-1.3-3.9c-0.4-1.2-0.7-2.2-1-3.2l0,0 c0,1-0.1,2.4-0.2,3.6l-0.2,3.5h-1l0.6-8.2h1.4l1.4,4c0.3,1,0.6,1.9,0.8,2.8l0,0c0.2-0.8,0.5-1.7,0.9-2.8l1.5-4h1.4l0.5,8.2h-1 L133.1,80z"></path> <path class="st1" d="M138.1,81l-0.9,2.6h-1.1l2.8-8.2h1.3l2.8,8.2h-1.1L141,81H138.1z M140.8,80.2l-0.8-2.4 c-0.2-0.5-0.3-1-0.4-1.5l0,0c-0.1,0.5-0.3,1-0.4,1.5l-0.8,2.4H140.8z"></path> <path class="st1" d="M145.2,75.5c0.5-0.1,1.3-0.2,2-0.2c1.1,0,1.9,0.2,2.4,0.7c0.4,0.4,0.6,0.9,0.6,1.6c0,1.1-0.7,1.8-1.6,2.1l0,0 c0.6,0.2,1,0.8,1.2,1.7c0.3,1.1,0.5,1.9,0.6,2.3h-1.1c-0.1-0.2-0.3-0.9-0.5-2s-0.7-1.6-1.6-1.6h-1v3.6h-1.1v-8.2H145.2z M146.2,79.2h1.1c1.1,0,1.9-0.6,1.9-1.6c0-1.1-0.8-1.5-1.9-1.5c-0.5,0-0.9,0-1,0.1v3H146.2z"></path> <path class="st1" d="M154.3,76.3h-2.5v-0.9h6.1v0.9h-2.5v7.3h-1.1V76.3z"></path> <path class="st1" d="M159.7,75.5c0.5-0.1,1.2-0.2,1.9-0.2c1.1,0,1.7,0.2,2.3,0.6c0.4,0.3,0.7,0.8,0.7,1.5c0,0.8-0.5,1.5-1.4,1.8 l0,0c0.8,0.2,1.7,0.8,1.7,2.1c0,0.7-0.3,1.2-0.7,1.6c-0.6,0.5-1.5,0.8-2.8,0.8c-0.7,0-1.3,0-1.6-0.1L159.7,75.5L159.7,75.5z M160.8,78.8h1c1.1,0,1.8-0.6,1.8-1.4c0-1-0.7-1.3-1.8-1.3c-0.5,0-0.8,0-0.9,0.1v2.6H160.8z M160.8,82.8c0.2,0,0.5,0,0.9,0 c1.1,0,2.1-0.4,2.1-1.6c0-1.1-1-1.6-2.1-1.6h-0.9V82.8z"></path> <path class="st1" d="M171.5,79.7h-3.2v3h3.6v0.9h-4.6v-8.2h4.4v0.9h-3.4v2.6h3.2V79.7z"></path> <path class="st1" d="M175.5,81l-0.9,2.6h-1.1l2.8-8.2h1.3l2.8,8.2h-1.1l-0.9-2.6H175.5z M178.2,80.2l-0.8-2.4 c-0.2-0.5-0.3-1-0.4-1.5l0,0c-0.1,0.5-0.3,1-0.4,1.5l-0.8,2.4H178.2z"></path> <path class="st1" d="M182.6,75.5c0.5-0.1,1.3-0.2,2-0.2c1.1,0,1.9,0.2,2.4,0.7c0.4,0.4,0.6,0.9,0.6,1.6c0,1.1-0.7,1.8-1.6,2.1l0,0 c0.6,0.2,1,0.8,1.2,1.7c0.3,1.1,0.5,1.9,0.6,2.3h-1.1c-0.1-0.2-0.3-0.9-0.5-2s-0.7-1.6-1.6-1.6h-1v3.6h-1.1v-8.2H182.6z M183.7,79.2h1.1c1.1,0,1.9-0.6,1.9-1.6c0-1.1-0.8-1.5-1.9-1.5c-0.5,0-0.9,0-1,0.1v3H183.7z"></path> </g> </g> </svg> 