<?xml version="1.0" encoding="UTF-8"?> <svg xmlns="http://www.w3.org/2000/svg" xmlns:xlink="http://www.w3.org/1999/xlink" version="1.1" id="Layer_1" x="0px" y="0px" viewBox="0 0 612 206" style="enable-background:new 0 0 612 206;" xml:space="preserve"> <style type="text/css"> .st0{fill-rule:evenodd;clip-rule:evenodd;fill:#FFFFFF;} .st1{fill:#499CD2;} .st2{fill:#489CD2;} .st3{fill:#FFFFFF;} </style> <path class="st0" d="M321,146.4c-9.9,6.7-23.3,4.1-30-5.7c-6.7-9.9-4.1-23.3,5.7-30c9.9-6.7,23.3-4.1,30,5.7 C333.5,126.2,330.9,139.7,321,146.4 M334.4,111.1c-9.6-14.1-28.8-17.8-42.9-8.2c-14.1,9.6-17.8,28.8-8.2,42.9 c8.5,12.5,24.5,16.8,37.8,11l11.9,19.4l9.5-6.4l-11.9-19.4C341,140.1,342.9,123.6,334.4,111.1"></path> <path class="st1" d="M588,157.5h-7.4c0-59.4-49.1-107.8-109.3-107.8v-7.4C535.7,42.3,588,94,588,157.5"></path> <path class="st2" d="M593.1,117.9c-8.9-37.3-39.1-68.4-77-79.3l1.7-5.9c40,11.5,71.9,44.4,81.2,83.8L593.1,117.9z"></path> <path class="st2" d="M601.4,82.9C592.3,63,576.7,45.6,557.6,34l2.6-4.2c20,12.1,36.2,30.2,45.7,51L601.4,82.9z"></path> <g transform="matrix(0.24,0,0,0.24,7.44816,-9.11175)"> <path class="st3" d="M-9.5,681.2c18.5,10,47,17.5,79,17.5c70,0,105.5-33.5,105.5-79.5c-0.5-35.5-19.5-59-66-75 c-30-10-39.5-16.5-39.5-28c0-12,10.5-19.5,29-19.5c20.5,0,42,8,53,13.5l13-52c-15-7.5-40-14.5-68.5-14.5 c-60.5,0-99.5,34.5-99.5,80.5c-0.5,28.5,19,56,70,73c28,9,35.5,15.5,35.5,28c0,12.5-9.5,20-32.5,20c-22.5,0-51.5-9.5-65.5-18 L-9.5,681.2z"></path> <path class="st3" d="M309.5,699.2c65,0,128.5-41,128.5-130c0-74-50-125.5-124.5-125.5c-79,0-131,50.5-131,129.5 c0,79,55,126,126.5,126H309.5z M310.5,644.7c-32,0-49.5-31.5-49.5-73c0-36.5,14-73.5,50-73.5c34.5,0,48.5,37,48.5,73 c0,44-18.5,73.5-48.5,73.5H310.5z"></path> <path class="st3" d="M460,693.7h76v-141c0-7,0.5-14,2.5-19c5.5-14,18-28.5,39-28.5c27.5,0,38.5,21.5,38.5,53v135.5h76V549.2 c0-72-37.5-105.5-87.5-105.5c-41,0-65.5,23.5-75.5,39.5h-1.5l-3.5-34h-66c1,22,2,47.5,2,78V693.7z"></path> <path class="st3" d="M931.5,549.2c0-57.5-25.5-105.5-107-105.5c-44.5,0-78,12.5-95,22l14,48.5c16-9.5,42.5-18,67.5-18 c37.5,0,44.5,18.5,44.5,31.5v3c-86.5,0-143.5,30-143.5,93.5c0,39,29.5,75,79,75c29,0,54-10.5,70-30h1.5l4.5,24.5h68.5 c-3-13.5-4-36-4-59V549.2z M858,604.7c0,4.5-0.5,9-1.5,13c-5,15.5-21,28-39.5,28c-17,0-30-9.5-30-29c0-29,31-38.5,71-38.5V604.7z"></path> <path class="st3" d="M967,693.7h76V570.2c0-6.5,0.5-12,1.5-17c5-24,24-38.5,52-38.5c8.5,0,14.5,1,20.5,2v-71.5c-5.5-1-9-1.5-16-1.5 c-24,0-53.5,15-66,51h-2l-3-45.5h-65c1.5,21,2,44.5,2,80.5V693.7z"></path> </g> <g transform="matrix(0.24,0,0,0.24,-2.94141,5.65668)"> <path class="st3" d="M1656.4,391.6h-44v148c0,8.5-1.5,16.5-4,22.5c-8,20-28.5,40.5-58,40.5c-39.5,0-54-31.5-54-77.5V391.6h-44 v141.5c0,84.5,45.5,106,83.5,106c43,0,69-25.5,80-45h1l2.5,39.5h39c-1.5-19-2-41-2-66.5V391.6z"></path> <path class="st3" d="M1704.4,571.1c0,21.5-0.5,46-2,62.5h38l2.5-40h1c18.5,32,46,45.5,81,45.5c54,0,109-43,109-130 c0-73-42-123-102-123c-39,0-67,17-82.5,44h-1V278.6h-44V571.1z M1748.4,493.1c0-7,1-13,2.5-18.5c8.5-33,36.5-54,66.5-54 c47,0,72,41.5,72,90.5c0,55.5-27,93-73.5,93c-31.5,0-57.5-21-66-51.5c-1-5-1.5-10.5-1.5-16V493.1z"></path> <path class="st3" d="M2158.4,520.6c1-5,1.5-11.5,1.5-20.5c0-44.5-20.5-114-99.5-114c-70.5,0-114,57.5-114,130.5 c0,72.5,45,122,119,122c38.5,0,65.5-8.5,81-15.5l-8-31.5c-16,7-35.5,12.5-67,12.5c-44,0-81.5-24.5-82.5-83.5H2158.4z M1989.4,489.1 c3.5-30.5,22.5-71.5,67.5-71.5c49,0,61,43.5,60.5,71.5H1989.4z"></path> </g> </svg> 