<?xml version="1.0" encoding="UTF-8"?> <svg xmlns="http://www.w3.org/2000/svg" xmlns:xlink="http://www.w3.org/1999/xlink" version="1.1" id="Layer_1" x="0px" y="0px" viewBox="0 0 612 206" style="enable-background:new 0 0 612 206;" xml:space="preserve"> <style type="text/css"> .st0{fill-rule:evenodd;clip-rule:evenodd;fill:#070707;} .st1{fill:#499CD2;} .st2{fill:#489CD2;} .st3{fill:#070707;} </style> <g id="Calque_1" transform="matrix(4.16667,0,0,4.16667,-198.749,-374.543)"> <path class="st0" d="M124.7,125c-2.4,1.6-5.6,1-7.2-1.4c-1.6-2.4-1-5.6,1.4-7.2c2.4-1.6,5.6-1,7.2,1.4 C127.7,120.2,127.1,123.4,124.7,125 M128,116.6c-2.3-3.4-6.9-4.3-10.3-2c-3.4,2.3-4.3,6.9-2,10.3c2,3,5.9,4,9.1,2.6l2.9,4.7 l2.3-1.5l-2.9-4.7C129.5,123.5,130,119.6,128,116.6"></path> <path class="st1" d="M188.8,127.7h-1.8c0-14.3-11.8-25.9-26.2-25.9v-1.8C176.3,100.1,188.8,112.5,188.8,127.7"></path> <path class="st2" d="M190.1,118.2c-2.1-8.9-9.4-16.4-18.5-19l0.4-1.4c9.6,2.8,17.3,10.6,19.5,20.1L190.1,118.2z"></path> <path class="st2" d="M192,109.8c-2.2-4.8-5.9-8.9-10.5-11.7l0.6-1c4.8,2.9,8.7,7.3,11,12.2L192,109.8z"></path> <g transform="matrix(0.24,0,0,0.24,7.44816,-9.11175)"> <path class="st3" d="M172.9,566.9c4.4,2.4,11.3,4.2,19,4.2c16.8,0,25.3-8,25.3-19.1c-0.1-8.5-4.7-14.2-15.8-18 c-7.2-2.4-9.5-4-9.5-6.7c0-2.9,2.5-4.7,7-4.7c4.9,0,10.1,1.9,12.7,3.2l3.1-12.5c-3.6-1.8-9.6-3.5-16.4-3.5 c-14.5,0-23.9,8.3-23.9,19.3c-0.1,6.8,4.6,13.4,16.8,17.5c6.7,2.2,8.5,3.7,8.5,6.7s-2.3,4.8-7.8,4.8c-5.4,0-12.4-2.3-15.7-4.3 L172.9,566.9z"></path> <path class="st3" d="M249.4,571.2c15.6,0,30.8-9.8,30.8-31.2c0-17.8-12-30.1-29.9-30.1c-19,0-31.4,12.1-31.4,31.1 s13.2,30.2,30.4,30.2H249.4z M249.7,558.1c-7.7,0-11.9-7.6-11.9-17.5c0-8.8,3.4-17.6,12-17.6c8.3,0,11.6,8.9,11.6,17.5 c0,10.6-4.4,17.6-11.6,17.6H249.7z"></path> <path class="st3" d="M285.6,569.9h18.2v-33.8c0-1.7,0.1-3.4,0.6-4.6c1.3-3.4,4.3-6.8,9.4-6.8c6.6,0,9.2,5.2,9.2,12.7v32.5h18.2 v-34.7c0-17.3-9-25.3-21-25.3c-9.8,0-15.7,5.6-18.1,9.5h-0.4l-0.8-8.2h-15.8c0.2,5.3,0.5,11.4,0.5,18.7V569.9z"></path> <path class="st3" d="M398.7,535.2c0-13.8-6.1-25.3-25.7-25.3c-10.7,0-18.7,3-22.8,5.3l3.4,11.6c3.8-2.3,10.2-4.3,16.2-4.3 c9,0,10.7,4.4,10.7,7.6v0.7c-20.8,0-34.4,7.2-34.4,22.4c0,9.4,7.1,18,19,18c7,0,13-2.5,16.8-7.2h0.4l1.1,5.9h16.4 c-0.7-3.2-1-8.6-1-14.2V535.2z M381.1,548.5c0,1.1-0.1,2.2-0.4,3.1c-1.2,3.7-5,6.7-9.5,6.7c-4.1,0-7.2-2.3-7.2-7 c0-7,7.4-9.2,17-9.2V548.5z"></path> <path class="st3" d="M407.2,569.9h18.2v-29.6c0-1.6,0.1-2.9,0.4-4.1c1.2-5.8,5.8-9.2,12.5-9.2c2,0,3.5,0.2,4.9,0.5v-17.2 c-1.3-0.2-2.2-0.4-3.8-0.4c-5.8,0-12.8,3.6-15.8,12.2h-0.5l-0.7-10.9h-15.6c0.4,5,0.5,10.7,0.5,19.3V569.9z"></path> </g> <g transform="matrix(0.24,0,0,0.24,-2.94141,5.65668)"> <path class="st3" d="M605.6,450.6H595v35.5c0,2-0.4,4-1,5.4c-1.9,4.8-6.8,9.7-13.9,9.7c-9.5,0-13-7.6-13-18.6v-32h-10.6v34 c0,20.3,10.9,25.4,20,25.4c10.3,0,16.6-6.1,19.2-10.8h0.2l0.6,9.5h9.4c-0.4-4.6-0.5-9.8-0.5-16V450.6z"></path> <path class="st3" d="M617.1,493.7c0,5.2-0.1,11-0.5,15h9.1l0.6-9.6h0.2c4.4,7.7,11,10.9,19.4,10.9c13,0,26.2-10.3,26.2-31.2 c0-17.5-10.1-29.5-24.5-29.5c-9.4,0-16.1,4.1-19.8,10.6h-0.2v-36.4h-10.6V493.7z M627.7,475c0-1.7,0.2-3.1,0.6-4.4 c2-7.9,8.8-13,16-13c11.3,0,17.3,10,17.3,21.7c0,13.3-6.5,22.3-17.6,22.3c-7.6,0-13.8-5-15.8-12.4c-0.2-1.2-0.4-2.5-0.4-3.8V475z"></path> <path class="st3" d="M726.1,481.6c0.2-1.2,0.4-2.8,0.4-4.9c0-10.7-4.9-27.4-23.9-27.4c-16.9,0-27.4,13.8-27.4,31.3 c0,17.4,10.8,29.3,28.6,29.3c9.2,0,15.7-2,19.4-3.7l-1.9-7.6c-3.8,1.7-8.5,3-16.1,3c-10.6,0-19.6-5.9-19.8-20H726.1z M685.5,474 c0.8-7.3,5.4-17.2,16.2-17.2c11.8,0,14.6,10.4,14.5,17.2H685.5z"></path> </g> </g> </svg> 