<?xml version="1.0" encoding="UTF-8"?> <svg xmlns="http://www.w3.org/2000/svg" xmlns:xlink="http://www.w3.org/1999/xlink" version="1.1" id="Layer_1" x="0px" y="0px" viewBox="0 0 180 60" style="enable-background:new 0 0 180 60;" xml:space="preserve"> <style type="text/css"> .st0{fill:#010101;} </style> <g> <g> <path class="st0" d="M70.5,49v5H67V39.3h5.9c1.1,0,2.1,0.2,3,0.6c0.9,0.4,1.5,1,2,1.8s0.7,1.6,0.7,2.6c0,1.4-0.5,2.6-1.5,3.4 c-1,0.9-2.4,1.3-4.2,1.3C72.9,49,70.5,49,70.5,49z M70.5,46.3h2.3c0.7,0,1.2-0.2,1.6-0.5s0.5-0.8,0.5-1.5s-0.2-1.2-0.6-1.6 C74,42.3,73.5,42,72.8,42h-2.4L70.5,46.3L70.5,46.3z"></path> <path class="st0" d="M86.8,46.2l-1.1-0.1c-1.1,0-1.8,0.3-2.1,1V54h-3.4V43.1h3.2l0.1,1.4c0.6-1.1,1.4-1.6,2.4-1.6 c0.4,0,0.7,0,0.9,0.1V46.2z"></path> <path class="st0" d="M87.3,48.4c0-1.1,0.2-2.1,0.6-2.9c0.4-0.9,1-1.5,1.8-2s1.7-0.7,2.8-0.7c1.6,0,2.9,0.5,3.9,1.5 c0.9,1,1.4,2.4,1.4,4.1v0.1c0,1.7-0.5,3.1-1.4,4.1s-2.2,1.5-3.8,1.5c-1.6,0-2.8-0.5-3.7-1.4c-0.9-0.9-1.5-2.2-1.5-3.8L87.3,48.4z M90.7,48.7c0,1,0.2,1.7,0.5,2.2s0.8,0.7,1.4,0.7c1.2,0,1.8-0.9,1.9-2.8v-0.3c0-2-0.6-2.9-1.9-2.9c-1.1,0-1.8,0.8-1.8,2.5 L90.7,48.7z"></path> <path class="st0" d="M109.5,48.6c0,1.7-0.4,3.1-1.1,4.1c-0.8,1-1.8,1.5-3.1,1.5c-1,0-1.8-0.4-2.5-1.1v5.1h-3.4V43.1h3.2l0.1,1 c0.7-0.8,1.5-1.2,2.6-1.2c1.3,0,2.4,0.5,3.1,1.5s1.1,2.4,1.1,4.1C109.5,48.5,109.5,48.6,109.5,48.6z M106.1,48.4 c0-1.9-0.6-2.9-1.7-2.9c-0.8,0-1.3,0.3-1.6,0.9v4.3c0.3,0.6,0.8,0.9,1.6,0.9c1.1,0,1.6-0.9,1.7-2.8V48.4z"></path> <path class="st0" d="M117.1,54c-0.1-0.2-0.2-0.5-0.3-1c-0.6,0.8-1.5,1.2-2.6,1.2c-1,0-1.9-0.3-2.6-0.9c-0.7-0.6-1.1-1.4-1.1-2.3 c0-1.2,0.4-2.1,1.3-2.7c0.9-0.6,2.1-0.9,3.8-0.9h1v-0.6c0-1-0.4-1.5-1.3-1.5c-0.8,0-1.2,0.4-1.2,1.2h-3.4c0-1.1,0.4-1.9,1.3-2.6 c0.9-0.7,2-1,3.4-1s2.5,0.3,3.3,1s1.2,1.6,1.2,2.8v4.8c0,1,0.2,1.8,0.5,2.3V54H117.1z M115,51.8c0.4,0,0.8-0.1,1.1-0.3 c0.3-0.2,0.5-0.4,0.6-0.6v-1.7h-1c-1.2,0-1.8,0.5-1.8,1.6c0,0.3,0.1,0.6,0.3,0.8C114.4,51.7,114.7,51.8,115,51.8z"></path> <path class="st0" d="M125.1,43.1l0.1,1.3c0.8-1,1.8-1.5,3.1-1.5c1.1,0,2,0.3,2.5,1c0.6,0.7,0.9,1.7,0.9,3.1v7h-3.4v-6.9 c0-0.6-0.1-1-0.3-1.2c-0.2-0.3-0.6-0.4-1.2-0.4c-0.7,0-1.2,0.3-1.5,0.8V54h-3.4V43.1H125.1z"></path> <path class="st0" d="M138.9,54.2c-1.7,0-3-0.5-4.1-1.5c-1-1-1.6-2.3-1.6-3.9v-0.3c0-1.1,0.2-2.1,0.6-3s1-1.5,1.8-2 s1.7-0.7,2.8-0.7c1.5,0,2.7,0.5,3.6,1.4c0.9,1,1.3,2.3,1.3,4v1.3h-6.8c0.1,0.6,0.4,1.1,0.8,1.4c0.4,0.4,0.9,0.5,1.6,0.5 c1.1,0,1.9-0.4,2.5-1.1l1.6,1.8c-0.4,0.6-1,1.1-1.8,1.4C140.6,54,139.8,54.2,138.9,54.2z M138.5,45.5c-1,0-1.6,0.7-1.8,2h3.4v-0.3 c0-0.5-0.1-1-0.4-1.3C139.5,45.7,139,45.5,138.5,45.5z"></path> </g> <g> <path class="st0" d="M19.3,27.2c0-1.1-0.4-2-1.2-2.7c-0.8-0.6-2.2-1.3-4.3-2c-2-0.7-3.7-1.3-5-2c-4.2-2.1-6.3-4.9-6.3-8.5 c0-1.8,0.5-3.4,1.6-4.8c1-1.4,2.5-2.4,4.4-3.2s4.1-1.1,6.5-1.1c2.3,0,4.4,0.4,6.3,1.2c1.9,0.8,3.3,2,4.3,3.6 c1,1.5,1.5,3.3,1.5,5.3h-7.8c0-1.3-0.4-2.3-1.2-3.1c-0.8-0.7-1.9-1.1-3.3-1.1s-2.5,0.3-3.3,0.9c-0.8,0.6-1.2,1.4-1.2,2.4 c0,0.8,0.4,1.6,1.3,2.3c0.9,0.7,2.5,1.4,4.7,2.1c2.2,0.7,4.1,1.5,5.5,2.3c3.5,2,5.3,4.8,5.3,8.4c0,2.8-1.1,5.1-3.2,6.7 c-2.1,1.6-5.1,2.4-8.8,2.4c-2.6,0-5-0.5-7.1-1.4S4.3,32.7,3.2,31c-1.1-1.6-1.6-3.5-1.6-5.7h7.8c0,1.7,0.4,3,1.3,3.8 c0.9,0.8,2.4,1.2,4.4,1.2c1.3,0,2.3-0.3,3.1-0.8C18.9,29,19.3,28.2,19.3,27.2z"></path> <path class="st0" d="M45.1,33.2c-1.6,2-3.7,3.1-6.4,3.1c-2.6,0-4.6-0.8-6-2.3c-1.4-1.5-2-3.7-2-6.6V11.7h7.5v15.7 c0,2.1,1,3.1,3,3.1c1.7,0,2.9-0.6,3.7-1.9V11.7h7.6v24.1h-7L45.1,33.2z"></path> <path class="st0" d="M78.9,23.9c0,3.7-0.8,6.7-2.5,9c-1.7,2.2-4,3.4-6.8,3.4c-2.2,0-4-0.8-5.5-2.4V54h-7.5V11.7h7l0.2,2.2 c1.4-1.8,3.3-2.7,5.7-2.7c3,0,5.3,1.1,6.9,3.3s2.5,5.2,2.5,9V23.9z M71.4,23.4c0-4.3-1.2-6.4-3.7-6.4c-1.8,0-3,0.6-3.6,1.9v9.5 c0.7,1.3,1.9,2,3.6,2c2.4,0,3.6-2.1,3.7-6.2V23.4z"></path> <path class="st0" d="M93.9,36.2c-3.7,0-6.7-1.1-9-3.3s-3.4-5.1-3.4-8.6v-0.6c0-2.5,0.5-4.6,1.4-6.5s2.2-3.3,4-4.4 c1.8-1,3.8-1.5,6.2-1.5c3.4,0,6.1,1.1,8,3.2c2,2.1,2.9,5,2.9,8.8v2.9H89.1c0.3,1.4,0.9,2.4,1.8,3.2c0.9,0.8,2.1,1.2,3.5,1.2 c2.4,0,4.2-0.8,5.6-2.5l3.4,4.1c-0.9,1.3-2.3,2.3-4,3.1C97.7,35.9,95.9,36.2,93.9,36.2z M93,17c-2.2,0-3.5,1.5-3.9,4.4h7.6v-0.6 c0-1.2-0.3-2.1-0.9-2.8C95.1,17.4,94.2,17,93,17z"></path> <path class="st0" d="M122.3,18.5l-3.1-0.2c-2.4,0-3.9,0.7-4.5,2.2v15.3h-7.5V11.7h7l0.2,3.1c1.3-2.4,3-3.5,5.3-3.5 c0.8,0,2.1,0.1,2.7,0.3L122.3,18.5z"></path> <path class="st0" d="M124.3,5.5c0-1.1,0.4-1.9,1.2-2.6c0.8-0.7,1.8-1,3-1s2.2,0.3,3,1s1.2,1.6,1.2,2.6c0,1.1-0.4,1.9-1.2,2.6 s-1.8,1-3,1s-2.2-0.3-3-1S124.3,6.5,124.3,5.5z M132.3,35.8h-7.5V11.7h7.5V35.8z"></path> <path class="st0" d="M136,23.5c0-2.4,0.5-4.6,1.4-6.4c0.9-1.9,2.3-3.3,4-4.3c1.8-1,3.8-1.5,6.2-1.5c3.6,0,6.5,1.1,8.5,3.4 c2.1,2.2,3.1,5.3,3.1,9.1V24c0,3.8-1,6.7-3.1,8.9s-4.9,3.3-8.5,3.3c-3.4,0-6.2-1-8.3-3.1s-3.2-4.8-3.4-8.4L136,23.5z M143.5,24 c0,2.2,0.3,3.9,1,4.9s1.7,1.6,3.1,1.6c2.7,0,4-2.1,4.1-6.2v-0.8c0-4.3-1.4-6.5-4.1-6.5c-2.5,0-3.9,1.9-4.1,5.6V24z"></path> <path class="st0" d="M177.8,18.5l-3.1-0.2c-2.4,0-3.9,0.7-4.5,2.2v15.3h-7.5V11.7h7l0.2,3.1c1.3-2.4,3-3.5,5.3-3.5 c0.8,0,2.1,0.1,2.7,0.3L177.8,18.5z"></path> </g> <g> <g> <path class="st0" d="M174.6,35.9c-1.5,0-2.7-1.2-2.7-2.7s1.2-2.7,2.7-2.7s2.7,1.2,2.7,2.7S176.1,35.9,174.6,35.9z M174.6,31.1 c-1.2,0-2.1,1-2.1,2.1s1,2.1,2.1,2.1c1.2,0,2.1-1,2.1-2.1S175.7,31.1,174.6,31.1z"></path> </g> <g> <path class="st0" d="M174.5,33.5h-0.3v0.7h-0.5v-2.1h0.8c0.2,0,0.4,0.1,0.6,0.2s0.2,0.3,0.2,0.5c0,0.1,0,0.3-0.1,0.4 c-0.1,0.1-0.2,0.2-0.3,0.2l0.4,0.8l0,0h-0.5L174.5,33.5z M174.2,33.2h0.3c0.1,0,0.2,0,0.2-0.1s0.1-0.1,0.1-0.2s0-0.2-0.1-0.2 c0-0.1-0.1-0.1-0.2-0.1h-0.3V33.2z"></path> </g> </g> </g> </svg> 