<?xml version="1.0" encoding="UTF-8"?> <svg xmlns="http://www.w3.org/2000/svg" xmlns:xlink="http://www.w3.org/1999/xlink" version="1.1" id="Layer_1" x="0px" y="0px" viewBox="0 0 180 60" style="enable-background:new 0 0 180 60;" xml:space="preserve"> <style type="text/css"> .st0{fill:#FFFFFF;} </style> <g> <g> <path class="st0" d="M70.8,48.9v5h-3.5V39.2h5.9c1.1,0,2.1,0.2,3,0.6s1.5,1,2,1.8s0.7,1.6,0.7,2.6c0,1.4-0.5,2.6-1.5,3.4 c-1,0.9-2.4,1.3-4.2,1.3H70.8z M70.8,46.2h2.3c0.7,0,1.2-0.2,1.6-0.5s0.5-0.8,0.5-1.5S75,43,74.6,42.6S73.7,42,73.1,42h-2.4 L70.8,46.2L70.8,46.2z"></path> <path class="st0" d="M87.1,46.1L86,46c-1.1,0-1.8,0.3-2.1,1v6.9h-3.4V43h3.2l0.1,1.4c0.6-1.1,1.4-1.6,2.4-1.6c0.4,0,0.7,0,0.9,0.1 V46.1z"></path> <path class="st0" d="M87.6,48.3c0-1.1,0.2-2.1,0.6-2.9c0.4-0.9,1-1.5,1.8-2s1.7-0.7,2.8-0.7c1.6,0,2.9,0.5,3.9,1.5 c0.9,1,1.4,2.4,1.4,4.1v0.1c0,1.7-0.5,3.1-1.4,4.1S94.5,54,92.9,54c-1.6,0-2.8-0.5-3.7-1.4c-0.9-0.9-1.5-2.2-1.5-3.8L87.6,48.3z M91,48.6c0,1,0.2,1.7,0.5,2.2s0.8,0.7,1.4,0.7c1.2,0,1.8-0.9,1.9-2.8v-0.3c0-2-0.6-2.9-1.9-2.9c-1.1,0-1.8,0.8-1.8,2.5L91,48.6z"></path> <path class="st0" d="M109.8,48.5c0,1.7-0.4,3.1-1.1,4.1c-0.8,1-1.8,1.5-3.1,1.5c-1,0-1.8-0.4-2.5-1.1v5.1h-3.4V43.1h3.2l0.1,1 c0.7-0.8,1.5-1.2,2.6-1.2c1.3,0,2.4,0.5,3.1,1.5S109.8,46.8,109.8,48.5C109.8,48.5,109.8,48.5,109.8,48.5z M106.4,48.3 c0-1.9-0.6-2.9-1.7-2.9c-0.8,0-1.3,0.3-1.6,0.9v4.3c0.3,0.6,0.8,0.9,1.6,0.9c1.1,0,1.6-0.9,1.7-2.8V48.3z"></path> <path class="st0" d="M117.4,53.9c-0.1-0.2-0.2-0.5-0.3-1c-0.6,0.8-1.5,1.2-2.6,1.2c-1,0-1.9-0.3-2.6-0.9c-0.7-0.6-1.1-1.4-1.1-2.3 c0-1.2,0.4-2.1,1.3-2.7c0.9-0.6,2.1-0.9,3.8-0.9h1v-0.6c0-1-0.4-1.5-1.3-1.5c-0.8,0-1.2,0.4-1.2,1.2H111c0-1.1,0.4-1.9,1.3-2.6 s2-1,3.4-1s2.5,0.3,3.3,1s1.2,1.6,1.2,2.8v4.8c0,1,0.2,1.8,0.5,2.3v0.2H117.4z M115.3,51.7c0.4,0,0.8-0.1,1.1-0.3 c0.3-0.2,0.5-0.4,0.6-0.6v-1.7h-1c-1.2,0-1.8,0.5-1.8,1.6c0,0.3,0.1,0.6,0.3,0.8C114.7,51.6,115,51.7,115.3,51.7z"></path> <path class="st0" d="M125.4,43l0.1,1.3c0.8-1,1.8-1.5,3.1-1.5c1.1,0,2,0.3,2.5,1c0.6,0.7,0.9,1.7,0.9,3.1v7h-3.4V47 c0-0.6-0.1-1-0.3-1.2c-0.2-0.3-0.6-0.4-1.2-0.4c-0.7,0-1.2,0.3-1.5,0.8v7.7h-3.4V43H125.4z"></path> <path class="st0" d="M139.1,54.1c-1.7,0-3-0.5-4.1-1.5c-1-1-1.6-2.3-1.6-3.9v-0.3c0-1.1,0.2-2.1,0.6-3c0.4-0.9,1-1.5,1.8-2 s1.7-0.7,2.8-0.7c1.5,0,2.7,0.5,3.6,1.4s1.3,2.3,1.3,4v1.3h-6.8c0.1,0.6,0.4,1.1,0.8,1.4c0.4,0.4,0.9,0.5,1.6,0.5 c1.1,0,1.9-0.4,2.5-1.1l1.6,1.8c-0.4,0.6-1,1.1-1.8,1.4C140.9,53.9,140.1,54.1,139.1,54.1z M138.8,45.4c-1,0-1.6,0.7-1.8,2h3.4 v-0.3c0-0.5-0.1-1-0.4-1.3C139.8,45.6,139.2,45.4,138.8,45.4z"></path> </g> <g> <path class="st0" d="M19.6,27.1c0-1.1-0.4-2-1.2-2.7c-0.8-0.6-2.2-1.3-4.3-2c-2-0.7-3.7-1.3-5-2c-4.2-2.1-6.3-4.9-6.3-8.5 c0-1.8,0.5-3.4,1.6-4.8c1-1.4,2.5-2.4,4.4-3.2c1.9-0.8,4.1-1.1,6.5-1.1c2.3,0,4.4,0.4,6.3,1.2c1.9,0.8,3.3,2,4.3,3.6 c1,1.5,1.5,3.3,1.5,5.3h-7.8c0-1.3-0.4-2.3-1.2-3.1c-0.8-0.7-1.9-1.1-3.3-1.1S12.6,9,11.8,9.6S10.6,11,10.6,12 c0,0.8,0.4,1.6,1.3,2.3c0.9,0.7,2.5,1.4,4.7,2.1s4.1,1.5,5.5,2.3c3.5,2,5.3,4.8,5.3,8.4c0,2.8-1.1,5.1-3.2,6.7s-5.1,2.4-8.8,2.4 c-2.6,0-5-0.5-7.1-1.4S4.6,32.7,3.5,31c-1.1-1.6-1.6-3.5-1.6-5.7h7.8c0,1.7,0.4,3,1.3,3.8c0.9,0.8,2.4,1.2,4.4,1.2 c1.3,0,2.3-0.3,3.1-0.8C19.2,28.9,19.6,28.1,19.6,27.1z"></path> <path class="st0" d="M45.4,33.1c-1.6,2-3.7,3.1-6.4,3.1c-2.6,0-4.6-0.8-6-2.3c-1.4-1.5-2-3.7-2-6.6V11.6h7.5v15.7 c0,2.1,1,3.1,3,3.1c1.7,0,2.9-0.6,3.7-1.9V11.6h7.6v24.1h-7L45.4,33.1z"></path> <path class="st0" d="M79.2,23.8c0,3.7-0.8,6.7-2.5,9c-1.7,2.2-4,3.4-6.8,3.4c-2.2,0-4-0.8-5.5-2.4v20.1h-7.5V11.6h7l0.2,2.2 c1.4-1.8,3.3-2.7,5.7-2.7c3,0,5.3,1.1,6.9,3.3c1.6,2.2,2.5,5.2,2.5,9V23.8z M71.7,23.3c0-4.3-1.2-6.4-3.7-6.4 c-1.8,0-3,0.6-3.6,1.9v9.5c0.7,1.3,1.9,2,3.6,2c2.4,0,3.6-2.1,3.7-6.2V23.3z"></path> <path class="st0" d="M94.2,36.1c-3.7,0-6.7-1.1-9-3.3c-2.3-2.2-3.4-5.1-3.4-8.6v-0.6c0-2.5,0.5-4.6,1.4-6.5s2.2-3.3,4-4.4 c1.8-1,3.8-1.5,6.2-1.5c3.4,0,6.1,1.1,8,3.2c2,2.1,2.9,5,2.9,8.8v2.9H89.4c0.3,1.4,0.9,2.4,1.8,3.2c0.9,0.8,2.1,1.2,3.5,1.2 c2.4,0,4.2-0.8,5.6-2.5l3.4,4.1c-0.9,1.3-2.3,2.3-4,3.1S96.2,36.1,94.2,36.1z M93.3,16.9c-2.2,0-3.5,1.5-3.9,4.4H97v-0.6 c0-1.2-0.3-2.1-0.9-2.8C95.4,17.3,94.5,16.9,93.3,16.9z"></path> <path class="st0" d="M122.6,18.4l-3.1-0.2c-2.4,0-3.9,0.7-4.5,2.2v15.3h-7.5V11.6h7l0.2,3.1c1.3-2.4,3-3.5,5.3-3.5 c0.8,0,2.1,0.1,2.7,0.3L122.6,18.4z"></path> <path class="st0" d="M124.6,5.4c0-1.1,0.4-1.9,1.2-2.6c0.8-0.7,1.8-1,3-1c1.2,0,2.2,0.3,3,1s1.2,1.6,1.2,2.6 c0,1.1-0.4,1.9-1.2,2.6s-1.8,1-3,1c-1.2,0-2.2-0.3-3-1S124.6,6.4,124.6,5.4z M132.6,35.7h-7.5V11.6h7.5V35.7z"></path> <path class="st0" d="M136.2,23.4c0-2.4,0.5-4.6,1.4-6.4c0.9-1.9,2.3-3.3,4-4.3c1.8-1,3.8-1.5,6.2-1.5c3.6,0,6.5,1.1,8.5,3.4 c2.1,2.2,3.1,5.3,3.1,9.1V24c0,3.8-1,6.7-3.1,8.9c-2.1,2.2-4.9,3.3-8.5,3.3c-3.4,0-6.2-1-8.3-3.1s-3.2-4.8-3.4-8.4L136.2,23.4z M143.8,23.9c0,2.2,0.3,3.9,1,4.9s1.7,1.6,3.1,1.6c2.7,0,4-2.1,4.1-6.2v-0.8c0-4.3-1.4-6.5-4.1-6.5c-2.5,0-3.9,1.9-4.1,5.6V23.9z"></path> <path class="st0" d="M178.1,18.4l-3.1-0.2c-2.4,0-3.9,0.7-4.5,2.2v15.3h-7.5V11.6h7l0.2,3.1c1.3-2.4,3-3.5,5.3-3.5 c0.8,0,2.1,0.1,2.7,0.3L178.1,18.4z"></path> </g> <g> <g> <path class="st0" d="M174.9,35.8c-1.5,0-2.7-1.2-2.7-2.7s1.2-2.7,2.7-2.7s2.7,1.2,2.7,2.7C177.6,34.6,176.4,35.8,174.9,35.8z M174.9,31c-1.2,0-2.1,1-2.1,2.1s1,2.1,2.1,2.1c1.2,0,2.1-1,2.1-2.1S175.9,31,174.9,31z"></path> </g> <g> <path class="st0" d="M174.8,33.4h-0.3v0.7h-0.5V32h0.8c0.2,0,0.4,0.1,0.6,0.2c0.1,0.1,0.2,0.3,0.2,0.5c0,0.1,0,0.3-0.1,0.4 s-0.2,0.2-0.3,0.2l0.4,0.8l0,0H175L174.8,33.4z M174.4,33.1h0.3c0.1,0,0.2,0,0.2-0.1s0.1-0.1,0.1-0.2s0-0.2-0.1-0.2 c0-0.1-0.1-0.1-0.2-0.1h-0.3V33.1z"></path> </g> </g> </g> </svg> 