<?xml version="1.0" encoding="UTF-8"?> <svg xmlns:rdf="http://www.w3.org/1999/02/22-rdf-syntax-ns#" xmlns:dc="http://purl.org/dc/elements/1.1/" xmlns:cc="http://creativecommons.org/ns#" xmlns="http://www.w3.org/2000/svg" xmlns:xlink="http://www.w3.org/1999/xlink" version="1.1" id="Layer_1" x="0px" y="0px" viewBox="0 0 180 60" style="enable-background:new 0 0 180 60;" xml:space="preserve"> <style type="text/css"> .st0{fill:#FFFFFF;} .st1{fill:#74AF37;} </style> <path class="st0" d="M20.9,35.5c0,1.2-0.2,2.2-0.7,3.2c-0.5,1-1.2,1.8-2.1,2.5c-0.9,0.7-1.9,1.2-3.2,1.6c-1.2,0.4-2.6,0.6-4,0.6 c-1.7,0-3.3-0.2-4.7-0.7c-1.4-0.5-2.7-1.3-4.1-2.4l2.3-3.7c1.1,0.9,2.1,1.6,3,2c0.9,0.4,1.8,0.6,2.7,0.6c1.1,0,2-0.3,2.7-0.9 c0.7-0.6,1-1.4,1-2.4c0-0.4-0.1-0.8-0.2-1.2c-0.1-0.4-0.4-0.8-0.7-1.1c-0.3-0.4-0.8-0.8-1.4-1.3c-0.6-0.5-1.3-1-2.3-1.7 c-0.7-0.5-1.4-1-2.1-1.5c-0.7-0.5-1.3-1.1-1.8-1.7c-0.5-0.6-1-1.3-1.3-2c-0.3-0.7-0.5-1.6-0.5-2.5c0-1.1,0.2-2.1,0.7-3 c0.5-0.9,1.1-1.7,1.9-2.3C7,17,8,16.5,9.1,16.2c1.1-0.4,2.3-0.5,3.6-0.5c1.4,0,2.7,0.2,4,0.5c1.3,0.4,2.5,0.9,3.6,1.6l-2.1,3.3 c-1.4-1-2.9-1.5-4.4-1.5c-0.9,0-1.7,0.2-2.3,0.7c-0.6,0.5-0.9,1.1-0.9,1.9c0,0.7,0.3,1.4,0.8,1.9c0.5,0.6,1.5,1.4,2.8,2.4 c1.4,1,2.5,1.9,3.3,2.6c0.9,0.7,1.6,1.4,2.1,2.1c0.5,0.7,0.9,1.3,1.1,2C20.8,34,20.9,34.7,20.9,35.5L20.9,35.5z"></path> <path class="st0" d="M50.9,23.6c-0.6-1.6-1.4-3-2.4-4.2c-1-1.2-2.3-2.1-3.7-2.7s-3-1-4.7-1c-1.9,0-3.6,0.4-5,1.1 c-1.4,0.7-2.8,1.9-4,3.4l0-3.9h-6.8v39.7h6.8V39.3c0.7,0.8,1.3,1.4,1.9,2c0.6,0.5,1.2,1,1.9,1.3c0.6,0.3,1.3,0.6,2,0.7 c0.7,0.1,1.5,0.2,2.3,0.2c1.8,0,3.5-0.4,5.1-1.1c1.5-0.7,2.9-1.7,4-3.1c1.1-1.3,2-2.8,2.7-4.6c0.7-1.8,1-3.7,1-5.7 C51.7,27,51.5,25.2,50.9,23.6z M44,32.6c-0.2,1.2-0.6,2.3-1.1,3.3c-0.5,1-1.2,1.9-2,2.5c-0.8,0.7-1.9,1-3.2,1c-2.1,0-3.8-0.8-5-2.5 c-1.2-1.7-1.8-4-1.8-7c0-3.1,0.6-5.5,1.9-7.2c1.2-1.8,2.9-2.7,5.1-2.7c2,0,3.6,0.8,4.8,2.5c1.2,1.7,1.8,4,1.8,6.9 C44.3,30.3,44.2,31.4,44,32.6z"></path> <rect x="54.8" y="3.9" class="st0" width="7" height="38.9"></rect> <path class="st0" d="M91.6,42.8V16.3h-7v14.3c0,1.3-0.1,2.3-0.2,3c-0.1,0.7-0.3,1.3-0.5,1.9c-1,2.2-2.8,3.3-5.4,3.3 c-2.1,0-3.5-0.7-4.3-2.2c-0.3-0.6-0.5-1.2-0.7-1.9c-0.1-0.7-0.2-1.7-0.2-3.1V16.3h-7v15.1c0,1,0,1.9,0,2.6c0,0.7,0.1,1.3,0.1,1.9 c0.1,0.5,0.2,1,0.2,1.5c0.1,0.4,0.2,0.8,0.4,1.2c0.6,1.6,1.7,2.9,3.1,3.7c1.4,0.8,3.2,1.2,5.3,1.2c1.9,0,3.5-0.3,4.9-1 c1.4-0.7,2.8-1.7,4.1-3.2l0,3.6L91.6,42.8L91.6,42.8z"></path> <path class="st0" d="M121.7,42.8v-15c0-1,0-1.9,0-2.6c0-0.7-0.1-1.4-0.1-1.9c-0.1-0.5-0.2-1-0.3-1.4c-0.1-0.4-0.2-0.8-0.4-1.2 c-0.6-1.6-1.7-2.8-3.1-3.7c-1.4-0.9-3.2-1.3-5.3-1.3c-1.9,0-3.5,0.3-4.9,1c-1.4,0.7-2.8,1.7-4.1,3.2l0-3.6h-7v26.5h7V28.5 c0-1.2,0-2.2,0.1-2.9c0.1-0.7,0.3-1.3,0.5-1.9c0.5-1.1,1.2-1.9,2.1-2.4s2.1-0.8,3.4-0.8c2.1,0,3.5,0.7,4.3,2.2 c0.3,0.6,0.5,1.2,0.7,1.9c0.1,0.7,0.2,1.7,0.2,3.1v15.1L121.7,42.8L121.7,42.8z"></path> <polygon class="st0" points="150.6,41.1 139.9,27.8 148.9,18.2 143.6,15.9 134.3,26.8 133.5,26.8 133.5,3.9 126.5,3.9 126.5,42.8 133.5,42.8 133.5,28.7 144.1,43.4 150.6,41.1 "></polygon> <polygon class="st1" points="177.8,31.6 177.8,27.2 156.6,16.6 156.6,21.4 173,29.4 156.6,37.5 156.6,42.1 177.8,31.6 "></polygon> <path class="st0" d="M158.7,9.7c-1.3,0-2.3,1.1-2.3,2.4c0,1.3,1,2.4,2.3,2.4c1.3,0,2.3-1.1,2.3-2.4C161,10.8,160,9.7,158.7,9.7z M158.7,14.1c-1.1,0-1.9-0.9-1.9-2c0-1.1,0.8-2,1.9-2c1,0,1.9,0.9,1.9,2C160.6,13.2,159.7,14.1,158.7,14.1z"></path> <path class="st0" d="M159.5,12.8c-0.1-0.4-0.2-0.6-0.4-0.7v0c0.3-0.1,0.5-0.3,0.5-0.6c0-0.2-0.1-0.4-0.2-0.6 c-0.2-0.1-0.4-0.2-0.8-0.2c-0.3,0-0.5,0-0.7,0.1v2.7h0.4v-1.1h0.3c0.3,0,0.5,0.1,0.6,0.5c0.1,0.3,0.1,0.6,0.2,0.7h0.5 C159.7,13.4,159.6,13.2,159.5,12.8z M158.5,12h-0.3v-0.9c0.1,0,0.2,0,0.3,0c0.5,0,0.6,0.2,0.6,0.5C159.2,11.9,158.9,12,158.5,12z"></path> <path class="st0" d="M159.5,12.8c-0.1-0.4-0.2-0.6-0.4-0.7v0c0.3-0.1,0.5-0.3,0.5-0.6c0-0.2-0.1-0.4-0.2-0.6 c-0.2-0.1-0.4-0.2-0.8-0.2c-0.3,0-0.5,0-0.7,0.1v2.7h0.4v-1.1h0.3c0.3,0,0.5,0.1,0.6,0.5c0.1,0.3,0.1,0.6,0.2,0.7h0.5 C159.7,13.4,159.6,13.2,159.5,12.8z M158.5,12h-0.3v-0.9c0.1,0,0.2,0,0.3,0c0.5,0,0.6,0.2,0.6,0.5C159.2,11.9,158.9,12,158.5,12z"></path> <path class="st0" d="M159.5,12.8c-0.1-0.4-0.2-0.6-0.4-0.7v0c0.3-0.1,0.5-0.3,0.5-0.6c0-0.2-0.1-0.4-0.2-0.6 c-0.2-0.1-0.4-0.2-0.8-0.2c-0.3,0-0.5,0-0.7,0.1v2.7h0.4v-1.1h0.3c0.3,0,0.5,0.1,0.6,0.5c0.1,0.3,0.1,0.6,0.2,0.7h0.5 C159.7,13.4,159.6,13.2,159.5,12.8z M158.5,12h-0.3v-0.9c0.1,0,0.2,0,0.3,0c0.5,0,0.6,0.2,0.6,0.5C159.2,11.9,158.9,12,158.5,12z"></path> </svg> 