<?xml version="1.0" encoding="UTF-8"?> <svg xmlns="http://www.w3.org/2000/svg" xmlns:xlink="http://www.w3.org/1999/xlink" version="1.1" id="Layer_1" x="0px" y="0px" viewBox="0 0 64 64" style="enable-background:new 0 0 64 64;" xml:space="preserve"> <style type="text/css"> .st0{fill:#CFD8DC;} .st1{fill:#B71C1C;} </style> <g> <path class="st0" d="M30.9,14.7C28.5,11,28,6.2,27.8,4.2C21.7,5.5,15.6,7.9,16,9.7c0,0.2,0.3,0.5,0.8,0.7L16,11.7 c-0.9-0.5-1.4-1.1-1.5-1.7c-0.4-2,1.8-3.8,6.9-5.5c3.4-1.2,6.9-1.9,7-1.9l0.9-0.2v0.9c0,0.1,0,6.3,2.8,10.5L30.9,14.7z"></path> <path class="st0" d="M33.4,61.6H33c-12.1,0-25.6-3.8-27.2-10.2C4.8,47.5,8,43.2,15,39l0.8,1.3c-6.3,3.8-9.3,7.6-8.5,10.8 c1.4,5.5,14.2,9,25.4,9.1c1.3-2,8.5-13.7,4.4-29.4l1.4-0.4c4.7,17.9-4.8,30.8-4.9,30.9L33.4,61.6z"></path> <path class="st0" d="M11.4,56.1c-0.8,0-1.2-0.1-1.3-0.1c-0.3-0.1-0.5-0.3-0.5-0.5c-0.1-0.3,0-0.5,0.2-0.7 c0.1-0.1,10.6-10.7,12.1-19.2l1.5,0.2c-1.2,7.3-8.5,15.7-11.3,18.8c2.9-0.2,10.1-1.5,24-9.3c-10.8-1.2-12.6-9.9-12.6-10l1.5-0.3 C25,35.5,26.7,44,38.6,44c0,0,0,0,0,0l0,0c0.3,0,0.6,0.2,0.7,0.5c0.1,0.3-0.1,0.7-0.3,0.8C22.4,55,14.3,56.1,11.4,56.1z"></path> <path class="st0" d="M18.2,59.7c-0.3,0-0.6-0.2-0.7-0.5c-0.1-0.3,0-0.7,0.3-0.9c0.1,0,2.7-2,5.5-6.3c-1.1-0.5-2.2-1-3.2-1.7 c-1.3-0.8-2.3-1.6-3-2.5c-3.8,1-7.3,1.4-10.4,1.1l0.1-1.5c2.8,0.2,5.9-0.1,9.3-0.9c-2.3-4-0.2-7.9-0.2-8l1.3,0.7 c-0.1,0.2-1.9,3.5,0.4,6.9c3.3-0.9,6.7-2.3,10.3-4.1c0.8-2.7,1.5-5.8,1.8-9.3c0-0.2,0.2-0.4,0.4-0.6c0.2-0.1,0.5-0.1,0.7,0 c0,0,4.8,2.2,8.3,3.6c0.3,0.1,0.4,0.3,0.5,0.6c0,0.3-0.1,0.5-0.3,0.7c-3.4,2.3-6.7,4.3-10,6c-1,3.3-2.3,6-3.6,8.3 c5.5,2,10.2,2.1,10.3,2.1c0.3,0,0.6,0.2,0.7,0.6c0.1,0.3-0.1,0.7-0.4,0.8C29.4,58.6,18.8,59.6,18.2,59.7 C18.3,59.7,18.3,59.7,18.2,59.7z M24.7,52.7c-1.5,2.4-3,4.1-4.2,5.2c3-0.4,8.1-1.4,12.4-3.2C30.9,54.5,27.9,53.9,24.7,52.7z M18.6,47.4c0.6,0.6,1.3,1.1,2.2,1.7c1.1,0.7,2.2,1.2,3.3,1.7c1.1-1.9,2.2-4.1,3.2-6.8C24.3,45.5,21.4,46.6,18.6,47.4z M31.1,34 c-0.3,2.6-0.8,5-1.4,7.2c2.5-1.3,5-2.8,7.5-4.5C34.9,35.7,32.4,34.6,31.1,34z"></path> <path class="st0" d="M23.3,13.7c-0.2,0-0.3-0.1-0.5-0.2c-2.4-2-5.2-6.2-5.3-6.4c-0.2-0.3-0.2-0.7,0.1-0.9c0.2-0.3,0.6-0.3,0.9-0.2 c0,0,1.4,0.6,10.7,2.1c0.3,0,0.5,0.2,0.6,0.5c0.1,0.3,0,0.5-0.1,0.7c-2.6,2.9-5.9,4.2-6,4.2C23.4,13.7,23.3,13.7,23.3,13.7z M19.9,8c0.9,1.3,2.3,3,3.5,4.1c0.8-0.3,2.5-1.2,4.1-2.7C23.6,8.8,21.3,8.3,19.9,8z"></path> <path class="st1" d="M29.1,34.1c-0.1,0-0.2,0-0.3-0.1c-0.3-0.1-0.5-0.4-0.4-0.8c0.4-4.1-5.8-5.7-5.9-5.7c-0.3-0.1-0.5-0.3-0.5-0.5 c-0.1-0.3,0-0.5,0.2-0.7c0.3-0.3,7.6-7.5,16.8-11.5c0.3-0.1,0.5-0.1,0.8,0.1c0.2,0.2,0.3,0.5,0.3,0.7c-1.8,8.5-9.9,17.8-10.3,18.2 C29.5,34,29.3,34.1,29.1,34.1z M24,26.5c1.8,0.7,4.8,2.2,5.6,5c2.1-2.7,6.7-8.8,8.4-14.7C31.6,19.9,26.1,24.6,24,26.5z"></path> <path class="st1" d="M16.1,39.9l-0.7-1.3c2.8-1.5,6-4.3,8.6-7.5c-2.2,1.5-3.5,2.6-3.5,2.6l-0.9-1.1c0.1,0,2.6-2.1,6.8-4.8 c1.2-1.9,2.1-3.8,2.5-5.6c0.1-0.3,0.1-0.6,0.2-0.9c-2.8-1-5.5-1.6-7.3-1.9c-0.3,0-0.5-0.2-0.6-0.5c-0.1-0.3,0-0.5,0.2-0.7 c0.1-0.1,3.1-3.4,6.9-5.1c0.3-0.1,0.6-0.1,0.9,0.2c0.1,0.1,2.1,2.4,1.6,7.1c1.7,0.7,3.5,1.5,5.2,2.4c4.1-1.8,8.7-3.5,13.6-4.5 c0.3-0.1,0.5,0,0.7,0.2c0.2,0.2,0.2,0.5,0.1,0.7c-1.9,4.9-7.1,10.2-7.3,10.4c-0.1,0.2-0.4,0.2-0.6,0.2c-0.2,0-0.4-0.1-0.5-0.3 c-1.7-2.1-3.8-3.8-6.2-5.2c-3.2,1.5-6.1,3.1-8.4,4.5C24.4,33.6,19.9,37.9,16.1,39.9z M37.4,23.7c1.9,1.2,3.7,2.7,5.2,4.4 c1.2-1.3,4.2-4.7,5.8-8C44.5,21,40.8,22.3,37.4,23.7z M30.5,21.8c0,0.2-0.1,0.5-0.2,0.7c-0.3,1.2-0.8,2.5-1.4,3.8 c1.6-0.9,3.4-1.9,5.4-2.8C33,22.9,31.7,22.3,30.5,21.8z M23.4,18.2c1.6,0.3,3.7,0.8,5.8,1.6c0.2-2.7-0.5-4.4-1-5.1 C26.3,15.7,24.5,17.2,23.4,18.2z"></path> <path class="st1" d="M23.4,25.4c0,6.5-5.4,11.6-9.3,15.4c-0.7,0.6-2.9,0.7-2.9,0.7c0.5-0.6,1.2-1.2,1.8-1.8 c3.7-3.6,8.8-8.5,8.8-14.3c0-6.9-2.8-9.7-5-11.9c-1-1-1.8-1.9-2.3-3.1l0.5-0.2c0.5,0.2,1.1,0.5,1.5,0.7c0.4,0.5,0.8,1,1.4,1.6 C20.3,14.7,23.4,17.8,23.4,25.4z"></path> <path class="st1" d="M60.2,27.3c0,0-0.9,0.1-1.1,0.2c-13,1.4-26.3,5.2-34,8.2c-2.8,1.1-5.6,2.5-8.3,4c0,0,0,0-0.1,0 c-1.5,0.9-5.3,2.7-8.3,4.3c4.4-4.7,12.7-8.4,16.1-9.7c7.5-3,20.4-6.6,33.1-8.2c-1.5-1.7-5.1-5.4-12.3-8.2 c-4.2-1.6-10.6-2.5-16.2-3.4c-9-1.3-14.1-2.1-14.6-4.6c-0.1-0.5,0-1,0.2-1.4c0.5,0.8,1.2,1.4,1.6,1.7c0.2,0.1,0.4,0.2,0.4,0.3l0,0 c2.1,1.1,7.8,1.9,12.5,2.6c5.7,0.8,12.2,1.8,16.5,3.4C56,20.4,59.5,26,59.6,26.3C59.8,26.5,60.2,27.3,60.2,27.3z"></path> </g> </svg> 