<?xml version="1.0" encoding="UTF-8"?> <svg xmlns="http://www.w3.org/2000/svg" xmlns:xlink="http://www.w3.org/1999/xlink" version="1.1" id="Layer_1" x="0px" y="0px" viewBox="0 0 64 64" style="enable-background:new 0 0 64 64;" xml:space="preserve"> <style type="text/css"> .st0{fill-rule:evenodd;clip-rule:evenodd;fill:#0078D7;} </style> <g id="A"> <path class="st0" d="M39.5,18L39.5,18l0.1,0L39.5,18z M39.5,23.5v-5.5H20.6c-1,0-1.6,0.8-1.6,1.7v24.4c0,1,0.8,1.8,1.6,1.8h22.5 c1,0,1.6-0.8,1.6-1.8V23.5H39.5z M39,39.1H24.7v-2.8H39V39.1z M39,34H24.7v-2.8H39V34z M39,28.7H24.7v-2.8H39V28.7z M39.5,18 L39.5,18l0.1,0L39.5,18z M39.5,23.5v-5.5H20.6c-1,0-1.6,0.8-1.6,1.7v24.4c0,1,0.8,1.8,1.6,1.8h22.5c1,0,1.6-0.8,1.6-1.8V23.5H39.5z M39,39.1H24.7v-2.8H39V39.1z M39,34H24.7v-2.8H39V34z M39,28.7H24.7v-2.8H39V28.7z M39.5,23.5v-5.5H20.6c-1,0-1.6,0.8-1.6,1.7 v24.4c0,1,0.8,1.8,1.6,1.8h22.5c1,0,1.6-0.8,1.6-1.8V23.5H39.5z M39,39.1H24.7v-2.8H39V39.1z M39,34H24.7v-2.8H39V34z M39,28.7 H24.7v-2.8H39V28.7z M39.5,18L39.5,18l0.1,0L39.5,18z M39.5,18L39.5,18l0.1,0L39.5,18z M39.5,23.5v-5.5H20.6c-1,0-1.6,0.8-1.6,1.7 v24.4c0,1,0.8,1.8,1.6,1.8h22.5c1,0,1.6-0.8,1.6-1.8V23.5H39.5z M39,39.1H24.7v-2.8H39V39.1z M39,34H24.7v-2.8H39V34z M39,28.7 H24.7v-2.8H39V28.7z M39.5,23.5v-5.5H20.6c-1,0-1.6,0.8-1.6,1.7v24.4c0,1,0.8,1.8,1.6,1.8h22.5c1,0,1.6-0.8,1.6-1.8V23.5H39.5z M39,39.1H24.7v-2.8H39V39.1z M39,34H24.7v-2.8H39V34z M39,28.7H24.7v-2.8H39V28.7z M39.5,18L39.5,18l0.1,0L39.5,18z M47.3,4.8 H16.7L1.4,32l15.4,27.2h30.5L62.6,32L47.3,4.8z M43.2,48.6H20.8c-2.4,0-4.4-2-4.4-4.5V19.7c0-2.5,2-4.5,4.4-4.5h20.4l6.5,6.6v22.2 C47.6,46.6,45.7,48.6,43.2,48.6z M39.5,18.1H20.6c-1,0-1.6,0.8-1.6,1.7v24.4c0,1,0.8,1.8,1.6,1.8h22.5c1,0,1.6-0.8,1.6-1.8V23.5 h-5.2V18.1z M39,39.1H24.7v-2.8H39V39.1z M39,34H24.7v-2.8H39V34z M39,28.7H24.7v-2.8H39V28.7z M39.5,18L39.5,18l0.1,0L39.5,18z M39.5,18L39.5,18l0.1,0L39.5,18z M39.5,23.5v-5.5H20.6c-1,0-1.6,0.8-1.6,1.7v24.4c0,1,0.8,1.8,1.6,1.8h22.5c1,0,1.6-0.8,1.6-1.8 V23.5H39.5z M39,39.1H24.7v-2.8H39V39.1z M39,34H24.7v-2.8H39V34z M39,28.7H24.7v-2.8H39V28.7z M39.5,23.5v-5.5H20.6 c-1,0-1.6,0.8-1.6,1.7v24.4c0,1,0.8,1.8,1.6,1.8h22.5c1,0,1.6-0.8,1.6-1.8V23.5H39.5z M39,39.1H24.7v-2.8H39V39.1z M39,34H24.7 v-2.8H39V34z M39,28.7H24.7v-2.8H39V28.7z M39.5,18L39.5,18l0.1,0L39.5,18z M39.5,18L39.5,18l0.1,0L39.5,18z M39.5,23.5v-5.5H20.6 c-1,0-1.6,0.8-1.6,1.7v24.4c0,1,0.8,1.8,1.6,1.8h22.5c1,0,1.6-0.8,1.6-1.8V23.5H39.5z M39,39.1H24.7v-2.8H39V39.1z M39,34H24.7 v-2.8H39V34z M39,28.7H24.7v-2.8H39V28.7z"></path> </g> </svg> 