<?xml version="1.0" encoding="UTF-8"?> <svg xmlns="http://www.w3.org/2000/svg" xmlns:xlink="http://www.w3.org/1999/xlink" version="1.1" id="Layer_1" x="0px" y="0px" viewBox="0 0 64 64" style="enable-background:new 0 0 64 64;" xml:space="preserve"> <style type="text/css"> .st0{fill:#E8762D;} .st1{fill:#C72037;} .st2{fill:#5B879B;} .st3{fill:#5C6692;} .st4{fill:#EB9129;} .st5{fill-rule:evenodd;clip-rule:evenodd;fill:#1F457E;} .st6{fill:#7199A6;} </style> <g> <path class="st0" d="M30.4,42.4h3.3v-9h8.3v-3.2h-8.3v-9h-3.3v9h-8.2v3.2h8.2V42.4z"></path> <path class="st1" d="M15.1,55.4h2.8v-8h7.4v-2.5h-7.4v-8.1h-2.8v8.1H7.7v2.5h7.4L15.1,55.4z"></path> <path class="st2" d="M46.1,26.6h2.8v-8h7.5v-2.4h-7.5V8.1h-2.8v8.1h-7.4v2.4h7.4V26.6z"></path> <path class="st3" d="M30.9,61.7h2.4V56h5.1v-2.1h-5.1v-5.7h-2.4v5.7h-5V56h5V61.7z"></path> <path class="st4" d="M15.2,26.6h2.6v-8.1h7.5v-2.3h-7.5V8.1h-2.6v8.1H7.7v2.3h7.5V26.6z"></path> <path class="st3" d="M54.6,38.5H57v-5.6h5.1v-2.2H57v-5.6h-2.4v5.6h-5v2.2h5V38.5z"></path> <path class="st5" d="M46.1,55.4h2.8v-8h7.5v-2.5h-7.5v-8.1h-2.8v8.1h-7.4v2.5h7.4V55.4z"></path> <path class="st6" d="M37.9,9.5V7.8h-5V2.3h-1.8v5.5h-5v1.7h5V15h1.8V9.5H37.9z M6.9,38.1h1.8v-5.5h5V31h-5v-5.4H6.9V31h-5v1.8 l5-0.1V38.1z"></path> </g> </svg> 