<?xml version="1.0" encoding="UTF-8"?> <svg xmlns="http://www.w3.org/2000/svg" width="64" height="64" viewBox="0 0 64 64" fill="none"><g clip-path="url(#clip0_526_10148)"><path d="M12.3641 31.5689V9.98145H52.636V19.3622V26.0739" stroke="black" stroke-miterlimit="10"></path><path d="M12.3641 40.1448V53.0188H52.636V41.8914V30.8818" stroke="black" stroke-miterlimit="10"></path><path d="M41.0873 36.4945V26.6231L32.4999 21.6973L23.8928 26.6231V36.4945L32.4999 41.4203L41.0873 36.4945Z" stroke="black" stroke-miterlimit="10"></path><path d="M41.0873 36.4945V26.6231L32.4999 21.6973L23.8928 26.6231V36.4945L32.4999 41.4203L41.0873 36.4945Z" stroke="url(#paint0_linear_526_10148)" stroke-miterlimit="10"></path><path d="M23.8928 26.623L32.4999 31.5685L41.0873 26.623" stroke="black" stroke-miterlimit="10"></path><path d="M23.8928 26.623L32.4999 31.5685L41.0873 26.623" stroke="url(#paint1_linear_526_10148)" stroke-miterlimit="10"></path><path d="M16.2926 24.4839L32.5 15.1816L61.0259 31.5685L52.4978 36.4551" stroke="black" stroke-miterlimit="10"></path><path d="M48.7667 38.5947L32.5 47.9362L3.97412 31.5689L12.3641 26.7412" stroke="black" stroke-miterlimit="10"></path><path d="M32.5 30.7246V41.4202" stroke="black" stroke-miterlimit="10"></path><path d="M32.5 30.7246V41.4202" stroke="url(#paint2_linear_526_10148)" stroke-miterlimit="10"></path></g><defs><linearGradient id="paint0_linear_526_10148" x1="29.6479" y1="28.4446" x2="49.6094" y2="43.5803" gradientUnits="userSpaceOnUse"><stop offset="0.236106" stop-color="#DA291C"></stop><stop offset="1" stop-color="#FFCD00"></stop></linearGradient><linearGradient id="paint1_linear_526_10148" x1="29.6479" y1="28.3149" x2="32.747" y2="37.6865" gradientUnits="userSpaceOnUse"><stop offset="0.236106" stop-color="#DA291C"></stop><stop offset="1" stop-color="#FFCD00"></stop></linearGradient><linearGradient id="paint2_linear_526_10148" x1="32.8347" y1="34.3836" x2="34.6511" y2="34.5313" gradientUnits="userSpaceOnUse"><stop offset="0.236106" stop-color="#DA291C"></stop><stop offset="1" stop-color="#FFCD00"></stop></linearGradient><clipPath id="clip0_526_10148"><rect width="61" height="45" fill="white" transform="translate(2 9)"></rect></clipPath></defs></svg> 