<?xml version="1.0" encoding="UTF-8"?> <svg xmlns="http://www.w3.org/2000/svg" xmlns:xlink="http://www.w3.org/1999/xlink" version="1.1" id="Layer_1" x="0px" y="0px" viewBox="0 0 180 60" style="enable-background:new 0 0 180 60;" xml:space="preserve"> <style type="text/css"> .st0{fill:#FFFFFF;} .st1{fill:#4040B2;} .st2{fill:#5C4EE5;} </style> <path class="st0" d="M56.6,14.4v-2.3h-2.1v2.3h-1V9h1.1v2.3h2.1V9h1.1v5.4H56.6z M61.5,14.4h-0.8l-0.1-0.3c-0.4,0.2-0.8,0.4-1.2,0.4 c-0.7,0-1.1-0.5-1.1-1.2c0-0.8,0.4-1.1,1.2-1.1h1v-0.4c0-0.4-0.1-0.6-0.8-0.6c-0.4,0-0.8,0-1.1,0.1l-0.1-0.7 c0.5-0.1,0.9-0.2,1.4-0.2c1.3,0,1.7,0.4,1.7,1.4L61.5,14.4z M60.5,12.9h-0.8c-0.3,0-0.4,0.1-0.4,0.4c0,0.3,0.1,0.4,0.4,0.4 c0.3,0,0.5-0.1,0.8-0.2L60.5,12.9z M63.6,14.5c-0.5,0-0.9-0.1-1.4-0.2l0.1-0.8c0.4,0.1,0.8,0.2,1.2,0.2c0.5,0,0.5-0.1,0.5-0.4 c0-0.3,0-0.4-0.7-0.5c-1-0.2-1.1-0.5-1.1-1.2c0-0.8,0.3-1.2,1.5-1.2c0.4,0,0.8,0,1.2,0.1l-0.1,0.8c-0.4-0.1-0.7-0.1-1.1-0.1 c-0.4,0-0.5,0.1-0.5,0.3c0,0.2,0,0.3,0.6,0.5c1.1,0.3,1.2,0.4,1.2,1.2S64.9,14.5,63.6,14.5z M68.3,14.4v-2.7c0-0.2-0.1-0.3-0.3-0.3 c-0.4,0-0.7,0.1-1.1,0.3v2.7h-1V8.9l1,0.2v1.7c0.5-0.2,1-0.4,1.5-0.4c0.7,0,0.9,0.5,0.9,1.2v2.8L68.3,14.4z M70.2,10V9h1v1L70.2,10z M70.2,14.4v-3.9h1v3.9L70.2,14.4z M72,10.5c0-1,0.6-1.6,2-1.6c0.5,0,1,0.1,1.5,0.2L75.4,10C75,10,74.5,9.9,74.1,9.9 c-0.7,0-1,0.2-1,0.8v2c0,0.6,0.2,0.8,1,0.8c0.5,0,0.9-0.1,1.4-0.1l0.1,0.9c-0.5,0.1-1,0.2-1.5,0.2c-1.4,0-2-0.6-2-1.6V10.5z M77.8,14.5c-1.4,0-1.8-0.7-1.8-1.5v-1c0-0.8,0.4-1.5,1.8-1.5s1.8,0.7,1.8,1.5v1C79.6,13.7,79.2,14.5,77.8,14.5z M77.8,11.3 c-0.5,0-0.8,0.2-0.8,0.7V13c0,0.4,0.2,0.7,0.8,0.7s0.8-0.2,0.8-0.7v-1.1C78.6,11.5,78.4,11.2,77.8,11.3L77.8,11.3z M82.5,11.3 c-0.4,0.2-0.7,0.4-1.1,0.6v2.5h-1v-3.9h0.9l0.1,0.4c0.3-0.2,0.7-0.4,1.1-0.5L82.5,11.3z M86.6,13.1c0.1,0.7-0.3,1.3-1,1.4 c-0.1,0-0.2,0-0.3,0c-0.4,0-0.7,0-1.1-0.1V16l-1,0.2v-5.6h0.8l0.1,0.3c0.4-0.3,0.8-0.4,1.3-0.4c0.8,0,1.3,0.5,1.3,1.4V13.1z M84.1,13.5c0.3,0.1,0.6,0.1,0.9,0.1c0.4,0,0.5-0.2,0.5-0.5v-1.4c0-0.3-0.1-0.5-0.5-0.5c-0.3,0-0.7,0.1-0.9,0.4V13.5z M59.7,22.6 h-6.2v-3.7h16.7v3.7h-6.2v18.6h-4.2L59.7,22.6z"></path> <path class="st0" d="M74,38.2c1.7,0,3.4-0.3,5-0.8l0.6,3.1c-1.9,0.7-4,1-6,1c-5.1,0-6.9-2.4-6.9-6.3v-4.3c0-3.5,1.5-6.4,6.8-6.4 s6.4,3.1,6.4,6.6v3.5h-9.1v0.8C70.8,37.4,71.5,38.2,74,38.2L74,38.2z M70.8,31.4H76v-0.8c0-1.5-0.5-2.6-2.5-2.6s-2.7,1.1-2.7,2.6 V31.4z M90.8,28.3c-1.5,0.7-3,1.5-4.3,2.4v10.5h-4.1V24.9h3.5l0.3,1.8c1.3-0.9,2.8-1.6,4.3-2.1L90.8,28.3z M100.8,28.3 c-1.5,0.7-3,1.5-4.3,2.4v10.5h-4.1V24.9h3.5l0.3,1.8c1.3-0.9,2.8-1.6,4.3-2.1L100.8,28.3z M114.5,41.2h-3.4l-0.3-1.1 c-1.4,0.9-3.1,1.4-4.9,1.4c-3,0-4.3-2-4.3-4.9c0-3.3,1.4-4.6,4.8-4.6h3.9v-1.7c0-1.8-0.5-2.4-3.1-2.4c-1.5,0-3,0.2-4.5,0.5l-0.5-3.1 c1.8-0.5,3.7-0.8,5.6-0.8c5.1,0,6.6,1.8,6.6,5.9L114.5,41.2z M110.4,35h-3c-1.3,0-1.7,0.4-1.7,1.6c0,1.2,0.4,1.6,1.6,1.6 c1.1,0,2.1-0.3,3.1-0.8L110.4,35z M127.1,21.2c-0.8-0.2-1.6-0.3-2.4-0.3c-1.6,0-1.8,0.7-1.8,1.9v2h4.2l-0.2,3.3h-3.9v13.1h-4.1V28.1 h-2.6v-3.3h2.6v-2.3c0-3.4,1.6-5.1,5.2-5.1c1.2,0,2.4,0.2,3.5,0.5L127.1,21.2z M135.1,41.6c-5.6,0-7.1-3.1-7.1-6.4V31 c0-3.4,1.5-6.4,7.1-6.4s7.1,3.1,7.1,6.4v4.1C142.2,38.5,140.7,41.6,135.1,41.6z M135.1,28c-2.2,0-3,1-3,2.8v4.4c0,1.8,0.8,2.8,3,2.8 c2.2,0,3-1,3-2.8v-4.4C138.1,29,137.3,28,135.1,28z M152.7,28.3c-1.5,0.7-3,1.5-4.3,2.4v10.5h-4.1V24.9h3.5l0.3,1.8 c1.3-0.9,2.8-1.6,4.3-2.1L152.7,28.3z M164,41.2V29.8c0-0.9-0.4-1.3-1.3-1.3c-1.5,0.2-2.9,0.7-4.3,1.4v11.3h-4.1V24.9h3.1l0.4,1.4 c2-1,4.3-1.6,6.6-1.7c1.3-0.1,2.5,0.6,3.1,1.7c2-1,4.3-1.6,6.6-1.7c2.7,0,3.7,1.9,3.7,4.8v11.8h-4.1V29.8c0-0.9-0.4-1.3-1.3-1.3 c-1.5,0.2-3,0.6-4.3,1.4v11.3H164z"></path> <path class="st1" d="M27.8,23.1v13.3l11.5-6.6V16.4L27.8,23.1z"></path> <path class="st2" d="M15,16.4l11.5,6.7v13.3L15,29.7C15,29.7,15,16.4,15,16.4z"></path> <path class="st2" d="M2.3,9v13.3l11.5,6.6V15.6L2.3,9z M15,44.5l11.5,6.6V37.8L15,31.2C15,31.2,15,44.5,15,44.5z"></path> </svg> 