<?xml version="1.0" encoding="UTF-8"?> <svg xmlns="http://www.w3.org/2000/svg" xmlns:xlink="http://www.w3.org/1999/xlink" version="1.1" id="Layer_1" x="0px" y="0px" viewBox="0 0 180 60" style="enable-background:new 0 0 180 60;" xml:space="preserve"> <style type="text/css"> .st0{fill:#FFFFFF;} </style> <polygon class="st0" points="20.4,47.8 14.6,47.8 14.6,17.2 4.1,17.2 4.1,12.2 30.9,12.2 30.9,17.2 20.4,17.2 "></polygon> <path class="st0" d="M58,32.5c0-3.8-1-6.8-3.1-8.9c-2.1-2.2-4.9-3.2-8.4-3.2c-3.8,0-6.8,1.3-9,3.8c-2.2,2.5-3.3,6-3.3,10.4 c0,4.3,1.2,7.7,3.5,10.1c2.4,2.4,5.6,3.7,9.8,3.7c1.8,0,3.5-0.1,4.9-0.4c1.4-0.3,2.8-0.8,4.2-1.4v-4.6c-1.6,0.7-3,1.2-4.4,1.5 c-1.4,0.3-2.8,0.4-4.4,0.4c-2.4,0-4.3-0.7-5.6-2.1c-1.3-1.4-2-3.4-2.1-6h18V32.5z M40.2,31.5c0.2-2.2,0.9-3.9,2-5 c1.1-1.2,2.6-1.7,4.4-1.7s3.2,0.6,4.3,1.7c1,1.1,1.6,2.8,1.6,5H40.2z"></path> <path class="st0" d="M82.6,40.1c0,2.6-1,4.7-2.9,6.1c-1.9,1.4-4.7,2.1-8.2,2.1c-3.6,0-6.5-0.5-8.7-1.6v-4.9c3.2,1.5,6.1,2.2,8.8,2.2 c3.5,0,5.3-1.1,5.3-3.2c0-0.7-0.2-1.3-0.6-1.7c-0.4-0.5-1-0.9-1.9-1.4c-0.9-0.5-2.1-1-3.7-1.7c-3.1-1.2-5.2-2.4-6.3-3.6 c-1.1-1.2-1.6-2.8-1.6-4.7c0-2.3,0.9-4.1,2.8-5.4c1.9-1.3,4.4-1.9,7.6-1.9c3.2,0,6.2,0.6,9,1.9l-1.9,4.3c-2.9-1.2-5.4-1.8-7.3-1.8 c-3,0-4.5,0.9-4.5,2.6c0,0.8,0.4,1.6,1.2,2.1c0.8,0.6,2.5,1.4,5.2,2.4c2.2,0.9,3.8,1.6,4.8,2.4c1,0.7,1.8,1.5,2.2,2.5 C82.4,37.7,82.6,38.8,82.6,40.1z"></path> <path class="st0" d="M98.9,43.7c1.4,0,2.8-0.2,4.2-0.7v4.3c-0.6,0.3-1.5,0.5-2.5,0.7c-1,0.2-2,0.3-3.1,0.3c-5.4,0-8.1-2.9-8.1-8.6 V25.2h-3.7v-2.5l3.9-2.1l1.9-5.7h3.5v6h7.7v4.3h-7.7v14.4c0,1.4,0.3,2.4,1,3.1C96.9,43.4,97.8,43.7,98.9,43.7z"></path> <path class="st0" d="M138.8,47.8h-7.1l-17.5-28.4h-0.2l0.1,1.6c0.2,3,0.3,5.8,0.3,8.3v18.5h-5.3V12.2h7.1l17.5,28.2h0.1 c0-0.4-0.1-1.7-0.2-4.1c-0.1-2.4-0.1-4.2-0.1-5.5V12.2h5.3V47.8z"></path> <path class="st0" d="M162.8,28.5h13.1v17.9c-2.1,0.7-4.2,1.2-6.2,1.5c-2,0.3-4.1,0.4-6.4,0.4c-5.4,0-9.6-1.6-12.5-4.8 c-2.9-3.2-4.4-7.7-4.4-13.5c0-5.7,1.6-10.2,4.9-13.5c3.3-3.2,7.8-4.9,13.6-4.9c3.7,0,7.2,0.7,10.6,2.1l-2,4.8c-2.9-1.3-5.8-2-8.7-2 c-3.8,0-6.8,1.2-9,3.6c-2.2,2.4-3.3,5.7-3.3,9.8c0,4.4,1,7.7,3,9.9c2,2.3,4.9,3.4,8.6,3.4c1.9,0,3.9-0.2,6-0.7v-9.2h-7.4V28.5z"></path> </svg> 