<?xml version="1.0" encoding="UTF-8"?> <svg xmlns:svg="http://www.w3.org/2000/svg" xmlns="http://www.w3.org/2000/svg" xmlns:xlink="http://www.w3.org/1999/xlink" version="1.1" id="svg7217" x="0px" y="0px" viewBox="0 0 744.1 275.3" style="enable-background:new 0 0 744.1 275.3;" xml:space="preserve"> <style type="text/css"> .st0{fill-rule:evenodd;clip-rule:evenodd;fill:#BE372F;} .st1{fill-rule:evenodd;clip-rule:evenodd;fill:#FFFFFF;} </style> <path id="path10" class="st0" d="M137.6,47.1c12,0,26.2,1.2,30.5,3.4c0,3.2,0,14.1,0,15.2c0,15.3,8.7,17.5,8.7,17.5s0,6.6,0,14.1 c0,9.8-2.2,16.4-2.2,16.4c-4.4,1.1-15.3,4.3-27.3,13.1c-8.7,6.6-16.4,16.4-16.4,26.2c0,6.5,1.1,10.9,3.4,15.2c0,0-4.4,2.2-12.1,2.2 c-9.7-1.1-20.6-8.7-27.2-20.7c-8.7-15.2-13.1-33.8-22.9-33.8c-9.8,0-9.8,9.8-17.5,9.8c-8.7,0-14.1-14.1-16.3-20.7 c-5.5-9.8-18.6-13.1-19.6-28.4h41.4c0-22.9,0-35.9,0-58.8c15.2,0,23.9,0,39.2,0v25c1.2,1.1,4.4,2.2,8.7,3.2l-4.3,19.6h-12l-4.4,17.5 h12L95.1,105c0,3.2-1.1,10.9,0,14.1c2.2,8.7,7.7,12,15.2,12c10.9,0,20.7-5.4,20.7-5.4l4.4-14.1c-2.2,0-5.5,0-7.7,0s-4.3,0-3.2-5.5 l5.4-22.9h12l4.4-17.5h-12L137.6,47.1"></path> <path id="path14" class="st0" d="M113.6,53.7h15.2l-12,56.8h-15.2L113.6,53.7"></path> <path id="path18" class="st0" d="M124.5,33c4.3,0,8.7,3.2,8.7,8.7c0,4.3-4.4,7.7-8.7,7.7c-4.4,0-8.7-3.4-8.7-7.7 C115.8,36.2,120.1,33,124.5,33"></path> <path id="path22" class="st1" d="M504,102.8c8.7,0,14.1,1.1,15.2,2.2c2.2,0,1.1-1.1,2.2-2.2h1.2l5.4,15.2l-2.2,1.1 c-3.2-4.3-9.8-8.6-20.7-8.6c-4.3,0-13.1,1.1-13.1,7.5c0,13.1,40.4,5.5,40.4,31.6c0,12-9.8,20.7-28.4,20.7c-6.6,0-12-1.1-17.5-3.2 c-1.1,0-2.2,1.1-2.2,2.2l-2.2,1.1l-6.6-19.6l2.2-1.1c5.5,6.6,13.2,12,26.2,12c10.9,0,14.1-4.3,14.1-8.6c0-15.3-39.3-5.5-39.3-31.8 C478.8,109.3,490.9,102.8,504,102.8"></path> <path id="path26" class="st1" d="M277.1,169.3v-2.2c4.4-1.1,6.6-2.2,6.6-8.7v-44.7c0-6.6-2.2-7.7-6.6-8.7v-2.2h51.3l5.5,14.1 l-2.2,1.1c-4.4-5.4-8.7-6.5-16.4-6.5c-1.1,0-12,0-12,0c-4.4,0-5.5,1.1-5.5,4.3V130h17.5c6.6,0,7.7-1.1,8.7-4.3h2.2v17.5h-2.2 c-1.1-3.4-2.2-4.4-8.7-4.4h-17.5v17.5c0,4.3,1.1,4.3,5.5,4.3c0,0,14.1,0,15.2,0c6.6,0,12,0,17.5-6.5l1.1,1.1l-4.3,14.1H277.1"></path> <path id="path30" class="st1" d="M260.8,158.4c0,6.6,2.2,7.7,5.4,8.7v2.2H238v-2.2c3.2-1.1,6.5-2.2,6.5-8.7V95.1 c0-3.2-2.2-3.2-6.5-3.2c-14.3,0-19.6,0-25.2,5.4h-1.1l5.5-15.2H288l5.5,15.2h-2.2c-4.4-5.4-10.9-5.4-25.2-5.4c-4.3,0-5.4,0-5.4,3.2 V158.4"></path> <path id="path34" class="st1" d="M365.5,136.6L347,112.6c-3.2-5.5-5.5-6.6-9.8-7.7v-2.2h30.5v2.2c-3.2,0-5.5,3.2-2.2,7.7l8.6,13.1 l11-14.1c2.2-3.4,2.2-6.6-2.3-6.6v-2.2H408v2.2c-4.4,1.1-7.7,2.2-12,6.6l-15.3,21.8l18.6,26.1c2.2,3.2,4.3,5.5,4.3,5.5 s3.4-1.1,7.7-12l20.7-50.2H445l24.1,56.6c1.1,3.2,4.3,6.6,7.5,7.7v2.2h-28.3v-2.2c2.2,0,6.5-1.1,3.2-7.7l-3.2-8.7h-27.3l-3.2,8.7 c-3.4,6.6,2.2,7.7,3.2,7.7v2.2h-42.5v-2.2c2.2,0,7.7-2.2,3.2-7.7l-10.9-14.1L360,160.5c-3.2,4.4,0,6.6,2.2,6.6v2.2h-25v-2.2 c4.3-1.1,8.7-3.2,12-8.7L365.5,136.6z M435.2,115.9l-10.9,26.2H445L435.2,115.9"></path> <path id="path38" class="st1" d="M24.2,179.1c0-6.6-3.2-7.7-6.5-8.7v-1.1H46v1.1c-2.2,1.1-5.4,2.2-5.4,8.7v66.5 c0,6.6,3.2,7.7,5.4,8.7v2.2H17.7v-2.2c3.2-1.1,6.5-2.2,6.5-8.7V179.1"></path> <path id="path42" class="st1" d="M114.7,256.5h-2.2l-44.8-46.8v35.9c0,6.6,3.4,7.7,5.5,8.7v2.2H53.6v-2.2c3.2-1.1,5.4-2.2,5.4-8.7 v-44.7c0-6.6-2.2-7.7-5.4-8.7V190h18.6l33.8,37.1v-26.2c0-6.6-2.2-7.7-5.4-8.7V190h20.6v2.2c-3.2,1.1-6.5,2.2-6.5,8.7V256.5"></path> <path id="path46" class="st1" d="M373.1,233.6c0,19.6-17.4,23.9-28.3,23.9c-12,0-29.5-4.3-29.5-22.9v-33.8c0-6.6-3.2-8.7-6.6-8.7 V190h27.3v2.2c-3.2,0-6.6,2.2-6.6,8.7v32.7c0,10.9,6.6,15.3,17.5,15.3c9.8,0,17.5-4.4,17.5-15.3v-32.7c0-6.6-3.4-7.7-6.6-8.7V190 h20.7v2.2c-3.2,1.1-5.5,2.2-5.5,8.7V233.6"></path> <path id="path50" class="st1" d="M203,203c0-4.3,0-4.3-3.2-4.3c-10.9,0-13.1,0-19.6,7.7l-1.1-1.1l4.3-15.3H238l5.4,15.3l-2.2,1.1 c-5.5-7.7-7.7-7.7-18.6-7.7c-3.2,0-4.3,0-4.3,4.3v42.5c0,6.6,2.2,7.7,6.5,8.7v2.2h-27.2v-2.2c4.3-1.1,5.4-2.2,5.4-8.7V203"></path> <path id="path54" class="st1" d="M152.9,188.9c7.5,0,13.1,2.2,14.1,2.2c2.2,1.1,2.2-1.1,2.2-1.1l2.2-1.1l4.4,16.4h-2.3 c-3.2-3.4-8.6-7.7-19.5-7.7c-5.5,0-14.3,1.1-14.3,7.7c0,12,41.4,5.4,41.4,31.5c0,12.1-9.8,19.6-28.3,19.6c-7.7,0-13.2-1.1-18.6-2.2 c-1.1,0-1.1,1.1-2.3,1.1c0,1.1-2.2,1.1-2.2,1.1l-6.5-18.4l2.2-1.2c5.4,6.6,13.1,12.1,26.1,12.1c10.9,0,14.3-4.4,14.3-8.7 c0-15.3-39.3-5.5-39.3-31.6C126.7,196.6,139.8,188.9,152.9,188.9"></path> <path id="path58" class="st1" d="M461.5,245.6c0,6.6,3.2,7.7,6.5,8.7v2.2h-27.2v-2.2c3.2-1.1,6.5-2.2,6.5-8.7v-31.6l-23.9,43.6h-2.2 l-23.9-44.7v32.7c0,6.6,3.2,7.7,6.5,8.7v2.2h-20.7v-2.2c2.3-1.1,5.5-2.2,5.5-8.7v-44.7c0-6.6-3.2-7.7-5.5-8.7V190h20.7l21.8,43.6 l24.1-43.6h18.4v2.2c-3.2,1.1-6.5,2.2-6.5,8.7V245.6"></path> <path id="path62" class="st1" d="M598.8,256.5h-2.2l-44.8-46.8v35.9c0,6.6,3.4,7.7,5.5,8.7v2.2h-20.7v-2.2c3.2-1.1,6.6-2.2,6.6-8.7 v-44.7c0-6.6-2.3-7.7-6.6-8.7V190h19.6l33.8,37.1v-26.2c0-6.6-3.2-7.7-6.6-8.7V190h20.9v2.2c-2.3,1.1-5.5,2.2-5.5,8.7V256.5"></path> <path id="path66" class="st1" d="M475.6,256.5v-2.2c3.2-1.1,5.5-3.2,5.5-8.7v-44.7c0-6.6-2.3-7.7-5.5-8.7V190h51.3l4.4,14.1 l-1.2,1.2c-4.3-5.5-9.8-6.6-16.3-6.6c-1.1,0-13.1,0-13.1,0c-3.4,0-4.4,1.1-4.4,4.3v14.3h16.4c6.5,0,8.6-2.3,8.6-4.4h2.3v17.5h-2.3 c0-3.2-2.2-4.3-8.6-4.3h-16.4v17.4c0,3.4,1.1,4.4,4.4,4.4c0,0,14.1,0,15.2,0c6.6,0,13.1,0,17.5-6.6l2.2,1.1l-5.5,14.1H475.6"></path> <path id="path70" class="st1" d="M629.4,203c0-4.3-1.1-4.3-3.4-4.3c-12,0-13.1,0-19.5,7.7l-1.2-1.1l4.4-15.3h54.5l5.5,15.3l-2.2,1.1 c-5.5-7.7-7.7-7.7-18.6-7.7c-3.4,0-4.4,0-4.4,4.3v42.5c0,6.6,2.2,7.7,6.6,8.7v2.2h-27.3v-2.2c3.4-1.1,5.5-2.2,5.5-8.7V203"></path> <path id="path74" class="st1" d="M698,188.9c7.7,0,13.2,2.2,15.3,2.2c1.1,1.1,1.1-1.1,1.1-1.1c1.1,0,2.2-1.1,2.2-1.1l4.3,16.4h-1.1 c-3.2-3.4-9.8-7.7-20.6-7.7c-5.5,0-13.2,1.1-13.2,7.7c0,12,40.4,5.4,40.4,31.5c0,12.1-9.8,19.6-28.4,19.6c-7.5,0-13.1-1.1-18.4-2.2 c-1.1,0-1.1,1.1-1.1,1.1c-1.2,1.1-2.3,1.1-2.3,1.1l-7.5-18.4l2.2-1.2c5.4,6.6,14.1,12.1,26.1,12.1c10.9,0,14.3-4.4,14.3-8.7 c0-15.3-39.3-5.5-39.3-31.6C671.9,196.6,684.9,188.9,698,188.9"></path> <path id="path78" class="st1" d="M279.3,190c14.3,0,25.2,5.5,25.2,17.5c0,13.1-12,15.2-18.6,16.3c17.5,6.6,18.6,29.5,29.5,29.5v1.1 c-2.2,1.1-4.3,2.2-9.8,2.2c-23.9,0-18.6-29.3-33.8-29.3h-7.7v18.4c0,6.6,2.2,7.7,5.5,8.7v2.2h-26.2v-2.2c3.2-1.1,5.5-2.2,5.5-8.7 v-44.7c0-6.6-2.3-7.7-5.5-8.7V190H279.3z M264.1,219.5h8.7c7.7,0,16.3-3.2,16.3-10.9c0-4.4-3.2-10.9-13.1-10.9h-7.5 c-3.4,0-4.4,1.1-4.4,5.4V219.5"></path> </svg> 