<?xml version="1.0" encoding="UTF-8"?> <svg xmlns="http://www.w3.org/2000/svg" xmlns:xlink="http://www.w3.org/1999/xlink" version="1.1" id="Layer_1" x="0px" y="0px" viewBox="0 0 180 60" style="enable-background:new 0 0 180 60;" xml:space="preserve"> <g> <path d="M53.5,14v14.6H50V14h-4.6v-3.1h12.7V14H53.5L53.5,14z"></path> <path d="M67.1,28.6v-7.9c0-1.7-1.1-2.3-2.1-2.3s-2.1,0.6-2.1,2.3v7.9h-3.2V10.9h3.2v6c0.8-0.9,1.9-1.3,3.1-1.3c2.8,0,4.3,2,4.3,4.7 v8.4L67.1,28.6L67.1,28.6z"></path> <path d="M75.1,23.1c-0.1,1.5,1,2.8,2.5,2.9c0.1,0,0.3,0,0.4,0c1.1,0.1,2.2-0.4,2.9-1.2l2,1.9c-1.2,1.4-3.1,2.1-4.9,2 c-3.1,0-6-1.4-6-6.6c0-4.2,2.3-6.6,5.7-6.6c3.6,0,5.7,2.6,5.7,6.2v1.4L75.1,23.1L75.1,23.1z M79.8,19.5c-0.6-1.2-2-1.7-3.2-1.1 c-0.5,0.2-0.9,0.6-1.1,1.1c-0.2,0.4-0.3,0.9-0.3,1.4h4.9C80.1,20.5,79.9,20,79.8,19.5L79.8,19.5z"></path> <path d="M105.4,28.6h-2.9l-3.3-10.8L96,28.6h-2.9l-4.7-17.7H92l2.7,11.2l3.2-11.2h2.6l3.2,11.2l2.8-11.2h3.6L105.4,28.6z"></path> <path d="M112.8,23.1c-0.1,1.5,1,2.8,2.5,2.9c0.1,0,0.3,0,0.4,0c1.1,0.1,2.2-0.4,2.9-1.2l2,1.9c-1.2,1.4-3.1,2.1-4.9,2 c-3.1,0-6-1.4-6-6.6c0-4.2,2.3-6.6,5.7-6.6c3.6,0,5.7,2.6,5.7,6.2v1.4L112.8,23.1L112.8,23.1z M117.5,19.6c-0.6-1.2-2-1.7-3.2-1.1 c-0.5,0.2-0.9,0.6-1.1,1.1c-0.2,0.4-0.3,0.9-0.3,1.4h4.9C117.8,20.5,117.6,20,117.5,19.6z"></path> <path d="M129.7,28.6v-1.1c-0.8,0.9-2,1.3-3.2,1.2c-1.2,0.1-2.4-0.3-3.3-1.1c-0.7-0.8-1.1-1.8-1.1-2.9c0-2.1,1.4-3.8,4.4-3.8h3.1 v-0.7c0-1.4-0.7-2-2.4-2c-0.9-0.1-1.9,0.3-2.5,1.1l-2.1-2c1.3-1.4,2.5-1.8,4.7-1.8c3.6,0,5.5,1.5,5.5,4.6v8.6 C132.8,28.6,129.7,28.6,129.7,28.6z M129.6,23.1H127c-1.1,0-1.8,0.6-1.8,1.5s0.6,1.5,1.9,1.5c0.9,0,1.5-0.1,2-0.6 c0.4-0.4,0.6-1.1,0.5-1.6V23.1L129.6,23.1z"></path> <path d="M139.4,28.6c-1.9,0.1-3.6-1.3-3.8-3.3c0-0.1,0-0.3,0-0.4v-6.4h-1.4V16h1.4v-3.8h3.2V16h2.3v2.5h-2.3v6.2 c-0.1,0.6,0.3,1.1,0.8,1.2c0.1,0,0.2,0,0.3,0h1.2v2.7L139.4,28.6L139.4,28.6z"></path> <path d="M56.7,48.9l-7-10.9v10.9h-3.4V31.2h3.1l7,10.8V31.2h3.5v17.7H56.7L56.7,48.9z"></path> <path d="M65,43.4c-0.1,1.5,1,2.8,2.5,2.9c0.1,0,0.3,0,0.4,0c1.1,0.1,2.2-0.4,2.9-1.2l2,1.9c-1.2,1.4-3.1,2.1-4.9,2 c-3.1,0-6-1.4-6-6.6c0-4.2,2.3-6.6,5.7-6.6c3.6,0,5.7,2.6,5.7,6.2v1.4C73.3,43.4,65,43.4,65,43.4z M69.7,39.8 c-0.6-1.2-2-1.7-3.2-1.1c-0.5,0.2-0.9,0.6-1.1,1.1c-0.2,0.4-0.3,0.9-0.3,1.4H70C69.9,40.7,69.8,40.2,69.7,39.8L69.7,39.8z"></path> <path d="M79.3,48.9c-1.9,0.1-3.6-1.3-3.8-3.3c0-0.1,0-0.3,0-0.4v-6.4h-1.4v-2.5h1.4v-3.8h3.2v3.8H81v2.5h-2.3V45 c-0.1,0.6,0.3,1.1,0.9,1.1c0.1,0,0.2,0,0.3,0H81v2.7L79.3,48.9L79.3,48.9z"></path> <path d="M96.5,48.9h-2.7l-2.7-8.2l-2.7,8.2h-2.7l-4-13h3.4l2.1,8l2.6-8h2.4l2.7,8l2.1-8h3.4L96.5,48.9z"></path> <path d="M110.3,47.4c-1.1,1.1-2.5,1.7-4,1.6c-1.5,0.1-2.9-0.5-4-1.6c-1.2-1.2-1.5-2.7-1.5-5s0.3-3.8,1.5-5c1-1.1,2.5-1.7,4-1.6 c1.5-0.1,3,0.5,4,1.6c1.1,1.2,1.5,2.7,1.5,5S111.5,46.2,110.3,47.4z M107.8,39.2c-0.4-0.4-0.9-0.6-1.5-0.6s-1.1,0.2-1.5,0.6 c-0.7,0.7-0.7,1.8-0.7,3.1s0.1,2.5,0.7,3.2c0.4,0.4,0.9,0.6,1.5,0.6s1.1-0.2,1.5-0.6c0.7-0.7,0.7-1.8,0.7-3.2 C108.5,41,108.5,39.9,107.8,39.2z"></path> <path d="M131.4,48.9l-3.2-5.4l-1.4,1.5v3.9h-3.3V32.5h3.2v8.8L131,36h3.9l-4.6,5.2l5,7.7H131.4L131.4,48.9z"></path> <path d="M120.5,39.5c-0.4-0.5-1.1-0.8-1.7-0.8c-1,0-2.1,0.7-2.1,2.4v7.8h-3.2v-13h3.2v1.2c0.8-0.9,2-1.4,3.3-1.4 c1.2-0.1,2.3,0.4,3.1,1.2L120.5,39.5z"></path> <path d="M150.4,28.6v-7.9c0-1.7-1.1-2.3-2.1-2.3s-2.1,0.6-2.1,2.3v7.9H143V10.9h3.2v6c0.8-0.9,1.9-1.3,3.1-1.3c2.8,0,4.3,2,4.3,4.7 v8.4L150.4,28.6L150.4,28.6z"></path> <path d="M158.6,23.1c-0.1,1.5,1,2.8,2.5,2.9c0.1,0,0.3,0,0.4,0c1.1,0.1,2.2-0.4,2.9-1.2l2,1.9c-1.2,1.4-3.1,2.1-4.9,2 c-3.1,0-6-1.4-6-6.6c0-4.2,2.3-6.6,5.7-6.6c3.6,0,5.7,2.6,5.7,6.2v1.4C166.9,23.1,158.6,23.1,158.6,23.1z M163.2,19.5 c-0.6-1.2-2-1.7-3.2-1.1c-0.5,0.2-0.9,0.6-1.1,1.1c-0.2,0.4-0.3,0.9-0.3,1.4h4.9C163.5,20.5,163.4,20,163.2,19.5L163.2,19.5z"></path> <path d="M175.6,19.2c-0.4-0.5-1.1-0.8-1.7-0.8c-1,0-2.1,0.7-2.1,2.4v7.8h-3.2v-13h3.2v1.2c0.8-0.9,2-1.4,3.3-1.4 c1.2-0.1,2.3,0.4,3.1,1.2L175.6,19.2z"></path> <path d="M25,47.6c-0.3,0-0.7,0-1-0.1c7.2-3.5,16-11.9,16-15.9c0-0.7-0.4-1.3-1-1.5C38.7,30,38.5,30,38.2,30c0.7-1,1.2-2.2,1.3-3.5 c0.1-1.1-0.7-2.1-1.8-2.2c-0.1,0-0.3,0-0.4,0c-0.2,0-0.4,0-0.6,0.1c0.4-0.8,0.6-1.6,0.7-2.5c0-1.6-1.1-2.3-2.5-2.3 c-0.6,0-1.1,0.1-1.6,0.2c0.4-0.7,0.5-1.5,0.6-2.2c0-1.2-0.7-2.2-2.7-2.2c-0.7,0-1.3,0.1-2,0.3c0.1-0.4,0.2-0.7,0.2-1.1 c0-1.3-0.9-2-2.3-2C26,12.5,25,12.7,24,13.1c0-0.1,0-0.3,0-0.4c0-1.1-0.6-1.6-1.9-1.6c-4.4,0-13.5,6.9-17.8,13.2c0-0.2,0-0.3,0-0.5 c0-2.4,3.1-7.9,10.8-11.5l-0.2-0.4C6.7,15.3,2.8,21.7,2.8,24.4c0,0.6,0.1,1.2,0.4,1.6c-0.7,1.2-1.2,2.6-1.3,4c0,0.1,0,0.1,0,0.1 c0,1.1,0.6,2.1,1.5,2.6c-0.4,0.9-0.6,1.8-0.6,2.8c0.1,1.7,1.3,3,3,3.2c-0.1,0.4-0.1,0.8-0.1,1.2c0,2.1,1.5,3.7,3.3,3.7h0.1 c0.2,0,0.4,0,0.7,0c0,0.1,0,0.1,0,0.1c0,2.3,1.6,3.3,3.6,3.3c0.6,0,1.2-0.1,1.8-0.2c0.5,1.5,2.1,2.2,3.3,2.2c1.1,0,2.3-0.3,3.3-0.7 c0.7,0.5,1.5,0.7,2.3,0.7c3.6,0,10.6-4.3,13.7-9.9l-0.3-0.3C33.8,44.7,27.7,47.6,25,47.6z M34.9,19.8c1-0.1,2,0.7,2.1,1.7 c0,0.1,0,0.2,0,0.3c-0.1,0.9-0.3,1.8-0.8,2.6c-2.4,0.6-6.1,2.8-9.7,5.7s-7.1,6.5-9.3,9.9c-1.7,0.8-3.5,1.4-5.4,1.7 c0.4-1.7,1.1-3.3,2.1-4.8c3.7-1.8,7.3-4.1,10.4-6.8c4-3.3,7.3-7,8.7-9.9C33.7,19.9,34.3,19.9,34.9,19.8z M35.9,24.9 c-1.2,1.9-2.7,3.6-4.3,5.1c-3.7,3.5-7.8,6.5-12.2,8.9c2.4-3.3,5.2-6.3,8.3-8.9C30.7,27.5,33.7,25.6,35.9,24.9z M15.3,34.8 c1.3-1.7,2.6-3.3,4.1-4.8c4.2-4.3,9.3-8.2,13-9.6c-1.7,2.9-5.4,6.5-9.5,9.6C20.5,31.8,17.9,33.5,15.3,34.8z M31.4,15.6 c1.4,0,2,0.7,2,1.8c-0.1,0.9-0.3,1.7-0.7,2.4C28.5,21,22.8,25.2,18.1,30c-1.8,1.8-3.4,3.7-4.9,5.8c-1.6,0.7-3.3,1.2-5.1,1.3 c0.6-1.8,1.4-3.4,2.4-5c1.4-0.6,2.7-1.3,4-2.1c6.3-3.8,12.8-10,14.6-14C29.8,15.8,30.6,15.7,31.4,15.6z M11.8,30.3l0.2-0.2 c4.4-5.9,11.4-11.9,16.5-13.8c-2.1,3.9-9.7,10.7-16.2,13.8L11.8,30.3z M27.2,12.8c1.4,0,1.8,0.4,1.8,1.7c0,0.4-0.1,0.8-0.3,1.1 c-5.4,1.7-13.2,8.1-18.2,14.3c-0.3,0.3-0.5,0.7-0.8,1c-1,0.4-2.1,0.5-3.1,0.6c-0.3,0-0.7,0-1-0.1C5.9,31,6.2,30.5,6.4,30 c0.7-1.1,1.4-2.2,2.2-3.2c6-2,14-9.4,15.4-13.2C25,13.2,26.1,12.9,27.2,12.8L27.2,12.8z M9.9,25.2c3.9-4.6,9.3-9.3,13.5-11.3 C21.9,17.5,14.7,23.3,9.9,25.2z M22.3,11.4c0.9,0,1.4,0.5,1.4,1.2c0,0.2,0,0.4-0.1,0.7c-4.8,2-11.1,7.2-15.6,12.5 c-0.3,0.1-0.6,0.1-0.9,0.1c-0.7,0.1-1.4-0.1-2-0.4C8.6,19.5,18.2,11.4,22.3,11.4z M4,30c-0.1-0.3-0.1-0.7-0.1-1 c0-0.7,0.2-1.4,0.5-2.1c0.5,0.2,1,0.4,1.6,0.3c0.3,0,0.6,0,0.9-0.1c-0.7,0.9-1.4,1.9-2,2.8c-0.1,0.3-0.3,0.5-0.4,0.8 C4.3,30.6,4.1,30.3,4,30z M6.4,36.9c-1.3-0.4-1.5-1.5-1.5-2.4c0-0.4,0.1-0.8,0.2-1.2c0.2,0,0.5,0.1,0.7,0.1c0.9,0,1.8-0.2,2.7-0.4 C7.7,34.1,7,35.4,6.4,36.9L6.4,36.9z M10.1,41.7c-1.7-0.1-2.4-1.1-2.4-2.5c0-0.2,0-0.3,0-0.5c1.5-0.2,2.8-0.6,4.2-1.1 C11.1,38.9,10.5,40.3,10.1,41.7L10.1,41.7z M15.2,45.4c-0.2,0-0.4,0-0.5,0c-1.7,0-2.6-0.9-2.8-2.1c1.5-0.3,3-0.8,4.4-1.4 C15.6,42.9,15.3,44.1,15.2,45.4z M21.2,47.1c-0.5,0.1-0.9,0.2-1.4,0.2c-0.9,0-1.8-0.3-2.4-1c1.4-0.5,2.8-1.1,4.1-1.8 c-0.2,0.6-0.3,1.2-0.3,1.9C21.2,46.6,21.2,46.8,21.2,47.1L21.2,47.1L21.2,47.1z M16.9,45.1C16.9,45,16.9,45,16.9,45.1 c0.1-1.5,0.5-2.9,1.2-4.1c5.4-2.8,10.3-6.5,14.5-10.9c1.5-1.6,2.8-3.3,3.9-5.3c0.3-0.1,0.6-0.1,0.9-0.1c1.5,0,1.7,1.1,1.7,1.8 c0,1-0.5,2.2-1.4,3.5c-0.2,0-0.4,0.1-0.6,0.1c-4.4,1-12.3,7.4-15,12.8C20.5,43.8,18.7,44.6,16.9,45.1L16.9,45.1z M37.3,30.4 c-2.7,3.7-8.2,8.3-13.3,11.4C26.6,37.1,33.4,31.4,37.3,30.4z M22.9,45.2c0-0.6,0.1-1.2,0.4-1.8c5.9-3.5,12-8.9,14.8-13.1h0.3 c0.7-0.1,1.3,0.4,1.3,1.1c0,0,0,0,0,0.1c0,3.9-9.9,12.5-16.5,15.1C22.9,46.1,22.9,45.6,22.9,45.2z"></path> </g> </svg> 