<?xml version="1.0" encoding="UTF-8"?> <svg xmlns="http://www.w3.org/2000/svg" xmlns:xlink="http://www.w3.org/1999/xlink" version="1.1" id="Layer_1" x="0px" y="0px" viewBox="0 0 180 60" style="enable-background:new 0 0 180 60;" xml:space="preserve"> <style type="text/css"> .st0{fill:#FFFFFF;} </style> <g> <path class="st0" d="M45.6,26.5v-1.1c0-0.2-0.1-0.3-0.3-0.3H38c-0.1,0-0.3,0.1-0.3,0.3v1.1c0,0.2,0.1,0.2,0.3,0.2h2.7v7.8 c0,0.1,0.1,0.3,0.3,0.3h1.3c0.2,0,0.3-0.1,0.3-0.3l0,0v-7.8h2.7C45.5,26.7,45.6,26.6,45.6,26.5z M55.5,34.6v-9.1 c0-0.2-0.1-0.3-0.3-0.3h-1.3c-0.2,0-0.3,0.1-0.3,0.3V29h-4.3v-3.5c0-0.2-0.1-0.3-0.3-0.3h-1.4c-0.2,0-0.3,0.1-0.3,0.3v9.1 c0,0.1,0.1,0.3,0.3,0.3H49c0.1,0,0.3-0.1,0.3-0.3v-3.9h4.3v3.9c0,0.1,0.1,0.3,0.3,0.3h1.3C55.3,34.8,55.5,34.7,55.5,34.6z M66.3,30.7v-1.4c0-3-2.1-4.3-4.3-4.3s-4.3,1.3-4.3,4.3v1.4c0,3,2.1,4.3,4.3,4.3C64.2,34.9,66.3,33.7,66.3,30.7L66.3,30.7z M64.4,30.7c0,1.8-1.1,2.6-2.4,2.6c-1.3,0-2.4-0.8-2.4-2.6v-1.4c0-1.8,1.1-2.6,2.4-2.6c1.3,0,2.4,0.8,2.4,2.6V30.7z M78.2,34.6 v-8.9c0-0.3-0.2-0.5-0.5-0.5h-1.1c-0.2,0-0.4,0.1-0.5,0.3l-2.6,5.3c-0.1,0.1-0.1,0.2-0.1,0.2c-0.1,0-0.1-0.1-0.2-0.2l-2.6-5.3 c-0.1-0.2-0.3-0.3-0.5-0.3H69c-0.3,0-0.5,0.2-0.5,0.5v8.9c0,0.1,0.1,0.2,0.2,0.2H70c0.1,0,0.2-0.1,0.2-0.3v-5.9c0-0.1,0-0.1,0-0.1 s0,0,0.1,0.1l2.2,4.9c0.1,0.1,0.3,0.2,0.4,0.2h0.7c0.2,0,0.4-0.1,0.4-0.2l2.2-4.9l0.1-0.1c0,0,0,0,0,0.1v5.9c0,0.1,0.1,0.3,0.2,0.3 H78C78.1,34.8,78.2,34.8,78.2,34.6z M108.5,34.3v-8.9c0-0.2-0.1-0.3-0.3-0.3H107c-0.1,0-0.3,0.1-0.3,0.2l0,0V32 c0,0.1,0,0.1-0.1,0.1c0,0-0.1,0-0.1-0.1l-3.8-6.6c-0.2-0.4-0.3-0.4-0.6-0.4h-1.5c-0.3,0-0.5,0.2-0.5,0.5v8.9c0,0.1,0.1,0.3,0.3,0.3 h1.2c0.2,0,0.3-0.1,0.3-0.3V28c0-0.1,0-0.1,0.1-0.1c0,0,0.1,0,0.1,0.1l3.7,6.2c0.2,0.5,0.5,0.5,0.8,0.5h1.4 C108.2,34.8,108.5,34.6,108.5,34.3z M87.7,32.1c0-1.3-0.7-2-1.9-2.5c-0.9-0.4-1.7-0.7-2.3-0.9c-0.6-0.2-1.1-0.7-1.1-1.1 c0-0.6,0.8-1,1.8-1c1.2,0,2.1,0.2,3,0.2l0,0c0.1,0,0.2-0.1,0.2-0.2v-1c0-0.1-0.1-0.2-0.2-0.3c-0.5-0.1-1.7-0.4-3-0.4 c-2.5,0-3.7,1.1-3.7,2.6c0,1,0.4,1.9,1.6,2.4s3.6,1.1,3.6,2.1c0,0.8-0.4,1.2-1.6,1.2c-1.3,0-2.5-0.2-3.1-0.2l0,0 c-0.1,0-0.3,0.1-0.3,0.3v1c0,0.1,0.1,0.2,0.3,0.3c0.7,0.2,1.9,0.4,3.1,0.4C86.8,35,87.7,33.5,87.7,32.1z M98,30.7v-1.4 c0-3-2.1-4.3-4.3-4.3c-2.2,0-4.3,1.3-4.3,4.3v1.4c0,3,2.1,4.3,4.3,4.3S98,33.7,98,30.7L98,30.7z M96.1,30.7c0,1.8-1.1,2.6-2.4,2.6 s-2.4-0.8-2.4-2.6v-1.4c0-1.8,1.1-2.6,2.4-2.6s2.4,0.8,2.4,2.6V30.7z M122.8,34.7L122.8,34.7l-2.1-3.7c1.1-0.4,1.8-1.2,1.8-2.7 v-0.1c0-2.3-1.9-3.1-4-3.1c-1,0-2.5,0.1-3.2,0.2c-0.3,0-0.4,0.1-0.4,0.4v8.9c0,0.1,0.1,0.3,0.3,0.3h1.4c0.1,0,0.3-0.1,0.3-0.3v-3.4 c0.3,0,1.4,0.1,1.8,0.1h0.3l2,3.3c0.1,0.1,0.1,0.3,0.3,0.3h1.7C122.7,34.8,122.8,34.8,122.8,34.7L122.8,34.7z M120.6,28.3 c0,1.2-0.8,1.5-2.2,1.5c-0.2,0-1.6,0-1.8,0v-3c0.2,0,1.5-0.1,1.8-0.1c1.4,0,2.2,0.4,2.2,1.5C120.6,28.1,120.6,28.3,120.6,28.3z M126.4,30.6h4.4c0.1,0,0.3-0.1,0.3-0.3v-1c0-0.2-0.1-0.3-0.3-0.3h-4.4v-1.2c0-1.1,0-1.2,1.1-1.2h3.4c0.2,0,0.3-0.1,0.3-0.3v-0.9 c0-0.2-0.1-0.3-0.3-0.3c-0.4-0.1-1.3-0.2-2.9-0.2c-2.3,0-3.5,0-3.5,2.8V32c0,2.8,1.2,2.8,3.5,2.8c1.6,0,2.5-0.1,2.9-0.2 c0.2,0,0.3-0.1,0.3-0.3v-0.9c0-0.1-0.1-0.3-0.3-0.3h-3.4c-1,0-1.1,0-1.1-1.2L126.4,30.6L126.4,30.6z M141.4,31.1v-5.7 c0-0.2-0.1-0.3-0.3-0.3h-1.3c-0.2,0-0.3,0.1-0.3,0.3v5.7c0,1.6-0.7,2.3-2.2,2.3s-2.2-0.7-2.2-2.3v-5.7c0-0.2-0.1-0.3-0.3-0.3h-1.3 c-0.1,0-0.3,0.1-0.3,0.3v5.7c0,2.9,1.9,3.9,4.1,3.9C139.5,34.9,141.4,34,141.4,31.1L141.4,31.1z M150.6,26.5v-1.1 c0-0.2-0.1-0.3-0.3-0.3H143c-0.1,0-0.3,0.1-0.3,0.3v1.1c0,0.2,0.1,0.2,0.3,0.2h2.7v7.8c0,0.1,0.1,0.3,0.3,0.3h1.4 c0.1,0,0.3-0.1,0.3-0.3v-7.8h2.7C150.5,26.7,150.6,26.6,150.6,26.5L150.6,26.5z M169,34.7L169,34.7l-2.1-3.7 c1.1-0.4,1.8-1.2,1.8-2.7v-0.1c0-2.3-1.9-3.1-4-3.1c-1,0-2.5,0.1-3.2,0.2c-0.3,0-0.4,0.1-0.4,0.4v8.9c0,0.1,0.1,0.3,0.3,0.3h1.4 c0.2,0,0.3-0.1,0.3-0.3v-3.4c0.3,0,1.4,0.1,1.8,0.1h0.3l2,3.3c0.1,0.1,0.1,0.3,0.3,0.3h1.7C169,34.8,169,34.8,169,34.7L169,34.7z M166.8,28.3c0,1.2-0.8,1.5-2.2,1.5c-0.2,0-1.5,0-1.8,0v-3c0.2,0,1.5-0.1,1.8-0.1c1.4,0,2.2,0.4,2.2,1.5 C166.8,28.1,166.8,28.3,166.8,28.3z M177.6,32.1c0-1.3-0.7-2-1.9-2.5c-0.8-0.3-1.5-0.6-2.3-0.9c-0.6-0.2-1.1-0.7-1.1-1.1 c0-0.6,0.8-1,1.8-1c1.2,0,2.1,0.2,3,0.2l0,0c0.1,0,0.2-0.1,0.2-0.2v-1c0-0.1-0.1-0.2-0.2-0.3c-0.5-0.1-1.7-0.4-3-0.4 c-2.5,0-3.7,1.1-3.7,2.6c0,1,0.4,1.9,1.6,2.4c1.2,0.5,3.6,1.1,3.6,2.1c0,0.8-0.4,1.2-1.6,1.2c-1.3,0-2.5-0.2-3.1-0.2l0,0 c-0.1,0-0.3,0.1-0.3,0.3v1c0,0.1,0.1,0.2,0.3,0.3c0.7,0.2,1.9,0.4,3.1,0.4C176.8,35,177.6,33.5,177.6,32.1L177.6,32.1z M153.9,30.6 h4.4c0.1,0,0.3-0.1,0.3-0.3l0,0v-1c0-0.1-0.1-0.3-0.3-0.3l0,0h-4.4v-1.2c0-1.1,0-1.2,1.1-1.2h3.4c0.1,0,0.3-0.1,0.3-0.3v-0.9 c0-0.2-0.1-0.3-0.3-0.3c-0.4-0.1-1.3-0.2-2.9-0.2c-2.3,0-3.5,0-3.5,2.8V32c0,2.8,1.2,2.8,3.5,2.8c1.6,0,2.5-0.1,2.9-0.2 c0.2,0,0.3-0.1,0.3-0.3v-0.9c0-0.1-0.1-0.3-0.3-0.3H155c-1,0-1.1,0-1.1-1.2V30.6L153.9,30.6z M13.9,26.5c0.1,0.2,0,0.6-0.2,0.7 s-0.6,0-0.7-0.2c-0.1-0.2,0-0.6,0.2-0.7C13.4,26.1,13.7,26.2,13.9,26.5L13.9,26.5z M11.4,30.4c-0.1,0.1-0.2,0.3-0.1,0.4 c0.1,0.1,0.3,0.2,0.4,0.1l0,0c0.1-0.1,0.2-0.2,0.1-0.4l0,0C11.7,30.4,11.5,30.3,11.4,30.4z M11.3,29.2c-0.2,0.1-0.2,0.3-0.1,0.5 c0.1,0.2,0.3,0.2,0.5,0.1s0.2-0.3,0.1-0.5C11.7,29.2,11.5,29.1,11.3,29.2L11.3,29.2z M11.7,28c-0.2,0.1-0.3,0.3-0.2,0.5 s0.3,0.3,0.5,0.2c0.2-0.1,0.3-0.3,0.2-0.5l0,0C12.1,28,11.8,27.9,11.7,28z M12.3,27c-0.2,0.1-0.3,0.4-0.2,0.6l0,0 c0.1,0.2,0.4,0.3,0.6,0.2c0.2-0.1,0.3-0.4,0.2-0.6l0,0C12.8,27,12.5,26.9,12.3,27L12.3,27z M11.8,31.6c-0.1,0.1-0.2,0.2-0.1,0.3 l0,0c0.1,0.1,0.2,0.2,0.3,0.1c0.1-0.1,0.2-0.2,0.1-0.3C12.1,31.5,11.9,31.5,11.8,31.6z M17.5,27.4c0.1,0.1,0.3,0.2,0.4,0.1 s0.2-0.3,0.1-0.4c0-0.1-0.2-0.2-0.3-0.1l0,0C17.5,27.1,17.5,27.3,17.5,27.4L17.5,27.4L17.5,27.4z M16.5,26.8 c0.1,0.2,0.3,0.2,0.5,0.1s0.2-0.3,0.1-0.5s-0.3-0.2-0.5-0.1C16.5,26.4,16.4,26.6,16.5,26.8L16.5,26.8z M15.4,26.5 c0.1,0.2,0.3,0.3,0.5,0.2l0,0c0.2-0.1,0.3-0.3,0.2-0.5l0,0C16,26,15.8,25.9,15.6,26l0,0C15.3,26,15.3,26.3,15.4,26.5L15.4,26.5 L15.4,26.5z M14.2,26.5c0.1,0.2,0.4,0.3,0.6,0.2l0,0c0.2-0.1,0.3-0.4,0.2-0.6s-0.4-0.3-0.6-0.2C14.1,26.1,14,26.3,14.2,26.5z M18.3,28.3c0.1,0.1,0.2,0.2,0.3,0.1c0.1-0.1,0.2-0.2,0.1-0.3l0,0c-0.1-0.1-0.2-0.2-0.3-0.1C18.3,28.1,18.2,28.2,18.3,28.3z M17.4,33.1c-0.1-0.2-0.4-0.3-0.7-0.2l0,0c-0.2,0.1-0.3,0.4-0.2,0.7l0,0c0.1,0.2,0.4,0.3,0.7,0.2C17.5,33.6,17.6,33.3,17.4,33.1 L17.4,33.1z M12.9,32.6c-0.1-0.1-0.3-0.2-0.4-0.1c-0.1,0.1-0.2,0.3-0.1,0.4l0,0c0.1,0.1,0.3,0.2,0.4,0.1l0,0 C12.9,32.9,13,32.7,12.9,32.6L12.9,32.6z M13.9,33.2c-0.1-0.2-0.3-0.2-0.5-0.1c-0.2,0.1-0.2,0.3-0.1,0.5l0,0 c0.1,0.2,0.3,0.2,0.5,0.1C13.9,33.6,14,33.4,13.9,33.2z M15.1,33.5c-0.1-0.2-0.3-0.3-0.5-0.2s-0.3,0.3-0.2,0.5s0.3,0.3,0.5,0.2 C15.1,34,15.2,33.7,15.1,33.5L15.1,33.5L15.1,33.5z M16.3,33.5c-0.1-0.2-0.4-0.3-0.6-0.2c-0.2,0.1-0.3,0.4-0.2,0.6 c0.1,0.2,0.4,0.3,0.6,0.2l0,0C16.3,34,16.4,33.7,16.3,33.5z M19,29.6c0.1-0.1,0.2-0.3,0.1-0.4s-0.3-0.2-0.4-0.1l0,0 c-0.1,0.1-0.2,0.3-0.1,0.4l0,0C18.7,29.6,18.9,29.7,19,29.6L19,29.6z M19.1,30.8c0.2-0.1,0.2-0.3,0.1-0.5s-0.3-0.2-0.5-0.1l0,0 c-0.2,0.1-0.2,0.3-0.1,0.5C18.7,30.8,18.9,30.9,19.1,30.8L19.1,30.8z M18.8,32c0.2-0.1,0.3-0.3,0.2-0.5c-0.1-0.2-0.3-0.3-0.5-0.2 c-0.2,0.1-0.3,0.3-0.2,0.5C18.4,32,18.6,32.1,18.8,32L18.8,32z M18.1,33c0.2-0.1,0.3-0.4,0.2-0.6c-0.1-0.2-0.4-0.3-0.6-0.2 s-0.3,0.4-0.2,0.6l0,0C17.7,33,17.9,33.1,18.1,33L18.1,33L18.1,33z M17.3,25.3c-0.1,0.3-0.5,0.5-0.8,0.4l0,0 c-0.3-0.1-0.5-0.5-0.4-0.8l0,0c0.1-0.3,0.5-0.5,0.8-0.4C17.2,24.6,17.4,24.9,17.3,25.3z M11.1,26.8c-0.2,0-0.3,0-0.4,0.2 c0,0.2,0.1,0.3,0.2,0.4c0.2,0,0.3-0.1,0.4-0.2C11.3,27,11.2,26.8,11.1,26.8z M12.2,25.6c-0.2-0.1-0.4,0.1-0.5,0.3l0,0 c-0.1,0.2,0.1,0.4,0.3,0.5l0,0c0.2,0.1,0.4-0.1,0.5-0.3C12.5,25.8,12.4,25.6,12.2,25.6z M13.6,24.7c-0.3-0.1-0.5,0.1-0.6,0.3 c-0.1,0.3,0.1,0.5,0.3,0.6c0.3,0.1,0.5-0.1,0.6-0.3l0,0C14,25,13.9,24.8,13.6,24.7L13.6,24.7z M15.2,24.3c-0.3-0.1-0.6,0.1-0.7,0.4 l0,0c-0.1,0.3,0.1,0.6,0.4,0.7l0,0c0.3,0.1,0.6-0.1,0.7-0.4C15.7,24.7,15.5,24.4,15.2,24.3L15.2,24.3z M10.4,28.3 c-0.1,0-0.3,0-0.3,0.2l0,0c0,0.1,0,0.3,0.2,0.3l0,0c0.1,0,0.3,0,0.3-0.2C10.6,28.5,10.5,28.4,10.4,28.3L10.4,28.3z M20,29.8 c-0.1,0.2,0,0.3,0.2,0.4l0,0c0.2,0,0.3,0,0.4-0.2c0-0.2,0-0.3-0.2-0.4C20.3,29.5,20.1,29.6,20,29.8z M19.7,28.2 c-0.1,0.2,0.1,0.4,0.3,0.5l0,0c0.2,0.1,0.4-0.1,0.5-0.3s-0.1-0.4-0.3-0.5C20,27.8,19.7,28,19.7,28.2L19.7,28.2z M18.8,26.7 c-0.1,0.3,0.1,0.5,0.3,0.6c0.3,0.1,0.5-0.1,0.6-0.3c0.1-0.3-0.1-0.5-0.3-0.6l0,0C19.2,26.3,18.9,26.5,18.8,26.7L18.8,26.7z M17.6,25.6c-0.1,0.3,0.1,0.6,0.4,0.7s0.6-0.1,0.7-0.4l0,0c0.1-0.3-0.1-0.6-0.4-0.7l0,0C18,25.1,17.7,25.3,17.6,25.6z M19.9,31.4 c0,0.1,0,0.3,0.2,0.3c0.1,0,0.3,0,0.3-0.2l0,0c0-0.1,0-0.3-0.2-0.3l0,0C20.1,31.2,20,31.3,19.9,31.4L19.9,31.4z M14.4,35.1 c0.1-0.3-0.1-0.7-0.4-0.8l0,0c-0.3-0.1-0.7,0.1-0.8,0.4l0,0c-0.1,0.3,0.1,0.7,0.4,0.8l0,0C13.9,35.7,14.3,35.5,14.4,35.1z M10.4,30.2c0.1-0.2,0-0.3-0.2-0.4c-0.2,0-0.3,0-0.4,0.2c0,0.2,0,0.3,0.2,0.4l0,0C10.2,30.5,10.3,30.4,10.4,30.2L10.4,30.2z M10.8,31.8c0.1-0.2-0.1-0.4-0.3-0.5l0,0c-0.2-0.1-0.4,0.1-0.5,0.3l0,0c-0.1,0.2,0.1,0.4,0.3,0.5C10.5,32.2,10.7,32,10.8,31.8z M11.6,33.3c0.1-0.3-0.1-0.5-0.3-0.6c-0.3-0.1-0.5,0.1-0.6,0.3c-0.1,0.3,0.1,0.5,0.3,0.6l0,0C11.3,33.7,11.5,33.5,11.6,33.3 L11.6,33.3z M12.9,34.4c0.1-0.3-0.1-0.6-0.4-0.7c-0.3-0.1-0.6,0.1-0.7,0.4l0,0c-0.1,0.3,0.1,0.6,0.4,0.7l0,0 C12.5,34.9,12.8,34.7,12.9,34.4z M19.4,33.2c0.2,0.1,0.3,0,0.4-0.2c0-0.2,0-0.3-0.2-0.4c-0.2,0-0.3,0-0.4,0.2 C19.1,33,19.2,33.2,19.4,33.2z M18.2,34.4c0.2,0.1,0.4-0.1,0.5-0.3s-0.1-0.4-0.3-0.5l0,0c-0.1,0-0.4,0.1-0.4,0.4 C17.9,34.2,18,34.4,18.2,34.4z M16.8,35.3c0.3,0.1,0.5-0.1,0.6-0.3l0,0c0.1-0.3-0.1-0.5-0.3-0.6l0,0c-0.3-0.1-0.5,0.1-0.6,0.3 C16.4,35,16.5,35.2,16.8,35.3L16.8,35.3z M15.2,35.7c0.3,0.1,0.6-0.1,0.7-0.4l0,0c0.1-0.3-0.1-0.6-0.4-0.7 c-0.3-0.1-0.6,0.1-0.7,0.4C14.7,35.3,14.9,35.6,15.2,35.7z M20.5,25.6c-0.3,0.3-0.8,0.3-1.2,0c-0.3-0.3-0.4-0.8,0-1.2l0,0 c0.3-0.3,0.8-0.4,1.2,0l0,0C20.8,24.7,20.8,25.3,20.5,25.6z M12.2,23.7c-0.2-0.2-0.4-0.1-0.6,0c-0.2,0.2-0.1,0.4,0,0.6 c0.2,0.2,0.4,0.1,0.6,0C12.4,24.1,12.4,23.8,12.2,23.7z M14.3,22.9c-0.2-0.2-0.5-0.2-0.7,0s-0.2,0.5,0,0.7l0,0 c0.2,0.2,0.5,0.2,0.7,0S14.5,23.1,14.3,22.9L14.3,22.9z M16.5,22.7c-0.3-0.2-0.7-0.2-0.9,0c-0.2,0.3-0.2,0.7,0.1,0.9 c0.3,0.2,0.6,0.2,0.9,0C16.8,23.4,16.8,23,16.5,22.7z M18.6,23.3c-0.3-0.3-0.7-0.3-1,0l0,0c-0.3,0.3-0.3,0.8,0,1l0,0 c0.3,0.3,0.8,0.3,1,0C18.9,24,18.9,23.6,18.6,23.3L18.6,23.3z M10.4,25.1c-0.1-0.1-0.3-0.1-0.4,0c-0.1,0.1-0.1,0.3,0,0.4l0,0 c0.1,0.1,0.3,0.1,0.4,0l0,0C10.6,25.4,10.6,25.2,10.4,25.1z M21.1,32.6c-0.2,0.2-0.1,0.4,0,0.6c0.2,0.2,0.4,0.1,0.6,0 c0.1-0.2,0.1-0.4,0-0.6C21.5,32.5,21.3,32.5,21.1,32.6z M21.6,30.5c-0.2,0.2-0.2,0.5,0,0.7s0.5,0.2,0.7,0l0,0 c0.2-0.2,0.2-0.5,0-0.7l0,0C22.2,30.3,21.8,30.3,21.6,30.5z M21.5,28.3c-0.2,0.3-0.2,0.7,0,0.9l0,0c0.3,0.2,0.7,0.2,0.9,0l0,0 c0.2-0.3,0.2-0.7,0-0.9C22.1,28,21.7,28,21.5,28.3z M20.7,26.2c-0.3,0.3-0.3,0.8,0,1c0.3,0.3,0.8,0.3,1,0s0.3-0.8,0-1l0,0 C21.4,25.9,21,25.9,20.7,26.2z M20,34.5c-0.1,0.1-0.1,0.3,0,0.4c0.1,0.1,0.3,0.1,0.4,0l0,0c0.1-0.1,0.1-0.3,0-0.4l0,0 C20.3,34.4,20.1,34.4,20,34.5L20,34.5L20,34.5z M11.1,35.6c0.3-0.3,0.3-0.9,0-1.2s-0.9-0.3-1.2,0s-0.3,0.9,0.1,1.2 C10.3,35.9,10.8,35.9,11.1,35.6L11.1,35.6z M9.3,27.4c0.2-0.2,0.1-0.4,0-0.6s-0.4-0.1-0.6,0c-0.2,0.2-0.1,0.4,0,0.6 C8.9,27.5,9.2,27.5,9.3,27.4z M8.8,29.5C9,29.3,9,29,8.8,28.8s-0.5-0.2-0.7,0s-0.2,0.5,0,0.7S8.6,29.7,8.8,29.5L8.8,29.5z M9,31.7 c0.2-0.3,0.2-0.7,0-0.9c-0.3-0.2-0.7-0.2-0.9,0c-0.2,0.3-0.2,0.7,0,0.9C8.3,32,8.7,32,9,31.7z M9.7,33.8c0.3-0.3,0.3-0.8,0-1 c-0.3-0.3-0.7-0.3-1,0l0,0c-0.3,0.3-0.3,0.7,0,1l0,0C9,34.1,9.5,34.1,9.7,33.8L9.7,33.8z M18.2,36.3c0.2,0.2,0.4,0.1,0.6,0l0,0 c0.2-0.2,0.1-0.4,0-0.6l0,0c-0.2-0.2-0.4-0.1-0.6,0l0,0C18.1,35.9,18.1,36.2,18.2,36.3L18.2,36.3z M16.1,37.1 c0.2,0.2,0.5,0.2,0.7,0s0.2-0.5,0-0.7l0,0c-0.2-0.2-0.5-0.2-0.7,0S15.9,36.9,16.1,37.1z M13.9,37.3c0.3,0.2,0.7,0.2,0.9,0 c0.2-0.3,0.2-0.7,0-0.9l0,0c-0.3-0.2-0.7-0.2-0.9,0C13.6,36.6,13.6,37,13.9,37.3L13.9,37.3z M11.8,36.7c0.3,0.3,0.7,0.3,1,0l0,0 c0.3-0.3,0.3-0.8,0-1s-0.8-0.3-1,0l0,0C11.5,36,11.5,36.4,11.8,36.7L11.8,36.7z M23.9,27.4c-0.5,0.2-1.1,0-1.3-0.5 c-0.2-0.5,0-1.1,0.5-1.3l0,0c0.5-0.2,1.1,0,1.3,0.6C24.6,26.6,24.4,27.1,23.9,27.4z M16.8,20.9c-0.1-0.3-0.4-0.5-0.7-0.4l0,0 c-0.3,0.1-0.5,0.3-0.4,0.7l0,0c0.1,0.3,0.4,0.5,0.7,0.4S16.9,21.2,16.8,20.9z M19.2,21.4c-0.1-0.4-0.5-0.6-0.8-0.5l0,0 c-0.4,0.1-0.6,0.5-0.5,0.8l0,0c0.1,0.4,0.5,0.6,0.8,0.5C19.1,22.2,19.3,21.8,19.2,21.4L19.2,21.4z M21.4,22.5 c-0.1-0.4-0.6-0.7-1-0.6l0,0C20,22,19.7,22.5,19.8,23l0,0c0.2,0.4,0.6,0.7,1.1,0.5C21.3,23.4,21.5,22.9,21.4,22.5L21.4,22.5z M23.2,24.1c-0.2-0.5-0.7-0.7-1.2-0.5l0,0c-0.5,0.2-0.7,0.7-0.6,1.2l0,0c0.2,0.5,0.7,0.7,1.2,0.5S23.3,24.6,23.2,24.1L23.2,24.1z M12,21.5c-0.1-0.2-0.3-0.3-0.5-0.2l0,0c-0.2,0.1-0.3,0.3-0.2,0.5s0.3,0.3,0.5,0.2l0,0C12,22,12.1,21.8,12,21.5z M22.1,34.9 c-0.2,0.2-0.3,0.5-0.1,0.8c0.2,0.2,0.5,0.3,0.8,0.1s0.3-0.5,0.1-0.8l0,0C22.7,34.8,22.4,34.8,22.1,34.9L22.1,34.9z M23.2,32.8 c-0.3,0.2-0.4,0.6-0.2,0.9s0.6,0.4,0.9,0.2l0,0c0.3-0.2,0.4-0.6,0.2-0.9C24,32.7,23.6,32.6,23.2,32.8z M23.8,30.3 c-0.4,0.2-0.5,0.7-0.3,1.1s0.7,0.5,1.1,0.3l0,0c0.4-0.2,0.6-0.7,0.3-1.1l0,0C24.7,30.2,24.2,30.1,23.8,30.3L23.8,30.3L23.8,30.3z M23.7,27.9c-0.5,0.2-0.6,0.8-0.4,1.2c0.2,0.5,0.8,0.6,1.2,0.4l0,0c0.5-0.2,0.6-0.8,0.4-1.2l0,0C24.8,27.8,24.2,27.6,23.7,27.9 L23.7,27.9z M18.6,37.9c-0.2,0.1-0.3,0.3-0.2,0.5c0.1,0.2,0.3,0.3,0.5,0.2s0.3-0.3,0.2-0.5C19.1,37.9,18.8,37.8,18.6,37.9z M7.3,34.5c0.5-0.2,0.7-0.8,0.5-1.3S7,32.5,6.5,32.7l0,0C6,32.9,5.8,33.5,6,34l0,0C6.2,34.5,6.8,34.7,7.3,34.5z M8.3,25.1 c0.3-0.2,0.3-0.5,0.1-0.8l0,0C8.3,24,7.9,24,7.7,24.1l0,0c-0.3,0.2-0.3,0.5-0.1,0.8l0,0C7.7,25.2,8,25.2,8.3,25.1z M7.2,27.2 c0.3-0.2,0.4-0.6,0.2-0.9l0,0c-0.2-0.3-0.6-0.4-0.9-0.2c-0.3,0.2-0.4,0.6-0.2,0.9S6.9,27.4,7.2,27.2z M6.7,29.7 C7.1,29.5,7.2,29,7,28.5c-0.2-0.4-0.7-0.6-1.1-0.4l0,0c-0.4,0.2-0.5,0.7-0.3,1.1C5.7,29.8,6.3,29.9,6.7,29.7z M6.7,32.1 c0.5-0.2,0.6-0.8,0.4-1.2c-0.2-0.5-0.8-0.6-1.2-0.4l0,0c-0.5,0.2-0.6,0.8-0.4,1.2l0,0C5.7,32.2,6.2,32.4,6.7,32.1z M13.6,39.1 c0.1,0.3,0.4,0.5,0.7,0.4l0,0c0.3-0.1,0.5-0.4,0.4-0.7s-0.4-0.5-0.7-0.4C13.8,38.5,13.6,38.8,13.6,39.1L13.6,39.1z M11.2,38.6 c0.1,0.4,0.5,0.6,0.8,0.5l0,0c0.4-0.1,0.6-0.5,0.5-0.8c-0.1-0.4-0.5-0.6-0.8-0.5C11.4,37.8,11.1,38.2,11.2,38.6L11.2,38.6z M9,37.5 c0.1,0.4,0.6,0.7,1,0.6l0,0c0.4-0.1,0.7-0.6,0.6-1l0,0c-0.1-0.4-0.6-0.7-1.1-0.6C9.1,36.6,8.9,37,9,37.5L9,37.5z M7.3,35.9 c0.2,0.5,0.7,0.7,1.2,0.6l0,0C9,36.3,9.2,35.8,9,35.3s-0.7-0.7-1.2-0.5C7.3,34.9,7.1,35.4,7.3,35.9z M20.5,36.7 c-0.2,0.2-0.2,0.4-0.1,0.6c0.1,0.2,0.4,0.2,0.6,0.1c0.2-0.1,0.2-0.4,0.1-0.6C21,36.6,20.8,36.6,20.5,36.7 C20.6,36.7,20.6,36.7,20.5,36.7z M16.5,38.5c-0.2,0-0.4,0.3-0.4,0.5s0.3,0.4,0.5,0.4l0,0c0.2,0,0.4-0.3,0.4-0.5l0,0 C16.9,38.6,16.7,38.5,16.5,38.5L16.5,38.5L16.5,38.5z M14.3,21c0-0.2-0.3-0.4-0.5-0.4l0,0c-0.2,0-0.4,0.3-0.4,0.5s0.3,0.4,0.5,0.4 C14.2,21.5,14.4,21.2,14.3,21L14.3,21z M10,22.6c-0.1-0.2-0.4-0.2-0.6-0.1c-0.2,0.1-0.2,0.4-0.1,0.6c0.1,0.2,0.4,0.2,0.6,0.1 S10.1,22.8,10,22.6L10,22.6z M26.8,31.3c-0.7,0-1.3-0.6-1.3-1.3c0-0.7,0.6-1.3,1.3-1.3l0,0c0.7,0,1.3,0.6,1.3,1.3l0,0 C28.1,30.7,27.5,31.3,26.8,31.3L26.8,31.3z M21.7,20.1c0.1-0.4-0.2-0.8-0.5-0.8l0,0c-0.4-0.1-0.8,0.2-0.8,0.5l0,0 c-0.1,0.4,0.2,0.8,0.5,0.8C21.2,20.8,21.6,20.5,21.7,20.1z M24.2,22c0.1-0.5-0.2-0.9-0.7-1l0,0c-0.5-0.1-0.9,0.3-1,0.7 c-0.1,0.5,0.2,0.9,0.7,1C23.7,22.8,24.2,22.4,24.2,22z M26.3,24.3L26.3,24.3z M27.6,27.1c0-0.7-0.5-1.2-1.1-1.2l0,0 c-0.7,0-1.2,0.5-1.2,1.1l0,0c0,0.7,0.5,1.2,1.1,1.3C27,28.2,27.5,27.7,27.6,27.1L27.6,27.1L27.6,27.1z M15.7,18.4 c0-0.3-0.2-0.5-0.5-0.5s-0.5,0.3-0.5,0.5c0,0.3,0.2,0.5,0.5,0.5C15.5,19,15.7,18.7,15.7,18.4z M20.8,39.3c-0.4,0.1-0.6,0.5-0.6,0.8 c0.1,0.4,0.5,0.6,0.8,0.6c0.4-0.1,0.6-0.5,0.6-0.8C21.6,39.5,21.2,39.2,20.8,39.3L20.8,39.3z M23.3,37.3c-0.5,0.1-0.8,0.5-0.7,1 c0.1,0.5,0.5,0.8,1,0.7l0,0c0.5-0.1,0.8-0.5,0.7-1C24.2,37.6,23.7,37.3,23.3,37.3z M25.1,34.7c-0.6,0.1-1,0.6-1,1.2s0.6,1,1.2,1 c0.6-0.1,1-0.6,1-1.2l0,0C26.2,35.1,25.7,34.6,25.1,34.7z M26.3,31.8c-0.7,0-1.2,0.6-1.1,1.2c0,0.7,0.6,1.2,1.2,1.1l0,0 c0.7,0,1.2-0.6,1.1-1.2l0,0C27.5,32.3,27,31.8,26.3,31.8z M15.2,41c-0.3,0-0.5,0.2-0.5,0.5s0.2,0.5,0.5,0.5s0.5-0.2,0.5-0.5 S15.5,41,15.2,41z M3.7,31.3C4.4,31.3,5,30.7,5,30s-0.6-1.3-1.3-1.3l0,0c-0.7,0-1.3,0.6-1.3,1.3l0,0C2.4,30.7,2.9,31.3,3.7,31.3z M9.6,20.7c0.4-0.1,0.6-0.5,0.6-0.8c-0.1-0.4-0.5-0.6-0.8-0.5l0,0c-0.4,0.1-0.6,0.5-0.5,0.8C8.8,20.5,9.2,20.8,9.6,20.7z M7.2,22.7 c0.5-0.1,0.8-0.5,0.7-1c-0.1-0.5-0.5-0.8-1-0.7l0,0c-0.5,0.1-0.8,0.5-0.7,1l0,0C6.3,22.4,6.7,22.8,7.2,22.7z M5.3,25.3 c0.6-0.1,1-0.6,0.9-1.2s-0.6-1-1.2-0.9s-1,0.6-1,1.2l0,0C4.2,24.9,4.7,25.4,5.3,25.3L5.3,25.3z M4.1,28.2c0.7,0,1.2-0.6,1.1-1.3 c0-0.7-0.6-1.2-1.2-1.1l0,0c-0.7,0-1.2,0.6-1.1,1.2l0,0C2.9,27.7,3.4,28.2,4.1,28.2z M8.7,39.9c-0.1,0.4,0.2,0.8,0.6,0.8 c0.4,0.1,0.8-0.2,0.8-0.6c0.1-0.4-0.2-0.8-0.6-0.8C9.2,39.2,8.8,39.5,8.7,39.9z M6.2,38c-0.1,0.5,0.2,0.9,0.7,1l0,0 c0.5,0.1,0.9-0.2,1-0.7s-0.2-0.9-0.7-1S6.3,37.6,6.2,38L6.2,38z M4.1,35.7c-0.1,0.6,0.4,1.1,1,1.2l0,0c0.6,0.1,1.1-0.4,1.2-1l0,0 c0.1-0.6-0.4-1.1-1-1.2l0,0C4.7,34.6,4.2,35.1,4.1,35.7L4.1,35.7L4.1,35.7z M2.9,32.9c0,0.7,0.5,1.2,1.1,1.2l0,0 c0.7,0,1.2-0.5,1.3-1.1l0,0c0-0.7-0.5-1.2-1.1-1.2C3.5,31.8,2.9,32.3,2.9,32.9z M18.1,40.6c-0.3,0.1-0.5,0.4-0.4,0.7 s0.4,0.5,0.7,0.4c0.3-0.1,0.5-0.4,0.4-0.7l0,0C18.7,40.7,18.4,40.5,18.1,40.6L18.1,40.6z M12.4,40.6c-0.3-0.1-0.6,0.1-0.7,0.4 c-0.1,0.3,0.1,0.6,0.4,0.7c0.3,0.1,0.6-0.1,0.7-0.4S12.7,40.7,12.4,40.6L12.4,40.6z M18.7,19c0.1-0.3-0.1-0.6-0.4-0.7l0,0 c-0.3-0.1-0.6,0.1-0.7,0.4s0.1,0.6,0.4,0.7C18.4,19.5,18.7,19.3,18.7,19L18.7,19z M12.8,18.7c-0.1-0.3-0.4-0.5-0.7-0.4l0,0 c-0.3,0.1-0.5,0.4-0.4,0.7l0,0c0.1,0.3,0.4,0.5,0.7,0.4C12.7,19.3,12.8,19,12.8,18.7z"></path> </g> </svg> 