<?xml version="1.0" encoding="UTF-8"?> <svg xmlns="http://www.w3.org/2000/svg" xmlns:xlink="http://www.w3.org/1999/xlink" version="1.1" id="Layer_1" x="0px" y="0px" viewBox="0 0 180 60" style="enable-background:new 0 0 180 60;" xml:space="preserve"> <style type="text/css"> .st0{fill:#FFFFFF;} </style> <g id="Symbols"> <g id="Artboard-1" transform="translate(-12.000000, -4.000000)"> <g id="Group" transform="translate(12.000000, 4.000000)"> <path id="Fill-1" class="st0" d="M74,27.5c0-1-0.3-2.4-1.4-2.4c-1.2,0-1.2,1.4-1.2,2.4V49c0,1,0,2.4,1.2,2.4S74,50,74,49V27.5z M63.7,26.4c0-4.8,4.4-6.3,8.9-6.3c4.8,0,9.1,1.5,9.1,6.3v23.8c0,4.8-4.4,6.6-9.1,6.6c-4.5,0-8.9-1.8-8.9-6.6 C63.7,50.2,63.7,26.4,63.7,26.4z"></path> <path id="Fill-3" class="st0" d="M91.4,35.3h0.8c1.4,0,1.8-0.6,1.8-2.4v-5.1c0-1.8-0.4-2.2-1.8-2.2h-0.8V35.3z M84,56V20.7h8.9 c4.8,0,9.1,1.8,9.1,7.2v3c0,2.6-1.4,5.5-5.9,5.8V37c4.8,0.3,5.9,1.9,5.9,5.9v7.2c0,3.3,0.6,4.8,1.2,6.2h-7.8c-0.4-1-1-2.2-1-4.6 v-8.1c0-2.2,0-4-2.7-4v16.7H84V56z"></path> <path id="Fill-5" class="st0" d="M114.3,27.5c0-1-0.3-2.4-1.4-2.4c-1.2,0-1.4,1.4-1.4,2.4V49c0,1,0.1,2.4,1.4,2.4 c1.2,0,1.4-1.4,1.4-2.4V27.5z M103.9,26.4c0-4.8,4.4-6.3,9.1-6.3s8.9,1.5,8.9,6.3v23.8c0,4.8-4.1,6.6-8.9,6.6s-9.1-1.8-9.1-6.6 V26.4z"></path> <polygon id="Fill-7" class="st0" points="124.2,56 124.2,20.7 134.2,20.7 137.7,43.3 137.8,44 137.8,20.7 144,20.7 144,56 134.5,56 130.4,29 130.4,28 130.4,56 "></polygon> <g id="Group-11" transform="translate(121.459119, 13.082492)"> <g id="Clip-10"> </g> <path id="Fill-9" class="st0" d="M48.2,14.4c0-1-0.3-2.4-1.4-2.4c-1.2,0-1.4,1.4-1.4,2.4V36c0,1,0.3,2.4,1.4,2.4 c1.2,0,1.4-1.4,1.4-2.4V14.4z M37.6,13.3C37.6,8.6,42,7,46.8,7s8.9,1.5,8.9,6.3v23.8c0,4.8-4.1,6.6-8.9,6.6s-9.1-1.8-9.1-6.6 C37.6,37.1,37.6,13.3,37.6,13.3z"></path> </g> <polygon id="Fill-12" class="st0" points="158.4,20.7 144.9,20.7 144.9,26 147.8,26 147.8,56 155.6,56 155.6,26 158.4,26 "></polygon> <polygon id="Fill-14" class="st0" points="67,12.2 47.9,12.2 47.9,17.7 53.7,17.7 53.7,56 61.4,56 61.4,17.7 67,17.7 "></polygon> <g id="Group-18" transform="translate(0.000000, 39.742492)"> <g id="Clip-17"> </g> <path id="Fill-16" class="st0" d="M47.4,17.6v-0.1c-5.4-2.4-9.1-3-16.1-3H2.9v1.9h38.3C43.8,16.4,45.7,17.1,47.4,17.6"></path> </g> <path id="Fill-19" class="st0" d="M36.1,4.1l-1.2-1c-0.6-0.3-1.2,0.3-1.2,0.3l-1.5,0.8v8.4c-1.5,3.2-5.3,4.8-5.5,5 c-0.6,0.4-0.8,0.8-0.8,1.4v31.1c-1.2,0.3-3,0.4-3,0.4V23.6c0-1-0.4-1.2-1.4-1.4c-1.2-0.4-3.2-0.6-9.9-3.3v-5.5l-1.4-0.5 c0,0-0.8-0.4-1.4-0.3c-0.5,0.3-1.3,0.8-1.7,1C5.6,14.7,3,16.9,3,20.8V53h2.7V20.7c0-2.8,1.8-4.1,2.7-4.8h0.4V53h2.7V21.9 c2.2,1,3.6,1.5,6.2,2.2c0.8,0.4,1.8,0.6,2.3,0.6v26c-3.2,0.6-5.8,1.4-8.1,2.3h5.7c4.1-1.8,8.9-2.8,13.7-2.8 c-0.8-0.3-1.8-0.3-2.6-0.3V19.5l0.3-0.3c0.8-0.4,1.9-1.2,3.2-2.4V53c0.6,0.3,1.9,0,3,0.3V7.4h0.3c1.4,1.8,2.7,4.4,2.7,8.1v37.9 c1,0,1.9,0.3,3,0.4V15.5C40.8,9.6,37.6,6,36.1,4.1"></path> </g> </g> </g> </svg> 