<?xml version="1.0" encoding="UTF-8"?> <svg xmlns="http://www.w3.org/2000/svg" xmlns:xlink="http://www.w3.org/1999/xlink" version="1.1" id="Layer_1" x="0px" y="0px" viewBox="0 0 64 64" style="enable-background:new 0 0 64 64;" xml:space="preserve"> <style type="text/css"> .st0{fill:#3178C6;} .st1{fill-rule:evenodd;clip-rule:evenodd;fill:#FFFFFF;} </style> <g> <path class="st0" d="M7.7,1.9h48.5c3.3,0,5.9,2.6,5.9,5.9v48.5c0,3.3-2.6,5.9-5.9,5.9H7.7c-3.3,0-5.9-2.6-5.9-5.9V7.7 C1.9,4.5,4.5,1.9,7.7,1.9z"></path> <path class="st0" d="M7.7,1.9h48.5c3.3,0,5.9,2.6,5.9,5.9v48.5c0,3.3-2.6,5.9-5.9,5.9H7.7c-3.3,0-5.9-2.6-5.9-5.9V7.7 C1.9,4.5,4.5,1.9,7.7,1.9z"></path> <path class="st1" d="M39.2,49.8v5.9c1,0.5,2.1,0.9,3.4,1.1c1.3,0.2,2.7,0.4,4.1,0.4c1.4,0,2.8-0.1,4-0.4c1.3-0.3,2.4-0.7,3.3-1.3 c1-0.6,1.7-1.4,2.3-2.4c0.6-1,0.8-2.2,0.8-3.7c0-1.1-0.2-2-0.5-2.8c-0.3-0.8-0.8-1.5-1.4-2.1c-0.6-0.6-1.3-1.2-2.2-1.7 c-0.8-0.5-1.8-1-2.8-1.4c-0.8-0.3-1.5-0.6-2.1-0.9c-0.6-0.3-1.1-0.6-1.6-0.9c-0.4-0.3-0.8-0.6-1-1c-0.2-0.4-0.4-0.7-0.4-1.2 c0-0.4,0.1-0.8,0.3-1.1c0.2-0.3,0.5-0.6,0.9-0.8c0.4-0.2,0.8-0.4,1.4-0.5c0.6-0.1,1.2-0.2,1.8-0.2c0.5,0,1,0,1.6,0.1 c0.5,0.1,1.1,0.2,1.6,0.3c0.6,0.2,1.1,0.3,1.6,0.6c0.5,0.2,1,0.5,1.4,0.8v-5.5c-0.9-0.3-1.9-0.6-2.9-0.8c-1.1-0.2-2.3-0.2-3.7-0.2 c-1.4,0-2.7,0.2-4,0.5c-1.3,0.3-2.4,0.8-3.3,1.4c-1,0.6-1.7,1.5-2.3,2.4c-0.6,1-0.8,2.2-0.8,3.5c0,1.8,0.5,3.3,1.5,4.5 c1,1.2,2.6,2.3,4.6,3.2c0.8,0.3,1.6,0.7,2.3,1c0.7,0.3,1.3,0.7,1.8,1c0.5,0.3,0.9,0.7,1.2,1.1c0.3,0.4,0.4,0.9,0.4,1.4 c0,0.4-0.1,0.7-0.3,1.1s-0.5,0.6-0.8,0.8s-0.8,0.4-1.4,0.6c-0.6,0.1-1.2,0.2-2,0.2c-1.3,0-2.5-0.2-3.8-0.7 C41.4,51.4,40.2,50.7,39.2,49.8L39.2,49.8z M29.3,35.3h7.6v-4.8H15.7v4.8h7.5v21.5h6V35.3z"></path> </g> </svg> 