<?xml version="1.0" encoding="UTF-8"?> <svg xmlns="http://www.w3.org/2000/svg" xmlns:xlink="http://www.w3.org/1999/xlink" version="1.1" id="Layer_1" x="0px" y="0px" viewBox="0 0 330.1 80.4" style="enable-background:new 0 0 330.1 80.4;" xml:space="preserve"> <style type="text/css"> .st0{fill:#FFFFFF;} </style> <g> <path class="st0" d="M158,35.1c-4.7-7.4-12.5-8.4-21.2-2.4c0-4-0.3-7.8,0.1-11.5c0.5-4.1-2-3.6-4.5-3.6c-2.3,0.1-4.8-0.9-4.7,3.4 c0.3,12.3,0.1,24.5,0.2,36.8c0,1.2-1.2,3.4,1.2,3.6c2.5,0.1,6.5,1.4,7.3-0.7c1.4-3.6,2.3-0.8,3.1-0.3c4.5,2.8,9.1,2.8,13.7,0.3 C161,56.4,163.4,43.6,158,35.1z M144.3,54.8c-4.5,0-7.6-3.9-7.5-9.3c0.1-5.2,3.1-8.9,7.3-9c4.6-0.1,7.7,3.6,7.8,9.1 C151.9,51,148.8,54.8,144.3,54.8z"></path> <path class="st0" d="M17.9,34.7c0-3,0-6,0-9c0-4.6,3.5-6.8,7.9-5.1c1.9,0.7,1,2.2,1.1,3.4c0.1,6.6,0,13.3,0.1,19.9 c0.1,6.7,3.2,10.2,8.9,10.2c5.8,0,9-3.5,9-10.1c0.1-6.8,0.2-13.6-0.1-20.4c-0.2-4.1,2.5-3,4.5-3c2,0,4.8-1.3,4.6,2.9 c-0.3,7.3,0.1,14.6-0.2,21.9c-0.4,11.1-7.2,17.2-18.4,17.1C24.6,62.5,18.3,56.3,18,45.2C17.8,41.7,17.9,38.2,17.9,34.7z"></path> <path class="st0" d="M205.6,29.6c-7-2.4-14.5,0.1-18.3,6.3c-4.3,7-3.4,17.8,1.9,22.7c5.5,5,14.7,5.6,20.8,1.1 c1.2-0.9,4.2-1.7,2-3.9c-1.4-1.4-2.4-4.9-6.2-2.2c-5.5,4-10.3,2-12.9-4.9c6.7,0,13.1,0,19.4,0c1.3,0,2.9,0.7,3.4-1.7 C216.8,40.5,211.8,31.7,205.6,29.6z M206.4,41.8c-0.4,2.2-3.1,0.6-4.7,1c-0.6,0.2-1.3,0-2,0c-0.5,0-1,0.1-1.5,0 c-1.8-0.4-4.9,1.2-5.1-1c-0.3-2.9,2.1-5,5.1-5.8c1.5-0.4,3,0,4.3,0.6C205,37.5,206.8,39.6,206.4,41.8z"></path> <path class="st0" d="M278.5,29.6c-7-2.4-14.5,0.1-18.3,6.3c-4.3,7-3.4,17.8,1.9,22.7c5.5,5,14.7,5.6,20.8,1.1 c1.2-0.9,4.2-1.7,2-3.9c-1.4-1.4-2.3-4.9-6.2-2.2c-5.5,4-10.3,2-12.9-4.9h9.9c3.2,0,6.3,0.1,9.5,0c1.3,0,2.9,0.7,3.4-1.7 C289.8,40.5,284.8,31.7,278.5,29.6z M279.4,41.7c-0.4,2.4-3,0.7-4.6,1.1c-0.8,0.2-1.7,0-2.5,0c-0.3,0-0.7,0.1-1,0 c-1.8-0.7-5,1.7-5.2-1.4c-0.1-2.9,2.4-4.9,5.5-5.5c1.5-0.3,2.9,0.2,4.3,0.8C278.1,37.7,279.7,39.7,279.4,41.7z"></path> <path class="st0" d="M119.9,43c-0.3-8.6-4.7-13-13.4-13.4c-3.2-0.1-6.3,0.3-9.3,1.2c-1.8,0.6-4.2,0.8-2.7,3.9 c1,1.9,0.6,4.7,4.5,3.4c3.2-1.1,6.9-1.5,10.1,0.4c1.3,0.8,2.4,2.1,1.8,3.7c-0.7,1.5-2.1,0.4-3.1,0.2c-3.2-0.5-6.3-0.5-9.4,0.3 c-4.8,1.2-7.6,5.1-7.4,9.9c0.1,4.8,3.2,8.5,7.9,9.6c3.2,0.7,6.3,0.4,9.2-1.2c1.3-0.7,1.8-1.2,3.7,0.1c4.3,2.9,8.2,0.1,8.2-5.2v-5.5 C119.9,48,119.9,45.5,119.9,43z M104.7,56.4c-2.7,0-5-0.9-5-4.2c0-4.2,3.1-4.5,6.4-4.7c1.9,0.6,4.9-0.5,5.2,2.9 C111.7,53.5,108.4,56.4,104.7,56.4z"></path> <path class="st0" d="M221.8,45.2c0-4-0.1-8,0.1-12c0.1-1.2-1.1-3.5,1.3-3.5c2.5-0.1,6.4-1.4,7.2,0.8c1.3,3.4,2,1.2,3,0.4 c7.7-5.2,16.6-1.3,17.2,7.8c0.5,6.8,0.1,13.6,0.1,20.4c0,4.4-3.3,1.9-5.1,2.3c-1.7,0.3-4.1,1-3.9-2.5c0.2-5.1,0-10.3,0.1-15.4 c0-3.8-1.2-6.8-5.5-6.8c-4.2,0-5.6,3-5.5,6.8c0,4.8-0.3,9.7,0.1,14.4c0.4,4.1-1.9,3.7-4.5,3.6c-2.3-0.1-5.1,0.9-4.7-3.4 C222.1,53.9,221.8,49.6,221.8,45.2z"></path> <path class="st0" d="M74,62.6c-3.4,0.1-6.5-1-9.6-2.2c-3.8-1.5-4-3.4-1.7-6.6c1.4-2,2.2-1.6,3.8-0.6c2.6,1.6,5.3,2.7,8.5,2.4 c1.5-0.1,2.6-0.8,2.8-2.3c0.2-1.4-0.9-2.1-2-2.6c-2.5-1-5-1.7-7.5-2.7c-4.5-1.8-6.8-5.2-6.4-10.1c0.5-5,3.5-7.8,8.1-8.9 c3.5-0.9,7.1-0.5,10.3,1c1.6,0.8,5.4,0.3,3.9,4.1c-1.1,2.7-2.4,5.8-6.2,2.7c-0.2-0.2-0.6-0.2-0.9-0.3c-2.5-0.7-5.8-2.3-6.9,1 c-0.9,2.9,2.8,3,4.7,4c1,0.5,2.2,0.8,3.3,1.2c6.1,2.5,8.6,6.5,7.5,11.8C84.6,59.7,80.5,62.5,74,62.6z"></path> <path class="st0" d="M167.8,39.6c0-6,0.2-12-0.1-17.9c-0.2-4.5,2.7-3,4.9-3.2c2.3-0.2,4.4-0.5,4.3,3.3c-0.3,12.3-0.2,24.6,0,36.9 c0.1,4.2-2.7,2.8-4.6,2.9c-2.1,0.1-4.7,1.1-4.5-3C168.1,52.2,167.8,45.9,167.8,39.6z"></path> <path class="st0" d="M312.2,29.3v8.3h-6.1c-1.5,0.7-1.7,2.6-1.5,5.1c0.3,2.8,0.1,5.6,0,8.5c0,2.5,1.1,3.5,3.7,3.5 c1.1,0,3.5-2.4,3.5,1.1c0,2.3,1.1,4.9-2.5,6.1c-7.5,2.7-13.4-1.1-13.7-9.1c0-2,0-4,0-6c0-2.3,0-4.7,0-7c0-0.8,0.2-1.6-0.8-2.3h-3.9 v-8.3h4c1.6-1.2,0.8-3.1,0.6-4.5c-0.4-4.5,2.7-3,4.9-3.2c2.3-0.1,5-0.7,4.2,3.2c-0.4,2.3-0.1,3.7,1.1,4.4H312.2z"></path> </g> </svg> 