<?xml version="1.0" encoding="UTF-8"?> <svg xmlns="http://www.w3.org/2000/svg" xmlns:xlink="http://www.w3.org/1999/xlink" version="1.1" id="图层_1" x="0px" y="0px" viewBox="0 0 180 60" style="enable-background:new 0 0 180 60;" xml:space="preserve"> <style type="text/css"> .st0{fill:#009FAC;} </style> <g> <path id="XMLID_116_" class="st0" d="M144.4,30c0,4.1,0,8.2,0,12.2c0,0.3-0.1,0.4-0.4,0.4c-1.6,0-3.1,0-4.7,0 c-0.2,0-0.3-0.1-0.3-0.3c0-0.1,0-0.2,0-0.3c0-6.4,0-12.8,0-19.3c0-0.5,0.1-0.5-0.5-0.5c-1.1,0-2.1,0-3.2,0c-0.2,0-0.3-0.1-0.3-0.3 c0-1.5,0-3,0-4.5c0-0.2,0-0.3,0.3-0.3c2.9,0,5.8,0,8.7,0c0.3,0,0.4,0.1,0.4,0.4C144.4,21.8,144.4,25.9,144.4,30"></path> <path d="M75.9,32.6c-1.4,0-2.7,0-4.1,0c-0.1,0-0.2,0-0.3-0.1c0.2-0.9,0.6-1.7,0.9-2.5c0.5-1.3,0.9-2.7,1.4-4c0-0.1,0-0.1,0.1-0.2 c0.6,1.6,1.1,3.3,1.7,4.9c0.2,0.6,0.5,1.2,0.6,1.8C76.2,32.7,76,32.6,75.9,32.6 M55.5,28.8c-0.6,0.3-1.3,0.4-1.9,0.5 c-0.2,0.2-0.5,0.1-0.7,0.1c-0.7,0-1.3,0-2,0c-0.2,0-0.3,0-0.3-0.3c0-2.2,0-4.3,0-6.5c0-0.2,0-0.3,0.2-0.3c1.1,0,2.2,0,3.3,0 c0.2,0,0.3-0.1,0.4,0.1c0.6,0.2,1.1,0.3,1.6,0.7c1.1,0.8,1.4,1.8,1.3,3.1C57.3,27.5,56.6,28.3,55.5,28.8 M80.3,42.6 c1.6,0,3.3,0,4.9,0c0.2,0,0.3,0,0.3-0.2c-0.1-0.3-0.2-0.6-0.3-0.9c-3-7.9-6-15.8-9-23.8c-0.1-0.3-0.2-0.4-0.5-0.4 c-1.2,0-2.4,0-3.6,0c-0.3,0-0.5,0.1-0.6,0.4c-2.3,6.2-4.7,12.4-7,18.6c-0.6,1.7-1.3,3.4-1.9,5.2c-0.3-0.3-5.5-7.6-5.6-7.8 c3.2-0.9,5.2-3,5.7-6.3c-0.1-0.2-0.1-0.4,0-0.5c0.1-0.7,0.1-1.5,0-2.2c-0.4-4-3.2-6.8-7.2-7.1c-0.2,0.1-0.4,0.1-0.5,0 c-0.5-0.1-1-0.1-1.4-0.1c-2.6,0-5.3,0-7.9,0c-0.4,0-0.4,0.1-0.4,0.4c0,8.1,0,16.3,0,24.4c0,0.1,0,0.3,0,0.4c1.8,0,3.6,0,5.3,0v-8.7 c0.9,1.2,1.8,2.4,2.6,3.6c1.2,1.7,2.4,3.4,3.7,5.1c3.5,0,6.9,0,10.4,0c0.2,0,0.3,0,0.5-0.1c0-0.1,0.1-0.2,0.1-0.3 c0.6-1.5,1.1-2.9,1.7-4.4c0.1-0.3,0.2-0.4,0.5-0.4c2.5,0,4.9,0,7.4,0c0.5,0,0.6,0.1,0.8,0.6c0.6,1.5,1.2,3.1,1.7,4.6 C80.1,42.4,80.2,42.6,80.3,42.6"></path> <path id="XMLID_112_" d="M98,22.1c1.9,0.3,3.4,1.4,4.7,2.9c0.2,0.2,0.4,0.3,0.7,0.3c1.8,0,3.6,0,5.4,0c0.1,0,0.2,0,0.4,0 c-2.7-6-8.3-9.1-14.6-8.1c-6.4,1.1-11,6.7-10.8,13.3c0.2,6.3,5,11.8,11.2,12.6c6.4,0.8,11.6-2.7,14-8.1h-0.4c-1.7,0-3.4,0-5.1,0 c-0.5,0-0.9,0.1-1.2,0.5c-0.1,0.2-0.3,0.4-0.5,0.5c-1.7,1.6-3.7,2.3-6,2c-3.7-0.6-6.4-3.9-6.6-7.6c-0.1-2.1,0.5-4.1,1.9-5.7 C92.9,22.6,95.2,21.6,98,22.1"></path> <path id="XMLID_111_" d="M177.5,38c0-0.3-0.1-0.4-0.4-0.4c-1.9,0-3.8,0-5.6,0c-1,0-1.9,0-2.9,0c-0.1,0-0.3,0-0.3-0.2 c0-1.5,0-3,0-4.5c0-0.4,0.1-0.4,0.5-0.4c2.8,0,5.5,0,8.3,0c0.3,0,0.4-0.1,0.4-0.4c0-1.4,0-2.8,0-4.3c0-0.3-0.1-0.4-0.4-0.4 c-2.8,0-5.6,0-8.4,0c-0.4,0-0.4-0.1-0.4-0.5c0-1.4,0-2.7,0-4.1c0-0.4,0.1-0.4,0.4-0.4c2.8,0,5.6,0,8.4,0c0.2,0,0.4,0.1,0.4-0.3 c0-1.5,0-3,0-4.5c0-0.2,0-0.3-0.3-0.3c-1.7,0-3.4,0-5.1,0c-2.9,0-5.8,0-8.8,0c-0.4,0-0.5,0.1-0.5,0.5c0,4.1,0,8.1,0,12.2 c0,4.1,0,8.1,0,12.2c0,0.4,0.1,0.5,0.5,0.5c1.9,0,3.7,0,5.6,0c2.7,0,5.5,0,8.2,0c0.3,0,0.4-0.1,0.3-0.4 C177.5,40.9,177.5,39.4,177.5,38"></path> <path id="XMLID_110_" d="M41.6,17.3c-4.6,0-9.2,0-13.7,0c-0.1,0-0.3,0-0.4,0c0,8.3,0,16.5,0,24.8c0,0.4,0.1,0.4,0.5,0.4 c4.7,0,9.4,0,14,0v-4.9c-2.9,0-5.8,0-8.7,0c-0.1,0-0.3,0.1-0.4-0.1c0,0,0-0.1-0.1-0.1c-0.1-0.1-0.1-0.2-0.1-0.3c0-1.4,0-2.9,0-4.3 c0-0.1-0.1-0.3,0.1-0.3c0,0,0-0.1,0.1-0.1c0.1-0.1,0.3-0.1,0.4-0.1c2.9,0,5.8,0,8.7,0v-4.9c-2.9,0-5.8,0-8.7,0 c-0.1,0-0.3,0.1-0.4-0.1c0,0,0-0.1-0.1-0.1c-0.1-0.1-0.1-0.2-0.1-0.3c0-1.4,0-2.8,0-4.2c0-0.1,0-0.2,0-0.3c0,0,0,0,0.1,0 c0.2,0,0.3,0,0.5,0c2.8,0,5.6,0,8.4,0c0.3,0,0.4-0.1,0.4-0.4c0-1.5,0-2.9,0-4.4C42.1,17.4,42,17.3,41.6,17.3"></path> <path id="XMLID_109_" d="M25.8,17.3c-1.6,0-3.3,0-4.9,0c-0.3,0-0.4,0.1-0.5,0.3c-1.8,4.7-3.6,9.3-5.4,14c-0.2,0.5-0.4,1-0.6,1.5 c-0.1-0.2-0.1-0.3-0.1-0.3c-2-5-3.9-10.1-5.9-15.1c-0.1-0.2-0.2-0.3-0.5-0.3c-1.6,0-3.3,0-4.9,0c-0.5,0-0.5,0-0.3,0.5 c3.3,8.1,6.6,16.2,9.8,24.4c0.1,0.2,0.1,0.3,0.2,0.5c0.1-0.1,0.3-0.1,0.4-0.1c1,0,2,0,3,0c0-0.1,0.1-0.2,0.1-0.2 c0.8-2,1.6-3.9,2.4-5.9c2.5-6.2,5-12.5,7.5-18.7C26.2,17.3,26.1,17.3,25.8,17.3"></path> <path id="XMLID_43_" d="M153,18.1c-2-0.7-4.2-0.9-6.3-0.8c-0.2,0-0.2,0.2-0.2,0.3c0,1.5,0,3,0,4.5c0,0.2,0.1,0.3,0.3,0.3 c0.8,0,1.6,0,2.4,0.1c2,0.3,3.7,1.2,4.9,2.9c1.3,1.9,1.6,4,1.3,6.3c-0.4,2.9-2.2,5-5,5.7c-1.2,0.3-2.3,0.3-3.5,0.3 c-0.2,0-0.3,0.1-0.3,0.3c0,0.7,0,1.5,0,2.2c0,0.7,0,1.5,0,2.3c0,0.2,0.1,0.3,0.3,0.3c1.9,0,3.7,0,5.5-0.6c2.3-0.7,4.4-1.9,5.9-3.8 c1.9-2.4,2.6-5.2,2.6-8.2c0-2-0.4-3.9-1.2-5.7C158.3,21.4,156.2,19.3,153,18.1"></path> <path id="XMLID_42_" d="M41.7,42.6c-4.6,0-9.2,0-13.7,0c-0.4,0-0.4,0-0.4-0.4c0-8.1,0-16.2,0-24.4c0-0.1,0-0.3,0-0.4 c-0.1,0.1-0.1,0.3-0.1,0.4c0,2.6,0,5.2,0,7.9c0,5.6,0,11.1,0,16.7c0,0.2,0,0.4,0.3,0.4c4.7,0,9.3,0,14,0c0.1,0,0.2,0.1,0.3-0.1 C41.9,42.6,41.8,42.6,41.7,42.6"></path> <path id="XMLID_41_" d="M27.5,42.1c0-8.3,0-16.5,0-24.8c-0.1,0.1,0,0.3,0,0.4C27.5,25.9,27.5,34,27.5,42.1c0,0.5,0,0.5,0.4,0.5 c4.6,0,9.2,0,13.7,0c0.1,0,0.3,0,0.4,0c-4.7,0-9.4,0-14,0C27.7,42.6,27.5,42.5,27.5,42.1"></path> <path id="XMLID_40_" d="M33.3,27.4c2.8,0,5.5,0,8.3,0c0.1,0,0.3,0,0.4,0c0-0.2-0.2-0.1-0.2-0.1c-3,0-5.9,0-8.9,0 C33,27.4,33.2,27.4,33.3,27.4"></path> <path id="XMLID_39_" d="M33.3,27.4c2.9,0,5.8,0,8.7,0c-0.1-0.1-0.3,0-0.4,0C38.8,27.4,36.1,27.4,33.3,27.4c-0.2,0-0.3,0-0.4-0.1 C33,27.5,33.2,27.4,33.3,27.4"></path> <path id="XMLID_38_" d="M32.8,22.6c0,1.5,0,3,0,4.5c0,0.1,0,0.1,0.1,0.2c0-1.6,0-3.2,0-4.9c0,0,0,0-0.1,0 C32.8,22.5,32.8,22.6,32.8,22.6"></path> <path id="XMLID_37_" d="M32.7,22.7c0,1.4,0,2.8,0,4.2c0,0.1,0,0.2,0.1,0.3c-0.1,0-0.1-0.1-0.1-0.2c0-1.5,0-3,0-4.5c0,0,0-0.1,0-0.1 C32.7,22.5,32.7,22.6,32.7,22.7"></path> <path id="XMLID_36_" d="M62.7,27.4c0-0.2,0-0.3,0-0.5C62.6,27,62.7,27.2,62.7,27.4"></path> <path id="XMLID_35_" d="M62.7,27.4c0-0.2-0.1-0.4,0-0.5C62.6,27,62.6,27.2,62.7,27.4"></path> <path id="XMLID_8_" d="M55.5,17.5c-0.2,0-0.3,0-0.5,0C55.2,17.5,55.4,17.5,55.5,17.5"></path> <path id="XMLID_7_" d="M55.5,17.5c-0.2,0-0.4,0.1-0.5,0C55.2,17.6,55.4,17.5,55.5,17.5"></path> <path id="XMLID_6_" d="M53,29.4C52.9,29.4,52.9,29.4,53,29.4c0.2,0,0.4,0.1,0.6-0.1C53.4,29.4,53.2,29.4,53,29.4"></path> <path id="XMLID_5_" d="M53.6,29.3c-0.2,0-0.4,0-0.6,0.1C53.2,29.4,53.4,29.4,53.6,29.3"></path> <path id="XMLID_4_" d="M54.5,22.5c-0.1-0.2-0.3-0.1-0.4-0.1C54.3,22.5,54.4,22.4,54.5,22.5"></path> <path id="XMLID_3_" d="M54.1,22.4c0.1,0,0.3,0,0.4,0.1C54.4,22.4,54.3,22.5,54.1,22.4"></path> <path class="st0" d="M128.1,36c-1.4,1.4-3.2,2-5,2c-4.1,0-7-2.5-7.9-6.4c-0.8-3.5,1.1-7.5,4.4-9c3.6-1.6,8.6-0.6,10.5,4.4 C131.3,30.4,130.7,33.4,128.1,36 M123,16.9c-7.3,0-13.2,5.8-13.2,13c0,7.2,5.9,13.1,13.1,13.1c7.3,0,13.2-5.8,13.2-13 C136.1,22.7,130.3,16.9,123,16.9"></path> </g> </svg> 