<?xml version="1.0" encoding="UTF-8"?> <svg xmlns="http://www.w3.org/2000/svg" xmlns:xlink="http://www.w3.org/1999/xlink" version="1.1" id="Layer_1" x="0px" y="0px" viewBox="0 0 64 64" style="enable-background:new 0 0 64 64;" xml:space="preserve"> <style type="text/css"> .st0{fill-rule:evenodd;clip-rule:evenodd;fill:#0078D7;} </style> <symbol id="A" viewBox="-40 -40 80 80"> <path class="st0" d="M18.9,23.1c-8.8,0-9.7-0.7-8.2-6.1H25c1.4,0,2.8-1.2,2.8-2.6V-14c0-1.4-1.4-2.6-2.8-2.6h-5.4V-23 c0-1.4-1.4-2.6-2.8-2.6h-40.7c-1.4,0-2.5,1.2-2.5,2.6V5.4c0,1.4,1.1,2.6,2.5,2.6h5.7v6.4c0,1.4,1.1,2.6,2.5,2.6h14 c1.5,5.3-0.5,6.1-9.4,6.1v2.8h30.1L18.9,23.1L18.9,23.1z M-1.6-16.6l-2.3-1.3l-2.3,1.3h-9.6c-1.4,0-2.5,1.2-2.5,2.6V4.5h-4.7v-26.5 l39-0.1L16-22.1v5.5H-1.6z M3.6,0.7l-7.1-4.1v8.1l7.1,4.1V0.7z M5.1,0.7v8.1l7.1-4.1v-8.1C12.2-3.4,5.1,0.7,5.1,0.7z M11.5-4.7 L4.4-8.9l-7.1,4.1v0.1l7.1,4.1l7.1-4.1V-4.7z M24.3-13v26.5h-38.9V-13l39-0.1C24.4-13.1,24.3-13,24.3-13z M-32-32h5.3v-8h-8 c-2.9,0-5.3,2.4-5.3,5.3v8h8V-32z M-21.3-32h10.7v-8h-10.7V-32z M-5.3-32H5.3v-8H-5.3V-32z M10.7-32h10.7v-8H10.7V-32z M32-32v5.3 h8v-8c0-2.9-2.4-5.3-5.3-5.3h-8v8H32z M-40,21.3h8V10.7h-8V21.3L-40,21.3z M-40,5.3h8V-5.3h-8V5.3L-40,5.3z M-40-10.7h8v-10.7h-8 V-10.7L-40-10.7z M-21.3,40h10.7v-8h-10.7V40z M-5.3,40H5.3v-8H-5.3V40z M10.7,40h10.7v-8H10.7V40z M32,21.3h8V10.7h-8V21.3 L32,21.3z M32,5.3h8V-5.3h-8V5.3L32,5.3z M32-10.7h8v-10.7h-8V-10.7L32-10.7z M32,32h-5.3v8h8c2.9,0,5.3-2.4,5.3-5.3v-8h-8V32z M-32,32v-5.3h-8v8c0,2.9,2.4,5.3,5.3,5.3h8v-8H-32z"></path> </symbol> <use xlink:href="#A" width="80" height="80" x="-40" y="-40" transform="matrix(0.7515 0 0 0.7515 32 32)" style="overflow:visible;"></use> </svg> 