<?xml version="1.0" encoding="UTF-8"?> <svg xmlns="http://www.w3.org/2000/svg" xmlns:xlink="http://www.w3.org/1999/xlink" version="1.1" id="Layer_1" x="0px" y="0px" viewBox="0 0 64 64" style="enable-background:new 0 0 64 64;" xml:space="preserve"> <style type="text/css"> .st0{fill:#7D4397;} .st1{fill:#5DB4D9;} .st2{fill:#9868AD;} .st3{fill:#7CC3E0;} .st4{fill:#141414;} </style> <g> <path class="st0" d="M28.4,36.4c-2.2,0.5-4.1,1.5-5.7,3.1c0-0.1,0-0.3,0-0.4c0-7.8,0-15.7,0-23.5c0-0.9,0.3-1.3,1.1-1.5 c0.8-0.2,1.5-0.5,2.2-0.7c0.4-0.1,0.6-0.4,0.4-0.8c-0.2-0.4-0.5-0.1-0.7,0c-1,0.3-2,0.7-2.9,1c-0.7,0.2-0.9,0.5-0.9,1.3 c0,8.2,0,16.4,0,24.6c0,0.3-0.1,0.6,0.1,0.9c-1.1,1.9-1.8,3.9-1.7,6.1c0,0.8-0.5,0.4-0.8,0.3c-3.2-1.2-6.4-2.4-9.6-3.6 c-2.4-0.9-4.7-1.8-7.1-2.6c-0.6-0.2-0.8-0.5-0.8-1.2c0-6.7,0-13.5,0-20.2c0-0.5,0.1-0.8,0.7-1c8.4-2.8,16.8-5.6,25.2-8.4 c0.2-0.1,0.4-0.1,0.7-0.1C28.4,18.7,28.4,27.5,28.4,36.4z M17.5,43.8c0-0.3,0-0.6,0-0.9c0-8.6,0-17.1,0-25.7c0-0.8,0.2-1.2,1-1.3 c0.5-0.1,1-0.4,1.5-0.6c0.3-0.1,0.3-0.4,0.3-0.6c-0.1-0.4-0.4-0.1-0.6,0c-0.8,0.3-1.6,0.6-2.4,0.8c-0.4,0.1-0.5,0.3-0.5,0.8 c0,8.9,0,17.9,0,26.8C16.7,43.6,16.8,43.9,17.5,43.8z M7.5,29.6c0,3.3,0,6.7,0,10c0,0.4,0,0.9,0.5,0.8c0.6,0,0.3-0.5,0.3-0.8 c0-6.1,0-12.2,0-18.3c0-1.1-0.2-2.3,1.4-2.4c0.4,0,0.3-0.4,0.3-0.7c-0.1-0.3-0.3-0.1-0.5,0c-0.4,0.1-0.7,0.3-1.1,0.3 c-0.7,0.1-0.9,0.5-0.9,1.3C7.5,23,7.5,26.3,7.5,29.6z M12.3,42.1c0-0.4,0-0.7,0-1c0-7.4,0-14.8,0-22.2c0-0.7,0.2-1.1,0.9-1.3 c0.4-0.1,0.7-0.2,1.1-0.4c0.2-0.1,0.5-0.2,0.4-0.5c-0.1-0.4-0.4-0.2-0.6-0.2c-0.6,0.2-1.2,0.5-1.9,0.6c-0.5,0.1-0.6,0.4-0.6,0.9 c0,1.9,0,3.7,0,5.6c0,5.8,0,11.6,0,17.4C11.6,41.6,11.5,42,12.3,42.1z"></path> <path class="st1" d="M47.6,29.7c3.3,0.6,5.8,2.5,7.6,5.3c1.9,2.9,2.4,6.1,1.6,9.5c-0.3,1.1-0.3,1.1,0.9,1.1c2.2,0,3.8,1.2,4.3,3.1 c0.5,1.9-0.2,3.8-1.9,4.9c-0.6,0.4-1.3,0.6-2,0.6c-0.1-0.2-0.3-0.2-0.5-0.2c-1.5,0-3,0-4.4,0c-3.1,0-6.2,0-9.3,0 c-3.2,0-6.4,0-9.6,0c-0.4,0-0.7-0.1-0.9-0.4c-1.3-2-1.8-4.2-1.4-6.4c0.8-4.3,4.3-7.4,8.7-7.3c0.8,0,1-0.4,1.1-1 c0.6-3.6,2.5-6.4,5.4-8.5C47.3,30.1,47.6,30,47.6,29.7z"></path> <path class="st2" d="M28.4,36.4c0-8.9,0-17.8,0-26.7c2.7,0.7,5.4,1.7,8.1,2.6c6,2,12,3.9,18.1,5.9c0.4,0.1,0.6,0.3,0.6,0.8 c0,4.4,0,8.8,0,13.1c0,0.1,0,0.2-0.1,0.4c-1.3-1.5-2.8-2.6-4.5-3.4c-6.6-3.2-14.9,0-17.8,6.7c-0.3,0.6-0.6,0.9-1.3,0.7 C30.4,36.3,29.4,36.4,28.4,36.4z M30.2,13.1c0.4,0,0.8-0.2,0.8-0.7c0-0.4-0.3-0.7-0.7-0.7c-0.5,0-0.7,0.3-0.7,0.7 C29.5,12.7,29.7,13,30.2,13.1z M53.1,20.5c0.4,0,0.7-0.3,0.7-0.7c0.1-0.5-0.3-0.7-0.7-0.8c-0.4,0-0.7,0.2-0.7,0.6 C52.4,20.1,52.7,20.4,53.1,20.5z"></path> <path class="st3" d="M47.6,29.7c0,0.4-0.3,0.5-0.5,0.6c-2.9,2.1-4.8,4.9-5.4,8.5c-0.1,0.6-0.3,1-1.1,1c-4.4-0.1-8,3-8.7,7.3 c-0.4,2.3,0,4.5,1.4,6.4c0.2,0.3,0.5,0.4,0.9,0.4c3.2,0,6.4,0,9.6,0c3.1,0,6.2,0,9.3,0c1.5,0,3,0,4.4,0c0.2,0,0.4,0,0.5,0.2 c-0.3,0.2-0.6,0.1-0.9,0.1c-7.5,0-14.9,0.1-22.4,0c-2.4,0-4.8,0.2-7.1-0.4c-4.7-1.2-7.3-6.7-5.4-11.1c1.4-3.1,3.8-4.7,7.1-5 c1.1-0.1,2.1,0.2,3.1,0.4c0.5,0.1,0.8,0,0.9-0.5c1.7-4.7,5.1-7.4,10-8.2C44.8,29.1,46.2,29.2,47.6,29.7z"></path> <path class="st4" d="M22,40.4c-0.2-0.3-0.1-0.6-0.1-0.9c0-8.2,0-16.4,0-24.6c0-0.7,0.2-1.1,0.9-1.3c1-0.3,2-0.7,2.9-1 c0.2-0.1,0.5-0.4,0.7,0c0.1,0.4,0,0.7-0.4,0.8c-0.7,0.2-1.5,0.5-2.2,0.7c-0.8,0.2-1.1,0.6-1.1,1.5c0,7.8,0,15.7,0,23.5 c0,0.1,0,0.3,0,0.4C22.5,39.8,22.2,40.1,22,40.4z"></path> <path class="st4" d="M17.5,43.8c-0.6,0.1-0.8-0.2-0.8-0.8c0-8.9,0-17.9,0-26.8c0-0.4,0.1-0.6,0.5-0.8c0.8-0.3,1.6-0.6,2.4-0.8 c0.2-0.1,0.4-0.4,0.6,0c0.1,0.3,0.1,0.5-0.3,0.6c-0.5,0.2-1,0.5-1.5,0.6c-0.8,0.1-1,0.5-1,1.3c0,8.6,0,17.1,0,25.7 C17.5,43.2,17.5,43.5,17.5,43.8z"></path> <path class="st4" d="M7.5,29.6c0-3.3,0-6.6,0-9.9c0-0.7,0.2-1.1,0.9-1.3c0.4-0.1,0.7-0.2,1.1-0.3c0.2,0,0.4-0.3,0.5,0 c0.1,0.3,0.2,0.7-0.3,0.7C8,19,8.3,20.2,8.3,21.3c0,6.1,0,12.2,0,18.3c0,0.3,0.3,0.8-0.3,0.8c-0.5,0-0.5-0.5-0.5-0.8 C7.5,36.3,7.5,32.9,7.5,29.6z"></path> <path class="st4" d="M12.3,42.1c-0.7-0.1-0.6-0.6-0.6-1c0-5.8,0-11.6,0-17.4c0-1.9,0-3.7,0-5.6c0-0.5,0.1-0.7,0.6-0.9 c0.6-0.2,1.2-0.4,1.9-0.6c0.2-0.1,0.5-0.2,0.6,0.2c0.1,0.4-0.2,0.4-0.4,0.5c-0.3,0.1-0.7,0.3-1.1,0.4c-0.7,0.1-0.9,0.5-0.9,1.3 c0,7.4,0,14.8,0,22.2C12.3,41.5,12.3,41.8,12.3,42.1z"></path> <path class="st0" d="M30.2,13.1c-0.5,0-0.7-0.3-0.7-0.7c0-0.4,0.3-0.7,0.7-0.7c0.4,0,0.7,0.2,0.7,0.7C31,12.8,30.7,13,30.2,13.1z"></path> <path class="st0" d="M53.1,20.5c-0.5-0.1-0.7-0.4-0.7-0.9c0-0.4,0.3-0.6,0.7-0.6c0.4,0,0.8,0.2,0.7,0.8 C53.8,20.2,53.5,20.4,53.1,20.5z"></path> </g> </svg> 