<?xml version="1.0" encoding="UTF-8"?> <svg xmlns:sketch="http://www.bohemiancoding.com/sketch/ns" xmlns="http://www.w3.org/2000/svg" xmlns:xlink="http://www.w3.org/1999/xlink" version="1.1" id="Layer_1" x="0px" y="0px" viewBox="0 0 64 64" style="enable-background:new 0 0 64 64;" xml:space="preserve"> <style type="text/css"> .st0{fill-rule:evenodd;clip-rule:evenodd;fill:#3498DB;} </style> <g> <path class="st0" d="M61.9,29.6L49,7.2c-0.8-1.4-2.4-2.4-4.1-2.4H19.1c-1.6,0-3.3,0.9-4.1,2.4L2.1,29.6c-0.8,1.4-0.8,3.3,0,4.7 L15,56.8c0.8,1.4,2.4,2.4,4.1,2.4h25.8c1.6,0,3.3-0.9,4.1-2.4l12.9-22.4C62.7,32.9,62.7,31.1,61.9,29.6z M44.5,46.1h-4.5 c-0.2,0-0.4-0.1-0.5-0.3l-7.5-13.5c0-0.1-0.1-0.1-0.1-0.2c0,0.1,0,0.1-0.1,0.2l-7.5,13.5c-0.1,0.2-0.3,0.3-0.5,0.3h-4.4 c-0.4,0-0.7-0.5-0.5-0.9L26.3,32L19,18.8c-0.2-0.3,0-0.8,0.4-0.8c0,0,0.1,0,0.1,0h4.4c0.2,0,0.4,0.1,0.5,0.3l7.5,13.5 c0,0.1,0.1,0.1,0.1,0.2c0-0.1,0-0.1,0.1-0.2l7.5-13.5c0.1-0.2,0.3-0.3,0.5-0.3h4.5c0.4,0,0.7,0.5,0.5,0.8L37.7,32L45,45.2 C45.3,45.5,44.9,46.1,44.5,46.1z"></path> </g> </svg> 