<?xml version="1.0" encoding="UTF-8"?> <svg xmlns="http://www.w3.org/2000/svg" xmlns:xlink="http://www.w3.org/1999/xlink" version="1.1" id="Layer_1" x="0px" y="0px" viewBox="0 0 188 45" style="enable-background:new 0 0 188 45;" xml:space="preserve"> <style type="text/css"> .st0{fill:#030303;} .st1{fill:#EB0645;} </style> <g> <path class="st0" d="M94.3,43.3c-0.1-0.4-0.4-0.3-0.7-0.3c-2.6-0.6-4.9-1.8-6.9-3.7c-0.4-0.4-0.4-0.6,0-1c1-0.9,1.9-1.9,2.8-2.9 c0.4-0.4,0.6-0.4,1,0c1.5,1.3,3.2,2.4,5.3,2.7c3.2,0.5,5.9-1.2,6.8-4.3c0.3-1.1,0.5-2.3,0.3-3.5c-0.1,0.1-0.2,0.1-0.3,0.1 c-2.7,2.8-6,3.5-9.7,2.3c-3.6-1.1-5.5-3.9-6.2-7.5c-0.6-3.1-0.3-6.2,1.3-9c2.9-5,10.6-6.3,14.4-1.4c0.1,0.1,0.1,0.2,0.1,0.3 c0.1-0.1,0.2-0.1,0.3-0.2c0-0.8,0-1.5,0-2.3c0-0.4,0.1-0.6,0.6-0.6c1.6,0,3.2,0,4.8,0c0.3,0,0.5,0.1,0.5,0.5 c-0.1,6.7,0.3,13.4-0.2,20.1c-0.2,3.1-1.4,6-3.8,8.2c-1.3,1.2-2.9,1.9-4.6,2.3c-0.3,0.1-0.7,0-1,0.3C97.4,43.3,95.9,43.3,94.3,43.3 z M92.5,22.2c0,1.1,0.2,2.2,0.8,3.2c0.9,1.7,2.4,2.7,4.4,2.7c2,0,3.5-1,4.4-2.8c1-2,1-4.1,0-6.1c-1.5-3.2-5.8-3.8-8.1-1.1 C93,19.2,92.6,20.6,92.5,22.2z"></path> <path class="st1" d="M7.2,18c0.4-0.1,0.3-0.5,0.3-0.8c0.5-2.5,1.5-4.8,2.9-6.9c0.2-0.4,0.5-0.5,0.9-0.6c6.1-0.8,12.1-1.2,18.3-1 c0.9,0,1.7,0.1,2.8,0.2c-0.9,1-1.7,1.8-2.5,2.6c-5.4,5.5-10.8,11-16.2,16.5c-0.4,0.4-0.5,0.8-0.4,1.4c0.5,2.4,2.4,4,5.4,4.4 c4.5,0.6,9.1,0.5,13.6,0.3c2.6-0.2,5.3-0.4,7.9-0.7c0.2,0,0.4-0.1,0.6,0.1c-1.4,1.7-3.1,3-5,4.1C24.2,44,10.1,37.5,7.5,24.5 c0-0.2,0-0.5-0.3-0.6C7.2,22,7.2,20,7.2,18z"></path> <path class="st0" d="M180.1,21.7c-2,0.5-4,1.2-5.9,1.8c-2.8,0.9-5.6,1.8-8.5,2.7c0.9,1.2,2.1,1.8,3.6,1.9c2,0.1,3.7-0.7,5.2-2 c0.4-0.4,0.6-0.3,1,0.1c0.8,0.9,1.7,1.8,2.5,2.6c0.3,0.3,0.4,0.5,0,0.8c-5.8,5.4-15.3,4.3-18.5-2.9c-1.7-3.7-1.4-7.4,1-10.7 c2.4-3.3,5.9-4.8,10-4.4c5.1,0.5,8.2,3.2,9.4,8.2c0,0.2,0,0.4,0.3,0.5C180.1,20.7,180.1,21.2,180.1,21.7z M164.1,22.1 c0.1,0,0.1,0,0.2,0c3.2-1,6.4-2,9.6-3c0.5-0.2,0.3-0.4,0.1-0.6c-1.4-1.6-3.1-2.3-5.2-1.9C165.9,17,163.8,19.5,164.1,22.1z"></path> <path class="st1" d="M20.3,32.3c2.2-2.2,4.2-4.3,6.3-6.4c4.2-4.3,8.3-8.5,12.5-12.8c0.4-0.4,0.5-0.7,0.4-1.2 c-0.4-2.3-2-3.6-4.2-4.3C33,7,30.6,7,28.2,6.9C23,6.8,17.9,7.2,12.7,7.8c0-0.3,0.2-0.5,0.4-0.6C18.8,2,25.4,0.5,32.7,3 c7.2,2.5,11.5,7.8,12.7,15.4c0.7,4.4-0.2,8.5-2.5,12.3c-0.2,0.3-0.4,0.6-0.9,0.7c-7,0.9-14,1.5-21.1,1 C20.8,32.4,20.6,32.3,20.3,32.3z"></path> <path class="st0" d="M117.6,30c0,0.8,0,1.4,0,2c0,0.4-0.1,0.6-0.6,0.6c-1.6,0-3.2,0-4.7,0c-0.6,0-0.6-0.4-0.6-0.8 c0-4.8,0-9.6,0-14.4c0-3.9,0-7.8,0-11.7c0-0.7,0.2-0.9,0.9-0.9c1.4,0.1,2.8,0,4.2,0c0.6,0,0.8,0.2,0.7,0.7c0,2.7,0,5.5,0,8.3 c0.1,0,0.2,0,0.3,0c4.3-3.6,9.8-3,13.3,1.3c3.2,4,3.5,12.6-3.1,16.6c-3.3,2-7.2,1.4-9.9-1.4C118,30.3,117.9,30.3,117.6,30z M117.4,22c0,0.9,0.1,1.6,0.4,2.3c0.7,2.2,2.5,3.6,4.6,3.7c2.3,0,4.1-1.2,4.9-3.5c0.6-1.7,0.6-3.4-0.1-5c-1.2-2.9-4.7-4.1-7.3-2.4 C118.1,18.2,117.5,20.1,117.4,22z"></path> <path class="st0" d="M142.2,26.3c1.6,1.8,3.5,2.1,5.6,1.6c1.2-0.3,2.3-0.9,3.3-1.8c0.3-0.3,0.5-0.3,0.8,0c0.9,0.9,1.8,1.9,2.7,2.8 c0.2,0.2,0.3,0.4,0,0.7c-3.3,2.9-7,4.1-11.3,3.1c-4.1-1-6.9-3.6-7.8-7.6c-2.1-9.1,5.3-14,11.6-13.4c5.4,0.5,9,3.9,9.7,9.3 c0.1,0.6-0.1,0.9-0.7,1.1c-4.4,1.4-8.8,2.8-13.3,4.2C142.6,26.2,142.5,26.2,142.2,26.3z M140.7,21.6c-0.1,0.4,0,0.6,0.6,0.4 c3-1,6.1-2,9.1-2.9c0.5-0.1,0.5-0.3,0.2-0.7c-1.3-1.7-3.7-2.4-5.9-1.7C142.4,17.4,140.8,19.4,140.7,21.6z"></path> <path class="st0" d="M65.1,27.8c2.4,0,4.6,0,6.8,0c1.3,0,2.5,0,3.8,0.1c0.2,1.3,0,2.6,0.1,3.8c0,0.1,0,0.2,0,0.3 c0.1,0.6-0.2,0.7-0.8,0.7c-5.5,0-11.1,0-16.6,0c-0.6,0-0.8-0.2-0.8-0.8c0.1-1.3-0.3-2.7,0.1-3.9c0.4-1.2,1.6-2,2.5-3 c2.1-2.4,4.2-4.8,6.3-7.2c0.2-0.3,0.5-0.5,0.7-0.8c-0.2-0.3-0.5-0.2-0.7-0.2c-2.4,0-4.9,0-7.3,0c-0.6,0-0.9-0.1-0.9-0.8 c0.1-1.1,0-2.2,0-3.4c0-0.5,0.1-0.7,0.6-0.7c5.2,0,10.4,0,15.6,0c0.5,0,0.7,0.2,0.6,0.6c0,0.1,0,0.1,0,0.2c0.5,2.7-0.5,4.7-2.4,6.6 C70.1,21.9,67.7,24.8,65.1,27.8z"></path> <path class="st0" d="M84.2,22.3c0,3.2,0,6.4,0,9.6c0,0.6-0.1,0.8-0.8,0.8c-1.5-0.1-3,0-4.6,0c-0.5,0-0.6-0.1-0.6-0.6 c0-6.5,0-13,0-19.6c0-0.4,0.1-0.6,0.6-0.6c1.6,0,3.2,0,4.8,0c0.6,0,0.6,0.3,0.6,0.7C84.2,15.9,84.2,19.1,84.2,22.3z"></path> <path class="st0" d="M84.7,6.8c0,1.9-1.5,3.4-3.5,3.4c-1.9,0-3.4-1.5-3.4-3.4c0-1.9,1.5-3.5,3.5-3.5C83.2,3.4,84.7,4.9,84.7,6.8z"></path> </g> </svg> 